<?xml version="1.0" encoding="UTF-8" standalone="no"?>
<svg xmlns:xlink="http://www.w3.org/1999/xlink" height="31.45px" width="83.1px" xmlns="http://www.w3.org/2000/svg">
  <g transform="matrix(1.0, 0.0, 0.0, 1.0, 0.75, 0.75)">
    <path d="M81.6 3.75 L81.6 26.2 Q81.6 28.4 79.85 29.3 78.65 29.95 76.6 29.95 L4.95 29.95 Q0.0 29.95 0.0 26.2 L0.0 3.75 Q0.0 2.7 0.35 1.95 1.05 0.6 2.95 0.2 L4.95 0.0 76.6 0.0 Q81.6 0.0 81.6 3.75" fill="#070a1b" fill-rule="evenodd" stroke="none"/>
    <path d="M81.6 3.75 Q81.6 0.0 76.6 0.0 L4.95 0.0 2.95 0.2 Q1.05 0.6 0.35 1.95 0.0 2.7 0.0 3.75 L0.0 26.2 Q0.0 29.95 4.95 29.95 L76.6 29.95 Q78.65 29.95 79.85 29.3 81.6 28.4 81.6 26.2 L81.6 3.75 Z" fill="none" stroke="url(#gradient0)" stroke-linecap="round" stroke-linejoin="round" stroke-width="1.5"/>
    <path d="M58.2 29.6 Q78.85 26.15 80.3 3.8 L80.3 25.65 Q80.3 29.6 75.7 29.6 L58.2 29.6" fill="url(#gradient1)" fill-rule="evenodd" stroke="none"/>
    <path d="M1.25 4.65 Q0.45 0.1 6.45 0.25 L43.4 0.25 Q6.5 3.4 1.25 27.15 L1.25 4.65" fill="url(#gradient2)" fill-rule="evenodd" stroke="none"/>
    <path d="M61.1 24.4 L54.3 24.4 Q53.3 24.4 52.5 23.65 51.4 24.4 49.5 24.4 L49.5 22.1 Q50.45 21.8 50.45 21.4 L50.45 14.75 52.95 14.75 52.95 20.7 Q52.95 21.05 53.6 21.6 L54.1 21.85 54.1 13.95 51.1 13.95 51.1 6.2 60.3 6.2 60.3 12.25 Q60.3 13.95 58.4 13.95 L56.8 13.95 56.8 16.05 60.3 16.05 60.3 18.5 56.8 18.5 56.8 22.0 61.1 22.0 61.1 24.4 M53.6 8.55 L53.6 11.6 57.15 11.6 Q57.8 11.6 57.8 11.05 L57.8 8.55 53.6 8.55 M48.75 6.0 L48.75 8.2 50.45 8.2 50.45 10.7 48.75 10.7 48.75 11.7 50.4 11.7 50.4 14.2 48.75 14.2 48.75 22.0 Q48.75 23.0 48.1 23.6 47.6 24.2 46.6 24.2 L43.25 24.2 43.25 21.85 45.75 21.85 Q46.25 21.85 46.25 20.75 L46.25 16.9 45.5 19.45 Q45.05 21.05 43.95 21.05 L42.55 21.05 42.55 18.4 43.0 18.4 43.4 17.95 44.85 12.85 Q45.1 11.7 45.9 11.7 L46.25 11.7 46.25 10.7 42.8 10.7 42.8 8.2 46.25 8.2 46.25 6.0 48.75 6.0 M34.1 6.6 L36.6 6.6 36.6 8.8 Q36.6 10.1 35.1 10.1 L32.1 10.1 32.1 11.2 36.2 11.2 36.2 23.0 Q36.2 24.2 34.75 24.2 L32.7 24.2 32.7 22.25 33.3 22.25 33.65 21.9 33.65 21.0 32.1 21.0 32.1 24.1 29.6 24.1 29.6 21.0 28.0 21.0 28.0 24.2 25.45 24.2 25.45 11.2 29.6 11.2 29.6 10.1 25.3 10.1 25.3 7.85 29.6 7.85 29.6 6.2 32.1 6.2 32.1 7.85 33.8 7.85 34.1 7.5 34.1 6.6 M23.5 7.6 L24.9 7.6 24.9 10.0 23.5 10.0 23.5 11.4 24.65 11.4 24.65 13.8 23.5 13.8 23.5 21.85 Q23.5 22.85 22.85 23.5 22.35 24.1 21.4 24.1 L19.25 24.1 19.25 21.9 20.45 21.9 Q20.9 21.9 20.9 20.9 L20.9 18.65 20.6 19.6 Q20.3 20.6 19.8 20.6 L18.5 20.6 18.5 18.2 Q19.0 18.2 19.25 17.3 L20.75 12.35 20.9 12.0 20.9 10.0 18.7 10.0 18.7 7.6 20.9 7.6 20.9 6.3 23.5 6.3 23.5 7.6 M28.0 17.15 L28.0 18.7 29.6 18.7 29.6 17.15 28.0 17.15 M28.0 15.0 L29.6 15.0 29.6 13.4 28.0 13.4 28.0 15.0 M32.1 17.15 L32.1 18.7 33.65 18.7 33.65 17.15 32.1 17.15 M32.1 13.4 L32.1 15.0 33.65 15.0 33.65 13.4 32.1 13.4" fill="#52e5f9" fill-rule="evenodd" stroke="none"/>
  </g>
  <defs>
    <linearGradient gradientTransform="matrix(0.0, 0.0184, -0.0192, 0.0, 40.8, 14.95)" gradientUnits="userSpaceOnUse" id="gradient0" spreadMethod="pad" x1="-819.2" x2="819.2">
      <stop offset="0.0" stop-color="#41ffff" stop-opacity="0.8"/>
      <stop offset="1.0" stop-color="#305c69" stop-opacity="0.8"/>
    </linearGradient>
    <linearGradient gradientTransform="matrix(-0.0137, -0.0079, -0.0234, 0.0224, 70.75, 33.8)" gradientUnits="userSpaceOnUse" id="gradient1" spreadMethod="pad" x1="-819.2" x2="819.2">
      <stop offset="0.0" stop-color="#ccffff" stop-opacity="0.29803923"/>
      <stop offset="1.0" stop-color="#d6d6d6" stop-opacity="0.0"/>
    </linearGradient>
    <linearGradient gradientTransform="matrix(0.022, 0.0164, 0.027, -0.02, 14.4, 1.0)" gradientUnits="userSpaceOnUse" id="gradient2" spreadMethod="pad" x1="-819.2" x2="819.2">
      <stop offset="0.0" stop-color="#ccffff" stop-opacity="0.29803923"/>
      <stop offset="1.0" stop-color="#d6d6d6" stop-opacity="0.0"/>
    </linearGradient>
  </defs>
</svg>
