<?xml version="1.0" encoding="UTF-8" standalone="no"?>
<svg xmlns:xlink="http://www.w3.org/1999/xlink" height="31.45px" width="83.1px" xmlns="http://www.w3.org/2000/svg">
  <g transform="matrix(1.0, 0.0, 0.0, 1.0, 0.75, 0.75)">
    <path d="M81.6 3.75 L81.6 26.2 Q81.6 28.4 79.85 29.3 78.65 29.95 76.6 29.95 L4.95 29.95 Q0.0 29.95 0.0 26.2 L0.0 3.75 Q0.0 2.7 0.35 1.95 1.05 0.6 2.95 0.2 L4.95 0.0 76.6 0.0 Q81.6 0.0 81.6 3.75" fill="#070a1b" fill-rule="evenodd" stroke="none"/>
    <path d="M81.6 3.75 Q81.6 0.0 76.6 0.0 L4.95 0.0 2.95 0.2 Q1.05 0.6 0.35 1.95 0.0 2.7 0.0 3.75 L0.0 26.2 Q0.0 29.95 4.95 29.95 L76.6 29.95 Q78.65 29.95 79.85 29.3 81.6 28.4 81.6 26.2 L81.6 3.75 Z" fill="none" stroke="url(#gradient0)" stroke-linecap="round" stroke-linejoin="round" stroke-width="1.5"/>
    <path d="M58.2 29.6 Q78.85 26.15 80.3 3.8 L80.3 25.65 Q80.3 29.6 75.7 29.6 L58.2 29.6" fill="url(#gradient1)" fill-rule="evenodd" stroke="none"/>
    <path d="M1.25 4.65 Q0.45 0.1 6.45 0.25 L43.4 0.25 Q6.5 3.4 1.25 27.15 L1.25 4.65" fill="url(#gradient2)" fill-rule="evenodd" stroke="none"/>
    <path d="M61.95 24.45 L55.15 24.45 Q54.15 24.45 53.35 23.7 52.25 24.45 50.35 24.45 L50.35 22.15 Q51.3 21.85 51.3 21.45 L51.3 14.8 53.8 14.8 53.8 20.75 Q53.8 21.1 54.45 21.65 L54.95 21.9 54.95 14.0 51.95 14.0 51.95 6.25 61.15 6.25 61.15 12.3 Q61.15 14.0 59.25 14.0 L57.65 14.0 57.65 16.1 61.15 16.1 61.15 18.55 57.65 18.55 57.65 22.05 61.95 22.05 61.95 24.45 M51.3 10.75 L49.6 10.75 49.6 11.75 51.25 11.75 51.25 14.25 49.6 14.25 49.6 22.05 Q49.6 23.05 48.95 23.65 48.45 24.25 47.45 24.25 L44.1 24.25 44.1 21.9 46.6 21.9 Q47.1 21.9 47.1 20.8 L47.1 16.95 46.35 19.5 Q45.9 21.1 44.8 21.1 L43.4 21.1 43.4 18.45 43.85 18.45 44.25 18.0 45.7 12.9 Q45.95 11.75 46.75 11.75 L47.1 11.75 47.1 10.75 43.65 10.75 43.65 8.25 47.1 8.25 47.1 6.05 49.6 6.05 49.6 8.25 51.3 8.25 51.3 10.75 M54.45 11.65 L58.0 11.65 Q58.65 11.65 58.65 11.1 L58.65 8.6 54.45 8.6 54.45 11.65 M34.95 6.65 L37.45 6.65 37.45 8.85 Q37.45 10.15 35.95 10.15 L32.95 10.15 32.95 11.25 37.05 11.25 37.05 23.05 Q37.05 24.25 35.6 24.25 L33.55 24.25 33.55 22.3 34.15 22.3 34.5 21.95 34.5 21.05 32.95 21.05 32.95 24.15 30.45 24.15 30.45 21.05 28.85 21.05 28.85 24.25 26.3 24.25 26.3 11.25 30.45 11.25 30.45 10.15 26.15 10.15 26.15 7.9 30.45 7.9 30.45 6.25 32.95 6.25 32.95 7.9 34.65 7.9 34.95 7.55 34.95 6.65 M24.35 7.65 L25.75 7.65 25.75 10.05 24.35 10.05 24.35 11.45 25.5 11.45 25.5 13.85 24.35 13.85 24.35 21.9 Q24.35 22.9 23.7 23.55 23.2 24.15 22.25 24.15 L20.1 24.15 20.1 21.95 21.3 21.95 Q21.75 21.95 21.75 20.95 L21.75 18.7 21.45 19.65 Q21.15 20.65 20.65 20.65 L19.35 20.65 19.35 18.25 Q19.85 18.25 20.1 17.35 L21.6 12.4 21.75 12.05 21.75 10.05 19.55 10.05 19.55 7.65 21.75 7.65 21.75 6.35 24.35 6.35 24.35 7.65 M28.85 15.05 L30.45 15.05 30.45 13.45 28.85 13.45 28.85 15.05 M28.85 18.75 L30.45 18.75 30.45 17.2 28.85 17.2 28.85 18.75 M32.95 17.2 L32.95 18.75 34.5 18.75 34.5 17.2 32.95 17.2 M32.95 13.45 L32.95 15.05 34.5 15.05 34.5 13.45 32.95 13.45" fill="#52e5f9" fill-rule="evenodd" stroke="none"/>
  </g>
  <defs>
    <linearGradient gradientTransform="matrix(0.0, 0.0184, -0.0192, 0.0, 40.8, 14.95)" gradientUnits="userSpaceOnUse" id="gradient0" spreadMethod="pad" x1="-819.2" x2="819.2">
      <stop offset="0.0" stop-color="#41ffff" stop-opacity="0.8"/>
      <stop offset="1.0" stop-color="#305c69" stop-opacity="0.8"/>
    </linearGradient>
    <linearGradient gradientTransform="matrix(-0.0137, -0.0079, -0.0234, 0.0224, 70.75, 33.8)" gradientUnits="userSpaceOnUse" id="gradient1" spreadMethod="pad" x1="-819.2" x2="819.2">
      <stop offset="0.0" stop-color="#ccffff" stop-opacity="0.29803923"/>
      <stop offset="1.0" stop-color="#d6d6d6" stop-opacity="0.0"/>
    </linearGradient>
    <linearGradient gradientTransform="matrix(0.022, 0.0164, 0.027, -0.02, 14.4, 1.0)" gradientUnits="userSpaceOnUse" id="gradient2" spreadMethod="pad" x1="-819.2" x2="819.2">
      <stop offset="0.0" stop-color="#ccffff" stop-opacity="0.29803923"/>
      <stop offset="1.0" stop-color="#d6d6d6" stop-opacity="0.0"/>
    </linearGradient>
  </defs>
</svg>
