<?xml version="1.0" encoding="UTF-8" standalone="no"?>
<svg xmlns:xlink="http://www.w3.org/1999/xlink" height="33.6px" width="92.15px" xmlns="http://www.w3.org/2000/svg">
  <g transform="matrix(1.0, 0.0, 0.0, 1.0, -24.55, 0.05)">
    <path d="M113.8 33.5 Q116.15 26.2 116.55 18.0 L116.65 15.65 116.65 14.9 Q116.7 7.1 114.95 0.0 M27.45 33.5 Q24.75 25.25 24.6 16.1 L24.6 15.65 24.65 11.9 Q25.0 5.7 26.45 0.0" fill="none" stroke="#52e5f9" stroke-linecap="butt" stroke-linejoin="miter-clip" stroke-miterlimit="3.0" stroke-opacity="0.40784314" stroke-width="0.1"/>
    <path d="M99.05 0.0 Q101.5 7.1 101.45 15.05 L101.45 15.65 M102.95 33.5 Q105.8 26.1 106.25 17.55 L106.35 15.65 M41.75 0.0 Q39.75 5.95 39.4 12.65 L39.4 15.65" fill="none" stroke="#52e5f9" stroke-linecap="butt" stroke-linejoin="miter-clip" stroke-miterlimit="3.0" stroke-opacity="0.40784314" stroke-width="0.1"/>
    <path d="M101.45 15.65 L106.35 15.65 M101.45 15.65 L90.45 15.65 50.35 15.65 39.4 15.65 34.45 15.65" fill="none" stroke="#52e5f9" stroke-linecap="round" stroke-linejoin="miter-clip" stroke-miterlimit="3.0" stroke-opacity="0.4" stroke-width="0.2"/>
    <path d="M106.35 15.65 L106.35 14.95 Q106.4 7.05 104.2 0.0 M101.45 15.65 L101.3 17.3 Q100.9 26.05 97.65 33.5 M90.45 15.65 L90.45 15.3 Q90.6 7.45 85.3 1.55 L83.75 0.0 M90.45 15.65 L90.45 16.0 Q90.0 24.25 83.8 29.85 81.15 32.25 78.1 33.5 M50.35 15.65 L50.35 15.7 Q50.6 22.9 55.5 28.35 58.7 31.85 62.75 33.5 M50.35 15.65 L50.4 13.9 Q50.85 5.6 56.95 0.1 M39.4 15.65 L39.4 16.05 Q39.55 25.4 43.2 33.5 M34.45 15.65 L34.45 16.0 Q34.6 25.35 37.85 33.5 M34.45 15.65 Q34.4 14.05 34.5 12.4 34.85 5.85 36.6 0.0" fill="none" stroke="#52e5f9" stroke-linecap="round" stroke-linejoin="miter-clip" stroke-miterlimit="3.0" stroke-opacity="0.40784314" stroke-width="0.1"/>
    <path d="M106.35 15.65 L115.95 15.65 M34.45 15.65 L24.9 15.65" fill="none" stroke="#52e5f9" stroke-linecap="round" stroke-linejoin="miter-clip" stroke-miterlimit="3.0" stroke-opacity="0.4" stroke-width="0.2"/>
  </g>
</svg>
