<?xml version="1.0" encoding="UTF-8" standalone="no"?>
<svg xmlns:xlink="http://www.w3.org/1999/xlink" height="33.6px" width="99.9px" xmlns="http://www.w3.org/2000/svg">
  <g transform="matrix(1.0, 0.0, 0.0, 1.0, -20.35, 0.05)">
    <path d="M105.65 33.5 Q108.9 26.05 109.3 17.3 L109.45 15.65 109.45 15.05 Q109.5 7.1 107.05 0.0 M109.95 33.5 Q112.8 26.1 113.25 17.55 L113.35 15.65 M83.75 0.0 L85.3 1.55 Q90.6 7.45 90.45 15.3 L90.45 15.65 M31.35 33.5 Q28.1 25.35 27.95 16.0 L27.95 15.65" fill="none" stroke="#52e5f9" stroke-linecap="butt" stroke-linejoin="miter-clip" stroke-miterlimit="3.0" stroke-opacity="0.40784314" stroke-width="0.1"/>
    <path d="M109.45 15.65 L90.45 15.65 50.35 15.65 31.9 15.65 27.95 15.65 21.1 15.65 M109.45 15.65 L113.35 15.65 120.15 15.65" fill="none" stroke="#52e5f9" stroke-linecap="round" stroke-linejoin="miter-clip" stroke-miterlimit="3.0" stroke-opacity="0.4" stroke-width="0.2"/>
    <path d="M90.45 15.65 L90.45 16.0 Q90.0 24.25 83.8 29.85 81.15 32.25 78.1 33.5 M113.35 15.65 L113.35 14.95 Q113.4 7.05 111.2 0.0 M120.15 15.65 L120.15 14.9 Q120.2 7.1 118.45 0.0 M120.15 15.65 L120.05 18.0 Q119.65 26.2 117.3 33.5 M50.35 15.65 L50.35 15.7 Q50.6 22.9 55.5 28.35 58.7 31.85 62.75 33.5 M50.35 15.65 L50.4 13.9 Q50.85 5.6 56.95 0.1 M21.1 15.65 L21.15 11.9 Q21.5 5.7 22.95 0.0 M27.95 15.65 Q27.9 14.05 28.0 12.4 28.35 5.85 30.1 0.0 M21.1 15.65 L21.1 16.1 Q21.25 25.25 23.95 33.5 M31.9 15.65 L31.9 12.65 Q32.25 5.95 34.25 0.0 M31.9 15.65 L31.9 16.05 Q32.05 25.4 35.7 33.5" fill="none" stroke="#52e5f9" stroke-linecap="round" stroke-linejoin="miter-clip" stroke-miterlimit="3.0" stroke-opacity="0.40784314" stroke-width="0.1"/>
    <path d="M21.1 15.65 L20.45 15.65" fill="none" stroke="#52e5f9" stroke-linecap="round" stroke-linejoin="miter-clip" stroke-miterlimit="3.0" stroke-opacity="0.4" stroke-width="0.2"/>
  </g>
</svg>
