<?xml version="1.0" encoding="UTF-8" standalone="no"?>
<svg xmlns:xlink="http://www.w3.org/1999/xlink" height="22.7px" width="39.75px" xmlns="http://www.w3.org/2000/svg">
  <g transform="matrix(1.0, 0.0, 0.0, 1.0, 19.85, 11.35)">
    <path d="M7.3 -7.15 Q7.9 -6.6 7.9 -5.8 7.9 -4.95 7.3 -4.4 6.75 -3.85 5.95 -3.85 5.2 -3.85 4.6 -4.4 4.05 -4.95 4.05 -5.8 4.05 -6.6 4.6 -7.15 5.2 -7.75 5.95 -7.75 6.75 -7.75 7.3 -7.15 M7.3 -0.6 Q7.9 0.0 7.9 0.75 7.9 1.6 7.3 2.15 6.75 2.75 5.95 2.75 5.2 2.75 4.6 2.15 4.05 1.6 4.05 0.75 4.05 0.0 4.6 -0.6 5.2 -1.15 5.95 -1.15 6.75 -1.15 7.3 -0.6 M12.25 -9.35 L12.25 4.2 0.25 4.2 0.25 7.4 -3.0 7.4 -3.0 2.45 0.2 -1.95 -3.7 -1.95 -3.7 -3.2 -2.45 -3.2 0.3 -5.5 -4.5 -5.5 -4.5 -8.85 -7.0 -8.85 -7.0 -5.65 -8.95 -5.65 -8.95 -3.05 -6.6 -3.05 -6.6 3.75 -7.95 5.55 -7.95 7.05 -5.55 7.05 -5.55 9.25 -0.35 9.25 0.8 7.4 12.25 7.4 12.25 9.2 12.9 9.2 17.9 6.0 17.9 4.05 15.6 4.05 15.6 -9.35 12.25 -9.35 M-13.6 -8.1 L-8.8 -8.1 -10.1 -5.35 -13.5 -5.35 -13.5 -1.65 -9.15 -1.65 -9.15 7.3 -11.6 9.3 -11.7 9.35 -17.85 9.35 -17.85 -1.65 -16.65 -1.65 -16.65 -9.35 -13.6 -9.35 -13.6 -8.1 M-1.45 -9.25 Q-0.85 -9.25 -0.4 -8.75 0.1 -8.25 0.1 -7.65 0.1 -7.0 -0.4 -6.55 -0.85 -6.05 -1.45 -6.05 -2.1 -6.05 -2.6 -6.55 -3.05 -7.0 -3.05 -7.65 L-2.6 -8.75 Q-2.1 -9.25 -1.45 -9.25 M-12.15 0.5 L-12.15 6.8 -15.2 6.8 -15.2 0.5 -12.15 0.5 Z" fill="none" stroke="#10161b" stroke-linecap="butt" stroke-linejoin="miter-clip" stroke-miterlimit="3.0" stroke-width="4.0"/>
    <path d="M7.3 -7.15 Q7.9 -6.6 7.9 -5.8 7.9 -4.95 7.3 -4.4 6.75 -3.85 5.95 -3.85 5.2 -3.85 4.6 -4.4 4.05 -4.95 4.05 -5.8 4.05 -6.6 4.6 -7.15 5.2 -7.75 5.95 -7.75 6.75 -7.75 7.3 -7.15 M7.3 -0.6 Q7.9 0.0 7.9 0.75 7.9 1.6 7.3 2.15 6.75 2.75 5.95 2.75 5.2 2.75 4.6 2.15 4.05 1.6 4.05 0.75 4.05 0.0 4.6 -0.6 5.2 -1.15 5.95 -1.15 6.75 -1.15 7.3 -0.6 M12.25 -9.35 L12.25 4.2 0.25 4.2 0.25 7.4 -3.0 7.4 -3.0 2.45 0.2 -1.95 -3.7 -1.95 -3.7 -3.2 -2.45 -3.2 0.3 -5.5 -4.5 -5.5 -4.5 -8.85 -7.0 -8.85 -7.0 -5.65 -8.95 -5.65 -8.95 -3.05 -6.6 -3.05 -6.6 3.75 -7.95 5.55 -7.95 7.05 -5.55 7.05 -5.55 9.25 -0.35 9.25 0.8 7.4 12.25 7.4 12.25 9.2 12.9 9.2 17.9 6.0 17.9 4.05 15.6 4.05 15.6 -9.35 12.25 -9.35 M-13.6 -8.1 L-8.8 -8.1 -10.1 -5.35 -13.5 -5.35 -13.5 -1.65 -9.15 -1.65 -9.15 7.3 -11.6 9.3 -11.7 9.35 -17.85 9.35 -17.85 -1.65 -16.65 -1.65 -16.65 -9.35 -13.6 -9.35 -13.6 -8.1 M-1.45 -9.25 Q-0.85 -9.25 -0.4 -8.75 0.1 -8.25 0.1 -7.65 0.1 -7.0 -0.4 -6.55 -0.85 -6.05 -1.45 -6.05 -2.1 -6.05 -2.6 -6.55 -3.05 -7.0 -3.05 -7.65 L-2.6 -8.75 Q-2.1 -9.25 -1.45 -9.25 M-12.15 0.5 L-12.15 6.8 -15.2 6.8 -15.2 0.5 -12.15 0.5 Z" fill="none" stroke="#006699" stroke-linecap="butt" stroke-linejoin="miter-clip" stroke-miterlimit="3.0" stroke-width="2.0"/>
    <path d="M7.3 -7.15 Q7.9 -6.6 7.9 -5.8 7.9 -4.95 7.3 -4.4 6.75 -3.85 5.95 -3.85 5.2 -3.85 4.6 -4.4 4.05 -4.95 4.05 -5.8 4.05 -6.6 4.6 -7.15 5.2 -7.75 5.95 -7.75 6.75 -7.75 7.3 -7.15 M7.3 -0.6 Q7.9 0.0 7.9 0.75 7.9 1.6 7.3 2.15 6.75 2.75 5.95 2.75 5.2 2.75 4.6 2.15 4.05 1.6 4.05 0.75 4.05 0.0 4.6 -0.6 5.2 -1.15 5.95 -1.15 6.75 -1.15 7.3 -0.6 M12.25 -9.35 L15.6 -9.35 15.6 4.05 17.9 4.05 17.9 6.0 12.9 9.2 12.25 9.2 12.25 7.4 0.8 7.4 -0.35 9.25 -5.55 9.25 -5.55 7.05 -7.95 7.05 -7.95 5.55 -6.6 3.75 -6.6 -3.05 -8.95 -3.05 -8.95 -5.65 -7.0 -5.65 -7.0 -8.85 -4.5 -8.85 -4.5 -5.5 0.3 -5.5 -2.45 -3.2 -3.7 -3.2 -3.7 -1.95 0.2 -1.95 -3.0 2.45 -3.0 7.4 0.25 7.4 0.25 4.2 12.25 4.2 12.25 -9.35 M-13.6 -8.1 L-8.8 -8.1 -10.1 -5.35 -13.5 -5.35 -13.5 -1.65 -9.15 -1.65 -9.15 7.3 -11.6 9.3 -11.7 9.35 -17.85 9.35 -17.85 -1.65 -16.65 -1.65 -16.65 -9.35 -13.6 -9.35 -13.6 -8.1 M-1.45 -9.25 Q-0.85 -9.25 -0.4 -8.75 0.1 -8.25 0.1 -7.65 0.1 -7.0 -0.4 -6.55 -0.85 -6.05 -1.45 -6.05 -2.1 -6.05 -2.6 -6.55 -3.05 -7.0 -3.05 -7.65 L-2.6 -8.75 Q-2.1 -9.25 -1.45 -9.25 M-12.15 0.5 L-15.2 0.5 -15.2 6.8 -12.15 6.8 -12.15 0.5" fill="url(#gradient0)" fill-rule="evenodd" stroke="none"/>
  </g>
  <defs>
    <linearGradient gradientTransform="matrix(0.0, -0.0125, 0.0114, 0.0, 0.0, 0.0)" gradientUnits="userSpaceOnUse" id="gradient0" spreadMethod="pad" x1="-819.2" x2="819.2">
      <stop offset="0.0" stop-color="#52e5f9"/>
      <stop offset="1.0" stop-color="#ccffff"/>
    </linearGradient>
  </defs>
</svg>
