<?xml version="1.0" encoding="UTF-8" standalone="no"?>
<svg xmlns:xlink="http://www.w3.org/1999/xlink" height="38.0px" width="36.0px" xmlns="http://www.w3.org/2000/svg">
  <g transform="matrix(1.0, 0.0, 0.0, 1.0, 0.0, 0.0)">
    <path d="M36.0 0.0 L36.0 38.0 0.2 38.0 0.2 0.0 36.0 0.0" fill="#cccccc" fill-opacity="0.0" fill-rule="evenodd" stroke="none"/>
    <path d="M12.5 5.4 L29.6 2.9 30.2 2.9 Q32.0 3.1 33.0 6.1 32.7 5.6 33.0 6.8 32.6 7.3 32.8 9.1 32.1 9.2 32.3 11.6 31.7 12.4 31.5 15.8 L29.0 16.1 26.2 16.5 24.2 16.7 Q23.8 14.4 24.2 14.6 23.9 12.9 23.4 13.6 22.8 12.2 21.7 13.7 20.7 13.2 20.2 14.1 L13.3 15.1 12.9 15.0 12.7 14.7 Q12.4 13.9 12.7 14.1 11.8 13.4 11.4 14.1 10.8 12.9 10.5 13.7 10.2 13.0 10.2 13.5 L9.9 12.8 9.9 12.6 9.8 12.5 Q9.6 11.9 9.8 11.9 L9.7 11.9 9.8 11.5 Q10.1 10.2 9.5 9.2 L9.3 8.9 9.4 8.8 9.5 8.6 9.9 8.7 Q10.6 9.3 11.6 9.3 12.8 9.3 13.7 8.4 14.6 7.5 14.6 6.3 14.6 6.0 12.5 5.4 M8.7 13.2 L8.9 13.5 9.3 14.0 Q9.2 13.1 10.6 14.5 10.4 13.6 11.1 14.4 10.8 14.1 11.0 14.9 L11.1 15.0 11.1 15.4 Q10.3 14.6 11.0 15.9 L11.1 16.0 Q10.6 16.2 11.2 19.6 L11.4 20.7 11.6 20.7 Q11.8 19.0 14.2 19.9 L14.7 20.0 Q14.2 20.0 14.7 20.6 L15.8 21.5 16.8 22.1 17.0 22.2 Q16.7 22.1 16.9 22.4 L17.4 22.7 17.2 22.9 17.4 23.0 17.0 23.5 18.0 23.8 Q17.4 23.8 17.3 24.2 L17.7 24.5 18.2 24.7 18.1 24.8 18.2 25.0 17.9 25.1 18.0 25.3 17.9 25.3 17.9 25.4 Q18.6 25.5 19.4 25.9 L14.7 26.3 13.9 26.3 13.1 26.5 Q12.0 26.3 12.2 27.5 12.0 27.7 12.2 28.2 12.1 28.3 12.5 28.8 L12.6 29.7 14.7 30.0 21.3 29.4 Q21.4 29.0 22.3 28.9 L22.8 29.2 Q22.3 29.2 22.9 29.7 22.6 29.7 22.8 29.8 L23.0 30.0 24.2 30.0 24.3 30.1 24.1 30.3 Q23.7 30.5 24.3 30.6 24.1 30.7 24.7 31.0 L24.4 31.3 24.7 31.3 25.1 31.5 24.8 31.6 25.1 31.8 25.8 32.0 Q25.5 32.0 25.4 32.2 L25.4 32.3 25.3 32.5 25.4 32.6 25.4 32.7 Q25.2 32.9 25.6 33.0 25.3 33.0 25.5 33.2 L25.5 33.3 23.0 34.5 18.9 34.9 14.5 35.1 12.6 35.3 12.2 35.3 11.1 35.1 11.0 35.1 Q8.3 34.3 8.3 32.9 L8.0 32.6 Q9.2 32.3 9.9 31.3 10.6 30.2 10.4 29.0 L9.0 22.4 8.3 21.0 Q8.6 20.1 8.3 19.1 L7.8 17.4 Q7.7 16.6 7.2 16.0 L7.4 15.4 Q7.6 14.5 7.3 13.7 L8.5 13.3 Q8.5 13.2 8.7 13.2 M27.1 32.8 L26.5 32.6 26.9 32.3 26.8 32.2 Q26.6 32.2 26.8 32.1 L27.2 31.9 26.0 31.5 26.1 31.4 25.2 30.5 24.8 30.2 25.2 30.1 24.8 29.9 Q24.0 29.7 24.5 29.7 24.3 29.4 24.7 29.4 L23.9 29.0 Q23.8 28.9 24.2 28.8 L23.4 28.7 Q23.0 27.4 23.7 26.0 23.0 25.6 23.0 25.7 L22.2 25.5 19.7 25.2 19.8 25.2 19.7 25.0 19.9 24.5 18.8 24.0 Q18.7 23.7 19.4 23.6 L18.6 23.2 18.5 23.3 18.8 22.9 18.6 22.8 18.8 22.6 17.9 22.4 18.3 22.1 18.1 21.8 17.2 21.3 16.4 20.3 Q16.2 19.9 16.4 20.0 L15.9 19.7 27.4 18.1 Q27.9 18.5 28.6 18.7 28.7 18.1 29.4 19.2 29.4 18.8 29.9 19.6 29.9 20.3 30.4 21.5 L30.0 24.0 30.0 24.1 Q29.5 24.2 29.8 24.5 29.1 25.7 29.3 27.7 28.5 29.0 28.5 31.2 L27.1 32.8 Q26.8 33.0 26.8 33.2 L26.7 33.1 Q26.6 33.0 27.1 32.8 M26.7 33.2 L26.7 33.4 26.6 33.5 Q26.5 33.3 26.7 33.2" fill="#d2d1cf" fill-opacity="0.48235294" fill-rule="evenodd" stroke="none"/>
    <path d="M9.7 11.9 L8.7 13.2 Q8.5 13.2 8.5 13.3 L7.3 13.7 Q7.6 14.5 7.4 15.4 L7.2 16.0 Q7.7 16.6 7.8 17.4 L8.3 19.1 Q8.6 20.1 8.3 21.0 L9.0 22.4 10.4 29.0 Q10.6 30.2 9.9 31.3 9.2 32.3 8.0 32.6 6.8 32.8 5.8 32.1 4.7 31.4 4.5 30.2 L2.8 23.1 2.5 21.8 1.9 19.2 0.6 15.1 Q-0.3 12.6 0.1 10.7 L0.7 7.7 Q0.9 6.5 4.6 3.7 L6.6 2.7 Q9.3 1.6 11.9 2.8 L13.7 4.2 Q14.3 4.8 12.5 5.4 14.6 6.0 14.6 6.3 14.6 7.5 13.7 8.4 12.8 9.3 11.6 9.3 10.6 9.3 9.9 8.7 L9.5 8.6 9.4 8.8 9.3 8.9 9.5 9.2 Q10.1 10.2 9.8 11.5 L9.7 11.9 M2.2 20.2 L2.2 20.3 2.3 20.5 2.2 20.2" fill="#371b0a" fill-rule="evenodd" stroke="none"/>
    <path d="M12.5 5.4 L29.6 2.9 30.2 2.9 Q32.0 3.1 33.0 6.1 32.7 5.6 33.0 6.8 32.6 7.3 32.8 9.1 32.1 9.2 32.3 11.6 31.7 12.4 31.5 15.8 L29.0 16.1 26.2 16.5 24.2 16.7 Q23.8 14.4 24.2 14.6 23.9 12.9 23.4 13.6 22.8 12.2 21.7 13.7 20.7 13.2 20.2 14.1 L13.3 15.1 12.9 15.0 12.7 14.7 Q12.4 13.9 12.7 14.1 11.8 13.4 11.4 14.1 10.8 12.9 10.5 13.7 10.2 13.0 10.2 13.5 L9.9 12.8 9.9 12.6 9.8 12.5 Q9.6 11.9 9.8 11.9 L9.7 11.9 M8.7 13.2 L8.9 13.5 9.3 14.0 Q9.2 13.1 10.6 14.5 10.4 13.6 11.1 14.4 10.8 14.1 11.0 14.9 L11.1 15.0 11.1 15.4 Q10.3 14.6 11.0 15.9 L11.1 16.0 Q10.6 16.2 11.2 19.6 L11.4 20.7 11.6 20.7 Q11.8 19.0 14.2 19.9 L14.7 20.0 Q14.2 20.0 14.7 20.6 L15.8 21.5 16.8 22.1 17.0 22.2 Q16.7 22.1 16.9 22.4 L17.4 22.7 17.2 22.9 17.4 23.0 17.0 23.5 18.0 23.8 Q17.4 23.8 17.3 24.2 L17.7 24.5 18.2 24.7 18.1 24.8 18.2 25.0 17.9 25.1 18.0 25.3 17.9 25.3 17.9 25.4 Q18.6 25.5 19.4 25.9 L14.7 26.3 13.9 26.3 13.1 26.5 Q12.0 26.3 12.2 27.5 12.0 27.7 12.2 28.2 12.1 28.3 12.5 28.8 L12.6 29.7 14.7 30.0 21.3 29.4 Q21.4 29.0 22.3 28.9 L22.8 29.2 Q22.3 29.2 22.9 29.7 22.6 29.7 22.8 29.8 L23.0 30.0 24.2 30.0 24.3 30.1 24.1 30.3 Q23.7 30.5 24.3 30.6 24.1 30.7 24.7 31.0 L24.4 31.3 24.7 31.3 25.1 31.5 24.8 31.6 25.1 31.8 25.8 32.0 Q25.5 32.0 25.4 32.2 L25.4 32.3 25.3 32.5 25.4 32.6 25.4 32.7 Q25.2 32.9 25.6 33.0 25.3 33.0 25.5 33.2 L25.5 33.3 23.0 34.5 18.9 34.9 14.5 35.1 12.6 35.3 12.2 35.3 11.1 35.1 11.0 35.1 Q8.3 34.3 8.3 32.9 L8.0 32.6 M27.1 32.8 L26.5 32.6 26.9 32.3 26.8 32.2 Q26.6 32.2 26.8 32.1 L27.2 31.9 26.0 31.5 26.1 31.4 25.2 30.5 24.8 30.2 25.2 30.1 24.8 29.9 Q24.0 29.7 24.5 29.7 24.3 29.4 24.7 29.4 L23.9 29.0 Q23.8 28.9 24.2 28.8 L23.4 28.7 Q23.0 27.4 23.7 26.0 23.0 25.6 23.0 25.7 L22.2 25.5 19.7 25.2 19.8 25.2 19.7 25.0 19.9 24.5 18.8 24.0 Q18.7 23.7 19.4 23.6 L18.6 23.2 18.5 23.3 18.8 22.9 18.6 22.8 18.8 22.6 17.9 22.4 18.3 22.1 18.1 21.8 17.2 21.3 16.4 20.3 Q16.2 19.9 16.4 20.0 L15.9 19.7 27.4 18.1 Q27.9 18.5 28.6 18.7 28.7 18.1 29.4 19.2 29.4 18.8 29.9 19.6 29.9 20.3 30.4 21.5 L30.0 24.0 30.0 24.1 Q29.5 24.2 29.8 24.5 29.1 25.7 29.3 27.7 28.5 29.0 28.5 31.2 L27.1 32.8 Z" fill="none" stroke="#371b0a" stroke-linecap="round" stroke-linejoin="round" stroke-width="3.0"/>
    <path d="M9.9 12.6 L9.8 12.5 Q9.6 11.9 9.8 11.9 L9.4 11.8 Q8.9 11.8 8.7 11.6 L8.6 11.4 8.6 11.3 Q8.3 10.5 8.5 10.5 L6.3 9.9 Q6.3 9.0 6.6 8.8 L6.4 8.7 Q6.2 8.6 6.5 8.5 L6.3 8.5 6.6 8.1 6.4 7.9 Q5.9 7.3 6.4 7.5 6.4 5.8 8.2 6.5 8.4 5.4 10.0 6.4 9.6 5.0 10.5 5.8 10.3 5.0 11.6 6.3 L11.7 6.3 Q12.4 6.0 13.6 5.8 L29.6 2.9 30.2 2.9 Q32.0 3.1 33.0 6.1 32.7 5.6 33.0 6.8 32.6 7.3 32.8 9.1 32.1 9.2 32.3 11.6 31.7 12.4 31.5 15.8 L29.0 16.1 26.2 16.5 Q26.8 12.2 24.9 11.5 24.0 10.0 23.9 11.2 22.2 9.7 16.9 11.3 11.8 11.3 10.4 12.7 9.7 12.1 9.9 12.6 M30.0 24.0 L30.0 24.1 Q29.5 24.2 29.8 24.5 29.1 25.7 29.3 27.7 28.5 29.0 28.5 31.2 L27.1 32.8 Q26.8 33.0 26.8 33.2 L26.7 33.1 Q26.6 33.0 27.1 32.8 L26.5 32.6 26.9 32.3 26.8 32.2 Q26.6 32.2 26.8 32.1 L27.2 31.9 26.0 31.5 26.1 31.4 25.2 30.5 24.8 30.2 25.2 30.1 24.8 29.9 Q24.0 29.7 24.5 29.7 24.3 29.4 24.7 29.4 L23.9 29.0 Q23.8 28.9 24.2 28.8 L23.4 28.7 Q23.0 27.4 23.7 26.0 23.0 25.6 23.0 25.7 L22.2 25.5 19.7 25.2 19.8 25.2 19.7 25.0 19.9 24.5 18.8 24.0 Q18.7 23.7 19.4 23.6 L18.6 23.2 18.5 23.3 18.8 22.9 18.6 22.8 18.8 22.6 17.9 22.4 18.3 22.1 18.1 21.8 19.8 21.6 Q23.2 20.3 25.9 20.4 27.3 19.7 28.6 20.8 L30.0 22.1 Q29.4 22.1 29.9 23.6 29.7 23.7 30.0 24.0 M23.0 30.0 L24.2 30.0 24.3 30.1 24.1 30.3 Q23.7 30.5 24.3 30.6 24.1 30.7 24.7 31.0 L24.4 31.3 24.7 31.3 25.1 31.5 24.8 31.6 25.1 31.8 25.8 32.0 Q25.5 32.0 25.4 32.2 L25.4 32.3 25.3 32.5 25.4 32.6 25.4 32.7 Q25.2 32.9 25.6 33.0 25.3 33.0 25.5 33.2 L25.5 33.3 23.0 34.5 18.9 34.9 14.5 35.1 12.6 35.3 12.2 35.3 11.1 35.1 11.0 35.1 Q8.3 34.3 8.3 32.9 7.7 32.5 7.7 31.4 7.3 30.2 7.4 29.6 L5.4 20.1 Q4.7 18.2 4.8 17.1 4.1 15.5 4.5 14.7 3.7 13.4 3.9 13.1 L3.4 12.3 Q3.2 11.4 3.7 11.6 L3.7 11.4 Q3.2 9.5 4.4 8.6 L4.4 8.7 4.6 8.8 4.6 9.0 4.9 9.1 Q4.4 9.2 4.6 10.2 L6.9 10.7 Q6.5 10.6 6.9 11.7 6.3 11.0 6.9 11.9 L7.2 12.0 Q7.2 11.7 8.0 12.4 L8.1 12.8 Q8.2 12.5 8.9 13.5 L9.3 14.0 Q8.5 13.9 9.1 15.8 8.5 17.8 9.2 21.9 L9.5 22.4 11.2 22.9 13.7 22.7 Q14.7 22.2 16.8 22.1 L17.0 22.2 Q16.7 22.1 16.9 22.4 L17.4 22.7 17.2 22.9 17.4 23.0 17.0 23.5 18.0 23.8 Q17.4 23.8 17.3 24.2 L17.7 24.5 18.2 24.7 18.1 24.8 18.2 25.0 17.9 25.1 18.0 25.3 17.9 25.3 17.9 25.4 Q18.6 25.5 19.4 25.9 L14.7 26.3 13.9 26.3 13.1 26.5 Q12.0 26.3 12.2 27.5 12.0 27.7 12.2 28.2 11.9 28.2 12.2 28.5 11.8 28.7 11.8 29.1 11.7 29.3 12.0 29.7 L12.2 30.5 13.2 31.2 15.3 31.1 20.3 30.3 23.0 30.0 M26.7 33.2 L26.7 33.4 26.6 33.5 Q26.5 33.3 26.7 33.2" fill="#ffff00" fill-rule="evenodd" stroke="none"/>
    <path d="M26.2 16.5 L24.2 16.7 Q23.8 14.4 24.2 14.6 23.9 12.9 23.4 13.6 22.8 12.2 21.7 13.7 20.7 13.2 20.2 14.1 L13.3 15.1 12.9 15.0 12.7 14.7 Q12.4 13.9 12.7 14.1 11.8 13.4 11.4 14.1 10.8 12.9 10.5 13.7 10.2 13.0 10.2 13.5 L9.9 12.8 9.9 12.6 Q9.7 12.1 10.4 12.7 11.8 11.3 16.9 11.3 22.2 9.7 23.9 11.2 24.0 10.0 24.9 11.5 26.8 12.2 26.2 16.5 M18.1 21.8 L17.2 21.3 16.4 20.3 Q16.2 19.9 16.4 20.0 L15.9 19.7 27.4 18.1 Q27.9 18.5 28.6 18.7 28.7 18.1 29.4 19.2 29.4 18.8 29.9 19.6 29.9 20.3 30.4 21.5 L30.0 24.0 Q29.7 23.7 29.9 23.6 29.4 22.1 30.0 22.1 L28.6 20.8 Q27.3 19.7 25.9 20.4 23.2 20.3 19.8 21.6 L18.1 21.8 M9.3 14.0 Q9.2 13.1 10.6 14.5 10.4 13.6 11.1 14.4 10.8 14.1 11.0 14.9 L11.1 15.0 11.1 15.4 Q10.3 14.6 11.0 15.9 L11.1 16.0 Q10.6 16.2 11.2 19.6 L11.4 20.7 11.6 20.7 Q11.8 19.0 14.2 19.9 L14.7 20.0 Q14.2 20.0 14.7 20.6 L15.8 21.5 16.8 22.1 Q14.7 22.2 13.7 22.7 L11.2 22.9 9.5 22.4 9.2 21.9 Q8.5 17.8 9.1 15.8 8.5 13.9 9.3 14.0 M12.2 28.2 Q12.1 28.3 12.5 28.8 L12.6 29.7 14.7 30.0 21.3 29.4 Q21.4 29.0 22.3 28.9 L22.8 29.2 Q22.3 29.2 22.9 29.7 22.6 29.7 22.8 29.8 L23.0 30.0 20.3 30.3 15.3 31.1 13.2 31.2 12.2 30.5 12.0 29.7 Q11.7 29.3 11.8 29.1 11.8 28.7 12.2 28.5 11.9 28.2 12.2 28.2" fill="#eb9a05" fill-rule="evenodd" stroke="none"/>
  </g>
</svg>
