<?xml version="1.0" encoding="UTF-8" standalone="no"?>
<svg xmlns:xlink="http://www.w3.org/1999/xlink" height="38.0px" width="35.8px" xmlns="http://www.w3.org/2000/svg">
  <g transform="matrix(1.0, 0.0, 0.0, 1.0, 0.0, 0.0)">
    <path d="M0.0 0.0 L35.8 0.0 35.8 38.0 0.0 38.0 0.0 0.0" fill="#cccccc" fill-opacity="0.0" fill-rule="evenodd" stroke="none"/>
    <path d="M30.3 4.1 L28.3 24.6 28.2 25.4 28.2 25.7 Q28.2 26.3 29.9 26.1 L30.6 26.1 30.5 27.3 30.1 30.2 Q30.0 30.2 30.0 30.5 L29.9 31.7 28.7 31.7 Q28.0 31.0 27.8 31.1 L28.0 30.9 27.7 30.7 Q27.6 30.6 27.8 30.6 L27.6 30.4 27.2 30.1 Q27.2 29.8 27.6 29.8 L26.5 29.4 Q26.2 29.2 26.1 29.4 26.1 29.1 26.3 29.1 L26.2 28.9 Q26.2 28.6 26.5 28.7 L26.3 28.6 Q25.3 27.9 25.3 27.6 25.0 27.3 25.0 27.5 L24.8 27.4 25.2 27.1 24.8 26.8 24.6 26.6 Q24.6 26.4 24.8 26.5 L24.4 26.1 24.1 26.0 Q24.2 25.8 24.4 25.8 L24.2 25.6 24.4 25.6 23.7 24.8 23.4 24.7 22.8 24.5 Q22.8 24.1 23.0 24.0 L23.0 23.8 23.2 23.5 22.6 23.2 Q22.4 23.1 22.6 22.4 L22.7 21.6 Q22.5 17.7 22.7 16.0 21.0 17.3 19.5 20.0 L19.3 19.7 19.6 19.4 18.0 18.5 18.2 18.2 Q18.2 17.7 18.3 17.7 L16.8 16.8 Q16.8 16.5 17.0 16.6 L15.4 15.6 Q15.5 15.4 15.7 15.4 L15.2 15.0 14.9 14.7 Q16.8 11.1 20.4 6.9 20.6 6.2 20.8 6.2 21.6 3.6 22.8 3.6 L23.9 3.4 25.0 3.7 30.3 4.1 M21.5 23.4 L21.8 23.7 Q21.6 23.6 21.5 23.8 L21.6 24.0 Q21.4 24.1 21.5 24.5 22.4 24.5 22.9 25.6 22.8 25.4 22.8 25.7 L23.0 25.8 22.8 26.0 23.1 26.1 23.2 26.2 23.4 26.5 Q23.3 26.4 23.2 26.6 23.4 26.5 23.8 27.0 L23.6 27.4 23.7 27.4 24.0 27.5 23.9 27.6 Q24.1 27.6 24.5 28.1 L25.2 28.6 Q24.9 28.5 24.8 28.9 L25.1 29.2 Q25.0 29.1 25.0 29.4 L25.1 29.4 26.1 29.8 Q25.9 29.8 25.9 30.1 L26.1 30.4 26.3 30.5 26.4 30.6 26.2 30.8 26.7 30.9 26.6 31.1 27.1 31.2 27.5 31.7 26.9 31.7 Q26.5 31.5 26.5 31.8 L26.3 35.0 22.7 35.0 21.6 35.0 21.6 31.8 21.2 31.7 18.6 31.7 15.1 31.6 8.9 31.5 Q8.5 30.6 8.6 30.0 8.1 28.7 8.0 27.8 7.6 26.7 7.5 25.8 L7.4 25.7 7.1 24.9 Q6.7 23.7 7.0 23.8 8.2 21.5 9.9 19.4 10.0 18.5 10.6 17.9 11.8 15.7 13.3 14.8 L13.8 14.9 14.3 15.3 Q14.0 15.2 13.8 15.6 L14.6 16.2 15.5 16.6 Q15.3 16.5 15.3 16.7 L15.6 17.0 16.0 17.5 Q16.4 17.6 16.7 18.1 L16.4 18.4 Q16.9 18.3 18.1 19.4 17.8 19.3 17.6 19.7 L17.9 20.0 Q15.7 22.3 14.0 25.1 L14.0 25.2 Q13.7 25.1 13.5 25.5 L13.6 25.5 17.4 25.9 21.4 25.9 Q21.2 24.9 21.4 24.0 L21.5 23.4" fill="#290701" fill-rule="evenodd" stroke="none"/>
    <path d="M30.3 4.1 L28.3 24.6 28.2 25.4 28.2 25.7 Q28.2 26.3 29.9 26.1 L30.6 26.1 30.5 27.3 30.1 30.2 Q30.0 30.2 30.0 30.5 L29.9 31.7 28.7 31.7 Q28.0 31.0 27.8 31.1 L28.0 30.9 27.7 30.7 Q27.6 30.6 27.8 30.6 L27.6 30.4 27.2 30.1 Q27.2 29.8 27.6 29.8 L26.5 29.4 Q26.2 29.2 26.1 29.4 26.1 29.1 26.3 29.1 L26.2 28.9 Q26.2 28.6 26.5 28.7 L26.3 28.6 Q25.3 27.9 25.3 27.6 25.0 27.3 25.0 27.5 L24.8 27.4 25.2 27.1 24.8 26.8 24.6 26.6 Q24.6 26.4 24.8 26.5 L24.4 26.1 24.1 26.0 Q24.2 25.8 24.4 25.8 L24.2 25.6 24.4 25.6 23.7 24.8 23.4 24.7 22.8 24.5 Q22.8 24.1 23.0 24.0 L23.0 23.8 23.2 23.5 22.6 23.2 Q22.4 23.1 22.6 22.4 L22.7 21.6 Q22.5 17.7 22.7 16.0 21.0 17.3 19.5 20.0 L19.3 19.7 19.6 19.4 18.0 18.5 18.2 18.2 Q18.2 17.7 18.3 17.7 L16.8 16.8 Q16.8 16.5 17.0 16.6 L15.4 15.6 Q15.5 15.4 15.7 15.4 L15.2 15.0 14.9 14.7 Q16.8 11.1 20.4 6.9 20.6 6.2 20.8 6.2 21.6 3.6 22.8 3.6 L23.9 3.4 25.0 3.7 30.3 4.1 M21.5 23.4 L21.8 23.7 Q21.6 23.6 21.5 23.8 L21.6 24.0 Q21.4 24.1 21.5 24.5 22.4 24.5 22.9 25.6 22.8 25.4 22.8 25.7 L23.0 25.8 22.8 26.0 23.1 26.1 23.2 26.2 23.4 26.5 Q23.3 26.4 23.2 26.6 23.4 26.5 23.8 27.0 L23.6 27.4 23.7 27.4 24.0 27.5 23.9 27.6 Q24.1 27.6 24.5 28.1 L25.2 28.6 Q24.9 28.5 24.8 28.9 L25.1 29.2 Q25.0 29.1 25.0 29.4 L25.1 29.4 26.1 29.8 Q25.9 29.8 25.9 30.1 L26.1 30.4 26.3 30.5 26.4 30.6 26.2 30.8 26.7 30.9 26.6 31.1 27.1 31.2 27.5 31.7 26.9 31.7 Q26.5 31.5 26.5 31.8 L26.3 35.0 22.7 35.0 21.6 35.0 21.6 31.8 21.2 31.7 18.6 31.7 15.1 31.6 8.9 31.5 Q8.5 30.6 8.6 30.0 8.1 28.7 8.0 27.8 7.6 26.7 7.5 25.8 L7.4 25.7 7.1 24.9 Q6.7 23.7 7.0 23.8 8.2 21.5 9.9 19.4 10.0 18.5 10.6 17.9 11.8 15.7 13.3 14.8 L13.8 14.9 14.3 15.3 Q14.0 15.2 13.8 15.6 L14.6 16.2 15.5 16.6 Q15.3 16.5 15.3 16.7 L15.6 17.0 16.0 17.5 Q16.4 17.6 16.7 18.1 L16.4 18.4 Q16.9 18.3 18.1 19.4 17.8 19.3 17.6 19.7 L17.9 20.0 Q15.7 22.3 14.0 25.1 L14.0 25.2 Q13.7 25.1 13.5 25.5 L13.6 25.5 17.4 25.9 21.4 25.9 Q21.2 24.9 21.4 24.0 L21.5 23.4 Z" fill="none" stroke="#290701" stroke-linecap="round" stroke-linejoin="round" stroke-width="3.0"/>
    <path d="M23.9 3.4 L25.0 3.7 30.3 4.1 28.3 24.6 28.2 25.4 28.2 25.7 Q28.2 26.3 29.9 26.1 L30.6 26.1 30.5 27.3 30.1 30.2 Q30.0 30.2 30.0 30.5 L29.9 31.7 28.7 31.7 Q28.0 31.0 27.8 31.1 L28.0 30.9 27.7 30.7 Q27.6 30.6 27.8 30.6 L27.6 30.4 27.2 30.1 Q27.2 29.8 27.6 29.8 L26.5 29.4 Q26.2 29.2 26.1 29.4 26.1 29.1 26.3 29.1 L26.2 28.9 Q26.2 28.6 26.5 28.7 L26.3 28.6 Q25.3 27.9 25.3 27.6 25.0 27.3 25.0 27.5 L24.8 27.4 25.2 27.1 24.8 26.8 24.6 26.6 Q24.6 26.4 24.8 26.5 L24.4 26.1 24.1 26.0 Q24.2 25.8 24.4 25.8 L24.2 25.6 24.4 25.6 23.7 24.8 23.4 24.7 22.8 24.5 Q22.8 24.1 23.0 24.0 L23.0 23.8 23.2 23.5 22.6 23.2 Q22.4 23.1 22.6 22.4 L22.7 21.6 Q22.5 17.7 22.7 16.0 21.15 17.15 19.8 19.5 L19.5 20.0 19.3 19.7 19.6 19.4 18.0 18.5 18.2 18.2 Q18.2 17.7 18.3 17.7 L16.8 16.8 Q16.8 16.5 17.0 16.6 L15.4 15.6 Q15.5 15.4 15.7 15.4 L15.2 15.0 14.9 14.7 Q16.8 11.1 20.4 6.9 20.6 6.2 20.8 6.2 21.6 3.6 22.8 3.6 L23.9 3.4 M24.2 7.45 Q24.2 7.85 24.7 8.55 25.4 9.5 26.4 9.5 27.2 9.5 27.8 8.85 28.3 8.3 28.3 7.55 28.3 5.85 26.25 5.85 24.2 5.85 24.2 7.45 M21.5 23.4 L21.8 23.7 Q21.6 23.6 21.5 23.8 L21.6 24.0 Q21.4 24.1 21.5 24.5 22.4 24.5 22.9 25.6 22.8 25.4 22.8 25.7 L23.0 25.8 22.8 26.0 23.1 26.1 23.2 26.2 23.4 26.5 Q23.3 26.4 23.2 26.6 23.4 26.5 23.8 27.0 L23.6 27.4 23.7 27.4 24.0 27.5 23.9 27.6 Q24.1 27.6 24.5 28.1 L25.2 28.6 Q24.9 28.5 24.8 28.9 L25.1 29.2 Q25.0 29.1 25.0 29.4 L25.1 29.4 26.1 29.8 Q25.9 29.8 25.9 30.1 L26.1 30.4 26.3 30.5 26.4 30.6 26.2 30.8 26.7 30.9 26.6 31.1 27.1 31.2 27.5 31.7 26.9 31.7 Q26.5 31.5 26.5 31.8 L26.3 35.0 22.7 35.0 21.6 35.0 21.6 31.8 21.2 31.7 18.6 31.7 15.1 31.6 8.9 31.5 Q8.5 30.6 8.6 30.0 8.1 28.7 8.0 27.8 7.6 26.7 7.5 25.8 L7.4 25.7 7.1 24.9 Q6.7 23.7 7.0 23.8 8.2 21.5 9.9 19.4 10.0 18.5 10.6 17.9 11.8 15.7 13.3 14.8 L13.8 14.9 14.3 15.3 Q14.0 15.2 13.8 15.6 L14.6 16.2 15.5 16.6 Q15.3 16.5 15.3 16.7 L15.6 17.0 16.0 17.5 Q16.4 17.6 16.7 18.1 L16.4 18.4 Q16.9 18.3 18.1 19.4 17.8 19.3 17.6 19.7 L17.9 20.0 Q15.7 22.3 14.0 25.1 L14.0 25.2 Q13.7 25.1 13.5 25.5 L13.6 25.5 17.4 25.9 21.4 25.9 Q21.2 24.9 21.4 24.0 L21.5 23.4" fill="url(#gradient0)" fill-rule="evenodd" stroke="none"/>
    <path d="M24.2 7.45 Q24.2 5.85 26.25 5.85 28.3 5.85 28.3 7.55 28.3 8.3 27.8 8.85 27.2 9.5 26.4 9.5 25.4 9.5 24.7 8.55 24.2 7.85 24.2 7.45" fill="#ffcc33" fill-rule="evenodd" stroke="none"/>
  </g>
  <defs>
    <linearGradient gradientTransform="matrix(0.0, 0.0174, -0.0145, 0.0, 18.75, 20.0)" gradientUnits="userSpaceOnUse" id="gradient0" spreadMethod="pad" x1="-819.2" x2="819.2">
      <stop offset="0.0" stop-color="#ff3300"/>
      <stop offset="1.0" stop-color="#f3c935"/>
    </linearGradient>
  </defs>
</svg>
