<?xml version="1.0" encoding="UTF-8" standalone="no"?>
<svg xmlns:xlink="http://www.w3.org/1999/xlink" height="38.0px" width="35.8px" xmlns="http://www.w3.org/2000/svg">
  <g transform="matrix(1.0, 0.0, 0.0, 1.0, 0.0, 0.0)">
    <path d="M35.8 38.0 L0.0 38.0 0.0 0.0 35.8 0.0 35.8 38.0" fill="#cccccc" fill-opacity="0.0" fill-rule="evenodd" stroke="none"/>
    <path d="M31.3 11.8 L31.0 11.8 30.3 11.9 29.8 11.9 31.0 11.0 Q30.7 10.3 30.5 10.7 30.9 9.6 31.6 10.3 L31.3 11.8 M30.1 9.4 Q29.8 9.1 30.0 10.3 L29.4 10.5 28.9 10.9 29.1 11.2 25.5 12.3 24.4 12.3 14.9 13.2 13.9 13.0 Q11.1 12.5 11.3 13.5 10.1 13.8 10.3 16.9 L10.5 18.1 10.7 18.2 11.0 17.8 Q12.3 16.1 13.0 16.7 13.8 16.2 15.7 16.2 L18.3 16.0 21.7 15.9 23.4 15.8 23.6 15.9 Q23.1 15.7 23.1 16.4 L23.3 16.5 23.3 16.6 Q22.9 16.2 23.0 16.8 L22.9 16.9 Q22.4 16.6 22.3 17.3 L22.5 17.5 22.3 17.8 22.4 17.9 Q20.9 17.5 20.4 19.2 L20.5 19.4 20.3 19.2 20.2 19.6 20.5 19.9 19.9 20.2 20.3 20.5 19.8 20.8 19.7 21.0 Q19.1 21.2 19.0 21.4 16.8 22.3 16.6 23.0 16.7 22.9 16.8 23.1 L14.0 23.9 13.4 23.9 11.8 24.2 Q11.3 24.2 10.8 24.6 10.2 25.1 10.1 25.5 L8.8 25.5 8.4 25.6 4.4 25.8 4.4 24.4 4.4 23.1 4.3 20.7 4.2 19.8 Q4.0 16.9 4.2 16.5 4.0 14.7 4.2 12.4 L4.1 10.9 4.1 5.1 32.3 2.6 30.3 9.2 30.2 9.2 Q30.0 9.2 30.1 9.4 M28.5 16.1 L28.7 16.2 Q29.3 17.1 29.5 19.3 29.1 20.0 29.2 20.9 28.9 21.5 28.9 22.1 28.1 23.0 28.0 24.5 27.8 24.9 27.7 25.8 L27.5 26.5 Q26.5 28.2 26.0 31.5 25.8 31.5 25.9 31.7 L25.3 32.7 22.6 34.4 21.5 34.65 21.4 34.7 18.8 35.0 16.8 35.1 12.1 35.3 9.3 35.5 8.5 35.3 7.6 35.1 6.6 34.65 6.2 34.3 6.5 34.3 Q6.2 34.1 6.7 34.2 L6.6 34.0 6.7 33.9 6.6 33.7 6.7 33.6 6.7 33.5 Q6.7 33.3 7.5 33.1 L7.1 32.9 7.3 32.5 7.9 32.3 7.6 32.2 8.0 32.0 Q8.0 31.9 8.2 31.9 L8.0 31.8 Q8.3 31.5 8.8 31.5 9.0 31.2 9.5 31.1 9.7 30.9 10.2 30.8 10.5 30.1 11.4 30.0 L11.3 29.9 11.5 29.5 11.8 29.6 16.0 29.7 20.5 29.2 Q20.7 28.4 21.5 27.5 21.3 27.3 21.5 27.3 21.5 26.2 21.9 25.3 L21.9 25.2 Q21.7 24.9 22.0 24.6 20.9 23.2 18.7 23.6 L17.5 23.7 17.3 23.7 Q17.3 23.3 18.3 23.0 L18.1 22.9 18.9 22.5 19.9 22.1 20.7 21.4 21.5 20.9 21.4 20.7 22.0 20.4 21.6 20.1 Q21.6 19.6 22.1 19.6 21.8 19.1 21.8 19.5 21.8 18.3 22.3 18.9 22.7 17.4 24.0 17.7 L23.8 17.5 Q23.8 17.0 24.2 17.3 L24.1 17.2 Q24.1 16.2 24.7 16.7 24.7 16.1 25.0 16.3 L25.0 16.1 Q25.3 15.1 26.1 15.6 26.6 15.0 27.2 15.7 27.7 15.0 28.5 16.1 M10.0 28.9 L10.2 29.9 Q9.9 29.8 9.8 30.0 L9.9 30.1 9.1 30.3 Q8.1 30.8 7.4 31.6 6.8 31.6 6.8 31.9 L6.9 32.1 Q6.2 32.0 6.6 32.3 L6.8 32.4 Q6.0 32.5 6.0 32.9 L6.3 33.2 Q5.4 33.4 5.7 33.6 L5.7 33.7 5.7 33.9 5.7 34.0 Q5.5 34.1 5.7 34.2 5.2 34.2 5.2 34.4 L4.7 33.1 4.3 27.5 9.7 27.2 Q9.7 28.0 10.0 28.9" fill="#ffcc33" fill-rule="evenodd" stroke="none"/>
    <path d="M31.3 11.8 L31.0 11.8 30.3 11.9 29.8 11.9 31.0 11.0 Q30.7 10.3 30.5 10.7 30.9 9.6 31.6 10.3 L31.3 11.8 M30.1 9.4 Q29.8 9.1 30.0 10.3 L29.4 10.5 28.9 10.9 29.1 11.2 25.5 12.3 24.4 12.3 14.9 13.2 13.9 13.0 Q11.1 12.5 11.3 13.5 10.1 13.8 10.3 16.9 L10.5 18.1 10.7 18.2 11.0 17.8 Q12.3 16.1 13.0 16.7 13.8 16.2 15.7 16.2 L18.3 16.0 21.7 15.9 23.4 15.8 23.6 15.9 Q23.1 15.7 23.1 16.4 L23.3 16.5 23.3 16.6 Q22.9 16.2 23.0 16.8 L22.9 16.9 Q22.4 16.6 22.3 17.3 L22.5 17.5 22.3 17.8 22.4 17.9 Q20.9 17.5 20.4 19.2 L20.5 19.4 20.3 19.2 20.2 19.6 20.5 19.9 19.9 20.2 20.3 20.5 19.8 20.8 19.7 21.0 Q19.1 21.2 19.0 21.4 16.8 22.3 16.6 23.0 16.7 22.9 16.8 23.1 L14.0 23.9 13.4 23.9 11.8 24.2 Q11.3 24.2 10.8 24.6 10.2 25.1 10.1 25.5 L8.8 25.5 8.4 25.6 4.4 25.8 4.4 24.4 4.4 23.1 4.3 20.7 4.2 19.8 Q4.0 16.9 4.2 16.5 4.0 14.7 4.2 12.4 L4.1 10.9 4.1 5.1 32.3 2.6 30.3 9.2 30.2 9.2 Q30.0 9.2 30.1 9.4 M28.5 16.1 L28.7 16.2 Q29.3 17.1 29.5 19.3 29.1 20.0 29.2 20.9 28.9 21.5 28.9 22.1 28.1 23.0 28.0 24.5 27.8 24.9 27.7 25.8 L27.5 26.5 Q26.5 28.2 26.0 31.5 25.8 31.5 25.9 31.7 L25.3 32.7 22.6 34.4 21.5 34.65 21.4 34.7 18.8 35.0 16.8 35.1 12.1 35.3 9.3 35.5 8.5 35.3 7.6 35.1 6.6 34.65 6.2 34.3 6.5 34.3 Q6.2 34.1 6.7 34.2 L6.6 34.0 6.7 33.9 6.6 33.7 6.7 33.6 6.7 33.5 Q6.7 33.3 7.5 33.1 L7.1 32.9 7.3 32.5 7.9 32.3 7.6 32.2 8.0 32.0 Q8.0 31.9 8.2 31.9 L8.0 31.8 Q8.3 31.5 8.8 31.5 9.0 31.2 9.5 31.1 9.7 30.9 10.2 30.8 10.5 30.1 11.4 30.0 L11.3 29.9 11.5 29.5 11.8 29.6 16.0 29.7 20.5 29.2 Q20.7 28.4 21.5 27.5 21.3 27.3 21.5 27.3 21.5 26.2 21.9 25.3 L21.9 25.2 Q21.7 24.9 22.0 24.6 20.9 23.2 18.7 23.6 L17.5 23.7 17.3 23.7 Q17.3 23.3 18.3 23.0 L18.1 22.9 18.9 22.5 19.9 22.1 20.7 21.4 21.5 20.9 21.4 20.7 22.0 20.4 21.6 20.1 Q21.6 19.6 22.1 19.6 21.8 19.1 21.8 19.5 21.8 18.3 22.3 18.9 22.7 17.4 24.0 17.7 L23.8 17.5 Q23.8 17.0 24.2 17.3 L24.1 17.2 Q24.1 16.2 24.7 16.7 24.7 16.1 25.0 16.3 L25.0 16.1 Q25.3 15.1 26.1 15.6 26.6 15.0 27.2 15.7 27.7 15.0 28.5 16.1 M10.0 28.9 L10.2 29.9 Q9.9 29.8 9.8 30.0 L9.9 30.1 9.1 30.3 Q8.1 30.8 7.4 31.6 6.8 31.6 6.8 31.9 L6.9 32.1 Q6.2 32.0 6.6 32.3 L6.8 32.4 Q6.0 32.5 6.0 32.9 L6.3 33.2 Q5.4 33.4 5.7 33.6 L5.7 33.7 5.7 33.9 5.7 34.0 Q5.5 34.1 5.7 34.2 5.2 34.2 5.2 34.4 L4.7 33.1 4.3 27.5 9.7 27.2 Q9.7 28.0 10.0 28.9 Z" fill="none" stroke="#290701" stroke-linecap="round" stroke-linejoin="round" stroke-width="3.0"/>
    <path d="M31.0 11.8 L30.3 11.9 29.8 11.9 31.0 11.0 Q30.7 10.3 30.5 10.7 30.9 9.6 31.6 10.3 L31.3 11.8 31.0 11.8 M30.15 9.2 Q30.0 9.25 30.1 9.4 29.8 9.1 30.0 10.3 L29.4 10.5 28.9 10.9 29.1 11.2 25.5 12.3 24.4 12.3 14.9 13.2 13.9 13.0 Q11.1 12.5 11.3 13.5 10.1 13.8 10.3 16.9 L10.5 18.1 10.7 18.2 11.0 17.8 Q12.3 16.1 13.0 16.7 13.8 16.2 15.7 16.2 L18.3 16.0 21.7 15.9 23.4 15.8 23.6 15.9 Q23.1 15.7 23.1 16.4 L23.3 16.5 23.3 16.6 Q22.9 16.2 23.0 16.8 L22.9 16.9 Q22.4 16.6 22.3 17.3 L22.5 17.5 22.3 17.8 22.4 17.9 Q20.9 17.5 20.4 19.2 L20.5 19.4 20.3 19.2 20.2 19.6 20.5 19.9 19.9 20.2 20.3 20.5 19.8 20.8 19.7 21.0 Q19.1 21.2 19.0 21.4 16.8 22.3 16.6 23.0 16.7 22.9 16.8 23.1 L16.65 23.15 14.0 23.9 13.4 23.9 11.8 24.2 Q11.3 24.2 10.8 24.6 10.2 25.1 10.1 25.5 L8.8 25.5 8.4 25.6 4.4 25.8 4.4 24.4 4.4 23.1 4.3 20.7 4.2 19.8 Q4.0 16.9 4.2 16.5 4.0 14.7 4.2 12.4 L4.1 10.9 4.1 5.1 32.3 2.6 30.3 9.2 30.15 9.2 M26.1 8.05 Q26.8 8.05 27.4 7.45 28.05 6.9 28.05 6.25 28.05 4.55 26.25 4.8 24.4 5.05 24.4 6.45 24.4 8.05 26.1 8.05 M28.7 16.2 Q29.3 17.1 29.5 19.3 29.1 20.0 29.2 20.9 28.9 21.5 28.9 22.1 28.1 23.0 28.0 24.5 27.8 24.9 27.7 25.8 L27.5 26.5 Q26.5 28.2 26.0 31.5 25.8 31.5 25.9 31.7 L25.3 32.7 22.6 34.4 21.4 34.7 18.8 35.0 16.8 35.1 12.1 35.3 9.3 35.5 8.5 35.3 7.6 35.1 6.2 34.3 6.5 34.3 Q6.2 34.1 6.7 34.2 L6.6 34.0 6.7 33.9 6.6 33.7 6.7 33.6 6.7 33.5 Q6.7 33.3 7.5 33.1 L7.1 32.9 7.25 32.65 7.3 32.5 7.9 32.3 7.6 32.2 8.0 32.0 Q8.0 31.9 8.2 31.9 L8.0 31.8 Q8.3 31.5 8.8 31.5 9.0 31.2 9.5 31.1 9.7 30.9 10.2 30.8 10.5 30.1 11.4 30.0 L11.3 29.9 11.5 29.5 11.8 29.6 16.0 29.7 20.5 29.2 Q20.7 28.4 21.5 27.5 21.3 27.3 21.5 27.3 21.5 26.2 21.9 25.3 L21.9 25.2 Q21.7 24.9 22.0 24.6 20.9 23.2 18.7 23.6 L17.5 23.7 17.3 23.7 Q17.3 23.3 18.3 23.0 L18.1 22.9 18.9 22.5 19.9 22.1 20.7 21.4 21.5 20.9 21.4 20.7 22.0 20.4 21.6 20.1 Q21.6 19.6 22.1 19.6 21.8 19.1 21.8 19.5 21.8 18.3 22.3 18.9 22.45 18.35 22.75 18.05 23.2 17.5 24.0 17.7 L23.8 17.5 Q23.8 17.0 24.2 17.3 L24.1 17.2 Q24.1 16.2 24.7 16.7 24.7 16.1 25.0 16.3 L25.0 16.1 Q25.3 15.1 26.1 15.6 26.6 15.0 27.2 15.7 27.7 15.0 28.5 16.1 L28.7 16.2 M9.9 30.1 L9.1 30.3 Q8.1 30.8 7.4 31.6 6.8 31.6 6.8 31.9 L6.9 32.1 Q6.2 32.0 6.6 32.3 L6.8 32.4 Q6.0 32.5 6.0 32.9 L6.3 33.2 Q5.4 33.4 5.7 33.6 L5.7 33.7 5.7 33.9 5.7 34.0 Q5.5 34.1 5.7 34.2 5.2 34.2 5.2 34.4 L4.7 33.1 4.3 27.5 9.7 27.2 Q9.7 28.0 10.0 28.9 L10.2 29.9 Q9.9 29.8 9.8 30.0 L9.9 30.1" fill="url(#gradient0)" fill-rule="evenodd" stroke="none"/>
    <path d="M26.1 8.05 Q24.4 8.05 24.4 6.45 24.4 5.05 26.25 4.8 28.05 4.55 28.05 6.25 28.05 6.9 27.4 7.45 26.8 8.05 26.1 8.05" fill="#ffcc33" fill-rule="evenodd" stroke="none"/>
  </g>
  <defs>
    <linearGradient gradientTransform="matrix(0.0, 0.0177, -0.0172, 0.0, 18.2, 19.75)" gradientUnits="userSpaceOnUse" id="gradient0" spreadMethod="pad" x1="-819.2" x2="819.2">
      <stop offset="0.0" stop-color="#ff3300"/>
      <stop offset="1.0" stop-color="#f3c935"/>
    </linearGradient>
  </defs>
</svg>
