<?xml version="1.0" encoding="UTF-8" standalone="no"?>
<svg xmlns:xlink="http://www.w3.org/1999/xlink" height="27.2px" width="34.5px" xmlns="http://www.w3.org/2000/svg">
  <g transform="matrix(1.0, 0.0, 0.0, 1.0, 28.05, 0.0)">
    <path d="M5.7 7.75 Q5.3 7.8 4.95 6.15 4.8 5.2 5.6 5.6 6.35 6.0 6.45 6.85 L6.35 7.3 Q6.15 7.7 5.7 7.75 M4.25 4.45 Q1.95 4.8 0.0 0.7 -0.05 0.1 0.6 0.0 2.55 -0.3 4.8 3.75 4.85 4.35 4.25 4.45 M-27.0 22.25 Q-26.9 23.2 -27.5 22.8 -28.0 22.4 -28.05 21.55 L-28.0 21.1 -27.55 20.65 Q-27.25 20.6 -27.0 22.25 M-26.0 23.95 Q-25.25 24.55 -24.6 26.1 -24.0 27.6 -24.9 27.1 -25.8 26.6 -26.15 25.9 L-26.65 24.25 Q-26.8 23.35 -26.0 23.95" fill="#ffffff" fill-rule="evenodd" stroke="none"/>
  </g>
</svg>
