<?xml version="1.0" encoding="UTF-8" standalone="no"?>
<svg xmlns:xlink="http://www.w3.org/1999/xlink" height="87.3px" width="76.35px" xmlns="http://www.w3.org/2000/svg">
  <g transform="matrix(1.0, 0.0, 0.0, 1.0, 38.15, 40.15)">
    <path d="M27.35 31.55 Q29.5 30.85 28.55 32.65 27.5 34.5 26.2 35.75 24.95 37.0 22.65 37.35 20.35 37.8 22.75 35.05 25.3 32.25 27.35 31.55 M33.55 28.0 Q32.8 29.8 31.45 30.25 29.85 30.65 30.8 28.65 32.55 25.35 33.15 25.7 33.8 26.05 33.8 27.05 L33.55 28.0 M-25.0 -29.9 Q-27.0 -26.65 -27.8 -27.05 -28.7 -27.5 -28.8 -28.5 -28.95 -29.15 -28.7 -29.55 -27.8 -31.25 -25.95 -31.55 -23.95 -31.75 -25.0 -29.9 M-11.05 -39.65 Q-9.8 -38.95 -10.35 -37.65 -17.6 -30.45 -22.2 -32.95 -23.4 -33.65 -22.85 -34.85 -15.0 -41.75 -11.05 -39.65" fill="#ffffff" fill-rule="evenodd" stroke="none"/>
    <path d="M26.2 43.65 Q29.7 43.65 32.2 41.15 34.7 38.65 34.7 35.15 34.7 31.6 32.2 29.1 29.75 26.65 26.2 26.65 L-26.15 26.65 Q-29.75 26.65 -32.2 29.1 -34.65 31.55 -34.65 35.15 -34.65 38.7 -32.2 41.15 -29.7 43.65 -26.15 43.65 L26.2 43.65 M26.2 23.15 Q31.15 23.15 34.65 26.65 38.2 30.2 38.2 35.15 38.2 40.05 34.65 43.6 31.1 47.15 26.2 47.15 L-26.15 47.15 Q-31.1 47.15 -34.65 43.6 -38.15 40.1 -38.15 35.15 -38.15 30.15 -34.65 26.65 -31.15 23.15 -26.15 23.15 L26.2 23.15" fill="#287299" fill-rule="evenodd" stroke="none"/>
    <path d="M26.2 25.1 Q30.35 25.1 33.25 28.0 36.2 30.95 36.2 35.1 36.2 39.2 33.25 42.15 30.3 45.1 26.2 45.1 L-26.15 45.1 Q-30.3 45.1 -33.25 42.15 -36.15 39.25 -36.15 35.1 -36.15 30.9 -33.25 28.0 -30.35 25.1 -26.15 25.1 L26.2 25.1" fill="#a7b2cc" fill-rule="evenodd" stroke="none"/>
    <path d="M26.2 25.1 L-26.15 25.1 Q-30.35 25.1 -33.25 28.0 -36.15 30.9 -36.15 35.1 -36.15 39.25 -33.25 42.15 -30.3 45.1 -26.15 45.1 L26.2 45.1 Q30.3 45.1 33.25 42.15 36.2 39.2 36.2 35.1 36.2 30.95 33.25 28.0 30.35 25.1 26.2 25.1 Z" fill="none" stroke="#f0f5f8" stroke-linecap="butt" stroke-linejoin="miter-clip" stroke-miterlimit="3.0" stroke-width="1.1"/>
    <path d="M30.1 41.7 Q28.15 43.0 25.7 43.0 L-25.75 43.0 Q-28.25 43.0 -30.15 41.65 L-31.25 40.7 -31.3 40.65 Q-33.55 38.45 -33.55 35.2 L-33.55 35.15 Q-33.55 32.0 -31.25 29.6 -29.0 27.35 -25.75 27.35 L25.7 27.35 Q28.9 27.35 31.3 29.6 33.55 32.0 33.55 35.15 L33.55 35.2 Q33.55 38.45 31.3 40.7 L31.1 40.9 30.1 41.7" fill="#1d4455" fill-rule="evenodd" stroke="none"/>
    <path d="M30.1 41.7 L31.1 40.9 31.3 40.7 Q33.55 38.45 33.55 35.2 L33.55 35.15 Q33.55 32.0 31.3 29.6 28.9 27.35 25.7 27.35 L-25.75 27.35 Q-29.0 27.35 -31.25 29.6 -33.55 32.0 -33.55 35.15 L-33.55 35.2 Q-33.55 38.45 -31.3 40.65 L-31.25 40.7 -30.15 41.65 Q-28.25 43.0 -25.75 43.0 L25.7 43.0 Q28.15 43.0 30.1 41.7 Z" fill="none" stroke="#122934" stroke-linecap="butt" stroke-linejoin="miter-clip" stroke-miterlimit="3.0" stroke-width="1.5"/>
  </g>
</svg>
