<?xml version="1.0" encoding="UTF-8" standalone="no"?>
<svg xmlns:xlink="http://www.w3.org/1999/xlink" height="33.7px" width="24.05px" xmlns="http://www.w3.org/2000/svg">
  <g transform="matrix(1.0, 0.0, 0.0, 1.0, -13.8, -9.0)">
    <path d="M19.0 32.7 L19.0 31.25 27.65 25.05 28.3 26.0 28.3 29.95 Q33.0 30.95 35.2 27.0 L35.2 27.05 35.85 27.95 Q37.1 34.1 32.55 35.0 L28.3 35.0 28.3 39.3 19.0 32.7 M32.65 19.0 L32.65 20.45 24.0 26.65 23.35 25.7 23.35 21.75 Q18.65 20.75 16.45 24.7 L16.45 24.65 15.8 23.75 Q14.55 17.6 19.1 16.7 L23.35 16.7 23.35 12.4 32.65 19.0" fill="#22366e" fill-rule="evenodd" stroke="none"/>
    <path d="M32.65 19.0 L23.35 12.4 23.35 16.7 19.1 16.7 Q14.55 17.6 15.8 23.75 L16.45 24.65 16.45 24.7 Q18.65 20.75 23.35 21.75 L23.35 25.7 24.0 26.65 32.65 20.45 32.65 19.0 M19.0 32.7 L28.3 39.3 28.3 35.0 32.55 35.0 Q37.1 34.1 35.85 27.95 L35.2 27.05 35.2 27.0 Q33.0 30.95 28.3 29.95 L28.3 26.0 27.65 25.05 19.0 31.25 19.0 32.7 Z" fill="none" stroke="#22366e" stroke-linecap="butt" stroke-linejoin="miter-clip" stroke-miterlimit="3.0" stroke-width="3.5"/>
  </g>
</svg>
