<?xml version="1.0" encoding="UTF-8" standalone="no"?>
<svg xmlns:xlink="http://www.w3.org/1999/xlink" height="76.7px" width="75.5px" xmlns="http://www.w3.org/2000/svg">
  <g transform="matrix(1.0, 0.0, 0.0, 1.0, 75.5, 76.7)">
    <path d="M-75.4 -66.7 L-75.3 -67.75 -75.2 -68.25 -75.1 -68.9 Q-74.6 -71.6 -73.15 -73.35 L-72.65 -73.95 Q-71.45 -75.1 -69.75 -75.75 L-68.6 -76.1 -67.4 -76.35 -64.75 -76.6 -10.7 -76.6 -9.6 -76.55 -8.05 -76.35 -6.85 -76.1 -5.7 -75.75 -4.7 -75.25 Q-3.65 -74.75 -2.8 -73.95 L-2.3 -73.35 -1.1 -71.45 -0.3 -68.9 -0.25 -68.25 -0.15 -67.75 -0.05 -66.9 -0.05 -66.7 0.0 -66.15 0.0 -65.9 0.0 -65.55 0.0 -11.0 -0.1 -9.2 -0.25 -7.9 -0.35 -7.15 Q-1.3 -3.25 -4.3 -1.5 -4.7 -1.25 -5.25 -0.95 L-6.5 -0.5 -7.9 -0.2 -10.7 0.0 -64.75 -0.1 -65.15 -0.1 -68.95 -0.55 -70.2 -1.0 -71.15 -1.55 Q-74.15 -3.3 -75.05 -7.2 L-75.2 -7.95 -75.35 -9.25 -75.45 -11.05 -75.45 -65.55 -75.4 -66.7" fill="#aa0b0f" fill-rule="evenodd" stroke="none"/>
    <path d="M-7.9 -0.2 L-10.3 0.0 -10.7 0.0 -7.9 -0.2 M-75.45 -65.55 L-75.45 -65.9 -75.4 -66.7 -75.45 -65.55" fill="#cb2c1b" fill-rule="evenodd" stroke="none"/>
    <path d="M-65.15 -76.7 L-7.9 -76.7 Q-63.45 -56.65 -70.05 -1.65 -75.5 -1.65 -75.5 -6.95 L-75.5 -66.25 Q-75.5 -76.15 -65.15 -76.7" fill="#ffffff" fill-opacity="0.2" fill-rule="evenodd" stroke="none"/>
  </g>
</svg>
