<?xml version="1.0" encoding="UTF-8" standalone="no"?>
<svg xmlns:xlink="http://www.w3.org/1999/xlink" height="51.5px" width="51.6px" xmlns="http://www.w3.org/2000/svg">
  <g transform="matrix(1.0, 0.0, 0.0, 1.0, 0.0, 0.0)">
    <path d="M51.6 25.75 Q51.6 36.35 44.0 43.95 36.45 51.5 25.85 51.5 15.15 51.5 7.6 43.95 0.0 36.35 0.0 25.75 0.0 15.1 7.6 7.55 15.15 0.0 25.85 0.0 36.45 0.0 44.0 7.55 51.6 15.1 51.6 25.75" fill="url(#gradient0)" fill-rule="evenodd" stroke="none"/>
    <path d="M49.85 25.75 Q49.85 15.85 42.8 8.8 L42.75 8.8 Q35.7 1.7 25.85 1.7 15.9 1.7 8.85 8.8 1.75 15.85 1.75 25.75 1.75 35.7 8.85 42.75 15.9 49.8 25.85 49.8 35.7 49.8 42.75 42.75 L42.8 42.7 Q49.85 35.65 49.85 25.75 M51.6 25.75 Q51.6 36.35 44.0 43.95 36.45 51.5 25.85 51.5 15.15 51.5 7.6 43.95 0.0 36.35 0.0 25.75 0.0 15.1 7.6 7.55 15.15 0.0 25.85 0.0 36.45 0.0 44.0 7.55 51.6 15.1 51.6 25.75" fill="url(#gradient1)" fill-rule="evenodd" stroke="none"/>
  </g>
  <defs>
    <linearGradient gradientTransform="matrix(0.0222, 0.0222, -0.0222, 0.0222, 25.8, 25.75)" gradientUnits="userSpaceOnUse" id="gradient0" spreadMethod="pad" x1="-819.2" x2="819.2">
      <stop offset="0.0" stop-color="#adbdc5"/>
      <stop offset="0.49411764705882355" stop-color="#ffffff"/>
      <stop offset="1.0" stop-color="#b1c1c8"/>
    </linearGradient>
    <linearGradient gradientTransform="matrix(0.0311, 0.0039, -0.004, 0.031, 25.75, 25.7)" gradientUnits="userSpaceOnUse" id="gradient1" spreadMethod="pad" x1="-819.2" x2="819.2">
      <stop offset="0.0" stop-color="#adbdc5" stop-opacity="0.0"/>
      <stop offset="0.49411764705882355" stop-color="#ffffff"/>
      <stop offset="1.0" stop-color="#b1c1c8" stop-opacity="0.0"/>
    </linearGradient>
  </defs>
</svg>
