<?xml version="1.0" encoding="UTF-8" standalone="no"?>
<svg xmlns:xlink="http://www.w3.org/1999/xlink" height="6.5px" width="66.4px" xmlns="http://www.w3.org/2000/svg">
  <g transform="matrix(1.0, 0.0, 0.0, 1.0, 0.5, 0.5)">
    <path d="M1.7 5.5 L1.7 1.7 65.4 1.7 65.4 5.5 1.7 5.5" fill="#006600" fill-rule="evenodd" stroke="none"/>
    <path d="M1.7 5.5 L0.0 5.5 0.0 0.0 65.4 0.0 65.4 1.7 1.7 1.7 1.7 5.5" fill="#004600" fill-rule="evenodd" stroke="none"/>
    <path d="M65.4 1.85 L65.4 5.5 0.0 5.5 0.0 1.85 65.4 1.85" fill="#00ff00" fill-rule="evenodd" stroke="none"/>
    <path d="M0.0 1.85 L0.0 0.0 65.4 0.0 65.4 1.85 0.0 1.85" fill="#ddffdd" fill-rule="evenodd" stroke="none"/>
    <path d="M65.4 5.5 L0.0 5.5 0.0 0.0 65.4 0.0 65.4 5.5 Z" fill="none" stroke="#003300" stroke-linecap="butt" stroke-linejoin="miter-clip" stroke-miterlimit="3.0" stroke-width="1.0"/>
  </g>
</svg>
