<?xml version="1.0" encoding="UTF-8" standalone="no"?>
<svg xmlns:xlink="http://www.w3.org/1999/xlink" height="25.5px" width="52.05px" xmlns="http://www.w3.org/2000/svg">
  <g transform="matrix(1.0, 0.0, 0.0, 1.0, -11.6, -13.95)">
    <path d="M43.95 17.25 L43.7 18.75 48.5 18.75 47.15 21.0 43.35 21.0 42.65 25.0 47.15 25.0 45.65 33.75 41.85 36.3 35.75 36.3 37.7 25.0 39.4 25.0 40.75 17.25 43.95 17.25 M50.15 20.95 L50.35 17.4 53.7 17.4 53.45 20.95 57.6 20.95 56.15 23.2 53.3 23.2 53.15 25.25 54.1 24.15 57.3 24.2 52.8 29.6 52.5 33.95 56.0 33.95 54.2 36.35 48.9 36.35 49.1 33.7 46.1 33.7 49.45 29.7 49.95 23.2 48.05 23.2 48.45 20.95 50.15 20.95 M56.95 17.35 L57.55 17.95 57.65 18.85 57.2 19.8 56.45 20.4 55.55 20.6 54.65 20.4 54.1 19.75 54.0 18.9 54.45 17.95 55.25 17.3 56.15 17.1 56.95 17.35 M40.6 27.3 L39.4 34.05 42.3 34.05 43.5 27.3 40.6 27.3 M29.15 16.95 L27.8 25.0 32.05 25.0 33.35 17.75 36.5 17.75 35.3 24.75 31.7 27.55 27.35 27.55 26.3 33.6 30.55 33.6 31.4 28.55 34.6 28.55 33.8 33.45 30.2 36.15 15.25 36.15 16.6 28.7 19.8 28.7 18.95 33.6 23.05 33.6 24.1 27.55 16.75 27.55 18.45 17.85 21.6 17.85 20.4 25.0 24.55 25.0 25.95 16.95 29.15 16.95" fill="#660000" fill-rule="evenodd" stroke="none"/>
    <path d="M43.95 17.25 L43.7 18.75 48.5 18.75 47.15 21.0 43.35 21.0 42.65 25.0 47.15 25.0 45.65 33.75 41.85 36.3 35.75 36.3 37.7 25.0 39.4 25.0 40.75 17.25 43.95 17.25 M50.15 20.95 L50.35 17.4 53.7 17.4 53.45 20.95 57.6 20.95 56.15 23.2 53.3 23.2 53.15 25.25 54.1 24.15 57.3 24.2 52.8 29.6 52.5 33.95 56.0 33.95 54.2 36.35 48.9 36.35 49.1 33.7 46.1 33.7 49.45 29.7 49.95 23.2 48.05 23.2 48.45 20.95 50.15 20.95 M56.95 17.35 L57.55 17.95 57.65 18.85 57.2 19.8 56.45 20.4 55.55 20.6 54.65 20.4 54.1 19.75 54.0 18.9 54.45 17.95 55.25 17.3 56.15 17.1 56.95 17.35 M40.6 27.3 L39.4 34.05 42.3 34.05 43.5 27.3 40.6 27.3 M29.15 16.95 L27.8 25.0 32.05 25.0 33.35 17.75 36.5 17.75 35.3 24.75 31.7 27.55 27.35 27.55 26.3 33.6 30.55 33.6 31.4 28.55 34.6 28.55 33.8 33.45 30.2 36.15 15.25 36.15 16.6 28.7 19.8 28.7 18.95 33.6 23.05 33.6 24.1 27.55 16.75 27.55 18.45 17.85 21.6 17.85 20.4 25.0 24.55 25.0 25.95 16.95 29.15 16.95 Z" fill="none" stroke="#660000" stroke-linecap="butt" stroke-linejoin="miter-clip" stroke-miterlimit="3.0" stroke-width="6.0"/>
    <path d="M44.0 17.25 L43.75 18.75 48.55 18.75 47.15 21.0 43.35 21.0 42.65 24.95 47.15 24.95 45.65 33.75 41.9 36.3 35.75 36.3 37.7 24.95 39.45 24.95 40.75 17.25 44.0 17.25 M50.15 20.95 L50.35 17.35 53.75 17.35 53.5 20.95 57.6 20.95 56.2 23.2 53.3 23.2 53.15 25.25 54.15 24.15 57.3 24.2 52.8 29.6 52.5 33.95 56.05 33.95 54.25 36.35 48.95 36.35 49.15 33.7 46.15 33.7 49.45 29.65 49.95 23.2 48.05 23.2 48.45 20.95 50.15 20.95 M56.95 17.35 L57.55 17.95 57.65 18.85 57.2 19.8 56.5 20.4 55.55 20.6 54.65 20.4 54.15 19.75 54.05 18.9 54.45 17.95 55.25 17.3 56.2 17.1 56.95 17.35 M40.6 27.25 L39.45 34.05 42.3 34.05 43.5 27.25 40.6 27.25 M35.3 24.7 L31.75 27.5 27.35 27.5 26.3 33.6 30.55 33.6 31.45 28.55 34.65 28.55 33.8 33.45 30.2 36.15 15.25 36.15 16.6 28.7 19.85 28.7 18.95 33.6 23.05 33.6 24.15 27.5 16.8 27.5 18.45 17.8 21.65 17.8 20.4 24.95 24.6 24.95 25.95 16.95 29.2 16.95 27.8 24.95 32.1 24.95 33.35 17.7 36.55 17.7 35.3 24.7" fill="#cc6600" fill-rule="evenodd" stroke="none"/>
    <path d="M44.0 17.25 L43.75 18.75 48.55 18.75 47.15 21.0 43.35 21.0 42.65 24.95 47.15 24.95 45.65 33.75 41.9 36.3 35.75 36.3 37.7 24.95 39.45 24.95 40.75 17.25 44.0 17.25 M50.15 20.95 L50.35 17.35 53.75 17.35 53.5 20.95 57.6 20.95 56.2 23.2 53.3 23.2 53.15 25.25 54.15 24.15 57.3 24.2 52.8 29.6 52.5 33.95 56.05 33.95 54.25 36.35 48.95 36.35 49.15 33.7 46.15 33.7 49.45 29.65 49.95 23.2 48.05 23.2 48.45 20.95 50.15 20.95 M56.95 17.35 L57.55 17.95 57.65 18.85 57.2 19.8 56.5 20.4 55.55 20.6 54.65 20.4 54.15 19.75 54.05 18.9 54.45 17.95 55.25 17.3 56.2 17.1 56.95 17.35 M40.6 27.25 L39.45 34.05 42.3 34.05 43.5 27.25 40.6 27.25 M35.3 24.7 L31.75 27.5 27.35 27.5 26.3 33.6 30.55 33.6 31.45 28.55 34.65 28.55 33.8 33.45 30.2 36.15 15.25 36.15 16.6 28.7 19.85 28.7 18.95 33.6 23.05 33.6 24.15 27.5 16.8 27.5 18.45 17.8 21.65 17.8 20.4 24.95 24.6 24.95 25.95 16.95 29.2 16.95 27.8 24.95 32.1 24.95 33.35 17.7 36.55 17.7 35.3 24.7 Z" fill="none" stroke="#cc6600" stroke-linecap="butt" stroke-linejoin="miter-clip" stroke-miterlimit="3.0" stroke-width="3.5"/>
    <path d="M44.0 16.75 L43.75 18.25 48.55 18.25 47.15 20.5 43.35 20.5 42.65 24.5 47.15 24.5 45.65 33.25 41.9 35.8 35.75 35.8 37.7 24.5 39.45 24.5 40.75 16.75 44.0 16.75 M48.45 20.45 L50.15 20.45 50.35 16.9 53.75 16.9 53.5 20.45 57.6 20.45 56.2 22.7 53.3 22.7 53.15 24.75 54.15 23.65 57.3 23.7 52.8 29.1 52.5 33.45 56.05 33.45 54.25 35.85 48.95 35.85 49.15 33.2 46.15 33.2 49.45 29.2 49.95 22.7 48.05 22.7 48.45 20.45 M57.55 17.45 L57.65 18.35 57.2 19.3 56.5 19.9 55.55 20.1 54.65 19.9 54.15 19.25 54.05 18.4 54.45 17.45 55.25 16.8 56.2 16.6 56.95 16.85 57.55 17.45 M43.5 26.8 L40.6 26.8 39.45 33.55 42.3 33.55 43.5 26.8 M20.4 24.5 L24.6 24.5 25.95 16.45 29.2 16.45 27.8 24.5 32.1 24.5 33.35 17.25 36.55 17.25 35.3 24.25 31.75 27.05 27.35 27.05 26.3 33.1 30.55 33.1 31.45 28.05 34.65 28.05 33.8 32.95 30.2 35.65 15.25 35.65 16.6 28.2 19.85 28.2 18.95 33.1 23.05 33.1 24.15 27.05 16.8 27.05 18.45 17.35 21.65 17.35 20.4 24.5" fill="url(#gradient0)" fill-rule="evenodd" stroke="none"/>
  </g>
  <defs>
    <linearGradient gradientTransform="matrix(0.0, -0.013, 0.0117, 0.0, 25.8, 26.15)" gradientUnits="userSpaceOnUse" id="gradient0" spreadMethod="pad" x1="-819.2" x2="819.2">
      <stop offset="0.0" stop-color="#ff9900"/>
      <stop offset="1.0" stop-color="#ffff00"/>
    </linearGradient>
  </defs>
</svg>
