<?xml version="1.0" encoding="UTF-8" standalone="no"?>
<svg xmlns:xlink="http://www.w3.org/1999/xlink" height="158.35px" width="120.15px" xmlns="http://www.w3.org/2000/svg">
  <g transform="matrix(1.0, 0.0, 0.0, 1.0, 1.1, 159.75)">
    <path d="M88.05 -159.0 L112.2 -159.0 Q118.3 -159.0 118.3 -152.9 L118.3 -135.05 118.3 -40.95 118.3 -18.5 Q118.3 -12.35 112.2 -12.35 L88.05 -12.35 34.6 -12.35 27.95 -5.7 24.7 -2.45 Q24.4 -2.15 24.0 -2.15 23.6 -2.15 23.3 -2.45 23.0 -2.75 23.0 -3.15 L23.0 -12.35 5.8 -12.35 Q-0.35 -12.35 -0.35 -18.5 L-0.35 -40.95 -0.35 -135.05 -0.35 -152.9 Q-0.35 -159.0 5.8 -159.0 L27.95 -159.0 88.05 -159.0 M116.3 -152.9 Q116.3 -157.0 112.2 -157.0 L88.05 -157.0 27.95 -157.0 5.8 -157.0 Q1.65 -157.0 1.65 -152.9 L1.65 -135.05 1.65 -40.95 1.65 -18.5 Q1.65 -14.35 5.8 -14.35 L24.0 -14.35 24.7 -14.05 25.0 -13.35 25.0 -5.55 27.95 -8.5 33.5 -14.05 34.2 -14.35 88.05 -14.35 112.2 -14.35 Q116.3 -14.35 116.3 -18.5 L116.3 -40.95 116.3 -135.05 116.3 -152.9" fill="url(#gradient0)" fill-rule="evenodd" stroke="none"/>
    <path d="M116.3 -152.9 L116.3 -135.05 116.3 -40.95 116.3 -18.5 Q116.3 -14.35 112.2 -14.35 L88.05 -14.35 34.2 -14.35 33.5 -14.05 27.95 -8.5 25.0 -5.55 25.0 -13.35 24.7 -14.05 24.0 -14.35 5.8 -14.35 Q1.65 -14.35 1.65 -18.5 L1.65 -40.95 1.65 -135.05 1.65 -152.9 Q1.65 -157.0 5.8 -157.0 L27.95 -157.0 88.05 -157.0 112.2 -157.0 Q116.3 -157.0 116.3 -152.9" fill="#10161b" fill-opacity="0.9019608" fill-rule="evenodd" stroke="none"/>
    <path d="M88.05 -159.0 L27.95 -159.0 5.8 -159.0 Q-0.35 -159.0 -0.35 -152.9 L-0.35 -135.05 -0.35 -40.95 -0.35 -18.5 Q-0.35 -12.35 5.8 -12.35 L23.0 -12.35 23.0 -3.15 Q23.0 -2.75 23.3 -2.45 23.6 -2.15 24.0 -2.15 24.4 -2.15 24.7 -2.45 L27.95 -5.7 34.6 -12.35 88.05 -12.35 112.2 -12.35 Q118.3 -12.35 118.3 -18.5 L118.3 -40.95 118.3 -135.05 118.3 -152.9 Q118.3 -159.0 112.2 -159.0 L88.05 -159.0 Z" fill="none" stroke="#10161b" stroke-linecap="butt" stroke-linejoin="miter-clip" stroke-miterlimit="3.0" stroke-width="1.5"/>
  </g>
  <defs>
    <linearGradient gradientTransform="matrix(0.0724, 0.0, 0.0, 0.0957, 58.95, -80.6)" gradientUnits="userSpaceOnUse" id="gradient0" spreadMethod="pad" x1="-819.2" x2="819.2">
      <stop offset="0.0" stop-color="#52e5f9"/>
      <stop offset="1.0" stop-color="#52e5f9"/>
    </linearGradient>
  </defs>
</svg>
