<?xml version="1.0" encoding="UTF-8" standalone="no"?>
<svg xmlns:xlink="http://www.w3.org/1999/xlink" height="56.0px" width="79.95px" xmlns="http://www.w3.org/2000/svg">
  <g transform="matrix(1.0, 0.0, 0.0, 1.0, 0.0, 0.0)">
    <path d="M17.85 4.65 Q27.55 0.0 39.95 0.0 56.5 0.0 68.25 8.25 79.95 16.4 79.95 28.0 79.95 39.6 68.25 47.85 56.5 56.0 39.95 56.0 23.4 56.0 11.65 47.85 0.0 39.6 0.0 28.0 0.0 16.4 11.65 8.25 L12.95 7.4 Q12.55 8.25 12.55 9.2 L12.6 9.85 Q12.8 11.4 13.9 12.45 15.25 13.8 17.15 13.8 19.1 13.8 20.4 12.45 21.75 11.15 21.75 9.2 21.75 7.3 20.4 5.95 19.35 4.85 17.85 4.65" fill="url(#gradient0)" fill-rule="evenodd" stroke="none"/>
    <path d="M12.95 7.4 L13.65 6.25 13.9 5.95 Q15.05 4.8 16.65 4.65 L17.15 4.6 17.85 4.65 Q19.35 4.85 20.4 5.95 21.75 7.3 21.75 9.2 21.75 11.15 20.4 12.45 19.1 13.8 17.15 13.8 15.25 13.8 13.9 12.45 12.8 11.4 12.6 9.85 L12.55 9.2 Q12.55 8.25 12.95 7.4" fill="#ffffff" fill-opacity="0.8" fill-rule="evenodd" stroke="none"/>
  </g>
  <defs>
    <linearGradient gradientTransform="matrix(0.0, -0.0195, -0.0396, 0.0, 41.1, 26.6)" gradientUnits="userSpaceOnUse" id="gradient0" spreadMethod="pad" x1="-819.2" x2="819.2">
      <stop offset="0.023529411764705882" stop-color="#70d9ff" stop-opacity="0.0"/>
      <stop offset="1.0" stop-color="#d4edff" stop-opacity="0.8"/>
    </linearGradient>
  </defs>
</svg>
