<?xml version="1.0" encoding="UTF-8" standalone="no"?>
<svg xmlns:xlink="http://www.w3.org/1999/xlink" height="45.35px" width="45.3px" xmlns="http://www.w3.org/2000/svg">
  <g transform="matrix(1.0, 0.0, 0.0, 1.0, 3.4, 3.4)">
    <path d="M38.45 19.2 Q38.45 27.2 32.85 32.8 27.2 38.5 19.25 38.5 11.25 38.5 5.6 32.8 0.0 27.2 0.0 19.2 0.0 11.25 5.6 5.6 11.25 0.0 19.25 0.0 27.2 0.0 32.85 5.6 38.45 11.25 38.45 19.2 M36.55 19.5 Q36.55 12.3 31.45 7.2 26.4 2.15 19.25 2.15 12.05 2.15 6.95 7.2 1.9 12.3 1.9 19.5 1.9 26.65 6.95 31.7 12.05 36.8 19.25 36.8 26.4 36.8 31.45 31.7 36.55 26.65 36.55 19.5" fill="#0e1e34" fill-opacity="0.7019608" fill-rule="evenodd" stroke="none"/>
    <path d="M38.45 19.2 Q38.45 27.2 32.85 32.8 27.2 38.5 19.25 38.5 11.25 38.5 5.6 32.8 0.0 27.2 0.0 19.2 0.0 11.25 5.6 5.6 11.25 0.0 19.25 0.0 27.2 0.0 32.85 5.6 38.45 11.25 38.45 19.2" fill="none" stroke="#244d87" stroke-linecap="round" stroke-linejoin="round" stroke-width="1.2000000000000002"/>
    <path d="M40.05 19.2 Q40.05 27.9 33.95 33.9 27.9 40.1 19.25 40.1 10.65 40.1 4.5 33.9 -1.5 27.9 -1.5 19.2 -1.5 10.65 4.5 4.5 10.65 -1.5 19.25 -1.5 27.9 -1.5 33.95 4.5 40.05 10.65 40.05 19.2 M3.45 34.95 Q-3.0 28.5 -3.0 19.2 -3.0 10.0 3.45 3.45 10.0 -3.0 19.25 -3.0 28.5 -3.0 35.0 3.45 41.5 10.0 41.5 19.2 41.5 28.5 35.0 34.95 28.5 41.55 19.25 41.55 10.0 41.55 3.45 34.95 Z" fill="none" stroke="#244d87" stroke-linecap="round" stroke-linejoin="round" stroke-width="0.8"/>
  </g>
</svg>
