<?xml version="1.0" encoding="UTF-8" standalone="no"?>
<svg xmlns:xlink="http://www.w3.org/1999/xlink" height="119.9px" width="657.6px" xmlns="http://www.w3.org/2000/svg">
  <g transform="matrix(1.0, 0.0, 0.0, 1.0, 0.5, 0.8)">
    <path d="M656.0 11.85 Q656.6 12.45 656.6 13.35 L656.6 104.4 Q656.6 105.3 656.0 105.9 L643.9 118.0 Q643.3 118.6 642.45 118.6 L14.15 118.6 Q13.3 118.6 12.7 118.0 L0.6 105.9 Q0.0 105.3 0.0 104.4 L0.0 13.35 Q0.0 12.45 0.65 11.85 L11.9 0.6 Q12.5 0.0 13.35 0.0 L110.9 0.0 Q111.8 0.0 112.4 0.6 L115.05 3.2 541.55 3.2 544.25 0.6 Q544.85 0.0 545.7 0.0 L643.25 0.0 Q644.15 0.0 644.75 0.6 L656.0 11.85 M654.7 13.35 L654.7 13.25 643.4 1.95 643.25 1.9 545.7 1.9 545.65 1.95 542.95 4.6 Q542.4 5.15 541.55 5.15 L115.05 5.15 Q114.25 5.15 113.7 4.6 L111.1 1.95 110.9 1.9 13.35 1.9 13.3 1.95 2.0 13.25 1.95 13.3 1.9 13.35 1.9 104.4 1.95 104.6 14.05 116.7 14.15 116.7 642.45 116.7 642.6 116.7 654.7 104.6 654.7 104.4 654.7 13.35" fill="url(#gradient0)" fill-rule="evenodd" stroke="none"/>
    <path d="M654.7 13.35 L654.7 104.4 654.7 104.6 642.6 116.7 642.45 116.7 14.15 116.7 14.05 116.7 1.95 104.6 1.9 104.4 1.9 13.35 1.95 13.3 2.0 13.25 13.3 1.95 13.35 1.9 110.9 1.9 111.1 1.95 113.7 4.6 Q114.25 5.15 115.05 5.15 L541.55 5.15 Q542.4 5.15 542.95 4.6 L545.65 1.95 545.7 1.9 643.25 1.9 643.4 1.95 654.7 13.25 654.7 13.35 M652.45 103.55 L652.45 14.2 642.4 4.15 546.55 4.15 543.95 6.85 Q543.25 7.4 542.45 7.4 L114.15 7.4 Q113.3 7.4 112.7 6.8 L110.05 4.15 14.25 4.15 4.15 14.2 4.15 103.55 15.05 114.45 641.55 114.45 652.45 103.55" fill="url(#gradient1)" fill-rule="evenodd" stroke="none"/>
    <path d="M0.0 92.15 L1.9 92.15 1.9 104.4 1.95 104.6 6.5 109.15 5.2 110.5 0.6 105.9 Q0.0 105.3 0.0 104.4 L0.0 92.15" fill="url(#gradient2)" fill-rule="evenodd" stroke="none"/>
    <path d="M25.3 116.7 L25.3 118.6 14.15 118.6 Q13.3 118.6 12.7 118.0 L8.2 113.5 9.5 112.15 14.05 116.7 14.15 116.7 25.3 116.7" fill="url(#gradient3)" fill-rule="evenodd" stroke="none"/>
    <path d="M0.0 14.0 L1.9 14.0 1.9 102.75 0.0 102.75 0.0 14.0 M654.7 14.0 L656.6 14.0 656.6 102.75 654.7 102.75 654.7 14.0" fill="url(#gradient4)" fill-rule="evenodd" stroke="none"/>
    <path d="M1.9 14.65 L4.15 14.65 4.15 103.05 1.9 103.05 1.9 14.65" fill="url(#gradient5)" fill-rule="evenodd" stroke="none"/>
    <path d="M656.0 11.85 L644.75 0.6 Q644.15 0.0 643.25 0.0 L545.7 0.0 Q544.85 0.0 544.25 0.6 L541.55 3.2 115.05 3.2 112.4 0.6 Q111.8 0.0 110.9 0.0 L13.35 0.0 Q12.5 0.0 11.9 0.6 L0.65 11.85 Q0.0 12.45 0.0 13.35 L0.0 104.4 Q0.0 105.3 0.6 105.9 L12.7 118.0 Q13.3 118.6 14.15 118.6 L642.45 118.6 Q643.3 118.6 643.9 118.0 L656.0 105.9 Q656.6 105.3 656.6 104.4 L656.6 13.35 Q656.6 12.45 656.0 11.85 Z" fill="none" stroke="#990000" stroke-linecap="butt" stroke-linejoin="miter-clip" stroke-miterlimit="3.0" stroke-width="1.0"/>
    <path d="M21.55 1.9 L21.55 4.15 14.25 4.15 10.45 7.9 8.9 6.35 13.3 1.95 13.35 1.9 21.55 1.9" fill="url(#gradient6)" fill-rule="evenodd" stroke="none"/>
    <path d="M8.45 9.9 L4.15 14.2 4.15 24.4 1.9 24.4 1.9 13.35 1.95 13.3 2.0 13.25 6.9 8.35 8.45 9.9" fill="url(#gradient7)" fill-rule="evenodd" stroke="none"/>
    <path d="M640.25 114.45 L640.25 116.7 16.25 116.7 16.25 114.45 640.25 114.45" fill="url(#gradient8)" fill-rule="evenodd" stroke="none"/>
    <path d="M652.45 103.55 L641.55 114.45 15.05 114.45 4.15 103.55 4.15 14.2 14.25 4.15 110.05 4.15 112.7 6.8 Q113.3 7.4 114.15 7.4 L542.45 7.4 Q543.25 7.4 543.95 6.85 L546.55 4.15 642.4 4.15 652.45 14.2 652.45 103.55 Z" fill="none" stroke="#cc6600" stroke-linecap="butt" stroke-linejoin="miter-clip" stroke-miterlimit="3.0" stroke-width="1.0"/>
    <path d="M647.95 16.0 L647.95 101.75 639.75 109.95 16.85 109.95 8.65 101.75 8.65 16.15 16.2 8.65 640.2 8.65 640.6 8.65 647.95 16.0" fill="#000033" fill-opacity="0.7490196" fill-rule="evenodd" stroke="none"/>
    <path d="M640.6 8.65 L647.95 16.0 647.95 101.75 639.75 109.95 16.85 109.95 8.65 101.75 8.65 16.15 16.2 8.65 640.2 8.65 640.6 8.65 M645.7 16.95 L639.65 10.9 17.15 10.9 10.9 17.1 10.9 100.8 17.8 107.7 638.8 107.7 645.7 100.8 645.7 16.95" fill="#000033" fill-rule="evenodd" stroke="none"/>
    <path d="M652.45 103.55 L641.55 114.45 15.05 114.45 4.15 103.55 4.15 14.2 14.25 4.15 642.4 4.15 652.45 14.2 652.45 103.55 M640.6 8.65 L640.2 8.65 16.2 8.65 8.65 16.15 8.65 101.75 16.85 109.95 639.75 109.95 647.95 101.75 647.95 16.0 640.6 8.65" fill="url(#gradient9)" fill-rule="evenodd" stroke="none"/>
    <path d="M640.6 8.65 L647.95 16.0 647.95 101.75 639.75 109.95 16.85 109.95 8.65 101.75 8.65 16.15 16.2 8.65 640.2 8.65 640.6 8.65 Z" fill="none" stroke="#53b8ec" stroke-linecap="butt" stroke-linejoin="miter-clip" stroke-miterlimit="3.0" stroke-width="1.0"/>
    <path d="M652.45 103.55 L641.55 114.45 15.05 114.45 4.15 103.55 4.15 14.2 14.25 4.15 642.4 4.15 652.45 14.2 652.45 103.55 M650.95 102.95 L650.95 14.8 641.8 5.65 14.9 5.65 5.65 14.85 5.65 102.95 15.65 112.95 640.95 112.95 650.95 102.95" fill="#01517c" fill-rule="evenodd" stroke="none"/>
    <path d="M652.45 103.55 L641.55 114.45 15.05 114.45 4.15 103.55 4.15 14.2 14.25 4.15 642.4 4.15 652.45 14.2 652.45 103.55 Z" fill="none" stroke="#53b8ec" stroke-linecap="butt" stroke-linejoin="miter-clip" stroke-miterlimit="3.0" stroke-width="1.0"/>
    <path d="M647.95 16.0 L647.95 101.75 M8.65 101.75 L8.65 16.15" fill="none" stroke="url(#gradient10)" stroke-linecap="butt" stroke-linejoin="miter-clip" stroke-miterlimit="3.0" stroke-width="1.0"/>
    <path d="M8.65 16.15 L16.2 8.65 28.0 8.65" fill="none" stroke="url(#gradient11)" stroke-linecap="butt" stroke-linejoin="miter-clip" stroke-miterlimit="3.0" stroke-width="1.0"/>
    <path d="M16.2 8.65 L640.2 8.65" fill="none" stroke="url(#gradient12)" stroke-linecap="butt" stroke-linejoin="miter-clip" stroke-miterlimit="3.0" stroke-width="1.0"/>
  </g>
  <defs>
    <linearGradient gradientTransform="matrix(0.0, -0.0682, 0.0724, 0.0, 328.25, 59.25)" gradientUnits="userSpaceOnUse" id="gradient0" spreadMethod="pad" x1="-819.2" x2="819.2">
      <stop offset="0.0" stop-color="#ffc434"/>
      <stop offset="1.0" stop-color="#e97c2b"/>
    </linearGradient>
    <linearGradient gradientTransform="matrix(0.0, 0.0605, -0.0701, 0.0, 328.25, 59.25)" gradientUnits="userSpaceOnUse" id="gradient1" spreadMethod="pad" x1="-819.2" x2="819.2">
      <stop offset="0.0" stop-color="#ffc434"/>
      <stop offset="1.0" stop-color="#e97c2b"/>
    </linearGradient>
    <linearGradient gradientTransform="matrix(-0.0025, -0.0043, 0.0627, -0.0362, 285.8, -59.55)" gradientUnits="userSpaceOnUse" id="gradient2" spreadMethod="pad" x1="-819.2" x2="819.2">
      <stop offset="0.0" stop-color="#fab532" stop-opacity="0.0"/>
      <stop offset="0.5098039215686274" stop-color="#cc6600"/>
      <stop offset="1.0" stop-color="#f9b231" stop-opacity="0.0"/>
    </linearGradient>
    <linearGradient gradientTransform="matrix(-0.007, -0.0019, 0.0188, -0.0698, 97.65, -191.8)" gradientUnits="userSpaceOnUse" id="gradient3" spreadMethod="pad" x1="-819.2" x2="819.2">
      <stop offset="0.0" stop-color="#fec333" stop-opacity="0.019607844"/>
      <stop offset="0.5411764705882353" stop-color="#ffff99"/>
      <stop offset="1.0" stop-color="#ffc434" stop-opacity="0.0"/>
    </linearGradient>
    <linearGradient gradientTransform="matrix(0.0, -0.0432, 0.0724, 0.0, 328.25, 59.25)" gradientUnits="userSpaceOnUse" id="gradient4" spreadMethod="pad" x1="-819.2" x2="819.2">
      <stop offset="0.0" stop-color="#fcbb32" stop-opacity="0.019607844"/>
      <stop offset="0.5254901960784314" stop-color="#ffff00"/>
      <stop offset="1.0" stop-color="#eb832b" stop-opacity="0.0"/>
    </linearGradient>
    <linearGradient gradientTransform="matrix(0.0, 0.0457, -0.0701, 0.0, 328.25, 59.25)" gradientUnits="userSpaceOnUse" id="gradient5" spreadMethod="pad" x1="-819.2" x2="819.2">
      <stop offset="0.0" stop-color="#fdbf33" stop-opacity="0.007843138"/>
      <stop offset="0.5176470588235295" stop-color="#ff6600"/>
      <stop offset="1.0" stop-color="#ea812b" stop-opacity="0.0"/>
    </linearGradient>
    <linearGradient gradientTransform="matrix(-0.0054, 0.0019, -0.0231, -0.0661, 118.55, 301.5)" gradientUnits="userSpaceOnUse" id="gradient6" spreadMethod="pad" x1="-819.2" x2="819.2">
      <stop offset="0.0196078431372549" stop-color="#ffc434" stop-opacity="0.0"/>
      <stop offset="0.5647058823529412" stop-color="#ffffcc"/>
      <stop offset="1.0" stop-color="#fbba32" stop-opacity="0.0"/>
    </linearGradient>
    <linearGradient gradientTransform="matrix(-0.0033, 0.0056, -0.0607, -0.035, 287.1, 177.15)" gradientUnits="userSpaceOnUse" id="gradient7" spreadMethod="pad" x1="-819.2" x2="819.2">
      <stop offset="0.0196078431372549" stop-color="#ffc434" stop-opacity="0.0"/>
      <stop offset="0.5647058823529412" stop-color="#ffff00"/>
      <stop offset="1.0" stop-color="#fbba32" stop-opacity="0.0"/>
    </linearGradient>
    <linearGradient gradientTransform="matrix(-0.3777, 0.0, 0.0, -0.0701, 328.25, 59.25)" gradientUnits="userSpaceOnUse" id="gradient8" spreadMethod="pad" x1="-819.2" x2="819.2">
      <stop offset="0.0" stop-color="#e97c2b" stop-opacity="0.047058824"/>
      <stop offset="0.5333333333333333" stop-color="#ffff99"/>
      <stop offset="1.0" stop-color="#e97c2b" stop-opacity="0.0"/>
    </linearGradient>
    <linearGradient gradientTransform="matrix(0.0, 0.0643, -0.0673, 0.0, 328.3, 59.3)" gradientUnits="userSpaceOnUse" id="gradient9" spreadMethod="pad" x1="-819.2" x2="819.2">
      <stop offset="0.0" stop-color="#006ea8"/>
      <stop offset="1.0" stop-color="#1467ab"/>
    </linearGradient>
    <linearGradient gradientTransform="matrix(0.0, 0.0625, -0.0529, 0.0, 647.95, 58.85)" gradientUnits="userSpaceOnUse" id="gradient10" spreadMethod="pad" x1="-819.2" x2="819.2">
      <stop offset="0.0" stop-color="#53b8ec" stop-opacity="0.047058824"/>
      <stop offset="0.5333333333333333" stop-color="#66ffff"/>
      <stop offset="1.0" stop-color="#53b8ec" stop-opacity="0.0"/>
    </linearGradient>
    <linearGradient gradientTransform="matrix(0.0053, -0.0022, 0.002, 0.0048, 17.4, 12.8)" gradientUnits="userSpaceOnUse" id="gradient11" spreadMethod="pad" x1="-819.2" x2="819.2">
      <stop offset="0.0" stop-color="#53b8ec" stop-opacity="0.047058824"/>
      <stop offset="0.5333333333333333" stop-color="#bdffff"/>
      <stop offset="1.0" stop-color="#53b8ec" stop-opacity="0.0"/>
    </linearGradient>
    <linearGradient gradientTransform="matrix(0.3815, 0.0, 0.0, 6.0E-4, 328.2, 8.65)" gradientUnits="userSpaceOnUse" id="gradient12" spreadMethod="pad" x1="-819.2" x2="819.2">
      <stop offset="0.0" stop-color="#53b8ec" stop-opacity="0.047058824"/>
      <stop offset="0.5333333333333333" stop-color="#66ffff"/>
      <stop offset="1.0" stop-color="#53b8ec" stop-opacity="0.0"/>
    </linearGradient>
  </defs>
</svg>
