<?xml version="1.0" encoding="UTF-8" standalone="no"?>
<svg xmlns:xlink="http://www.w3.org/1999/xlink" height="34.6px" width="41.95px" xmlns="http://www.w3.org/2000/svg">
  <g transform="matrix(1.0, 0.0, 0.0, 1.0, 1.75, 1.75)">
    <path d="M36.75 7.8 Q38.45 9.5 38.45 11.95 L37.85 14.6 36.85 15.95 36.75 16.0 23.4 29.4 Q21.6 31.1 19.25 31.1 16.8 31.1 15.1 29.4 L10.15 24.45 10.0 24.25 1.75 16.0 Q1.0 15.25 0.6 14.4 L0.0 12.05 0.0 12.0 0.0 11.9 Q0.0 9.45 1.75 7.75 3.45 6.05 5.85 6.05 L6.15 6.05 Q7.5 6.1 8.65 6.7 L9.9 7.6 9.9 7.65 10.0 7.75 19.3 17.0 28.5 7.75 Q30.2 6.05 32.65 6.05 35.05 6.05 36.75 7.8 M28.3 3.0 L22.0 9.3 16.05 9.3 10.2 3.45 10.2 0.0 28.3 0.0 28.3 3.0" fill="#cc6600" fill-rule="evenodd" stroke="none"/>
    <path d="M36.75 7.8 Q35.05 6.05 32.65 6.05 30.2 6.05 28.5 7.75 L19.3 17.0 10.0 7.75 9.9 7.65 9.9 7.6 8.65 6.7 Q7.5 6.1 6.15 6.05 L5.85 6.05 Q3.45 6.05 1.75 7.75 0.0 9.45 0.0 11.9 L0.0 12.0 0.0 12.05 0.6 14.4 Q1.0 15.25 1.75 16.0 L10.0 24.25 10.15 24.45 15.1 29.4 Q16.8 31.1 19.25 31.1 21.6 31.1 23.4 29.4 L36.75 16.0 36.85 15.95 37.85 14.6 38.45 11.95 Q38.45 9.5 36.75 7.8 M28.3 3.0 L22.0 9.3 16.05 9.3 10.2 3.45 10.2 0.0 28.3 0.0 28.3 3.0 Z" fill="none" stroke="#cc6600" stroke-linecap="butt" stroke-linejoin="miter-clip" stroke-miterlimit="3.0" stroke-width="3.5"/>
    <path d="M28.5 7.75 Q30.2 6.05 32.65 6.05 35.05 6.05 36.75 7.8 38.45 9.5 38.45 11.95 38.45 14.3 36.75 16.0 L23.4 29.4 Q21.6 31.1 19.25 31.1 16.8 31.1 15.1 29.4 L1.75 16.0 Q0.0 14.3 0.0 11.9 0.0 9.45 1.75 7.75 3.45 6.05 5.85 6.05 8.3 6.05 10.0 7.75 L19.3 17.0 28.5 7.75" fill="url(#gradient0)" fill-rule="evenodd" stroke="none"/>
    <path d="M10.2 3.45 L10.2 0.0 28.3 0.0 28.3 3.0 22.0 9.3 16.05 9.3 10.2 3.45" fill="url(#gradient1)" fill-rule="evenodd" stroke="none"/>
    <path d="M36.65 11.95 Q36.65 10.25 35.5 9.1 L35.5 9.05 Q34.25 7.85 32.65 7.85 31.0 7.85 29.8 9.05 L29.8 9.0 20.6 18.25 Q20.05 18.8 19.3 18.8 18.5 18.8 18.0 18.3 L8.75 9.05 Q7.55 7.85 5.85 7.85 4.2 7.85 3.05 9.05 1.8 10.2 1.8 11.9 1.8 13.55 3.05 14.75 L16.4 28.15 Q17.55 29.3 19.25 29.3 20.9 29.3 22.1 28.15 L35.5 14.75 Q36.65 13.55 36.65 11.95 M36.75 7.8 Q38.45 9.5 38.45 11.95 38.45 14.3 36.75 16.0 L23.4 29.4 Q21.6 31.1 19.25 31.1 16.8 31.1 15.1 29.4 L1.75 16.0 Q0.0 14.3 0.0 11.9 0.0 9.45 1.75 7.75 3.45 6.05 5.85 6.05 8.3 6.05 10.0 7.75 L19.3 17.0 28.5 7.75 Q30.2 6.05 32.65 6.05 35.05 6.05 36.75 7.8" fill="url(#gradient2)" fill-rule="evenodd" stroke="none"/>
    <path d="M22.0 9.3 L16.05 9.3 10.2 3.45 10.2 0.0 28.3 0.0 28.3 3.0 22.0 9.3 M27.4 1.8 L27.25 1.5 26.95 1.35 12.0 1.35 Q11.8 1.35 11.7 1.5 L11.55 1.8 11.55 2.7 11.7 3.0 16.5 7.85 16.8 7.95 21.2 7.95 21.55 7.85 27.25 2.1 27.4 1.8" fill="url(#gradient3)" fill-rule="evenodd" stroke="none"/>
    <path d="M35.5 9.05 Q34.25 7.85 32.65 7.85 31.0 7.85 29.8 9.05 L29.8 9.0 29.25 9.55 27.9 8.35 28.5 7.75 Q30.2 6.05 32.65 6.05 35.05 6.05 36.75 7.8 38.45 9.5 38.45 11.95 38.45 14.25 36.85 15.95 L35.5 14.75 Q36.65 13.55 36.65 11.95 36.65 10.25 35.5 9.1 L35.5 9.05" fill="url(#gradient4)" fill-rule="evenodd" stroke="none"/>
    <path d="M3.05 9.05 Q1.8 10.2 1.8 11.9 1.8 13.05 2.4 13.95 L1.0 15.1 Q0.0 13.7 0.0 11.9 0.0 9.45 1.75 7.75 3.45 6.05 5.85 6.05 8.2 6.05 9.9 7.6 L8.5 8.8 Q7.35 7.85 5.85 7.85 4.2 7.85 3.05 9.05" fill="url(#gradient5)" fill-rule="evenodd" stroke="none"/>
    <path d="M26.55 23.7 L29.05 23.7 23.4 29.4 Q21.6 31.1 19.25 31.1 16.8 31.1 15.1 29.4 L9.45 23.7 12.0 23.7 16.4 28.15 Q17.55 29.3 19.25 29.3 20.9 29.3 22.1 28.15 L26.55 23.7" fill="url(#gradient6)" fill-rule="evenodd" stroke="none"/>
    <path d="M10.2 3.45 L10.2 0.0 28.3 0.0 28.3 3.0 22.0 9.3 16.05 9.3 10.2 3.45 Z" fill="none" stroke="#cc6600" stroke-linecap="butt" stroke-linejoin="miter-clip" stroke-miterlimit="3.0" stroke-width="1.2000000000000002"/>
    <path d="M19.25 29.3 Q17.55 29.3 16.4 28.15 L12.8 24.55 Q13.2 23.3 14.55 22.3 16.55 20.95 19.3 20.95 22.05 20.95 23.95 22.3 25.3 23.25 25.75 24.5 L22.1 28.15 Q20.9 29.3 19.25 29.3" fill="url(#gradient7)" fill-rule="evenodd" stroke="none"/>
    <path d="M28.5 7.75 L19.3 17.0 10.0 7.75 Q8.3 6.05 5.85 6.05 3.45 6.05 1.75 7.75 0.0 9.45 0.0 11.9 0.0 14.3 1.75 16.0 L15.1 29.4 Q16.8 31.1 19.25 31.1 21.6 31.1 23.4 29.4 L36.75 16.0 Q38.45 14.3 38.45 11.95 38.45 9.5 36.75 7.8 35.05 6.05 32.65 6.05 30.2 6.05 28.5 7.75 Z" fill="none" stroke="#cc6600" stroke-linecap="butt" stroke-linejoin="miter-clip" stroke-miterlimit="3.0" stroke-width="1.2000000000000002"/>
  </g>
  <defs>
    <linearGradient gradientTransform="matrix(0.0, -0.0138, 0.0153, 0.0, 19.25, 18.55)" gradientUnits="userSpaceOnUse" id="gradient0" spreadMethod="pad" x1="-819.2" x2="819.2">
      <stop offset="0.0" stop-color="#ffff00"/>
      <stop offset="1.0" stop-color="#ffcc00"/>
    </linearGradient>
    <linearGradient gradientTransform="matrix(0.0, 0.0061, -0.0057, 0.0, 19.25, 4.65)" gradientUnits="userSpaceOnUse" id="gradient1" spreadMethod="pad" x1="-819.2" x2="819.2">
      <stop offset="0.0" stop-color="#ff9900"/>
      <stop offset="1.0" stop-color="#ffcc00"/>
    </linearGradient>
    <linearGradient gradientTransform="matrix(0.0, 0.0133, -0.0153, 0.0, 19.25, 18.55)" gradientUnits="userSpaceOnUse" id="gradient2" spreadMethod="pad" x1="-819.2" x2="819.2">
      <stop offset="0.0" stop-color="#ffff33"/>
      <stop offset="1.0" stop-color="#ffffcc"/>
    </linearGradient>
    <linearGradient gradientTransform="matrix(0.0, -0.006, 0.0057, 0.0, 19.25, 4.65)" gradientUnits="userSpaceOnUse" id="gradient3" spreadMethod="pad" x1="-819.2" x2="819.2">
      <stop offset="0.0" stop-color="#ffcc00"/>
      <stop offset="1.0" stop-color="#ffff00"/>
    </linearGradient>
    <linearGradient gradientTransform="matrix(0.0052, 0.0047, -0.0103, 0.0113, 24.3, 21.1)" gradientUnits="userSpaceOnUse" id="gradient4" spreadMethod="pad" x1="-819.2" x2="819.2">
      <stop offset="0.0" stop-color="#ffff5e" stop-opacity="0.0"/>
      <stop offset="0.5333333333333333" stop-color="#ffffcc"/>
      <stop offset="1.0" stop-color="#ffff5e" stop-opacity="0.0"/>
    </linearGradient>
    <linearGradient gradientTransform="matrix(-0.0035, 0.004, -0.0115, -0.0101, 15.75, 19.75)" gradientUnits="userSpaceOnUse" id="gradient5" spreadMethod="pad" x1="-819.2" x2="819.2">
      <stop offset="0.0" stop-color="#ffff5e" stop-opacity="0.0"/>
      <stop offset="0.5333333333333333" stop-color="#ffffcc"/>
      <stop offset="1.0" stop-color="#ffff5e" stop-opacity="0.0"/>
    </linearGradient>
    <linearGradient gradientTransform="matrix(-0.0102, 0.0, 0.0, -0.0153, 19.65, 28.2)" gradientUnits="userSpaceOnUse" id="gradient6" spreadMethod="pad" x1="-819.2" x2="819.2">
      <stop offset="0.0" stop-color="#ffffab" stop-opacity="0.02745098"/>
      <stop offset="0.5215686274509804" stop-color="#ffcc00"/>
      <stop offset="1.0" stop-color="#ffffa8" stop-opacity="0.0"/>
    </linearGradient>
    <linearGradient gradientTransform="matrix(0.0, -0.0045, 0.0051, 0.0, 19.35, 24.75)" gradientUnits="userSpaceOnUse" id="gradient7" spreadMethod="pad" x1="-819.2" x2="819.2">
      <stop offset="0.0" stop-color="#ffffcc"/>
      <stop offset="1.0" stop-color="#fff500" stop-opacity="0.0"/>
    </linearGradient>
  </defs>
</svg>
