<?xml version="1.0" encoding="UTF-8" standalone="no"?>
<svg xmlns:xlink="http://www.w3.org/1999/xlink" height="31.95px" width="83.6px" xmlns="http://www.w3.org/2000/svg">
  <g transform="matrix(1.0, 0.0, 0.0, 1.0, 1.0, 1.0)">
    <path d="M2.75 -0.75 L4.95 -1.0 76.6 -1.0 Q82.7 -1.0 82.6 3.75 L82.6 26.2 Q82.55 29.05 80.3 30.2 L80.35 30.2 Q78.95 30.95 76.6 30.95 L4.95 30.95 Q-1.1 30.95 -1.0 26.2 L-1.0 3.75 Q-1.0 2.45 -0.55 1.55 L-0.55 1.5 Q0.3 -0.25 2.75 -0.75 M80.6 26.2 L80.6 3.75 Q80.5 1.0 76.6 1.0 L4.95 1.0 3.2 1.2 3.15 1.2 Q1.8 1.45 1.25 2.4 1.0 2.95 1.0 3.75 L1.0 26.2 Q1.1 28.95 4.95 28.95 L76.6 28.95 79.4 28.45 79.4 28.4 Q80.65 27.75 80.6 26.2" fill="#00ffff" fill-rule="evenodd" stroke="none"/>
    <path d="M80.6 26.2 Q80.65 27.75 79.4 28.4 L79.4 28.45 76.6 28.95 4.95 28.95 Q1.1 28.95 1.0 26.2 L1.0 3.75 Q1.0 2.95 1.25 2.4 1.8 1.45 3.15 1.2 L3.2 1.2 4.95 1.0 76.6 1.0 Q80.5 1.0 80.6 3.75 L80.6 26.2" fill="#070a1b" fill-rule="evenodd" stroke="none"/>
    <path d="M77.95 0.95 Q80.6 1.2 80.6 4.1 L80.6 25.85 Q80.6 27.7 79.5 28.5 78.8 29.0 77.6 29.05 L77.45 29.05 3.6 29.0 3.5 29.0 Q1.35 28.65 0.85 26.3 L0.85 25.85 0.85 4.1 0.9 3.6 Q1.3 1.55 3.0 1.05 L3.5 0.95 3.6 0.95 77.45 0.95 77.95 0.95" fill="url(#gradient0)" fill-rule="evenodd" stroke="none"/>
    <path d="M61.1 24.1 L52.65 24.1 Q50.9 24.1 50.9 22.4 L50.9 10.7 57.35 10.7 57.35 18.55 Q57.35 20.05 55.8 20.05 L53.4 20.05 53.4 21.4 Q53.4 21.75 53.9 21.75 L61.1 21.75 61.1 24.1 M61.0 18.4 Q61.0 20.35 58.75 20.35 L57.7 20.35 57.7 18.2 57.9 18.2 Q58.4 18.2 58.4 17.7 L58.4 9.1 53.65 9.1 53.6 9.2 Q53.3 10.2 52.0 10.2 L50.45 10.2 50.45 8.1 51.1 8.1 51.35 7.8 51.7 6.2 54.45 6.2 54.25 6.85 61.0 6.85 61.0 18.4 M46.0 8.5 L46.0 12.55 47.25 12.55 Q47.7 12.55 47.7 11.85 L47.7 8.5 46.0 8.5 M50.05 6.3 L50.05 12.85 Q50.05 14.55 48.65 14.7 L48.65 16.7 50.0 16.7 50.0 18.95 48.65 18.95 48.65 21.9 50.2 21.9 50.2 24.1 44.5 24.1 Q43.2 24.1 43.2 22.85 L43.2 16.0 45.45 16.0 45.45 21.55 45.85 21.9 46.25 21.9 46.25 14.75 43.65 14.75 43.65 6.3 50.05 6.3 M53.4 17.8 L54.45 17.8 Q54.9 17.8 54.9 17.3 L54.9 12.85 53.4 12.85 53.4 17.8 M34.2 7.0 L36.6 7.0 35.7 10.55 Q35.35 11.75 33.95 11.75 L32.95 11.75 32.95 12.55 35.05 12.55 35.65 15.05 Q35.75 15.5 36.0 15.5 L36.55 15.5 36.55 17.8 35.05 17.8 Q34.0 17.8 33.65 16.5 L32.95 13.8 32.95 18.25 Q32.95 18.8 33.5 18.8 L36.7 18.8 36.7 21.05 32.95 21.05 Q30.5 21.05 30.5 18.8 L30.5 6.3 32.95 6.3 32.95 9.6 33.2 9.6 33.6 9.15 34.2 7.0 M22.55 9.9 L19.75 9.9 19.75 6.2 22.55 6.2 22.55 9.9 M23.5 7.0 L26.0 7.0 26.5 9.15 Q26.6 9.6 26.8 9.6 L26.9 9.6 26.9 6.3 29.35 6.3 29.35 18.95 Q29.35 19.9 28.75 20.5 28.25 21.05 27.3 21.05 L23.4 21.05 23.4 18.8 26.45 18.8 Q26.9 18.8 26.9 17.7 L26.9 13.05 26.2 16.5 Q25.85 17.8 24.6 17.8 L23.25 17.8 23.25 15.7 23.8 15.7 24.15 15.2 24.65 12.7 26.9 12.7 26.9 11.7 25.85 11.7 Q24.8 11.7 24.45 10.55 L23.5 7.0 M24.2 21.85 L37.0 21.85 37.0 24.1 23.9 24.1 Q22.6 24.1 21.85 23.3 21.45 24.1 20.5 24.1 L19.1 24.1 19.1 21.85 19.4 21.85 Q20.0 21.85 20.0 21.3 L20.0 13.65 19.05 13.65 19.05 11.3 22.4 11.3 22.4 20.8 Q22.4 21.85 24.2 21.85" fill="#52e5f9" fill-rule="evenodd" stroke="none"/>
  </g>
  <defs>
    <linearGradient gradientTransform="matrix(0.0, -0.0172, 0.0487, 0.0, 40.7, 15.0)" gradientUnits="userSpaceOnUse" id="gradient0" spreadMethod="pad" x1="-819.2" x2="819.2">
      <stop offset="0.0" stop-color="#52e5f9" stop-opacity="0.4"/>
      <stop offset="1.0" stop-color="#52e5f9" stop-opacity="0.0"/>
    </linearGradient>
  </defs>
</svg>
