<?xml version="1.0" encoding="UTF-8" standalone="no"?>
<svg xmlns:xlink="http://www.w3.org/1999/xlink" height="31.45px" width="83.1px" xmlns="http://www.w3.org/2000/svg">
  <g transform="matrix(1.0, 0.0, 0.0, 1.0, 0.75, 0.75)">
    <path d="M81.6 3.75 L81.6 26.2 Q81.6 28.4 79.85 29.3 78.65 29.95 76.6 29.95 L4.95 29.95 Q0.0 29.95 0.0 26.2 L0.0 3.75 Q0.0 2.7 0.35 1.95 1.05 0.6 2.95 0.2 L4.95 0.0 76.6 0.0 Q81.6 0.0 81.6 3.75" fill="#070a1b" fill-rule="evenodd" stroke="none"/>
    <path d="M81.6 3.75 Q81.6 0.0 76.6 0.0 L4.95 0.0 2.95 0.2 Q1.05 0.6 0.35 1.95 0.0 2.7 0.0 3.75 L0.0 26.2 Q0.0 29.95 4.95 29.95 L76.6 29.95 Q78.65 29.95 79.85 29.3 81.6 28.4 81.6 26.2 L81.6 3.75 Z" fill="none" stroke="url(#gradient0)" stroke-linecap="round" stroke-linejoin="round" stroke-width="1.5"/>
    <path d="M75.7 29.6 L58.2 29.6 Q78.85 26.15 80.3 3.8 L80.3 25.65 Q80.3 29.6 75.7 29.6" fill="url(#gradient1)" fill-rule="evenodd" stroke="none"/>
    <path d="M6.45 0.25 L43.4 0.25 Q6.5 3.4 1.25 27.15 L1.25 4.65 Q0.45 0.1 6.45 0.25" fill="url(#gradient2)" fill-rule="evenodd" stroke="none"/>
    <path d="M61.85 18.4 Q61.85 20.35 59.6 20.35 L58.55 20.35 58.55 18.2 58.75 18.2 Q59.25 18.2 59.25 17.7 L59.25 9.1 54.5 9.1 54.45 9.2 Q54.15 10.2 52.85 10.2 L51.3 10.2 51.3 8.1 51.95 8.1 52.2 7.8 52.55 6.2 55.3 6.2 55.1 6.85 61.85 6.85 61.85 18.4 M61.95 24.1 L53.5 24.1 Q51.75 24.1 51.75 22.4 L51.75 10.7 58.2 10.7 58.2 18.55 Q58.2 20.05 56.65 20.05 L54.25 20.05 54.25 21.4 Q54.25 21.75 54.75 21.75 L61.95 21.75 61.95 24.1 M48.55 8.5 L46.85 8.5 46.85 12.55 48.1 12.55 Q48.55 12.55 48.55 11.85 L48.55 8.5 M49.5 16.7 L50.85 16.7 50.85 18.95 49.5 18.95 49.5 21.9 51.05 21.9 51.05 24.1 45.35 24.1 Q44.05 24.1 44.05 22.85 L44.05 16.0 46.3 16.0 46.3 21.55 Q46.3 21.9 46.7 21.9 L47.1 21.9 47.1 14.75 44.5 14.75 44.5 6.3 50.9 6.3 50.9 12.85 Q50.9 14.55 49.5 14.7 L49.5 16.7 M55.75 12.85 L54.25 12.85 54.25 17.8 55.3 17.8 Q55.75 17.8 55.75 17.3 L55.75 12.85 M33.8 11.75 L33.8 12.55 35.9 12.55 36.5 15.05 Q36.6 15.5 36.85 15.5 L37.4 15.5 37.4 17.8 35.9 17.8 Q34.85 17.8 34.5 16.5 L33.8 13.8 33.8 18.25 Q33.8 18.8 34.35 18.8 L37.55 18.8 37.55 21.05 33.8 21.05 Q31.35 21.05 31.35 18.8 L31.35 6.3 33.8 6.3 33.8 9.6 34.05 9.6 34.45 9.15 35.05 7.0 37.45 7.0 36.55 10.55 Q36.2 11.75 34.8 11.75 L33.8 11.75 M24.35 7.0 L26.85 7.0 27.35 9.15 Q27.45 9.6 27.65 9.6 L27.75 9.6 27.75 6.3 30.2 6.3 30.2 18.95 Q30.2 19.9 29.6 20.5 29.1 21.05 28.15 21.05 L24.25 21.05 24.25 18.8 27.3 18.8 Q27.75 18.8 27.75 17.7 L27.75 13.05 27.05 16.5 Q26.7 17.8 25.45 17.8 L24.1 17.8 24.1 15.7 24.65 15.7 25.0 15.2 25.5 12.7 27.75 12.7 27.75 11.7 26.7 11.7 Q25.65 11.7 25.3 10.55 L24.35 7.0 M20.6 6.2 L23.4 6.2 23.4 9.9 20.6 9.9 20.6 6.2 M21.35 24.1 L19.95 24.1 19.95 21.85 20.25 21.85 Q20.85 21.85 20.85 21.3 L20.85 13.65 19.9 13.65 19.9 11.3 23.25 11.3 23.25 20.8 Q23.25 21.85 25.05 21.85 L37.85 21.85 37.85 24.1 24.75 24.1 Q23.45 24.1 22.7 23.3 22.3 24.1 21.35 24.1" fill="#52e5f9" fill-rule="evenodd" stroke="none"/>
  </g>
  <defs>
    <linearGradient gradientTransform="matrix(0.0, 0.0184, -0.0192, 0.0, 40.8, 14.95)" gradientUnits="userSpaceOnUse" id="gradient0" spreadMethod="pad" x1="-819.2" x2="819.2">
      <stop offset="0.0" stop-color="#41ffff" stop-opacity="0.8"/>
      <stop offset="1.0" stop-color="#305c69" stop-opacity="0.8"/>
    </linearGradient>
    <linearGradient gradientTransform="matrix(-0.0137, -0.0079, -0.0234, 0.0224, 70.75, 33.8)" gradientUnits="userSpaceOnUse" id="gradient1" spreadMethod="pad" x1="-819.2" x2="819.2">
      <stop offset="0.0" stop-color="#ccffff" stop-opacity="0.29803923"/>
      <stop offset="1.0" stop-color="#d6d6d6" stop-opacity="0.0"/>
    </linearGradient>
    <linearGradient gradientTransform="matrix(0.022, 0.0164, 0.027, -0.02, 14.4, 1.0)" gradientUnits="userSpaceOnUse" id="gradient2" spreadMethod="pad" x1="-819.2" x2="819.2">
      <stop offset="0.0" stop-color="#ccffff" stop-opacity="0.29803923"/>
      <stop offset="1.0" stop-color="#d6d6d6" stop-opacity="0.0"/>
    </linearGradient>
  </defs>
</svg>
