<?xml version="1.0" encoding="UTF-8" standalone="no"?>
<svg xmlns:xlink="http://www.w3.org/1999/xlink" height="37.85px" width="29.25px" xmlns="http://www.w3.org/2000/svg">
  <g transform="matrix(1.0, 0.0, 0.0, 1.0, 14.6, 18.9)">
    <path d="M3.4 -17.4 Q10.3 -16.05 12.7 -5.95 L12.85 -4.85 13.15 -0.15 Q13.15 7.15 9.3 12.3 5.45 17.45 0.0 17.45 -5.4 17.45 -9.25 12.3 -13.1 7.15 -13.1 -0.15 L-12.8 -4.8 -12.7 -5.95 Q-10.25 -16.05 -3.35 -17.4 L0.1 -17.4 3.4 -17.4 M0.1 -17.4 L0.1 -15.3 0.1 -17.4 M0.2 -12.4 L1.2 -11.9 1.2 -11.85 Q1.7 -11.35 1.7 -10.65 L1.7 -7.2 1.25 -6.05 1.2 -6.0 Q0.75 -5.6 0.2 -5.55 0.75 -5.6 1.2 -6.0 L1.25 -6.05 1.7 -7.2 1.7 -10.65 Q1.7 -11.35 1.2 -11.85 L1.2 -11.9 0.2 -12.4 M0.1 -0.2 L0.1 -1.8 0.1 -0.2 1.2 -0.25 0.1 -0.2 0.05 -0.2 -0.05 -0.2 -1.4 -0.25 -0.05 -0.2 0.05 -0.2 0.1 -0.2 M9.65 -3.3 L12.7 -5.95 9.65 -3.3 M-4.15 -0.75 L-5.4 -1.2 -6.65 -1.65 -7.25 -1.95 -7.8 -2.2 -9.65 -3.4 -10.85 -4.3 -12.6 -5.85 -12.7 -5.95 -12.6 -5.85 -10.85 -4.3 -9.65 -3.4 -7.8 -2.2 -7.25 -1.95 -6.65 -1.65 -5.4 -1.2 -4.15 -0.75" fill="#87928c" fill-rule="evenodd" stroke="none"/>
    <path d="M0.2 -5.55 Q0.75 -5.6 1.2 -6.0 L1.25 -6.05 1.7 -7.2 1.7 -10.65 Q1.7 -11.35 1.2 -11.85 L1.2 -11.9 0.2 -12.4" fill="none" stroke="#87928c" stroke-linecap="butt" stroke-linejoin="miter-clip" stroke-miterlimit="3.0" stroke-width="3.0"/>
    <path d="M3.4 -17.4 Q10.3 -16.05 12.7 -5.95 M0.1 -15.3 L0.1 -17.4 M0.1 -1.8 L0.1 -0.2" fill="none" stroke="#87928c" stroke-linecap="butt" stroke-linejoin="miter-clip" stroke-miterlimit="3.0" stroke-width="3.0"/>
    <path d="M12.7 -5.95 L12.85 -4.85 13.15 -0.15 Q13.15 7.15 9.3 12.3 5.45 17.45 0.0 17.45 -5.4 17.45 -9.25 12.3 -13.1 7.15 -13.1 -0.15 L-12.8 -4.8 -12.7 -5.95 Q-10.25 -16.05 -3.35 -17.4 L0.1 -17.4" fill="none" stroke="#87928c" stroke-linecap="round" stroke-linejoin="miter-clip" stroke-miterlimit="3.0" stroke-width="3.0"/>
    <path d="M0.1 -17.4 L3.4 -17.4 M0.1 -0.2 L1.2 -0.25 M0.1 -0.2 L0.05 -0.2 -0.05 -0.2 -1.4 -0.25 M12.7 -5.95 L9.65 -3.3 M-12.7 -5.95 L-12.6 -5.85 -10.85 -4.3 -9.65 -3.4 -7.8 -2.2 -7.25 -1.95 -6.65 -1.65 -5.4 -1.2 -4.15 -0.75" fill="none" stroke="#87928c" stroke-linecap="round" stroke-linejoin="miter-clip" stroke-miterlimit="3.0" stroke-width="3.0"/>
    <path d="M1.25 -6.0 L1.3 -6.05 Q1.75 -6.55 1.75 -7.2 L1.75 -10.65 Q1.75 -11.35 1.25 -11.8 0.75 -12.3 0.1 -12.35 L0.05 -12.35 Q-0.65 -12.35 -1.2 -11.8 L-1.65 -10.65 -1.65 -7.2 Q-1.65 -6.55 -1.25 -6.05 L-1.2 -6.0 Q-0.65 -5.5 0.05 -5.5 L0.1 -5.5 Q0.75 -5.55 1.25 -6.0 M12.85 -4.85 L13.15 -0.1 Q13.15 7.15 9.3 12.3 5.45 17.45 0.05 17.45 -5.4 17.45 -9.25 12.3 -13.1 7.15 -13.1 -0.1 L-12.8 -4.8 -12.65 -5.95 Q-10.2 -16.05 -3.35 -17.35 L3.4 -17.35 Q10.3 -16.05 12.7 -5.95 L12.85 -4.85" fill="#ffffff" fill-rule="evenodd" stroke="none"/>
  </g>
</svg>
