<?xml version="1.0" encoding="UTF-8" standalone="no"?>
<svg xmlns:xlink="http://www.w3.org/1999/xlink" height="26.9px" width="16.85px" xmlns="http://www.w3.org/2000/svg">
  <g transform="matrix(1.0, 0.0, 0.0, 1.0, 3.25, -107.35)">
    <path d="M4.4 128.0 L4.4 116.3 2.75 116.3 2.75 113.35 7.6 113.35 7.6 126.85 4.4 128.0" fill="#ffffff" fill-rule="evenodd" stroke="none"/>
    <path d="M4.4 128.0 L4.4 116.3 2.75 116.3 2.75 113.35 7.6 113.35 7.6 126.85 4.4 128.0 Z" fill="none" stroke="#ffffff" stroke-linecap="square" stroke-linejoin="miter-clip" stroke-miterlimit="3.0" stroke-width="9.0"/>
    <path d="M7.6 126.85 L4.4 128.0 4.4 116.3 2.75 116.3 2.75 113.35 7.6 113.35 7.6 126.85" fill="url(#gradient0)" fill-rule="evenodd" stroke="none"/>
    <path d="M7.6 126.85 L4.4 128.0 4.4 116.3 2.75 116.3 2.75 113.35 7.6 113.35 7.6 126.85 Z" fill="none" stroke="#2d0000" stroke-linecap="square" stroke-linejoin="miter-clip" stroke-miterlimit="3.0" stroke-width="6.0"/>
    <path d="M7.6 113.35 L7.6 126.85 4.4 128.0 4.4 116.3 2.75 116.3 2.75 113.35 7.6 113.35" fill="url(#gradient1)" fill-rule="evenodd" stroke="none"/>
    <path d="M7.6 113.35 L7.6 126.85 4.4 128.0 4.4 116.3 2.75 116.3 2.75 113.35 7.6 113.35 Z" fill="none" stroke="#de801e" stroke-linecap="square" stroke-linejoin="miter-clip" stroke-miterlimit="3.0" stroke-width="3.0"/>
    <path d="M2.75 113.35 L7.6 113.35 7.6 126.85 4.4 128.0 4.4 116.3 2.75 116.3 2.75 113.35" fill="url(#gradient2)" fill-rule="evenodd" stroke="none"/>
  </g>
  <defs>
    <linearGradient gradientTransform="matrix(0.0, -0.0082, 0.0089, 0.0, 5.1, 120.7)" gradientUnits="userSpaceOnUse" id="gradient0" spreadMethod="pad" x1="-819.2" x2="819.2">
      <stop offset="0.0" stop-color="#ff9900"/>
      <stop offset="1.0" stop-color="#ffff00"/>
    </linearGradient>
    <linearGradient gradientTransform="matrix(0.0, -0.0082, 0.0089, 0.0, 5.1, 120.7)" gradientUnits="userSpaceOnUse" id="gradient1" spreadMethod="pad" x1="-819.2" x2="819.2">
      <stop offset="0.0" stop-color="#ff9900"/>
      <stop offset="1.0" stop-color="#ffff00"/>
    </linearGradient>
    <linearGradient gradientTransform="matrix(0.0, -0.0082, 0.0089, 0.0, 5.1, 120.7)" gradientUnits="userSpaceOnUse" id="gradient2" spreadMethod="pad" x1="-819.2" x2="819.2">
      <stop offset="0.0" stop-color="#ff9900"/>
      <stop offset="1.0" stop-color="#ffff00"/>
    </linearGradient>
  </defs>
</svg>
