<?xml version="1.0" encoding="UTF-8" standalone="no"?>
<svg xmlns:xlink="http://www.w3.org/1999/xlink" height="18.0px" width="660.0px" xmlns="http://www.w3.org/2000/svg">
  <g transform="matrix(1.0, 0.0, 0.0, 1.0, 660.0, 0.0)">
    <path d="M-560.0 0.0 L0.0 0.0 0.0 5.85 -560.0 5.85 -560.0 0.0" fill="url(#gradient0)" fill-rule="evenodd" stroke="none"/>
    <path d="M0.0 5.85 L0.0 18.0 -650.05 18.0 -656.8 5.85 -606.2 5.85 -565.8 5.85 -560.0 5.85 0.0 5.85" fill="#77e20c" fill-rule="evenodd" stroke="none"/>
    <path d="M-565.8 0.0 L-560.0 0.0 -560.0 5.85 -565.8 5.85 -565.8 0.0" fill="url(#gradient1)" fill-rule="evenodd" stroke="none"/>
    <path d="M-606.2 0.0 L-565.8 0.0 -565.8 5.85 -606.2 5.85 -606.2 0.0" fill="url(#gradient2)" fill-rule="evenodd" stroke="none"/>
    <path d="M-656.8 5.85 L-660.0 0.0 -606.2 0.0 -606.2 5.85 -656.8 5.85" fill="url(#gradient3)" fill-rule="evenodd" stroke="none"/>
  </g>
  <defs>
    <linearGradient gradientTransform="matrix(0.0, -0.0026, -0.512, 0.0, -419.5, 3.25)" gradientUnits="userSpaceOnUse" id="gradient0" spreadMethod="pad" x1="-819.2" x2="819.2">
      <stop offset="0.0" stop-color="#77e20c"/>
      <stop offset="1.0" stop-color="#c2fe9a"/>
    </linearGradient>
    <linearGradient gradientTransform="matrix(0.0, -0.0026, -0.1449, 0.0, -520.25, 3.25)" gradientUnits="userSpaceOnUse" id="gradient1" spreadMethod="pad" x1="-819.2" x2="819.2">
      <stop offset="0.0" stop-color="#77e20c"/>
      <stop offset="1.0" stop-color="#c2fe9a"/>
    </linearGradient>
    <linearGradient gradientTransform="matrix(0.0, -0.0026, -0.3027, 0.0, -470.65, 3.25)" gradientUnits="userSpaceOnUse" id="gradient2" spreadMethod="pad" x1="-819.2" x2="819.2">
      <stop offset="0.0" stop-color="#77e20c"/>
      <stop offset="1.0" stop-color="#c2fe9a"/>
    </linearGradient>
    <linearGradient gradientTransform="matrix(0.0, -0.0026, -0.1449, 0.0, -541.3, 3.25)" gradientUnits="userSpaceOnUse" id="gradient3" spreadMethod="pad" x1="-819.2" x2="819.2">
      <stop offset="0.0" stop-color="#77e20c"/>
      <stop offset="1.0" stop-color="#c2fe9a"/>
    </linearGradient>
  </defs>
</svg>
