<?xml version="1.0" encoding="UTF-8" standalone="no"?>
<svg xmlns:xlink="http://www.w3.org/1999/xlink" height="26.65px" width="22.1px" xmlns="http://www.w3.org/2000/svg">
  <g transform="matrix(1.0, 0.0, 0.0, 1.0, 5.7, -107.35)">
    <path d="M8.85 114.05 L9.2 114.5 9.55 115.15 9.8 115.7 9.9 116.4 10.0 117.05 10.0 118.05 9.9 119.65 9.75 120.45 9.45 121.1 9.1 121.65 8.45 122.1 7.85 122.35 6.2 122.55 4.7 122.8 4.05 123.0 3.7 123.25 3.5 123.7 3.5 124.6 3.6 124.95 3.7 125.05 3.9 125.05 4.35 125.05 10.0 125.05 8.85 128.0 0.3 128.0 0.3 124.5 0.35 123.15 0.55 122.25 Q0.65 121.8 0.9 121.45 L1.45 120.8 2.0 120.35 2.9 120.1 4.05 119.9 4.95 119.85 5.25 119.75 6.15 119.55 6.5 119.3 6.65 118.65 6.65 117.85 Q6.75 116.75 6.5 116.6 L6.15 116.3 5.4 116.3 4.5 116.3 3.9 116.4 3.5 116.7 3.35 117.6 3.35 118.55 3.35 118.85 0.3 118.85 0.3 118.05 0.3 116.05 Q0.35 115.4 0.65 114.9 L1.35 114.0 2.0 113.7 2.8 113.45 3.6 113.35 6.6 113.35 7.4 113.55 8.2 113.7 8.85 114.05" fill="url(#gradient0)" fill-rule="evenodd" stroke="none"/>
    <path d="M8.85 114.05 L9.2 114.5 9.55 115.15 9.8 115.7 9.9 116.4 10.0 117.05 10.0 118.05 9.9 119.65 9.75 120.45 9.45 121.1 9.1 121.65 8.45 122.1 7.85 122.35 6.2 122.55 4.7 122.8 4.05 123.0 3.7 123.25 3.5 123.7 3.5 124.6 3.6 124.95 3.7 125.05 3.9 125.05 4.35 125.05 10.0 125.05 8.85 128.0 0.3 128.0 0.3 124.5 0.35 123.15 0.55 122.25 Q0.65 121.8 0.9 121.45 L1.45 120.8 2.0 120.35 2.9 120.1 4.05 119.9 4.95 119.85 5.25 119.75 6.15 119.55 6.5 119.3 6.65 118.65 6.65 117.85 Q6.75 116.75 6.5 116.6 L6.15 116.3 5.4 116.3 4.5 116.3 3.9 116.4 3.5 116.7 3.35 117.6 3.35 118.55 3.35 118.85 0.3 118.85 0.3 118.05 0.3 116.05 Q0.35 115.4 0.65 114.9 L1.35 114.0 2.0 113.7 2.8 113.45 3.6 113.35 6.6 113.35 7.4 113.55 8.2 113.7 8.85 114.05 Z" fill="none" stroke="#ffffff" stroke-linecap="square" stroke-linejoin="miter-clip" stroke-miterlimit="3.0" stroke-width="9.0"/>
    <path d="M8.85 114.05 L9.2 114.5 9.55 115.15 9.8 115.7 9.9 116.4 10.0 117.05 10.0 118.05 9.9 119.65 9.75 120.45 9.45 121.1 9.1 121.65 8.45 122.1 7.85 122.35 6.2 122.55 4.7 122.8 4.05 123.0 3.7 123.25 3.5 123.7 3.5 124.6 3.6 124.95 3.7 125.05 3.9 125.05 4.35 125.05 10.0 125.05 8.85 128.0 0.3 128.0 0.3 124.5 0.35 123.15 0.55 122.25 Q0.65 121.8 0.9 121.45 L1.45 120.8 2.0 120.35 2.9 120.1 4.05 119.9 4.95 119.85 5.25 119.75 6.15 119.55 6.5 119.3 6.65 118.65 6.65 117.85 Q6.75 116.75 6.5 116.6 L6.15 116.3 5.4 116.3 4.5 116.3 3.9 116.4 3.5 116.7 3.35 117.6 3.35 118.55 3.35 118.85 0.3 118.85 0.3 118.05 0.3 116.05 Q0.35 115.4 0.65 114.9 L1.35 114.0 2.0 113.7 2.8 113.45 3.6 113.35 6.6 113.35 7.4 113.55 8.2 113.7 8.85 114.05" fill="url(#gradient1)" fill-rule="evenodd" stroke="none"/>
    <path d="M8.85 114.05 L9.2 114.5 9.55 115.15 9.8 115.7 9.9 116.4 10.0 117.05 10.0 118.05 9.9 119.65 9.75 120.45 9.45 121.1 9.1 121.65 8.45 122.1 7.85 122.35 6.2 122.55 4.7 122.8 4.05 123.0 3.7 123.25 3.5 123.7 3.5 124.6 3.6 124.95 3.7 125.05 3.9 125.05 4.35 125.05 10.0 125.05 8.85 128.0 0.3 128.0 0.3 124.5 0.35 123.15 0.55 122.25 Q0.65 121.8 0.9 121.45 L1.45 120.8 2.0 120.35 2.9 120.1 4.05 119.9 4.95 119.85 5.25 119.75 6.15 119.55 6.5 119.3 6.65 118.65 6.65 117.85 Q6.75 116.75 6.5 116.6 L6.15 116.3 5.4 116.3 4.5 116.3 3.9 116.4 3.5 116.7 3.35 117.6 3.35 118.55 3.35 118.85 0.3 118.85 0.3 118.05 0.3 116.05 Q0.35 115.4 0.65 114.9 L1.35 114.0 2.0 113.7 2.8 113.45 3.6 113.35 6.6 113.35 7.4 113.55 8.2 113.7 8.85 114.05 Z" fill="none" stroke="#2d0000" stroke-linecap="square" stroke-linejoin="miter-clip" stroke-miterlimit="3.0" stroke-width="6.0"/>
    <path d="M8.85 114.05 L9.2 114.5 9.55 115.15 9.8 115.7 9.9 116.4 10.0 117.05 10.0 118.05 9.9 119.65 9.75 120.45 9.45 121.1 9.1 121.65 8.45 122.1 7.85 122.35 6.2 122.55 4.7 122.8 4.05 123.0 3.7 123.25 3.5 123.7 3.5 124.6 3.6 124.95 3.7 125.05 3.9 125.05 4.35 125.05 10.0 125.05 8.85 128.0 0.3 128.0 0.3 124.5 0.35 123.15 0.55 122.25 Q0.65 121.8 0.9 121.45 L1.45 120.8 2.0 120.35 2.9 120.1 4.05 119.9 4.95 119.85 5.25 119.75 6.15 119.55 6.5 119.3 6.65 118.65 6.65 117.85 Q6.75 116.75 6.5 116.6 L6.15 116.3 5.4 116.3 4.5 116.3 3.9 116.4 3.5 116.7 3.35 117.6 3.35 118.55 3.35 118.85 0.3 118.85 0.3 118.05 0.3 116.05 Q0.35 115.4 0.65 114.9 L1.35 114.0 2.0 113.7 2.8 113.45 3.6 113.35 6.6 113.35 7.4 113.55 8.2 113.7 8.85 114.05" fill="url(#gradient2)" fill-rule="evenodd" stroke="none"/>
    <path d="M8.85 114.05 L9.2 114.5 9.55 115.15 9.8 115.7 9.9 116.4 10.0 117.05 10.0 118.05 9.9 119.65 9.75 120.45 9.45 121.1 9.1 121.65 8.45 122.1 7.85 122.35 6.2 122.55 4.7 122.8 4.05 123.0 3.7 123.25 3.5 123.7 3.5 124.6 3.6 124.95 3.7 125.05 3.9 125.05 4.35 125.05 10.0 125.05 8.85 128.0 0.3 128.0 0.3 124.5 0.35 123.15 0.55 122.25 Q0.65 121.8 0.9 121.45 L1.45 120.8 2.0 120.35 2.9 120.1 4.05 119.9 4.95 119.85 5.25 119.75 6.15 119.55 6.5 119.3 6.65 118.65 6.65 117.85 Q6.75 116.75 6.5 116.6 L6.15 116.3 5.4 116.3 4.5 116.3 3.9 116.4 3.5 116.7 3.35 117.6 3.35 118.55 3.35 118.85 0.3 118.85 0.3 118.05 0.3 116.05 Q0.35 115.4 0.65 114.9 L1.35 114.0 2.0 113.7 2.8 113.45 3.6 113.35 6.6 113.35 7.4 113.55 8.2 113.7 8.85 114.05 Z" fill="none" stroke="#de801e" stroke-linecap="square" stroke-linejoin="miter-clip" stroke-miterlimit="3.0" stroke-width="3.0"/>
    <path d="M8.85 114.05 L9.2 114.5 9.55 115.15 9.8 115.7 9.9 116.4 10.0 117.05 10.0 118.05 9.9 119.65 9.75 120.45 9.45 121.1 9.1 121.65 8.45 122.1 7.85 122.35 6.2 122.55 4.7 122.8 4.05 123.0 3.7 123.25 3.5 123.7 3.5 124.6 3.6 124.95 3.7 125.05 3.9 125.05 4.35 125.05 10.0 125.05 8.85 128.0 0.3 128.0 0.3 124.5 0.35 123.15 0.55 122.25 Q0.65 121.8 0.9 121.45 L1.45 120.8 2.0 120.35 2.9 120.1 4.05 119.9 4.95 119.85 5.25 119.75 6.15 119.55 6.5 119.3 6.65 118.65 6.65 117.85 Q6.75 116.75 6.5 116.6 L6.15 116.3 5.4 116.3 4.5 116.3 3.9 116.4 3.5 116.7 3.35 117.6 3.35 118.55 3.35 118.85 0.3 118.85 0.3 118.05 0.3 116.05 Q0.35 115.4 0.65 114.9 L1.35 114.0 2.0 113.7 2.8 113.45 3.6 113.35 6.6 113.35 7.4 113.55 8.2 113.7 8.85 114.05" fill="url(#gradient3)" fill-rule="evenodd" stroke="none"/>
  </g>
  <defs>
    <linearGradient gradientTransform="matrix(0.0, -0.01, 0.0089, 0.0, 5.1, 120.7)" gradientUnits="userSpaceOnUse" id="gradient0" spreadMethod="pad" x1="-819.2" x2="819.2">
      <stop offset="0.0" stop-color="#ff9900"/>
      <stop offset="1.0" stop-color="#ffff00"/>
    </linearGradient>
    <linearGradient gradientTransform="matrix(0.0, -0.01, 0.0089, 0.0, 5.1, 120.7)" gradientUnits="userSpaceOnUse" id="gradient1" spreadMethod="pad" x1="-819.2" x2="819.2">
      <stop offset="0.0" stop-color="#ff9900"/>
      <stop offset="1.0" stop-color="#ffff00"/>
    </linearGradient>
    <linearGradient gradientTransform="matrix(0.0, -0.01, 0.0089, 0.0, 5.1, 120.7)" gradientUnits="userSpaceOnUse" id="gradient2" spreadMethod="pad" x1="-819.2" x2="819.2">
      <stop offset="0.0" stop-color="#ff9900"/>
      <stop offset="1.0" stop-color="#ffff00"/>
    </linearGradient>
    <linearGradient gradientTransform="matrix(0.0, -0.01, 0.0089, 0.0, 5.1, 120.7)" gradientUnits="userSpaceOnUse" id="gradient3" spreadMethod="pad" x1="-819.2" x2="819.2">
      <stop offset="0.0" stop-color="#ff9900"/>
      <stop offset="1.0" stop-color="#ffff00"/>
    </linearGradient>
  </defs>
</svg>
