<?xml version="1.0" encoding="UTF-8" standalone="no"?>
<svg xmlns:xlink="http://www.w3.org/1999/xlink" height="36.0px" width="27.45px" xmlns="http://www.w3.org/2000/svg">
  <g transform="matrix(1.0, 0.0, 0.0, 1.0, 13.7, 17.95)">
    <path d="M-11.75 -5.1 L-11.45 -5.05 Q-4.7 -4.0 -1.65 -8.3 L-1.65 -7.2 Q-1.65 -6.55 -1.25 -6.05 L-1.2 -6.0 Q-0.65 -5.5 0.05 -5.5 L0.1 -5.5 0.1 -0.15 0.0 -0.15 -1.85 -0.3 Q-4.3 -0.6 -6.65 -1.65 L-9.65 -3.35 -10.8 -4.25 -11.5 -4.85 -11.75 -5.1" fill="#005782" fill-rule="evenodd" stroke="none"/>
    <path d="M-11.45 -5.05 Q-8.75 -14.75 0.1 -15.0 L0.1 -12.35 0.05 -12.35 Q-0.65 -12.35 -1.2 -11.8 L-1.65 -10.65 -1.65 -8.3 Q-4.7 -4.0 -11.45 -5.05" fill="#006699" fill-rule="evenodd" stroke="none"/>
    <path d="M-11.75 -5.1 L-12.65 -5.95 Q-10.2 -16.05 -3.35 -17.35 L0.1 -17.35 0.1 -15.0 Q-8.75 -14.75 -11.45 -5.05 L-11.75 -5.1" fill="#009fec" fill-rule="evenodd" stroke="none"/>
    <path d="M0.2 -1.8 L0.2 -15.3 Q1.55 -15.2 2.5 -13.3 3.5 -11.35 3.5 -8.55 3.5 -5.75 2.5 -3.75 1.55 -1.9 0.2 -1.8" fill="url(#gradient0)" fill-rule="evenodd" stroke="none"/>
    <path d="M12.85 -4.85 Q11.45 -3.35 9.85 -2.2 L6.8 -0.5 Q4.4 0.55 1.9 0.8 L0.0 0.95 -1.85 0.8 Q-4.4 0.5 -6.8 -0.55 -8.4 -1.3 -9.85 -2.3 L-12.8 -4.8 -12.65 -5.95 Q-11.25 -4.5 -9.65 -3.35 L-6.65 -1.65 Q-4.3 -0.6 -1.85 -0.3 L0.0 -0.15 0.1 -0.15 1.85 -0.3 Q4.3 -0.55 6.65 -1.6 8.25 -2.3 9.65 -3.25 L12.7 -5.95 12.85 -4.85" fill="#ffffff" fill-rule="evenodd" stroke="none"/>
    <path d="M0.1 -17.35 L0.1 -12.35 Q0.75 -12.3 1.25 -11.8 1.75 -11.35 1.75 -10.65 L1.75 -7.2 Q1.75 -6.55 1.3 -6.05 L1.25 -6.0 Q0.75 -5.55 0.1 -5.5 L0.1 -0.15 1.85 -0.3 Q4.3 -0.55 6.65 -1.6 8.25 -2.3 9.65 -3.25 L12.7 -5.95 Q10.3 -16.05 3.4 -17.35 L0.1 -17.35 -3.35 -17.35 Q-10.2 -16.05 -12.65 -5.95 -11.25 -4.5 -9.65 -3.35 L-6.65 -1.65 Q-4.3 -0.6 -1.85 -0.3 L0.0 -0.15 0.1 -0.15 M0.1 -5.5 L0.05 -5.5 Q-0.65 -5.5 -1.2 -6.0 L-1.25 -6.05 Q-1.65 -6.55 -1.65 -7.2 L-1.65 -10.65 -1.2 -11.8 Q-0.65 -12.35 0.05 -12.35 L0.1 -12.35 M-12.65 -5.95 L-12.8 -4.8 -13.1 -0.1 Q-13.1 7.15 -9.25 12.3 -5.4 17.45 0.05 17.45 5.45 17.45 9.3 12.3 13.15 7.15 13.15 -0.1 L12.85 -4.85 12.7 -5.95" fill="none" stroke="#87928c" stroke-linecap="round" stroke-linejoin="miter-clip" stroke-miterlimit="3.0" stroke-width="1.2000000000000002"/>
    <path d="M0.1 -5.5 L0.05 -5.5 Q-0.65 -5.5 -1.2 -6.0 L-1.25 -6.05 Q-1.65 -6.55 -1.65 -7.2 L-1.65 -10.65 -1.2 -11.8 Q-0.65 -12.35 0.05 -12.35 L0.1 -12.35 Q0.75 -12.3 1.25 -11.8 1.75 -11.35 1.75 -10.65 L1.75 -7.2 Q1.75 -6.55 1.3 -6.05 L1.25 -6.0 Q0.75 -5.55 0.1 -5.5" fill="url(#gradient1)" fill-rule="evenodd" stroke="none"/>
  </g>
  <defs>
    <linearGradient gradientTransform="matrix(0.0, 0.0079, -0.0083, 0.0, 0.05, -8.55)" gradientUnits="userSpaceOnUse" id="gradient0" spreadMethod="pad" x1="-819.2" x2="819.2">
      <stop offset="0.0" stop-color="#dee2e3"/>
      <stop offset="0.47843137254901963" stop-color="#ffffff"/>
      <stop offset="1.0" stop-color="#e3e7e8"/>
    </linearGradient>
    <radialGradient cx="0" cy="0" gradientTransform="matrix(0.0022, 0.0, 0.0, 0.0041, 0.05, -8.9)" gradientUnits="userSpaceOnUse" id="gradient1" r="819.2" spreadMethod="pad">
      <stop offset="0.0" stop-color="#ffffff"/>
      <stop offset="0.37254901960784315" stop-color="#cccccc"/>
      <stop offset="1.0" stop-color="#404040"/>
    </radialGradient>
  </defs>
</svg>
