<?xml version="1.0" encoding="UTF-8" standalone="no"?>
<svg xmlns:xlink="http://www.w3.org/1999/xlink" height="26.55px" width="22.0px" xmlns="http://www.w3.org/2000/svg">
  <g transform="matrix(1.0, 0.0, 0.0, 1.0, 5.85, -107.4)">
    <path d="M9.6 114.9 L9.95 115.8 10.05 116.8 10.05 117.95 10.05 118.35 6.9 118.35 6.9 117.95 6.8 117.35 6.55 116.8 Q6.25 116.45 5.9 116.45 L4.55 116.45 Q3.9 116.45 3.65 116.8 L3.3 117.7 3.3 118.5 3.3 118.95 3.4 119.25 3.45 119.3 3.65 119.15 4.2 119.05 4.9 118.95 6.9 118.95 7.8 119.05 8.4 119.25 8.95 119.5 9.3 119.95 9.7 120.6 9.95 121.4 10.15 122.45 10.15 123.9 10.05 124.8 9.95 125.55 9.7 126.25 9.25 126.95 8.8 127.4 8.25 127.8 7.5 127.95 6.6 127.95 4.55 127.95 2.95 127.95 2.1 127.8 1.5 127.4 1.05 127.05 0.75 126.5 0.4 125.7 0.25 124.7 0.15 123.35 0.15 117.55 0.25 116.7 0.4 115.65 0.7 114.9 1.05 114.4 1.65 113.85 Q2.05 113.55 2.5 113.5 L3.55 113.4 6.9 113.4 7.8 113.5 Q8.15 113.55 8.5 113.75 L9.15 114.3 9.6 114.9 M3.75 122.2 L3.4 122.55 3.3 123.55 3.4 124.45 3.85 124.8 4.55 125.0 5.25 125.0 6.15 124.8 6.6 124.45 6.7 123.55 6.7 122.65 6.35 122.2 5.55 122.0 4.65 122.0 3.75 122.2" fill="url(#gradient0)" fill-rule="evenodd" stroke="none"/>
    <path d="M9.6 114.9 L9.95 115.8 10.05 116.8 10.05 117.95 10.05 118.35 6.9 118.35 6.9 117.95 6.8 117.35 6.55 116.8 Q6.25 116.45 5.9 116.45 L4.55 116.45 Q3.9 116.45 3.65 116.8 L3.3 117.7 3.3 118.5 3.3 118.95 3.4 119.25 3.45 119.3 3.65 119.15 4.2 119.05 4.9 118.95 6.9 118.95 7.8 119.05 8.4 119.25 8.95 119.5 9.3 119.95 9.7 120.6 9.95 121.4 10.15 122.45 10.15 123.9 10.05 124.8 9.95 125.55 9.7 126.25 9.25 126.95 8.8 127.4 8.25 127.8 7.5 127.95 6.6 127.95 4.55 127.95 2.95 127.95 2.1 127.8 1.5 127.4 1.05 127.05 0.75 126.5 0.4 125.7 0.25 124.7 0.15 123.35 0.15 117.55 0.25 116.7 0.4 115.65 0.7 114.9 1.05 114.4 1.65 113.85 Q2.05 113.55 2.5 113.5 L3.55 113.4 6.9 113.4 7.8 113.5 Q8.15 113.55 8.5 113.75 L9.15 114.3 9.6 114.9 M3.75 122.2 L3.4 122.55 3.3 123.55 3.4 124.45 3.85 124.8 4.55 125.0 5.25 125.0 6.15 124.8 6.6 124.45 6.7 123.55 6.7 122.65 6.35 122.2 5.55 122.0 4.65 122.0 3.75 122.2 Z" fill="none" stroke="#ffffff" stroke-linecap="square" stroke-linejoin="miter-clip" stroke-miterlimit="3.0" stroke-width="9.0"/>
    <path d="M9.6 114.9 L9.95 115.8 10.05 116.8 10.05 117.95 10.05 118.35 6.9 118.35 6.9 117.95 6.8 117.35 6.55 116.8 Q6.25 116.45 5.9 116.45 L4.55 116.45 Q3.9 116.45 3.65 116.8 L3.3 117.7 3.3 118.5 3.3 118.95 3.4 119.25 3.45 119.3 3.65 119.15 4.2 119.05 4.9 118.95 6.9 118.95 7.8 119.05 8.4 119.25 8.95 119.5 9.3 119.95 9.7 120.6 9.95 121.4 10.15 122.45 10.15 123.9 10.05 124.8 9.95 125.55 9.7 126.25 9.25 126.95 8.8 127.4 8.25 127.8 7.5 127.95 6.6 127.95 4.55 127.95 2.95 127.95 2.1 127.8 1.5 127.4 1.05 127.05 0.75 126.5 0.4 125.7 0.25 124.7 0.15 123.35 0.15 117.55 0.25 116.7 0.4 115.65 0.7 114.9 1.05 114.4 1.65 113.85 Q2.05 113.55 2.5 113.5 L3.55 113.4 6.9 113.4 7.8 113.5 Q8.15 113.55 8.5 113.75 L9.15 114.3 9.6 114.9 M3.4 122.55 L3.3 123.55 3.4 124.45 3.85 124.8 4.55 125.0 5.25 125.0 6.15 124.8 6.6 124.45 6.7 123.55 6.7 122.65 6.35 122.2 5.55 122.0 4.65 122.0 3.75 122.2 3.4 122.55" fill="url(#gradient1)" fill-rule="evenodd" stroke="none"/>
    <path d="M9.6 114.9 L9.95 115.8 10.05 116.8 10.05 117.95 10.05 118.35 6.9 118.35 6.9 117.95 6.8 117.35 6.55 116.8 Q6.25 116.45 5.9 116.45 L4.55 116.45 Q3.9 116.45 3.65 116.8 L3.3 117.7 3.3 118.5 3.3 118.95 3.4 119.25 3.45 119.3 3.65 119.15 4.2 119.05 4.9 118.95 6.9 118.95 7.8 119.05 8.4 119.25 8.95 119.5 9.3 119.95 9.7 120.6 9.95 121.4 10.15 122.45 10.15 123.9 10.05 124.8 9.95 125.55 9.7 126.25 9.25 126.95 8.8 127.4 8.25 127.8 7.5 127.95 6.6 127.95 4.55 127.95 2.95 127.95 2.1 127.8 1.5 127.4 1.05 127.05 0.75 126.5 0.4 125.7 0.25 124.7 0.15 123.35 0.15 117.55 0.25 116.7 0.4 115.65 0.7 114.9 1.05 114.4 1.65 113.85 Q2.05 113.55 2.5 113.5 L3.55 113.4 6.9 113.4 7.8 113.5 Q8.15 113.55 8.5 113.75 L9.15 114.3 9.6 114.9 M3.4 122.55 L3.3 123.55 3.4 124.45 3.85 124.8 4.55 125.0 5.25 125.0 6.15 124.8 6.6 124.45 6.7 123.55 6.7 122.65 6.35 122.2 5.55 122.0 4.65 122.0 3.75 122.2 3.4 122.55 Z" fill="none" stroke="#2d0000" stroke-linecap="square" stroke-linejoin="miter-clip" stroke-miterlimit="3.0" stroke-width="6.0"/>
    <path d="M9.6 114.9 L9.95 115.8 10.05 116.8 10.05 117.95 10.05 118.35 6.9 118.35 6.9 117.95 6.8 117.35 6.55 116.8 Q6.25 116.45 5.9 116.45 L4.55 116.45 Q3.9 116.45 3.65 116.8 L3.3 117.7 3.3 118.5 3.3 118.95 3.4 119.25 3.45 119.3 3.65 119.15 4.2 119.05 4.9 118.95 6.9 118.95 7.8 119.05 8.4 119.25 8.95 119.5 9.3 119.95 9.7 120.6 9.95 121.4 10.15 122.45 10.15 123.9 10.05 124.8 9.95 125.55 9.7 126.25 9.25 126.95 8.8 127.4 8.25 127.8 7.5 127.95 6.6 127.95 4.55 127.95 2.95 127.95 2.1 127.8 1.5 127.4 1.05 127.05 0.75 126.5 0.4 125.7 0.25 124.7 0.15 123.35 0.15 117.55 0.25 116.7 0.4 115.65 0.7 114.9 1.05 114.4 1.65 113.85 Q2.05 113.55 2.5 113.5 L3.55 113.4 6.9 113.4 7.8 113.5 Q8.15 113.55 8.5 113.75 L9.15 114.3 9.6 114.9 M3.4 122.55 L3.3 123.55 3.4 124.45 3.85 124.8 4.55 125.0 5.25 125.0 6.15 124.8 6.6 124.45 6.7 123.55 6.7 122.65 6.35 122.2 5.55 122.0 4.65 122.0 3.75 122.2 3.4 122.55" fill="url(#gradient2)" fill-rule="evenodd" stroke="none"/>
    <path d="M9.6 114.9 L9.95 115.8 10.05 116.8 10.05 117.95 10.05 118.35 6.9 118.35 6.9 117.95 6.8 117.35 6.55 116.8 Q6.25 116.45 5.9 116.45 L4.55 116.45 Q3.9 116.45 3.65 116.8 L3.3 117.7 3.3 118.5 3.3 118.95 3.4 119.25 3.45 119.3 3.65 119.15 4.2 119.05 4.9 118.95 6.9 118.95 7.8 119.05 8.4 119.25 8.95 119.5 9.3 119.95 9.7 120.6 9.95 121.4 10.15 122.45 10.15 123.9 10.05 124.8 9.95 125.55 9.7 126.25 9.25 126.95 8.8 127.4 8.25 127.8 7.5 127.95 6.6 127.95 4.55 127.95 2.95 127.95 2.1 127.8 1.5 127.4 1.05 127.05 0.75 126.5 0.4 125.7 0.25 124.7 0.15 123.35 0.15 117.55 0.25 116.7 0.4 115.65 0.7 114.9 1.05 114.4 1.65 113.85 Q2.05 113.55 2.5 113.5 L3.55 113.4 6.9 113.4 7.8 113.5 Q8.15 113.55 8.5 113.75 L9.15 114.3 9.6 114.9 M3.4 122.55 L3.3 123.55 3.4 124.45 3.85 124.8 4.55 125.0 5.25 125.0 6.15 124.8 6.6 124.45 6.7 123.55 6.7 122.65 6.35 122.2 5.55 122.0 4.65 122.0 3.75 122.2 3.4 122.55 Z" fill="none" stroke="#de801e" stroke-linecap="square" stroke-linejoin="miter-clip" stroke-miterlimit="3.0" stroke-width="3.0"/>
    <path d="M9.6 114.9 L9.95 115.8 10.05 116.8 10.05 117.95 10.05 118.35 6.9 118.35 6.9 117.95 6.8 117.35 6.55 116.8 Q6.25 116.45 5.9 116.45 L4.55 116.45 Q3.9 116.45 3.65 116.8 L3.3 117.7 3.3 118.5 3.3 118.95 3.4 119.25 3.45 119.3 3.65 119.15 4.2 119.05 4.9 118.95 6.9 118.95 7.8 119.05 8.4 119.25 8.95 119.5 9.3 119.95 9.7 120.6 9.95 121.4 10.15 122.45 10.15 123.9 10.05 124.8 9.95 125.55 9.7 126.25 9.25 126.95 8.8 127.4 8.25 127.8 7.5 127.95 6.6 127.95 4.55 127.95 2.95 127.95 2.1 127.8 1.5 127.4 1.05 127.05 0.75 126.5 0.4 125.7 0.25 124.7 0.15 123.35 0.15 117.55 0.25 116.7 0.4 115.65 0.7 114.9 1.05 114.4 1.65 113.85 Q2.05 113.55 2.5 113.5 L3.55 113.4 6.9 113.4 7.8 113.5 Q8.15 113.55 8.5 113.75 L9.15 114.3 9.6 114.9 M3.4 122.55 L3.3 123.55 3.4 124.45 3.85 124.8 4.55 125.0 5.25 125.0 6.15 124.8 6.6 124.45 6.7 123.55 6.7 122.65 6.35 122.2 5.55 122.0 4.65 122.0 3.75 122.2 3.4 122.55" fill="url(#gradient3)" fill-rule="evenodd" stroke="none"/>
  </g>
  <defs>
    <linearGradient gradientTransform="matrix(0.0, -0.0084, 0.0089, 0.0, 5.15, 120.65)" gradientUnits="userSpaceOnUse" id="gradient0" spreadMethod="pad" x1="-819.2" x2="819.2">
      <stop offset="0.0" stop-color="#ff9900"/>
      <stop offset="1.0" stop-color="#ffff00"/>
    </linearGradient>
    <linearGradient gradientTransform="matrix(0.0, -0.0084, 0.0089, 0.0, 5.15, 120.65)" gradientUnits="userSpaceOnUse" id="gradient1" spreadMethod="pad" x1="-819.2" x2="819.2">
      <stop offset="0.0" stop-color="#ff9900"/>
      <stop offset="1.0" stop-color="#ffff00"/>
    </linearGradient>
    <linearGradient gradientTransform="matrix(0.0, -0.0084, 0.0089, 0.0, 5.15, 120.65)" gradientUnits="userSpaceOnUse" id="gradient2" spreadMethod="pad" x1="-819.2" x2="819.2">
      <stop offset="0.0" stop-color="#ff9900"/>
      <stop offset="1.0" stop-color="#ffff00"/>
    </linearGradient>
    <linearGradient gradientTransform="matrix(0.0, -0.0084, 0.0089, 0.0, 5.15, 120.65)" gradientUnits="userSpaceOnUse" id="gradient3" spreadMethod="pad" x1="-819.2" x2="819.2">
      <stop offset="0.0" stop-color="#ff9900"/>
      <stop offset="1.0" stop-color="#ffff00"/>
    </linearGradient>
  </defs>
</svg>
