<?xml version="1.0" encoding="UTF-8" standalone="no"?>
<svg xmlns:xlink="http://www.w3.org/1999/xlink" height="28.55px" width="303.85px" xmlns="http://www.w3.org/2000/svg">
  <g transform="matrix(1.0, 0.0, 0.0, 1.0, -26.55, -16.05)">
    <path d="M324.25 21.0 L329.8 21.0 329.8 24.85 324.25 24.85 324.25 30.35 329.4 30.35 329.4 34.2 324.25 34.2 324.25 39.7 330.4 39.7 330.4 43.55 312.4 43.55 312.4 39.7 319.8 39.7 319.8 34.2 313.35 34.2 313.35 30.35 319.8 30.35 319.8 24.85 316.95 24.85 316.8 26.1 Q316.6 27.7 315.5 27.7 L312.4 27.7 312.4 24.5 311.45 24.5 311.45 43.9 307.6 43.9 307.6 24.5 306.3 24.5 306.3 42.8 302.7 42.8 302.7 17.75 306.3 17.75 306.3 20.9 307.6 20.9 307.6 16.55 311.45 16.55 311.45 20.9 312.75 20.9 312.75 24.5 313.0 24.5 Q313.35 24.5 313.45 23.6 L314.2 17.75 317.9 17.75 317.5 21.0 319.8 21.0 319.8 16.7 324.25 16.7 324.25 21.0 M298.1 24.5 Q297.95 26.45 297.0 27.2 296.1 27.95 294.4 27.95 L289.7 27.95 289.7 28.9 298.25 28.9 298.25 33.35 Q298.25 35.15 296.35 35.15 L289.7 35.15 289.7 36.1 298.85 36.1 298.85 41.75 Q298.85 44.25 295.25 44.25 L293.45 44.25 293.45 42.7 Q293.0 43.2 291.65 43.2 L281.45 43.2 281.45 41.3 283.45 38.75 280.85 38.75 280.85 44.15 277.05 44.15 277.05 36.1 285.75 36.1 285.75 35.15 277.35 35.15 277.35 28.9 285.75 28.9 285.75 27.95 277.05 27.95 277.05 25.3 292.85 25.3 Q293.7 25.3 294.05 24.5 L298.1 24.5 M299.2 20.9 Q299.2 24.0 296.1 24.0 L276.4 24.0 276.4 39.95 Q276.4 42.15 275.35 43.2 274.4 44.4 271.75 44.4 L271.75 41.15 Q272.7 40.65 272.7 39.7 L272.7 16.55 299.2 16.55 299.2 20.9 M295.0 20.8 L295.0 19.6 276.4 19.6 276.4 21.1 294.25 21.1 Q295.0 21.1 295.0 20.8 M294.4 31.3 L289.7 31.3 289.7 32.75 294.05 32.75 294.4 32.55 294.4 31.3 M285.75 31.3 L281.2 31.3 281.2 32.75 285.75 32.75 285.75 31.3 M285.55 40.8 L290.8 40.8 291.05 40.55 291.05 39.45 293.7 39.45 293.7 41.6 294.25 41.6 Q295.0 41.6 295.0 41.15 L295.0 38.75 287.35 38.75 285.55 40.8 M268.5 16.95 L268.5 20.8 Q268.5 22.7 265.95 22.7 L260.6 22.7 260.6 25.55 Q260.6 26.15 261.3 26.15 L268.6 26.15 268.6 29.65 258.9 29.65 Q256.5 29.65 256.5 27.6 L256.5 16.7 260.6 16.7 260.6 19.3 263.7 19.3 Q264.3 19.3 264.3 18.7 L264.3 16.95 268.5 16.95 M246.45 21.35 L249.9 21.35 Q250.85 21.35 250.85 19.9 L250.85 18.85 255.2 18.85 255.2 21.35 Q255.2 22.85 254.4 23.6 253.5 24.75 251.5 24.75 L241.4 24.75 241.4 21.7 Q241.4 21.2 241.75 20.75 L244.5 16.45 249.55 16.45 246.45 21.35 M260.6 33.95 L263.7 33.95 Q264.3 33.95 264.3 33.35 L264.3 31.65 268.5 31.65 268.5 35.4 Q268.5 37.45 265.95 37.45 L260.6 37.45 260.6 39.95 Q260.6 40.55 261.3 40.55 L268.75 40.55 268.75 44.05 258.9 44.05 Q256.5 44.05 256.5 42.0 L256.5 31.3 260.6 31.3 260.6 33.95 M250.85 31.1 L250.85 29.15 245.6 29.15 245.6 31.1 250.85 31.1 M250.85 36.25 L250.85 34.45 245.6 34.45 245.6 36.25 250.85 36.25 M245.6 39.6 L245.6 44.25 241.55 44.25 241.55 25.8 254.95 25.8 254.95 42.2 Q254.95 44.25 252.55 44.25 L248.2 44.25 248.2 40.8 250.3 40.8 Q250.85 40.8 250.85 40.2 L250.85 39.6 245.6 39.6 M231.8 19.6 L237.45 19.6 237.45 23.15 231.8 23.15 231.8 26.15 237.45 26.15 237.45 30.0 231.95 37.65 233.9 39.85 234.0 40.0 Q234.5 40.55 235.15 40.55 L237.7 40.55 237.7 44.05 232.75 44.05 Q231.7 44.05 230.9 43.1 L229.4 41.2 228.25 42.8 Q227.4 44.05 225.55 44.05 L220.9 44.05 220.9 40.55 223.65 40.55 Q224.8 40.55 225.4 39.8 L226.8 37.95 221.95 31.9 226.9 31.9 229.25 34.6 232.85 29.75 222.35 29.75 222.35 26.15 227.7 26.15 227.7 23.15 222.55 23.15 222.55 19.6 227.7 19.6 227.7 16.55 231.8 16.55 231.8 19.6 M211.2 18.95 L214.75 18.95 214.75 16.8 218.7 16.8 218.7 18.95 221.35 18.95 221.35 22.7 218.7 22.7 218.7 25.95 220.9 25.95 220.9 29.65 218.7 29.65 218.7 40.55 Q218.7 42.1 217.75 43.1 217.0 44.05 215.5 44.05 L211.65 44.05 211.65 40.55 214.05 40.55 Q214.75 40.55 214.75 38.9 L214.75 36.4 214.5 37.1 Q213.9 38.4 213.1 38.4 L210.7 38.4 210.7 34.95 211.2 34.95 Q212.05 34.95 212.45 33.8 L214.75 28.1 214.75 22.7 211.2 22.7 211.2 18.95" fill="#ff0000" fill-rule="evenodd" stroke="none"/>
    <path d="M203.4 43.9 L195.6 43.9 195.6 40.2 202.0 40.2 Q202.95 40.2 202.95 39.35 L202.95 22.7 197.35 22.7 197.2 23.25 Q196.7 25.55 194.55 25.55 L192.4 25.55 192.4 41.3 Q192.4 44.05 189.4 44.05 L180.2 44.05 180.2 18.6 183.8 18.6 184.35 16.7 188.95 16.7 188.4 18.6 192.4 18.6 192.4 22.1 193.2 22.1 Q193.55 22.1 193.8 21.15 L194.55 16.55 198.65 16.55 198.15 18.7 207.15 18.7 207.15 40.65 Q207.15 43.9 203.4 43.9 M184.25 22.35 L184.25 29.15 188.3 29.15 188.3 22.35 184.25 22.35 M171.3 20.4 L149.95 20.4 149.95 16.8 175.6 16.8 175.6 27.15 Q175.6 30.25 171.75 30.25 L149.95 30.25 149.95 26.65 170.35 26.65 Q171.3 26.65 171.3 25.8 L171.3 25.05 150.45 25.05 150.45 21.7 171.3 21.7 171.3 20.4 M174.65 35.95 Q174.15 37.55 172.15 37.55 L167.7 37.55 167.7 33.95 170.7 33.95 171.1 33.5 171.65 31.3 175.95 31.3 174.65 35.95 M165.05 36.5 L169.25 39.9 171.2 40.3 176.55 40.3 176.55 43.9 169.75 43.9 Q166.9 43.9 165.65 42.8 L162.5 39.85 159.1 42.8 Q158.0 43.9 155.7 43.9 L149.25 43.9 149.25 40.3 154.15 40.3 156.0 39.9 160.1 36.45 160.4 36.0 160.4 31.8 164.85 31.8 164.85 36.0 165.05 36.5 M202.2 34.3 L202.2 38.15 198.15 38.15 Q196.25 38.15 195.75 36.0 L193.6 26.5 197.8 26.5 199.25 33.25 Q199.45 34.3 200.2 34.3 L202.2 34.3 M184.25 33.1 L184.25 40.3 187.35 40.3 Q188.3 40.3 188.3 39.45 L188.3 33.1 184.25 33.1 M145.85 20.65 L140.25 20.65 140.25 21.6 145.65 21.6 145.65 24.75 140.25 24.75 140.25 25.8 146.45 25.8 146.45 29.15 130.5 29.15 130.5 28.45 126.45 28.45 126.45 29.15 129.8 29.15 130.15 39.7 Q130.3 40.55 131.0 40.55 L131.0 43.55 129.3 43.55 Q127.8 43.55 127.4 41.85 L126.45 29.15 126.45 44.6 122.85 44.6 122.85 29.15 122.05 40.4 Q121.8 43.55 120.55 43.55 L118.05 43.55 118.05 40.55 118.55 40.55 Q118.85 40.55 119.0 38.95 L119.5 29.15 122.85 29.15 122.85 28.45 118.05 28.45 118.05 24.85 122.85 24.85 122.85 16.2 126.45 16.2 126.45 24.85 130.9 24.85 130.9 25.8 136.25 25.8 136.25 24.75 131.1 24.75 131.1 21.6 136.25 21.6 136.25 20.65 130.9 20.65 130.9 18.5 129.95 22.2 Q129.55 23.9 128.6 23.9 L126.8 23.9 126.8 20.5 127.4 20.5 127.65 19.75 127.85 17.05 131.25 17.05 131.1 17.5 136.25 17.5 136.25 16.05 140.25 16.05 140.25 17.5 145.85 17.5 145.85 20.65 M122.5 23.9 L120.3 23.9 Q119.65 23.9 119.2 22.2 L118.05 17.05 121.4 17.05 121.7 19.75 Q121.75 20.5 122.0 20.5 L122.5 20.5 122.5 23.9 M135.1 34.3 L142.25 34.3 142.25 33.25 135.1 33.25 135.1 34.3 M135.1 44.6 L131.25 44.6 131.25 30.1 146.1 30.1 146.1 42.0 Q146.1 44.6 142.5 44.6 L138.2 44.6 138.2 41.85 141.55 41.85 Q142.25 41.85 142.25 41.4 L142.25 40.8 135.1 40.8 135.1 44.6 M135.1 38.05 L142.25 38.05 142.25 37.05 135.1 37.05 135.1 38.05 M155.45 33.95 L157.5 33.95 157.5 37.45 153.4 37.45 Q151.45 37.45 150.9 35.5 L149.7 31.3 154.0 31.3 154.5 33.0 Q154.7 33.95 155.45 33.95 M108.55 19.7 L94.45 19.7 94.45 21.1 108.55 21.1 108.55 19.7 M108.55 24.25 L94.45 24.25 94.45 25.7 107.6 25.7 Q108.55 25.7 108.55 24.6 L108.55 24.25 M88.15 30.35 L114.55 30.35 114.55 33.95 102.95 33.95 102.95 35.65 113.6 35.65 113.6 38.9 102.95 38.9 102.95 40.55 115.3 40.55 115.3 43.9 95.65 43.9 Q94.95 43.9 93.7 42.95 91.3 44.4 87.85 44.4 L87.85 41.05 Q90.5 40.8 90.5 40.1 L90.5 35.15 94.55 35.15 94.55 38.15 Q95.1 40.55 97.05 40.55 L98.6 40.55 98.6 33.95 88.15 33.95 88.15 30.35 M84.45 43.9 L57.15 43.9 57.15 40.4 68.5 40.4 68.5 38.4 57.6 38.4 57.6 34.95 68.5 34.95 68.5 32.75 57.85 32.75 57.85 16.8 83.75 16.8 83.75 29.65 Q83.75 32.75 79.9 32.75 L72.8 32.75 72.8 34.95 84.0 34.95 84.0 38.4 72.8 38.4 72.8 40.4 84.45 40.4 84.45 43.9 M109.9 28.9 L89.85 28.9 89.85 16.45 113.15 16.45 113.15 26.15 Q113.15 28.9 109.9 28.9 M79.4 20.3 L72.8 20.3 72.8 23.3 79.4 23.3 79.4 20.3 M68.5 20.3 L62.05 20.3 62.05 23.3 68.5 23.3 68.5 20.3 M46.35 17.5 L46.35 19.9 53.9 19.9 53.9 23.6 33.85 23.6 33.85 19.9 41.4 19.9 41.4 17.5 46.35 17.5 M53.05 35.5 L53.05 39.1 48.25 39.1 Q46.9 39.1 45.95 38.05 L43.9 35.65 41.95 37.85 Q41.0 38.95 39.85 38.95 L34.95 38.95 34.95 35.4 37.95 35.4 Q38.65 35.4 39.25 34.5 L41.2 32.45 34.8 25.05 40.1 25.05 44.1 29.3 48.0 25.05 53.15 25.05 46.9 32.25 49.2 34.7 Q49.9 35.5 50.8 35.5 L53.05 35.5 M54.5 44.5 L36.4 44.5 Q34.95 44.5 32.4 43.4 30.1 44.5 26.7 44.5 L26.7 40.65 Q29.2 40.4 29.2 39.6 L29.2 29.65 26.55 29.65 26.55 25.55 33.15 25.55 33.15 37.9 Q34.25 40.65 38.05 40.65 L54.5 40.65 54.5 44.5 M79.4 26.65 L72.8 26.65 72.8 29.25 78.45 29.25 Q79.4 29.25 79.4 28.55 L79.4 26.65 M68.5 29.25 L68.5 26.65 62.05 26.65 62.05 29.25 68.5 29.25 M33.05 22.35 L28.45 22.35 28.45 17.4 33.05 17.4 33.05 22.35" fill="#ffff00" fill-rule="evenodd" stroke="none"/>
  </g>
</svg>
