<?xml version="1.0" encoding="UTF-8" standalone="no"?>
<svg xmlns:xlink="http://www.w3.org/1999/xlink" height="13.4px" width="28.9px" xmlns="http://www.w3.org/2000/svg">
  <g transform="matrix(1.0, 0.0, 0.0, 1.0, -6.5, -14.45)">
    <path d="M27.6 17.25 L27.95 17.25 28.2 17.05 28.65 16.2 30.15 16.2 29.95 16.55 33.65 16.55 31.45 22.95 Q31.15 24.05 29.9 24.05 L29.3 24.05 29.65 22.85 29.8 22.85 30.2 22.55 31.85 17.8 29.15 17.8 29.15 17.9 Q28.75 18.4 28.05 18.4 L27.2 18.4 27.6 17.25 M22.35 24.65 Q22.25 24.85 22.45 24.85 L22.7 24.85 24.05 20.9 22.6 20.9 24.2 16.25 27.75 16.25 26.45 19.85 Q26.15 20.8 25.4 20.9 L25.0 21.95 25.7 21.95 25.3 23.25 24.6 23.25 24.05 24.85 24.9 24.85 24.45 26.1 21.3 26.1 Q20.6 26.1 20.8 25.4 L22.1 21.6 23.35 21.6 22.35 24.65 M25.0 19.7 L25.4 19.3 26.0 17.45 25.1 17.45 24.3 19.7 25.0 19.7 M28.35 19.85 L27.4 22.6 28.0 22.6 28.3 22.35 29.15 19.85 28.35 19.85 M26.75 24.65 L26.9 24.75 30.95 24.75 30.5 26.1 25.8 26.1 Q24.8 26.1 25.1 25.15 L27.35 18.7 30.95 18.7 29.45 23.0 Q29.15 23.85 28.25 23.85 L26.95 23.85 26.75 24.65 M19.1 17.85 L19.8 16.6 21.15 16.6 20.0 18.6 Q19.55 19.25 18.8 19.25 L18.25 19.25 18.05 19.7 19.25 19.7 19.15 21.05 19.25 21.3 19.55 21.3 19.1 22.6 18.25 22.6 Q17.65 22.6 17.75 21.9 L17.85 20.4 17.0 22.85 Q16.9 23.15 17.25 23.15 L19.0 23.15 18.55 24.4 16.5 24.4 Q15.15 24.4 15.6 23.15 L17.9 16.25 19.25 16.25 18.65 18.05 18.8 18.05 19.1 17.85 M15.9 16.25 L17.3 16.25 14.9 23.25 14.3 24.1 13.4 24.4 11.2 24.4 11.6 23.15 13.35 23.15 13.8 22.55 14.65 20.0 13.6 21.9 Q13.2 22.6 12.5 22.6 L11.7 22.6 12.1 21.45 12.45 21.45 12.7 21.15 13.45 19.75 14.7 19.75 14.9 19.25 14.35 19.25 Q13.8 19.25 13.8 18.6 L13.9 16.6 15.25 16.6 15.2 17.85 Q15.15 18.05 15.25 18.05 L15.9 16.25 M13.5 16.2 L12.85 18.25 11.3 18.25 12.0 16.2 13.5 16.2 M10.2 20.3 L10.65 19.0 12.5 19.0 10.7 24.25 Q10.5 24.85 11.5 24.85 L18.55 24.85 18.15 26.1 10.9 26.1 Q10.2 26.1 9.9 25.65 9.55 26.1 9.0 26.1 L8.25 26.1 8.65 24.85 8.85 24.85 Q9.15 24.85 9.25 24.55 L10.7 20.3 10.2 20.3" fill="url(#gradient0)" fill-rule="evenodd" stroke="none"/>
    <path d="M27.6 17.25 L27.95 17.25 28.2 17.05 28.65 16.2 30.15 16.2 29.95 16.55 33.65 16.55 31.45 22.95 Q31.15 24.05 29.9 24.05 L29.3 24.05 29.65 22.85 29.8 22.85 30.2 22.55 31.85 17.8 29.15 17.8 29.15 17.9 Q28.75 18.4 28.05 18.4 L27.2 18.4 27.6 17.25 M22.35 24.65 Q22.25 24.85 22.45 24.85 L22.7 24.85 24.05 20.9 22.6 20.9 24.2 16.25 27.75 16.25 26.45 19.85 Q26.15 20.8 25.4 20.9 L25.0 21.95 25.7 21.95 25.3 23.25 24.6 23.25 24.05 24.85 24.9 24.85 24.45 26.1 21.3 26.1 Q20.6 26.1 20.8 25.4 L22.1 21.6 23.35 21.6 22.35 24.65 M25.0 19.7 L25.4 19.3 26.0 17.45 25.1 17.45 24.3 19.7 25.0 19.7 M28.35 19.85 L27.4 22.6 28.0 22.6 28.3 22.35 29.15 19.85 28.35 19.85 M26.75 24.65 L26.9 24.75 30.95 24.75 30.5 26.1 25.8 26.1 Q24.8 26.1 25.1 25.15 L27.35 18.7 30.95 18.7 29.45 23.0 Q29.15 23.85 28.25 23.85 L26.95 23.85 26.75 24.65 M19.1 17.85 L19.8 16.6 21.15 16.6 20.0 18.6 Q19.55 19.25 18.8 19.25 L18.25 19.25 18.05 19.7 19.25 19.7 19.15 21.05 19.25 21.3 19.55 21.3 19.1 22.6 18.25 22.6 Q17.65 22.6 17.75 21.9 L17.85 20.4 17.0 22.85 Q16.9 23.15 17.25 23.15 L19.0 23.15 18.55 24.4 16.5 24.4 Q15.15 24.4 15.6 23.15 L17.9 16.25 19.25 16.25 18.65 18.05 18.8 18.05 19.1 17.85 M15.9 16.25 L17.3 16.25 14.9 23.25 14.3 24.1 13.4 24.4 11.2 24.4 11.6 23.15 13.35 23.15 13.8 22.55 14.65 20.0 13.6 21.9 Q13.2 22.6 12.5 22.6 L11.7 22.6 12.1 21.45 12.45 21.45 12.7 21.15 13.45 19.75 14.7 19.75 14.9 19.25 14.35 19.25 Q13.8 19.25 13.8 18.6 L13.9 16.6 15.25 16.6 15.2 17.85 Q15.15 18.05 15.25 18.05 L15.9 16.25 M13.5 16.2 L12.85 18.25 11.3 18.25 12.0 16.2 13.5 16.2 M10.2 20.3 L10.65 19.0 12.5 19.0 10.7 24.25 Q10.5 24.85 11.5 24.85 L18.55 24.85 18.15 26.1 10.9 26.1 Q10.2 26.1 9.9 25.65 9.55 26.1 9.0 26.1 L8.25 26.1 8.65 24.85 8.85 24.85 Q9.15 24.85 9.25 24.55 L10.7 20.3 10.2 20.3 Z" fill="none" stroke="#660000" stroke-linecap="round" stroke-linejoin="round" stroke-width="3.5"/>
    <path d="M27.6 17.25 L27.95 17.25 28.2 17.05 28.65 16.2 30.15 16.2 29.95 16.55 33.65 16.55 31.45 22.95 Q31.15 24.05 29.9 24.05 L29.3 24.05 29.65 22.85 29.8 22.85 30.2 22.55 31.85 17.8 29.15 17.8 29.15 17.9 Q28.75 18.4 28.05 18.4 L27.2 18.4 27.6 17.25 M22.35 24.65 Q22.25 24.85 22.45 24.85 L22.7 24.85 24.05 20.9 22.6 20.9 24.2 16.25 27.75 16.25 26.45 19.85 Q26.15 20.8 25.4 20.9 L25.0 21.95 25.7 21.95 25.3 23.25 24.6 23.25 24.05 24.85 24.9 24.85 24.45 26.1 21.3 26.1 Q20.6 26.1 20.8 25.4 L22.1 21.6 23.35 21.6 22.35 24.65 M25.0 19.7 L25.4 19.3 26.0 17.45 25.1 17.45 24.3 19.7 25.0 19.7 M28.35 19.85 L27.4 22.6 28.0 22.6 28.3 22.35 29.15 19.85 28.35 19.85 M26.75 24.65 L26.9 24.75 30.95 24.75 30.5 26.1 25.8 26.1 Q24.8 26.1 25.1 25.15 L27.35 18.7 30.95 18.7 29.45 23.0 Q29.15 23.85 28.25 23.85 L26.95 23.85 26.75 24.65 M19.1 17.85 L19.8 16.6 21.15 16.6 20.0 18.6 Q19.55 19.25 18.8 19.25 L18.25 19.25 18.05 19.7 19.25 19.7 19.15 21.05 19.25 21.3 19.55 21.3 19.1 22.6 18.25 22.6 Q17.65 22.6 17.75 21.9 L17.85 20.4 17.0 22.85 Q16.9 23.15 17.25 23.15 L19.0 23.15 18.55 24.4 16.5 24.4 Q15.15 24.4 15.6 23.15 L17.9 16.25 19.25 16.25 18.65 18.05 18.8 18.05 19.1 17.85 M15.9 16.25 L17.3 16.25 14.9 23.25 14.3 24.1 13.4 24.4 11.2 24.4 11.6 23.15 13.35 23.15 13.8 22.55 14.65 20.0 13.6 21.9 Q13.2 22.6 12.5 22.6 L11.7 22.6 12.1 21.45 12.45 21.45 12.7 21.15 13.45 19.75 14.7 19.75 14.9 19.25 14.35 19.25 Q13.8 19.25 13.8 18.6 L13.9 16.6 15.25 16.6 15.2 17.85 Q15.15 18.05 15.25 18.05 L15.9 16.25 M13.5 16.2 L12.85 18.25 11.3 18.25 12.0 16.2 13.5 16.2 M10.2 20.3 L10.65 19.0 12.5 19.0 10.7 24.25 Q10.5 24.85 11.5 24.85 L18.55 24.85 18.15 26.1 10.9 26.1 Q10.2 26.1 9.9 25.65 9.55 26.1 9.0 26.1 L8.25 26.1 8.65 24.85 8.85 24.85 Q9.15 24.85 9.25 24.55 L10.7 20.3 10.2 20.3" fill="url(#gradient1)" fill-rule="evenodd" stroke="none"/>
    <path d="M27.6 17.25 L27.95 17.25 28.2 17.05 28.65 16.2 30.15 16.2 29.95 16.55 33.65 16.55 31.45 22.95 Q31.15 24.05 29.9 24.05 L29.3 24.05 29.65 22.85 29.8 22.85 30.2 22.55 31.85 17.8 29.15 17.8 29.15 17.9 Q28.75 18.4 28.05 18.4 L27.2 18.4 27.6 17.25 M22.35 24.65 Q22.25 24.85 22.45 24.85 L22.7 24.85 24.05 20.9 22.6 20.9 24.2 16.25 27.75 16.25 26.45 19.85 Q26.15 20.8 25.4 20.9 L25.0 21.95 25.7 21.95 25.3 23.25 24.6 23.25 24.05 24.85 24.9 24.85 24.45 26.1 21.3 26.1 Q20.6 26.1 20.8 25.4 L22.1 21.6 23.35 21.6 22.35 24.65 M25.0 19.7 L25.4 19.3 26.0 17.45 25.1 17.45 24.3 19.7 25.0 19.7 M28.35 19.85 L27.4 22.6 28.0 22.6 28.3 22.35 29.15 19.85 28.35 19.85 M26.75 24.65 L26.9 24.75 30.95 24.75 30.5 26.1 25.8 26.1 Q24.8 26.1 25.1 25.15 L27.35 18.7 30.95 18.7 29.45 23.0 Q29.15 23.85 28.25 23.85 L26.95 23.85 26.75 24.65 M19.1 17.85 L19.8 16.6 21.15 16.6 20.0 18.6 Q19.55 19.25 18.8 19.25 L18.25 19.25 18.05 19.7 19.25 19.7 19.15 21.05 19.25 21.3 19.55 21.3 19.1 22.6 18.25 22.6 Q17.65 22.6 17.75 21.9 L17.85 20.4 17.0 22.85 Q16.9 23.15 17.25 23.15 L19.0 23.15 18.55 24.4 16.5 24.4 Q15.15 24.4 15.6 23.15 L17.9 16.25 19.25 16.25 18.65 18.05 18.8 18.05 19.1 17.85 M15.9 16.25 L17.3 16.25 14.9 23.25 14.3 24.1 13.4 24.4 11.2 24.4 11.6 23.15 13.35 23.15 13.8 22.55 14.65 20.0 13.6 21.9 Q13.2 22.6 12.5 22.6 L11.7 22.6 12.1 21.45 12.45 21.45 12.7 21.15 13.45 19.75 14.7 19.75 14.9 19.25 14.35 19.25 Q13.8 19.25 13.8 18.6 L13.9 16.6 15.25 16.6 15.2 17.85 Q15.15 18.05 15.25 18.05 L15.9 16.25 M13.5 16.2 L12.85 18.25 11.3 18.25 12.0 16.2 13.5 16.2 M10.2 20.3 L10.65 19.0 12.5 19.0 10.7 24.25 Q10.5 24.85 11.5 24.85 L18.55 24.85 18.15 26.1 10.9 26.1 Q10.2 26.1 9.9 25.65 9.55 26.1 9.0 26.1 L8.25 26.1 8.65 24.85 8.85 24.85 Q9.15 24.85 9.25 24.55 L10.7 20.3 10.2 20.3 Z" fill="none" stroke="#cc6600" stroke-linecap="round" stroke-linejoin="round" stroke-width="1.5"/>
    <path d="M27.6 17.25 L27.95 17.25 28.2 17.05 28.65 16.2 30.15 16.2 29.95 16.55 33.65 16.55 31.45 22.95 Q31.15 24.05 29.9 24.05 L29.3 24.05 29.65 22.85 29.8 22.85 30.2 22.55 31.85 17.8 29.15 17.8 29.15 17.9 Q28.75 18.4 28.05 18.4 L27.2 18.4 27.6 17.25 M22.35 24.65 Q22.25 24.85 22.45 24.85 L22.7 24.85 24.05 20.9 22.6 20.9 24.2 16.25 27.75 16.25 26.45 19.85 Q26.15 20.8 25.4 20.9 L25.0 21.95 25.7 21.95 25.3 23.25 24.6 23.25 24.05 24.85 24.9 24.85 24.45 26.1 21.3 26.1 Q20.6 26.1 20.8 25.4 L22.1 21.6 23.35 21.6 22.35 24.65 M25.0 19.7 L25.4 19.3 26.0 17.45 25.1 17.45 24.3 19.7 25.0 19.7 M28.35 19.85 L27.4 22.6 28.0 22.6 28.3 22.35 29.15 19.85 28.35 19.85 M26.75 24.65 L26.9 24.75 30.95 24.75 30.5 26.1 25.8 26.1 Q24.8 26.1 25.1 25.15 L27.35 18.7 30.95 18.7 29.45 23.0 Q29.15 23.85 28.25 23.85 L26.95 23.85 26.75 24.65 M19.1 17.85 L19.8 16.6 21.15 16.6 20.0 18.6 Q19.55 19.25 18.8 19.25 L18.25 19.25 18.05 19.7 19.25 19.7 19.15 21.05 19.25 21.3 19.55 21.3 19.1 22.6 18.25 22.6 Q17.65 22.6 17.75 21.9 L17.85 20.4 17.0 22.85 Q16.9 23.15 17.25 23.15 L19.0 23.15 18.55 24.4 16.5 24.4 Q15.15 24.4 15.6 23.15 L17.9 16.25 19.25 16.25 18.65 18.05 18.8 18.05 19.1 17.85 M15.9 16.25 L17.3 16.25 14.9 23.25 14.3 24.1 13.4 24.4 11.2 24.4 11.6 23.15 13.35 23.15 13.8 22.55 14.65 20.0 13.6 21.9 Q13.2 22.6 12.5 22.6 L11.7 22.6 12.1 21.45 12.45 21.45 12.7 21.15 13.45 19.75 14.7 19.75 14.9 19.25 14.35 19.25 Q13.8 19.25 13.8 18.6 L13.9 16.6 15.25 16.6 15.2 17.85 Q15.15 18.05 15.25 18.05 L15.9 16.25 M13.5 16.2 L12.85 18.25 11.3 18.25 12.0 16.2 13.5 16.2 M10.2 20.3 L10.65 19.0 12.5 19.0 10.7 24.25 Q10.5 24.85 11.5 24.85 L18.55 24.85 18.15 26.1 10.9 26.1 Q10.2 26.1 9.9 25.65 9.55 26.1 9.0 26.1 L8.25 26.1 8.65 24.85 8.85 24.85 Q9.15 24.85 9.25 24.55 L10.7 20.3 10.2 20.3" fill="url(#gradient2)" fill-rule="evenodd" stroke="none"/>
  </g>
  <defs>
    <linearGradient gradientTransform="matrix(0.0, -0.006, 0.0155, 0.0, 20.95, 21.15)" gradientUnits="userSpaceOnUse" id="gradient0" spreadMethod="pad" x1="-819.2" x2="819.2">
      <stop offset="0.0" stop-color="#66ccff"/>
      <stop offset="1.0" stop-color="#66ffff"/>
    </linearGradient>
    <linearGradient gradientTransform="matrix(0.0, -0.006, 0.0155, 0.0, 20.95, 21.15)" gradientUnits="userSpaceOnUse" id="gradient1" spreadMethod="pad" x1="-819.2" x2="819.2">
      <stop offset="0.0" stop-color="#66ccff"/>
      <stop offset="1.0" stop-color="#66ffff"/>
    </linearGradient>
    <linearGradient gradientTransform="matrix(0.0, -0.006, 0.0155, 0.0, 20.95, 21.15)" gradientUnits="userSpaceOnUse" id="gradient2" spreadMethod="pad" x1="-819.2" x2="819.2">
      <stop offset="0.0" stop-color="#ff9900"/>
      <stop offset="1.0" stop-color="#ffff00"/>
    </linearGradient>
  </defs>
</svg>
