<?xml version="1.0" encoding="UTF-8" standalone="no"?>
<svg xmlns:xlink="http://www.w3.org/1999/xlink" height="80.95px" width="89.0px" xmlns="http://www.w3.org/2000/svg">
  <g transform="matrix(1.0, 0.0, 0.0, 1.0, 2.25, 2.4)">
    <path d="M79.5 17.95 L79.4 17.95 79.15 17.5 79.5 16.9 79.5 17.95" fill="url(#gradient0)" fill-rule="evenodd" stroke="none"/>
    <path d="M74.3 13.0 Q76.2 15.0 77.55 17.15 L77.7 17.4 Q83.3 26.35 81.2 38.1 78.55 52.8 65.35 63.2 56.9 69.85 47.2 72.25 41.7 73.55 35.95 73.55 23.5 73.55 15.05 67.4 L14.5 66.85 Q9.4 63.2 5.25 56.75 1.5 48.95 3.4 38.1 4.45 32.2 7.2 27.1 11.35 19.2 19.3 13.0 32.55 2.6 48.7 2.6 64.8 2.6 74.3 13.0 M58.95 41.9 Q60.15 34.9 55.65 29.95 52.0 25.9 46.25 25.15 40.25 25.9 35.1 29.95 28.8 34.9 27.45 41.9 26.25 48.95 30.8 53.95 34.5 57.95 40.25 58.7 46.2 57.95 51.3 53.95 57.7 48.95 58.95 41.9" fill="#00ffff" fill-rule="evenodd" stroke="none"/>
    <path d="M74.3 13.0 Q76.2 15.0 77.55 17.15 L77.7 17.4 Q83.3 26.35 81.2 38.1 78.55 52.8 65.35 63.2 56.9 69.85 47.2 72.25 41.7 73.55 35.95 73.55 23.5 73.55 15.05 67.4 L14.5 66.85 Q9.4 63.2 5.25 56.75 1.5 48.95 3.4 38.1 4.45 32.2 7.2 27.1 11.35 19.2 19.3 13.0 32.55 2.6 48.7 2.6 64.8 2.6 74.3 13.0 M58.95 41.9 Q57.7 48.95 51.3 53.95 46.2 57.95 40.25 58.7 34.5 57.95 30.8 53.95 26.25 48.95 27.45 41.9 28.8 34.9 35.1 29.95 40.25 25.9 46.25 25.15 52.0 25.9 55.65 29.95 60.15 34.9 58.95 41.9 Z" fill="none" stroke="#10161b" stroke-linecap="round" stroke-linejoin="round" stroke-width="10.0"/>
    <path d="M4.55 25.5 Q8.85 17.3 17.15 10.8 30.95 0.0 47.75 0.0 64.55 0.0 74.45 10.8 77.35 13.95 79.15 17.5 L79.4 17.95 Q83.5 26.35 81.6 36.95 78.85 52.25 65.1 63.1 56.25 70.05 46.15 72.5 53.4 69.95 59.9 64.85 72.95 54.55 75.55 40.0 78.2 25.4 68.8 15.15 59.35 4.9 43.4 4.9 27.45 4.9 14.35 15.15 8.35 19.85 4.55 25.5" fill="url(#gradient1)" fill-rule="evenodd" stroke="none"/>
    <path d="M46.15 72.5 Q40.5 73.9 34.5 73.9 17.7 73.9 7.8 63.1 -2.15 52.25 0.6 36.95 1.7 30.85 4.55 25.5 8.35 19.85 14.35 15.15 27.45 4.9 43.4 4.9 59.35 4.9 68.8 15.15 78.2 25.4 75.55 40.0 72.95 54.55 59.9 64.85 53.4 69.95 46.15 72.5 M38.95 58.4 Q45.15 57.6 50.5 53.45 57.1 48.25 58.4 40.95 59.7 33.6 55.0 28.45 51.15 24.25 45.2 23.45 L42.2 23.25 Q34.2 23.25 27.6 28.45 21.0 33.6 19.65 40.95 18.35 48.25 23.1 53.45 27.85 58.6 35.9 58.6 L38.95 58.4" fill="url(#gradient2)" fill-rule="evenodd" stroke="none"/>
    <path d="M38.95 58.4 L35.9 58.6 Q27.85 58.6 23.1 53.45 18.35 48.25 19.65 40.95 21.0 33.6 27.6 28.45 34.2 23.25 42.2 23.25 L45.2 23.45 Q38.95 24.25 33.6 28.45 27.0 33.6 25.65 40.95 24.35 48.25 29.1 53.45 32.95 57.6 38.95 58.4" fill="url(#gradient3)" fill-rule="evenodd" stroke="none"/>
    <path d="M58.05 1.15 Q53.25 0.45 42.65 4.8 32.05 9.15 20.05 20.75 8.05 32.35 4.6 59.05 -1.65 49.5 0.6 36.95 1.7 30.85 4.55 25.5 8.85 17.3 17.15 10.8 L17.45 10.6 Q31.1 0.0 47.75 0.0 53.25 0.0 58.05 1.15" fill="url(#gradient4)" fill-rule="evenodd" stroke="none"/>
  </g>
  <defs>
    <linearGradient gradientTransform="matrix(0.064, 0.0, 0.0, 0.0788, -45.4, 53.9)" gradientUnits="userSpaceOnUse" id="gradient0" spreadMethod="pad" x1="-819.2" x2="819.2">
      <stop offset="0.0" stop-color="#ff6600"/>
      <stop offset="1.0" stop-color="#f7f554"/>
    </linearGradient>
    <linearGradient gradientTransform="matrix(-0.041, -0.0237, 0.0221, -0.0383, 43.35, 36.25)" gradientUnits="userSpaceOnUse" id="gradient1" spreadMethod="pad" x1="-819.2" x2="819.2">
      <stop offset="0.0" stop-color="#ff6600"/>
      <stop offset="1.0" stop-color="#f7f554"/>
    </linearGradient>
    <linearGradient gradientTransform="matrix(0.0502, 0.0, 0.0, 0.0451, 41.1, 36.95)" gradientUnits="userSpaceOnUse" id="gradient2" spreadMethod="pad" x1="-819.2" x2="819.2">
      <stop offset="0.0" stop-color="#ff6600"/>
      <stop offset="1.0" stop-color="#f7f554"/>
    </linearGradient>
    <linearGradient gradientTransform="matrix(0.0041, 0.0152, -0.0208, 0.0056, 31.05, 39.25)" gradientUnits="userSpaceOnUse" id="gradient3" spreadMethod="pad" x1="-819.2" x2="819.2">
      <stop offset="0.0" stop-color="#ff6600"/>
      <stop offset="1.0" stop-color="#f7f554"/>
    </linearGradient>
    <linearGradient gradientTransform="matrix(0.0, -0.0819, 0.0947, 0.0, -29.15, 49.9)" gradientUnits="userSpaceOnUse" id="gradient4" spreadMethod="pad" x1="-819.2" x2="819.2">
      <stop offset="0.0" stop-color="#ffffff" stop-opacity="0.0"/>
      <stop offset="1.0" stop-color="#f3eff5" stop-opacity="0.6"/>
    </linearGradient>
  </defs>
</svg>
