<?xml version="1.0" encoding="UTF-8" standalone="no"?>
<svg xmlns:xlink="http://www.w3.org/1999/xlink" height="33.5px" width="162.35px" xmlns="http://www.w3.org/2000/svg">
  <g transform="matrix(1.0, 0.0, 0.0, 1.0, 79.0, 18.0)">
    <path d="M-60.55 -15.0 L-60.55 -13.75 -49.75 -13.75 -49.75 -9.0 -53.9 -9.0 -53.9 -10.55 -71.9 -10.55 -71.9 -9.0 -76.0 -9.0 -76.0 -13.75 -65.0 -13.75 -65.0 -15.0 -60.55 -15.0 M-44.15 1.5 L-44.15 -13.15 -38.5 -13.15 -37.95 -14.65 -32.2 -14.65 -32.7 -13.15 -21.55 -13.15 -21.55 0.1 Q-21.55 0.95 -21.85 1.5 L-44.15 1.5 M71.1 1.5 L71.55 -5.5 69.4 -5.5 69.4 -8.5 71.7 -8.5 71.85 -10.4 75.3 -10.4 75.15 -8.5 80.35 -8.5 80.35 1.5 77.0 1.5 77.0 -5.5 74.9 -5.5 74.45 1.5 71.1 1.5 M68.35 -5.95 L58.85 -5.95 58.85 -9.2 68.35 -9.2 68.35 -5.95 M60.25 1.5 L60.55 0.15 58.35 0.15 58.35 -3.05 68.85 -3.05 68.85 0.15 63.95 0.15 63.65 1.5 60.25 1.5 M55.45 -7.15 L41.9 -7.15 41.9 -9.95 55.45 -9.95 55.45 -7.15 M54.15 1.5 L50.45 1.5 50.45 -1.6 41.5 -1.6 41.5 -4.55 55.6 -4.55 55.6 -1.6 54.15 -1.6 54.15 1.5 M33.25 1.5 L33.25 -0.6 34.55 -0.6 Q35.35 -0.6 35.75 -1.6 L36.6 -3.75 36.1 -3.7 33.5 -3.7 33.5 -6.85 34.65 -6.85 Q35.3 -6.85 35.6 -7.7 L36.6 -10.45 40.5 -10.45 38.35 -5.4 38.05 -4.8 40.9 -4.8 38.45 0.9 38.45 1.5 33.25 1.5 M15.95 1.5 L15.95 -0.5 21.55 -0.5 21.55 -4.65 16.4 -4.65 16.4 -7.75 21.55 -7.75 21.55 -10.3 25.2 -10.3 25.2 -7.75 30.35 -7.75 30.35 -4.65 25.2 -4.65 25.2 -0.5 30.85 -0.5 30.85 1.5 15.95 1.5 M15.1 -3.65 L12.1 -3.65 Q10.45 -3.65 10.05 -5.3 L8.85 -9.4 12.35 -9.4 12.95 -7.35 Q13.15 -6.6 13.75 -6.6 L15.1 -6.6 15.1 -3.65 M10.15 1.5 L8.95 -2.5 12.45 -2.5 13.05 -0.45 Q13.25 0.4 13.85 0.4 L15.4 0.4 15.4 1.5 10.15 1.5 M-10.9 1.5 L-10.8 1.05 -16.5 1.05 -16.5 -2.1 -10.05 -2.1 -8.85 -7.05 -15.65 -7.05 -15.65 -10.05 4.85 -10.05 4.85 -7.05 -5.3 -7.05 -6.55 -2.1 5.7 -2.1 5.7 1.05 -7.35 1.05 -7.45 1.5 -10.9 1.5 M-25.75 -10.05 L-39.9 -10.05 -39.9 -8.7 -25.75 -8.7 -25.75 -10.05 M-25.75 -5.85 L-39.9 -5.85 -39.9 -4.45 -25.75 -4.45 -25.75 -5.85 M-25.75 -1.65 L-39.9 -1.65 -39.9 -0.35 -26.55 -0.35 Q-25.75 -0.35 -25.75 -1.3 L-25.75 -1.65 M-55.8 -9.1 Q-55.15 -8.55 -53.65 -8.55 L-51.4 -8.55 -51.4 -5.65 -55.65 -5.65 Q-58.9 -5.65 -60.25 -7.7 L-61.75 -10.0 -56.55 -10.0 -55.8 -9.1 M-74.65 1.5 L-74.65 0.95 -74.35 0.3 -73.1 -1.75 -75.45 -1.75 -75.45 -5.15 -50.35 -5.15 -50.35 -1.75 -68.4 -1.75 -69.7 0.0 -55.9 0.0 Q-55.15 0.0 -55.15 -0.6 L-55.15 -1.3 -51.05 -1.3 -51.05 0.85 -51.2 1.5 -74.65 1.5 M-69.5 -10.0 L-64.3 -10.0 Q-65.7 -7.15 -67.0 -6.45 -68.3 -5.65 -70.05 -5.65 L-74.5 -5.65 -74.5 -8.55 -71.55 -8.55 Q-70.3 -8.55 -69.5 -10.0" fill="#66ffff" fill-rule="evenodd" stroke="none"/>
    <path d="M-21.85 1.5 Q-22.55 2.7 -24.6 2.7 L-44.15 2.7 -44.15 1.5 -21.85 1.5 M80.35 1.5 L80.35 9.25 Q80.35 11.8 77.4 11.8 L74.8 11.8 74.8 8.95 76.35 8.95 Q77.0 8.95 77.0 8.35 L77.0 1.5 80.35 1.5 M74.45 1.5 L73.95 8.3 Q73.7 12.0 72.4 12.0 L69.2 12.0 69.2 9.25 70.15 9.25 Q70.7 9.25 70.75 6.65 L71.1 1.5 74.45 1.5 M63.65 1.5 L61.95 8.85 64.6 8.85 Q65.2 8.85 65.2 8.35 L65.2 5.55 68.35 5.55 68.35 9.55 Q68.35 10.25 67.65 10.95 66.85 11.8 65.7 11.8 L58.6 11.8 58.6 9.65 58.8 8.1 60.25 1.5 63.65 1.5 M50.45 1.5 L54.15 1.5 54.15 9.05 Q54.15 11.9 50.65 11.9 L44.1 11.9 44.1 8.85 49.8 8.85 Q50.45 8.85 50.45 8.3 L50.45 1.5 M38.45 1.5 L38.45 11.9 34.9 11.9 34.9 2.55 33.25 2.55 33.25 1.5 38.45 1.5 M30.85 1.5 L30.85 2.6 24.3 2.6 20.75 8.8 26.25 8.8 Q26.85 8.8 26.85 8.3 L26.85 5.15 30.25 5.15 30.25 9.35 Q30.25 11.7 27.7 11.7 L16.5 11.7 16.5 9.05 20.05 2.6 15.95 2.6 15.95 1.5 30.85 1.5 M15.4 1.5 L15.4 3.3 12.2 3.3 Q10.55 3.3 10.15 1.6 L10.15 1.5 15.4 1.5 M-7.45 1.5 L-9.55 9.75 Q-10.05 12.0 -11.35 12.0 L-16.5 12.0 -16.5 9.05 -13.2 9.05 Q-12.85 9.05 -12.65 8.3 L-10.9 1.5 -7.45 1.5 M11.7 4.6 L15.2 4.6 13.95 10.0 Q13.45 11.9 11.6 11.9 L8.95 11.9 8.95 8.95 10.4 8.95 Q10.75 8.95 10.95 8.25 L11.7 4.6 M5.85 12.05 L-2.1 12.05 Q-4.25 12.05 -4.25 10.35 L-4.25 2.45 -0.65 2.45 -0.65 8.7 Q-0.65 9.15 0.1 9.15 L5.85 9.15 5.85 12.05 M-33.95 9.25 L-25.5 9.25 -25.5 12.5 -35.0 12.5 Q-39.35 12.5 -39.35 9.25 L-39.35 3.75 -35.0 3.75 -35.0 8.45 Q-35.0 9.25 -33.95 9.25 M-28.9 5.25 L-27.25 5.25 -27.25 8.35 -31.25 8.35 Q-33.7 8.35 -33.7 6.55 L-33.7 3.75 -29.65 3.75 -29.65 4.7 Q-29.65 5.25 -28.9 5.25 M-25.9 3.75 L-21.65 3.75 -20.6 8.1 Q-20.4 8.9 -20.0 8.9 L-19.4 8.9 -19.4 12.45 -21.65 12.45 Q-23.5 12.45 -24.1 10.3 L-25.9 3.75 M-51.2 1.5 L-51.9 2.45 Q-52.95 3.4 -54.5 3.4 L-60.55 3.4 -60.55 4.6 -50.95 4.6 -50.95 7.95 -60.55 7.95 -60.55 9.0 -50.0 9.0 -50.0 12.5 -75.8 12.5 -75.8 9.0 -64.9 9.0 -64.9 7.95 -74.75 7.95 -74.75 4.6 -64.9 4.6 -64.9 3.4 -74.65 3.4 -74.65 1.5 -51.2 1.5 M-44.4 3.75 L-40.3 3.75 -41.8 10.25 Q-42.35 12.5 -44.65 12.5 L-46.4 12.5 -46.4 9.15 -46.0 9.15 Q-45.6 9.15 -45.3 8.2 L-44.4 3.75" fill="#00ffff" fill-rule="evenodd" stroke="none"/>
    <path d="M-60.55 -15.0 L-60.55 -13.75 -49.75 -13.75 -49.75 -9.0 -53.9 -9.0 -53.9 -10.55 -71.9 -10.55 -71.9 -9.0 -76.0 -9.0 -76.0 -13.75 -65.0 -13.75 -65.0 -15.0 -60.55 -15.0 M-44.15 1.5 L-44.15 -13.15 -38.5 -13.15 -37.95 -14.65 -32.2 -14.65 -32.7 -13.15 -21.55 -13.15 -21.55 0.1 Q-21.55 0.95 -21.85 1.5 -22.55 2.7 -24.6 2.7 L-44.15 2.7 -44.15 1.5 -21.85 1.5 M71.1 1.5 L71.55 -5.5 69.4 -5.5 69.4 -8.5 71.7 -8.5 71.85 -10.4 75.3 -10.4 75.15 -8.5 80.35 -8.5 80.35 1.5 80.35 9.25 Q80.35 11.8 77.4 11.8 L74.8 11.8 74.8 8.95 76.35 8.95 Q77.0 8.95 77.0 8.35 L77.0 1.5 77.0 -5.5 74.9 -5.5 74.45 1.5 73.95 8.3 Q73.7 12.0 72.4 12.0 L69.2 12.0 69.2 9.25 70.15 9.25 Q70.7 9.25 70.75 6.65 L71.1 1.5 74.45 1.5 M68.35 -5.95 L58.85 -5.95 58.85 -9.2 68.35 -9.2 68.35 -5.95 M63.65 1.5 L61.95 8.85 64.6 8.85 Q65.2 8.85 65.2 8.35 L65.2 5.55 68.35 5.55 68.35 9.55 Q68.35 10.25 67.65 10.95 66.85 11.8 65.7 11.8 L58.6 11.8 58.6 9.65 58.8 8.1 60.25 1.5 60.55 0.15 58.35 0.15 58.35 -3.05 68.85 -3.05 68.85 0.15 63.95 0.15 63.65 1.5 60.25 1.5 M80.35 1.5 L77.0 1.5 M55.45 -7.15 L41.9 -7.15 41.9 -9.95 55.45 -9.95 55.45 -7.15 M54.15 1.5 L50.45 1.5 50.45 8.3 Q50.45 8.85 49.8 8.85 L44.1 8.85 44.1 11.9 50.65 11.9 Q54.15 11.9 54.15 9.05 L54.15 1.5 54.15 -1.6 55.6 -1.6 55.6 -4.55 41.5 -4.55 41.5 -1.6 50.45 -1.6 50.45 1.5 M33.25 1.5 L33.25 -0.6 34.55 -0.6 Q35.35 -0.6 35.75 -1.6 L36.6 -3.75 36.1 -3.7 33.5 -3.7 33.5 -6.85 34.65 -6.85 Q35.3 -6.85 35.6 -7.7 L36.6 -10.45 40.5 -10.45 38.35 -5.4 38.05 -4.8 40.9 -4.8 38.45 0.9 38.45 1.5 38.45 11.9 34.9 11.9 34.9 2.55 33.25 2.55 33.25 1.5 38.45 1.5 M15.95 1.5 L15.95 -0.5 21.55 -0.5 21.55 -4.65 16.4 -4.65 16.4 -7.75 21.55 -7.75 21.55 -10.3 25.2 -10.3 25.2 -7.75 30.35 -7.75 30.35 -4.65 25.2 -4.65 25.2 -0.5 30.85 -0.5 30.85 1.5 30.85 2.6 24.3 2.6 20.75 8.8 26.25 8.8 Q26.85 8.8 26.85 8.3 L26.85 5.15 30.25 5.15 30.25 9.35 Q30.25 11.7 27.7 11.7 L16.5 11.7 16.5 9.05 20.05 2.6 15.95 2.6 15.95 1.5 30.85 1.5 M15.1 -3.65 L12.1 -3.65 Q10.45 -3.65 10.05 -5.3 L8.85 -9.4 12.35 -9.4 12.95 -7.35 Q13.15 -6.6 13.75 -6.6 L15.1 -6.6 15.1 -3.65 M10.15 1.5 L8.95 -2.5 12.45 -2.5 13.05 -0.45 Q13.25 0.4 13.85 0.4 L15.4 0.4 15.4 1.5 15.4 3.3 12.2 3.3 Q10.55 3.3 10.15 1.6 L10.15 1.5 15.4 1.5 M-10.9 1.5 L-10.8 1.05 -16.5 1.05 -16.5 -2.1 -10.05 -2.1 -8.85 -7.05 -15.65 -7.05 -15.65 -10.05 4.85 -10.05 4.85 -7.05 -5.3 -7.05 -6.55 -2.1 5.7 -2.1 5.7 1.05 -7.35 1.05 -7.45 1.5 -9.55 9.75 Q-10.05 12.0 -11.35 12.0 L-16.5 12.0 -16.5 9.05 -13.2 9.05 Q-12.85 9.05 -12.65 8.3 L-10.9 1.5 -7.45 1.5 M11.7 4.6 L15.2 4.6 13.95 10.0 Q13.45 11.9 11.6 11.9 L8.95 11.9 8.95 8.95 10.4 8.95 Q10.75 8.95 10.95 8.25 L11.7 4.6 M5.85 12.05 L-2.1 12.05 Q-4.25 12.05 -4.25 10.35 L-4.25 2.45 -0.65 2.45 -0.65 8.7 Q-0.65 9.15 0.1 9.15 L5.85 9.15 5.85 12.05 M-25.75 -10.05 L-39.9 -10.05 -39.9 -8.7 -25.75 -8.7 -25.75 -10.05 M-25.75 -5.85 L-39.9 -5.85 -39.9 -4.45 -25.75 -4.45 -25.75 -5.85 M-33.95 9.25 L-25.5 9.25 -25.5 12.5 -35.0 12.5 Q-39.35 12.5 -39.35 9.25 L-39.35 3.75 -35.0 3.75 -35.0 8.45 Q-35.0 9.25 -33.95 9.25 M-28.9 5.25 L-27.25 5.25 -27.25 8.35 -31.25 8.35 Q-33.7 8.35 -33.7 6.55 L-33.7 3.75 -29.65 3.75 -29.65 4.7 Q-29.65 5.25 -28.9 5.25 M-25.9 3.75 L-21.65 3.75 -20.6 8.1 Q-20.4 8.9 -20.0 8.9 L-19.4 8.9 -19.4 12.45 -21.65 12.45 Q-23.5 12.45 -24.1 10.3 L-25.9 3.75 M-25.75 -1.65 L-39.9 -1.65 -39.9 -0.35 -26.55 -0.35 Q-25.75 -0.35 -25.75 -1.3 L-25.75 -1.65 M-55.8 -9.1 Q-55.15 -8.55 -53.65 -8.55 L-51.4 -8.55 -51.4 -5.65 -55.65 -5.65 Q-58.9 -5.65 -60.25 -7.7 L-61.75 -10.0 -56.55 -10.0 -55.8 -9.1 M-51.2 1.5 L-51.9 2.45 Q-52.95 3.4 -54.5 3.4 L-60.55 3.4 -60.55 4.6 -50.95 4.6 -50.95 7.95 -60.55 7.95 -60.55 9.0 -50.0 9.0 -50.0 12.5 -75.8 12.5 -75.8 9.0 -64.9 9.0 -64.9 7.95 -74.75 7.95 -74.75 4.6 -64.9 4.6 -64.9 3.4 -74.65 3.4 -74.65 1.5 -74.65 0.95 -74.35 0.3 -73.1 -1.75 -75.45 -1.75 -75.45 -5.15 -50.35 -5.15 -50.35 -1.75 -68.4 -1.75 -69.7 0.0 -55.9 0.0 Q-55.15 0.0 -55.15 -0.6 L-55.15 -1.3 -51.05 -1.3 -51.05 0.85 -51.2 1.5 -74.65 1.5 M-44.4 3.75 L-40.3 3.75 -41.8 10.25 Q-42.35 12.5 -44.65 12.5 L-46.4 12.5 -46.4 9.15 -46.0 9.15 Q-45.6 9.15 -45.3 8.2 L-44.4 3.75 M-69.5 -10.0 L-64.3 -10.0 Q-65.7 -7.15 -67.0 -6.45 -68.3 -5.65 -70.05 -5.65 L-74.5 -5.65 -74.5 -8.55 -71.55 -8.55 Q-70.3 -8.55 -69.5 -10.0 Z" fill="none" stroke="#ffffff" stroke-linecap="round" stroke-linejoin="round" stroke-width="6.0"/>
    <path d="M-61.55 -15.0 L-61.55 -13.75 -50.75 -13.75 -50.75 -9.0 -54.9 -9.0 -54.9 -10.55 -72.9 -10.55 -72.9 -9.0 -77.0 -9.0 -77.0 -13.75 -66.0 -13.75 -66.0 -15.0 -61.55 -15.0 M-45.15 1.5 L-45.15 -13.15 -39.5 -13.15 -38.95 -14.65 -33.2 -14.65 -33.7 -13.15 -22.55 -13.15 -22.55 0.1 Q-22.55 0.95 -22.85 1.5 L-45.15 1.5 M70.1 1.5 L70.55 -5.5 68.4 -5.5 68.4 -8.5 70.7 -8.5 70.85 -10.4 74.3 -10.4 74.15 -8.5 79.35 -8.5 79.35 1.5 76.0 1.5 76.0 -5.5 73.9 -5.5 73.45 1.5 70.1 1.5 M67.35 -5.95 L57.85 -5.95 57.85 -9.2 67.35 -9.2 67.35 -5.95 M59.25 1.5 L59.55 0.15 57.35 0.15 57.35 -3.05 67.85 -3.05 67.85 0.15 62.95 0.15 62.65 1.5 59.25 1.5 M54.45 -7.15 L40.9 -7.15 40.9 -9.95 54.45 -9.95 54.45 -7.15 M49.45 1.5 L49.45 -1.6 40.5 -1.6 40.5 -4.55 54.6 -4.55 54.6 -1.6 53.15 -1.6 53.15 1.5 49.45 1.5 M32.25 1.5 L32.25 -0.6 33.55 -0.6 Q34.35 -0.6 34.75 -1.6 L35.6 -3.75 35.1 -3.7 32.5 -3.7 32.5 -6.85 33.65 -6.85 Q34.3 -6.85 34.6 -7.7 L35.6 -10.45 39.5 -10.45 37.35 -5.4 37.05 -4.8 39.9 -4.8 37.45 0.9 37.45 1.5 32.25 1.5 M14.95 1.5 L14.95 -0.5 20.55 -0.5 20.55 -4.65 15.4 -4.65 15.4 -7.75 20.55 -7.75 20.55 -10.3 24.2 -10.3 24.2 -7.75 29.35 -7.75 29.35 -4.65 24.2 -4.65 24.2 -0.5 29.85 -0.5 29.85 1.5 14.95 1.5 M14.1 -3.65 L11.1 -3.65 Q9.45 -3.65 9.05 -5.3 L7.85 -9.4 11.35 -9.4 11.95 -7.35 Q12.15 -6.6 12.75 -6.6 L14.1 -6.6 14.1 -3.65 M-11.9 1.5 L-11.8 1.05 -17.5 1.05 -17.5 -2.1 -11.05 -2.1 -9.85 -7.05 -16.65 -7.05 -16.65 -10.05 3.85 -10.05 3.85 -7.05 -6.3 -7.05 -7.55 -2.1 4.7 -2.1 4.7 1.05 -8.35 1.05 -8.45 1.5 -11.9 1.5 M9.15 1.5 L7.95 -2.5 11.45 -2.5 12.05 -0.45 Q12.25 0.4 12.85 0.4 L14.4 0.4 14.4 1.5 9.15 1.5 M-26.75 -10.05 L-40.9 -10.05 -40.9 -8.7 -26.75 -8.7 -26.75 -10.05 M-26.75 -5.85 L-40.9 -5.85 -40.9 -4.45 -26.75 -4.45 -26.75 -5.85 M-26.75 -1.65 L-40.9 -1.65 -40.9 -0.35 -27.55 -0.35 Q-26.75 -0.35 -26.75 -1.3 L-26.75 -1.65 M-56.8 -9.1 Q-56.15 -8.55 -54.65 -8.55 L-52.4 -8.55 -52.4 -5.65 -56.65 -5.65 Q-59.9 -5.65 -61.25 -7.7 L-62.75 -10.0 -57.55 -10.0 -56.8 -9.1 M-75.65 1.5 L-75.65 0.95 -75.35 0.3 -74.1 -1.75 -76.45 -1.75 -76.45 -5.15 -51.35 -5.15 -51.35 -1.75 -69.4 -1.75 -70.7 0.0 -56.9 0.0 Q-56.15 0.0 -56.15 -0.6 L-56.15 -1.3 -52.05 -1.3 -52.05 0.85 -52.2 1.5 -75.65 1.5 M-70.5 -10.0 L-65.3 -10.0 Q-66.7 -7.15 -68.0 -6.45 -69.3 -5.65 -71.05 -5.65 L-75.5 -5.65 -75.5 -8.55 -72.55 -8.55 Q-71.3 -8.55 -70.5 -10.0" fill="#66ffff" fill-rule="evenodd" stroke="none"/>
    <path d="M-22.85 1.5 Q-23.55 2.7 -25.6 2.7 L-45.15 2.7 -45.15 1.5 -22.85 1.5 M79.35 1.5 L79.35 9.25 Q79.35 11.8 76.4 11.8 L73.8 11.8 73.8 8.95 75.35 8.95 Q76.0 8.95 76.0 8.35 L76.0 1.5 79.35 1.5 M73.45 1.5 L72.95 8.3 Q72.7 12.0 71.4 12.0 L68.2 12.0 68.2 9.25 69.15 9.25 Q69.7 9.25 69.75 6.65 L70.1 1.5 73.45 1.5 M62.65 1.5 L60.95 8.85 63.6 8.85 Q64.2 8.85 64.2 8.35 L64.2 5.55 67.35 5.55 67.35 9.55 Q67.35 10.25 66.65 10.95 65.85 11.8 64.7 11.8 L57.6 11.8 57.6 9.65 57.8 8.1 59.25 1.5 62.65 1.5 M53.15 1.5 L53.15 9.05 Q53.15 11.9 49.65 11.9 L43.1 11.9 43.1 8.85 48.8 8.85 Q49.45 8.85 49.45 8.3 L49.45 1.5 53.15 1.5 M37.45 1.5 L37.45 11.9 33.9 11.9 33.9 2.55 32.25 2.55 32.25 1.5 37.45 1.5 M29.85 1.5 L29.85 2.6 23.3 2.6 19.75 8.8 25.25 8.8 Q25.85 8.8 25.85 8.3 L25.85 5.15 29.25 5.15 29.25 9.35 Q29.25 11.7 26.7 11.7 L15.5 11.7 15.5 9.05 19.05 2.6 14.95 2.6 14.95 1.5 29.85 1.5 M-8.45 1.5 L-10.55 9.75 Q-11.05 12.0 -12.35 12.0 L-17.5 12.0 -17.5 9.05 -14.2 9.05 Q-13.85 9.05 -13.65 8.3 L-11.9 1.5 -8.45 1.5 M14.4 1.5 L14.4 3.3 11.2 3.3 Q9.55 3.3 9.15 1.6 L9.15 1.5 14.4 1.5 M10.7 4.6 L14.2 4.6 12.95 10.0 Q12.45 11.9 10.6 11.9 L7.95 11.9 7.95 8.95 9.4 8.95 Q9.75 8.95 9.95 8.25 L10.7 4.6 M4.85 12.05 L-3.1 12.05 Q-5.25 12.05 -5.25 10.35 L-5.25 2.45 -1.65 2.45 -1.65 8.7 Q-1.65 9.15 -0.9 9.15 L4.85 9.15 4.85 12.05 M-34.95 9.25 L-26.5 9.25 -26.5 12.5 -36.0 12.5 Q-40.35 12.5 -40.35 9.25 L-40.35 3.75 -36.0 3.75 -36.0 8.45 Q-36.0 9.25 -34.95 9.25 M-29.9 5.25 L-28.25 5.25 -28.25 8.35 -32.25 8.35 Q-34.7 8.35 -34.7 6.55 L-34.7 3.75 -30.65 3.75 -30.65 4.7 Q-30.65 5.25 -29.9 5.25 M-26.9 3.75 L-22.65 3.75 -21.6 8.1 Q-21.4 8.9 -21.0 8.9 L-20.4 8.9 -20.4 12.45 -22.65 12.45 Q-24.5 12.45 -25.1 10.3 L-26.9 3.75 M-52.2 1.5 L-52.9 2.45 Q-53.95 3.4 -55.5 3.4 L-61.55 3.4 -61.55 4.6 -51.95 4.6 -51.95 7.95 -61.55 7.95 -61.55 9.0 -51.0 9.0 -51.0 12.5 -76.8 12.5 -76.8 9.0 -65.9 9.0 -65.9 7.95 -75.75 7.95 -75.75 4.6 -65.9 4.6 -65.9 3.4 -75.65 3.4 -75.65 1.5 -52.2 1.5 M-45.4 3.75 L-41.3 3.75 -42.8 10.25 Q-43.35 12.5 -45.65 12.5 L-47.4 12.5 -47.4 9.15 -47.0 9.15 Q-46.6 9.15 -46.3 8.2 L-45.4 3.75" fill="#00ffff" fill-rule="evenodd" stroke="none"/>
    <path d="M-61.55 -15.0 L-61.55 -13.75 -50.75 -13.75 -50.75 -9.0 -54.9 -9.0 -54.9 -10.55 -72.9 -10.55 -72.9 -9.0 -77.0 -9.0 -77.0 -13.75 -66.0 -13.75 -66.0 -15.0 -61.55 -15.0 M-45.15 1.5 L-45.15 -13.15 -39.5 -13.15 -38.95 -14.65 -33.2 -14.65 -33.7 -13.15 -22.55 -13.15 -22.55 0.1 Q-22.55 0.95 -22.85 1.5 -23.55 2.7 -25.6 2.7 L-45.15 2.7 -45.15 1.5 -22.85 1.5 M70.1 1.5 L70.55 -5.5 68.4 -5.5 68.4 -8.5 70.7 -8.5 70.85 -10.4 74.3 -10.4 74.15 -8.5 79.35 -8.5 79.35 1.5 79.35 9.25 Q79.35 11.8 76.4 11.8 L73.8 11.8 73.8 8.95 75.35 8.95 Q76.0 8.95 76.0 8.35 L76.0 1.5 76.0 -5.5 73.9 -5.5 73.45 1.5 72.95 8.3 Q72.7 12.0 71.4 12.0 L68.2 12.0 68.2 9.25 69.15 9.25 Q69.7 9.25 69.75 6.65 L70.1 1.5 73.45 1.5 M67.35 -5.95 L57.85 -5.95 57.85 -9.2 67.35 -9.2 67.35 -5.95 M62.65 1.5 L60.95 8.85 63.6 8.85 Q64.2 8.85 64.2 8.35 L64.2 5.55 67.35 5.55 67.35 9.55 Q67.35 10.25 66.65 10.95 65.85 11.8 64.7 11.8 L57.6 11.8 57.6 9.65 57.8 8.1 59.25 1.5 59.55 0.15 57.35 0.15 57.35 -3.05 67.85 -3.05 67.85 0.15 62.95 0.15 62.65 1.5 59.25 1.5 M79.35 1.5 L76.0 1.5 M54.45 -7.15 L40.9 -7.15 40.9 -9.95 54.45 -9.95 54.45 -7.15 M49.45 1.5 L49.45 -1.6 40.5 -1.6 40.5 -4.55 54.6 -4.55 54.6 -1.6 53.15 -1.6 53.15 1.5 53.15 9.05 Q53.15 11.9 49.65 11.9 L43.1 11.9 43.1 8.85 48.8 8.85 Q49.45 8.85 49.45 8.3 L49.45 1.5 53.15 1.5 M32.25 1.5 L32.25 -0.6 33.55 -0.6 Q34.35 -0.6 34.75 -1.6 L35.6 -3.75 35.1 -3.7 32.5 -3.7 32.5 -6.85 33.65 -6.85 Q34.3 -6.85 34.6 -7.7 L35.6 -10.45 39.5 -10.45 37.35 -5.4 37.05 -4.8 39.9 -4.8 37.45 0.9 37.45 1.5 37.45 11.9 33.9 11.9 33.9 2.55 32.25 2.55 32.25 1.5 37.45 1.5 M14.95 1.5 L14.95 -0.5 20.55 -0.5 20.55 -4.65 15.4 -4.65 15.4 -7.75 20.55 -7.75 20.55 -10.3 24.2 -10.3 24.2 -7.75 29.35 -7.75 29.35 -4.65 24.2 -4.65 24.2 -0.5 29.85 -0.5 29.85 1.5 29.85 2.6 23.3 2.6 19.75 8.8 25.25 8.8 Q25.85 8.8 25.85 8.3 L25.85 5.15 29.25 5.15 29.25 9.35 Q29.25 11.7 26.7 11.7 L15.5 11.7 15.5 9.05 19.05 2.6 14.95 2.6 14.95 1.5 29.85 1.5 M14.1 -3.65 L11.1 -3.65 Q9.45 -3.65 9.05 -5.3 L7.85 -9.4 11.35 -9.4 11.95 -7.35 Q12.15 -6.6 12.75 -6.6 L14.1 -6.6 14.1 -3.65 M-11.9 1.5 L-11.8 1.05 -17.5 1.05 -17.5 -2.1 -11.05 -2.1 -9.85 -7.05 -16.65 -7.05 -16.65 -10.05 3.85 -10.05 3.85 -7.05 -6.3 -7.05 -7.55 -2.1 4.7 -2.1 4.7 1.05 -8.35 1.05 -8.45 1.5 -10.55 9.75 Q-11.05 12.0 -12.35 12.0 L-17.5 12.0 -17.5 9.05 -14.2 9.05 Q-13.85 9.05 -13.65 8.3 L-11.9 1.5 -8.45 1.5 M9.15 1.5 L7.95 -2.5 11.45 -2.5 12.05 -0.45 Q12.25 0.4 12.85 0.4 L14.4 0.4 14.4 1.5 14.4 3.3 11.2 3.3 Q9.55 3.3 9.15 1.6 L9.15 1.5 14.4 1.5 M10.7 4.6 L14.2 4.6 12.95 10.0 Q12.45 11.9 10.6 11.9 L7.95 11.9 7.95 8.95 9.4 8.95 Q9.75 8.95 9.95 8.25 L10.7 4.6 M4.85 12.05 L-3.1 12.05 Q-5.25 12.05 -5.25 10.35 L-5.25 2.45 -1.65 2.45 -1.65 8.7 Q-1.65 9.15 -0.9 9.15 L4.85 9.15 4.85 12.05 M-26.75 -10.05 L-40.9 -10.05 -40.9 -8.7 -26.75 -8.7 -26.75 -10.05 M-26.75 -5.85 L-40.9 -5.85 -40.9 -4.45 -26.75 -4.45 -26.75 -5.85 M-34.95 9.25 L-26.5 9.25 -26.5 12.5 -36.0 12.5 Q-40.35 12.5 -40.35 9.25 L-40.35 3.75 -36.0 3.75 -36.0 8.45 Q-36.0 9.25 -34.95 9.25 M-29.9 5.25 L-28.25 5.25 -28.25 8.35 -32.25 8.35 Q-34.7 8.35 -34.7 6.55 L-34.7 3.75 -30.65 3.75 -30.65 4.7 Q-30.65 5.25 -29.9 5.25 M-26.75 -1.65 L-40.9 -1.65 -40.9 -0.35 -27.55 -0.35 Q-26.75 -0.35 -26.75 -1.3 L-26.75 -1.65 M-26.9 3.75 L-22.65 3.75 -21.6 8.1 Q-21.4 8.9 -21.0 8.9 L-20.4 8.9 -20.4 12.45 -22.65 12.45 Q-24.5 12.45 -25.1 10.3 L-26.9 3.75 M-56.8 -9.1 Q-56.15 -8.55 -54.65 -8.55 L-52.4 -8.55 -52.4 -5.65 -56.65 -5.65 Q-59.9 -5.65 -61.25 -7.7 L-62.75 -10.0 -57.55 -10.0 -56.8 -9.1 M-75.65 1.5 L-75.65 0.95 -75.35 0.3 -74.1 -1.75 -76.45 -1.75 -76.45 -5.15 -51.35 -5.15 -51.35 -1.75 -69.4 -1.75 -70.7 0.0 -56.9 0.0 Q-56.15 0.0 -56.15 -0.6 L-56.15 -1.3 -52.05 -1.3 -52.05 0.85 -52.2 1.5 -52.9 2.45 Q-53.95 3.4 -55.5 3.4 L-61.55 3.4 -61.55 4.6 -51.95 4.6 -51.95 7.95 -61.55 7.95 -61.55 9.0 -51.0 9.0 -51.0 12.5 -76.8 12.5 -76.8 9.0 -65.9 9.0 -65.9 7.95 -75.75 7.95 -75.75 4.6 -65.9 4.6 -65.9 3.4 -75.65 3.4 -75.65 1.5 -52.2 1.5 M-45.4 3.75 L-41.3 3.75 -42.8 10.25 Q-43.35 12.5 -45.65 12.5 L-47.4 12.5 -47.4 9.15 -47.0 9.15 Q-46.6 9.15 -46.3 8.2 L-45.4 3.75 M-70.5 -10.0 L-65.3 -10.0 Q-66.7 -7.15 -68.0 -6.45 -69.3 -5.65 -71.05 -5.65 L-75.5 -5.65 -75.5 -8.55 -72.55 -8.55 Q-71.3 -8.55 -70.5 -10.0 Z" fill="none" stroke="#330033" stroke-linecap="round" stroke-linejoin="round" stroke-width="3.0"/>
    <path d="M7.85 -9.4 L11.35 -9.4 11.95 -7.35 Q12.15 -6.6 12.75 -6.6 L14.1 -6.6 14.1 -3.65 11.1 -3.65 Q9.45 -3.65 9.05 -5.3 L7.85 -9.4 M-11.8 1.15 L-11.8 1.05 -17.5 1.05 -17.5 -2.1 -11.05 -2.1 -9.85 -7.05 -16.65 -7.05 -16.65 -10.05 3.85 -10.05 3.85 -7.05 -6.3 -7.05 -7.55 -2.1 4.7 -2.1 4.7 1.05 -8.35 1.05 -8.35 1.15 -11.8 1.15 M9.05 1.15 L7.95 -2.5 11.45 -2.5 12.05 -0.45 12.35 0.15 Q12.5 0.4 12.85 0.4 L14.4 0.4 14.4 1.15 9.05 1.15 M14.95 1.15 L14.95 -0.5 20.55 -0.5 20.55 -4.65 15.4 -4.65 15.4 -7.75 20.55 -7.75 20.55 -10.3 24.2 -10.3 24.2 -7.75 29.35 -7.75 29.35 -4.65 24.2 -4.65 24.2 -0.5 29.85 -0.5 29.85 1.15 14.95 1.15 M32.25 1.15 L32.25 -0.6 33.55 -0.6 Q34.35 -0.6 34.75 -1.6 L35.6 -3.75 35.1 -3.7 32.5 -3.7 32.5 -6.85 33.65 -6.85 Q34.3 -6.85 34.6 -7.7 L35.6 -10.45 39.5 -10.45 37.35 -5.4 37.05 -4.8 39.9 -4.8 37.45 0.9 37.45 1.15 32.25 1.15 M49.45 1.15 L49.45 -1.6 40.5 -1.6 40.5 -4.55 54.6 -4.55 54.6 -1.6 53.15 -1.6 53.15 1.15 49.45 1.15 M40.9 -9.95 L54.45 -9.95 54.45 -7.15 40.9 -7.15 40.9 -9.95 M57.85 -9.2 L67.35 -9.2 67.35 -5.95 57.85 -5.95 57.85 -9.2 M70.1 1.15 L70.55 -5.5 68.4 -5.5 68.4 -8.5 70.7 -8.5 70.85 -10.4 74.3 -10.4 74.15 -8.5 79.35 -8.5 79.35 1.15 76.0 1.15 76.0 -5.5 73.9 -5.5 73.45 1.15 70.1 1.15 M59.35 1.15 L59.55 0.15 57.35 0.15 57.35 -3.05 67.85 -3.05 67.85 0.15 62.95 0.15 62.75 1.15 59.35 1.15 M-61.55 -13.75 L-50.75 -13.75 -50.75 -9.0 -54.9 -9.0 -54.9 -10.55 -72.9 -10.55 -72.9 -9.0 -77.0 -9.0 -77.0 -13.75 -66.0 -13.75 -66.0 -15.0 -61.55 -15.0 -61.55 -13.75 M-75.65 1.15 L-75.65 0.95 -75.35 0.3 -74.1 -1.75 -76.45 -1.75 -76.45 -5.15 -51.35 -5.15 -51.35 -1.75 -69.4 -1.75 -70.7 0.0 -56.9 0.0 Q-56.15 0.0 -56.15 -0.6 L-56.15 -1.3 -52.05 -1.3 -52.05 0.85 -52.05 1.15 -75.65 1.15 M-75.5 -5.65 L-75.5 -8.55 -72.55 -8.55 Q-71.3 -8.55 -70.5 -10.0 L-65.3 -10.0 Q-66.7 -7.15 -68.0 -6.45 -69.3 -5.65 -71.05 -5.65 L-75.5 -5.65 M-62.75 -10.0 L-57.55 -10.0 -56.8 -9.1 Q-56.15 -8.55 -54.65 -8.55 L-52.4 -8.55 -52.4 -5.65 -56.65 -5.65 Q-59.9 -5.65 -61.25 -7.7 L-62.75 -10.0 M-40.9 -0.35 L-27.55 -0.35 Q-26.75 -0.35 -26.75 -1.3 L-26.75 -1.65 -40.9 -1.65 -40.9 -0.35 M-40.9 -8.7 L-26.75 -8.7 -26.75 -10.05 -40.9 -10.05 -40.9 -8.7 M-40.9 -4.45 L-26.75 -4.45 -26.75 -5.85 -40.9 -5.85 -40.9 -4.45 M-45.15 1.15 L-45.15 -13.15 -39.5 -13.15 -38.95 -14.65 -33.2 -14.65 -33.7 -13.15 -22.55 -13.15 -22.55 0.15 Q-22.55 0.7 -22.7 1.15 L-45.15 1.15" fill="#d8b3fd" fill-rule="evenodd" stroke="none"/>
    <path d="M-8.35 1.15 L-10.55 9.75 Q-11.05 12.0 -12.35 12.0 L-17.5 12.0 -17.5 9.05 -14.2 9.05 Q-13.85 9.05 -13.65 8.3 L-11.8 1.15 -8.35 1.15 M14.4 1.15 L14.4 3.3 11.2 3.3 Q9.55 3.3 9.15 1.65 L9.15 1.5 9.05 1.15 14.4 1.15 M29.85 1.15 L29.85 2.6 23.3 2.6 19.75 8.8 25.25 8.8 Q25.85 8.8 25.85 8.3 L25.85 5.15 29.25 5.15 29.25 9.35 Q29.25 11.7 26.7 11.7 L15.5 11.7 15.5 9.05 19.05 2.6 14.95 2.6 14.95 1.15 29.85 1.15 M37.45 1.15 L37.45 11.9 33.9 11.9 33.9 2.55 32.25 2.55 32.25 1.15 37.45 1.15 M49.45 1.15 L53.15 1.15 53.15 9.05 Q53.15 11.9 49.65 11.9 L43.1 11.9 43.1 8.85 48.8 8.85 Q49.45 8.85 49.45 8.3 L49.45 1.15 M79.35 1.15 L79.35 9.25 Q79.35 11.8 76.4 11.8 L73.8 11.8 73.8 8.95 75.35 8.95 Q76.0 8.95 76.0 8.35 L76.0 1.15 79.35 1.15 M73.45 1.15 L72.95 8.3 Q72.7 12.0 71.4 12.0 L68.2 12.0 68.2 9.25 69.15 9.25 Q69.7 9.25 69.75 6.65 L70.1 1.15 73.45 1.15 M62.75 1.15 L60.95 8.85 63.6 8.85 Q64.2 8.85 64.2 8.35 L64.2 5.55 67.35 5.55 67.35 9.55 Q67.35 10.25 66.65 10.95 65.85 11.8 64.7 11.8 L57.6 11.8 57.6 9.65 57.8 8.1 59.35 1.15 62.75 1.15 M14.2 4.6 L12.95 10.0 Q12.45 11.9 10.6 11.9 L7.95 11.9 7.95 8.95 9.4 8.95 Q9.75 8.95 9.95 8.25 L10.7 4.6 14.2 4.6 M4.85 12.05 L-3.1 12.05 Q-5.25 12.05 -5.25 10.35 L-5.25 2.45 -1.65 2.45 -1.65 8.7 Q-1.65 9.15 -0.9 9.15 L4.85 9.15 4.85 12.05 M-52.05 1.15 L-52.2 1.5 -52.25 1.65 -52.9 2.45 Q-53.95 3.4 -55.5 3.4 L-61.55 3.4 -61.55 4.6 -51.95 4.6 -51.95 7.95 -61.55 7.95 -61.55 9.0 -51.0 9.0 -51.0 12.5 -76.8 12.5 -76.8 9.0 -65.9 9.0 -65.9 7.95 -75.75 7.95 -75.75 4.6 -65.9 4.6 -65.9 3.4 -75.65 3.4 -75.65 1.15 -52.05 1.15 M-22.7 1.15 L-22.85 1.5 -22.95 1.65 Q-23.7 2.7 -25.6 2.7 L-45.15 2.7 -45.15 1.15 -22.7 1.15 M-28.25 5.25 L-28.25 8.35 -32.25 8.35 Q-34.7 8.35 -34.7 6.55 L-34.7 3.75 -30.65 3.75 -30.65 4.7 Q-30.65 5.25 -29.9 5.25 L-28.25 5.25 M-21.0 8.9 L-20.4 8.9 -20.4 12.45 -22.65 12.45 Q-24.5 12.45 -25.1 10.3 L-26.9 3.75 -22.65 3.75 -21.6 8.1 Q-21.4 8.9 -21.0 8.9 M-36.0 3.75 L-36.0 8.45 Q-36.0 9.25 -34.95 9.25 L-26.5 9.25 -26.5 12.5 -36.0 12.5 Q-40.35 12.5 -40.35 9.25 L-40.35 3.75 -36.0 3.75 M-41.3 3.75 L-42.8 10.25 Q-43.35 12.5 -45.65 12.5 L-47.4 12.5 -47.4 9.15 -47.0 9.15 Q-46.6 9.15 -46.3 8.2 L-45.4 3.75 -41.3 3.75" fill="#a855fb" fill-rule="evenodd" stroke="none"/>
  </g>
</svg>
