<?xml version="1.0" encoding="UTF-8" standalone="no"?>
<svg xmlns:xlink="http://www.w3.org/1999/xlink" height="32.85px" width="162.5px" xmlns="http://www.w3.org/2000/svg">
  <g transform="matrix(1.0, 0.0, 0.0, 1.0, 76.0, 16.0)">
    <path d="M-46.5 -13.0 L-46.5 -11.5 Q-46.5 -8.8 -49.65 -8.8 L-55.0 -8.8 -54.55 -7.3 -46.4 -7.3 -46.4 -4.1 -53.5 -4.1 Q-52.9 -2.85 -51.55 -2.85 L-46.6 -2.85 -46.6 0.35 -53.75 0.35 Q-55.6 0.35 -56.9 -2.35 L-57.6 -4.1 -69.0 -4.1 -69.0 -3.3 Q-69.0 -2.7 -68.3 -2.7 L-60.0 -2.7 -60.0 0.45 -70.65 0.45 Q-72.85 0.45 -72.85 -1.4 L-72.85 -11.95 -51.1 -11.95 Q-50.5 -11.95 -50.15 -13.0 L-46.5 -13.0 M-38.15 -12.65 L-38.15 -7.5 -42.3 -7.5 -42.3 -12.65 -38.15 -12.65 M-29.05 1.35 L-29.05 -1.75 -36.9 -1.75 -36.9 -5.25 -29.05 -5.25 -29.05 -13.0 -24.95 -13.0 -24.95 -5.25 -17.2 -5.25 -17.2 -1.75 -24.95 -1.75 -24.95 1.35 -29.05 1.35 M74.35 1.35 L74.7 -4.1 72.55 -4.1 72.55 -7.1 74.85 -7.1 75.0 -9.0 78.45 -9.0 78.3 -7.1 83.5 -7.1 83.5 1.35 80.15 1.35 80.15 -4.1 78.05 -4.1 77.7 1.35 74.35 1.35 M71.5 -4.55 L62.0 -4.55 62.0 -7.8 71.5 -7.8 71.5 -4.55 M61.5 1.35 L61.5 -1.65 72.0 -1.65 72.0 1.35 61.5 1.35 M58.6 -5.75 L45.05 -5.75 45.05 -8.55 58.6 -8.55 58.6 -5.75 M53.6 1.35 L53.6 -0.2 44.65 -0.2 44.65 -3.15 58.75 -3.15 58.75 -0.2 57.3 -0.2 57.3 1.35 53.6 1.35 M36.4 1.35 L36.4 0.8 37.7 0.8 Q38.5 0.8 38.9 -0.2 L39.75 -2.35 39.25 -2.3 36.65 -2.3 36.65 -5.45 37.8 -5.45 Q38.45 -5.45 38.75 -6.3 L39.75 -9.05 43.65 -9.05 41.5 -4.0 41.2 -3.4 44.05 -3.4 42.0 1.35 36.4 1.35 M19.1 1.35 L19.1 0.9 24.7 0.9 24.7 -3.25 19.55 -3.25 19.55 -6.35 24.7 -6.35 24.7 -8.9 28.35 -8.9 28.35 -6.35 33.5 -6.35 33.5 -3.25 28.35 -3.25 28.35 0.9 34.0 0.9 34.0 1.35 19.1 1.35 M18.25 -2.25 L15.25 -2.25 Q13.6 -2.25 13.2 -3.9 L12.0 -8.0 15.5 -8.0 16.1 -5.95 Q16.3 -5.2 16.9 -5.2 L18.25 -5.2 18.25 -2.25 M12.85 1.35 L12.1 -1.1 15.6 -1.1 16.2 0.95 16.35 1.35 12.85 1.35 M-13.35 1.35 L-13.35 -0.7 -6.9 -0.7 -5.7 -5.65 -12.5 -5.65 -12.5 -8.65 8.0 -8.65 8.0 -5.65 -2.15 -5.65 -3.4 -0.7 8.85 -0.7 8.85 1.35 -13.35 1.35 M-22.0 -9.55 L-21.55 -11.75 -17.6 -11.75 -18.75 -7.4 Q-19.25 -5.85 -21.1 -5.85 L-23.65 -5.85 -23.65 -9.15 -22.35 -9.15 Q-22.15 -9.15 -22.0 -9.55 M-30.55 -5.85 L-33.15 -5.85 Q-34.65 -5.85 -35.15 -7.3 L-36.55 -11.75 -32.6 -11.75 -32.0 -9.55 -31.6 -9.15 -30.55 -9.15 -30.55 -5.85 M-35.0 1.35 L-34.8 -0.25 -30.65 -0.25 -30.95 1.35 -35.0 1.35 M-23.45 1.35 L-23.75 -0.25 -19.65 -0.25 -19.45 1.35 -23.45 1.35 M-41.9 1.35 L-41.9 -2.85 -43.0 -2.85 -43.0 -6.2 -38.05 -6.2 -38.05 1.35 -41.9 1.35 M-59.45 -8.8 L-69.0 -8.8 -69.0 -7.3 -58.85 -7.3 -59.45 -8.8" fill="#b9cfff" fill-rule="evenodd" stroke="none"/>
    <path d="M-24.95 1.35 L-24.95 9.5 -29.05 9.5 -29.05 1.35 -24.95 1.35 M83.5 1.35 L83.5 10.65 Q83.5 13.2 80.55 13.2 L77.95 13.2 77.95 10.35 79.5 10.35 Q80.15 10.35 80.15 9.75 L80.15 1.35 83.5 1.35 M77.7 1.35 L77.1 9.7 Q76.85 13.4 75.55 13.4 L72.35 13.4 72.35 10.65 73.3 10.65 Q73.85 10.65 73.9 8.05 L74.35 1.35 77.7 1.35 M72.0 1.35 L72.0 1.55 67.1 1.55 65.1 10.25 67.75 10.25 Q68.35 10.25 68.35 9.75 L68.35 6.95 71.5 6.95 71.5 10.95 Q71.5 11.65 70.8 12.35 70.0 13.2 68.85 13.2 L61.75 13.2 61.75 11.05 61.95 9.5 63.7 1.55 61.5 1.55 61.5 1.35 72.0 1.35 M57.3 1.35 L57.3 10.45 Q57.3 13.3 53.8 13.3 L47.25 13.3 47.25 10.25 52.95 10.25 Q53.6 10.25 53.6 9.7 L53.6 1.35 57.3 1.35 M42.0 1.35 L41.6 2.3 41.6 13.3 38.05 13.3 38.05 3.95 36.4 3.95 36.4 1.35 42.0 1.35 M34.0 1.35 L34.0 4.0 27.45 4.0 23.9 10.2 29.4 10.2 Q30.0 10.2 30.0 9.7 L30.0 6.55 33.4 6.55 33.4 10.75 Q33.4 13.1 30.85 13.1 L19.65 13.1 19.65 10.45 23.2 4.0 19.1 4.0 19.1 1.35 34.0 1.35 M16.35 1.35 L17.0 1.8 18.55 1.8 18.55 4.7 15.35 4.7 Q13.7 4.7 13.3 3.0 L12.85 1.35 16.35 1.35 M8.85 1.35 L8.85 2.45 -4.2 2.45 -6.4 11.15 Q-6.9 13.4 -8.2 13.4 L-13.35 13.4 -13.35 10.45 -10.05 10.45 Q-9.7 10.45 -9.5 9.7 L-7.65 2.45 -13.35 2.45 -13.35 1.35 8.85 1.35 M14.1 9.65 L14.85 6.0 18.35 6.0 17.1 11.4 Q16.6 13.3 14.75 13.3 L12.1 13.3 12.1 10.35 13.55 10.35 Q13.9 10.35 14.1 9.65 M9.0 13.45 L1.05 13.45 Q-1.1 13.45 -1.1 11.75 L-1.1 3.85 2.5 3.85 2.5 10.1 Q2.5 10.55 3.25 10.55 L9.0 10.55 9.0 13.45 M-30.95 1.35 L-32.05 6.9 Q-32.6 9.35 -34.65 9.35 L-36.9 9.35 -36.9 5.85 -36.1 5.85 Q-35.75 5.85 -35.55 4.85 L-35.0 1.35 -30.95 1.35 M-19.45 1.35 L-19.0 4.9 Q-18.75 5.85 -18.0 5.85 L-17.2 5.85 -17.2 9.25 -20.0 9.25 Q-21.85 9.25 -22.35 7.4 L-23.45 1.35 -19.45 1.35 M-38.05 1.35 L-38.05 9.25 Q-38.05 10.4 -36.75 10.4 L-16.4 10.4 -16.4 13.85 -37.25 13.85 Q-38.3 13.85 -38.9 12.75 -39.6 13.85 -41.1 13.85 L-43.0 13.85 -43.0 10.65 -42.75 10.65 Q-41.9 10.65 -41.9 9.95 L-41.9 1.35 -38.05 1.35 M-46.5 10.75 Q-46.5 13.6 -49.3 13.6 L-73.0 13.6 -73.0 1.3 -46.5 1.3 -46.5 10.75 M-50.35 9.0 L-69.1 9.0 -69.1 10.3 -51.1 10.3 Q-50.35 10.3 -50.35 9.25 L-50.35 9.0 M-50.35 4.55 L-69.1 4.55 -69.1 5.75 -50.35 5.75 -50.35 4.55" fill="#6699ff" fill-rule="evenodd" stroke="none"/>
    <path d="M-46.5 -13.0 L-46.5 -11.5 Q-46.5 -8.8 -49.65 -8.8 L-55.0 -8.8 -54.55 -7.3 -46.4 -7.3 -46.4 -4.1 -53.5 -4.1 Q-52.9 -2.85 -51.55 -2.85 L-46.6 -2.85 -46.6 0.35 -53.75 0.35 Q-55.6 0.35 -56.9 -2.35 L-57.6 -4.1 -69.0 -4.1 -69.0 -3.3 Q-69.0 -2.7 -68.3 -2.7 L-60.0 -2.7 -60.0 0.45 -70.65 0.45 Q-72.85 0.45 -72.85 -1.4 L-72.85 -11.95 -51.1 -11.95 Q-50.5 -11.95 -50.15 -13.0 L-46.5 -13.0 M-38.15 -12.65 L-38.15 -7.5 -42.3 -7.5 -42.3 -12.65 -38.15 -12.65 M-29.05 1.35 L-29.05 -1.75 -36.9 -1.75 -36.9 -5.25 -29.05 -5.25 -29.05 -13.0 -24.95 -13.0 -24.95 -5.25 -17.2 -5.25 -17.2 -1.75 -24.95 -1.75 -24.95 1.35 -24.95 9.5 -29.05 9.5 -29.05 1.35 -24.95 1.35 M74.35 1.35 L74.7 -4.1 72.55 -4.1 72.55 -7.1 74.85 -7.1 75.0 -9.0 78.45 -9.0 78.3 -7.1 83.5 -7.1 83.5 1.35 83.5 10.65 Q83.5 13.2 80.55 13.2 L77.95 13.2 77.95 10.35 79.5 10.35 Q80.15 10.35 80.15 9.75 L80.15 1.35 80.15 -4.1 78.05 -4.1 77.7 1.35 77.1 9.7 Q76.85 13.4 75.55 13.4 L72.35 13.4 72.35 10.65 73.3 10.65 Q73.85 10.65 73.9 8.05 L74.35 1.35 77.7 1.35 M71.5 -4.55 L62.0 -4.55 62.0 -7.8 71.5 -7.8 71.5 -4.55 M72.0 1.35 L72.0 1.55 67.1 1.55 65.1 10.25 67.75 10.25 Q68.35 10.25 68.35 9.75 L68.35 6.95 71.5 6.95 71.5 10.95 Q71.5 11.65 70.8 12.35 70.0 13.2 68.85 13.2 L61.75 13.2 61.75 11.05 61.95 9.5 63.7 1.55 61.5 1.55 61.5 1.35 61.5 -1.65 72.0 -1.65 72.0 1.35 61.5 1.35 M83.5 1.35 L80.15 1.35 M58.6 -5.75 L45.05 -5.75 45.05 -8.55 58.6 -8.55 58.6 -5.75 M53.6 1.35 L53.6 -0.2 44.65 -0.2 44.65 -3.15 58.75 -3.15 58.75 -0.2 57.3 -0.2 57.3 1.35 57.3 10.45 Q57.3 13.3 53.8 13.3 L47.25 13.3 47.25 10.25 52.95 10.25 Q53.6 10.25 53.6 9.7 L53.6 1.35 57.3 1.35 M36.4 1.35 L36.4 0.8 37.7 0.8 Q38.5 0.8 38.9 -0.2 L39.75 -2.35 39.25 -2.3 36.65 -2.3 36.65 -5.45 37.8 -5.45 Q38.45 -5.45 38.75 -6.3 L39.75 -9.05 43.65 -9.05 41.5 -4.0 41.2 -3.4 44.05 -3.4 42.0 1.35 41.6 2.3 41.6 13.3 38.05 13.3 38.05 3.95 36.4 3.95 36.4 1.35 42.0 1.35 M19.1 1.35 L19.1 0.9 24.7 0.9 24.7 -3.25 19.55 -3.25 19.55 -6.35 24.7 -6.35 24.7 -8.9 28.35 -8.9 28.35 -6.35 33.5 -6.35 33.5 -3.25 28.35 -3.25 28.35 0.9 34.0 0.9 34.0 1.35 34.0 4.0 27.45 4.0 23.9 10.2 29.4 10.2 Q30.0 10.2 30.0 9.7 L30.0 6.55 33.4 6.55 33.4 10.75 Q33.4 13.1 30.85 13.1 L19.65 13.1 19.65 10.45 23.2 4.0 19.1 4.0 19.1 1.35 34.0 1.35 M18.25 -2.25 L15.25 -2.25 Q13.6 -2.25 13.2 -3.9 L12.0 -8.0 15.5 -8.0 16.1 -5.95 Q16.3 -5.2 16.9 -5.2 L18.25 -5.2 18.25 -2.25 M12.85 1.35 L12.1 -1.1 15.6 -1.1 16.2 0.95 16.35 1.35 17.0 1.8 18.55 1.8 18.55 4.7 15.35 4.7 Q13.7 4.7 13.3 3.0 L12.85 1.35 16.35 1.35 M-13.35 1.35 L-13.35 -0.7 -6.9 -0.7 -5.7 -5.65 -12.5 -5.65 -12.5 -8.65 8.0 -8.65 8.0 -5.65 -2.15 -5.65 -3.4 -0.7 8.85 -0.7 8.85 1.35 8.85 2.45 -4.2 2.45 -6.4 11.15 Q-6.9 13.4 -8.2 13.4 L-13.35 13.4 -13.35 10.45 -10.05 10.45 Q-9.7 10.45 -9.5 9.7 L-7.65 2.45 -13.35 2.45 -13.35 1.35 8.85 1.35 M14.1 9.65 L14.85 6.0 18.35 6.0 17.1 11.4 Q16.6 13.3 14.75 13.3 L12.1 13.3 12.1 10.35 13.55 10.35 Q13.9 10.35 14.1 9.65 M9.0 13.45 L1.05 13.45 Q-1.1 13.45 -1.1 11.75 L-1.1 3.85 2.5 3.85 2.5 10.1 Q2.5 10.55 3.25 10.55 L9.0 10.55 9.0 13.45 M-22.0 -9.55 L-21.55 -11.75 -17.6 -11.75 -18.75 -7.4 Q-19.25 -5.85 -21.1 -5.85 L-23.65 -5.85 -23.65 -9.15 -22.35 -9.15 Q-22.15 -9.15 -22.0 -9.55 M-30.55 -5.85 L-33.15 -5.85 Q-34.65 -5.85 -35.15 -7.3 L-36.55 -11.75 -32.6 -11.75 -32.0 -9.55 -31.6 -9.15 -30.55 -9.15 -30.55 -5.85 M-30.95 1.35 L-32.05 6.9 Q-32.6 9.35 -34.65 9.35 L-36.9 9.35 -36.9 5.85 -36.1 5.85 Q-35.75 5.85 -35.55 4.85 L-35.0 1.35 -34.8 -0.25 -30.65 -0.25 -30.95 1.35 -35.0 1.35 M-19.45 1.35 L-19.0 4.9 Q-18.75 5.85 -18.0 5.85 L-17.2 5.85 -17.2 9.25 -20.0 9.25 Q-21.85 9.25 -22.35 7.4 L-23.45 1.35 -23.75 -0.25 -19.65 -0.25 -19.45 1.35 -23.45 1.35 M-38.05 1.35 L-38.05 9.25 Q-38.05 10.4 -36.75 10.4 L-16.4 10.4 -16.4 13.85 -37.25 13.85 Q-38.3 13.85 -38.9 12.75 -39.6 13.85 -41.1 13.85 L-43.0 13.85 -43.0 10.65 -42.75 10.65 Q-41.9 10.65 -41.9 9.95 L-41.9 1.35 -41.9 -2.85 -43.0 -2.85 -43.0 -6.2 -38.05 -6.2 -38.05 1.35 -41.9 1.35 M-46.5 10.75 Q-46.5 13.6 -49.3 13.6 L-73.0 13.6 -73.0 1.3 -46.5 1.3 -46.5 10.75 M-50.35 9.0 L-69.1 9.0 -69.1 10.3 -51.1 10.3 Q-50.35 10.3 -50.35 9.25 L-50.35 9.0 M-50.35 4.55 L-69.1 4.55 -69.1 5.75 -50.35 5.75 -50.35 4.55 M-59.45 -8.8 L-69.0 -8.8 -69.0 -7.3 -58.85 -7.3 -59.45 -8.8 Z" fill="none" stroke="#ffffff" stroke-linecap="round" stroke-linejoin="round" stroke-width="6.0"/>
    <path d="M-38.15 -12.65 L-38.15 -7.5 -42.3 -7.5 -42.3 -12.65 -38.15 -12.65 M-46.5 -13.0 L-46.5 -11.5 Q-46.5 -8.8 -49.65 -8.8 L-55.0 -8.8 -54.55 -7.3 -46.4 -7.3 -46.4 -4.1 -53.5 -4.1 Q-52.9 -2.85 -51.55 -2.85 L-46.6 -2.85 -46.6 0.35 -53.75 0.35 Q-55.6 0.35 -56.9 -2.35 L-57.6 -4.1 -69.0 -4.1 -69.0 -3.3 Q-69.0 -2.7 -68.3 -2.7 L-60.0 -2.7 -60.0 0.45 -70.65 0.45 Q-72.85 0.45 -72.85 -1.4 L-72.85 -11.95 -51.1 -11.95 Q-50.5 -11.95 -50.15 -13.0 L-46.5 -13.0 M-29.05 1.35 L-29.05 -1.75 -36.9 -1.75 -36.9 -5.25 -29.05 -5.25 -29.05 -13.0 -24.95 -13.0 -24.95 -5.25 -17.2 -5.25 -17.2 -1.75 -24.95 -1.75 -24.95 1.35 -29.05 1.35 M71.5 -4.55 L62.0 -4.55 62.0 -7.8 71.5 -7.8 71.5 -4.55 M74.35 1.35 L74.7 -4.1 72.55 -4.1 72.55 -7.1 74.85 -7.1 75.0 -9.0 78.45 -9.0 78.3 -7.1 83.5 -7.1 83.5 1.35 80.15 1.35 80.15 -4.1 78.05 -4.1 77.7 1.35 74.35 1.35 M61.5 1.35 L61.5 -1.65 72.0 -1.65 72.0 1.35 61.5 1.35 M53.6 1.35 L53.6 -0.2 44.65 -0.2 44.65 -3.15 58.75 -3.15 58.75 -0.2 57.3 -0.2 57.3 1.35 53.6 1.35 M58.6 -5.75 L45.05 -5.75 45.05 -8.55 58.6 -8.55 58.6 -5.75 M36.4 1.35 L36.4 0.8 37.7 0.8 Q38.5 0.8 38.9 -0.2 L39.75 -2.35 39.25 -2.3 36.65 -2.3 36.65 -5.45 37.8 -5.45 Q38.45 -5.45 38.75 -6.3 L39.75 -9.05 43.65 -9.05 41.5 -4.0 41.2 -3.4 44.05 -3.4 42.0 1.35 36.4 1.35 M19.1 1.35 L19.1 0.9 24.7 0.9 24.7 -3.25 19.55 -3.25 19.55 -6.35 24.7 -6.35 24.7 -8.9 28.35 -8.9 28.35 -6.35 33.5 -6.35 33.5 -3.25 28.35 -3.25 28.35 0.9 34.0 0.9 34.0 1.35 19.1 1.35 M18.25 -2.25 L15.25 -2.25 Q13.6 -2.25 13.2 -3.9 L12.0 -8.0 15.5 -8.0 16.1 -5.95 Q16.3 -5.2 16.9 -5.2 L18.25 -5.2 18.25 -2.25 M-13.35 1.35 L-13.35 -0.7 -6.9 -0.7 -5.7 -5.65 -12.5 -5.65 -12.5 -8.65 8.0 -8.65 8.0 -5.65 -2.15 -5.65 -3.4 -0.7 8.85 -0.7 8.85 1.35 -13.35 1.35 M12.85 1.35 L12.1 -1.1 15.6 -1.1 16.2 0.95 16.35 1.35 12.85 1.35 M-22.0 -9.55 L-21.55 -11.75 -17.6 -11.75 -18.75 -7.4 Q-19.25 -5.85 -21.1 -5.85 L-23.65 -5.85 -23.65 -9.15 -22.35 -9.15 Q-22.15 -9.15 -22.0 -9.55 M-30.55 -5.85 L-33.15 -5.85 Q-34.65 -5.85 -35.15 -7.3 L-36.55 -11.75 -32.6 -11.75 -32.0 -9.55 -31.6 -9.15 -30.55 -9.15 -30.55 -5.85 M-35.0 1.35 L-34.8 -0.25 -30.65 -0.25 -30.95 1.35 -35.0 1.35 M-23.45 1.35 L-23.75 -0.25 -19.65 -0.25 -19.45 1.35 -23.45 1.35 M-41.9 1.35 L-41.9 -2.85 -43.0 -2.85 -43.0 -6.2 -38.05 -6.2 -38.05 1.35 -41.9 1.35 M-59.45 -8.8 L-69.0 -8.8 -69.0 -7.3 -58.85 -7.3 -59.45 -8.8" fill="#b9cfff" fill-rule="evenodd" stroke="none"/>
    <path d="M-24.95 1.35 L-24.95 9.5 -29.05 9.5 -29.05 1.35 -24.95 1.35 M83.5 1.35 L83.5 10.65 Q83.5 13.2 80.55 13.2 L77.95 13.2 77.95 10.35 79.5 10.35 Q80.15 10.35 80.15 9.75 L80.15 1.35 83.5 1.35 M77.7 1.35 L77.1 9.7 Q76.85 13.4 75.55 13.4 L72.35 13.4 72.35 10.65 73.3 10.65 Q73.85 10.65 73.9 8.05 L74.35 1.35 77.7 1.35 M72.0 1.35 L72.0 1.55 67.1 1.55 65.1 10.25 67.75 10.25 Q68.35 10.25 68.35 9.75 L68.35 6.95 71.5 6.95 71.5 10.95 Q71.5 11.65 70.8 12.35 70.0 13.2 68.85 13.2 L61.75 13.2 61.75 11.05 61.95 9.5 63.7 1.55 61.5 1.55 61.5 1.35 72.0 1.35 M57.3 1.35 L57.3 10.45 Q57.3 13.3 53.8 13.3 L47.25 13.3 47.25 10.25 52.95 10.25 Q53.6 10.25 53.6 9.7 L53.6 1.35 57.3 1.35 M42.0 1.35 L41.6 2.3 41.6 13.3 38.05 13.3 38.05 3.95 36.4 3.95 36.4 1.35 42.0 1.35 M34.0 1.35 L34.0 4.0 27.45 4.0 23.9 10.2 29.4 10.2 Q30.0 10.2 30.0 9.7 L30.0 6.55 33.4 6.55 33.4 10.75 Q33.4 13.1 30.85 13.1 L19.65 13.1 19.65 10.45 23.2 4.0 19.1 4.0 19.1 1.35 34.0 1.35 M8.85 1.35 L8.85 2.45 -4.2 2.45 -6.4 11.15 Q-6.9 13.4 -8.2 13.4 L-13.35 13.4 -13.35 10.45 -10.05 10.45 Q-9.7 10.45 -9.5 9.7 L-7.65 2.45 -13.35 2.45 -13.35 1.35 8.85 1.35 M16.35 1.35 L17.0 1.8 18.55 1.8 18.55 4.7 15.35 4.7 Q13.7 4.7 13.3 3.0 L12.85 1.35 16.35 1.35 M14.1 9.65 L14.85 6.0 18.35 6.0 17.1 11.4 Q16.6 13.3 14.75 13.3 L12.1 13.3 12.1 10.35 13.55 10.35 Q13.9 10.35 14.1 9.65 M9.0 13.45 L1.05 13.45 Q-1.1 13.45 -1.1 11.75 L-1.1 3.85 2.5 3.85 2.5 10.1 Q2.5 10.55 3.25 10.55 L9.0 10.55 9.0 13.45 M-30.95 1.35 L-32.05 6.9 Q-32.6 9.35 -34.65 9.35 L-36.9 9.35 -36.9 5.85 -36.1 5.85 Q-35.75 5.85 -35.55 4.85 L-35.0 1.35 -30.95 1.35 M-19.45 1.35 L-19.0 4.9 Q-18.75 5.85 -18.0 5.85 L-17.2 5.85 -17.2 9.25 -20.0 9.25 Q-21.85 9.25 -22.35 7.4 L-23.45 1.35 -19.45 1.35 M-38.05 1.35 L-38.05 9.25 Q-38.05 10.4 -36.75 10.4 L-16.4 10.4 -16.4 13.85 -37.25 13.85 Q-38.3 13.85 -38.9 12.75 -39.6 13.85 -41.1 13.85 L-43.0 13.85 -43.0 10.65 -42.75 10.65 Q-41.9 10.65 -41.9 9.95 L-41.9 1.35 -38.05 1.35 M-50.35 4.55 L-69.1 4.55 -69.1 5.75 -50.35 5.75 -50.35 4.55 M-50.35 9.0 L-69.1 9.0 -69.1 10.3 -51.1 10.3 Q-50.35 10.3 -50.35 9.25 L-50.35 9.0 M-46.5 10.75 Q-46.5 13.6 -49.3 13.6 L-73.0 13.6 -73.0 1.3 -46.5 1.3 -46.5 10.75" fill="#6699ff" fill-rule="evenodd" stroke="none"/>
    <path d="M-38.15 -12.65 L-38.15 -7.5 -42.3 -7.5 -42.3 -12.65 -38.15 -12.65 M-46.5 -13.0 L-46.5 -11.5 Q-46.5 -8.8 -49.65 -8.8 L-55.0 -8.8 -54.55 -7.3 -46.4 -7.3 -46.4 -4.1 -53.5 -4.1 Q-52.9 -2.85 -51.55 -2.85 L-46.6 -2.85 -46.6 0.35 -53.75 0.35 Q-55.6 0.35 -56.9 -2.35 L-57.6 -4.1 -69.0 -4.1 -69.0 -3.3 Q-69.0 -2.7 -68.3 -2.7 L-60.0 -2.7 -60.0 0.45 -70.65 0.45 Q-72.85 0.45 -72.85 -1.4 L-72.85 -11.95 -51.1 -11.95 Q-50.5 -11.95 -50.15 -13.0 L-46.5 -13.0 M-29.05 1.35 L-29.05 -1.75 -36.9 -1.75 -36.9 -5.25 -29.05 -5.25 -29.05 -13.0 -24.95 -13.0 -24.95 -5.25 -17.2 -5.25 -17.2 -1.75 -24.95 -1.75 -24.95 1.35 -24.95 9.5 -29.05 9.5 -29.05 1.35 -24.95 1.35 M71.5 -4.55 L62.0 -4.55 62.0 -7.8 71.5 -7.8 71.5 -4.55 M74.35 1.35 L74.7 -4.1 72.55 -4.1 72.55 -7.1 74.85 -7.1 75.0 -9.0 78.45 -9.0 78.3 -7.1 83.5 -7.1 83.5 1.35 83.5 10.65 Q83.5 13.2 80.55 13.2 L77.95 13.2 77.95 10.35 79.5 10.35 Q80.15 10.35 80.15 9.75 L80.15 1.35 80.15 -4.1 78.05 -4.1 77.7 1.35 77.1 9.7 Q76.85 13.4 75.55 13.4 L72.35 13.4 72.35 10.65 73.3 10.65 Q73.85 10.65 73.9 8.05 L74.35 1.35 77.7 1.35 M72.0 1.35 L72.0 1.55 67.1 1.55 65.1 10.25 67.75 10.25 Q68.35 10.25 68.35 9.75 L68.35 6.95 71.5 6.95 71.5 10.95 Q71.5 11.65 70.8 12.35 70.0 13.2 68.85 13.2 L61.75 13.2 61.75 11.05 61.95 9.5 63.7 1.55 61.5 1.55 61.5 1.35 61.5 -1.65 72.0 -1.65 72.0 1.35 61.5 1.35 M83.5 1.35 L80.15 1.35 M53.6 1.35 L53.6 -0.2 44.65 -0.2 44.65 -3.15 58.75 -3.15 58.75 -0.2 57.3 -0.2 57.3 1.35 57.3 10.45 Q57.3 13.3 53.8 13.3 L47.25 13.3 47.25 10.25 52.95 10.25 Q53.6 10.25 53.6 9.7 L53.6 1.35 57.3 1.35 M58.6 -5.75 L45.05 -5.75 45.05 -8.55 58.6 -8.55 58.6 -5.75 M36.4 1.35 L36.4 0.8 37.7 0.8 Q38.5 0.8 38.9 -0.2 L39.75 -2.35 39.25 -2.3 36.65 -2.3 36.65 -5.45 37.8 -5.45 Q38.45 -5.45 38.75 -6.3 L39.75 -9.05 43.65 -9.05 41.5 -4.0 41.2 -3.4 44.05 -3.4 42.0 1.35 41.6 2.3 41.6 13.3 38.05 13.3 38.05 3.95 36.4 3.95 36.4 1.35 42.0 1.35 M19.1 1.35 L19.1 0.9 24.7 0.9 24.7 -3.25 19.55 -3.25 19.55 -6.35 24.7 -6.35 24.7 -8.9 28.35 -8.9 28.35 -6.35 33.5 -6.35 33.5 -3.25 28.35 -3.25 28.35 0.9 34.0 0.9 34.0 1.35 34.0 4.0 27.45 4.0 23.9 10.2 29.4 10.2 Q30.0 10.2 30.0 9.7 L30.0 6.55 33.4 6.55 33.4 10.75 Q33.4 13.1 30.85 13.1 L19.65 13.1 19.65 10.45 23.2 4.0 19.1 4.0 19.1 1.35 34.0 1.35 M18.25 -2.25 L15.25 -2.25 Q13.6 -2.25 13.2 -3.9 L12.0 -8.0 15.5 -8.0 16.1 -5.95 Q16.3 -5.2 16.9 -5.2 L18.25 -5.2 18.25 -2.25 M-13.35 1.35 L-13.35 -0.7 -6.9 -0.7 -5.7 -5.65 -12.5 -5.65 -12.5 -8.65 8.0 -8.65 8.0 -5.65 -2.15 -5.65 -3.4 -0.7 8.85 -0.7 8.85 1.35 8.85 2.45 -4.2 2.45 -6.4 11.15 Q-6.9 13.4 -8.2 13.4 L-13.35 13.4 -13.35 10.45 -10.05 10.45 Q-9.7 10.45 -9.5 9.7 L-7.65 2.45 -13.35 2.45 -13.35 1.35 8.85 1.35 M12.85 1.35 L12.1 -1.1 15.6 -1.1 16.2 0.95 16.35 1.35 17.0 1.8 18.55 1.8 18.55 4.7 15.35 4.7 Q13.7 4.7 13.3 3.0 L12.85 1.35 16.35 1.35 M14.1 9.65 L14.85 6.0 18.35 6.0 17.1 11.4 Q16.6 13.3 14.75 13.3 L12.1 13.3 12.1 10.35 13.55 10.35 Q13.9 10.35 14.1 9.65 M9.0 13.45 L1.05 13.45 Q-1.1 13.45 -1.1 11.75 L-1.1 3.85 2.5 3.85 2.5 10.1 Q2.5 10.55 3.25 10.55 L9.0 10.55 9.0 13.45 M-22.0 -9.55 L-21.55 -11.75 -17.6 -11.75 -18.75 -7.4 Q-19.25 -5.85 -21.1 -5.85 L-23.65 -5.85 -23.65 -9.15 -22.35 -9.15 Q-22.15 -9.15 -22.0 -9.55 M-30.55 -5.85 L-33.15 -5.85 Q-34.65 -5.85 -35.15 -7.3 L-36.55 -11.75 -32.6 -11.75 -32.0 -9.55 -31.6 -9.15 -30.55 -9.15 -30.55 -5.85 M-30.95 1.35 L-32.05 6.9 Q-32.6 9.35 -34.65 9.35 L-36.9 9.35 -36.9 5.85 -36.1 5.85 Q-35.75 5.85 -35.55 4.85 L-35.0 1.35 -34.8 -0.25 -30.65 -0.25 -30.95 1.35 -35.0 1.35 M-19.45 1.35 L-19.0 4.9 Q-18.75 5.85 -18.0 5.85 L-17.2 5.85 -17.2 9.25 -20.0 9.25 Q-21.85 9.25 -22.35 7.4 L-23.45 1.35 -23.75 -0.25 -19.65 -0.25 -19.45 1.35 -23.45 1.35 M-38.05 1.35 L-38.05 9.25 Q-38.05 10.4 -36.75 10.4 L-16.4 10.4 -16.4 13.85 -37.25 13.85 Q-38.3 13.85 -38.9 12.75 -39.6 13.85 -41.1 13.85 L-43.0 13.85 -43.0 10.65 -42.75 10.65 Q-41.9 10.65 -41.9 9.95 L-41.9 1.35 -41.9 -2.85 -43.0 -2.85 -43.0 -6.2 -38.05 -6.2 -38.05 1.35 -41.9 1.35 M-50.35 4.55 L-69.1 4.55 -69.1 5.75 -50.35 5.75 -50.35 4.55 M-50.35 9.0 L-69.1 9.0 -69.1 10.3 -51.1 10.3 Q-50.35 10.3 -50.35 9.25 L-50.35 9.0 M-46.5 10.75 Q-46.5 13.6 -49.3 13.6 L-73.0 13.6 -73.0 1.3 -46.5 1.3 -46.5 10.75 M-59.45 -8.8 L-69.0 -8.8 -69.0 -7.3 -58.85 -7.3 -59.45 -8.8 Z" fill="none" stroke="#002675" stroke-linecap="round" stroke-linejoin="round" stroke-width="3.0"/>
    <path d="M-13.35 1.35 L-13.35 -0.7 -6.9 -0.7 -5.7 -5.65 -12.5 -5.65 -12.5 -8.65 8.0 -8.65 8.0 -5.65 -2.15 -5.65 -3.4 -0.7 8.85 -0.7 8.85 1.35 -13.35 1.35 M18.25 -2.25 L15.25 -2.25 Q13.6 -2.25 13.2 -3.9 L12.0 -8.0 15.5 -8.0 16.1 -5.95 Q16.3 -5.2 16.9 -5.2 L18.25 -5.2 18.25 -2.25 M19.1 1.35 L19.1 0.9 24.7 0.9 24.7 -3.25 19.55 -3.25 19.55 -6.35 24.7 -6.35 24.7 -8.9 28.35 -8.9 28.35 -6.35 33.5 -6.35 33.5 -3.25 28.35 -3.25 28.35 0.9 34.0 0.9 34.0 1.35 19.1 1.35 M12.85 1.35 L12.1 -1.1 15.6 -1.1 16.2 0.95 16.35 1.35 12.85 1.35 M36.4 1.35 L36.4 0.8 37.7 0.8 Q38.5 0.8 38.9 -0.2 L39.75 -2.35 39.25 -2.3 36.65 -2.3 36.65 -5.45 37.8 -5.45 Q38.45 -5.45 38.75 -6.3 L39.75 -9.05 43.65 -9.05 41.5 -4.0 41.2 -3.4 44.05 -3.4 42.0 1.35 36.4 1.35 M53.6 1.35 L53.6 -0.2 44.65 -0.2 44.65 -3.15 58.75 -3.15 58.75 -0.2 57.3 -0.2 57.3 1.35 53.6 1.35 M45.05 -8.55 L58.6 -8.55 58.6 -5.75 45.05 -5.75 45.05 -8.55 M62.0 -7.8 L71.5 -7.8 71.5 -4.55 62.0 -4.55 62.0 -7.8 M74.35 1.35 L74.7 -4.1 72.55 -4.1 72.55 -7.1 74.85 -7.1 75.0 -9.0 78.45 -9.0 78.3 -7.1 83.5 -7.1 83.5 1.35 80.15 1.35 80.15 -4.1 78.05 -4.1 77.7 1.35 74.35 1.35 M61.5 1.35 L61.5 -1.65 72.0 -1.65 72.0 1.35 61.5 1.35 M-69.0 -7.3 L-58.85 -7.3 -59.45 -8.8 -69.0 -8.8 -69.0 -7.3 M-72.85 -11.95 L-51.1 -11.95 Q-50.5 -11.95 -50.15 -13.0 L-46.5 -13.0 -46.5 -11.5 Q-46.5 -8.8 -49.65 -8.8 L-55.0 -8.8 -54.55 -7.3 -46.4 -7.3 -46.4 -4.1 -53.5 -4.1 Q-52.9 -2.85 -51.55 -2.85 L-46.6 -2.85 -46.6 0.35 -53.75 0.35 Q-55.6 0.35 -56.9 -2.35 L-57.6 -4.1 -69.0 -4.1 -69.0 -3.3 Q-69.0 -2.7 -68.3 -2.7 L-60.0 -2.7 -60.0 0.45 -70.65 0.45 Q-72.85 0.45 -72.85 -1.4 L-72.85 -11.95 M-41.9 1.35 L-41.9 -2.85 -43.0 -2.85 -43.0 -6.2 -38.05 -6.2 -38.05 1.35 -41.9 1.35 M-42.3 -12.65 L-38.15 -12.65 -38.15 -7.5 -42.3 -7.5 -42.3 -12.65 M-29.05 1.35 L-29.05 -1.75 -36.9 -1.75 -36.9 -5.25 -29.05 -5.25 -29.05 -13.0 -24.95 -13.0 -24.95 -5.25 -17.2 -5.25 -17.2 -1.75 -24.95 -1.75 -24.95 1.35 -29.05 1.35 M-32.0 -9.55 L-31.6 -9.15 -30.55 -9.15 -30.55 -5.85 -33.15 -5.85 Q-34.65 -5.85 -35.15 -7.3 L-36.55 -11.75 -32.6 -11.75 -32.0 -9.55 M-35.0 1.35 L-34.8 -0.25 -30.65 -0.25 -30.95 1.35 -35.0 1.35 M-23.65 -5.85 L-23.65 -9.15 -22.35 -9.15 Q-22.15 -9.15 -22.0 -9.55 L-21.55 -11.75 -17.6 -11.75 -18.75 -7.4 Q-19.25 -5.85 -21.1 -5.85 L-23.65 -5.85 M-23.45 1.35 L-23.75 -0.25 -19.65 -0.25 -19.45 1.35 -23.45 1.35" fill="#b9cfff" fill-rule="evenodd" stroke="none"/>
    <path d="M8.85 1.35 L8.85 2.45 -4.2 2.45 -6.4 11.15 Q-6.9 13.4 -8.2 13.4 L-13.35 13.4 -13.35 10.45 -10.05 10.45 Q-9.7 10.45 -9.5 9.7 L-7.65 2.45 -13.35 2.45 -13.35 1.35 8.85 1.35 M34.0 1.35 L34.0 4.0 27.45 4.0 23.9 10.2 29.4 10.2 Q30.0 10.2 30.0 9.7 L30.0 6.55 33.4 6.55 33.4 10.75 Q33.4 13.1 30.85 13.1 L19.65 13.1 19.65 10.45 23.2 4.0 19.1 4.0 19.1 1.35 34.0 1.35 M16.35 1.35 L17.0 1.8 18.55 1.8 18.55 4.7 15.35 4.7 Q13.7 4.7 13.3 3.0 L12.85 1.35 16.35 1.35 M42.0 1.35 L41.6 2.3 41.6 13.3 38.05 13.3 38.05 3.95 36.4 3.95 36.4 1.35 42.0 1.35 M57.3 1.35 L57.3 10.45 Q57.3 13.3 53.8 13.3 L47.25 13.3 47.25 10.25 52.95 10.25 Q53.6 10.25 53.6 9.7 L53.6 1.35 57.3 1.35 M83.5 1.35 L83.5 10.65 Q83.5 13.2 80.55 13.2 L77.95 13.2 77.95 10.35 79.5 10.35 Q80.15 10.35 80.15 9.75 L80.15 1.35 83.5 1.35 M77.7 1.35 L77.1 9.7 Q76.85 13.4 75.55 13.4 L72.35 13.4 72.35 10.65 73.3 10.65 Q73.85 10.65 73.9 8.05 L74.35 1.35 77.7 1.35 M72.0 1.35 L72.0 1.55 67.1 1.55 65.1 10.25 67.75 10.25 Q68.35 10.25 68.35 9.75 L68.35 6.95 71.5 6.95 71.5 10.95 Q71.5 11.65 70.8 12.35 70.0 13.2 68.85 13.2 L61.75 13.2 61.75 11.05 61.95 9.5 63.7 1.55 61.5 1.55 61.5 1.35 72.0 1.35 M13.55 10.35 Q13.9 10.35 14.1 9.65 L14.85 6.0 18.35 6.0 17.1 11.4 Q16.6 13.3 14.75 13.3 L12.1 13.3 12.1 10.35 13.55 10.35 M9.0 10.55 L9.0 13.45 1.05 13.45 Q-1.1 13.45 -1.1 11.75 L-1.1 3.85 2.5 3.85 2.5 10.1 Q2.5 10.55 3.25 10.55 L9.0 10.55 M-38.05 1.35 L-38.05 9.25 Q-38.05 10.4 -36.75 10.4 L-16.4 10.4 -16.4 13.85 -37.25 13.85 Q-38.3 13.85 -38.9 12.75 -39.6 13.85 -41.1 13.85 L-43.0 13.85 -43.0 10.65 -42.75 10.65 Q-41.9 10.65 -41.9 9.95 L-41.9 1.35 -38.05 1.35 M-24.95 1.35 L-24.95 9.5 -29.05 9.5 -29.05 1.35 -24.95 1.35 M-30.95 1.35 L-32.05 6.9 Q-32.6 9.35 -34.65 9.35 L-36.9 9.35 -36.9 5.85 -36.1 5.85 Q-35.75 5.85 -35.55 4.85 L-35.0 1.35 -30.95 1.35 M-19.45 1.35 L-19.0 4.9 Q-18.75 5.85 -18.0 5.85 L-17.2 5.85 -17.2 9.25 -20.0 9.25 Q-21.85 9.25 -22.35 7.4 L-23.45 1.35 -19.45 1.35 M-46.5 10.75 Q-46.5 13.6 -49.3 13.6 L-73.0 13.6 -73.0 1.3 -46.5 1.3 -46.5 10.75 M-50.35 9.0 L-69.1 9.0 -69.1 10.3 -51.1 10.3 Q-50.35 10.3 -50.35 9.25 L-50.35 9.0 M-50.35 4.55 L-69.1 4.55 -69.1 5.75 -50.35 5.75 -50.35 4.55" fill="#6699ff" fill-rule="evenodd" stroke="none"/>
  </g>
</svg>
