<?xml version="1.0" encoding="UTF-8" standalone="no"?>
<svg xmlns:xlink="http://www.w3.org/1999/xlink" height="159.0px" width="215.75px" xmlns="http://www.w3.org/2000/svg">
  <g transform="matrix(1.0, 0.0, 0.0, 1.0, 3.15, 2.7)">
    <path d="M180.15 128.2 L185.7 130.45 187.6 131.2 206.0 137.95 Q183.35 136.05 163.65 131.15 102.75 116.0 70.6 72.6 L57.25 108.1 1.85 151.3 63.0 2.3 93.45 23.4 75.35 54.95 Q112.9 22.35 158.85 16.5 154.35 18.2 150.25 20.2 115.2 36.8 109.35 67.5 106.45 82.5 124.65 97.85 134.3 106.15 146.55 112.5 154.25 116.75 163.65 121.05 171.35 124.6 180.15 128.2" fill="#00ffff" fill-rule="evenodd" stroke="none"/>
    <path d="M180.15 128.2 L185.7 130.45 187.6 131.2 206.0 137.95 Q183.35 136.05 163.65 131.15 102.75 116.0 70.6 72.6 L57.25 108.1 1.85 151.3 63.0 2.3 93.45 23.4 75.35 54.95 Q112.9 22.35 158.85 16.5 154.35 18.2 150.25 20.2 115.2 36.8 109.35 67.5 106.45 82.5 124.65 97.85 134.3 106.15 146.55 112.5 154.25 116.75 163.65 121.05 171.35 124.6 180.15 128.2 Z" fill="none" stroke="#ffffcc" stroke-linecap="round" stroke-linejoin="round" stroke-width="10.0"/>
    <path d="M163.5 14.8 L160.8 15.9 Q157.55 17.2 147.1 22.7 136.6 28.2 125.8 39.6 99.15 39.85 70.15 64.2 L79.35 50.05 76.55 54.85 Q115.25 21.25 162.6 14.95 L163.5 14.8 M63.7 0.0 L94.15 21.2 18.4 110.4 63.7 0.0" fill="url(#gradient0)" fill-rule="evenodd" stroke="none"/>
    <path d="M187.6 131.2 L206.0 137.95 Q183.35 136.05 163.65 131.15 102.75 116.0 70.6 72.6 L57.25 108.1 1.85 151.3 63.0 2.3 93.45 23.4 75.35 54.95 Q112.9 22.35 158.85 16.5 154.35 18.2 150.25 20.2 115.2 36.8 109.35 67.5 106.45 82.5 124.65 97.85 134.3 106.15 146.55 112.5 154.25 116.75 163.65 121.05 171.35 124.6 180.15 128.2 L185.7 130.45 187.6 131.2" fill="#00ffff" fill-rule="evenodd" stroke="none"/>
    <path d="M187.6 131.2 L206.0 137.95 Q183.35 136.05 163.65 131.15 102.75 116.0 70.6 72.6 L57.25 108.1 1.85 151.3 63.0 2.3 93.45 23.4 75.35 54.95 Q112.9 22.35 158.85 16.5 154.35 18.2 150.25 20.2 115.2 36.8 109.35 67.5 106.45 82.5 124.65 97.85 134.3 106.15 146.55 112.5 154.25 116.75 163.65 121.05 171.35 124.6 180.15 128.2 L185.7 130.45 187.6 131.2 Z" fill="none" stroke="#10161b" stroke-linecap="round" stroke-linejoin="round" stroke-width="10.0"/>
    <path d="M154.55 18.65 Q118.0 35.95 111.9 67.9 106.0 98.75 185.65 131.1 L183.8 130.65 193.4 134.2 212.6 141.25 Q90.15 106.8 108.95 58.05 118.2 34.1 142.7 22.25 146.25 20.4 154.55 18.65" fill="url(#gradient1)" fill-rule="evenodd" stroke="none"/>
    <path d="M95.35 22.0 L76.55 54.85 Q115.65 20.9 163.5 14.8 158.8 16.6 154.55 18.65 146.25 20.4 142.7 22.25 109.1 33.85 74.45 63.35 70.35 64.0 67.3 69.85 L88.55 24.15 95.35 22.0" fill="url(#gradient2)" fill-rule="evenodd" stroke="none"/>
    <path d="M63.7 0.0 L95.35 22.0 88.55 24.15 66.55 6.1 63.7 0.0" fill="url(#gradient3)" fill-rule="evenodd" stroke="none"/>
    <path d="M142.7 22.25 Q118.2 34.1 108.95 58.05 90.15 106.8 212.6 141.25 110.85 130.6 74.45 63.35 109.1 33.85 142.7 22.25" fill="url(#gradient4)" fill-rule="evenodd" stroke="none"/>
    <path d="M0.0 155.15 L63.7 0.0 66.55 6.1 11.05 141.1 0.0 155.15" fill="url(#gradient5)" fill-rule="evenodd" stroke="none"/>
    <path d="M212.6 141.25 Q115.85 133.0 71.6 73.2 L57.7 110.15 51.55 108.1 67.3 69.85 Q70.35 64.0 74.45 63.35 110.85 130.6 212.6 141.25" fill="url(#gradient6)" fill-rule="evenodd" stroke="none"/>
    <path d="M57.7 110.15 L0.0 155.15 11.05 141.1 51.55 108.1 57.7 110.15" fill="url(#gradient7)" fill-rule="evenodd" stroke="none"/>
    <path d="M67.3 69.85 L51.55 108.1 11.05 141.1 66.55 6.1 88.55 24.15 67.3 69.85" fill="url(#gradient8)" fill-rule="evenodd" stroke="none"/>
    <path d="M163.5 14.8 L160.8 15.9 Q157.55 17.2 147.1 22.7 136.6 28.2 125.8 39.6 99.15 39.85 70.15 64.2 L79.35 50.05 76.55 54.85 Q115.25 21.25 162.6 14.95 L163.5 14.8 M18.4 110.4 L63.7 0.0 94.15 21.2 18.4 110.4" fill="url(#gradient9)" fill-rule="evenodd" stroke="none"/>
  </g>
  <defs>
    <linearGradient gradientTransform="matrix(0.0, -0.0819, 0.0947, 0.0, 111.35, 77.55)" gradientUnits="userSpaceOnUse" id="gradient0" spreadMethod="pad" x1="-819.2" x2="819.2">
      <stop offset="0.0" stop-color="#ffffff" stop-opacity="0.0"/>
      <stop offset="1.0" stop-color="#f3eff5" stop-opacity="0.6"/>
    </linearGradient>
    <linearGradient gradientTransform="matrix(-0.0485, 0.013, -0.0178, -0.0663, 124.3, 65.45)" gradientUnits="userSpaceOnUse" id="gradient1" spreadMethod="pad" x1="-819.2" x2="819.2">
      <stop offset="0.0" stop-color="#ff6600"/>
      <stop offset="1.0" stop-color="#f7f554"/>
    </linearGradient>
    <linearGradient gradientTransform="matrix(-0.023, 0.0398, -0.0291, -0.0168, 106.9, 41.35)" gradientUnits="userSpaceOnUse" id="gradient2" spreadMethod="pad" x1="-819.2" x2="819.2">
      <stop offset="0.0" stop-color="#ff6600"/>
      <stop offset="1.0" stop-color="#f7f554"/>
    </linearGradient>
    <linearGradient gradientTransform="matrix(0.0193, 0.0, 0.0, 0.0134, 79.5, 11.0)" gradientUnits="userSpaceOnUse" id="gradient3" spreadMethod="pad" x1="-819.2" x2="819.2">
      <stop offset="0.0" stop-color="#ff6600"/>
      <stop offset="1.0" stop-color="#f7f554"/>
    </linearGradient>
    <linearGradient gradientTransform="matrix(-0.0389, -0.0672, 0.0675, -0.0391, 132.05, 77.7)" gradientUnits="userSpaceOnUse" id="gradient4" spreadMethod="pad" x1="-819.2" x2="819.2">
      <stop offset="0.0" stop-color="#ff6600"/>
      <stop offset="1.0" stop-color="#f7f554"/>
    </linearGradient>
    <linearGradient gradientTransform="matrix(0.0336, -0.009, 0.0245, 0.0913, 52.8, 41.45)" gradientUnits="userSpaceOnUse" id="gradient5" spreadMethod="pad" x1="-819.2" x2="819.2">
      <stop offset="0.0" stop-color="#ff6600"/>
      <stop offset="1.0" stop-color="#f7f554"/>
    </linearGradient>
    <linearGradient gradientTransform="matrix(0.0951, 0.0953, -0.0355, 0.0354, 135.65, 71.05)" gradientUnits="userSpaceOnUse" id="gradient6" spreadMethod="pad" x1="-819.2" x2="819.2">
      <stop offset="0.0" stop-color="#ff6600"/>
      <stop offset="1.0" stop-color="#f7f554"/>
    </linearGradient>
    <linearGradient gradientTransform="matrix(0.0352, 0.0, 0.0, 0.0293, 28.85, 131.1)" gradientUnits="userSpaceOnUse" id="gradient7" spreadMethod="pad" x1="-819.2" x2="819.2">
      <stop offset="0.0" stop-color="#ff6600"/>
      <stop offset="1.0" stop-color="#f7f554"/>
    </linearGradient>
    <linearGradient gradientTransform="matrix(0.0372, 0.0, 0.0, 0.0693, 52.05, 70.85)" gradientUnits="userSpaceOnUse" id="gradient8" spreadMethod="pad" x1="-819.2" x2="819.2">
      <stop offset="0.0" stop-color="#ff6600"/>
      <stop offset="1.0" stop-color="#f7f554"/>
    </linearGradient>
    <linearGradient gradientTransform="matrix(0.0, -0.0819, 0.0947, 0.0, 111.35, 77.55)" gradientUnits="userSpaceOnUse" id="gradient9" spreadMethod="pad" x1="-819.2" x2="819.2">
      <stop offset="0.0" stop-color="#ffffff" stop-opacity="0.0"/>
      <stop offset="1.0" stop-color="#f3eff5" stop-opacity="0.6"/>
    </linearGradient>
  </defs>
</svg>
