<?xml version="1.0" encoding="UTF-8" standalone="no"?>
<svg xmlns:xlink="http://www.w3.org/1999/xlink" height="52.55px" width="366.55px" xmlns="http://www.w3.org/2000/svg">
  <g transform="matrix(1.0, 0.0, 0.0, 1.0, 111.8, -69.75)">
    <path d="M245.6 71.6 L245.6 69.8 248.75 69.8 248.75 71.6 254.2 71.6 254.2 74.15 248.75 74.15 248.75 75.8 254.35 75.8 254.35 78.55 239.5 78.55 239.5 75.8 245.6 75.8 245.6 74.15 242.9 74.15 Q242.4 75.25 241.3 75.25 L239.6 75.25 239.6 72.7 240.3 72.7 240.95 72.2 241.65 70.4 244.45 70.4 243.95 71.6 245.6 71.6 M254.0 84.3 Q254.0 86.1 251.75 86.1 L240.2 86.1 240.2 79.4 254.0 79.4 254.0 84.3 M250.95 81.85 L243.25 81.85 243.25 83.65 250.2 83.65 Q250.95 83.65 250.95 83.0 L250.95 81.85 M254.75 89.65 L241.2 89.65 Q239.8 89.65 238.6 88.7 237.4 89.65 235.3 89.65 L235.3 86.85 Q236.3 86.5 236.3 86.1 L236.3 79.75 235.2 79.75 235.2 76.85 239.1 76.85 239.1 85.4 Q239.1 85.85 240.05 86.5 L241.75 86.95 254.75 86.95 254.75 89.65 M188.2 69.75 L188.2 71.95 189.45 71.95 189.45 74.55 188.2 74.55 188.2 86.45 Q188.2 87.6 187.45 88.45 186.8 89.15 185.65 89.15 L180.75 89.15 180.75 86.65 184.55 86.65 Q185.15 86.65 185.15 85.5 L185.15 74.55 178.45 74.55 178.45 71.95 185.15 71.95 185.15 69.75 188.2 69.75 M178.05 70.6 L178.05 86.85 Q178.05 89.05 175.75 89.05 L170.55 89.05 170.55 70.6 178.05 70.6 M173.3 73.05 L173.3 78.1 175.4 78.1 175.4 73.05 173.3 73.05 M181.95 76.5 L182.75 80.65 Q182.9 81.4 183.45 81.4 L184.4 81.4 184.4 84.15 182.0 84.15 Q180.7 84.15 180.35 82.6 L178.95 76.5 181.95 76.5 M174.8 86.6 Q175.4 86.6 175.4 86.1 L175.4 80.6 173.3 80.6 173.3 86.6 174.8 86.6 M194.2 83.65 L197.9 83.65 197.9 88.2 Q197.9 90.25 195.6 90.25 L193.45 90.25 193.45 88.75 196.1 88.75 196.1 87.45 194.2 87.45 194.2 83.65 M228.65 72.85 Q229.05 73.9 229.55 73.9 L231.2 73.9 231.2 76.6 228.15 76.6 Q227.25 76.6 226.7 75.65 L224.7 72.5 216.9 72.5 214.9 75.65 Q214.3 76.6 213.4 76.6 L210.35 76.6 210.35 73.9 212.0 73.9 Q212.5 73.9 212.95 72.85 L214.6 69.8 227.05 69.8 228.65 72.85 M235.8 74.05 L235.8 70.65 239.25 70.65 239.25 74.05 235.8 74.05 M210.35 82.05 L231.2 82.05 231.2 84.8 218.0 84.8 215.5 87.9 226.65 87.9 Q227.2 87.9 227.2 87.45 L227.2 86.05 230.45 86.05 230.45 88.55 Q230.45 89.2 229.75 89.8 228.95 90.6 227.75 90.6 L210.9 90.6 210.9 88.65 Q210.9 88.4 211.35 87.9 L213.9 84.8 210.35 84.8 210.35 82.05 M210.6 77.8 L230.65 77.8 230.65 80.6 210.6 80.6 210.6 77.8 M101.9 72.5 Q101.25 73.2 99.95 73.2 L97.05 73.2 97.05 75.75 102.2 75.75 102.2 78.4 97.05 78.4 97.05 80.6 102.9 80.6 102.9 83.3 97.05 83.3 97.05 86.95 Q97.05 89.3 93.9 89.3 L84.45 89.3 84.45 86.75 93.15 86.75 Q93.75 86.75 93.75 86.35 L93.75 83.3 83.4 83.3 83.4 80.6 93.75 80.6 93.75 78.4 84.1 78.4 84.1 75.75 93.75 75.75 93.75 73.2 83.6 73.2 83.6 70.6 98.55 70.6 Q99.3 70.6 99.6 69.8 L102.8 69.8 Q102.65 71.7 101.9 72.5 M107.9 71.35 L108.25 70.0 111.5 70.0 111.1 71.35 113.95 71.35 113.95 73.8 114.55 73.8 114.9 73.15 115.45 69.9 118.35 69.9 118.0 71.45 124.35 71.45 124.35 86.95 Q124.35 89.25 121.75 89.25 L116.2 89.25 116.2 86.6 120.7 86.6 Q121.4 86.6 121.4 86.0 L121.4 74.2 117.45 74.2 117.35 74.65 Q117.0 76.25 115.45 76.25 L113.95 76.25 113.95 87.35 Q113.95 89.3 111.8 89.3 L105.3 89.3 105.3 71.35 107.9 71.35 M108.2 74.0 L108.2 78.8 111.05 78.8 111.05 74.0 108.2 74.0 M118.0 85.15 Q116.7 85.15 116.3 83.65 L114.8 76.95 117.75 76.95 118.8 81.7 Q118.9 82.45 119.45 82.45 L120.9 82.45 120.9 85.15 118.0 85.15 M108.2 81.6 L108.2 86.65 110.4 86.65 Q111.05 86.65 111.05 86.1 L111.05 81.6 108.2 81.6 M81.25 74.65 L79.6 74.65 79.6 87.85 Q79.6 89.4 77.8 89.4 L73.8 89.4 73.8 86.85 76.1 86.85 Q76.5 86.85 76.5 86.45 L76.5 74.65 71.35 74.65 71.35 71.95 76.5 71.95 76.5 69.9 79.6 69.9 79.6 71.95 81.25 71.95 81.25 74.65 M29.65 71.35 L37.7 71.35 37.7 73.75 29.65 73.75 29.65 75.15 37.0 75.15 37.0 81.1 Q37.0 82.9 34.75 82.9 L32.6 82.9 32.6 86.6 Q32.6 87.1 33.4 87.1 L37.8 87.1 37.8 89.4 32.6 89.4 Q29.45 89.4 29.45 87.1 L29.45 82.9 19.05 82.9 19.05 75.15 26.35 75.15 26.35 73.75 18.4 73.75 18.4 71.35 26.35 71.35 26.35 69.8 29.65 69.8 29.65 71.35 M18.4 86.85 L22.1 86.85 Q22.5 86.85 22.75 86.3 L23.55 83.65 26.75 83.65 25.55 87.85 Q25.05 89.3 23.2 89.3 L18.4 89.3 18.4 86.85 M33.95 79.8 L33.95 77.6 22.05 77.6 22.05 80.4 33.2 80.4 Q33.95 80.4 33.95 79.8 M40.35 76.35 L44.8 76.35 44.8 74.4 43.25 74.4 43.2 74.6 Q42.75 76.0 41.6 76.0 L40.2 76.0 40.2 73.3 40.5 73.3 Q40.95 73.3 41.15 72.6 L41.8 70.35 44.65 70.35 44.15 71.75 44.8 71.75 44.8 69.8 47.6 69.8 47.6 71.75 51.45 71.75 51.45 74.4 47.6 74.4 47.6 76.35 52.0 76.35 52.0 79.05 47.6 79.05 47.6 80.25 51.7 80.25 51.7 86.6 Q51.7 88.8 49.3 88.8 L48.05 88.8 48.05 86.35 48.4 86.35 Q49.0 86.35 49.0 85.8 L49.0 82.8 47.6 82.8 47.6 89.4 44.8 89.4 44.8 82.8 43.55 82.8 43.55 88.65 40.75 88.65 40.75 80.25 44.8 80.25 44.8 79.05 40.35 79.05 40.35 76.35 M62.1 70.6 L70.8 70.6 70.8 73.4 68.1 81.3 70.25 85.65 Q70.65 86.6 71.2 86.6 L72.55 86.6 72.55 89.15 69.4 89.15 Q68.65 89.15 68.15 88.0 L66.85 85.15 66.15 87.1 Q65.5 89.15 64.5 89.15 L61.7 89.15 61.7 86.6 63.15 86.6 Q63.6 86.6 63.8 86.0 L65.15 81.55 61.95 74.65 64.85 74.65 66.35 77.75 67.7 73.3 62.1 73.3 62.1 70.6 M55.45 71.45 L55.45 85.05 52.7 85.05 52.7 71.45 55.45 71.45 M59.0 69.9 L59.0 86.85 Q59.0 88.0 58.25 88.75 57.7 89.4 56.6 89.4 L53.8 89.4 53.8 86.85 55.6 86.85 Q56.1 86.85 56.1 85.65 L56.1 69.9 59.0 69.9 M75.65 84.9 L73.65 84.9 Q72.4 84.9 72.05 83.45 L70.5 76.6 73.4 76.6 74.4 81.7 Q74.55 82.35 75.1 82.35 L75.65 82.35 75.65 84.9 M-55.4 72.95 L-55.4 70.35 -49.05 70.35 -49.05 87.0 Q-49.05 89.3 -51.75 89.3 L-56.25 89.3 -56.25 86.65 -52.8 86.65 Q-52.1 86.65 -52.1 86.1 L-52.1 72.95 -55.4 72.95 M-56.35 71.5 L-56.35 74.05 -58.9 74.05 Q-60.2 74.05 -60.55 72.6 L-61.35 69.9 -58.35 69.9 -58.1 70.85 Q-57.95 71.5 -57.4 71.5 L-56.35 71.5 M-43.9 71.35 L-43.55 70.0 -40.3 70.0 -40.7 71.35 -37.85 71.35 -37.85 73.8 -37.25 73.8 Q-37.05 73.8 -36.9 73.15 L-36.35 69.9 -33.45 69.9 -33.8 71.45 -27.45 71.45 -27.45 86.95 Q-27.45 89.25 -30.05 89.25 L-35.6 89.25 -35.6 86.6 -31.1 86.6 Q-30.4 86.6 -30.4 86.0 L-30.4 74.2 -34.35 74.2 -34.45 74.65 Q-34.8 76.25 -36.35 76.25 L-37.85 76.25 -37.85 87.35 Q-37.85 89.3 -40.0 89.3 L-46.5 89.3 -46.5 71.35 -43.9 71.35 M-43.6 74.0 L-43.6 78.8 -40.75 78.8 -40.75 74.0 -43.6 74.0 M-75.0 70.15 L-72.4 70.15 -72.4 71.5 Q-72.4 71.95 -71.85 71.95 L-71.3 71.95 -71.3 74.15 -73.5 74.15 Q-75.0 74.15 -75.0 72.9 L-75.0 70.15 M-75.85 69.9 L-75.85 74.9 -70.95 74.9 -70.95 77.6 -75.85 77.6 -75.85 82.8 -75.1 82.8 Q-74.6 82.8 -74.6 82.25 L-74.6 78.55 -71.75 78.55 -71.75 82.95 Q-71.75 85.4 -74.45 85.4 L-75.85 85.4 -75.85 86.1 Q-75.85 86.65 -75.1 86.65 L-70.85 86.65 -70.85 89.3 -75.85 89.3 Q-78.95 89.3 -78.95 86.65 L-78.95 85.4 -80.45 85.4 -80.45 82.8 -78.95 82.8 -78.95 77.6 -82.65 77.6 -82.65 79.05 -80.6 79.05 -80.6 81.75 -82.65 81.75 -82.65 86.85 Q-82.65 89.4 -85.5 89.4 L-89.05 89.4 -89.05 86.65 -86.3 86.65 Q-85.7 86.65 -85.7 86.15 L-85.7 83.8 -86.25 84.35 Q-86.75 84.8 -87.4 84.8 L-89.85 84.8 -89.85 82.35 -88.75 82.35 Q-88.0 82.35 -87.7 81.95 L-85.7 79.75 -85.7 77.6 -89.85 77.6 -89.85 74.9 -85.7 74.9 -85.7 73.3 -89.5 73.3 -89.5 70.75 -84.5 70.75 Q-83.9 70.75 -83.65 69.9 L-80.8 69.9 Q-80.9 71.8 -81.55 72.55 -82.0 73.05 -82.65 73.2 L-82.65 74.9 -78.95 74.9 -78.95 69.9 -75.85 69.9 M-65.0 69.9 L-61.9 69.9 -63.65 74.25 -63.65 89.4 -66.55 89.4 -66.55 76.5 -68.45 76.5 -68.45 73.9 -66.85 73.9 Q-66.45 73.9 -66.2 73.25 L-65.0 69.9 M-62.35 74.9 L-59.45 74.9 -59.45 89.4 -62.35 89.4 -62.35 74.9 M-40.75 81.6 L-43.6 81.6 -43.6 86.65 -41.4 86.65 Q-40.75 86.65 -40.75 86.1 L-40.75 81.6 M-33.8 85.15 Q-35.1 85.15 -35.5 83.65 L-37.0 76.95 -34.05 76.95 -33.0 81.7 Q-32.9 82.45 -32.35 82.45 L-30.9 82.45 -30.9 85.15 -33.8 85.15 M-97.05 72.7 Q-96.8 72.7 -96.65 72.4 L-96.05 70.9 -92.55 70.9 -93.7 74.15 Q-94.15 75.25 -95.85 75.25 L-99.2 75.25 -99.2 72.7 -97.05 72.7 M-105.1 72.7 L-105.1 75.25 -108.6 75.25 Q-110.05 75.25 -110.45 73.8 L-111.2 71.0 -107.9 71.0 -107.65 72.05 Q-107.5 72.7 -107.0 72.7 L-105.1 72.7 M-111.2 81.75 L-96.05 81.75 -96.05 79.55 -111.8 79.55 -111.8 76.85 -103.85 76.85 -103.85 70.0 -100.45 70.0 -100.45 76.85 -92.75 76.85 -92.75 86.95 Q-92.75 89.3 -95.7 89.3 L-111.8 89.3 -111.8 86.6 -96.8 86.6 Q-96.05 86.6 -96.05 86.0 L-96.05 84.45 -111.2 84.45 -111.2 81.75 M-90.1 104.75 Q-90.1 106.9 -92.45 106.9 L-94.8 106.9 -94.0 115.1 -93.4 115.1 Q-92.9 115.1 -92.9 114.7 L-92.9 108.5 -90.0 108.5 -90.0 115.3 Q-90.0 117.65 -92.7 117.65 L-93.75 117.65 -93.65 118.75 Q-93.5 119.5 -92.95 119.5 L-90.2 119.5 -90.2 122.15 -94.7 122.15 Q-96.45 122.15 -96.7 119.95 L-97.85 106.9 -105.75 106.9 -105.75 108.75 -99.0 108.75 -99.0 119.85 Q-99.0 122.1 -101.6 122.1 L-104.1 122.1 -104.1 119.5 -102.65 119.5 Q-101.95 119.5 -101.95 118.95 L-101.95 111.4 -105.75 111.4 -105.75 120.05 Q-105.75 122.25 -108.15 122.25 L-109.5 122.25 -109.5 119.7 -109.1 119.7 Q-108.75 119.7 -108.75 119.45 L-108.75 104.3 -98.1 104.3 -98.25 102.75 -95.2 102.75 -95.05 104.3 -93.55 104.3 Q-92.9 104.3 -92.9 103.25 L-90.1 103.25 -90.1 104.75" fill="#ffff00" fill-rule="evenodd" stroke="none"/>
    <path d="M163.8 73.05 L167.7 73.05 167.7 75.75 163.8 75.75 163.8 79.65 167.45 79.65 167.45 82.35 163.8 82.35 163.8 86.25 168.1 86.25 168.1 88.95 155.4 88.95 155.4 86.25 160.65 86.25 160.65 82.35 156.05 82.35 156.05 79.65 160.65 79.65 160.65 75.75 158.65 75.75 158.5 76.65 Q158.35 77.8 157.6 77.8 L155.4 77.8 155.4 75.5 154.7 75.5 154.7 89.25 152.0 89.25 152.0 75.5 151.1 75.5 151.1 88.45 148.55 88.45 148.55 70.75 151.1 70.75 151.1 72.95 152.0 72.95 152.0 69.9 154.7 69.9 154.7 72.95 155.65 72.95 155.65 75.5 155.85 75.5 Q156.1 75.5 156.15 74.85 L156.7 70.75 159.3 70.75 159.0 73.05 160.65 73.05 160.65 70.0 163.8 70.0 163.8 73.05 M143.1 72.05 L129.95 72.05 129.95 73.1 142.6 73.1 Q143.1 73.1 143.1 72.9 L143.1 72.05 M146.05 72.95 Q146.05 75.15 143.85 75.15 L129.95 75.15 129.95 86.45 Q129.95 88.0 129.25 88.75 128.55 89.55 126.65 89.55 L126.65 87.3 Q127.35 86.95 127.35 86.25 L127.35 69.9 146.05 69.9 146.05 72.95 M139.35 78.6 L145.4 78.6 145.4 81.75 Q145.4 83.0 144.05 83.0 L139.35 83.0 139.35 83.7 145.8 83.7 145.8 87.7 Q145.8 89.45 143.3 89.45 L142.0 89.45 142.0 88.35 Q141.65 88.7 140.7 88.7 L133.5 88.7 133.5 87.35 134.95 85.6 133.1 85.6 133.1 89.4 130.4 89.4 130.4 83.7 136.6 83.7 136.6 83.0 130.65 83.0 130.65 78.6 136.6 78.6 136.6 77.95 130.4 77.95 130.4 76.1 141.55 76.1 Q142.2 76.1 142.4 75.5 L145.3 75.5 Q145.2 76.9 144.5 77.45 143.85 77.95 142.7 77.95 L139.35 77.95 139.35 78.6 M133.35 80.3 L133.35 81.35 136.6 81.35 136.6 80.3 133.35 80.3 M139.35 81.35 L142.4 81.35 142.7 81.2 142.7 80.3 139.35 80.3 139.35 81.35 M140.15 87.0 L140.3 86.85 140.3 86.1 142.2 86.1 142.2 87.6 142.6 87.6 Q143.1 87.6 143.1 87.3 L143.1 85.6 137.7 85.6 136.4 87.0 140.15 87.0 M2.9 72.95 L3.85 72.95 3.85 75.5 4.05 75.5 Q4.3 75.5 4.35 74.85 L4.9 70.75 7.5 70.75 7.2 73.05 8.85 73.05 8.85 70.0 12.0 70.0 12.0 73.05 15.9 73.05 15.9 75.75 12.0 75.75 12.0 79.65 15.65 79.65 15.65 82.35 12.0 82.35 12.0 86.25 16.3 86.25 16.3 88.95 3.6 88.95 3.6 86.25 8.85 86.25 8.85 82.35 4.25 82.35 4.25 79.65 8.85 79.65 8.85 75.75 6.85 75.75 6.7 76.65 Q6.55 77.8 5.8 77.8 L3.6 77.8 3.6 75.5 2.9 75.5 2.9 89.25 0.2 89.25 0.2 75.5 -0.7 75.5 -0.7 88.45 -3.25 88.45 -3.25 70.75 -0.7 70.75 -0.7 72.95 0.2 72.95 0.2 69.9 2.9 69.9 2.9 72.95 M5.1 120.3 L1.35 120.3 1.35 116.35 5.1 116.35 5.1 120.3 M1.35 104.75 L5.1 104.75 5.1 107.95 4.15 114.85 2.25 114.85 1.35 107.95 1.35 104.75 M-8.7 72.9 L-8.7 72.05 -21.85 72.05 -21.85 73.1 -9.2 73.1 Q-8.7 73.1 -8.7 72.9 M-5.75 72.95 Q-5.75 75.15 -7.95 75.15 L-21.85 75.15 -21.85 86.45 Q-21.85 88.0 -22.55 88.75 -23.25 89.55 -25.15 89.55 L-25.15 87.3 Q-24.45 86.95 -24.45 86.25 L-24.45 69.9 -5.75 69.9 -5.75 72.95 M-21.4 76.1 L-10.25 76.1 Q-9.6 76.1 -9.4 75.5 L-6.5 75.5 Q-6.6 76.9 -7.3 77.45 -7.95 77.95 -9.1 77.95 L-12.45 77.95 -12.45 78.6 -6.4 78.6 -6.4 81.75 Q-6.4 83.0 -7.75 83.0 L-12.45 83.0 -12.45 83.7 -6.0 83.7 -6.0 87.7 Q-6.0 89.45 -8.5 89.45 L-9.8 89.45 -9.8 88.35 Q-10.15 88.7 -11.1 88.7 L-18.3 88.7 -18.3 87.35 -16.85 85.6 -18.7 85.6 -18.7 89.4 -21.4 89.4 -21.4 83.7 -15.2 83.7 -15.2 83.0 -21.15 83.0 -21.15 78.6 -15.2 78.6 -15.2 77.95 -21.4 77.95 -21.4 76.1 M-9.1 81.2 L-9.1 80.3 -12.45 80.3 -12.45 81.35 -9.4 81.35 Q-9.1 81.35 -9.1 81.2 M-18.45 80.3 L-18.45 81.35 -15.2 81.35 -15.2 80.3 -18.45 80.3 M-11.65 87.0 L-11.5 86.85 -11.5 86.1 -9.6 86.1 -9.6 87.6 -9.2 87.6 Q-8.7 87.6 -8.7 87.3 L-8.7 85.6 -14.1 85.6 -15.4 87.0 -11.65 87.0 M-87.75 105.45 L-87.75 102.95 -68.45 102.95 -68.45 105.45 -74.55 105.45 -74.75 107.5 -68.85 107.5 -68.85 119.85 Q-68.85 122.15 -71.5 122.15 L-74.45 122.15 -74.45 119.5 -72.5 119.5 Q-71.85 119.5 -71.85 118.95 L-71.85 117.9 -73.05 117.9 Q-74.15 117.9 -74.45 116.55 L-75.25 113.2 -75.6 117.45 Q-75.85 120.05 -76.9 120.05 L-83.05 120.05 -83.05 117.6 -78.85 117.6 Q-78.35 117.6 -78.3 115.8 L-78.3 115.55 -79.4 115.55 Q-80.4 115.55 -80.65 114.35 L-81.1 112.75 -81.25 114.8 Q-81.5 116.9 -82.45 116.9 L-84.45 116.9 -84.45 122.15 -87.45 122.15 -87.45 107.5 -83.35 107.5 -83.15 105.45 -87.75 105.45 M-84.45 110.1 L-84.45 114.45 -84.4 114.45 Q-83.95 114.45 -83.9 113.1 L-83.6 110.1 -84.45 110.1 M-3.35 107.05 L-6.3 107.05 -6.3 106.05 -19.7 106.05 -19.7 107.05 -22.65 107.05 -22.65 103.75 -14.6 103.75 -14.6 102.75 -11.6 102.75 -11.6 103.75 -3.35 103.75 -3.35 107.05 M-4.05 109.8 L-11.6 109.8 -11.6 110.45 -4.4 110.45 -4.4 112.65 -11.6 112.65 -11.6 113.35 -3.7 113.35 -3.7 115.65 -11.6 115.65 -11.6 116.05 -14.6 116.05 -14.6 115.65 -22.5 115.65 -22.5 113.35 -14.6 113.35 -14.6 112.65 -21.9 112.65 -21.9 110.45 -14.6 110.45 -14.6 109.8 -22.15 109.8 -22.15 107.5 -14.6 107.5 -14.6 106.5 -11.6 106.5 -11.6 107.5 -4.05 107.5 -4.05 109.8 M-19.0 119.85 L-8.0 119.85 Q-7.25 119.85 -7.25 119.35 L-7.25 118.75 -19.0 118.75 -19.0 119.85 M-6.5 122.15 L-22.0 122.15 -22.0 116.5 -4.2 116.5 -4.2 120.45 Q-4.2 122.15 -6.5 122.15 M-25.15 106.6 L-35.25 106.6 -35.55 107.45 Q-36.15 109.0 -37.5 109.0 L-39.55 109.0 -39.55 106.3 -38.7 106.3 Q-38.1 106.3 -37.85 105.5 L-36.9 102.75 -33.75 102.75 -34.2 103.85 -25.15 103.85 -25.15 106.6 M-34.55 108.1 L-31.5 108.1 -31.7 110.3 -25.65 110.3 -25.65 120.05 Q-25.65 122.25 -28.25 122.25 L-30.55 122.25 -30.55 119.7 -29.3 119.7 Q-28.6 119.7 -28.6 119.1 L-28.6 113.0 -31.95 113.0 -32.45 119.0 Q-32.8 122.1 -34.25 122.1 L-38.95 122.1 -38.95 119.5 -36.15 119.5 Q-35.55 119.5 -35.35 117.9 L-34.95 113.0 -38.85 113.0 -38.85 110.3 -34.75 110.3 -34.55 108.1 M-40.15 107.35 L-40.15 122.3 -43.0 122.3 -43.0 109.8 -44.45 109.8 -44.45 106.9 -43.35 106.9 Q-43.0 106.9 -42.8 106.2 L-41.75 102.6 -38.6 102.6 -40.15 107.35 M-46.6 110.1 L-46.6 112.6 -61.05 112.6 -61.05 110.1 -58.8 110.1 -59.9 107.15 -56.65 107.15 -55.55 110.1 -52.1 110.1 -50.9 107.15 -47.8 107.15 -48.95 110.1 -46.6 110.1 M-47.1 106.5 L-60.55 106.5 -60.55 103.95 -55.3 103.95 -55.3 102.75 -52.0 102.75 -52.0 103.95 -47.1 103.95 -47.1 106.5 M-51.15 119.85 Q-50.55 119.85 -50.55 119.1 L-50.55 115.8 -57.15 115.8 -57.15 119.85 -51.15 119.85 M-60.15 113.45 L-47.6 113.45 -47.6 120.2 Q-47.6 122.25 -49.7 122.25 L-60.15 122.25 -60.15 113.45 M-66.15 106.4 L-65.4 106.4 Q-65.0 106.4 -64.8 105.8 L-63.7 102.75 -60.3 102.75 -62.0 107.25 -62.0 122.25 -65.2 122.25 -65.2 109.45 -66.15 109.45 -66.15 106.4 M-80.45 105.45 L-80.6 107.5 -77.55 107.5 -77.35 105.45 -80.45 105.45 M-80.95 111.3 L-79.2 111.3 -78.75 112.85 Q-78.65 113.45 -78.2 113.45 L-78.1 113.45 -77.8 110.1 -80.85 110.1 -80.95 111.3 M-74.95 110.1 L-75.1 111.4 -73.1 111.4 -72.35 114.8 Q-72.25 115.4 -71.85 115.45 L-71.85 110.1 -74.95 110.1" fill="#ff0000" fill-rule="evenodd" stroke="none"/>
  </g>
</svg>
