<?xml version="1.0" encoding="UTF-8" standalone="no"?>
<svg xmlns:xlink="http://www.w3.org/1999/xlink" height="110.6px" width="141.65px" xmlns="http://www.w3.org/2000/svg">
  <g transform="matrix(1.0, 0.0, 0.0, 1.0, 0.4, 0.4)">
    <path d="M0.05 2.3 L136.6 2.3 M4.5 7.2 L140.85 7.2 M9.2 9.4 L140.85 9.4 M0.05 4.8 L140.85 4.8 M0.05 0.0 L132.05 0.0" fill="none" stroke="#ddf9ff" stroke-linecap="round" stroke-linejoin="round" stroke-opacity="0.08627451" stroke-width="0.8"/>
    <path d="M0.0 16.3 L140.85 16.3 M0.0 13.8 L136.55 13.8 M4.5 18.7 L140.85 18.7 M9.2 20.9 L140.85 20.9 M0.0 11.5 L132.05 11.5" fill="none" stroke="#ddf9ff" stroke-linecap="round" stroke-linejoin="round" stroke-opacity="0.08627451" stroke-width="0.8"/>
    <path d="M0.1 25.75 L136.65 25.75 M0.1 23.4 L132.1 23.4" fill="none" stroke="#ddf9ff" stroke-linecap="round" stroke-linejoin="round" stroke-opacity="0.08627451" stroke-width="0.8"/>
    <path d="M0.05 32.9 L140.85 32.9 M9.2 37.55 L140.85 37.55 M4.5 35.3 L140.85 35.3 M0.05 30.45 L136.6 30.45 M0.05 28.15 L132.05 28.15" fill="none" stroke="#ddf9ff" stroke-linecap="round" stroke-linejoin="round" stroke-opacity="0.08627451" stroke-width="0.8"/>
    <path d="M9.2 49.05 L140.85 49.05 M4.5 46.8 L140.85 46.8 M0.0 41.95 L136.55 41.95 M0.0 44.4 L140.85 44.4 M0.0 39.65 L132.05 39.65" fill="none" stroke="#ddf9ff" stroke-linecap="round" stroke-linejoin="round" stroke-opacity="0.08627451" stroke-width="0.8"/>
    <path d="M0.1 53.85 L136.65 53.85 M0.1 51.55 L132.1 51.55" fill="none" stroke="#ddf9ff" stroke-linecap="round" stroke-linejoin="round" stroke-opacity="0.08627451" stroke-width="0.8"/>
    <path d="M0.05 60.7 L140.85 60.7 M9.2 65.35 L140.85 65.35 M4.5 63.15 L140.85 63.15 M0.05 58.25 L136.6 58.25 M0.05 55.95 L132.05 55.95" fill="none" stroke="#ddf9ff" stroke-linecap="round" stroke-linejoin="round" stroke-opacity="0.08627451" stroke-width="0.8"/>
    <path d="M9.2 76.9 L140.85 76.9 M4.5 74.65 L140.85 74.65 M0.0 69.8 L136.55 69.8 M0.0 72.2 L140.85 72.2 M0.0 67.45 L132.05 67.45" fill="none" stroke="#ddf9ff" stroke-linecap="round" stroke-linejoin="round" stroke-opacity="0.08627451" stroke-width="0.8"/>
    <path d="M0.1 81.7 L136.65 81.7 M0.1 79.35 L132.1 79.35" fill="none" stroke="#ddf9ff" stroke-linecap="round" stroke-linejoin="round" stroke-opacity="0.08627451" stroke-width="0.8"/>
    <path d="M9.2 93.5 L140.85 93.5 M0.05 86.4 L136.6 86.4 M4.5 91.25 L140.85 91.25 M0.05 88.85 L140.85 88.85 M0.05 84.05 L132.05 84.05" fill="none" stroke="#ddf9ff" stroke-linecap="round" stroke-linejoin="round" stroke-opacity="0.08627451" stroke-width="0.8"/>
    <path d="M0.0 100.35 L140.85 100.35 M0.0 97.9 L136.55 97.9 M4.5 102.75 L140.85 102.75 M9.2 105.0 L140.85 105.0 M0.0 95.6 L132.05 95.6" fill="none" stroke="#ddf9ff" stroke-linecap="round" stroke-linejoin="round" stroke-opacity="0.08627451" stroke-width="0.8"/>
    <path d="M0.1 109.8 L136.65 109.8 M0.1 107.5 L132.1 107.5" fill="none" stroke="#ddf9ff" stroke-linecap="round" stroke-linejoin="round" stroke-opacity="0.08627451" stroke-width="0.8"/>
  </g>
</svg>
