<?xml version="1.0" encoding="UTF-8" standalone="no"?>
<svg xmlns:xlink="http://www.w3.org/1999/xlink" height="37.3px" width="75.4px" xmlns="http://www.w3.org/2000/svg">
  <g transform="matrix(1.0, 0.0, 0.0, 1.0, 14.3, 10.1)">
    <path d="M16.4 -4.05 L14.35 -6.3 3.05 -6.3 0.95 -4.05 -1.9 -4.05 Q-7.85 -4.05 -7.85 2.4 L-7.85 14.45 Q-7.85 21.0 -1.9 21.0 L0.3 21.0 2.7 23.6 15.1 23.6 17.5 21.0 49.15 21.0 46.5 23.65 22.9 23.65 20.1 26.7 -5.8 26.7 Q-13.8 26.7 -13.8 18.0 L-13.8 -0.9 Q-13.8 -9.6 -5.8 -9.6 L18.5 -9.6 21.0 -6.9 46.85 -6.9 49.7 -4.05 16.45 -4.05 16.4 -4.05 M-10.55 10.95 Q-10.65 10.5 -11.05 10.15 -11.45 9.8 -11.9 9.8 -12.35 9.8 -12.6 10.15 -12.85 10.5 -12.75 10.95 L-12.25 11.7 -11.4 12.05 Q-10.95 12.05 -10.7 11.7 -10.45 11.4 -10.55 10.95 M-11.35 4.65 Q-11.8 4.65 -12.05 5.0 -12.3 5.35 -12.2 5.8 L-11.7 6.55 Q-11.3 6.9 -10.85 6.9 -10.4 6.9 -10.15 6.55 -9.9 6.25 -10.0 5.8 -10.1 5.35 -10.5 5.0 -10.9 4.65 -11.35 4.65 M-10.9 -0.9 Q-11.35 -0.9 -11.6 -0.55 -11.85 -0.2 -11.75 0.25 L-11.25 1.0 Q-10.8 1.2 -10.4 1.35 -9.95 1.35 -9.7 1.0 -9.45 0.7 -9.55 0.25 -9.65 -0.2 -10.05 -0.55 -10.45 -0.9 -10.9 -0.9" fill="url(#gradient0)" fill-rule="evenodd" stroke="none"/>
    <path d="M16.4 -4.05 L14.35 -6.3 3.05 -6.3 0.95 -4.05 -1.9 -4.05 Q-7.85 -4.05 -7.85 2.4 L-7.85 14.45 Q-7.85 21.0 -1.9 21.0 L0.3 21.0 2.7 23.6 15.1 23.6 17.5 21.0 49.15 21.0 46.5 23.65 22.9 23.65 20.1 26.7 -5.8 26.7 Q-13.8 26.7 -13.8 18.0 L-13.8 -0.9 Q-13.8 -9.6 -5.8 -9.6 L18.5 -9.6 21.0 -6.9 46.85 -6.9 49.7 -4.05 16.45 -4.05" fill="none" stroke="#ffff66" stroke-linecap="butt" stroke-linejoin="miter-clip" stroke-miterlimit="3.0" stroke-width="1.0"/>
    <path d="M-10.9 -0.9 Q-10.45 -0.9 -10.05 -0.55 -9.65 -0.2 -9.55 0.25 -9.45 0.7 -9.7 1.0 -9.95 1.35 -10.4 1.35 -10.8 1.2 -11.25 1.0 L-11.75 0.25 Q-11.85 -0.2 -11.6 -0.55 -11.35 -0.9 -10.9 -0.9 M-11.35 4.65 Q-10.9 4.65 -10.5 5.0 -10.1 5.35 -10.0 5.8 -9.9 6.25 -10.15 6.55 -10.4 6.9 -10.85 6.9 -11.3 6.9 -11.7 6.55 L-12.2 5.8 Q-12.3 5.35 -12.05 5.0 -11.8 4.65 -11.35 4.65 M-10.55 10.95 Q-10.45 11.4 -10.7 11.7 -10.95 12.05 -11.4 12.05 L-12.25 11.7 -12.75 10.95 Q-12.85 10.5 -12.6 10.15 -12.35 9.8 -11.9 9.8 -11.45 9.8 -11.05 10.15 -10.65 10.5 -10.55 10.95" fill="#ff6600" fill-rule="evenodd" stroke="none"/>
    <path d="M9.35 -0.3 L9.35 2.65 5.95 2.65 5.95 4.9 5.95 6.45 9.55 6.45 9.55 9.55 5.95 9.55 6.0 9.85 6.1 10.15 7.95 14.85 Q8.35 15.4 8.85 15.4 L9.85 15.4 9.85 18.35 7.2 18.35 Q6.1 18.35 5.6 17.05 L4.45 13.75 3.1 17.05 Q2.7 18.35 1.85 18.35 L-1.05 18.35 -1.05 15.4 0.15 15.4 Q0.7 15.4 1.0 14.85 L2.75 10.15 2.85 9.85 2.9 9.55 -1.4 9.55 -1.4 6.45 2.9 6.45 2.9 4.9 2.9 2.65 2.2 2.65 2.15 2.9 Q1.8 4.55 0.25 4.55 L-1.05 4.55 -1.05 1.75 -0.65 1.75 -0.15 1.2 0.4 -1.8 3.15 -1.8 2.85 -0.3 9.35 -0.3 M19.2 -0.7 L19.2 4.9 19.2 9.85 19.2 16.0 Q19.2 18.15 17.0 18.15 L10.35 18.15 10.35 9.85 10.35 4.9 10.35 -0.7 19.2 -0.7 M58.1 3.3 L56.6 4.9 53.95 7.65 53.95 9.85 53.95 16.4 Q53.95 17.7 52.25 17.7 L45.0 17.7 45.0 15.5 50.6 15.5 Q51.15 15.5 51.15 15.1 L51.15 9.85 51.15 6.85 52.8 4.9 54.45 2.95 42.1 2.95 42.1 0.6 58.1 0.6 58.1 3.3 M51.15 9.85 L53.95 9.85 51.15 9.85 M56.6 4.9 L52.8 4.9 56.6 4.9 M39.5 4.9 L39.5 9.85 39.5 13.05 Q39.5 14.75 37.45 14.75 L26.8 14.75 26.8 9.85 26.8 4.9 26.8 4.35 31.45 4.35 31.55 3.6 26.4 3.6 26.4 1.5 28.45 1.5 28.0 0.25 30.95 0.25 31.55 1.5 34.85 1.5 35.4 0.25 38.45 0.25 37.9 1.5 39.85 1.5 39.85 3.6 34.55 3.6 34.45 4.35 39.5 4.35 39.5 4.9 26.8 4.9 39.5 4.9 M36.7 6.4 L29.6 6.4 29.6 7.25 36.7 7.25 36.7 6.4 M36.7 12.0 L29.6 12.0 29.6 12.7 36.15 12.7 Q36.7 12.7 36.7 12.05 L36.7 12.0 M36.7 9.85 L36.7 9.2 29.6 9.2 29.6 9.85 29.6 10.0 36.7 10.0 36.7 9.85 39.5 9.85 36.7 9.85 M26.8 9.85 L29.6 9.85 26.8 9.85 M25.85 4.9 L25.85 9.85 25.85 14.75 Q25.85 15.55 26.8 15.55 L39.85 15.55 39.85 17.7 26.5 17.7 Q25.75 17.7 25.25 17.1 24.8 17.7 23.8 17.7 L22.65 17.7 22.65 15.6 22.75 15.6 Q23.25 15.6 23.25 15.2 L23.25 9.85 23.25 6.85 22.65 6.85 22.65 4.9 22.65 4.65 25.85 4.65 25.85 4.9 22.65 4.9 25.85 4.9 M25.75 3.8 L23.0 3.8 23.0 0.5 25.75 0.5 25.75 3.8 M23.25 9.85 L25.85 9.85 23.25 9.85 M16.15 4.9 L19.2 4.9 16.15 4.9 16.15 2.15 13.3 2.15 13.3 4.9 13.3 9.85 13.3 15.3 15.5 15.3 Q16.15 15.3 16.15 14.6 L16.15 9.85 16.15 4.9 M19.2 9.85 L16.15 9.85 19.2 9.85 M10.35 4.9 L13.3 4.9 10.35 4.9 M10.35 9.85 L13.3 9.85 10.35 9.85 M6.0 9.85 L2.85 9.85 6.0 9.85 M2.9 4.9 L5.95 4.9 2.9 4.9" fill="#660000" fill-rule="evenodd" stroke="none"/>
    <path d="M36.7 6.4 L29.6 6.4 29.6 7.25 36.7 7.25 36.7 6.4 M36.7 12.0 L29.6 12.0 29.6 12.7 36.15 12.7 Q36.7 12.7 36.7 12.05 L36.7 12.0 M25.75 3.8 L23.0 3.8 23.0 0.5 25.75 0.5 25.75 3.8" fill="none" stroke="#660000" stroke-linecap="butt" stroke-linejoin="miter-clip" stroke-miterlimit="3.0" stroke-width="6.0"/>
    <path d="M9.35 -0.3 L9.35 2.65 5.95 2.65 5.95 4.9 M19.2 -0.7 L19.2 4.9 M58.1 3.3 L56.6 4.9" fill="none" stroke="#660000" stroke-linecap="butt" stroke-linejoin="miter-clip" stroke-miterlimit="3.0" stroke-width="6.0"/>
    <path d="M5.95 4.9 L5.95 6.45 9.55 6.45 9.55 9.55 5.95 9.55 6.0 9.85 6.1 10.15 7.95 14.85 Q8.35 15.4 8.85 15.4 L9.85 15.4 9.85 18.35 7.2 18.35 Q6.1 18.35 5.6 17.05 L4.45 13.75 3.1 17.05 Q2.7 18.35 1.85 18.35 L-1.05 18.35 -1.05 15.4 0.15 15.4 Q0.7 15.4 1.0 14.85 L2.75 10.15 2.85 9.85 2.9 9.55 -1.4 9.55 -1.4 6.45 2.9 6.45 2.9 4.9 5.95 4.9 M19.2 4.9 L19.2 9.85 19.2 16.0 Q19.2 18.15 17.0 18.15 L10.35 18.15 10.35 9.85 10.35 4.9 13.3 4.9 13.3 9.85 13.3 15.3 15.5 15.3 Q16.15 15.3 16.15 14.6 L16.15 9.85 19.2 9.85 M56.6 4.9 L53.95 7.65 53.95 9.85 53.95 16.4 Q53.95 17.7 52.25 17.7 L45.0 17.7 45.0 15.5 50.6 15.5 Q51.15 15.5 51.15 15.1 L51.15 9.85 51.15 6.85 52.8 4.9 56.6 4.9 M53.95 9.85 L51.15 9.85 M39.5 4.9 L39.5 9.85 39.5 13.05 Q39.5 14.75 37.45 14.75 L26.8 14.75 26.8 9.85 26.8 4.9 26.8 4.35 31.45 4.35 31.55 3.6 26.4 3.6 26.4 1.5 28.45 1.5 28.0 0.25 30.95 0.25 31.55 1.5 34.85 1.5 35.4 0.25 38.45 0.25 37.9 1.5 39.85 1.5 39.85 3.6 34.55 3.6 34.45 4.35 39.5 4.35 39.5 4.9 26.8 4.9 M29.6 9.85 L29.6 9.2 36.7 9.2 36.7 9.85 39.5 9.85 M36.7 9.85 L36.7 10.0 29.6 10.0 29.6 9.85 26.8 9.85 M25.85 4.9 L25.85 9.85 25.85 14.75 Q25.85 15.55 26.8 15.55 L39.85 15.55 39.85 17.7 26.5 17.7 Q25.75 17.7 25.25 17.1 24.8 17.7 23.8 17.7 L22.65 17.7 22.65 15.6 22.75 15.6 Q23.25 15.6 23.25 15.2 L23.25 9.85 23.25 6.85 22.65 6.85 22.65 4.9 22.65 4.65 25.85 4.65 25.85 4.9 22.65 4.9 M25.85 9.85 L23.25 9.85 M19.2 4.9 L16.15 4.9 16.15 9.85 M16.15 4.9 L16.15 2.15 13.3 2.15 13.3 4.9 M13.3 9.85 L10.35 9.85 M2.85 9.85 L6.0 9.85" fill="none" stroke="#660000" stroke-linecap="round" stroke-linejoin="miter-clip" stroke-miterlimit="3.0" stroke-width="6.0"/>
    <path d="M2.9 4.9 L2.9 2.65 2.2 2.65 2.15 2.9 Q1.8 4.55 0.25 4.55 L-1.05 4.55 -1.05 1.75 -0.65 1.75 -0.15 1.2 0.4 -1.8 3.15 -1.8 2.85 -0.3 9.35 -0.3 M10.35 4.9 L10.35 -0.7 19.2 -0.7 M52.8 4.9 L54.45 2.95 42.1 2.95 42.1 0.6 58.1 0.6 58.1 3.3" fill="none" stroke="#660000" stroke-linecap="round" stroke-linejoin="miter-clip" stroke-miterlimit="3.0" stroke-width="6.0"/>
    <path d="M9.35 -0.3 L9.35 2.65 5.95 2.65 5.95 4.9 5.95 6.45 9.55 6.45 9.55 9.55 5.95 9.55 6.0 9.85 6.1 10.15 7.95 14.85 Q8.35 15.4 8.85 15.4 L9.85 15.4 9.85 18.35 7.2 18.35 Q6.1 18.35 5.6 17.05 L4.45 13.75 3.1 17.05 Q2.7 18.35 1.85 18.35 L-1.05 18.35 -1.05 15.4 0.15 15.4 Q0.7 15.4 1.0 14.85 L2.75 10.15 2.85 9.85 2.9 9.55 -1.4 9.55 -1.4 6.45 2.9 6.45 2.9 4.9 2.9 2.65 2.2 2.65 2.15 2.9 Q1.8 4.55 0.25 4.55 L-1.05 4.55 -1.05 1.75 -0.65 1.75 -0.15 1.2 0.4 -1.8 3.15 -1.8 2.85 -0.3 9.35 -0.3 M19.2 -0.7 L19.2 4.9 19.2 9.85 19.2 16.0 Q19.2 18.15 17.0 18.15 L10.35 18.15 10.35 9.85 10.35 4.9 10.35 -0.7 19.2 -0.7 M58.1 3.3 L56.6 4.9 53.95 7.65 53.95 9.85 53.95 16.4 Q53.95 17.7 52.25 17.7 L45.0 17.7 45.0 15.5 50.6 15.5 Q51.15 15.5 51.15 15.1 L51.15 9.85 51.15 6.85 52.8 4.9 54.45 2.95 42.1 2.95 42.1 0.6 58.1 0.6 58.1 3.3 M51.15 9.85 L53.95 9.85 51.15 9.85 M56.6 4.9 L52.8 4.9 56.6 4.9 M39.5 4.9 L39.5 9.85 39.5 13.05 Q39.5 14.75 37.45 14.75 L26.8 14.75 26.8 9.85 26.8 4.9 26.8 4.35 31.45 4.35 31.55 3.6 26.4 3.6 26.4 1.5 28.45 1.5 28.0 0.25 30.95 0.25 31.55 1.5 34.85 1.5 35.4 0.25 38.45 0.25 37.9 1.5 39.85 1.5 39.85 3.6 34.55 3.6 34.45 4.35 39.5 4.35 39.5 4.9 26.8 4.9 39.5 4.9 M36.7 6.4 L29.6 6.4 29.6 7.25 36.7 7.25 36.7 6.4 M36.7 12.0 L29.6 12.0 29.6 12.7 36.15 12.7 Q36.7 12.7 36.7 12.05 L36.7 12.0 M36.7 9.85 L36.7 9.2 29.6 9.2 29.6 9.85 29.6 10.0 36.7 10.0 36.7 9.85 39.5 9.85 36.7 9.85 M26.8 9.85 L29.6 9.85 26.8 9.85 M25.75 3.8 L23.0 3.8 23.0 0.5 25.75 0.5 25.75 3.8 M25.85 4.9 L25.85 9.85 25.85 14.75 Q25.85 15.55 26.8 15.55 L39.85 15.55 39.85 17.7 26.5 17.7 Q25.75 17.7 25.25 17.1 24.8 17.7 23.8 17.7 L22.65 17.7 22.65 15.6 22.75 15.6 Q23.25 15.6 23.25 15.2 L23.25 9.85 23.25 6.85 22.65 6.85 22.65 4.9 22.65 4.65 25.85 4.65 25.85 4.9 22.65 4.9 25.85 4.9 M23.25 9.85 L25.85 9.85 23.25 9.85 M16.15 4.9 L19.2 4.9 16.15 4.9 16.15 2.15 13.3 2.15 13.3 4.9 13.3 9.85 13.3 15.3 15.5 15.3 Q16.15 15.3 16.15 14.6 L16.15 9.85 16.15 4.9 M19.2 9.85 L16.15 9.85 19.2 9.85 M10.35 4.9 L13.3 4.9 10.35 4.9 M10.35 9.85 L13.3 9.85 10.35 9.85 M6.0 9.85 L2.85 9.85 6.0 9.85 M2.9 4.9 L5.95 4.9 2.9 4.9" fill="#cc6600" fill-rule="evenodd" stroke="none"/>
    <path d="M36.7 6.4 L29.6 6.4 29.6 7.25 36.7 7.25 36.7 6.4 M36.7 12.0 L29.6 12.0 29.6 12.7 36.15 12.7 Q36.7 12.7 36.7 12.05 L36.7 12.0 M25.75 3.8 L23.0 3.8 23.0 0.5 25.75 0.5 25.75 3.8" fill="none" stroke="#cc6600" stroke-linecap="butt" stroke-linejoin="miter-clip" stroke-miterlimit="3.0" stroke-width="2.5"/>
    <path d="M9.35 -0.3 L9.35 2.65 5.95 2.65 5.95 4.9 M19.2 -0.7 L19.2 4.9 M58.1 3.3 L56.6 4.9" fill="none" stroke="#cc6600" stroke-linecap="butt" stroke-linejoin="miter-clip" stroke-miterlimit="3.0" stroke-width="2.5"/>
    <path d="M5.95 4.9 L5.95 6.45 9.55 6.45 9.55 9.55 5.95 9.55 6.0 9.85 6.1 10.15 7.95 14.85 Q8.35 15.4 8.85 15.4 L9.85 15.4 9.85 18.35 7.2 18.35 Q6.1 18.35 5.6 17.05 L4.45 13.75 3.1 17.05 Q2.7 18.35 1.85 18.35 L-1.05 18.35 -1.05 15.4 0.15 15.4 Q0.7 15.4 1.0 14.85 L2.75 10.15 2.85 9.85 2.9 9.55 -1.4 9.55 -1.4 6.45 2.9 6.45 2.9 4.9 5.95 4.9 M19.2 4.9 L19.2 9.85 19.2 16.0 Q19.2 18.15 17.0 18.15 L10.35 18.15 10.35 9.85 10.35 4.9 13.3 4.9 13.3 9.85 13.3 15.3 15.5 15.3 Q16.15 15.3 16.15 14.6 L16.15 9.85 19.2 9.85 M56.6 4.9 L53.95 7.65 53.95 9.85 53.95 16.4 Q53.95 17.7 52.25 17.7 L45.0 17.7 45.0 15.5 50.6 15.5 Q51.15 15.5 51.15 15.1 L51.15 9.85 51.15 6.85 52.8 4.9 56.6 4.9 M53.95 9.85 L51.15 9.85 M39.5 4.9 L39.5 9.85 39.5 13.05 Q39.5 14.75 37.45 14.75 L26.8 14.75 26.8 9.85 26.8 4.9 26.8 4.35 31.45 4.35 31.55 3.6 26.4 3.6 26.4 1.5 28.45 1.5 28.0 0.25 30.95 0.25 31.55 1.5 34.85 1.5 35.4 0.25 38.45 0.25 37.9 1.5 39.85 1.5 39.85 3.6 34.55 3.6 34.45 4.35 39.5 4.35 39.5 4.9 26.8 4.9 M29.6 9.85 L29.6 9.2 36.7 9.2 36.7 9.85 39.5 9.85 M36.7 9.85 L36.7 10.0 29.6 10.0 29.6 9.85 26.8 9.85 M25.85 4.9 L25.85 9.85 25.85 14.75 Q25.85 15.55 26.8 15.55 L39.85 15.55 39.85 17.7 26.5 17.7 Q25.75 17.7 25.25 17.1 24.8 17.7 23.8 17.7 L22.65 17.7 22.65 15.6 22.75 15.6 Q23.25 15.6 23.25 15.2 L23.25 9.85 23.25 6.85 22.65 6.85 22.65 4.9 22.65 4.65 25.85 4.65 25.85 4.9 22.65 4.9 M25.85 9.85 L23.25 9.85 M19.2 4.9 L16.15 4.9 16.15 9.85 M16.15 4.9 L16.15 2.15 13.3 2.15 13.3 4.9 M13.3 9.85 L10.35 9.85 M2.85 9.85 L6.0 9.85" fill="none" stroke="#cc6600" stroke-linecap="round" stroke-linejoin="miter-clip" stroke-miterlimit="3.0" stroke-width="2.5"/>
    <path d="M2.9 4.9 L2.9 2.65 2.2 2.65 2.15 2.9 Q1.8 4.55 0.25 4.55 L-1.05 4.55 -1.05 1.75 -0.65 1.75 -0.15 1.2 0.4 -1.8 3.15 -1.8 2.85 -0.3 9.35 -0.3 M10.35 4.9 L10.35 -0.7 19.2 -0.7 M52.8 4.9 L54.45 2.95 42.1 2.95 42.1 0.6 58.1 0.6 58.1 3.3" fill="none" stroke="#cc6600" stroke-linecap="round" stroke-linejoin="miter-clip" stroke-miterlimit="3.0" stroke-width="2.5"/>
    <path d="M10.35 6.5 L10.35 -0.7 19.2 -0.7 19.2 6.5 16.15 6.5 16.15 2.15 13.3 2.15 13.3 6.5 10.35 6.5 M19.2 11.45 L19.2 16.0 Q19.2 18.15 17.0 18.15 L10.35 18.15 10.35 11.45 13.3 11.45 13.3 15.3 15.5 15.3 Q16.15 15.3 16.15 14.6 L16.15 11.45 19.2 11.45 M-1.4 6.5 L-1.4 6.45 2.9 6.45 2.9 2.65 2.2 2.65 2.15 2.9 Q1.8 4.55 0.25 4.55 L-1.05 4.55 -1.05 1.75 -0.65 1.75 -0.15 1.2 0.4 -1.8 3.15 -1.8 2.85 -0.3 9.35 -0.3 9.35 2.65 5.95 2.65 5.95 6.45 9.55 6.45 9.55 6.5 -1.4 6.5 M6.6 11.45 L7.95 14.85 Q8.35 15.4 8.85 15.4 L9.85 15.4 9.85 18.35 7.2 18.35 Q6.1 18.35 5.6 17.05 L4.45 13.75 3.1 17.05 Q2.7 18.35 1.85 18.35 L-1.05 18.35 -1.05 15.4 0.15 15.4 Q0.7 15.4 1.0 14.85 L2.3 11.45 6.6 11.45 M51.45 6.5 L54.45 2.95 42.1 2.95 42.1 0.6 58.1 0.6 58.1 3.3 55.05 6.5 51.45 6.5 M53.95 11.45 L53.95 16.4 Q53.95 17.7 52.25 17.7 L45.0 17.7 45.0 15.5 50.6 15.5 Q51.15 15.5 51.15 15.1 L51.15 11.45 53.95 11.45 M26.8 6.5 L26.8 4.35 31.45 4.35 31.55 3.6 26.4 3.6 26.4 1.5 28.45 1.5 28.0 0.25 30.95 0.25 31.55 1.5 34.85 1.5 35.4 0.25 38.45 0.25 37.9 1.5 39.85 1.5 39.85 3.6 34.55 3.6 34.45 4.35 39.5 4.35 39.5 6.5 36.7 6.5 36.7 6.4 29.6 6.4 29.6 6.5 26.8 6.5 M39.5 11.45 L39.5 13.05 Q39.5 14.75 37.45 14.75 L26.8 14.75 26.8 11.45 39.5 11.45 M36.7 12.0 L29.6 12.0 29.6 12.7 36.15 12.7 Q36.7 12.7 36.7 12.05 L36.7 12.0 M25.75 3.8 L23.0 3.8 23.0 0.5 25.75 0.5 25.75 3.8 M22.65 6.5 L22.65 4.65 25.85 4.65 25.85 6.5 22.65 6.5 M25.85 11.45 L25.85 14.75 Q25.85 15.55 26.8 15.55 L39.85 15.55 39.85 17.7 26.5 17.7 Q25.75 17.7 25.25 17.1 24.8 17.7 23.8 17.7 L22.65 17.7 22.65 15.6 22.75 15.6 Q23.25 15.6 23.25 15.2 L23.25 11.45 25.85 11.45" fill="#ffff66" fill-rule="evenodd" stroke="none"/>
    <path d="M19.2 6.5 L19.2 11.45 16.15 11.45 16.15 6.5 19.2 6.5 M10.35 11.45 L10.35 6.5 13.3 6.5 13.3 11.45 10.35 11.45 M9.55 6.5 L9.55 9.55 5.95 9.55 6.0 9.85 6.1 10.15 6.6 11.45 2.3 11.45 2.75 10.15 2.85 9.85 2.9 9.55 -1.4 9.55 -1.4 6.5 9.55 6.5 M55.05 6.5 L53.95 7.65 53.95 11.45 51.15 11.45 51.15 6.85 51.45 6.5 55.05 6.5 M39.5 6.5 L39.5 11.45 26.8 11.45 26.8 6.5 29.6 6.5 29.6 7.25 36.7 7.25 36.7 6.5 39.5 6.5 M36.7 9.2 L29.6 9.2 29.6 10.0 36.7 10.0 36.7 9.2 M23.25 11.45 L23.25 6.85 22.65 6.85 22.65 6.5 25.85 6.5 25.85 11.45 23.25 11.45" fill="#ffffcc" fill-rule="evenodd" stroke="none"/>
  </g>
  <defs>
    <linearGradient gradientTransform="matrix(0.0, 0.0216, 0.0239, 0.0, 5.75, 9.0)" gradientUnits="userSpaceOnUse" id="gradient0" spreadMethod="pad" x1="-819.2" x2="819.2">
      <stop offset="0.0" stop-color="#ffff00"/>
      <stop offset="1.0" stop-color="#ff9900"/>
    </linearGradient>
  </defs>
</svg>
