<?xml version="1.0" encoding="UTF-8" standalone="no"?>
<svg xmlns:xlink="http://www.w3.org/1999/xlink" height="33.3px" width="33.3px" xmlns="http://www.w3.org/2000/svg">
  <g transform="matrix(1.0, 0.0, 0.0, 1.0, 16.65, 16.65)">
    <path d="M4.3 -4.3 L11.65 -4.3 11.65 4.3 4.3 4.3 4.3 11.65 -4.3 11.65 -4.3 4.3 -11.65 4.3 -11.65 -4.3 -4.3 -4.3 -4.3 -11.65 4.3 -11.65 4.3 -4.3" fill="#fb9200" fill-rule="evenodd" stroke="none"/>
    <path d="M4.3 -4.3 L4.3 -11.65 -4.3 -11.65 -4.3 -4.3 -11.65 -4.3 -11.65 4.3 -4.3 4.3 -4.3 11.65 4.3 11.65 4.3 4.3 11.65 4.3 11.65 -4.3 4.3 -4.3 M5.95 -5.95 L16.15 -5.95 16.15 5.95 5.95 5.95 5.95 16.15 -5.95 16.15 -5.95 5.95 -16.15 5.95 -16.15 -5.95 -5.95 -5.95 -5.95 -16.15 5.95 -16.15 5.95 -5.95" fill="#ff5b02" fill-rule="evenodd" stroke="none"/>
    <path d="M5.95 -5.95 L16.15 -5.95 16.15 5.95 5.95 5.95 5.95 16.15 -5.95 16.15 -5.95 5.95 -16.15 5.95 -16.15 -5.95 -5.95 -5.95 -5.95 -16.15 5.95 -16.15 5.95 -5.95 Z" fill="none" stroke="#d8391b" stroke-linecap="butt" stroke-linejoin="miter-clip" stroke-miterlimit="3.0" stroke-width="1.0"/>
  </g>
</svg>
