<?xml version="1.0" encoding="UTF-8" standalone="no"?>
<svg xmlns:xlink="http://www.w3.org/1999/xlink" height="36.75px" width="26.0px" xmlns="http://www.w3.org/2000/svg">
  <g transform="matrix(1.0, 0.0, 0.0, 1.0, 0.0, 0.0)">
    <path d="M0.0 36.75 L0.0 0.0 26.0 0.0 26.0 36.75 0.0 36.75" fill="#cccc00" fill-opacity="0.0" fill-rule="evenodd" stroke="none"/>
    <path d="M23.05 9.95 Q23.8 10.75 23.8 11.4 L23.8 24.0 Q23.8 24.65 23.05 25.4 L21.55 26.25 18.95 26.25 18.95 28.95 Q18.95 29.55 18.15 30.35 17.4 31.2 16.75 31.2 L9.3 31.2 7.8 30.35 Q7.05 29.55 7.05 28.9 L7.05 26.25 4.5 26.25 Q3.75 26.25 2.95 25.4 2.2 24.65 2.2 23.95 L2.2 11.45 Q2.2 10.8 3.0 10.0 3.8 9.15 4.5 9.15 L7.05 9.15 7.05 6.45 Q7.05 5.65 7.9 4.95 8.7 4.2 9.55 4.2 L16.45 4.2 Q17.2 4.2 18.0 4.8 18.95 5.55 18.95 6.45 L18.95 9.15 21.55 9.15 Q22.2 9.15 23.05 9.95 M23.2 11.45 Q23.2 11.05 22.6 10.45 21.95 9.75 21.55 9.75 L18.35 9.75 18.35 6.45 Q18.35 5.9 17.7 5.35 17.05 4.8 16.45 4.8 L9.55 4.8 Q8.95 4.8 8.3 5.35 7.7 5.9 7.7 6.45 L7.7 9.75 4.5 9.75 Q4.1 9.75 3.45 10.45 2.8 11.05 2.8 11.45 L2.8 23.95 Q2.8 24.4 3.4 25.0 4.0 25.6 4.5 25.6 L7.7 25.6 7.7 28.9 Q7.7 29.25 8.25 29.9 8.9 30.55 9.3 30.55 L16.75 30.55 17.7 29.9 18.35 28.9 18.35 25.6 21.55 25.6 Q21.95 25.6 22.6 25.0 23.2 24.4 23.2 24.0 L23.2 11.45 M22.25 10.75 L22.7 11.45 22.7 24.0 22.25 24.65 21.55 25.1 17.85 25.1 17.85 28.9 17.4 29.55 16.75 30.05 9.3 30.05 8.65 29.55 8.15 28.9 8.15 25.1 4.5 25.1 3.75 24.65 3.3 23.95 3.3 11.45 3.75 10.8 Q4.25 10.3 4.5 10.3 L8.15 10.3 8.15 6.45 Q8.15 6.15 8.7 5.75 9.2 5.3 9.55 5.3 L16.45 5.3 Q16.8 5.3 17.3 5.75 17.85 6.15 17.85 6.45 L17.85 10.3 21.55 10.3 22.25 10.75 M17.35 10.8 L8.65 10.8 8.65 24.65 17.35 24.65 17.35 10.8" fill="#333333" fill-rule="evenodd" stroke="none"/>
    <path d="M23.05 9.95 Q22.2 9.15 21.55 9.15 L18.95 9.15 18.95 6.45 Q18.95 5.55 18.0 4.8 17.2 4.2 16.45 4.2 L9.55 4.2 Q8.7 4.2 7.9 4.95 7.05 5.65 7.05 6.45 L7.05 9.15 4.5 9.15 Q3.8 9.15 3.0 10.0 2.2 10.8 2.2 11.45 L2.2 23.95 Q2.2 24.65 2.95 25.4 3.75 26.25 4.5 26.25 L7.05 26.25 7.05 28.9 Q7.05 29.55 7.8 30.35 L9.3 31.2 16.75 31.2 Q17.4 31.2 18.15 30.35 18.95 29.55 18.95 28.95 L18.95 26.25 21.55 26.25 23.05 25.4 Q23.8 24.65 23.8 24.0 L23.8 11.4 Q23.8 10.75 23.05 9.95 M17.35 10.8 L8.65 10.8 8.65 24.65 17.35 24.65 17.35 10.8 Z" fill="none" stroke="#333333" stroke-linecap="round" stroke-linejoin="round" stroke-width="4.0"/>
    <path d="M23.05 9.95 Q23.8 10.75 23.8 11.4 L23.8 24.0 Q23.8 24.65 23.05 25.4 L21.55 26.25 18.95 26.25 18.95 28.95 Q18.95 29.55 18.15 30.35 17.4 31.2 16.75 31.2 L9.3 31.2 7.8 30.35 Q7.05 29.55 7.05 28.9 L7.05 26.25 4.5 26.25 Q3.75 26.25 2.95 25.4 2.2 24.65 2.2 23.95 L2.2 11.45 Q2.2 10.8 3.0 10.0 3.8 9.15 4.5 9.15 L7.05 9.15 7.05 6.45 Q7.05 5.65 7.9 4.95 8.7 4.2 9.55 4.2 L16.45 4.2 Q17.2 4.2 18.0 4.8 18.95 5.55 18.95 6.45 L18.95 9.15 21.55 9.15 Q22.2 9.15 23.05 9.95 M22.25 10.75 L22.7 11.45 22.7 24.0 22.25 24.65 21.55 25.1 17.85 25.1 17.85 28.9 17.4 29.55 16.75 30.05 9.3 30.05 8.65 29.55 8.15 28.9 8.15 25.1 4.5 25.1 3.75 24.65 3.3 23.95 3.3 11.45 3.75 10.8 Q4.25 10.3 4.5 10.3 L8.15 10.3 8.15 6.45 Q8.15 6.15 8.7 5.75 9.2 5.3 9.55 5.3 L16.45 5.3 Q16.8 5.3 17.3 5.75 17.85 6.15 17.85 6.45 L17.85 10.3 21.55 10.3 22.25 10.75 M23.2 11.45 Q23.2 11.05 22.6 10.45 21.95 9.75 21.55 9.75 L18.35 9.75 18.35 6.45 Q18.35 5.9 17.7 5.35 17.05 4.8 16.45 4.8 L9.55 4.8 Q8.95 4.8 8.3 5.35 7.7 5.9 7.7 6.45 L7.7 9.75 4.5 9.75 Q4.1 9.75 3.45 10.45 2.8 11.05 2.8 11.45 L2.8 23.95 Q2.8 24.4 3.4 25.0 4.0 25.6 4.5 25.6 L7.7 25.6 7.7 28.9 Q7.7 29.25 8.25 29.9 8.9 30.55 9.3 30.55 L16.75 30.55 17.7 29.9 18.35 28.9 18.35 25.6 21.55 25.6 Q21.95 25.6 22.6 25.0 23.2 24.4 23.2 24.0 L23.2 11.45 M17.35 10.8 L8.65 10.8 8.65 24.65 17.35 24.65 17.35 10.8" fill="url(#gradient0)" fill-rule="evenodd" stroke="none"/>
  </g>
  <defs>
    <linearGradient gradientTransform="matrix(0.0, 0.0132, -0.0165, 0.0, 13.0, 17.7)" gradientUnits="userSpaceOnUse" id="gradient0" spreadMethod="pad" x1="-819.2" x2="819.2">
      <stop offset="0.0" stop-color="#ffffff"/>
      <stop offset="1.0" stop-color="#8d949a"/>
    </linearGradient>
  </defs>
</svg>
