<?xml version="1.0" encoding="UTF-8" standalone="no"?>
<svg xmlns:xlink="http://www.w3.org/1999/xlink" height="36.75px" width="26.0px" xmlns="http://www.w3.org/2000/svg">
  <g transform="matrix(1.0, 0.0, 0.0, 1.0, 0.0, 0.0)">
    <path d="M26.0 0.0 L26.0 36.75 0.0 36.75 0.0 0.0 26.0 0.0" fill="#cccc00" fill-opacity="0.0" fill-rule="evenodd" stroke="none"/>
    <path d="M21.55 9.25 Q22.25 9.25 23.05 10.1 23.8 10.85 23.8 11.5 L23.8 14.15 Q23.8 14.85 23.05 15.65 22.25 16.4 21.55 16.4 L19.0 16.4 19.0 19.15 21.55 19.15 Q22.25 19.15 23.05 20.0 23.8 20.8 23.8 21.4 L23.8 24.05 Q23.8 24.75 23.0 25.55 22.25 26.35 21.55 26.35 L18.95 26.35 18.95 29.0 Q18.95 29.65 18.15 30.45 17.4 31.25 16.7 31.25 L9.35 31.25 Q8.65 31.25 7.85 30.45 7.1 29.65 7.1 29.0 L7.1 26.35 4.45 26.35 Q3.8 26.35 3.0 25.55 2.2 24.75 2.2 24.05 L2.2 21.45 Q2.2 20.8 3.05 20.0 3.8 19.15 4.45 19.15 L7.1 19.15 7.1 16.4 4.45 16.4 Q3.75 16.4 3.0 15.65 2.2 14.9 2.2 14.15 L2.2 11.55 Q2.2 10.9 3.05 10.1 3.8 9.25 4.45 9.25 L7.1 9.25 7.1 6.6 Q7.1 5.75 7.9 5.05 8.75 4.25 9.55 4.25 L16.5 4.25 Q17.05 4.25 18.0 5.0 L17.95 4.95 Q18.95 5.65 18.95 6.55 L18.95 9.25 21.55 9.25 M8.65 24.7 L8.65 20.8 17.4 20.8 17.4 24.7 8.65 24.7 M22.6 10.5 Q22.0 9.9 21.55 9.9 L18.4 9.9 18.4 6.55 Q18.4 6.05 17.7 5.5 17.05 4.9 16.5 4.9 L9.55 4.9 Q9.0 4.9 8.35 5.5 7.65 6.05 7.65 6.6 L7.65 9.9 4.45 9.9 Q4.05 9.9 3.45 10.55 2.8 11.15 2.8 11.55 L2.8 14.15 Q2.8 14.6 3.45 15.2 4.05 15.85 4.45 15.85 L7.65 15.85 7.65 19.8 4.45 19.8 Q4.05 19.8 3.45 20.45 2.8 21.05 2.8 21.45 L2.8 24.05 Q2.8 24.5 3.45 25.1 4.05 25.75 4.45 25.75 L7.65 25.75 7.65 29.0 Q7.65 29.4 8.3 30.0 8.95 30.65 9.35 30.65 L16.7 30.65 Q17.1 30.65 17.75 30.0 L18.4 29.0 18.4 25.75 21.55 25.75 22.6 25.05 23.25 24.05 23.25 21.4 22.6 20.45 Q22.0 19.8 21.55 19.8 L18.4 19.8 18.4 15.85 21.55 15.85 22.6 15.15 23.25 14.15 23.25 11.5 22.6 10.5 M21.55 10.35 L22.25 10.85 22.75 11.5 22.75 14.15 22.3 14.85 21.55 15.35 17.95 15.35 17.95 20.3 21.55 20.3 22.25 20.75 22.75 21.4 22.75 24.05 22.3 24.75 21.55 25.25 17.9 25.25 17.9 29.0 17.45 29.7 16.7 30.15 9.35 30.15 8.6 29.65 8.15 29.0 8.15 25.25 4.45 25.25 3.8 24.8 3.3 24.05 3.3 21.45 Q3.3 21.25 3.8 20.8 4.3 20.3 4.45 20.3 L8.15 20.3 8.15 15.35 4.45 15.35 3.8 14.85 Q3.3 14.4 3.3 14.15 L3.3 11.55 3.8 10.9 4.45 10.35 8.15 10.35 8.15 6.6 Q8.15 6.25 8.65 5.85 9.2 5.4 9.55 5.4 L16.5 5.4 Q16.85 5.4 17.4 5.85 L17.9 6.55 17.9 10.35 21.55 10.35 M9.3 21.4 L9.3 24.05 16.75 24.05 16.75 21.4 9.3 21.4 M17.85 20.3 L8.2 20.3 8.2 25.25 17.85 25.25 17.85 20.3 M16.75 11.5 L9.3 11.5 9.3 14.15 16.75 14.15 16.75 11.5 M17.85 10.4 L8.2 10.4 8.2 15.3 17.85 15.3 17.85 10.4 M17.4 14.8 L8.65 14.8 8.65 10.9 17.4 10.9 17.4 14.8" fill="#00ffff" fill-opacity="0.9882353" fill-rule="evenodd" stroke="none"/>
    <path d="M21.55 9.25 L18.95 9.25 18.95 6.55 Q18.95 5.65 17.95 4.95 L18.0 5.0 Q17.05 4.25 16.5 4.25 L9.55 4.25 Q8.75 4.25 7.9 5.05 7.1 5.75 7.1 6.6 L7.1 9.25 4.45 9.25 Q3.8 9.25 3.05 10.1 2.2 10.9 2.2 11.55 L2.2 14.15 Q2.2 14.9 3.0 15.65 3.75 16.4 4.45 16.4 L7.1 16.4 7.1 19.15 4.45 19.15 Q3.8 19.15 3.05 20.0 2.2 20.8 2.2 21.45 L2.2 24.05 Q2.2 24.75 3.0 25.55 3.8 26.35 4.45 26.35 L7.1 26.35 7.1 29.0 Q7.1 29.65 7.85 30.45 8.65 31.25 9.35 31.25 L16.7 31.25 Q17.4 31.25 18.15 30.45 18.95 29.65 18.95 29.0 L18.95 26.35 21.55 26.35 Q22.25 26.35 23.0 25.55 23.8 24.75 23.8 24.05 L23.8 21.4 Q23.8 20.8 23.05 20.0 22.25 19.15 21.55 19.15 L19.0 19.15 19.0 16.4 21.55 16.4 Q22.25 16.4 23.05 15.65 23.8 14.85 23.8 14.15 L23.8 11.5 Q23.8 10.85 23.05 10.1 22.25 9.25 21.55 9.25 M9.3 21.4 L16.75 21.4 16.75 24.05 9.3 24.05 9.3 21.4 M16.75 11.5 L16.75 14.15 9.3 14.15 9.3 11.5 16.75 11.5 Z" fill="none" stroke="#333333" stroke-linecap="round" stroke-linejoin="round" stroke-width="4.0"/>
    <path d="M8.2 10.4 L8.2 15.3 17.85 15.3 17.85 10.4 8.2 10.4 M8.65 14.8 L8.65 10.9 17.4 10.9 17.4 14.8 8.65 14.8 M9.3 11.5 L9.3 14.15 16.75 14.15 16.75 11.5 9.3 11.5 M17.85 20.3 L8.2 20.3 8.2 25.25 17.85 25.25 17.85 20.3 M9.3 21.4 L9.3 24.05 16.75 24.05 16.75 21.4 9.3 21.4 M8.65 24.7 L8.65 20.8 17.4 20.8 17.4 24.7 8.65 24.7 M23.25 11.5 L22.6 10.5 Q22.0 9.9 21.55 9.9 L18.4 9.9 18.4 6.55 Q18.4 6.05 17.7 5.5 17.05 4.9 16.5 4.9 L9.55 4.9 Q9.0 4.9 8.35 5.5 7.65 6.05 7.65 6.6 L7.65 9.9 4.45 9.9 Q4.05 9.9 3.45 10.55 2.8 11.15 2.8 11.55 L2.8 14.15 Q2.8 14.6 3.45 15.2 4.05 15.85 4.45 15.85 L7.65 15.85 7.65 19.8 4.45 19.8 Q4.05 19.8 3.45 20.45 2.8 21.05 2.8 21.45 L2.8 24.05 Q2.8 24.5 3.45 25.1 4.05 25.75 4.45 25.75 L7.65 25.75 7.65 29.0 Q7.65 29.4 8.3 30.0 8.95 30.65 9.35 30.65 L16.7 30.65 Q17.1 30.65 17.75 30.0 L18.4 29.0 18.4 25.75 21.55 25.75 22.6 25.05 23.25 24.05 23.25 21.4 22.6 20.45 Q22.0 19.8 21.55 19.8 L18.4 19.8 18.4 15.85 21.55 15.85 22.6 15.15 23.25 14.15 23.25 11.5 M23.05 10.1 Q23.8 10.85 23.8 11.5 L23.8 14.15 Q23.8 14.85 23.05 15.65 22.25 16.4 21.55 16.4 L19.0 16.4 19.0 19.15 21.55 19.15 Q22.25 19.15 23.05 20.0 23.8 20.8 23.8 21.4 L23.8 24.05 Q23.8 24.75 23.0 25.55 22.25 26.35 21.55 26.35 L18.95 26.35 18.95 29.0 Q18.95 29.65 18.15 30.45 17.4 31.25 16.7 31.25 L9.35 31.25 Q8.65 31.25 7.85 30.45 7.1 29.65 7.1 29.0 L7.1 26.35 4.45 26.35 Q3.8 26.35 3.0 25.55 2.2 24.75 2.2 24.05 L2.2 21.45 Q2.2 20.8 3.05 20.0 3.8 19.15 4.45 19.15 L7.1 19.15 7.1 16.4 4.45 16.4 Q3.75 16.4 3.0 15.65 2.2 14.9 2.2 14.15 L2.2 11.55 Q2.2 10.9 3.05 10.1 3.8 9.25 4.45 9.25 L7.1 9.25 7.1 6.6 Q7.1 5.75 7.9 5.05 8.75 4.25 9.55 4.25 L16.5 4.25 Q17.05 4.25 18.0 5.0 L17.95 4.95 Q18.95 5.65 18.95 6.55 L18.95 9.25 21.55 9.25 Q22.25 9.25 23.05 10.1 M21.55 10.35 L22.25 10.85 22.75 11.5 22.75 14.15 22.3 14.85 21.55 15.35 17.95 15.35 17.95 20.3 21.55 20.3 22.25 20.75 22.75 21.4 22.75 24.05 22.3 24.75 21.55 25.25 17.9 25.25 17.9 29.0 17.45 29.7 16.7 30.15 9.35 30.15 8.6 29.65 8.15 29.0 8.15 25.25 4.45 25.25 3.8 24.8 3.3 24.05 3.3 21.45 Q3.3 21.25 3.8 20.8 4.3 20.3 4.45 20.3 L8.15 20.3 8.15 15.35 4.45 15.35 3.8 14.85 Q3.3 14.4 3.3 14.15 L3.3 11.55 3.8 10.9 4.45 10.35 8.15 10.35 8.15 6.6 Q8.15 6.25 8.65 5.85 9.2 5.4 9.55 5.4 L16.5 5.4 Q16.85 5.4 17.4 5.85 L17.9 6.55 17.9 10.35 21.55 10.35" fill="url(#gradient0)" fill-rule="evenodd" stroke="none"/>
  </g>
  <defs>
    <linearGradient gradientTransform="matrix(0.0, 0.0132, -0.0165, 0.0, 13.0, 17.75)" gradientUnits="userSpaceOnUse" id="gradient0" spreadMethod="pad" x1="-819.2" x2="819.2">
      <stop offset="0.0" stop-color="#ffffff"/>
      <stop offset="1.0" stop-color="#8d949a"/>
    </linearGradient>
  </defs>
</svg>
