<?xml version="1.0" encoding="UTF-8" standalone="no"?>
<svg xmlns:xlink="http://www.w3.org/1999/xlink" height="36.75px" width="26.0px" xmlns="http://www.w3.org/2000/svg">
  <g transform="matrix(1.0, 0.0, 0.0, 1.0, 0.0, 0.0)">
    <path d="M26.0 0.0 L26.0 36.75 0.0 36.75 0.0 0.0 26.0 0.0" fill="#cccc00" fill-opacity="0.0" fill-rule="evenodd" stroke="none"/>
    <path d="M23.05 20.15 Q23.8 20.95 23.8 21.65 L23.8 24.25 Q23.8 24.95 23.05 25.8 22.25 26.6 21.55 26.6 L18.95 26.6 18.95 29.2 Q18.95 29.9 18.2 30.7 17.45 31.5 16.75 31.5 L9.35 31.5 Q8.65 31.5 7.85 30.7 7.1 29.9 7.1 29.2 L7.1 26.6 4.5 26.6 Q3.8 26.6 3.05 25.8 2.2 24.95 2.2 24.25 L2.2 11.8 Q2.2 11.1 3.05 10.3 3.85 9.5 4.5 9.5 L7.1 9.5 7.1 6.85 Q7.1 6.0 7.95 5.25 8.75 4.5 9.55 4.5 L16.5 4.5 Q17.1 4.5 18.0 5.15 18.95 5.85 18.95 6.8 L18.95 9.4 Q18.95 10.1 18.2 10.9 17.5 11.7 16.75 11.7 L9.35 11.7 9.35 14.45 16.75 14.45 Q17.45 14.45 18.2 15.2 18.95 16.05 18.95 16.75 L18.95 19.4 21.55 19.4 Q22.3 19.4 23.05 20.15 M16.5 5.6 L17.35 6.05 Q17.9 6.45 17.9 6.8 L17.9 9.45 17.45 10.1 16.75 10.55 8.15 10.55 8.15 6.85 Q8.15 6.45 8.7 6.05 9.2 5.6 9.55 5.6 L16.5 5.6 M22.6 20.65 Q22.0 20.0 21.55 20.0 L18.4 20.0 18.4 16.75 17.75 15.65 16.75 15.05 8.65 15.05 8.65 11.05 16.75 11.05 17.75 10.5 18.4 9.45 18.4 6.8 Q18.4 6.3 17.7 5.7 17.05 5.15 16.5 5.15 L9.55 5.15 Q9.0 5.15 8.35 5.7 7.7 6.25 7.7 6.85 L7.7 10.1 4.5 10.1 3.5 10.75 Q2.8 11.4 2.8 11.8 L2.8 24.25 Q2.8 24.7 3.45 25.35 4.05 25.95 4.5 25.95 L7.7 25.95 7.7 29.2 Q7.7 29.6 8.3 30.25 L9.35 30.85 16.75 30.85 17.75 30.25 18.4 29.2 18.4 25.95 21.55 25.95 Q22.0 25.95 22.6 25.3 L23.25 24.3 23.25 21.7 Q23.25 21.3 22.6 20.65 M21.55 20.5 L22.25 21.0 22.75 21.7 22.75 24.3 22.3 24.95 21.55 25.45 17.9 25.45 17.9 29.2 17.45 29.9 16.75 30.35 9.35 30.35 8.65 29.9 8.15 29.2 8.15 25.45 4.5 25.45 3.8 24.95 Q3.3 24.5 3.3 24.25 L3.3 11.8 3.85 11.1 Q4.35 10.55 4.5 10.55 L8.15 10.55 8.15 15.55 16.75 15.55 17.45 16.0 17.9 16.75 17.9 20.5 21.55 20.5 M8.65 21.0 L8.65 24.95 17.4 24.95 17.4 21.0 8.65 21.0" fill="#00ffff" fill-rule="evenodd" stroke="none"/>
    <path d="M23.05 20.15 Q22.3 19.4 21.55 19.4 L18.95 19.4 18.95 16.75 Q18.95 16.05 18.2 15.2 17.45 14.45 16.75 14.45 L9.35 14.45 9.35 11.7 16.75 11.7 Q17.5 11.7 18.2 10.9 18.95 10.1 18.95 9.4 L18.95 6.8 Q18.95 5.85 18.0 5.15 17.1 4.5 16.5 4.5 L9.55 4.5 Q8.75 4.5 7.95 5.25 7.1 6.0 7.1 6.85 L7.1 9.5 4.5 9.5 Q3.85 9.5 3.05 10.3 2.2 11.1 2.2 11.8 L2.2 24.25 Q2.2 24.95 3.05 25.8 3.8 26.6 4.5 26.6 L7.1 26.6 7.1 29.2 Q7.1 29.9 7.85 30.7 8.65 31.5 9.35 31.5 L16.75 31.5 Q17.45 31.5 18.2 30.7 18.95 29.9 18.95 29.2 L18.95 26.6 21.55 26.6 Q22.25 26.6 23.05 25.8 23.8 24.95 23.8 24.25 L23.8 21.65 Q23.8 20.95 23.05 20.15 M8.65 21.0 L8.65 24.95 17.4 24.95 17.4 21.0 8.65 21.0 Z" fill="none" stroke="#333333" stroke-linecap="round" stroke-linejoin="round" stroke-width="4.0"/>
    <path d="M16.5 5.6 L17.35 6.05 Q17.9 6.45 17.9 6.8 L17.9 9.45 17.45 10.1 16.75 10.55 8.15 10.55 8.15 6.85 Q8.15 6.45 8.7 6.05 9.2 5.6 9.55 5.6 L16.5 5.6 M21.55 20.5 L22.25 21.0 22.75 21.7 22.75 24.3 22.3 24.95 21.55 25.45 17.9 25.45 17.9 29.2 17.45 29.9 16.75 30.35 9.35 30.35 8.65 29.9 8.15 29.2 8.15 25.45 4.5 25.45 3.8 24.95 Q3.3 24.5 3.3 24.25 L3.3 11.8 3.85 11.1 Q4.35 10.55 4.5 10.55 L8.15 10.55 8.15 15.55 16.75 15.55 17.45 16.0 17.9 16.75 17.9 20.5 21.55 20.5 M22.6 20.65 Q22.0 20.0 21.55 20.0 L18.4 20.0 18.4 16.75 17.75 15.65 16.75 15.05 8.65 15.05 8.65 11.05 16.75 11.05 17.75 10.5 18.4 9.45 18.4 6.8 Q18.4 6.3 17.7 5.7 17.05 5.15 16.5 5.15 L9.55 5.15 Q9.0 5.15 8.35 5.7 7.7 6.25 7.7 6.85 L7.7 10.1 4.5 10.1 3.5 10.75 Q2.8 11.4 2.8 11.8 L2.8 24.25 Q2.8 24.7 3.45 25.35 4.05 25.95 4.5 25.95 L7.7 25.95 7.7 29.2 Q7.7 29.6 8.3 30.25 L9.35 30.85 16.75 30.85 17.75 30.25 18.4 29.2 18.4 25.95 21.55 25.95 Q22.0 25.95 22.6 25.3 L23.25 24.3 23.25 21.7 Q23.25 21.3 22.6 20.65 M23.05 20.15 Q23.8 20.95 23.8 21.65 L23.8 24.25 Q23.8 24.95 23.05 25.8 22.25 26.6 21.55 26.6 L18.95 26.6 18.95 29.2 Q18.95 29.9 18.2 30.7 17.45 31.5 16.75 31.5 L9.35 31.5 Q8.65 31.5 7.85 30.7 7.1 29.9 7.1 29.2 L7.1 26.6 4.5 26.6 Q3.8 26.6 3.05 25.8 2.2 24.95 2.2 24.25 L2.2 11.8 Q2.2 11.1 3.05 10.3 3.85 9.5 4.5 9.5 L7.1 9.5 7.1 6.85 Q7.1 6.0 7.95 5.25 8.75 4.5 9.55 4.5 L16.5 4.5 Q17.1 4.5 18.0 5.15 18.95 5.85 18.95 6.8 L18.95 9.4 Q18.95 10.1 18.2 10.9 17.5 11.7 16.75 11.7 L9.35 11.7 9.35 14.45 16.75 14.45 Q17.45 14.45 18.2 15.2 18.95 16.05 18.95 16.75 L18.95 19.4 21.55 19.4 Q22.3 19.4 23.05 20.15 M8.65 21.0 L8.65 24.95 17.4 24.95 17.4 21.0 8.65 21.0" fill="url(#gradient0)" fill-rule="evenodd" stroke="none"/>
  </g>
  <defs>
    <linearGradient gradientTransform="matrix(0.0, 0.0132, -0.0165, 0.0, 13.0, 18.0)" gradientUnits="userSpaceOnUse" id="gradient0" spreadMethod="pad" x1="-819.2" x2="819.2">
      <stop offset="0.0" stop-color="#ffffff"/>
      <stop offset="1.0" stop-color="#8d949a"/>
    </linearGradient>
  </defs>
</svg>
