<?xml version="1.0" encoding="UTF-8" standalone="no"?>
<svg xmlns:xlink="http://www.w3.org/1999/xlink" height="36.75px" width="26.0px" xmlns="http://www.w3.org/2000/svg">
  <g transform="matrix(1.0, 0.0, 0.0, 1.0, 0.0, 0.0)">
    <path d="M26.0 0.0 L26.0 36.75 0.0 36.75 0.0 0.0 26.0 0.0" fill="#cccc00" fill-opacity="0.0" fill-rule="evenodd" stroke="none"/>
    <path d="M21.35 10.15 Q22.05 10.15 22.8 10.9 23.55 11.65 23.55 12.3 L23.55 14.85 Q23.55 15.55 22.8 16.35 22.05 17.1 21.35 17.1 L18.8 17.1 18.8 19.7 Q18.8 20.35 18.05 21.15 17.3 21.9 16.65 21.9 L9.45 21.9 9.45 24.55 21.35 24.55 Q21.95 24.55 22.75 25.35 23.55 26.15 23.55 26.75 L23.55 29.3 Q23.55 30.0 22.8 30.75 22.05 31.55 21.35 31.55 L4.75 31.55 Q4.1 31.55 3.3 30.75 2.55 29.95 2.55 29.3 L2.55 22.0 Q2.55 21.35 3.3 20.55 4.05 19.75 4.75 19.75 L7.25 19.75 7.25 17.2 Q7.25 16.5 8.05 15.75 8.8 14.95 9.45 14.95 L16.65 14.95 16.65 12.3 4.75 12.3 Q4.05 12.3 3.25 11.55 2.55 10.75 2.55 10.05 L2.55 7.55 Q2.55 6.7 3.3 6.0 4.15 5.3 5.0 5.3 L16.4 5.3 Q17.2 5.3 18.0 6.0 18.8 6.7 18.8 7.5 L18.8 10.15 21.35 10.15 M3.6 22.0 Q3.6 21.75 4.05 21.3 4.5 20.85 4.75 20.85 L8.3 20.85 8.3 25.65 21.35 25.65 22.0 26.1 22.5 26.75 22.5 29.3 22.05 30.0 21.35 30.45 4.75 30.45 4.05 29.95 3.6 29.3 3.6 22.0 M8.3 17.2 L8.8 16.5 Q9.25 16.05 9.45 16.05 L17.75 16.05 17.75 19.7 17.3 20.4 16.6 20.85 8.3 20.85 8.3 17.2 M17.25 6.8 Q17.75 7.15 17.75 7.5 L17.75 11.2 4.75 11.2 4.05 10.75 3.6 10.05 3.6 7.55 Q3.6 7.15 4.1 6.8 4.6 6.35 5.0 6.35 L16.4 6.35 17.25 6.8 M21.35 11.2 L22.0 11.65 22.5 12.3 22.5 14.85 22.05 15.55 21.35 16.05 17.75 16.05 17.75 11.2 21.35 11.2 M22.35 11.3 Q21.75 10.75 21.35 10.75 L18.25 10.75 18.25 7.5 Q18.25 7.05 17.6 6.45 16.9 5.9 16.4 5.9 L5.0 5.9 Q4.4 5.9 3.75 6.45 3.1 7.05 3.1 7.55 L3.1 10.05 Q3.1 10.5 3.7 11.1 4.3 11.65 4.75 11.65 L17.25 11.65 17.25 15.5 9.45 15.5 Q9.1 15.5 8.5 16.15 7.85 16.85 7.85 17.2 L7.85 20.35 4.75 20.35 Q4.3 20.35 3.7 21.0 3.1 21.55 3.1 22.0 L3.1 29.3 Q3.1 29.7 3.7 30.3 L4.75 30.9 21.35 30.9 Q21.75 30.9 22.35 30.3 22.95 29.75 22.95 29.3 L22.95 26.75 Q22.95 26.4 22.35 25.75 21.7 25.2 21.35 25.2 L8.8 25.2 8.8 21.35 16.6 21.35 Q17.0 21.35 17.6 20.7 L18.25 19.7 18.25 16.5 21.35 16.5 Q21.75 16.5 22.35 15.85 22.95 15.25 22.95 14.85 L22.95 12.3 Q22.95 11.95 22.35 11.3" fill="#0099cc" fill-rule="evenodd" stroke="none"/>
    <path d="M21.35 10.15 L18.8 10.15 18.8 7.5 Q18.8 6.7 18.0 6.0 17.2 5.3 16.4 5.3 L5.0 5.3 Q4.15 5.3 3.3 6.0 2.55 6.7 2.55 7.55 L2.55 10.05 Q2.55 10.75 3.25 11.55 4.05 12.3 4.75 12.3 L16.65 12.3 16.65 14.95 9.45 14.95 Q8.8 14.95 8.05 15.75 7.25 16.5 7.25 17.2 L7.25 19.75 4.75 19.75 Q4.05 19.75 3.3 20.55 2.55 21.35 2.55 22.0 L2.55 29.3 Q2.55 29.95 3.3 30.75 4.1 31.55 4.75 31.55 L21.35 31.55 Q22.05 31.55 22.8 30.75 23.55 30.0 23.55 29.3 L23.55 26.75 Q23.55 26.15 22.75 25.35 21.95 24.55 21.35 24.55 L9.45 24.55 9.45 21.9 16.65 21.9 Q17.3 21.9 18.05 21.15 18.8 20.35 18.8 19.7 L18.8 17.1 21.35 17.1 Q22.05 17.1 22.8 16.35 23.55 15.55 23.55 14.85 L23.55 12.3 Q23.55 11.65 22.8 10.9 22.05 10.15 21.35 10.15 Z" fill="none" stroke="#333333" stroke-linecap="round" stroke-linejoin="round" stroke-width="4.0"/>
    <path d="M3.6 22.0 Q3.6 21.75 4.05 21.3 4.5 20.85 4.75 20.85 L8.3 20.85 8.3 25.65 21.35 25.65 22.0 26.1 22.5 26.75 22.5 29.3 22.05 30.0 21.35 30.45 4.75 30.45 4.05 29.95 3.6 29.3 3.6 22.0 M8.3 17.2 L8.8 16.5 Q9.25 16.05 9.45 16.05 L17.75 16.05 17.75 19.7 17.3 20.4 16.6 20.85 8.3 20.85 8.3 17.2 M17.75 7.5 L17.75 11.2 4.75 11.2 4.05 10.75 3.6 10.05 3.6 7.55 Q3.6 7.15 4.1 6.8 4.6 6.35 5.0 6.35 L16.4 6.35 17.25 6.8 Q17.75 7.15 17.75 7.5 M22.0 11.65 L22.5 12.3 22.5 14.85 22.05 15.55 21.35 16.05 17.75 16.05 17.75 11.2 21.35 11.2 22.0 11.65 M22.8 10.9 Q23.55 11.65 23.55 12.3 L23.55 14.85 Q23.55 15.55 22.8 16.35 22.05 17.1 21.35 17.1 L18.8 17.1 18.8 19.7 Q18.8 20.35 18.05 21.15 17.3 21.9 16.65 21.9 L9.45 21.9 9.45 24.55 21.35 24.55 Q21.95 24.55 22.75 25.35 23.55 26.15 23.55 26.75 L23.55 29.3 Q23.55 30.0 22.8 30.75 22.05 31.55 21.35 31.55 L4.75 31.55 Q4.1 31.55 3.3 30.75 2.55 29.95 2.55 29.3 L2.55 22.0 Q2.55 21.35 3.3 20.55 4.05 19.75 4.75 19.75 L7.25 19.75 7.25 17.2 Q7.25 16.5 8.05 15.75 8.8 14.95 9.45 14.95 L16.65 14.95 16.65 12.3 4.75 12.3 Q4.05 12.3 3.25 11.55 2.55 10.75 2.55 10.05 L2.55 7.55 Q2.55 6.7 3.3 6.0 4.15 5.3 5.0 5.3 L16.4 5.3 Q17.2 5.3 18.0 6.0 18.8 6.7 18.8 7.5 L18.8 10.15 21.35 10.15 Q22.05 10.15 22.8 10.9 M22.35 11.3 Q21.75 10.75 21.35 10.75 L18.25 10.75 18.25 7.5 Q18.25 7.05 17.6 6.45 16.9 5.9 16.4 5.9 L5.0 5.9 Q4.4 5.9 3.75 6.45 3.1 7.05 3.1 7.55 L3.1 10.05 Q3.1 10.5 3.7 11.1 4.3 11.65 4.75 11.65 L17.25 11.65 17.25 15.5 9.45 15.5 Q9.1 15.5 8.5 16.15 7.85 16.85 7.85 17.2 L7.85 20.35 4.75 20.35 Q4.3 20.35 3.7 21.0 3.1 21.55 3.1 22.0 L3.1 29.3 Q3.1 29.7 3.7 30.3 L4.75 30.9 21.35 30.9 Q21.75 30.9 22.35 30.3 22.95 29.75 22.95 29.3 L22.95 26.75 Q22.95 26.4 22.35 25.75 21.7 25.2 21.35 25.2 L8.8 25.2 8.8 21.35 16.6 21.35 Q17.0 21.35 17.6 20.7 L18.25 19.7 18.25 16.5 21.35 16.5 Q21.75 16.5 22.35 15.85 22.95 15.25 22.95 14.85 L22.95 12.3 Q22.95 11.95 22.35 11.3" fill="url(#gradient0)" fill-rule="evenodd" stroke="none"/>
  </g>
  <defs>
    <linearGradient gradientTransform="matrix(0.0, 0.0128, -0.016, 0.0, 13.05, 18.4)" gradientUnits="userSpaceOnUse" id="gradient0" spreadMethod="pad" x1="-819.2" x2="819.2">
      <stop offset="0.0" stop-color="#ffffff"/>
      <stop offset="1.0" stop-color="#8d949a"/>
    </linearGradient>
  </defs>
</svg>
