<?xml version="1.0" encoding="UTF-8" standalone="no"?>
<svg xmlns:xlink="http://www.w3.org/1999/xlink" height="106.2px" width="82.0px" xmlns="http://www.w3.org/2000/svg">
  <g transform="matrix(1.0, 0.0, 0.0, 1.0, 55.75, -27.05)">
    <path d="M-1.4 111.15 Q0.75 109.05 2.25 106.35 3.85 103.4 3.85 101.15 3.85 99.7 3.35 98.8 2.7 97.6 1.35 97.6 0.3 97.6 -3.3 99.75 -7.15 102.0 -9.2 102.25 L-9.8 102.25 Q-6.0 99.35 -3.65 95.8 -1.35 92.2 -1.35 88.05 -1.4 83.85 -2.3 81.5 -3.2 79.1 -3.2 76.4 -3.2 73.55 -1.6 69.45 0.0 65.3 0.0 62.95 0.0 60.8 -0.55 59.3 L-1.6 57.05 Q1.6 58.2 3.25 61.85 L4.4 64.65 Q5.0 65.85 5.75 65.85 6.75 65.85 8.15 61.55 9.7 56.75 9.7 51.65 9.7 44.85 2.75 28.45 L10.45 38.55 12.75 41.85 15.75 46.55 Q17.45 49.45 19.1 56.15 20.55 61.85 20.55 65.5 20.55 69.5 19.35 74.6 18.15 79.65 18.15 80.55 18.15 82.45 19.8 85.15 21.4 87.8 21.35 90.55 21.25 93.3 20.5 94.85 19.75 96.4 19.35 96.4 L19.35 96.35 Q19.15 95.0 17.9 93.65 16.45 92.1 15.0 92.1 13.1 92.1 12.15 94.85 L9.55 102.05 Q8.05 105.15 4.05 107.95 L-1.4 111.15 M2.25 65.7 L2.55 68.1 Q2.55 70.6 1.4 73.7 0.25 76.75 0.25 79.15 0.25 80.2 0.9 83.35 1.5 86.55 1.5 87.7 1.5 92.45 -1.45 96.55 L-1.65 96.75 1.1 94.95 Q1.9 94.45 3.4 94.45 5.05 94.45 5.7 95.7 6.15 96.6 6.15 98.45 6.15 101.25 4.65 105.0 L4.65 105.2 Q6.35 103.3 7.6 100.55 8.75 97.95 9.1 95.5 9.65 91.65 11.0 89.85 12.4 87.9 14.95 87.9 15.95 87.9 17.4 89.2 18.65 90.3 19.0 91.05 L19.0 89.5 Q19.0 87.05 16.9 84.9 14.8 82.7 14.8 79.45 14.8 77.8 16.05 73.75 17.3 69.75 17.3 66.4 17.3 59.7 14.7 51.55 12.35 44.3 9.45 40.05 12.25 49.15 12.25 56.05 12.25 62.5 11.0 66.2 9.65 70.2 7.1 70.2 4.5 70.2 3.35 67.45 L2.15 65.25 2.25 65.7 M25.35 114.15 Q24.0 119.15 19.3 123.3 15.15 127.1 10.5 128.35 L13.35 126.0 Q15.75 123.65 16.55 121.85 L16.95 120.45 16.85 120.25 16.4 120.1 Q15.85 119.95 12.45 120.85 L7.9 121.85 Q11.4 118.8 19.3 116.8 23.6 115.8 25.45 113.75 L25.35 114.15 M-49.0 97.2 L-49.3 94.45 -49.4 93.55 -49.1 94.0 -48.4 95.45 -47.65 96.85 Q-47.25 97.35 -46.4 97.35 -43.85 97.35 -43.45 92.85 -42.75 85.5 -41.85 83.0 -41.0 80.45 -39.55 78.25 -38.15 76.05 -36.75 74.75 L-34.7 72.5 -33.2 70.0 Q-32.4 68.45 -32.25 65.7 L-32.1 66.8 -32.1 71.1 Q-32.15 74.95 -34.3 80.55 -36.5 86.1 -36.15 90.2 -35.8 94.3 -34.9 96.0 L-34.8 96.2 -33.35 96.65 Q-31.9 96.65 -30.5 93.85 L-29.65 91.7 -29.8 92.35 -30.1 94.4 Q-30.1 95.45 -29.2 98.0 -28.35 100.55 -28.35 101.9 -28.35 102.7 -28.8 103.95 L-29.85 106.1 Q-30.6 107.5 -30.8 108.55 L-30.95 109.1 -31.05 110.05 -30.85 111.9 -30.25 113.35 -30.45 113.35 Q-31.6 113.35 -33.1 111.95 -34.6 110.5 -36.25 110.5 -37.2 110.5 -37.9 111.0 -39.1 111.85 -39.1 113.95 -39.1 119.05 -32.25 125.9 L-32.5 125.9 Q-37.5 126.05 -43.3 121.75 -50.4 116.45 -50.4 108.4 L-49.7 102.9 Q-49.0 98.7 -49.0 97.2 M-41.95 96.75 Q-42.8 102.05 -44.7 102.05 -45.4 102.05 -46.05 101.15 L-47.25 99.55 -46.8 100.8 -46.8 102.3 -47.25 108.8 Q-47.25 113.55 -44.1 117.45 -41.5 120.7 -37.55 122.5 -39.25 121.35 -40.35 118.65 -41.35 116.2 -41.35 113.95 -41.35 111.3 -40.1 109.45 -38.65 107.35 -36.15 107.35 -34.7 107.35 -34.0 107.85 -33.15 108.45 -33.1 109.85 L-32.05 106.55 Q-31.2 104.1 -31.2 102.5 L-31.25 100.05 -32.05 97.85 -32.25 97.65 Q-31.85 98.95 -33.05 99.65 -33.9 100.15 -34.9 100.15 -37.15 100.15 -37.75 96.6 -37.95 95.45 -37.95 91.4 -37.95 86.2 -37.75 85.0 -37.25 82.1 -34.8 77.2 L-35.15 77.2 Q-35.65 79.8 -37.95 82.9 -41.15 87.1 -41.35 90.05 -41.6 94.65 -41.95 96.75" fill="#ffcc00" fill-rule="evenodd" stroke="none"/>
    <path d="M2.25 65.7 L2.15 65.25 3.35 67.45 Q4.5 70.2 7.1 70.2 9.65 70.2 11.0 66.2 12.25 62.5 12.25 56.05 12.25 49.15 9.45 40.05 12.35 44.3 14.7 51.55 17.3 59.7 17.3 66.4 17.3 69.75 16.05 73.75 14.8 77.8 14.8 79.45 14.8 82.7 16.9 84.9 19.0 87.05 19.0 89.5 L19.0 91.05 Q18.65 90.3 17.4 89.2 15.95 87.9 14.95 87.9 12.4 87.9 11.0 89.85 9.65 91.65 9.1 95.5 8.75 97.95 7.6 100.55 6.35 103.3 4.65 105.2 L4.65 105.0 Q6.15 101.25 6.15 98.45 6.15 96.6 5.7 95.7 5.05 94.45 3.4 94.45 1.9 94.45 1.1 94.95 L-1.65 96.75 -1.45 96.55 Q1.5 92.45 1.5 87.7 1.5 86.55 0.9 83.35 0.25 80.2 0.25 79.15 0.25 76.75 1.4 73.7 2.55 70.6 2.55 68.1 L2.25 65.7 M-41.95 96.75 Q-41.6 94.65 -41.35 90.05 -41.15 87.1 -37.95 82.9 -35.65 79.8 -35.15 77.2 L-34.8 77.2 Q-37.25 82.1 -37.75 85.0 -37.95 86.2 -37.95 91.4 -37.95 95.45 -37.75 96.6 -37.15 100.15 -34.9 100.15 -33.9 100.15 -33.05 99.65 -31.85 98.95 -32.25 97.65 L-32.05 97.85 -31.25 100.05 -31.2 102.5 Q-31.2 104.1 -32.05 106.55 L-33.1 109.85 Q-33.15 108.45 -34.0 107.85 -34.7 107.35 -36.15 107.35 -38.65 107.35 -40.1 109.45 -41.35 111.3 -41.35 113.95 -41.35 116.2 -40.35 118.65 -39.25 121.35 -37.55 122.5 -41.5 120.7 -44.1 117.45 -47.25 113.55 -47.25 108.8 L-46.8 102.3 -46.8 100.8 -47.25 99.55 -46.05 101.15 Q-45.4 102.05 -44.7 102.05 -42.8 102.05 -41.95 96.75" fill="#ffff66" fill-rule="evenodd" stroke="none"/>
    <path d="M25.35 114.15 Q24.0 119.15 19.3 123.3 15.15 127.1 10.5 128.35 L13.35 126.0 Q15.75 123.65 16.55 121.85 L16.95 120.45 16.85 120.25 16.4 120.1 Q15.85 119.95 12.45 120.85 L7.9 121.85 Q11.4 118.8 19.3 116.8 23.6 115.8 25.45 113.75 L25.35 114.15 M-49.0 97.2 Q-49.0 98.7 -49.7 102.9 L-50.4 108.4 Q-50.4 116.45 -43.3 121.75 -37.5 126.05 -32.5 125.9 L-32.25 125.9 Q-39.1 119.05 -39.1 113.95 -39.1 111.85 -37.9 111.0 -37.2 110.5 -36.25 110.5 -34.6 110.5 -33.1 111.95 -31.6 113.35 -30.45 113.35 L-30.25 113.35 -30.85 111.9 -31.05 110.05 -30.95 109.1 -30.8 108.55 Q-30.6 107.5 -29.85 106.1 L-28.8 103.95 Q-28.35 102.7 -28.35 101.9 -28.35 100.55 -29.2 98.0 -30.1 95.45 -30.1 94.4 L-29.8 92.35 -29.65 91.7 -30.5 93.85 Q-31.9 96.65 -33.35 96.65 L-34.8 96.2 -34.9 96.0 Q-35.8 94.3 -36.15 90.2 -36.5 86.1 -34.3 80.55 -32.15 74.95 -32.1 71.1 L-32.1 66.8 -32.25 65.7 Q-32.4 68.45 -33.2 70.0 L-34.7 72.5 -36.75 74.75 Q-38.15 76.05 -39.55 78.25 -41.0 80.45 -41.85 83.0 -42.75 85.5 -43.45 92.85 -43.85 97.35 -46.4 97.35 -47.25 97.35 -47.65 96.85 L-48.4 95.45 -49.1 94.0 -49.4 93.55 -49.3 94.45 -49.0 97.2 M-29.65 91.7 L-29.4 91.05 -29.4 90.9 -29.65 91.7 M-31.05 110.05 L-30.8 108.55" fill="none" stroke="#ff6600" stroke-linecap="butt" stroke-linejoin="miter-clip" stroke-miterlimit="3.0" stroke-width="1.0"/>
    <path d="M-1.4 111.15 Q0.75 109.05 2.25 106.35 3.85 103.4 3.85 101.15 3.85 99.7 3.35 98.8 2.7 97.6 1.35 97.6 0.3 97.6 -3.3 99.75 -7.15 102.0 -9.2 102.25 L-9.8 102.25 Q-6.0 99.35 -3.65 95.8 -1.35 92.2 -1.35 88.05 -1.4 83.85 -2.3 81.5 -3.2 79.1 -3.2 76.4 -3.2 73.55 -1.6 69.45 0.0 65.3 0.0 62.95 0.0 60.8 -0.55 59.3 L-1.6 57.05 Q1.6 58.2 3.25 61.85 L4.4 64.65 Q5.0 65.85 5.75 65.85 6.75 65.85 8.15 61.55 9.7 56.75 9.7 51.65 9.7 44.85 2.75 28.45 L10.45 38.55 12.75 41.85 15.75 46.55 Q17.45 49.45 19.1 56.15 20.55 61.85 20.55 65.5 20.55 69.5 19.35 74.6 18.15 79.65 18.15 80.55 18.15 82.45 19.8 85.15 21.4 87.8 21.35 90.55 21.25 93.3 20.5 94.85 19.75 96.4 19.35 96.4 L19.5 96.65 19.35 96.65 19.35 96.45 19.35 96.4 19.35 96.35 Q19.15 95.0 17.9 93.65 16.45 92.1 15.0 92.1 13.1 92.1 12.15 94.85 L9.55 102.05 Q8.05 105.15 4.05 107.95 L-1.4 111.15 -1.55 111.25 -1.65 111.25 -1.4 111.15" fill="none" stroke="#ff6600" stroke-linecap="butt" stroke-linejoin="miter-clip" stroke-miterlimit="3.0" stroke-width="1.0"/>
    <path d="M-55.0 122.0 Q-54.35 123.0 -51.6 123.75 -51.9 122.7 -51.9 120.45 -46.8 127.5 -37.35 128.55 L-38.5 128.7 -39.7 128.85 Q-41.9 128.85 -44.7 127.75 -47.5 126.6 -48.4 126.6 L-49.35 126.6 Q-49.65 126.8 -49.65 128.1 -49.65 129.05 -49.05 130.55 L-47.7 132.75 -48.0 132.75 -51.35 128.6 Q-54.15 124.75 -55.0 122.0" fill="#ffcc00" fill-rule="evenodd" stroke="none"/>
    <path d="M-37.35 128.55 Q-46.8 127.5 -51.9 120.45 -51.9 122.7 -51.6 123.75 -54.35 123.0 -55.0 122.0" fill="none" stroke="#ff6600" stroke-linecap="butt" stroke-linejoin="miter-clip" stroke-miterlimit="3.0" stroke-width="1.0"/>
    <path d="M-55.0 122.0 Q-54.15 124.75 -51.35 128.6 L-48.0 132.75 -47.7 132.75 -49.05 130.55 Q-49.65 129.05 -49.65 128.1 -49.65 126.8 -49.35 126.6 L-48.4 126.6 Q-47.5 126.6 -44.7 127.75 -41.9 128.85 -39.7 128.85 L-38.5 128.7 -37.35 128.55 M-55.0 122.0 L-55.25 121.25" fill="none" stroke="#ff6600" stroke-linecap="round" stroke-linejoin="miter-clip" stroke-miterlimit="3.0" stroke-width="1.0"/>
    <path d="M-41.6 92.9 Q-41.55 89.9 -40.35 88.85 -39.55 90.05 -39.5 92.4 L-39.45 96.3 Q-39.05 100.95 -33.5 101.65 L-33.35 101.75 -33.25 102.55 Q-33.25 103.45 -34.9 104.5 -36.85 105.75 -39.1 105.05 L-41.9 105.05 Q-42.55 106.95 -42.75 111.5 L-42.85 111.75 -43.75 112.0 Q-44.7 112.0 -45.3 108.5 L-45.75 105.0 -43.65 103.2 Q-41.55 101.55 -41.4 97.5 L-41.6 92.9" fill="#ffffcc" fill-rule="evenodd" stroke="none"/>
    <path d="M14.55 59.55 Q15.55 60.0 15.75 61.05 L15.8 62.5 Q15.8 65.4 14.35 71.25 12.85 77.1 12.85 77.65 12.85 78.75 13.7 80.75 L15.3 84.6 15.05 85.35 Q14.8 85.55 13.95 85.35 L12.25 85.0 Q8.65 85.0 8.8 89.7 8.95 95.1 7.25 96.05 5.9 95.25 5.85 93.3 L5.9 90.0 Q5.05 91.9 5.05 93.5 L4.7 93.8 3.6 94.1 2.25 93.85 2.15 92.35 Q2.15 91.6 3.15 89.0 4.1 86.4 4.1 85.3 4.1 83.85 3.2 82.0 2.25 80.2 2.25 78.55 2.25 76.7 2.8 74.9 3.65 72.0 5.55 71.5 7.0 72.4 7.15 74.35 7.3 77.15 7.5 77.65 9.7 74.85 11.65 68.5 13.95 60.75 14.55 59.55" fill="#ffffcc" fill-rule="evenodd" stroke="none"/>
  </g>
</svg>
