<?xml version="1.0" encoding="UTF-8" standalone="no"?>
<svg xmlns:xlink="http://www.w3.org/1999/xlink" height="33.1px" width="163.95px" xmlns="http://www.w3.org/2000/svg">
  <g transform="matrix(1.0, 0.0, 0.0, 1.0, 79.0, 16.0)">
    <path d="M-68.15 -13.0 L-68.65 -11.25 -63.1 -11.25 -63.1 0.7 Q-63.1 3.5 -65.45 3.5 L-68.3 3.5 -68.4 4.05 -68.55 4.45 -66.4 4.45 -66.4 6.85 -65.45 4.1 -63.1 4.1 -64.55 7.75 -63.95 7.75 Q-63.6 7.75 -63.6 7.4 L-63.6 5.85 -61.7 5.85 -61.7 8.3 Q-61.7 8.85 -62.1 9.35 L-63.2 10.0 -66.4 10.0 -66.4 10.2 Q-66.4 10.8 -65.8 10.8 L-48.95 10.8 -48.95 13.85 -67.7 13.85 Q-69.55 13.85 -69.55 12.05 L-69.55 7.25 -70.85 10.7 Q-71.85 13.8 -73.55 13.95 L-76.0 13.95 -76.0 10.65 -74.6 10.65 Q-73.95 10.5 -73.65 9.5 L-71.55 3.5 -75.9 3.5 -75.9 -11.25 -72.4 -11.25 -71.9 -13.0 -68.15 -13.0 M-24.7 -12.9 L-24.45 -11.35 -24.3 -11.35 Q-23.4 -11.35 -23.05 -12.4 L-18.8 -12.4 Q-19.0 -10.05 -19.95 -9.1 -20.85 -8.2 -22.55 -8.2 L-24.0 -8.2 -23.15 -2.7 -22.8 -2.95 -22.8 -7.15 -19.4 -7.15 -19.4 -1.5 Q-19.4 -0.1 -22.7 0.45 -22.5 1.3 -21.85 1.3 L-18.95 1.3 -18.95 4.7 -24.1 4.7 Q-26.3 4.7 -26.65 1.9 L-26.8 0.8 -27.75 0.8 -27.75 -2.35 -27.25 -2.35 -28.05 -8.2 -45.65 -8.2 -45.65 -11.35 -28.45 -11.35 -28.65 -12.9 -24.7 -12.9 M76.5 -4.65 L75.55 9.15 Q75.3 12.85 74.0 12.85 L70.8 12.85 70.8 10.1 71.75 10.1 Q72.3 10.1 72.35 7.5 L73.15 -4.65 71.0 -4.65 71.0 -7.65 73.3 -7.65 73.45 -9.55 76.9 -9.55 76.75 -7.65 81.95 -7.65 81.95 10.1 Q81.95 12.65 79.0 12.65 L76.4 12.65 76.4 9.8 77.95 9.8 Q78.6 9.8 78.6 9.2 L78.6 -4.65 76.5 -4.65 M69.95 -5.1 L60.45 -5.1 60.45 -8.35 69.95 -8.35 69.95 -5.1 M69.25 11.8 Q68.45 12.65 67.3 12.65 L60.2 12.65 60.2 10.5 60.4 8.95 62.15 1.0 59.95 1.0 59.95 -2.2 70.45 -2.2 70.45 1.0 65.55 1.0 63.55 9.7 66.2 9.7 Q66.8 9.7 66.8 9.2 L66.8 6.4 69.95 6.4 69.95 10.4 Q69.95 11.1 69.25 11.8 M57.2 -0.75 L55.75 -0.75 55.75 9.9 Q55.75 12.75 52.25 12.75 L45.7 12.75 45.7 9.7 51.4 9.7 Q52.05 9.7 52.05 9.15 L52.05 -0.75 43.1 -0.75 43.1 -3.7 57.2 -3.7 57.2 -0.75 M57.05 -6.3 L43.5 -6.3 43.5 -9.1 57.05 -9.1 57.05 -6.3 M38.2 -9.6 L42.1 -9.6 39.95 -4.55 39.8 -4.2 39.65 -3.95 42.5 -3.95 40.05 1.75 40.05 12.75 36.5 12.75 36.5 3.4 34.85 3.4 34.85 0.25 36.15 0.25 Q36.95 0.25 37.35 -0.75 L38.2 -2.9 37.7 -2.85 35.1 -2.85 35.1 -6.0 36.25 -6.0 Q36.9 -6.0 37.2 -6.85 L38.2 -9.6 M26.8 -3.8 L26.8 0.35 32.45 0.35 32.45 3.45 25.9 3.45 22.35 9.65 27.85 9.65 Q28.45 9.65 28.45 9.15 L28.45 6.0 31.85 6.0 31.85 10.2 Q31.85 12.55 29.3 12.55 L18.1 12.55 18.1 9.9 21.65 3.45 17.55 3.45 17.55 0.35 23.15 0.35 23.15 -3.8 18.0 -3.8 18.0 -6.9 23.15 -6.9 23.15 -9.45 26.8 -9.45 26.8 -6.9 31.95 -6.9 31.95 -3.8 26.8 -3.8 M16.7 -2.8 L13.7 -2.8 Q12.2 -2.8 11.75 -4.2 L11.65 -4.45 10.45 -8.55 13.95 -8.55 14.55 -6.5 Q14.75 -5.75 15.35 -5.75 L16.7 -5.75 16.7 -2.8 M6.45 -6.2 L-3.7 -6.2 -4.95 -1.25 7.3 -1.25 7.3 1.9 -5.75 1.9 -7.95 10.6 Q-8.45 12.85 -9.75 12.85 L-14.9 12.85 -14.9 9.9 -11.6 9.9 Q-11.25 9.9 -11.05 9.15 L-9.2 1.9 -14.9 1.9 -14.9 -1.25 -8.45 -1.25 -7.25 -6.2 -14.05 -6.2 -14.05 -9.2 6.45 -9.2 6.45 -6.2 M14.05 -1.65 L14.65 0.4 Q14.85 1.25 15.45 1.25 L17.0 1.25 17.0 4.15 13.8 4.15 Q12.15 4.15 11.75 2.45 L10.55 -1.65 14.05 -1.65 M13.3 5.45 L16.8 5.45 15.55 10.85 Q15.05 12.75 13.2 12.75 L10.55 12.75 10.55 9.8 12.0 9.8 Q12.35 9.8 12.55 9.1 L13.3 5.45 M7.45 12.9 L-0.5 12.9 Q-2.65 12.9 -2.65 11.2 L-2.65 3.3 0.95 3.3 0.95 9.55 Q0.95 10.0 1.7 10.0 L7.45 10.0 7.45 12.9 M-28.9 -1.85 Q-28.9 0.35 -31.7 0.35 L-44.7 0.35 -44.7 -7.25 -28.9 -7.25 -28.9 -1.85 M-32.8 -3.4 L-32.8 -4.35 -41.1 -4.35 -41.1 -2.7 -33.7 -2.7 Q-32.8 -2.7 -32.8 -3.4 M-27.95 4.45 L-45.3 4.45 -45.3 1.15 -27.95 1.15 -27.95 4.45 M-34.05 10.9 L-25.15 10.9 -25.15 14.1 -35.0 14.1 Q-39.0 14.1 -39.0 10.9 L-39.0 5.5 -35.0 5.5 -35.0 10.2 Q-35.0 10.9 -34.05 10.9 M-33.45 7.75 L-33.45 5.5 -29.6 5.5 -29.6 6.45 Q-29.6 6.9 -29.25 6.9 L-26.55 6.9 -26.55 9.85 -30.8 9.85 Q-33.25 9.85 -33.45 7.75 M-20.95 5.5 L-19.95 9.45 Q-19.8 10.2 -19.4 10.2 L-18.8 10.2 -18.8 13.5 -21.05 13.5 Q-22.9 13.5 -23.45 11.55 L-25.15 5.5 -20.95 5.5 M-50.25 -7.75 L-53.9 -7.75 -53.9 -5.4 -49.4 -5.4 -49.4 -2.0 -53.9 -2.0 -53.9 -0.9 -50.7 -0.9 -50.15 5.1 Q-50.0 6.35 -49.55 6.35 L-49.3 6.35 -49.3 9.6 -51.55 9.6 Q-52.85 9.6 -53.1 7.2 L-53.75 1.55 -53.9 1.55 -53.9 10.2 -57.25 10.2 -57.25 1.55 -57.4 1.55 -57.9 7.05 Q-58.15 9.4 -59.25 9.4 L-61.6 9.4 -61.6 6.1 -61.25 6.1 Q-60.9 6.1 -60.85 4.9 L-60.4 -0.9 -57.25 -0.9 -57.25 -2.0 -62.4 -2.0 -62.4 -5.4 -57.25 -5.4 -57.25 -7.75 -61.6 -7.75 -61.6 -11.0 -57.25 -11.0 -57.25 -12.65 -53.9 -12.65 -53.9 -11.0 -50.25 -11.0 -50.25 -7.75 M-40.3 5.5 L-41.1 11.65 Q-41.4 13.35 -42.75 13.35 L-45.8 13.35 -45.8 10.2 -45.05 10.2 Q-44.7 10.2 -44.65 9.55 L-44.15 5.5 -40.3 5.5 M-68.05 -7.95 L-68.05 -5.4 -66.4 -5.4 -66.4 -7.95 -68.05 -7.95 M-66.4 -2.6 L-68.05 -2.6 -68.05 0.25 -66.95 0.25 Q-66.4 0.25 -66.4 -0.85 L-66.4 -2.6 M-72.65 -7.95 L-72.65 -5.4 -71.1 -5.4 -71.1 -7.95 -72.65 -7.95 M-72.65 -2.6 L-72.65 0.25 -71.1 0.25 -71.1 -2.6 -72.65 -2.6" fill="#ff99cc" fill-rule="evenodd" stroke="none"/>
    <path d="M-68.15 -13.0 L-68.65 -11.25 -63.1 -11.25 -63.1 0.7 Q-63.1 3.5 -65.45 3.5 L-68.3 3.5 -68.4 4.05 -68.55 4.45 -66.4 4.45 -66.4 6.85 -65.45 4.1 -63.1 4.1 -64.55 7.75 -63.95 7.75 Q-63.6 7.75 -63.6 7.4 L-63.6 5.85 -61.7 5.85 -61.7 8.3 Q-61.7 8.85 -62.1 9.35 L-63.2 10.0 -66.4 10.0 -66.4 10.2 Q-66.4 10.8 -65.8 10.8 L-48.95 10.8 -48.95 13.85 -67.7 13.85 Q-69.55 13.85 -69.55 12.05 L-69.55 7.25 -70.85 10.7 Q-71.85 13.8 -73.55 13.95 L-76.0 13.95 -76.0 10.65 -74.6 10.65 Q-73.95 10.5 -73.65 9.5 L-71.55 3.5 -75.9 3.5 -75.9 -11.25 -72.4 -11.25 -71.9 -13.0 -68.15 -13.0 M-24.7 -12.9 L-24.45 -11.35 -24.3 -11.35 Q-23.4 -11.35 -23.05 -12.4 L-18.8 -12.4 Q-19.0 -10.05 -19.95 -9.1 -20.85 -8.2 -22.55 -8.2 L-24.0 -8.2 -23.15 -2.7 -22.8 -2.95 -22.8 -7.15 -19.4 -7.15 -19.4 -1.5 Q-19.4 -0.1 -22.7 0.45 -22.5 1.3 -21.85 1.3 L-18.95 1.3 -18.95 4.7 -24.1 4.7 Q-26.3 4.7 -26.65 1.9 L-26.8 0.8 -27.75 0.8 -27.75 -2.35 -27.25 -2.35 -28.05 -8.2 -45.65 -8.2 -45.65 -11.35 -28.45 -11.35 -28.65 -12.9 -24.7 -12.9 M76.5 -4.65 L75.55 9.15 Q75.3 12.85 74.0 12.85 L70.8 12.85 70.8 10.1 71.75 10.1 Q72.3 10.1 72.35 7.5 L73.15 -4.65 71.0 -4.65 71.0 -7.65 73.3 -7.65 73.45 -9.55 76.9 -9.55 76.75 -7.65 81.95 -7.65 81.95 10.1 Q81.95 12.65 79.0 12.65 L76.4 12.65 76.4 9.8 77.95 9.8 Q78.6 9.8 78.6 9.2 L78.6 -4.65 76.5 -4.65 M69.95 -5.1 L60.45 -5.1 60.45 -8.35 69.95 -8.35 69.95 -5.1 M69.25 11.8 Q68.45 12.65 67.3 12.65 L60.2 12.65 60.2 10.5 60.4 8.95 62.15 1.0 59.95 1.0 59.95 -2.2 70.45 -2.2 70.45 1.0 65.55 1.0 63.55 9.7 66.2 9.7 Q66.8 9.7 66.8 9.2 L66.8 6.4 69.95 6.4 69.95 10.4 Q69.95 11.1 69.25 11.8 M57.2 -0.75 L55.75 -0.75 55.75 9.9 Q55.75 12.75 52.25 12.75 L45.7 12.75 45.7 9.7 51.4 9.7 Q52.05 9.7 52.05 9.15 L52.05 -0.75 43.1 -0.75 43.1 -3.7 57.2 -3.7 57.2 -0.75 M57.05 -6.3 L43.5 -6.3 43.5 -9.1 57.05 -9.1 57.05 -6.3 M38.2 -9.6 L42.1 -9.6 39.95 -4.55 39.8 -4.2 39.65 -3.95 42.5 -3.95 40.05 1.75 40.05 12.75 36.5 12.75 36.5 3.4 34.85 3.4 34.85 0.25 36.15 0.25 Q36.95 0.25 37.35 -0.75 L38.2 -2.9 37.7 -2.85 35.1 -2.85 35.1 -6.0 36.25 -6.0 Q36.9 -6.0 37.2 -6.85 L38.2 -9.6 M26.8 -3.8 L26.8 0.35 32.45 0.35 32.45 3.45 25.9 3.45 22.35 9.65 27.85 9.65 Q28.45 9.65 28.45 9.15 L28.45 6.0 31.85 6.0 31.85 10.2 Q31.85 12.55 29.3 12.55 L18.1 12.55 18.1 9.9 21.65 3.45 17.55 3.45 17.55 0.35 23.15 0.35 23.15 -3.8 18.0 -3.8 18.0 -6.9 23.15 -6.9 23.15 -9.45 26.8 -9.45 26.8 -6.9 31.95 -6.9 31.95 -3.8 26.8 -3.8 M16.7 -2.8 L13.7 -2.8 Q12.2 -2.8 11.75 -4.2 L11.65 -4.45 10.45 -8.55 13.95 -8.55 14.55 -6.5 Q14.75 -5.75 15.35 -5.75 L16.7 -5.75 16.7 -2.8 M6.45 -6.2 L-3.7 -6.2 -4.95 -1.25 7.3 -1.25 7.3 1.9 -5.75 1.9 -7.95 10.6 Q-8.45 12.85 -9.75 12.85 L-14.9 12.85 -14.9 9.9 -11.6 9.9 Q-11.25 9.9 -11.05 9.15 L-9.2 1.9 -14.9 1.9 -14.9 -1.25 -8.45 -1.25 -7.25 -6.2 -14.05 -6.2 -14.05 -9.2 6.45 -9.2 6.45 -6.2 M14.05 -1.65 L14.65 0.4 Q14.85 1.25 15.45 1.25 L17.0 1.25 17.0 4.15 13.8 4.15 Q12.15 4.15 11.75 2.45 L10.55 -1.65 14.05 -1.65 M13.3 5.45 L16.8 5.45 15.55 10.85 Q15.05 12.75 13.2 12.75 L10.55 12.75 10.55 9.8 12.0 9.8 Q12.35 9.8 12.55 9.1 L13.3 5.45 M7.45 12.9 L-0.5 12.9 Q-2.65 12.9 -2.65 11.2 L-2.65 3.3 0.95 3.3 0.95 9.55 Q0.95 10.0 1.7 10.0 L7.45 10.0 7.45 12.9 M-28.9 -1.85 Q-28.9 0.35 -31.7 0.35 L-44.7 0.35 -44.7 -7.25 -28.9 -7.25 -28.9 -1.85 M-32.8 -3.4 L-32.8 -4.35 -41.1 -4.35 -41.1 -2.7 -33.7 -2.7 Q-32.8 -2.7 -32.8 -3.4 M-27.95 4.45 L-45.3 4.45 -45.3 1.15 -27.95 1.15 -27.95 4.45 M-34.05 10.9 L-25.15 10.9 -25.15 14.1 -35.0 14.1 Q-39.0 14.1 -39.0 10.9 L-39.0 5.5 -35.0 5.5 -35.0 10.2 Q-35.0 10.9 -34.05 10.9 M-33.45 7.75 L-33.45 5.5 -29.6 5.5 -29.6 6.45 Q-29.6 6.9 -29.25 6.9 L-26.55 6.9 -26.55 9.85 -30.8 9.85 Q-33.25 9.85 -33.45 7.75 M-20.95 5.5 L-19.95 9.45 Q-19.8 10.2 -19.4 10.2 L-18.8 10.2 -18.8 13.5 -21.05 13.5 Q-22.9 13.5 -23.45 11.55 L-25.15 5.5 -20.95 5.5 M-50.25 -7.75 L-53.9 -7.75 -53.9 -5.4 -49.4 -5.4 -49.4 -2.0 -53.9 -2.0 -53.9 -0.9 -50.7 -0.9 -50.15 5.1 Q-50.0 6.35 -49.55 6.35 L-49.3 6.35 -49.3 9.6 -51.55 9.6 Q-52.85 9.6 -53.1 7.2 L-53.75 1.55 -53.9 1.55 -53.9 10.2 -57.25 10.2 -57.25 1.55 -57.4 1.55 -57.9 7.05 Q-58.15 9.4 -59.25 9.4 L-61.6 9.4 -61.6 6.1 -61.25 6.1 Q-60.9 6.1 -60.85 4.9 L-60.4 -0.9 -57.25 -0.9 -57.25 -2.0 -62.4 -2.0 -62.4 -5.4 -57.25 -5.4 -57.25 -7.75 -61.6 -7.75 -61.6 -11.0 -57.25 -11.0 -57.25 -12.65 -53.9 -12.65 -53.9 -11.0 -50.25 -11.0 -50.25 -7.75 M-40.3 5.5 L-41.1 11.65 Q-41.4 13.35 -42.75 13.35 L-45.8 13.35 -45.8 10.2 -45.05 10.2 Q-44.7 10.2 -44.65 9.55 L-44.15 5.5 -40.3 5.5 M-68.05 -7.95 L-68.05 -5.4 -66.4 -5.4 -66.4 -7.95 -68.05 -7.95 M-66.4 -2.6 L-68.05 -2.6 -68.05 0.25 -66.95 0.25 Q-66.4 0.25 -66.4 -0.85 L-66.4 -2.6 M-72.65 -7.95 L-72.65 -5.4 -71.1 -5.4 -71.1 -7.95 -72.65 -7.95 M-72.65 -2.6 L-72.65 0.25 -71.1 0.25 -71.1 -2.6 -72.65 -2.6 Z" fill="none" stroke="#ffffff" stroke-linecap="round" stroke-linejoin="round" stroke-width="6.0"/>
    <path d="M-68.15 -13.0 L-68.65 -11.25 -63.1 -11.25 -63.1 0.7 Q-63.1 3.5 -65.45 3.5 L-68.3 3.5 -68.4 4.05 -68.55 4.45 -66.4 4.45 -66.4 6.85 -65.45 4.1 -63.1 4.1 -64.55 7.75 -63.95 7.75 Q-63.6 7.75 -63.6 7.4 L-63.6 5.85 -61.7 5.85 -61.7 8.3 Q-61.7 8.85 -62.1 9.35 L-63.2 10.0 -66.4 10.0 -66.4 10.2 Q-66.4 10.8 -65.8 10.8 L-48.95 10.8 -48.95 13.85 -67.7 13.85 Q-69.55 13.85 -69.55 12.05 L-69.55 7.25 -70.85 10.7 Q-71.85 13.8 -73.55 13.95 L-76.0 13.95 -76.0 10.65 -74.6 10.65 Q-73.95 10.5 -73.65 9.5 L-71.55 3.5 -75.9 3.5 -75.9 -11.25 -72.4 -11.25 -71.9 -13.0 -68.15 -13.0 M-24.7 -12.9 L-24.45 -11.35 -24.3 -11.35 Q-23.4 -11.35 -23.05 -12.4 L-18.8 -12.4 Q-19.0 -10.05 -19.95 -9.1 -20.85 -8.2 -22.55 -8.2 L-24.0 -8.2 -23.15 -2.7 -22.8 -2.95 -22.8 -7.15 -19.4 -7.15 -19.4 -1.5 Q-19.4 -0.1 -22.7 0.45 -22.5 1.3 -21.85 1.3 L-18.95 1.3 -18.95 4.7 -24.1 4.7 Q-26.3 4.7 -26.65 1.9 L-26.8 0.8 -27.75 0.8 -27.75 -2.35 -27.25 -2.35 -28.05 -8.2 -45.65 -8.2 -45.65 -11.35 -28.45 -11.35 -28.65 -12.9 -24.7 -12.9 M76.5 -4.65 L75.55 9.15 Q75.3 12.85 74.0 12.85 L70.8 12.85 70.8 10.1 71.75 10.1 Q72.3 10.1 72.35 7.5 L73.15 -4.65 71.0 -4.65 71.0 -7.65 73.3 -7.65 73.45 -9.55 76.9 -9.55 76.75 -7.65 81.95 -7.65 81.95 10.1 Q81.95 12.65 79.0 12.65 L76.4 12.65 76.4 9.8 77.95 9.8 Q78.6 9.8 78.6 9.2 L78.6 -4.65 76.5 -4.65 M69.95 -5.1 L60.45 -5.1 60.45 -8.35 69.95 -8.35 69.95 -5.1 M69.25 11.8 Q68.45 12.65 67.3 12.65 L60.2 12.65 60.2 10.5 60.4 8.95 62.15 1.0 59.95 1.0 59.95 -2.2 70.45 -2.2 70.45 1.0 65.55 1.0 63.55 9.7 66.2 9.7 Q66.8 9.7 66.8 9.2 L66.8 6.4 69.95 6.4 69.95 10.4 Q69.95 11.1 69.25 11.8 M57.05 -6.3 L43.5 -6.3 43.5 -9.1 57.05 -9.1 57.05 -6.3 M57.2 -0.75 L55.75 -0.75 55.75 9.9 Q55.75 12.75 52.25 12.75 L45.7 12.75 45.7 9.7 51.4 9.7 Q52.05 9.7 52.05 9.15 L52.05 -0.75 43.1 -0.75 43.1 -3.7 57.2 -3.7 57.2 -0.75 M38.2 -9.6 L42.1 -9.6 39.95 -4.55 39.8 -4.2 39.65 -3.95 42.5 -3.95 40.05 1.75 40.05 12.75 36.5 12.75 36.5 3.4 34.85 3.4 34.85 0.25 36.15 0.25 Q36.95 0.25 37.35 -0.75 L38.2 -2.9 37.7 -2.85 35.1 -2.85 35.1 -6.0 36.25 -6.0 Q36.9 -6.0 37.2 -6.85 L38.2 -9.6 M26.8 -3.8 L26.8 0.35 32.45 0.35 32.45 3.45 25.9 3.45 22.35 9.65 27.85 9.65 Q28.45 9.65 28.45 9.15 L28.45 6.0 31.85 6.0 31.85 10.2 Q31.85 12.55 29.3 12.55 L18.1 12.55 18.1 9.9 21.65 3.45 17.55 3.45 17.55 0.35 23.15 0.35 23.15 -3.8 18.0 -3.8 18.0 -6.9 23.15 -6.9 23.15 -9.45 26.8 -9.45 26.8 -6.9 31.95 -6.9 31.95 -3.8 26.8 -3.8 M16.7 -2.8 L13.7 -2.8 Q12.2 -2.8 11.75 -4.2 L11.65 -4.45 10.45 -8.55 13.95 -8.55 14.55 -6.5 Q14.75 -5.75 15.35 -5.75 L16.7 -5.75 16.7 -2.8 M14.05 -1.65 L14.65 0.4 Q14.85 1.25 15.45 1.25 L17.0 1.25 17.0 4.15 13.8 4.15 Q12.15 4.15 11.75 2.45 L10.55 -1.65 14.05 -1.65 M6.45 -6.2 L-3.7 -6.2 -4.95 -1.25 7.3 -1.25 7.3 1.9 -5.75 1.9 -7.95 10.6 Q-8.45 12.85 -9.75 12.85 L-14.9 12.85 -14.9 9.9 -11.6 9.9 Q-11.25 9.9 -11.05 9.15 L-9.2 1.9 -14.9 1.9 -14.9 -1.25 -8.45 -1.25 -7.25 -6.2 -14.05 -6.2 -14.05 -9.2 6.45 -9.2 6.45 -6.2 M13.3 5.45 L16.8 5.45 15.55 10.85 Q15.05 12.75 13.2 12.75 L10.55 12.75 10.55 9.8 12.0 9.8 Q12.35 9.8 12.55 9.1 L13.3 5.45 M7.45 12.9 L-0.5 12.9 Q-2.65 12.9 -2.65 11.2 L-2.65 3.3 0.95 3.3 0.95 9.55 Q0.95 10.0 1.7 10.0 L7.45 10.0 7.45 12.9 M-32.8 -3.4 L-32.8 -4.35 -41.1 -4.35 -41.1 -2.7 -33.7 -2.7 Q-32.8 -2.7 -32.8 -3.4 M-28.9 -1.85 Q-28.9 0.35 -31.7 0.35 L-44.7 0.35 -44.7 -7.25 -28.9 -7.25 -28.9 -1.85 M-27.95 4.45 L-45.3 4.45 -45.3 1.15 -27.95 1.15 -27.95 4.45 M-33.45 7.75 L-33.45 5.5 -29.6 5.5 -29.6 6.45 Q-29.6 6.9 -29.25 6.9 L-26.55 6.9 -26.55 9.85 -30.8 9.85 Q-33.25 9.85 -33.45 7.75 M-34.05 10.9 L-25.15 10.9 -25.15 14.1 -35.0 14.1 Q-39.0 14.1 -39.0 10.9 L-39.0 5.5 -35.0 5.5 -35.0 10.2 Q-35.0 10.9 -34.05 10.9 M-20.95 5.5 L-19.95 9.45 Q-19.8 10.2 -19.4 10.2 L-18.8 10.2 -18.8 13.5 -21.05 13.5 Q-22.9 13.5 -23.45 11.55 L-25.15 5.5 -20.95 5.5 M-50.25 -7.75 L-53.9 -7.75 -53.9 -5.4 -49.4 -5.4 -49.4 -2.0 -53.9 -2.0 -53.9 -0.9 -50.7 -0.9 -50.15 5.1 Q-50.0 6.35 -49.55 6.35 L-49.3 6.35 -49.3 9.6 -51.55 9.6 Q-52.85 9.6 -53.1 7.2 L-53.75 1.55 -53.9 1.55 -53.9 10.2 -57.25 10.2 -57.25 1.55 -57.4 1.55 -57.9 7.05 Q-58.15 9.4 -59.25 9.4 L-61.6 9.4 -61.6 6.1 -61.25 6.1 Q-60.9 6.1 -60.85 4.9 L-60.4 -0.9 -57.25 -0.9 -57.25 -2.0 -62.4 -2.0 -62.4 -5.4 -57.25 -5.4 -57.25 -7.75 -61.6 -7.75 -61.6 -11.0 -57.25 -11.0 -57.25 -12.65 -53.9 -12.65 -53.9 -11.0 -50.25 -11.0 -50.25 -7.75 M-40.3 5.5 L-41.1 11.65 Q-41.4 13.35 -42.75 13.35 L-45.8 13.35 -45.8 10.2 -45.05 10.2 Q-44.7 10.2 -44.65 9.55 L-44.15 5.5 -40.3 5.5 M-68.05 -7.95 L-68.05 -5.4 -66.4 -5.4 -66.4 -7.95 -68.05 -7.95 M-68.05 -2.6 L-68.05 0.25 -66.95 0.25 Q-66.4 0.25 -66.4 -0.85 L-66.4 -2.6 -68.05 -2.6 M-72.65 -2.6 L-72.65 0.25 -71.1 0.25 -71.1 -2.6 -72.65 -2.6 M-72.65 -7.95 L-72.65 -5.4 -71.1 -5.4 -71.1 -7.95 -72.65 -7.95" fill="#ff99cc" fill-rule="evenodd" stroke="none"/>
    <path d="M-68.15 -13.0 L-68.65 -11.25 -63.1 -11.25 -63.1 0.7 Q-63.1 3.5 -65.45 3.5 L-68.3 3.5 -68.4 4.05 -68.55 4.45 -66.4 4.45 -66.4 6.85 -65.45 4.1 -63.1 4.1 -64.55 7.75 -63.95 7.75 Q-63.6 7.75 -63.6 7.4 L-63.6 5.85 -61.7 5.85 -61.7 8.3 Q-61.7 8.85 -62.1 9.35 L-63.2 10.0 -66.4 10.0 -66.4 10.2 Q-66.4 10.8 -65.8 10.8 L-48.95 10.8 -48.95 13.85 -67.7 13.85 Q-69.55 13.85 -69.55 12.05 L-69.55 7.25 -70.85 10.7 Q-71.85 13.8 -73.55 13.95 L-76.0 13.95 -76.0 10.65 -74.6 10.65 Q-73.95 10.5 -73.65 9.5 L-71.55 3.5 -75.9 3.5 -75.9 -11.25 -72.4 -11.25 -71.9 -13.0 -68.15 -13.0 M-24.7 -12.9 L-24.45 -11.35 -24.3 -11.35 Q-23.4 -11.35 -23.05 -12.4 L-18.8 -12.4 Q-19.0 -10.05 -19.95 -9.1 -20.85 -8.2 -22.55 -8.2 L-24.0 -8.2 -23.15 -2.7 -22.8 -2.95 -22.8 -7.15 -19.4 -7.15 -19.4 -1.5 Q-19.4 -0.1 -22.7 0.45 -22.5 1.3 -21.85 1.3 L-18.95 1.3 -18.95 4.7 -24.1 4.7 Q-26.3 4.7 -26.65 1.9 L-26.8 0.8 -27.75 0.8 -27.75 -2.35 -27.25 -2.35 -28.05 -8.2 -45.65 -8.2 -45.65 -11.35 -28.45 -11.35 -28.65 -12.9 -24.7 -12.9 M76.5 -4.65 L75.55 9.15 Q75.3 12.85 74.0 12.85 L70.8 12.85 70.8 10.1 71.75 10.1 Q72.3 10.1 72.35 7.5 L73.15 -4.65 71.0 -4.65 71.0 -7.65 73.3 -7.65 73.45 -9.55 76.9 -9.55 76.75 -7.65 81.95 -7.65 81.95 10.1 Q81.95 12.65 79.0 12.65 L76.4 12.65 76.4 9.8 77.95 9.8 Q78.6 9.8 78.6 9.2 L78.6 -4.65 76.5 -4.65 M69.95 -5.1 L60.45 -5.1 60.45 -8.35 69.95 -8.35 69.95 -5.1 M69.25 11.8 Q68.45 12.65 67.3 12.65 L60.2 12.65 60.2 10.5 60.4 8.95 62.15 1.0 59.95 1.0 59.95 -2.2 70.45 -2.2 70.45 1.0 65.55 1.0 63.55 9.7 66.2 9.7 Q66.8 9.7 66.8 9.2 L66.8 6.4 69.95 6.4 69.95 10.4 Q69.95 11.1 69.25 11.8 M57.05 -6.3 L43.5 -6.3 43.5 -9.1 57.05 -9.1 57.05 -6.3 M57.2 -0.75 L55.75 -0.75 55.75 9.9 Q55.75 12.75 52.25 12.75 L45.7 12.75 45.7 9.7 51.4 9.7 Q52.05 9.7 52.05 9.15 L52.05 -0.75 43.1 -0.75 43.1 -3.7 57.2 -3.7 57.2 -0.75 M38.2 -9.6 L42.1 -9.6 39.95 -4.55 39.8 -4.2 39.65 -3.95 42.5 -3.95 40.05 1.75 40.05 12.75 36.5 12.75 36.5 3.4 34.85 3.4 34.85 0.25 36.15 0.25 Q36.95 0.25 37.35 -0.75 L38.2 -2.9 37.7 -2.85 35.1 -2.85 35.1 -6.0 36.25 -6.0 Q36.9 -6.0 37.2 -6.85 L38.2 -9.6 M26.8 -3.8 L26.8 0.35 32.45 0.35 32.45 3.45 25.9 3.45 22.35 9.65 27.85 9.65 Q28.45 9.65 28.45 9.15 L28.45 6.0 31.85 6.0 31.85 10.2 Q31.85 12.55 29.3 12.55 L18.1 12.55 18.1 9.9 21.65 3.45 17.55 3.45 17.55 0.35 23.15 0.35 23.15 -3.8 18.0 -3.8 18.0 -6.9 23.15 -6.9 23.15 -9.45 26.8 -9.45 26.8 -6.9 31.95 -6.9 31.95 -3.8 26.8 -3.8 M16.7 -2.8 L13.7 -2.8 Q12.2 -2.8 11.75 -4.2 L11.65 -4.45 10.45 -8.55 13.95 -8.55 14.55 -6.5 Q14.75 -5.75 15.35 -5.75 L16.7 -5.75 16.7 -2.8 M14.05 -1.65 L14.65 0.4 Q14.85 1.25 15.45 1.25 L17.0 1.25 17.0 4.15 13.8 4.15 Q12.15 4.15 11.75 2.45 L10.55 -1.65 14.05 -1.65 M6.45 -6.2 L-3.7 -6.2 -4.95 -1.25 7.3 -1.25 7.3 1.9 -5.75 1.9 -7.95 10.6 Q-8.45 12.85 -9.75 12.85 L-14.9 12.85 -14.9 9.9 -11.6 9.9 Q-11.25 9.9 -11.05 9.15 L-9.2 1.9 -14.9 1.9 -14.9 -1.25 -8.45 -1.25 -7.25 -6.2 -14.05 -6.2 -14.05 -9.2 6.45 -9.2 6.45 -6.2 M13.3 5.45 L16.8 5.45 15.55 10.85 Q15.05 12.75 13.2 12.75 L10.55 12.75 10.55 9.8 12.0 9.8 Q12.35 9.8 12.55 9.1 L13.3 5.45 M7.45 12.9 L-0.5 12.9 Q-2.65 12.9 -2.65 11.2 L-2.65 3.3 0.95 3.3 0.95 9.55 Q0.95 10.0 1.7 10.0 L7.45 10.0 7.45 12.9 M-32.8 -3.4 L-32.8 -4.35 -41.1 -4.35 -41.1 -2.7 -33.7 -2.7 Q-32.8 -2.7 -32.8 -3.4 M-28.9 -1.85 Q-28.9 0.35 -31.7 0.35 L-44.7 0.35 -44.7 -7.25 -28.9 -7.25 -28.9 -1.85 M-27.95 4.45 L-45.3 4.45 -45.3 1.15 -27.95 1.15 -27.95 4.45 M-33.45 7.75 L-33.45 5.5 -29.6 5.5 -29.6 6.45 Q-29.6 6.9 -29.25 6.9 L-26.55 6.9 -26.55 9.85 -30.8 9.85 Q-33.25 9.85 -33.45 7.75 M-34.05 10.9 L-25.15 10.9 -25.15 14.1 -35.0 14.1 Q-39.0 14.1 -39.0 10.9 L-39.0 5.5 -35.0 5.5 -35.0 10.2 Q-35.0 10.9 -34.05 10.9 M-20.95 5.5 L-19.95 9.45 Q-19.8 10.2 -19.4 10.2 L-18.8 10.2 -18.8 13.5 -21.05 13.5 Q-22.9 13.5 -23.45 11.55 L-25.15 5.5 -20.95 5.5 M-50.25 -7.75 L-53.9 -7.75 -53.9 -5.4 -49.4 -5.4 -49.4 -2.0 -53.9 -2.0 -53.9 -0.9 -50.7 -0.9 -50.15 5.1 Q-50.0 6.35 -49.55 6.35 L-49.3 6.35 -49.3 9.6 -51.55 9.6 Q-52.85 9.6 -53.1 7.2 L-53.75 1.55 -53.9 1.55 -53.9 10.2 -57.25 10.2 -57.25 1.55 -57.4 1.55 -57.9 7.05 Q-58.15 9.4 -59.25 9.4 L-61.6 9.4 -61.6 6.1 -61.25 6.1 Q-60.9 6.1 -60.85 4.9 L-60.4 -0.9 -57.25 -0.9 -57.25 -2.0 -62.4 -2.0 -62.4 -5.4 -57.25 -5.4 -57.25 -7.75 -61.6 -7.75 -61.6 -11.0 -57.25 -11.0 -57.25 -12.65 -53.9 -12.65 -53.9 -11.0 -50.25 -11.0 -50.25 -7.75 M-40.3 5.5 L-41.1 11.65 Q-41.4 13.35 -42.75 13.35 L-45.8 13.35 -45.8 10.2 -45.05 10.2 Q-44.7 10.2 -44.65 9.55 L-44.15 5.5 -40.3 5.5 M-68.05 -7.95 L-68.05 -5.4 -66.4 -5.4 -66.4 -7.95 -68.05 -7.95 M-68.05 -2.6 L-68.05 0.25 -66.95 0.25 Q-66.4 0.25 -66.4 -0.85 L-66.4 -2.6 -68.05 -2.6 M-72.65 -2.6 L-72.65 0.25 -71.1 0.25 -71.1 -2.6 -72.65 -2.6 M-72.65 -7.95 L-72.65 -5.4 -71.1 -5.4 -71.1 -7.95 -72.65 -7.95 Z" fill="none" stroke="#330000" stroke-linecap="round" stroke-linejoin="round" stroke-width="3.0"/>
    <path d="M-14.9 1.8 L-14.9 -1.25 -8.45 -1.25 -7.25 -6.2 -14.05 -6.2 -14.05 -9.2 6.45 -9.2 6.45 -6.2 -3.7 -6.2 -4.95 -1.25 7.3 -1.25 7.3 1.8 -14.9 1.8 M13.95 -8.55 L14.55 -6.5 Q14.75 -5.75 15.35 -5.75 L16.7 -5.75 16.7 -2.8 13.7 -2.8 Q12.2 -2.8 11.75 -4.2 L11.65 -4.45 10.45 -8.55 13.95 -8.55 M11.55 1.8 L10.55 -1.65 14.05 -1.65 14.65 0.4 Q14.85 1.25 15.45 1.25 L17.0 1.25 17.0 1.8 11.55 1.8 M17.55 1.8 L17.55 0.35 23.15 0.35 23.15 -3.8 18.0 -3.8 18.0 -6.9 23.15 -6.9 23.15 -9.45 26.8 -9.45 26.8 -6.9 31.95 -6.9 31.95 -3.8 26.8 -3.8 26.8 0.35 32.45 0.35 32.45 1.8 17.55 1.8 M34.85 1.8 L34.85 0.25 36.15 0.25 Q36.95 0.25 37.35 -0.75 L38.2 -2.9 37.7 -2.85 35.1 -2.85 35.1 -6.0 36.25 -6.0 Q36.9 -6.0 37.2 -6.85 L38.2 -9.6 42.1 -9.6 39.95 -4.55 39.8 -4.2 39.65 -3.95 42.5 -3.95 40.05 1.75 40.05 1.8 34.85 1.8 M43.5 -9.1 L57.05 -9.1 57.05 -6.3 43.5 -6.3 43.5 -9.1 M52.05 1.8 L52.05 -0.75 43.1 -0.75 43.1 -3.7 57.2 -3.7 57.2 -0.75 55.75 -0.75 55.75 1.8 52.05 1.8 M60.45 -8.35 L69.95 -8.35 69.95 -5.1 60.45 -5.1 60.45 -8.35 M72.75 1.8 L73.15 -4.65 71.0 -4.65 71.0 -7.65 73.3 -7.65 73.45 -9.55 76.9 -9.55 76.75 -7.65 81.95 -7.65 81.95 1.8 78.6 1.8 78.6 -4.65 76.5 -4.65 76.05 1.8 72.75 1.8 M62.0 1.8 L62.15 1.0 59.95 1.0 59.95 -2.2 70.45 -2.2 70.45 1.0 65.55 1.0 65.4 1.8 62.0 1.8 M-72.65 -5.4 L-71.1 -5.4 -71.1 -7.95 -72.65 -7.95 -72.65 -5.4 M-72.65 -2.6 L-72.65 0.25 -71.1 0.25 -71.1 -2.6 -72.65 -2.6 M-75.9 1.8 L-75.9 -11.25 -72.4 -11.25 -71.9 -13.0 -68.15 -13.0 -68.65 -11.25 -63.1 -11.25 -63.1 0.7 -63.2 1.8 -75.9 1.8 M-60.6 1.8 L-60.4 -0.9 -57.25 -0.9 -57.25 -2.0 -62.4 -2.0 -62.4 -5.4 -57.25 -5.4 -57.25 -7.75 -61.6 -7.75 -61.6 -11.0 -57.25 -11.0 -57.25 -12.65 -53.9 -12.65 -53.9 -11.0 -50.25 -11.0 -50.25 -7.75 -53.9 -7.75 -53.9 -5.4 -49.4 -5.4 -49.4 -2.0 -53.9 -2.0 -53.9 -0.9 -50.7 -0.9 -50.45 1.8 -53.7 1.8 -53.75 1.55 -53.9 1.55 -53.9 1.8 -57.25 1.8 -57.25 1.55 -57.4 1.55 -57.4 1.8 -60.6 1.8 M-68.05 -7.95 L-68.05 -5.4 -66.4 -5.4 -66.4 -7.95 -68.05 -7.95 M-66.4 -2.6 L-68.05 -2.6 -68.05 0.25 -66.95 0.25 Q-66.4 0.25 -66.4 -0.85 L-66.4 -2.6 M-26.65 1.8 L-26.8 0.8 -27.75 0.8 -27.75 -2.35 -27.25 -2.35 -28.05 -8.2 -45.65 -8.2 -45.65 -11.35 -28.45 -11.35 -28.65 -12.9 -24.7 -12.9 -24.45 -11.35 -24.3 -11.35 Q-23.4 -11.35 -23.05 -12.4 L-18.8 -12.4 Q-19.0 -10.05 -19.95 -9.1 -20.85 -8.2 -22.55 -8.2 L-24.0 -8.2 -23.15 -2.7 -22.8 -2.95 -22.8 -7.15 -19.4 -7.15 -19.4 -1.5 Q-19.4 -0.1 -22.7 0.45 -22.5 1.3 -21.85 1.3 L-18.95 1.3 -18.95 1.8 -26.65 1.8 M-41.1 -2.7 L-33.7 -2.7 Q-32.8 -2.7 -32.8 -3.4 L-32.8 -4.35 -41.1 -4.35 -41.1 -2.7 M-28.9 -1.85 Q-28.9 0.35 -31.7 0.35 L-44.7 0.35 -44.7 -7.25 -28.9 -7.25 -28.9 -1.85 M-45.3 1.8 L-45.3 1.15 -27.95 1.15 -27.95 1.8 -45.3 1.8" fill="#ffd9ec" fill-rule="evenodd" stroke="none"/>
    <path d="M7.3 1.8 L7.3 1.9 -5.75 1.9 -7.95 10.6 Q-8.45 12.85 -9.75 12.85 L-14.9 12.85 -14.9 9.9 -11.6 9.9 Q-11.25 9.9 -11.05 9.15 L-9.2 1.9 -14.9 1.9 -14.9 1.8 7.3 1.8 M17.0 1.8 L17.0 4.15 13.8 4.15 Q12.15 4.15 11.75 2.45 L11.55 1.8 17.0 1.8 M32.45 1.8 L32.45 3.45 25.9 3.45 22.35 9.65 27.85 9.65 Q28.45 9.65 28.45 9.15 L28.45 6.0 31.85 6.0 31.85 10.2 Q31.85 12.55 29.3 12.55 L18.1 12.55 18.1 9.9 21.65 3.45 17.55 3.45 17.55 1.8 32.45 1.8 M40.05 1.8 L40.05 12.75 36.5 12.75 36.5 3.4 34.85 3.4 34.85 1.8 40.05 1.8 M55.75 1.8 L55.75 9.9 Q55.75 12.75 52.25 12.75 L45.7 12.75 45.7 9.7 51.4 9.7 Q52.05 9.7 52.05 9.15 L52.05 1.8 55.75 1.8 M81.95 1.8 L81.95 10.1 Q81.95 12.65 79.0 12.65 L76.4 12.65 76.4 9.8 77.95 9.8 Q78.6 9.8 78.6 9.2 L78.6 1.8 81.95 1.8 M76.05 1.8 L75.55 9.15 Q75.3 12.85 74.0 12.85 L70.8 12.85 70.8 10.1 71.75 10.1 Q72.3 10.1 72.35 7.5 L72.75 1.8 76.05 1.8 M65.4 1.8 L63.55 9.7 66.2 9.7 Q66.8 9.7 66.8 9.2 L66.8 6.4 69.95 6.4 69.95 10.4 Q69.95 11.1 69.25 11.8 68.45 12.65 67.3 12.65 L60.2 12.65 60.2 10.5 60.4 8.95 62.0 1.8 65.4 1.8 M12.55 9.1 L13.3 5.45 16.8 5.45 15.55 10.85 Q15.05 12.75 13.2 12.75 L10.55 12.75 10.55 9.8 12.0 9.8 Q12.35 9.8 12.55 9.1 M7.45 10.0 L7.45 12.9 -0.5 12.9 Q-2.65 12.9 -2.65 11.2 L-2.65 3.3 0.95 3.3 0.95 9.55 Q0.95 10.0 1.7 10.0 L7.45 10.0 M-63.2 1.8 Q-63.6 3.5 -65.45 3.5 L-68.3 3.5 -68.4 4.05 -68.55 4.45 -66.4 4.45 -66.4 6.85 -65.45 4.1 -63.1 4.1 -64.55 7.75 -63.95 7.75 Q-63.6 7.75 -63.6 7.4 L-63.6 5.85 -61.7 5.85 -61.7 8.3 Q-61.7 8.85 -62.1 9.35 L-63.2 10.0 -66.4 10.0 -66.4 10.2 Q-66.4 10.8 -65.8 10.8 L-48.95 10.8 -48.95 13.85 -67.7 13.85 Q-69.55 13.85 -69.55 12.05 L-69.55 7.25 -70.85 10.7 Q-71.85 13.8 -73.55 13.95 L-76.0 13.95 -76.0 10.65 -74.6 10.65 Q-73.95 10.5 -73.65 9.5 L-71.55 3.5 -75.9 3.5 -75.9 1.8 -63.2 1.8 M-50.45 1.8 L-50.15 5.1 Q-50.0 6.35 -49.55 6.35 L-49.3 6.35 -49.3 9.6 -51.55 9.6 Q-52.85 9.6 -53.1 7.2 L-53.7 1.8 -50.45 1.8 M-53.9 1.8 L-53.9 10.2 -57.25 10.2 -57.25 1.8 -53.9 1.8 M-57.4 1.8 L-57.9 7.05 Q-58.15 9.4 -59.25 9.4 L-61.6 9.4 -61.6 6.1 -61.25 6.1 Q-60.9 6.1 -60.85 4.9 L-60.6 1.8 -57.4 1.8 M-18.95 1.8 L-18.95 4.7 -24.1 4.7 Q-26.3 4.7 -26.65 1.9 L-26.65 1.8 -18.95 1.8 M-19.4 10.2 L-18.8 10.2 -18.8 13.5 -21.05 13.5 Q-22.9 13.5 -23.45 11.55 L-25.15 5.5 -20.95 5.5 -19.95 9.45 Q-19.8 10.2 -19.4 10.2 M-27.95 1.8 L-27.95 4.45 -45.3 4.45 -45.3 1.8 -27.95 1.8 M-26.55 9.85 L-30.8 9.85 Q-33.25 9.85 -33.45 7.75 L-33.45 5.5 -29.6 5.5 -29.6 6.45 Q-29.6 6.9 -29.25 6.9 L-26.55 6.9 -26.55 9.85 M-35.0 5.5 L-35.0 10.2 Q-35.0 10.9 -34.05 10.9 L-25.15 10.9 -25.15 14.1 -35.0 14.1 Q-39.0 14.1 -39.0 10.9 L-39.0 5.5 -35.0 5.5 M-44.65 9.55 L-44.15 5.5 -40.3 5.5 -41.1 11.65 Q-41.4 13.35 -42.75 13.35 L-45.8 13.35 -45.8 10.2 -45.05 10.2 Q-44.7 10.2 -44.65 9.55" fill="#ff99cc" fill-rule="evenodd" stroke="none"/>
  </g>
</svg>
