<?xml version="1.0" encoding="UTF-8" standalone="no"?>
<svg xmlns:xlink="http://www.w3.org/1999/xlink" height="225.3px" width="231.8px" xmlns="http://www.w3.org/2000/svg">
  <g transform="matrix(1.0, 0.0, 0.0, 1.0, 0.0, 0.0)">
    <path d="M6.5 82.9 L6.5 72.0 0.0 65.5 0.0 21.0 21.0 0.0 66.5 0.0 71.5 5.0 83.95 5.0 149.05 5.0 160.3 5.0 165.3 0.0 210.8 0.0 231.8 21.0 231.8 65.5 225.3 72.0 225.3 82.9 225.3 142.0 225.3 153.3 231.8 159.8 231.8 204.3 210.8 225.3 165.3 225.3 160.3 220.3 149.05 220.3 83.95 220.3 71.5 220.3 66.5 225.3 21.0 225.3 0.0 204.3 0.0 159.8 6.5 153.3 6.5 142.0 6.5 82.9" fill="#1d3366" fill-opacity="0.7019608" fill-rule="evenodd" stroke="none"/>
  </g>
</svg>
