<?xml version="1.0" encoding="UTF-8" standalone="no"?>
<svg xmlns:xlink="http://www.w3.org/1999/xlink" height="29.4px" width="113.85px" xmlns="http://www.w3.org/2000/svg">
  <g transform="matrix(1.0, 0.0, 0.0, 1.0, -50.3, 0.75)">
    <path d="M51.05 1.9 L51.05 0.0 156.15 0.0 Q160.4 0.0 162.25 1.75 L162.9 2.6 Q163.8 4.15 163.15 6.6 L151.55 22.4 150.0 24.5 151.55 22.4 150.05 24.55 150.0 24.55 150.0 24.5 149.9 24.55 149.9 24.6 148.6 26.0 Q146.5 27.6 142.85 27.8 L142.65 27.9 137.55 27.9 137.2 28.3 133.45 28.3 137.55 27.9 59.2 27.9 59.2 26.0 143.05 26.0 Q145.3 25.95 147.05 24.6 L147.1 24.55 147.8 23.95 161.0 5.8 Q161.4 2.3 157.0 1.9 L51.05 1.9" fill="#d2d9df" fill-rule="evenodd" stroke="none"/>
    <path d="M157.0 3.2 L157.0 3.25 156.85 3.2 157.0 3.2" fill="#06131c" fill-opacity="0.8509804" fill-rule="evenodd" stroke="none"/>
    <path d="M51.05 1.9 L157.0 1.9 Q161.4 2.3 161.0 5.8 L147.8 23.95 147.1 24.55 147.05 24.6 Q145.3 25.95 143.05 26.0 L59.2 26.0 59.2 24.6 143.05 24.6 143.75 24.55 Q145.25 24.35 146.25 23.45 L146.8 22.95 146.75 22.9 153.6 13.35 153.55 13.35 158.55 6.4 Q160.1 3.8 157.05 3.2 L157.0 3.2 156.85 3.2 51.05 3.2 51.05 1.9" fill="#47515f" fill-rule="evenodd" stroke="none"/>
    <path d="M59.2 27.9 L137.55 27.9 133.45 28.3 59.2 28.3 59.2 27.9 M156.85 3.2 L157.0 3.25 157.0 3.2 157.05 3.2 Q160.1 3.8 158.55 6.4 L153.55 13.35 153.6 13.35 146.75 22.9 146.8 22.95 146.25 23.45 Q145.25 24.35 143.75 24.55 L143.05 24.6 59.2 24.6 59.2 24.55 51.05 24.55 51.05 3.2 156.85 3.2 M59.2 13.35 L59.2 24.55 59.2 13.35" fill="#0e1525" fill-rule="evenodd" stroke="none"/>
    <path d="M142.65 27.9 L142.85 27.8 142.85 27.9 142.65 27.9 M149.9 24.6 L149.9 24.55 150.0 24.5 150.0 24.55 149.9 24.6" fill="#ffffff" fill-rule="evenodd" stroke="none"/>
    <path d="M151.55 22.4 L163.15 6.6 Q163.8 4.15 162.9 2.6 L162.25 1.75 Q160.4 0.0 156.15 0.0 L51.05 0.0 51.05 1.9 51.05 3.2 M59.2 26.0 L59.2 27.9 137.55 27.9 142.65 27.9 142.85 27.8 Q146.5 27.6 148.6 26.0 L149.9 24.6 149.9 24.55 150.0 24.5 151.55 22.4 150.05 24.55 M150.0 24.55 L149.9 24.6 M59.2 24.55 L59.2 13.35 M150.0 24.5 L150.0 24.55 M142.65 27.9 L142.85 27.9 M59.2 24.55 L59.2 24.6 59.2 26.0" fill="none" stroke="#1e1e1e" stroke-linecap="butt" stroke-linejoin="miter-clip" stroke-miterlimit="3.0" stroke-width="1.5"/>
    <path d="M156.85 3.2 L51.05 3.2 M153.55 13.35 L158.55 6.4 Q160.1 3.8 157.05 3.2 L157.0 3.2 M59.2 24.6 L143.05 24.6 143.75 24.55 Q145.25 24.35 146.25 23.45 L146.8 22.95 146.75 22.9 153.6 13.35" fill="none" stroke="#1e1e1e" stroke-linecap="butt" stroke-linejoin="miter-clip" stroke-miterlimit="3.0" stroke-width="1.0"/>
  </g>
</svg>
