<?xml version="1.0" encoding="UTF-8" standalone="no"?>
<svg xmlns:xlink="http://www.w3.org/1999/xlink" height="27.6px" width="28.25px" xmlns="http://www.w3.org/2000/svg">
  <g transform="matrix(1.0, 0.0, 0.0, 1.0, -0.95, -1.95)">
    <path d="M27.1 15.25 L17.2 21.6 Q11.6 19.15 10.5 14.75 L13.4 12.55 14.05 7.1 17.5 4.65 Q18.5 4.35 19.35 5.0 21.2 2.0 23.6 4.0 L24.1 4.5 Q28.9 8.7 27.7 12.05 27.95 14.1 27.1 15.25 Z" fill="none" stroke="#ffffff" stroke-linecap="round" stroke-linejoin="round" stroke-width="2.5"/>
    <path d="M3.1 14.1 L6.05 14.1 6.05 4.4 11.8 4.4 11.8 14.1 14.8 14.1 Q12.65 17.8 8.95 20.5 L7.85 19.65 Q4.85 17.1 3.1 14.1 Z" fill="none" stroke="#ffffff" stroke-linecap="round" stroke-linejoin="round" stroke-width="3.5"/>
    <path d="M10.5 4.4 L11.8 4.4 11.8 14.1 14.8 14.1 Q12.65 17.8 8.95 20.5 L10.8 17.75 12.4 15.1 10.55 15.1 10.55 12.75 10.5 4.4" fill="#a01e16" fill-rule="evenodd" stroke="none"/>
    <path d="M7.85 19.65 Q4.85 17.1 3.1 14.1 L6.05 14.1 6.05 4.4 7.3 4.4 7.3 15.0 5.35 15.0 Q5.45 15.75 6.6 17.35 L6.75 17.7 7.3 18.35 8.95 20.5 Q6.75 18.45 7.85 19.65" fill="#ee6c6c" fill-rule="evenodd" stroke="none"/>
    <path d="M8.95 20.5 L7.85 19.65 Q6.75 18.45 8.95 20.5 L7.3 18.35 Q7.5 18.55 7.85 18.55 L8.1 18.25 7.25 16.85 Q6.3 15.7 6.3 16.8 L6.6 17.35 Q5.45 15.75 5.35 15.0 L7.3 15.0 7.3 4.4 10.5 4.4 10.55 12.75 10.55 15.1 12.4 15.1 10.8 17.75 8.95 20.5" fill="#cb2c1b" fill-rule="evenodd" stroke="none"/>
    <path d="M7.3 18.35 L6.75 17.7 6.6 17.35 6.3 16.8 Q6.3 15.7 7.25 16.85 L8.1 18.25 7.85 18.55 Q7.5 18.55 7.3 18.35" fill="#ffffff" fill-rule="evenodd" stroke="none"/>
    <path d="M10.5 4.4 L11.8 4.4 11.8 14.1 14.8 14.1 Q12.65 17.8 8.95 20.5 L7.85 19.65 Q4.85 17.1 3.1 14.1 L6.05 14.1 6.05 4.4 7.3 4.4 10.5 4.4 Z" fill="none" stroke="#6d0101" stroke-linecap="round" stroke-linejoin="round" stroke-width="1.0"/>
    <path d="M24.2 4.4 Q28.95 8.6 27.8 11.95 28.05 14.0 27.2 15.15 L17.25 21.5 Q11.7 19.05 10.55 14.6 L13.45 12.5 14.15 7.05 17.6 4.55 Q18.6 4.2 19.4 4.85 21.25 1.9 23.65 3.9 L24.2 4.4 M22.6 7.55 L24.4 6.45 Q24.55 6.9 22.75 8.0 22.8 8.6 22.0 9.05 20.95 11.2 23.8 10.3 24.7 9.65 26.3 9.3 L26.05 9.85 Q22.4 11.3 24.05 12.8 L23.7 13.3 Q22.0 12.55 23.25 10.75 20.6 11.8 21.35 9.3 L21.05 9.4 18.55 7.8 Q19.55 11.1 17.45 12.8 18.9 10.7 17.6 8.3 17.5 7.05 18.5 6.9 L21.1 8.05 Q23.4 7.85 17.95 5.25 L14.7 7.4 14.2 12.85 11.35 15.05 Q13.05 19.3 17.3 20.65 L26.35 14.65 Q27.6 13.8 27.15 11.1 27.5 9.1 25.2 6.35 24.25 4.45 22.4 3.75 21.3 3.15 19.95 5.15 L21.5 6.25 22.45 5.3 Q22.45 5.85 21.8 6.55 L22.6 7.55 M25.8 11.85 Q26.45 12.95 25.7 14.25 24.4 15.2 24.4 14.8 26.1 13.55 25.2 12.15 L25.8 11.85 M17.65 15.05 L17.25 14.2 Q20.05 12.55 21.8 14.5 19.3 13.5 17.65 15.05" fill="#001c00" fill-rule="evenodd" stroke="none"/>
    <path d="M25.8 11.85 L25.2 12.15 Q26.1 13.55 24.4 14.8 24.4 15.2 25.7 14.25 26.45 12.95 25.8 11.85 M22.6 7.55 L21.8 6.55 Q22.45 5.85 22.45 5.3 L21.5 6.25 19.95 5.15 Q21.3 3.15 22.4 3.75 24.25 4.45 25.2 6.35 27.5 9.1 27.15 11.1 27.6 13.8 26.35 14.65 L17.3 20.65 Q13.05 19.3 11.35 15.05 L14.2 12.85 14.7 7.4 17.95 5.25 Q23.4 7.85 21.1 8.05 L18.5 6.9 Q17.5 7.05 17.6 8.3 18.9 10.7 17.45 12.8 19.55 11.1 18.55 7.8 L21.05 9.4 21.35 9.3 Q20.6 11.8 23.25 10.75 22.0 12.55 23.7 13.3 L24.05 12.8 Q22.4 11.3 26.05 9.85 L26.3 9.3 Q24.7 9.65 23.8 10.3 20.95 11.2 22.0 9.05 22.8 8.6 22.75 8.0 24.55 6.9 24.4 6.45 L22.6 7.55 M17.65 15.05 Q19.3 13.5 21.8 14.5 20.05 12.55 17.25 14.2 L17.65 15.05" fill="#004d00" fill-rule="evenodd" stroke="none"/>
    <path d="M12.65 20.35 L12.65 19.1 16.35 19.1 15.75 20.35 15.25 20.35 15.25 26.7 16.35 26.7 15.8 27.9 12.65 27.9 12.65 26.7 13.65 26.7 13.65 20.35 12.65 20.35 M10.0 21.65 L8.85 27.45 7.45 27.45 8.65 21.65 10.0 21.65 M11.5 19.3 L11.5 26.65 10.25 27.9 9.4 27.9 9.4 26.75 10.1 26.75 10.1 20.35 7.8 20.35 7.55 21.25 6.15 21.25 6.75 18.85 8.15 18.85 8.1 19.3 11.5 19.3 M5.55 18.95 L5.55 20.0 6.3 20.0 5.8 21.1 5.55 21.1 5.55 22.15 6.25 22.15 5.55 23.35 5.55 27.5 4.2 28.05 4.2 25.55 4.0 25.95 2.55 25.95 4.2 23.15 4.2 21.1 3.85 21.1 3.8 22.4 2.45 22.4 2.8 19.3 4.1 19.3 4.0 20.0 4.2 20.0 4.2 18.95 5.55 18.95 M5.75 27.45 L7.05 21.65 8.35 21.65 7.1 27.45 5.75 27.45 M18.5 19.0 L18.4 19.3 21.55 19.3 20.95 20.5 18.0 20.5 17.75 21.25 16.2 21.25 16.9 19.0 18.5 19.0 M16.45 21.75 L18.1 21.75 18.8 23.05 19.65 21.15 21.3 21.15 19.65 24.65 21.4 27.9 19.7 27.9 18.9 26.35 18.2 27.9 16.55 27.9 18.0 24.75 16.45 21.75" fill="#ffff00" fill-rule="evenodd" stroke="none"/>
    <path d="M12.65 20.35 L12.65 19.1 16.35 19.1 15.75 20.35 15.25 20.35 15.25 26.7 16.35 26.7 15.8 27.9 12.65 27.9 12.65 26.7 13.65 26.7 13.65 20.35 12.65 20.35 M10.0 21.65 L8.85 27.45 7.45 27.45 8.65 21.65 10.0 21.65 M11.5 19.3 L11.5 26.65 10.25 27.9 9.4 27.9 9.4 26.75 10.1 26.75 10.1 20.35 7.8 20.35 7.55 21.25 6.15 21.25 6.75 18.85 8.15 18.85 8.1 19.3 11.5 19.3 M5.55 18.95 L5.55 20.0 6.3 20.0 5.8 21.1 5.55 21.1 5.55 22.15 6.25 22.15 5.55 23.35 5.55 27.5 4.2 28.05 4.2 25.55 4.0 25.95 2.55 25.95 4.2 23.15 4.2 21.1 3.85 21.1 3.8 22.4 2.45 22.4 2.8 19.3 4.1 19.3 4.0 20.0 4.2 20.0 4.2 18.95 5.55 18.95 M5.75 27.45 L7.05 21.65 8.35 21.65 7.1 27.45 5.75 27.45 M18.5 19.0 L18.4 19.3 21.55 19.3 20.95 20.5 18.0 20.5 17.75 21.25 16.2 21.25 16.9 19.0 18.5 19.0 M16.45 21.75 L18.1 21.75 18.8 23.05 19.65 21.15 21.3 21.15 19.65 24.65 21.4 27.9 19.7 27.9 18.9 26.35 18.2 27.9 16.55 27.9 18.0 24.75 16.45 21.75 Z" fill="none" stroke="#660000" stroke-linecap="round" stroke-linejoin="round" stroke-width="3.0"/>
    <path d="M20.95 20.45 L18.05 20.45 17.8 21.25 16.2 21.25 16.9 18.95 18.55 18.95 18.4 19.3 21.55 19.3 20.95 20.45 M4.2 18.95 L5.6 18.95 5.6 19.95 6.35 19.95 5.85 21.1 5.6 21.1 5.6 22.1 6.3 22.1 5.6 23.35 5.6 27.5 4.2 28.0 4.2 25.55 4.0 25.9 2.55 25.9 4.2 23.15 4.2 21.1 3.9 21.1 3.8 22.35 2.5 22.35 2.8 19.25 4.1 19.25 4.0 19.95 4.2 19.95 4.2 18.95 M10.0 21.6 L8.85 27.4 7.5 27.4 8.7 21.6 10.0 21.6 M8.1 19.25 L11.5 19.25 11.5 26.6 10.25 27.85 9.45 27.85 9.45 26.75 10.15 26.75 10.15 20.35 7.8 20.35 7.55 21.25 6.15 21.25 6.8 18.85 8.2 18.85 8.1 19.25 M8.35 21.6 L7.1 27.4 5.8 27.4 7.1 21.6 8.35 21.6 M12.65 20.35 L12.65 19.1 16.4 19.1 15.75 20.35 15.25 20.35 15.25 26.7 16.4 26.7 15.85 27.85 12.65 27.85 12.65 26.7 13.65 26.7 13.65 20.35 12.65 20.35 M18.8 23.0 L19.7 21.1 21.3 21.1 19.7 24.65 21.45 27.85 19.75 27.85 18.9 26.35 18.2 27.85 16.6 27.85 18.05 24.7 16.45 21.75 18.1 21.75 18.8 23.0" fill="#ffff00" fill-rule="evenodd" stroke="none"/>
  </g>
</svg>
