<?xml version="1.0" encoding="UTF-8" standalone="no"?>
<svg xmlns:xlink="http://www.w3.org/1999/xlink" height="28.8px" width="30.2px" xmlns="http://www.w3.org/2000/svg">
  <g transform="matrix(1.0, 0.0, 0.0, 1.0, 0.8, -1.6)">
    <path d="M27.1 15.0 Q25.25 18.85 21.4 21.5 L21.05 21.65 20.35 21.8 20.25 21.85 Q19.65 21.85 19.25 21.5 15.35 18.85 13.55 15.05 12.85 10.6 13.4 5.85 16.8 4.85 20.25 4.9 L20.35 4.9 Q23.8 4.8 27.6 5.85 27.8 10.6 27.1 15.0 Z" fill="none" stroke="#ffffff" stroke-linecap="butt" stroke-linejoin="miter-clip" stroke-miterlimit="3.0" stroke-width="3.5"/>
    <path d="M6.8 4.45 Q3.85 6.95 2.15 9.9 L5.0 9.9 5.0 19.35 10.6 19.35 10.6 9.9 13.55 9.9 Q11.4 6.25 7.85 3.65 7.25 4.0 6.8 4.45 Z" fill="none" stroke="#ffffff" stroke-linecap="butt" stroke-linejoin="miter-clip" stroke-miterlimit="3.0" stroke-width="3.5"/>
    <path d="M7.85 3.65 Q11.4 6.25 13.55 9.9 L10.6 9.9 10.6 19.35 9.35 19.35 9.4 11.2 9.4 8.95 11.2 8.95 9.65 6.35 7.85 3.65" fill="#3b861d" fill-rule="evenodd" stroke="none"/>
    <path d="M6.25 5.75 L6.75 5.55 7.0 5.8 6.15 7.2 Q5.25 8.3 5.25 7.25 L5.5 6.75 5.7 6.4 6.25 5.75" fill="#ffffff" fill-rule="evenodd" stroke="none"/>
    <path d="M7.85 3.65 L9.65 6.35 11.2 8.95 9.4 8.95 9.4 11.2 9.35 19.35 6.2 19.35 6.2 9.0 4.3 9.0 Q4.45 8.3 5.5 6.75 L5.25 7.25 Q5.25 8.3 6.15 7.2 L7.0 5.8 6.75 5.55 6.25 5.75 7.85 3.65" fill="#74c84e" fill-rule="evenodd" stroke="none"/>
    <path d="M6.8 4.45 Q7.25 4.05 7.85 3.65 5.7 5.65 6.8 4.45" fill="#cb2c1b" fill-rule="evenodd" stroke="none"/>
    <path d="M6.2 19.35 L5.0 19.35 5.0 9.9 2.15 9.9 Q3.85 6.95 6.8 4.45 5.7 5.65 7.85 3.65 L6.25 5.75 5.7 6.4 5.5 6.75 Q4.45 8.3 4.3 9.0 L6.2 9.0 6.2 19.35" fill="#c7f36c" fill-rule="evenodd" stroke="none"/>
    <path d="M9.35 19.35 L10.6 19.35 10.6 9.9 13.55 9.9 Q11.4 6.25 7.85 3.65 7.25 4.05 6.8 4.45 3.85 6.95 2.15 9.9 L5.0 9.9 5.0 19.35 6.2 19.35 9.35 19.35 Z" fill="none" stroke="#005909" stroke-linecap="butt" stroke-linejoin="miter-clip" stroke-miterlimit="3.0" stroke-width="1.0"/>
    <path d="M20.35 21.8 L20.3 21.85 Q19.7 21.85 19.25 21.5 15.35 18.85 13.55 15.05 12.85 10.6 13.45 5.85 16.85 4.85 20.3 4.9 L20.35 4.9 20.35 5.65 17.45 5.85 Q15.15 6.1 14.35 6.55 L14.15 6.55 Q13.8 11.45 14.3 15.2 L14.6 15.45 Q17.25 19.45 20.35 21.15 L20.35 21.25 20.35 21.8" fill="#0099ff" fill-rule="evenodd" stroke="none"/>
    <path d="M20.35 4.9 Q23.85 4.8 27.5 5.85 27.8 10.6 27.15 15.0 25.25 18.85 21.45 21.5 L21.2 21.65 21.2 21.55 20.35 21.8 20.35 21.25 23.15 18.95 Q24.85 17.35 26.2 15.2 L26.35 14.8 26.65 13.35 26.8 10.9 26.8 10.3 26.8 10.0 26.65 6.7 26.35 6.45 25.1 6.1 23.05 5.75 20.35 5.65 20.35 4.9" fill="#0000ff" fill-rule="evenodd" stroke="none"/>
    <path d="M20.35 21.25 L20.35 21.15 20.35 18.85 20.45 18.8 20.85 18.75 21.2 18.55 Q23.9 16.75 25.25 14.05 25.7 10.9 25.25 7.5 L20.35 6.9 20.35 5.65 23.05 5.75 25.1 6.1 26.35 6.45 26.65 6.7 26.8 10.0 26.8 10.3 26.8 10.9 26.65 13.35 26.35 14.8 26.2 15.2 Q24.85 17.35 23.15 18.95 L20.35 21.25" fill="#0033ff" fill-rule="evenodd" stroke="none"/>
    <path d="M20.35 21.15 Q17.25 19.45 14.6 15.45 L14.3 15.2 Q13.8 11.45 14.15 6.55 L14.35 6.55 Q15.15 6.1 17.45 5.85 L20.35 5.65 20.35 6.9 20.35 6.95 20.3 6.95 15.35 7.55 Q14.95 10.9 15.4 14.1 16.75 16.75 19.4 18.6 L20.3 18.85 20.35 18.85 20.35 21.15" fill="#0066ff" fill-rule="evenodd" stroke="none"/>
    <path d="M20.35 18.85 L20.3 18.85 19.4 18.6 Q16.75 16.75 15.4 14.1 14.95 10.9 15.35 7.55 L20.3 6.95 20.35 6.95 20.35 18.8 20.35 18.85" fill="#4ab7ff" fill-rule="evenodd" stroke="none"/>
    <path d="M20.35 6.95 L20.35 6.9 25.25 7.5 Q25.7 10.9 25.25 14.05 23.9 16.75 21.2 18.55 L20.85 18.75 20.8 18.65 20.45 18.8 20.35 18.8 20.35 6.95" fill="#00ccff" fill-rule="evenodd" stroke="none"/>
    <path d="M20.45 18.8 L20.8 18.65 20.85 18.75 20.45 18.8" fill="#f0a028" fill-rule="evenodd" stroke="none"/>
    <path d="M20.45 18.8 L20.35 18.85 20.35 18.8 20.45 18.8" fill="#9cfce8" fill-rule="evenodd" stroke="none"/>
    <path d="M20.35 21.8 L20.3 21.85 Q19.7 21.85 19.25 21.5 15.35 18.85 13.55 15.05 12.85 10.6 13.45 5.85 16.85 4.85 20.3 4.9 L20.35 4.9 Q23.85 4.8 27.5 5.85 27.8 10.6 27.15 15.0 25.25 18.85 21.45 21.5 L21.2 21.65 20.35 21.8" fill="none" stroke="#000033" stroke-linecap="butt" stroke-linejoin="miter-clip" stroke-miterlimit="3.0" stroke-width="0.8"/>
    <path d="M20.35 18.85 L20.3 18.85 19.4 18.6 Q16.75 16.75 15.4 14.1 14.95 10.9 15.35 7.55 L20.3 6.95 20.35 6.95 M20.85 18.75 L21.2 18.55 Q23.9 16.75 25.25 14.05 25.7 10.9 25.25 7.5 L20.35 6.9 M20.35 18.85 L20.45 18.8 20.35 18.8 M20.85 18.75 L20.45 18.8" fill="none" stroke="#0000ff" stroke-linecap="butt" stroke-linejoin="miter-clip" stroke-miterlimit="3.0" stroke-width="0.8"/>
    <path d="M20.8 20.55 L17.9 20.55 17.9 21.35 21.2 21.35 21.2 26.6 19.95 27.9 18.75 27.9 18.75 26.75 19.75 26.75 19.75 22.45 17.9 22.45 17.9 27.5 16.45 28.1 16.45 20.55 16.05 20.55 16.05 19.4 17.75 19.4 17.9 19.15 18.15 18.95 18.65 18.85 19.2 18.95 19.5 19.25 19.6 19.4 21.3 19.4 20.8 20.55 M4.2 18.9 L5.7 18.9 5.7 19.9 6.25 19.9 6.25 19.65 8.05 19.65 8.05 18.9 9.55 18.9 9.55 19.65 11.5 19.65 11.0 20.7 9.55 20.7 9.55 22.0 11.55 22.0 11.05 23.0 6.1 23.0 6.15 22.45 5.7 23.15 5.7 27.3 4.2 28.05 4.2 25.5 4.0 25.85 2.45 25.85 4.2 23.1 4.2 21.05 3.85 21.05 3.75 22.3 2.4 22.3 2.75 19.2 4.05 19.2 4.0 19.9 4.2 19.9 4.2 18.9 M5.7 21.05 L5.7 22.05 6.15 22.05 6.15 22.0 8.05 22.0 8.05 20.7 6.25 20.7 6.25 20.25 5.9 21.05 5.7 21.05 M9.1 23.2 L10.55 23.2 10.55 23.7 11.5 23.7 11.0 24.75 10.55 24.75 10.55 26.8 9.55 27.95 8.4 27.95 8.4 26.9 9.1 26.9 9.1 24.75 6.2 24.75 6.2 23.7 9.1 23.7 9.1 23.2 M14.05 20.25 L14.05 22.25 14.35 22.25 14.35 20.25 14.05 20.25 M14.05 23.4 L14.05 25.8 14.35 25.8 14.35 23.4 14.05 23.4 M15.95 23.4 L15.95 25.8 14.6 26.95 14.05 26.95 14.05 27.55 12.5 28.15 12.5 19.1 15.95 19.1 15.95 22.25 15.2 22.9 15.95 23.4 M7.9 26.7 L7.55 27.0 7.1 27.15 6.65 27.0 6.3 26.7 6.2 26.25 6.3 25.8 6.65 25.45 7.1 25.35 7.5 25.45 7.9 25.8 8.0 26.25 7.9 26.7" fill="#ffff00" fill-rule="evenodd" stroke="none"/>
    <path d="M20.8 20.55 L17.9 20.55 17.9 21.35 21.2 21.35 21.2 26.6 19.95 27.9 18.75 27.9 18.75 26.75 19.75 26.75 19.75 22.45 17.9 22.45 17.9 27.5 16.45 28.1 16.45 20.55 16.05 20.55 16.05 19.4 17.75 19.4 17.9 19.15 18.15 18.95 18.65 18.85 19.2 18.95 19.5 19.25 19.6 19.4 21.3 19.4 20.8 20.55 M4.2 18.9 L5.7 18.9 5.7 19.9 6.25 19.9 6.25 19.65 8.05 19.65 8.05 18.9 9.55 18.9 9.55 19.65 11.5 19.65 11.0 20.7 9.55 20.7 9.55 22.0 11.55 22.0 11.05 23.0 6.1 23.0 6.15 22.45 5.7 23.15 5.7 27.3 4.2 28.05 4.2 25.5 4.0 25.85 2.45 25.85 4.2 23.1 4.2 21.05 3.85 21.05 3.75 22.3 2.4 22.3 2.75 19.2 4.05 19.2 4.0 19.9 4.2 19.9 4.2 18.9 M5.7 21.05 L5.7 22.05 6.15 22.05 6.15 22.0 8.05 22.0 8.05 20.7 6.25 20.7 6.25 20.25 5.9 21.05 5.7 21.05 M9.1 23.2 L10.55 23.2 10.55 23.7 11.5 23.7 11.0 24.75 10.55 24.75 10.55 26.8 9.55 27.95 8.4 27.95 8.4 26.9 9.1 26.9 9.1 24.75 6.2 24.75 6.2 23.7 9.1 23.7 9.1 23.2 M14.05 20.25 L14.05 22.25 14.35 22.25 14.35 20.25 14.05 20.25 M14.05 23.4 L14.05 25.8 14.35 25.8 14.35 23.4 14.05 23.4 M15.95 23.4 L15.95 25.8 14.6 26.95 14.05 26.95 14.05 27.55 12.5 28.15 12.5 19.1 15.95 19.1 15.95 22.25 15.2 22.9 15.95 23.4 M7.9 26.7 L7.55 27.0 7.1 27.15 6.65 27.0 6.3 26.7 6.2 26.25 6.3 25.8 6.65 25.45 7.1 25.35 7.5 25.45 7.9 25.8 8.0 26.25 7.9 26.7 Z" fill="none" stroke="#660000" stroke-linecap="butt" stroke-linejoin="miter-clip" stroke-miterlimit="3.0" stroke-width="3.0"/>
    <path d="M20.8 20.55 L17.9 20.55 17.9 21.35 21.2 21.35 21.2 26.6 19.95 27.9 18.75 27.9 18.75 26.8 19.75 26.8 19.75 22.5 17.9 22.5 17.9 27.5 16.45 28.1 16.45 20.55 16.05 20.55 16.05 19.4 17.75 19.4 17.9 19.15 18.15 18.95 18.65 18.85 19.2 18.95 19.5 19.25 19.6 19.4 21.3 19.4 20.8 20.55 M4.2 18.9 L5.7 18.9 5.7 19.9 6.25 19.9 6.25 19.65 8.05 19.65 8.05 18.9 9.55 18.9 9.55 19.65 11.5 19.65 11.0 20.7 9.55 20.7 9.55 22.0 11.55 22.0 11.05 23.0 6.1 23.0 6.15 22.45 5.7 23.15 5.7 27.3 4.2 28.05 4.2 25.5 4.0 25.85 2.45 25.85 4.2 23.1 4.2 21.05 3.85 21.05 3.75 22.3 2.4 22.3 2.75 19.2 4.05 19.2 4.0 19.9 4.2 19.9 4.2 18.9 M5.7 21.05 L5.7 22.05 6.15 22.05 6.15 22.0 8.05 22.0 8.05 20.7 6.25 20.7 6.25 20.25 5.9 21.05 5.7 21.05 M9.1 23.2 L10.55 23.2 10.55 23.7 11.5 23.7 11.0 24.75 10.55 24.75 10.55 26.8 9.55 27.95 8.4 27.95 8.4 26.9 9.1 26.9 9.1 24.75 6.2 24.75 6.2 23.7 9.1 23.7 9.1 23.2 M14.05 20.25 L14.05 22.25 14.35 22.25 14.35 20.25 14.05 20.25 M14.05 23.45 L14.05 25.8 14.35 25.8 14.35 23.45 14.05 23.45 M15.2 22.9 L15.95 23.45 15.95 25.8 14.6 26.95 14.05 26.95 14.05 27.55 12.5 28.15 12.5 19.1 15.95 19.1 15.95 22.25 15.2 22.9 M7.9 26.7 L7.55 27.0 7.1 27.15 6.65 27.0 6.3 26.7 6.2 26.25 6.3 25.8 6.65 25.45 7.1 25.35 7.5 25.45 7.9 25.8 8.0 26.25 7.9 26.7" fill="#ffff00" fill-rule="evenodd" stroke="none"/>
  </g>
</svg>
