<?xml version="1.0" encoding="UTF-8" standalone="no"?>
<svg xmlns:xlink="http://www.w3.org/1999/xlink" height="33.7px" width="121.85px" xmlns="http://www.w3.org/2000/svg">
  <g transform="matrix(1.0, 0.0, 0.0, 1.0, 6.0, 6.0)">
    <path d="M103.75 3.35 L92.2 3.35 91.5 4.4 88.5 4.4 91.15 0.7 94.05 0.7 93.55 1.45 105.3 1.45 103.75 3.35 M102.55 6.55 L88.25 6.55 88.85 4.65 104.1 4.65 102.55 6.55 M87.0 3.25 L83.8 6.45 85.3 9.6 82.4 9.6 81.85 8.35 80.55 9.6 77.6 9.6 80.9 6.4 79.7 3.85 82.55 3.9 82.9 4.5 84.35 3.1 79.9 3.1 80.55 1.2 87.7 1.2 87.0 3.25 M84.55 10.15 L82.65 15.95 79.65 17.1 81.9 10.15 84.55 10.15 M87.75 7.7 L102.5 7.7 100.2 14.65 101.65 14.65 99.95 16.8 96.6 16.8 99.0 9.55 87.15 9.55 87.75 7.7 M76.95 1.0 L79.45 1.0 79.15 1.85 80.25 1.85 78.7 3.8 78.5 3.8 77.75 6.1 75.7 7.5 77.3 9.6 74.15 9.6 73.65 8.9 72.7 9.6 69.55 9.6 72.55 7.5 71.4 6.1 72.2 3.8 71.7 3.8 72.35 1.85 72.85 1.85 73.1 1.0 75.55 1.0 75.25 1.85 76.7 1.85 76.95 1.0 M75.45 5.45 L76.05 3.8 74.6 3.8 74.05 5.45 74.6 6.1 75.45 5.45 M80.0 11.1 L79.9 11.9 79.4 12.75 78.55 13.35 77.65 13.6 76.8 13.35 76.4 12.75 Q76.3 12.35 76.5 11.95 76.6 11.5 77.0 11.1 L77.85 10.5 78.75 10.3 79.5 10.5 80.0 11.1 M76.3 10.3 L74.75 14.95 79.6 14.95 78.1 16.8 71.45 16.8 73.6 10.3 76.3 10.3 M68.8 4.85 L64.45 4.85 63.95 6.55 63.85 6.65 63.9 6.75 64.35 6.65 64.9 6.55 66.75 6.55 67.65 6.75 Q68.2 6.9 68.4 7.35 L68.55 8.4 68.2 9.75 67.75 11.0 67.45 11.8 67.0 12.55 66.45 13.25 65.85 13.7 65.4 13.95 64.75 14.1 63.95 14.2 62.15 14.2 61.05 14.15 60.45 14.0 60.0 13.75 59.7 13.3 59.5 12.75 59.55 12.1 59.65 11.45 60.0 10.3 62.55 10.3 62.3 11.0 Q62.25 11.3 62.55 11.55 L63.45 11.8 64.3 11.65 65.0 11.25 65.4 10.4 65.55 9.55 65.45 9.15 64.9 9.05 63.8 9.05 63.35 9.15 62.75 9.65 60.4 9.65 62.8 2.45 70.45 2.45 68.8 4.85 M67.6 17.2 L69.9 10.15 72.5 10.15 70.6 16.0 67.6 17.2 M56.5 4.85 L57.35 2.45 61.25 2.45 57.6 13.4 54.65 14.35 57.75 4.85 56.5 4.85 M53.2 9.7 L48.65 9.7 47.15 14.2 45.65 14.2 47.15 9.7 42.7 9.7 43.2 8.25 47.65 8.25 49.15 3.7 50.65 3.7 49.15 8.25 53.7 8.25 53.2 9.7" fill="#2d0000" fill-rule="evenodd" stroke="none"/>
    <path d="M103.75 3.35 L92.2 3.35 91.5 4.4 88.5 4.4 91.15 0.7 94.05 0.7 93.55 1.45 105.3 1.45 103.75 3.35 M102.55 6.55 L88.25 6.55 88.85 4.65 104.1 4.65 102.55 6.55 M87.0 3.25 L83.8 6.45 85.3 9.6 82.4 9.6 81.85 8.35 80.55 9.6 77.6 9.6 80.9 6.4 79.7 3.85 82.55 3.9 82.9 4.5 84.35 3.1 79.9 3.1 80.55 1.2 87.7 1.2 87.0 3.25 M84.55 10.15 L82.65 15.95 79.65 17.1 81.9 10.15 84.55 10.15 M87.75 7.7 L102.5 7.7 100.2 14.65 101.65 14.65 99.95 16.8 96.6 16.8 99.0 9.55 87.15 9.55 87.75 7.7 M76.95 1.0 L79.45 1.0 79.15 1.85 80.25 1.85 78.7 3.8 78.5 3.8 77.75 6.1 75.7 7.5 77.3 9.6 74.15 9.6 73.65 8.9 72.7 9.6 69.55 9.6 72.55 7.5 71.4 6.1 72.2 3.8 71.7 3.8 72.35 1.85 72.85 1.85 73.1 1.0 75.55 1.0 75.25 1.85 76.7 1.85 76.95 1.0 M75.45 5.45 L76.05 3.8 74.6 3.8 74.05 5.45 74.6 6.1 75.45 5.45 M80.0 11.1 L79.9 11.9 79.4 12.75 78.55 13.35 77.65 13.6 76.8 13.35 76.4 12.75 Q76.3 12.35 76.5 11.95 76.6 11.5 77.0 11.1 L77.85 10.5 78.75 10.3 79.5 10.5 80.0 11.1 M76.3 10.3 L74.75 14.95 79.6 14.95 78.1 16.8 71.45 16.8 73.6 10.3 76.3 10.3 M68.8 4.85 L64.45 4.85 63.95 6.55 63.85 6.65 63.9 6.75 64.35 6.65 64.9 6.55 66.75 6.55 67.65 6.75 Q68.2 6.9 68.4 7.35 L68.55 8.4 68.2 9.75 67.75 11.0 67.45 11.8 67.0 12.55 66.45 13.25 65.85 13.7 65.4 13.95 64.75 14.1 63.95 14.2 62.15 14.2 61.05 14.15 60.45 14.0 60.0 13.75 59.7 13.3 59.5 12.75 59.55 12.1 59.65 11.45 60.0 10.3 62.55 10.3 62.3 11.0 Q62.25 11.3 62.55 11.55 L63.45 11.8 64.3 11.65 65.0 11.25 65.4 10.4 65.55 9.55 65.45 9.15 64.9 9.05 63.8 9.05 63.35 9.15 62.75 9.65 60.4 9.65 62.8 2.45 70.45 2.45 68.8 4.85 M67.6 17.2 L69.9 10.15 72.5 10.15 70.6 16.0 67.6 17.2 M56.5 4.85 L57.35 2.45 61.25 2.45 57.6 13.4 54.65 14.35 57.75 4.85 56.5 4.85 M53.2 9.7 L48.65 9.7 47.15 14.2 45.65 14.2 47.15 9.7 42.7 9.7 43.2 8.25 47.65 8.25 49.15 3.7 50.65 3.7 49.15 8.25 53.7 8.25 53.2 9.7 Z" fill="none" stroke="#ffffff" stroke-linecap="square" stroke-linejoin="miter-clip" stroke-miterlimit="3.0" stroke-width="10.0"/>
    <path d="M104.6 7.2 L86.95 7.2 87.5 4.9 106.3 4.9 104.6 7.2 M105.8 3.3 L91.55 3.3 90.75 4.55 87.05 4.55 90.0 0.0 93.6 0.0 92.95 0.95 107.45 0.95 105.8 3.3 M104.15 17.25 L102.35 19.85 98.2 19.85 100.45 10.95 85.8 10.95 86.4 8.65 104.6 8.65 102.4 17.25 104.15 17.25 M81.45 7.1 L83.55 11.0 79.95 11.0 79.1 9.45 77.65 11.0 74.05 11.0 77.8 7.05 76.05 3.9 79.7 3.95 80.05 4.7 81.8 2.95 76.35 2.95 76.9 0.6 85.75 0.6 85.1 3.15 81.45 7.1 M71.6 3.8 L69.85 3.8 69.3 5.85 70.0 6.65 71.05 5.85 71.6 3.8 M75.25 1.4 L76.6 1.4 74.9 3.8 74.65 3.8 73.9 6.65 71.5 8.4 73.65 11.0 69.75 11.0 69.15 10.15 68.0 11.0 64.1 11.0 67.6 8.4 66.1 6.65 66.85 3.8 66.25 3.8 66.85 1.4 67.45 1.4 67.75 0.35 70.75 0.35 70.45 1.4 72.2 1.4 72.5 0.35 75.55 0.35 75.25 1.4 M75.55 11.85 L76.5 12.1 Q77.0 12.35 77.1 12.85 L77.05 13.85 76.6 14.9 75.6 15.65 74.45 15.9 73.45 15.65 72.9 14.9 Q72.7 14.4 72.85 13.9 72.95 13.35 73.4 12.85 73.9 12.35 74.45 12.1 L75.55 11.85 M67.8 11.7 L66.0 18.9 62.4 20.35 64.6 11.7 67.8 11.7 M77.25 20.25 L79.45 11.65 82.7 11.65 80.85 18.8 77.25 20.25 M76.95 17.6 L75.35 19.9 67.15 19.85 69.2 11.85 72.55 11.85 70.95 17.6 76.95 17.6" fill="#000412" fill-rule="evenodd" stroke="none"/>
    <path d="M104.6 7.2 L86.95 7.2 87.5 4.9 106.3 4.9 104.6 7.2 M105.8 3.3 L91.55 3.3 90.75 4.55 87.05 4.55 90.0 0.0 93.6 0.0 92.95 0.95 107.45 0.95 105.8 3.3 M104.15 17.25 L102.35 19.85 98.2 19.85 100.45 10.95 85.8 10.95 86.4 8.65 104.6 8.65 102.4 17.25 104.15 17.25 M81.45 7.1 L83.55 11.0 79.95 11.0 79.1 9.45 77.65 11.0 74.05 11.0 77.8 7.05 76.05 3.9 79.7 3.95 80.05 4.7 81.8 2.95 76.35 2.95 76.9 0.6 85.75 0.6 85.1 3.15 81.45 7.1 M71.6 3.8 L69.85 3.8 69.3 5.85 70.0 6.65 71.05 5.85 71.6 3.8 M75.25 1.4 L76.6 1.4 74.9 3.8 74.65 3.8 73.9 6.65 71.5 8.4 73.65 11.0 69.75 11.0 69.15 10.15 68.0 11.0 64.1 11.0 67.6 8.4 66.1 6.65 66.85 3.8 66.25 3.8 66.85 1.4 67.45 1.4 67.75 0.35 70.75 0.35 70.45 1.4 72.2 1.4 72.5 0.35 75.55 0.35 75.25 1.4 M75.55 11.85 L76.5 12.1 Q77.0 12.35 77.1 12.85 L77.05 13.85 76.6 14.9 75.6 15.65 74.45 15.9 73.45 15.65 72.9 14.9 Q72.7 14.4 72.85 13.9 72.95 13.35 73.4 12.85 73.9 12.35 74.45 12.1 L75.55 11.85 M67.8 11.7 L66.0 18.9 62.4 20.35 64.6 11.7 67.8 11.7 M77.25 20.25 L79.45 11.65 82.7 11.65 80.85 18.8 77.25 20.25 M76.95 17.6 L75.35 19.9 67.15 19.85 69.2 11.85 72.55 11.85 70.95 17.6 76.95 17.6 M0.45 9.25 L13.45 9.25 13.0 11.1 0.0 11.1 0.45 9.25 Z" fill="none" stroke="#ffffff" stroke-linecap="square" stroke-linejoin="miter-clip" stroke-miterlimit="3.0" stroke-width="9.0"/>
    <path d="M104.6 7.2 L86.95 7.2 87.5 4.9 106.3 4.9 104.6 7.2 M105.8 3.3 L91.55 3.3 90.75 4.55 87.05 4.55 90.0 0.0 93.6 0.0 92.95 0.95 107.45 0.95 105.8 3.3 M104.15 17.25 L102.35 19.85 98.2 19.85 100.45 10.95 85.8 10.95 86.4 8.65 104.6 8.65 102.4 17.25 104.15 17.25 M81.45 7.1 L83.55 11.0 79.95 11.0 79.1 9.45 77.65 11.0 74.05 11.0 77.8 7.05 76.05 3.9 79.7 3.95 80.05 4.7 81.8 2.95 76.35 2.95 76.9 0.6 85.75 0.6 85.1 3.15 81.45 7.1 M71.6 3.8 L69.85 3.8 69.3 5.85 70.0 6.65 71.05 5.85 71.6 3.8 M75.25 1.4 L76.6 1.4 74.9 3.8 74.65 3.8 73.9 6.65 71.5 8.4 73.65 11.0 69.75 11.0 69.15 10.15 68.0 11.0 64.1 11.0 67.6 8.4 66.1 6.65 66.85 3.8 66.25 3.8 66.85 1.4 67.45 1.4 67.75 0.35 70.75 0.35 70.45 1.4 72.2 1.4 72.5 0.35 75.55 0.35 75.25 1.4 M75.55 11.85 L76.5 12.1 Q77.0 12.35 77.1 12.85 L77.05 13.85 76.6 14.9 75.6 15.65 74.45 15.9 73.45 15.65 72.9 14.9 Q72.7 14.4 72.85 13.9 72.95 13.35 73.4 12.85 73.9 12.35 74.45 12.1 L75.55 11.85 M67.8 11.7 L66.0 18.9 62.4 20.35 64.6 11.7 67.8 11.7 M77.25 20.25 L79.45 11.65 82.7 11.65 80.85 18.8 77.25 20.25 M76.95 17.6 L75.35 19.9 67.15 19.85 69.2 11.85 72.55 11.85 70.95 17.6 76.95 17.6" fill="#000412" fill-rule="evenodd" stroke="none"/>
    <path d="M104.6 7.2 L86.95 7.2 87.5 4.9 106.3 4.9 104.6 7.2 M105.8 3.3 L91.55 3.3 90.75 4.55 87.05 4.55 90.0 0.0 93.6 0.0 92.95 0.95 107.45 0.95 105.8 3.3 M104.15 17.25 L102.35 19.85 98.2 19.85 100.45 10.95 85.8 10.95 86.4 8.65 104.6 8.65 102.4 17.25 104.15 17.25 M81.45 7.1 L83.55 11.0 79.95 11.0 79.1 9.45 77.65 11.0 74.05 11.0 77.8 7.05 76.05 3.9 79.7 3.95 80.05 4.7 81.8 2.95 76.35 2.95 76.9 0.6 85.75 0.6 85.1 3.15 81.45 7.1 M71.6 3.8 L69.85 3.8 69.3 5.85 70.0 6.65 71.05 5.85 71.6 3.8 M75.25 1.4 L76.6 1.4 74.9 3.8 74.65 3.8 73.9 6.65 71.5 8.4 73.65 11.0 69.75 11.0 69.15 10.15 68.0 11.0 64.1 11.0 67.6 8.4 66.1 6.65 66.85 3.8 66.25 3.8 66.85 1.4 67.45 1.4 67.75 0.35 70.75 0.35 70.45 1.4 72.2 1.4 72.5 0.35 75.55 0.35 75.25 1.4 M75.55 11.85 L76.5 12.1 Q77.0 12.35 77.1 12.85 L77.05 13.85 76.6 14.9 75.6 15.65 74.45 15.9 73.45 15.65 72.9 14.9 Q72.7 14.4 72.85 13.9 72.95 13.35 73.4 12.85 73.9 12.35 74.45 12.1 L75.55 11.85 M67.8 11.7 L66.0 18.9 62.4 20.35 64.6 11.7 67.8 11.7 M77.25 20.25 L79.45 11.65 82.7 11.65 80.85 18.8 77.25 20.25 M76.95 17.6 L75.35 19.9 67.15 19.85 69.2 11.85 72.55 11.85 70.95 17.6 76.95 17.6 M0.45 9.25 L13.45 9.25 13.0 11.1 0.0 11.1 0.45 9.25 Z" fill="none" stroke="#000412" stroke-linecap="square" stroke-linejoin="miter-clip" stroke-miterlimit="3.0" stroke-width="6.0"/>
    <path d="M104.6 7.2 L86.95 7.2 87.5 4.9 106.3 4.9 104.6 7.2 M105.8 3.3 L91.55 3.3 90.75 4.55 87.05 4.55 90.0 0.0 93.6 0.0 92.95 0.95 107.45 0.95 105.8 3.3 M104.15 17.25 L102.35 19.85 98.2 19.85 100.45 10.95 85.8 10.95 86.4 8.65 104.6 8.65 102.4 17.25 104.15 17.25 M81.45 7.1 L83.55 11.0 79.95 11.0 79.1 9.45 77.65 11.0 74.05 11.0 77.8 7.05 76.05 3.9 79.7 3.95 80.05 4.7 81.8 2.95 76.35 2.95 76.9 0.6 85.75 0.6 85.1 3.15 81.45 7.1 M71.6 3.8 L69.85 3.8 69.3 5.85 70.0 6.65 71.05 5.85 71.6 3.8 M75.25 1.4 L76.6 1.4 74.9 3.8 74.65 3.8 73.9 6.65 71.5 8.4 73.65 11.0 69.75 11.0 69.15 10.15 68.0 11.0 64.1 11.0 67.6 8.4 66.1 6.65 66.85 3.8 66.25 3.8 66.85 1.4 67.45 1.4 67.75 0.35 70.75 0.35 70.45 1.4 72.2 1.4 72.5 0.35 75.55 0.35 75.25 1.4 M75.55 11.85 L76.5 12.1 Q77.0 12.35 77.1 12.85 L77.05 13.85 76.6 14.9 75.6 15.65 74.45 15.9 73.45 15.65 72.9 14.9 Q72.7 14.4 72.85 13.9 72.95 13.35 73.4 12.85 73.9 12.35 74.45 12.1 L75.55 11.85 M67.8 11.7 L66.0 18.9 62.4 20.35 64.6 11.7 67.8 11.7 M77.25 20.25 L79.45 11.65 82.7 11.65 80.85 18.8 77.25 20.25 M76.95 17.6 L75.35 19.9 67.15 19.85 69.2 11.85 72.55 11.85 70.95 17.6 76.95 17.6" fill="#2a5c99" fill-rule="evenodd" stroke="none"/>
    <path d="M104.6 7.2 L86.95 7.2 87.5 4.9 106.3 4.9 104.6 7.2 M105.8 3.3 L91.55 3.3 90.75 4.55 87.05 4.55 90.0 0.0 93.6 0.0 92.95 0.95 107.45 0.95 105.8 3.3 M104.15 17.25 L102.35 19.85 98.2 19.85 100.45 10.95 85.8 10.95 86.4 8.65 104.6 8.65 102.4 17.25 104.15 17.25 M81.45 7.1 L83.55 11.0 79.95 11.0 79.1 9.45 77.65 11.0 74.05 11.0 77.8 7.05 76.05 3.9 79.7 3.95 80.05 4.7 81.8 2.95 76.35 2.95 76.9 0.6 85.75 0.6 85.1 3.15 81.45 7.1 M71.6 3.8 L69.85 3.8 69.3 5.85 70.0 6.65 71.05 5.85 71.6 3.8 M75.25 1.4 L76.6 1.4 74.9 3.8 74.65 3.8 73.9 6.65 71.5 8.4 73.65 11.0 69.75 11.0 69.15 10.15 68.0 11.0 64.1 11.0 67.6 8.4 66.1 6.65 66.85 3.8 66.25 3.8 66.85 1.4 67.45 1.4 67.75 0.35 70.75 0.35 70.45 1.4 72.2 1.4 72.5 0.35 75.55 0.35 75.25 1.4 M75.55 11.85 L76.5 12.1 Q77.0 12.35 77.1 12.85 L77.05 13.85 76.6 14.9 75.6 15.65 74.45 15.9 73.45 15.65 72.9 14.9 Q72.7 14.4 72.85 13.9 72.95 13.35 73.4 12.85 73.9 12.35 74.45 12.1 L75.55 11.85 M67.8 11.7 L66.0 18.9 62.4 20.35 64.6 11.7 67.8 11.7 M77.25 20.25 L79.45 11.65 82.7 11.65 80.85 18.8 77.25 20.25 M76.95 17.6 L75.35 19.9 67.15 19.85 69.2 11.85 72.55 11.85 70.95 17.6 76.95 17.6 M0.45 9.25 L13.45 9.25 13.0 11.1 0.0 11.1 0.45 9.25 Z" fill="none" stroke="#2a5c99" stroke-linecap="square" stroke-linejoin="miter-clip" stroke-miterlimit="3.0" stroke-width="3.0"/>
    <path d="M104.6 7.2 L86.95 7.2 87.5 4.9 106.3 4.9 104.6 7.2 M105.8 3.3 L91.55 3.3 90.75 4.55 87.05 4.55 90.0 0.0 93.6 0.0 92.95 0.95 107.45 0.95 105.8 3.3 M104.15 17.25 L102.35 19.85 98.2 19.85 100.45 10.95 85.8 10.95 86.4 8.65 104.6 8.65 102.4 17.25 104.15 17.25 M81.45 7.1 L83.55 11.0 79.95 11.0 79.1 9.45 77.65 11.0 74.05 11.0 77.8 7.05 76.05 3.9 79.7 3.95 80.05 4.7 81.8 2.95 76.35 2.95 76.9 0.6 85.75 0.6 85.1 3.15 81.45 7.1 M71.6 3.8 L69.85 3.8 69.3 5.85 70.0 6.65 71.05 5.85 71.6 3.8 M75.25 1.4 L76.6 1.4 74.9 3.8 74.65 3.8 73.9 6.65 71.5 8.4 73.65 11.0 69.75 11.0 69.15 10.15 68.0 11.0 64.1 11.0 67.6 8.4 66.1 6.65 66.85 3.8 66.25 3.8 66.85 1.4 67.45 1.4 67.75 0.35 70.75 0.35 70.45 1.4 72.2 1.4 72.5 0.35 75.55 0.35 75.25 1.4 M75.55 11.85 L76.5 12.1 Q77.0 12.35 77.1 12.85 L77.05 13.85 76.6 14.9 75.6 15.65 74.45 15.9 73.45 15.65 72.9 14.9 Q72.7 14.4 72.85 13.9 72.95 13.35 73.4 12.85 73.9 12.35 74.45 12.1 L75.55 11.85 M67.8 11.7 L66.0 18.9 62.4 20.35 64.6 11.7 67.8 11.7 M77.25 20.25 L79.45 11.65 82.7 11.65 80.85 18.8 77.25 20.25 M76.95 17.6 L75.35 19.9 67.15 19.85 69.2 11.85 72.55 11.85 70.95 17.6 76.95 17.6" fill="url(#gradient0)" fill-rule="evenodd" stroke="none"/>
    <path d="M0.45 9.25 L13.45 9.25 13.0 11.1 0.0 11.1 0.45 9.25" fill="url(#gradient1)" fill-rule="evenodd" stroke="none"/>
  </g>
  <defs>
    <linearGradient gradientTransform="matrix(0.005, -0.0104, 0.0124, 0.0, 69.3, 10.15)" gradientUnits="userSpaceOnUse" id="gradient0" spreadMethod="pad" x1="-819.2" x2="819.2">
      <stop offset="0.0" stop-color="#96e3f7"/>
      <stop offset="1.0" stop-color="#fdfdff"/>
    </linearGradient>
    <linearGradient gradientTransform="matrix(0.005, -0.0104, 0.0124, 0.0, 38.3, 10.15)" gradientUnits="userSpaceOnUse" id="gradient1" spreadMethod="pad" x1="-819.2" x2="819.2">
      <stop offset="0.0" stop-color="#96e3f7"/>
      <stop offset="1.0" stop-color="#fdfdff"/>
    </linearGradient>
  </defs>
</svg>
