<?xml version="1.0" encoding="UTF-8" standalone="no"?>
<svg xmlns:xlink="http://www.w3.org/1999/xlink" height="54.6px" width="53.15px" xmlns="http://www.w3.org/2000/svg">
  <g transform="matrix(1.0, 0.0, 0.0, 1.0, 26.55, 24.3)">
    <path d="M8.55 -3.05 L8.55 -3.1 Q8.5 -3.5 8.75 -3.75 L22.85 -20.2 22.75 -20.6 -22.8 -20.6 -22.9 -20.4 -9.75 -3.75 -9.5 -3.1 Q-9.55 -2.7 -9.85 -2.5 -10.1 -2.2 -10.45 -2.2 L-22.9 -2.05 -23.0 -1.45 -22.55 -0.95 -22.35 -0.5 -0.65 26.3 22.7 -1.15 22.85 -1.35 23.0 -1.45 23.0 -1.9 22.95 -2.05 9.45 -2.05 Q9.1 -2.05 8.8 -2.4 8.55 -2.65 8.55 -3.05 M23.0 -22.55 L23.4 -22.65 Q23.8 -22.7 24.05 -22.4 L24.45 -21.75 24.85 -20.25 24.85 -19.8 24.6 -19.4 11.4 -4.0 22.95 -4.0 23.6 -3.7 23.65 -3.6 24.05 -3.55 24.6 -3.05 24.9 -1.9 24.9 -1.0 24.85 -0.85 24.1 0.15 0.1 28.35 Q-0.15 28.6 -0.55 28.65 -0.95 28.7 -1.2 28.45 L-1.35 28.35 -1.7 28.0 -24.05 0.4 -24.25 0.0 -24.6 -0.4 -24.65 -0.5 Q-24.85 -0.8 -24.85 -1.6 L-24.85 -1.8 -24.7 -2.9 -24.5 -3.5 -24.3 -3.7 Q-24.05 -4.0 -23.65 -4.0 L-12.45 -4.1 -24.4 -19.25 -24.5 -19.4 -24.6 -19.5 -24.85 -20.15 Q-24.95 -20.5 -24.65 -21.15 L-24.45 -21.65 -24.1 -22.25 Q-23.8 -22.55 -23.45 -22.55 L23.0 -22.55" fill="#3366cc" fill-rule="evenodd" stroke="none"/>
    <path d="M8.55 -3.05 Q8.55 -2.65 8.8 -2.4 9.1 -2.05 9.45 -2.05 L22.95 -2.05 23.0 -1.9 23.0 -1.45 22.85 -1.35 22.7 -1.15 -0.65 26.3 -22.35 -0.5 -22.55 -0.95 -23.0 -1.45 -22.9 -2.05 -10.45 -2.2 Q-10.1 -2.2 -9.85 -2.5 -9.55 -2.7 -9.5 -3.1 L-9.75 -3.75 -22.9 -20.4 -22.8 -20.6 22.75 -20.6 22.85 -20.2 8.75 -3.75 Q8.5 -3.5 8.55 -3.1 L8.55 -3.05 M-0.6 25.05 L20.75 -0.5 9.75 -0.5 8.45 -1.6 7.75 -2.0 7.75 -4.6 21.15 -19.65 -2.25 -19.65 -21.15 -19.65 -8.45 -3.7 -8.6 -2.25 -9.2 -1.8 -10.25 -0.8 -21.55 -0.8 -1.3 24.4 -0.7 25.15 -0.6 25.05" fill="#eeffff" fill-rule="evenodd" stroke="none"/>
    <path d="M-2.25 -19.65 L21.15 -19.65 7.75 -4.6 7.75 -2.0 8.45 -1.6 9.75 -0.5 20.75 -0.5 -0.6 25.05 -1.3 24.4 Q0.5 19.9 1.75 15.0 3.65 7.5 3.65 2.05 3.65 -6.45 0.1 -14.8 -1.0 -17.45 -2.25 -19.65" fill="url(#gradient0)" fill-rule="evenodd" stroke="none"/>
    <path d="M-2.95 29.05 L-25.3 1.45 -25.8 0.7 -26.05 0.4 Q-26.5 -0.15 -26.5 -1.6 L-26.5 -1.8 -26.45 -2.15 -26.35 -2.9 Q-26.35 -3.6 -25.95 -4.2 L-25.5 -4.85 Q-24.7 -5.65 -23.65 -5.65 L-15.8 -5.7 -25.65 -18.2 -25.8 -18.4 Q-26.45 -19.05 -26.5 -19.95 -26.65 -20.6 -26.15 -21.75 L-26.2 -21.75 -25.95 -22.25 -25.25 -23.4 Q-24.5 -24.2 -23.45 -24.2 L22.7 -24.2 23.4 -24.3 Q24.3 -24.35 25.0 -23.8 25.95 -23.2 26.1 -21.9 L26.1 -21.75 26.45 -20.75 26.45 -20.65 26.5 -19.45 26.45 -19.35 25.75 -18.25 25.9 -18.3 15.05 -5.65 22.95 -5.65 Q23.75 -5.7 24.45 -5.15 L24.5 -5.15 Q25.65 -4.8 26.15 -3.7 L26.1 -3.7 Q26.7 -2.5 26.55 -1.65 L26.55 -1.0 26.45 -0.4 26.35 -0.2 25.25 1.3 25.4 1.25 1.4 29.45 1.25 29.5 Q0.6 30.15 -0.3 30.3 -1.25 30.4 -1.9 29.9 L-2.05 29.85 -2.35 29.65 -2.95 29.05 M23.0 -22.55 L-23.45 -22.55 Q-23.8 -22.55 -24.1 -22.25 L-24.45 -21.65 -24.65 -21.15 Q-24.95 -20.5 -24.85 -20.15 L-24.6 -19.5 -24.5 -19.4 -24.4 -19.25 -12.45 -4.1 -23.65 -4.0 Q-24.05 -4.0 -24.3 -3.7 L-24.5 -3.5 -24.7 -2.9 -24.85 -1.8 -24.85 -1.6 Q-24.85 -0.8 -24.65 -0.5 L-24.6 -0.4 -24.25 0.0 -24.05 0.4 -1.7 28.0 -1.35 28.35 -1.2 28.45 Q-0.95 28.7 -0.55 28.65 -0.15 28.6 0.1 28.35 L24.1 0.15 24.85 -0.85 24.9 -1.0 24.9 -1.9 24.6 -3.05 24.05 -3.55 23.65 -3.6 23.6 -3.7 22.95 -4.0 11.4 -4.0 24.6 -19.4 24.85 -19.8 24.85 -20.25 24.45 -21.75 24.05 -22.4 Q23.8 -22.7 23.4 -22.65 L23.0 -22.55" fill="#19305d" fill-rule="evenodd" stroke="none"/>
    <path d="M-2.25 -19.65 Q-1.0 -17.45 0.1 -14.8 3.65 -6.45 3.65 2.05 3.65 7.5 1.75 15.0 0.5 19.9 -1.3 24.4 L-21.55 -0.8 -10.25 -0.8 -9.2 -1.8 -8.6 -2.25 -8.45 -3.7 -21.15 -19.65 -2.25 -19.65" fill="url(#gradient1)" fill-rule="evenodd" stroke="none"/>
    <path d="M-1.3 24.4 L-0.6 25.05 -0.7 25.15 -1.3 24.4" fill="#c7d84c" fill-rule="evenodd" stroke="none"/>
  </g>
  <defs>
    <linearGradient gradientTransform="matrix(-0.017, -2.0E-4, 0.0084, -0.6342, 4.85, 163.25)" gradientUnits="userSpaceOnUse" id="gradient0" spreadMethod="pad" x1="-819.2" x2="819.2">
      <stop offset="0.07058823529411765" stop-color="#008ab8"/>
      <stop offset="0.49411764705882355" stop-color="#10ffde"/>
      <stop offset="1.0" stop-color="#9affe5"/>
    </linearGradient>
    <linearGradient gradientTransform="matrix(-0.0141, 0.0048, -0.2035, -0.599, 37.4, 134.3)" gradientUnits="userSpaceOnUse" id="gradient1" spreadMethod="pad" x1="-819.2" x2="819.2">
      <stop offset="0.07058823529411765" stop-color="#ecfffc"/>
      <stop offset="0.49411764705882355" stop-color="#8effef"/>
      <stop offset="1.0" stop-color="#2aff9a"/>
    </linearGradient>
  </defs>
</svg>
