<?xml version="1.0" encoding="UTF-8" standalone="no"?>
<svg xmlns:xlink="http://www.w3.org/1999/xlink" height="26.5px" width="21.9px" xmlns="http://www.w3.org/2000/svg">
  <g transform="matrix(1.0, 0.0, 0.0, 1.0, 5.75, -107.4)">
    <path d="M8.8 116.25 L3.45 116.25 3.45 118.4 3.45 118.6 3.55 118.7 3.75 118.7 4.1 118.6 4.75 118.5 7.05 118.5 8.15 118.7 9.3 119.4 9.95 120.75 10.05 122.4 10.05 123.9 9.95 124.9 9.75 125.9 9.3 126.7 8.85 127.25 8.25 127.6 7.6 127.8 6.7 127.85 4.45 127.85 3.1 127.85 2.3 127.7 1.6 127.35 1.05 126.8 0.7 126.15 0.4 125.25 0.25 124.45 0.25 123.1 3.3 123.1 3.3 123.9 Q3.4 124.35 3.85 124.65 L5.0 124.9 6.1 124.7 6.7 124.25 6.9 123.2 Q6.9 122.45 6.7 122.2 L6.35 121.65 5.7 121.55 4.35 121.55 3.85 121.65 3.3 122.3 0.4 122.3 0.4 113.4 9.85 113.4 8.8 116.25" fill="url(#gradient0)" fill-rule="evenodd" stroke="none"/>
    <path d="M8.8 116.25 L3.45 116.25 3.45 118.4 3.45 118.6 3.55 118.7 3.75 118.7 4.1 118.6 4.75 118.5 7.05 118.5 8.15 118.7 9.3 119.4 9.95 120.75 10.05 122.4 10.05 123.9 9.95 124.9 9.75 125.9 9.3 126.7 8.85 127.25 8.25 127.6 7.6 127.8 6.7 127.85 4.45 127.85 3.1 127.85 2.3 127.7 1.6 127.35 1.05 126.8 0.7 126.15 0.4 125.25 0.25 124.45 0.25 123.1 3.3 123.1 3.3 123.9 Q3.4 124.35 3.85 124.65 L5.0 124.9 6.1 124.7 6.7 124.25 6.9 123.2 Q6.9 122.45 6.7 122.2 L6.35 121.65 5.7 121.55 4.35 121.55 3.85 121.65 3.3 122.3 0.4 122.3 0.4 113.4 9.85 113.4 8.8 116.25 Z" fill="none" stroke="#ffffff" stroke-linecap="square" stroke-linejoin="miter-clip" stroke-miterlimit="3.0" stroke-width="9.0"/>
    <path d="M8.8 116.25 L3.45 116.25 3.45 118.4 3.45 118.6 3.55 118.7 3.75 118.7 4.1 118.6 4.75 118.5 7.05 118.5 8.15 118.7 9.3 119.4 9.95 120.75 10.05 122.4 10.05 123.9 9.95 124.9 9.75 125.9 9.3 126.7 8.85 127.25 8.25 127.6 7.6 127.8 6.7 127.85 4.45 127.85 3.1 127.85 2.3 127.7 1.6 127.35 1.05 126.8 0.7 126.15 0.4 125.25 0.25 124.45 0.25 123.1 3.3 123.1 3.3 123.9 Q3.4 124.35 3.85 124.65 L5.0 124.9 6.1 124.7 6.7 124.25 6.9 123.2 Q6.9 122.45 6.7 122.2 L6.35 121.65 5.7 121.55 4.35 121.55 3.85 121.65 3.3 122.3 0.4 122.3 0.4 113.4 9.85 113.4 8.8 116.25" fill="url(#gradient1)" fill-rule="evenodd" stroke="none"/>
    <path d="M8.8 116.25 L3.45 116.25 3.45 118.4 3.45 118.6 3.55 118.7 3.75 118.7 4.1 118.6 4.75 118.5 7.05 118.5 8.15 118.7 9.3 119.4 9.95 120.75 10.05 122.4 10.05 123.9 9.95 124.9 9.75 125.9 9.3 126.7 8.85 127.25 8.25 127.6 7.6 127.8 6.7 127.85 4.45 127.85 3.1 127.85 2.3 127.7 1.6 127.35 1.05 126.8 0.7 126.15 0.4 125.25 0.25 124.45 0.25 123.1 3.3 123.1 3.3 123.9 Q3.4 124.35 3.85 124.65 L5.0 124.9 6.1 124.7 6.7 124.25 6.9 123.2 Q6.9 122.45 6.7 122.2 L6.35 121.65 5.7 121.55 4.35 121.55 3.85 121.65 3.3 122.3 0.4 122.3 0.4 113.4 9.85 113.4 8.8 116.25 Z" fill="none" stroke="#2d0000" stroke-linecap="square" stroke-linejoin="miter-clip" stroke-miterlimit="3.0" stroke-width="6.0"/>
    <path d="M8.8 116.25 L3.45 116.25 3.45 118.4 3.45 118.6 3.55 118.7 3.75 118.7 4.1 118.6 4.75 118.5 7.05 118.5 8.15 118.7 9.3 119.4 9.95 120.75 10.05 122.4 10.05 123.9 9.95 124.9 9.75 125.9 9.3 126.7 8.85 127.25 8.25 127.6 7.6 127.8 6.7 127.85 4.45 127.85 3.1 127.85 2.3 127.7 1.6 127.35 1.05 126.8 0.7 126.15 0.4 125.25 0.25 124.45 0.25 123.1 3.3 123.1 3.3 123.9 Q3.4 124.35 3.85 124.65 L5.0 124.9 6.1 124.7 6.7 124.25 6.9 123.2 Q6.9 122.45 6.7 122.2 L6.35 121.65 5.7 121.55 4.35 121.55 3.85 121.65 3.3 122.3 0.4 122.3 0.4 113.4 9.85 113.4 8.8 116.25" fill="url(#gradient2)" fill-rule="evenodd" stroke="none"/>
    <path d="M8.8 116.25 L3.45 116.25 3.45 118.4 3.45 118.6 3.55 118.7 3.75 118.7 4.1 118.6 4.75 118.5 7.05 118.5 8.15 118.7 9.3 119.4 9.95 120.75 10.05 122.4 10.05 123.9 9.95 124.9 9.75 125.9 9.3 126.7 8.85 127.25 8.25 127.6 7.6 127.8 6.7 127.85 4.45 127.85 3.1 127.85 2.3 127.7 1.6 127.35 1.05 126.8 0.7 126.15 0.4 125.25 0.25 124.45 0.25 123.1 3.3 123.1 3.3 123.9 Q3.4 124.35 3.85 124.65 L5.0 124.9 6.1 124.7 6.7 124.25 6.9 123.2 Q6.9 122.45 6.7 122.2 L6.35 121.65 5.7 121.55 4.35 121.55 3.85 121.65 3.3 122.3 0.4 122.3 0.4 113.4 9.85 113.4 8.8 116.25 Z" fill="none" stroke="#2a5c99" stroke-linecap="square" stroke-linejoin="miter-clip" stroke-miterlimit="3.0" stroke-width="3.0"/>
    <path d="M8.8 116.25 L3.45 116.25 3.45 118.4 3.45 118.6 3.55 118.7 3.75 118.7 4.1 118.6 4.75 118.5 7.05 118.5 8.15 118.7 9.3 119.4 9.95 120.75 10.05 122.4 10.05 123.9 9.95 124.9 9.75 125.9 9.3 126.7 8.85 127.25 8.25 127.6 7.6 127.8 6.7 127.85 4.45 127.85 3.1 127.85 2.3 127.7 1.6 127.35 1.05 126.8 0.7 126.15 0.4 125.25 0.25 124.45 0.25 123.1 3.3 123.1 3.3 123.9 Q3.4 124.35 3.85 124.65 L5.0 124.9 6.1 124.7 6.7 124.25 6.9 123.2 Q6.9 122.45 6.7 122.2 L6.35 121.65 5.7 121.55 4.35 121.55 3.85 121.65 3.3 122.3 0.4 122.3 0.4 113.4 9.85 113.4 8.8 116.25" fill="url(#gradient3)" fill-rule="evenodd" stroke="none"/>
  </g>
  <defs>
    <linearGradient gradientTransform="matrix(0.0, -0.0095, 0.0089, 0.0, 5.15, 120.65)" gradientUnits="userSpaceOnUse" id="gradient0" spreadMethod="pad" x1="-819.2" x2="819.2">
      <stop offset="0.0" stop-color="#96e3f7"/>
      <stop offset="1.0" stop-color="#fdfdff"/>
    </linearGradient>
    <linearGradient gradientTransform="matrix(0.0, -0.0095, 0.0089, 0.0, 5.15, 120.65)" gradientUnits="userSpaceOnUse" id="gradient1" spreadMethod="pad" x1="-819.2" x2="819.2">
      <stop offset="0.0" stop-color="#96e3f7"/>
      <stop offset="1.0" stop-color="#fdfdff"/>
    </linearGradient>
    <linearGradient gradientTransform="matrix(0.0, -0.0095, 0.0089, 0.0, 5.15, 120.65)" gradientUnits="userSpaceOnUse" id="gradient2" spreadMethod="pad" x1="-819.2" x2="819.2">
      <stop offset="0.0" stop-color="#96e3f7"/>
      <stop offset="1.0" stop-color="#fdfdff"/>
    </linearGradient>
    <linearGradient gradientTransform="matrix(0.0, -0.0095, 0.0089, 0.0, 5.15, 120.65)" gradientUnits="userSpaceOnUse" id="gradient3" spreadMethod="pad" x1="-819.2" x2="819.2">
      <stop offset="0.0" stop-color="#96e3f7"/>
      <stop offset="1.0" stop-color="#fdfdff"/>
    </linearGradient>
  </defs>
</svg>
