<?xml version="1.0" encoding="UTF-8" standalone="no"?>
<svg xmlns:xlink="http://www.w3.org/1999/xlink" height="26.5px" width="21.8px" xmlns="http://www.w3.org/2000/svg">
  <g transform="matrix(1.0, 0.0, 0.0, 1.0, 5.75, -107.4)">
    <path d="M9.3 114.4 L9.7 115.3 9.95 116.55 9.95 117.85 9.85 118.8 9.5 119.7 9.25 120.15 9.25 120.35 9.4 120.7 9.75 121.35 9.95 121.9 10.05 123.25 10.05 124.65 9.85 125.65 9.7 126.45 9.15 127.2 8.4 127.75 7.6 127.9 3.4 127.9 2.3 127.8 1.65 127.55 0.95 127.0 0.6 126.2 0.3 125.05 0.3 122.8 0.5 121.5 0.85 120.8 1.15 120.45 1.05 120.1 0.75 119.55 0.5 118.9 0.4 117.9 0.4 116.75 0.5 116.1 0.6 115.4 0.95 114.6 1.5 113.85 2.05 113.6 2.5 113.4 3.0 113.4 7.0 113.4 7.95 113.4 8.4 113.6 8.95 113.85 9.3 114.4 M6.6 116.5 Q6.35 116.2 5.9 116.2 L4.45 116.2 Q3.85 116.2 3.65 116.55 3.4 116.95 3.4 117.65 L3.45 118.3 3.65 118.75 4.2 118.9 6.0 118.9 6.35 118.8 6.6 118.55 Q6.8 118.35 6.8 117.55 6.9 116.75 6.6 116.5 M4.0 121.95 Q3.75 121.95 3.65 122.25 L3.45 122.7 3.4 123.75 Q3.4 124.6 3.65 124.85 L4.55 125.1 5.65 125.1 6.35 125.05 6.7 124.85 6.9 124.5 7.0 123.95 7.0 123.6 Q7.0 122.4 6.7 122.15 6.45 121.9 5.9 121.9 L4.75 121.9 4.0 121.95" fill="url(#gradient0)" fill-rule="evenodd" stroke="none"/>
    <path d="M9.3 114.4 L9.7 115.3 9.95 116.55 9.95 117.85 9.85 118.8 9.5 119.7 9.25 120.15 9.25 120.35 9.4 120.7 9.75 121.35 9.95 121.9 10.05 123.25 10.05 124.65 9.85 125.65 9.7 126.45 9.15 127.2 8.4 127.75 7.6 127.9 3.4 127.9 2.3 127.8 1.65 127.55 0.95 127.0 0.6 126.2 0.3 125.05 0.3 122.8 0.5 121.5 0.85 120.8 1.15 120.45 1.05 120.1 0.75 119.55 0.5 118.9 0.4 117.9 0.4 116.75 0.5 116.1 0.6 115.4 0.95 114.6 1.5 113.85 2.05 113.6 2.5 113.4 3.0 113.4 7.0 113.4 7.95 113.4 8.4 113.6 8.95 113.85 9.3 114.4 M6.6 116.5 Q6.35 116.2 5.9 116.2 L4.45 116.2 Q3.85 116.2 3.65 116.55 3.4 116.95 3.4 117.65 L3.45 118.3 3.65 118.75 4.2 118.9 6.0 118.9 6.35 118.8 6.6 118.55 Q6.8 118.35 6.8 117.55 6.9 116.75 6.6 116.5 M4.0 121.95 Q3.75 121.95 3.65 122.25 L3.45 122.7 3.4 123.75 Q3.4 124.6 3.65 124.85 L4.55 125.1 5.65 125.1 6.35 125.05 6.7 124.85 6.9 124.5 7.0 123.95 7.0 123.6 Q7.0 122.4 6.7 122.15 6.45 121.9 5.9 121.9 L4.75 121.9 4.0 121.95 Z" fill="none" stroke="#ffffff" stroke-linecap="square" stroke-linejoin="miter-clip" stroke-miterlimit="3.0" stroke-width="9.0"/>
    <path d="M6.6 116.5 Q6.35 116.2 5.9 116.2 L4.45 116.2 Q3.85 116.2 3.65 116.55 3.4 116.95 3.4 117.65 L3.45 118.3 3.65 118.75 4.2 118.9 6.0 118.9 6.35 118.8 6.6 118.55 Q6.8 118.35 6.8 117.55 6.9 116.75 6.6 116.5 M9.3 114.4 L9.7 115.3 9.95 116.55 9.95 117.85 9.85 118.8 9.5 119.7 9.25 120.15 9.25 120.35 9.4 120.7 9.75 121.35 9.95 121.9 10.05 123.25 10.05 124.65 9.85 125.65 9.7 126.45 9.15 127.2 8.4 127.75 7.6 127.9 3.4 127.9 2.3 127.8 1.65 127.55 0.95 127.0 0.6 126.2 0.3 125.05 0.3 122.8 0.5 121.5 0.85 120.8 1.15 120.45 1.05 120.1 0.75 119.55 0.5 118.9 0.4 117.9 0.4 116.75 0.5 116.1 0.6 115.4 0.95 114.6 1.5 113.85 2.05 113.6 2.5 113.4 3.0 113.4 7.0 113.4 7.95 113.4 8.4 113.6 8.95 113.85 9.3 114.4 M3.45 122.7 L3.4 123.75 Q3.4 124.6 3.65 124.85 L4.55 125.1 5.65 125.1 6.35 125.05 6.7 124.85 6.9 124.5 7.0 123.95 7.0 123.6 Q7.0 122.4 6.7 122.15 6.45 121.9 5.9 121.9 L4.75 121.9 4.0 121.95 Q3.75 121.95 3.65 122.25 L3.45 122.7" fill="url(#gradient1)" fill-rule="evenodd" stroke="none"/>
    <path d="M6.6 116.5 Q6.35 116.2 5.9 116.2 L4.45 116.2 Q3.85 116.2 3.65 116.55 3.4 116.95 3.4 117.65 L3.45 118.3 3.65 118.75 4.2 118.9 6.0 118.9 6.35 118.8 6.6 118.55 Q6.8 118.35 6.8 117.55 6.9 116.75 6.6 116.5 M9.3 114.4 L9.7 115.3 9.95 116.55 9.95 117.85 9.85 118.8 9.5 119.7 9.25 120.15 9.25 120.35 9.4 120.7 9.75 121.35 9.95 121.9 10.05 123.25 10.05 124.65 9.85 125.65 9.7 126.45 9.15 127.2 8.4 127.75 7.6 127.9 3.4 127.9 2.3 127.8 1.65 127.55 0.95 127.0 0.6 126.2 0.3 125.05 0.3 122.8 0.5 121.5 0.85 120.8 1.15 120.45 1.05 120.1 0.75 119.55 0.5 118.9 0.4 117.9 0.4 116.75 0.5 116.1 0.6 115.4 0.95 114.6 1.5 113.85 2.05 113.6 2.5 113.4 3.0 113.4 7.0 113.4 7.95 113.4 8.4 113.6 8.95 113.85 9.3 114.4 M3.45 122.7 L3.4 123.75 Q3.4 124.6 3.65 124.85 L4.55 125.1 5.65 125.1 6.35 125.05 6.7 124.85 6.9 124.5 7.0 123.95 7.0 123.6 Q7.0 122.4 6.7 122.15 6.45 121.9 5.9 121.9 L4.75 121.9 4.0 121.95 Q3.75 121.95 3.65 122.25 L3.45 122.7 Z" fill="none" stroke="#2d0000" stroke-linecap="round" stroke-linejoin="round" stroke-width="6.0"/>
    <path d="M6.6 116.5 Q6.35 116.2 5.9 116.2 L4.45 116.2 Q3.85 116.2 3.65 116.55 3.4 116.95 3.4 117.65 L3.45 118.3 3.65 118.75 4.2 118.9 6.0 118.9 6.35 118.8 6.6 118.55 Q6.8 118.35 6.8 117.55 6.9 116.75 6.6 116.5 M9.3 114.4 L9.7 115.3 9.95 116.55 9.95 117.85 9.85 118.8 9.5 119.7 9.25 120.15 9.25 120.35 9.4 120.7 9.75 121.35 9.95 121.9 10.05 123.25 10.05 124.65 9.85 125.65 9.7 126.45 9.15 127.2 8.4 127.75 7.6 127.9 3.4 127.9 2.3 127.8 1.65 127.55 0.95 127.0 0.6 126.2 0.3 125.05 0.3 122.8 0.5 121.5 0.85 120.8 1.15 120.45 1.05 120.1 0.75 119.55 0.5 118.9 0.4 117.9 0.4 116.75 0.5 116.1 0.6 115.4 0.95 114.6 1.5 113.85 2.05 113.6 2.5 113.4 3.0 113.4 7.0 113.4 7.95 113.4 8.4 113.6 8.95 113.85 9.3 114.4 M3.65 122.25 L3.45 122.7 3.4 123.75 Q3.4 124.6 3.65 124.85 L4.55 125.1 5.65 125.1 6.35 125.05 6.7 124.85 6.9 124.5 7.0 123.95 7.0 123.6 Q7.0 122.4 6.7 122.15 6.45 121.9 5.9 121.9 L4.75 121.9 4.0 121.95 Q3.75 121.95 3.65 122.25" fill="url(#gradient2)" fill-rule="evenodd" stroke="none"/>
    <path d="M6.6 116.5 Q6.35 116.2 5.9 116.2 L4.45 116.2 Q3.85 116.2 3.65 116.55 3.4 116.95 3.4 117.65 L3.45 118.3 3.65 118.75 4.2 118.9 6.0 118.9 6.35 118.8 6.6 118.55 Q6.8 118.35 6.8 117.55 6.9 116.75 6.6 116.5 M9.3 114.4 L9.7 115.3 9.95 116.55 9.95 117.85 9.85 118.8 9.5 119.7 9.25 120.15 9.25 120.35 9.4 120.7 9.75 121.35 9.95 121.9 10.05 123.25 10.05 124.65 9.85 125.65 9.7 126.45 9.15 127.2 8.4 127.75 7.6 127.9 3.4 127.9 2.3 127.8 1.65 127.55 0.95 127.0 0.6 126.2 0.3 125.05 0.3 122.8 0.5 121.5 0.85 120.8 1.15 120.45 1.05 120.1 0.75 119.55 0.5 118.9 0.4 117.9 0.4 116.75 0.5 116.1 0.6 115.4 0.95 114.6 1.5 113.85 2.05 113.6 2.5 113.4 3.0 113.4 7.0 113.4 7.95 113.4 8.4 113.6 8.95 113.85 9.3 114.4 M3.65 122.25 L3.45 122.7 3.4 123.75 Q3.4 124.6 3.65 124.85 L4.55 125.1 5.65 125.1 6.35 125.05 6.7 124.85 6.9 124.5 7.0 123.95 7.0 123.6 Q7.0 122.4 6.7 122.15 6.45 121.9 5.9 121.9 L4.75 121.9 4.0 121.95 Q3.75 121.95 3.65 122.25 Z" fill="none" stroke="#2a5c99" stroke-linecap="square" stroke-linejoin="miter-clip" stroke-miterlimit="3.0" stroke-width="3.0"/>
    <path d="M6.6 116.5 Q6.35 116.2 5.9 116.2 L4.45 116.2 Q3.85 116.2 3.65 116.55 3.4 116.95 3.4 117.65 L3.45 118.3 3.65 118.75 4.2 118.9 6.0 118.9 6.35 118.8 6.6 118.55 Q6.8 118.35 6.8 117.55 6.9 116.75 6.6 116.5 M8.4 113.6 L8.95 113.85 9.3 114.4 9.7 115.3 9.95 116.55 9.95 117.85 9.85 118.8 9.5 119.7 9.25 120.15 9.25 120.35 9.4 120.7 9.75 121.35 9.95 121.9 10.05 123.25 10.05 124.65 9.85 125.65 9.7 126.45 9.15 127.2 8.4 127.75 7.6 127.9 3.4 127.9 2.3 127.8 1.65 127.55 0.95 127.0 0.6 126.2 0.3 125.05 0.3 122.8 0.5 121.5 0.85 120.8 1.15 120.45 1.05 120.1 0.75 119.55 0.5 118.9 0.4 117.9 0.4 116.75 0.5 116.1 0.6 115.4 0.95 114.6 1.5 113.85 2.05 113.6 2.5 113.4 3.0 113.4 7.0 113.4 7.95 113.4 8.4 113.6 M3.65 122.25 L3.45 122.7 3.4 123.75 Q3.4 124.6 3.65 124.85 L4.55 125.1 5.65 125.1 6.35 125.05 6.7 124.85 6.9 124.5 7.0 123.95 7.0 123.6 Q7.0 122.4 6.7 122.15 6.45 121.9 5.9 121.9 L4.75 121.9 4.0 121.95 Q3.75 121.95 3.65 122.25" fill="url(#gradient3)" fill-rule="evenodd" stroke="none"/>
  </g>
  <defs>
    <linearGradient gradientTransform="matrix(0.0, -0.0098, 0.0089, 0.0, 5.15, 120.65)" gradientUnits="userSpaceOnUse" id="gradient0" spreadMethod="pad" x1="-819.2" x2="819.2">
      <stop offset="0.0" stop-color="#96e3f7"/>
      <stop offset="1.0" stop-color="#fdfdff"/>
    </linearGradient>
    <linearGradient gradientTransform="matrix(0.0, -0.0098, 0.0089, 0.0, 5.15, 120.65)" gradientUnits="userSpaceOnUse" id="gradient1" spreadMethod="pad" x1="-819.2" x2="819.2">
      <stop offset="0.0" stop-color="#96e3f7"/>
      <stop offset="1.0" stop-color="#fdfdff"/>
    </linearGradient>
    <linearGradient gradientTransform="matrix(0.0, -0.0098, 0.0089, 0.0, 5.15, 120.65)" gradientUnits="userSpaceOnUse" id="gradient2" spreadMethod="pad" x1="-819.2" x2="819.2">
      <stop offset="0.0" stop-color="#96e3f7"/>
      <stop offset="1.0" stop-color="#fdfdff"/>
    </linearGradient>
    <linearGradient gradientTransform="matrix(0.0, -0.0098, 0.0089, 0.0, 5.15, 120.65)" gradientUnits="userSpaceOnUse" id="gradient3" spreadMethod="pad" x1="-819.2" x2="819.2">
      <stop offset="0.0" stop-color="#96e3f7"/>
      <stop offset="1.0" stop-color="#fdfdff"/>
    </linearGradient>
  </defs>
</svg>
