<?xml version="1.0" encoding="UTF-8" standalone="no"?>
<svg xmlns:xlink="http://www.w3.org/1999/xlink" height="26.55px" width="22.05px" xmlns="http://www.w3.org/2000/svg">
  <g transform="matrix(1.0, 0.0, 0.0, 1.0, 5.85, -107.4)">
    <path d="M6.9 116.6 Q6.7 116.35 6.15 116.35 L4.55 116.35 3.65 116.45 3.4 116.6 3.3 117.05 3.2 117.7 3.2 118.4 3.45 119.05 4.35 119.3 6.15 119.3 6.9 119.05 7.05 118.15 7.05 117.25 6.9 116.6 M9.15 114.3 L9.6 114.9 9.95 115.65 10.15 117.0 10.2 118.7 10.2 123.3 10.05 124.8 9.7 126.15 9.05 127.15 8.05 127.8 7.15 127.95 6.45 127.95 3.3 127.95 2.55 127.85 1.95 127.6 1.6 127.5 1.3 127.15 0.95 126.8 0.7 126.45 0.3 125.6 Q0.15 125.1 0.15 123.75 L0.25 123.0 3.1 123.0 3.1 123.8 3.3 124.45 3.75 124.8 4.55 124.9 5.65 124.9 6.45 124.7 6.9 124.35 7.05 123.8 7.15 123.1 7.15 121.65 6.55 122.1 5.65 122.2 3.75 122.2 2.2 122.2 1.6 121.95 0.85 121.4 0.4 120.4 0.25 119.4 0.15 118.15 0.25 116.6 Q0.3 115.8 0.5 115.25 L0.95 114.35 Q1.2 114.0 1.6 113.85 L2.3 113.45 3.1 113.4 6.45 113.4 7.7 113.45 Q7.95 113.45 8.4 113.75 L9.15 114.3" fill="url(#gradient0)" fill-rule="evenodd" stroke="none"/>
    <path d="M6.9 116.6 Q6.7 116.35 6.15 116.35 L4.55 116.35 3.65 116.45 3.4 116.6 3.3 117.05 3.2 117.7 3.2 118.4 3.45 119.05 4.35 119.3 6.15 119.3 6.9 119.05 7.05 118.15 7.05 117.25 6.9 116.6 M9.15 114.3 L9.6 114.9 9.95 115.65 10.15 117.0 10.2 118.7 10.2 123.3 10.05 124.8 9.7 126.15 9.05 127.15 8.05 127.8 7.15 127.95 6.45 127.95 3.3 127.95 2.55 127.85 1.95 127.6 1.6 127.5 1.3 127.15 0.95 126.8 0.7 126.45 0.3 125.6 Q0.15 125.1 0.15 123.75 L0.25 123.0 3.1 123.0 3.1 123.8 3.3 124.45 3.75 124.8 4.55 124.9 5.65 124.9 6.45 124.7 6.9 124.35 7.05 123.8 7.15 123.1 7.15 121.65 6.55 122.1 5.65 122.2 3.75 122.2 2.2 122.2 1.6 121.95 0.85 121.4 0.4 120.4 0.25 119.4 0.15 118.15 0.25 116.6 Q0.3 115.8 0.5 115.25 L0.95 114.35 Q1.2 114.0 1.6 113.85 L2.3 113.45 3.1 113.4 6.45 113.4 7.7 113.45 Q7.95 113.45 8.4 113.75 L9.15 114.3 Z" fill="none" stroke="#ffffff" stroke-linecap="square" stroke-linejoin="miter-clip" stroke-miterlimit="3.0" stroke-width="9.0"/>
    <path d="M9.15 114.3 L9.6 114.9 9.95 115.65 10.15 117.0 10.2 118.7 10.2 123.3 10.05 124.8 9.7 126.15 9.05 127.15 8.05 127.8 7.15 127.95 6.45 127.95 3.3 127.95 2.55 127.85 1.95 127.6 1.6 127.5 1.3 127.15 0.95 126.8 0.7 126.45 0.3 125.6 Q0.15 125.1 0.15 123.75 L0.25 123.0 3.1 123.0 3.1 123.8 3.3 124.45 3.75 124.8 4.55 124.9 5.65 124.9 6.45 124.7 6.9 124.35 7.05 123.8 7.15 123.1 7.15 121.65 6.55 122.1 5.65 122.2 3.75 122.2 2.2 122.2 1.6 121.95 0.85 121.4 0.4 120.4 0.25 119.4 0.15 118.15 0.25 116.6 Q0.3 115.8 0.5 115.25 L0.95 114.35 Q1.2 114.0 1.6 113.85 L2.3 113.45 3.1 113.4 6.45 113.4 7.7 113.45 Q7.95 113.45 8.4 113.75 L9.15 114.3 M6.9 116.6 Q6.7 116.35 6.15 116.35 L4.55 116.35 3.65 116.45 3.4 116.6 3.3 117.05 3.2 117.7 3.2 118.4 3.45 119.05 4.35 119.3 6.15 119.3 6.9 119.05 7.05 118.15 7.05 117.25 6.9 116.6" fill="url(#gradient1)" fill-rule="evenodd" stroke="none"/>
    <path d="M9.15 114.3 L9.6 114.9 9.95 115.65 10.15 117.0 10.2 118.7 10.2 123.3 10.05 124.8 9.7 126.15 9.05 127.15 8.05 127.8 7.15 127.95 6.45 127.95 3.3 127.95 2.55 127.85 1.95 127.6 1.6 127.5 1.3 127.15 0.95 126.8 0.7 126.45 0.3 125.6 Q0.15 125.1 0.15 123.75 L0.25 123.0 3.1 123.0 3.1 123.8 3.3 124.45 3.75 124.8 4.55 124.9 5.65 124.9 6.45 124.7 6.9 124.35 7.05 123.8 7.15 123.1 7.15 121.65 6.55 122.1 5.65 122.2 3.75 122.2 2.2 122.2 1.6 121.95 0.85 121.4 0.4 120.4 0.25 119.4 0.15 118.15 0.25 116.6 Q0.3 115.8 0.5 115.25 L0.95 114.35 Q1.2 114.0 1.6 113.85 L2.3 113.45 3.1 113.4 6.45 113.4 7.7 113.45 Q7.95 113.45 8.4 113.75 L9.15 114.3 M6.9 116.6 Q6.7 116.35 6.15 116.35 L4.55 116.35 3.65 116.45 3.4 116.6 3.3 117.05 3.2 117.7 3.2 118.4 3.45 119.05 4.35 119.3 6.15 119.3 6.9 119.05 7.05 118.15 7.05 117.25 6.9 116.6 Z" fill="none" stroke="#2d0000" stroke-linecap="square" stroke-linejoin="miter-clip" stroke-miterlimit="3.0" stroke-width="6.0"/>
    <path d="M9.15 114.3 L9.6 114.9 9.95 115.65 10.15 117.0 10.2 118.7 10.2 123.3 10.05 124.8 9.7 126.15 9.05 127.15 8.05 127.8 7.15 127.95 6.45 127.95 3.3 127.95 2.55 127.85 1.95 127.6 1.6 127.5 1.3 127.15 0.95 126.8 0.7 126.45 0.3 125.6 Q0.15 125.1 0.15 123.75 L0.25 123.0 3.1 123.0 3.1 123.8 3.3 124.45 3.75 124.8 4.55 124.9 5.65 124.9 6.45 124.7 6.9 124.35 7.05 123.8 7.15 123.1 7.15 121.65 6.55 122.1 5.65 122.2 3.75 122.2 2.2 122.2 1.6 121.95 0.85 121.4 0.4 120.4 0.25 119.4 0.15 118.15 0.25 116.6 Q0.3 115.8 0.5 115.25 L0.95 114.35 Q1.2 114.0 1.6 113.85 L2.3 113.45 3.1 113.4 6.45 113.4 7.7 113.45 Q7.95 113.45 8.4 113.75 L9.15 114.3 M6.9 116.6 Q6.7 116.35 6.15 116.35 L4.55 116.35 3.65 116.45 3.4 116.6 3.3 117.05 3.2 117.7 3.2 118.4 3.45 119.05 4.35 119.3 6.15 119.3 6.9 119.05 7.05 118.15 7.05 117.25 6.9 116.6" fill="url(#gradient2)" fill-rule="evenodd" stroke="none"/>
    <path d="M9.15 114.3 L9.6 114.9 9.95 115.65 10.15 117.0 10.2 118.7 10.2 123.3 10.05 124.8 9.7 126.15 9.05 127.15 8.05 127.8 7.15 127.95 6.45 127.95 3.3 127.95 2.55 127.85 1.95 127.6 1.6 127.5 1.3 127.15 0.95 126.8 0.7 126.45 0.3 125.6 Q0.15 125.1 0.15 123.75 L0.25 123.0 3.1 123.0 3.1 123.8 3.3 124.45 3.75 124.8 4.55 124.9 5.65 124.9 6.45 124.7 6.9 124.35 7.05 123.8 7.15 123.1 7.15 121.65 6.55 122.1 5.65 122.2 3.75 122.2 2.2 122.2 1.6 121.95 0.85 121.4 0.4 120.4 0.25 119.4 0.15 118.15 0.25 116.6 Q0.3 115.8 0.5 115.25 L0.95 114.35 Q1.2 114.0 1.6 113.85 L2.3 113.45 3.1 113.4 6.45 113.4 7.7 113.45 Q7.95 113.45 8.4 113.75 L9.15 114.3 M6.9 116.6 Q6.7 116.35 6.15 116.35 L4.55 116.35 3.65 116.45 3.4 116.6 3.3 117.05 3.2 117.7 3.2 118.4 3.45 119.05 4.35 119.3 6.15 119.3 6.9 119.05 7.05 118.15 7.05 117.25 6.9 116.6 Z" fill="none" stroke="#2a5c99" stroke-linecap="square" stroke-linejoin="miter-clip" stroke-miterlimit="3.0" stroke-width="3.0"/>
    <path d="M9.15 114.3 L9.6 114.9 9.95 115.65 10.15 117.0 10.2 118.7 10.2 123.3 10.05 124.8 9.7 126.15 9.05 127.15 8.05 127.8 7.15 127.95 6.45 127.95 3.3 127.95 2.55 127.85 1.95 127.6 1.6 127.5 1.3 127.15 0.95 126.8 0.7 126.45 0.3 125.6 Q0.15 125.1 0.15 123.75 L0.25 123.0 3.1 123.0 3.1 123.8 3.3 124.45 3.75 124.8 4.55 124.9 5.65 124.9 6.45 124.7 6.9 124.35 7.05 123.8 7.15 123.1 7.15 121.65 6.55 122.1 5.65 122.2 3.75 122.2 2.2 122.2 1.6 121.95 0.85 121.4 0.4 120.4 0.25 119.4 0.15 118.15 0.25 116.6 Q0.3 115.8 0.5 115.25 L0.95 114.35 Q1.2 114.0 1.6 113.85 L2.3 113.45 3.1 113.4 6.45 113.4 7.7 113.45 Q7.95 113.45 8.4 113.75 L9.15 114.3 M6.9 116.6 Q6.7 116.35 6.15 116.35 L4.55 116.35 3.65 116.45 3.4 116.6 3.3 117.05 3.2 117.7 3.2 118.4 3.45 119.05 4.35 119.3 6.15 119.3 6.9 119.05 7.05 118.15 7.05 117.25 6.9 116.6" fill="url(#gradient3)" fill-rule="evenodd" stroke="none"/>
  </g>
  <defs>
    <linearGradient gradientTransform="matrix(0.0, -0.0087, 0.0089, 0.0, 5.15, 120.65)" gradientUnits="userSpaceOnUse" id="gradient0" spreadMethod="pad" x1="-819.2" x2="819.2">
      <stop offset="0.0" stop-color="#96e3f7"/>
      <stop offset="1.0" stop-color="#fdfdff"/>
    </linearGradient>
    <linearGradient gradientTransform="matrix(0.0, -0.0087, 0.0089, 0.0, 5.15, 120.65)" gradientUnits="userSpaceOnUse" id="gradient1" spreadMethod="pad" x1="-819.2" x2="819.2">
      <stop offset="0.0" stop-color="#96e3f7"/>
      <stop offset="1.0" stop-color="#fdfdff"/>
    </linearGradient>
    <linearGradient gradientTransform="matrix(0.0, -0.0087, 0.0089, 0.0, 5.15, 120.65)" gradientUnits="userSpaceOnUse" id="gradient2" spreadMethod="pad" x1="-819.2" x2="819.2">
      <stop offset="0.0" stop-color="#96e3f7"/>
      <stop offset="1.0" stop-color="#fdfdff"/>
    </linearGradient>
    <linearGradient gradientTransform="matrix(0.0, -0.0087, 0.0089, 0.0, 5.15, 120.65)" gradientUnits="userSpaceOnUse" id="gradient3" spreadMethod="pad" x1="-819.2" x2="819.2">
      <stop offset="0.0" stop-color="#96e3f7"/>
      <stop offset="1.0" stop-color="#fdfdff"/>
    </linearGradient>
  </defs>
</svg>
