<?xml version="1.0" encoding="UTF-8" standalone="no"?>
<svg xmlns:xlink="http://www.w3.org/1999/xlink" height="49.05px" width="1.9px" xmlns="http://www.w3.org/2000/svg">
  <g transform="matrix(1.0, 0.0, 0.0, 1.0, 0.25, 0.25)">
    <path d="M0.0 1.7 L0.0 2.35 M0.0 0.0 L0.0 0.65 M1.4 1.7 L1.4 2.35 M1.4 0.0 L1.4 0.65 M0.0 3.3 L0.0 3.95 M0.0 4.95 L0.0 5.6 M1.4 4.95 L1.4 5.6 M1.4 3.3 L1.4 3.95 M0.0 8.4 L0.0 9.25 M1.4 8.4 L1.4 9.25 M0.0 10.2 L0.0 10.9 M1.4 10.2 L1.4 10.9 M1.4 6.55 L1.4 7.4 M0.0 6.6 L0.0 7.4 M0.0 13.7 L0.0 14.4 M1.4 13.7 L1.4 14.35 M0.0 15.35 L0.0 16.0 M1.4 15.35 L1.4 16.0 M1.4 16.95 L1.4 17.65 M0.0 16.95 L0.0 17.7 M0.0 20.4 L0.0 21.3 M1.4 20.4 L1.4 21.3 M1.4 18.65 L1.4 19.45 M0.0 18.65 L0.0 19.45 M1.4 22.25 L1.4 23.05 M0.0 22.25 L0.0 23.1 M1.4 11.95 L1.4 12.65 M0.0 11.95 L0.0 12.7 M0.0 25.8 L0.0 26.55 M1.4 29.3 L1.4 30.05 M0.0 29.3 L0.0 30.05 M1.4 27.5 L1.4 28.15 M0.0 27.5 L0.0 28.15 M1.4 25.8 L1.4 26.55 M1.4 35.0 L1.4 35.9 M0.0 35.0 L0.0 35.9 M1.4 31.15 L1.4 31.85 M0.0 31.15 L0.0 31.9 M0.0 32.85 L0.0 33.95 M1.4 32.85 L1.4 33.95 M0.0 38.65 L0.0 39.4 M1.4 38.65 L1.4 39.4 M1.4 40.4 L1.4 41.15 M1.4 42.1 L1.4 42.75 M0.0 40.4 L0.0 41.15 M0.0 42.1 L0.0 42.75 M1.4 47.45 L1.4 48.55 M0.0 47.45 L0.0 48.55 M0.0 45.75 L0.0 46.5 M1.4 43.9 L1.4 44.65 M1.4 45.75 L1.4 46.45 M0.0 43.9 L0.0 44.65 M0.0 36.85 L0.0 37.7 M1.4 36.85 L1.4 37.65 M1.4 24.05 L1.4 24.8 M0.0 24.05 L0.0 24.8" fill="none" stroke="#11abbb" stroke-linecap="butt" stroke-linejoin="miter-clip" stroke-miterlimit="3.0" stroke-width="0.5"/>
  </g>
</svg>
