<?xml version="1.0" encoding="UTF-8" standalone="no"?>
<svg xmlns:xlink="http://www.w3.org/1999/xlink" height="24.25px" width="23.6px" xmlns="http://www.w3.org/2000/svg">
  <g transform="matrix(1.0, 0.0, 0.0, 1.0, 22.85, 23.5)">
    <path d="M-22.1 -11.2 L-22.1 -19.75 Q-22.1 -20.7 -21.7 -21.25 -21.1 -22.05 -19.8 -22.05 L-2.35 -22.05 Q0.0 -22.05 0.0 -19.75 L0.0 -11.2 -7.25 -11.2 -10.9 -17.2 -14.65 -11.2 -22.1 -11.2" fill="url(#gradient0)" fill-rule="evenodd" stroke="none"/>
    <path d="M0.0 -11.2 L0.0 -2.35 Q0.0 0.0 -2.35 0.0 L-19.8 0.0 Q-21.1 0.0 -21.7 -0.8 -22.1 -1.35 -22.1 -2.35 L-22.1 -11.2 -14.65 -11.2 -18.45 -5.2 -3.65 -5.2 -7.25 -11.2 0.0 -11.2" fill="url(#gradient1)" fill-rule="evenodd" stroke="none"/>
    <path d="M-14.65 -11.2 L-10.9 -17.2 -7.25 -11.2 -3.65 -5.2 -18.45 -5.2 -14.65 -11.2" fill="#98ffba" fill-rule="evenodd" stroke="none"/>
    <path d="M-22.1 -11.2 L-22.1 -19.75 Q-22.1 -20.7 -21.7 -21.25 -21.1 -22.05 -19.8 -22.05 L-2.35 -22.05 Q0.0 -22.05 0.0 -19.75 L0.0 -11.2 0.0 -2.35 Q0.0 0.0 -2.35 0.0 L-19.8 0.0 Q-21.1 0.0 -21.7 -0.8 -22.1 -1.35 -22.1 -2.35 L-22.1 -11.2 Z" fill="none" stroke="#98ffba" stroke-linecap="butt" stroke-linejoin="miter-clip" stroke-miterlimit="3.0" stroke-width="1.5"/>
  </g>
  <defs>
    <linearGradient gradientTransform="matrix(0.0, 0.0032, -0.0135, 0.0, -11.05, -18.15)" gradientUnits="userSpaceOnUse" id="gradient0" spreadMethod="pad" x1="-819.2" x2="819.2">
      <stop offset="0.0" stop-color="#335d73"/>
      <stop offset="1.0" stop-color="#070a1b"/>
    </linearGradient>
    <linearGradient gradientTransform="matrix(0.0, -0.0034, 0.0135, 0.0, -11.05, -3.55)" gradientUnits="userSpaceOnUse" id="gradient1" spreadMethod="pad" x1="-819.2" x2="819.2">
      <stop offset="0.0" stop-color="#335d73"/>
      <stop offset="1.0" stop-color="#070a1b"/>
    </linearGradient>
  </defs>
</svg>
