<?xml version="1.0" encoding="UTF-8" standalone="no"?>
<svg xmlns:xlink="http://www.w3.org/1999/xlink" height="156.4px" width="173.65px" xmlns="http://www.w3.org/2000/svg">
  <g transform="matrix(1.0, 0.0, 0.0, 1.0, 94.35, 134.0)">
    <path d="M75.75 -116.75 L75.0 -117.5 74.9 -117.3 74.75 -117.25 74.4 -113.65 74.05 -110.8 74.05 -111.05 73.5 -119.8 Q73.05 -127.35 73.55 -132.5 73.4 -128.6 74.4 -123.7 L75.75 -116.75 M-76.5 -124.85 L-76.15 -124.0 Q-75.25 -122.45 -75.25 -121.6 L-75.6 -117.8 -76.0 -113.0 -76.7 -115.15 Q-77.4 -117.1 -77.4 -118.15 L-76.95 -121.3 -76.5 -124.15 -76.5 -124.85" fill="#ffcc00" fill-rule="evenodd" stroke="none"/>
    <path d="M73.3 -94.1 L73.3 -87.65 M78.8 -74.0 L78.8 -70.0 M77.15 -42.75 L77.4 -42.75 77.15 -39.15 M43.5 -21.25 L43.75 -18.85 Q43.75 -17.5 43.25 -15.5 M54.5 19.5 L54.25 21.9 M-58.3 -81.25 L-58.5 -81.0 -58.5 -78.8 -58.25 -78.8 M-81.9 -100.75 Q-81.9 -98.25 -81.4 -95.25 M-93.6 3.3 L-93.85 3.3 -93.85 5.0 -93.35 6.15" fill="none" stroke="#ff6600" stroke-linecap="butt" stroke-linejoin="miter-clip" stroke-miterlimit="3.0" stroke-width="1.0"/>
    <path d="M75.75 -116.75 L75.0 -117.5 74.9 -117.3 74.75 -117.25 74.4 -113.65 74.05 -110.8 74.05 -111.05 73.5 -119.8 Q73.05 -127.35 73.55 -132.5 73.4 -128.6 74.4 -123.7 L75.75 -116.75 76.1 -115.65 76.25 -113.5 75.75 -116.75 M-76.5 -124.85 L-76.15 -124.0 Q-75.25 -122.45 -75.25 -121.6 L-75.6 -117.8 -76.0 -113.0 -76.7 -115.15 Q-77.4 -117.1 -77.4 -118.15 L-76.95 -121.3 -76.5 -124.15 -76.5 -124.85 -76.7 -125.9 -76.9 -126.35 -76.65 -126.35 -76.7 -125.9" fill="none" stroke="#ff6600" stroke-linecap="round" stroke-linejoin="miter-clip" stroke-miterlimit="3.0" stroke-width="1.0"/>
  </g>
</svg>
