<?xml version="1.0" encoding="UTF-8" standalone="no"?>
<svg xmlns:xlink="http://www.w3.org/1999/xlink" height="11.0px" width="9.0px" xmlns="http://www.w3.org/2000/svg">
  <g transform="matrix(1.0, 0.0, 0.0, 1.0, 0.5, 0.5)">
    <path d="M0.05 1.1 L0.25 0.45 Q0.6 0.0 1.35 0.0 L6.65 0.0 Q7.9 0.0 8.0 1.1 L8.0 1.3 8.0 8.6 Q8.0 10.0 6.65 10.0 L1.35 10.0 Q0.6 10.0 0.25 9.55 L0.0 8.6 0.0 1.3 0.05 1.1" fill="#070a1b" fill-rule="evenodd" stroke="none"/>
    <path d="M0.0 1.3 L0.0 1.1 0.05 1.1 0.0 1.3" fill="#52e5f9" fill-rule="evenodd" stroke="none"/>
    <path d="M0.05 1.1 L0.25 0.45 Q0.6 0.0 1.35 0.0 L6.65 0.0 Q7.9 0.0 8.0 1.1 L8.0 1.3 8.0 8.6 Q8.0 10.0 6.65 10.0 L1.35 10.0 Q0.6 10.0 0.25 9.55 L0.0 8.6 0.0 1.3 0.0 1.1 M0.05 1.1 L0.0 1.3" fill="none" stroke="#98ffba" stroke-linecap="butt" stroke-linejoin="miter-clip" stroke-miterlimit="3.0" stroke-width="1.0"/>
    <path d="M2.8 5.05 L5.15 5.05" fill="none" stroke="#98ffba" stroke-linecap="butt" stroke-linejoin="miter-clip" stroke-miterlimit="3.0" stroke-width="4.0"/>
  </g>
</svg>
