<?xml version="1.0" encoding="UTF-8" standalone="no"?>
<svg xmlns:xlink="http://www.w3.org/1999/xlink" height="9.9px" width="11.9px" xmlns="http://www.w3.org/2000/svg">
  <g transform="matrix(1.0, 0.0, 0.0, 1.0, 0.0, 0.0)">
    <path d="M11.9 4.6 L5.45 9.25 5.45 6.5 5.45 5.95 Q2.15 5.05 0.5 7.45 L0.2 7.9 Q-0.65 3.6 2.5 3.0 L5.45 3.0 5.45 0.0 11.9 4.6" fill="#66ffff" fill-rule="evenodd" stroke="none"/>
    <path d="M11.9 4.6 L11.9 5.6 5.9 9.9 5.45 9.25 11.9 4.6 M5.45 6.5 Q2.2 5.8 0.65 8.55 L0.65 8.5 0.2 7.9 0.5 7.45 Q2.15 5.05 5.45 5.95 L5.45 6.5" fill="#0066cc" fill-rule="evenodd" stroke="none"/>
  </g>
</svg>
