<?xml version="1.0" encoding="UTF-8" standalone="no"?>
<svg xmlns:xlink="http://www.w3.org/1999/xlink" height="30.25px" width="49.5px" xmlns="http://www.w3.org/2000/svg">
  <g transform="matrix(1.0, 0.0, 0.0, 1.0, 4.0, 2.7)">
    <path d="M26.4 5.9 L26.4 3.95 19.45 3.95 19.45 1.45 30.1 1.45 30.1 5.9 27.3 8.4 23.2 8.4 23.2 10.8 30.1 10.8 30.1 21.0 27.4 23.55 25.4 23.55 25.4 21.1 26.4 21.1 26.4 13.3 19.5 13.3 19.5 5.9 26.4 5.9 M30.85 1.3 L41.5 1.3 41.5 5.75 38.7 8.25 34.65 8.25 34.65 10.65 41.5 10.65 41.5 20.85 38.8 23.4 36.8 23.4 36.8 20.95 37.8 20.95 37.8 13.15 30.9 13.15 30.9 5.75 37.8 5.75 37.8 3.8 30.85 3.8 30.85 1.3 M11.8 5.85 L11.8 9.75 10.1 11.7 4.7 11.7 4.7 5.95 6.7 5.95 6.7 9.75 7.1 9.75 7.1 5.6 9.3 5.6 9.3 9.75 9.85 9.75 9.85 5.85 11.8 5.85 M4.4 5.6 L2.75 9.8 0.0 9.8 1.8 5.6 4.4 5.6 M14.4 10.95 L14.6 11.85 15.05 10.15 17.35 10.15 15.75 16.2 17.45 23.05 15.05 23.05 14.5 20.75 13.85 23.05 11.5 23.05 13.4 16.2 12.1 10.95 14.4 10.95 M11.95 9.9 L12.95 5.6 15.6 5.6 15.25 7.05 17.75 7.05 16.85 9.05 14.8 9.05 14.6 9.9 11.95 9.9 M7.3 17.25 L7.3 22.45 4.85 23.35 4.85 15.25 11.2 15.25 11.2 21.1 11.85 21.1 10.9 23.05 8.7 23.05 8.7 17.25 7.3 17.25 M10.8 14.15 L4.85 14.15 4.85 12.5 11.7 12.5 10.8 14.15 M1.85 10.05 L4.4 10.05 3.75 12.25 3.75 22.3 1.2 23.4 1.2 14.55 0.05 14.55 1.85 10.05 M34.5 13.75 L37.15 18.2 33.45 18.2 30.85 13.75 34.5 13.75 M19.65 13.65 L23.3 13.65 25.9 18.25 22.15 18.25 19.65 13.65 M19.4 23.4 L22.35 18.85 25.95 18.85 23.05 23.4 19.4 23.4 M30.55 23.5 L33.5 18.85 37.15 18.85 34.25 23.5 30.55 23.5" fill="#66ff00" fill-rule="evenodd" stroke="none"/>
    <path d="M26.4 5.9 L26.4 3.95 19.45 3.95 19.45 1.45 30.1 1.45 30.1 5.9 27.3 8.4 23.2 8.4 23.2 10.8 30.1 10.8 30.1 21.0 27.4 23.55 25.4 23.55 25.4 21.1 26.4 21.1 26.4 13.3 19.5 13.3 19.5 5.9 26.4 5.9 M30.85 1.3 L41.5 1.3 41.5 5.75 38.7 8.25 34.65 8.25 34.65 10.65 41.5 10.65 41.5 20.85 38.8 23.4 36.8 23.4 36.8 20.95 37.8 20.95 37.8 13.15 30.9 13.15 30.9 5.75 37.8 5.75 37.8 3.8 30.85 3.8 30.85 1.3 M11.8 5.85 L11.8 9.75 10.1 11.7 4.7 11.7 4.7 5.95 6.7 5.95 6.7 9.75 7.1 9.75 7.1 5.6 9.3 5.6 9.3 9.75 9.85 9.75 9.85 5.85 11.8 5.85 M4.4 5.6 L2.75 9.8 0.0 9.8 1.8 5.6 4.4 5.6 M14.4 10.95 L14.6 11.85 15.05 10.15 17.35 10.15 15.75 16.2 17.45 23.05 15.05 23.05 14.5 20.75 13.85 23.05 11.5 23.05 13.4 16.2 12.1 10.95 14.4 10.95 M11.95 9.9 L12.95 5.6 15.6 5.6 15.25 7.05 17.75 7.05 16.85 9.05 14.8 9.05 14.6 9.9 11.95 9.9 M7.3 17.25 L7.3 22.45 4.85 23.35 4.85 15.25 11.2 15.25 11.2 21.1 11.85 21.1 10.9 23.05 8.7 23.05 8.7 17.25 7.3 17.25 M10.8 14.15 L4.85 14.15 4.85 12.5 11.7 12.5 10.8 14.15 M1.85 10.05 L4.4 10.05 3.75 12.25 3.75 22.3 1.2 23.4 1.2 14.55 0.05 14.55 1.85 10.05 M34.5 13.75 L37.15 18.2 33.45 18.2 30.85 13.75 34.5 13.75 M19.65 13.65 L23.3 13.65 25.9 18.25 22.15 18.25 19.65 13.65 M19.4 23.4 L22.35 18.85 25.95 18.85 23.05 23.4 19.4 23.4 M30.55 23.5 L33.5 18.85 37.15 18.85 34.25 23.5 30.55 23.5 Z" fill="none" stroke="#ffffff" stroke-linecap="round" stroke-linejoin="round" stroke-width="8.0"/>
    <path d="M30.85 1.3 L41.5 1.3 41.5 5.75 38.7 8.25 34.65 8.25 34.65 10.65 41.5 10.65 41.5 20.85 38.8 23.4 36.8 23.4 36.8 20.95 37.8 20.95 37.8 13.15 30.9 13.15 30.9 5.75 37.8 5.75 37.8 3.8 30.85 3.8 30.85 1.3 M26.4 5.9 L26.4 3.95 19.45 3.95 19.45 1.45 30.1 1.45 30.1 5.9 27.3 8.4 23.2 8.4 23.2 10.8 30.1 10.8 30.1 21.0 27.4 23.55 25.4 23.55 25.4 21.1 26.4 21.1 26.4 13.3 19.5 13.3 19.5 5.9 26.4 5.9 M4.4 5.6 L2.75 9.8 0.0 9.8 1.8 5.6 4.4 5.6 M11.8 5.85 L11.8 9.75 10.1 11.7 4.7 11.7 4.7 5.95 6.7 5.95 6.7 9.75 7.1 9.75 7.1 5.6 9.3 5.6 9.3 9.75 9.85 9.75 9.85 5.85 11.8 5.85 M15.05 10.15 L17.35 10.15 15.75 16.2 17.45 23.05 15.05 23.05 14.5 20.75 13.85 23.05 11.5 23.05 13.4 16.2 12.1 10.95 14.4 10.95 14.6 11.85 15.05 10.15 M14.6 9.9 L11.95 9.9 12.95 5.6 15.6 5.6 15.25 7.05 17.75 7.05 16.85 9.05 14.8 9.05 14.6 9.9 M7.3 17.25 L7.3 22.45 4.85 23.35 4.85 15.25 11.2 15.25 11.2 21.1 11.85 21.1 10.9 23.05 8.7 23.05 8.7 17.25 7.3 17.25 M10.8 14.15 L4.85 14.15 4.85 12.5 11.7 12.5 10.8 14.15 M1.85 10.05 L4.4 10.05 3.75 12.25 3.75 22.3 1.2 23.4 1.2 14.55 0.05 14.55 1.85 10.05 M34.5 13.75 L37.15 18.2 33.45 18.2 30.85 13.75 34.5 13.75 M19.65 13.65 L23.3 13.65 25.9 18.25 22.15 18.25 19.65 13.65 M19.4 23.4 L22.35 18.85 25.95 18.85 23.05 23.4 19.4 23.4 M30.55 23.5 L33.5 18.85 37.15 18.85 34.25 23.5 30.55 23.5" fill="#66ff00" fill-rule="evenodd" stroke="none"/>
    <path d="M30.85 1.3 L41.5 1.3 41.5 5.75 38.7 8.25 34.65 8.25 34.65 10.65 41.5 10.65 41.5 20.85 38.8 23.4 36.8 23.4 36.8 20.95 37.8 20.95 37.8 13.15 30.9 13.15 30.9 5.75 37.8 5.75 37.8 3.8 30.85 3.8 30.85 1.3 M26.4 5.9 L26.4 3.95 19.45 3.95 19.45 1.45 30.1 1.45 30.1 5.9 27.3 8.4 23.2 8.4 23.2 10.8 30.1 10.8 30.1 21.0 27.4 23.55 25.4 23.55 25.4 21.1 26.4 21.1 26.4 13.3 19.5 13.3 19.5 5.9 26.4 5.9 M4.4 5.6 L2.75 9.8 0.0 9.8 1.8 5.6 4.4 5.6 M11.8 5.85 L11.8 9.75 10.1 11.7 4.7 11.7 4.7 5.95 6.7 5.95 6.7 9.75 7.1 9.75 7.1 5.6 9.3 5.6 9.3 9.75 9.85 9.75 9.85 5.85 11.8 5.85 M15.05 10.15 L17.35 10.15 15.75 16.2 17.45 23.05 15.05 23.05 14.5 20.75 13.85 23.05 11.5 23.05 13.4 16.2 12.1 10.95 14.4 10.95 14.6 11.85 15.05 10.15 M14.6 9.9 L11.95 9.9 12.95 5.6 15.6 5.6 15.25 7.05 17.75 7.05 16.85 9.05 14.8 9.05 14.6 9.9 M7.3 17.25 L7.3 22.45 4.85 23.35 4.85 15.25 11.2 15.25 11.2 21.1 11.85 21.1 10.9 23.05 8.7 23.05 8.7 17.25 7.3 17.25 M10.8 14.15 L4.85 14.15 4.85 12.5 11.7 12.5 10.8 14.15 M1.85 10.05 L4.4 10.05 3.75 12.25 3.75 22.3 1.2 23.4 1.2 14.55 0.05 14.55 1.85 10.05 M34.5 13.75 L37.15 18.2 33.45 18.2 30.85 13.75 34.5 13.75 M19.65 13.65 L23.3 13.65 25.9 18.25 22.15 18.25 19.65 13.65 M19.4 23.4 L22.35 18.85 25.95 18.85 23.05 23.4 19.4 23.4 M30.55 23.5 L33.5 18.85 37.15 18.85 34.25 23.5 30.55 23.5 Z" fill="none" stroke="#000000" stroke-linecap="round" stroke-linejoin="round" stroke-width="5.0"/>
    <path d="M26.4 4.6 L26.4 2.65 19.45 2.65 19.45 0.15 30.1 0.15 30.1 4.6 27.3 7.1 23.2 7.1 23.2 9.5 30.1 9.5 30.1 19.7 27.4 22.25 25.4 22.25 25.4 19.8 26.4 19.8 26.4 12.0 19.5 12.0 19.5 4.6 26.4 4.6 M30.85 0.0 L41.5 0.0 41.5 4.45 38.7 6.95 34.65 6.95 34.65 9.35 41.5 9.35 41.5 19.55 38.8 22.1 36.8 22.1 36.8 19.65 37.8 19.65 37.8 11.85 30.9 11.85 30.9 4.45 37.8 4.45 37.8 2.5 30.85 2.5 30.85 0.0 M11.8 4.55 L11.8 8.45 10.1 10.4 4.7 10.4 4.7 4.65 6.7 4.65 6.7 8.45 7.1 8.45 7.1 4.3 9.3 4.3 9.3 8.45 9.85 8.45 9.85 4.55 11.8 4.55 M4.4 4.3 L2.75 8.5 0.0 8.5 1.8 4.3 4.4 4.3 M14.4 9.65 L14.6 10.55 15.05 8.85 17.35 8.85 15.75 14.9 17.45 21.75 15.05 21.75 14.5 19.45 13.85 21.75 11.5 21.75 13.4 14.9 12.1 9.65 14.4 9.65 M11.95 8.6 L12.95 4.3 15.6 4.3 15.25 5.75 17.75 5.75 16.85 7.75 14.8 7.75 14.6 8.6 11.95 8.6 M7.3 15.95 L7.3 21.15 4.85 22.05 4.85 13.95 11.2 13.95 11.2 19.8 11.85 19.8 10.9 21.75 8.7 21.75 8.7 15.95 7.3 15.95 M10.8 12.85 L4.85 12.85 4.85 11.2 11.7 11.2 10.8 12.85 M1.85 8.75 L4.4 8.75 3.75 10.95 3.75 21.0 1.2 22.1 1.2 13.25 0.05 13.25 1.85 8.75 M34.5 12.45 L37.15 16.9 33.45 16.9 30.85 12.45 34.5 12.45 M19.65 12.35 L23.3 12.35 25.9 16.95 22.15 16.95 19.65 12.35 M19.4 22.1 L22.35 17.55 25.95 17.55 23.05 22.1 19.4 22.1 M30.55 22.2 L33.5 17.55 37.15 17.55 34.25 22.2 30.55 22.2" fill="#66ff00" fill-rule="evenodd" stroke="none"/>
    <path d="M26.4 4.6 L26.4 2.65 19.45 2.65 19.45 0.15 30.1 0.15 30.1 4.6 27.3 7.1 23.2 7.1 23.2 9.5 30.1 9.5 30.1 19.7 27.4 22.25 25.4 22.25 25.4 19.8 26.4 19.8 26.4 12.0 19.5 12.0 19.5 4.6 26.4 4.6 M30.85 0.0 L41.5 0.0 41.5 4.45 38.7 6.95 34.65 6.95 34.65 9.35 41.5 9.35 41.5 19.55 38.8 22.1 36.8 22.1 36.8 19.65 37.8 19.65 37.8 11.85 30.9 11.85 30.9 4.45 37.8 4.45 37.8 2.5 30.85 2.5 30.85 0.0 M11.8 4.55 L11.8 8.45 10.1 10.4 4.7 10.4 4.7 4.65 6.7 4.65 6.7 8.45 7.1 8.45 7.1 4.3 9.3 4.3 9.3 8.45 9.85 8.45 9.85 4.55 11.8 4.55 M4.4 4.3 L2.75 8.5 0.0 8.5 1.8 4.3 4.4 4.3 M14.4 9.65 L14.6 10.55 15.05 8.85 17.35 8.85 15.75 14.9 17.45 21.75 15.05 21.75 14.5 19.45 13.85 21.75 11.5 21.75 13.4 14.9 12.1 9.65 14.4 9.65 M11.95 8.6 L12.95 4.3 15.6 4.3 15.25 5.75 17.75 5.75 16.85 7.75 14.8 7.75 14.6 8.6 11.95 8.6 M7.3 15.95 L7.3 21.15 4.85 22.05 4.85 13.95 11.2 13.95 11.2 19.8 11.85 19.8 10.9 21.75 8.7 21.75 8.7 15.95 7.3 15.95 M10.8 12.85 L4.85 12.85 4.85 11.2 11.7 11.2 10.8 12.85 M1.85 8.75 L4.4 8.75 3.75 10.95 3.75 21.0 1.2 22.1 1.2 13.25 0.05 13.25 1.85 8.75 M34.5 12.45 L37.15 16.9 33.45 16.9 30.85 12.45 34.5 12.45 M19.65 12.35 L23.3 12.35 25.9 16.95 22.15 16.95 19.65 12.35 M19.4 22.1 L22.35 17.55 25.95 17.55 23.05 22.1 19.4 22.1 M30.55 22.2 L33.5 17.55 37.15 17.55 34.25 22.2 30.55 22.2 Z" fill="none" stroke="#003300" stroke-linecap="round" stroke-linejoin="round" stroke-width="3.0"/>
    <path d="M41.5 16.2 L41.5 19.55 38.8 22.1 36.8 22.1 36.8 19.65 37.8 19.65 37.8 16.2 41.5 16.2 M30.9 9.2 L30.9 4.45 37.8 4.45 37.8 2.5 30.85 2.5 30.85 0.0 41.5 0.0 41.5 4.45 38.7 6.95 34.65 6.95 34.65 9.2 30.9 9.2 M19.5 9.2 L19.5 4.6 26.4 4.6 26.4 2.65 19.45 2.65 19.45 0.15 30.1 0.15 30.1 4.6 27.3 7.1 23.2 7.1 23.2 9.2 19.5 9.2 M30.1 16.2 L30.1 19.7 27.4 22.25 25.4 22.25 25.4 19.8 26.4 19.8 26.4 16.2 30.1 16.2 M25.5 16.2 L25.9 16.95 22.15 16.95 21.75 16.2 25.5 16.2 M23.05 22.1 L19.4 22.1 22.35 17.55 25.95 17.55 23.05 22.1 M36.75 16.2 L37.15 16.9 33.45 16.9 33.05 16.2 36.75 16.2 M30.55 22.2 L33.5 17.55 37.15 17.55 34.25 22.2 30.55 22.2 M15.25 5.75 L17.75 5.75 16.85 7.75 14.8 7.75 14.6 8.6 11.95 8.6 12.95 4.3 15.6 4.3 15.25 5.75 M14.95 9.2 L15.05 8.85 17.35 8.85 17.25 9.2 14.95 9.2 M16.1 16.2 L17.45 21.75 15.05 21.75 14.5 19.45 13.85 21.75 11.5 21.75 13.05 16.2 16.1 16.2 M4.7 9.2 L4.7 4.65 6.7 4.65 6.7 8.45 7.1 8.45 7.1 4.3 9.3 4.3 9.3 8.45 9.85 8.45 9.85 4.55 11.8 4.55 11.8 8.45 11.15 9.2 4.7 9.2 M4.4 4.3 L2.75 8.5 0.0 8.5 1.8 4.3 4.4 4.3 M4.3 9.2 L1.7 9.2 1.85 8.75 4.4 8.75 4.3 9.2 M1.2 16.2 L3.75 16.2 3.75 21.0 1.2 22.1 1.2 16.2 M7.3 16.2 L7.3 21.15 4.85 22.05 4.85 16.2 7.3 16.2 M11.2 16.2 L11.2 19.8 11.85 19.8 10.9 21.75 8.7 21.75 8.7 16.2 11.2 16.2" fill="#66ff00" fill-rule="evenodd" stroke="none"/>
    <path d="M34.65 9.2 L34.65 9.35 41.5 9.35 41.5 16.2 37.8 16.2 37.8 11.85 30.9 11.85 30.9 9.2 34.65 9.2 M23.2 9.2 L23.2 9.5 30.1 9.5 30.1 16.2 26.4 16.2 26.4 12.0 19.5 12.0 19.5 9.2 23.2 9.2 M21.75 16.2 L19.65 12.35 23.3 12.35 25.5 16.2 21.75 16.2 M33.05 16.2 L30.85 12.45 34.5 12.45 36.75 16.2 33.05 16.2 M13.05 16.2 L13.4 14.9 12.1 9.65 14.4 9.65 14.6 10.55 14.95 9.2 17.25 9.2 15.75 14.9 16.1 16.2 13.05 16.2 M11.15 9.2 L10.1 10.4 4.7 10.4 4.7 9.2 11.15 9.2 M1.7 9.2 L4.3 9.2 3.75 10.95 3.75 16.2 1.2 16.2 1.2 13.25 0.05 13.25 1.7 9.2 M8.7 16.2 L8.7 15.95 7.3 15.95 7.3 16.2 4.85 16.2 4.85 13.95 11.2 13.95 11.2 16.2 8.7 16.2 M4.85 12.85 L4.85 11.2 11.7 11.2 10.8 12.85 4.85 12.85" fill="#b6ff00" fill-rule="evenodd" stroke="none"/>
  </g>
</svg>
