<?xml version="1.0" encoding="UTF-8" standalone="no"?>
<svg xmlns:xlink="http://www.w3.org/1999/xlink" height="28.55px" width="28.5px" xmlns="http://www.w3.org/2000/svg">
  <g transform="matrix(1.0, 0.0, 0.0, 1.0, -0.8, -1.2)">
    <path d="M25.9 4.1 L25.45 4.1 24.35 3.9 23.1 3.9 23.6 3.6 Q24.6 2.85 25.25 3.0 L25.95 3.1 26.2 3.15 26.2 3.2 26.2 3.3 26.2 3.8 26.2 4.1 25.9 4.1 M25.4 7.05 L25.35 7.35 Q25.5 8.1 23.75 10.0 22.05 11.85 22.1 12.4 L22.95 12.35 23.95 12.15 24.05 12.15 23.5 12.9 Q22.95 13.7 24.45 14.2 24.8 14.35 25.2 16.25 25.5 18.1 23.75 18.9 22.05 19.75 20.05 19.75 L17.0 19.6 15.25 19.75 13.2 19.85 11.35 19.75 11.0 18.9 Q10.75 18.25 11.35 16.6 L11.5 16.2 11.7 16.2 Q12.45 16.25 13.1 14.9 L13.2 14.85 13.15 14.6 13.7 14.5 16.6 14.65 18.6 16.35 18.9 16.15 19.4 15.4 Q19.85 14.7 19.45 14.4 19.1 14.2 19.55 13.7 20.5 12.25 20.45 11.85 L19.25 10.9 Q18.1 10.0 18.6 9.35 20.65 9.45 22.75 8.6 L25.4 7.05" fill="#7e4d2b" fill-rule="evenodd" stroke="none"/>
    <path d="M23.1 3.9 L24.35 3.9 25.45 4.1 25.9 4.1 25.3 4.25 23.6 5.35 21.6 6.5 19.5 7.1 Q18.15 7.5 17.5 7.95 L17.0 7.8 16.45 7.5 17.2 6.75 Q17.75 6.1 18.5 5.9 L19.75 5.6 20.75 5.15 21.7 4.75 Q22.2 4.55 22.5 4.5 L23.1 3.9 M10.6 20.45 L10.0 19.35 Q10.75 20.75 11.25 20.5 11.6 20.35 11.35 19.75 L13.2 19.85 15.25 19.75 17.0 19.6 20.05 19.75 Q22.05 19.75 23.75 18.9 25.5 18.1 25.2 16.25 24.8 14.35 24.45 14.2 22.95 13.7 23.5 12.9 L24.05 12.15 23.95 12.15 22.95 12.35 22.1 12.4 Q22.05 11.85 23.75 10.0 25.5 8.1 25.35 7.35 L25.4 7.05 26.6 5.8 26.65 6.6 Q26.6 7.8 25.95 8.85 25.75 9.2 25.7 10.1 L25.75 10.2 25.95 10.6 26.0 11.35 25.95 11.85 25.45 12.3 25.35 12.3 25.5 13.0 Q25.6 13.9 25.85 14.35 L26.75 15.75 27.0 17.0 27.0 17.5 26.6 19.0 26.0 20.15 24.8 20.6 22.8 20.65 20.6 20.65 16.9 20.65 14.25 20.7 12.75 20.7 11.45 20.65 10.6 20.45 M25.95 10.6 L25.35 10.75 25.0 10.95 24.75 10.85 24.7 10.75 24.85 10.75 25.7 10.1 24.85 10.75 24.7 10.75 24.75 10.85 25.0 10.95 25.35 10.75 25.95 10.6 M25.15 13.0 L25.0 12.5 Q25.2 12.3 25.35 12.3 25.2 12.3 25.0 12.5 L25.15 13.0" fill="#653d23" fill-rule="evenodd" stroke="none"/>
    <path d="M25.9 4.1 L26.2 4.1 Q25.75 5.25 23.95 6.5 21.3 8.25 17.85 7.95 L17.5 7.95 Q18.15 7.5 19.5 7.1 L21.6 6.5 23.6 5.35 25.3 4.25 25.9 4.1 M26.85 19.65 L26.05 20.7 25.3 21.25 23.75 21.5 18.95 21.5 15.35 21.6 14.2 21.75 12.75 21.65 11.8 21.5 11.2 21.15 10.6 20.45 11.45 20.65 12.75 20.7 14.25 20.7 16.9 20.65 20.6 20.65 22.8 20.65 24.8 20.6 26.0 20.15 26.85 19.65" fill="#452918" fill-rule="evenodd" stroke="none"/>
    <path d="M26.2 4.1 L26.2 3.8 26.2 3.3 26.95 5.35 26.6 5.8 25.4 7.05 22.75 8.6 Q20.65 9.45 18.6 9.35 18.1 10.0 19.25 10.9 L20.45 11.85 Q20.5 12.25 19.55 13.7 19.1 14.2 19.45 14.4 19.85 14.7 19.4 15.4 L18.9 16.15 18.6 16.35 16.6 14.65 13.7 14.5 13.15 14.6 Q13.05 14.15 12.35 14.5 11.35 15.0 11.25 15.85 L11.25 16.05 11.5 16.2 11.35 16.6 Q10.75 18.25 11.0 18.9 L11.35 19.75 Q11.6 20.35 11.25 20.5 10.75 20.75 10.0 19.35 L9.9 18.7 Q9.6 17.15 10.7 15.5 11.7 13.85 13.75 13.25 15.8 12.65 17.2 13.7 L18.3 14.6 18.6 13.7 18.95 12.45 Q18.95 12.0 18.45 11.65 17.85 11.35 17.35 10.5 L16.7 8.75 16.6 8.75 16.45 7.5 17.0 7.8 17.5 7.95 17.85 7.95 Q21.3 8.25 23.95 6.5 25.75 5.25 26.2 4.1 M18.2 9.0 L18.8 9.05 18.9 8.75 Q18.95 8.45 18.25 8.45 L17.5 8.6 17.5 8.75 18.2 9.0 M18.3 14.6 Q18.7 15.0 18.7 15.35 18.7 15.0 18.3 14.6 M16.7 8.75 Q17.1 9.2 18.45 9.35 L18.6 9.35 18.45 9.35 Q17.1 9.2 16.7 8.75" fill="#ae7e37" fill-rule="evenodd" stroke="none"/>
    <path d="M26.95 5.35 L27.0 5.5 26.95 7.5 26.35 9.15 26.1 9.6 26.45 10.4 26.55 11.35 25.95 12.0 Q25.9 12.85 26.1 13.45 L27.0 14.95 Q27.75 15.95 27.45 17.75 27.35 18.85 26.85 19.65 L26.0 20.15 26.6 19.0 27.0 17.5 27.0 17.0 26.75 15.75 25.85 14.35 Q25.6 13.9 25.5 13.0 L25.35 12.3 25.45 12.3 25.95 11.85 26.0 11.35 25.95 10.6 25.75 10.2 25.7 10.1 Q25.75 9.2 25.95 8.85 26.6 7.8 26.65 6.6 L26.6 5.8 26.95 5.35 M26.1 9.6 L25.7 10.1 26.1 9.6 M25.95 12.0 L25.45 12.3 25.95 12.0" fill="#c6944a" fill-rule="evenodd" stroke="none"/>
    <path d="M13.15 14.6 L13.2 14.85 13.1 14.9 Q12.45 16.25 11.7 16.2 L11.5 16.2 11.25 16.05 11.25 15.85 Q11.35 15.0 12.35 14.5 13.05 14.15 13.15 14.6 M18.2 9.0 L17.5 8.75 17.5 8.6 18.25 8.45 Q18.95 8.45 18.9 8.75 L18.8 9.05 18.2 9.0" fill="#d6b37e" fill-rule="evenodd" stroke="none"/>
    <path d="M25.9 4.1 L26.2 4.1 26.2 3.8 26.2 3.3 26.2 3.2 26.2 3.15 25.95 3.1 25.25 3.0 Q24.6 2.85 23.6 3.6 L23.1 3.9 22.5 4.5 Q22.2 4.55 21.7 4.75 L20.75 5.15 19.75 5.6 18.5 5.9 Q17.75 6.1 17.2 6.75 L16.45 7.5 17.0 7.8 17.5 7.95 Q18.15 7.5 19.5 7.1 L21.6 6.5 23.6 5.35 25.3 4.25 25.9 4.1 M26.95 5.35 L27.0 5.5 26.95 7.5 26.35 9.15 26.1 9.6 26.45 10.4 26.55 11.35 25.95 12.0 Q25.9 12.85 26.1 13.45 L27.0 14.95 Q27.75 15.95 27.45 17.75 27.35 18.85 26.85 19.65 L26.05 20.7 25.3 21.25 23.75 21.5 18.95 21.5 15.35 21.6 14.2 21.75 12.75 21.65 11.8 21.5 11.2 21.15 10.6 20.45 10.0 19.35 9.9 18.7 Q9.6 17.15 10.7 15.5 11.7 13.85 13.75 13.25 15.8 12.65 17.2 13.7 L18.3 14.6 18.6 13.7 18.95 12.45 Q18.95 12.0 18.45 11.65 17.85 11.35 17.35 10.5 L16.7 8.75 16.6 8.75 16.45 7.5 M26.6 5.8 L26.95 5.35 26.2 3.3 M25.4 7.05 L22.75 8.6 Q20.65 9.45 18.6 9.35 L18.45 9.35 Q17.1 9.2 16.7 8.75 M25.7 10.1 L24.85 10.75 24.7 10.75 24.75 10.85 25.0 10.95 25.35 10.75 25.95 10.6 M26.6 5.8 L25.4 7.05 M25.7 10.1 L26.1 9.6 M25.45 12.3 L25.95 12.0 M25.45 12.3 L25.35 12.3 Q25.2 12.3 25.0 12.5 L25.15 13.0 M26.0 20.15 L26.85 19.65 M17.5 7.95 L17.85 7.95 Q21.3 8.25 23.95 6.5 25.75 5.25 26.2 4.1 M10.6 20.45 L11.45 20.65 12.75 20.7 14.25 20.7 16.9 20.65 20.6 20.65 22.8 20.65 24.8 20.6 26.0 20.15 M18.7 15.35 Q18.7 15.0 18.3 14.6" fill="none" stroke="#ffffff" stroke-linecap="round" stroke-linejoin="round" stroke-width="3.5"/>
    <path d="M7.2 5.35 Q4.25 7.85 2.55 10.8 L5.4 10.8 5.4 20.25 11.0 20.25 11.0 10.8 13.95 10.8 Q11.8 7.15 8.25 4.55 L7.2 5.35 Z" fill="none" stroke="#ffffff" stroke-linecap="round" stroke-linejoin="round" stroke-width="3.5"/>
    <path d="M8.25 4.55 Q11.8 7.15 13.95 10.8 L11.0 10.8 11.0 20.25 9.75 20.25 9.8 12.1 9.8 9.85 11.6 9.85 10.05 7.25 8.25 4.55" fill="#3b861d" fill-rule="evenodd" stroke="none"/>
    <path d="M7.2 5.35 L8.25 4.55 Q6.1 6.55 7.2 5.35" fill="#cb2c1b" fill-rule="evenodd" stroke="none"/>
    <path d="M6.6 20.25 L5.4 20.25 5.4 10.8 2.55 10.8 Q4.25 7.85 7.2 5.35 6.1 6.55 8.25 4.55 L6.65 6.65 6.1 7.3 5.9 7.65 Q4.85 9.2 4.7 9.9 L6.6 9.9 6.6 20.25" fill="#c7f36c" fill-rule="evenodd" stroke="none"/>
    <path d="M6.65 6.65 L7.15 6.45 7.4 6.7 6.55 8.1 Q5.65 9.2 5.65 8.15 L5.9 7.65 6.1 7.3 6.65 6.65" fill="#ffffff" fill-rule="evenodd" stroke="none"/>
    <path d="M8.25 4.55 L10.05 7.25 11.6 9.85 9.8 9.85 9.8 12.1 9.75 20.25 6.6 20.25 6.6 9.9 4.7 9.9 Q4.85 9.2 5.9 7.65 L5.65 8.15 Q5.65 9.2 6.55 8.1 L7.4 6.7 7.15 6.45 6.65 6.65 8.25 4.55" fill="#74c84e" fill-rule="evenodd" stroke="none"/>
    <path d="M9.75 20.25 L11.0 20.25 11.0 10.8 13.95 10.8 Q11.8 7.15 8.25 4.55 L7.2 5.35 Q4.25 7.85 2.55 10.8 L5.4 10.8 5.4 20.25 6.6 20.25 9.75 20.25 Z" fill="none" stroke="#005909" stroke-linecap="round" stroke-linejoin="round" stroke-width="1.0"/>
    <path d="M24.65 3.0 L25.25 3.0 25.95 3.1 26.2 3.15 26.2 3.2 26.2 3.3 26.95 5.35 27.0 5.5 26.95 7.5 26.35 9.15 26.1 9.6 26.45 10.4 26.55 11.35 25.95 12.0 Q25.9 12.85 26.1 13.45 L27.0 14.95 Q27.75 15.95 27.45 17.75 27.35 18.85 26.85 19.65 L26.05 20.7 25.3 21.25 23.75 21.5 18.95 21.5 15.35 21.6 14.2 21.75 12.75 21.65 11.8 21.5 11.2 21.15 10.55 20.55 23.2 20.5 Q24.45 20.4 24.65 18.95 27.5 18.7 25.6 13.4 L22.8 13.05 25.4 10.9 24.25 10.9 Q26.05 7.65 25.0 4.0 L24.65 3.0 M25.0 12.5 Q25.2 12.3 25.35 12.3 L25.45 12.3 25.95 12.0 25.45 12.3 25.35 12.3 Q25.2 12.3 25.0 12.5 M25.7 10.1 L26.1 9.6 25.7 10.1" fill="#2b1a0f" fill-rule="evenodd" stroke="none"/>
    <path d="M10.05 16.9 L10.7 15.5 Q11.7 13.85 13.75 13.25 15.8 12.65 17.2 13.7 L18.3 14.6 18.6 13.7 18.95 12.45 Q18.95 12.0 18.45 11.65 17.85 11.35 17.35 10.5 L16.7 8.75 16.6 8.75 16.45 7.5 17.2 6.75 17.7 6.3 Q18.05 6.05 18.5 5.9 L19.75 5.6 20.75 5.15 21.7 4.75 Q22.2 4.55 22.5 4.5 L23.1 3.9 23.6 3.6 Q24.2 3.15 24.65 3.0 L25.0 4.0 Q21.85 6.5 17.75 7.5 18.05 10.25 20.25 12.5 L19.4 15.4 Q20.5 16.5 19.95 17.65 17.7 14.9 15.35 14.35 12.15 14.45 10.1 17.9 L10.05 16.9 M18.7 15.35 Q18.7 15.0 18.3 14.6 18.7 15.0 18.7 15.35" fill="#663300" fill-rule="evenodd" stroke="none"/>
    <path d="M10.55 20.55 L10.3 20.1 10.0 19.35 9.9 18.7 Q9.75 17.8 10.05 16.9 L10.1 17.9 Q12.15 14.45 15.35 14.35 17.7 14.9 19.95 17.65 20.5 16.5 19.4 15.4 L20.25 12.5 Q18.05 10.25 17.75 7.5 21.85 6.5 25.0 4.0 26.05 7.65 24.25 10.9 L25.4 10.9 22.8 13.05 25.6 13.4 Q27.5 18.7 24.65 18.95 24.45 20.4 23.2 20.5 L10.55 20.55" fill="#653d23" fill-rule="evenodd" stroke="none"/>
    <path d="M24.65 3.0 L25.25 3.0 25.95 3.1 26.2 3.15 26.2 3.2 26.2 3.3 26.95 5.35 27.0 5.5 26.95 7.5 26.35 9.15 26.1 9.6 26.45 10.4 26.55 11.35 25.95 12.0 Q25.9 12.85 26.1 13.45 L27.0 14.95 Q27.75 15.95 27.45 17.75 27.35 18.85 26.85 19.65 L26.05 20.7 25.3 21.25 23.75 21.5 18.95 21.5 15.35 21.6 14.2 21.75 12.75 21.65 11.8 21.5 11.2 21.15 10.55 20.55 10.3 20.1 10.0 19.35 9.9 18.7 Q9.75 17.8 10.05 16.9 L10.7 15.5 Q11.7 13.85 13.75 13.25 15.8 12.65 17.2 13.7 L18.3 14.6 18.6 13.7 18.95 12.45 Q18.95 12.0 18.45 11.65 17.85 11.35 17.35 10.5 L16.7 8.75 16.6 8.75 16.45 7.5 17.2 6.75 17.7 6.3 Q18.05 6.05 18.5 5.9 L19.75 5.6 20.75 5.15 21.7 4.75 Q22.2 4.55 22.5 4.5 L23.1 3.9 23.6 3.6 Q24.2 3.15 24.65 3.0 M26.1 9.6 L25.7 10.1 M25.95 12.0 L25.45 12.3 25.35 12.3 Q25.2 12.3 25.0 12.5 M18.3 14.6 Q18.7 15.0 18.7 15.35" fill="none" stroke="#29160a" stroke-linecap="round" stroke-linejoin="round" stroke-width="0.6000000000000001"/>
    <path d="M20.75 20.5 L14.0 20.5 14.0 27.4 12.5 28.1 12.5 19.35 16.05 19.35 16.3 19.1 Q16.45 18.85 16.9 18.85 L17.5 18.9 17.95 19.35 21.25 19.35 20.75 20.5 M19.05 22.15 L16.15 22.15 16.15 22.95 19.05 22.95 19.05 22.15 M19.05 20.7 L20.6 20.7 20.6 21.1 21.25 21.1 20.95 22.15 20.6 22.15 20.6 22.95 19.35 23.95 14.65 23.95 14.65 22.15 14.25 22.15 14.25 21.1 14.65 21.1 14.65 20.7 16.15 20.7 16.15 21.1 19.05 21.1 19.05 20.7 M21.0 25.1 L18.55 26.65 21.2 28.0 18.75 28.0 17.4 27.3 16.15 28.05 13.85 28.05 16.15 26.6 14.25 25.6 16.75 25.6 17.35 25.9 18.3 25.35 14.4 25.35 14.4 24.35 21.0 24.35 21.0 25.1 M7.2 19.4 L7.2 19.1 8.65 19.1 8.65 19.4 11.35 19.4 10.9 20.5 8.65 20.5 8.65 20.9 11.25 20.9 11.25 22.9 10.2 23.9 8.65 23.9 8.65 26.05 7.2 26.65 7.2 23.9 4.8 23.9 4.8 20.9 7.2 20.9 7.2 20.5 4.7 20.5 4.7 19.4 7.2 19.4 M4.25 20.5 L3.95 20.8 3.45 20.95 3.0 20.8 2.6 20.5 2.5 20.0 Q2.5 19.75 2.65 19.55 L3.0 19.15 3.45 19.05 3.9 19.15 4.25 19.55 4.4 20.05 4.25 20.5 M2.3 21.9 L4.35 21.9 4.35 26.15 4.6 26.3 5.6 24.2 7.0 24.2 5.9 26.5 5.0 26.5 5.8 26.9 11.4 26.9 10.9 28.0 5.05 28.0 4.35 27.55 2.9 28.25 2.9 23.0 2.3 23.0 2.3 21.9 M7.2 21.9 L6.2 21.9 6.2 22.85 7.2 22.85 7.2 21.9 M9.85 21.9 L8.65 21.9 8.65 22.85 9.85 22.85 9.85 21.9 M10.4 24.2 L11.5 26.5 10.05 26.5 9.0 24.2 10.4 24.2" fill="#ffff00" fill-rule="evenodd" stroke="none"/>
    <path d="M20.75 20.5 L14.0 20.5 14.0 27.4 12.5 28.1 12.5 19.35 16.05 19.35 16.3 19.1 Q16.45 18.85 16.9 18.85 L17.5 18.9 17.95 19.35 21.25 19.35 20.75 20.5 M19.05 22.15 L16.15 22.15 16.15 22.95 19.05 22.95 19.05 22.15 M19.05 20.7 L20.6 20.7 20.6 21.1 21.25 21.1 20.95 22.15 20.6 22.15 20.6 22.95 19.35 23.95 14.65 23.95 14.65 22.15 14.25 22.15 14.25 21.1 14.65 21.1 14.65 20.7 16.15 20.7 16.15 21.1 19.05 21.1 19.05 20.7 M21.0 25.1 L18.55 26.65 21.2 28.0 18.75 28.0 17.4 27.3 16.15 28.05 13.85 28.05 16.15 26.6 14.25 25.6 16.75 25.6 17.35 25.9 18.3 25.35 14.4 25.35 14.4 24.35 21.0 24.35 21.0 25.1 M7.2 19.4 L7.2 19.1 8.65 19.1 8.65 19.4 11.35 19.4 10.9 20.5 8.65 20.5 8.65 20.9 11.25 20.9 11.25 22.9 10.2 23.9 8.65 23.9 8.65 26.05 7.2 26.65 7.2 23.9 4.8 23.9 4.8 20.9 7.2 20.9 7.2 20.5 4.7 20.5 4.7 19.4 7.2 19.4 M4.25 20.5 L3.95 20.8 3.45 20.95 3.0 20.8 2.6 20.5 2.5 20.0 Q2.5 19.75 2.65 19.55 L3.0 19.15 3.45 19.05 3.9 19.15 4.25 19.55 4.4 20.05 4.25 20.5 M2.3 21.9 L4.35 21.9 4.35 26.15 4.6 26.3 5.6 24.2 7.0 24.2 5.9 26.5 5.0 26.5 5.8 26.9 11.4 26.9 10.9 28.0 5.05 28.0 4.35 27.55 2.9 28.25 2.9 23.0 2.3 23.0 2.3 21.9 M7.2 21.9 L6.2 21.9 6.2 22.85 7.2 22.85 7.2 21.9 M9.85 21.9 L8.65 21.9 8.65 22.85 9.85 22.85 9.85 21.9 M10.4 24.2 L11.5 26.5 10.05 26.5 9.0 24.2 10.4 24.2 Z" fill="none" stroke="#660000" stroke-linecap="round" stroke-linejoin="round" stroke-width="3.0"/>
    <path d="M20.6 22.95 L19.35 23.95 14.65 23.95 14.65 22.15 14.25 22.15 14.25 21.1 14.65 21.1 14.65 20.7 16.15 20.7 16.15 21.1 19.05 21.1 19.05 20.7 20.6 20.7 20.6 21.1 21.25 21.1 20.95 22.15 20.6 22.15 20.6 22.95 M20.75 20.5 L14.0 20.5 14.0 27.4 12.5 28.1 12.5 19.35 16.05 19.35 16.3 19.1 Q16.45 18.85 16.9 18.85 L17.5 18.9 17.95 19.35 21.25 19.35 20.75 20.5 M4.25 19.55 L4.4 20.05 4.25 20.5 3.95 20.8 3.45 20.95 3.0 20.8 2.6 20.5 2.5 20.0 Q2.5 19.75 2.65 19.55 L3.0 19.15 3.45 19.05 3.9 19.15 4.25 19.55 M4.7 19.4 L7.2 19.4 7.2 19.1 8.65 19.1 8.65 19.4 11.35 19.4 10.9 20.5 8.65 20.5 8.65 20.9 11.25 20.9 11.25 22.9 10.2 23.9 8.65 23.9 8.65 26.05 7.2 26.65 7.2 23.9 4.8 23.9 4.8 20.9 7.2 20.9 7.2 20.5 4.7 20.5 4.7 19.4 M2.3 21.9 L4.35 21.9 4.35 26.15 4.6 26.3 5.6 24.2 7.0 24.2 5.9 26.5 5.0 26.5 5.8 26.9 11.4 26.9 10.9 28.0 5.05 28.0 4.35 27.55 2.9 28.25 2.9 23.0 2.3 23.0 2.3 21.9 M6.2 21.9 L6.2 22.85 7.2 22.85 7.2 21.9 6.2 21.9 M9.85 21.9 L8.65 21.9 8.65 22.85 9.85 22.85 9.85 21.9 M16.15 22.95 L19.05 22.95 19.05 22.15 16.15 22.15 16.15 22.95 M10.4 24.2 L11.5 26.5 10.05 26.5 9.0 24.2 10.4 24.2 M18.3 25.35 L14.4 25.35 14.4 24.35 21.0 24.35 21.0 25.1 18.55 26.65 21.2 28.0 18.75 28.0 17.4 27.3 16.15 28.05 13.85 28.05 16.15 26.6 14.25 25.6 16.75 25.6 17.35 25.9 18.3 25.35" fill="#ffff00" fill-rule="evenodd" stroke="none"/>
  </g>
</svg>
