<?xml version="1.0" encoding="UTF-8" standalone="no"?>
<svg xmlns:xlink="http://www.w3.org/1999/xlink" height="50.45px" width="319.65px" xmlns="http://www.w3.org/2000/svg">
  <g transform="matrix(1.0, 0.0, 0.0, 1.0, -58.4, -32.45)">
    <path d="M365.4 57.95 L84.25 57.95 93.6 35.75 374.75 35.75 365.4 57.95 Z" fill="none" stroke="#333333" stroke-linecap="square" stroke-linejoin="bevel" stroke-width="5.0"/>
    <path d="M374.7 35.8 L365.4 57.9 84.35 57.9 93.65 35.8 374.7 35.8 M364.25 56.2 L372.15 37.5 94.75 37.5 86.9 56.2 364.25 56.2" fill="#660000" fill-opacity="0.7019608" fill-rule="evenodd" stroke="none"/>
    <path d="M303.4 37.5 L154.85 37.5 154.85 35.8 303.4 35.8 303.4 37.5 M303.4 57.9 L154.85 57.9 154.85 56.2 303.4 56.2 303.4 57.9" fill="url(#gradient0)" fill-rule="evenodd" stroke="none"/>
    <path d="M365.4 57.95 L84.25 57.95 93.6 35.75 374.75 35.75 365.4 57.95 Z" fill="none" stroke="url(#gradient1)" stroke-linecap="square" stroke-linejoin="bevel" stroke-width="1.8"/>
    <path d="M332.95 64.45 L66.7 64.45 64.05 72.15 63.8 72.8 61.4 79.9 213.95 79.9 327.65 79.9 332.95 64.45 Z" fill="none" stroke="#333333" stroke-linecap="square" stroke-linejoin="bevel" stroke-width="4.5"/>
    <path d="M330.4 66.2 L68.0 66.2 63.95 78.15 326.35 78.15 330.4 66.2 M332.95 64.45 L327.65 79.9 279.85 79.9 258.25 79.9 213.95 79.9 152.35 79.9 121.3 79.9 61.4 79.9 63.8 72.8 64.05 72.15 66.7 64.45 121.3 64.45 152.35 64.45 258.25 64.45 279.85 64.45 332.95 64.45" fill="#660000" fill-opacity="0.7019608" fill-rule="evenodd" stroke="none"/>
    <path d="M279.85 64.45 L279.85 66.2 121.3 66.2 121.3 64.45 152.35 64.45 258.25 64.45 279.85 64.45 M279.85 79.9 L258.25 79.9 213.95 79.9 152.35 79.9 121.3 79.9 121.3 78.15 279.85 78.15 279.85 79.9" fill="url(#gradient2)" fill-rule="evenodd" stroke="none"/>
    <path d="M332.95 64.45 L66.7 64.45 64.05 72.15 63.8 72.8 61.4 79.9 213.95 79.9 327.65 79.9 332.95 64.45 Z" fill="none" stroke="url(#gradient3)" stroke-linecap="square" stroke-linejoin="bevel" stroke-width="1.7000000000000002"/>
  </g>
  <defs>
    <linearGradient gradientTransform="matrix(0.0831, 0.0, 0.0, 0.0135, 229.1, 46.85)" gradientUnits="userSpaceOnUse" id="gradient0" spreadMethod="pad" x1="-819.2" x2="819.2">
      <stop offset="0.0" stop-color="#8c4840" stop-opacity="0.039215688"/>
      <stop offset="0.5372549019607843" stop-color="#ffff00"/>
      <stop offset="1.0" stop-color="#904e46" stop-opacity="0.0"/>
    </linearGradient>
    <linearGradient gradientTransform="matrix(0.176, 0.0, 0.0, 0.0145, 229.5, 46.85)" gradientUnits="userSpaceOnUse" id="gradient1" spreadMethod="pad" x1="-819.2" x2="819.2">
      <stop offset="0.0" stop-color="#c9d0d7"/>
      <stop offset="0.5176470588235295" stop-color="#ffffff"/>
      <stop offset="1.0" stop-color="#cbd1d8"/>
    </linearGradient>
    <linearGradient gradientTransform="matrix(0.0968, 0.0, 0.0, 0.0094, 200.6, 72.15)" gradientUnits="userSpaceOnUse" id="gradient2" spreadMethod="pad" x1="-819.2" x2="819.2">
      <stop offset="0.0" stop-color="#8c4840" stop-opacity="0.039215688"/>
      <stop offset="0.5372549019607843" stop-color="#ffff00"/>
      <stop offset="1.0" stop-color="#904e46" stop-opacity="0.0"/>
    </linearGradient>
    <linearGradient gradientTransform="matrix(-0.1675, 0.0, -0.008, 0.0105, 197.15, 72.15)" gradientUnits="userSpaceOnUse" id="gradient3" spreadMethod="pad" x1="-819.2" x2="819.2">
      <stop offset="0.0" stop-color="#c9d0d7"/>
      <stop offset="0.5176470588235295" stop-color="#ffffff"/>
      <stop offset="1.0" stop-color="#cbd1d8"/>
    </linearGradient>
  </defs>
</svg>
