<?xml version="1.0" encoding="UTF-8" standalone="no"?>
<svg xmlns:xlink="http://www.w3.org/1999/xlink" height="53.0px" width="53.95px" xmlns="http://www.w3.org/2000/svg">
  <g transform="matrix(1.0, 0.0, 0.0, 1.0, 6.0, 5.0)">
    <path d="M41.95 13.8 L38.05 13.8 38.05 35.3 Q38.05 38.45 36.7 40.05 35.3 41.65 32.95 41.85 L24.0 42.0 Q23.6 39.15 22.6 35.75 L29.1 36.0 Q32.05 36.0 32.05 33.3 L32.05 13.8 19.95 13.8 19.95 8.25 32.05 8.25 32.05 1.0 38.05 1.0 38.05 8.25 41.95 8.25 41.95 13.8 M5.2 11.35 L10.8 19.85 Q12.4 15.15 13.05 9.7 L0.65 9.7 0.65 4.2 18.9 4.2 18.9 9.65 Q17.65 18.45 14.5 25.5 L20.75 34.9 15.5 38.3 11.4 31.5 Q7.95 37.05 3.1 41.35 L0.0 35.7 Q4.9 31.55 8.0 26.0 L0.6 14.25 5.2 11.35 M25.25 29.75 Q22.1 24.35 18.35 19.2 L22.7 16.25 Q26.8 21.4 30.3 26.45 L25.25 29.75 Z" fill="none" stroke="#330000" stroke-linecap="round" stroke-linejoin="round" stroke-width="12.0"/>
    <path d="M41.95 13.8 L38.05 13.8 38.05 35.3 Q38.05 38.45 36.7 40.05 35.3 41.65 32.95 41.85 L24.0 42.0 Q23.6 39.15 22.6 35.75 L29.1 36.0 Q32.05 36.0 32.05 33.3 L32.05 13.8 19.95 13.8 19.95 8.25 32.05 8.25 32.05 1.0 38.05 1.0 38.05 8.25 41.95 8.25 41.95 13.8 M13.05 9.7 L0.65 9.7 0.65 4.2 18.9 4.2 18.9 9.65 Q17.65 18.45 14.5 25.5 L20.75 34.9 15.5 38.3 11.4 31.5 Q7.95 37.05 3.1 41.35 L0.0 35.7 Q4.9 31.55 8.0 26.0 L0.6 14.25 5.2 11.35 10.8 19.85 Q12.4 15.15 13.05 9.7 M25.25 29.75 Q22.1 24.35 18.35 19.2 L22.7 16.25 Q26.8 21.4 30.3 26.45 L25.25 29.75" fill="url(#gradient0)" fill-rule="evenodd" stroke="none"/>
    <path d="M41.95 13.8 L38.05 13.8 38.05 35.3 Q38.05 38.45 36.7 40.05 35.3 41.65 32.95 41.85 L24.0 42.0 Q23.6 39.15 22.6 35.75 L29.1 36.0 Q32.05 36.0 32.05 33.3 L32.05 13.8 19.95 13.8 19.95 8.25 32.05 8.25 32.05 1.0 38.05 1.0 38.05 8.25 41.95 8.25 41.95 13.8 M13.05 9.7 L0.65 9.7 0.65 4.2 18.9 4.2 18.9 9.65 Q17.65 18.45 14.5 25.5 L20.75 34.9 15.5 38.3 11.4 31.5 Q7.95 37.05 3.1 41.35 L0.0 35.7 Q4.9 31.55 8.0 26.0 L0.6 14.25 5.2 11.35 10.8 19.85 Q12.4 15.15 13.05 9.7 M25.25 29.75 Q22.1 24.35 18.35 19.2 L22.7 16.25 Q26.8 21.4 30.3 26.45 L25.25 29.75 Z" fill="none" stroke="#660000" stroke-linecap="round" stroke-linejoin="round" stroke-width="4.0"/>
    <path d="M41.95 12.8 L38.05 12.8 38.05 23.35 32.05 23.35 32.05 12.8 19.95 12.8 19.95 7.25 32.05 7.25 32.05 0.0 38.05 0.0 38.05 7.25 41.95 7.25 41.95 12.8 M28.85 23.35 L21.9 23.35 18.35 18.2 22.7 15.25 28.85 23.35 M18.9 8.65 Q17.75 16.75 15.0 23.35 L6.95 23.35 0.6 13.25 5.2 10.35 10.8 18.85 Q12.4 14.15 13.05 8.7 L0.65 8.7 0.65 3.2 18.9 3.2 18.9 8.65" fill="url(#gradient1)" fill-rule="evenodd" stroke="none"/>
    <path d="M32.05 23.35 L38.05 23.35 38.05 34.3 Q38.05 37.45 36.7 39.05 35.3 40.65 32.95 40.85 L24.0 41.0 Q23.6 38.15 22.6 34.75 L29.1 35.0 Q32.05 35.0 32.05 32.3 L32.05 23.35 M21.9 23.35 L28.85 23.35 30.3 25.45 25.25 28.75 21.9 23.35 M14.5 24.5 L20.75 33.9 15.5 37.3 11.4 30.5 Q7.95 36.05 3.1 40.35 L0.0 34.7 Q4.9 30.55 8.0 25.0 L6.95 23.35 15.0 23.35 14.5 24.5" fill="url(#gradient2)" fill-rule="evenodd" stroke="none"/>
  </g>
  <defs>
    <linearGradient gradientTransform="matrix(0.0, -0.0163, 0.0255, 0.0, 107.0, 21.7)" gradientUnits="userSpaceOnUse" id="gradient0" spreadMethod="pad" x1="-819.2" x2="819.2">
      <stop offset="0.0" stop-color="#ff0066"/>
      <stop offset="1.0" stop-color="#ffff00"/>
    </linearGradient>
    <linearGradient gradientTransform="matrix(0.0, -0.0085, 0.0255, 0.0, 108.75, 12.8)" gradientUnits="userSpaceOnUse" id="gradient1" spreadMethod="pad" x1="-819.2" x2="819.2">
      <stop offset="0.0" stop-color="#ffffcc"/>
      <stop offset="1.0" stop-color="#ffff00"/>
    </linearGradient>
    <linearGradient gradientTransform="matrix(0.0, -0.0124, 0.0255, 0.0, 107.05, 28.3)" gradientUnits="userSpaceOnUse" id="gradient2" spreadMethod="pad" x1="-819.2" x2="819.2">
      <stop offset="0.0" stop-color="#ff0066"/>
      <stop offset="1.0" stop-color="#ffff00"/>
    </linearGradient>
  </defs>
</svg>
