<?xml version="1.0" encoding="UTF-8" standalone="no"?>
<svg xmlns:xlink="http://www.w3.org/1999/xlink" height="53.55px" width="46.2px" xmlns="http://www.w3.org/2000/svg">
  <g transform="matrix(1.0, 0.0, 0.0, 1.0, 6.0, 5.0)">
    <path d="M28.15 15.75 L28.15 11.7 6.05 11.7 6.05 15.75 M11.65 6.2 L12.9 1.0 19.85 1.95 18.2 6.2 34.2 6.2 34.2 42.5 28.15 42.5 28.15 40.0 6.05 40.0 6.05 42.55 0.0 42.55 0.0 6.2 11.65 6.2 M6.05 34.5 L28.15 34.5 28.15 30.35 6.05 30.35 6.05 34.5 M6.05 25.1 L28.15 25.1 M28.15 21.05 L6.05 21.05" fill="none" stroke="#330000" stroke-linecap="round" stroke-linejoin="round" stroke-width="12.0"/>
    <path d="M28.15 11.7 L6.05 11.7 6.05 15.75 28.15 15.75 28.15 11.7 M11.65 6.2 L12.9 1.0 19.85 1.95 18.2 6.2 34.2 6.2 34.2 42.5 28.15 42.5 28.15 40.0 6.05 40.0 6.05 42.55 0.0 42.55 0.0 6.2 11.65 6.2 M6.05 34.5 L28.15 34.5 28.15 30.35 6.05 30.35 6.05 34.5 M6.05 25.1 L28.15 25.1 28.15 21.05 6.05 21.05 6.05 25.1" fill="url(#gradient0)" fill-rule="evenodd" stroke="none"/>
    <path d="M28.15 11.7 L6.05 11.7 6.05 15.75 28.15 15.75 28.15 11.7 M11.65 6.2 L12.9 1.0 19.85 1.95 18.2 6.2 34.2 6.2 34.2 42.5 28.15 42.5 28.15 40.0 6.05 40.0 6.05 42.55 0.0 42.55 0.0 6.2 11.65 6.2 M6.05 34.5 L28.15 34.5 28.15 30.35 6.05 30.35 6.05 34.5 M6.05 25.1 L28.15 25.1 28.15 21.05 6.05 21.05 6.05 25.1 Z" fill="none" stroke="#660000" stroke-linecap="round" stroke-linejoin="round" stroke-width="4.0"/>
    <path d="M28.15 23.55 L28.15 20.05 6.05 20.05 6.05 23.55 0.0 23.55 0.0 5.2 11.65 5.2 12.9 0.0 19.85 0.95 18.2 5.2 34.2 5.2 34.2 23.55 28.15 23.55 M28.15 10.7 L6.05 10.7 6.05 14.75 28.15 14.75 28.15 10.7" fill="url(#gradient1)" fill-rule="evenodd" stroke="none"/>
    <path d="M28.15 23.55 L34.2 23.55 34.2 41.5 28.15 41.5 28.15 39.0 6.05 39.0 6.05 41.55 0.0 41.55 0.0 23.55 6.05 23.55 6.05 24.1 28.15 24.1 28.15 23.55 M6.05 33.5 L28.15 33.5 28.15 29.35 6.05 29.35 6.05 33.5" fill="url(#gradient2)" fill-rule="evenodd" stroke="none"/>
  </g>
  <defs>
    <linearGradient gradientTransform="matrix(0.0, -0.0163, 0.0255, 0.0, 189.25, 21.9)" gradientUnits="userSpaceOnUse" id="gradient0" spreadMethod="pad" x1="-819.2" x2="819.2">
      <stop offset="0.0" stop-color="#ff0066"/>
      <stop offset="1.0" stop-color="#ffff00"/>
    </linearGradient>
    <linearGradient gradientTransform="matrix(0.0, -0.0085, 0.0255, 0.0, 191.0, 13.0)" gradientUnits="userSpaceOnUse" id="gradient1" spreadMethod="pad" x1="-819.2" x2="819.2">
      <stop offset="0.0" stop-color="#ffffcc"/>
      <stop offset="1.0" stop-color="#ffff00"/>
    </linearGradient>
    <linearGradient gradientTransform="matrix(0.0, -0.0124, 0.0255, 0.0, 189.3, 28.5)" gradientUnits="userSpaceOnUse" id="gradient2" spreadMethod="pad" x1="-819.2" x2="819.2">
      <stop offset="0.0" stop-color="#ff0066"/>
      <stop offset="1.0" stop-color="#ffff00"/>
    </linearGradient>
  </defs>
</svg>
