<?xml version="1.0" encoding="UTF-8" standalone="no"?>
<svg xmlns:xlink="http://www.w3.org/1999/xlink" height="30.35px" width="68.45px" xmlns="http://www.w3.org/2000/svg">
  <g transform="matrix(1.0, 0.0, 0.0, 1.0, -2.85, -1.65)">
    <path d="M25.45 32.0 L18.05 20.65 26.0 22.7 29.95 11.05 34.5 16.75 39.9 13.15 41.0 16.25 49.9 8.4 49.9 14.6 52.55 12.05 52.55 19.6 58.4 17.5 58.4 23.0 63.35 24.65 56.4 32.0 25.45 32.0" fill="#ffffff" fill-rule="evenodd" stroke="none"/>
    <path d="M25.45 32.0 L20.8 32.0 2.85 14.05 14.05 17.95 8.15 8.25 24.5 14.6 29.0 1.65 37.1 10.7 57.65 2.65 55.05 15.4 66.3 11.05 61.3 22.15 71.3 19.95 60.65 32.0 56.4 32.0 63.35 24.65 58.4 23.0 58.4 17.5 52.55 19.6 52.55 12.05 49.9 14.6 49.9 8.4 41.0 16.25 39.9 13.15 34.5 16.75 29.95 11.05 26.0 22.7 18.05 20.65 25.45 32.0" fill="#d0fff8" fill-rule="evenodd" stroke="none"/>
  </g>
</svg>
