<?xml version="1.0" encoding="UTF-8" standalone="no"?>
<svg xmlns:xlink="http://www.w3.org/1999/xlink" height="29.35px" width="68.45px" xmlns="http://www.w3.org/2000/svg">
  <g transform="matrix(1.0, 0.0, 0.0, 1.0, -2.85, -2.65)">
    <path d="M24.3 32.0 L17.05 20.7 26.7 25.0 26.7 17.5 32.3 23.2 36.55 14.3 40.55 23.85 45.9 17.35 48.0 26.15 52.7 21.5 52.7 27.35 60.55 25.1 56.7 32.0 24.3 32.0" fill="#ffffff" fill-rule="evenodd" stroke="none"/>
    <path d="M24.3 32.0 L20.8 32.0 2.85 22.3 8.45 22.3 2.85 14.05 14.05 17.95 17.25 4.25 24.5 14.6 28.4 2.7 31.65 18.45 34.7 2.65 42.65 16.55 49.65 5.45 49.65 21.05 55.6 5.85 55.6 21.05 64.15 9.45 61.3 22.15 71.3 9.15 60.65 32.0 56.7 32.0 60.55 25.1 52.7 27.35 52.7 21.5 48.0 26.15 45.9 17.35 40.55 23.85 36.55 14.3 32.3 23.2 26.7 17.5 26.7 25.0 17.05 20.7 24.3 32.0" fill="#d0fff8" fill-rule="evenodd" stroke="none"/>
  </g>
</svg>
