<?xml version="1.0" encoding="UTF-8" standalone="no"?>
<svg xmlns:xlink="http://www.w3.org/1999/xlink" height="21.0px" width="36.5px" xmlns="http://www.w3.org/2000/svg">
  <g transform="matrix(1.0, 0.0, 0.0, 1.0, 18.25, 10.5)">
    <path d="M6.6 -6.5 Q7.15 -6.0 7.15 -5.25 7.15 -4.5 6.6 -4.0 6.1 -3.5 5.4 -3.5 4.7 -3.5 4.15 -4.0 3.65 -4.5 3.65 -5.25 3.65 -6.0 4.15 -6.5 4.7 -7.05 5.4 -7.05 6.1 -7.05 6.6 -6.5 M6.6 -0.55 Q7.15 0.0 7.15 0.7 7.15 1.45 6.6 1.95 6.1 2.5 5.4 2.5 4.7 2.5 4.15 1.95 3.65 1.45 3.65 0.7 3.65 0.0 4.15 -0.55 4.7 -1.05 5.4 -1.05 6.1 -1.05 6.6 -0.55 M11.1 -8.5 L11.1 3.8 0.2 3.8 0.2 6.75 -2.75 6.75 -2.75 2.25 0.15 -1.75 -3.4 -1.75 -3.4 -2.9 -2.25 -2.9 0.25 -5.0 -4.1 -5.0 -4.1 -8.05 -6.4 -8.05 -6.4 -5.15 -8.15 -5.15 -8.15 -2.75 -6.0 -2.75 -6.0 3.4 -7.25 5.05 -7.25 6.4 -5.05 6.4 -5.05 8.4 -0.35 8.4 0.7 6.75 11.1 6.75 11.1 8.35 11.7 8.35 16.25 5.45 16.25 3.7 14.15 3.7 14.15 -8.5 11.1 -8.5 M-12.4 -7.35 L-8.0 -7.35 -9.2 -4.85 -12.3 -4.85 -12.3 -1.5 -8.35 -1.5 -8.35 6.65 -10.55 8.45 -10.65 8.5 -16.25 8.5 -16.25 -1.5 -15.15 -1.5 -15.15 -8.5 -12.4 -8.5 -12.4 -7.35 M-1.35 -8.4 Q-0.8 -8.4 -0.4 -7.95 0.05 -7.5 0.05 -6.95 0.05 -6.35 -0.4 -5.95 -0.8 -5.5 -1.35 -5.5 -1.95 -5.5 -2.4 -5.95 -2.8 -6.35 -2.8 -6.95 -2.8 -7.5 -2.4 -7.95 L-1.35 -8.4 M-11.05 0.45 L-11.05 6.2 -13.85 6.2 -13.85 0.45 -11.05 0.45 Z" fill="none" stroke="#10161b" stroke-linecap="round" stroke-linejoin="round" stroke-width="4.0"/>
    <path d="M6.6 -6.5 Q7.15 -6.0 7.15 -5.25 7.15 -4.5 6.6 -4.0 6.1 -3.5 5.4 -3.5 4.7 -3.5 4.15 -4.0 3.65 -4.5 3.65 -5.25 3.65 -6.0 4.15 -6.5 4.7 -7.05 5.4 -7.05 6.1 -7.05 6.6 -6.5 M6.6 -0.55 Q7.15 0.0 7.15 0.7 7.15 1.45 6.6 1.95 6.1 2.5 5.4 2.5 4.7 2.5 4.15 1.95 3.65 1.45 3.65 0.7 3.65 0.0 4.15 -0.55 4.7 -1.05 5.4 -1.05 6.1 -1.05 6.6 -0.55 M11.1 -8.5 L11.1 3.8 0.2 3.8 0.2 6.75 -2.75 6.75 -2.75 2.25 0.15 -1.75 -3.4 -1.75 -3.4 -2.9 -2.25 -2.9 0.25 -5.0 -4.1 -5.0 -4.1 -8.05 -6.4 -8.05 -6.4 -5.15 -8.15 -5.15 -8.15 -2.75 -6.0 -2.75 -6.0 3.4 -7.25 5.05 -7.25 6.4 -5.05 6.4 -5.05 8.4 -0.35 8.4 0.7 6.75 11.1 6.75 11.1 8.35 11.7 8.35 16.25 5.45 16.25 3.7 14.15 3.7 14.15 -8.5 11.1 -8.5 M-12.4 -7.35 L-8.0 -7.35 -9.2 -4.85 -12.3 -4.85 -12.3 -1.5 -8.35 -1.5 -8.35 6.65 -10.55 8.45 -10.65 8.5 -16.25 8.5 -16.25 -1.5 -15.15 -1.5 -15.15 -8.5 -12.4 -8.5 -12.4 -7.35 M-1.35 -8.4 Q-0.8 -8.4 -0.4 -7.95 0.05 -7.5 0.05 -6.95 0.05 -6.35 -0.4 -5.95 -0.8 -5.5 -1.35 -5.5 -1.95 -5.5 -2.4 -5.95 -2.8 -6.35 -2.8 -6.95 -2.8 -7.5 -2.4 -7.95 L-1.35 -8.4 M-11.05 0.45 L-11.05 6.2 -13.85 6.2 -13.85 0.45 -11.05 0.45 Z" fill="none" stroke="#006699" stroke-linecap="round" stroke-linejoin="round" stroke-width="2.0"/>
    <path d="M6.6 -6.5 Q7.15 -6.0 7.15 -5.25 7.15 -4.5 6.6 -4.0 6.1 -3.5 5.4 -3.5 4.7 -3.5 4.15 -4.0 3.65 -4.5 3.65 -5.25 3.65 -6.0 4.15 -6.5 4.7 -7.05 5.4 -7.05 6.1 -7.05 6.6 -6.5 M6.6 -0.55 Q7.15 0.0 7.15 0.7 7.15 1.45 6.6 1.95 6.1 2.5 5.4 2.5 4.7 2.5 4.15 1.95 3.65 1.45 3.65 0.7 3.65 0.0 4.15 -0.55 4.7 -1.05 5.4 -1.05 6.1 -1.05 6.6 -0.55 M11.1 -8.5 L14.15 -8.5 14.15 3.7 16.25 3.7 16.25 5.45 11.7 8.35 11.1 8.35 11.1 6.75 0.7 6.75 -0.35 8.4 -5.05 8.4 -5.05 6.4 -7.25 6.4 -7.25 5.05 -6.0 3.4 -6.0 -2.75 -8.15 -2.75 -8.15 -5.15 -6.4 -5.15 -6.4 -8.05 -4.1 -8.05 -4.1 -5.0 0.25 -5.0 -2.25 -2.9 -3.4 -2.9 -3.4 -1.75 0.15 -1.75 -2.75 2.25 -2.75 6.75 0.2 6.75 0.2 3.8 11.1 3.8 11.1 -8.5 M-12.4 -7.35 L-8.0 -7.35 -9.2 -4.85 -12.3 -4.85 -12.3 -1.5 -8.35 -1.5 -8.35 6.65 -10.55 8.45 -10.65 8.5 -16.25 8.5 -16.25 -1.5 -15.15 -1.5 -15.15 -8.5 -12.4 -8.5 -12.4 -7.35 M-1.35 -8.4 Q-0.8 -8.4 -0.4 -7.95 0.05 -7.5 0.05 -6.95 0.05 -6.35 -0.4 -5.95 -0.8 -5.5 -1.35 -5.5 -1.95 -5.5 -2.4 -5.95 -2.8 -6.35 -2.8 -6.95 -2.8 -7.5 -2.4 -7.95 L-1.35 -8.4 M-11.05 0.45 L-13.85 0.45 -13.85 6.2 -11.05 6.2 -11.05 0.45" fill="url(#gradient0)" fill-rule="evenodd" stroke="none"/>
  </g>
  <defs>
    <linearGradient gradientTransform="matrix(0.0, -0.0114, 0.0104, 0.0, 0.0, 0.0)" gradientUnits="userSpaceOnUse" id="gradient0" spreadMethod="pad" x1="-819.2" x2="819.2">
      <stop offset="0.0" stop-color="#52e5f9"/>
      <stop offset="1.0" stop-color="#ccffff"/>
    </linearGradient>
  </defs>
</svg>
