<?xml version="1.0" encoding="UTF-8" standalone="no"?>
<svg xmlns:xlink="http://www.w3.org/1999/xlink" height="205.0px" width="40.5px" xmlns="http://www.w3.org/2000/svg">
  <g transform="matrix(1.0, 0.0, 0.0, 1.0, 13.5, 35.0)">
    <path d="M8.5 -6.5 Q8.5 -4.95 2.0 2.75 -4.5 10.4 -4.5 12.0 L1.0 24.15 Q6.5 36.05 6.5 37.75 6.5 38.85 1.0 51.75 -4.5 64.6 -4.5 66.0 -4.5 69.6 -0.25 81.3 4.0 93.05 4.0 95.25 4.0 96.45 1.5 99.5 -1.0 102.55 -1.0 103.5 L4.75 111.55 Q10.5 120.7 10.5 127.5 10.5 131.55 8.25 140.7 L6.0 150.0 Q6.0 150.7 12.0 158.2 L16.55 164.2 21.15 159.5 13.0 151.45 Q11.8 150.2 11.75 148.55 11.6 139.65 14.95 131.35 16.4 127.65 15.6 124.15 9.95 99.75 0.0 75.65 5.0 57.1 10.75 38.85 12.15 34.35 11.75 29.95 10.85 20.55 4.0 12.05 6.95 6.0 10.25 0.15 13.85 -6.15 15.55 -13.35 L15.45 -14.65 Q13.1 -25.1 8.85 -35.0 17.3 -22.05 20.6 -6.85 L11.55 8.9 Q11.85 11.0 13.1 12.8 16.6 17.8 21.55 22.0 14.8 41.8 11.4 62.55 9.7 72.95 10.85 83.4 11.4 88.6 14.6 93.15 31.9 117.9 15.2 143.05 L27.0 160.4 10.8 170.0 14.45 166.35 Q11.5 162.45 7.85 156.45 2.5 147.7 2.5 147.0 L5.25 137.2 Q8.0 127.15 8.0 125.25 8.0 123.1 6.35 120.4 L3.5 116.0 Q1.6 112.7 -2.9 106.0 L-7.0 100.0 -5.0 93.4 Q-3.0 86.7 -3.0 84.5 -3.0 81.65 -6.75 71.35 L-10.5 61.25 -5.25 49.5 Q0.0 37.5 0.0 35.75 -9.0 16.65 -13.5 6.0 -9.15 3.85 3.5 -9.25 L2.5 -18.5 1.9 -24.1 5.1 -16.05 Q8.5 -7.7 8.5 -6.5 M8.9 86.2 Q9.45 86.0 8.95 86.15 L8.9 86.2" fill="#ffffff" fill-rule="evenodd" stroke="none"/>
  </g>
</svg>
