<?xml version="1.0" encoding="UTF-8" standalone="no"?>
<svg xmlns:xlink="http://www.w3.org/1999/xlink" height="195.4px" width="32.05px" xmlns="http://www.w3.org/2000/svg">
  <g transform="matrix(1.0, 0.0, 0.0, 1.0, 1.55, 26.75)">
    <path d="M14.45 -18.55 L19.9 -8.5 24.0 -0.75 20.25 5.1 16.5 10.75 Q16.5 12.4 21.0 17.5 25.5 22.6 25.5 24.0 L20.5 30.45 Q15.5 36.6 15.5 37.75 15.5 39.0 23.0 47.75 30.5 56.5 30.5 57.75 L23.0 64.75 Q15.5 71.45 15.5 72.0 15.5 73.1 20.25 79.75 25.0 86.4 25.0 87.75 25.0 89.0 19.5 91.95 14.0 94.9 14.0 97.0 L29.0 117.25 Q29.0 118.75 22.25 128.0 15.5 137.2 15.5 138.75 15.5 141.9 17.0 151.0 18.5 160.15 18.5 162.75 L18.5 165.5 Q17.2 161.6 14.65 148.75 12.0 135.6 12.0 132.5 12.0 131.4 17.25 125.75 22.5 120.05 22.5 119.5 22.5 115.95 18.1 107.8 14.3 100.75 10.0 95.0 11.15 93.8 15.25 91.3 18.35 89.35 20.0 88.5 18.3 86.95 15.05 77.7 11.65 67.9 11.0 67.0 L19.9 62.2 Q25.0 59.05 25.0 58.0 25.0 54.3 18.5 45.0 13.0 37.15 11.5 36.0 L21.0 25.75 Q21.0 25.0 17.0 19.55 L15.95 18.1 15.95 18.2 Q15.95 20.3 11.55 28.85 L7.85 36.05 Q9.7 40.3 13.25 46.3 16.5 51.65 16.5 52.25 L11.8 56.3 Q8.0 59.85 6.2 62.85 L12.75 78.0 Q12.75 79.15 11.6 80.1 L8.8 82.1 Q6.15 83.85 4.35 86.25 6.35 91.3 12.75 105.3 17.05 111.55 17.05 112.0 17.05 113.3 14.35 121.4 11.65 129.4 11.65 130.2 11.65 134.55 12.8 141.5 14.1 149.5 14.35 153.0 14.55 155.95 14.25 162.95 14.25 166.15 14.55 168.6 L14.3 168.65 8.4 131.75 Q10.5 116.45 12.0 111.7 L12.1 111.45 Q10.9 107.3 4.65 99.2 L-1.55 91.2 Q-1.55 89.15 2.65 82.5 L6.85 75.8 Q6.85 73.4 3.15 71.25 -0.55 69.05 -0.55 68.45 -0.55 67.25 3.7 58.95 L7.95 50.8 Q7.95 49.1 5.45 45.9 3.3 43.25 1.35 40.2 L1.2 39.95 Q3.15 35.35 6.85 27.45 L10.1 20.4 6.9 16.3 Q3.7 12.25 3.7 11.75 L6.9 5.2 8.65 1.3 10.1 -2.15 Q10.1 -4.3 7.95 -8.7 5.8 -12.75 5.8 -12.95 5.8 -16.0 6.7 -19.75 L8.4 -26.75 8.55 -24.55 Q9.2 -15.45 9.55 -14.7 L15.95 -3.65 13.3 3.05 Q10.65 9.25 10.65 10.2 10.65 11.05 13.3 14.15 L13.85 14.8 Q13.0 13.25 13.0 12.5 L12.5 12.5 16.45 6.5 20.5 0.5 Q17.85 -4.7 11.1 -18.85 L14.45 -18.55" fill="#ffffff" fill-rule="evenodd" stroke="none"/>
  </g>
</svg>
