<?xml version="1.0" encoding="UTF-8" standalone="no"?>
<svg xmlns:xlink="http://www.w3.org/1999/xlink" height="178.2px" width="30.5px" xmlns="http://www.w3.org/2000/svg">
  <g transform="matrix(1.0, 0.0, 0.0, 1.0, 6.0, 21.45)">
    <path d="M6.05 -15.3 L5.25 -6.05 11.3 2.0 Q15.8 -2.9 19.0 -5.5 18.45 -6.85 11.45 -15.2 L17.95 -9.4 Q23.55 -4.1 24.5 -3.5 23.85 -2.45 14.3 6.15 16.5 9.3 16.5 9.75 16.5 16.55 12.35 29.6 L12.65 29.9 Q24.0 40.7 24.0 43.5 L11.3 60.85 14.1 64.75 20.5 74.3 Q15.65 88.7 11.0 99.65 L10.35 101.15 Q14.7 107.8 19.0 113.5 17.7 113.7 10.85 122.55 L15.9 129.55 18.3 132.85 Q15.65 143.9 12.55 152.65 L11.2 156.75 11.95 152.35 Q13.8 141.95 13.8 138.85 13.8 137.75 10.05 131.1 L7.55 126.85 6.65 125.45 Q3.45 120.45 -0.55 115.25 L0.85 112.25 7.1 99.75 7.9 98.15 4.25 92.9 Q-6.0 78.45 -6.0 78.0 L5.7 62.85 -0.7 55.2 5.4 31.05 Q-3.0 21.05 -3.0 19.75 -3.0 18.55 5.15 8.95 L7.8 5.9 5.3 3.1 0.0 -2.3 Q0.0 -3.55 3.3 -12.1 L6.5 -21.45 6.05 -15.3 M10.5 9.6 Q1.6 17.6 0.5 19.0 L7.0 24.6 10.55 10.0 10.5 9.6 M18.0 47.0 Q18.0 46.05 10.0 36.55 6.05 48.05 4.75 52.8 L9.3 58.2 18.0 47.0 M8.0 65.45 Q-1.5 78.65 -1.5 79.75 -1.5 82.15 5.7 93.8 L8.15 97.7 Q15.4 82.2 15.4 73.65 L8.85 66.4 8.0 65.45 M14.5 109.5 Q14.5 108.1 10.2 101.55 L4.9 113.55 9.25 120.25 14.5 109.5" fill="#ffffff" fill-rule="evenodd" stroke="none"/>
  </g>
</svg>
