<?xml version="1.0" encoding="UTF-8" standalone="no"?>
<svg xmlns:xlink="http://www.w3.org/1999/xlink" height="30.35px" width="30.35px" xmlns="http://www.w3.org/2000/svg">
  <g transform="matrix(1.0, 0.0, 0.0, 1.0, 0.0, 0.0)">
    <path d="M28.0 15.2 Q28.0 20.55 24.2 24.4 20.35 28.2 15.05 28.2 9.65 28.2 5.85 24.4 2.05 20.55 2.05 15.2 2.05 9.8 5.85 6.0 9.65 2.25 15.05 2.25 20.35 2.25 24.2 6.0 28.0 9.8 28.0 15.2" fill="#ffffff" fill-rule="evenodd" stroke="none"/>
    <path d="M29.4 15.0 Q29.4 20.95 25.2 25.2 20.95 29.4 15.05 29.4 9.1 29.4 4.85 25.2 0.65 20.95 0.65 15.0 0.65 9.05 4.85 4.8 9.1 0.65 15.05 0.65 20.95 0.65 25.2 4.8 29.4 9.05 29.4 15.0 M28.0 15.2 Q28.0 9.8 24.2 6.0 20.35 2.25 15.05 2.25 9.65 2.25 5.85 6.0 2.05 9.8 2.05 15.2 2.05 20.55 5.85 24.4 9.65 28.2 15.05 28.2 20.35 28.2 24.2 24.4 28.0 20.55 28.0 15.2" fill="#ffffff" fill-opacity="0.49803922" fill-rule="evenodd" stroke="none"/>
    <path d="M29.4 15.0 Q29.4 9.05 25.2 4.8 20.95 0.65 15.05 0.65 9.1 0.65 4.85 4.8 0.65 9.05 0.65 15.0 0.65 20.95 4.85 25.2 9.1 29.4 15.05 29.4 20.95 29.4 25.2 25.2 29.4 20.95 29.4 15.0 M30.35 15.15 Q30.35 21.45 25.9 25.9 21.45 30.35 15.2 30.35 8.9 30.35 4.45 25.9 0.0 21.45 0.0 15.15 0.0 8.85 4.45 4.4 8.9 0.0 15.2 0.0 21.45 0.0 25.9 4.4 30.35 8.85 30.35 15.15" fill="#ffffff" fill-opacity="0.29803923" fill-rule="evenodd" stroke="none"/>
  </g>
</svg>
