<?xml version="1.0" encoding="UTF-8" standalone="no"?>
<svg xmlns:xlink="http://www.w3.org/1999/xlink" height="30.7px" width="28.8px" xmlns="http://www.w3.org/2000/svg">
  <g transform="matrix(1.0, 0.0, 0.0, 1.0, 14.55, 15.65)">
    <path d="M12.55 -0.55 Q13.55 0.1 12.95 1.7 14.05 2.75 13.55 3.7 12.95 4.65 11.8 4.45 11.3 5.5 10.2 5.75 9.05 6.0 8.4 4.45 6.65 4.3 6.35 2.85 6.0 1.35 7.7 0.5 7.65 -1.2 9.15 -1.45 10.05 -1.65 10.75 -0.8 11.55 -1.2 12.55 -0.55 M7.9 -5.55 Q8.2 -3.9 6.6 -2.3 5.0 -0.75 2.35 -2.5 -0.05 -0.8 -1.6 -2.2 -3.15 -3.6 -2.25 -5.7 -4.15 -7.05 -4.1 -9.2 -4.1 -11.4 -0.95 -12.0 -0.05 -15.2 2.8 -15.15 5.65 -15.2 6.6 -11.75 9.7 -11.1 9.7 -8.25 9.7 -6.55 7.9 -5.55 M3.1 10.8 Q3.0 14.0 0.2 14.5 -1.5 14.75 -2.75 13.15 -4.3 13.75 -6.15 12.45 -8.0 11.15 -6.7 8.25 -8.8 6.15 -7.7 4.45 -6.65 2.7 -4.4 3.2 -3.4 1.1 -1.25 0.75 0.9 0.35 2.05 3.35 5.3 3.7 5.8 6.5 6.3 9.3 3.1 10.8 M-10.45 -2.3 Q-9.85 -2.6 -9.05 -2.1 -8.25 -1.6 -8.75 -0.3 -7.85 0.55 -8.25 1.3 -8.7 2.05 -9.65 1.9 -10.05 2.75 -10.95 2.95 -11.85 3.15 -12.35 1.9 -13.75 1.8 -14.0 0.6 -14.25 -0.6 -12.95 -1.25 -12.95 -2.6 -11.75 -2.85 -11.05 -3.0 -10.45 -2.3" fill="#ffffff" fill-rule="evenodd" stroke="none"/>
    <path d="M12.55 -0.55 Q13.55 0.1 12.95 1.7 14.05 2.75 13.55 3.7 12.95 4.65 11.8 4.45 11.3 5.5 10.2 5.75 9.05 6.0 8.4 4.45 6.65 4.3 6.35 2.85 6.0 1.35 7.7 0.5 7.65 -1.2 9.15 -1.45 10.05 -1.65 10.75 -0.8 11.55 -1.2 12.55 -0.55 M7.9 -5.55 Q8.2 -3.9 6.6 -2.3 5.0 -0.75 2.35 -2.5 -0.05 -0.8 -1.6 -2.2 -3.15 -3.6 -2.25 -5.7 -4.15 -7.05 -4.1 -9.2 -4.1 -11.4 -0.95 -12.0 -0.05 -15.2 2.8 -15.15 5.65 -15.2 6.6 -11.75 9.7 -11.1 9.7 -8.25 9.7 -6.55 7.9 -5.55 M3.1 10.8 Q3.0 14.0 0.2 14.5 -1.5 14.75 -2.75 13.15 -4.3 13.75 -6.15 12.45 -8.0 11.15 -6.7 8.25 -8.8 6.15 -7.7 4.45 -6.65 2.7 -4.4 3.2 -3.4 1.1 -1.25 0.75 0.9 0.35 2.05 3.35 5.3 3.7 5.8 6.5 6.3 9.3 3.1 10.8 M-10.45 -2.3 Q-9.85 -2.6 -9.05 -2.1 -8.25 -1.6 -8.75 -0.3 -7.85 0.55 -8.25 1.3 -8.7 2.05 -9.65 1.9 -10.05 2.75 -10.95 2.95 -11.85 3.15 -12.35 1.9 -13.75 1.8 -14.0 0.6 -14.25 -0.6 -12.95 -1.25 -12.95 -2.6 -11.75 -2.85 -11.05 -3.0 -10.45 -2.3 Z" fill="none" stroke="#cccccc" stroke-linecap="butt" stroke-linejoin="miter-clip" stroke-miterlimit="3.0" stroke-width="1.0"/>
  </g>
</svg>
