<?xml version="1.0" encoding="UTF-8" standalone="no"?>
<svg xmlns:xlink="http://www.w3.org/1999/xlink" height="78.05px" width="116.5px" xmlns="http://www.w3.org/2000/svg">
  <g transform="matrix(1.0, 0.0, 0.0, 1.0, 0.0, 0.0)">
    <path d="M114.0 8.8 L107.7 2.5 8.85 2.5 2.5 8.8 2.5 70.35 7.7 75.55 108.85 75.55 114.0 70.4 114.0 8.8 M116.5 7.75 L116.5 71.45 109.9 78.05 6.7 78.05 0.0 71.45 0.0 7.75 7.8 0.0 108.8 0.0 116.5 7.75" fill="#10161b" fill-rule="evenodd" stroke="none"/>
    <path d="M114.0 8.8 L114.0 70.4 108.85 75.55 7.7 75.55 2.5 70.35 2.5 8.8 8.85 2.5 107.7 2.5 114.0 8.8" fill="#10161b" fill-opacity="0.8" fill-rule="evenodd" stroke="none"/>
  </g>
</svg>
