<?xml version="1.0" encoding="UTF-8" standalone="no"?>
<svg xmlns:xlink="http://www.w3.org/1999/xlink" height="72.45px" width="86.45px" xmlns="http://www.w3.org/2000/svg">
  <g transform="matrix(1.0, 0.0, 0.0, 1.0, 46.8, 32.0)">
    <path d="M20.4 -23.5 L20.75 -23.85 Q21.9 -25.0 20.75 -26.3 L20.6 -26.45 20.75 -26.3 Q21.9 -25.0 20.75 -23.85 L20.4 -23.5 M23.65 -28.55 Q26.05 -28.55 26.85 -25.8 29.45 -25.35 29.45 -23.1 L30.2 -22.7 Q30.8 -23.4 31.6 -23.1 33.3 -22.45 33.2 -20.7 34.8 -19.1 33.0 -17.7 33.45 -15.8 31.8 -15.1 30.75 -14.65 29.45 -15.8 29.0 -14.85 27.55 -15.4 26.1 -16.0 26.8 -17.75 L26.55 -18.0 Q25.25 -17.15 23.25 -18.4 21.25 -17.05 19.95 -18.15 18.65 -19.25 19.4 -20.95 L19.2 -20.85 Q18.15 -20.45 16.85 -21.6 16.35 -20.65 14.95 -21.2 13.5 -21.8 14.2 -23.55 12.6 -24.85 13.3 -26.5 13.9 -28.15 15.6 -28.85 16.5 -29.25 17.6 -28.5 18.2 -29.2 18.95 -28.85 20.65 -28.2 20.6 -26.45 21.45 -28.55 23.65 -28.55 M36.1 -12.9 Q36.7 -12.5 36.3 -11.5 37.05 -10.8 36.7 -10.2 36.35 -9.6 35.55 -9.7 35.25 -9.0 34.55 -8.85 33.8 -8.7 33.4 -9.7 32.25 -9.8 32.1 -10.75 31.85 -11.7 32.9 -12.25 32.9 -13.35 33.9 -13.55 34.45 -13.65 34.9 -13.1 35.45 -13.35 36.1 -12.9 M26.85 22.65 Q29.35 23.15 29.35 25.45 29.35 26.85 27.9 27.65 28.15 29.0 26.85 30.3 25.55 31.6 23.4 30.15 21.45 31.5 20.2 30.4 18.95 29.25 19.65 27.55 18.1 26.45 18.1 24.7 18.1 22.95 20.7 22.45 21.45 19.85 23.75 19.85 26.05 19.85 26.85 22.65 M26.45 17.1 Q25.9 15.5 26.7 14.0 27.1 13.15 28.35 13.05 28.35 12.15 29.1 11.9 30.75 11.35 31.75 12.65 33.8 12.8 33.4 14.9 34.9 15.95 34.15 17.5 33.6 18.45 32.0 18.4 32.2 19.35 30.85 19.8 29.45 20.3 28.9 18.65 26.95 18.65 26.45 17.1 M34.35 25.05 Q34.5 23.55 35.85 23.55 37.2 23.55 37.5 25.05 39.1 25.45 39.15 26.85 39.1 28.2 37.25 28.9 37.2 30.1 35.85 30.1 34.5 30.05 34.15 28.2 32.6 28.2 32.6 26.85 32.6 25.45 34.35 25.05 M-42.0 -6.3 Q-41.3 -5.65 -41.6 -5.0 -42.0 -4.4 -42.75 -4.55 -43.05 -3.85 -43.75 -3.7 -44.5 -3.55 -44.95 -4.55 -46.05 -4.65 -46.25 -5.55 -46.5 -6.55 -45.4 -7.1 -45.4 -8.2 -44.45 -8.35 -43.85 -8.5 -43.4 -7.95 -42.9 -8.2 -42.25 -7.75 -41.6 -7.35 -42.0 -6.3 M-19.15 -28.1 Q-19.5 -27.5 -20.25 -27.6 -20.55 -26.9 -21.25 -26.75 -22.0 -26.6 -22.45 -27.6 -23.55 -27.7 -23.75 -28.65 -24.0 -29.65 -22.95 -30.2 -22.95 -31.25 -21.95 -31.45 -21.4 -31.6 -20.9 -31.05 -20.4 -31.25 -19.75 -30.85 -19.1 -30.45 -19.5 -29.4 -18.8 -28.75 -19.15 -28.1 M-29.25 -14.75 Q-28.7 -14.0 -29.15 -13.25 -30.2 -11.7 -31.95 -12.2 -33.9 -10.95 -34.95 -13.0 -37.05 -13.0 -37.4 -14.85 -37.65 -16.05 -36.2 -17.05 -37.1 -17.75 -36.2 -19.05 -35.35 -20.4 -33.7 -19.3 -32.9 -19.95 -32.1 -20.0 L-32.2 -21.0 Q-32.25 -22.8 -29.45 -23.3 -28.6 -25.95 -26.05 -25.95 -23.55 -25.95 -22.7 -23.15 L-20.85 -23.25 Q-20.5 -24.25 -19.45 -24.25 -17.2 -24.3 -16.5 -22.35 -14.0 -21.35 -15.4 -19.05 -13.95 -17.15 -15.5 -15.65 -16.55 -14.7 -18.5 -15.4 -18.65 -14.15 -20.5 -14.15 -22.05 -14.15 -22.4 -15.55 L-22.65 -15.25 Q-24.1 -13.95 -26.45 -15.45 -28.1 -14.35 -29.25 -14.75 -28.3 -15.7 -28.5 -16.65 -28.9 -18.5 -30.45 -19.55 -31.3 -20.1 -32.1 -20.0 -31.3 -20.1 -30.45 -19.55 -28.9 -18.5 -28.5 -16.65 -28.3 -15.7 -29.25 -14.75 M-22.45 -16.35 L-22.4 -15.55 -22.45 -16.35 M-23.95 21.55 Q-22.2 21.55 -20.9 22.9 -20.25 23.65 -20.5 25.0 -19.65 25.3 -19.65 26.15 L-19.65 26.3 -18.95 26.15 Q-16.85 25.75 -15.7 28.75 -13.25 29.0 -12.35 30.65 L-11.95 30.6 Q-9.85 30.6 -8.35 32.1 -7.6 32.85 -7.9 34.3 -6.9 34.6 -6.9 35.6 -6.9 37.65 -8.8 38.3 -9.85 40.55 -12.15 39.25 -14.05 40.55 -15.5 39.1 L-15.6 39.0 Q-16.35 39.65 -17.5 39.9 -19.2 40.15 -20.45 38.55 -22.05 39.15 -23.85 37.85 -25.7 36.55 -24.4 33.65 L-25.55 32.1 Q-26.05 31.1 -25.6 30.15 -26.35 30.15 -27.0 29.45 -27.85 28.6 -27.2 26.9 -28.3 26.8 -28.3 25.2 -28.3 23.55 -26.4 23.55 -25.8 21.55 -23.95 21.55 M-29.7 29.9 Q-30.15 30.7 -31.15 30.55 -31.55 31.4 -32.45 31.6 -33.35 31.8 -33.85 30.55 -35.3 30.4 -35.55 29.25 -35.8 28.0 -34.45 27.35 -34.5 25.95 -33.3 25.75 -32.55 25.55 -32.0 26.25 -31.3 25.95 -30.5 26.5 -29.7 27.0 -30.25 28.3 -29.3 29.15 -29.7 29.9 M-24.15 29.6 Q-24.95 30.15 -25.6 30.15 -24.95 30.15 -24.15 29.6 M-14.8 32.8 Q-17.05 32.8 -17.0 34.5 -17.0 36.25 -15.75 36.4 -16.45 38.05 -15.6 39.0 -16.45 38.05 -15.75 36.4 -17.0 36.25 -17.0 34.5 -17.05 32.8 -14.8 32.8 M-21.3 28.65 Q-19.7 28.1 -19.65 26.3 -19.7 28.1 -21.3 28.65" fill="#ffffff" fill-rule="evenodd" stroke="none"/>
    <path d="M36.1 -12.9 Q36.7 -12.5 36.3 -11.5 37.05 -10.8 36.7 -10.2 36.35 -9.6 35.55 -9.7 35.25 -9.0 34.55 -8.85 33.8 -8.7 33.4 -9.7 32.25 -9.8 32.1 -10.75 31.85 -11.7 32.9 -12.25 32.9 -13.35 33.9 -13.55 34.45 -13.65 34.9 -13.1 35.45 -13.35 36.1 -12.9 M26.85 22.65 Q29.35 23.15 29.35 25.45 29.35 26.85 27.9 27.65 28.15 29.0 26.85 30.3 25.55 31.6 23.4 30.15 21.45 31.5 20.2 30.4 18.95 29.25 19.65 27.55 18.1 26.45 18.1 24.7 18.1 22.95 20.7 22.45 21.45 19.85 23.75 19.85 26.05 19.85 26.85 22.65 M26.45 17.1 Q25.9 15.5 26.7 14.0 27.1 13.15 28.35 13.05 28.35 12.15 29.1 11.9 30.75 11.35 31.75 12.65 33.8 12.8 33.4 14.9 34.9 15.95 34.15 17.5 33.6 18.45 32.0 18.4 32.2 19.35 30.85 19.8 29.45 20.3 28.9 18.65 26.95 18.65 26.45 17.1 M34.35 25.05 Q34.5 23.55 35.85 23.55 37.2 23.55 37.5 25.05 39.1 25.45 39.15 26.85 39.1 28.2 37.25 28.9 37.2 30.1 35.85 30.1 34.5 30.05 34.15 28.2 32.6 28.2 32.6 26.85 32.6 25.45 34.35 25.05 M-42.0 -6.3 Q-41.3 -5.65 -41.6 -5.0 -42.0 -4.4 -42.75 -4.55 -43.05 -3.85 -43.75 -3.7 -44.5 -3.55 -44.95 -4.55 -46.05 -4.65 -46.25 -5.55 -46.5 -6.55 -45.4 -7.1 -45.4 -8.2 -44.45 -8.35 -43.85 -8.5 -43.4 -7.95 -42.9 -8.2 -42.25 -7.75 -41.6 -7.35 -42.0 -6.3 M-29.7 29.9 Q-30.15 30.7 -31.15 30.55 -31.55 31.4 -32.45 31.6 -33.35 31.8 -33.85 30.55 -35.3 30.4 -35.55 29.25 -35.8 28.0 -34.45 27.35 -34.5 25.95 -33.3 25.75 -32.55 25.55 -32.0 26.25 -31.3 25.95 -30.5 26.5 -29.7 27.0 -30.25 28.3 -29.3 29.15 -29.7 29.9" fill="none" stroke="#cccccc" stroke-linecap="butt" stroke-linejoin="miter-clip" stroke-miterlimit="3.0" stroke-width="1.0"/>
    <path d="M-19.15 -28.1 Q-19.5 -27.5 -20.25 -27.6 -20.55 -26.9 -21.25 -26.75 -22.0 -26.6 -22.45 -27.6 -23.55 -27.7 -23.75 -28.65 -24.0 -29.65 -22.95 -30.2 -22.95 -31.25 -21.95 -31.45 -21.4 -31.6 -20.9 -31.05 -20.4 -31.25 -19.75 -30.85 -19.1 -30.45 -19.5 -29.4 -18.8 -28.75 -19.15 -28.1" fill="none" stroke="#cccccc" stroke-linecap="butt" stroke-linejoin="miter-clip" stroke-miterlimit="3.0" stroke-width="1.0"/>
    <path d="M20.6 -26.45 L20.75 -26.3 Q21.9 -25.0 20.75 -23.85 L20.4 -23.5 M20.6 -26.45 Q21.45 -28.55 23.65 -28.55 M-22.4 -15.55 L-22.45 -16.35 M-25.6 30.15 Q-26.35 30.15 -27.0 29.45 -27.85 28.6 -27.2 26.9 -28.3 26.8 -28.3 25.2 -28.3 23.55 -26.4 23.55 -25.8 21.55 -23.95 21.55 M-25.6 30.15 Q-24.95 30.15 -24.15 29.6 M-15.6 39.0 Q-16.45 38.05 -15.75 36.4 -17.0 36.25 -17.0 34.5 -17.05 32.8 -14.8 32.8 M-19.65 26.3 Q-19.7 28.1 -21.3 28.65" fill="none" stroke="#cccccc" stroke-linecap="round" stroke-linejoin="miter-clip" stroke-miterlimit="3.0" stroke-width="1.0"/>
    <path d="M23.65 -28.55 Q26.05 -28.55 26.85 -25.8 29.45 -25.35 29.45 -23.1 L30.2 -22.7 Q30.8 -23.4 31.6 -23.1 33.3 -22.45 33.2 -20.7 34.8 -19.1 33.0 -17.7 33.45 -15.8 31.8 -15.1 30.75 -14.65 29.45 -15.8 29.0 -14.85 27.55 -15.4 26.1 -16.0 26.8 -17.75 L26.55 -18.0 Q25.25 -17.15 23.25 -18.4 21.25 -17.05 19.95 -18.15 18.65 -19.25 19.4 -20.95 L19.2 -20.85 Q18.15 -20.45 16.85 -21.6 16.35 -20.65 14.95 -21.2 13.5 -21.8 14.2 -23.55 12.6 -24.85 13.3 -26.5 13.9 -28.15 15.6 -28.85 16.5 -29.25 17.6 -28.5 18.2 -29.2 18.95 -28.85 20.65 -28.2 20.6 -26.45 M-23.95 21.55 Q-22.2 21.55 -20.9 22.9 -20.25 23.65 -20.5 25.0 -19.65 25.3 -19.65 26.15 L-19.65 26.3" fill="none" stroke="#cccccc" stroke-linecap="butt" stroke-linejoin="miter-clip" stroke-miterlimit="3.0" stroke-width="1.0"/>
    <path d="M-29.25 -14.75 Q-28.7 -14.0 -29.15 -13.25 -30.2 -11.7 -31.95 -12.2 -33.9 -10.95 -34.95 -13.0 -37.05 -13.0 -37.4 -14.85 -37.65 -16.05 -36.2 -17.05 -37.1 -17.75 -36.2 -19.05 -35.35 -20.4 -33.7 -19.3 -32.9 -19.95 -32.1 -20.0 L-32.2 -21.0 Q-32.25 -22.8 -29.45 -23.3 -28.6 -25.95 -26.05 -25.95 -23.55 -25.95 -22.7 -23.15 L-20.85 -23.25 Q-20.5 -24.25 -19.45 -24.25 -17.2 -24.3 -16.5 -22.35 -14.0 -21.35 -15.4 -19.05 -13.95 -17.15 -15.5 -15.65 -16.55 -14.7 -18.5 -15.4 -18.65 -14.15 -20.5 -14.15 -22.05 -14.15 -22.4 -15.55 L-22.65 -15.25 Q-24.1 -13.95 -26.45 -15.45 -28.1 -14.35 -29.25 -14.75 -28.3 -15.7 -28.5 -16.65 -28.9 -18.5 -30.45 -19.55 -31.3 -20.1 -32.1 -20.0 M-19.65 26.3 L-18.95 26.15 Q-16.85 25.75 -15.7 28.75 -13.25 29.0 -12.35 30.65 L-11.95 30.6 Q-9.85 30.6 -8.35 32.1 -7.6 32.85 -7.9 34.3 -6.9 34.6 -6.9 35.6 -6.9 37.65 -8.8 38.3 -9.85 40.55 -12.15 39.25 -14.05 40.55 -15.5 39.1 L-15.6 39.0 Q-16.35 39.65 -17.5 39.9 -19.2 40.15 -20.45 38.55 -22.05 39.15 -23.85 37.85 -25.7 36.55 -24.4 33.65 L-25.55 32.1 Q-26.05 31.1 -25.6 30.15" fill="none" stroke="#cccccc" stroke-linecap="round" stroke-linejoin="miter-clip" stroke-miterlimit="3.0" stroke-width="1.0"/>
  </g>
</svg>
