<?xml version="1.0" encoding="UTF-8" standalone="no"?>
<svg xmlns:xlink="http://www.w3.org/1999/xlink" height="92.9px" width="95.9px" xmlns="http://www.w3.org/2000/svg">
  <g transform="matrix(1.0, 0.0, 0.0, 1.0, 45.1, 39.45)">
    <path d="M22.7 -38.95 L23.35 -38.65 24.2 -38.5 Q24.6 -38.25 24.35 -37.6 24.85 -37.15 24.6 -36.7 24.35 -36.3 23.85 -36.35 23.65 -35.9 23.15 -35.8 22.65 -35.7 22.35 -36.35 21.6 -36.4 21.5 -37.05 21.35 -37.7 22.05 -38.1 22.05 -38.85 22.7 -38.95 M25.1 -30.65 Q25.6 -30.35 25.3 -29.5 25.9 -28.9 25.6 -28.4 25.3 -27.9 24.7 -28.0 24.4 -27.4 23.8 -27.25 23.2 -27.15 22.85 -28.0 21.95 -28.05 21.8 -28.85 21.6 -29.65 22.45 -30.1 22.45 -31.0 23.25 -31.15 23.75 -31.25 24.1 -30.8 L25.1 -30.65 M27.95 -28.35 Q27.95 -30.15 29.2 -30.4 30.4 -30.65 31.1 -29.4 32.4 -29.85 33.5 -29.05 34.55 -28.3 33.7 -26.55 34.9 -24.95 33.85 -23.55 32.8 -22.2 30.85 -22.95 29.4 -21.7 28.05 -22.75 27.2 -23.35 27.4 -24.6 26.5 -25.05 26.3 -26.35 26.1 -27.7 27.95 -28.35 M16.7 -35.1 Q18.7 -36.1 20.0 -34.7 21.3 -33.3 20.05 -31.3 21.15 -29.45 19.75 -28.15 18.9 -27.4 17.6 -27.85 16.9 -26.95 15.4 -26.95 13.9 -27.0 13.55 -29.15 11.6 -29.55 11.6 -30.9 11.55 -32.3 13.0 -32.85 12.8 -34.4 13.9 -35.4 14.95 -36.4 16.7 -35.1 M28.15 -19.0 L29.15 -18.85 Q29.65 -18.5 29.3 -17.65 29.9 -17.1 29.65 -16.6 29.35 -16.1 28.7 -16.15 28.45 -15.6 27.85 -15.45 27.25 -15.35 26.9 -16.15 25.95 -16.25 25.8 -17.05 25.6 -17.85 26.5 -18.3 26.45 -19.2 27.25 -19.35 27.75 -19.45 28.15 -19.0 M45.0 -14.3 Q45.5 -15.85 46.65 -15.75 47.75 -15.65 48.05 -14.45 49.3 -14.5 50.05 -13.5 50.75 -12.6 49.6 -11.3 50.2 -9.6 48.95 -8.65 47.75 -7.75 46.25 -8.9 44.65 -8.15 43.7 -9.4 43.15 -10.2 43.65 -11.2 42.95 -11.8 43.1 -13.0 43.25 -14.2 45.0 -14.3 M43.6 24.4 Q43.6 25.4 42.55 26.0 42.75 27.0 41.85 28.0 L39.4 27.95 Q38.0 29.0 37.1 28.15 36.2 27.35 36.7 26.05 35.6 25.25 35.65 23.95 35.6 22.6 37.45 22.25 37.95 20.3 39.65 20.3 41.25 20.25 41.8 22.3 43.6 22.65 43.6 24.4 M46.45 28.25 Q47.1 28.8 46.8 29.35 46.5 29.85 45.85 29.75 45.6 30.35 45.0 30.5 44.4 30.6 44.05 29.75 43.1 29.65 42.95 28.9 42.75 28.1 43.65 27.65 43.65 26.75 44.45 26.6 44.9 26.45 45.3 26.95 L46.3 27.1 Q46.8 27.4 46.45 28.25 M34.9 35.75 Q34.85 34.85 35.65 34.7 36.15 34.55 36.55 35.05 L37.55 35.2 Q38.05 35.5 37.7 36.35 38.3 36.9 38.05 37.45 37.75 37.95 37.1 37.85 L36.25 38.6 Q35.65 38.7 35.3 37.85 34.35 37.75 34.2 37.0 34.0 36.2 34.9 35.75 M27.05 31.3 Q28.6 31.0 29.5 33.25 31.95 33.5 32.3 35.65 32.7 37.7 30.3 38.85 30.25 41.25 28.15 41.6 26.85 41.8 25.9 40.6 24.7 41.05 23.35 40.1 22.0 39.15 22.95 36.95 21.4 35.4 22.2 34.1 23.0 32.8 24.7 33.15 25.4 31.6 27.05 31.3 M-42.85 -13.5 Q-43.05 -15.4 -41.7 -16.6 -40.35 -17.8 -38.25 -16.15 -35.8 -17.4 -34.2 -15.65 -32.65 -13.9 -34.2 -11.4 -32.9 -9.15 -34.65 -7.55 -35.7 -6.6 -37.3 -7.2 -38.2 -6.1 -40.05 -6.2 -41.9 -6.3 -42.25 -8.9 -44.65 -9.45 -44.6 -11.15 -44.65 -12.85 -42.85 -13.5 M-35.55 -30.1 Q-35.55 -31.0 -34.75 -31.15 -34.25 -31.25 -33.9 -30.8 L-32.9 -30.65 Q-32.4 -30.35 -32.7 -29.5 -32.1 -28.9 -32.4 -28.4 -32.7 -27.9 -33.3 -28.0 -33.6 -27.4 -34.2 -27.25 -34.8 -27.15 -35.15 -28.0 -36.05 -28.05 -36.2 -28.85 -36.4 -29.65 -35.55 -30.1 M-23.55 -35.7 Q-22.25 -35.9 -21.5 -34.1 -19.55 -33.9 -19.25 -32.2 -18.95 -30.5 -20.9 -29.6 -20.95 -27.65 -22.65 -27.35 -23.7 -27.2 -24.45 -28.15 -25.4 -27.8 -26.5 -28.6 -27.6 -29.35 -26.85 -31.15 -28.1 -32.4 -27.45 -33.45 -26.8 -34.5 -25.45 -34.2 -24.85 -35.45 -23.55 -35.7 M-33.8 22.3 Q-32.3 22.05 -31.45 23.55 -29.85 23.1 -28.55 24.15 -27.3 25.15 -28.45 27.3 -27.05 29.3 -28.4 30.95 -29.75 32.6 -32.15 31.5 -34.0 33.0 -35.65 31.65 -36.6 30.85 -36.3 29.35 -37.4 28.75 -37.55 27.1 -37.75 25.4 -35.45 24.7 -35.35 22.5 -33.8 22.3 M-26.35 17.3 Q-25.85 17.2 -25.45 17.65 -25.05 17.45 -24.5 17.8 -23.95 18.15 -24.3 19.0 -23.7 19.55 -23.95 20.05 -24.25 20.55 -24.9 20.5 -25.15 21.05 -25.75 21.2 -26.4 21.3 -26.75 20.5 -27.65 20.4 -27.8 19.6 -28.0 18.8 -27.1 18.35 -27.15 17.45 -26.35 17.3 M-15.1 39.75 Q-15.45 38.3 -14.5 37.2 L-11.65 37.15 Q-9.85 35.95 -8.4 37.2 -6.95 38.45 -7.95 40.6 -6.65 42.25 -7.9 43.75 -8.7 44.6 -10.0 44.25 -10.6 45.25 -12.1 45.4 -13.6 45.5 -14.15 43.4 -16.1 43.25 -16.3 41.85 -16.45 40.45 -15.1 39.75 M-3.25 42.5 Q-2.75 42.8 -3.1 43.65 -2.45 44.25 -2.75 44.75 -3.05 45.25 -3.7 45.15 -3.95 45.75 -4.55 45.9 -5.15 46.0 -5.5 45.15 -6.45 45.1 -6.6 44.3 -6.8 43.5 -5.9 43.05 -5.9 42.15 -5.1 42.0 -4.65 41.9 -4.25 42.35 -3.8 42.15 -3.25 42.5 M-1.9 49.45 Q-1.45 49.25 -0.9 49.6 -0.4 49.9 -0.75 50.75 -0.15 51.3 -0.4 51.85 -0.7 52.35 -1.35 52.25 -1.6 52.85 -2.2 52.95 -2.8 53.1 -3.15 52.25 -4.1 52.15 -4.25 51.4 -4.45 50.55 -3.55 50.1 -3.6 49.2 -2.8 49.05 -2.3 48.95 -1.9 49.45" fill="#ffffff" fill-rule="evenodd" stroke="none"/>
    <path d="M22.7 -38.95 L23.35 -38.65 24.2 -38.5 Q24.6 -38.25 24.35 -37.6 24.85 -37.15 24.6 -36.7 24.35 -36.3 23.85 -36.35 23.65 -35.9 23.15 -35.8 22.65 -35.7 22.35 -36.35 21.6 -36.4 21.5 -37.05 21.35 -37.7 22.05 -38.1 22.05 -38.85 22.7 -38.95 M27.95 -28.35 Q27.95 -30.15 29.2 -30.4 30.4 -30.65 31.1 -29.4 32.4 -29.85 33.5 -29.05 34.55 -28.3 33.7 -26.55 34.9 -24.95 33.85 -23.55 32.8 -22.2 30.85 -22.95 29.4 -21.7 28.05 -22.75 27.2 -23.35 27.4 -24.6 26.5 -25.05 26.3 -26.35 26.1 -27.7 27.95 -28.35 M16.7 -35.1 Q18.7 -36.1 20.0 -34.7 21.3 -33.3 20.05 -31.3 21.15 -29.45 19.75 -28.15 18.9 -27.4 17.6 -27.85 16.9 -26.95 15.4 -26.95 13.9 -27.0 13.55 -29.15 11.6 -29.55 11.6 -30.9 11.55 -32.3 13.0 -32.85 12.8 -34.4 13.9 -35.4 14.95 -36.4 16.7 -35.1 M45.0 -14.3 Q45.5 -15.85 46.65 -15.75 47.75 -15.65 48.05 -14.45 49.3 -14.5 50.05 -13.5 50.75 -12.6 49.6 -11.3 50.2 -9.6 48.95 -8.65 47.75 -7.75 46.25 -8.9 44.65 -8.15 43.7 -9.4 43.15 -10.2 43.65 -11.2 42.95 -11.8 43.1 -13.0 43.25 -14.2 45.0 -14.3 M43.6 24.4 Q43.6 25.4 42.55 26.0 42.75 27.0 41.85 28.0 L39.4 27.95 Q38.0 29.0 37.1 28.15 36.2 27.35 36.7 26.05 35.6 25.25 35.65 23.95 35.6 22.6 37.45 22.25 37.95 20.3 39.65 20.3 41.25 20.25 41.8 22.3 43.6 22.65 43.6 24.4 M46.45 28.25 Q47.1 28.8 46.8 29.35 46.5 29.85 45.85 29.75 45.6 30.35 45.0 30.5 44.4 30.6 44.05 29.75 43.1 29.65 42.95 28.9 42.75 28.1 43.65 27.65 43.65 26.75 44.45 26.6 44.9 26.45 45.3 26.95 L46.3 27.1 Q46.8 27.4 46.45 28.25 M34.9 35.75 Q34.85 34.85 35.65 34.7 36.15 34.55 36.55 35.05 L37.55 35.2 Q38.05 35.5 37.7 36.35 38.3 36.9 38.05 37.45 37.75 37.95 37.1 37.85 L36.25 38.6 Q35.65 38.7 35.3 37.85 34.35 37.75 34.2 37.0 34.0 36.2 34.9 35.75 M27.05 31.3 Q28.6 31.0 29.5 33.25 31.95 33.5 32.3 35.65 32.7 37.7 30.3 38.85 30.25 41.25 28.15 41.6 26.85 41.8 25.9 40.6 24.7 41.05 23.35 40.1 22.0 39.15 22.95 36.95 21.4 35.4 22.2 34.1 23.0 32.8 24.7 33.15 25.4 31.6 27.05 31.3 M-42.85 -13.5 Q-43.05 -15.4 -41.7 -16.6 -40.35 -17.8 -38.25 -16.15 -35.8 -17.4 -34.2 -15.65 -32.65 -13.9 -34.2 -11.4 -32.9 -9.15 -34.65 -7.55 -35.7 -6.6 -37.3 -7.2 -38.2 -6.1 -40.05 -6.2 -41.9 -6.3 -42.25 -8.9 -44.65 -9.45 -44.6 -11.15 -44.65 -12.85 -42.85 -13.5 M-35.55 -30.1 Q-35.55 -31.0 -34.75 -31.15 -34.25 -31.25 -33.9 -30.8 L-32.9 -30.65 Q-32.4 -30.35 -32.7 -29.5 -32.1 -28.9 -32.4 -28.4 -32.7 -27.9 -33.3 -28.0 -33.6 -27.4 -34.2 -27.25 -34.8 -27.15 -35.15 -28.0 -36.05 -28.05 -36.2 -28.85 -36.4 -29.65 -35.55 -30.1 M-23.55 -35.7 Q-22.25 -35.9 -21.5 -34.1 -19.55 -33.9 -19.25 -32.2 -18.95 -30.5 -20.9 -29.6 -20.95 -27.65 -22.65 -27.35 -23.7 -27.2 -24.45 -28.15 -25.4 -27.8 -26.5 -28.6 -27.6 -29.35 -26.85 -31.15 -28.1 -32.4 -27.45 -33.45 -26.8 -34.5 -25.45 -34.2 -24.85 -35.45 -23.55 -35.7 M-33.8 22.3 Q-32.3 22.05 -31.45 23.55 -29.85 23.1 -28.55 24.15 -27.3 25.15 -28.45 27.3 -27.05 29.3 -28.4 30.95 -29.75 32.6 -32.15 31.5 -34.0 33.0 -35.65 31.65 -36.6 30.85 -36.3 29.35 -37.4 28.75 -37.55 27.1 -37.75 25.4 -35.45 24.7 -35.35 22.5 -33.8 22.3 M-26.35 17.3 Q-25.85 17.2 -25.45 17.65 -25.05 17.45 -24.5 17.8 -23.95 18.15 -24.3 19.0 -23.7 19.55 -23.95 20.05 -24.25 20.55 -24.9 20.5 -25.15 21.05 -25.75 21.2 -26.4 21.3 -26.75 20.5 -27.65 20.4 -27.8 19.6 -28.0 18.8 -27.1 18.35 -27.15 17.45 -26.35 17.3 M-15.1 39.75 Q-15.45 38.3 -14.5 37.2 L-11.65 37.15 Q-9.85 35.95 -8.4 37.2 -6.95 38.45 -7.95 40.6 -6.65 42.25 -7.9 43.75 -8.7 44.6 -10.0 44.25 -10.6 45.25 -12.1 45.4 -13.6 45.5 -14.15 43.4 -16.1 43.25 -16.3 41.85 -16.45 40.45 -15.1 39.75" fill="none" stroke="#cccccc" stroke-linecap="butt" stroke-linejoin="miter-clip" stroke-miterlimit="3.0" stroke-width="1.0"/>
    <path d="M25.1 -30.65 Q25.6 -30.35 25.3 -29.5 25.9 -28.9 25.6 -28.4 25.3 -27.9 24.7 -28.0 24.4 -27.4 23.8 -27.25 23.2 -27.15 22.85 -28.0 21.95 -28.05 21.8 -28.85 21.6 -29.65 22.45 -30.1 22.45 -31.0 23.25 -31.15 23.75 -31.25 24.1 -30.8 L25.1 -30.65 M28.15 -19.0 L29.15 -18.85 Q29.65 -18.5 29.3 -17.65 29.9 -17.1 29.65 -16.6 29.35 -16.1 28.7 -16.15 28.45 -15.6 27.85 -15.45 27.25 -15.35 26.9 -16.15 25.95 -16.25 25.8 -17.05 25.6 -17.85 26.5 -18.3 26.45 -19.2 27.25 -19.35 27.75 -19.45 28.15 -19.0 M-3.25 42.5 Q-2.75 42.8 -3.1 43.65 -2.45 44.25 -2.75 44.75 -3.05 45.25 -3.7 45.15 -3.95 45.75 -4.55 45.9 -5.15 46.0 -5.5 45.15 -6.45 45.1 -6.6 44.3 -6.8 43.5 -5.9 43.05 -5.9 42.15 -5.1 42.0 -4.65 41.9 -4.25 42.35 -3.8 42.15 -3.25 42.5 M-1.9 49.45 Q-1.45 49.25 -0.9 49.6 -0.4 49.9 -0.75 50.75 -0.15 51.3 -0.4 51.85 -0.7 52.35 -1.35 52.25 -1.6 52.85 -2.2 52.95 -2.8 53.1 -3.15 52.25 -4.1 52.15 -4.25 51.4 -4.45 50.55 -3.55 50.1 -3.6 49.2 -2.8 49.05 -2.3 48.95 -1.9 49.45 Z" fill="none" stroke="#cccccc" stroke-linecap="butt" stroke-linejoin="miter-clip" stroke-miterlimit="3.0" stroke-width="1.0"/>
  </g>
</svg>
