<?xml version="1.0" encoding="UTF-8" standalone="no"?>
<svg xmlns:xlink="http://www.w3.org/1999/xlink" height="18.2px" width="131.8px" xmlns="http://www.w3.org/2000/svg">
  <g transform="matrix(1.0, 0.0, 0.0, 1.0, 0.0, 0.0)">
    <path d="M104.6 0.0 L131.8 0.0 128.45 5.9 104.6 5.9 104.6 0.0" fill="url(#gradient0)" fill-rule="evenodd" stroke="none"/>
    <path d="M104.6 0.0 L104.6 5.9 98.2 5.9 98.2 0.0 104.6 0.0" fill="url(#gradient1)" fill-rule="evenodd" stroke="none"/>
    <path d="M104.6 5.9 L128.45 5.9 121.4 18.2 0.0 18.2 0.0 5.9 36.4 5.9 75.8 5.9 94.95 5.9 98.2 5.9 104.6 5.9" fill="#77e20c" fill-rule="evenodd" stroke="none"/>
    <path d="M94.95 0.0 L98.2 0.0 98.2 5.9 94.95 5.9 94.95 0.0" fill="url(#gradient2)" fill-rule="evenodd" stroke="none"/>
    <path d="M75.8 0.0 L94.95 0.0 94.95 5.9 75.8 5.9 75.8 0.0" fill="url(#gradient3)" fill-rule="evenodd" stroke="none"/>
    <path d="M36.4 0.0 L75.8 0.0 75.8 5.9 36.4 5.9 36.4 0.0" fill="url(#gradient4)" fill-rule="evenodd" stroke="none"/>
    <path d="M0.0 5.9 L0.0 0.0 36.4 0.0 36.4 5.9 0.0 5.9" fill="url(#gradient5)" fill-rule="evenodd" stroke="none"/>
  </g>
  <defs>
    <linearGradient gradientTransform="matrix(0.0, -0.0026, 0.1514, 0.0, 7.8, 3.3)" gradientUnits="userSpaceOnUse" id="gradient0" spreadMethod="pad" x1="-819.2" x2="819.2">
      <stop offset="0.0" stop-color="#77e20c"/>
      <stop offset="1.0" stop-color="#c2fe9a"/>
    </linearGradient>
    <linearGradient gradientTransform="matrix(0.0, -0.0026, 0.2363, 0.0, -46.5, 3.3)" gradientUnits="userSpaceOnUse" id="gradient1" spreadMethod="pad" x1="-819.2" x2="819.2">
      <stop offset="0.0" stop-color="#77e20c"/>
      <stop offset="1.0" stop-color="#c2fe9a"/>
    </linearGradient>
    <linearGradient gradientTransform="matrix(0.0, -0.0026, 0.1514, 0.0, 7.4, 3.3)" gradientUnits="userSpaceOnUse" id="gradient2" spreadMethod="pad" x1="-819.2" x2="819.2">
      <stop offset="0.0" stop-color="#77e20c"/>
      <stop offset="1.0" stop-color="#c2fe9a"/>
    </linearGradient>
    <linearGradient gradientTransform="matrix(0.0, -0.0026, 0.1514, 0.0, 8.0, 3.3)" gradientUnits="userSpaceOnUse" id="gradient3" spreadMethod="pad" x1="-819.2" x2="819.2">
      <stop offset="0.0" stop-color="#77e20c"/>
      <stop offset="1.0" stop-color="#c2fe9a"/>
    </linearGradient>
    <linearGradient gradientTransform="matrix(0.0, -0.0026, 0.3162, 0.0, -65.85, 3.3)" gradientUnits="userSpaceOnUse" id="gradient4" spreadMethod="pad" x1="-819.2" x2="819.2">
      <stop offset="0.0" stop-color="#77e20c"/>
      <stop offset="1.0" stop-color="#c2fe9a"/>
    </linearGradient>
    <linearGradient gradientTransform="matrix(0.0, -0.0026, 0.1514, 0.0, 124.0, 3.3)" gradientUnits="userSpaceOnUse" id="gradient5" spreadMethod="pad" x1="-819.2" x2="819.2">
      <stop offset="0.0" stop-color="#77e20c"/>
      <stop offset="1.0" stop-color="#c2fe9a"/>
    </linearGradient>
  </defs>
</svg>
