<?xml version="1.0" encoding="UTF-8" standalone="no"?>
<svg xmlns:xlink="http://www.w3.org/1999/xlink" height="30.35px" width="29.45px" xmlns="http://www.w3.org/2000/svg">
  <g transform="matrix(1.0, 0.0, 0.0, 1.0, 0.6, 0.05)">
    <path d="M11.5 19.65 L12.5 20.1 25.85 20.25 26.2 20.1 Q26.95 19.8 26.95 18.85 L27.1 12.2 Q25.2 11.6 25.6 5.55 L25.65 5.15 22.85 5.0 22.85 5.6 Q22.75 8.45 20.7 8.85 L18.5 8.8 Q15.8 8.8 15.65 5.55 L15.75 4.85 12.8 4.9 Q12.85 10.55 11.1 11.8 L10.9 18.15 11.3 19.45" fill="none" stroke="#ffffff" stroke-linecap="butt" stroke-linejoin="miter-clip" stroke-miterlimit="3.0" stroke-width="3.5"/>
    <path d="M5.35 14.0 L5.35 4.3 11.1 4.3 11.1 14.0 14.1 14.0 Q11.95 17.7 8.25 20.4 L7.15 19.55 Q4.15 17.0 2.4 14.0 L5.35 14.0 Z" fill="none" stroke="#ffffff" stroke-linecap="butt" stroke-linejoin="miter-clip" stroke-miterlimit="3.0" stroke-width="3.5"/>
    <path d="M7.15 19.55 Q4.15 17.0 2.4 14.0 L5.35 14.0 5.35 4.3 6.6 4.3 6.6 14.9 4.65 14.9 Q4.75 15.65 5.9 17.25 L6.05 17.6 6.6 18.25 8.25 20.4 Q6.05 18.35 7.15 19.55" fill="#ee6c6c" fill-rule="evenodd" stroke="none"/>
    <path d="M6.6 4.3 L9.8 4.3 9.85 12.65 9.85 15.0 11.7 15.0 10.1 17.65 8.25 20.4 7.15 19.55 Q6.05 18.35 8.25 20.4 L6.6 18.25 7.15 18.45 7.4 18.15 6.55 16.75 Q5.6 15.6 5.6 16.7 L5.9 17.25 Q4.75 15.65 4.65 14.9 L6.6 14.9 6.6 4.3" fill="#cb2c1b" fill-rule="evenodd" stroke="none"/>
    <path d="M9.8 4.3 L11.1 4.3 11.1 14.0 14.1 14.0 Q11.95 17.7 8.25 20.4 L10.1 17.65 11.7 15.0 9.85 15.0 9.85 12.65 9.8 4.3" fill="#a01e16" fill-rule="evenodd" stroke="none"/>
    <path d="M5.9 17.25 L5.6 16.7 Q5.6 15.6 6.55 16.75 L7.4 18.15 7.15 18.45 6.6 18.25 6.05 17.6 5.9 17.25" fill="#ffffff" fill-rule="evenodd" stroke="none"/>
    <path d="M6.6 4.3 L9.8 4.3 11.1 4.3 11.1 14.0 14.1 14.0 Q11.95 17.7 8.25 20.4 L7.15 19.55 Q4.15 17.0 2.4 14.0 L5.35 14.0 5.35 4.3 6.6 4.3 Z" fill="none" stroke="#6d0101" stroke-linecap="butt" stroke-linejoin="miter-clip" stroke-miterlimit="3.0" stroke-width="1.0"/>
    <path d="M11.3 19.55 L10.9 18.25 11.1 11.9 Q12.85 10.6 12.8 5.0 L15.75 4.9 15.65 5.65 Q15.8 8.85 18.5 8.9 L20.7 8.9 Q22.75 8.5 22.85 5.7 L22.85 5.1 25.65 5.2 25.6 5.65 Q25.2 11.65 27.1 12.3 L26.95 18.9 Q26.95 19.85 26.2 20.2 L25.85 20.35 12.5 20.2 Q11.85 20.05 11.5 19.7 L11.55 19.5 11.3 19.55 M23.35 6.1 L22.75 8.5 22.7 8.5 Q22.2 9.3 21.3 9.4 19.25 9.85 17.0 9.4 L16.15 8.6 Q15.5 7.65 15.35 6.0 L13.65 6.0 13.65 8.75 Q13.3 11.25 12.1 12.35 L11.95 18.25 Q12.1 19.1 12.7 19.2 L25.2 19.3 Q25.85 19.3 25.9 18.65 L25.95 12.7 Q25.0 11.85 24.8 10.8 L24.8 10.45 Q24.5 8.25 24.85 6.15 L23.35 6.1" fill="#221500" fill-rule="evenodd" stroke="none"/>
    <path d="M23.35 6.1 L24.85 6.15 Q24.5 8.25 24.8 10.45 L24.8 10.8 Q25.0 11.85 25.95 12.7 L25.9 18.65 Q25.85 19.3 25.2 19.3 L12.7 19.2 Q12.1 19.1 11.95 18.25 L12.1 12.35 Q13.3 11.25 13.65 8.75 L13.65 6.0 15.35 6.0 Q15.5 7.65 16.15 8.6 L17.0 9.4 Q19.25 9.85 21.3 9.4 22.2 9.3 22.7 8.5 L22.75 8.5 23.35 6.1 M22.25 15.45 L22.45 11.2 Q20.75 10.65 19.15 10.75 L19.1 10.75 16.0 11.15 Q15.65 13.35 15.9 15.3 16.85 17.1 18.55 18.35 L19.0 18.5 19.1 18.55 19.45 18.4 19.5 18.45 19.55 18.35 Q21.4 17.2 22.25 15.45" fill="#553300" fill-rule="evenodd" stroke="none"/>
    <path d="M22.25 15.45 Q21.4 17.2 19.55 18.35 L19.5 18.45 19.45 18.4 19.1 18.55 19.0 18.5 18.55 18.35 Q16.85 17.1 15.9 15.3 15.65 13.35 16.0 11.15 L19.1 10.75 19.15 10.75 Q20.75 10.65 22.45 11.2 L22.25 15.45" fill="#6c4100" fill-rule="evenodd" stroke="none"/>
    <path d="M11.3 19.55 L11.55 19.5 11.5 19.7 11.3 19.55" fill="#9f6000" fill-rule="evenodd" stroke="none"/>
    <path d="M20.85 20.55 L17.95 20.55 17.95 21.4 21.25 21.4 21.25 26.65 20.0 27.9 18.8 27.9 18.8 26.8 19.8 26.8 19.8 22.5 17.95 22.5 17.95 27.5 16.5 28.1 16.5 20.55 16.1 20.55 16.1 19.45 17.8 19.45 17.95 19.2 18.2 19.0 18.7 18.85 19.25 19.0 19.55 19.25 19.65 19.45 21.35 19.45 20.85 20.55 M4.1 19.0 L5.5 19.0 5.5 20.0 6.25 20.0 5.75 21.15 5.5 21.15 5.5 22.15 6.2 22.15 5.5 23.4 5.5 27.55 4.1 28.1 4.1 25.6 3.9 25.95 2.45 25.95 4.1 23.2 4.1 21.15 3.8 21.15 3.7 22.4 2.4 22.4 2.7 19.3 4.0 19.3 3.9 20.0 4.1 20.0 4.1 19.0 M7.7 20.4 L7.45 21.3 6.05 21.3 6.7 18.9 8.1 18.9 8.0 19.3 11.4 19.3 11.4 26.7 10.15 27.9 9.35 27.9 9.35 26.8 10.05 26.8 10.05 20.4 7.7 20.4 M9.9 21.65 L8.75 27.45 7.4 27.45 8.6 21.65 9.9 21.65 M8.25 21.65 L7.0 27.45 5.7 27.45 7.0 21.65 8.25 21.65 M14.1 20.25 L14.1 22.3 14.4 22.3 14.4 20.25 14.1 20.25 M14.1 23.45 L14.1 25.85 14.4 25.85 14.4 23.45 14.1 23.45 M16.0 23.45 L16.0 25.85 14.65 26.95 14.1 26.95 14.1 27.6 12.55 28.15 12.55 19.1 16.0 19.1 16.0 22.3 15.25 22.9 16.0 23.45" fill="#ffff00" fill-rule="evenodd" stroke="none"/>
    <path d="M20.85 20.55 L17.95 20.55 17.95 21.4 21.25 21.4 21.25 26.65 20.0 27.9 18.8 27.9 18.8 26.8 19.8 26.8 19.8 22.5 17.95 22.5 17.95 27.5 16.5 28.1 16.5 20.55 16.1 20.55 16.1 19.45 17.8 19.45 17.95 19.2 18.2 19.0 18.7 18.85 19.25 19.0 19.55 19.25 19.65 19.45 21.35 19.45 20.85 20.55 M4.1 19.0 L5.5 19.0 5.5 20.0 6.25 20.0 5.75 21.15 5.5 21.15 5.5 22.15 6.2 22.15 5.5 23.4 5.5 27.55 4.1 28.1 4.1 25.6 3.9 25.95 2.45 25.95 4.1 23.2 4.1 21.15 3.8 21.15 3.7 22.4 2.4 22.4 2.7 19.3 4.0 19.3 3.9 20.0 4.1 20.0 4.1 19.0 M7.7 20.4 L7.45 21.3 6.05 21.3 6.7 18.9 8.1 18.9 8.0 19.3 11.4 19.3 11.4 26.7 10.15 27.9 9.35 27.9 9.35 26.8 10.05 26.8 10.05 20.4 7.7 20.4 M9.9 21.65 L8.75 27.45 7.4 27.45 8.6 21.65 9.9 21.65 M8.25 21.65 L7.0 27.45 5.7 27.45 7.0 21.65 8.25 21.65 M14.1 20.25 L14.1 22.3 14.4 22.3 14.4 20.25 14.1 20.25 M14.1 23.45 L14.1 25.85 14.4 25.85 14.4 23.45 14.1 23.45 M16.0 23.45 L16.0 25.85 14.65 26.95 14.1 26.95 14.1 27.6 12.55 28.15 12.55 19.1 16.0 19.1 16.0 22.3 15.25 22.9 16.0 23.45 Z" fill="none" stroke="#660000" stroke-linecap="butt" stroke-linejoin="miter-clip" stroke-miterlimit="3.0" stroke-width="3.0"/>
    <path d="M20.85 20.55 L17.95 20.55 17.95 21.35 21.25 21.35 21.25 26.65 20.0 27.9 18.8 27.9 18.8 26.8 19.8 26.8 19.8 22.5 17.95 22.5 17.95 27.5 16.5 28.1 16.5 20.55 16.1 20.55 16.1 19.45 17.8 19.45 17.95 19.2 18.2 19.0 Q18.4 18.85 18.7 18.85 L19.25 19.0 19.55 19.25 19.6 19.45 21.35 19.45 20.85 20.55 M4.1 19.0 L5.5 19.0 5.5 20.0 6.2 20.0 5.75 21.15 5.5 21.15 5.5 22.15 6.2 22.15 5.5 23.4 5.5 27.55 4.1 28.05 4.1 25.6 3.9 25.95 2.45 25.95 4.1 23.2 4.1 21.15 3.8 21.15 3.7 22.4 2.4 22.4 2.7 19.3 4.0 19.3 3.9 20.0 4.1 20.0 4.1 19.0 M9.9 21.65 L8.75 27.45 7.4 27.45 8.6 21.65 9.9 21.65 M8.0 19.3 L11.4 19.3 11.4 26.65 10.15 27.9 9.35 27.9 9.35 26.8 10.05 26.8 10.05 20.4 7.7 20.4 7.45 21.3 6.05 21.3 6.7 18.9 8.1 18.9 8.0 19.3 M8.25 21.65 L7.0 27.45 5.7 27.45 6.95 21.65 8.25 21.65 M14.1 23.45 L14.1 25.85 14.4 25.85 14.4 23.45 14.1 23.45 M14.1 20.25 L14.1 22.3 14.4 22.3 14.4 20.25 14.1 20.25 M16.0 23.45 L16.0 25.85 14.65 26.95 14.1 26.95 14.1 27.6 12.55 28.15 12.55 19.1 16.0 19.1 16.0 22.3 15.25 22.9 16.0 23.45" fill="#ffff00" fill-rule="evenodd" stroke="none"/>
  </g>
</svg>
