<?xml version="1.0" encoding="UTF-8" standalone="no"?>
<svg xmlns:xlink="http://www.w3.org/1999/xlink" height="18.9px" width="32.7px" xmlns="http://www.w3.org/2000/svg">
  <g transform="matrix(1.0, 0.0, 0.0, 1.0, -9.45, -16.3)">
    <path d="M20.3 21.25 L20.3 23.0 24.85 23.0 24.85 24.85 20.3 24.85 20.3 26.55 25.85 26.55 25.85 28.45 20.3 28.45 20.3 30.15 20.05 31.35 19.25 32.1 18.4 32.5 15.35 32.6 14.9 30.45 17.15 30.55 Q18.1 30.55 18.1 29.55 L18.1 28.45 11.95 28.45 11.95 26.55 18.1 26.55 18.1 24.85 12.95 24.85 12.95 23.0 18.1 23.0 18.1 21.4 13.25 21.5 12.8 19.65 24.4 19.2 25.1 21.1 20.3 21.25 M27.0 19.9 L32.4 19.9 32.4 21.7 27.0 21.7 27.0 19.9 M34.15 18.8 L36.0 18.8 36.0 21.2 39.65 21.2 39.55 29.1 39.35 31.15 39.0 31.9 Q38.7 32.2 38.2 32.3 L35.7 32.5 35.2 30.4 36.7 30.45 37.4 30.25 37.6 29.8 37.75 27.6 37.8 23.05 35.95 23.05 35.7 27.55 Q35.5 28.9 34.9 30.25 L33.4 32.7 31.7 31.6 32.4 30.7 28.5 31.05 27.2 31.35 26.35 29.6 Q27.05 29.0 28.15 25.2 L26.35 25.2 26.35 23.4 32.9 23.4 32.9 25.2 30.2 25.2 28.8 29.1 31.1 29.0 30.1 26.4 31.7 25.9 33.2 29.4 Q34.15 27.7 34.1 23.05 L32.65 23.05 32.65 21.2 34.15 21.2 34.15 18.8" fill="url(#gradient0)" fill-rule="evenodd" stroke="none"/>
    <path d="M20.3 21.25 L20.3 23.0 24.85 23.0 24.85 24.85 20.3 24.85 20.3 26.55 25.85 26.55 25.85 28.45 20.3 28.45 20.3 30.15 20.05 31.35 19.25 32.1 18.4 32.5 15.35 32.6 14.9 30.45 17.15 30.55 Q18.1 30.55 18.1 29.55 L18.1 28.45 11.95 28.45 11.95 26.55 18.1 26.55 18.1 24.85 12.95 24.85 12.95 23.0 18.1 23.0 18.1 21.4 13.25 21.5 12.8 19.65 24.4 19.2 25.1 21.1 20.3 21.25 M27.0 19.9 L32.4 19.9 32.4 21.7 27.0 21.7 27.0 19.9 M34.15 18.8 L36.0 18.8 36.0 21.2 39.65 21.2 39.55 29.1 39.35 31.15 39.0 31.9 Q38.7 32.2 38.2 32.3 L35.7 32.5 35.2 30.4 36.7 30.45 37.4 30.25 37.6 29.8 37.75 27.6 37.8 23.05 35.95 23.05 35.7 27.55 Q35.5 28.9 34.9 30.25 L33.4 32.7 31.7 31.6 32.4 30.7 28.5 31.05 27.2 31.35 26.35 29.6 Q27.05 29.0 28.15 25.2 L26.35 25.2 26.35 23.4 32.9 23.4 32.9 25.2 30.2 25.2 28.8 29.1 31.1 29.0 30.1 26.4 31.7 25.9 33.2 29.4 Q34.15 27.7 34.1 23.05 L32.65 23.05 32.65 21.2 34.15 21.2 34.15 18.8 Z" fill="none" stroke="#000033" stroke-linecap="round" stroke-linejoin="round" stroke-width="5.0"/>
    <path d="M27.0 19.9 L32.4 19.9 32.4 21.7 27.0 21.7 27.0 19.9 M25.1 21.1 L20.3 21.25 20.3 23.0 24.85 23.0 24.85 24.85 20.3 24.85 20.3 26.55 25.85 26.55 25.85 28.45 20.3 28.45 20.3 30.15 20.05 31.35 19.25 32.1 18.4 32.5 15.35 32.6 14.9 30.45 17.15 30.55 Q18.1 30.55 18.1 29.55 L18.1 28.45 11.95 28.45 11.95 26.55 18.1 26.55 18.1 24.85 12.95 24.85 12.95 23.0 18.1 23.0 18.1 21.4 13.25 21.5 12.8 19.65 24.4 19.2 25.1 21.1 M34.15 21.2 L34.15 18.8 36.0 18.8 36.0 21.2 39.65 21.2 39.55 29.1 39.35 31.15 39.0 31.9 Q38.7 32.2 38.2 32.3 L35.7 32.5 35.2 30.4 36.7 30.45 37.4 30.25 37.6 29.8 37.75 27.6 37.8 23.05 35.95 23.05 35.7 27.55 Q35.5 28.9 34.9 30.25 L33.4 32.7 31.7 31.6 32.4 30.7 28.5 31.05 27.2 31.35 26.35 29.6 Q27.05 29.0 28.15 25.2 L26.35 25.2 26.35 23.4 32.9 23.4 32.9 25.2 30.2 25.2 28.8 29.1 31.1 29.0 30.1 26.4 31.7 25.9 33.2 29.4 Q34.15 27.7 34.1 23.05 L32.65 23.05 32.65 21.2 34.15 21.2" fill="url(#gradient1)" fill-rule="evenodd" stroke="none"/>
    <path d="M27.0 19.9 L32.4 19.9 32.4 21.7 27.0 21.7 27.0 19.9 M25.1 21.1 L20.3 21.25 20.3 23.0 24.85 23.0 24.85 24.85 20.3 24.85 20.3 26.55 25.85 26.55 25.85 28.45 20.3 28.45 20.3 30.15 20.05 31.35 19.25 32.1 18.4 32.5 15.35 32.6 14.9 30.45 17.15 30.55 Q18.1 30.55 18.1 29.55 L18.1 28.45 11.95 28.45 11.95 26.55 18.1 26.55 18.1 24.85 12.95 24.85 12.95 23.0 18.1 23.0 18.1 21.4 13.25 21.5 12.8 19.65 24.4 19.2 25.1 21.1 M34.15 21.2 L34.15 18.8 36.0 18.8 36.0 21.2 39.65 21.2 39.55 29.1 39.35 31.15 39.0 31.9 Q38.7 32.2 38.2 32.3 L35.7 32.5 35.2 30.4 36.7 30.45 37.4 30.25 37.6 29.8 37.75 27.6 37.8 23.05 35.95 23.05 35.7 27.55 Q35.5 28.9 34.9 30.25 L33.4 32.7 31.7 31.6 32.4 30.7 28.5 31.05 27.2 31.35 26.35 29.6 Q27.05 29.0 28.15 25.2 L26.35 25.2 26.35 23.4 32.9 23.4 32.9 25.2 30.2 25.2 28.8 29.1 31.1 29.0 30.1 26.4 31.7 25.9 33.2 29.4 Q34.15 27.7 34.1 23.05 L32.65 23.05 32.65 21.2 34.15 21.2 Z" fill="none" stroke="#006699" stroke-linecap="round" stroke-linejoin="round" stroke-width="3.0"/>
    <path d="M27.0 19.9 L32.4 19.9 32.4 21.7 27.0 21.7 27.0 19.9 M25.1 21.1 L20.3 21.25 20.3 23.0 24.85 23.0 24.85 24.85 20.3 24.85 20.3 26.55 25.85 26.55 25.85 28.45 20.3 28.45 20.3 30.15 20.05 31.35 19.25 32.1 18.4 32.5 15.35 32.6 14.9 30.45 17.15 30.55 Q18.1 30.55 18.1 29.55 L18.1 28.45 11.95 28.45 11.95 26.55 18.1 26.55 18.1 24.85 12.95 24.85 12.95 23.0 18.1 23.0 18.1 21.4 13.25 21.5 12.8 19.65 24.4 19.2 25.1 21.1 M34.15 18.8 L36.0 18.8 36.0 21.2 39.65 21.2 39.55 29.1 39.35 31.15 39.0 31.9 Q38.7 32.2 38.2 32.3 L35.7 32.5 35.2 30.4 36.7 30.45 37.4 30.25 37.6 29.8 37.75 27.6 37.8 23.05 35.95 23.05 35.7 27.55 Q35.5 28.9 34.9 30.25 L33.4 32.7 31.7 31.6 32.4 30.7 28.5 31.05 27.2 31.35 26.35 29.6 Q27.05 29.0 28.15 25.2 L26.35 25.2 26.35 23.4 32.9 23.4 32.9 25.2 30.2 25.2 28.8 29.1 31.1 29.0 30.1 26.4 31.7 25.9 33.2 29.4 Q34.15 27.7 34.1 23.05 L32.65 23.05 32.65 21.2 34.15 21.2 34.15 18.8 M38.25 31.6 L38.3 31.95 38.65 32.0 38.85 31.95 39.15 31.05 Q39.15 30.25 38.7 30.75 38.25 31.25 38.25 31.6 M38.55 25.35 L38.55 25.95 38.9 26.0 39.05 25.95 39.15 25.35 38.85 24.65 Q38.55 24.75 38.55 25.35 M19.9 30.65 L19.95 29.95 Q19.95 29.3 19.65 29.15 19.35 29.35 19.35 29.65 L19.35 30.05 18.95 30.7 18.65 31.15 18.75 31.4 18.95 31.5 19.9 30.65 M13.55 20.25 L13.55 20.45 13.65 20.45 13.95 20.55 14.8 20.4 15.65 20.0 15.6 19.7 Q13.55 19.7 13.55 20.25 M38.1 21.95 L38.3 23.35 Q38.5 24.3 38.85 24.3 39.2 24.3 39.15 24.15 L39.05 22.75 Q38.95 21.95 38.1 21.95" fill="url(#gradient2)" fill-rule="evenodd" stroke="none"/>
    <path d="M38.1 21.95 Q38.95 21.95 39.05 22.75 L39.15 24.15 Q39.2 24.3 38.85 24.3 38.5 24.3 38.3 23.35 L38.1 21.95 M13.55 20.25 Q13.55 19.7 15.6 19.7 L15.65 20.0 14.8 20.4 13.95 20.55 13.65 20.45 13.55 20.45 13.55 20.25 M19.9 30.65 L18.95 31.5 18.75 31.4 18.65 31.15 18.95 30.7 19.35 30.05 19.35 29.65 Q19.35 29.35 19.65 29.15 19.95 29.3 19.95 29.95 L19.9 30.65 M38.55 25.35 Q38.55 24.75 38.85 24.65 L39.15 25.35 39.05 25.95 38.9 26.0 38.55 25.95 38.55 25.35 M38.25 31.6 Q38.25 31.25 38.7 30.75 39.15 30.25 39.15 31.05 L38.85 31.95 38.65 32.0 38.3 31.95 38.25 31.6" fill="#ffffff" fill-rule="evenodd" stroke="none"/>
  </g>
  <defs>
    <linearGradient gradientTransform="matrix(0.0, -0.0065, 0.0082, 0.0, 19.05, 25.75)" gradientUnits="userSpaceOnUse" id="gradient0" spreadMethod="pad" x1="-819.2" x2="819.2">
      <stop offset="0.0" stop-color="#66ccff"/>
      <stop offset="1.0" stop-color="#66ffff"/>
    </linearGradient>
    <linearGradient gradientTransform="matrix(0.0, -0.0065, 0.0082, 0.0, 19.05, 25.75)" gradientUnits="userSpaceOnUse" id="gradient1" spreadMethod="pad" x1="-819.2" x2="819.2">
      <stop offset="0.0" stop-color="#66ccff"/>
      <stop offset="1.0" stop-color="#66ffff"/>
    </linearGradient>
    <linearGradient gradientTransform="matrix(0.0, -0.0065, 0.0082, 0.0, 19.05, 25.75)" gradientUnits="userSpaceOnUse" id="gradient2" spreadMethod="pad" x1="-819.2" x2="819.2">
      <stop offset="0.0" stop-color="#66ccff"/>
      <stop offset="1.0" stop-color="#66ffff"/>
    </linearGradient>
  </defs>
</svg>
