<?xml version="1.0" encoding="UTF-8" standalone="no"?>
<svg xmlns:xlink="http://www.w3.org/1999/xlink" height="41.75px" width="19.95px" xmlns="http://www.w3.org/2000/svg">
  <g transform="matrix(1.0, 0.0, 0.0, 1.0, -21.3, -23.85)">
    <path d="M34.55 46.6 Q35.0 47.9 34.4 49.2 33.35 51.2 34.05 53.15 34.6 54.8 36.4 55.25 L37.0 55.05 37.1 54.85 Q37.3 54.15 36.9 53.35 L35.9 52.25 Q37.1 52.35 37.95 53.15 39.05 54.25 39.25 55.8 39.8 58.55 38.4 61.1 37.3 63.2 34.9 64.1 31.25 65.4 28.45 63.25 L27.85 62.8 Q24.75 60.1 25.6 56.05 26.1 53.35 28.45 51.55 27.85 52.2 27.85 53.05 L27.85 53.25 28.0 53.95 28.05 54.15 Q28.4 54.8 29.25 55.25 28.95 51.75 32.05 49.5 33.75 48.3 34.55 46.6" fill="#00cc33" fill-rule="evenodd" stroke="none"/>
    <path d="M34.55 46.6 Q33.75 48.3 32.05 49.5 28.95 51.75 29.25 55.25 28.4 54.8 28.05 54.15 L28.0 53.95 27.85 53.25 27.85 53.05 Q27.85 52.2 28.45 51.55 26.1 53.35 25.6 56.05 24.75 60.1 27.85 62.8 L28.45 63.25 Q31.25 65.4 34.9 64.1 37.3 63.2 38.4 61.1 39.8 58.55 39.25 55.8 39.05 54.25 37.95 53.15 37.1 52.35 35.9 52.25 L36.9 53.35 Q37.3 54.15 37.1 54.85 L37.0 55.05 36.4 55.25 Q34.6 54.8 34.05 53.15 33.35 51.2 34.4 49.2 35.0 47.9 34.55 46.6 Z" fill="none" stroke="#002962" stroke-linecap="butt" stroke-linejoin="miter-clip" stroke-miterlimit="3.0" stroke-width="2.0"/>
    <path d="M28.45 63.25 L27.8 62.8 Q24.8 60.1 25.6 56.05 26.15 53.35 28.5 51.55 27.8 52.15 27.8 53.05 L27.8 53.25 28.05 53.95 28.05 54.05 Q28.35 54.8 29.25 55.25 28.95 51.75 32.05 49.5 33.75 48.3 34.5 46.6 35.05 47.9 34.35 49.2 33.4 51.2 34.0 53.15 34.65 54.8 36.4 55.25 L37.0 55.05 37.1 54.85 Q37.3 54.05 36.95 53.35 L35.9 52.25 Q37.1 52.35 37.9 53.1 39.1 54.25 39.3 55.8 L37.85 54.5 Q38.05 55.35 37.65 56.05 L37.25 56.5 37.35 56.4 37.3 56.3 Q35.0 56.25 34.3 55.3 L33.95 54.5 33.6 54.2 Q33.05 52.7 33.05 50.9 L33.15 49.7 Q31.9 50.1 30.75 52.55 29.55 55.1 29.9 57.05 29.3 56.95 28.5 56.4 27.6 55.6 27.35 54.85 L27.05 55.8 26.95 57.6 Q26.95 59.55 27.4 61.0 L28.45 63.25 27.4 61.0 Q26.95 59.55 26.95 57.6 L27.05 55.8 27.35 54.85 Q27.6 55.6 28.5 56.4 29.3 56.95 29.9 57.05 29.55 55.1 30.75 52.55 31.9 50.1 33.15 49.7 L33.05 50.9 Q33.05 52.7 33.6 54.2 L33.95 54.5 34.3 55.3 Q35.0 56.25 37.3 56.3 L37.35 56.4 37.25 56.5 37.2 56.5 37.1 56.65 37.1 56.7 36.4 56.85 35.7 56.7 Q34.7 56.5 34.15 55.8 L33.3 54.0 33.6 54.2 33.3 54.0 34.15 55.8 Q34.7 56.5 35.7 56.7 L36.4 56.85 37.1 56.7 37.1 56.65 37.2 56.5 37.25 56.5 37.65 56.05 Q38.05 55.35 37.85 54.5 L39.3 55.8 Q39.8 58.55 38.4 61.1 37.3 63.2 34.9 64.1 31.3 65.4 28.45 63.25 M35.7 56.7 L36.3 56.75 37.1 56.7 36.3 56.75 35.7 56.7" fill="#ffe848" fill-rule="evenodd" stroke="none"/>
    <path d="M31.15 55.6 Q31.45 53.6 32.4 51.8 32.15 53.45 32.7 55.1 33.6 58.2 36.85 57.6 37.65 57.5 37.85 56.7 38.6 59.8 36.3 62.05 L34.65 63.05 34.45 63.25 Q33.45 63.85 32.4 63.85 L30.9 63.65 29.55 63.2 28.35 62.1 Q27.8 61.55 27.8 61.0 L27.75 60.9 Q26.75 58.3 27.35 55.75 L28.5 57.1 Q29.85 58.3 31.45 58.75 30.9 57.2 31.15 55.6 M27.8 60.5 L27.8 60.55 Q27.8 61.2 28.95 62.1 30.05 63.05 31.2 63.05 L31.9 62.95 32.0 62.75 Q32.0 62.3 31.45 62.0 L29.75 61.2 28.7 60.45 Q28.35 60.1 28.15 60.1 L28.05 60.1 Q27.8 60.0 27.8 60.25 L27.8 60.5 M27.65 58.75 L27.8 58.3 27.65 57.85 27.4 58.05 27.4 58.3 27.4 58.55 27.65 58.75" fill="#ff5400" fill-rule="evenodd" stroke="none"/>
    <path d="M31.15 55.6 Q30.9 57.2 31.45 58.75 29.85 58.3 28.5 57.1 L27.35 55.75 Q26.75 58.3 27.75 60.9 L27.8 61.0 Q27.8 61.55 28.35 62.1 L29.55 63.2 30.9 63.65 32.4 63.85 Q33.45 63.85 34.45 63.25 L34.65 63.05 36.3 62.05 Q38.6 59.8 37.85 56.7 37.65 57.5 36.85 57.6 33.6 58.2 32.7 55.1 32.15 53.45 32.4 51.8 31.45 53.6 31.15 55.6" fill="#ffa800" fill-rule="evenodd" stroke="none"/>
    <path d="M27.65 58.75 L27.4 58.55 27.4 58.3 27.4 58.05 27.65 57.85 27.8 58.3 27.65 58.75 M27.8 60.5 L27.8 60.25 Q27.8 60.0 28.05 60.1 L28.15 60.1 Q28.35 60.1 28.7 60.45 L29.75 61.2 31.45 62.0 Q32.0 62.3 32.0 62.75 L31.9 62.95 31.2 63.05 Q30.05 63.05 28.95 62.1 27.8 61.2 27.8 60.55 L27.8 60.5" fill="#ffffff" fill-rule="evenodd" stroke="none"/>
    <path d="M31.55 35.9 L34.55 40.95 30.25 36.6 27.5 39.35 27.3 39.55 26.45 40.4 24.35 38.35 28.2 34.55 24.05 30.4 28.95 33.35 34.2 25.8 40.05 24.95 39.15 30.7 31.55 35.9" fill="#00cccc" fill-rule="evenodd" stroke="none"/>
    <path d="M31.55 35.9 L34.55 40.95 30.25 36.6 27.5 39.35 27.3 39.55 26.45 40.4 24.35 38.35 28.2 34.55 24.05 30.4 28.95 33.35 34.2 25.8 40.05 24.95 39.15 30.7 31.55 35.9 Z" fill="none" stroke="#002962" stroke-linecap="butt" stroke-linejoin="miter-clip" stroke-miterlimit="3.0" stroke-width="2.0"/>
    <path d="M28.95 33.35 L34.2 25.8 40.05 24.95 39.15 30.7 31.55 35.9 31.15 35.25 38.45 30.15 38.55 26.35 34.7 26.45 30.45 32.35 29.55 33.65 28.95 33.35" fill="#ffffff" fill-rule="evenodd" stroke="none"/>
    <path d="M29.55 33.65 L30.45 32.35 30.75 33.3 30.95 33.8 38.55 26.35 38.45 30.15 31.15 35.25 30.65 34.3 29.55 33.65" fill="#879cb8" fill-rule="evenodd" stroke="none"/>
    <path d="M30.45 32.35 L34.7 26.45 38.55 26.35 30.95 33.8 30.75 33.3 30.45 32.35" fill="#d1e0f5" fill-rule="evenodd" stroke="none"/>
    <path d="M28.95 33.35 L29.55 33.65 30.65 34.3 31.15 35.25 31.55 35.9 34.55 40.95 34.4 40.8 29.95 35.0 24.25 30.55 28.95 33.35 M27.9 39.0 L27.5 39.35 27.3 39.55 27.0 39.8 26.1 38.95 25.9 38.85 25.95 38.8 25.2 38.1 25.7 37.5 Q26.65 36.55 27.5 36.15 28.2 35.95 28.6 36.15 L28.8 36.25 Q29.65 37.05 27.9 39.0" fill="#ffb600" fill-rule="evenodd" stroke="none"/>
    <path d="M34.4 40.8 L30.25 36.6 30.3 36.55 28.2 34.55 24.05 30.4 24.25 30.55 29.95 35.0 34.4 40.8" fill="#914700" fill-rule="evenodd" stroke="none"/>
    <path d="M30.25 36.6 L27.9 39.0 Q29.65 37.05 28.8 36.25 L28.6 36.15 Q28.2 35.95 27.5 36.15 26.65 36.55 25.7 37.5 L25.2 38.1 25.95 38.8 25.9 38.85 26.1 38.95 27.0 39.8 26.45 40.4 24.35 38.35 28.2 34.55 30.3 36.55 30.25 36.6" fill="#c66303" fill-rule="evenodd" stroke="none"/>
  </g>
</svg>
