<?xml version="1.0" encoding="UTF-8" standalone="no"?>
<svg xmlns:xlink="http://www.w3.org/1999/xlink" height="27.0px" width="233.45px" xmlns="http://www.w3.org/2000/svg">
  <g transform="matrix(1.0, 0.0, 0.0, 1.0, -54.05, -21.0)">
    <path d="M286.55 38.1 L281.6 38.1 281.6 43.4 287.5 43.4 287.5 47.1 270.2 47.1 270.2 43.4 277.3 43.4 277.3 38.1 271.1 38.1 271.1 34.4 277.3 34.4 277.3 29.1 274.6 29.1 274.4 30.25 Q274.25 31.85 273.2 31.85 L270.2 31.85 270.2 28.75 269.25 28.75 269.25 47.45 265.55 47.45 265.55 28.75 264.3 28.75 264.3 46.4 260.8 46.4 260.8 22.25 264.3 22.25 264.3 25.25 265.55 25.25 265.55 21.15 269.25 21.15 269.25 25.25 270.5 25.25 270.5 28.75 270.75 28.75 Q271.1 28.75 271.15 27.9 L271.95 22.25 275.5 22.25 275.1 25.4 277.3 25.4 277.3 21.2 281.6 21.2 281.6 25.4 286.9 25.4 286.9 29.1 281.6 29.1 281.6 34.4 286.55 34.4 286.55 38.1 M254.45 28.3 L235.55 28.3 235.55 43.65 Q235.55 45.75 234.5 46.8 233.55 47.9 231.05 47.9 L231.05 44.8 Q231.95 44.3 231.95 43.4 L231.95 21.15 257.45 21.15 257.45 25.25 Q257.45 28.3 254.45 28.3 M255.35 31.4 Q254.45 32.05 252.85 32.05 L248.35 32.05 248.35 33.0 256.55 33.0 256.55 37.3 Q256.55 39.0 254.7 39.0 L248.35 39.0 248.35 39.95 257.15 39.95 257.15 45.35 Q257.15 47.75 253.65 47.75 L251.9 47.75 251.9 46.3 Q251.45 46.75 250.15 46.75 L240.35 46.75 240.35 44.9 242.3 42.5 239.8 42.5 239.8 47.65 236.1 47.65 236.1 39.95 244.55 39.95 244.55 39.0 236.45 39.0 236.45 33.0 244.55 33.0 244.55 32.05 236.1 32.05 236.1 29.55 251.3 29.55 Q252.2 29.55 252.5 28.75 L256.4 28.75 Q256.25 30.65 255.35 31.4 M244.55 35.3 L240.1 35.3 240.1 36.7 244.55 36.7 244.55 35.3 M248.35 35.3 L248.35 36.7 252.5 36.7 252.85 36.5 252.85 35.3 248.35 35.3 M252.2 43.2 L252.2 45.2 252.7 45.2 Q253.45 45.2 253.45 44.8 L253.45 42.5 246.05 42.5 244.3 44.45 249.4 44.45 249.6 44.2 249.6 43.2 252.2 43.2 M253.45 25.2 L253.45 24.0 235.55 24.0 235.55 25.5 252.7 25.5 Q253.45 25.5 253.45 25.2" fill="#ff0000" fill-rule="evenodd" stroke="none"/>
    <path d="M219.7 21.15 L219.25 23.2 227.9 23.2 227.9 44.3 Q227.9 47.45 224.3 47.45 L216.8 47.45 216.8 43.85 222.95 43.85 Q223.85 43.85 223.85 43.05 L223.85 27.0 218.45 27.0 218.35 27.55 Q217.85 29.75 215.75 29.75 L213.7 29.75 213.7 44.9 Q213.7 47.55 210.8 47.55 L201.9 47.55 201.9 23.05 205.4 23.05 205.95 21.2 210.35 21.2 209.85 23.05 213.7 23.05 213.7 26.45 214.45 26.45 Q214.85 26.45 215.0 25.5 L215.75 21.15 219.7 21.15 M218.9 30.7 L220.25 37.15 Q220.45 38.2 221.2 38.2 L223.15 38.2 223.15 41.9 219.25 41.9 Q217.4 41.9 216.9 39.85 L214.85 30.7 218.9 30.7 M209.8 26.65 L205.85 26.65 205.85 33.25 209.8 33.25 209.8 26.65 M205.85 37.05 L205.85 43.95 208.85 43.95 Q209.8 43.95 209.8 43.2 L209.8 37.05 205.85 37.05 M197.25 24.65 Q196.3 25.6 194.55 25.6 L190.6 25.6 190.6 29.1 197.65 29.1 197.65 32.65 190.6 32.65 190.6 35.65 198.55 35.65 198.55 39.35 190.6 39.35 190.6 44.3 Q190.6 47.55 186.3 47.55 L173.4 47.55 173.4 44.1 185.25 44.1 Q186.05 44.1 186.05 43.55 L186.05 39.35 172.0 39.35 172.0 35.65 186.05 35.65 186.05 32.65 172.95 32.65 172.95 29.1 186.05 29.1 186.05 25.6 172.25 25.6 172.25 22.05 192.7 22.05 Q193.65 22.05 194.05 21.0 L198.45 21.0 Q198.25 23.6 197.25 24.65 M166.8 23.9 L169.1 23.9 169.1 27.6 166.8 27.6 166.8 45.6 Q166.8 47.65 164.4 47.65 L158.95 47.65 158.95 44.2 162.1 44.2 Q162.65 44.2 162.65 43.65 L162.65 27.6 155.6 27.6 155.6 23.9 162.65 23.9 162.65 21.15 166.8 21.15 166.8 23.9 M154.8 22.05 L154.8 25.85 151.15 36.65 154.1 42.6 Q154.65 43.85 155.35 43.85 L157.25 43.85 157.25 47.3 152.95 47.3 Q151.9 47.3 151.2 45.75 L149.45 41.9 148.55 44.55 Q147.6 47.3 146.25 47.3 L142.4 47.3 142.4 43.85 144.4 43.85 Q145.0 43.85 145.3 43.0 L147.15 37.0 142.8 27.6 146.7 27.6 148.75 31.8 150.65 25.7 143.0 25.7 143.0 22.05 154.8 22.05 M132.95 28.5 L119.4 28.5 119.4 29.9 132.05 29.9 Q132.95 29.9 132.95 28.85 L132.95 28.5 M134.3 33.0 L115.0 33.0 115.0 21.0 137.4 21.0 137.4 30.35 Q137.4 33.0 134.3 33.0 M127.55 39.5 L137.9 39.5 137.9 42.6 127.55 42.6 127.55 44.2 139.45 44.2 139.45 47.45 120.55 47.45 Q119.9 47.45 118.7 46.5 116.35 47.9 113.05 47.9 L113.05 44.65 Q115.6 44.45 115.6 43.75 L115.6 39.0 119.45 39.0 119.45 41.9 Q120.05 44.2 121.9 44.2 L123.45 44.2 123.45 37.85 113.35 37.85 113.35 34.4 138.8 34.4 138.8 37.85 127.55 37.85 127.55 39.5 M158.35 30.25 L159.8 37.15 Q159.95 38.1 160.7 38.1 L161.45 38.1 161.45 41.5 158.7 41.5 Q157.0 41.5 156.5 39.6 L154.45 30.25 158.35 30.25 M132.95 24.15 L119.4 24.15 119.4 25.5 132.95 25.5 132.95 24.15 M88.2 24.7 L88.2 27.6 94.45 27.6 94.45 24.7 88.2 24.7 M98.6 33.35 L104.05 33.35 Q104.95 33.35 104.95 32.65 L104.95 30.8 98.6 30.8 98.6 33.35 M94.45 30.8 L88.2 30.8 88.2 33.35 94.45 33.35 94.45 30.8 M83.9 38.75 L94.45 38.75 94.45 36.7 84.15 36.7 84.15 21.35 109.1 21.35 109.1 33.75 Q109.1 36.7 105.4 36.7 L98.6 36.7 98.6 38.75 109.35 38.75 109.35 42.15 98.6 42.15 98.6 44.1 109.8 44.1 109.8 47.45 83.45 47.45 83.45 44.1 94.45 44.1 94.45 42.15 83.9 42.15 83.9 38.75 M104.95 24.7 L98.6 24.7 98.6 27.6 104.95 27.6 104.95 24.7 M73.1 24.35 L80.3 24.35 80.3 27.95 61.05 27.95 61.05 24.35 68.35 24.35 68.35 22.05 73.1 22.05 73.1 24.35 M60.25 21.9 L60.25 26.65 55.9 26.65 55.9 21.9 60.25 21.9 M54.05 33.75 L54.05 29.75 60.35 29.75 60.35 41.65 Q61.4 44.3 65.1 44.3 L80.95 44.3 80.95 48.0 63.5 48.0 Q62.15 48.0 59.65 46.95 57.4 48.0 54.15 48.0 L54.15 44.3 Q56.55 44.05 56.55 43.25 L56.55 33.75 54.05 33.75 M74.7 29.3 L79.65 29.3 73.6 36.2 75.8 38.6 Q76.5 39.35 77.35 39.35 L79.5 39.35 79.5 42.8 74.9 42.8 Q73.6 42.8 72.65 41.8 L70.75 39.5 68.85 41.6 Q67.95 42.7 66.8 42.7 L62.1 42.7 62.1 39.2 65.0 39.2 Q65.7 39.2 66.3 38.35 L68.1 36.45 62.0 29.3 67.05 29.3 70.9 33.35 74.7 29.3" fill="#ffff00" fill-rule="evenodd" stroke="none"/>
  </g>
</svg>
