<?xml version="1.0" encoding="UTF-8" standalone="no"?>
<svg xmlns:xlink="http://www.w3.org/1999/xlink" height="24.0px" width="76.35px" xmlns="http://www.w3.org/2000/svg">
  <g transform="matrix(1.0, 0.0, 0.0, 1.0, -90.75, -8.45)">
    <path d="M161.1 14.4 Q158.65 11.95 155.1 11.95 L102.75 11.95 Q99.15 11.95 96.7 14.4 94.25 16.85 94.25 20.45 94.25 24.0 96.7 26.45 99.2 28.95 102.75 28.95 L155.1 28.95 Q158.6 28.95 161.1 26.45 163.6 23.95 163.6 20.45 163.6 16.9 161.1 14.4 M167.1 20.45 Q167.1 25.35 163.55 28.9 160.0 32.45 155.1 32.45 L102.75 32.45 Q97.8 32.45 94.25 28.9 90.75 25.4 90.75 20.45 90.75 15.45 94.25 11.95 97.75 8.45 102.75 8.45 L155.1 8.45 Q160.05 8.45 163.55 11.95 167.1 15.5 167.1 20.45" fill="#287299" fill-rule="evenodd" stroke="none"/>
    <path d="M162.15 13.35 Q165.1 16.3 165.1 20.45 165.1 24.55 162.15 27.5 159.2 30.45 155.1 30.45 L102.75 30.45 Q98.6 30.45 95.65 27.5 92.75 24.6 92.75 20.45 92.75 16.25 95.65 13.35 98.55 10.45 102.75 10.45 L155.1 10.45 Q159.25 10.45 162.15 13.35" fill="#a7b2cc" fill-rule="evenodd" stroke="none"/>
    <path d="M162.15 13.35 Q159.25 10.45 155.1 10.45 L102.75 10.45 Q98.55 10.45 95.65 13.35 92.75 16.25 92.75 20.45 92.75 24.6 95.65 27.5 98.6 30.45 102.75 30.45 L155.1 30.45 Q159.2 30.45 162.15 27.5 165.1 24.55 165.1 20.45 165.1 16.3 162.15 13.35 Z" fill="none" stroke="#f0f5f8" stroke-linecap="butt" stroke-linejoin="miter-clip" stroke-miterlimit="3.0" stroke-width="1.1"/>
    <path d="M162.45 20.45 L162.45 20.5 Q162.45 23.75 160.2 26.0 L160.0 26.2 159.0 27.0 Q157.05 28.3 154.6 28.3 L103.15 28.3 Q100.65 28.3 98.75 26.95 L97.65 26.0 97.6 25.95 Q95.35 23.75 95.35 20.5 L95.35 20.45 Q95.35 17.3 97.65 14.9 99.9 12.65 103.15 12.65 L154.6 12.65 Q157.8 12.65 160.2 14.9 162.45 17.3 162.45 20.45" fill="#1d4455" fill-rule="evenodd" stroke="none"/>
    <path d="M162.45 20.45 Q162.45 17.3 160.2 14.9 157.8 12.65 154.6 12.65 L103.15 12.65 Q99.9 12.65 97.65 14.9 95.35 17.3 95.35 20.45 L95.35 20.5 Q95.35 23.75 97.6 25.95 L97.65 26.0 98.75 26.95 Q100.65 28.3 103.15 28.3 L154.6 28.3 Q157.05 28.3 159.0 27.0 L160.0 26.2 160.2 26.0 Q162.45 23.75 162.45 20.5 L162.45 20.45 Z" fill="none" stroke="#122934" stroke-linecap="butt" stroke-linejoin="miter-clip" stroke-miterlimit="3.0" stroke-width="1.5"/>
  </g>
</svg>
