<?xml version="1.0" encoding="UTF-8" standalone="no"?>
<svg xmlns:xlink="http://www.w3.org/1999/xlink" height="59.25px" width="59.2px" xmlns="http://www.w3.org/2000/svg">
  <g transform="matrix(1.0, 0.0, 0.0, 1.0, -2.8, -2.75)">
    <path d="M61.4 32.35 Q61.4 44.35 52.9 52.85 44.4 61.4 32.4 61.4 20.4 61.4 11.85 52.85 3.4 44.35 3.4 32.35 3.4 20.35 11.85 11.8 20.4 3.35 32.4 3.35 44.4 3.35 52.9 11.8 61.4 20.35 61.4 32.35 M58.5 32.75 Q58.5 21.95 50.85 14.25 43.2 6.65 32.4 6.65 21.6 6.65 13.9 14.25 6.3 21.95 6.3 32.75 6.3 43.55 13.9 51.2 21.6 58.85 32.4 58.85 43.2 58.85 50.85 51.2 58.5 43.55 58.5 32.75" fill="#0e1e34" fill-opacity="0.7019608" fill-rule="evenodd" stroke="none"/>
    <path d="M61.4 32.35 Q61.4 44.35 52.9 52.85 44.4 61.4 32.4 61.4 20.4 61.4 11.85 52.85 3.4 44.35 3.4 32.35 3.4 20.35 11.85 11.8 20.4 3.35 32.4 3.35 44.4 3.35 52.9 11.8 61.4 20.35 61.4 32.35 Z" fill="none" stroke="#244d87" stroke-linecap="round" stroke-linejoin="round" stroke-width="1.2000000000000002"/>
    <path d="M24.9 29.95 L23.1 29.95 21.7 34.05 23.45 34.05 24.9 29.95 M28.95 29.95 L27.3 29.95 25.85 34.05 27.5 34.05 28.95 29.95 M15.95 25.0 L18.6 25.0 19.1 23.45 21.4 23.45 21.0 25.0 21.85 25.0 21.25 27.15 20.25 27.15 19.75 28.8 20.55 28.8 19.8 30.8 19.0 30.8 16.15 39.2 Q15.85 40.35 15.15 40.8 L13.5 41.25 11.1 41.25 11.85 39.2 12.7 39.2 13.65 39.2 13.85 38.95 15.15 35.45 14.55 36.3 Q13.7 37.5 12.55 37.5 L11.8 37.5 12.4 35.45 12.65 35.45 13.5 34.8 17.3 29.0 17.95 27.15 15.2 27.15 15.95 25.0 M27.65 23.45 L27.0 24.3 33.4 24.3 32.7 26.25 30.9 27.95 31.95 27.95 29.95 34.05 30.35 34.05 29.65 36.15 25.3 36.15 25.95 38.5 26.75 39.2 27.95 39.35 28.55 39.35 27.85 41.25 25.9 41.25 24.6 41.1 23.85 40.25 23.2 38.35 20.9 40.8 19.8 41.2 16.6 41.25 17.2 39.35 18.65 39.35 19.5 39.2 20.1 38.95 20.7 38.35 22.45 36.15 18.2 36.15 18.9 34.05 19.4 34.05 21.4 27.95 28.15 27.95 30.05 26.25 25.4 26.25 24.25 27.0 22.9 27.35 21.55 27.35 22.15 25.55 22.8 25.55 23.45 25.25 25.4 23.45 27.65 23.45 M45.3 33.0 L47.4 33.0 44.05 39.65 43.35 40.7 Q42.8 41.3 41.45 41.3 L40.35 41.3 41.0 39.1 41.6 39.1 42.0 38.95 42.45 38.35 45.3 33.0 M41.6 33.0 L43.95 33.0 40.55 39.65 40.0 40.35 39.3 40.9 Q38.85 41.25 37.8 41.25 L37.0 41.25 37.8 39.1 38.05 39.1 Q38.55 39.1 38.85 38.5 L41.6 33.0 M41.85 25.7 L41.1 27.9 39.3 27.9 35.5 38.95 37.3 38.95 36.5 41.2 30.1 41.2 30.85 38.95 32.9 38.95 36.65 27.9 34.65 27.9 35.4 25.7 37.5 25.7 38.15 23.45 40.75 23.45 40.0 25.7 41.85 25.7 M43.0 23.75 L53.65 23.75 53.05 25.65 48.7 29.5 51.7 29.5 48.45 39.1 47.95 40.05 47.4 40.7 46.55 41.2 45.6 41.3 44.2 41.3 45.05 39.0 45.5 39.0 45.85 38.95 46.35 38.35 48.65 31.65 40.35 31.65 41.1 29.5 45.95 29.5 49.75 25.95 42.25 25.95 43.0 23.75" fill="url(#gradient0)" fill-rule="evenodd" stroke="none"/>
    <path d="M43.0 23.75 L42.25 25.95 49.75 25.95 45.95 29.5 41.1 29.5 40.35 31.65 48.65 31.65 46.35 38.35 45.85 38.95 45.5 39.0 45.05 39.0 44.2 41.3 45.6 41.3 46.55 41.2 47.4 40.7 47.95 40.05 48.45 39.1 51.7 29.5 48.7 29.5 53.05 25.65 53.65 23.75 43.0 23.75 M41.85 25.7 L40.0 25.7 40.75 23.45 38.15 23.45 37.5 25.7 35.4 25.7 34.65 27.9 36.65 27.9 32.9 38.95 30.85 38.95 30.1 41.2 36.5 41.2 37.3 38.95 35.5 38.95 39.3 27.9 41.1 27.9 41.85 25.7 M41.6 33.0 L38.85 38.5 Q38.55 39.1 38.05 39.1 L37.8 39.1 37.0 41.25 37.8 41.25 Q38.85 41.25 39.3 40.9 L40.0 40.35 40.55 39.65 43.95 33.0 41.6 33.0 M45.3 33.0 L42.45 38.35 42.0 38.95 41.6 39.1 41.0 39.1 40.35 41.3 41.45 41.3 Q42.8 41.3 43.35 40.7 L44.05 39.65 47.4 33.0 45.3 33.0 M27.65 23.45 L25.4 23.45 23.45 25.25 22.8 25.55 22.15 25.55 21.55 27.35 22.9 27.35 24.25 27.0 25.4 26.25 30.05 26.25 28.15 27.95 21.4 27.95 19.4 34.05 18.9 34.05 18.2 36.15 22.45 36.15 20.7 38.35 20.1 38.95 19.5 39.2 18.65 39.35 17.2 39.35 16.6 41.25 19.8 41.2 20.9 40.8 23.2 38.35 23.85 40.25 24.6 41.1 25.9 41.25 27.85 41.25 28.55 39.35 27.95 39.35 26.75 39.2 25.95 38.5 25.3 36.15 29.65 36.15 30.35 34.05 29.95 34.05 31.95 27.95 30.9 27.95 32.7 26.25 33.4 24.3 27.0 24.3 27.65 23.45 M15.95 25.0 L15.2 27.15 17.95 27.15 17.3 29.0 13.5 34.8 12.65 35.45 12.4 35.45 11.8 37.5 12.55 37.5 Q13.7 37.5 14.55 36.3 L15.15 35.45 13.85 38.95 13.65 39.2 12.7 39.2 11.85 39.2 11.1 41.25 13.5 41.25 15.15 40.8 Q15.85 40.35 16.15 39.2 L19.0 30.8 19.8 30.8 20.55 28.8 19.75 28.8 20.25 27.15 21.25 27.15 21.85 25.0 21.0 25.0 21.4 23.45 19.1 23.45 18.6 25.0 15.95 25.0 M28.95 29.95 L27.5 34.05 25.85 34.05 27.3 29.95 28.95 29.95 M24.9 29.95 L23.45 34.05 21.7 34.05 23.1 29.95 24.9 29.95 Z" fill="none" stroke="#000033" stroke-linecap="round" stroke-linejoin="round" stroke-width="4.0"/>
    <path d="M24.9 29.95 L23.1 29.95 21.7 34.05 23.45 34.05 24.9 29.95 M28.95 29.95 L27.3 29.95 25.85 34.05 27.5 34.05 28.95 29.95 M15.95 25.0 L18.6 25.0 19.1 23.45 21.4 23.45 21.0 25.0 21.85 25.0 21.25 27.15 20.25 27.15 19.75 28.8 20.55 28.8 19.8 30.8 19.0 30.8 16.15 39.2 Q15.85 40.35 15.15 40.8 L13.5 41.25 11.1 41.25 11.85 39.2 12.7 39.2 13.65 39.2 13.85 38.95 15.15 35.45 14.55 36.3 Q13.7 37.5 12.55 37.5 L11.8 37.5 12.4 35.45 12.65 35.45 13.5 34.8 17.3 29.0 17.95 27.15 15.2 27.15 15.95 25.0 M27.65 23.45 L27.0 24.3 33.4 24.3 32.7 26.25 30.9 27.95 31.95 27.95 29.95 34.05 30.35 34.05 29.65 36.15 25.3 36.15 25.95 38.5 26.75 39.2 27.95 39.35 28.55 39.35 27.85 41.25 25.9 41.25 24.6 41.1 23.85 40.25 23.2 38.35 20.9 40.8 19.8 41.2 16.6 41.25 17.2 39.35 18.65 39.35 19.5 39.2 20.1 38.95 20.7 38.35 22.45 36.15 18.2 36.15 18.9 34.05 19.4 34.05 21.4 27.95 28.15 27.95 30.05 26.25 25.4 26.25 24.25 27.0 22.9 27.35 21.55 27.35 22.15 25.55 22.8 25.55 23.45 25.25 25.4 23.45 27.65 23.45 M45.3 33.0 L47.4 33.0 44.05 39.65 43.35 40.7 Q42.8 41.3 41.45 41.3 L40.35 41.3 41.0 39.1 41.6 39.1 42.0 38.95 42.45 38.35 45.3 33.0 M41.6 33.0 L43.95 33.0 40.55 39.65 40.0 40.35 39.3 40.9 Q38.85 41.25 37.8 41.25 L37.0 41.25 37.8 39.1 38.05 39.1 Q38.55 39.1 38.85 38.5 L41.6 33.0 M41.85 25.7 L41.1 27.9 39.3 27.9 35.5 38.95 37.3 38.95 36.5 41.2 30.1 41.2 30.85 38.95 32.9 38.95 36.65 27.9 34.65 27.9 35.4 25.7 37.5 25.7 38.15 23.45 40.75 23.45 40.0 25.7 41.85 25.7 M43.0 23.75 L53.65 23.75 53.05 25.65 48.7 29.5 51.7 29.5 48.45 39.1 47.95 40.05 47.4 40.7 46.55 41.2 45.6 41.3 44.2 41.3 45.05 39.0 45.5 39.0 45.85 38.95 46.35 38.35 48.65 31.65 40.35 31.65 41.1 29.5 45.95 29.5 49.75 25.95 42.25 25.95 43.0 23.75" fill="url(#gradient1)" fill-rule="evenodd" stroke="none"/>
    <path d="M43.0 23.75 L42.25 25.95 49.75 25.95 45.95 29.5 41.1 29.5 40.35 31.65 48.65 31.65 46.35 38.35 45.85 38.95 45.5 39.0 45.05 39.0 44.2 41.3 45.6 41.3 46.55 41.2 47.4 40.7 47.95 40.05 48.45 39.1 51.7 29.5 48.7 29.5 53.05 25.65 53.65 23.75 43.0 23.75 M41.85 25.7 L40.0 25.7 40.75 23.45 38.15 23.45 37.5 25.7 35.4 25.7 34.65 27.9 36.65 27.9 32.9 38.95 30.85 38.95 30.1 41.2 36.5 41.2 37.3 38.95 35.5 38.95 39.3 27.9 41.1 27.9 41.85 25.7 M41.6 33.0 L38.85 38.5 Q38.55 39.1 38.05 39.1 L37.8 39.1 37.0 41.25 37.8 41.25 Q38.85 41.25 39.3 40.9 L40.0 40.35 40.55 39.65 43.95 33.0 41.6 33.0 M45.3 33.0 L42.45 38.35 42.0 38.95 41.6 39.1 41.0 39.1 40.35 41.3 41.45 41.3 Q42.8 41.3 43.35 40.7 L44.05 39.65 47.4 33.0 45.3 33.0 M27.65 23.45 L25.4 23.45 23.45 25.25 22.8 25.55 22.15 25.55 21.55 27.35 22.9 27.35 24.25 27.0 25.4 26.25 30.05 26.25 28.15 27.95 21.4 27.95 19.4 34.05 18.9 34.05 18.2 36.15 22.45 36.15 20.7 38.35 20.1 38.95 19.5 39.2 18.65 39.35 17.2 39.35 16.6 41.25 19.8 41.2 20.9 40.8 23.2 38.35 23.85 40.25 24.6 41.1 25.9 41.25 27.85 41.25 28.55 39.35 27.95 39.35 26.75 39.2 25.95 38.5 25.3 36.15 29.65 36.15 30.35 34.05 29.95 34.05 31.95 27.95 30.9 27.95 32.7 26.25 33.4 24.3 27.0 24.3 27.65 23.45 M15.95 25.0 L15.2 27.15 17.95 27.15 17.3 29.0 13.5 34.8 12.65 35.45 12.4 35.45 11.8 37.5 12.55 37.5 Q13.7 37.5 14.55 36.3 L15.15 35.45 13.85 38.95 13.65 39.2 12.7 39.2 11.85 39.2 11.1 41.25 13.5 41.25 15.15 40.8 Q15.85 40.35 16.15 39.2 L19.0 30.8 19.8 30.8 20.55 28.8 19.75 28.8 20.25 27.15 21.25 27.15 21.85 25.0 21.0 25.0 21.4 23.45 19.1 23.45 18.6 25.0 15.95 25.0 M28.95 29.95 L27.5 34.05 25.85 34.05 27.3 29.95 28.95 29.95 M24.9 29.95 L23.45 34.05 21.7 34.05 23.1 29.95 24.9 29.95 Z" fill="none" stroke="#006699" stroke-linecap="round" stroke-linejoin="round" stroke-width="2.0"/>
    <path d="M24.9 29.95 L23.1 29.95 21.7 34.05 23.45 34.05 24.9 29.95 M28.95 29.95 L27.3 29.95 25.85 34.05 27.5 34.05 28.95 29.95 M15.95 25.0 L18.6 25.0 19.1 23.45 21.4 23.45 21.0 25.0 21.85 25.0 21.25 27.15 20.25 27.15 19.75 28.8 20.55 28.8 19.8 30.8 19.0 30.8 16.15 39.2 Q15.85 40.35 15.15 40.8 L13.5 41.25 11.1 41.25 11.85 39.2 12.7 39.2 13.65 39.2 13.85 38.95 15.15 35.45 14.55 36.3 Q13.7 37.5 12.55 37.5 L11.8 37.5 12.4 35.45 12.65 35.45 13.5 34.8 17.3 29.0 17.95 27.15 15.2 27.15 15.95 25.0 M27.65 23.45 L27.0 24.3 33.4 24.3 32.7 26.25 30.9 27.95 31.95 27.95 29.95 34.05 30.35 34.05 29.65 36.15 25.3 36.15 25.95 38.5 26.75 39.2 27.95 39.35 28.55 39.35 27.85 41.25 25.9 41.25 24.6 41.1 23.85 40.25 23.2 38.35 20.9 40.8 19.8 41.2 16.6 41.25 17.2 39.35 18.65 39.35 19.5 39.2 20.1 38.95 20.7 38.35 22.45 36.15 18.2 36.15 18.9 34.05 19.4 34.05 21.4 27.95 28.15 27.95 30.05 26.25 25.4 26.25 24.25 27.0 22.9 27.35 21.55 27.35 22.15 25.55 22.8 25.55 23.45 25.25 25.4 23.45 27.65 23.45 M45.3 33.0 L47.4 33.0 44.05 39.65 43.35 40.7 Q42.8 41.3 41.45 41.3 L40.35 41.3 41.0 39.1 41.6 39.1 42.0 38.95 42.45 38.35 45.3 33.0 M41.6 33.0 L43.95 33.0 40.55 39.65 40.0 40.35 39.3 40.9 Q38.85 41.25 37.8 41.25 L37.0 41.25 37.8 39.1 38.05 39.1 Q38.55 39.1 38.85 38.5 L41.6 33.0 M41.85 25.7 L41.1 27.9 39.3 27.9 35.5 38.95 37.3 38.95 36.5 41.2 30.1 41.2 30.85 38.95 32.9 38.95 36.65 27.9 34.65 27.9 35.4 25.7 37.5 25.7 38.15 23.45 40.75 23.45 40.0 25.7 41.85 25.7 M43.0 23.75 L53.65 23.75 53.05 25.65 48.7 29.5 51.7 29.5 48.45 39.1 47.95 40.05 47.4 40.7 46.55 41.2 45.6 41.3 44.2 41.3 45.05 39.0 45.5 39.0 45.85 38.95 46.35 38.35 48.65 31.65 40.35 31.65 41.1 29.5 45.95 29.5 49.75 25.95 42.25 25.95 43.0 23.75" fill="url(#gradient2)" fill-rule="evenodd" stroke="none"/>
  </g>
  <defs>
    <linearGradient gradientTransform="matrix(0.0, -0.0099, 0.0108, 0.0, 35.8, 32.5)" gradientUnits="userSpaceOnUse" id="gradient0" spreadMethod="pad" x1="-819.2" x2="819.2">
      <stop offset="0.0" stop-color="#009900"/>
      <stop offset="1.0" stop-color="#00ff00"/>
    </linearGradient>
    <linearGradient gradientTransform="matrix(0.0, -0.0099, 0.0108, 0.0, 35.8, 32.5)" gradientUnits="userSpaceOnUse" id="gradient1" spreadMethod="pad" x1="-819.2" x2="819.2">
      <stop offset="0.0" stop-color="#009900"/>
      <stop offset="1.0" stop-color="#00ff00"/>
    </linearGradient>
    <linearGradient gradientTransform="matrix(0.0, -0.0099, 0.0108, 0.0, 35.8, 32.5)" gradientUnits="userSpaceOnUse" id="gradient2" spreadMethod="pad" x1="-819.2" x2="819.2">
      <stop offset="0.0" stop-color="#66ccff"/>
      <stop offset="1.0" stop-color="#66ffff"/>
    </linearGradient>
  </defs>
</svg>
