<?xml version="1.0" encoding="UTF-8" standalone="no"?>
<svg xmlns:xlink="http://www.w3.org/1999/xlink" height="34.3px" width="31.75px" xmlns="http://www.w3.org/2000/svg">
  <g transform="matrix(1.0, 0.0, 0.0, 1.0, 18.1, 17.15)">
    <path d="M8.25 -12.0 Q6.0 -11.15 4.2 -9.8 2.15 -8.25 2.55 -6.15 3.4 -6.0 3.85 -7.0 4.8 -9.1 6.95 -9.7 9.7 -10.5 11.1 -12.8 12.05 -14.55 11.0 -15.5 L10.8 -15.35 Q9.9 -14.05 9.5 -12.55 L8.5 -12.1 9.2 -15.8 12.5 -16.1 12.2 -11.4 Q3.95 -9.55 1.9 -1.5 L1.45 0.55 -1.05 0.55 Q-1.1 -5.35 2.95 -9.8 3.45 -10.35 4.25 -10.55 L8.25 -12.0" fill="#bbbbbb" fill-rule="evenodd" stroke="none"/>
    <path d="M8.5 -12.1 L9.5 -12.55 Q9.9 -14.05 10.8 -15.35 L11.0 -15.5 Q12.05 -14.55 11.1 -12.8 9.7 -10.5 6.95 -9.7 4.8 -9.1 3.85 -7.0 3.4 -6.0 2.55 -6.15 2.15 -8.25 4.2 -9.8 6.0 -11.15 8.25 -12.0 L8.5 -12.1" fill="#f7f7f7" fill-rule="evenodd" stroke="none"/>
    <path d="M8.25 -12.0 L4.25 -10.55 Q3.45 -10.35 2.95 -9.8 -1.1 -5.35 -1.05 0.55 L1.45 0.55 1.9 -1.5 Q3.95 -9.55 12.2 -11.4 L12.5 -16.1 9.2 -15.8 8.5 -12.1 8.25 -12.0 M7.35 14.4 L7.4 13.15 1.05 10.3 Q-3.45 2.45 -0.5 -6.05 0.35 -8.55 1.95 -10.65 L8.0 -12.85 8.1 -16.8 13.4 -16.9 13.25 -10.3 Q11.05 -10.25 8.95 -9.3 L7.55 -8.55 7.3 -8.4 6.8 -8.05 Q1.0 -2.95 3.35 4.3 4.0 6.1 5.45 7.65 8.4 11.0 12.95 11.1 L12.9 11.2 12.9 13.65 12.85 15.05 7.35 14.4 M7.35 16.6 L7.4 15.95 12.8 16.15 12.85 16.9 7.35 16.6" fill="#737373" fill-rule="evenodd" stroke="none"/>
    <path d="M6.75 -13.95 L7.0 -15.7 Q-4.85 -14.45 -13.75 -7.2 -17.75 -3.95 -14.55 -0.4 -13.45 0.8 -11.75 1.25 -7.3 2.4 -3.0 2.75 -3.45 -1.7 -2.3 -6.0 -0.85 -11.1 3.95 -12.85 L6.75 -13.95 M8.1 -16.8 L8.0 -12.85 1.95 -10.65 Q0.35 -8.55 -0.5 -6.05 -3.45 2.45 1.05 10.3 L7.4 13.15 7.35 14.4 7.4 15.95 7.35 16.6 Q-5.15 15.65 -14.6 7.5 -18.65 3.5 -17.65 -1.85 -16.65 -7.45 -11.6 -10.55 -2.55 -16.15 8.1 -16.8 M5.55 15.4 L5.55 14.25 4.05 13.85 Q-3.1 12.55 -9.5 9.3 L-14.2 6.2 -12.4 7.9 Q-4.65 14.05 5.55 15.4" fill="#607b7d" fill-rule="evenodd" stroke="none"/>
    <path d="M6.75 -13.95 L3.95 -12.85 Q-0.85 -11.1 -2.3 -6.0 -3.45 -1.7 -3.0 2.75 -7.3 2.4 -11.75 1.25 -13.45 0.8 -14.55 -0.4 -17.75 -3.95 -13.75 -7.2 -4.85 -14.45 7.0 -15.7 L6.75 -13.95 M-7.3 -10.6 Q-12.0 -8.7 -14.4 -4.4 -15.45 -2.65 -13.9 -1.05 -9.85 2.25 -5.65 0.35 L-5.25 -2.15 Q-3.95 -6.55 -3.1 -11.2 L-3.85 -11.25 Q-5.55 -11.35 -7.3 -10.6" fill="#9aa9a8" fill-rule="evenodd" stroke="none"/>
    <path d="M7.35 14.4 L12.85 15.05 12.8 16.15 7.4 15.95 7.35 14.4 M5.55 15.4 Q-4.65 14.05 -12.4 7.9 L-14.2 6.2 -9.5 9.3 Q-3.1 12.55 4.05 13.85 L5.55 14.25 5.55 15.4" fill="#e1e1e1" fill-rule="evenodd" stroke="none"/>
    <path d="M-7.3 -10.6 Q-5.55 -11.35 -3.85 -11.25 L-3.1 -11.2 Q-3.95 -6.55 -5.25 -2.15 L-5.65 0.35 Q-9.85 2.25 -13.9 -1.05 -15.45 -2.65 -14.4 -4.4 -12.0 -8.7 -7.3 -10.6" fill="#d7dbda" fill-rule="evenodd" stroke="none"/>
    <path d="M8.1 -16.8 L8.0 -12.85 1.95 -10.65 Q0.35 -8.55 -0.5 -6.05 -3.45 2.45 1.05 10.3 L7.4 13.15 7.35 14.4 7.4 15.95 7.35 16.6 12.85 16.9 12.9 13.65 12.9 11.2 M12.95 11.1 Q8.4 11.0 5.45 7.65 4.0 6.1 3.35 4.3 1.0 -2.95 6.8 -8.05 L7.3 -8.4 7.55 -8.55 8.95 -9.3 Q11.05 -10.25 13.25 -10.3 L13.4 -16.9 8.1 -16.8" fill="none" stroke="#151515" stroke-linecap="round" stroke-linejoin="round" stroke-width="0.5"/>
    <path d="M8.1 -16.8 Q-2.55 -16.15 -11.6 -10.55 -16.65 -7.45 -17.65 -1.85 -18.65 3.5 -14.6 7.5 -5.15 15.65 7.35 16.6" fill="none" stroke="#1a3866" stroke-linecap="round" stroke-linejoin="round" stroke-width="0.5"/>
  </g>
</svg>
