<?xml version="1.0" encoding="UTF-8" standalone="no"?>
<svg xmlns:xlink="http://www.w3.org/1999/xlink" height="883.55px" width="1513.6px" xmlns="http://www.w3.org/2000/svg">
  <g transform="matrix(1.0, 0.0, 0.0, 1.0, 0.75, 0.75)">
    <path d="M1509.55 0.0 L1509.55 17.6 M1512.1 39.6 L1509.55 39.6 M1469.0 0.0 L1469.0 17.6 M1512.1 127.15 L1509.55 127.15 M1425.25 0.0 L1425.25 17.6 M1381.45 0.0 L1381.45 17.6 M1337.7 0.0 L1337.7 17.6 M1314.95 0.0 L1314.95 17.6 M1512.1 482.1 L1509.55 482.1 M1512.1 527.15 L1509.55 527.15 M1469.0 882.05 L1469.0 881.2 M1509.55 882.05 L1509.55 881.2 M1403.45 882.05 L1403.45 881.2 M1337.7 882.05 L1337.7 881.2 M1270.45 0.0 L1270.45 17.6 M1226.7 0.0 L1226.7 17.6 M1181.95 0.0 L1181.95 17.6 M1138.95 0.0 L1138.95 17.6 M1117.55 0.0 L1117.55 17.6 M1070.55 0.0 L1070.55 17.6 M1026.5 0.0 L1026.5 17.6 M981.45 0.0 L981.45 17.6 M937.8 0.0 L937.8 17.6 M892.55 0.0 L892.55 17.6 M848.8 0.0 L848.8 17.6 M826.8 0.0 L826.8 17.6 M782.05 0.0 L782.05 17.6 M761.05 0.0 L761.05 17.6 M739.05 0.0 L739.05 17.6 M695.65 0.0 L695.65 17.6 M648.65 0.0 L648.65 17.6 M604.6 0.0 L604.6 17.6 M581.55 0.0 L581.55 17.6 M541.0 0.0 L541.0 17.6 M519.0 0.0 L519.0 17.6 M475.25 0.0 L475.25 17.6 M431.45 0.0 L431.45 17.6 M409.7 0.0 L409.7 17.6 M364.95 0.0 L364.95 17.6 M320.45 0.0 L320.45 17.6 M276.7 0.0 L276.7 17.6 M231.95 0.0 L231.95 17.6 M210.95 0.0 L210.95 17.6 M167.55 0.0 L167.55 17.6 M120.55 0.0 L120.55 17.6 M76.5 0.0 L76.5 17.6 M31.45 0.0 L31.45 17.6 M2.5 17.6 L9.45 17.6 M2.5 61.35 L9.45 61.35 M0.0 105.15 L9.45 105.15 M0.0 148.9 L9.45 148.9 M0.0 193.65 L9.45 193.65 M0.0 238.15 L9.45 238.15 M0.0 259.9 L9.45 259.9 M0.0 304.65 L9.45 304.65 M0.0 347.65 L9.45 347.65 M0.0 369.65 L9.45 369.65 M0.0 413.05 L9.45 413.05 M0.0 460.05 L9.45 460.05 M0.0 504.1 L9.45 504.1 M0.0 549.15 L9.45 549.15 M0.0 593.25 L9.45 593.25 M0.0 637.0 L9.45 637.0 M0.0 681.75 L9.45 681.75 M0.0 724.75 L9.45 724.75 M0.0 768.15 L9.45 768.15 M0.0 790.15 L9.45 790.15 M0.0 837.15 L9.45 837.15 M0.0 881.2 L9.45 881.2" fill="none" stroke="#1f4e7a" stroke-linecap="butt" stroke-linejoin="miter-clip" stroke-miterlimit="3.0" stroke-width="1.5"/>
    <path d="M1509.55 17.6 L1512.1 17.6 M1509.55 61.35 L1512.1 61.35 M1491.0 17.6 L1491.0 0.0 M1509.55 83.35 L1512.1 83.35 M1509.55 105.15 L1512.1 105.15 M1509.55 148.9 L1512.1 148.9 M1509.55 170.9 L1512.1 170.9 M1509.55 193.65 L1512.1 193.65 M1447.25 17.6 L1447.25 0.0 M1403.45 17.6 L1403.45 0.0 M1359.7 17.6 L1359.7 0.0 M1509.55 216.15 L1512.1 216.15 M1509.55 238.15 L1512.1 238.15 M1509.55 259.9 L1512.1 259.9 M1509.55 281.9 L1512.1 281.9 M1509.55 304.65 L1512.1 304.65 M1509.55 326.65 L1512.1 326.65 M1509.55 347.65 L1512.1 347.65 M1509.55 369.65 L1512.1 369.65 M1509.55 391.05 L1512.1 391.05 M1509.55 413.05 L1512.1 413.05 M1509.55 438.05 L1512.1 438.05 M1509.55 460.05 L1512.1 460.05 M1509.55 504.1 L1512.1 504.1 M1509.55 549.15 L1512.1 549.15 M1509.55 570.75 L1512.1 570.75 M1509.55 593.25 L1512.1 593.25 M1509.55 615.25 L1512.1 615.25 M1509.55 637.0 L1512.1 637.0 M1509.55 659.0 L1512.1 659.0 M1509.55 681.75 L1512.1 681.75 M1509.55 703.75 L1512.1 703.75 M1509.55 724.75 L1512.1 724.75 M1509.55 746.75 L1512.1 746.75 M1509.55 768.15 L1512.1 768.15 M1509.55 790.15 L1512.1 790.15 M1509.55 815.15 L1512.1 815.15 M1509.55 837.15 L1512.1 837.15 M1447.25 881.2 L1447.25 882.05 M1491.0 881.2 L1491.0 882.05 M1509.55 859.2 L1512.1 859.2 M1509.55 881.2 L1512.1 881.2 M1381.45 881.2 L1381.45 882.05 M1359.7 881.2 L1359.7 882.05 M1425.25 881.2 L1425.25 882.05 M1314.95 881.2 L1314.95 882.05 M1292.45 881.2 L1292.45 882.05 M1270.45 881.2 L1270.45 882.05 M1292.45 17.6 L1292.45 0.0 M1248.7 17.6 L1248.7 0.0 M1203.95 17.6 L1203.95 0.0 M1160.95 17.6 L1160.95 0.0 M1248.7 881.2 L1248.7 882.05 M1226.7 881.2 L1226.7 882.05 M1095.55 17.6 L1095.55 0.0 M1048.55 17.6 L1048.55 0.0 M1004.5 17.6 L1004.5 0.0 M1203.95 881.2 L1203.95 882.05 M1181.95 881.2 L1181.95 882.05 M1160.95 881.2 L1160.95 882.05 M1138.95 881.2 L1138.95 882.05 M1117.55 881.2 L1117.55 882.05 M1095.55 881.2 L1095.55 882.05 M959.45 17.6 L959.45 0.0 M959.8 17.6 L959.8 0.0 M915.05 17.6 L915.05 0.0 M870.55 17.6 L870.55 0.0 M1070.55 881.2 L1070.55 882.05 M1048.55 881.2 L1048.55 882.05 M1026.5 881.2 L1026.5 882.05 M1004.5 881.2 L1004.5 882.05 M981.45 881.2 L981.45 882.05 M804.05 17.6 L804.05 0.0 M717.65 17.6 L717.65 0.0 M670.65 17.6 L670.65 0.0 M959.8 881.2 L959.8 882.05 M959.45 881.2 L959.45 882.05 M937.8 881.2 L937.8 882.05 M915.05 881.2 L915.05 882.05 M892.55 881.2 L892.55 882.05 M870.55 881.2 L870.55 882.05 M848.8 881.2 L848.8 882.05 M826.8 881.2 L826.8 882.05 M804.05 881.2 L804.05 882.05 M782.05 881.2 L782.05 882.05 M761.05 881.2 L761.05 882.05 M739.05 881.2 L739.05 882.05 M717.65 881.2 L717.65 882.05 M695.65 881.2 L695.65 882.05 M670.65 881.2 L670.65 882.05 M648.65 881.2 L648.65 882.05 M626.6 17.6 L626.6 0.0 M559.55 17.6 L559.55 0.0 M497.25 17.6 L497.25 0.0 M453.45 17.6 L453.45 0.0 M387.7 17.6 L387.7 0.0 M342.45 17.6 L342.45 0.0 M626.6 881.2 L626.6 882.05 M604.6 881.2 L604.6 882.05 M581.55 881.2 L581.55 882.05 M559.55 881.2 L559.55 882.05 M541.0 881.2 L541.0 882.05 M519.0 881.2 L519.0 882.05 M497.25 881.2 L497.25 882.05 M475.25 881.2 L475.25 882.05 M453.45 881.2 L453.45 882.05 M298.7 17.6 L298.7 0.0 M253.95 17.6 L253.95 0.0 M188.95 17.6 L188.95 0.0 M145.55 17.6 L145.55 0.0 M98.55 17.6 L98.55 0.0 M54.5 17.6 L54.5 0.0 M9.45 17.6 L9.45 0.0 M9.45 39.6 L2.5 39.6 M9.45 83.35 L2.5 83.35 M9.45 127.15 L0.0 127.15 M9.45 170.9 L0.0 170.9 M431.45 881.2 L431.45 882.05 M409.7 881.2 L409.7 882.05 M387.7 881.2 L387.7 882.05 M364.95 881.2 L364.95 882.05 M342.45 881.2 L342.45 882.05 M9.45 216.15 L0.0 216.15 M9.45 281.9 L0.0 281.9 M320.45 881.2 L320.45 882.05 M9.45 326.65 L0.0 326.65 M298.7 881.2 L298.7 882.05 M9.45 391.05 L0.0 391.05 M276.7 881.2 L276.7 882.05 M253.95 881.2 L253.95 882.05 M231.95 881.2 L231.95 882.05 M210.95 881.2 L210.95 882.05 M9.45 438.05 L0.0 438.05 M9.45 482.1 L0.0 482.1 M188.95 881.2 L188.95 882.05 M9.45 527.15 L0.0 527.15 M167.55 881.2 L167.55 882.05 M9.45 570.75 L0.0 570.75 M145.55 881.2 L145.55 882.05 M120.55 881.2 L120.55 882.05 M9.45 615.25 L0.0 615.25 M9.45 659.0 L0.0 659.0 M98.55 881.2 L98.55 882.05 M76.5 881.2 L76.5 882.05 M9.45 703.75 L0.0 703.75 M9.45 746.75 L0.0 746.75 M54.5 881.2 L54.5 882.05 M31.45 881.2 L31.45 882.05 M9.45 815.15 L0.0 815.15 M9.45 859.2 L0.0 859.2 M9.45 881.2 L9.45 882.05" fill="none" stroke="#1f4e7a" stroke-linecap="round" stroke-linejoin="miter-clip" stroke-miterlimit="3.0" stroke-width="1.5"/>
    <path d="M1509.55 39.6 L1509.55 61.35 1491.0 61.35 1491.0 83.35 1469.0 83.35 1469.0 61.35 1447.25 61.35 1447.25 83.35 1469.0 83.35 1469.0 105.15 1491.0 105.15 1491.0 83.35 1509.55 83.35 1509.55 61.35 M1509.55 17.6 L1491.0 17.6 1491.0 39.6 1509.55 39.6 1509.55 17.6 M1469.0 17.6 L1491.0 17.6 M1469.0 39.6 L1469.0 61.35 1491.0 61.35 1491.0 39.6 1469.0 39.6 1469.0 17.6 1447.25 17.6 1447.25 39.6 1469.0 39.6 M1509.55 83.35 L1509.55 105.15 1491.0 105.15 1491.0 127.15 1509.55 127.15 1509.55 105.15 M1509.55 127.15 L1509.55 148.9 1491.0 148.9 1491.0 170.9 1491.0 193.65 1509.55 193.65 1509.55 170.9 1509.55 148.9 M1469.0 105.15 L1447.25 105.15 1447.25 127.15 1469.0 127.15 1469.0 105.15 M1469.0 127.15 L1469.0 148.9 1491.0 148.9 1491.0 127.15 1469.0 127.15 M1491.0 170.9 L1509.55 170.9 M1469.0 148.9 L1469.0 170.9 1491.0 170.9 M1469.0 170.9 L1469.0 193.65 1491.0 193.65 1491.0 216.15 1509.55 216.15 1509.55 193.65 M1425.25 17.6 L1447.25 17.6 M1425.25 39.6 L1425.25 61.35 1447.25 61.35 1447.25 39.6 1425.25 39.6 1425.25 17.6 1403.45 17.6 1403.45 39.6 1425.25 39.6 M1381.45 17.6 L1403.45 17.6 M1381.45 17.6 L1359.7 17.6 1359.7 39.6 1381.45 39.6 1381.45 17.6 M1381.45 39.6 L1381.45 61.35 1403.45 61.35 1403.45 39.6 1381.45 39.6 M1381.45 61.35 L1381.45 83.35 1403.45 83.35 1403.45 61.35 1425.25 61.35 1425.25 83.35 1447.25 83.35 1447.25 105.15 1425.25 105.15 1425.25 127.15 1447.25 127.15 1447.25 148.9 1469.0 148.9 M1403.45 83.35 L1425.25 83.35 1425.25 105.15 1403.45 105.15 1403.45 127.15 1425.25 127.15 1425.25 148.9 1447.25 148.9 1447.25 170.9 1469.0 170.9 M1337.7 17.6 L1359.7 17.6 M1337.7 17.6 L1337.7 39.6 1359.7 39.6 1359.7 61.35 1381.45 61.35 M1314.95 17.6 L1337.7 17.6 M1314.95 17.6 L1314.95 39.6 1337.7 39.6 1337.7 61.35 1359.7 61.35 1359.7 83.35 1381.45 83.35 1381.45 105.15 1403.45 105.15 1403.45 83.35 M1314.95 61.35 L1292.45 61.35 1292.45 83.35 1314.95 83.35 1314.95 61.35 1314.95 39.6 1292.45 39.6 1292.45 61.35 1270.45 61.35 1270.45 83.35 1292.45 83.35 1292.45 105.15 1314.95 105.15 1314.95 83.35 1337.7 83.35 1337.7 61.35 1314.95 61.35 M1337.7 83.35 L1359.7 83.35 1359.7 105.15 1381.45 105.15 1381.45 127.15 1403.45 127.15 1403.45 148.9 1425.25 148.9 1425.25 170.9 1447.25 170.9 1447.25 193.65 1469.0 193.65 1469.0 216.15 1491.0 216.15 1491.0 238.15 1509.55 238.15 1509.55 216.15 M1359.7 105.15 L1359.7 127.15 1381.45 127.15 1381.45 148.9 1403.45 148.9 1403.45 170.9 1425.25 170.9 1425.25 193.65 1447.25 193.65 1447.25 216.15 1469.0 216.15 1469.0 238.15 1491.0 238.15 1491.0 259.9 1509.55 259.9 1509.55 238.15 M1337.7 105.15 L1314.95 105.15 1314.95 127.15 1337.7 127.15 1337.7 105.15 1337.7 83.35 M1337.7 127.15 L1359.7 127.15 1359.7 148.9 1381.45 148.9 1381.45 170.9 1403.45 170.9 1403.45 193.65 1425.25 193.65 1425.25 216.15 1447.25 216.15 1447.25 238.15 1469.0 238.15 1469.0 259.9 1491.0 259.9 1491.0 281.9 1509.55 281.9 1509.55 259.9 M1359.7 105.15 L1337.7 105.15 M1314.95 148.9 L1292.45 148.9 1292.45 170.9 1314.95 170.9 1314.95 148.9 1314.95 127.15 1292.45 127.15 1292.45 148.9 1270.45 148.9 1270.45 170.9 1292.45 170.9 1292.45 193.65 1314.95 193.65 1314.95 170.9 1337.7 170.9 1337.7 148.9 1314.95 148.9 M1359.7 148.9 L1359.7 170.9 1381.45 170.9 1381.45 193.65 1403.45 193.65 1403.45 216.15 1425.25 216.15 1425.25 238.15 1447.25 238.15 1447.25 259.9 1469.0 259.9 1469.0 281.9 1491.0 281.9 1491.0 304.65 1509.55 304.65 1509.55 281.9 M1337.7 170.9 L1359.7 170.9 1359.7 193.65 1381.45 193.65 1381.45 216.15 1403.45 216.15 1403.45 238.15 1425.25 238.15 1425.25 259.9 1447.25 259.9 1447.25 281.9 1469.0 281.9 1469.0 304.65 1491.0 304.65 1491.0 326.65 1509.55 326.65 1509.55 304.65 M1314.95 193.65 L1337.7 193.65 1337.7 170.9 M1337.7 193.65 L1337.7 216.15 1359.7 216.15 1359.7 193.65 1337.7 193.65 M1359.7 148.9 L1337.7 148.9 1337.7 127.15 M1381.45 216.15 L1359.7 216.15 1359.7 238.15 1381.45 238.15 1381.45 216.15 M1381.45 238.15 L1403.45 238.15 1403.45 259.9 1425.25 259.9 1425.25 281.9 1447.25 281.9 1447.25 304.65 1469.0 304.65 1469.0 326.65 1491.0 326.65 1491.0 347.65 1509.55 347.65 1509.55 326.65 M1403.45 281.9 L1403.45 259.9 1381.45 259.9 1381.45 281.9 1403.45 281.9 1425.25 281.9 1425.25 304.65 1447.25 304.65 1447.25 326.65 1469.0 326.65 1469.0 347.65 1491.0 347.65 1491.0 369.65 1509.55 369.65 1509.55 347.65 M1359.7 238.15 L1359.7 259.9 1381.45 259.9 1381.45 238.15 M1337.7 216.15 L1314.95 216.15 1314.95 238.15 1337.7 238.15 1337.7 216.15 M1359.7 238.15 L1337.7 238.15 1337.7 259.9 1359.7 259.9 1359.7 281.9 1381.45 281.9 1381.45 304.65 1403.45 304.65 1403.45 281.9 M1314.95 259.9 L1292.45 259.9 1292.45 281.9 1314.95 281.9 1314.95 259.9 1314.95 238.15 1292.45 238.15 1292.45 259.9 1270.45 259.9 1270.45 281.9 1292.45 281.9 1292.45 304.65 1314.95 304.65 1314.95 281.9 1337.7 281.9 1337.7 259.9 1314.95 259.9 M1337.7 281.9 L1337.7 304.65 1359.7 304.65 1359.7 281.9 1337.7 281.9 M1359.7 326.65 L1381.45 326.65 1381.45 304.65 1359.7 304.65 1359.7 326.65 1359.7 347.65 1381.45 347.65 1381.45 326.65 1403.45 326.65 1403.45 304.65 1425.25 304.65 1425.25 326.65 1447.25 326.65 1447.25 347.65 1469.0 347.65 1469.0 369.65 1491.0 369.65 1491.0 391.05 1509.55 391.05 1509.55 369.65 M1337.7 304.65 L1314.95 304.65 1314.95 326.65 1337.7 326.65 1337.7 304.65 M1337.7 326.65 L1359.7 326.65 M1314.95 347.65 L1292.45 347.65 1292.45 369.65 1314.95 369.65 1314.95 347.65 1314.95 326.65 1292.45 326.65 1292.45 347.65 1270.45 347.65 1270.45 369.65 1292.45 369.65 1292.45 391.05 1314.95 391.05 1314.95 369.65 1337.7 369.65 1337.7 347.65 1314.95 347.65 M1359.7 347.65 L1359.7 369.65 1381.45 369.65 1381.45 347.65 1403.45 347.65 1403.45 326.65 1425.25 326.65 1425.25 347.65 1447.25 347.65 1447.25 369.65 1469.0 369.65 1469.0 391.05 1491.0 391.05 1491.0 413.05 1509.55 413.05 1509.55 391.05 M1359.7 391.05 L1359.7 369.65 1337.7 369.65 1337.7 391.05 1359.7 391.05 1381.45 391.05 1381.45 369.65 1403.45 369.65 1403.45 347.65 1425.25 347.65 1425.25 369.65 1447.25 369.65 1447.25 391.05 1469.0 391.05 1469.0 413.05 1491.0 413.05 1491.0 438.05 1509.55 438.05 1509.55 413.05 M1359.7 347.65 L1337.7 347.65 1337.7 326.65 M1314.95 391.05 L1314.95 413.05 1337.7 413.05 1337.7 391.05 1314.95 391.05 M1403.45 391.05 L1425.25 391.05 1425.25 369.65 1403.45 369.65 1403.45 391.05 1403.45 413.05 1425.25 413.05 1425.25 391.05 1447.25 391.05 1447.25 413.05 1469.0 413.05 1469.0 438.05 1491.0 438.05 1491.0 460.05 1509.55 460.05 1509.55 438.05 M1381.45 391.05 L1403.45 391.05 M1314.95 193.65 L1314.95 216.15 1292.45 216.15 1292.45 238.15 1270.45 238.15 1270.45 259.9 1248.7 259.9 1248.7 281.9 1270.45 281.9 1270.45 304.65 1292.45 304.65 1292.45 326.65 1270.45 326.65 1270.45 347.65 1248.7 347.65 1248.7 369.65 1270.45 369.65 1270.45 391.05 1292.45 391.05 1292.45 413.05 1314.95 413.05 1314.95 438.05 1337.7 438.05 1337.7 413.05 1359.7 413.05 1359.7 391.05 M1469.0 460.05 L1447.25 460.05 1447.25 482.1 1469.0 482.1 1469.0 460.05 1469.0 438.05 1447.25 438.05 1447.25 460.05 1425.25 460.05 1425.25 482.1 1447.25 482.1 1447.25 504.1 1469.0 504.1 1469.0 482.1 1491.0 482.1 1491.0 460.05 1469.0 460.05 M1509.55 482.1 L1509.55 504.1 1491.0 504.1 1491.0 527.15 1509.55 527.15 1509.55 504.1 M1491.0 482.1 L1509.55 482.1 1509.55 460.05 M1509.55 527.15 L1509.55 549.15 1509.55 570.75 1509.55 593.25 1509.55 615.25 1509.55 637.0 1509.55 659.0 1509.55 681.75 1509.55 703.75 1509.55 724.75 1509.55 746.75 1509.55 768.15 1509.55 790.15 1509.55 815.15 1509.55 837.15 1509.55 859.2 1509.55 881.2 1491.0 881.2 1491.0 859.2 1491.0 837.15 1509.55 837.15 M1469.0 527.15 L1469.0 549.15 1491.0 549.15 1491.0 527.15 1469.0 527.15 1469.0 504.1 1491.0 504.1 1491.0 482.1 M1469.0 570.75 L1447.25 570.75 1447.25 593.25 1469.0 593.25 1469.0 570.75 1469.0 549.15 1447.25 549.15 1447.25 570.75 1425.25 570.75 1425.25 593.25 1447.25 593.25 1447.25 615.25 1469.0 615.25 1469.0 593.25 1491.0 593.25 1491.0 570.75 1469.0 570.75 M1491.0 570.75 L1491.0 549.15 1509.55 549.15 M1491.0 570.75 L1509.55 570.75 M1491.0 593.25 L1509.55 593.25 M1425.25 413.05 L1447.25 413.05 1447.25 438.05 1425.25 438.05 1425.25 460.05 1403.45 460.05 1403.45 482.1 1425.25 482.1 1425.25 504.1 1447.25 504.1 1447.25 527.15 1469.0 527.15 M1403.45 413.05 L1403.45 438.05 1425.25 438.05 1425.25 413.05 M1381.45 391.05 L1381.45 413.05 1403.45 413.05 M1381.45 413.05 L1359.7 413.05 1359.7 438.05 1381.45 438.05 1381.45 413.05 M1381.45 438.05 L1381.45 460.05 1403.45 460.05 1403.45 438.05 1381.45 438.05 M1381.45 460.05 L1381.45 482.1 1403.45 482.1 1403.45 504.1 1425.25 504.1 1425.25 527.15 1447.25 527.15 1447.25 549.15 1425.25 549.15 1425.25 570.75 1403.45 570.75 1403.45 593.25 1425.25 593.25 1425.25 615.25 1447.25 615.25 1447.25 637.0 1469.0 637.0 1469.0 615.25 1491.0 615.25 1491.0 593.25 M1337.7 438.05 L1337.7 460.05 1359.7 460.05 1359.7 438.05 1337.7 438.05 M1314.95 482.1 L1337.7 482.1 1337.7 460.05 1314.95 460.05 1314.95 482.1 1314.95 504.1 1337.7 504.1 1337.7 482.1 1359.7 482.1 1359.7 460.05 1381.45 460.05 M1314.95 438.05 L1314.95 460.05 1292.45 460.05 1292.45 482.1 1314.95 482.1 M1337.7 504.1 L1359.7 504.1 1359.7 482.1 1381.45 482.1 1381.45 504.1 1403.45 504.1 1403.45 527.15 1425.25 527.15 1425.25 549.15 1403.45 549.15 1403.45 570.75 1381.45 570.75 1381.45 593.25 1403.45 593.25 1403.45 615.25 1425.25 615.25 1425.25 637.0 1447.25 637.0 1447.25 659.0 1469.0 659.0 1469.0 637.0 1491.0 637.0 1491.0 615.25 1509.55 615.25 M1337.7 527.15 L1337.7 549.15 1359.7 549.15 1359.7 527.15 1337.7 527.15 1337.7 504.1 M1359.7 527.15 L1381.45 527.15 1381.45 504.1 1359.7 504.1 1359.7 527.15 M1314.95 504.1 L1292.45 504.1 1292.45 527.15 1314.95 527.15 1314.95 504.1 M1314.95 593.25 L1337.7 593.25 1337.7 570.75 1314.95 570.75 1314.95 593.25 1314.95 615.25 1337.7 615.25 1337.7 593.25 1359.7 593.25 1359.7 570.75 1337.7 570.75 1337.7 549.15 1314.95 549.15 1314.95 570.75 1292.45 570.75 1292.45 593.25 1314.95 593.25 M1359.7 570.75 L1381.45 570.75 1381.45 549.15 1359.7 549.15 1359.7 570.75 M1292.45 527.15 L1292.45 549.15 1314.95 549.15 1314.95 527.15 1337.7 527.15 M1381.45 527.15 L1403.45 527.15 1403.45 549.15 1381.45 549.15 1381.45 527.15 M1359.7 593.25 L1381.45 593.25 1381.45 615.25 1403.45 615.25 1403.45 637.0 1425.25 637.0 1425.25 659.0 1447.25 659.0 1447.25 681.75 1469.0 681.75 1469.0 659.0 1491.0 659.0 1491.0 637.0 1509.55 637.0 M1381.45 615.25 L1381.45 637.0 1403.45 637.0 1403.45 659.0 1425.25 659.0 1425.25 681.75 1447.25 681.75 1447.25 703.75 1469.0 703.75 1469.0 681.75 1491.0 681.75 1491.0 659.0 1509.55 659.0 M1381.45 637.0 L1381.45 659.0 1403.45 659.0 1403.45 681.75 1425.25 681.75 1425.25 703.75 1447.25 703.75 1447.25 724.75 1469.0 724.75 1469.0 703.75 1491.0 703.75 1491.0 681.75 1509.55 681.75 M1381.45 659.0 L1381.45 681.75 1403.45 681.75 1403.45 703.75 1425.25 703.75 1425.25 724.75 1447.25 724.75 1447.25 746.75 1469.0 746.75 1469.0 724.75 1491.0 724.75 1491.0 703.75 1509.55 703.75 M1337.7 615.25 L1359.7 615.25 1359.7 593.25 M1337.7 615.25 L1337.7 637.0 1359.7 637.0 1359.7 615.25 1381.45 615.25 M1314.95 615.25 L1314.95 637.0 1337.7 637.0 1337.7 659.0 1359.7 659.0 1359.7 637.0 1381.45 637.0 M1314.95 659.0 L1292.45 659.0 1292.45 681.75 1314.95 681.75 1314.95 659.0 1314.95 637.0 1292.45 637.0 1292.45 659.0 1270.45 659.0 1270.45 681.75 1292.45 681.75 1292.45 703.75 1314.95 703.75 1314.95 681.75 1337.7 681.75 1337.7 659.0 1314.95 659.0 M1381.45 659.0 L1359.7 659.0 1359.7 681.75 1381.45 681.75 1381.45 703.75 1403.45 703.75 1403.45 724.75 1425.25 724.75 1425.25 746.75 1447.25 746.75 1447.25 768.15 1469.0 768.15 1469.0 746.75 1491.0 746.75 1491.0 724.75 1509.55 724.75 M1337.7 681.75 L1337.7 703.75 1359.7 703.75 1359.7 681.75 1337.7 681.75 M1337.7 703.75 L1337.7 724.75 1359.7 724.75 1359.7 703.75 1381.45 703.75 1381.45 724.75 1403.45 724.75 1403.45 746.75 1425.25 746.75 1425.25 768.15 1447.25 768.15 1447.25 790.15 1469.0 790.15 1469.0 768.15 1491.0 768.15 1491.0 746.75 1509.55 746.75 M1337.7 703.75 L1314.95 703.75 1314.95 724.75 1337.7 724.75 1337.7 746.75 1359.7 746.75 1359.7 724.75 1381.45 724.75 1381.45 746.75 1403.45 746.75 1403.45 768.15 1425.25 768.15 1425.25 790.15 1447.25 790.15 1447.25 815.15 1469.0 815.15 1469.0 790.15 1491.0 790.15 1491.0 768.15 1509.55 768.15 M1314.95 790.15 L1337.7 790.15 1337.7 768.15 1314.95 768.15 1314.95 790.15 1314.95 815.15 1337.7 815.15 1337.7 790.15 1359.7 790.15 1359.7 768.15 1337.7 768.15 1337.7 746.75 1314.95 746.75 1314.95 768.15 1292.45 768.15 1292.45 790.15 1314.95 790.15 M1359.7 768.15 L1359.7 746.75 1381.45 746.75 1381.45 768.15 1403.45 768.15 1403.45 790.15 1425.25 790.15 1425.25 815.15 1447.25 815.15 1447.25 837.15 1469.0 837.15 1469.0 815.15 1491.0 815.15 1491.0 790.15 1509.55 790.15 M1314.95 724.75 L1314.95 746.75 1292.45 746.75 1292.45 768.15 1270.45 768.15 1270.45 790.15 1292.45 790.15 1292.45 815.15 1314.95 815.15 1314.95 837.15 1337.7 837.15 1337.7 815.15 1359.7 815.15 1359.7 790.15 1381.45 790.15 1381.45 768.15 1359.7 768.15 M1381.45 790.15 L1403.45 790.15 1403.45 815.15 1425.25 815.15 1425.25 837.15 1447.25 837.15 1447.25 859.2 1469.0 859.2 1469.0 837.15 1491.0 837.15 1491.0 815.15 1509.55 815.15 M1469.0 881.2 L1447.25 881.2 1425.25 881.2 1425.25 859.2 1403.45 859.2 1403.45 881.2 1381.45 881.2 1359.7 881.2 1359.7 859.2 1381.45 859.2 1403.45 859.2 1403.45 837.15 1381.45 837.15 1381.45 815.15 1359.7 815.15 1359.7 837.15 1381.45 837.15 1381.45 859.2 1381.45 881.2 M1491.0 859.2 L1469.0 859.2 1469.0 881.2 1491.0 881.2 M1491.0 859.2 L1509.55 859.2 M1403.45 837.15 L1403.45 815.15 1381.45 815.15 1381.45 790.15 M1403.45 881.2 L1425.25 881.2 M1425.25 837.15 L1425.25 859.2 1447.25 859.2 1447.25 881.2 M1425.25 837.15 L1403.45 837.15 M1337.7 837.15 L1337.7 859.2 1359.7 859.2 1359.7 837.15 1337.7 837.15 M1337.7 881.2 L1314.95 881.2 1292.45 881.2 1270.45 881.2 1248.7 881.2 1226.7 881.2 1203.95 881.2 1181.95 881.2 1160.95 881.2 1138.95 881.2 1117.55 881.2 1095.55 881.2 1070.55 881.2 1048.55 881.2 1026.5 881.2 1004.5 881.2 981.45 881.2 959.8 881.2 959.45 881.2 937.8 881.2 915.05 881.2 892.55 881.2 870.55 881.2 848.8 881.2 826.8 881.2 804.05 881.2 782.05 881.2 761.05 881.2 739.05 881.2 717.65 881.2 695.65 881.2 670.65 881.2 648.65 881.2 626.6 881.2 604.6 881.2 581.55 881.2 559.55 881.2 541.0 881.2 519.0 881.2 497.25 881.2 475.25 881.2 453.45 881.2 431.45 881.2 409.7 881.2 387.7 881.2 364.95 881.2 342.45 881.2 320.45 881.2 298.7 881.2 276.7 881.2 253.95 881.2 231.95 881.2 210.95 881.2 188.95 881.2 167.55 881.2 145.55 881.2 120.55 881.2 98.55 881.2 76.5 881.2 54.5 881.2 31.45 881.2 9.45 881.2 9.45 859.2 9.45 837.15 9.45 815.15 9.45 790.15 9.45 768.15 31.45 768.15 31.45 746.75 54.5 746.75 54.5 768.15 31.45 768.15 31.45 790.15 54.5 790.15 54.5 815.15 76.5 815.15 76.5 837.15 98.55 837.15 98.55 859.2 76.5 859.2 76.5 881.2 M1337.7 881.2 L1337.7 859.2 1314.95 859.2 1314.95 881.2 M1337.7 881.2 L1359.7 881.2 M1314.95 837.15 L1314.95 859.2 1292.45 859.2 1292.45 881.2 M1270.45 17.6 L1292.45 17.6 1292.45 39.6 1270.45 39.6 1270.45 61.35 1248.7 61.35 1248.7 83.35 1270.45 83.35 1270.45 105.15 1292.45 105.15 1292.45 127.15 1270.45 127.15 1270.45 148.9 1248.7 148.9 1248.7 170.9 1270.45 170.9 1270.45 193.65 1292.45 193.65 1292.45 216.15 1270.45 216.15 1270.45 238.15 1248.7 238.15 1248.7 259.9 1226.7 259.9 1226.7 281.9 1248.7 281.9 1248.7 304.65 1270.45 304.65 1270.45 326.65 1248.7 326.65 1248.7 347.65 1226.7 347.65 1226.7 369.65 1248.7 369.65 1248.7 391.05 1270.45 391.05 1270.45 413.05 1292.45 413.05 1292.45 438.05 1314.95 438.05 M1270.45 17.6 L1248.7 17.6 1248.7 39.6 1270.45 39.6 1270.45 17.6 M1314.95 17.6 L1292.45 17.6 M1226.7 17.6 L1248.7 17.6 M1226.7 39.6 L1226.7 61.35 1248.7 61.35 1248.7 39.6 1226.7 39.6 1226.7 17.6 1203.95 17.6 1203.95 39.6 1226.7 39.6 M1226.7 61.35 L1226.7 83.35 1248.7 83.35 1248.7 105.15 1270.45 105.15 1270.45 127.15 1248.7 127.15 1248.7 148.9 1226.7 148.9 1226.7 170.9 1248.7 170.9 1248.7 193.65 1270.45 193.65 1270.45 216.15 1248.7 216.15 1248.7 238.15 1226.7 238.15 1226.7 259.9 1203.95 259.9 1203.95 281.9 1226.7 281.9 1226.7 304.65 1248.7 304.65 1248.7 326.65 1226.7 326.65 1226.7 347.65 1203.95 347.65 1203.95 369.65 1226.7 369.65 1226.7 391.05 1248.7 391.05 1248.7 413.05 1270.45 413.05 1270.45 438.05 1292.45 438.05 1292.45 460.05 1270.45 460.05 1270.45 482.1 1292.45 482.1 1292.45 504.1 1270.45 504.1 1270.45 527.15 1292.45 527.15 M1181.95 17.6 L1203.95 17.6 M1181.95 17.6 L1160.95 17.6 1160.95 39.6 1181.95 39.6 1181.95 17.6 M1181.95 39.6 L1181.95 61.35 1203.95 61.35 1203.95 39.6 1181.95 39.6 M1138.95 17.6 L1160.95 17.6 M1138.95 17.6 L1117.55 17.6 1117.55 39.6 1138.95 39.6 1138.95 17.6 M1138.95 39.6 L1138.95 61.35 1160.95 61.35 1160.95 39.6 1138.95 39.6 M1138.95 61.35 L1117.55 61.35 1117.55 83.35 1138.95 83.35 1138.95 61.35 M1138.95 83.35 L1160.95 83.35 1160.95 61.35 1181.95 61.35 1181.95 83.35 1203.95 83.35 1203.95 61.35 1226.7 61.35 M1160.95 83.35 L1181.95 83.35 1181.95 105.15 1203.95 105.15 1203.95 83.35 1226.7 83.35 1226.7 105.15 1248.7 105.15 1248.7 127.15 1226.7 127.15 1226.7 148.9 1203.95 148.9 1203.95 170.9 1226.7 170.9 1226.7 193.65 1248.7 193.65 1248.7 216.15 1226.7 216.15 1226.7 238.15 1203.95 238.15 1203.95 259.9 1181.95 259.9 1181.95 281.9 1203.95 281.9 1203.95 304.65 1226.7 304.65 1226.7 326.65 1203.95 326.65 1203.95 347.65 1181.95 347.65 1181.95 369.65 1203.95 369.65 1203.95 391.05 1226.7 391.05 1226.7 413.05 1248.7 413.05 1248.7 438.05 1270.45 438.05 1270.45 460.05 1248.7 460.05 1248.7 482.1 1270.45 482.1 1270.45 504.1 1248.7 504.1 1248.7 527.15 1270.45 527.15 1270.45 549.15 1292.45 549.15 1292.45 570.75 1270.45 570.75 1270.45 593.25 1292.45 593.25 1292.45 615.25 1314.95 615.25 M1181.95 105.15 L1160.95 105.15 1160.95 127.15 1181.95 127.15 1181.95 105.15 M1181.95 127.15 L1181.95 148.9 1203.95 148.9 1203.95 127.15 1181.95 127.15 M1203.95 127.15 L1203.95 105.15 1226.7 105.15 1226.7 127.15 1203.95 127.15 M1138.95 83.35 L1138.95 105.15 1160.95 105.15 1160.95 83.35 M1138.95 105.15 L1117.55 105.15 1117.55 127.15 1138.95 127.15 1138.95 105.15 M1138.95 127.15 L1160.95 127.15 1160.95 148.9 1181.95 148.9 1181.95 170.9 1203.95 170.9 1203.95 193.65 1226.7 193.65 1226.7 216.15 1203.95 216.15 1203.95 238.15 1181.95 238.15 1181.95 259.9 1160.95 259.9 1160.95 281.9 1181.95 281.9 1181.95 304.65 1203.95 304.65 1203.95 326.65 1181.95 326.65 1181.95 347.65 1160.95 347.65 1160.95 369.65 1181.95 369.65 1181.95 391.05 1203.95 391.05 1203.95 413.05 1226.7 413.05 1226.7 438.05 1248.7 438.05 1248.7 460.05 1226.7 460.05 1226.7 482.1 1248.7 482.1 1248.7 504.1 1226.7 504.1 1226.7 527.15 1248.7 527.15 1248.7 549.15 1270.45 549.15 1270.45 570.75 1248.7 570.75 1248.7 593.25 1270.45 593.25 1270.45 615.25 1292.45 615.25 1292.45 637.0 1270.45 637.0 1270.45 659.0 1248.7 659.0 1248.7 681.75 1270.45 681.75 1270.45 703.75 1292.45 703.75 1292.45 724.75 1314.95 724.75 M1160.95 148.9 L1160.95 170.9 1181.95 170.9 1181.95 193.65 1203.95 193.65 1203.95 216.15 1181.95 216.15 1181.95 238.15 1160.95 238.15 1160.95 259.9 1138.95 259.9 1138.95 281.9 1160.95 281.9 1160.95 304.65 1181.95 304.65 1181.95 326.65 1160.95 326.65 1160.95 347.65 1138.95 347.65 1138.95 369.65 1160.95 369.65 1160.95 391.05 1181.95 391.05 1181.95 413.05 1203.95 413.05 1203.95 438.05 1226.7 438.05 1226.7 460.05 1203.95 460.05 1203.95 482.1 1226.7 482.1 1226.7 504.1 1203.95 504.1 1203.95 527.15 1226.7 527.15 1226.7 549.15 1248.7 549.15 1248.7 570.75 1226.7 570.75 1226.7 593.25 1248.7 593.25 1248.7 615.25 1270.45 615.25 1270.45 637.0 1248.7 637.0 1248.7 659.0 1226.7 659.0 1226.7 681.75 1248.7 681.75 1248.7 703.75 1270.45 703.75 1270.45 724.75 1292.45 724.75 1292.45 746.75 1270.45 746.75 1270.45 768.15 1248.7 768.15 1248.7 790.15 1270.45 790.15 1270.45 815.15 1292.45 815.15 1292.45 837.15 1314.95 837.15 M1160.95 148.9 L1138.95 148.9 1138.95 170.9 1160.95 170.9 1160.95 193.65 1181.95 193.65 1181.95 216.15 1160.95 216.15 1160.95 238.15 1138.95 238.15 1138.95 259.9 1117.55 259.9 1117.55 281.9 1138.95 281.9 1138.95 304.65 1160.95 304.65 1160.95 326.65 1138.95 326.65 1138.95 347.65 1117.55 347.65 1117.55 369.65 1138.95 369.65 1138.95 391.05 1160.95 391.05 1160.95 413.05 1181.95 413.05 1181.95 438.05 1203.95 438.05 1203.95 460.05 1181.95 460.05 1181.95 482.1 1203.95 482.1 1203.95 504.1 1181.95 504.1 1181.95 527.15 1203.95 527.15 1203.95 549.15 1226.7 549.15 1226.7 570.75 1203.95 570.75 1203.95 593.25 1226.7 593.25 1226.7 615.25 1248.7 615.25 1248.7 637.0 1226.7 637.0 1226.7 659.0 1203.95 659.0 1203.95 681.75 1226.7 681.75 1226.7 703.75 1248.7 703.75 1248.7 724.75 1270.45 724.75 1270.45 746.75 1248.7 746.75 1248.7 768.15 1226.7 768.15 1226.7 790.15 1248.7 790.15 1248.7 815.15 1270.45 815.15 1270.45 837.15 1292.45 837.15 1292.45 859.2 1270.45 859.2 1270.45 881.2 M1138.95 170.9 L1138.95 193.65 1160.95 193.65 1160.95 216.15 1138.95 216.15 1138.95 238.15 1117.55 238.15 1117.55 259.9 1095.55 259.9 1095.55 281.9 1117.55 281.9 1117.55 304.65 1138.95 304.65 1138.95 326.65 1117.55 326.65 1117.55 347.65 1095.55 347.65 1095.55 369.65 1117.55 369.65 1117.55 391.05 1138.95 391.05 1138.95 413.05 1160.95 413.05 1160.95 438.05 1181.95 438.05 1181.95 460.05 1160.95 460.05 1160.95 482.1 1181.95 482.1 1181.95 504.1 1160.95 504.1 1160.95 527.15 1181.95 527.15 1181.95 549.15 1203.95 549.15 1203.95 570.75 1181.95 570.75 1181.95 593.25 1203.95 593.25 1203.95 615.25 1226.7 615.25 1226.7 637.0 1203.95 637.0 1203.95 659.0 1181.95 659.0 1181.95 681.75 1203.95 681.75 1203.95 703.75 1226.7 703.75 1226.7 724.75 1248.7 724.75 1248.7 746.75 1226.7 746.75 1226.7 768.15 1203.95 768.15 1203.95 790.15 1226.7 790.15 1226.7 815.15 1248.7 815.15 1248.7 837.15 1270.45 837.15 1270.45 859.2 1248.7 859.2 1248.7 881.2 M1117.55 127.15 L1117.55 148.9 1138.95 148.9 1138.95 127.15 M1117.55 17.6 L1095.55 17.6 1095.55 39.6 1117.55 39.6 1117.55 61.35 1095.55 61.35 1095.55 83.35 1117.55 83.35 1117.55 105.15 1095.55 105.15 1095.55 127.15 1117.55 127.15 M1070.55 17.6 L1095.55 17.6 M1070.55 17.6 L1070.55 39.6 1095.55 39.6 1095.55 61.35 1070.55 61.35 1070.55 83.35 1095.55 83.35 1095.55 105.15 1070.55 105.15 1070.55 127.15 1095.55 127.15 1095.55 148.9 1117.55 148.9 1117.55 170.9 1138.95 170.9 M1070.55 39.6 L1048.55 39.6 1048.55 61.35 1070.55 61.35 1070.55 39.6 M1026.5 17.6 L1048.55 17.6 1070.55 17.6 M1026.5 17.6 L1026.5 39.6 1048.55 39.6 1048.55 17.6 M981.45 17.6 L1004.5 17.6 1004.5 39.6 1026.5 39.6 1026.5 61.35 1048.55 61.35 1048.55 83.35 1070.55 83.35 1070.55 105.15 1048.55 105.15 1048.55 127.15 1070.55 127.15 1070.55 148.9 1095.55 148.9 1095.55 170.9 1117.55 170.9 1117.55 193.65 1138.95 193.65 1138.95 216.15 1117.55 216.15 1117.55 238.15 1095.55 238.15 1095.55 259.9 1070.55 259.9 1070.55 281.9 1095.55 281.9 1095.55 304.65 1117.55 304.65 1117.55 326.65 1095.55 326.65 1095.55 347.65 1070.55 347.65 1070.55 369.65 1095.55 369.65 1095.55 391.05 1117.55 391.05 1117.55 413.05 1138.95 413.05 1138.95 438.05 1160.95 438.05 1160.95 460.05 1138.95 460.05 1138.95 482.1 1160.95 482.1 1160.95 504.1 1138.95 504.1 1138.95 527.15 1160.95 527.15 1160.95 549.15 1181.95 549.15 1181.95 570.75 1160.95 570.75 1160.95 593.25 1181.95 593.25 1181.95 615.25 1203.95 615.25 1203.95 637.0 1181.95 637.0 1181.95 659.0 1160.95 659.0 1160.95 681.75 1181.95 681.75 1181.95 703.75 1203.95 703.75 1203.95 724.75 1226.7 724.75 1226.7 746.75 1203.95 746.75 1203.95 768.15 1181.95 768.15 1181.95 790.15 1203.95 790.15 1203.95 815.15 1226.7 815.15 1226.7 837.15 1248.7 837.15 1248.7 859.2 1226.7 859.2 1226.7 881.2 M981.45 17.6 L959.8 17.6 959.8 39.6 981.45 39.6 981.45 17.6 M981.45 39.6 L981.45 61.35 1004.5 61.35 1004.5 39.6 981.45 39.6 M1026.5 17.6 L1004.5 17.6 M981.45 61.35 L981.45 83.35 1004.5 83.35 1004.5 61.35 1026.5 61.35 1026.5 83.35 1048.55 83.35 1048.55 105.15 1026.5 105.15 1026.5 127.15 1048.55 127.15 1048.55 148.9 1070.55 148.9 1070.55 170.9 1095.55 170.9 1095.55 193.65 1117.55 193.65 1117.55 216.15 1095.55 216.15 1095.55 238.15 1070.55 238.15 1070.55 259.9 1048.55 259.9 1048.55 281.9 1070.55 281.9 1070.55 304.65 1095.55 304.65 1095.55 326.65 1070.55 326.65 1070.55 347.65 1048.55 347.65 1048.55 369.65 1070.55 369.65 1070.55 391.05 1095.55 391.05 1095.55 413.05 1117.55 413.05 1117.55 438.05 1138.95 438.05 1138.95 460.05 1117.55 460.05 1117.55 482.1 1138.95 482.1 1138.95 504.1 1117.55 504.1 1117.55 527.15 1138.95 527.15 1138.95 549.15 1160.95 549.15 1160.95 570.75 1138.95 570.75 1138.95 593.25 1160.95 593.25 1160.95 615.25 1181.95 615.25 1181.95 637.0 1160.95 637.0 1160.95 659.0 1138.95 659.0 1138.95 681.75 1160.95 681.75 1160.95 703.75 1181.95 703.75 1181.95 724.75 1203.95 724.75 1203.95 746.75 1181.95 746.75 1181.95 768.15 1160.95 768.15 1160.95 790.15 1181.95 790.15 1181.95 815.15 1203.95 815.15 1203.95 837.15 1226.7 837.15 1226.7 859.2 1203.95 859.2 1203.95 881.2 M1004.5 83.35 L1004.5 105.15 1026.5 105.15 1026.5 83.35 1004.5 83.35 M981.45 105.15 L959.8 105.15 959.8 127.15 981.45 127.15 981.45 105.15 981.45 83.35 959.8 83.35 959.8 105.15 959.45 105.15 959.45 127.15 959.8 127.15 959.8 148.9 981.45 148.9 981.45 127.15 1004.5 127.15 1004.5 105.15 981.45 105.15 M1004.5 148.9 L981.45 148.9 981.45 170.9 1004.5 170.9 1004.5 148.9 1004.5 127.15 1026.5 127.15 1026.5 148.9 1048.55 148.9 1048.55 170.9 1070.55 170.9 1070.55 193.65 1095.55 193.65 1095.55 216.15 1070.55 216.15 1070.55 238.15 1048.55 238.15 1048.55 259.9 1026.5 259.9 1026.5 281.9 1048.55 281.9 1048.55 304.65 1070.55 304.65 1070.55 326.65 1048.55 326.65 1048.55 347.65 1026.5 347.65 1026.5 369.65 1048.55 369.65 1048.55 391.05 1070.55 391.05 1070.55 413.05 1095.55 413.05 1095.55 438.05 1117.55 438.05 1117.55 460.05 1095.55 460.05 1095.55 482.1 1117.55 482.1 1117.55 504.1 1095.55 504.1 1095.55 527.15 1117.55 527.15 1117.55 549.15 1138.95 549.15 1138.95 570.75 1117.55 570.75 1117.55 593.25 1138.95 593.25 1138.95 615.25 1160.95 615.25 1160.95 637.0 1138.95 637.0 1138.95 659.0 1117.55 659.0 1117.55 681.75 1138.95 681.75 1138.95 703.75 1160.95 703.75 1160.95 724.75 1181.95 724.75 1181.95 746.75 1160.95 746.75 1160.95 768.15 1138.95 768.15 1138.95 790.15 1160.95 790.15 1160.95 815.15 1181.95 815.15 1181.95 837.15 1203.95 837.15 1203.95 859.2 1181.95 859.2 1181.95 881.2 M981.45 170.9 L981.45 193.65 1004.5 193.65 1004.5 170.9 1026.5 170.9 1026.5 148.9 1004.5 148.9 M1048.55 193.65 L1048.55 170.9 1026.5 170.9 1026.5 193.65 1048.55 193.65 1070.55 193.65 1070.55 216.15 1048.55 216.15 1048.55 238.15 1026.5 238.15 1026.5 259.9 1004.5 259.9 1004.5 281.9 1026.5 281.9 1026.5 304.65 1048.55 304.65 1048.55 326.65 1026.5 326.65 1026.5 347.65 1004.5 347.65 1004.5 369.65 1026.5 369.65 1026.5 391.05 1048.55 391.05 1048.55 413.05 1070.55 413.05 1070.55 438.05 1095.55 438.05 1095.55 460.05 1070.55 460.05 1070.55 482.1 1095.55 482.1 1095.55 504.1 1070.55 504.1 1070.55 527.15 1095.55 527.15 1095.55 549.15 1117.55 549.15 1117.55 570.75 1095.55 570.75 1095.55 593.25 1117.55 593.25 1117.55 615.25 1138.95 615.25 1138.95 637.0 1117.55 637.0 1117.55 659.0 1095.55 659.0 1095.55 681.75 1117.55 681.75 1117.55 703.75 1138.95 703.75 1138.95 724.75 1160.95 724.75 1160.95 746.75 1138.95 746.75 1138.95 768.15 1117.55 768.15 1117.55 790.15 1138.95 790.15 1138.95 815.15 1160.95 815.15 1160.95 837.15 1181.95 837.15 1181.95 859.2 1160.95 859.2 1160.95 881.2 M1004.5 193.65 L1004.5 216.15 1026.5 216.15 1026.5 193.65 1004.5 193.65 M1048.55 216.15 L1026.5 216.15 1026.5 238.15 1004.5 238.15 1004.5 259.9 981.45 259.9 981.45 281.9 1004.5 281.9 1004.5 304.65 1026.5 304.65 1026.5 326.65 1004.5 326.65 1004.5 347.65 981.45 347.65 981.45 369.65 1004.5 369.65 1004.5 391.05 1026.5 391.05 1026.5 413.05 1048.55 413.05 1048.55 438.05 1070.55 438.05 1070.55 460.05 1048.55 460.05 1048.55 482.1 1070.55 482.1 1070.55 504.1 1048.55 504.1 1048.55 527.15 1070.55 527.15 1070.55 549.15 1095.55 549.15 1095.55 570.75 1070.55 570.75 1070.55 593.25 1095.55 593.25 1095.55 615.25 1117.55 615.25 1117.55 637.0 1095.55 637.0 1095.55 659.0 1070.55 659.0 1070.55 681.75 1095.55 681.75 1095.55 703.75 1117.55 703.75 1117.55 724.75 1138.95 724.75 1138.95 746.75 1117.55 746.75 1117.55 768.15 1095.55 768.15 1095.55 790.15 1117.55 790.15 1117.55 815.15 1138.95 815.15 1138.95 837.15 1160.95 837.15 1160.95 859.2 1138.95 859.2 1138.95 881.2 M1004.5 238.15 L1004.5 216.15 981.45 216.15 981.45 238.15 1004.5 238.15 M981.45 238.15 L959.8 238.15 959.8 259.9 981.45 259.9 981.45 238.15 M1004.5 326.65 L1004.5 304.65 981.45 304.65 981.45 326.65 1004.5 326.65 M981.45 369.65 L981.45 391.05 1004.5 391.05 1004.5 413.05 1026.5 413.05 1026.5 438.05 1048.55 438.05 1048.55 460.05 1026.5 460.05 1026.5 482.1 1048.55 482.1 1048.55 504.1 1026.5 504.1 1026.5 527.15 1048.55 527.15 1048.55 549.15 1070.55 549.15 1070.55 570.75 1048.55 570.75 1048.55 593.25 1070.55 593.25 1070.55 615.25 1095.55 615.25 1095.55 637.0 1070.55 637.0 1070.55 659.0 1048.55 659.0 1048.55 681.75 1070.55 681.75 1070.55 703.75 1095.55 703.75 1095.55 724.75 1117.55 724.75 1117.55 746.75 1095.55 746.75 1095.55 768.15 1070.55 768.15 1070.55 790.15 1095.55 790.15 1095.55 815.15 1117.55 815.15 1117.55 837.15 1138.95 837.15 1138.95 859.2 1117.55 859.2 1117.55 881.2 M981.45 326.65 L981.45 347.65 959.8 347.65 959.8 369.65 981.45 369.65 M981.45 281.9 L959.8 281.9 959.8 304.65 981.45 304.65 981.45 281.9 M981.45 193.65 L959.8 193.65 959.8 216.15 981.45 216.15 981.45 193.65 M1048.55 193.65 L1048.55 216.15 M959.8 17.6 L959.45 17.6 959.45 39.6 959.8 39.6 959.8 61.35 981.45 61.35 M937.8 17.6 L959.45 17.6 M937.8 17.6 L915.05 17.6 915.05 39.6 937.8 39.6 937.8 17.6 M937.8 39.6 L937.8 61.35 959.45 61.35 959.45 39.6 937.8 39.6 M892.55 17.6 L915.05 17.6 M892.55 17.6 L892.55 39.6 915.05 39.6 915.05 61.35 937.8 61.35 937.8 83.35 959.45 83.35 959.45 61.35 959.8 61.35 959.8 83.35 959.45 83.35 959.45 105.15 937.8 105.15 937.8 127.15 959.45 127.15 959.45 148.9 959.8 148.9 959.8 170.9 981.45 170.9 M915.05 61.35 L915.05 83.35 937.8 83.35 937.8 105.15 915.05 105.15 915.05 127.15 937.8 127.15 937.8 148.9 959.45 148.9 959.45 170.9 959.8 170.9 959.8 193.65 959.45 193.65 959.45 216.15 959.8 216.15 959.8 238.15 959.45 238.15 959.45 259.9 959.8 259.9 959.8 281.9 959.45 281.9 959.45 304.65 959.8 304.65 959.8 326.65 981.45 326.65 M892.55 39.6 L892.55 61.35 915.05 61.35 M892.55 61.35 L870.55 61.35 870.55 83.35 892.55 83.35 892.55 61.35 M892.55 83.35 L892.55 105.15 915.05 105.15 915.05 83.35 892.55 83.35 M848.8 17.6 L870.55 17.6 892.55 17.6 M848.8 17.6 L848.8 39.6 870.55 39.6 870.55 17.6 M826.8 17.6 L848.8 17.6 M826.8 17.6 L826.8 39.6 848.8 39.6 848.8 61.35 870.55 61.35 870.55 39.6 892.55 39.6 M848.8 83.35 L848.8 61.35 826.8 61.35 826.8 83.35 848.8 83.35 870.55 83.35 870.55 105.15 892.55 105.15 892.55 127.15 915.05 127.15 915.05 148.9 937.8 148.9 937.8 170.9 959.45 170.9 959.45 193.65 937.8 193.65 937.8 216.15 959.45 216.15 959.45 238.15 937.8 238.15 937.8 259.9 959.45 259.9 959.45 281.9 937.8 281.9 937.8 304.65 959.45 304.65 959.45 326.65 959.8 326.65 959.8 347.65 959.45 347.65 959.45 369.65 959.8 369.65 959.8 391.05 981.45 391.05 981.45 413.05 1004.5 413.05 1004.5 438.05 1026.5 438.05 1026.5 460.05 1004.5 460.05 1004.5 482.1 1026.5 482.1 1026.5 504.1 1004.5 504.1 1004.5 527.15 1026.5 527.15 1026.5 549.15 1048.55 549.15 1048.55 570.75 1026.5 570.75 1026.5 593.25 1048.55 593.25 1048.55 615.25 1070.55 615.25 1070.55 637.0 1048.55 637.0 1048.55 659.0 1026.5 659.0 1026.5 681.75 1048.55 681.75 1048.55 703.75 1070.55 703.75 1070.55 724.75 1095.55 724.75 1095.55 746.75 1070.55 746.75 1070.55 768.15 1048.55 768.15 1048.55 790.15 1070.55 790.15 1070.55 815.15 1095.55 815.15 1095.55 837.15 1117.55 837.15 1117.55 859.2 1095.55 859.2 1095.55 881.2 M826.8 39.6 L826.8 61.35 804.05 61.35 804.05 83.35 826.8 83.35 826.8 105.15 848.8 105.15 848.8 83.35 M870.55 105.15 L870.55 127.15 892.55 127.15 892.55 148.9 915.05 148.9 915.05 170.9 937.8 170.9 937.8 193.65 915.05 193.65 915.05 216.15 937.8 216.15 937.8 238.15 915.05 238.15 915.05 259.9 937.8 259.9 937.8 281.9 915.05 281.9 915.05 304.65 937.8 304.65 937.8 326.65 959.45 326.65 959.45 347.65 937.8 347.65 937.8 369.65 959.45 369.65 959.45 391.05 959.8 391.05 959.8 413.05 981.45 413.05 981.45 438.05 1004.5 438.05 1004.5 460.05 981.45 460.05 981.45 482.1 1004.5 482.1 1004.5 504.1 981.45 504.1 981.45 527.15 1004.5 527.15 1004.5 549.15 1026.5 549.15 1026.5 570.75 1004.5 570.75 1004.5 593.25 1026.5 593.25 1026.5 615.25 1048.55 615.25 1048.55 637.0 1026.5 637.0 1026.5 659.0 1004.5 659.0 1004.5 681.75 1026.5 681.75 1026.5 703.75 1048.55 703.75 1048.55 724.75 1070.55 724.75 1070.55 746.75 1048.55 746.75 1048.55 768.15 1026.5 768.15 1026.5 790.15 1048.55 790.15 1048.55 815.15 1070.55 815.15 1070.55 837.15 1095.55 837.15 1095.55 859.2 1070.55 859.2 1070.55 881.2 M870.55 105.15 L848.8 105.15 848.8 127.15 870.55 127.15 870.55 148.9 892.55 148.9 892.55 170.9 915.05 170.9 915.05 193.65 892.55 193.65 892.55 216.15 915.05 216.15 915.05 238.15 892.55 238.15 892.55 259.9 915.05 259.9 915.05 281.9 892.55 281.9 892.55 304.65 915.05 304.65 915.05 326.65 937.8 326.65 937.8 347.65 915.05 347.65 915.05 369.65 937.8 369.65 937.8 391.05 959.45 391.05 959.45 413.05 959.8 413.05 959.8 438.05 981.45 438.05 981.45 460.05 959.8 460.05 959.8 482.1 981.45 482.1 981.45 504.1 959.8 504.1 959.8 527.15 981.45 527.15 981.45 549.15 1004.5 549.15 1004.5 570.75 981.45 570.75 981.45 593.25 1004.5 593.25 1004.5 615.25 1026.5 615.25 1026.5 637.0 1004.5 637.0 1004.5 659.0 981.45 659.0 981.45 681.75 1004.5 681.75 1004.5 703.75 1026.5 703.75 1026.5 724.75 1048.55 724.75 1048.55 746.75 1026.5 746.75 1026.5 768.15 1004.5 768.15 1004.5 790.15 1026.5 790.15 1026.5 815.15 1048.55 815.15 1048.55 837.15 1070.55 837.15 1070.55 859.2 1048.55 859.2 1048.55 881.2 M826.8 105.15 L826.8 127.15 848.8 127.15 848.8 148.9 870.55 148.9 870.55 170.9 892.55 170.9 892.55 193.65 870.55 193.65 870.55 216.15 892.55 216.15 892.55 238.15 870.55 238.15 870.55 259.9 892.55 259.9 892.55 281.9 870.55 281.9 870.55 304.65 892.55 304.65 892.55 326.65 915.05 326.65 915.05 347.65 892.55 347.65 892.55 369.65 915.05 369.65 915.05 391.05 937.8 391.05 937.8 413.05 959.45 413.05 959.45 438.05 959.8 438.05 959.8 460.05 959.45 460.05 959.45 482.1 959.8 482.1 959.8 504.1 959.45 504.1 959.45 527.15 959.8 527.15 959.8 549.15 981.45 549.15 981.45 570.75 959.8 570.75 959.8 593.25 981.45 593.25 981.45 615.25 1004.5 615.25 1004.5 637.0 981.45 637.0 981.45 659.0 959.8 659.0 959.8 681.75 981.45 681.75 981.45 703.75 1004.5 703.75 1004.5 724.75 1026.5 724.75 1026.5 746.75 1004.5 746.75 1004.5 768.15 981.45 768.15 981.45 790.15 1004.5 790.15 1004.5 815.15 1026.5 815.15 1026.5 837.15 1048.55 837.15 1048.55 859.2 1026.5 859.2 1026.5 881.2 M848.8 148.9 L826.8 148.9 826.8 170.9 848.8 170.9 848.8 148.9 M826.8 193.65 L826.8 216.15 848.8 216.15 848.8 193.65 826.8 193.65 826.8 170.9 804.05 170.9 804.05 193.65 826.8 193.65 M848.8 193.65 L848.8 170.9 870.55 170.9 870.55 193.65 848.8 193.65 M826.8 127.15 L826.8 148.9 804.05 148.9 804.05 170.9 782.05 170.9 782.05 193.65 804.05 193.65 804.05 216.15 826.8 216.15 826.8 238.15 848.8 238.15 848.8 216.15 870.55 216.15 870.55 238.15 848.8 238.15 848.8 259.9 870.55 259.9 870.55 281.9 848.8 281.9 848.8 304.65 870.55 304.65 870.55 326.65 892.55 326.65 892.55 347.65 870.55 347.65 870.55 369.65 892.55 369.65 892.55 391.05 915.05 391.05 915.05 413.05 937.8 413.05 937.8 438.05 959.45 438.05 959.45 460.05 937.8 460.05 937.8 482.1 959.45 482.1 959.45 504.1 937.8 504.1 937.8 527.15 959.45 527.15 959.45 549.15 959.8 549.15 959.8 570.75 959.45 570.75 959.45 593.25 959.8 593.25 959.8 615.25 981.45 615.25 981.45 637.0 959.8 637.0 959.8 659.0 959.45 659.0 959.45 681.75 959.8 681.75 959.8 703.75 981.45 703.75 981.45 724.75 1004.5 724.75 1004.5 746.75 981.45 746.75 981.45 768.15 959.8 768.15 959.8 790.15 981.45 790.15 981.45 815.15 1004.5 815.15 1004.5 837.15 1026.5 837.15 1026.5 859.2 1004.5 859.2 1004.5 881.2 M782.05 17.6 L804.05 17.6 826.8 17.6 M782.05 17.6 L782.05 39.6 804.05 39.6 804.05 17.6 M761.05 17.6 L782.05 17.6 M739.05 17.6 L761.05 17.6 761.05 39.6 782.05 39.6 782.05 61.35 804.05 61.35 804.05 39.6 826.8 39.6 M739.05 17.6 L717.65 17.6 717.65 39.6 739.05 39.6 739.05 17.6 M739.05 39.6 L761.05 39.6 761.05 61.35 782.05 61.35 782.05 83.35 804.05 83.35 804.05 105.15 826.8 105.15 M761.05 61.35 L739.05 61.35 739.05 83.35 761.05 83.35 761.05 61.35 M717.65 39.6 L717.65 61.35 739.05 61.35 739.05 39.6 M761.05 83.35 L782.05 83.35 782.05 105.15 804.05 105.15 804.05 127.15 826.8 127.15 M695.65 17.6 L717.65 17.6 M695.65 17.6 L695.65 39.6 717.65 39.6 M648.65 17.6 L670.65 17.6 695.65 17.6 M648.65 17.6 L648.65 39.6 670.65 39.6 670.65 17.6 M670.65 83.35 L695.65 83.35 695.65 61.35 670.65 61.35 670.65 83.35 670.65 105.15 695.65 105.15 695.65 83.35 717.65 83.35 717.65 61.35 695.65 61.35 695.65 39.6 670.65 39.6 670.65 61.35 648.65 61.35 648.65 83.35 670.65 83.35 M648.65 39.6 L626.6 39.6 626.6 61.35 648.65 61.35 648.65 39.6 M695.65 105.15 L717.65 105.15 717.65 83.35 739.05 83.35 739.05 105.15 761.05 105.15 761.05 83.35 M670.65 105.15 L670.65 127.15 695.65 127.15 695.65 105.15 M695.65 127.15 L695.65 148.9 717.65 148.9 717.65 127.15 695.65 127.15 M717.65 127.15 L739.05 127.15 739.05 105.15 717.65 105.15 717.65 127.15 M670.65 105.15 L648.65 105.15 648.65 127.15 670.65 127.15 670.65 148.9 695.65 148.9 695.65 170.9 717.65 170.9 717.65 148.9 739.05 148.9 739.05 127.15 761.05 127.15 761.05 105.15 782.05 105.15 782.05 127.15 804.05 127.15 804.05 148.9 782.05 148.9 782.05 170.9 761.05 170.9 761.05 193.65 782.05 193.65 782.05 216.15 804.05 216.15 804.05 238.15 826.8 238.15 826.8 259.9 848.8 259.9 848.8 281.9 826.8 281.9 826.8 304.65 848.8 304.65 848.8 326.65 870.55 326.65 870.55 347.65 848.8 347.65 848.8 369.65 870.55 369.65 870.55 391.05 892.55 391.05 892.55 413.05 915.05 413.05 915.05 438.05 937.8 438.05 937.8 460.05 915.05 460.05 915.05 482.1 937.8 482.1 937.8 504.1 915.05 504.1 915.05 527.15 937.8 527.15 937.8 549.15 959.45 549.15 959.45 570.75 937.8 570.75 937.8 593.25 959.45 593.25 959.45 615.25 959.8 615.25 959.8 637.0 959.45 637.0 959.45 659.0 937.8 659.0 937.8 681.75 959.45 681.75 959.45 703.75 959.8 703.75 959.8 724.75 981.45 724.75 981.45 746.75 959.8 746.75 959.8 768.15 959.45 768.15 959.45 790.15 959.8 790.15 959.8 815.15 981.45 815.15 981.45 837.15 1004.5 837.15 1004.5 859.2 981.45 859.2 981.45 881.2 M670.65 148.9 L670.65 170.9 695.65 170.9 695.65 193.65 717.65 193.65 717.65 170.9 739.05 170.9 739.05 148.9 761.05 148.9 761.05 127.15 782.05 127.15 782.05 148.9 761.05 148.9 761.05 170.9 739.05 170.9 739.05 193.65 761.05 193.65 761.05 216.15 782.05 216.15 782.05 238.15 804.05 238.15 804.05 259.9 826.8 259.9 826.8 281.9 804.05 281.9 804.05 304.65 826.8 304.65 826.8 326.65 848.8 326.65 848.8 347.65 826.8 347.65 826.8 369.65 848.8 369.65 848.8 391.05 870.55 391.05 870.55 413.05 892.55 413.05 892.55 438.05 915.05 438.05 915.05 460.05 892.55 460.05 892.55 482.1 915.05 482.1 915.05 504.1 892.55 504.1 892.55 527.15 915.05 527.15 915.05 549.15 937.8 549.15 937.8 570.75 915.05 570.75 915.05 593.25 937.8 593.25 937.8 615.25 959.45 615.25 959.45 637.0 937.8 637.0 937.8 659.0 915.05 659.0 915.05 681.75 937.8 681.75 937.8 703.75 959.45 703.75 959.45 724.75 959.8 724.75 959.8 746.75 959.45 746.75 959.45 768.15 937.8 768.15 937.8 790.15 959.45 790.15 959.45 815.15 959.8 815.15 959.8 837.15 981.45 837.15 981.45 859.2 959.8 859.2 959.8 881.2 M670.65 148.9 L648.65 148.9 648.65 170.9 670.65 170.9 670.65 193.65 695.65 193.65 695.65 216.15 717.65 216.15 717.65 193.65 739.05 193.65 739.05 216.15 761.05 216.15 761.05 238.15 782.05 238.15 782.05 259.9 804.05 259.9 804.05 281.9 782.05 281.9 782.05 304.65 804.05 304.65 804.05 326.65 826.8 326.65 826.8 347.65 804.05 347.65 804.05 369.65 826.8 369.65 826.8 391.05 848.8 391.05 848.8 413.05 870.55 413.05 870.55 438.05 892.55 438.05 892.55 460.05 870.55 460.05 870.55 482.1 892.55 482.1 892.55 504.1 870.55 504.1 870.55 527.15 892.55 527.15 892.55 549.15 915.05 549.15 915.05 570.75 892.55 570.75 892.55 593.25 915.05 593.25 915.05 615.25 937.8 615.25 937.8 637.0 915.05 637.0 915.05 659.0 892.55 659.0 892.55 681.75 915.05 681.75 915.05 703.75 937.8 703.75 937.8 724.75 959.45 724.75 959.45 746.75 937.8 746.75 937.8 768.15 915.05 768.15 915.05 790.15 937.8 790.15 937.8 815.15 959.45 815.15 959.45 837.15 959.8 837.15 959.8 859.2 959.45 859.2 959.45 881.2 M648.65 170.9 L626.6 170.9 626.6 193.65 648.65 193.65 648.65 170.9 M648.65 193.65 L648.65 216.15 670.65 216.15 670.65 193.65 648.65 193.65 M648.65 127.15 L626.6 127.15 626.6 148.9 648.65 148.9 648.65 127.15 M648.65 83.35 L626.6 83.35 626.6 105.15 648.65 105.15 648.65 83.35 M739.05 216.15 L717.65 216.15 717.65 238.15 739.05 238.15 739.05 216.15 M739.05 238.15 L739.05 259.9 761.05 259.9 761.05 238.15 739.05 238.15 M739.05 259.9 L739.05 281.9 761.05 281.9 761.05 259.9 782.05 259.9 782.05 281.9 761.05 281.9 761.05 304.65 782.05 304.65 782.05 326.65 804.05 326.65 804.05 347.65 782.05 347.65 782.05 369.65 804.05 369.65 804.05 391.05 826.8 391.05 826.8 413.05 848.8 413.05 848.8 438.05 870.55 438.05 870.55 460.05 848.8 460.05 848.8 482.1 870.55 482.1 870.55 504.1 848.8 504.1 848.8 527.15 870.55 527.15 870.55 549.15 892.55 549.15 892.55 570.75 870.55 570.75 870.55 593.25 892.55 593.25 892.55 615.25 915.05 615.25 915.05 637.0 892.55 637.0 892.55 659.0 870.55 659.0 870.55 681.75 892.55 681.75 892.55 703.75 915.05 703.75 915.05 724.75 937.8 724.75 937.8 746.75 915.05 746.75 915.05 768.15 892.55 768.15 892.55 790.15 915.05 790.15 915.05 815.15 937.8 815.15 937.8 837.15 959.45 837.15 959.45 859.2 937.8 859.2 937.8 881.2 M695.65 216.15 L695.65 238.15 717.65 238.15 717.65 259.9 739.05 259.9 M648.65 216.15 L648.65 238.15 670.65 238.15 670.65 216.15 695.65 216.15 M648.65 281.9 L648.65 304.65 670.65 304.65 670.65 281.9 648.65 281.9 648.65 259.9 626.6 259.9 626.6 281.9 648.65 281.9 M670.65 281.9 L695.65 281.9 695.65 259.9 670.65 259.9 670.65 281.9 M670.65 259.9 L648.65 259.9 648.65 238.15 626.6 238.15 626.6 259.9 604.6 259.9 604.6 281.9 626.6 281.9 626.6 304.65 648.65 304.65 648.65 326.65 670.65 326.65 670.65 304.65 695.65 304.65 695.65 281.9 717.65 281.9 717.65 259.9 695.65 259.9 695.65 238.15 670.65 238.15 670.65 259.9 M695.65 326.65 L717.65 326.65 717.65 304.65 695.65 304.65 695.65 326.65 695.65 347.65 717.65 347.65 717.65 326.65 739.05 326.65 739.05 304.65 717.65 304.65 717.65 281.9 739.05 281.9 739.05 304.65 761.05 304.65 761.05 326.65 782.05 326.65 782.05 347.65 761.05 347.65 761.05 369.65 782.05 369.65 782.05 391.05 804.05 391.05 804.05 413.05 826.8 413.05 826.8 438.05 848.8 438.05 848.8 460.05 826.8 460.05 826.8 482.1 848.8 482.1 848.8 504.1 826.8 504.1 826.8 527.15 848.8 527.15 848.8 549.15 870.55 549.15 870.55 570.75 848.8 570.75 848.8 593.25 870.55 593.25 870.55 615.25 892.55 615.25 892.55 637.0 870.55 637.0 870.55 659.0 848.8 659.0 848.8 681.75 870.55 681.75 870.55 703.75 892.55 703.75 892.55 724.75 915.05 724.75 915.05 746.75 892.55 746.75 892.55 768.15 870.55 768.15 870.55 790.15 892.55 790.15 892.55 815.15 915.05 815.15 915.05 837.15 937.8 837.15 937.8 859.2 915.05 859.2 915.05 881.2 M670.65 347.65 L648.65 347.65 648.65 369.65 670.65 369.65 670.65 347.65 670.65 326.65 695.65 326.65 M648.65 369.65 L648.65 391.05 670.65 391.05 670.65 369.65 695.65 369.65 695.65 347.65 670.65 347.65 M717.65 369.65 L739.05 369.65 739.05 347.65 717.65 347.65 717.65 369.65 717.65 391.05 739.05 391.05 739.05 369.65 761.05 369.65 761.05 391.05 782.05 391.05 782.05 413.05 804.05 413.05 804.05 438.05 826.8 438.05 826.8 460.05 804.05 460.05 804.05 482.1 826.8 482.1 826.8 504.1 804.05 504.1 804.05 527.15 826.8 527.15 826.8 549.15 848.8 549.15 848.8 570.75 826.8 570.75 826.8 593.25 848.8 593.25 848.8 615.25 870.55 615.25 870.55 637.0 848.8 637.0 848.8 659.0 826.8 659.0 826.8 681.75 848.8 681.75 848.8 703.75 870.55 703.75 870.55 724.75 892.55 724.75 892.55 746.75 870.55 746.75 870.55 768.15 848.8 768.15 848.8 790.15 870.55 790.15 870.55 815.15 892.55 815.15 892.55 837.15 915.05 837.15 915.05 859.2 892.55 859.2 892.55 881.2 M717.65 369.65 L695.65 369.65 695.65 391.05 717.65 391.05 717.65 413.05 739.05 413.05 739.05 391.05 761.05 391.05 761.05 413.05 782.05 413.05 782.05 438.05 804.05 438.05 804.05 460.05 782.05 460.05 782.05 482.1 804.05 482.1 804.05 504.1 782.05 504.1 782.05 527.15 804.05 527.15 804.05 549.15 826.8 549.15 826.8 570.75 804.05 570.75 804.05 593.25 826.8 593.25 826.8 615.25 848.8 615.25 848.8 637.0 826.8 637.0 826.8 659.0 804.05 659.0 804.05 681.75 826.8 681.75 826.8 703.75 848.8 703.75 848.8 724.75 870.55 724.75 870.55 746.75 848.8 746.75 848.8 768.15 826.8 768.15 826.8 790.15 848.8 790.15 848.8 815.15 870.55 815.15 870.55 837.15 892.55 837.15 892.55 859.2 870.55 859.2 870.55 881.2 M648.65 326.65 L648.65 347.65 626.6 347.65 626.6 369.65 648.65 369.65 M670.65 391.05 L670.65 413.05 695.65 413.05 695.65 391.05 670.65 391.05 M739.05 326.65 L739.05 347.65 761.05 347.65 761.05 326.65 739.05 326.65 M739.05 413.05 L761.05 413.05 761.05 438.05 782.05 438.05 782.05 460.05 761.05 460.05 761.05 482.1 782.05 482.1 782.05 504.1 761.05 504.1 761.05 527.15 782.05 527.15 782.05 549.15 804.05 549.15 804.05 570.75 782.05 570.75 782.05 593.25 804.05 593.25 804.05 615.25 826.8 615.25 826.8 637.0 804.05 637.0 804.05 659.0 782.05 659.0 782.05 681.75 804.05 681.75 804.05 703.75 826.8 703.75 826.8 724.75 848.8 724.75 848.8 746.75 826.8 746.75 826.8 768.15 804.05 768.15 804.05 790.15 826.8 790.15 826.8 815.15 848.8 815.15 848.8 837.15 870.55 837.15 870.55 859.2 848.8 859.2 848.8 881.2 M739.05 413.05 L739.05 438.05 761.05 438.05 761.05 460.05 739.05 460.05 739.05 482.1 761.05 482.1 761.05 504.1 739.05 504.1 739.05 527.15 761.05 527.15 761.05 549.15 782.05 549.15 782.05 570.75 761.05 570.75 761.05 593.25 782.05 593.25 782.05 615.25 804.05 615.25 804.05 637.0 782.05 637.0 782.05 659.0 761.05 659.0 761.05 681.75 782.05 681.75 782.05 703.75 804.05 703.75 804.05 724.75 826.8 724.75 826.8 746.75 804.05 746.75 804.05 768.15 782.05 768.15 782.05 790.15 804.05 790.15 804.05 815.15 826.8 815.15 826.8 837.15 848.8 837.15 848.8 859.2 826.8 859.2 826.8 881.2 M739.05 438.05 L717.65 438.05 717.65 460.05 739.05 460.05 739.05 438.05 M717.65 438.05 L717.65 413.05 695.65 413.05 695.65 438.05 717.65 438.05 M648.65 438.05 L670.65 438.05 670.65 413.05 648.65 413.05 648.65 438.05 648.65 460.05 670.65 460.05 670.65 438.05 695.65 438.05 695.65 460.05 717.65 460.05 717.65 482.1 739.05 482.1 739.05 504.1 717.65 504.1 717.65 527.15 739.05 527.15 739.05 549.15 761.05 549.15 761.05 570.75 739.05 570.75 739.05 593.25 761.05 593.25 761.05 615.25 782.05 615.25 782.05 637.0 761.05 637.0 761.05 659.0 739.05 659.0 739.05 681.75 761.05 681.75 761.05 703.75 782.05 703.75 782.05 724.75 804.05 724.75 804.05 746.75 782.05 746.75 782.05 768.15 761.05 768.15 761.05 790.15 782.05 790.15 782.05 815.15 804.05 815.15 804.05 837.15 826.8 837.15 826.8 859.2 804.05 859.2 804.05 881.2 M648.65 482.1 L648.65 504.1 670.65 504.1 670.65 482.1 648.65 482.1 648.65 460.05 626.6 460.05 626.6 482.1 648.65 482.1 M670.65 482.1 L695.65 482.1 695.65 460.05 670.65 460.05 670.65 482.1 M695.65 482.1 L717.65 482.1 717.65 504.1 695.65 504.1 695.65 527.15 717.65 527.15 717.65 549.15 739.05 549.15 739.05 570.75 717.65 570.75 717.65 593.25 739.05 593.25 739.05 615.25 761.05 615.25 761.05 637.0 739.05 637.0 739.05 659.0 717.65 659.0 717.65 681.75 739.05 681.75 739.05 703.75 761.05 703.75 761.05 724.75 782.05 724.75 782.05 746.75 761.05 746.75 761.05 768.15 739.05 768.15 739.05 790.15 761.05 790.15 761.05 815.15 782.05 815.15 782.05 837.15 804.05 837.15 804.05 859.2 782.05 859.2 782.05 881.2 M648.65 527.15 L648.65 549.15 670.65 549.15 670.65 527.15 648.65 527.15 648.65 504.1 626.6 504.1 626.6 527.15 648.65 527.15 M695.65 504.1 L670.65 504.1 670.65 527.15 695.65 527.15 695.65 549.15 717.65 549.15 717.65 570.75 695.65 570.75 695.65 593.25 717.65 593.25 717.65 615.25 739.05 615.25 739.05 637.0 717.65 637.0 717.65 659.0 695.65 659.0 695.65 681.75 717.65 681.75 717.65 703.75 739.05 703.75 739.05 724.75 761.05 724.75 761.05 746.75 739.05 746.75 739.05 768.15 717.65 768.15 717.65 790.15 739.05 790.15 739.05 815.15 761.05 815.15 761.05 837.15 782.05 837.15 782.05 859.2 761.05 859.2 761.05 881.2 M648.65 570.75 L626.6 570.75 626.6 593.25 648.65 593.25 648.65 570.75 648.65 549.15 626.6 549.15 626.6 570.75 604.6 570.75 604.6 593.25 626.6 593.25 626.6 615.25 648.65 615.25 648.65 593.25 670.65 593.25 670.65 570.75 648.65 570.75 M670.65 570.75 L695.65 570.75 695.65 549.15 670.65 549.15 670.65 570.75 M670.65 593.25 L670.65 615.25 695.65 615.25 695.65 593.25 670.65 593.25 M695.65 504.1 L695.65 482.1 M670.65 615.25 L670.65 637.0 695.65 637.0 695.65 615.25 717.65 615.25 717.65 637.0 695.65 637.0 695.65 659.0 670.65 659.0 670.65 681.75 695.65 681.75 695.65 703.75 717.65 703.75 717.65 724.75 739.05 724.75 739.05 746.75 717.65 746.75 717.65 768.15 695.65 768.15 695.65 790.15 717.65 790.15 717.65 815.15 739.05 815.15 739.05 837.15 761.05 837.15 761.05 859.2 739.05 859.2 739.05 881.2 M670.65 615.25 L648.65 615.25 648.65 637.0 670.65 637.0 670.65 659.0 648.65 659.0 648.65 681.75 670.65 681.75 670.65 703.75 695.65 703.75 695.65 724.75 717.65 724.75 717.65 746.75 695.65 746.75 695.65 768.15 670.65 768.15 670.65 790.15 695.65 790.15 695.65 815.15 717.65 815.15 717.65 837.15 739.05 837.15 739.05 859.2 717.65 859.2 717.65 881.2 M648.65 637.0 L648.65 659.0 626.6 659.0 626.6 681.75 648.65 681.75 648.65 703.75 670.65 703.75 670.65 724.75 695.65 724.75 695.65 746.75 670.65 746.75 670.65 768.15 648.65 768.15 648.65 790.15 670.65 790.15 670.65 815.15 695.65 815.15 695.65 837.15 717.65 837.15 717.65 859.2 695.65 859.2 695.65 881.2 M648.65 703.75 L648.65 724.75 670.65 724.75 670.65 746.75 648.65 746.75 648.65 768.15 626.6 768.15 626.6 790.15 648.65 790.15 648.65 815.15 670.65 815.15 670.65 837.15 695.65 837.15 695.65 859.2 670.65 859.2 670.65 881.2 M648.65 724.75 L626.6 724.75 626.6 746.75 648.65 746.75 648.65 724.75 M648.65 391.05 L626.6 391.05 626.6 413.05 648.65 413.05 648.65 391.05 M604.6 17.6 L626.6 17.6 648.65 17.6 M604.6 17.6 L604.6 39.6 626.6 39.6 626.6 17.6 M581.55 17.6 L604.6 17.6 M581.55 17.6 L559.55 17.6 559.55 39.6 581.55 39.6 581.55 17.6 M581.55 39.6 L581.55 61.35 604.6 61.35 604.6 39.6 581.55 39.6 M581.55 61.35 L581.55 83.35 604.6 83.35 604.6 61.35 626.6 61.35 626.6 83.35 604.6 83.35 604.6 105.15 626.6 105.15 626.6 127.15 604.6 127.15 604.6 148.9 626.6 148.9 626.6 170.9 604.6 170.9 604.6 193.65 626.6 193.65 626.6 216.15 648.65 216.15 M541.0 17.6 L559.55 17.6 M541.0 17.6 L519.0 17.6 519.0 39.6 541.0 39.6 541.0 17.6 M541.0 39.6 L541.0 61.35 559.55 61.35 559.55 39.6 541.0 39.6 M519.0 17.6 L497.25 17.6 497.25 39.6 519.0 39.6 519.0 61.35 541.0 61.35 541.0 83.35 559.55 83.35 559.55 61.35 581.55 61.35 M475.25 17.6 L497.25 17.6 M519.0 61.35 L497.25 61.35 497.25 83.35 519.0 83.35 519.0 61.35 M519.0 83.35 L541.0 83.35 541.0 105.15 559.55 105.15 559.55 83.35 581.55 83.35 581.55 105.15 604.6 105.15 604.6 127.15 581.55 127.15 581.55 148.9 604.6 148.9 604.6 170.9 581.55 170.9 581.55 193.65 604.6 193.65 604.6 216.15 626.6 216.15 626.6 238.15 604.6 238.15 604.6 259.9 581.55 259.9 581.55 281.9 604.6 281.9 604.6 304.65 626.6 304.65 626.6 326.65 648.65 326.65 M497.25 39.6 L497.25 61.35 475.25 61.35 475.25 83.35 497.25 83.35 497.25 105.15 519.0 105.15 519.0 83.35 M541.0 127.15 L541.0 148.9 559.55 148.9 559.55 127.15 541.0 127.15 541.0 105.15 519.0 105.15 519.0 127.15 541.0 127.15 M559.55 127.15 L559.55 105.15 581.55 105.15 581.55 127.15 559.55 127.15 M497.25 105.15 L497.25 127.15 519.0 127.15 519.0 148.9 541.0 148.9 541.0 170.9 559.55 170.9 559.55 148.9 581.55 148.9 581.55 170.9 559.55 170.9 559.55 193.65 581.55 193.65 581.55 216.15 604.6 216.15 604.6 238.15 581.55 238.15 581.55 259.9 559.55 259.9 559.55 281.9 581.55 281.9 581.55 304.65 604.6 304.65 604.6 326.65 626.6 326.65 626.6 347.65 604.6 347.65 604.6 369.65 626.6 369.65 626.6 391.05 604.6 391.05 604.6 413.05 626.6 413.05 626.6 438.05 648.65 438.05 M519.0 148.9 L497.25 148.9 497.25 170.9 519.0 170.9 519.0 148.9 M497.25 170.9 L475.25 170.9 475.25 193.65 497.25 193.65 497.25 170.9 M497.25 193.65 L497.25 216.15 519.0 216.15 519.0 193.65 497.25 193.65 M519.0 193.65 L519.0 170.9 541.0 170.9 541.0 193.65 559.55 193.65 559.55 216.15 581.55 216.15 581.55 238.15 559.55 238.15 559.55 259.9 541.0 259.9 541.0 281.9 559.55 281.9 559.55 304.65 581.55 304.65 581.55 326.65 604.6 326.65 604.6 347.65 581.55 347.65 581.55 369.65 604.6 369.65 604.6 391.05 581.55 391.05 581.55 413.05 604.6 413.05 604.6 438.05 626.6 438.05 626.6 460.05 604.6 460.05 604.6 482.1 626.6 482.1 626.6 504.1 604.6 504.1 604.6 527.15 626.6 527.15 626.6 549.15 604.6 549.15 604.6 570.75 581.55 570.75 581.55 593.25 604.6 593.25 604.6 615.25 626.6 615.25 626.6 637.0 648.65 637.0 M497.25 127.15 L497.25 148.9 475.25 148.9 475.25 170.9 453.45 170.9 453.45 193.65 475.25 193.65 475.25 216.15 497.25 216.15 497.25 238.15 519.0 238.15 519.0 216.15 541.0 216.15 541.0 193.65 519.0 193.65 M431.45 17.6 L453.45 17.6 453.45 39.6 453.45 61.35 475.25 61.35 475.25 39.6 497.25 39.6 M453.45 39.6 L475.25 39.6 475.25 17.6 453.45 17.6 M409.7 17.6 L431.45 17.6 431.45 39.6 453.45 39.6 M409.7 17.6 L387.7 17.6 387.7 39.6 409.7 39.6 409.7 17.6 M409.7 39.6 L431.45 39.6 431.45 61.35 453.45 61.35 453.45 83.35 475.25 83.35 475.25 105.15 497.25 105.15 M409.7 83.35 L409.7 105.15 431.45 105.15 431.45 83.35 409.7 83.35 409.7 61.35 387.7 61.35 387.7 83.35 409.7 83.35 M431.45 83.35 L431.45 61.35 409.7 61.35 409.7 39.6 M431.45 105.15 L453.45 105.15 453.45 83.35 431.45 83.35 M364.95 17.6 L387.7 17.6 M364.95 17.6 L342.45 17.6 342.45 39.6 364.95 39.6 364.95 17.6 M364.95 39.6 L364.95 61.35 387.7 61.35 387.7 39.6 364.95 39.6 M320.45 17.6 L342.45 17.6 M342.45 83.35 L364.95 83.35 364.95 61.35 342.45 61.35 342.45 83.35 342.45 105.15 364.95 105.15 364.95 83.35 387.7 83.35 387.7 105.15 409.7 105.15 409.7 127.15 431.45 127.15 431.45 105.15 M342.45 39.6 L320.45 39.6 320.45 61.35 342.45 61.35 342.45 39.6 M364.95 127.15 L387.7 127.15 387.7 105.15 364.95 105.15 364.95 127.15 364.95 148.9 387.7 148.9 387.7 127.15 409.7 127.15 409.7 148.9 431.45 148.9 431.45 127.15 453.45 127.15 453.45 105.15 475.25 105.15 475.25 127.15 497.25 127.15 M342.45 105.15 L342.45 127.15 364.95 127.15 M342.45 170.9 L364.95 170.9 364.95 148.9 342.45 148.9 342.45 170.9 342.45 193.65 364.95 193.65 364.95 170.9 387.7 170.9 387.7 148.9 409.7 148.9 409.7 170.9 431.45 170.9 431.45 148.9 453.45 148.9 453.45 127.15 475.25 127.15 475.25 148.9 453.45 148.9 453.45 170.9 431.45 170.9 431.45 193.65 453.45 193.65 453.45 216.15 475.25 216.15 475.25 238.15 497.25 238.15 497.25 259.9 519.0 259.9 519.0 238.15 541.0 238.15 541.0 216.15 559.55 216.15 559.55 238.15 541.0 238.15 541.0 259.9 519.0 259.9 519.0 281.9 541.0 281.9 541.0 304.65 559.55 304.65 559.55 326.65 581.55 326.65 581.55 347.65 559.55 347.65 559.55 369.65 581.55 369.65 581.55 391.05 559.55 391.05 559.55 413.05 581.55 413.05 581.55 438.05 604.6 438.05 604.6 460.05 581.55 460.05 581.55 482.1 604.6 482.1 604.6 504.1 581.55 504.1 581.55 527.15 604.6 527.15 604.6 549.15 581.55 549.15 581.55 570.75 559.55 570.75 559.55 593.25 581.55 593.25 581.55 615.25 604.6 615.25 604.6 637.0 626.6 637.0 626.6 659.0 604.6 659.0 604.6 681.75 626.6 681.75 626.6 703.75 648.65 703.75 M364.95 193.65 L364.95 216.15 387.7 216.15 387.7 193.65 364.95 193.65 M387.7 193.65 L387.7 170.9 409.7 170.9 409.7 193.65 431.45 193.65 431.45 216.15 453.45 216.15 453.45 238.15 475.25 238.15 475.25 259.9 497.25 259.9 497.25 281.9 519.0 281.9 519.0 304.65 541.0 304.65 541.0 326.65 559.55 326.65 559.55 347.65 541.0 347.65 541.0 369.65 559.55 369.65 559.55 391.05 541.0 391.05 541.0 413.05 559.55 413.05 559.55 438.05 581.55 438.05 581.55 460.05 559.55 460.05 559.55 482.1 581.55 482.1 581.55 504.1 559.55 504.1 559.55 527.15 581.55 527.15 581.55 549.15 559.55 549.15 559.55 570.75 541.0 570.75 541.0 593.25 559.55 593.25 559.55 615.25 581.55 615.25 581.55 637.0 604.6 637.0 604.6 659.0 581.55 659.0 581.55 681.75 604.6 681.75 604.6 703.75 626.6 703.75 626.6 724.75 604.6 724.75 604.6 746.75 626.6 746.75 626.6 768.15 604.6 768.15 604.6 790.15 626.6 790.15 626.6 815.15 648.65 815.15 648.65 837.15 670.65 837.15 670.65 859.2 648.65 859.2 648.65 881.2 M342.45 127.15 L342.45 148.9 320.45 148.9 320.45 170.9 342.45 170.9 M387.7 216.15 L409.7 216.15 409.7 193.65 387.7 193.65 M409.7 238.15 L431.45 238.15 431.45 216.15 409.7 216.15 409.7 238.15 409.7 259.9 431.45 259.9 431.45 238.15 453.45 238.15 453.45 259.9 475.25 259.9 475.25 281.9 497.25 281.9 497.25 304.65 519.0 304.65 519.0 326.65 541.0 326.65 541.0 347.65 519.0 347.65 519.0 369.65 541.0 369.65 541.0 391.05 519.0 391.05 519.0 413.05 541.0 413.05 541.0 438.05 559.55 438.05 559.55 460.05 541.0 460.05 541.0 482.1 559.55 482.1 559.55 504.1 541.0 504.1 541.0 527.15 559.55 527.15 559.55 549.15 541.0 549.15 541.0 570.75 519.0 570.75 519.0 593.25 541.0 593.25 541.0 615.25 559.55 615.25 559.55 637.0 581.55 637.0 581.55 659.0 559.55 659.0 559.55 681.75 581.55 681.75 581.55 703.75 604.6 703.75 604.6 724.75 581.55 724.75 581.55 746.75 604.6 746.75 604.6 768.15 581.55 768.15 581.55 790.15 604.6 790.15 604.6 815.15 626.6 815.15 626.6 837.15 648.65 837.15 648.65 859.2 626.6 859.2 626.6 881.2 M409.7 281.9 L409.7 304.65 431.45 304.65 431.45 281.9 409.7 281.9 409.7 259.9 387.7 259.9 387.7 281.9 409.7 281.9 M431.45 281.9 L431.45 259.9 453.45 259.9 453.45 281.9 475.25 281.9 475.25 304.65 497.25 304.65 497.25 326.65 519.0 326.65 519.0 347.65 497.25 347.65 497.25 369.65 519.0 369.65 519.0 391.05 497.25 391.05 497.25 413.05 519.0 413.05 519.0 438.05 541.0 438.05 541.0 460.05 519.0 460.05 519.0 482.1 541.0 482.1 541.0 504.1 519.0 504.1 519.0 527.15 541.0 527.15 541.0 549.15 519.0 549.15 519.0 570.75 497.25 570.75 497.25 593.25 519.0 593.25 519.0 615.25 541.0 615.25 541.0 637.0 559.55 637.0 559.55 659.0 541.0 659.0 541.0 681.75 559.55 681.75 559.55 703.75 581.55 703.75 581.55 724.75 559.55 724.75 559.55 746.75 581.55 746.75 581.55 768.15 559.55 768.15 559.55 790.15 581.55 790.15 581.55 815.15 604.6 815.15 604.6 837.15 626.6 837.15 626.6 859.2 604.6 859.2 604.6 881.2 M431.45 281.9 L453.45 281.9 453.45 304.65 475.25 304.65 475.25 326.65 497.25 326.65 497.25 347.65 475.25 347.65 475.25 369.65 497.25 369.65 497.25 391.05 475.25 391.05 475.25 413.05 497.25 413.05 497.25 438.05 519.0 438.05 519.0 460.05 497.25 460.05 497.25 482.1 519.0 482.1 519.0 504.1 497.25 504.1 497.25 527.15 519.0 527.15 519.0 549.15 497.25 549.15 497.25 570.75 475.25 570.75 475.25 593.25 497.25 593.25 497.25 615.25 519.0 615.25 519.0 637.0 541.0 637.0 541.0 659.0 519.0 659.0 519.0 681.75 541.0 681.75 541.0 703.75 559.55 703.75 559.55 724.75 541.0 724.75 541.0 746.75 559.55 746.75 559.55 768.15 541.0 768.15 541.0 790.15 559.55 790.15 559.55 815.15 581.55 815.15 581.55 837.15 604.6 837.15 604.6 859.2 581.55 859.2 581.55 881.2 M387.7 216.15 L387.7 238.15 409.7 238.15 M364.95 216.15 L342.45 216.15 342.45 238.15 364.95 238.15 364.95 216.15 M364.95 238.15 L364.95 259.9 387.7 259.9 387.7 238.15 364.95 238.15 M342.45 259.9 L320.45 259.9 320.45 281.9 342.45 281.9 342.45 259.9 342.45 238.15 320.45 238.15 320.45 259.9 298.7 259.9 298.7 281.9 320.45 281.9 320.45 304.65 342.45 304.65 342.45 281.9 364.95 281.9 364.95 259.9 342.45 259.9 M364.95 281.9 L387.7 281.9 387.7 304.65 409.7 304.65 409.7 326.65 431.45 326.65 431.45 304.65 453.45 304.65 453.45 326.65 475.25 326.65 475.25 347.65 453.45 347.65 453.45 369.65 475.25 369.65 475.25 391.05 453.45 391.05 453.45 413.05 475.25 413.05 475.25 438.05 497.25 438.05 497.25 460.05 475.25 460.05 475.25 482.1 497.25 482.1 497.25 504.1 475.25 504.1 475.25 527.15 497.25 527.15 497.25 549.15 475.25 549.15 475.25 570.75 453.45 570.75 453.45 593.25 475.25 593.25 475.25 615.25 497.25 615.25 497.25 637.0 519.0 637.0 519.0 659.0 497.25 659.0 497.25 681.75 519.0 681.75 519.0 703.75 541.0 703.75 541.0 724.75 519.0 724.75 519.0 746.75 541.0 746.75 541.0 768.15 519.0 768.15 519.0 790.15 541.0 790.15 541.0 815.15 559.55 815.15 559.55 837.15 581.55 837.15 581.55 859.2 559.55 859.2 559.55 881.2 M364.95 304.65 L364.95 326.65 387.7 326.65 387.7 304.65 364.95 304.65 364.95 281.9 M320.45 304.65 L320.45 326.65 342.45 326.65 342.45 304.65 364.95 304.65 M342.45 347.65 L320.45 347.65 320.45 369.65 342.45 369.65 342.45 347.65 342.45 326.65 364.95 326.65 364.95 347.65 387.7 347.65 387.7 326.65 409.7 326.65 409.7 347.65 431.45 347.65 431.45 326.65 453.45 326.65 453.45 347.65 431.45 347.65 431.45 369.65 453.45 369.65 453.45 391.05 431.45 391.05 431.45 413.05 453.45 413.05 453.45 438.05 475.25 438.05 475.25 460.05 453.45 460.05 453.45 482.1 475.25 482.1 475.25 504.1 453.45 504.1 453.45 527.15 475.25 527.15 475.25 549.15 453.45 549.15 453.45 570.75 431.45 570.75 431.45 593.25 453.45 593.25 453.45 615.25 475.25 615.25 475.25 637.0 497.25 637.0 497.25 659.0 475.25 659.0 475.25 681.75 497.25 681.75 497.25 703.75 519.0 703.75 519.0 724.75 497.25 724.75 497.25 746.75 519.0 746.75 519.0 768.15 497.25 768.15 497.25 790.15 519.0 790.15 519.0 815.15 541.0 815.15 541.0 837.15 559.55 837.15 559.55 859.2 541.0 859.2 541.0 881.2 M320.45 369.65 L320.45 391.05 342.45 391.05 342.45 369.65 364.95 369.65 364.95 347.65 342.45 347.65 M364.95 369.65 L387.7 369.65 387.7 347.65 409.7 347.65 409.7 369.65 431.45 369.65 431.45 391.05 409.7 391.05 409.7 413.05 431.45 413.05 431.45 438.05 453.45 438.05 453.45 460.05 431.45 460.05 431.45 482.1 453.45 482.1 453.45 504.1 431.45 504.1 431.45 527.15 453.45 527.15 453.45 549.15 431.45 549.15 431.45 570.75 409.7 570.75 409.7 593.25 431.45 593.25 431.45 615.25 453.45 615.25 453.45 637.0 475.25 637.0 475.25 659.0 453.45 659.0 453.45 681.75 475.25 681.75 475.25 703.75 497.25 703.75 497.25 724.75 475.25 724.75 475.25 746.75 497.25 746.75 497.25 768.15 475.25 768.15 475.25 790.15 497.25 790.15 497.25 815.15 519.0 815.15 519.0 837.15 541.0 837.15 541.0 859.2 519.0 859.2 519.0 881.2 M364.95 369.65 L364.95 391.05 387.7 391.05 387.7 369.65 409.7 369.65 409.7 391.05 387.7 391.05 387.7 413.05 409.7 413.05 409.7 438.05 431.45 438.05 431.45 460.05 409.7 460.05 409.7 482.1 431.45 482.1 431.45 504.1 409.7 504.1 409.7 527.15 431.45 527.15 431.45 549.15 409.7 549.15 409.7 570.75 387.7 570.75 387.7 593.25 409.7 593.25 409.7 615.25 431.45 615.25 431.45 637.0 453.45 637.0 453.45 659.0 431.45 659.0 431.45 681.75 453.45 681.75 453.45 703.75 475.25 703.75 475.25 724.75 453.45 724.75 453.45 746.75 475.25 746.75 475.25 768.15 453.45 768.15 453.45 790.15 475.25 790.15 475.25 815.15 497.25 815.15 497.25 837.15 519.0 837.15 519.0 859.2 497.25 859.2 497.25 881.2 M342.45 391.05 L364.95 391.05 364.95 413.05 387.7 413.05 387.7 438.05 409.7 438.05 409.7 460.05 387.7 460.05 387.7 482.1 409.7 482.1 409.7 504.1 387.7 504.1 387.7 527.15 409.7 527.15 409.7 549.15 387.7 549.15 387.7 570.75 364.95 570.75 364.95 593.25 387.7 593.25 387.7 615.25 409.7 615.25 409.7 637.0 431.45 637.0 431.45 659.0 409.7 659.0 409.7 681.75 431.45 681.75 431.45 703.75 453.45 703.75 453.45 724.75 431.45 724.75 431.45 746.75 453.45 746.75 453.45 768.15 431.45 768.15 431.45 790.15 453.45 790.15 453.45 815.15 475.25 815.15 475.25 837.15 497.25 837.15 497.25 859.2 475.25 859.2 475.25 881.2 M342.45 193.65 L342.45 216.15 320.45 216.15 320.45 238.15 298.7 238.15 298.7 259.9 276.7 259.9 276.7 281.9 298.7 281.9 298.7 304.65 320.45 304.65 M276.7 17.6 L298.7 17.6 298.7 39.6 320.45 39.6 320.45 17.6 298.7 17.6 M231.95 17.6 L253.95 17.6 253.95 39.6 253.95 61.35 276.7 61.35 276.7 39.6 298.7 39.6 298.7 61.35 320.45 61.35 320.45 83.35 342.45 83.35 M253.95 39.6 L276.7 39.6 276.7 17.6 253.95 17.6 M253.95 83.35 L253.95 105.15 276.7 105.15 276.7 83.35 253.95 83.35 253.95 61.35 231.95 61.35 231.95 83.35 253.95 83.35 M276.7 83.35 L298.7 83.35 298.7 61.35 276.7 61.35 276.7 83.35 M298.7 83.35 L298.7 105.15 320.45 105.15 320.45 83.35 298.7 83.35 M210.95 17.6 L231.95 17.6 231.95 39.6 253.95 39.6 M210.95 17.6 L188.95 17.6 188.95 39.6 210.95 39.6 210.95 17.6 M210.95 39.6 L210.95 61.35 231.95 61.35 231.95 39.6 210.95 39.6 M167.55 17.6 L188.95 17.6 M167.55 17.6 L145.55 17.6 145.55 39.6 167.55 39.6 167.55 17.6 M167.55 39.6 L167.55 61.35 188.95 61.35 188.95 39.6 167.55 39.6 M167.55 61.35 L167.55 83.35 188.95 83.35 188.95 61.35 210.95 61.35 210.95 83.35 231.95 83.35 231.95 105.15 253.95 105.15 253.95 127.15 276.7 127.15 276.7 105.15 298.7 105.15 298.7 127.15 320.45 127.15 320.45 105.15 342.45 105.15 M188.95 83.35 L210.95 83.35 210.95 105.15 231.95 105.15 231.95 127.15 253.95 127.15 253.95 148.9 276.7 148.9 276.7 127.15 298.7 127.15 298.7 148.9 320.45 148.9 320.45 127.15 342.45 127.15 M210.95 105.15 L210.95 127.15 231.95 127.15 231.95 148.9 253.95 148.9 253.95 170.9 276.7 170.9 276.7 148.9 298.7 148.9 298.7 170.9 320.45 170.9 320.45 193.65 342.45 193.65 M188.95 105.15 L167.55 105.15 167.55 127.15 188.95 127.15 188.95 105.15 188.95 83.35 M188.95 170.9 L210.95 170.9 210.95 148.9 188.95 148.9 188.95 170.9 188.95 193.65 210.95 193.65 210.95 170.9 231.95 170.9 231.95 148.9 210.95 148.9 210.95 127.15 188.95 127.15 188.95 148.9 167.55 148.9 167.55 170.9 188.95 170.9 M167.55 170.9 L167.55 193.65 188.95 193.65 188.95 216.15 210.95 216.15 210.95 193.65 231.95 193.65 231.95 170.9 253.95 170.9 253.95 193.65 276.7 193.65 276.7 170.9 298.7 170.9 298.7 193.65 320.45 193.65 320.45 216.15 298.7 216.15 298.7 238.15 276.7 238.15 276.7 259.9 253.95 259.9 253.95 281.9 276.7 281.9 276.7 304.65 298.7 304.65 298.7 326.65 320.45 326.65 320.45 347.65 298.7 347.65 298.7 369.65 320.45 369.65 M167.55 127.15 L167.55 148.9 145.55 148.9 145.55 170.9 167.55 170.9 M188.95 105.15 L210.95 105.15 M276.7 193.65 L276.7 216.15 298.7 216.15 298.7 193.65 276.7 193.65 M231.95 193.65 L231.95 216.15 253.95 216.15 253.95 193.65 231.95 193.65 M167.55 83.35 L167.55 105.15 145.55 105.15 145.55 127.15 167.55 127.15 M120.55 17.6 L145.55 17.6 M76.5 17.6 L98.55 17.6 98.55 39.6 98.55 61.35 120.55 61.35 120.55 39.6 145.55 39.6 145.55 61.35 167.55 61.35 M98.55 39.6 L120.55 39.6 120.55 17.6 98.55 17.6 M98.55 61.35 L76.5 61.35 76.5 83.35 98.55 83.35 98.55 61.35 M98.55 83.35 L98.55 105.15 120.55 105.15 120.55 83.35 98.55 83.35 M120.55 83.35 L145.55 83.35 145.55 61.35 120.55 61.35 120.55 83.35 M31.45 17.6 L54.5 17.6 54.5 39.6 76.5 39.6 98.55 39.6 M76.5 39.6 L76.5 17.6 54.5 17.6 M9.45 61.35 L9.45 39.6 31.45 39.6 31.45 17.6 9.45 17.6 9.45 39.6 M9.45 105.15 L9.45 83.35 31.45 83.35 54.5 83.35 54.5 61.35 31.45 61.35 31.45 39.6 54.5 39.6 54.5 61.35 76.5 61.35 76.5 39.6 M31.45 83.35 L31.45 61.35 9.45 61.35 9.45 83.35 M54.5 83.35 L54.5 105.15 76.5 105.15 76.5 83.35 54.5 83.35 M54.5 105.15 L54.5 127.15 76.5 127.15 76.5 105.15 98.55 105.15 98.55 127.15 120.55 127.15 120.55 105.15 145.55 105.15 145.55 83.35 167.55 83.35 M9.45 148.9 L9.45 127.15 31.45 127.15 31.45 105.15 9.45 105.15 9.45 127.15 M31.45 148.9 L9.45 148.9 9.45 170.9 31.45 170.9 31.45 148.9 31.45 127.15 54.5 127.15 54.5 148.9 76.5 148.9 76.5 127.15 98.55 127.15 98.55 148.9 120.55 148.9 120.55 127.15 145.55 127.15 145.55 148.9 120.55 148.9 120.55 170.9 145.55 170.9 145.55 193.65 167.55 193.65 167.55 216.15 188.95 216.15 188.95 238.15 210.95 238.15 210.95 216.15 231.95 216.15 231.95 238.15 253.95 238.15 253.95 216.15 276.7 216.15 276.7 238.15 253.95 238.15 253.95 259.9 231.95 259.9 231.95 281.9 253.95 281.9 253.95 304.65 276.7 304.65 276.7 326.65 298.7 326.65 298.7 347.65 276.7 347.65 276.7 369.65 298.7 369.65 298.7 391.05 320.45 391.05 320.45 413.05 342.45 413.05 342.45 391.05 M9.45 193.65 L9.45 170.9 M9.45 193.65 L31.45 193.65 31.45 170.9 54.5 170.9 54.5 148.9 31.45 148.9 M76.5 170.9 L98.55 170.9 98.55 148.9 76.5 148.9 76.5 170.9 76.5 193.65 98.55 193.65 98.55 170.9 120.55 170.9 120.55 193.65 145.55 193.65 145.55 216.15 167.55 216.15 167.55 238.15 188.95 238.15 188.95 259.9 210.95 259.9 210.95 238.15 231.95 238.15 231.95 259.9 210.95 259.9 210.95 281.9 231.95 281.9 231.95 304.65 253.95 304.65 253.95 326.65 276.7 326.65 276.7 347.65 253.95 347.65 253.95 369.65 276.7 369.65 276.7 391.05 298.7 391.05 298.7 413.05 320.45 413.05 320.45 438.05 342.45 438.05 342.45 413.05 364.95 413.05 364.95 438.05 387.7 438.05 387.7 460.05 364.95 460.05 364.95 482.1 387.7 482.1 387.7 504.1 364.95 504.1 364.95 527.15 387.7 527.15 387.7 549.15 364.95 549.15 364.95 570.75 342.45 570.75 342.45 593.25 364.95 593.25 364.95 615.25 387.7 615.25 387.7 637.0 409.7 637.0 409.7 659.0 387.7 659.0 387.7 681.75 409.7 681.75 409.7 703.75 431.45 703.75 431.45 724.75 409.7 724.75 409.7 746.75 431.45 746.75 431.45 768.15 409.7 768.15 409.7 790.15 431.45 790.15 431.45 815.15 453.45 815.15 453.45 837.15 475.25 837.15 475.25 859.2 453.45 859.2 453.45 881.2 M76.5 170.9 L54.5 170.9 54.5 193.65 76.5 193.65 76.5 216.15 98.55 216.15 98.55 193.65 120.55 193.65 120.55 216.15 145.55 216.15 145.55 238.15 167.55 238.15 167.55 259.9 188.95 259.9 188.95 281.9 210.95 281.9 210.95 304.65 231.95 304.65 231.95 326.65 253.95 326.65 253.95 347.65 231.95 347.65 231.95 369.65 253.95 369.65 253.95 391.05 276.7 391.05 276.7 413.05 298.7 413.05 298.7 438.05 320.45 438.05 320.45 460.05 342.45 460.05 342.45 438.05 364.95 438.05 364.95 460.05 342.45 460.05 342.45 482.1 364.95 482.1 364.95 504.1 342.45 504.1 342.45 527.15 364.95 527.15 364.95 549.15 342.45 549.15 342.45 570.75 320.45 570.75 320.45 593.25 342.45 593.25 342.45 615.25 364.95 615.25 364.95 637.0 387.7 637.0 387.7 659.0 364.95 659.0 364.95 681.75 387.7 681.75 387.7 703.75 409.7 703.75 409.7 724.75 387.7 724.75 387.7 746.75 409.7 746.75 409.7 768.15 387.7 768.15 387.7 790.15 409.7 790.15 409.7 815.15 431.45 815.15 431.45 837.15 453.45 837.15 453.45 859.2 431.45 859.2 431.45 881.2 M54.5 105.15 L31.45 105.15 31.45 83.35 M31.45 193.65 L31.45 216.15 54.5 216.15 54.5 193.65 31.45 193.65 M120.55 238.15 L120.55 216.15 98.55 216.15 98.55 238.15 120.55 238.15 145.55 238.15 145.55 259.9 167.55 259.9 167.55 281.9 188.95 281.9 188.95 304.65 210.95 304.65 210.95 326.65 231.95 326.65 231.95 347.65 210.95 347.65 210.95 369.65 231.95 369.65 231.95 391.05 253.95 391.05 253.95 413.05 276.7 413.05 276.7 438.05 298.7 438.05 298.7 460.05 320.45 460.05 320.45 482.1 342.45 482.1 342.45 504.1 320.45 504.1 320.45 527.15 342.45 527.15 342.45 549.15 320.45 549.15 320.45 570.75 298.7 570.75 298.7 593.25 320.45 593.25 320.45 615.25 342.45 615.25 342.45 637.0 364.95 637.0 364.95 659.0 342.45 659.0 342.45 681.75 364.95 681.75 364.95 703.75 387.7 703.75 387.7 724.75 364.95 724.75 364.95 746.75 387.7 746.75 387.7 768.15 364.95 768.15 364.95 790.15 387.7 790.15 387.7 815.15 409.7 815.15 409.7 837.15 431.45 837.15 431.45 859.2 409.7 859.2 409.7 881.2 M98.55 259.9 L76.5 259.9 76.5 281.9 98.55 281.9 98.55 259.9 98.55 238.15 76.5 238.15 76.5 259.9 54.5 259.9 54.5 281.9 76.5 281.9 76.5 304.65 98.55 304.65 98.55 281.9 120.55 281.9 120.55 259.9 98.55 259.9 M145.55 259.9 L145.55 281.9 167.55 281.9 167.55 304.65 188.95 304.65 188.95 326.65 210.95 326.65 210.95 347.65 188.95 347.65 188.95 369.65 210.95 369.65 210.95 391.05 231.95 391.05 231.95 413.05 253.95 413.05 253.95 438.05 276.7 438.05 276.7 460.05 298.7 460.05 298.7 482.1 320.45 482.1 320.45 504.1 298.7 504.1 298.7 527.15 320.45 527.15 320.45 549.15 298.7 549.15 298.7 570.75 276.7 570.75 276.7 593.25 298.7 593.25 298.7 615.25 320.45 615.25 320.45 637.0 342.45 637.0 342.45 659.0 320.45 659.0 320.45 681.75 342.45 681.75 342.45 703.75 364.95 703.75 364.95 724.75 342.45 724.75 342.45 746.75 364.95 746.75 364.95 768.15 342.45 768.15 342.45 790.15 364.95 790.15 364.95 815.15 387.7 815.15 387.7 837.15 409.7 837.15 409.7 859.2 387.7 859.2 387.7 881.2 M120.55 238.15 L120.55 259.9 145.55 259.9 M120.55 281.9 L145.55 281.9 145.55 304.65 167.55 304.65 167.55 326.65 188.95 326.65 188.95 347.65 167.55 347.65 167.55 369.65 188.95 369.65 188.95 391.05 210.95 391.05 210.95 413.05 231.95 413.05 231.95 438.05 253.95 438.05 253.95 460.05 276.7 460.05 276.7 482.1 298.7 482.1 298.7 504.1 276.7 504.1 276.7 527.15 298.7 527.15 298.7 549.15 276.7 549.15 276.7 570.75 253.95 570.75 253.95 593.25 276.7 593.25 276.7 615.25 298.7 615.25 298.7 637.0 320.45 637.0 320.45 659.0 298.7 659.0 298.7 681.75 320.45 681.75 320.45 703.75 342.45 703.75 342.45 724.75 320.45 724.75 320.45 746.75 342.45 746.75 342.45 768.15 320.45 768.15 320.45 790.15 342.45 790.15 342.45 815.15 364.95 815.15 364.95 837.15 387.7 837.15 387.7 859.2 364.95 859.2 364.95 881.2 M76.5 238.15 L76.5 216.15 54.5 216.15 54.5 238.15 76.5 238.15 M9.45 238.15 L9.45 216.15 9.45 193.65 M9.45 238.15 L31.45 238.15 31.45 216.15 9.45 216.15 M9.45 259.9 L9.45 238.15 M9.45 304.65 L9.45 281.9 31.45 281.9 54.5 281.9 54.5 304.65 76.5 304.65 76.5 326.65 98.55 326.65 98.55 304.65 120.55 304.65 120.55 281.9 M31.45 281.9 L31.45 259.9 9.45 259.9 9.45 281.9 M31.45 238.15 L54.5 238.15 54.5 259.9 31.45 259.9 31.45 238.15 M54.5 304.65 L54.5 326.65 76.5 326.65 76.5 347.65 98.55 347.65 98.55 326.65 120.55 326.65 120.55 304.65 145.55 304.65 145.55 326.65 167.55 326.65 167.55 347.65 145.55 347.65 145.55 369.65 167.55 369.65 167.55 391.05 188.95 391.05 188.95 413.05 210.95 413.05 210.95 438.05 231.95 438.05 231.95 460.05 253.95 460.05 253.95 482.1 276.7 482.1 276.7 504.1 253.95 504.1 253.95 527.15 276.7 527.15 276.7 549.15 253.95 549.15 253.95 570.75 231.95 570.75 231.95 593.25 253.95 593.25 253.95 615.25 276.7 615.25 276.7 637.0 298.7 637.0 298.7 659.0 276.7 659.0 276.7 681.75 298.7 681.75 298.7 703.75 320.45 703.75 320.45 724.75 298.7 724.75 298.7 746.75 320.45 746.75 320.45 768.15 298.7 768.15 298.7 790.15 320.45 790.15 320.45 815.15 342.45 815.15 342.45 837.15 364.95 837.15 364.95 859.2 342.45 859.2 342.45 881.2 M9.45 347.65 L9.45 326.65 31.45 326.65 31.45 304.65 9.45 304.65 9.45 326.65 M31.45 369.65 L54.5 369.65 54.5 347.65 31.45 347.65 31.45 369.65 31.45 391.05 54.5 391.05 54.5 369.65 76.5 369.65 76.5 347.65 54.5 347.65 54.5 326.65 31.45 326.65 31.45 347.65 9.45 347.65 9.45 369.65 31.45 369.65 M9.45 369.65 L9.45 391.05 31.45 391.05 31.45 413.05 54.5 413.05 54.5 391.05 76.5 391.05 76.5 369.65 98.55 369.65 98.55 347.65 120.55 347.65 120.55 326.65 145.55 326.65 145.55 347.65 120.55 347.65 120.55 369.65 145.55 369.65 145.55 391.05 167.55 391.05 167.55 413.05 188.95 413.05 188.95 438.05 210.95 438.05 210.95 460.05 231.95 460.05 231.95 482.1 253.95 482.1 253.95 504.1 231.95 504.1 231.95 527.15 253.95 527.15 253.95 549.15 231.95 549.15 231.95 570.75 210.95 570.75 210.95 593.25 231.95 593.25 231.95 615.25 253.95 615.25 253.95 637.0 276.7 637.0 276.7 659.0 253.95 659.0 253.95 681.75 276.7 681.75 276.7 703.75 298.7 703.75 298.7 724.75 276.7 724.75 276.7 746.75 298.7 746.75 298.7 768.15 276.7 768.15 276.7 790.15 298.7 790.15 298.7 815.15 320.45 815.15 320.45 837.15 342.45 837.15 342.45 859.2 320.45 859.2 320.45 881.2 M9.45 413.05 L9.45 391.05 M31.45 281.9 L31.45 304.65 54.5 304.65 M98.55 391.05 L120.55 391.05 120.55 369.65 98.55 369.65 98.55 391.05 98.55 413.05 120.55 413.05 120.55 391.05 145.55 391.05 145.55 413.05 167.55 413.05 167.55 438.05 188.95 438.05 188.95 460.05 210.95 460.05 210.95 482.1 231.95 482.1 231.95 504.1 210.95 504.1 210.95 527.15 231.95 527.15 231.95 549.15 210.95 549.15 210.95 570.75 188.95 570.75 188.95 593.25 210.95 593.25 210.95 615.25 231.95 615.25 231.95 637.0 253.95 637.0 253.95 659.0 231.95 659.0 231.95 681.75 253.95 681.75 253.95 703.75 276.7 703.75 276.7 724.75 253.95 724.75 253.95 746.75 276.7 746.75 276.7 768.15 253.95 768.15 253.95 790.15 276.7 790.15 276.7 815.15 298.7 815.15 298.7 837.15 320.45 837.15 320.45 859.2 298.7 859.2 298.7 881.2 M76.5 391.05 L98.55 391.05 M167.55 438.05 L167.55 460.05 188.95 460.05 188.95 482.1 210.95 482.1 210.95 504.1 188.95 504.1 188.95 527.15 210.95 527.15 210.95 549.15 188.95 549.15 188.95 570.75 167.55 570.75 167.55 593.25 188.95 593.25 188.95 615.25 210.95 615.25 210.95 637.0 231.95 637.0 231.95 659.0 210.95 659.0 210.95 681.75 231.95 681.75 231.95 703.75 253.95 703.75 253.95 724.75 231.95 724.75 231.95 746.75 253.95 746.75 253.95 768.15 231.95 768.15 231.95 790.15 253.95 790.15 253.95 815.15 276.7 815.15 276.7 837.15 298.7 837.15 298.7 859.2 276.7 859.2 276.7 881.2 M167.55 460.05 L167.55 482.1 188.95 482.1 188.95 504.1 167.55 504.1 167.55 527.15 188.95 527.15 188.95 549.15 167.55 549.15 167.55 570.75 145.55 570.75 145.55 593.25 167.55 593.25 167.55 615.25 188.95 615.25 188.95 637.0 210.95 637.0 210.95 659.0 188.95 659.0 188.95 681.75 210.95 681.75 210.95 703.75 231.95 703.75 231.95 724.75 210.95 724.75 210.95 746.75 231.95 746.75 231.95 768.15 210.95 768.15 210.95 790.15 231.95 790.15 231.95 815.15 253.95 815.15 253.95 837.15 276.7 837.15 276.7 859.2 253.95 859.2 253.95 881.2 M167.55 527.15 L145.55 527.15 145.55 549.15 167.55 549.15 167.55 527.15 M167.55 482.1 L167.55 504.1 145.55 504.1 145.55 527.15 120.55 527.15 120.55 549.15 145.55 549.15 145.55 570.75 120.55 570.75 120.55 593.25 145.55 593.25 145.55 615.25 167.55 615.25 167.55 637.0 188.95 637.0 188.95 659.0 167.55 659.0 167.55 681.75 188.95 681.75 188.95 703.75 210.95 703.75 210.95 724.75 188.95 724.75 188.95 746.75 210.95 746.75 210.95 768.15 188.95 768.15 188.95 790.15 210.95 790.15 210.95 815.15 231.95 815.15 231.95 837.15 253.95 837.15 253.95 859.2 231.95 859.2 231.95 881.2 M145.55 413.05 L145.55 438.05 167.55 438.05 M98.55 413.05 L98.55 438.05 120.55 438.05 120.55 413.05 145.55 413.05 M98.55 438.05 L98.55 460.05 120.55 460.05 120.55 438.05 145.55 438.05 145.55 460.05 167.55 460.05 M98.55 460.05 L76.5 460.05 76.5 482.1 98.55 482.1 98.55 460.05 M98.55 482.1 L98.55 504.1 120.55 504.1 120.55 482.1 98.55 482.1 M120.55 482.1 L145.55 482.1 145.55 460.05 120.55 460.05 120.55 482.1 M54.5 413.05 L76.5 413.05 76.5 391.05 M31.45 413.05 L31.45 438.05 54.5 438.05 54.5 413.05 M98.55 413.05 L76.5 413.05 76.5 438.05 98.55 438.05 M54.5 438.05 L76.5 438.05 76.5 460.05 54.5 460.05 54.5 482.1 76.5 482.1 76.5 504.1 98.55 504.1 98.55 527.15 120.55 527.15 120.55 504.1 145.55 504.1 145.55 482.1 167.55 482.1 M9.45 460.05 L9.45 438.05 9.45 413.05 31.45 413.05 M9.45 460.05 L31.45 460.05 31.45 438.05 9.45 438.05 M9.45 504.1 L9.45 482.1 31.45 482.1 31.45 460.05 54.5 460.05 54.5 438.05 M9.45 460.05 L9.45 482.1 M31.45 482.1 L54.5 482.1 54.5 504.1 76.5 504.1 76.5 527.15 98.55 527.15 98.55 549.15 120.55 549.15 120.55 570.75 98.55 570.75 98.55 593.25 120.55 593.25 120.55 615.25 145.55 615.25 145.55 637.0 167.55 637.0 167.55 659.0 145.55 659.0 145.55 681.75 167.55 681.75 167.55 703.75 188.95 703.75 188.95 724.75 167.55 724.75 167.55 746.75 188.95 746.75 188.95 768.15 167.55 768.15 167.55 790.15 188.95 790.15 188.95 815.15 210.95 815.15 210.95 837.15 231.95 837.15 231.95 859.2 210.95 859.2 210.95 881.2 M54.5 504.1 L31.45 504.1 31.45 527.15 54.5 527.15 54.5 504.1 M54.5 527.15 L54.5 549.15 76.5 549.15 76.5 527.15 54.5 527.15 M9.45 549.15 L9.45 527.15 31.45 527.15 31.45 549.15 54.5 549.15 54.5 570.75 76.5 570.75 76.5 549.15 98.55 549.15 98.55 570.75 76.5 570.75 76.5 593.25 98.55 593.25 98.55 615.25 120.55 615.25 120.55 637.0 145.55 637.0 145.55 659.0 120.55 659.0 120.55 681.75 145.55 681.75 145.55 703.75 167.55 703.75 167.55 724.75 145.55 724.75 145.55 746.75 167.55 746.75 167.55 768.15 145.55 768.15 145.55 790.15 167.55 790.15 167.55 815.15 188.95 815.15 188.95 837.15 210.95 837.15 210.95 859.2 188.95 859.2 188.95 881.2 M31.45 504.1 L9.45 504.1 9.45 527.15 M9.45 593.25 L9.45 570.75 31.45 570.75 31.45 549.15 9.45 549.15 9.45 570.75 M31.45 593.25 L54.5 593.25 54.5 570.75 31.45 570.75 31.45 593.25 31.45 615.25 54.5 615.25 54.5 593.25 76.5 593.25 76.5 615.25 98.55 615.25 98.55 637.0 120.55 637.0 120.55 659.0 98.55 659.0 98.55 681.75 120.55 681.75 120.55 703.75 145.55 703.75 145.55 724.75 120.55 724.75 120.55 746.75 145.55 746.75 145.55 768.15 120.55 768.15 120.55 790.15 145.55 790.15 145.55 815.15 167.55 815.15 167.55 837.15 188.95 837.15 188.95 859.2 167.55 859.2 167.55 881.2 M31.45 593.25 L9.45 593.25 9.45 615.25 31.45 615.25 31.45 637.0 54.5 637.0 54.5 615.25 76.5 615.25 76.5 637.0 98.55 637.0 98.55 659.0 76.5 659.0 76.5 681.75 98.55 681.75 98.55 703.75 120.55 703.75 120.55 724.75 98.55 724.75 98.55 746.75 120.55 746.75 120.55 768.15 98.55 768.15 98.55 790.15 120.55 790.15 120.55 815.15 145.55 815.15 145.55 837.15 167.55 837.15 167.55 859.2 145.55 859.2 145.55 881.2 M31.45 504.1 L31.45 482.1 M54.5 637.0 L54.5 659.0 76.5 659.0 76.5 637.0 54.5 637.0 M9.45 637.0 L9.45 615.25 M9.45 637.0 L9.45 659.0 31.45 659.0 31.45 637.0 9.45 637.0 M9.45 681.75 L9.45 659.0 M31.45 681.75 L54.5 681.75 54.5 659.0 31.45 659.0 31.45 681.75 31.45 703.75 54.5 703.75 54.5 681.75 76.5 681.75 76.5 703.75 98.55 703.75 98.55 724.75 76.5 724.75 76.5 746.75 98.55 746.75 98.55 768.15 76.5 768.15 76.5 790.15 98.55 790.15 98.55 815.15 120.55 815.15 120.55 837.15 145.55 837.15 145.55 859.2 120.55 859.2 120.55 881.2 M9.45 681.75 L31.45 681.75 M76.5 703.75 L76.5 724.75 54.5 724.75 54.5 746.75 76.5 746.75 76.5 768.15 54.5 768.15 54.5 790.15 76.5 790.15 76.5 815.15 98.55 815.15 98.55 837.15 120.55 837.15 120.55 859.2 98.55 859.2 98.55 881.2 M54.5 703.75 L76.5 703.75 M31.45 703.75 L31.45 724.75 54.5 724.75 54.5 703.75 M9.45 724.75 L9.45 703.75 9.45 681.75 M9.45 724.75 L9.45 746.75 31.45 746.75 31.45 724.75 9.45 724.75 M31.45 703.75 L9.45 703.75 M9.45 768.15 L9.45 746.75 M9.45 790.15 L31.45 790.15 31.45 815.15 54.5 815.15 54.5 837.15 76.5 837.15 76.5 859.2 54.5 859.2 54.5 881.2 M9.45 837.15 L31.45 837.15 31.45 815.15 9.45 815.15 M54.5 859.2 L31.45 859.2 31.45 881.2 M31.45 859.2 L9.45 859.2 M54.5 837.15 L54.5 859.2 M31.45 837.15 L54.5 837.15 M31.45 837.15 L31.45 859.2" fill="none" stroke="#1f4e7a" stroke-linecap="round" stroke-linejoin="miter-clip" stroke-miterlimit="3.0" stroke-width="1.5"/>
  </g>
</svg>
