<?xml version="1.0" encoding="UTF-8" standalone="no"?>
<svg xmlns:xlink="http://www.w3.org/1999/xlink" height="12.0px" width="16.5px" xmlns="http://www.w3.org/2000/svg">
  <g transform="matrix(1.0, 0.0, 0.0, 1.0, -69.2, -68.0)">
    <path d="M83.85 71.05 L83.5 71.85 83.45 71.85 82.65 72.15 Q81.45 72.1 80.65 72.9 L80.6 72.9 Q79.6 73.95 78.7 73.9 L78.65 73.9 76.85 73.8 76.35 75.3 76.25 75.45 Q74.85 77.25 72.6 78.1 L71.75 78.0 71.75 78.05 Q71.3 77.85 71.15 77.45 L71.15 77.4 Q71.0 76.95 71.2 76.55 71.35 76.1 71.8 75.95 L71.85 75.95 Q73.45 75.35 74.45 74.1 L74.6 73.5 74.6 72.55 74.6 72.5 74.75 71.9 74.8 71.85 Q74.95 71.6 75.25 71.5 L75.3 71.5 75.85 71.4 75.9 71.4 78.6 71.65 78.95 71.35 Q79.0 71.25 79.1 71.25 80.55 69.8 82.75 69.9 83.2 69.9 83.55 70.25 L83.85 71.05" fill="#9999ff" fill-rule="evenodd" stroke="none"/>
    <path d="M82.8 68.0 Q84.0 68.05 84.9 68.9 L85.0 69.05 Q85.7 69.9 85.7 71.05 L85.7 71.15 Q85.65 72.35 84.8 73.2 L84.7 73.3 Q83.8 74.05 82.6 74.0 L82.55 74.0 82.0 74.15 Q80.2 76.1 78.55 75.75 L78.25 75.75 78.15 75.75 77.85 76.4 77.8 76.5 77.75 76.6 Q76.0 78.8 73.25 79.85 L73.2 79.85 70.9 79.7 71.0 79.75 Q69.85 79.25 69.45 78.15 L69.4 78.0 Q68.95 76.8 69.55 75.7 L69.45 75.8 Q69.95 74.65 71.1 74.25 L71.2 74.2 72.7 73.25 72.7 72.55 72.7 72.5 Q72.7 71.65 73.15 70.9 L73.25 70.8 Q73.75 70.05 74.6 69.75 L76.1 69.55 76.2 69.55 77.95 69.75 Q79.9 67.95 82.75 68.0 L82.8 68.0 M84.5 69.45 L84.45 69.35 Q83.75 68.65 82.8 68.65 L82.75 68.65 Q80.1 68.55 78.35 70.25 L78.2 70.4 78.15 70.4 76.1 70.15 76.0 70.15 74.8 70.3 Q74.15 70.55 73.75 71.15 L73.7 71.25 Q73.3 71.8 73.35 72.5 L73.35 72.55 73.35 73.5 71.4 74.75 71.3 74.8 Q70.4 75.15 70.05 76.05 L70.1 76.0 Q69.6 76.85 69.95 77.8 L70.0 77.9 Q70.35 78.8 71.25 79.2 L71.2 79.15 73.0 79.25 73.05 79.25 Q75.65 78.3 77.25 76.2 L77.45 75.85 77.65 75.1 77.8 75.1 78.6 75.15 Q80.0 75.4 81.55 73.75 L81.6 73.7 Q82.0 73.35 82.6 73.4 L82.65 73.4 Q83.55 73.4 84.3 72.8 L84.35 72.75 Q85.05 72.05 85.1 71.15 L85.1 71.05 Q85.1 70.1 84.5 69.45" fill="#9999ff" fill-opacity="0.24705882" fill-rule="evenodd" stroke="none"/>
    <path d="M84.5 69.45 Q85.1 70.1 85.1 71.05 L85.1 71.15 Q85.05 72.05 84.35 72.75 L84.3 72.8 Q83.55 73.4 82.65 73.4 L82.6 73.4 Q82.0 73.35 81.6 73.7 L81.55 73.75 Q80.0 75.4 78.6 75.15 L77.8 75.1 77.65 75.1 77.45 75.85 77.25 76.2 Q75.65 78.3 73.05 79.25 L73.0 79.25 71.2 79.15 71.25 79.2 Q70.35 78.8 70.0 77.9 L69.95 77.8 Q69.6 76.85 70.1 76.0 L70.05 76.05 Q70.4 75.15 71.3 74.8 L71.4 74.75 73.35 73.5 73.35 72.55 73.35 72.5 Q73.3 71.8 73.7 71.25 L73.75 71.15 Q74.15 70.55 74.8 70.3 L76.0 70.15 76.1 70.15 78.15 70.4 78.2 70.4 78.35 70.25 Q80.1 68.55 82.75 68.65 L82.8 68.65 Q83.75 68.65 84.45 69.35 L84.5 69.45 M84.05 69.85 L84.0 69.8 Q83.45 69.25 82.75 69.25 80.4 69.2 78.8 70.7 78.6 70.75 78.5 70.9 L78.5 71.0 76.0 70.8 75.95 70.75 74.95 70.95 75.05 70.9 Q74.55 71.1 74.25 71.5 L74.25 71.6 Q73.95 72.0 73.95 72.5 L73.95 72.55 73.95 73.5 73.95 73.75 Q73.0 74.85 71.6 75.35 L71.55 75.4 Q70.9 75.65 70.65 76.25 L70.6 76.3 Q70.3 76.95 70.55 77.6 L70.6 77.65 Q70.85 78.3 71.45 78.6 L71.5 78.6 72.8 78.65 Q75.25 77.75 76.75 75.85 L76.9 75.55 77.35 74.45 78.65 74.5 Q79.8 74.7 81.1 73.3 L81.2 73.2 Q81.8 72.75 82.6 72.75 L82.65 72.75 Q83.35 72.75 83.85 72.35 L83.95 72.3 Q84.4 71.8 84.45 71.1 L84.45 71.05 Q84.45 70.35 84.05 69.85" fill="#9999ff" fill-opacity="0.49803922" fill-rule="evenodd" stroke="none"/>
    <path d="M84.05 69.85 Q84.45 70.35 84.45 71.05 L84.45 71.1 Q84.4 71.8 83.95 72.3 L83.85 72.35 Q83.35 72.75 82.65 72.75 L82.6 72.75 Q81.8 72.75 81.2 73.2 L81.1 73.3 Q79.8 74.7 78.65 74.5 L77.35 74.45 76.9 75.55 76.75 75.85 Q75.25 77.75 72.8 78.65 L71.5 78.6 71.45 78.6 Q70.85 78.3 70.6 77.65 L70.55 77.6 Q70.3 76.95 70.6 76.3 L70.65 76.25 Q70.9 75.65 71.55 75.4 L71.6 75.35 Q73.0 74.85 73.95 73.75 L73.95 73.5 73.95 72.55 73.95 72.5 Q73.95 72.0 74.25 71.6 L74.25 71.5 Q74.55 71.1 75.05 70.9 L74.95 70.95 75.95 70.75 76.0 70.8 78.5 71.0 78.5 70.9 Q78.6 70.75 78.8 70.7 80.4 69.2 82.75 69.25 83.45 69.25 84.0 69.8 L84.05 69.85 M83.85 71.05 L83.55 70.25 Q83.2 69.9 82.75 69.9 80.55 69.8 79.1 71.25 79.0 71.25 78.95 71.35 L78.6 71.65 75.9 71.4 75.85 71.4 75.3 71.5 75.25 71.5 Q74.95 71.6 74.8 71.85 L74.75 71.9 74.6 72.5 74.6 72.55 74.6 73.5 74.45 74.1 Q73.45 75.35 71.85 75.95 L71.8 75.95 Q71.35 76.1 71.2 76.55 71.0 76.95 71.15 77.4 L71.15 77.45 Q71.3 77.85 71.75 78.05 L71.75 78.0 72.6 78.1 Q74.85 77.25 76.25 75.45 L76.35 75.3 76.85 73.8 78.65 73.9 78.7 73.9 Q79.6 73.95 80.6 72.9 L80.65 72.9 Q81.45 72.1 82.65 72.15 L83.45 71.85 83.5 71.85 83.85 71.05" fill="#9999ff" fill-opacity="0.7058824" fill-rule="evenodd" stroke="none"/>
    <path d="M72.2 77.0 Q74.15 76.3 75.35 74.75 75.7 74.25 75.7 73.5 L75.7 72.5 78.7 72.75 Q79.2 72.75 79.8 72.1 80.95 70.95 82.7 71.0" fill="none" stroke="#ffffff" stroke-linecap="round" stroke-linejoin="round" stroke-width="1.0"/>
  </g>
</svg>
