<?xml version="1.0" encoding="UTF-8" standalone="no"?>
<svg xmlns:xlink="http://www.w3.org/1999/xlink" height="18.0px" width="27.0px" xmlns="http://www.w3.org/2000/svg">
  <g transform="matrix(1.0, 0.0, 0.0, 1.0, -51.95, -56.0)">
    <path d="M76.8 58.25 L77.1 59.05 76.75 59.85 76.7 59.85 Q76.35 60.15 75.9 60.15 72.9 60.0 71.0 62.0 69.35 63.7 67.95 63.65 L63.1 63.35 63.1 64.0 Q63.05 65.9 62.15 67.15 59.55 70.5 55.35 72.05 L55.35 72.1 54.5 72.0 54.5 72.05 Q54.05 71.85 53.9 71.45 L53.9 71.4 Q53.75 70.95 53.95 70.55 54.1 70.1 54.55 69.95 58.15 68.6 60.35 65.8 60.85 65.1 60.85 64.0 L60.85 62.05 60.85 62.0 61.0 61.4 61.05 61.35 Q61.2 61.1 61.5 61.0 L61.55 61.0 62.1 60.9 62.15 60.9 67.95 61.4 69.4 60.45 Q71.95 57.7 76.0 57.9 76.45 57.9 76.8 58.25" fill="#9999ff" fill-rule="evenodd" stroke="none"/>
    <path d="M75.85 60.75 L75.9 60.75 Q76.55 60.8 77.1 60.35 L77.2 60.3 Q77.65 59.8 77.7 59.1 L77.7 59.05 Q77.7 58.35 77.3 57.85 L77.25 57.8 Q76.75 57.25 76.05 57.25 L76.0 57.25 Q71.7 57.1 68.95 60.0 68.3 60.65 67.9 60.75 L62.25 60.3 62.2 60.25 61.2 60.45 61.3 60.4 60.5 61.0 60.5 61.1 Q60.2 61.5 60.2 62.0 L60.2 62.05 60.2 64.0 Q60.2 64.85 59.85 65.45 L59.9 65.4 Q57.75 68.1 54.35 69.35 L54.3 69.4 Q53.65 69.65 53.4 70.25 L53.35 70.3 Q53.05 70.95 53.3 71.6 L53.35 71.65 Q53.6 72.3 54.2 72.6 L54.25 72.6 55.55 72.65 Q59.95 71.0 62.65 67.55 L62.65 67.5 Q63.7 66.15 63.7 64.05 L67.9 64.25 67.95 64.25 Q69.55 64.4 71.45 62.45 73.2 60.65 75.85 60.75 M75.85 61.4 Q73.45 61.3 71.9 62.85 69.75 65.1 67.9 64.9 L64.3 64.7 Q64.15 66.6 63.15 67.9 60.35 71.55 55.8 73.25 L55.75 73.25 53.95 73.15 54.0 73.2 Q53.1 72.8 52.75 71.9 L52.7 71.8 Q52.35 70.85 52.85 70.0 L52.8 70.05 Q53.15 69.15 54.05 68.8 L54.15 68.8 Q57.35 67.55 59.4 65.0 L59.35 65.05 59.6 64.0 59.6 62.05 59.6 62.0 Q59.55 61.3 59.95 60.75 L60.0 60.65 Q60.4 60.05 61.05 59.8 L62.25 59.65 62.35 59.65 67.85 60.15 68.5 59.55 Q71.45 56.45 76.0 56.65 L76.05 56.65 Q77.0 56.65 77.7 57.35 L77.75 57.45 Q78.35 58.15 78.35 59.05 L78.35 59.15 Q78.3 60.05 77.6 60.75 L77.55 60.8 Q76.8 61.4 75.85 61.4" fill="#9999ff" fill-opacity="0.49803922" fill-rule="evenodd" stroke="none"/>
    <path d="M75.85 60.75 Q73.2 60.65 71.45 62.45 69.55 64.4 67.95 64.25 L67.9 64.25 63.7 64.05 Q63.7 66.15 62.65 67.5 L62.65 67.55 Q59.95 71.0 55.55 72.65 L54.25 72.6 54.2 72.6 Q53.6 72.3 53.35 71.65 L53.3 71.6 Q53.05 70.95 53.35 70.3 L53.4 70.25 Q53.65 69.65 54.3 69.4 L54.35 69.35 Q57.75 68.1 59.9 65.4 L59.85 65.45 Q60.2 64.85 60.2 64.0 L60.2 62.05 60.2 62.0 Q60.2 61.5 60.5 61.1 L60.5 61.0 61.3 60.4 61.2 60.45 62.2 60.25 62.25 60.3 67.9 60.75 Q68.3 60.65 68.95 60.0 71.7 57.1 76.0 57.25 L76.05 57.25 Q76.75 57.25 77.25 57.8 L77.3 57.85 Q77.7 58.35 77.7 59.05 L77.7 59.1 Q77.65 59.8 77.2 60.3 L77.1 60.35 Q76.55 60.8 75.9 60.75 L75.85 60.75 M76.8 58.25 Q76.45 57.9 76.0 57.9 71.95 57.7 69.4 60.45 L67.95 61.4 62.15 60.9 62.1 60.9 61.55 61.0 61.5 61.0 Q61.2 61.1 61.05 61.35 L61.0 61.4 60.85 62.0 60.85 62.05 60.85 64.0 Q60.85 65.1 60.35 65.8 58.15 68.6 54.55 69.95 54.1 70.1 53.95 70.55 53.75 70.95 53.9 71.4 L53.9 71.45 Q54.05 71.85 54.5 72.05 L54.5 72.0 55.35 72.1 55.35 72.05 Q59.55 70.5 62.15 67.15 63.05 65.9 63.1 64.0 L63.1 63.35 67.95 63.65 Q69.35 63.7 71.0 62.0 72.9 60.0 75.9 60.15 76.35 60.15 76.7 59.85 L76.75 59.85 77.1 59.05 76.8 58.25" fill="#9999ff" fill-opacity="0.7058824" fill-rule="evenodd" stroke="none"/>
    <path d="M75.85 61.4 Q76.8 61.4 77.55 60.8 L77.6 60.75 Q78.3 60.05 78.35 59.15 L78.35 59.05 Q78.35 58.15 77.75 57.45 L77.7 57.35 Q77.0 56.65 76.05 56.65 L76.0 56.65 Q71.45 56.45 68.5 59.55 L67.85 60.15 62.35 59.65 62.25 59.65 61.05 59.8 Q60.4 60.05 60.0 60.65 L59.95 60.75 Q59.55 61.3 59.6 62.0 L59.6 62.05 59.6 64.0 59.35 65.05 59.4 65.0 Q57.35 67.55 54.15 68.8 L54.05 68.8 Q53.15 69.15 52.8 70.05 L52.85 70.0 Q52.35 70.85 52.7 71.8 L52.75 71.9 Q53.1 72.8 54.0 73.2 L53.95 73.15 55.75 73.25 55.8 73.25 Q60.35 71.55 63.15 67.9 64.15 66.6 64.3 64.7 L67.9 64.9 Q69.75 65.1 71.9 62.85 73.45 61.3 75.85 61.4 M78.25 57.05 Q78.95 57.9 78.95 59.05 L78.95 59.2 Q78.9 60.35 78.05 61.2 L77.95 61.3 Q77.0 62.05 75.85 62.0 L75.8 62.0 Q73.7 61.9 72.35 63.3 69.95 65.8 67.85 65.5 L64.85 65.4 Q64.6 67.05 63.65 68.25 L63.65 68.3 Q60.75 72.05 56.0 73.85 L55.95 73.85 53.65 73.7 53.75 73.75 Q52.6 73.25 52.2 72.15 L52.15 72.0 Q51.7 70.8 52.25 69.7 52.75 68.65 53.8 68.25 L53.9 68.2 Q56.95 67.05 58.85 64.7 L58.95 64.0 58.95 62.05 58.95 62.0 Q58.95 61.15 59.4 60.4 L59.5 60.3 Q60.0 59.55 60.85 59.25 L62.35 59.05 62.45 59.05 67.85 59.5 68.05 59.15 Q71.15 55.8 76.0 56.0 L76.1 56.0 Q77.3 56.05 78.15 56.9 L78.25 57.05" fill="#9999ff" fill-opacity="0.24705882" fill-rule="evenodd" stroke="none"/>
    <path d="M54.95 71.0 Q58.85 69.55 61.25 66.45 61.95 65.5 61.95 64.0 L61.95 62.0 67.95 62.5 Q68.95 62.5 70.2 61.2 72.45 58.85 75.95 59.0" fill="none" stroke="#ffffff" stroke-linecap="round" stroke-linejoin="round" stroke-width="1.0"/>
  </g>
</svg>
