<?xml version="1.0" encoding="UTF-8" standalone="no"?>
<svg xmlns:xlink="http://www.w3.org/1999/xlink" height="129.65px" width="43.9px" xmlns="http://www.w3.org/2000/svg">
  <g transform="matrix(1.0, 0.0, 0.0, 1.0, 26.25, 268.6)">
    <path d="M3.25 -232.7 L3.25 -232.85 3.25 -233.65 3.75 -231.45 4.7 -227.05 5.1 -225.15 5.15 -224.8 Q5.85 -220.0 5.85 -216.5 5.85 -211.3 5.2 -203.4 4.4 -194.3 4.35 -192.6 L4.25 -200.35 4.1 -209.7 4.15 -216.6 4.2 -223.1 Q4.2 -227.05 3.25 -232.7 M10.3 -177.65 L12.0 -183.4 Q8.85 -167.45 8.85 -162.9 8.85 -160.45 9.4 -157.3 L9.95 -154.55 Q9.95 -153.35 5.25 -148.1 0.95 -143.25 -2.25 -140.55 L-3.3 -142.45 Q-4.2 -144.3 -4.5 -145.85 L-4.35 -145.8 -3.65 -144.0 Q-3.3 -143.25 -2.25 -143.25 0.4 -143.25 4.35 -147.9 8.55 -152.8 8.55 -157.05 L8.25 -159.9 Q7.95 -162.1 7.95 -164.6 7.95 -169.4 10.3 -177.65 M-4.9 -268.05 Q-4.35 -262.35 -4.05 -255.2 L-3.95 -252.25 -3.35 -236.0 -2.5 -224.75 -1.75 -216.6 Q-0.4 -202.0 -0.4 -198.15 -0.4 -185.3 -0.85 -173.85 -1.35 -160.2 -2.25 -156.75 L-2.7 -156.8 -7.0 -168.1 Q-10.85 -179.0 -10.85 -182.75 -10.85 -183.8 -8.55 -191.45 -6.3 -199.1 -6.3 -208.25 -6.3 -211.8 -7.9 -222.05 L-8.3 -224.75 -10.0 -235.05 -10.0 -232.95 -10.05 -233.4 -10.25 -236.65 -10.45 -238.0 -10.25 -237.3 Q-10.4 -244.2 -8.95 -252.25 -7.35 -261.1 -7.2 -268.2 L-4.9 -268.05 M-17.1 -233.95 L-15.85 -226.5 -15.55 -224.75 Q-14.75 -219.65 -13.85 -211.95 L-14.8 -203.4 Q-15.25 -207.2 -16.25 -212.85 -18.3 -224.55 -19.0 -235.0 L-19.0 -247.55 -17.1 -233.95 M-22.95 -179.95 L-22.35 -181.65 -22.65 -179.6 -23.25 -175.75 Q-23.25 -172.3 -21.7 -169.5 L-18.25 -164.65 Q-13.25 -157.6 -13.1 -145.8 L-14.65 -152.1 Q-16.15 -157.85 -17.55 -160.9 -19.0 -163.9 -22.0 -167.75 -25.05 -171.6 -25.15 -172.45 -25.25 -173.3 -22.95 -179.95" fill="#f7fdff" fill-rule="evenodd" stroke="none"/>
    <path d="M3.25 -232.7 Q4.2 -227.05 4.2 -223.1 L4.15 -216.6 4.1 -209.7 4.25 -200.35 4.35 -192.6 Q4.4 -194.3 5.2 -203.4 5.85 -211.3 5.85 -216.5 5.85 -220.0 5.15 -224.8 L5.1 -225.15 5.2 -224.75 Q6.75 -216.95 6.75 -212.0 6.75 -208.4 6.1 -205.65 5.4 -202.95 5.4 -197.0 L5.5 -188.2 Q5.5 -181.95 4.05 -180.5 L3.35 -224.75 3.25 -232.7 M10.3 -177.65 Q7.95 -169.4 7.95 -164.6 7.95 -162.1 8.25 -159.9 L8.55 -157.05 Q8.55 -152.8 4.35 -147.9 0.4 -143.25 -2.25 -143.25 -3.3 -143.25 -3.65 -144.0 L-4.35 -145.8 -4.5 -145.85 Q-4.2 -144.3 -3.3 -142.45 L-2.25 -140.55 Q0.95 -143.25 5.25 -148.1 9.95 -153.35 9.95 -154.55 L9.4 -157.3 Q8.85 -160.45 8.85 -162.9 8.85 -167.45 12.0 -183.4 L10.3 -177.65 M-4.9 -268.05 L-4.1 -268.0 -1.45 -267.8 Q-1.0 -263.55 -0.45 -252.25 L0.65 -224.75 1.75 -190.95 Q-0.8 -158.05 -0.8 -151.05 L-1.75 -151.05 Q-4.9 -159.5 -10.45 -169.95 -14.45 -177.4 -14.45 -180.0 -14.45 -182.35 -11.7 -191.4 -9.0 -200.5 -9.0 -204.0 L-11.25 -222.5 -11.55 -224.75 -13.5 -240.55 -12.65 -252.25 -12.15 -258.8 -11.45 -268.6 -7.2 -268.2 Q-7.35 -261.1 -8.95 -252.25 -10.4 -244.2 -10.25 -237.3 L-10.45 -238.0 -10.25 -236.65 -10.05 -233.4 -10.0 -232.95 -10.0 -235.05 -8.3 -224.75 -7.9 -222.05 Q-6.3 -211.8 -6.3 -208.25 -6.3 -199.1 -8.55 -191.45 -10.85 -183.8 -10.85 -182.75 -10.85 -179.0 -7.0 -168.1 L-2.7 -156.8 -2.25 -156.75 Q-1.35 -160.2 -0.85 -173.85 -0.4 -185.3 -0.4 -198.15 -0.4 -202.0 -1.75 -216.6 L-2.5 -224.75 -3.35 -236.0 -3.95 -252.25 -4.05 -255.2 Q-4.35 -262.35 -4.9 -268.05 M11.85 -185.6 L12.7 -187.9 17.65 -202.05 Q15.55 -194.1 13.65 -185.15 9.9 -167.45 9.9 -159.0 9.9 -157.9 10.75 -155.9 L11.75 -153.95 3.65 -145.6 -1.45 -140.0 -2.25 -138.95 -2.85 -140.0 -5.45 -144.3 -7.6 -148.05 -5.85 -147.05 -1.9 -144.2 -2.25 -144.0 -1.8 -144.0 -1.9 -144.2 Q6.05 -149.05 7.0 -156.15 7.25 -158.15 7.05 -162.75 6.9 -167.35 7.2 -169.95 7.6 -173.65 11.85 -185.6 M-20.05 -187.0 L-20.0 -186.55 -22.65 -176.75 Q-22.65 -173.6 -19.75 -168.65 L-14.45 -161.0 Q-13.9 -160.25 -12.85 -151.0 -11.9 -142.25 -11.4 -140.0 L-11.3 -139.5 -11.3 -139.05 -11.65 -140.0 -14.75 -149.9 Q-17.35 -158.7 -18.1 -160.0 -18.85 -161.4 -23.5 -167.0 -26.25 -170.4 -26.25 -174.25 -26.25 -175.0 -22.85 -182.2 L-22.2 -183.8 Q-20.85 -187.25 -20.15 -190.15 L-20.05 -187.0 M-22.95 -179.95 Q-25.25 -173.3 -25.15 -172.45 -25.05 -171.6 -22.0 -167.75 -19.0 -163.9 -17.55 -160.9 -16.15 -157.85 -14.65 -152.1 L-13.1 -145.8 Q-13.25 -157.6 -18.25 -164.65 L-21.7 -169.5 Q-23.25 -172.3 -23.25 -175.75 L-22.65 -179.6 -22.35 -181.65 -22.95 -179.95" fill="#c0edfc" fill-rule="evenodd" stroke="none"/>
  </g>
</svg>
