<?xml version="1.0" encoding="UTF-8" standalone="no"?>
<svg xmlns:xlink="http://www.w3.org/1999/xlink" height="203.1px" width="47.15px" xmlns="http://www.w3.org/2000/svg">
  <g transform="matrix(1.0, 0.0, 0.0, 1.0, 26.3, 286.05)">
    <path d="M-4.15 -283.15 L-4.15 -276.4 Q-4.15 -273.4 -4.3 -270.75 L-4.5 -268.55 Q-4.5 -251.25 -3.75 -237.4 -3.05 -224.15 -1.9 -217.8 -1.35 -217.8 0.15 -218.5 L1.8 -219.05 1.8 -215.8 1.1 -209.6 -0.3 -197.15 -1.0 -187.55 -2.85 -177.85 Q-4.75 -168.25 -4.75 -163.8 -4.75 -160.65 -3.65 -160.1 -2.6 -159.55 -2.75 -154.8 L-2.75 -146.65 Q-2.7 -140.95 -2.35 -138.8 -1.3 -139.0 -0.55 -139.95 L0.55 -141.6 Q1.1 -140.9 1.1 -140.3 L0.75 -138.2 Q0.35 -136.45 0.35 -134.0 L0.4 -131.6 1.8 -125.85 Q3.65 -123.0 5.2 -118.85 6.75 -114.75 7.0 -113.1 7.2 -111.5 7.05 -107.6 6.9 -103.75 3.65 -100.6 1.4 -98.4 -1.4 -98.4 L-2.45 -98.55 -2.95 -99.0 -4.8 -99.2 Q-7.5 -99.65 -8.35 -100.8 -9.55 -102.4 -10.4 -104.95 -11.3 -107.6 -11.3 -109.8 -11.3 -112.45 -10.45 -116.75 -9.3 -122.95 -8.9 -126.0 L-8.55 -123.6 -8.35 -121.4 -7.65 -126.6 Q-7.1 -131.6 -7.1 -132.9 -7.1 -136.9 -9.25 -150.15 L-11.65 -164.6 Q-12.45 -168.3 -11.65 -168.0 L-10.8 -167.0 -10.0 -165.8 -10.0 -165.6 Q-9.45 -166.55 -8.95 -168.6 -8.55 -170.7 -8.7 -175.8 L-8.5 -186.4 -8.9 -206.3 Q-8.9 -219.65 -8.35 -234.4 L-8.35 -234.8 -8.75 -255.1 -8.55 -266.0 -8.65 -277.2 -5.1 -281.95 -4.15 -283.15" fill="#f7fdff" fill-rule="evenodd" stroke="none"/>
    <path d="M-4.15 -283.15 L-1.75 -286.05 0.0 -220.0 Q0.95 -240.3 2.75 -224.1 4.5 -207.9 0.0 -170.0 -1.25 -131.35 3.55 -149.95 6.5 -151.85 3.65 -142.85 0.8 -133.9 4.0 -130.0 3.3 -130.7 5.8 -126.25 10.8 -117.3 10.8 -104.95 10.8 -100.6 8.8 -97.9 6.8 -95.25 -2.3 -95.0 L-4.5 -95.45 Q-6.45 -95.65 -9.1 -97.6 -11.75 -99.5 -12.6 -101.25 -13.5 -103.05 -14.15 -106.35 -14.85 -109.7 -12.6 -120.55 -10.4 -131.35 -10.15 -134.85 -9.95 -138.35 -13.35 -158.65 -16.8 -179.0 -16.75 -182.6 -16.7 -186.2 -16.35 -186.7 -16.05 -187.2 -13.1 -173.35 -11.35 -168.9 -11.95 -200.1 L-12.55 -235.0 -12.45 -245.85 -12.55 -256.0 -13.25 -271.05 -9.85 -275.6 -8.65 -277.2 -8.55 -266.0 -8.75 -255.1 -8.35 -234.8 -8.35 -234.4 Q-8.9 -219.65 -8.9 -206.3 L-8.5 -186.4 -8.7 -175.8 Q-8.55 -170.7 -8.95 -168.6 -9.45 -166.55 -10.0 -165.6 L-10.0 -165.8 -10.8 -167.0 -11.65 -168.0 Q-12.45 -168.3 -11.65 -164.6 L-9.25 -150.15 Q-7.1 -136.9 -7.1 -132.9 -7.1 -131.6 -7.65 -126.6 L-8.35 -121.4 -8.55 -123.6 -8.9 -126.0 Q-9.3 -122.95 -10.45 -116.75 -11.3 -112.45 -11.3 -109.8 -11.3 -107.6 -10.4 -104.95 -9.55 -102.4 -8.35 -100.8 -7.5 -99.65 -4.8 -99.2 L-2.95 -99.0 -2.45 -98.55 -1.4 -98.4 Q1.4 -98.4 3.65 -100.6 6.9 -103.75 7.05 -107.6 7.2 -111.5 7.0 -113.1 6.75 -114.75 5.2 -118.85 3.65 -123.0 1.8 -125.85 L0.4 -131.6 0.35 -134.0 Q0.35 -136.45 0.75 -138.2 L1.1 -140.3 Q1.1 -140.9 0.55 -141.6 L-0.55 -139.95 Q-1.3 -139.0 -2.35 -138.8 -2.7 -140.95 -2.75 -146.65 L-2.75 -154.8 Q-2.6 -159.55 -3.65 -160.1 -4.75 -160.65 -4.75 -163.8 -4.75 -168.25 -2.85 -177.85 L-1.0 -187.55 -0.3 -197.15 1.1 -209.6 1.8 -215.8 1.8 -219.05 0.15 -218.5 Q-1.35 -217.8 -1.9 -217.8 -3.05 -224.15 -3.75 -237.4 -4.5 -251.25 -4.5 -268.55 L-4.3 -270.75 Q-4.15 -273.4 -4.15 -276.4 L-4.15 -283.15 M6.85 -160.0 L6.5 -179.4 Q6.4 -189.3 5.9 -201.75 6.75 -196.0 7.45 -186.3 L8.8 -166.6 Q9.45 -156.55 8.65 -154.65 7.8 -152.75 6.85 -160.0 M-19.9 -244.7 L-19.2 -227.65 Q-18.55 -213.05 -18.55 -203.55 L-18.85 -199.1 -19.2 -195.5 Q-19.8 -193.1 -20.4 -195.5 L-20.5 -196.3 -19.9 -200.25 Q-19.0 -205.7 -19.0 -207.75 -19.0 -211.25 -19.65 -218.75 -20.35 -226.25 -20.35 -231.05 L-20.1 -237.05 -19.9 -244.7 M6.75 -138.75 Q6.75 -141.2 6.9 -142.55 9.55 -136.35 11.6 -133.55 14.25 -130.05 20.4 -126.45 18.8 -123.45 18.05 -114.7 L17.65 -106.45 Q17.65 -105.65 19.25 -104.2 L20.85 -102.45 18.0 -95.25 Q15.05 -88.1 14.45 -87.45 13.7 -86.6 9.0 -84.75 4.35 -82.95 3.15 -82.95 L1.1 -85.7 -2.15 -89.65 2.9 -87.45 Q3.7 -86.95 4.7 -86.95 5.45 -86.95 10.35 -91.8 L15.4 -96.95 14.0 -96.95 16.3 -121.5 Q16.3 -122.05 13.7 -125.25 L9.05 -130.5 Q7.45 -132.1 7.05 -133.75 6.75 -134.95 6.75 -138.75 M-21.3 -157.95 L-21.3 -176.45 -19.25 -169.05 Q-17.2 -162.15 -17.2 -161.2 -17.2 -160.25 -19.0 -162.2 -20.85 -164.15 -19.7 -159.6 L-16.3 -147.7 Q-14.05 -140.35 -14.05 -130.5 -14.05 -126.75 -16.45 -120.75 -16.75 -119.95 -23.55 -113.0 -17.0 -111.6 -16.15 -109.25 -15.85 -108.3 -15.85 -102.75 -15.85 -98.45 -11.3 -92.8 L-10.1 -91.45 -10.95 -90.8 Q-15.35 -94.05 -16.4 -95.65 -18.95 -99.6 -17.2 -106.95 -18.3 -106.95 -26.3 -110.45 -26.0 -111.5 -22.1 -117.15 -18.3 -122.65 -18.1 -123.95 L-17.3 -128.9 Q-16.75 -132.65 -16.75 -135.2 -16.75 -137.15 -17.75 -143.6 -18.9 -150.95 -19.95 -153.45 L-20.75 -155.75 -21.3 -157.95" fill="#c0edfc" fill-rule="evenodd" stroke="none"/>
  </g>
</svg>
