<?xml version="1.0" encoding="UTF-8" standalone="no"?>
<svg xmlns:xlink="http://www.w3.org/1999/xlink" height="183.3px" width="66.15px" xmlns="http://www.w3.org/2000/svg">
  <g transform="matrix(1.0, 0.0, 0.0, 1.0, 38.95, 264.3)">
    <path d="M-4.6 -264.2 L-4.75 -262.85 Q-5.6 -254.6 -5.6 -246.5 -5.6 -230.2 -0.55 -218.5 L2.9 -210.9 Q4.5 -207.0 4.5 -203.6 4.5 -201.05 3.0 -195.7 1.5 -190.3 1.5 -188.1 1.5 -185.1 4.5 -176.15 L7.5 -167.7 7.5 -166.65 3.7 -175.7 Q0.0 -184.5 0.0 -187.9 0.0 -189.2 3.75 -200.3 3.75 -205.35 0.95 -212.4 -2.1 -220.15 -5.6 -221.5 -3.75 -215.0 -3.75 -210.4 -3.75 -207.3 -4.5 -201.1 -5.25 -194.9 -5.25 -191.85 -5.25 -185.25 -3.55 -178.9 -2.0 -172.9 0.5 -169.5 L0.75 -169.35 Q0.95 -169.15 1.15 -169.15 L1.15 -168.7 0.5 -169.5 0.4 -169.55 -1.2 -166.65 -1.4 -166.2 Q-5.1 -158.75 -6.35 -149.35 L-6.75 -149.35 -6.75 -151.4 -6.25 -156.45 -5.6 -160.45 -4.0 -165.35 Q-2.6 -169.5 -2.6 -171.0 L-4.45 -178.6 Q-6.35 -186.65 -6.35 -190.0 L-5.6 -197.85 Q-4.85 -204.15 -4.85 -205.25 -4.85 -209.95 -6.0 -212.95 L-8.4 -217.2 Q-11.4 -222.2 -10.1 -232.8 L-10.45 -232.25 -13.5 -226.7 Q-15.7 -222.35 -15.7 -220.9 -15.7 -217.3 -13.8 -211.45 -11.95 -205.6 -11.95 -205.05 -11.95 -201.4 -13.8 -195.25 -15.7 -189.1 -15.7 -186.45 -15.7 -182.95 -13.25 -172.05 -10.85 -161.15 -10.85 -157.6 -10.85 -153.85 -12.5 -151.85 -14.2 -149.9 -14.2 -149.35 -14.2 -145.85 -11.65 -135.65 -8.95 -124.7 -7.1 -123.35 L-3.8 -126.55 Q-1.9 -128.75 -1.5 -131.6 L0.0 -137.6 Q1.15 -141.95 1.15 -143.55 L1.5 -143.55 1.5 -141.5 1.0 -137.4 0.75 -134.1 Q0.75 -132.45 1.15 -130.75 1.75 -128.3 2.8 -128.3 4.75 -128.3 10.85 -131.2 10.9 -130.35 10.15 -128.75 9.35 -127.1 9.35 -125.8 9.35 -124.05 11.85 -120.95 L15.0 -117.15 Q14.2 -116.75 12.8 -114.35 11.25 -111.75 11.25 -110.35 11.25 -108.1 12.15 -106.3 13.05 -104.6 16.1 -100.65 12.7 -99.9 11.0 -99.2 7.85 -97.95 7.85 -95.3 L8.25 -93.3 8.6 -91.6 8.6 -91.2 8.6 -91.6 3.4 -95.2 Q0.2 -96.95 -2.45 -96.95 -5.85 -96.95 -7.35 -95.9 -8.95 -94.85 -10.8 -91.4 L-10.85 -90.75 -11.2 -90.75 -10.8 -91.4 -10.45 -96.55 Q-10.45 -98.85 -11.2 -100.25 -12.05 -101.9 -13.65 -101.9 -18.8 -101.0 -19.45 -100.25 L-19.45 -100.65 -17.6 -104.8 Q-17.6 -105.65 -19.65 -106.85 -21.2 -107.8 -22.4 -108.0 -21.65 -108.2 -20.65 -109.4 -19.1 -111.3 -19.1 -113.05 -19.1 -114.2 -20.6 -116.2 L-22.45 -118.4 Q-21.25 -118.45 -19.2 -120.55 -17.2 -122.55 -17.2 -123.35 -17.2 -124.45 -18.75 -127.45 -20.25 -130.4 -21.35 -131.6 L-20.4 -131.6 -17.6 -130.95 -14.05 -130.35 -12.9 -130.55 -11.95 -130.75 Q-16.85 -144.65 -16.85 -148.5 -16.85 -149.25 -15.15 -153.45 -13.45 -157.65 -13.45 -158.45 -13.45 -159.1 -16.25 -169.75 L-19.1 -181.1 -16.65 -190.65 Q-14.2 -200.4 -14.2 -203.2 -14.2 -204.2 -15.9 -210.45 -17.6 -216.7 -17.6 -220.9 -17.6 -223.55 -14.4 -229.35 -11.2 -235.2 -11.2 -237.65 -11.2 -240.6 -11.95 -250.5 -12.55 -257.85 -12.65 -264.3 L-8.2 -264.25 -7.75 -264.25 -4.6 -264.2 M27.05 -108.65 L26.55 -109.5 27.2 -109.5 27.05 -108.65" fill="#f7fdff" fill-rule="evenodd" stroke="none"/>
    <path d="M-4.6 -264.2 L-2.25 -264.15 -2.25 -263.8 Q-2.25 -262.0 -3.15 -252.25 L-4.05 -241.05 Q-4.05 -238.65 0.45 -222.7 4.95 -206.8 4.95 -206.0 4.95 -200.15 3.6 -196.4 2.25 -192.6 2.25 -188.75 L3.05 -185.15 4.95 -178.0 Q7.1 -170.9 8.75 -167.2 9.5 -165.5 9.5 -163.8 9.5 -161.4 5.9 -153.85 2.25 -146.3 2.25 -142.3 2.25 -139.7 2.8 -136.9 3.45 -133.7 4.5 -132.0 9.8 -135.3 12.15 -139.1 L13.05 -140.55 14.05 -123.0 Q14.05 -121.5 23.3 -120.25 20.1 -120.6 21.75 -120.25 L21.75 -119.0 Q19.05 -117.7 17.2 -112.25 15.35 -106.8 16.3 -104.5 L24.55 -97.8 Q15.65 -97.65 9.95 -93.5 L9.95 -89.0 11.55 -82.65 Q-3.45 -95.3 -8.45 -89.35 -14.0 -82.85 -14.45 -81.0 L-14.45 -81.5 Q-13.75 -85.25 -13.1 -92.0 -12.45 -98.7 -14.0 -97.0 L-14.0 -97.5 -14.05 -96.95 -19.8 -93.15 -19.95 -93.0 Q-19.65 -102.6 -27.35 -100.8 -25.35 -101.9 -22.2 -104.5 -23.15 -104.5 -30.1 -106.7 L-38.95 -109.5 -38.95 -110.0 -34.05 -110.5 -29.45 -111.0 Q-22.5 -111.6 -23.45 -113.6 -24.45 -115.65 -30.0 -120.0 -25.55 -119.1 -22.95 -120.4 -16.9 -123.55 -30.0 -140.0 -14.0 -131.1 -14.0 -134.25 -14.0 -135.4 -16.25 -140.45 -18.55 -145.5 -18.55 -148.05 L-16.95 -154.7 -15.35 -161.0 Q-15.35 -161.4 -18.5 -171.15 L-21.7 -181.0 -18.5 -188.6 Q-15.35 -196.3 -15.35 -199.25 -15.35 -200.25 -15.95 -202.75 L-17.2 -208.0 -20.8 -220.1 Q-20.8 -221.05 -17.4 -228.75 -14.0 -236.5 -14.0 -238.3 L-14.9 -250.05 Q-15.5 -257.5 -15.7 -264.25 L-12.65 -264.3 Q-12.55 -257.85 -11.95 -250.5 -11.2 -240.6 -11.2 -237.65 -11.2 -235.2 -14.4 -229.35 -17.6 -223.55 -17.6 -220.9 -17.6 -216.7 -15.9 -210.45 -14.2 -204.2 -14.2 -203.2 -14.2 -200.4 -16.65 -190.65 L-19.1 -181.1 -16.25 -169.75 Q-13.45 -159.1 -13.45 -158.45 -13.45 -157.65 -15.15 -153.45 -16.85 -149.25 -16.85 -148.5 -16.85 -144.65 -11.95 -130.75 L-12.9 -130.55 -14.05 -130.35 -17.6 -130.95 -20.4 -131.6 -21.35 -131.6 Q-20.25 -130.4 -18.75 -127.45 -17.2 -124.45 -17.2 -123.35 -17.2 -122.55 -19.2 -120.55 -21.25 -118.45 -22.45 -118.4 L-20.6 -116.2 Q-19.1 -114.2 -19.1 -113.05 -19.1 -111.3 -20.65 -109.4 -21.65 -108.2 -22.4 -108.0 -21.2 -107.8 -19.65 -106.85 -17.6 -105.65 -17.6 -104.8 L-19.45 -100.65 -19.45 -100.25 Q-18.8 -101.0 -13.65 -101.9 -12.05 -101.9 -11.2 -100.25 -10.45 -98.85 -10.45 -96.55 L-10.8 -91.4 -11.2 -90.75 -10.85 -90.75 -10.8 -91.4 Q-8.95 -94.85 -7.35 -95.9 -5.85 -96.95 -2.45 -96.95 0.2 -96.95 3.4 -95.2 L8.6 -91.6 8.6 -91.2 8.6 -91.6 8.25 -93.3 7.85 -95.3 Q7.85 -97.95 11.0 -99.2 12.7 -99.9 16.1 -100.65 13.05 -104.6 12.15 -106.3 11.25 -108.1 11.25 -110.35 11.25 -111.75 12.8 -114.35 14.2 -116.75 15.0 -117.15 L11.85 -120.95 Q9.35 -124.05 9.35 -125.8 9.35 -127.1 10.15 -128.75 10.9 -130.35 10.85 -131.2 4.75 -128.3 2.8 -128.3 1.75 -128.3 1.15 -130.75 0.75 -132.45 0.75 -134.1 L1.0 -137.4 1.5 -141.5 1.5 -143.55 1.15 -143.55 Q1.15 -141.95 0.0 -137.6 L-1.5 -131.6 Q-1.9 -128.75 -3.8 -126.55 L-7.1 -123.35 Q-8.95 -124.7 -11.65 -135.65 -14.2 -145.85 -14.2 -149.35 -14.2 -149.9 -12.5 -151.85 -10.85 -153.85 -10.85 -157.6 -10.85 -161.15 -13.25 -172.05 -15.7 -182.95 -15.7 -186.45 -15.7 -189.1 -13.8 -195.25 -11.95 -201.4 -11.95 -205.05 -11.95 -205.6 -13.8 -211.45 -15.7 -217.3 -15.7 -220.9 -15.7 -222.35 -13.5 -226.7 L-10.45 -232.25 -10.1 -232.8 Q-11.4 -222.2 -8.4 -217.2 L-6.0 -212.95 Q-4.85 -209.95 -4.85 -205.25 -4.85 -204.15 -5.6 -197.85 L-6.35 -190.0 Q-6.35 -186.65 -4.45 -178.6 L-2.6 -171.0 Q-2.6 -169.5 -4.0 -165.35 L-5.6 -160.45 -6.25 -156.45 -6.75 -151.4 -6.75 -149.35 -6.35 -149.35 Q-5.1 -158.75 -1.4 -166.2 L-1.45 -166.0 Q-1.1 -164.2 -1.1 -163.0 -1.1 -157.95 -2.7 -153.7 -4.35 -149.45 -4.35 -146.4 L-4.3 -141.55 -3.3 -137.2 Q-2.2 -140.55 -1.75 -149.3 -0.6 -156.25 4.7 -155.6 4.7 -158.2 4.1 -162.45 L3.8 -163.1 3.45 -163.9 Q2.0 -167.2 0.7 -167.2 -0.75 -167.2 -1.2 -166.65 L0.4 -169.55 0.5 -169.5 1.15 -168.7 1.15 -169.15 Q0.95 -169.15 0.75 -169.35 L0.5 -169.5 Q-2.0 -172.9 -3.55 -178.9 -5.25 -185.25 -5.25 -191.85 -5.25 -194.9 -4.5 -201.1 -3.75 -207.3 -3.75 -210.4 -3.75 -215.0 -5.6 -221.5 -2.1 -220.15 0.95 -212.4 3.75 -205.35 3.75 -200.3 0.0 -189.2 0.0 -187.9 0.0 -184.5 3.7 -175.7 L7.5 -166.65 7.5 -167.7 4.5 -176.15 Q1.5 -185.1 1.5 -188.1 1.5 -190.3 3.0 -195.7 4.5 -201.05 4.5 -203.6 4.5 -207.0 2.9 -210.9 L-0.55 -218.5 Q-5.6 -230.2 -5.6 -246.5 -5.6 -254.6 -4.75 -262.85 L-4.6 -264.2 M5.8 -166.8 L6.15 -166.8 Q4.2 -168.25 0.85 -177.4 -2.2 -185.85 -2.2 -187.8 -2.2 -189.0 -0.35 -196.35 1.45 -203.75 1.45 -205.6 1.45 -206.75 -3.95 -218.3 L-2.15 -210.15 -0.75 -203.4 -2.75 -198.0 Q-4.75 -193.05 -4.75 -192.6 -4.75 -185.9 -3.65 -182.1 -2.9 -179.5 -0.95 -176.65 2.7 -171.3 4.65 -164.5 L6.5 -165.6 Q5.8 -166.4 5.8 -166.8 M-14.2 -213.2 Q-14.2 -211.8 -12.35 -209.0 -10.55 -206.15 -10.55 -205.4 L-11.8 -197.6 Q-13.1 -190.5 -13.1 -182.6 L-10.9 -173.6 Q-8.75 -164.4 -8.75 -154.4 L-8.35 -151.55 Q-8.0 -149.1 -8.0 -148.0 L-7.65 -148.0 -6.6 -163.0 -5.8 -174.4 Q-8.75 -184.4 -8.75 -185.4 L-7.3 -200.2 Q-7.3 -204.0 -8.4 -208.9 -10.0 -215.8 -12.7 -216.4 L-11.85 -227.15 -13.35 -219.2 -14.2 -213.2 M-12.0 -144.4 L-12.0 -144.0 -11.0 -138.35 -9.65 -133.05 -7.65 -125.6 Q-7.65 -126.9 -6.55 -129.9 -5.45 -132.95 -5.45 -133.8 L-8.3 -138.5 -12.0 -144.4" fill="#c0edfc" fill-rule="evenodd" stroke="none"/>
  </g>
</svg>
