<?xml version="1.0" encoding="UTF-8" standalone="no"?>
<svg xmlns:xlink="http://www.w3.org/1999/xlink" height="54.2px" width="54.0px" xmlns="http://www.w3.org/2000/svg">
  <g transform="matrix(1.0, 0.0, 0.0, 1.0, 0.0, 0.0)">
    <path d="M41.95 7.85 Q42.55 10.1 44.5 11.25 46.45 12.35 48.65 11.85 50.0 12.45 50.65 13.55 51.25 14.7 51.05 16.35 50.3 16.95 49.75 17.9 L49.6 18.15 Q48.65 20.05 49.2 22.15 49.85 24.4 51.8 25.55 L53.4 26.2 Q54.4 27.7 53.8 28.65 L53.15 29.6 Q52.0 29.95 51.05 30.6 L49.75 32.25 49.6 32.5 Q48.65 34.35 49.2 36.45 49.6 37.9 50.55 38.9 50.75 39.8 50.25 40.65 L49.15 41.75 48.45 42.05 45.9 42.1 45.75 42.15 Q44.65 42.4 43.7 43.1 42.95 43.75 42.4 44.7 L42.25 44.95 Q41.3 46.75 41.8 48.75 L41.3 49.95 Q40.75 51.1 39.75 50.9 L38.6 50.75 38.55 50.7 Q38.1 50.25 37.5 49.9 L35.95 49.35 Q34.75 49.05 33.4 49.35 L33.3 49.4 Q32.1 49.7 31.2 50.4 30.4 51.0 29.85 51.95 L29.7 52.25 29.3 53.3 Q27.7 54.6 26.75 54.0 L25.6 53.3 25.5 53.15 Q25.1 51.6 23.95 50.55 L22.9 49.75 21.35 49.1 18.75 49.15 18.65 49.2 Q17.5 49.5 16.55 50.2 L15.85 50.95 15.1 50.75 Q14.5 50.75 13.75 50.3 12.9 49.85 12.35 48.9 L12.65 46.95 12.45 45.65 Q12.05 44.05 10.9 43.0 L9.85 42.2 Q9.15 41.8 8.3 41.6 L5.75 41.65 5.6 41.7 5.1 41.85 Q3.3 40.85 3.3 38.7 L4.45 37.3 4.9 36.35 5.15 34.35 5.0 33.05 Q4.55 31.5 3.45 30.45 3.0 30.0 2.35 29.75 L1.15 29.3 Q0.55 29.2 0.1 28.1 -0.3 27.0 0.6 25.4 L0.9 25.3 1.55 25.15 3.15 24.1 4.3 22.75 4.75 21.8 5.05 19.8 4.85 18.5 Q4.45 16.95 3.3 15.9 L3.2 15.15 Q3.15 14.55 3.6 13.55 4.1 12.55 5.2 12.1 L5.9 12.2 8.25 12.15 8.55 12.05 9.2 11.9 10.8 10.85 11.95 9.5 12.4 8.55 12.7 6.55 12.5 5.25 12.4 4.95 Q13.35 3.1 14.2 3.25 L15.15 3.45 15.35 3.65 16.65 4.6 17.65 5.1 18.25 5.25 Q19.35 5.5 20.65 5.25 L20.9 5.2 21.55 4.95 23.2 3.95 24.3 2.55 24.75 1.6 24.95 0.7 24.95 0.65 Q26.6 -0.6 28.5 0.65 L28.75 1.25 Q29.0 1.95 29.4 2.5 L29.85 3.0 31.1 3.95 32.1 4.45 32.75 4.6 Q33.85 4.85 35.1 4.6 L35.4 4.55 36.05 4.3 37.5 3.4 37.65 3.3 37.9 3.05 Q39.55 3.0 40.4 3.7 L41.85 5.25 Q41.6 6.5 41.95 7.85 M42.55 34.3 Q42.8 35.15 42.4 35.85 L41.1 36.8 Q40.35 36.95 39.65 36.55 38.9 36.1 38.65 35.35 38.45 34.55 38.9 33.85 39.3 33.15 40.1 32.85 40.9 32.65 41.65 33.1 42.35 33.5 42.55 34.3 M46.5 21.8 Q44.35 13.7 37.1 9.55 29.85 5.35 21.8 7.55 13.75 9.7 9.55 16.9 5.4 24.15 7.55 32.2 9.7 40.25 16.95 44.45 24.2 48.6 32.25 46.45 40.3 44.3 44.45 37.05 48.65 29.85 46.5 21.8 M21.35 16.95 Q22.6 16.3 24.1 15.9 28.65 14.65 32.75 17.05 36.8 19.35 38.1 23.9 L38.1 24.0 Q39.35 28.65 36.95 32.75 34.6 36.9 29.95 38.1 L29.85 38.1 27.95 38.4 Q24.45 38.85 21.25 37.0 18.0 35.1 16.6 31.85 16.2 31.0 15.95 30.0 14.95 26.35 16.2 22.95 L17.05 21.25 Q18.7 18.45 21.35 16.95 M32.95 12.35 Q33.35 11.65 34.15 11.45 L35.7 11.65 Q36.4 12.05 36.65 12.85 36.8 13.65 36.4 14.35 35.95 15.1 35.2 15.3 L33.7 15.1 Q33.0 14.7 32.7 13.9 32.5 13.1 32.95 12.35 M24.35 18.7 Q21.15 19.75 19.45 22.65 18.95 23.55 18.7 24.4 17.9 26.75 18.6 29.2 19.55 32.65 22.65 34.45 25.75 36.25 29.25 35.35 31.0 34.9 32.3 33.9 33.6 32.85 34.45 31.3 35.35 29.8 35.6 28.2 35.85 26.5 35.4 24.75 34.4 21.3 31.3 19.5 28.2 17.7 24.75 18.6 L24.35 18.7 M19.6 42.4 L18.05 42.2 Q17.35 41.8 17.1 41.0 16.9 40.15 17.3 39.5 17.7 38.75 18.5 38.55 L20.05 38.75 Q20.75 39.15 21.0 39.95 21.15 40.75 20.75 41.5 20.35 42.15 19.6 42.4 M13.05 17.25 L14.6 17.45 Q15.3 17.9 15.5 18.65 15.7 19.5 15.3 20.2 L14.05 21.15 12.6 20.9 Q11.9 20.5 11.6 19.75 11.4 18.9 11.85 18.2 12.25 17.5 13.05 17.25" fill="#4ce8f7" fill-rule="evenodd" stroke="none"/>
  </g>
</svg>
