<?xml version="1.0" encoding="UTF-8" standalone="no"?>
<svg xmlns:xlink="http://www.w3.org/1999/xlink" height="277.9px" width="44.25px" xmlns="http://www.w3.org/2000/svg">
  <g transform="matrix(1.0, 0.0, 0.0, 1.0, 26.2, 260.0)">
    <path d="M-10.45 -257.85 L-3.1 -259.35 -5.5 -237.1 -7.5 -215.9 Q-5.55 -212.35 -3.55 -207.75 0.35 -198.55 0.35 -192.8 L-4.5 -180.6 Q-9.35 -168.3 -9.35 -165.2 L-8.5 -157.35 -7.5 -150.15 -7.5 -149.7 Q-7.0 -162.4 -6.55 -164.9 -5.45 -171.45 -1.25 -177.6 L-1.15 -178.15 -1.15 -177.75 -1.25 -177.6 -2.75 -167.8 Q-3.75 -160.2 -3.75 -157.35 -3.75 -149.15 -2.1 -134.3 L-0.4 -118.35 Q-0.25 -112.55 4.5 -108.7 10.4 -103.85 12.35 -98.6 L12.35 -96.5 Q10.15 -97.55 7.85 -98.95 6.15 -99.8 3.9 -99.8 2.25 -99.8 2.25 -97.15 L2.65 -93.85 3.0 -90.55 2.95 -88.2 1.6 -87.0 2.6 -78.75 Q2.6 -74.0 -1.5 -65.25 -5.65 -56.5 -5.65 -53.6 L-1.9 -44.75 Q2.05 -35.35 3.0 -32.15 5.65 -23.05 9.45 -15.9 12.35 -10.45 12.35 -9.1 12.35 -4.65 11.35 0.4 L9.7 9.1 Q9.45 10.95 4.35 11.8 L-2.25 12.8 Q-4.55 10.15 -7.8 1.25 -11.35 -8.45 -12.0 -9.5 -12.8 -10.75 -17.55 -12.6 L-22.5 -14.4 -22.65 -14.6 Q-22.85 -14.7 -22.85 -15.25 L-16.1 -22.65 Q-9.35 -29.75 -9.35 -34.45 -9.35 -48.0 -11.95 -55.25 L-13.8 -59.2 Q-14.6 -60.8 -14.6 -61.65 -14.6 -62.8 -12.5 -67.7 L-9.75 -74.2 Q-9.2 -75.6 -8.9 -77.5 L-8.8 -78.1 -4.1 -95.1 Q-4.1 -96.4 -8.8 -102.7 L-15.0 -100.65 Q-16.6 -107.4 -12.8 -112.5 -10.3 -115.9 -5.6 -118.35 L-7.2 -126.85 -9.0 -138.6 Q-9.2 -140.25 -12.3 -147.6 L-15.35 -154.7 -11.95 -166.6 Q-8.6 -179.15 -8.6 -182.95 -8.6 -184.65 -10.45 -191.4 -12.35 -198.1 -12.35 -199.45 L-11.8 -202.65 Q-11.25 -205.6 -11.25 -207.25 -11.25 -212.7 -9.35 -227.9 -9.35 -230.05 -10.1 -234.85 -10.85 -239.65 -10.85 -246.05 L-10.85 -252.4 -10.45 -257.85" fill="#f7fdff" fill-rule="evenodd" stroke="none"/>
    <path d="M-3.1 -259.35 L0.0 -260.0 Q0.5 -248.4 0.0 -242.0 L-1.2 -226.45 -1.75 -218.0 Q-1.75 -217.15 1.8 -204.35 L5.3 -191.5 2.65 -178.9 Q0.0 -165.55 0.0 -159.0 0.0 -145.6 4.5 -118.0 4.9 -115.55 7.1 -114.35 L11.75 -112.55 Q18.05 -110.15 18.05 -102.0 18.05 -95.0 16.0 -93.05 13.65 -90.8 7.2 -92.95 5.75 -89.65 5.4 -83.7 L5.3 -73.0 Q5.3 -72.3 1.8 -62.0 L0.5 -58.15 Q5.85 -37.85 9.7 -29.1 17.2 -12.0 17.2 4.85 17.2 8.2 10.8 12.95 4.15 17.9 -1.3 17.9 L-13.9 3.0 Q-26.2 -12.05 -26.2 -12.9 -26.2 -16.15 -23.95 -20.35 L-18.95 -28.2 Q-11.75 -39.15 -11.75 -47.5 -11.75 -48.9 -14.0 -53.0 L-16.25 -57.45 Q-16.25 -61.8 -14.35 -67.45 L-9.2 -83.35 -9.0 -84.85 -8.15 -90.0 -8.15 -95.0 -10.45 -93.6 Q-11.7 -92.95 -13.15 -92.95 -14.2 -92.95 -17.2 -95.95 -20.9 -99.65 -20.45 -104.35 -20.05 -109.1 -14.15 -114.8 -8.25 -120.55 -8.0 -121.45 -7.8 -122.35 -12.5 -137.8 -17.2 -153.25 -17.2 -154.45 -17.2 -155.8 -14.45 -166.05 -11.75 -176.25 -11.75 -177.5 -11.75 -181.95 -14.0 -190.15 -16.25 -198.3 -16.25 -199.5 -16.25 -200.95 -13.85 -214.25 -12.7 -221.6 -12.4 -226.45 -12.15 -230.65 -12.55 -232.95 -13.45 -238.15 -12.75 -250.9 L-12.35 -257.45 -10.45 -257.85 -10.85 -252.4 -10.85 -246.05 Q-10.85 -239.65 -10.1 -234.85 -9.35 -230.05 -9.35 -227.9 -11.25 -212.7 -11.25 -207.25 -11.25 -205.6 -11.8 -202.65 L-12.35 -199.45 Q-12.35 -198.1 -10.45 -191.4 -8.6 -184.65 -8.6 -182.95 -8.6 -179.15 -11.95 -166.6 L-15.35 -154.7 -12.3 -147.6 Q-9.2 -140.25 -9.0 -138.6 L-7.2 -126.85 -5.6 -118.35 Q-10.3 -115.9 -12.8 -112.5 -16.6 -107.4 -15.0 -100.65 L-8.8 -102.7 Q-4.1 -96.4 -4.1 -95.1 L-8.8 -78.1 -8.9 -77.5 Q-9.2 -75.6 -9.75 -74.2 L-12.5 -67.7 Q-14.6 -62.8 -14.6 -61.65 -14.6 -60.8 -13.8 -59.2 L-11.95 -55.25 Q-9.35 -48.0 -9.35 -34.45 -9.35 -29.75 -16.1 -22.65 L-22.85 -15.25 Q-22.85 -14.7 -22.65 -14.6 L-22.5 -14.4 -17.55 -12.6 Q-12.8 -10.75 -12.0 -9.5 -11.35 -8.45 -7.8 1.25 -4.55 10.15 -2.25 12.8 L4.35 11.8 Q9.45 10.95 9.7 9.1 L11.35 0.4 Q12.35 -4.65 12.35 -9.1 12.35 -10.45 9.45 -15.9 5.65 -23.05 3.0 -32.15 2.05 -35.35 -1.9 -44.75 L-5.65 -53.6 Q-5.65 -56.5 -1.5 -65.25 2.6 -74.0 2.6 -78.75 L1.6 -87.0 2.95 -88.2 3.0 -90.55 2.65 -93.85 2.25 -97.15 Q2.25 -99.8 3.9 -99.8 6.15 -99.8 7.85 -98.95 10.15 -97.55 12.35 -96.5 L12.35 -98.6 Q10.4 -103.85 4.5 -108.7 -0.25 -112.55 -0.4 -118.35 L-2.1 -134.3 Q-3.75 -149.15 -3.75 -157.35 -3.75 -160.2 -2.75 -167.8 L-1.25 -177.6 -1.15 -177.75 -1.15 -178.15 -1.25 -177.6 Q-5.45 -171.45 -6.55 -164.9 -7.0 -162.4 -7.5 -149.7 L-7.5 -150.15 -8.5 -157.35 -9.35 -165.2 Q-9.35 -168.3 -4.5 -180.6 L0.35 -192.8 Q0.35 -198.55 -3.55 -207.75 -5.55 -212.35 -7.5 -215.9 L-5.5 -237.1 -3.1 -259.35" fill="#c0edfc" fill-rule="evenodd" stroke="none"/>
  </g>
</svg>
