<?xml version="1.0" encoding="UTF-8" standalone="no"?>
<svg xmlns:xlink="http://www.w3.org/1999/xlink" height="321.35px" width="46.3px" xmlns="http://www.w3.org/2000/svg">
  <g transform="matrix(1.0, 0.0, 0.0, 1.0, 20.9, 255.5)">
    <path d="M-11.15 -253.75 L-4.1 -254.5 0.85 -255.05 Q-1.45 -241.25 -1.95 -231.85 -2.25 -226.9 -2.25 -203.35 -2.0 -199.55 -1.9 -195.35 -1.7 -187.15 -2.25 -182.3 -2.8 -177.55 -0.55 -174.1 1.9 -170.35 1.9 -168.25 L-0.35 -154.4 Q-2.6 -141.75 -2.6 -137.55 -2.6 -136.75 -1.15 -132.7 L1.5 -125.4 Q2.3 -122.9 2.1 -120.15 L1.9 -116.75 Q2.0 -115.9 5.0 -114.4 8.5 -112.75 9.0 -112.2 9.55 -111.65 10.35 -109.7 11.25 -107.45 11.25 -106.0 11.25 -101.05 8.1 -94.0 L4.9 -86.65 Q4.9 -82.95 6.05 -76.7 L7.15 -70.55 5.7 -65.1 Q4.8 -61.2 4.4 -58.1 L7.15 -62.65 7.5 -62.65 9.75 -43.85 Q12.0 -24.95 12.0 -20.0 12.0 -12.6 11.3 -7.5 L11.25 -7.05 10.15 -1.2 10.15 2.9 15.35 -2.45 15.75 -2.45 Q15.25 -1.5 14.1 4.6 12.75 11.45 12.75 14.85 12.75 15.75 15.55 25.9 18.35 36.0 18.35 39.2 18.35 41.7 15.4 49.6 12.6 57.1 11.25 59.0 L8.65 59.0 1.1 61.35 Q-1.9 59.95 -6.15 57.35 L-12.75 53.2 -11.2 49.9 Q-10.05 47.55 -8.65 47.4 -8.65 46.25 -10.7 38.3 L-12.75 29.65 Q-12.75 28.05 -7.7 20.05 -2.65 12.1 -2.65 9.05 -2.65 8.15 -4.25 2.8 L-6.0 -3.3 -6.25 -7.05 -6.85 -19.5 Q-7.6 -34.4 -7.9 -36.3 -8.15 -37.95 -11.2 -42.95 L-15.75 -50.75 Q-16.7 -52.9 -16.85 -55.25 L-18.0 -70.75 Q-18.0 -75.9 -16.2 -78.85 L-9.95 -88.6 -7.85 -96.15 Q-7.85 -97.35 -11.0 -98.95 -14.2 -100.55 -14.2 -102.7 -14.2 -107.6 -12.1 -112.55 -10.0 -117.55 -7.45 -118.35 L-10.75 -131.15 -14.2 -141.45 -14.2 -143.1 Q-11.95 -145.2 -10.95 -147.45 -10.1 -149.45 -10.1 -152.0 -10.1 -157.65 -11.4 -165.8 -12.7 -174.0 -12.7 -179.0 -12.7 -183.85 -10.45 -186.2 -8.2 -188.6 -8.2 -189.5 -8.2 -194.8 -8.75 -201.35 -9.35 -207.85 -9.35 -211.4 L-8.6 -220.65 Q-8.6 -223.4 -9.9 -237.25 L-11.15 -253.75" fill="#f7fdff" fill-rule="evenodd" stroke="none"/>
    <path d="M0.85 -255.05 L5.0 -255.5 Q4.45 -246.6 3.05 -233.5 0.8 -214.1 1.3 -204.25 1.75 -194.4 4.3 -176.45 6.3 -162.65 7.15 -161.2 L4.95 -155.4 Q1.75 -146.5 1.75 -142.95 1.75 -134.3 5.45 -120.0 15.75 -113.3 14.05 -105.05 12.4 -96.8 10.5 -94.6 L9.8 -93.9 Q9.0 -87.35 9.0 -85.5 9.0 -76.6 11.45 -68.25 14.8 -56.7 16.1 -32.3 17.35 -7.9 20.4 -10.8 23.45 -13.75 25.4 -14.0 25.4 -12.55 23.3 -7.05 L22.2 -4.35 Q19.0 3.45 19.0 12.35 19.0 17.0 21.75 27.1 24.45 37.25 24.25 41.7 24.05 46.1 19.6 53.25 15.1 60.45 10.0 64.1 3.1 66.15 0.2 65.8 -2.75 65.45 -7.95 61.65 -13.15 57.75 -14.6 54.0 L-17.5 46.15 Q-19.0 41.7 -19.0 34.4 -19.0 27.8 -13.15 21.8 -7.35 15.75 -9.55 -7.05 -11.75 -29.9 -13.05 -34.95 -14.4 -40.0 -16.25 -44.15 -19.95 -53.05 -19.95 -62.55 -19.95 -75.95 -17.45 -84.3 L-15.05 -91.3 -13.95 -94.65 -15.15 -96.85 Q-17.2 -101.35 -17.2 -106.5 -17.2 -113.45 -15.5 -117.0 L-12.8 -122.2 Q-11.8 -123.85 -11.75 -126.2 -11.75 -128.6 -15.15 -137.2 L-20.9 -151.5 Q-20.9 -157.05 -17.3 -149.55 -13.75 -142.05 -14.1 -158.2 -14.45 -174.4 -15.8 -181.55 -17.2 -188.7 -16.45 -185.75 -15.75 -182.8 -12.95 -193.55 -10.2 -204.3 -11.35 -213.2 -12.55 -222.15 -13.5 -236.15 L-14.35 -253.45 -11.15 -253.75 -9.9 -237.25 Q-8.6 -223.4 -8.6 -220.65 L-9.35 -211.4 Q-9.35 -207.85 -8.75 -201.35 -8.2 -194.8 -8.2 -189.5 -8.2 -188.6 -10.45 -186.2 -12.7 -183.85 -12.7 -179.0 -12.7 -174.0 -11.4 -165.8 -10.1 -157.65 -10.1 -152.0 -10.1 -149.45 -10.95 -147.45 -11.95 -145.2 -14.2 -143.1 L-14.2 -141.45 -10.75 -131.15 -7.45 -118.35 Q-10.0 -117.55 -12.1 -112.55 -14.2 -107.6 -14.2 -102.7 -14.2 -100.55 -11.0 -98.95 -7.85 -97.35 -7.85 -96.15 L-9.95 -88.6 -16.2 -78.85 Q-18.0 -75.9 -18.0 -70.75 L-16.85 -55.25 Q-16.7 -52.9 -15.75 -50.75 L-11.2 -42.95 Q-8.15 -37.95 -7.9 -36.3 -7.6 -34.4 -6.85 -19.5 L-6.25 -7.05 -6.0 -3.3 -4.25 2.8 Q-2.65 8.15 -2.65 9.05 -2.65 12.1 -7.7 20.05 -12.75 28.05 -12.75 29.65 L-10.7 38.3 Q-8.65 46.25 -8.65 47.4 -10.05 47.55 -11.2 49.9 L-12.75 53.2 -6.15 57.35 Q-1.9 59.95 1.1 61.35 L8.65 59.0 11.25 59.0 Q12.6 57.1 15.4 49.6 18.35 41.7 18.35 39.2 18.35 36.0 15.55 25.9 12.75 15.75 12.75 14.85 12.75 11.45 14.1 4.6 15.25 -1.5 15.75 -2.45 L15.35 -2.45 10.15 2.9 10.15 -1.2 11.25 -7.05 11.3 -7.5 Q12.0 -12.6 12.0 -20.0 12.0 -24.95 9.75 -43.85 L7.5 -62.65 7.15 -62.65 4.4 -58.1 Q4.8 -61.2 5.7 -65.1 L7.15 -70.55 6.05 -76.7 Q4.9 -82.95 4.9 -86.65 L8.1 -94.0 Q11.25 -101.05 11.25 -106.0 11.25 -107.45 10.35 -109.7 9.55 -111.65 9.0 -112.2 8.5 -112.75 5.0 -114.4 2.0 -115.9 1.9 -116.75 L2.1 -120.15 Q2.3 -122.9 1.5 -125.4 L-1.15 -132.7 Q-2.6 -136.75 -2.6 -137.55 -2.6 -141.75 -0.35 -154.4 L1.9 -168.25 Q1.9 -170.35 -0.55 -174.1 -2.8 -177.55 -2.25 -182.3 -1.7 -187.15 -1.9 -195.35 -2.0 -199.55 -2.25 -203.35 -2.25 -226.9 -1.95 -231.85 -1.45 -241.25 0.85 -255.05" fill="#c0edfc" fill-rule="evenodd" stroke="none"/>
  </g>
</svg>
