<?xml version="1.0" encoding="UTF-8" standalone="no"?>
<svg xmlns:xlink="http://www.w3.org/1999/xlink" height="27.25px" width="27.25px" xmlns="http://www.w3.org/2000/svg">
  <g transform="matrix(1.0, 0.0, 0.0, 1.0, -10.15, -13.2)">
    <path d="M27.75 15.8 L28.75 13.2 24.45 25.8 29.0 20.7 24.5 26.2 32.3 22.75 32.45 22.55 31.3 23.0 32.4 22.4 30.2 22.35 32.35 22.15 31.25 21.7 32.45 22.0 30.9 20.4 32.6 21.8 32.15 20.7 32.75 21.75 32.8 19.55 33.0 21.75 33.5 20.6 33.15 21.8 34.8 20.25 33.4 21.95 34.45 21.5 33.4 22.15 33.75 22.15 36.95 20.7 34.05 22.15 35.65 22.15 33.55 22.35 33.5 22.4 34.55 22.85 33.35 22.55 34.9 24.1 33.2 22.7 33.65 23.85 33.05 22.75 33.0 25.0 32.8 22.8 32.3 23.95 32.65 22.85 32.5 22.9 31.1 24.3 32.0 23.15 24.95 26.6 31.85 26.15 24.75 26.9 37.4 31.8 24.75 27.45 29.95 32.05 24.45 27.55 29.9 39.95 24.05 28.0 24.45 34.9 23.75 27.8 18.8 40.45 23.15 27.8 18.55 33.0 23.05 27.45 10.65 32.95 22.65 27.05 15.75 27.5 22.85 26.75 10.15 21.85 22.8 26.2 17.6 21.6 23.15 26.1 17.65 13.7 23.55 25.7 23.15 18.8 23.85 25.85 27.75 15.9 27.35 16.05 27.75 15.8" fill="#ffffff" fill-rule="evenodd" stroke="none"/>
  </g>
</svg>
