<?xml version="1.0" encoding="UTF-8" standalone="no"?>
<svg xmlns:xlink="http://www.w3.org/1999/xlink" height="382.75px" width="151.05px" xmlns="http://www.w3.org/2000/svg">
  <g transform="matrix(1.0, 0.0, 0.0, 1.0, 76.5, 264.65)">
    <path d="M16.6 -161.15 L18.2 -162.05 16.5 -159.15 Q13.4 -154.15 14.35 -158.1 L14.55 -160.05 16.6 -161.15" fill="#e0f7f8" fill-rule="evenodd" stroke="none"/>
    <path d="M16.5 -159.15 Q15.45 -140.45 13.7 -118.1 15.6 -120.6 17.9 -126.6 L20.35 -133.0 22.3 -71.2 24.05 -9.45 24.25 5.35 25.25 5.35 Q25.35 3.65 27.0 -1.85 28.75 -7.6 30.0 -9.45 L30.1 -9.6 30.1 6.35 28.35 24.35 Q27.25 35.25 27.25 37.5 29.95 33.85 36.85 28.55 43.75 23.25 46.75 22.5 45.35 32.15 38.1 48.75 L35.8 54.05 47.95 54.05 Q46.45 60.75 43.6 67.15 35.35 85.6 24.85 85.6 21.95 85.6 21.95 81.05 21.95 79.95 22.4 78.2 L22.8 75.65 21.95 75.65 Q14.55 81.1 6.35 87.85 0.5 91.9 -7.3 91.9 -14.8 91.9 -23.7 89.3 -36.75 85.45 -36.75 78.3 -36.75 75.9 -35.1 75.25 -33.15 74.5 -32.7 72.0 -38.15 69.2 -41.5 61.1 -42.9 57.75 -43.7 54.05 L-38.5 54.05 Q-39.85 50.5 -39.85 48.75 -39.85 44.05 -38.2 42.5 -37.05 41.45 -34.55 41.65 -31.6 41.9 -30.9 41.65 -29.25 41.05 -29.25 38.0 -29.25 36.75 -31.35 26.9 L-36.0 4.25 -36.0 -3.1 -34.1 -3.1 Q-28.75 4.6 -26.25 7.5 L-27.25 -8.05 Q-28.05 -22.65 -27.25 -36.5 -25.85 -59.2 -22.95 -61.45 -21.4 -62.6 -21.2 -63.25 -20.5 -65.3 -20.5 -73.0 L-20.9 -88.0 -21.35 -105.1 Q-17.3 -102.8 -16.5 -102.0 L-16.5 -103.0 Q-18.55 -107.8 -20.3 -132.2 -22.35 -160.5 -22.35 -197.0 L-21.85 -212.3 -21.35 -229.75 -20.5 -229.75 Q-20.55 -229.2 -18.65 -223.7 L-16.5 -217.85 -16.5 -232.35 Q-16.5 -235.45 -17.5 -251.1 L-18.05 -264.65 14.6 -264.65 Q18.25 -243.8 16.6 -161.15 L14.55 -160.05 14.35 -158.1 Q13.4 -154.15 16.5 -159.15 M26.1 104.4 L26.4 104.45 26.35 105.05 26.1 104.4" fill="#ffffff" fill-rule="evenodd" stroke="none"/>
    <path d="M-62.05 54.05 L-62.45 54.05 -62.55 53.75 -62.05 54.05" fill="#f7fdff" fill-rule="evenodd" stroke="none"/>
    <path d="M-18.05 -264.65 L-17.5 -251.1 Q-16.5 -235.45 -16.5 -232.35 L-16.5 -217.85 -18.65 -223.7 Q-20.55 -229.2 -20.5 -229.75 L-21.35 -229.75 -21.85 -212.3 -22.35 -197.0 Q-22.35 -160.5 -20.3 -132.2 -18.55 -107.8 -16.5 -103.0 L-16.5 -102.0 Q-17.3 -102.8 -21.35 -105.1 L-20.9 -88.0 -20.5 -73.0 Q-20.5 -65.3 -21.2 -63.25 -21.4 -62.6 -22.95 -61.45 -25.85 -59.2 -27.25 -36.5 -28.05 -22.65 -27.25 -8.05 L-26.25 7.5 Q-28.75 4.6 -34.1 -3.1 L-36.0 -3.1 -36.0 4.25 -31.35 26.9 Q-29.25 36.75 -29.25 38.0 -29.25 41.05 -30.9 41.65 -31.6 41.9 -34.55 41.65 -37.05 41.45 -38.2 42.5 -39.85 44.05 -39.85 48.75 -39.85 50.5 -38.5 54.05 L-43.7 54.05 Q-42.9 57.75 -41.5 61.1 -38.15 69.2 -32.7 72.0 -33.15 74.5 -35.1 75.25 -36.75 75.9 -36.75 78.3 -36.75 85.45 -23.7 89.3 -14.8 91.9 -7.3 91.9 0.5 91.9 6.35 87.85 14.55 81.1 21.95 75.65 L22.8 75.65 22.4 78.2 Q21.95 79.95 21.95 81.05 21.95 85.6 24.85 85.6 35.35 85.6 43.6 67.15 46.45 60.75 47.95 54.05 L35.8 54.05 38.1 48.75 Q45.35 32.15 46.75 22.5 43.75 23.25 36.85 28.55 29.95 33.85 27.25 37.5 27.25 35.25 28.35 24.35 L30.1 6.35 30.1 -9.6 30.0 -9.45 Q28.75 -7.6 27.0 -1.85 25.35 3.65 25.25 5.35 L24.25 5.35 24.05 -9.45 22.3 -71.2 20.35 -133.0 17.9 -126.6 Q15.6 -120.6 13.7 -118.1 15.45 -140.45 16.5 -159.15 L18.2 -162.05 16.6 -161.15 Q18.25 -243.8 14.6 -264.65 L49.9 -264.65 Q49.7 -236.5 56.4 -176.4 59.9 -145.2 63.3 -131.1 L60.0 -136.5 Q49.05 -148.3 49.7 -129.05 50.35 -109.8 56.3 -78.55 62.2 -47.35 61.75 -45.75 L60.8 -42.75 57.1 -52.0 Q38.7 20.5 63.95 4.95 L68.0 -2.0 63.1 64.1 73.5 55.0 67.4 73.95 73.05 76.0 72.5 76.75 Q69.0 78.3 66.15 80.2 L64.75 81.25 64.0 80.75 62.9 82.35 Q58.6 88.1 51.85 90.15 L44.95 93.35 Q-1.35 112.3 -45.6 93.55 -48.75 90.0 -54.65 84.4 L-55.35 88.5 -62.15 81.35 -58.5 75.3 -64.65 74.5 -63.05 77.25 -64.2 77.75 Q-64.5 77.35 -64.95 77.1 -66.5 76.25 -69.3 78.1 L-73.35 78.15 -74.4 77.25 -65.6 73.3 -71.05 70.65 Q-68.65 69.85 -66.15 69.35 L-61.15 69.2 -63.75 65.0 -59.8 66.1 -62.45 54.05 -62.05 54.05 -60.65 55.1 -57.9 57.4 -55.6 59.7 -53.4 61.95 -64.35 -6.85 -53.4 14.95 -52.7 -46.25 Q-43.2 -16.6 -40.25 -22.25 -37.3 -27.95 -38.4 -45.6 -39.5 -63.3 -41.9 -74.35 L-45.85 -93.5 -49.15 -109.35 Q-50.9 -117.15 -51.3 -121.45 -47.2 -116.95 -40.0 -110.0 L-40.0 -170.0 Q-39.45 -284.85 -50.05 -225.8 L-53.45 -264.65 -18.05 -264.65 M59.45 98.45 L57.9 97.75 62.95 97.25 61.6 94.55 70.05 91.75 66.15 94.35 67.15 99.5 63.05 100.25 59.45 98.45 M74.55 84.75 Q72.35 85.25 69.7 86.1 L66.0 87.35 66.0 87.3 66.55 85.8 Q68.3 84.95 72.2 83.0 L74.55 84.75 M50.65 99.65 L55.35 102.85 55.75 103.1 53.15 102.55 53.05 105.75 46.3 103.75 47.0 106.55 37.85 106.65 39.05 112.4 34.8 110.8 33.4 106.7 36.05 107.5 36.25 102.75 43.65 103.35 44.5 100.7 49.65 102.75 50.65 99.65 M5.0 107.75 L7.5 110.25 8.35 104.25 9.75 116.5 5.6 111.7 3.55 118.1 2.2 114.5 Q0.65 110.5 -0.5 108.15 L0.1 107.75 2.65 112.55 5.0 107.75 M22.6 108.35 L23.5 111.0 17.9 109.25 16.85 114.6 12.25 106.8 16.3 109.75 15.75 106.05 22.6 108.35 M-34.8 99.5 L-31.05 104.45 -31.1 105.45 -30.4 110.4 -30.5 110.65 -30.6 111.0 -35.4 106.5 -38.75 110.6 -41.0 104.3 -47.1 109.4 -47.2 104.4 -46.6 105.65 -40.1 97.25 -38.1 103.9 -34.8 99.5 M-9.15 107.05 L-9.2 107.85 -7.9 113.0 -8.15 112.9 -8.35 115.5 -13.5 111.55 -16.45 113.45 -21.3 110.35 -21.35 109.45 Q-21.35 107.1 -21.65 105.65 L-16.8 110.25 -14.9 105.5 -11.35 109.7 -9.15 107.05 M-59.35 92.65 L-58.85 92.3 -57.8 99.5 -53.3 95.9 -52.35 100.55 -51.95 100.2 -52.25 102.95 -55.6 104.5 -55.7 101.25 -59.05 103.35 -59.35 92.65 M-64.55 91.2 L-64.25 91.2 -64.25 95.5 -64.05 95.4 -64.25 99.1 -71.8 102.0 -68.25 92.7 -66.1 90.75 Q-65.5 91.2 -64.55 91.2 M-66.35 83.05 L-65.9 83.5 -66.2 83.65 Q-68.55 85.2 -71.55 88.55 -71.7 88.75 -74.4 90.75 L-76.25 91.0 -70.55 85.5 -76.5 83.8 -69.15 83.65 Q-67.55 83.7 -66.35 83.05" fill="#c0edfc" fill-rule="evenodd" stroke="none"/>
  </g>
</svg>
