<?xml version="1.0" encoding="UTF-8" standalone="no"?>
<svg xmlns:xlink="http://www.w3.org/1999/xlink" height="380.0px" width="159.6px" xmlns="http://www.w3.org/2000/svg">
  <g transform="matrix(1.0, 0.0, 0.0, 1.0, 84.6, 266.75)">
    <path d="M23.75 -266.75 L20.75 -254.95 20.75 -266.75 23.75 -266.75" fill="#c7f0f8" fill-rule="evenodd" stroke="none"/>
    <path d="M10.35 -266.75 L7.95 -216.45 Q4.05 -138.3 1.85 -127.75 L1.85 -123.35 Q3.75 -123.3 7.75 -125.5 11.8 -127.75 12.6 -127.75 L13.1 -106.3 13.6 -87.0 Q13.6 -73.0 10.6 -66.5 L10.6 -62.25 Q13.1 -62.25 18.35 -63.85 L24.25 -65.5 26.3 -65.35 27.25 -64.35 27.25 -60.0 22.85 -48.8 Q20.35 -42.2 20.35 -41.75 L28.65 -47.3 Q34.0 -50.9 37.0 -51.5 37.0 -50.0 27.25 -18.25 L17.5 13.35 Q17.5 15.6 23.4 30.8 29.25 46.05 29.25 53.6 27.05 61.25 21.35 68.75 10.0 83.75 -7.25 83.75 -23.6 83.75 -29.5 59.9 -30.9 54.3 -33.2 39.4 -35.1 26.8 -37.0 21.5 L-37.0 13.85 Q-34.6 15.0 -31.45 18.45 -28.3 21.9 -28.25 23.55 L-28.25 20.35 Q-28.25 18.8 -28.85 16.2 L-30.25 10.75 -30.25 2.1 Q-28.25 2.45 -26.2 4.45 -24.3 6.35 -23.35 6.35 -21.9 6.35 -21.3 5.85 -20.7 5.35 -20.5 5.35 L-22.3 -20.15 -25.25 -57.85 -25.25 -75.1 -21.6 -68.65 Q-18.65 -63.4 -17.5 -62.25 L-16.5 -63.25 -16.5 -73.0 Q-17.1 -78.9 -16.85 -86.75 L-16.5 -96.5 -16.5 -95.5 -13.6 -87.05 Q-11.65 -80.9 -11.6 -77.5 L-11.6 -78.25 Q-9.8 -92.1 -8.7 -158.25 -7.9 -208.15 -7.75 -266.75 L10.35 -266.75 M70.55 93.75 L69.6 94.45 69.25 94.7 66.75 93.7 71.45 92.55 71.0 93.15 70.55 93.75 M56.8 95.7 L59.45 96.8 48.95 102.55 48.0 101.0 47.5 100.2 56.8 95.7" fill="#ffffff" fill-rule="evenodd" stroke="none"/>
    <path d="M20.75 -266.75 L20.75 -254.95 23.75 -266.75 31.45 -266.75 28.35 -231.45 36.5 -254.85 32.2 -210.75 Q31.35 -209.15 31.1 -185.6 30.8 -154.55 28.95 -145.9 L38.6 -169.4 Q49.2 -186.4 35.5 -111.1 L41.55 -125.3 40.85 -112.9 42.95 -117.3 44.95 -121.75 Q45.9 -124.0 48.75 -134.9 51.6 -145.85 56.95 -163.55 62.25 -181.3 63.75 -166.7 64.4 -160.45 60.0 -130.0 L60.85 -134.15 57.1 -106.95 70.0 -130.0 Q84.45 -148.85 57.1 -59.95 L67.7 -76.45 Q85.3 -88.35 47.1 -7.95 L61.65 -28.6 49.75 2.2 Q76.4 -34.4 68.0 -12.85 L57.35 11.75 66.6 -0.45 66.8 0.75 66.85 1.45 66.75 2.25 66.3 3.95 60.85 18.95 Q57.15 28.1 52.85 37.15 L50.7 41.65 48.45 46.2 48.75 46.3 Q88.75 30.5 55.35 71.6 L61.75 66.95 58.05 78.95 71.5 71.95 64.3 84.0 65.8 85.0 67.05 83.15 69.25 83.5 69.9 86.85 72.35 88.5 66.75 93.7 64.8 93.05 62.85 92.5 64.25 88.25 62.5 86.4 58.6 90.0 44.75 92.2 46.2 96.25 44.45 96.8 43.55 97.05 32.5 100.0 Q37.6 99.55 42.9 100.15 L42.9 100.7 44.55 104.3 39.9 105.95 36.0 105.85 35.4 106.35 32.85 103.65 Q26.7 97.75 26.7 104.6 26.7 106.1 29.15 109.4 L30.1 110.55 28.9 111.5 24.4 111.15 18.7 109.5 16.3 106.15 14.15 103.95 Q17.5 103.45 20.8 102.4 L21.25 102.25 15.3 103.2 13.15 103.5 12.65 103.55 1.7 104.05 1.85 104.05 Q7.0 104.7 12.05 104.2 11.65 105.05 11.65 106.9 11.65 107.35 12.8 109.45 L12.75 109.45 12.05 110.05 11.4 110.65 10.6 111.1 8.6 111.9 6.55 112.5 4.5 112.9 2.35 113.05 0.7 112.55 -0.9 111.95 -1.65 111.75 -4.75 113.25 -8.7 109.9 -8.85 110.0 -10.0 106.7 Q-6.5 104.2 -2.3 103.9 -14.9 103.1 -25.85 98.45 -26.35 95.8 -28.95 97.05 L-34.1 94.25 -37.45 100.25 -35.85 100.95 Q-34.7 100.1 -32.95 100.6 L-33.45 101.8 -35.1 108.2 -35.25 108.15 -35.65 108.0 -36.65 107.55 -37.65 107.25 -41.15 109.25 -47.7 103.7 -50.05 105.85 -51.4 103.55 -56.15 100.25 -58.6 102.2 -58.9 101.85 -51.65 94.5 -49.8 95.75 -48.55 88.5 -57.55 91.6 -55.8 91.75 -56.3 92.7 -56.25 92.75 Q-58.5 94.2 -61.8 97.35 L-62.35 97.9 -64.4 98.3 -66.45 93.9 -61.0 90.25 -59.6 91.05 -57.0 88.6 -62.85 87.9 -62.7 88.25 Q-65.25 88.2 -71.0 91.1 L-73.65 86.7 -71.05 80.25 -72.85 79.15 -71.0 78.3 -75.1 71.15 Q-101.0 48.45 -56.25 70.85 L-67.05 52.95 -57.3 59.55 -65.2 28.05 -58.6 41.3 Q-81.6 -7.4 -67.05 -1.9 -64.15 -1.55 -62.25 -0.25 L-65.05 -15.8 Q-84.55 -71.5 -69.6 -64.6 L-50.0 -40.0 Q-47.9 -44.0 -61.75 -78.15 -75.65 -112.35 -70.85 -109.4 -66.05 -106.45 -65.45 -105.35 L-56.9 -96.7 -60.0 -128.85 Q-62.45 -186.9 -42.6 -125.95 -48.35 -165.95 -51.35 -206.0 -58.25 -274.25 -29.05 -144.0 L-29.75 -165.9 -25.4 -156.25 Q-24.3 -154.6 -25.05 -155.8 L-25.4 -156.25 -33.2 -266.75 -7.75 -266.75 Q-7.9 -208.15 -8.7 -158.25 -9.8 -92.1 -11.6 -78.25 L-11.6 -77.5 Q-11.65 -80.9 -13.6 -87.05 L-16.5 -95.5 -16.5 -96.5 -16.85 -86.75 Q-17.1 -78.9 -16.5 -73.0 L-16.5 -63.25 -17.5 -62.25 Q-18.65 -63.4 -21.6 -68.65 L-25.25 -75.1 -25.25 -57.85 -22.3 -20.15 -20.5 5.35 Q-20.7 5.35 -21.3 5.85 -21.9 6.35 -23.35 6.35 -24.3 6.35 -26.2 4.45 -28.25 2.45 -30.25 2.1 L-30.25 10.75 -28.85 16.2 Q-28.25 18.8 -28.25 20.35 L-28.25 23.55 Q-28.3 21.9 -31.45 18.45 -34.6 15.0 -37.0 13.85 L-37.0 21.5 Q-35.1 26.8 -33.2 39.4 -30.9 54.3 -29.5 59.9 -23.6 83.75 -7.25 83.75 10.0 83.75 21.35 68.75 27.05 61.25 29.25 53.6 29.25 46.05 23.4 30.8 17.5 15.6 17.5 13.35 L27.25 -18.25 Q37.0 -50.0 37.0 -51.5 34.0 -50.9 28.65 -47.3 L20.35 -41.75 Q20.35 -42.2 22.85 -48.8 L27.25 -60.0 27.25 -64.35 26.3 -65.35 24.25 -65.5 18.35 -63.85 Q13.1 -62.25 10.6 -62.25 L10.6 -66.5 Q13.6 -73.0 13.6 -87.0 L13.1 -106.3 12.6 -127.75 Q11.8 -127.75 7.75 -125.5 3.75 -123.3 1.85 -123.35 L1.85 -127.75 Q4.05 -138.3 7.95 -216.45 L10.35 -266.75 20.75 -266.75 M24.75 -221.3 L24.6 -221.15 Q25.75 -221.8 24.75 -221.3 M-15.15 107.2 L-13.35 112.2 -26.35 110.2 -27.85 111.25 -29.1 110.95 -29.4 109.3 -28.15 106.1 -27.25 103.9 Q-24.4 105.55 -20.95 106.35 L-15.15 107.2" fill="#c0edfc" fill-rule="evenodd" stroke="none"/>
  </g>
</svg>
