<?xml version="1.0" encoding="UTF-8" standalone="no"?>
<svg xmlns:xlink="http://www.w3.org/1999/xlink" height="374.1px" width="143.55px" xmlns="http://www.w3.org/2000/svg">
  <g transform="matrix(1.0, 0.0, 0.0, 1.0, 73.25, 258.6)">
    <path d="M2.1 -258.6 Q0.85 -230.9 0.85 -202.85 L0.95 -195.9 Q1.2 -183.9 2.35 -171.3 L3.85 -157.85 Q3.85 -145.35 -0.1 -124.65 -4.55 -101.3 -5.75 -78.25 L0.0 -81.5 0.0 -70.75 Q-1.25 -69.6 -4.85 -52.0 -4.85 -50.45 -2.25 -45.9 L2.85 -37.5 5.15 -38.95 Q6.15 -39.6 6.75 -39.6 L6.75 -13.85 5.4 -8.35 Q4.75 -5.9 4.75 -5.25 8.0 -7.1 15.1 -12.05 L22.35 -17.1 Q10.75 22.6 8.75 24.6 9.75 24.6 9.75 25.75 L12.55 24.05 15.5 22.5 15.5 29.0 Q14.5 31.0 12.2 38.15 9.75 45.7 9.75 47.25 11.2 46.35 13.05 45.7 15.05 45.0 16.5 45.0 L17.0 46.9 17.4 48.6 17.45 48.8 17.5 49.85 Q17.5 51.95 17.8 54.9 -9.5 116.5 -36.75 54.9 -35.0 53.35 -35.0 52.0 -43.5 24.5 -45.75 19.25 L-45.75 12.85 Q-43.75 12.85 -37.55 17.45 -32.1 21.5 -30.25 23.6 L-33.45 13.0 -36.0 4.25 Q-35.5 3.75 -31.05 0.95 -26.45 -1.9 -26.25 -2.1 L-23.35 1.0 -23.35 -4.25 Q-26.45 -19.75 -27.0 -25.15 L-27.25 -38.1 Q-27.25 -50.35 -26.25 -53.6 L-26.25 -52.5 -22.35 -48.25 Q-23.0 -52.15 -25.35 -86.1 -27.85 -122.25 -28.25 -137.0 -28.05 -132.7 -23.6 -112.6 -18.95 -91.45 -17.5 -89.0 L-17.35 -90.55 Q-17.15 -91.25 -16.5 -91.25 -16.5 -100.2 -14.6 -109.5 L-12.6 -109.5 Q-12.6 -108.8 -12.1 -108.5 L-11.6 -108.35 -10.35 -100.55 Q-9.75 -96.45 -9.75 -94.35 L-8.75 -94.35 -8.75 -113.75 Q-10.0 -121.55 -11.6 -146.25 L-14.3 -187.85 -13.35 -184.3 Q-12.1 -180.8 -10.75 -179.25 L-10.75 -258.6 2.1 -258.6" fill="#ffffff" fill-rule="evenodd" stroke="none"/>
    <path d="M-61.6 91.6 L-64.35 93.4 -63.95 93.0 -67.45 91.8 -66.2 91.25 -64.8 90.6 -61.6 91.6 M-50.1 96.75 L-52.85 102.5 -52.35 102.4 -53.1 103.5 -59.9 103.5 -56.35 98.75 -61.35 98.25 -58.8 95.85 -50.1 96.75 M-4.75 106.95 L4.75 110.75 2.0 104.0 8.8 104.65 12.9 110.65 7.65 111.0 9.7 114.05 -2.25 112.3 -4.75 106.95 M-40.95 105.15 L-41.35 106.0 -43.55 111.05 -44.6 112.2 -44.9 103.5 -46.2 103.5 Q-44.75 101.4 -44.75 100.85 L-42.0 100.25 -42.7 106.5 -40.95 105.15 M-35.55 101.25 L-35.55 101.05 -35.55 101.0 -35.55 101.25 M-28.15 107.45 L-28.15 108.05 -39.0 114.0 -38.85 112.7 -35.6 103.25 -35.8 108.5 -26.9 103.7 Q-28.05 104.85 -28.15 107.45 M-25.2 102.75 L-24.75 102.5 -24.7 102.7 -25.2 102.75 M-14.55 109.75 L-18.3 108.0 -22.2 115.5 -23.65 113.65 -23.0 108.35 -22.8 109.1 -20.6 103.75 -15.05 106.85 -14.55 109.75 M52.55 95.65 L57.0 99.95 49.5 103.5 50.4 104.0 49.25 104.1 46.8 100.9 45.8 99.7 48.75 99.5 48.65 97.4 47.0 96.25 52.55 95.65 M33.55 107.0 L32.55 102.65 34.8 105.1 34.2 105.15 38.1 109.0 23.25 110.0 20.05 105.75 33.55 107.0 M64.75 86.05 L66.6 85.55 69.85 87.2 65.3 93.0 70.3 93.5 66.9 95.15 65.65 94.6 Q62.25 91.6 60.3 90.3 L65.55 86.75 64.75 86.05" fill="#f7fdff" fill-rule="evenodd" stroke="none"/>
    <path d="M2.1 -258.6 L22.65 -258.6 19.5 -212.5 25.4 -225.5 12.15 -119.25 13.25 -119.1 30.0 -160.0 Q53.15 -195.45 22.8 -85.0 L29.0 -101.2 Q28.8 -77.85 27.8 -65.25 L33.6 -69.2 33.2 -61.95 Q47.4 -74.8 58.7 -85.7 86.65 -104.15 34.1 -25.95 63.85 -67.4 50.0 -20.0 L40.0 0.0 58.5 -10.85 Q73.55 -13.45 37.5 30.85 L61.55 18.7 50.9 35.0 63.55 30.25 41.75 53.65 66.25 50.85 40.4 71.95 64.4 72.2 57.45 76.05 61.7 76.05 58.95 78.0 64.0 78.3 Q62.35 78.9 60.95 79.65 L55.35 77.45 48.85 81.95 50.85 84.45 39.0 86.95 45.05 91.2 26.15 90.35 17.35 91.0 Q9.7 91.25 3.65 96.55 -2.4 101.8 -10.2 101.5 -18.05 101.2 -21.45 101.8 L-19.9 95.95 Q-30.75 97.85 -41.65 97.35 L-45.45 97.15 Q-46.1 96.3 -47.35 96.95 L-55.8 95.45 -48.95 85.1 -60.3 87.45 -55.0 80.8 -64.75 81.85 -61.15 78.5 -63.15 78.0 -62.8 79.0 -68.75 82.5 -66.0 85.1 -69.35 85.7 -73.25 82.7 -63.75 78.1 -65.55 76.25 -59.4 76.95 -46.9 66.85 -63.95 55.2 -54.75 51.25 Q-78.75 -9.3 -50.0 20.0 L-57.35 10.2 -72.2 -46.85 -52.65 -10.1 -60.0 -30.0 Q-66.3 -53.15 -50.0 -30.0 L-46.2 -24.75 Q-87.1 -118.4 -60.0 -80.0 L-40.0 -60.0 -43.7 -72.0 -41.75 -66.05 -49.2 -108.95 Q-62.95 -187.4 -39.0 -103.55 L-43.65 -147.3 -38.15 -133.75 -65.35 -258.6 -46.25 -258.6 -31.75 -162.85 -32.45 -179.45 -22.1 -140.0 -28.4 -189.25 -20.0 -148.35 -24.8 -258.6 -24.15 -258.6 -21.95 -248.6 -22.75 -258.6 -10.75 -258.6 -10.75 -179.25 Q-12.1 -180.8 -13.35 -184.3 L-14.3 -187.85 -11.6 -146.25 Q-10.0 -121.55 -8.75 -113.75 L-8.75 -94.35 -9.75 -94.35 Q-9.75 -96.45 -10.35 -100.55 L-11.6 -108.35 -12.1 -108.5 Q-12.6 -108.8 -12.6 -109.5 L-14.6 -109.5 Q-16.5 -100.2 -16.5 -91.25 -17.15 -91.25 -17.35 -90.55 L-17.5 -89.0 Q-18.95 -91.45 -23.6 -112.6 -28.05 -132.7 -28.25 -137.0 -27.85 -122.25 -25.35 -86.1 -23.0 -52.15 -22.35 -48.25 L-26.25 -52.5 -26.25 -53.6 Q-27.25 -50.35 -27.25 -38.1 L-27.0 -25.15 Q-26.45 -19.75 -23.35 -4.25 L-23.35 1.0 -26.25 -2.1 Q-26.45 -1.9 -31.05 0.95 -35.5 3.75 -36.0 4.25 L-33.45 13.0 -30.25 23.6 Q-32.1 21.5 -37.55 17.45 -43.75 12.85 -45.75 12.85 L-45.75 19.25 Q-43.5 24.5 -35.0 52.0 -35.0 53.35 -36.75 54.9 -9.5 116.5 17.8 54.9 17.5 51.95 17.5 49.85 L17.45 48.8 17.4 48.6 17.0 46.9 16.5 45.0 Q15.05 45.0 13.05 45.7 11.2 46.35 9.75 47.25 9.75 45.7 12.2 38.15 14.5 31.0 15.5 29.0 L15.5 22.5 12.55 24.05 9.75 25.75 Q9.75 24.6 8.75 24.6 10.75 22.6 22.35 -17.1 L15.1 -12.05 Q8.0 -7.1 4.75 -5.25 4.75 -5.9 5.4 -8.35 L6.75 -13.85 6.75 -39.6 Q6.15 -39.6 5.15 -38.95 L2.85 -37.5 -2.25 -45.9 Q-4.85 -50.45 -4.85 -52.0 -1.25 -69.6 0.0 -70.75 L0.0 -81.5 -5.75 -78.25 Q-4.55 -101.3 -0.1 -124.65 3.85 -145.35 3.85 -157.85 L2.35 -171.3 Q1.2 -183.9 0.95 -195.9 L0.85 -202.85 Q0.85 -230.9 2.1 -258.6 M10.0 -110.0 L10.35 -111.0 10.3 -111.05 10.0 -110.0" fill="#c0edfc" fill-rule="evenodd" stroke="none"/>
  </g>
</svg>
