<?xml version="1.0" encoding="UTF-8" standalone="no"?>
<svg xmlns:xlink="http://www.w3.org/1999/xlink" height="135.5px" width="173.2px" xmlns="http://www.w3.org/2000/svg">
  <g transform="matrix(1.0, 0.0, 0.0, 1.0, 1.0, 1.0)">
    <path d="M165.85 48.5 L91.45 48.5 Q86.2 48.5 86.2 53.8 L86.2 128.3 Q86.2 133.5 91.45 133.5 L165.85 133.5 Q171.2 133.5 171.2 128.3 L171.2 53.8 Q171.2 48.5 165.85 48.5 M85.0 5.3 Q85.0 0.0 79.65 0.0 L5.25 0.0 Q0.0 0.0 0.0 5.3 L0.0 79.8 Q0.0 85.0 5.25 85.0 L79.65 85.0 Q85.0 85.0 85.0 79.8 L85.0 5.3 Z" fill="none" stroke="#99ffff" stroke-linecap="butt" stroke-linejoin="miter-clip" stroke-miterlimit="3.0" stroke-width="2.0"/>
  </g>
</svg>
