<?xml version="1.0" encoding="UTF-8" standalone="no"?>
<svg xmlns:xlink="http://www.w3.org/1999/xlink" height="385.9px" width="157.3px" xmlns="http://www.w3.org/2000/svg">
  <g transform="matrix(1.0, 0.0, 0.0, 1.0, 73.95, 267.05)">
    <path d="M2.7 -267.05 Q4.4 -199.55 7.3 -132.45 L10.7 -135.5 Q10.9 -79.55 8.9 -23.55 L28.95 -31.9 20.4 -8.05 34.3 -12.6 34.95 -11.1 Q29.8 -1.7 29.15 7.35 L29.75 7.45 39.55 7.8 Q29.85 18.05 30.15 30.6 L41.8 28.75 41.75 28.85 41.85 28.75 46.6 28.75 32.6 52.15 42.35 56.35 40.0 60.0 42.25 56.75 42.8 56.55 53.35 60.95 39.2 64.8 42.75 67.95 46.1 71.2 47.7 72.95 Q50.4 75.85 51.6 78.8 48.65 80.1 45.35 80.1 38.75 79.55 32.45 80.75 29.1 81.25 26.75 83.65 25.45 85.0 25.25 87.2 L25.2 89.9 Q25.3 93.35 26.95 96.35 L25.25 96.35 15.75 85.8 14.5 95.05 13.95 95.15 11.35 93.35 9.4 91.45 7.45 89.6 5.35 87.8 3.25 86.15 Q-0.45 83.15 -4.85 81.05 L-18.9 91.75 -20.4 72.95 -35.0 82.8 -35.85 81.55 -31.85 71.6 Q-36.1 67.65 -40.65 64.2 -50.5 56.65 -55.55 45.9 L-36.6 43.6 -52.25 19.75 Q-45.25 26.05 -37.05 30.45 -32.8 32.7 -28.65 30.3 -27.0 29.3 -26.6 27.5 -26.1 25.35 -26.4 23.05 -27.15 17.5 -31.0 13.45 L-17.85 11.1 -17.7 10.85 -17.5 10.55 -17.0 9.45 -16.65 8.4 -16.4 7.25 -16.3 6.2 -16.25 5.1 -16.45 4.0 Q-17.75 -0.6 -18.7 -5.3 L-14.75 -5.35 -14.35 -6.8 -13.85 -9.8 -13.8 -11.35 -13.95 -12.85 -14.3 -14.45 -20.4 -31.45 -6.45 -26.95 Q-4.15 -42.25 -6.0 -57.65 -8.3 -77.1 -9.75 -96.35 L-7.3 -90.95 -6.45 -91.9 Q-1.7 -131.55 -1.25 -171.35 -0.75 -211.7 -10.15 -249.95 L-10.75 -257.95 -3.95 -236.75 Q2.15 -233.75 -4.9 -267.05 L2.7 -267.05 M9.2 -58.05 L9.15 -58.0 9.15 -57.9 9.2 -58.05 M-36.7 59.9 L-36.9 60.0 -36.65 60.0 -36.7 59.9" fill="#f7fdff" fill-rule="evenodd" stroke="none"/>
    <path d="M2.7 -267.05 L9.3 -267.05 Q3.9 -220.7 9.9 -226.1 L15.3 -242.95 10.35 -145.6 15.2 -170.0 Q22.5 -208.95 20.2 -170.2 17.85 -131.45 18.35 -106.4 20.3 -156.95 23.7 -134.9 23.95 -73.8 20.0 -30.0 21.75 -33.65 22.75 -34.45 51.15 -75.25 43.3 -57.0 L31.75 -16.15 53.0 -31.7 38.8 2.9 Q37.8 4.2 38.25 4.15 39.95 4.0 61.6 -15.25 79.05 -25.3 40.25 19.05 L47.4 13.75 41.8 28.75 30.15 30.6 Q29.85 18.05 39.55 7.8 L29.75 7.45 29.15 7.35 Q29.8 -1.7 34.95 -11.1 L34.3 -12.6 20.4 -8.05 28.95 -31.9 8.9 -23.55 Q10.9 -79.55 10.7 -135.5 L7.3 -132.45 Q4.4 -199.55 2.7 -267.05 M41.85 28.75 L45.9 24.95 Q74.4 3.35 55.65 35.6 L42.35 56.35 32.6 52.15 46.6 28.75 41.85 28.75 M42.8 56.55 L64.2 49.05 51.75 59.35 75.7 54.15 Q97.95 51.35 55.4 71.05 94.85 79.25 51.9 86.8 L59.8 91.45 42.9 89.45 46.7 97.45 30.25 93.55 35.55 103.65 Q47.45 119.25 14.15 97.8 L17.7 107.9 15.55 107.0 13.5 105.85 11.45 104.8 9.5 103.5 7.7 102.1 5.9 100.65 4.25 99.05 2.6 97.3 4.5 108.75 -6.85 99.05 -10.0 110.0 Q-15.0 133.6 -15.8 94.4 L-22.05 104.8 -24.95 91.9 -39.9 105.7 -37.65 89.5 -51.3 99.95 -44.3 86.25 -57.6 87.45 -46.4 77.15 -63.95 73.85 Q-71.2 69.3 -45.5 70.0 L-53.75 58.6 Q-62.0 53.9 -70.55 41.5 -84.3 26.1 -42.25 43.05 L-45.15 39.25 Q-99.25 -10.25 -34.2 19.7 L-67.25 -49.35 -25.1 11.85 -32.35 -7.25 -24.9 -1.2 Q-40.35 -29.15 -30.7 -18.05 L-20.0 -5.1 -40.0 -50.0 Q-41.9 -58.1 -16.2 -31.8 -9.3 -35.55 -9.4 -38.95 -9.95 -57.05 -13.9 -82.95 -20.25 -124.4 -19.05 -149.0 -17.9 -173.6 -10.0 -100.0 -6.2 -189.25 -10.15 -249.95 -0.75 -211.7 -1.25 -171.35 -1.7 -131.55 -6.45 -91.9 L-7.3 -90.95 -9.75 -96.35 Q-8.3 -77.1 -6.0 -57.65 -4.15 -42.25 -6.45 -26.95 L-20.4 -31.45 -14.3 -14.45 -13.95 -12.85 -13.8 -11.35 -13.85 -9.8 -14.35 -6.8 -14.75 -5.35 -18.7 -5.3 Q-17.75 -0.6 -16.45 4.0 L-16.25 5.1 -16.3 6.2 -16.4 7.25 -16.65 8.4 -17.0 9.45 -17.5 10.55 -17.7 10.85 -17.85 11.1 -31.0 13.45 Q-27.15 17.5 -26.4 23.05 -26.1 25.35 -26.6 27.5 -27.0 29.3 -28.65 30.3 -32.8 32.7 -37.05 30.45 -45.25 26.05 -52.25 19.75 L-36.6 43.6 -55.55 45.9 Q-50.5 56.65 -40.65 64.2 -36.1 67.65 -31.85 71.6 L-35.85 81.55 -35.0 82.8 -20.4 72.95 -18.9 91.75 -4.85 81.05 Q-0.45 83.15 3.25 86.15 L5.35 87.8 7.45 89.6 9.4 91.45 11.35 93.35 13.95 95.15 14.5 95.05 15.75 85.8 25.25 96.35 26.95 96.35 Q25.3 93.35 25.2 89.9 L25.25 87.2 Q25.45 85.0 26.75 83.65 29.1 81.25 32.45 80.75 38.75 79.55 45.35 80.1 48.65 80.1 51.6 78.8 50.4 75.85 47.7 72.95 L46.1 71.2 42.75 67.95 39.2 64.8 53.35 60.95 42.8 56.55 M30.7 -15.4 L31.1 -15.65 Q31.1 -16.25 30.7 -15.4" fill="#c0edfc" fill-rule="evenodd" stroke="none"/>
  </g>
</svg>
