<?xml version="1.0" encoding="UTF-8" standalone="no"?>
<svg xmlns:xlink="http://www.w3.org/1999/xlink" height="141.45px" width="98.15px" xmlns="http://www.w3.org/2000/svg">
  <g transform="matrix(1.0, 0.0, 0.0, 1.0, 46.6, 36.25)">
    <path d="M3.45 57.3 L4.85 60.35 7.6 55.8 8.3 54.5 9.2 63.05 10.6 77.25 11.1 77.4 Q11.6 77.65 11.6 78.35 11.6 77.8 12.6 77.25 13.6 76.75 13.6 76.25 L18.2 76.25 17.9 77.8 18.9 77.0 19.8 76.25 21.35 76.25 21.35 80.5 19.5 83.55 Q14.5 91.7 14.5 93.35 L17.55 93.65 21.1 94.5 16.5 94.5 -8.2 97.75 -13.95 98.6 Q-19.35 96.6 -20.3 95.75 -22.3 94.0 -25.25 92.25 L-20.55 91.25 Q-17.6 90.75 -16.5 90.1 -17.3 87.35 -18.95 83.6 L-22.35 76.25 -16.5 80.5 -10.75 80.5 Q-10.75 79.3 -8.25 68.8 -5.75 58.15 -4.85 55.75 L-4.75 55.75 -4.4 56.35 -4.45 55.75 -3.85 55.75 -2.15 62.8 Q-0.55 68.9 -1.0 70.75 L0.85 70.75 Q2.3 62.4 3.45 57.3" fill="#ffffff" fill-rule="evenodd" stroke="none"/>
    <path d="M-33.65 78.5 Q-50.7 61.5 -40.8 66.5 L-34.1 69.15 -46.6 40.15 -32.3 61.2 -42.05 37.65 Q-46.8 18.05 -22.7 60.5 L-27.25 44.0 -17.05 57.6 Q-30.75 29.55 -21.8 39.6 L-15.25 48.2 Q-30.25 12.95 -23.4 17.85 L-15.8 30.0 Q-15.75 13.9 -13.45 -9.6 -7.75 -22.2 -1.45 27.4 -0.75 20.95 0.75 11.3 L2.9 26.0 Q2.35 -63.55 10.0 -24.3 L14.9 35.5 17.8 12.8 16.7 46.4 Q17.0 54.8 27.6 29.2 41.6 4.9 24.25 70.9 L29.05 64.0 28.35 77.2 38.15 69.6 33.9 80.45 40.55 75.25 Q49.9 68.3 44.9 75.4 39.85 82.45 32.6 89.35 L51.55 82.4 30.0 100.0 27.55 100.5 37.2 92.9 23.45 94.45 34.1 80.5 23.3 81.5 26.7 70.65 23.3 73.45 22.0 71.35 Q21.25 69.85 21.25 68.0 21.25 65.3 21.85 61.15 22.6 56.25 23.65 53.95 L23.65 49.5 Q21.05 49.9 18.25 51.1 14.3 52.75 13.8 54.9 L11.15 33.85 Q9.05 17.1 8.15 12.5 7.1 17.15 5.0 29.3 2.6 39.95 -1.55 44.05 -5.45 31.65 -8.9 24.2 -9.75 27.9 -9.75 39.1 L-9.55 47.75 -14.05 40.25 -11.2 69.75 -20.25 58.65 -17.5 67.65 -26.9 60.35 -22.85 70.3 -31.9 64.1 -23.35 82.6 -33.65 78.5 M-36.8 92.25 L-45.0 87.2 -34.65 85.8 -42.85 78.8 -32.65 79.75 -24.8 86.95 -34.1 86.95 -27.75 91.75 -36.8 92.25 M-4.75 55.75 L-6.05 53.55 -4.85 47.7 Q-1.65 48.55 1.45 53.6 L3.45 57.3 Q2.3 62.4 0.85 70.75 L-1.0 70.75 Q-0.55 68.9 -2.15 62.8 L-3.85 55.75 -4.45 55.75 -4.4 56.35 -4.75 55.75 M8.3 54.5 Q9.75 51.6 9.75 50.35 L10.6 50.35 Q10.4 52.95 12.15 62.0 13.95 71.2 13.8 74.8 L15.15 74.2 17.1 72.95 Q17.9 73.9 18.7 76.35 L18.9 77.0 17.9 77.8 18.2 76.25 13.6 76.25 Q13.6 76.75 12.6 77.25 11.6 77.8 11.6 78.35 11.6 77.65 11.1 77.4 L10.6 77.25 9.2 63.05 8.3 54.5" fill="#f7fdff" fill-rule="evenodd" stroke="none"/>
    <path d="M-33.65 78.5 L-23.35 82.6 -31.9 64.1 -22.85 70.3 -26.9 60.35 -17.5 67.65 -20.25 58.65 -11.2 69.75 -14.05 40.25 -9.55 47.75 -9.75 39.1 Q-9.75 27.9 -8.9 24.2 -5.45 31.65 -1.55 44.05 2.6 39.95 5.0 29.3 7.1 17.15 8.15 12.5 9.05 17.1 11.15 33.85 L13.8 54.9 Q14.3 52.75 18.25 51.1 21.05 49.9 23.65 49.5 L23.65 53.95 Q22.6 56.25 21.85 61.15 21.25 65.3 21.25 68.0 21.25 69.85 22.0 71.35 L23.3 73.45 26.7 70.65 23.3 81.5 34.1 80.5 23.45 94.45 37.2 92.9 27.55 100.5 Q1.6 109.6 -22.95 101.1 L-37.5 92.3 -36.8 92.25 -27.75 91.75 -34.1 86.95 -24.8 86.95 -32.65 79.75 -33.65 78.5 M3.45 57.3 L1.45 53.6 Q-1.65 48.55 -4.85 47.7 L-6.05 53.55 -4.75 55.75 -4.85 55.75 Q-5.75 58.15 -8.25 68.8 -10.75 79.3 -10.75 80.5 L-16.5 80.5 -22.35 76.25 -18.95 83.6 Q-17.3 87.35 -16.5 90.1 -17.6 90.75 -20.55 91.25 L-25.25 92.25 Q-22.3 94.0 -20.3 95.75 -19.35 96.6 -13.95 98.6 L-8.2 97.75 16.5 94.5 21.1 94.5 17.55 93.65 14.5 93.35 Q14.5 91.7 19.5 83.55 L21.35 80.5 21.35 76.25 19.8 76.25 18.9 77.0 18.7 76.35 Q17.9 73.9 17.1 72.95 L15.15 74.2 13.8 74.8 Q13.95 71.2 12.15 62.0 10.4 52.95 10.6 50.35 L9.75 50.35 Q9.75 51.6 8.3 54.5 L7.6 55.8 4.85 60.35 3.45 57.3" fill="#c0edfc" fill-rule="evenodd" stroke="none"/>
  </g>
</svg>
