<?xml version="1.0" encoding="UTF-8" standalone="no"?>
<svg xmlns:xlink="http://www.w3.org/1999/xlink" height="83.5px" width="87.0px" xmlns="http://www.w3.org/2000/svg">
  <g transform="matrix(1.0, 0.0, 0.0, 1.0, 34.6, -20.85)">
    <path d="M-2.7 101.45 Q-6.2 104.35 -8.8 104.35 -10.55 104.35 -11.25 103.45 L-12.15 101.5 Q-13.4 98.6 -19.3 98.6 L-21.05 99.0 -22.85 99.4 -25.1 99.0 Q-26.95 98.35 -26.95 96.95 -26.95 95.25 -25.0 92.55 L-22.1 88.25 -25.1 88.25 -30.15 88.8 Q-33.2 88.8 -34.45 87.45 -35.45 83.25 -30.65 80.85 -25.9 78.45 -25.5 75.9 -25.1 73.3 -27.9 70.9 -30.7 68.45 -30.7 67.0 -30.7 65.4 -22.45 62.45 L-21.7 62.2 -18.85 61.15 Q-14.25 59.35 -14.25 59.0 -14.25 57.45 -16.1 56.3 -18.0 55.2 -18.0 53.6 -18.0 52.05 -13.7 50.85 L-11.15 50.1 -9.95 49.75 Q-8.75 49.3 -8.6 49.1 L-8.5 42.8 Q-8.2 36.7 -6.6 36.7 -5.05 36.7 -3.15 42.7 -1.35 48.5 -0.45 48.65 5.75 11.5 8.35 24.0 L10.4 52.4 Q11.3 53.6 12.7 53.6 14.0 53.6 18.15 48.65 22.3 43.7 23.75 43.7 25.2 43.7 25.45 44.55 L25.45 46.8 Q25.45 49.25 23.05 56.45 L20.6 63.7 Q20.6 65.5 21.7 66.0 L25.05 66.4 Q29.9 66.4 37.8 63.55 45.65 60.65 47.7 60.65 L50.55 61.05 Q52.4 61.6 52.4 62.5 52.4 65.85 39.3 73.25 L24.3 81.25 Q25.35 82.55 28.8 83.2 L34.45 84.15 34.45 86.2 29.5 91.15 Q25.8 94.8 25.8 96.5 25.8 98.3 27.9 99.95 L29.95 101.65 Q29.95 103.05 28.55 103.85 L14.55 102.1 16.65 101.45 21.85 93.4 13.8 95.75 18.95 82.05 12.2 85.5 14.05 68.75 10.0 75.8 5.8 40.75 3.35 61.7 0.3 53.65 -0.3 66.65 -5.2 56.85 -5.35 73.45 -13.2 68.75 -7.75 81.25 -19.45 78.35 -4.9 93.3 -12.65 94.45 -4.6 97.5 -7.2 99.2 Q-5.0 100.55 -2.7 101.45" fill="#f7fdff" fill-rule="evenodd" stroke="none"/>
    <path d="M14.55 102.1 L14.1 102.25 Q5.3 104.5 -2.7 101.45 -5.0 100.55 -7.2 99.2 L-4.6 97.5 -12.65 94.45 -4.9 93.3 -19.45 78.35 -7.75 81.25 -13.2 68.75 -5.35 73.45 -5.2 56.85 -0.3 66.65 0.3 53.65 3.35 61.7 5.8 40.75 10.0 75.8 14.05 68.75 12.2 85.5 18.95 82.05 13.8 95.75 21.85 93.4 16.65 101.45 14.55 102.1" fill="#c0edfc" fill-rule="evenodd" stroke="none"/>
  </g>
</svg>
