<?xml version="1.0" encoding="UTF-8" standalone="no"?>
<svg xmlns:xlink="http://www.w3.org/1999/xlink" height="15.45px" width="246.55px" xmlns="http://www.w3.org/2000/svg">
  <g transform="matrix(1.0, 0.0, 0.0, 1.0, 123.25, 7.7)">
    <path d="M120.85 0.0 L-120.85 0.0 -118.45 -7.7 123.3 -7.7 120.85 0.0" fill="url(#gradient0)" fill-rule="evenodd" stroke="none"/>
    <path d="M120.85 0.0 L118.5 7.75 15.25 7.75 -123.25 7.75 -121.05 0.65 -120.85 0.0 120.85 0.0" fill="url(#gradient1)" fill-rule="evenodd" stroke="none"/>
    <path d="M118.1 0.0 L-117.75 0.0 -116.25 -4.75 119.6 -4.75 118.1 0.0" fill="url(#gradient2)" fill-rule="evenodd" stroke="none"/>
    <path d="M118.1 0.0 L116.65 4.75 -119.15 4.75 -117.75 0.0 118.1 0.0" fill="url(#gradient3)" fill-rule="evenodd" stroke="none"/>
  </g>
  <defs>
    <linearGradient gradientTransform="matrix(-0.1476, 0.0, -0.0065, 0.0094, 2.95, -0.05)" gradientUnits="userSpaceOnUse" id="gradient0" spreadMethod="pad" x1="-819.2" x2="819.2">
      <stop offset="0.0" stop-color="#f87907"/>
      <stop offset="1.0" stop-color="#fefb00"/>
    </linearGradient>
    <linearGradient gradientTransform="matrix(-0.1476, 0.0, -0.0065, 0.0094, 2.95, -0.05)" gradientUnits="userSpaceOnUse" id="gradient1" spreadMethod="pad" x1="-819.2" x2="819.2">
      <stop offset="0.0" stop-color="#ff6600"/>
      <stop offset="1.0" stop-color="#ffcc00"/>
    </linearGradient>
    <linearGradient gradientTransform="matrix(0.1476, 0.0, 0.0065, -0.0094, 8.5, -7.7)" gradientUnits="userSpaceOnUse" id="gradient2" spreadMethod="pad" x1="-819.2" x2="819.2">
      <stop offset="0.0" stop-color="#ff9900"/>
      <stop offset="1.0" stop-color="#ffff99"/>
    </linearGradient>
    <linearGradient gradientTransform="matrix(0.1476, 0.0, 0.0065, -0.0094, -2.2, 7.75)" gradientUnits="userSpaceOnUse" id="gradient3" spreadMethod="pad" x1="-819.2" x2="819.2">
      <stop offset="0.0" stop-color="#f87907"/>
      <stop offset="1.0" stop-color="#fefb00"/>
    </linearGradient>
  </defs>
</svg>
