<?xml version="1.0" encoding="UTF-8" standalone="no"?>
<svg xmlns:xlink="http://www.w3.org/1999/xlink" height="144.1px" width="239.35px" xmlns="http://www.w3.org/2000/svg">
  <g transform="matrix(1.0, 0.0, 0.0, 1.0, 1.0, 1.0)">
    <path d="M236.65 7.55 L236.65 54.6 Q236.4 60.85 230.2 61.1 L207.5 61.1 221.3 67.4 Q228.4 72.75 232.35 79.85 L232.4 79.95 Q236.8 87.85 237.3 98.0 L237.35 100.0 237.15 105.15 Q236.35 113.9 232.15 121.15 224.8 133.9 207.05 142.1 L46.65 142.1 25.95 100.6 Q24.5 95.15 29.25 94.7 L41.3 94.65 18.0 47.7 4.25 47.7 Q0.15 47.6 0.0 43.55 L0.0 4.15 Q0.35 0.5 3.9 0.0 L43.15 0.0 46.15 2.3 46.15 0.15 123.45 0.15 Q128.1 0.35 128.25 4.4 L128.25 22.55 Q138.3 5.7 159.05 0.7 L230.2 0.7 Q236.35 1.2 236.65 7.55 M121.4 87.1 L124.5 87.1 124.5 82.75 Q124.7 78.7 128.8 78.55 L138.25 78.55 Q125.55 69.9 121.4 54.15 L121.4 87.1 Z" fill="none" stroke="#4ce8f7" stroke-linecap="butt" stroke-linejoin="miter-clip" stroke-miterlimit="3.0" stroke-width="2.0"/>
  </g>
</svg>
