<?xml version="1.0" encoding="UTF-8" standalone="no"?>
<svg xmlns:xlink="http://www.w3.org/1999/xlink" height="147.15px" width="180.8px" xmlns="http://www.w3.org/2000/svg">
  <g transform="matrix(1.0, 0.0, 0.0, 1.0, 90.4, 73.6)">
    <path d="M53.3 -39.55 L-52.25 -39.55 -56.3 -39.0 Q-60.1 -37.9 -61.45 -34.35 -62.25 -32.35 -62.25 -29.55 L-62.25 31.0 Q-62.25 41.0 -52.25 41.0 L53.3 41.0 Q57.45 41.0 59.85 39.3 63.3 36.85 63.3 31.0 L63.3 -29.55 Q63.3 -39.55 53.3 -39.55 M63.9 -52.05 Q90.4 -30.5 90.4 0.0 90.4 30.5 63.9 52.0 37.45 73.55 0.0 73.55 -37.5 73.55 -63.95 52.0 -90.4 30.5 -90.4 0.0 -90.4 -30.5 -63.95 -52.05 -37.5 -73.6 0.0 -73.6 37.45 -73.6 63.9 -52.05" fill="url(#gradient0)" fill-rule="evenodd" stroke="none"/>
  </g>
  <defs>
    <radialGradient cx="0" cy="0" gradientTransform="matrix(0.1092, 0.0, 0.0, 0.0905, 0.0, 0.0)" gradientUnits="userSpaceOnUse" id="gradient0" r="819.2" spreadMethod="pad">
      <stop offset="0.24705882352941178" stop-color="#ffffff"/>
      <stop offset="0.6627450980392157" stop-color="#33ffff" stop-opacity="0.4392157"/>
      <stop offset="1.0" stop-color="#33ffcc" stop-opacity="0.0"/>
    </radialGradient>
  </defs>
</svg>
