<?xml version="1.0" encoding="UTF-8" standalone="no"?>
<svg xmlns:xlink="http://www.w3.org/1999/xlink" height="26.35px" width="24.05px" xmlns="http://www.w3.org/2000/svg">
  <g transform="matrix(1.0, 0.0, 0.0, 1.0, 3.55, 3.7)">
    <path d="M2.0 10.3 L3.7 5.5 4.6 3.95 5.25 3.05 6.0 2.25 6.95 1.55 Q7.55 1.1 8.35 0.8 L9.6 0.45 11.35 0.35 12.45 0.35 13.9 0.35 14.9 0.75 15.6 1.25 16.25 2.0 16.5 3.0 16.5 3.8 16.4 4.6 16.1 5.6 14.4 10.3 10.55 10.3 11.75 6.95 12.05 5.6 12.05 4.6 11.55 4.25 10.6 3.95 10.05 3.95 9.25 4.15 8.55 4.6 8.0 5.15 Q7.6 5.5 7.25 6.65 L5.9 10.3 2.0 10.3" fill="url(#gradient0)" fill-rule="evenodd" stroke="none"/>
    <path d="M14.4 10.3 L13.55 12.7 12.85 14.25 12.1 15.5 11.2 16.65 10.4 17.3 9.45 17.85 8.4 18.2 7.45 18.45 6.15 18.55 5.1 18.65 3.8 18.55 2.65 18.3 1.85 18.0 1.15 17.4 0.7 16.55 Q0.4 16.05 0.5 15.3 L0.7 13.95 1.1 12.7 2.0 10.3 5.9 10.3 5.5 11.35 5.05 12.7 Q4.9 13.35 5.1 13.8 L5.7 14.4 6.9 14.6 7.0 14.6 8.15 14.3 8.9 13.7 9.6 12.5 10.1 11.45 10.55 10.3 14.4 10.3" fill="url(#gradient1)" fill-rule="evenodd" stroke="none"/>
    <path d="M2.0 10.3 L3.7 5.5 4.6 3.95 5.25 3.05 6.0 2.25 6.95 1.55 Q7.55 1.1 8.35 0.8 L9.6 0.45 11.35 0.35 12.45 0.35 13.9 0.35 14.9 0.75 15.6 1.25 16.25 2.0 16.5 3.0 16.5 3.8 16.4 4.6 16.1 5.6 14.4 10.3 13.55 12.7 12.85 14.25 12.1 15.5 11.2 16.65 10.4 17.3 9.45 17.85 8.4 18.2 7.45 18.45 6.15 18.55 5.1 18.65 3.8 18.55 2.65 18.3 1.85 18.0 1.15 17.4 0.7 16.55 Q0.4 16.05 0.5 15.3 L0.7 13.95 1.1 12.7 2.0 10.3 5.9 10.3 7.25 6.65 Q7.6 5.5 8.0 5.15 L8.55 4.6 9.25 4.15 10.05 3.95 10.6 3.95 11.55 4.25 12.05 4.6 12.05 5.6 11.75 6.95 10.55 10.3 14.4 10.3 M5.9 10.3 L5.5 11.35 5.05 12.7 Q4.9 13.35 5.1 13.8 L5.7 14.4 6.9 14.6 7.0 14.6 8.15 14.3 8.9 13.7 9.6 12.5 10.1 11.45 10.55 10.3" fill="none" stroke="#722c01" stroke-linecap="round" stroke-linejoin="round" stroke-width="8.0"/>
    <path d="M2.0 10.3 L3.7 5.5 4.6 3.95 5.25 3.05 6.0 2.25 6.95 1.55 Q7.55 1.1 8.35 0.8 L9.6 0.45 11.35 0.35 12.45 0.35 13.9 0.35 14.9 0.75 15.6 1.25 16.25 2.0 16.5 3.0 16.5 3.8 16.4 4.6 16.1 5.6 14.4 10.3 10.55 10.3 11.75 6.95 12.05 5.6 12.05 4.6 11.55 4.25 10.6 3.95 10.05 3.95 9.25 4.15 8.55 4.6 8.0 5.15 Q7.6 5.5 7.25 6.65 L5.9 10.3 2.0 10.3" fill="url(#gradient2)" fill-rule="evenodd" stroke="none"/>
    <path d="M14.4 10.3 L13.55 12.7 12.85 14.25 12.1 15.5 11.2 16.65 10.4 17.3 9.45 17.85 8.4 18.2 7.45 18.45 6.15 18.55 5.1 18.65 3.8 18.55 2.65 18.3 1.85 18.0 1.15 17.4 0.7 16.55 Q0.4 16.05 0.5 15.3 L0.7 13.95 1.1 12.7 2.0 10.3 5.9 10.3 5.5 11.35 5.05 12.7 Q4.9 13.35 5.1 13.8 L5.7 14.4 6.9 14.6 7.0 14.6 8.15 14.3 8.9 13.7 9.6 12.5 10.1 11.45 10.55 10.3 14.4 10.3" fill="url(#gradient3)" fill-rule="evenodd" stroke="none"/>
    <path d="M2.0 10.3 L3.7 5.5 4.6 3.95 5.25 3.05 6.0 2.25 6.95 1.55 Q7.55 1.1 8.35 0.8 L9.6 0.45 11.35 0.35 12.45 0.35 13.9 0.35 14.9 0.75 15.6 1.25 16.25 2.0 16.5 3.0 16.5 3.8 16.4 4.6 16.1 5.6 14.4 10.3 13.55 12.7 12.85 14.25 12.1 15.5 11.2 16.65 10.4 17.3 9.45 17.85 8.4 18.2 7.45 18.45 6.15 18.55 5.1 18.65 3.8 18.55 2.65 18.3 1.85 18.0 1.15 17.4 0.7 16.55 Q0.4 16.05 0.5 15.3 L0.7 13.95 1.1 12.7 2.0 10.3 5.9 10.3 7.25 6.65 Q7.6 5.5 8.0 5.15 L8.55 4.6 9.25 4.15 10.05 3.95 10.6 3.95 11.55 4.25 12.05 4.6 12.05 5.6 11.75 6.95 10.55 10.3 14.4 10.3 M5.9 10.3 L5.5 11.35 5.05 12.7 Q4.9 13.35 5.1 13.8 L5.7 14.4 6.9 14.6 7.0 14.6 8.15 14.3 8.9 13.7 9.6 12.5 10.1 11.45 10.55 10.3" fill="none" stroke="#ff7000" stroke-linecap="round" stroke-linejoin="round" stroke-width="3.0"/>
    <path d="M2.0 10.3 L3.7 5.5 4.6 3.95 5.25 3.05 6.0 2.25 6.95 1.55 Q7.55 1.1 8.35 0.8 L9.6 0.45 11.35 0.35 12.45 0.35 13.9 0.35 14.9 0.75 15.6 1.25 16.25 2.0 16.5 3.0 16.5 3.8 16.4 4.6 16.1 5.6 14.4 10.3 10.55 10.3 11.75 6.95 12.05 5.6 12.05 4.6 11.55 4.25 10.6 3.95 10.05 3.95 9.25 4.15 8.55 4.6 8.0 5.15 Q7.6 5.5 7.25 6.65 L5.9 10.3 2.0 10.3" fill="url(#gradient4)" fill-rule="evenodd" stroke="none"/>
    <path d="M14.4 10.3 L13.55 12.7 12.85 14.25 12.1 15.5 11.2 16.65 10.4 17.3 9.45 17.85 8.4 18.2 7.45 18.45 6.15 18.55 5.1 18.65 3.8 18.55 2.65 18.3 1.85 18.0 1.15 17.4 0.7 16.55 Q0.4 16.05 0.5 15.3 L0.7 13.95 1.1 12.7 2.0 10.3 5.9 10.3 5.5 11.35 5.05 12.7 Q4.9 13.35 5.1 13.8 L5.7 14.4 6.9 14.6 7.0 14.6 8.15 14.3 8.9 13.7 9.6 12.5 10.1 11.45 10.55 10.3 14.4 10.3" fill="url(#gradient5)" fill-rule="evenodd" stroke="none"/>
  </g>
  <defs>
    <linearGradient gradientTransform="matrix(0.0, 0.0057, -0.057, 0.0, -30.15, 5.3)" gradientUnits="userSpaceOnUse" id="gradient0" spreadMethod="pad" x1="-819.2" x2="819.2">
      <stop offset="0.37254901960784315" stop-color="#fff7d2"/>
      <stop offset="1.0" stop-color="#ffe000"/>
    </linearGradient>
    <linearGradient gradientTransform="matrix(0.0, 0.0051, -0.0588, 0.0, -33.75, 14.45)" gradientUnits="userSpaceOnUse" id="gradient1" spreadMethod="pad" x1="-819.2" x2="819.2">
      <stop offset="0.00392156862745098" stop-color="#ff7e00"/>
      <stop offset="0.011764705882352941" stop-color="#ff8c00"/>
      <stop offset="1.0" stop-color="#f3ff00"/>
    </linearGradient>
    <linearGradient gradientTransform="matrix(0.0, 0.0057, -0.057, 0.0, -30.15, 5.3)" gradientUnits="userSpaceOnUse" id="gradient2" spreadMethod="pad" x1="-819.2" x2="819.2">
      <stop offset="0.37254901960784315" stop-color="#fff7d2"/>
      <stop offset="1.0" stop-color="#ffe000"/>
    </linearGradient>
    <linearGradient gradientTransform="matrix(0.0, 0.0051, -0.0588, 0.0, -33.75, 14.45)" gradientUnits="userSpaceOnUse" id="gradient3" spreadMethod="pad" x1="-819.2" x2="819.2">
      <stop offset="0.00392156862745098" stop-color="#ff7e00"/>
      <stop offset="0.011764705882352941" stop-color="#ff8c00"/>
      <stop offset="1.0" stop-color="#f3ff00"/>
    </linearGradient>
    <linearGradient gradientTransform="matrix(0.0, 0.0057, -0.057, 0.0, -30.15, 5.3)" gradientUnits="userSpaceOnUse" id="gradient4" spreadMethod="pad" x1="-819.2" x2="819.2">
      <stop offset="0.37254901960784315" stop-color="#fff7d2"/>
      <stop offset="1.0" stop-color="#ffe000"/>
    </linearGradient>
    <linearGradient gradientTransform="matrix(0.0, 0.0051, -0.0588, 0.0, -33.75, 14.45)" gradientUnits="userSpaceOnUse" id="gradient5" spreadMethod="pad" x1="-819.2" x2="819.2">
      <stop offset="0.00392156862745098" stop-color="#ff7e00"/>
      <stop offset="0.011764705882352941" stop-color="#ff8c00"/>
      <stop offset="1.0" stop-color="#f3ff00"/>
    </linearGradient>
  </defs>
</svg>
