<?xml version="1.0" encoding="UTF-8" standalone="no"?>
<svg xmlns:xlink="http://www.w3.org/1999/xlink" height="26.45px" width="17.45px" xmlns="http://www.w3.org/2000/svg">
  <g transform="matrix(1.0, 0.0, 0.0, 1.0, -0.2, 3.85)">
    <path d="M10.0 0.15 L10.0 11.5 9.85 12.05 6.3 12.05 8.9 3.95 6.1 3.95 7.3 0.15 10.0 0.15" fill="#8a7a2e" fill-rule="evenodd" stroke="none"/>
    <path d="M4.2 18.6 L7.7 18.6 13.65 0.15 7.3 0.15 6.1 3.95 8.9 3.95 4.2 18.6 Z" fill="none" stroke="#722c01" stroke-linecap="round" stroke-linejoin="round" stroke-width="8.0"/>
    <path d="M4.2 18.6 L7.7 18.6 13.6 0.15 7.3 0.15 6.1 3.95 8.9 3.95 4.2 18.6 Z" fill="none" stroke="#ff7000" stroke-linecap="round" stroke-linejoin="round" stroke-width="3.0"/>
    <path d="M7.05 9.75 L8.9 3.95 6.1 3.95 7.3 0.15 13.65 0.15 10.55 9.75 7.05 9.75" fill="url(#gradient0)" fill-rule="evenodd" stroke="none"/>
    <path d="M7.05 9.75 L10.55 9.75 7.7 18.6 4.2 18.6 7.05 9.75" fill="url(#gradient1)" fill-rule="evenodd" stroke="none"/>
  </g>
  <defs>
    <linearGradient gradientTransform="matrix(0.0, 0.0039, -0.0035, 0.0, 114.2, 5.75)" gradientUnits="userSpaceOnUse" id="gradient0" spreadMethod="pad" x1="-819.2" x2="819.2">
      <stop offset="0.37254901960784315" stop-color="#fff7d2"/>
      <stop offset="1.0" stop-color="#ffe000"/>
    </linearGradient>
    <linearGradient gradientTransform="matrix(0.0, 0.0047, -0.0035, 0.0, 82.75, 12.85)" gradientUnits="userSpaceOnUse" id="gradient1" spreadMethod="pad" x1="-819.2" x2="819.2">
      <stop offset="0.00392156862745098" stop-color="#ff7e00"/>
      <stop offset="0.011764705882352941" stop-color="#ff8c00"/>
      <stop offset="1.0" stop-color="#f3ff00"/>
    </linearGradient>
  </defs>
</svg>
