<?xml version="1.0" encoding="UTF-8" standalone="no"?>
<svg xmlns:xlink="http://www.w3.org/1999/xlink" height="26.7px" width="25.3px" xmlns="http://www.w3.org/2000/svg">
  <g transform="matrix(1.0, 0.0, 0.0, 1.0, 3.75, 3.95)">
    <path d="M9.55 3.85 L13.75 0.0 15.7 0.0 15.7 5.7 14.65 9.1 11.2 9.1 12.6 4.9 9.55 7.8 9.55 3.85" fill="#8a7a2e" fill-rule="evenodd" stroke="none"/>
    <path d="M10.3 11.95 L5.2 11.95 12.6 4.9 10.3 11.95 M13.7 11.95 L17.55 0.05 13.75 0.05 1.9 10.9 0.25 16.05 8.95 16.05 8.1 18.75 11.55 18.65 12.35 16.05 13.8 16.05 15.15 11.95 13.7 11.95 Z" fill="none" stroke="#722c01" stroke-linecap="round" stroke-linejoin="round" stroke-width="8.0"/>
    <path d="M10.25 11.95 L5.2 11.95 12.6 4.9 10.25 11.95 M13.7 11.95 L17.55 0.0 13.75 0.0 1.9 10.85 0.25 16.05 8.95 16.05 8.1 18.75 11.55 18.65 12.35 16.05 13.8 16.05 15.15 11.95 13.7 11.95 Z" fill="none" stroke="#ff7000" stroke-linecap="round" stroke-linejoin="round" stroke-width="3.0"/>
    <path d="M2.85 10.0 L7.25 10.0 5.2 11.95 10.3 11.95 10.9 10.0 14.35 10.0 13.7 11.95 15.15 11.95 13.8 16.05 12.35 16.05 11.55 18.65 8.1 18.75 8.95 16.05 0.25 16.05 1.9 10.9 2.85 10.0" fill="url(#gradient0)" fill-rule="evenodd" stroke="none"/>
    <path d="M2.85 10.0 L13.75 0.05 17.55 0.05 14.35 10.0 10.9 10.0 12.6 4.9 7.25 10.0 2.85 10.0" fill="url(#gradient1)" fill-rule="evenodd" stroke="none"/>
  </g>
  <defs>
    <linearGradient gradientTransform="matrix(0.0, 0.0047, -0.0035, 0.0, 37.5, 13.1)" gradientUnits="userSpaceOnUse" id="gradient0" spreadMethod="pad" x1="-819.2" x2="819.2">
      <stop offset="0.00392156862745098" stop-color="#ff7e00"/>
      <stop offset="0.011764705882352941" stop-color="#ff8c00"/>
      <stop offset="1.0" stop-color="#f3ff00"/>
    </linearGradient>
    <linearGradient gradientTransform="matrix(0.0, 0.0039, -0.0035, 0.0, 68.95, 6.0)" gradientUnits="userSpaceOnUse" id="gradient1" spreadMethod="pad" x1="-819.2" x2="819.2">
      <stop offset="0.37254901960784315" stop-color="#fff7d2"/>
      <stop offset="1.0" stop-color="#ffe000"/>
    </linearGradient>
  </defs>
</svg>
