<?xml version="1.0" encoding="UTF-8" standalone="no"?>
<svg xmlns:xlink="http://www.w3.org/1999/xlink" height="31.9px" width="27.1px" xmlns="http://www.w3.org/2000/svg">
  <g transform="matrix(1.0, 0.0, 0.0, 1.0, 1.75, 1.75)">
    <path d="M21.1 1.9 Q20.45 1.25 19.1 1.3 18.0 1.3 17.45 2.15 L1.35 26.2 Q0.9 26.8 1.55 27.45 2.2 28.05 3.5 28.05 4.55 28.05 5.05 27.25 L21.2 3.2 Q21.6 2.5 21.1 1.9 M22.0 18.15 Q20.35 16.6 17.7 16.6 14.9 16.6 13.4 18.1 11.8 19.7 11.8 22.5 11.8 25.5 13.65 27.15 14.95 28.35 17.7 28.4 20.55 28.4 22.0 27.0 23.6 25.5 23.6 22.5 23.6 19.7 22.0 18.15 M10.2 1.5 Q8.55 0.0 5.9 0.0 2.95 0.0 1.5 1.45 0.0 3.0 0.0 5.85 0.0 8.85 1.85 10.5 3.15 11.7 5.9 11.75 8.7 11.75 10.2 10.35 11.8 8.85 11.8 5.85 11.8 3.05 10.2 1.5 M7.15 3.35 Q7.65 4.1 7.7 5.85 7.7 7.55 7.1 8.35 6.65 9.0 5.9 9.05 5.1 9.05 4.65 8.35 4.1 7.55 4.1 5.85 4.1 4.15 4.5 3.35 5.0 2.7 5.9 2.7 6.65 2.7 7.15 3.35 M19.5 22.5 Q19.5 24.2 18.95 25.0 18.5 25.65 17.7 25.7 16.95 25.7 16.5 25.0 15.9 24.2 15.9 22.5 15.9 20.8 16.35 20.05 16.85 19.3 17.7 19.3 18.5 19.3 19.0 20.0 19.45 20.7 19.5 22.5 Z" fill="none" stroke="#003366" stroke-linecap="butt" stroke-linejoin="miter-clip" stroke-miterlimit="3.0" stroke-width="3.5"/>
    <path d="M16.35 20.05 Q15.9 20.8 15.9 22.5 15.9 24.2 16.5 25.0 16.95 25.7 17.7 25.7 18.5 25.65 18.95 25.0 19.5 24.2 19.5 22.5 19.45 20.7 19.0 20.0 18.5 19.3 17.7 19.3 16.85 19.3 16.35 20.05 M7.15 3.35 Q6.65 2.7 5.9 2.7 5.0 2.7 4.5 3.35 4.1 4.15 4.1 5.85 4.1 7.55 4.65 8.35 5.1 9.05 5.9 9.05 6.65 9.0 7.1 8.35 7.7 7.55 7.7 5.85 7.65 4.1 7.15 3.35 M11.8 5.85 Q11.8 8.85 10.2 10.35 8.7 11.75 5.9 11.75 3.15 11.7 1.85 10.5 0.0 8.85 0.0 5.85 0.0 3.0 1.5 1.45 2.95 0.0 5.9 0.0 8.55 0.0 10.2 1.5 11.8 3.05 11.8 5.85 M22.0 18.15 Q23.6 19.7 23.6 22.5 23.6 25.5 22.0 27.0 20.55 28.4 17.7 28.4 14.95 28.35 13.65 27.15 11.8 25.5 11.8 22.5 11.8 19.7 13.4 18.1 14.9 16.6 17.7 16.6 20.35 16.6 22.0 18.15 M21.1 1.9 Q21.6 2.5 21.2 3.2 L5.05 27.25 Q4.55 28.05 3.5 28.05 2.2 28.05 1.55 27.45 0.9 26.8 1.35 26.2 L17.45 2.15 Q18.0 1.3 19.1 1.3 20.45 1.25 21.1 1.9" fill="#00ffff" fill-rule="evenodd" stroke="none"/>
  </g>
</svg>
