<?xml version="1.0" encoding="UTF-8" standalone="no"?>
<svg xmlns:xlink="http://www.w3.org/1999/xlink" height="26.1px" width="26.65px" xmlns="http://www.w3.org/2000/svg">
  <g transform="matrix(1.0, 0.0, 0.0, 1.0, 4.15, 2.55)">
    <path d="M7.2 11.3 L12.5 5.35 4.95 5.35 6.35 1.45 18.5 1.45 17.05 5.5 11.95 11.3 7.2 11.3" fill="url(#gradient0)" fill-rule="evenodd" stroke="none"/>
    <path d="M11.95 11.3 L4.7 19.55 -0.15 19.55 7.2 11.3 11.95 11.3" fill="url(#gradient1)" fill-rule="evenodd" stroke="none"/>
    <path d="M7.2 11.3 L12.5 5.35 4.95 5.35 6.35 1.45 18.5 1.45 17.05 5.5 11.95 11.3 4.7 19.55 -0.15 19.55 7.2 11.3 11.95 11.3" fill="none" stroke="#722c01" stroke-linecap="round" stroke-linejoin="round" stroke-width="8.0"/>
    <path d="M7.2 11.3 L12.5 5.35 4.95 5.35 6.35 1.45 18.5 1.45 17.05 5.5 11.95 11.3 7.2 11.3" fill="url(#gradient2)" fill-rule="evenodd" stroke="none"/>
    <path d="M11.95 11.3 L4.7 19.55 -0.15 19.55 7.2 11.3 11.95 11.3" fill="url(#gradient3)" fill-rule="evenodd" stroke="none"/>
    <path d="M7.2 11.3 L12.5 5.35 4.95 5.35 6.35 1.45 18.5 1.45 17.05 5.5 11.95 11.3 4.7 19.55 -0.15 19.55 7.2 11.3 11.95 11.3" fill="none" stroke="#ff7000" stroke-linecap="round" stroke-linejoin="round" stroke-width="3.0"/>
    <path d="M7.2 11.3 L12.5 5.35 4.95 5.35 6.35 1.45 18.5 1.45 17.05 5.5 11.95 11.3 7.2 11.3" fill="url(#gradient4)" fill-rule="evenodd" stroke="none"/>
    <path d="M11.95 11.3 L4.7 19.55 -0.15 19.55 7.2 11.3 11.95 11.3" fill="url(#gradient5)" fill-rule="evenodd" stroke="none"/>
  </g>
  <defs>
    <linearGradient gradientTransform="matrix(0.0, 0.0057, -0.057, 0.0, 51.65, 6.3)" gradientUnits="userSpaceOnUse" id="gradient0" spreadMethod="pad" x1="-819.2" x2="819.2">
      <stop offset="0.37254901960784315" stop-color="#fff7d2"/>
      <stop offset="1.0" stop-color="#ffe000"/>
    </linearGradient>
    <linearGradient gradientTransform="matrix(0.0, 0.0051, -0.0588, 0.0, 48.05, 15.45)" gradientUnits="userSpaceOnUse" id="gradient1" spreadMethod="pad" x1="-819.2" x2="819.2">
      <stop offset="0.00392156862745098" stop-color="#ff7e00"/>
      <stop offset="0.011764705882352941" stop-color="#ff8c00"/>
      <stop offset="1.0" stop-color="#f3ff00"/>
    </linearGradient>
    <linearGradient gradientTransform="matrix(0.0, 0.0057, -0.057, 0.0, 51.65, 6.3)" gradientUnits="userSpaceOnUse" id="gradient2" spreadMethod="pad" x1="-819.2" x2="819.2">
      <stop offset="0.37254901960784315" stop-color="#fff7d2"/>
      <stop offset="1.0" stop-color="#ffe000"/>
    </linearGradient>
    <linearGradient gradientTransform="matrix(0.0, 0.0051, -0.0588, 0.0, 48.05, 15.45)" gradientUnits="userSpaceOnUse" id="gradient3" spreadMethod="pad" x1="-819.2" x2="819.2">
      <stop offset="0.00392156862745098" stop-color="#ff7e00"/>
      <stop offset="0.011764705882352941" stop-color="#ff8c00"/>
      <stop offset="1.0" stop-color="#f3ff00"/>
    </linearGradient>
    <linearGradient gradientTransform="matrix(0.0, 0.0057, -0.057, 0.0, 51.65, 6.3)" gradientUnits="userSpaceOnUse" id="gradient4" spreadMethod="pad" x1="-819.2" x2="819.2">
      <stop offset="0.37254901960784315" stop-color="#fff7d2"/>
      <stop offset="1.0" stop-color="#ffe000"/>
    </linearGradient>
    <linearGradient gradientTransform="matrix(0.0, 0.0051, -0.0588, 0.0, 48.05, 15.45)" gradientUnits="userSpaceOnUse" id="gradient5" spreadMethod="pad" x1="-819.2" x2="819.2">
      <stop offset="0.00392156862745098" stop-color="#ff7e00"/>
      <stop offset="0.011764705882352941" stop-color="#ff8c00"/>
      <stop offset="1.0" stop-color="#f3ff00"/>
    </linearGradient>
  </defs>
</svg>
