<?xml version="1.0" encoding="UTF-8" standalone="no"?>
<svg xmlns:xlink="http://www.w3.org/1999/xlink" height="22.0px" width="18.8px" xmlns="http://www.w3.org/2000/svg">
  <g transform="matrix(1.0, 0.0, 0.0, 1.0, -1.95, 10.95)">
    <path d="M17.7 -7.85 L17.75 -7.8 17.75 7.9 17.55 8.05 4.95 0.05 17.55 -7.95 17.7 -7.85" fill="#00cc33" fill-rule="evenodd" stroke="none"/>
    <path d="M17.7 -7.85 L17.55 -7.95 4.95 0.05 17.55 8.05 17.75 7.9 17.75 -7.8 17.7 -7.85 Z" fill="none" stroke="url(#gradient0)" stroke-linecap="butt" stroke-linejoin="round" stroke-width="6.0"/>
    <path d="M17.7 -7.9 L17.8 -7.8 17.8 7.9 17.55 8.05 5.0 0.05 17.55 -7.95 17.7 -7.9" fill="#00cc33" fill-rule="evenodd" stroke="none"/>
    <path d="M17.7 -7.9 L17.55 -7.95 5.0 0.05 17.55 8.05 17.8 7.9 17.8 -7.8 17.7 -7.9 Z" fill="none" stroke="#6cfbff" stroke-linecap="butt" stroke-linejoin="round" stroke-width="2.5"/>
    <path d="M17.95 -7.55 L18.05 -7.45 18.05 8.25 17.95 8.25 7.8 0.4 17.95 -7.55" fill="url(#gradient1)" fill-rule="evenodd" stroke="none"/>
    <path d="M17.8 8.4 L5.25 0.4 17.8 -7.6 17.95 -7.55 7.8 0.4 17.95 8.25 17.8 8.4" fill="#e5f4ff" fill-rule="evenodd" stroke="none"/>
    <path d="M18.05 8.25 L17.8 8.4 17.95 8.25 18.05 8.25" fill="#009999" fill-rule="evenodd" stroke="none"/>
  </g>
  <defs>
    <linearGradient gradientTransform="matrix(0.0088, 0.0, 0.0, 0.0088, 11.15, -35.25)" gradientUnits="userSpaceOnUse" id="gradient0" spreadMethod="pad" x1="-819.2" x2="819.2">
      <stop offset="0.17254901960784313" stop-color="#064554"/>
      <stop offset="1.0" stop-color="#38a2b0"/>
    </linearGradient>
    <linearGradient gradientTransform="matrix(0.0064, 0.0, 0.0, 0.0035, 12.1, 8.15)" gradientUnits="userSpaceOnUse" id="gradient1" spreadMethod="pad" x1="-819.2" x2="819.2">
      <stop offset="0.17254901960784313" stop-color="#007087"/>
      <stop offset="1.0" stop-color="#0093af"/>
    </linearGradient>
  </defs>
</svg>
