<?xml version="1.0" encoding="UTF-8" standalone="no"?>
<svg xmlns:xlink="http://www.w3.org/1999/xlink" height="30.0px" width="30.0px" xmlns="http://www.w3.org/2000/svg">
  <g transform="matrix(1.0, 0.0, 0.0, 1.0, 0.0, 0.0)">
    <path d="M0.0 26.7 L0.0 3.3 Q0.0 0.0 3.3 0.0 L26.7 0.0 Q30.0 0.0 30.0 3.3 L30.0 26.7 Q30.0 30.0 26.7 30.0 L3.3 30.0 Q0.0 30.0 0.0 26.7" fill="#cb2c1b" fill-rule="evenodd" stroke="none"/>
    <path d="M19.05 17.35 L23.35 17.35 Q20.25 22.65 15.0 26.5 L13.45 25.3 Q9.15 21.65 6.65 17.35 L10.85 17.35 10.85 3.5 19.05 3.5 19.05 17.35 Z" fill="none" stroke="#ffffff" stroke-linecap="round" stroke-linejoin="round" stroke-width="3.5"/>
    <path d="M17.2 3.5 L19.05 3.5 19.05 17.35 23.35 17.35 Q20.25 22.65 15.0 26.5 L17.65 22.55 19.9 18.75 17.3 18.75 17.3 15.45 17.2 3.5" fill="#a01e16" fill-rule="evenodd" stroke="none"/>
    <path d="M12.6 3.5 L17.2 3.5 17.3 15.45 17.3 18.75 19.9 18.75 17.65 22.55 15.0 26.5 13.45 25.3 Q11.85 23.55 15.0 26.5 L12.65 23.4 Q12.95 23.7 13.4 23.7 13.8 23.7 13.8 23.3 L12.55 21.3 Q11.2 19.65 11.2 21.2 L11.6 21.95 Q10.0 19.7 9.85 18.65 L12.6 18.65 12.6 3.5" fill="#cb2c1b" fill-rule="evenodd" stroke="none"/>
    <path d="M13.45 25.3 Q9.15 21.65 6.65 17.35 L10.85 17.35 10.85 3.5 12.6 3.5 12.6 18.65 9.85 18.65 Q10.0 19.7 11.6 21.95 L11.85 22.45 12.65 23.4 15.0 26.5 Q11.85 23.55 13.45 25.3" fill="#ee6c6c" fill-rule="evenodd" stroke="none"/>
    <path d="M12.65 23.4 L11.85 22.45 11.6 21.95 11.2 21.2 Q11.2 19.65 12.55 21.3 L13.8 23.3 Q13.8 23.7 13.4 23.7 12.95 23.7 12.65 23.4" fill="#ffffff" fill-rule="evenodd" stroke="none"/>
    <path d="M13.45 25.3 Q9.15 21.65 6.65 17.35 L10.85 17.35 10.85 3.5 12.6 3.5 17.2 3.5 19.05 3.5 19.05 17.35 23.35 17.35 Q20.25 22.65 15.0 26.5 L13.45 25.3 Z" fill="none" stroke="#6d0101" stroke-linecap="round" stroke-linejoin="round" stroke-width="1.0"/>
  </g>
</svg>
