<?xml version="1.0" encoding="UTF-8" standalone="no"?>
<svg xmlns:xlink="http://www.w3.org/1999/xlink" height="31.45px" width="83.1px" xmlns="http://www.w3.org/2000/svg">
  <g transform="matrix(1.0, 0.0, 0.0, 1.0, 0.75, 0.75)">
    <path d="M81.6 3.75 L81.6 26.2 Q81.6 28.4 79.85 29.3 78.65 29.95 76.6 29.95 L4.95 29.95 Q0.0 29.95 0.0 26.2 L0.0 3.75 Q0.0 2.7 0.35 1.95 1.05 0.6 2.95 0.2 L4.95 0.0 76.6 0.0 Q81.6 0.0 81.6 3.75" fill="#070a1b" fill-rule="evenodd" stroke="none"/>
    <path d="M81.6 3.75 Q81.6 0.0 76.6 0.0 L4.95 0.0 2.95 0.2 Q1.05 0.6 0.35 1.95 0.0 2.7 0.0 3.75 L0.0 26.2 Q0.0 29.95 4.95 29.95 L76.6 29.95 Q78.65 29.95 79.85 29.3 81.6 28.4 81.6 26.2 L81.6 3.75 Z" fill="none" stroke="url(#gradient0)" stroke-linecap="round" stroke-linejoin="round" stroke-width="1.5"/>
    <path d="M80.3 25.65 Q80.3 29.6 75.7 29.6 L58.2 29.6 Q78.85 26.15 80.3 3.8 L80.3 25.65" fill="url(#gradient1)" fill-rule="evenodd" stroke="none"/>
    <path d="M1.25 4.65 Q0.45 0.1 6.45 0.25 L43.4 0.25 Q6.5 3.4 1.25 27.15 L1.25 4.65" fill="url(#gradient2)" fill-rule="evenodd" stroke="none"/>
    <path d="M60.9 24.1 L57.1 24.1 Q56.05 24.1 55.35 23.35 L53.55 21.1 57.1 21.1 57.85 21.9 58.8 22.15 60.9 22.15 60.9 24.1 M60.9 20.7 L43.2 20.7 43.2 18.6 44.1 18.6 44.1 6.2 60.05 6.2 60.05 18.6 60.9 18.6 60.9 20.7 M57.3 8.45 L46.85 8.45 46.85 9.3 57.3 9.3 57.3 8.45 M46.85 15.35 L57.3 15.35 57.3 14.5 46.85 14.5 46.85 15.35 M45.3 22.15 L45.95 21.9 46.7 21.1 50.2 21.1 48.5 23.4 Q47.9 24.15 46.6 24.15 L43.2 24.15 43.2 22.15 45.3 22.15 M46.85 18.6 L57.3 18.6 57.3 17.75 46.85 17.75 46.85 18.6 M46.85 12.4 L57.3 12.4 57.3 11.45 46.85 11.45 46.85 12.4 M34.9 7.45 L36.9 7.45 36.9 9.55 31.4 9.55 31.3 10.35 36.5 10.35 36.5 19.25 Q36.5 21.05 34.4 21.05 L23.45 21.05 23.45 10.35 28.2 10.35 28.3 9.55 23.1 9.55 23.1 7.45 25.2 7.45 24.65 6.1 27.75 6.1 28.3 7.45 31.75 7.45 32.3 6.1 35.4 6.1 34.9 7.45 M22.4 9.8 L19.55 9.8 19.55 6.35 22.4 6.35 22.4 9.8 M20.4 24.0 L19.2 24.0 19.2 21.9 19.3 21.9 Q19.9 21.9 19.9 21.45 L19.9 12.9 19.2 12.9 19.2 10.65 22.45 10.65 22.45 21.05 Q22.45 21.8 23.45 21.8 L36.9 21.8 36.9 24.1 23.15 24.1 Q22.4 24.1 21.9 23.4 21.45 24.0 20.4 24.0 M26.35 18.95 L33.1 18.95 Q33.6 18.95 33.6 18.2 L33.6 18.15 26.35 18.15 26.35 18.95 M26.35 13.3 L33.6 13.3 33.6 12.45 26.35 12.45 26.35 13.3 M26.35 16.1 L33.6 16.1 33.6 15.35 26.35 15.35 26.35 16.1" fill="#52e5f9" fill-rule="evenodd" stroke="none"/>
  </g>
  <defs>
    <linearGradient gradientTransform="matrix(0.0, 0.0184, -0.0192, 0.0, 40.8, 14.95)" gradientUnits="userSpaceOnUse" id="gradient0" spreadMethod="pad" x1="-819.2" x2="819.2">
      <stop offset="0.0" stop-color="#41ffff" stop-opacity="0.8"/>
      <stop offset="1.0" stop-color="#305c69" stop-opacity="0.8"/>
    </linearGradient>
    <linearGradient gradientTransform="matrix(-0.0137, -0.0079, -0.0234, 0.0224, 70.75, 33.8)" gradientUnits="userSpaceOnUse" id="gradient1" spreadMethod="pad" x1="-819.2" x2="819.2">
      <stop offset="0.0" stop-color="#ccffff" stop-opacity="0.29803923"/>
      <stop offset="1.0" stop-color="#d6d6d6" stop-opacity="0.0"/>
    </linearGradient>
    <linearGradient gradientTransform="matrix(0.022, 0.0164, 0.027, -0.02, 14.4, 1.0)" gradientUnits="userSpaceOnUse" id="gradient2" spreadMethod="pad" x1="-819.2" x2="819.2">
      <stop offset="0.0" stop-color="#ccffff" stop-opacity="0.29803923"/>
      <stop offset="1.0" stop-color="#d6d6d6" stop-opacity="0.0"/>
    </linearGradient>
  </defs>
</svg>
