<?xml version="1.0" encoding="UTF-8" standalone="no"?>
<svg xmlns:xlink="http://www.w3.org/1999/xlink" height="17.0px" width="52.95px" xmlns="http://www.w3.org/2000/svg">
  <g transform="matrix(1.0, 0.0, 0.0, 1.0, 0.0, 0.0)">
    <path d="M34.5 12.75 Q9.3 12.65 0.0 0.0 L28.35 0.0 24.25 0.55 Q17.4 1.75 16.55 4.9 28.9 5.65 35.9 12.8 L34.5 12.75" fill="url(#gradient0)" fill-rule="evenodd" stroke="none"/>
    <path d="M52.95 17.0 Q45.35 13.35 35.9 12.8 28.9 5.65 16.55 4.9 17.4 1.75 24.25 0.55 31.8 1.8 38.0 5.05 L29.8 4.7 29.75 4.7 28.1 5.05 Q34.7 6.6 40.9 9.6 L40.95 9.6 Q47.15 12.6 52.95 17.0" fill="#334e57" fill-rule="evenodd" stroke="none"/>
  </g>
  <defs>
    <linearGradient gradientTransform="matrix(0.0212, 0.0057, -0.002, 0.0076, 17.95, 6.4)" gradientUnits="userSpaceOnUse" id="gradient0" spreadMethod="pad" x1="-819.2" x2="819.2">
      <stop offset="0.0" stop-color="#2f424f"/>
      <stop offset="1.0" stop-color="#334957"/>
    </linearGradient>
  </defs>
</svg>
