<?xml version="1.0" encoding="UTF-8" standalone="no"?>
<svg xmlns:xlink="http://www.w3.org/1999/xlink" height="43.35px" width="43.4px" xmlns="http://www.w3.org/2000/svg">
  <g transform="matrix(1.0, 0.0, 0.0, 1.0, -58.45, 3.0)">
    <path d="M100.85 18.7 Q100.85 27.25 94.75 33.3 88.65 39.35 80.2 39.35 71.6 39.35 65.45 33.3 59.45 27.25 59.45 18.7 59.45 10.15 65.45 4.05 71.6 -2.0 80.2 -2.0 88.65 -2.0 94.75 4.05 100.85 10.15 100.85 18.7 Z" fill="none" stroke="#660000" stroke-linecap="round" stroke-linejoin="round" stroke-width="2.0"/>
    <path d="M100.85 18.7 Q100.85 27.25 94.75 33.3 88.65 39.35 80.2 39.35 71.6 39.35 65.45 33.3 59.45 27.25 59.45 18.7 59.45 10.15 65.45 4.05 71.6 -2.0 80.2 -2.0 88.65 -2.0 94.75 4.05 100.85 10.15 100.85 18.7 M98.7 18.7 Q98.7 11.0 93.25 5.55 87.85 0.15 80.2 0.15 72.45 0.15 67.0 5.55 61.6 11.0 61.6 18.7 61.6 26.35 67.0 31.8 72.45 37.25 80.2 37.25 87.85 37.25 93.25 31.8 98.7 26.35 98.7 18.7" fill="url(#gradient0)" fill-rule="evenodd" stroke="none"/>
    <path d="M96.85 18.95 Q96.85 25.85 92.0 30.75 87.1 35.65 80.2 35.65 73.25 35.65 68.35 30.75 63.5 25.85 63.5 18.95 63.5 12.05 68.35 7.1 73.25 2.25 80.2 2.25 87.1 2.25 92.0 7.1 96.85 12.05 96.85 18.95" fill="#18355c" fill-rule="evenodd" stroke="none"/>
    <path d="M100.85 18.7 Q100.85 27.25 94.75 33.3 88.65 39.35 80.2 39.35 71.6 39.35 65.45 33.3 59.45 27.25 59.45 18.7 59.45 10.15 65.45 4.05 71.6 -2.0 80.2 -2.0 88.65 -2.0 94.75 4.05 100.85 10.15 100.85 18.7 Z" fill="none" stroke="#660000" stroke-linecap="round" stroke-linejoin="round" stroke-width="1.2000000000000002"/>
    <path d="M94.55 7.35 Q98.5 12.3 98.5 18.85 98.45 26.45 93.1 31.75 87.7 37.05 80.15 37.05 72.5 37.0 67.2 31.65 61.9 26.25 61.95 18.7 62.0 11.05 67.35 5.8 L67.35 5.7 67.85 5.3 Q73.05 0.45 80.3 0.5 87.9 0.5 93.2 5.9 L94.55 7.35" fill="url(#gradient1)" fill-rule="evenodd" stroke="none"/>
  </g>
  <defs>
    <linearGradient gradientTransform="matrix(0.0202, -0.015, 0.015, 0.0202, 80.15, 18.7)" gradientUnits="userSpaceOnUse" id="gradient0" spreadMethod="pad" x1="-819.2" x2="819.2">
      <stop offset="0.0" stop-color="#adbdc5"/>
      <stop offset="0.49411764705882355" stop-color="#ffffff"/>
      <stop offset="1.0" stop-color="#b1c1c8"/>
    </linearGradient>
    <radialGradient cx="0" cy="0" gradientTransform="matrix(0.0223, 1.0E-4, -1.0E-4, 0.0198, 80.2, 15.55)" gradientUnits="userSpaceOnUse" id="gradient1" r="819.2" spreadMethod="pad">
      <stop offset="0.11764705882352941" stop-color="#ffff00"/>
      <stop offset="0.6705882352941176" stop-color="#ffcc00"/>
      <stop offset="1.0" stop-color="#ff9900"/>
    </radialGradient>
  </defs>
</svg>
