<?xml version="1.0" encoding="UTF-8" standalone="no"?>
<svg xmlns:xlink="http://www.w3.org/1999/xlink" height="31.95px" width="83.6px" xmlns="http://www.w3.org/2000/svg">
  <g transform="matrix(1.0, 0.0, 0.0, 1.0, 1.0, 1.0)">
    <path d="M2.75 -0.75 L4.95 -1.0 76.6 -1.0 Q82.7 -1.0 82.6 3.75 L82.6 26.2 Q82.55 29.05 80.3 30.2 L80.35 30.2 Q78.95 30.95 76.6 30.95 L4.95 30.95 Q-1.1 30.95 -1.0 26.2 L-1.0 3.75 Q-1.0 2.45 -0.55 1.55 L-0.55 1.5 Q0.3 -0.25 2.75 -0.75 M80.6 26.2 L80.6 3.75 Q80.5 1.0 76.6 1.0 L4.95 1.0 3.2 1.2 3.15 1.2 Q1.8 1.45 1.25 2.4 1.0 2.95 1.0 3.75 L1.0 26.2 Q1.1 28.95 4.95 28.95 L76.6 28.95 79.4 28.45 79.4 28.4 Q80.65 27.75 80.6 26.2" fill="#00ffff" fill-rule="evenodd" stroke="none"/>
    <path d="M80.6 26.2 Q80.65 27.75 79.4 28.4 L79.4 28.45 76.6 28.95 4.95 28.95 Q1.1 28.95 1.0 26.2 L1.0 3.75 Q1.0 2.95 1.25 2.4 1.8 1.45 3.15 1.2 L3.2 1.2 4.95 1.0 76.6 1.0 Q80.5 1.0 80.6 3.75 L80.6 26.2" fill="#070a1b" fill-rule="evenodd" stroke="none"/>
    <path d="M80.6 4.1 L80.6 25.85 Q80.6 27.7 79.5 28.5 78.8 29.0 77.6 29.05 L77.45 29.05 3.6 29.0 3.5 29.0 Q1.35 28.65 0.85 26.3 L0.85 25.85 0.85 4.1 0.9 3.6 Q1.3 1.55 3.0 1.05 L3.5 0.95 3.6 0.95 77.45 0.95 77.95 0.95 Q80.6 1.2 80.6 4.1" fill="url(#gradient0)" fill-rule="evenodd" stroke="none"/>
    <path d="M60.9 20.7 L43.2 20.7 43.2 18.6 44.1 18.6 44.1 6.2 60.05 6.2 60.05 18.6 60.9 18.6 60.9 20.7 M60.9 24.1 L57.1 24.1 Q56.05 24.1 55.35 23.35 L53.55 21.1 57.1 21.1 57.85 21.9 58.8 22.15 60.9 22.15 60.9 24.1 M57.3 8.45 L46.85 8.45 46.85 9.3 57.3 9.3 57.3 8.45 M46.85 15.35 L57.3 15.35 57.3 14.5 46.85 14.5 46.85 15.35 M45.3 22.15 L45.95 21.9 46.7 21.1 50.2 21.1 48.5 23.4 Q47.9 24.15 46.6 24.15 L43.2 24.15 43.2 22.15 45.3 22.15 M46.85 18.6 L57.3 18.6 57.3 17.75 46.85 17.75 46.85 18.6 M57.3 12.4 L57.3 11.45 46.85 11.45 46.85 12.4 57.3 12.4 M36.5 10.35 L36.5 19.25 Q36.5 21.05 34.4 21.05 L23.45 21.05 23.45 10.35 28.2 10.35 28.3 9.55 23.1 9.55 23.1 7.45 25.2 7.45 24.65 6.1 27.75 6.1 28.3 7.45 31.75 7.45 32.3 6.1 35.4 6.1 34.9 7.45 36.9 7.45 36.9 9.55 31.4 9.55 31.3 10.35 36.5 10.35 M22.4 9.8 L19.55 9.8 19.55 6.35 22.4 6.35 22.4 9.8 M21.9 23.4 Q21.45 24.0 20.4 24.0 L19.2 24.0 19.2 21.9 19.3 21.9 Q19.9 21.9 19.9 21.45 L19.9 12.9 19.2 12.9 19.2 10.65 22.45 10.65 22.45 21.05 Q22.45 21.8 23.45 21.8 L36.9 21.8 36.9 24.1 23.15 24.1 Q22.4 24.1 21.9 23.4 M26.35 18.95 L33.1 18.95 Q33.6 18.95 33.6 18.2 L33.6 18.15 26.35 18.15 26.35 18.95 M26.35 13.3 L33.6 13.3 33.6 12.45 26.35 12.45 26.35 13.3 M26.35 16.1 L33.6 16.1 33.6 15.35 26.35 15.35 26.35 16.1" fill="#52e5f9" fill-rule="evenodd" stroke="none"/>
  </g>
  <defs>
    <linearGradient gradientTransform="matrix(0.0, -0.0172, 0.0487, 0.0, 40.7, 15.0)" gradientUnits="userSpaceOnUse" id="gradient0" spreadMethod="pad" x1="-819.2" x2="819.2">
      <stop offset="0.0" stop-color="#52e5f9" stop-opacity="0.4"/>
      <stop offset="1.0" stop-color="#52e5f9" stop-opacity="0.0"/>
    </linearGradient>
  </defs>
</svg>
