<?xml version="1.0" encoding="UTF-8" standalone="no"?>
<svg xmlns:xlink="http://www.w3.org/1999/xlink" height="74.0px" width="157.2px" xmlns="http://www.w3.org/2000/svg">
  <g transform="matrix(1.0, 0.0, 0.0, 1.0, 1.9, -25.95)">
    <path d="M155.3 91.1 L147.1 99.95 33.75 99.95 25.05 91.1 25.3 34.25 33.5 25.95 60.2 25.95 82.05 48.15 147.1 48.15 155.3 56.5 155.3 91.1" fill="#122369" fill-rule="evenodd" stroke="none"/>
    <path d="M12.3 36.35 L14.2 40.3 12.4 41.1 10.6 37.1 12.3 36.35 M12.85 33.05 Q10.0 38.1 5.85 41.5 L5.85 42.3 Q5.85 43.15 6.9 43.15 L8.35 43.15 Q9.2 43.15 9.55 42.7 9.85 42.35 9.95 40.5 L12.05 41.2 Q11.7 43.65 11.1 44.3 10.4 44.95 8.8 44.95 L6.2 44.95 Q3.95 44.95 3.95 43.0 L1.1 44.7 0.15 42.95 Q2.2 41.95 3.95 40.6 L3.95 34.05 5.85 34.05 5.85 38.95 Q9.0 36.05 11.0 32.2 L12.85 33.05 M4.6 32.3 L5.85 31.1 Q7.4 32.2 9.1 33.75 L7.7 35.1 4.6 32.3 M3.1 35.6 L1.8 41.1 0.0 40.55 Q0.85 38.1 1.3 35.2 L3.1 35.6 M2.9 47.2 Q4.9 47.9 7.25 48.95 9.25 48.0 11.0 46.85 L12.3 48.2 9.45 49.85 13.0 51.35 12.0 53.05 7.35 50.9 2.05 53.0 1.05 51.3 Q3.15 50.7 5.1 49.9 L2.0 48.6 2.9 47.2 M13.0 59.8 L8.9 57.0 9.95 55.6 14.1 58.2 13.0 59.8 M13.55 55.05 L8.25 55.05 8.25 58.75 Q8.25 60.65 6.7 60.7 L4.3 60.75 3.75 58.8 5.65 58.8 Q6.25 58.8 6.25 58.2 L6.25 55.05 0.75 55.05 0.75 53.35 6.25 53.35 6.25 52.05 8.25 52.05 8.25 53.35 13.55 53.35 13.55 55.05 M0.2 58.4 L4.1 55.5 5.4 56.75 1.4 59.9 0.2 58.4 M8.35 64.45 L8.35 62.4 10.4 62.4 10.4 64.45 13.85 64.45 13.85 66.15 10.4 66.15 10.4 67.7 13.5 67.7 13.5 69.4 Q12.65 71.5 11.0 73.1 12.4 73.9 14.15 74.4 L13.05 76.35 Q11.0 75.65 9.4 74.4 7.7 75.55 5.45 76.4 L4.3 74.6 Q6.3 73.95 7.75 73.1 L5.55 70.5 7.2 69.5 Q8.05 70.9 9.3 71.95 10.65 70.85 11.25 69.45 L5.2 69.45 5.2 67.7 8.35 67.7 8.35 66.15 5.25 66.15 5.25 64.45 8.35 64.45 M4.9 64.9 L4.9 66.75 3.7 66.75 3.7 68.85 4.95 68.6 4.9 70.5 3.7 70.75 3.7 74.5 Q3.7 75.4 3.2 75.85 2.75 76.35 0.75 76.35 L0.25 74.4 1.2 74.4 1.7 74.3 1.8 73.75 1.8 71.2 0.3 71.6 0.15 69.6 1.8 69.3 1.8 66.75 0.25 66.75 0.25 64.9 1.8 64.9 1.8 62.4 3.7 62.4 3.7 64.9 4.9 64.9" fill="#160b4e" fill-rule="evenodd" stroke="none"/>
    <path d="M12.3 36.35 L14.2 40.3 12.4 41.1 10.6 37.1 12.3 36.35 M12.85 33.05 Q10.0 38.1 5.85 41.5 L5.85 42.3 Q5.85 43.15 6.9 43.15 L8.35 43.15 Q9.2 43.15 9.55 42.7 9.85 42.35 9.95 40.5 L12.05 41.2 Q11.7 43.65 11.1 44.3 10.4 44.95 8.8 44.95 L6.2 44.95 Q3.95 44.95 3.95 43.0 L1.1 44.7 0.15 42.95 Q2.2 41.95 3.95 40.6 L3.95 34.05 5.85 34.05 5.85 38.95 Q9.0 36.05 11.0 32.2 L12.85 33.05 M4.6 32.3 L5.85 31.1 Q7.4 32.2 9.1 33.75 L7.7 35.1 4.6 32.3 M3.1 35.6 L1.8 41.1 0.0 40.55 Q0.85 38.1 1.3 35.2 L3.1 35.6 M2.9 47.2 Q4.9 47.9 7.25 48.95 9.25 48.0 11.0 46.85 L12.3 48.2 9.45 49.85 13.0 51.35 12.0 53.05 7.35 50.9 2.05 53.0 1.05 51.3 Q3.15 50.7 5.1 49.9 L2.0 48.6 2.9 47.2 M13.0 59.8 L8.9 57.0 9.95 55.6 14.1 58.2 13.0 59.8 M13.55 55.05 L8.25 55.05 8.25 58.75 Q8.25 60.65 6.7 60.7 L4.3 60.75 3.75 58.8 5.65 58.8 Q6.25 58.8 6.25 58.2 L6.25 55.05 0.75 55.05 0.75 53.35 6.25 53.35 6.25 52.05 8.25 52.05 8.25 53.35 13.55 53.35 13.55 55.05 M0.2 58.4 L4.1 55.5 5.4 56.75 1.4 59.9 0.2 58.4 M8.35 64.45 L8.35 62.4 10.4 62.4 10.4 64.45 13.85 64.45 13.85 66.15 10.4 66.15 10.4 67.7 13.5 67.7 13.5 69.4 Q12.65 71.5 11.0 73.1 12.4 73.9 14.15 74.4 L13.05 76.35 Q11.0 75.65 9.4 74.4 7.7 75.55 5.45 76.4 L4.3 74.6 Q6.3 73.95 7.75 73.1 L5.55 70.5 7.2 69.5 Q8.05 70.9 9.3 71.95 10.65 70.85 11.25 69.45 L5.2 69.45 5.2 67.7 8.35 67.7 8.35 66.15 5.25 66.15 5.25 64.45 8.35 64.45 M4.9 64.9 L4.9 66.75 3.7 66.75 3.7 68.85 4.95 68.6 4.9 70.5 3.7 70.75 3.7 74.5 Q3.7 75.4 3.2 75.85 2.75 76.35 0.75 76.35 L0.25 74.4 1.2 74.4 1.7 74.3 1.8 73.75 1.8 71.2 0.3 71.6 0.15 69.6 1.8 69.3 1.8 66.75 0.25 66.75 0.25 64.9 1.8 64.9 1.8 62.4 3.7 62.4 3.7 64.9 4.9 64.9 Z" fill="none" stroke="#160b4e" stroke-linecap="butt" stroke-linejoin="miter-clip" stroke-miterlimit="3.0" stroke-width="3.0"/>
    <path d="M12.3 36.15 L14.2 40.1 12.4 40.9 10.6 36.9 12.3 36.15 M12.85 32.85 Q10.0 37.9 5.85 41.3 L5.85 42.1 Q5.85 42.95 6.9 42.95 L8.35 42.95 Q9.2 42.95 9.55 42.5 9.85 42.15 9.95 40.3 L12.05 41.0 Q11.7 43.45 11.1 44.1 10.4 44.75 8.8 44.75 L6.2 44.75 Q3.95 44.75 3.95 42.8 L1.1 44.5 0.15 42.75 Q2.2 41.75 3.95 40.4 L3.95 33.85 5.85 33.85 5.85 38.75 Q9.0 35.85 11.0 32.0 L12.85 32.85 M4.6 32.1 L5.85 30.9 Q7.4 32.0 9.1 33.55 L7.7 34.9 4.6 32.1 M3.1 35.4 L1.8 40.9 0.0 40.35 Q0.85 37.9 1.3 35.0 L3.1 35.4 M2.9 47.0 Q4.9 47.7 7.25 48.75 9.25 47.8 11.0 46.65 L12.3 48.0 9.45 49.65 13.0 51.15 12.0 52.85 7.35 50.7 2.05 52.8 1.05 51.1 Q3.15 50.5 5.1 49.7 L2.0 48.4 2.9 47.0 M13.0 59.6 L8.9 56.8 9.95 55.4 14.1 58.0 13.0 59.6 M13.55 54.85 L8.25 54.85 8.25 58.55 Q8.25 60.45 6.7 60.5 L4.3 60.55 3.75 58.6 5.65 58.6 Q6.25 58.6 6.25 58.0 L6.25 54.85 0.75 54.85 0.75 53.15 6.25 53.15 6.25 51.85 8.25 51.85 8.25 53.15 13.55 53.15 13.55 54.85 M0.2 58.2 L4.1 55.3 5.4 56.55 1.4 59.7 0.2 58.2 M8.35 64.25 L8.35 62.2 10.4 62.2 10.4 64.25 13.85 64.25 13.85 65.95 10.4 65.95 10.4 67.5 13.5 67.5 13.5 69.2 Q12.65 71.3 11.0 72.9 12.4 73.7 14.15 74.2 L13.05 76.15 Q11.0 75.45 9.4 74.2 7.7 75.35 5.45 76.2 L4.3 74.4 Q6.3 73.75 7.75 72.9 L5.55 70.3 7.2 69.3 Q8.05 70.7 9.3 71.75 10.65 70.65 11.25 69.25 L5.2 69.25 5.2 67.5 8.35 67.5 8.35 65.95 5.25 65.95 5.25 64.25 8.35 64.25 M4.9 64.7 L4.9 66.55 3.7 66.55 3.7 68.65 4.95 68.4 4.9 70.3 3.7 70.55 3.7 74.3 Q3.7 75.2 3.2 75.65 2.75 76.15 0.75 76.15 L0.25 74.2 1.2 74.2 1.7 74.1 1.8 73.55 1.8 71.0 0.3 71.4 0.15 69.4 1.8 69.1 1.8 66.55 0.25 66.55 0.25 64.7 1.8 64.7 1.8 62.2 3.7 62.2 3.7 64.7 4.9 64.7" fill="url(#gradient0)" fill-rule="evenodd" stroke="none"/>
  </g>
  <defs>
    <linearGradient gradientTransform="matrix(0.0, -0.0276, 0.0087, 0.0, 7.1, 53.55)" gradientUnits="userSpaceOnUse" id="gradient0" spreadMethod="pad" x1="-819.2" x2="819.2">
      <stop offset="0.0" stop-color="#ffa825"/>
      <stop offset="1.0" stop-color="#fff131"/>
    </linearGradient>
  </defs>
</svg>
