<?xml version="1.0" encoding="UTF-8" standalone="no"?>
<svg xmlns:xlink="http://www.w3.org/1999/xlink" height="38.35px" width="159.35px" xmlns="http://www.w3.org/2000/svg">
  <g transform="matrix(1.0, 0.0, 0.0, 1.0, 0.5, 0.5)">
    <path d="M91.8 30.65 Q96.7 25.75 96.7 18.85 96.7 11.95 91.8 7.0 86.95 2.15 80.0 2.15 73.15 2.15 68.2 7.0 63.35 11.95 63.35 18.85 63.35 25.75 68.2 30.65 73.15 35.55 80.0 35.55 86.95 35.55 91.8 30.65 M98.6 18.55 Q98.6 26.25 93.15 31.7 87.75 37.15 80.0 37.15 72.35 37.15 66.9 31.7 61.5 26.25 61.5 18.55 61.5 10.9 66.9 5.45 72.35 0.05 80.0 0.05 87.75 0.05 93.15 5.45 98.6 10.9 98.6 18.55" fill="#0e1e34" fill-opacity="0.7019608" fill-rule="evenodd" stroke="none"/>
    <path d="M98.7 18.7 Q98.7 26.35 93.25 31.8 87.85 37.25 80.2 37.25 72.45 37.25 67.0 31.8 61.6 26.35 61.6 18.7 61.6 11.0 67.0 5.55 72.45 0.15 80.2 0.15 87.85 0.15 93.25 5.55 98.7 11.0 98.7 18.7 Z" fill="none" stroke="#cc6600" stroke-linecap="round" stroke-linejoin="round" stroke-width="1.2000000000000002"/>
    <path d="M32.1 13.0 L35.9 13.4 40.15 13.5 37.95 13.65 37.8 13.65 37.65 13.65 Q18.45 14.2 3.15 0.0 L6.85 0.0 Q17.15 10.8 32.1 13.0" fill="#333333" fill-rule="evenodd" stroke="none"/>
    <path d="M35.9 13.4 L32.1 13.0 Q19.25 10.75 12.75 2.6 22.85 11.4 35.9 13.4" fill="#ffffff" fill-rule="evenodd" stroke="none"/>
    <path d="M3.15 0.0 Q18.45 14.2 37.65 13.65 L37.8 13.65 37.95 13.65 40.15 13.5 Q12.65 17.55 0.0 0.0 L3.15 0.0" fill="#666666" fill-rule="evenodd" stroke="none"/>
    <path d="M32.1 13.0 Q17.15 10.8 6.85 0.0 L13.7 0.0 Q20.0 10.9 40.15 13.5 L35.9 13.4 Q22.85 11.4 12.75 2.6 19.25 10.75 32.1 13.0" fill="#cccccc" fill-rule="evenodd" stroke="none"/>
    <path d="M6.85 0.0 L3.15 0.0 0.0 0.0 Q12.65 17.55 40.15 13.5 20.0 10.9 13.7 0.0 L6.85 0.0 Z" fill="none" stroke="#4c4b36" stroke-linecap="round" stroke-linejoin="round" stroke-width="1.0"/>
    <path d="M122.45 13.4 L126.25 13.0 Q141.2 10.8 151.5 0.0 L155.2 0.0 Q139.9 14.2 120.7 13.65 L120.55 13.65 120.4 13.65 118.2 13.5 122.45 13.4" fill="#333333" fill-rule="evenodd" stroke="none"/>
    <path d="M126.25 13.0 Q139.1 10.75 145.6 2.6 135.5 11.4 122.45 13.4 L118.2 13.5 Q138.35 10.9 144.65 0.0 L151.5 0.0 Q141.2 10.8 126.25 13.0" fill="#cccccc" fill-rule="evenodd" stroke="none"/>
    <path d="M155.2 0.0 L158.35 0.0 Q145.7 17.55 118.2 13.5 L120.4 13.65 120.55 13.65 120.7 13.65 Q139.9 14.2 155.2 0.0" fill="#666666" fill-rule="evenodd" stroke="none"/>
    <path d="M122.45 13.4 Q135.5 11.4 145.6 2.6 139.1 10.75 126.25 13.0 L122.45 13.4" fill="#ffffff" fill-rule="evenodd" stroke="none"/>
    <path d="M151.5 0.0 L144.65 0.0 Q138.35 10.9 118.2 13.5 145.7 17.55 158.35 0.0 L155.2 0.0 151.5 0.0 Z" fill="none" stroke="#4c4b36" stroke-linecap="round" stroke-linejoin="round" stroke-width="1.0"/>
    <path d="M108.2 15.2 L105.0 17.55 110.15 17.55 Q109.0 16.55 108.2 15.2 M110.45 13.2 L109.9 13.75 Q111.15 16.2 114.5 17.9 L112.8 19.5 111.35 18.6 111.15 19.35 103.15 19.35 103.35 18.55 101.35 19.6 100.5 17.95 Q105.45 15.75 107.85 13.2 L110.45 13.2 M102.5 24.6 L109.15 24.6 109.7 22.4 103.05 22.4 102.5 24.6 M112.05 20.5 L110.4 27.05 108.55 27.05 108.65 26.45 102.0 26.45 101.85 27.05 99.95 27.05 101.6 20.5 112.05 20.5 M47.25 24.55 L55.9 24.55 58.15 15.5 49.5 15.5 47.25 24.55 M50.3 17.0 L56.7 17.0 55.1 23.0 48.75 23.0 50.3 17.0 M53.6 21.35 L54.25 18.7 51.8 18.7 51.15 21.35 53.6 21.35 M60.6 13.75 L57.25 26.85 55.3 26.85 55.45 26.3 46.85 26.3 46.65 26.85 44.65 26.85 48.0 13.75 60.6 13.75" fill="#660000" fill-rule="evenodd" stroke="none"/>
    <path d="M108.2 15.2 L105.0 17.55 110.15 17.55 Q109.0 16.55 108.2 15.2 M110.45 13.2 L109.9 13.75 Q111.15 16.2 114.5 17.9 L112.8 19.5 111.35 18.6 111.15 19.35 103.15 19.35 103.35 18.55 101.35 19.6 100.5 17.95 Q105.45 15.75 107.85 13.2 L110.45 13.2 M102.5 24.6 L109.15 24.6 109.7 22.4 103.05 22.4 102.5 24.6 M112.05 20.5 L110.4 27.05 108.55 27.05 108.65 26.45 102.0 26.45 101.85 27.05 99.95 27.05 101.6 20.5 112.05 20.5 M47.25 24.55 L55.9 24.55 58.15 15.5 49.5 15.5 47.25 24.55 M50.3 17.0 L56.7 17.0 55.1 23.0 48.75 23.0 50.3 17.0 M53.6 21.35 L54.25 18.7 51.8 18.7 51.15 21.35 53.6 21.35 M60.6 13.75 L57.25 26.85 55.3 26.85 55.45 26.3 46.85 26.3 46.65 26.85 44.65 26.85 48.0 13.75 60.6 13.75 Z" fill="none" stroke="#660000" stroke-linecap="round" stroke-linejoin="round" stroke-width="5.5"/>
    <path d="M108.2 15.2 Q106.9 16.4 105.0 17.6 L110.15 17.6 Q109.0 16.55 108.2 15.2 M110.45 13.2 L109.9 13.8 Q111.15 16.25 114.5 17.9 L112.8 19.5 111.35 18.6 111.15 19.4 103.15 19.4 103.35 18.55 101.35 19.65 100.5 17.95 Q105.45 15.75 107.85 13.2 L110.45 13.2 M102.5 24.6 L109.15 24.6 109.7 22.4 103.05 22.4 102.5 24.6 M112.05 20.55 L110.4 27.1 108.55 27.1 108.65 26.45 102.0 26.45 101.85 27.1 99.95 27.1 101.6 20.55 112.05 20.55 M47.25 24.55 L55.9 24.55 58.15 15.55 49.5 15.55 47.25 24.55 M50.3 17.0 L56.7 17.0 55.1 23.0 48.75 23.0 50.3 17.0 M51.15 21.4 L53.6 21.4 54.25 18.7 51.8 18.7 51.15 21.4 M60.6 13.8 L57.25 26.9 55.3 26.9 55.45 26.3 46.85 26.3 46.65 26.9 44.65 26.9 48.0 13.8 60.6 13.8" fill="#cc6600" fill-rule="evenodd" stroke="none"/>
    <path d="M108.2 15.2 Q106.9 16.4 105.0 17.6 L110.15 17.6 Q109.0 16.55 108.2 15.2 M110.45 13.2 L109.9 13.8 Q111.15 16.25 114.5 17.9 L112.8 19.5 111.35 18.6 111.15 19.4 103.15 19.4 103.35 18.55 101.35 19.65 100.5 17.95 Q105.45 15.75 107.85 13.2 L110.45 13.2 M102.5 24.6 L109.15 24.6 109.7 22.4 103.05 22.4 102.5 24.6 M112.05 20.55 L110.4 27.1 108.55 27.1 108.65 26.45 102.0 26.45 101.85 27.1 99.95 27.1 101.6 20.55 112.05 20.55 M47.25 24.55 L55.9 24.55 58.15 15.55 49.5 15.55 47.25 24.55 M50.3 17.0 L56.7 17.0 55.1 23.0 48.75 23.0 50.3 17.0 M51.15 21.4 L53.6 21.4 54.25 18.7 51.8 18.7 51.15 21.4 M60.6 13.8 L57.25 26.9 55.3 26.9 55.45 26.3 46.85 26.3 46.65 26.9 44.65 26.9 48.0 13.8 60.6 13.8 Z" fill="none" stroke="#cc6600" stroke-linecap="round" stroke-linejoin="round" stroke-width="3.0"/>
    <path d="M108.2 15.05 L105.0 17.35 110.15 17.35 Q108.95 16.3 108.2 15.05 M109.85 13.55 Q111.1 16.05 114.45 17.65 L112.75 19.3 111.35 18.4 111.1 19.15 103.15 19.15 103.35 18.35 101.35 19.4 100.5 17.75 Q105.45 15.5 107.85 12.95 L110.45 12.95 109.85 13.55 M102.5 24.4 L109.15 24.4 109.7 22.2 103.0 22.2 102.5 24.4 M112.05 20.3 L110.4 26.85 108.5 26.85 108.65 26.2 102.0 26.2 101.85 26.85 99.9 26.85 101.6 20.3 112.05 20.3" fill="url(#gradient0)" fill-rule="evenodd" stroke="none"/>
    <path d="M47.2 24.35 L55.85 24.35 58.15 15.3 49.5 15.3 47.2 24.35 M50.25 16.8 L56.65 16.8 55.1 22.75 48.75 22.75 50.25 16.8 M54.25 18.45 L51.8 18.45 51.1 21.15 53.6 21.15 54.25 18.45 M60.6 13.55 L57.25 26.65 55.3 26.65 55.4 26.1 46.8 26.1 46.65 26.65 44.6 26.65 48.0 13.55 60.6 13.55" fill="url(#gradient1)" fill-rule="evenodd" stroke="none"/>
  </g>
  <defs>
    <linearGradient gradientTransform="matrix(0.0, -0.0055, 0.008, 0.0, 73.15, 20.8)" gradientUnits="userSpaceOnUse" id="gradient0" spreadMethod="pad" x1="-819.2" x2="819.2">
      <stop offset="0.0" stop-color="#ffcc00"/>
      <stop offset="1.0" stop-color="#ffff00"/>
    </linearGradient>
    <linearGradient gradientTransform="matrix(0.0, -0.0055, 0.008, 0.0, 51.2, 20.8)" gradientUnits="userSpaceOnUse" id="gradient1" spreadMethod="pad" x1="-819.2" x2="819.2">
      <stop offset="0.0" stop-color="#ffcc00"/>
      <stop offset="1.0" stop-color="#ffff00"/>
    </linearGradient>
  </defs>
</svg>
