<?xml version="1.0" encoding="UTF-8" standalone="no"?>
<svg xmlns:xlink="http://www.w3.org/1999/xlink" height="61.5px" width="203.2px" xmlns="http://www.w3.org/2000/svg">
  <g transform="matrix(1.0, 0.0, 0.0, 1.0, -362.2, -20.7)">
    <path d="M530.7 37.4 L547.95 37.4 547.0 42.55 526.35 42.55 519.3 51.05 515.9 69.95 510.35 69.95 513.35 53.4 510.3 53.4 511.3 47.75 514.55 47.75 Q515.6 47.75 516.5 46.55 L519.95 42.55 512.8 42.55 513.75 37.4 524.3 37.4 526.95 34.3 533.2 34.3 530.7 37.4 M536.95 44.9 L535.85 50.8 544.85 50.8 543.9 56.05 534.9 56.05 533.5 63.8 543.9 63.8 542.95 69.0 517.0 69.0 517.95 63.8 527.5 63.8 528.9 56.05 520.25 56.05 521.2 50.8 529.85 50.8 530.95 44.9 536.95 44.9 M556.65 38.2 L563.4 38.2 562.35 43.95 558.4 56.4 555.05 56.4 555.6 44.05 556.65 38.2 M487.6 40.3 L483.15 40.3 481.7 48.4 485.85 48.4 485.0 53.1 480.85 53.1 478.9 64.0 483.5 64.0 482.65 68.7 468.75 68.7 469.6 64.0 473.9 64.0 475.85 53.1 471.75 53.1 472.6 48.4 476.7 48.4 478.15 40.3 473.85 40.3 474.75 35.5 488.5 35.5 487.6 40.3 M501.0 41.8 L498.5 55.7 500.3 55.7 503.2 39.55 494.8 39.55 491.3 58.9 486.3 58.9 490.65 34.75 509.1 34.75 504.75 58.9 501.3 58.9 500.25 64.6 Q500.15 65.35 501.0 65.35 L504.25 65.35 503.45 69.75 497.3 69.75 Q494.55 69.75 495.0 67.2 L496.3 60.0 489.8 68.55 Q489.15 69.45 488.15 69.45 L483.6 69.45 484.45 64.85 486.75 64.85 487.5 64.4 493.3 56.05 493.85 55.0 496.25 41.8 501.0 41.8 M552.85 59.15 L559.6 59.15 558.3 66.25 551.55 66.25 552.85 59.15 M453.0 38.55 L455.1 35.2 466.45 35.2 467.7 38.15 Q468.0 39.2 468.55 39.2 L469.35 39.2 468.6 43.5 465.8 43.5 Q464.7 43.5 464.1 42.6 L462.25 39.65 457.7 39.65 454.95 43.0 Q454.1 43.95 453.15 43.95 L450.3 43.95 451.1 39.65 452.0 39.65 Q452.4 39.65 453.0 38.55 M449.9 41.8 L445.5 41.8 444.55 46.95 449.4 46.95 448.55 51.75 444.4 51.75 443.85 54.65 447.45 54.65 446.65 59.25 443.05 59.25 441.95 65.35 465.1 65.35 464.25 70.05 437.5 70.05 Q434.9 70.05 433.6 68.7 432.55 69.75 430.85 69.75 L428.5 69.75 429.25 65.6 429.55 65.6 Q430.6 65.6 430.75 64.75 L432.8 53.4 437.45 53.4 435.5 64.1 Q435.35 64.95 437.05 65.25 L439.5 51.75 432.05 51.75 432.9 46.95 439.2 46.95 440.15 41.8 434.45 41.8 435.3 37.2 441.0 37.2 441.45 34.65 446.8 34.65 446.35 37.2 450.75 37.2 449.9 41.8 M461.1 44.2 L466.6 44.2 Q464.8 47.9 463.5 48.85 462.3 49.9 460.85 49.9 L450.4 49.9 451.15 45.6 459.35 45.6 Q460.15 45.6 461.1 44.2 M460.8 56.75 L449.05 56.75 449.8 52.5 459.25 52.5 Q460.05 52.5 460.8 50.8 L466.25 50.8 Q464.55 54.65 463.4 55.65 462.15 56.75 460.8 56.75 M460.45 57.85 L466.0 57.85 Q464.2 61.7 462.95 62.75 461.7 63.8 460.25 63.8 L446.85 63.8 447.65 59.55 458.8 59.55 Q459.65 59.55 460.45 57.85" fill="url(#gradient0)" fill-rule="evenodd" stroke="none"/>
    <path d="M530.7 37.4 L547.95 37.4 547.0 42.55 526.35 42.55 519.3 51.05 515.9 69.95 510.35 69.95 513.35 53.4 510.3 53.4 511.3 47.75 514.55 47.75 Q515.6 47.75 516.5 46.55 L519.95 42.55 512.8 42.55 513.75 37.4 524.3 37.4 526.95 34.3 533.2 34.3 530.7 37.4 M536.95 44.9 L535.85 50.8 544.85 50.8 543.9 56.05 534.9 56.05 533.5 63.8 543.9 63.8 542.95 69.0 517.0 69.0 517.95 63.8 527.5 63.8 528.9 56.05 520.25 56.05 521.2 50.8 529.85 50.8 530.95 44.9 536.95 44.9 M556.65 38.2 L555.6 44.05 555.05 56.4 558.4 56.4 562.35 43.95 563.4 38.2 556.65 38.2 M487.6 40.3 L483.15 40.3 481.7 48.4 485.85 48.4 485.0 53.1 480.85 53.1 478.9 64.0 483.5 64.0 482.65 68.7 468.75 68.7 469.6 64.0 473.9 64.0 475.85 53.1 471.75 53.1 472.6 48.4 476.7 48.4 478.15 40.3 473.85 40.3 474.75 35.5 488.5 35.5 487.6 40.3 M501.0 41.8 L498.5 55.7 500.3 55.7 503.2 39.55 494.8 39.55 491.3 58.9 486.3 58.9 490.65 34.75 509.1 34.75 504.75 58.9 501.3 58.9 500.25 64.6 Q500.15 65.35 501.0 65.35 L504.25 65.35 503.45 69.75 497.3 69.75 Q494.55 69.75 495.0 67.2 L496.3 60.0 489.8 68.55 Q489.15 69.45 488.15 69.45 L483.6 69.45 484.45 64.85 486.75 64.85 487.5 64.4 493.3 56.05 493.85 55.0 496.25 41.8 501.0 41.8 M552.85 59.15 L551.55 66.25 558.3 66.25 559.6 59.15 552.85 59.15 M453.0 38.55 L455.1 35.2 466.45 35.2 467.7 38.15 Q468.0 39.2 468.55 39.2 L469.35 39.2 468.6 43.5 465.8 43.5 Q464.7 43.5 464.1 42.6 L462.25 39.65 457.7 39.65 454.95 43.0 Q454.1 43.95 453.15 43.95 L450.3 43.95 451.1 39.65 452.0 39.65 Q452.4 39.65 453.0 38.55 M449.9 41.8 L445.5 41.8 444.55 46.95 449.4 46.95 448.55 51.75 444.4 51.75 443.85 54.65 447.45 54.65 446.65 59.25 443.05 59.25 441.95 65.35 465.1 65.35 464.25 70.05 437.5 70.05 Q434.9 70.05 433.6 68.7 432.55 69.75 430.85 69.75 L428.5 69.75 429.25 65.6 429.55 65.6 Q430.6 65.6 430.75 64.75 L432.8 53.4 437.45 53.4 435.5 64.1 Q435.35 64.95 437.05 65.25 L439.5 51.75 432.05 51.75 432.9 46.95 439.2 46.95 440.15 41.8 434.45 41.8 435.3 37.2 441.0 37.2 441.45 34.65 446.8 34.65 446.35 37.2 450.75 37.2 449.9 41.8 M461.1 44.2 L466.6 44.2 Q464.8 47.9 463.5 48.85 462.3 49.9 460.85 49.9 L450.4 49.9 451.15 45.6 459.35 45.6 Q460.15 45.6 461.1 44.2 M460.8 56.75 L449.05 56.75 449.8 52.5 459.25 52.5 Q460.05 52.5 460.8 50.8 L466.25 50.8 Q464.55 54.65 463.4 55.65 462.15 56.75 460.8 56.75 M460.45 57.85 L466.0 57.85 Q464.2 61.7 462.95 62.75 461.7 63.8 460.25 63.8 L446.85 63.8 447.65 59.55 458.8 59.55 Q459.65 59.55 460.45 57.85 Z" fill="none" stroke="#000000" stroke-linecap="round" stroke-linejoin="round" stroke-width="4.0"/>
    <path d="M530.7 37.4 L547.95 37.4 547.0 42.55 526.35 42.55 519.3 51.05 515.9 69.95 510.35 69.95 513.35 53.4 510.3 53.4 511.3 47.75 514.55 47.75 Q515.6 47.75 516.5 46.55 L519.95 42.55 512.8 42.55 513.75 37.4 524.3 37.4 526.95 34.3 533.2 34.3 530.7 37.4 M536.95 44.9 L535.85 50.8 544.85 50.8 543.9 56.05 534.9 56.05 533.5 63.8 543.9 63.8 542.95 69.0 517.0 69.0 517.95 63.8 527.5 63.8 528.9 56.05 520.25 56.05 521.2 50.8 529.85 50.8 530.95 44.9 536.95 44.9 M556.65 38.2 L563.4 38.2 562.35 43.95 558.4 56.4 555.05 56.4 555.6 44.05 556.65 38.2 M487.6 40.3 L483.15 40.3 481.7 48.4 485.85 48.4 485.0 53.1 480.85 53.1 478.9 64.0 483.5 64.0 482.65 68.7 468.75 68.7 469.6 64.0 473.9 64.0 475.85 53.1 471.75 53.1 472.6 48.4 476.7 48.4 478.15 40.3 473.85 40.3 474.75 35.5 488.5 35.5 487.6 40.3 M501.0 41.8 L498.5 55.7 500.3 55.7 503.2 39.55 494.8 39.55 491.3 58.9 486.3 58.9 490.65 34.75 509.1 34.75 504.75 58.9 501.3 58.9 500.25 64.6 Q500.15 65.35 501.0 65.35 L504.25 65.35 503.45 69.75 497.3 69.75 Q494.55 69.75 495.0 67.2 L496.3 60.0 489.8 68.55 Q489.15 69.45 488.15 69.45 L483.6 69.45 484.45 64.85 486.75 64.85 487.5 64.4 493.3 56.05 493.85 55.0 496.25 41.8 501.0 41.8 M559.6 59.15 L558.3 66.25 551.55 66.25 552.85 59.15 559.6 59.15 M453.0 38.55 L455.1 35.2 466.45 35.2 467.7 38.15 Q468.0 39.2 468.55 39.2 L469.35 39.2 468.6 43.5 465.8 43.5 Q464.7 43.5 464.1 42.6 L462.25 39.65 457.7 39.65 454.95 43.0 Q454.1 43.95 453.15 43.95 L450.3 43.95 451.1 39.65 452.0 39.65 Q452.4 39.65 453.0 38.55 M449.9 41.8 L445.5 41.8 444.55 46.95 449.4 46.95 448.55 51.75 444.4 51.75 443.85 54.65 447.45 54.65 446.65 59.25 443.05 59.25 441.95 65.35 465.1 65.35 464.25 70.05 437.5 70.05 Q434.9 70.05 433.6 68.7 432.55 69.75 430.85 69.75 L428.5 69.75 429.25 65.6 429.55 65.6 Q430.6 65.6 430.75 64.75 L432.8 53.4 437.45 53.4 435.5 64.1 Q435.35 64.95 437.05 65.25 L439.5 51.75 432.05 51.75 432.9 46.95 439.2 46.95 440.15 41.8 434.45 41.8 435.3 37.2 441.0 37.2 441.45 34.65 446.8 34.65 446.35 37.2 450.75 37.2 449.9 41.8 M461.1 44.2 L466.6 44.2 Q464.8 47.9 463.5 48.85 462.3 49.9 460.85 49.9 L450.4 49.9 451.15 45.6 459.35 45.6 Q460.15 45.6 461.1 44.2 M460.8 56.75 L449.05 56.75 449.8 52.5 459.25 52.5 Q460.05 52.5 460.8 50.8 L466.25 50.8 Q464.55 54.65 463.4 55.65 462.15 56.75 460.8 56.75 M460.45 57.85 L466.0 57.85 Q464.2 61.7 462.95 62.75 461.7 63.8 460.25 63.8 L446.85 63.8 447.65 59.55 458.8 59.55 Q459.65 59.55 460.45 57.85" fill="url(#gradient1)" fill-rule="evenodd" stroke="none"/>
    <path d="M387.3 28.75 L388.0 28.8 Q392.45 28.95 396.25 30.7 L395.95 30.7 Q394.1 30.7 391.9 32.45 389.05 32.15 386.25 32.4 383.6 32.65 381.5 33.3 L379.7 33.1 Q373.7 33.1 369.6 39.5 366.3 44.75 366.3 49.6 366.3 50.9 366.6 51.65 L366.85 52.1 Q366.75 54.8 367.35 57.4 L367.5 58.0 Q368.5 61.75 371.1 65.0 374.0 68.6 377.6 71.15 381.35 73.6 385.6 75.2 L386.5 75.45 386.55 75.75 Q377.35 75.6 370.85 68.85 364.2 62.0 364.2 52.25 364.2 42.5 370.85 35.6 L372.35 34.2 Q378.5 28.75 386.95 28.75 L387.3 28.75 387.25 30.15 388.0 28.8 387.25 30.15 387.3 28.75 M401.4 34.1 L403.0 35.6 402.1 35.2 401.4 34.1 M402.2 42.15 L404.0 44.6 404.8 46.1 Q405.75 48.4 405.85 53.7 405.95 58.9 401.75 64.35 L399.45 66.85 Q397.65 68.4 395.5 69.35 L395.7 66.2 397.75 64.8 398.85 63.75 Q403.7 59.05 403.7 52.2 403.7 48.2 402.1 44.95 L400.3 42.2 402.2 42.15 M388.75 35.8 L388.75 35.85 388.65 35.85 388.75 35.8 M402.1 44.95 L403.6 44.65 404.0 44.6 403.6 44.65 402.1 44.95 M384.75 68.4 L385.1 70.5 Q383.05 70.05 381.05 68.9 378.6 67.6 377.2 65.75 380.55 68.0 384.75 68.4" fill="#ffff66" fill-rule="evenodd" stroke="none"/>
    <path d="M366.85 52.1 L366.6 51.65 Q366.3 50.9 366.3 49.6 366.3 44.75 369.6 39.5 373.7 33.1 379.7 33.1 L381.5 33.3 Q383.85 33.85 385.4 35.8 L385.75 36.25 Q386.95 37.9 387.45 40.1 L387.6 43.05 387.35 45.5 387.6 43.05 387.45 40.1 387.6 39.55 Q387.6 37.65 388.75 35.85 L388.75 35.8 Q389.5 34.65 390.7 33.5 L391.9 32.45 Q394.1 30.7 395.95 30.7 L396.25 30.7 Q399.3 30.85 401.4 34.1 L402.1 35.2 Q404.0 38.9 403.7 42.25 L402.2 42.15 400.3 42.2 395.2 43.0 Q391.1 43.85 387.35 45.5 385.45 46.0 383.1 47.15 L378.45 49.4 372.85 51.5 Q370.95 52.2 369.75 52.95 368.6 53.5 368.0 54.1 L366.85 52.1 M376.2 43.6 L376.0 43.6 375.85 44.5 376.0 44.65 376.0 44.75 376.35 45.0 376.45 44.75 376.95 44.25 376.95 44.15 376.95 43.75 376.2 43.6 M393.45 38.9 L393.45 39.3 393.45 39.85 393.95 40.0 394.6 39.85 394.6 38.7 394.35 38.75 394.25 38.7 393.45 38.7 393.45 38.9" fill="#ffffff" fill-rule="evenodd" stroke="none"/>
    <path d="M369.75 52.95 Q370.95 52.2 372.85 51.5 L378.45 49.4 383.1 47.15 Q385.45 46.0 387.35 45.5 391.1 43.85 395.2 43.0 L400.3 42.2 402.1 44.95 Q403.7 48.2 403.7 52.2 403.7 59.05 398.85 63.75 L397.75 64.8 395.7 66.2 395.8 64.1 395.8 61.1 Q395.8 58.6 395.25 54.6 L394.45 50.1 394.35 49.5 Q391.3 49.95 387.6 52.0 L384.3 54.1 384.2 60.1 Q384.2 62.95 384.45 65.35 L384.75 68.4 Q380.55 68.0 377.2 65.75 L374.7 63.75 Q371.55 60.8 370.4 56.9 369.8 55.0 369.75 52.95 M387.45 40.1 Q386.95 37.9 385.75 36.25 L385.4 35.8 386.8 35.75 388.65 35.85 388.75 35.85 Q387.6 37.65 387.6 39.55 L387.45 40.1 M376.0 44.65 L375.85 44.5 376.0 43.6 376.2 43.6 376.0 43.75 376.0 44.25 376.0 44.65 376.0 44.25 376.0 43.75 376.2 43.6 376.95 43.75 376.95 44.15 376.95 44.25 376.45 44.75 376.35 45.0 376.0 44.75 376.0 44.65 376.3 44.75 376.45 44.75 376.95 44.15 376.45 44.75 376.3 44.75 376.0 44.65 M376.95 43.75 Q376.25 43.85 376.0 44.25 376.25 43.85 376.95 43.75 M393.45 39.3 L393.45 38.9 394.2 38.85 Q394.2 38.75 394.35 38.75 L394.4 39.65 393.7 39.65 393.45 39.3 393.7 39.65 394.4 39.65 394.35 38.75 Q394.2 38.75 394.2 38.85 L393.45 38.9 393.45 38.7 394.25 38.7 394.35 38.75 394.6 38.7 394.6 39.85 393.95 40.0 393.45 39.85 393.45 39.3 M396.85 47.95 L396.6 49.35 395.7 49.4 394.45 49.5 394.35 49.5 394.45 49.5 395.7 49.4 396.6 49.35 396.85 47.95 M402.1 44.95 L400.3 45.3 402.1 44.95 M384.3 54.1 L383.35 54.45 381.35 53.9 383.35 54.45 384.3 54.1 M374.3 55.4 L370.4 56.9 374.3 55.4" fill="#666666" fill-rule="evenodd" stroke="none"/>
    <path d="M381.5 33.3 Q383.6 32.65 386.25 32.4 389.05 32.15 391.9 32.45 L390.7 33.5 Q389.5 34.65 388.75 35.8 L388.65 35.85 386.8 35.75 385.4 35.8 Q383.85 33.85 381.5 33.3 M386.5 75.45 L385.6 75.2 Q381.35 73.6 377.6 71.15 374.0 68.6 371.1 65.0 368.5 61.75 367.5 58.0 L367.35 57.4 Q366.75 54.8 366.85 52.1 L368.0 54.1 Q368.6 53.5 369.75 52.95 369.8 55.0 370.4 56.9 371.55 60.8 374.7 63.75 L377.2 65.75 Q378.6 67.6 381.05 68.9 383.05 70.05 385.1 70.5 385.5 72.95 386.25 74.85 L386.5 75.45 M403.0 35.6 Q409.6 42.5 409.6 52.25 409.6 62.0 403.0 68.85 L402.0 69.95 Q398.7 72.95 394.7 74.45 L394.95 73.1 395.5 69.35 Q397.65 68.4 399.45 66.85 L401.75 64.35 Q405.95 58.9 405.85 53.7 405.75 48.4 404.8 46.1 L404.0 44.6 402.2 42.15 403.7 42.25 Q404.0 38.9 402.1 35.2 L403.0 35.6 M407.1 44.15 L404.0 44.6 407.1 44.15 M370.4 56.9 L367.5 58.0 370.4 56.9" fill="#ffcc33" fill-rule="evenodd" stroke="none"/>
    <path d="M394.45 50.1 L395.25 54.6 Q395.8 58.6 395.8 61.1 L395.8 64.1 394.85 63.95 Q394.55 62.95 393.35 62.1 392.1 61.15 390.25 61.15 388.85 61.15 387.35 62.35 385.55 63.55 385.25 65.25 L384.45 65.35 Q384.2 62.95 384.2 60.1 L384.3 54.1 387.6 52.0 Q391.3 49.95 394.35 49.5 L394.45 50.1" fill="#51321e" fill-rule="evenodd" stroke="none"/>
    <path d="M386.55 75.75 L386.5 75.45 386.25 74.85 Q385.5 72.95 385.1 70.5 L384.75 68.4 384.45 65.35 385.25 65.25 Q385.55 63.55 387.35 62.35 388.85 61.15 390.25 61.15 392.1 61.15 393.35 62.1 394.55 62.95 394.85 63.95 L395.8 64.1 395.7 66.2 395.5 69.35 394.95 73.1 394.7 74.45 Q393.6 80.2 391.45 80.2 388.5 80.2 386.55 75.75" fill="#fe8181" fill-rule="evenodd" stroke="none"/>
    <path d="M380.75 25.25 Q381.05 24.55 381.85 23.75 382.95 22.7 383.95 22.7 386.4 22.7 387.0 26.25 L387.3 28.75 388.0 28.8 388.75 27.75 Q390.25 25.65 391.3 25.65 392.2 25.65 392.5 27.5 M366.85 52.1 L366.6 51.65 Q366.3 50.9 366.3 49.6 366.3 44.75 369.6 39.5 373.7 33.1 379.7 33.1 L381.5 33.3 Q383.85 33.85 385.4 35.8 L386.8 35.75 388.65 35.85 388.75 35.85 Q387.6 37.65 387.6 39.55 L387.45 40.1 Q386.95 37.9 385.75 36.25 L385.4 35.8 M391.9 32.45 Q394.1 30.7 395.95 30.7 L396.25 30.7 Q392.45 28.95 388.0 28.8 L387.25 30.15 387.3 28.75 386.95 28.75 Q378.5 28.75 372.35 34.2 L370.85 35.6 Q364.2 42.5 364.2 52.25 364.2 62.0 370.85 68.85 377.35 75.6 386.55 75.75 L386.5 75.45 386.25 74.85 Q385.5 72.95 385.1 70.5 L384.75 68.4 Q380.55 68.0 377.2 65.75 L374.7 63.75 Q371.55 60.8 370.4 56.9 369.8 55.0 369.75 52.95 370.95 52.2 372.85 51.5 L378.45 49.4 383.1 47.15 Q385.45 46.0 387.35 45.5 L387.6 43.05 387.45 40.1 M366.85 52.1 L368.0 54.1 Q368.6 53.5 369.75 52.95 M376.2 43.6 L376.0 43.6 375.85 44.5 376.0 44.65 376.0 44.25 376.0 43.75 376.2 43.6 376.95 43.75 376.95 44.15 376.95 44.25 376.45 44.75 376.35 45.0 376.0 44.75 376.0 44.65 376.3 44.75 376.45 44.75 376.95 44.15 M376.0 44.25 Q376.25 43.85 376.95 43.75 M396.25 30.7 Q399.3 30.85 401.4 34.1 L403.0 35.6 Q409.6 42.5 409.6 52.25 409.6 62.0 403.0 68.85 L402.0 69.95 Q398.7 72.95 394.7 74.45 393.6 80.2 391.45 80.2 388.5 80.2 386.55 75.75 M401.4 34.1 L402.1 35.2 Q404.0 38.9 403.7 42.25 L402.2 42.15 400.3 42.2 395.2 43.0 Q391.1 43.85 387.35 45.5 M404.0 44.6 L407.1 44.15 M388.75 35.85 L388.75 35.8 Q389.5 34.65 390.7 33.5 L391.9 32.45 M393.45 38.9 L393.45 39.3 393.7 39.65 394.4 39.65 394.35 38.75 Q394.2 38.75 394.2 38.85 L393.45 38.9 393.45 38.7 394.25 38.7 394.35 38.75 394.6 38.7 394.6 39.85 393.95 40.0 393.45 39.85 393.45 39.3 M394.35 49.5 L394.45 49.5 395.7 49.4 396.6 49.35 396.85 47.95 M404.0 44.6 L403.6 44.65 402.1 44.95 Q403.7 48.2 403.7 52.2 403.7 59.05 398.85 63.75 L397.75 64.8 395.7 66.2 395.5 69.35 394.95 73.1 394.7 74.45 M400.3 45.3 L402.1 44.95 400.3 42.2 M395.8 64.1 L395.8 61.1 Q395.8 58.6 395.25 54.6 L394.45 50.1 M394.35 49.5 Q391.3 49.95 387.6 52.0 L384.3 54.1 384.2 60.1 Q384.2 62.95 384.45 65.35 L384.75 68.4 M385.25 65.25 Q385.55 63.55 387.35 62.35 388.85 61.15 390.25 61.15 392.1 61.15 393.35 62.1 394.55 62.95 394.85 63.95 M395.8 64.1 L395.7 66.2 M381.35 53.9 L383.35 54.45 384.3 54.1 M367.5 58.0 L370.4 56.9 374.3 55.4" fill="none" stroke="#000000" stroke-linecap="round" stroke-linejoin="round" stroke-width="4.0"/>
    <path d="M387.3 28.75 L388.0 28.8 Q392.45 28.95 396.25 30.7 L395.95 30.7 Q394.1 30.7 391.9 32.45 389.05 32.15 386.25 32.4 383.6 32.65 381.5 33.3 L379.7 33.1 Q373.7 33.1 369.6 39.5 366.3 44.75 366.3 49.6 366.3 50.9 366.6 51.65 L366.85 52.1 Q366.75 54.8 367.35 57.4 L367.5 58.0 Q368.5 61.75 371.1 65.0 374.0 68.6 377.6 71.15 381.35 73.6 385.6 75.2 L386.5 75.45 386.55 75.75 Q377.35 75.6 370.85 68.85 364.2 62.0 364.2 52.25 364.2 42.5 370.85 35.6 L372.35 34.2 Q378.5 28.75 386.95 28.75 L387.3 28.75 387.25 30.15 388.0 28.8 387.25 30.15 387.3 28.75 M401.4 34.1 L403.0 35.6 402.1 35.2 401.4 34.1 M402.2 42.15 L404.0 44.6 404.8 46.1 Q405.75 48.4 405.85 53.7 405.95 58.9 401.75 64.35 L399.45 66.85 Q397.65 68.4 395.5 69.35 L395.7 66.2 397.75 64.8 398.85 63.75 Q403.7 59.05 403.7 52.2 403.7 48.2 402.1 44.95 L400.3 42.2 402.2 42.15 M388.75 35.8 L388.75 35.85 388.65 35.85 388.75 35.8 M402.1 44.95 L403.6 44.65 404.0 44.6 403.6 44.65 402.1 44.95 M384.75 68.4 L385.1 70.5 Q383.05 70.05 381.05 68.9 378.6 67.6 377.2 65.75 380.55 68.0 384.75 68.4" fill="#ffff66" fill-rule="evenodd" stroke="none"/>
    <path d="M366.85 52.1 L366.6 51.65 Q366.3 50.9 366.3 49.6 366.3 44.75 369.6 39.5 373.7 33.1 379.7 33.1 L381.5 33.3 Q383.85 33.85 385.4 35.8 L385.75 36.25 Q386.95 37.9 387.45 40.1 L387.6 43.05 387.35 45.5 387.6 43.05 387.45 40.1 387.6 39.55 Q387.6 37.65 388.75 35.85 L388.75 35.8 Q389.5 34.65 390.7 33.5 L391.9 32.45 Q394.1 30.7 395.95 30.7 L396.25 30.7 Q399.3 30.85 401.4 34.1 L402.1 35.2 Q404.0 38.9 403.7 42.25 L402.2 42.15 400.3 42.2 395.2 43.0 Q391.1 43.85 387.35 45.5 385.45 46.0 383.1 47.15 L378.45 49.4 372.85 51.5 Q370.95 52.2 369.75 52.95 368.6 53.5 368.0 54.1 L366.85 52.1 M376.2 43.6 L376.0 43.6 375.85 44.5 376.0 44.65 376.0 44.75 376.35 45.0 376.45 44.75 376.95 44.25 376.95 44.15 376.95 43.75 376.2 43.6 M393.45 38.9 L393.45 39.3 393.45 39.85 393.95 40.0 394.6 39.85 394.6 38.7 394.35 38.75 394.25 38.7 393.45 38.7 393.45 38.9" fill="#ffffff" fill-rule="evenodd" stroke="none"/>
    <path d="M369.75 52.95 Q370.95 52.2 372.85 51.5 L378.45 49.4 383.1 47.15 Q385.45 46.0 387.35 45.5 391.1 43.85 395.2 43.0 L400.3 42.2 402.1 44.95 Q403.7 48.2 403.7 52.2 403.7 59.05 398.85 63.75 L397.75 64.8 395.7 66.2 395.8 64.1 395.8 61.1 Q395.8 58.6 395.25 54.6 L394.45 50.1 394.35 49.5 Q391.3 49.95 387.6 52.0 L384.3 54.1 384.2 60.1 Q384.2 62.95 384.45 65.35 L384.75 68.4 Q380.55 68.0 377.2 65.75 L374.7 63.75 Q371.55 60.8 370.4 56.9 369.8 55.0 369.75 52.95 M387.45 40.1 Q386.95 37.9 385.75 36.25 L385.4 35.8 386.8 35.75 388.65 35.85 388.75 35.85 Q387.6 37.65 387.6 39.55 L387.45 40.1 M376.0 44.65 L375.85 44.5 376.0 43.6 376.2 43.6 376.0 43.75 376.0 44.25 376.0 44.65 376.0 44.25 376.0 43.75 376.2 43.6 376.95 43.75 376.95 44.15 376.95 44.25 376.45 44.75 376.35 45.0 376.0 44.75 376.0 44.65 376.3 44.75 376.45 44.75 376.95 44.15 376.45 44.75 376.3 44.75 376.0 44.65 M376.95 43.75 Q376.25 43.85 376.0 44.25 376.25 43.85 376.95 43.75 M393.45 39.3 L393.45 38.9 394.2 38.85 Q394.2 38.75 394.35 38.75 L394.4 39.65 393.7 39.65 393.45 39.3 393.7 39.65 394.4 39.65 394.35 38.75 Q394.2 38.75 394.2 38.85 L393.45 38.9 393.45 38.7 394.25 38.7 394.35 38.75 394.6 38.7 394.6 39.85 393.95 40.0 393.45 39.85 393.45 39.3 M396.85 47.95 L396.6 49.35 395.7 49.4 394.45 49.5 394.35 49.5 394.45 49.5 395.7 49.4 396.6 49.35 396.85 47.95 M402.1 44.95 L400.3 45.3 402.1 44.95 M384.3 54.1 L383.35 54.45 381.35 53.9 383.35 54.45 384.3 54.1 M374.3 55.4 L370.4 56.9 374.3 55.4" fill="#666666" fill-rule="evenodd" stroke="none"/>
    <path d="M381.5 33.3 Q383.6 32.65 386.25 32.4 389.05 32.15 391.9 32.45 L390.7 33.5 Q389.5 34.65 388.75 35.8 L388.65 35.85 386.8 35.75 385.4 35.8 Q383.85 33.85 381.5 33.3 M386.5 75.45 L385.6 75.2 Q381.35 73.6 377.6 71.15 374.0 68.6 371.1 65.0 368.5 61.75 367.5 58.0 L367.35 57.4 Q366.75 54.8 366.85 52.1 L368.0 54.1 Q368.6 53.5 369.75 52.95 369.8 55.0 370.4 56.9 371.55 60.8 374.7 63.75 L377.2 65.75 Q378.6 67.6 381.05 68.9 383.05 70.05 385.1 70.5 385.5 72.95 386.25 74.85 L386.5 75.45 M403.0 35.6 Q409.6 42.5 409.6 52.25 409.6 62.0 403.0 68.85 L402.0 69.95 Q398.7 72.95 394.7 74.45 L394.95 73.1 395.5 69.35 Q397.65 68.4 399.45 66.85 L401.75 64.35 Q405.95 58.9 405.85 53.7 405.75 48.4 404.8 46.1 L404.0 44.6 402.2 42.15 403.7 42.25 Q404.0 38.9 402.1 35.2 L403.0 35.6 M407.1 44.15 L404.0 44.6 407.1 44.15 M370.4 56.9 L367.5 58.0 370.4 56.9" fill="#ffcc33" fill-rule="evenodd" stroke="none"/>
    <path d="M394.45 50.1 L395.25 54.6 Q395.8 58.6 395.8 61.1 L395.8 64.1 394.85 63.95 Q394.55 62.95 393.35 62.1 392.1 61.15 390.25 61.15 388.85 61.15 387.35 62.35 385.55 63.55 385.25 65.25 L384.45 65.35 Q384.2 62.95 384.2 60.1 L384.3 54.1 387.6 52.0 Q391.3 49.95 394.35 49.5 L394.45 50.1" fill="#51321e" fill-rule="evenodd" stroke="none"/>
    <path d="M386.55 75.75 L386.5 75.45 386.25 74.85 Q385.5 72.95 385.1 70.5 L384.75 68.4 384.45 65.35 385.25 65.25 Q385.55 63.55 387.35 62.35 388.85 61.15 390.25 61.15 392.1 61.15 393.35 62.1 394.55 62.95 394.85 63.95 L395.8 64.1 395.7 66.2 395.5 69.35 394.95 73.1 394.7 74.45 Q393.6 80.2 391.45 80.2 388.5 80.2 386.55 75.75" fill="#fe8181" fill-rule="evenodd" stroke="none"/>
    <path d="M380.75 25.25 Q381.05 24.55 381.85 23.75 382.95 22.7 383.95 22.7 386.4 22.7 387.0 26.25 L387.3 28.75 387.25 30.15 388.0 28.8 388.75 27.75 Q390.25 25.65 391.3 25.65 392.2 25.65 392.5 27.5 M366.85 52.1 L366.6 51.65 Q366.3 50.9 366.3 49.6 366.3 44.75 369.6 39.5 373.7 33.1 379.7 33.1 L381.5 33.3 Q383.85 33.85 385.4 35.8 L385.75 36.25 Q386.95 37.9 387.45 40.1 L387.6 43.05 387.35 45.5 Q385.45 46.0 383.1 47.15 L378.45 49.4 372.85 51.5 Q370.95 52.2 369.75 52.95 368.6 53.5 368.0 54.1 L366.85 52.1 M391.9 32.45 Q394.1 30.7 395.95 30.7 L396.25 30.7 Q399.3 30.85 401.4 34.1 L402.1 35.2 Q404.0 38.9 403.7 42.25 L402.2 42.15 400.3 42.2 395.2 43.0 Q391.1 43.85 387.35 45.5 M386.55 75.75 L386.5 75.45 386.25 74.85 Q385.5 72.95 385.1 70.5 L384.75 68.4 384.45 65.35 Q384.2 62.95 384.2 60.1 L384.3 54.1 387.6 52.0 Q391.3 49.95 394.35 49.5 L394.45 49.5 395.7 49.4 396.6 49.35 396.85 47.95 M376.2 43.6 L376.0 43.6 375.85 44.5 376.0 44.65 376.0 44.25 376.0 43.75 376.2 43.6 376.95 43.75 376.95 44.15 376.95 44.25 376.45 44.75 376.35 45.0 376.0 44.75 376.0 44.65 376.3 44.75 376.45 44.75 376.95 44.15 M376.0 44.25 Q376.25 43.85 376.95 43.75 M394.7 74.45 Q393.6 80.2 391.45 80.2 388.5 80.2 386.55 75.75 M404.0 44.6 L407.1 44.15 M388.75 35.85 L388.75 35.8 Q389.5 34.65 390.7 33.5 L391.9 32.45 M388.75 35.85 Q387.6 37.65 387.6 39.55 L387.45 40.1 M393.45 38.9 L393.45 39.3 393.7 39.65 394.4 39.65 394.35 38.75 Q394.2 38.75 394.2 38.85 L393.45 38.9 393.45 38.7 394.25 38.7 394.35 38.75 394.6 38.7 394.6 39.85 393.95 40.0 393.45 39.85 393.45 39.3 M404.0 44.6 L403.6 44.65 402.1 44.95 400.3 45.3 M395.7 66.2 L395.5 69.35 394.95 73.1 394.7 74.45 M395.8 64.1 L395.8 61.1 Q395.8 58.6 395.25 54.6 L394.45 50.1 M395.8 64.1 L395.7 66.2 M381.35 53.9 L383.35 54.45 384.3 54.1 M367.5 58.0 L370.4 56.9 374.3 55.4" fill="none" stroke="#000000" stroke-linecap="round" stroke-linejoin="round" stroke-width="1.0"/>
    <path d="M387.3 28.75 L388.0 28.8 Q392.45 28.95 396.25 30.7 M387.3 28.75 L386.95 28.75 Q378.5 28.75 372.35 34.2 L370.85 35.6 Q364.2 42.5 364.2 52.25 364.2 62.0 370.85 68.85 377.35 75.6 386.55 75.75 M401.4 34.1 L403.0 35.6 Q409.6 42.5 409.6 52.25 409.6 62.0 403.0 68.85 L402.0 69.95 Q398.7 72.95 394.7 74.45" fill="none" stroke="#5e2f00" stroke-linecap="round" stroke-linejoin="round" stroke-width="1.5"/>
    <path d="M388.65 35.85 L388.75 35.85 M385.4 35.8 L386.8 35.75 388.65 35.85 M402.1 44.95 Q403.7 48.2 403.7 52.2 403.7 59.05 398.85 63.75 L397.75 64.8 395.7 66.2 M402.1 44.95 L400.3 42.2 M384.75 68.4 Q380.55 68.0 377.2 65.75 L374.7 63.75 Q371.55 60.8 370.4 56.9 369.8 55.0 369.75 52.95" fill="none" stroke="#aa5500" stroke-linecap="round" stroke-linejoin="round" stroke-width="0.5"/>
    <path d="M385.25 65.25 Q385.55 63.55 387.35 62.35 388.85 61.15 390.25 61.15 392.1 61.15 393.35 62.1 394.55 62.95 394.85 63.95" fill="none" stroke="#ff3333" stroke-linecap="round" stroke-linejoin="round" stroke-width="1.0"/>
  </g>
  <defs>
    <linearGradient gradientTransform="matrix(-0.004, 0.0218, -0.0789, 0.0, 496.3, 52.2)" gradientUnits="userSpaceOnUse" id="gradient0" spreadMethod="pad" x1="-819.2" x2="819.2">
      <stop offset="0.0" stop-color="#ffcc00"/>
      <stop offset="1.0" stop-color="#ffff99"/>
    </linearGradient>
    <linearGradient gradientTransform="matrix(-0.004, 0.0218, -0.0789, 0.0, 496.3, 52.2)" gradientUnits="userSpaceOnUse" id="gradient1" spreadMethod="pad" x1="-819.2" x2="819.2">
      <stop offset="0.0" stop-color="#ffcc00"/>
      <stop offset="1.0" stop-color="#ffff99"/>
    </linearGradient>
  </defs>
</svg>
