<?xml version="1.0" encoding="UTF-8" standalone="no"?>
<svg xmlns:xlink="http://www.w3.org/1999/xlink" height="73.15px" width="76.0px" xmlns="http://www.w3.org/2000/svg">
  <g transform="matrix(1.0, 0.0, 0.0, 1.0, -13.95, -9.15)">
    <path d="M83.05 75.35 Q84.05 76.05 84.05 76.95 84.05 77.9 83.05 78.55 82.05 79.2 80.65 79.2 L23.3 79.2 Q21.95 79.2 20.95 78.55 19.95 77.9 19.95 76.95 19.95 76.05 20.95 75.35 21.95 74.7 23.3 74.7 L80.65 74.7 Q82.05 74.7 83.05 75.35" fill="url(#gradient0)" fill-rule="evenodd" stroke="none"/>
    <path d="M83.8 11.95 Q81.45 10.45 77.6 10.4 L25.75 10.15 Q16.15 10.1 16.15 19.7 L16.15 71.4 Q16.15 81.0 25.75 81.05 L77.6 81.3 Q81.45 81.35 83.8 79.8 87.3 77.5 87.3 71.75 L87.3 20.05 Q87.3 14.3 83.8 11.95 Z" fill="none" stroke="url(#gradient1)" stroke-linecap="butt" stroke-linejoin="miter-clip" stroke-miterlimit="3.0" stroke-width="2.0"/>
    <path d="M88.25 60.15 L85.85 57.75 85.85 38.35 88.5 36.75 89.95 35.85 89.95 61.85 88.25 60.15" fill="url(#gradient2)" fill-rule="evenodd" stroke="none"/>
    <path d="M15.4 36.75 L18.05 38.35 18.05 57.75 15.65 60.15 13.95 61.85 13.95 35.85 15.4 36.75" fill="url(#gradient3)" fill-rule="evenodd" stroke="none"/>
    <path d="M88.5 36.75 L85.85 38.35 85.85 57.75 88.25 60.15 M15.4 36.75 L18.05 38.35 18.05 57.75 15.65 60.15" fill="none" stroke="#292d2e" stroke-linecap="butt" stroke-linejoin="miter-clip" stroke-miterlimit="3.0" stroke-width="1.0"/>
    <path d="M15.2 47.3 L16.6 48.7 15.2 50.05 15.2 47.3" fill="#333333" fill-rule="evenodd" stroke="none"/>
    <path d="M15.2 46.8 L17.1 48.75 14.85 51.0 14.85 46.5 15.2 46.8 M15.2 47.3 L15.2 50.05 16.6 48.7 15.2 47.3" fill="url(#gradient4)" fill-rule="evenodd" stroke="none"/>
    <path d="M88.7 46.8 L89.05 46.5 89.05 51.0 86.8 48.75 88.7 46.8 M88.7 47.3 L87.3 48.7 88.7 50.05 88.7 47.3" fill="url(#gradient5)" fill-rule="evenodd" stroke="none"/>
    <path d="M88.7 47.3 L88.7 50.05 87.3 48.7 88.7 47.3" fill="#333333" fill-rule="evenodd" stroke="none"/>
  </g>
  <defs>
    <linearGradient gradientTransform="matrix(0.0391, 0.0, 0.0, 0.0027, 52.0, 76.95)" gradientUnits="userSpaceOnUse" id="gradient0" spreadMethod="pad" x1="-819.2" x2="819.2">
      <stop offset="0.0" stop-color="#3399ff" stop-opacity="0.047058824"/>
      <stop offset="0.5372549019607843" stop-color="#33ffff" stop-opacity="0.84705883"/>
      <stop offset="1.0" stop-color="#0099ff" stop-opacity="0.047058824"/>
    </linearGradient>
    <linearGradient gradientTransform="matrix(0.0447, 2.0E-4, 0.0, 0.0445, 51.7, 45.75)" gradientUnits="userSpaceOnUse" id="gradient1" spreadMethod="pad" x1="-819.2" x2="819.2">
      <stop offset="0.0" stop-color="#1f3465"/>
      <stop offset="0.40784313725490196" stop-color="#1b559c"/>
      <stop offset="1.0" stop-color="#212e5a"/>
    </linearGradient>
    <linearGradient gradientTransform="matrix(-0.0012, 0.0, 0.0, 0.0159, 87.85, 48.85)" gradientUnits="userSpaceOnUse" id="gradient2" spreadMethod="pad" x1="-819.2" x2="819.2">
      <stop offset="0.0" stop-color="#9eadb5"/>
      <stop offset="1.0" stop-color="#d2e4f0"/>
    </linearGradient>
    <linearGradient gradientTransform="matrix(0.0012, 0.0, 0.0, 0.0159, 16.05, 48.85)" gradientUnits="userSpaceOnUse" id="gradient3" spreadMethod="pad" x1="-819.2" x2="819.2">
      <stop offset="0.0" stop-color="#9eadb5"/>
      <stop offset="1.0" stop-color="#d2e4f0"/>
    </linearGradient>
    <linearGradient gradientTransform="matrix(0.0014, 0.0, 0.0, 0.0027, 15.95, 48.75)" gradientUnits="userSpaceOnUse" id="gradient4" spreadMethod="pad" x1="-819.2" x2="819.2">
      <stop offset="0.0" stop-color="#ffffff"/>
      <stop offset="1.0" stop-color="#8fa1ab"/>
    </linearGradient>
    <linearGradient gradientTransform="matrix(-0.0014, 0.0, 0.0, 0.0027, 87.95, 48.75)" gradientUnits="userSpaceOnUse" id="gradient5" spreadMethod="pad" x1="-819.2" x2="819.2">
      <stop offset="0.0" stop-color="#ffffff"/>
      <stop offset="1.0" stop-color="#8fa1ab"/>
    </linearGradient>
  </defs>
</svg>
