<?xml version="1.0" encoding="UTF-8" standalone="no"?>
<svg xmlns:xlink="http://www.w3.org/1999/xlink" height="65.9px" width="65.95px" xmlns="http://www.w3.org/2000/svg">
  <g transform="matrix(1.0, 0.0, 0.0, 1.0, 0.6, 0.6)">
    <path d="M61.4 32.35 Q61.4 44.35 52.9 52.85 44.4 61.4 32.4 61.4 20.4 61.4 11.85 52.85 3.4 44.35 3.4 32.35 3.4 20.35 11.85 11.8 20.4 3.35 32.4 3.35 44.4 3.35 52.9 11.8 61.4 20.35 61.4 32.35 M58.5 32.75 Q58.5 21.95 50.85 14.25 43.2 6.65 32.4 6.65 21.6 6.65 13.9 14.25 6.3 21.95 6.3 32.75 6.3 43.55 13.9 51.2 21.6 58.85 32.4 58.85 43.2 58.85 50.85 51.2 58.5 43.55 58.5 32.75" fill="#0e1e34" fill-opacity="0.7019608" fill-rule="evenodd" stroke="none"/>
    <path d="M61.4 32.35 Q61.4 44.35 52.9 52.85 44.4 61.4 32.4 61.4 20.4 61.4 11.85 52.85 3.4 44.35 3.4 32.35 3.4 20.35 11.85 11.8 20.4 3.35 32.4 3.35 44.4 3.35 52.9 11.8 61.4 20.35 61.4 32.35 Z" fill="none" stroke="#244d87" stroke-linecap="round" stroke-linejoin="round" stroke-width="1.2000000000000002"/>
    <path d="M64.75 32.35 Q64.75 45.75 55.2 55.2 45.75 64.7 32.4 64.7 18.95 64.7 9.45 55.2 0.0 45.75 0.0 32.35 0.0 18.95 9.45 9.45 18.95 0.0 32.4 0.0 45.75 0.0 55.2 9.45 64.75 18.95 64.75 32.35 Z" fill="none" stroke="#0c354f" stroke-linecap="round" stroke-linejoin="round" stroke-width="1.2000000000000002"/>
    <path d="M52.95 24.25 L51.05 29.7 Q50.5 31.25 48.8 31.25 L47.35 31.25 46.75 33.15 49.9 33.15 49.15 35.35 46.0 35.35 44.9 38.55 48.75 38.55 48.05 40.65 41.9 40.65 Q41.0 40.65 40.55 40.0 L37.6 40.65 38.3 38.6 Q39.25 38.35 39.35 37.95 L41.4 32.0 43.65 32.0 41.85 37.35 Q41.7 37.7 42.15 38.15 L42.5 38.4 44.9 31.25 42.2 31.25 44.6 24.25 52.95 24.25 M46.15 26.4 L45.25 29.15 48.4 29.15 Q49.05 29.15 49.15 28.65 L49.95 26.4 46.15 26.4 M43.45 26.05 L42.6 28.3 41.1 28.3 40.8 29.25 42.3 29.25 41.55 31.45 40.05 31.45 37.65 38.55 Q37.35 39.45 36.55 39.95 35.9 40.5 35.0 40.5 L32.0 40.5 32.7 38.4 34.95 38.4 Q35.4 38.4 35.75 37.4 L36.9 33.95 35.5 36.2 Q34.55 37.7 33.6 37.7 L32.3 37.7 33.15 35.25 33.6 35.25 34.05 34.9 36.95 30.25 Q37.5 29.25 38.25 29.25 L38.55 29.25 38.8 28.3 35.75 28.3 36.55 26.05 39.65 26.05 40.3 24.1 42.55 24.1 41.9 26.05 43.45 26.05 M32.75 24.6 L32.05 26.6 Q31.65 27.75 30.3 27.75 L27.6 27.75 27.3 28.75 31.0 28.75 27.35 39.45 Q27.0 40.5 25.65 40.5 L23.8 40.5 24.45 38.75 25.0 38.75 25.4 38.45 25.65 37.65 24.3 37.65 23.35 40.4 21.05 40.4 22.0 37.65 20.6 37.65 19.6 40.5 17.3 40.5 21.3 28.75 25.0 28.75 25.35 27.75 21.5 27.75 22.2 25.75 26.05 25.75 26.55 24.25 28.85 24.25 28.3 25.75 29.85 25.75 30.2 25.45 30.5 24.6 32.75 24.6 M17.55 27.7 L15.55 27.7 16.3 25.5 18.3 25.5 18.7 24.35 21.05 24.35 20.65 25.5 21.9 25.5 21.15 27.7 19.9 27.7 19.5 28.95 20.5 28.95 19.7 31.15 18.75 31.15 16.25 38.4 Q15.95 39.3 15.15 39.85 14.55 40.4 13.7 40.4 L11.75 40.4 12.4 38.45 13.5 38.45 Q13.9 38.45 14.15 37.55 L14.9 35.5 14.3 36.35 Q13.75 37.25 13.25 37.25 L12.1 37.25 12.9 35.05 13.85 34.25 16.9 29.5 17.55 27.7 M26.6 30.75 L26.15 32.2 27.5 32.2 28.0 30.75 26.6 30.75 M22.9 30.75 L22.45 32.2 23.85 32.2 24.35 30.75 22.9 30.75 M21.75 34.1 L21.3 35.55 22.7 35.55 23.2 34.1 21.75 34.1" fill="#000033" fill-rule="evenodd" stroke="none"/>
    <path d="M52.95 24.25 L51.05 29.7 Q50.5 31.25 48.8 31.25 L47.35 31.25 46.75 33.15 49.9 33.15 49.15 35.35 46.0 35.35 44.9 38.55 48.75 38.55 48.05 40.65 41.9 40.65 Q41.0 40.65 40.55 40.0 L37.6 40.65 38.3 38.6 Q39.25 38.35 39.35 37.95 L41.4 32.0 43.65 32.0 41.85 37.35 Q41.7 37.7 42.15 38.15 L42.5 38.4 44.9 31.25 42.2 31.25 44.6 24.25 52.95 24.25 M46.15 26.4 L45.25 29.15 48.4 29.15 Q49.05 29.15 49.15 28.65 L49.95 26.4 46.15 26.4 M43.45 26.05 L42.6 28.3 41.1 28.3 40.8 29.25 42.3 29.25 41.55 31.45 40.05 31.45 37.65 38.55 Q37.35 39.45 36.55 39.95 35.9 40.5 35.0 40.5 L32.0 40.5 32.7 38.4 34.95 38.4 Q35.4 38.4 35.75 37.4 L36.9 33.95 35.5 36.2 Q34.55 37.7 33.6 37.7 L32.3 37.7 33.15 35.25 33.6 35.25 34.05 34.9 36.95 30.25 Q37.5 29.25 38.25 29.25 L38.55 29.25 38.8 28.3 35.75 28.3 36.55 26.05 39.65 26.05 40.3 24.1 42.55 24.1 41.9 26.05 43.45 26.05 M32.75 24.6 L32.05 26.6 Q31.65 27.75 30.3 27.75 L27.6 27.75 27.3 28.75 31.0 28.75 27.35 39.45 Q27.0 40.5 25.65 40.5 L23.8 40.5 24.45 38.75 25.0 38.75 25.4 38.45 25.65 37.65 24.3 37.65 23.35 40.4 21.05 40.4 22.0 37.65 20.6 37.65 19.6 40.5 17.3 40.5 21.3 28.75 25.0 28.75 25.35 27.75 21.5 27.75 22.2 25.75 26.05 25.75 26.55 24.25 28.85 24.25 28.3 25.75 29.85 25.75 30.2 25.45 30.5 24.6 32.75 24.6 M17.55 27.7 L15.55 27.7 16.3 25.5 18.3 25.5 18.7 24.35 21.05 24.35 20.65 25.5 21.9 25.5 21.15 27.7 19.9 27.7 19.5 28.95 20.5 28.95 19.7 31.15 18.75 31.15 16.25 38.4 Q15.95 39.3 15.15 39.85 14.55 40.4 13.7 40.4 L11.75 40.4 12.4 38.45 13.5 38.45 Q13.9 38.45 14.15 37.55 L14.9 35.5 14.3 36.35 Q13.75 37.25 13.25 37.25 L12.1 37.25 12.9 35.05 13.85 34.25 16.9 29.5 17.55 27.7 M26.6 30.75 L26.15 32.2 27.5 32.2 28.0 30.75 26.6 30.75 M22.9 30.75 L22.45 32.2 23.85 32.2 24.35 30.75 22.9 30.75 M21.75 34.1 L21.3 35.55 22.7 35.55 23.2 34.1 21.75 34.1 Z" fill="none" stroke="#000033" stroke-linecap="round" stroke-linejoin="round" stroke-width="4.0"/>
    <path d="M52.95 24.25 L51.05 29.7 Q50.5 31.25 48.8 31.25 L47.35 31.25 46.75 33.15 49.9 33.15 49.15 35.35 46.0 35.35 44.9 38.55 48.75 38.55 48.05 40.65 41.9 40.65 Q41.0 40.65 40.55 40.0 L37.6 40.65 38.3 38.6 Q39.25 38.35 39.35 37.95 L41.4 32.0 43.65 32.0 41.85 37.35 Q41.7 37.7 42.15 38.15 L42.5 38.4 44.9 31.25 42.2 31.25 44.6 24.25 52.95 24.25 M46.15 26.4 L45.25 29.15 48.4 29.15 Q49.05 29.15 49.15 28.65 L49.95 26.4 46.15 26.4 M43.45 26.05 L42.6 28.3 41.1 28.3 40.8 29.25 42.3 29.25 41.55 31.45 40.05 31.45 37.65 38.55 Q37.35 39.45 36.55 39.95 35.9 40.5 35.0 40.5 L32.0 40.5 32.7 38.4 34.95 38.4 Q35.4 38.4 35.75 37.4 L36.9 33.95 35.5 36.2 Q34.55 37.7 33.6 37.7 L32.3 37.7 33.15 35.25 33.6 35.25 34.05 34.9 36.95 30.25 Q37.5 29.25 38.25 29.25 L38.55 29.25 38.8 28.3 35.75 28.3 36.55 26.05 39.65 26.05 40.3 24.1 42.55 24.1 41.9 26.05 43.45 26.05 M32.75 24.6 L32.05 26.6 Q31.65 27.75 30.3 27.75 L27.6 27.75 27.3 28.75 31.0 28.75 27.35 39.45 Q27.0 40.5 25.65 40.5 L23.8 40.5 24.45 38.75 25.0 38.75 25.4 38.45 25.65 37.65 24.3 37.65 23.35 40.4 21.05 40.4 22.0 37.65 20.6 37.65 19.6 40.5 17.3 40.5 21.3 28.75 25.0 28.75 25.35 27.75 21.5 27.75 22.2 25.75 26.05 25.75 26.55 24.25 28.85 24.25 28.3 25.75 29.85 25.75 30.2 25.45 30.5 24.6 32.75 24.6 M17.55 27.7 L15.55 27.7 16.3 25.5 18.3 25.5 18.7 24.35 21.05 24.35 20.65 25.5 21.9 25.5 21.15 27.7 19.9 27.7 19.5 28.95 20.5 28.95 19.7 31.15 18.75 31.15 16.25 38.4 Q15.95 39.3 15.15 39.85 14.55 40.4 13.7 40.4 L11.75 40.4 12.4 38.45 13.5 38.45 Q13.9 38.45 14.15 37.55 L14.9 35.5 14.3 36.35 Q13.75 37.25 13.25 37.25 L12.1 37.25 12.9 35.05 13.85 34.25 16.9 29.5 17.55 27.7 M26.6 30.75 L26.15 32.2 27.5 32.2 28.0 30.75 26.6 30.75 M22.9 30.75 L22.45 32.2 23.85 32.2 24.35 30.75 22.9 30.75 M21.75 34.1 L21.3 35.55 22.7 35.55 23.2 34.1 21.75 34.1" fill="#006699" fill-rule="evenodd" stroke="none"/>
    <path d="M52.95 24.25 L51.05 29.7 Q50.5 31.25 48.8 31.25 L47.35 31.25 46.75 33.15 49.9 33.15 49.15 35.35 46.0 35.35 44.9 38.55 48.75 38.55 48.05 40.65 41.9 40.65 Q41.0 40.65 40.55 40.0 L37.6 40.65 38.3 38.6 Q39.25 38.35 39.35 37.95 L41.4 32.0 43.65 32.0 41.85 37.35 Q41.7 37.7 42.15 38.15 L42.5 38.4 44.9 31.25 42.2 31.25 44.6 24.25 52.95 24.25 M46.15 26.4 L45.25 29.15 48.4 29.15 Q49.05 29.15 49.15 28.65 L49.95 26.4 46.15 26.4 M43.45 26.05 L42.6 28.3 41.1 28.3 40.8 29.25 42.3 29.25 41.55 31.45 40.05 31.45 37.65 38.55 Q37.35 39.45 36.55 39.95 35.9 40.5 35.0 40.5 L32.0 40.5 32.7 38.4 34.95 38.4 Q35.4 38.4 35.75 37.4 L36.9 33.95 35.5 36.2 Q34.55 37.7 33.6 37.7 L32.3 37.7 33.15 35.25 33.6 35.25 34.05 34.9 36.95 30.25 Q37.5 29.25 38.25 29.25 L38.55 29.25 38.8 28.3 35.75 28.3 36.55 26.05 39.65 26.05 40.3 24.1 42.55 24.1 41.9 26.05 43.45 26.05 M32.75 24.6 L32.05 26.6 Q31.65 27.75 30.3 27.75 L27.6 27.75 27.3 28.75 31.0 28.75 27.35 39.45 Q27.0 40.5 25.65 40.5 L23.8 40.5 24.45 38.75 25.0 38.75 25.4 38.45 25.65 37.65 24.3 37.65 23.35 40.4 21.05 40.4 22.0 37.65 20.6 37.65 19.6 40.5 17.3 40.5 21.3 28.75 25.0 28.75 25.35 27.75 21.5 27.75 22.2 25.75 26.05 25.75 26.55 24.25 28.85 24.25 28.3 25.75 29.85 25.75 30.2 25.45 30.5 24.6 32.75 24.6 M17.55 27.7 L15.55 27.7 16.3 25.5 18.3 25.5 18.7 24.35 21.05 24.35 20.65 25.5 21.9 25.5 21.15 27.7 19.9 27.7 19.5 28.95 20.5 28.95 19.7 31.15 18.75 31.15 16.25 38.4 Q15.95 39.3 15.15 39.85 14.55 40.4 13.7 40.4 L11.75 40.4 12.4 38.45 13.5 38.45 Q13.9 38.45 14.15 37.55 L14.9 35.5 14.3 36.35 Q13.75 37.25 13.25 37.25 L12.1 37.25 12.9 35.05 13.85 34.25 16.9 29.5 17.55 27.7 M26.6 30.75 L26.15 32.2 27.5 32.2 28.0 30.75 26.6 30.75 M22.9 30.75 L22.45 32.2 23.85 32.2 24.35 30.75 22.9 30.75 M21.75 34.1 L21.3 35.55 22.7 35.55 23.2 34.1 21.75 34.1 Z" fill="none" stroke="#006699" stroke-linecap="round" stroke-linejoin="round" stroke-width="2.0"/>
    <path d="M52.95 24.25 L51.05 29.7 Q50.5 31.25 48.8 31.25 L47.35 31.25 46.75 33.15 49.9 33.15 49.15 35.35 46.0 35.35 44.9 38.55 48.75 38.55 48.05 40.65 41.9 40.65 Q41.0 40.65 40.55 40.0 L37.6 40.65 38.3 38.6 Q39.25 38.35 39.35 37.95 L41.4 32.0 43.65 32.0 41.85 37.35 Q41.7 37.7 42.15 38.15 L42.5 38.4 44.9 31.25 42.2 31.25 44.6 24.25 52.95 24.25 M46.15 26.4 L45.25 29.15 48.4 29.15 Q49.05 29.15 49.15 28.65 L49.95 26.4 46.15 26.4 M43.45 26.05 L42.6 28.3 41.1 28.3 40.8 29.25 42.3 29.25 41.55 31.45 40.05 31.45 37.65 38.55 Q37.35 39.45 36.55 39.95 35.9 40.5 35.0 40.5 L32.0 40.5 32.7 38.4 34.95 38.4 Q35.4 38.4 35.75 37.4 L36.9 33.95 35.5 36.2 Q34.55 37.7 33.6 37.7 L32.3 37.7 33.15 35.25 33.6 35.25 34.05 34.9 36.95 30.25 Q37.5 29.25 38.25 29.25 L38.55 29.25 38.8 28.3 35.75 28.3 36.55 26.05 39.65 26.05 40.3 24.1 42.55 24.1 41.9 26.05 43.45 26.05 M32.75 24.6 L32.05 26.6 Q31.65 27.75 30.3 27.75 L27.6 27.75 27.3 28.75 31.0 28.75 27.35 39.45 Q27.0 40.5 25.65 40.5 L23.8 40.5 24.45 38.75 25.0 38.75 25.4 38.45 25.65 37.65 24.3 37.65 23.35 40.4 21.05 40.4 22.0 37.65 20.6 37.65 19.6 40.5 17.3 40.5 21.3 28.75 25.0 28.75 25.35 27.75 21.5 27.75 22.2 25.75 26.05 25.75 26.55 24.25 28.85 24.25 28.3 25.75 29.85 25.75 30.2 25.45 30.5 24.6 32.75 24.6 M17.55 27.7 L15.55 27.7 16.3 25.5 18.3 25.5 18.7 24.35 21.05 24.35 20.65 25.5 21.9 25.5 21.15 27.7 19.9 27.7 19.5 28.95 20.5 28.95 19.7 31.15 18.75 31.15 16.25 38.4 Q15.95 39.3 15.15 39.85 14.55 40.4 13.7 40.4 L11.75 40.4 12.4 38.45 13.5 38.45 Q13.9 38.45 14.15 37.55 L14.9 35.5 14.3 36.35 Q13.75 37.25 13.25 37.25 L12.1 37.25 12.9 35.05 13.85 34.25 16.9 29.5 17.55 27.7 M26.6 30.75 L26.15 32.2 27.5 32.2 28.0 30.75 26.6 30.75 M22.9 30.75 L22.45 32.2 23.85 32.2 24.35 30.75 22.9 30.75 M21.75 34.1 L21.3 35.55 22.7 35.55 23.2 34.1 21.75 34.1" fill="url(#gradient0)" fill-rule="evenodd" stroke="none"/>
  </g>
  <defs>
    <linearGradient gradientTransform="matrix(0.0, -0.0092, 0.01, 0.0, 37.55, 32.4)" gradientUnits="userSpaceOnUse" id="gradient0" spreadMethod="pad" x1="-819.2" x2="819.2">
      <stop offset="0.0" stop-color="#66ccff"/>
      <stop offset="1.0" stop-color="#66ffff"/>
    </linearGradient>
  </defs>
</svg>
