<?xml version="1.0" encoding="UTF-8" standalone="no"?>
<svg xmlns:xlink="http://www.w3.org/1999/xlink" height="28.95px" width="26.1px" xmlns="http://www.w3.org/2000/svg">
  <g transform="matrix(1.0, 0.0, 0.0, 1.0, 0.0, 0.0)">
    <path d="M12.9 2.3 L13.0 2.25 13.25 2.0 13.35 2.0 Q15.1 0.35 17.45 0.05 L17.6 0.05 Q19.95 -0.25 21.95 0.75 L23.2 1.6 24.3 2.65 Q25.8 4.35 26.05 6.7 L26.05 6.85 Q26.25 8.3 25.8 9.6 L25.2 11.2 25.05 11.45 24.85 11.65 24.85 11.75 23.85 10.9 23.8 10.9 23.65 10.7 23.6 10.65 23.55 10.65 22.25 9.7 20.65 8.4 16.4 5.1 15.1 4.05 14.4 3.45 14.4 3.35 14.25 3.35 14.05 3.2 12.9 2.3 M13.15 26.6 L13.1 26.65 13.1 26.6 12.9 26.8 11.35 27.9 Q9.95 28.7 8.45 28.85 L7.2 28.95 Q5.6 28.85 4.25 28.15 L2.85 27.3 2.25 26.7 Q0.85 25.3 0.3 23.5 L0.05 22.2 Q-0.1 20.6 0.3 19.2 0.5 18.35 1.0 17.5 L1.25 17.15 2.35 18.05 2.35 18.1 2.5 18.4 2.55 18.35 2.6 18.4 2.6 18.35 3.35 18.85 4.75 19.95 8.85 23.2 10.5 24.5 11.75 25.5 11.75 25.6 11.95 25.75 12.05 25.75 13.1 26.6 13.15 26.6 M22.85 3.3 L22.3 2.8 21.0 1.95 Q20.2 1.6 19.3 1.5 L19.15 1.5 17.75 1.6 Q16.05 1.75 14.7 2.8 L15.45 3.4 21.35 8.05 22.75 9.15 24.0 10.15 Q24.7 8.65 24.6 6.9 L24.15 5.4 24.1 5.0 23.35 3.85 22.85 3.3 M3.7 20.05 L2.85 19.4 2.05 18.75 1.9 19.05 1.6 20.15 Q1.45 21.1 1.55 22.0 1.7 23.2 2.15 24.15 L2.65 24.9 2.7 24.95 3.5 25.8 3.8 26.1 5.2 26.9 5.5 27.05 8.3 27.4 10.1 26.9 11.4 26.15 10.15 25.2 8.45 23.85 4.6 20.75 3.7 20.05" fill="#000000" fill-rule="evenodd" stroke="none"/>
    <path d="M19.15 1.5 L19.3 1.5 Q20.2 1.6 21.0 1.95 L22.3 2.8 22.85 3.3 22.8 4.25 22.45 5.8 21.35 8.05 15.45 3.4 16.9 2.7 19.1 2.55 19.15 1.5 M3.5 25.8 L3.55 24.4 3.95 22.05 Q4.2 21.3 4.6 20.75 L8.45 23.85 7.35 24.75 6.6 25.2 6.4 25.3 Q5.1 25.95 3.8 26.1 L3.5 25.8" fill="#333333" fill-rule="evenodd" stroke="none"/>
    <path d="M22.85 3.3 L23.35 3.85 24.1 5.0 24.1 5.25 23.75 6.85 22.75 9.15 21.35 8.05 22.45 5.8 22.8 4.25 22.85 3.3 M8.45 23.85 L10.15 25.2 8.9 25.95 Q7.55 26.65 5.5 27.05 L5.2 26.9 3.8 26.1 Q5.1 25.95 6.4 25.3 L6.6 25.2 7.35 24.75 8.45 23.85" fill="#1a1a1a" fill-rule="evenodd" stroke="none"/>
    <path d="M24.1 5.0 L24.15 5.4 24.6 6.9 Q24.7 8.65 24.0 10.15 L22.75 9.15 23.75 6.85 24.1 5.25 24.1 5.0 M10.15 25.2 L11.4 26.15 10.1 26.9 8.3 27.4 5.5 27.05 Q7.55 26.65 8.9 25.95 L10.15 25.2" fill="#5381ac" fill-rule="evenodd" stroke="none"/>
    <path d="M20.65 8.4 L22.25 9.7 20.9 11.45 20.85 11.45 20.65 11.5 18.45 11.25 20.65 8.4 M11.0 20.5 Q11.65 21.45 11.8 22.7 L11.9 22.8 11.8 22.9 10.5 24.5 8.85 23.2 11.0 20.5 M12.2 22.45 Q11.95 21.15 11.35 20.15 L12.35 18.85 13.45 18.8 Q15.1 18.5 16.2 17.05 L16.5 16.6 17.1 15.3 17.2 14.15 17.2 13.6 17.05 12.9 18.1 11.55 18.15 11.55 18.7 11.7 20.5 11.9 12.2 22.45" fill="#5e5e5e" fill-rule="evenodd" stroke="none"/>
    <path d="M22.25 9.7 L23.55 10.65 22.95 10.95 21.45 11.4 20.9 11.45 22.25 9.7 M20.5 11.9 L20.7 11.9 21.85 11.7 23.3 11.25 23.5 11.2 12.15 25.3 12.25 25.1 12.3 23.1 12.2 22.45 20.5 11.9 M11.8 22.9 L11.9 23.15 11.9 24.8 11.75 25.5 10.5 24.5 11.8 22.9" fill="#61a7b8" fill-rule="evenodd" stroke="none"/>
    <path d="M14.05 3.2 L14.25 3.35 14.4 3.35 14.4 3.45 14.2 4.05 14.15 4.95 14.15 5.25 14.2 5.9 14.5 7.5 15.5 9.2 15.9 9.6 16.5 8.75 16.55 8.75 16.65 8.65 17.1 8.85 17.9 9.5 18.2 10.0 18.2 10.05 18.15 10.1 17.6 10.8 17.7 10.95 18.45 11.25 20.65 11.5 20.85 11.45 20.9 11.45 21.45 11.4 22.95 10.95 23.55 10.65 23.6 10.65 23.65 10.7 23.8 10.9 23.85 10.9 23.75 11.0 23.55 11.1 23.5 11.2 23.3 11.25 21.85 11.7 20.7 11.9 20.5 11.9 18.7 11.7 18.15 11.55 18.1 11.55 17.3 11.2 16.65 12.05 17.05 12.9 17.2 13.6 17.2 14.15 17.1 15.3 16.5 16.6 16.2 17.05 Q15.1 18.5 13.45 18.8 L12.35 18.85 11.45 18.65 10.75 19.45 11.35 20.15 Q11.95 21.15 12.2 22.45 L12.3 23.1 12.25 25.1 12.15 25.3 12.15 25.65 12.05 25.75 11.95 25.75 11.75 25.6 11.75 25.5 11.9 24.8 11.9 23.15 11.8 22.9 11.9 22.8 11.8 22.7 Q11.65 21.45 11.0 20.5 L10.5 19.75 9.95 20.5 9.85 20.55 9.3 20.5 8.4 19.8 8.15 19.4 8.15 19.3 8.2 19.2 8.85 18.4 7.95 17.95 6.6 17.6 6.55 17.6 4.9 17.65 4.3 17.75 3.35 18.05 2.6 18.35 2.6 18.4 2.55 18.35 2.5 18.4 2.35 18.1 2.35 18.05 2.5 17.9 2.65 17.9 3.1 17.75 Q3.7 17.45 4.65 17.25 L4.9 17.25 6.35 17.2 6.4 17.2 6.8 17.25 Q7.8 17.4 8.7 17.8 L9.15 18.1 9.75 17.3 9.35 16.5 Q9.2 16.05 9.2 15.45 L9.2 14.75 9.3 14.1 9.6 13.35 Q9.8 12.85 10.25 12.4 10.85 11.55 11.7 11.1 12.25 10.8 13.0 10.65 L13.0 10.6 14.95 10.75 15.6 9.9 14.5 8.4 14.25 7.85 Q13.9 7.0 13.8 5.95 L13.8 5.7 13.75 5.1 Q13.75 4.4 13.9 3.75 L14.0 3.45 14.0 3.3 14.05 3.2 M15.3 12.05 L15.15 11.95 15.15 11.85 Q14.25 11.35 13.1 11.55 11.8 11.75 10.9 12.9 L10.7 13.15 Q10.25 13.8 10.1 14.6 L10.05 15.15 10.1 15.35 10.05 15.35 10.25 16.35 10.7 17.05 10.7 17.1 11.1 17.45 11.15 17.45 11.2 17.45 11.35 17.55 Q12.05 18.05 13.05 17.95 L13.3 17.95 13.3 17.9 Q14.5 17.7 15.3 16.8 L15.55 16.55 16.15 15.35 16.35 14.25 16.3 13.7 15.8 12.5 15.55 12.25 15.5 12.25 15.45 12.15 15.35 12.05 15.3 12.05 M16.7 9.1 L15.3 10.95 15.9 11.35 16.35 11.75 17.75 9.95 17.7 9.85 16.9 9.2 16.7 9.1 M15.4 11.65 L15.55 11.7 16.05 12.15 16.65 13.45 16.7 14.1 16.7 14.15 16.55 15.35 15.9 16.7 15.85 16.75 Q14.8 18.05 13.35 18.25 L12.7 18.35 Q11.8 18.35 11.0 17.8 L10.95 17.75 10.85 17.75 10.6 17.55 10.65 17.55 10.6 17.5 9.9 16.4 9.7 15.35 9.75 14.65 Q9.8 13.95 10.25 13.25 L10.6 12.7 Q11.6 11.45 13.0 11.2 14.35 10.9 15.3 11.55 L15.4 11.65 M15.45 11.55 L15.45 11.45 Q14.4 10.8 13.05 11.05 11.6 11.35 10.55 12.6 L10.1 13.3 Q9.7 13.95 9.6 14.7 L9.55 15.45 9.75 16.4 10.45 17.55 10.85 17.9 11.0 17.95 Q11.7 18.5 12.65 18.5 L13.3 18.4 13.35 18.4 Q14.85 18.1 15.9 16.8 L16.0 16.65 16.65 15.3 16.8 14.15 16.8 13.7 16.7 13.35 16.15 12.1 15.85 11.8 15.8 11.8 15.45 11.55 M8.75 19.55 L9.5 20.15 9.7 20.2 11.0 18.5 10.45 18.1 9.95 17.6 8.6 19.4 8.75 19.55" fill="#273421" fill-rule="evenodd" stroke="none"/>
    <path d="M24.85 11.75 L24.7 12.0 24.65 12.05 24.6 12.15 13.2 26.5 13.15 26.55 13.15 26.6 13.1 26.6 12.05 25.75 12.15 25.65 12.15 25.3 23.5 11.2 23.55 11.1 23.75 11.0 23.85 10.9 24.85 11.75 M13.1 26.65 L13.0 26.75 12.9 26.8 13.1 26.6 13.1 26.65 M1.25 17.15 L1.7 16.5 12.9 2.3 14.05 3.2 14.0 3.3 14.0 3.45 13.75 3.65 2.9 17.4 2.6 17.8 2.5 17.9 2.35 18.05 1.25 17.15 M15.45 11.55 L15.8 11.8 15.85 11.8 16.15 12.1 16.7 13.35 16.8 13.7 16.8 14.15 16.65 15.3 16.0 16.65 15.9 16.8 Q14.85 18.1 13.35 18.4 L13.3 18.4 12.65 18.5 Q11.7 18.5 11.0 17.95 L10.85 17.9 10.45 17.55 9.75 16.4 9.55 15.45 9.6 14.7 Q9.7 13.95 10.1 13.3 L10.55 12.6 Q11.6 11.35 13.05 11.05 14.4 10.8 15.45 11.45 L15.45 11.55 M15.4 11.65 L15.3 11.55 Q14.35 10.9 13.0 11.2 11.6 11.45 10.6 12.7 L10.25 13.25 Q9.8 13.95 9.75 14.65 L9.7 15.35 9.9 16.4 10.6 17.5 10.65 17.55 10.6 17.55 10.85 17.75 10.95 17.75 11.0 17.8 Q11.8 18.35 12.7 18.35 L13.35 18.25 Q14.8 18.05 15.85 16.75 L15.9 16.7 16.55 15.35 16.7 14.15 16.7 14.1 16.65 13.45 16.05 12.15 15.55 11.7 15.4 11.65" fill="#666666" fill-rule="evenodd" stroke="none"/>
    <path d="M14.4 3.45 L15.1 4.05 14.15 5.25 14.15 4.95 14.2 4.05 14.4 3.45 M15.45 3.4 L14.7 2.8 Q16.05 1.75 17.75 1.6 L19.15 1.5 19.1 2.55 16.9 2.7 15.45 3.4 M14.0 3.45 L13.9 3.75 Q13.75 4.4 13.75 5.1 L13.8 5.7 4.65 17.25 Q3.7 17.45 3.1 17.75 L2.65 17.9 2.6 17.8 2.9 17.4 13.75 3.65 14.0 3.45 M2.6 18.35 L3.35 18.05 4.3 17.75 3.35 18.85 2.6 18.35 M3.7 20.05 Q3.3 20.65 3.05 21.35 L2.8 22.2 Q2.6 23.4 2.7 24.95 L2.65 24.9 2.15 24.15 Q1.95 23.1 2.05 21.8 L2.3 20.7 2.65 19.8 2.85 19.4 3.7 20.05" fill="#ffffff" fill-rule="evenodd" stroke="none"/>
    <path d="M15.1 4.05 L16.4 5.1 14.5 7.5 14.2 5.9 14.15 5.25 15.1 4.05 M13.8 5.7 L13.8 5.95 Q13.9 7.0 14.25 7.85 L11.7 11.1 Q10.85 11.55 10.25 12.4 9.8 12.85 9.6 13.35 L9.3 14.1 6.8 17.25 6.4 17.2 6.35 17.2 4.9 17.25 4.65 17.25 13.8 5.7 M4.3 17.75 L4.9 17.65 6.55 17.6 6.6 17.6 5.1 19.45 4.75 19.95 3.35 18.85 4.3 17.75" fill="#d8d8d8" fill-rule="evenodd" stroke="none"/>
    <path d="M10.7 13.15 L10.9 12.9 Q11.8 11.75 13.1 11.55 14.25 11.35 15.15 11.85 L15.15 11.95 15.3 12.05 13.2 11.85 Q11.9 12.15 11.3 12.9 L11.15 13.05 10.7 13.15 M10.7 17.05 L10.25 16.35 10.4 16.3 10.7 17.05 M10.05 15.15 L10.1 14.6 10.45 14.55 10.4 15.1 10.05 15.15" fill="#33a2a0" fill-rule="evenodd" stroke="none"/>
    <path d="M14.25 7.85 L14.5 8.4 15.6 9.9 14.95 10.75 13.0 10.6 13.0 10.65 Q12.25 10.8 11.7 11.1 L14.25 7.85 M9.3 14.1 L9.2 14.75 9.2 15.45 Q9.2 16.05 9.35 16.5 L9.75 17.3 9.15 18.1 8.7 17.8 Q7.8 17.4 6.8 17.25 L9.3 14.1 M2.65 17.9 L2.5 17.9 2.6 17.8 2.65 17.9 M11.35 20.15 L10.75 19.45 11.45 18.65 12.35 18.85 11.35 20.15 M17.05 12.9 L16.65 12.05 17.3 11.2 18.1 11.55 17.05 12.9" fill="#b3b3b3" fill-rule="evenodd" stroke="none"/>
    <path d="M16.7 9.1 L16.9 9.2 17.7 9.85 17.75 9.95 16.35 11.75 15.9 11.35 15.3 10.95 16.7 9.1 M8.75 19.55 L8.6 19.4 9.95 17.6 10.45 18.1 11.0 18.5 9.7 20.2 9.5 20.15 8.75 19.55" fill="#eaeaea" fill-rule="evenodd" stroke="none"/>
    <path d="M16.4 5.1 L20.65 8.4 18.45 11.25 17.7 10.95 17.6 10.8 18.15 10.1 18.2 10.05 18.2 10.0 17.9 9.5 17.1 8.85 16.65 8.65 16.55 8.75 16.5 8.75 15.9 9.6 15.5 9.2 14.5 7.5 16.4 5.1 M6.6 17.6 L7.95 17.95 8.85 18.4 8.2 19.2 8.15 19.3 8.15 19.4 8.4 19.8 9.3 20.5 9.85 20.55 9.95 20.5 10.5 19.75 11.0 20.5 8.85 23.2 4.75 19.95 5.1 19.45 6.6 17.6" fill="#a2a2a2" fill-rule="evenodd" stroke="none"/>
    <path d="M11.15 13.05 L11.3 12.9 Q11.9 12.15 13.2 11.85 L15.3 12.05 15.35 12.05 15.45 12.15 15.5 12.25 15.55 12.25 11.15 13.05 M16.3 13.7 L16.35 14.25 12.95 14.65 10.4 15.1 10.45 14.55 13.35 14.15 16.3 13.7 M16.15 15.35 L15.55 16.55 15.3 16.8 11.15 17.45 11.1 17.45 10.7 17.1 10.7 17.05 10.4 16.3 13.45 15.8 16.15 15.35" fill="#92dcdb" fill-rule="evenodd" stroke="none"/>
    <path d="M10.7 13.15 L11.15 13.05 10.65 13.8 10.45 14.55 10.1 14.6 Q10.25 13.8 10.7 13.15 M10.25 16.35 L10.05 15.35 10.1 15.35 10.05 15.15 10.4 15.1 Q10.25 15.75 10.4 16.3 L10.25 16.35" fill="#2e8d8c" fill-rule="evenodd" stroke="none"/>
    <path d="M2.7 24.95 Q2.6 23.4 2.8 22.2 L3.05 21.35 Q3.3 20.65 3.7 20.05 L4.6 20.75 Q4.2 21.3 3.95 22.05 L3.55 24.4 3.5 25.8 2.7 24.95 M2.85 19.4 L2.65 19.8 2.3 20.7 2.05 21.8 Q1.95 23.1 2.15 24.15 1.7 23.2 1.55 22.0 1.45 21.1 1.6 20.15 L1.9 19.05 2.05 18.75 2.85 19.4" fill="url(#gradient0)" fill-rule="evenodd" stroke="none"/>
    <path d="M15.55 12.25 L15.8 12.5 16.3 13.7 13.35 14.15 10.45 14.55 10.65 13.8 11.15 13.05 15.55 12.25 M16.35 14.25 L16.15 15.35 13.45 15.8 10.4 16.3 Q10.25 15.75 10.4 15.1 L12.95 14.65 16.35 14.25 M15.3 16.8 Q14.5 17.7 13.3 17.9 L13.3 17.95 13.05 17.95 Q12.05 18.05 11.35 17.55 L11.2 17.45 11.15 17.45 15.3 16.8" fill="#45c3c3" fill-rule="evenodd" stroke="none"/>
  </g>
  <defs>
    <linearGradient gradientTransform="matrix(-0.0011, -5.0E-4, 0.0014, -0.0033, 2.65, 22.25)" gradientUnits="userSpaceOnUse" id="gradient0" spreadMethod="pad" x1="-819.2" x2="819.2">
      <stop offset="0.0" stop-color="#333333"/>
      <stop offset="0.8352941176470589" stop-color="#737373"/>
    </linearGradient>
  </defs>
</svg>
