<?xml version="1.0" encoding="UTF-8" standalone="no"?>
<svg xmlns:xlink="http://www.w3.org/1999/xlink" height="61.5px" width="202.15px" xmlns="http://www.w3.org/2000/svg">
  <g transform="matrix(1.0, 0.0, 0.0, 1.0, -362.2, -20.7)">
    <path d="M381.5 33.3 L379.7 33.1 Q373.7 33.1 369.6 39.5 366.3 44.75 366.3 49.6 366.3 50.9 366.6 51.65 L366.85 52.1 Q366.75 54.8 367.35 57.4 L367.5 58.0 Q368.5 61.75 371.1 65.0 374.0 68.6 377.6 71.15 381.35 73.6 385.6 75.2 L386.5 75.45 386.55 75.75 Q377.35 75.6 370.85 68.85 364.2 62.0 364.2 52.25 364.2 42.5 370.85 35.6 L372.35 34.2 Q378.5 28.75 386.95 28.75 L387.3 28.75 387.25 30.15 388.0 28.8 387.25 30.15 387.3 28.75 388.0 28.8 Q392.45 28.95 396.25 30.7 L395.95 30.7 Q394.1 30.7 391.9 32.45 389.05 32.15 386.25 32.4 383.6 32.65 381.5 33.3 M403.0 35.6 L402.1 35.2 401.4 34.1 403.0 35.6 M402.2 42.15 L404.0 44.6 404.8 46.1 Q405.75 48.4 405.85 53.7 405.95 58.9 401.75 64.35 L399.45 66.85 Q397.65 68.4 395.5 69.35 L395.7 66.2 397.75 64.8 398.85 63.75 Q403.7 59.05 403.7 52.2 403.7 48.2 402.1 44.95 L403.6 44.65 404.0 44.6 403.6 44.65 402.1 44.95 400.3 42.2 402.2 42.15 M388.65 35.85 L388.75 35.8 388.75 35.85 388.65 35.85 M384.75 68.4 L385.1 70.5 Q383.05 70.05 381.05 68.9 378.6 67.6 377.2 65.75 380.55 68.0 384.75 68.4" fill="#ffff66" fill-rule="evenodd" stroke="none"/>
    <path d="M366.85 52.1 L366.6 51.65 Q366.3 50.9 366.3 49.6 366.3 44.75 369.6 39.5 373.7 33.1 379.7 33.1 L381.5 33.3 Q383.85 33.85 385.4 35.8 L385.75 36.25 Q386.95 37.9 387.45 40.1 L387.6 43.05 387.35 45.5 387.6 43.05 387.45 40.1 387.6 39.55 Q387.6 37.65 388.75 35.85 L388.75 35.8 Q389.5 34.65 390.7 33.5 L391.9 32.45 Q394.1 30.7 395.95 30.7 L396.25 30.7 Q399.3 30.85 401.4 34.1 L402.1 35.2 Q404.0 38.9 403.7 42.25 L402.2 42.15 400.3 42.2 395.2 43.0 Q391.1 43.85 387.35 45.5 385.45 46.0 383.1 47.15 L378.45 49.4 372.85 51.5 Q370.95 52.2 369.75 52.95 368.6 53.5 368.0 54.1 L366.85 52.1 M376.2 43.6 L376.0 43.6 375.85 44.5 376.0 44.65 376.0 44.75 376.35 45.0 376.45 44.75 376.95 44.25 376.95 44.15 376.95 43.75 376.2 43.6 M393.45 38.7 L393.45 38.9 393.45 39.3 393.45 39.85 393.95 40.0 394.6 39.85 394.6 38.7 394.35 38.75 394.25 38.7 393.45 38.7" fill="#ffffff" fill-rule="evenodd" stroke="none"/>
    <path d="M369.75 52.95 Q370.95 52.2 372.85 51.5 L378.45 49.4 383.1 47.15 Q385.45 46.0 387.35 45.5 391.1 43.85 395.2 43.0 L400.3 42.2 402.1 44.95 400.3 45.3 402.1 44.95 Q403.7 48.2 403.7 52.2 403.7 59.05 398.85 63.75 L397.75 64.8 395.7 66.2 395.8 64.1 395.8 61.1 Q395.8 58.6 395.25 54.6 L394.45 50.1 394.35 49.5 Q391.3 49.95 387.6 52.0 L384.3 54.1 384.2 60.1 Q384.2 62.95 384.45 65.35 L384.75 68.4 Q380.55 68.0 377.2 65.75 L374.7 63.75 Q371.55 60.8 370.4 56.9 369.8 55.0 369.75 52.95 M387.45 40.1 Q386.95 37.9 385.75 36.25 L385.4 35.8 386.8 35.75 388.65 35.85 388.75 35.85 Q387.6 37.65 387.6 39.55 L387.45 40.1 M376.0 44.25 L376.0 44.65 376.0 44.25 376.0 43.75 376.2 43.6 376.0 43.75 376.0 44.25 Q376.25 43.85 376.95 43.75 376.25 43.85 376.0 44.25 M376.0 44.65 L375.85 44.5 376.0 43.6 376.2 43.6 376.95 43.75 376.95 44.15 376.45 44.75 376.95 44.15 376.95 44.25 376.45 44.75 376.3 44.75 376.0 44.65 376.3 44.75 376.45 44.75 376.35 45.0 376.0 44.75 376.0 44.65 M393.45 38.7 L394.25 38.7 394.35 38.75 394.6 38.7 394.6 39.85 393.95 40.0 393.45 39.85 393.45 39.3 393.45 38.9 393.45 38.7 M393.45 38.9 L394.2 38.85 Q394.2 38.75 394.35 38.75 L394.4 39.65 393.7 39.65 393.45 39.3 393.7 39.65 394.4 39.65 394.35 38.75 Q394.2 38.75 394.2 38.85 L393.45 38.9 M396.85 47.95 L396.6 49.35 395.7 49.4 394.45 49.5 394.35 49.5 394.45 49.5 395.7 49.4 396.6 49.35 396.85 47.95 M381.35 53.9 L383.35 54.45 384.3 54.1 383.35 54.45 381.35 53.9 M374.3 55.4 L370.4 56.9 374.3 55.4" fill="#666666" fill-rule="evenodd" stroke="none"/>
    <path d="M381.5 33.3 Q383.6 32.65 386.25 32.4 389.05 32.15 391.9 32.45 L390.7 33.5 Q389.5 34.65 388.75 35.8 L388.65 35.85 386.8 35.75 385.4 35.8 Q383.85 33.85 381.5 33.3 M386.5 75.45 L385.6 75.2 Q381.35 73.6 377.6 71.15 374.0 68.6 371.1 65.0 368.5 61.75 367.5 58.0 L367.35 57.4 Q366.75 54.8 366.85 52.1 L368.0 54.1 Q368.6 53.5 369.75 52.95 369.8 55.0 370.4 56.9 L367.5 58.0 370.4 56.9 Q371.55 60.8 374.7 63.75 L377.2 65.75 Q378.6 67.6 381.05 68.9 383.05 70.05 385.1 70.5 385.5 72.95 386.25 74.85 L386.5 75.45 M402.1 35.2 L403.0 35.6 Q409.6 42.5 409.6 52.25 409.6 62.0 403.0 68.85 L402.0 69.95 Q398.7 72.95 394.7 74.45 L394.95 73.1 395.5 69.35 Q397.65 68.4 399.45 66.85 L401.75 64.35 Q405.95 58.9 405.85 53.7 405.75 48.4 404.8 46.1 L404.0 44.6 402.2 42.15 403.7 42.25 Q404.0 38.9 402.1 35.2 M407.1 44.15 L404.0 44.6 407.1 44.15" fill="#ffcc33" fill-rule="evenodd" stroke="none"/>
    <path d="M394.45 50.1 L395.25 54.6 Q395.8 58.6 395.8 61.1 L395.8 64.1 394.85 63.95 Q394.55 62.95 393.35 62.1 392.1 61.15 390.25 61.15 388.85 61.15 387.35 62.35 385.55 63.55 385.25 65.25 L384.45 65.35 Q384.2 62.95 384.2 60.1 L384.3 54.1 387.6 52.0 Q391.3 49.95 394.35 49.5 L394.45 50.1" fill="#51321e" fill-rule="evenodd" stroke="none"/>
    <path d="M386.55 75.75 L386.5 75.45 386.25 74.85 Q385.5 72.95 385.1 70.5 L384.75 68.4 384.45 65.35 385.25 65.25 Q385.55 63.55 387.35 62.35 388.85 61.15 390.25 61.15 392.1 61.15 393.35 62.1 394.55 62.95 394.85 63.95 L395.8 64.1 395.7 66.2 395.5 69.35 394.95 73.1 394.7 74.45 Q393.6 80.2 391.45 80.2 388.5 80.2 386.55 75.75" fill="#fe8181" fill-rule="evenodd" stroke="none"/>
    <path d="M387.3 28.75 L387.0 26.25 Q386.4 22.7 383.95 22.7 382.95 22.7 381.85 23.75 381.05 24.55 380.75 25.25 M366.85 52.1 L366.6 51.65 Q366.3 50.9 366.3 49.6 366.3 44.75 369.6 39.5 373.7 33.1 379.7 33.1 L381.5 33.3 Q383.85 33.85 385.4 35.8 L385.75 36.25 Q386.95 37.9 387.45 40.1 L387.6 43.05 387.35 45.5 Q385.45 46.0 383.1 47.15 L378.45 49.4 372.85 51.5 Q370.95 52.2 369.75 52.95 368.6 53.5 368.0 54.1 L366.85 52.1 M391.9 32.45 Q394.1 30.7 395.95 30.7 L396.25 30.7 Q392.45 28.95 388.0 28.8 L387.25 30.15 387.3 28.75 386.95 28.75 Q378.5 28.75 372.35 34.2 L370.85 35.6 Q364.2 42.5 364.2 52.25 364.2 62.0 370.85 68.85 377.35 75.6 386.55 75.75 L386.5 75.45 386.25 74.85 Q385.5 72.95 385.1 70.5 L384.75 68.4 Q380.55 68.0 377.2 65.75 L374.7 63.75 Q371.55 60.8 370.4 56.9 369.8 55.0 369.75 52.95 M401.4 34.1 Q399.3 30.85 396.25 30.7 M403.0 35.6 L401.4 34.1 402.1 35.2 Q404.0 38.9 403.7 42.25 L402.2 42.15 400.3 42.2 395.2 43.0 Q391.1 43.85 387.35 45.5 M404.0 44.6 L407.1 44.15 M388.0 28.8 L388.75 27.75 Q390.25 25.65 391.3 25.65 392.2 25.65 392.5 27.5 M387.3 28.75 L388.0 28.8 M388.65 35.85 L388.75 35.85 388.75 35.8 Q389.5 34.65 390.7 33.5 L391.9 32.45 M388.65 35.85 L386.8 35.75 385.4 35.8 M393.45 38.7 L394.25 38.7 394.35 38.75 394.6 38.7 394.6 39.85 393.95 40.0 393.45 39.85 393.45 39.3 393.45 38.9 393.45 38.7 M393.45 39.3 L393.7 39.65 394.4 39.65 394.35 38.75 Q394.2 38.75 394.2 38.85 L393.45 38.9 M388.75 35.85 Q387.6 37.65 387.6 39.55 L387.45 40.1 M394.35 49.5 L394.45 49.5 395.7 49.4 396.6 49.35 396.85 47.95 M395.5 69.35 L394.95 73.1 394.7 74.45 Q398.7 72.95 402.0 69.95 L403.0 68.85 Q409.6 62.0 409.6 52.25 409.6 42.5 403.0 35.6 M402.1 44.95 L403.6 44.65 404.0 44.6 M400.3 45.3 L402.1 44.95 400.3 42.2 M395.8 64.1 L395.8 61.1 Q395.8 58.6 395.25 54.6 L394.45 50.1 M394.35 49.5 Q391.3 49.95 387.6 52.0 L384.3 54.1 384.2 60.1 Q384.2 62.95 384.45 65.35 L384.75 68.4 M385.25 65.25 Q385.55 63.55 387.35 62.35 388.85 61.15 390.25 61.15 392.1 61.15 393.35 62.1 394.55 62.95 394.85 63.95 M395.8 64.1 L395.7 66.2 397.75 64.8 398.85 63.75 Q403.7 59.05 403.7 52.2 403.7 48.2 402.1 44.95 M395.5 69.35 L395.7 66.2 M384.3 54.1 L383.35 54.45 381.35 53.9 M370.4 56.9 L374.3 55.4 M367.5 58.0 L370.4 56.9 M394.7 74.45 Q393.6 80.2 391.45 80.2 388.5 80.2 386.55 75.75" fill="none" stroke="#000000" stroke-linecap="butt" stroke-linejoin="miter-clip" stroke-miterlimit="3.0" stroke-width="4.0"/>
    <path d="M376.0 44.65 L376.0 44.25 376.0 43.75 376.2 43.6 376.0 43.6 375.85 44.5 376.0 44.65 376.3 44.75 376.45 44.75 376.95 44.15 376.95 43.75 Q376.25 43.85 376.0 44.25 M376.0 44.65 L376.0 44.75 376.35 45.0 376.45 44.75 376.95 44.25 376.95 44.15 M376.2 43.6 L376.95 43.75" fill="none" stroke="#000000" stroke-linecap="round" stroke-linejoin="miter-clip" stroke-miterlimit="3.0" stroke-width="4.0"/>
    <path d="M381.5 33.3 L379.7 33.1 Q373.7 33.1 369.6 39.5 366.3 44.75 366.3 49.6 366.3 50.9 366.6 51.65 L366.85 52.1 Q366.75 54.8 367.35 57.4 L367.5 58.0 Q368.5 61.75 371.1 65.0 374.0 68.6 377.6 71.15 381.35 73.6 385.6 75.2 L386.5 75.45 386.55 75.75 Q377.35 75.6 370.85 68.85 364.2 62.0 364.2 52.25 364.2 42.5 370.85 35.6 L372.35 34.2 Q378.5 28.75 386.95 28.75 L387.3 28.75 387.25 30.15 388.0 28.8 387.25 30.15 387.3 28.75 388.0 28.8 Q392.45 28.95 396.25 30.7 L395.95 30.7 Q394.1 30.7 391.9 32.45 389.05 32.15 386.25 32.4 383.6 32.65 381.5 33.3 M403.0 35.6 L402.1 35.2 401.4 34.1 403.0 35.6 M402.2 42.15 L404.0 44.6 404.8 46.1 Q405.75 48.4 405.85 53.7 405.95 58.9 401.75 64.35 L399.45 66.85 Q397.65 68.4 395.5 69.35 L395.7 66.2 397.75 64.8 398.85 63.75 Q403.7 59.05 403.7 52.2 403.7 48.2 402.1 44.95 L403.6 44.65 404.0 44.6 403.6 44.65 402.1 44.95 400.3 42.2 402.2 42.15 M388.65 35.85 L388.75 35.8 388.75 35.85 388.65 35.85 M384.75 68.4 L385.1 70.5 Q383.05 70.05 381.05 68.9 378.6 67.6 377.2 65.75 380.55 68.0 384.75 68.4" fill="#ffff66" fill-rule="evenodd" stroke="none"/>
    <path d="M366.85 52.1 L366.6 51.65 Q366.3 50.9 366.3 49.6 366.3 44.75 369.6 39.5 373.7 33.1 379.7 33.1 L381.5 33.3 Q383.85 33.85 385.4 35.8 L385.75 36.25 Q386.95 37.9 387.45 40.1 L387.6 43.05 387.35 45.5 387.6 43.05 387.45 40.1 387.6 39.55 Q387.6 37.65 388.75 35.85 L388.75 35.8 Q389.5 34.65 390.7 33.5 L391.9 32.45 Q394.1 30.7 395.95 30.7 L396.25 30.7 Q399.3 30.85 401.4 34.1 L402.1 35.2 Q404.0 38.9 403.7 42.25 L402.2 42.15 400.3 42.2 395.2 43.0 Q391.1 43.85 387.35 45.5 385.45 46.0 383.1 47.15 L378.45 49.4 372.85 51.5 Q370.95 52.2 369.75 52.95 368.6 53.5 368.0 54.1 L366.85 52.1 M376.2 43.6 L376.0 43.6 375.85 44.5 376.0 44.65 376.0 44.75 376.35 45.0 376.45 44.75 376.95 44.25 376.95 44.15 376.95 43.75 376.2 43.6 M393.45 38.7 L393.45 38.9 393.45 39.3 393.45 39.85 393.95 40.0 394.6 39.85 394.6 38.7 394.35 38.75 394.25 38.7 393.45 38.7" fill="#ffffff" fill-rule="evenodd" stroke="none"/>
    <path d="M369.75 52.95 Q370.95 52.2 372.85 51.5 L378.45 49.4 383.1 47.15 Q385.45 46.0 387.35 45.5 391.1 43.85 395.2 43.0 L400.3 42.2 402.1 44.95 400.3 45.3 402.1 44.95 Q403.7 48.2 403.7 52.2 403.7 59.05 398.85 63.75 L397.75 64.8 395.7 66.2 395.8 64.1 395.8 61.1 Q395.8 58.6 395.25 54.6 L394.45 50.1 394.35 49.5 Q391.3 49.95 387.6 52.0 L384.3 54.1 384.2 60.1 Q384.2 62.95 384.45 65.35 L384.75 68.4 Q380.55 68.0 377.2 65.75 L374.7 63.75 Q371.55 60.8 370.4 56.9 369.8 55.0 369.75 52.95 M387.45 40.1 Q386.95 37.9 385.75 36.25 L385.4 35.8 386.8 35.75 388.65 35.85 388.75 35.85 Q387.6 37.65 387.6 39.55 L387.45 40.1 M376.0 44.25 L376.0 44.65 376.0 44.25 376.0 43.75 376.2 43.6 376.0 43.75 376.0 44.25 Q376.25 43.85 376.95 43.75 376.25 43.85 376.0 44.25 M376.0 44.65 L375.85 44.5 376.0 43.6 376.2 43.6 376.95 43.75 376.95 44.15 376.45 44.75 376.95 44.15 376.95 44.25 376.45 44.75 376.3 44.75 376.0 44.65 376.3 44.75 376.45 44.75 376.35 45.0 376.0 44.75 376.0 44.65 M393.45 38.7 L394.25 38.7 394.35 38.75 394.6 38.7 394.6 39.85 393.95 40.0 393.45 39.85 393.45 39.3 393.45 38.9 393.45 38.7 M393.45 38.9 L394.2 38.85 Q394.2 38.75 394.35 38.75 L394.4 39.65 393.7 39.65 393.45 39.3 393.7 39.65 394.4 39.65 394.35 38.75 Q394.2 38.75 394.2 38.85 L393.45 38.9 M396.85 47.95 L396.6 49.35 395.7 49.4 394.45 49.5 394.35 49.5 394.45 49.5 395.7 49.4 396.6 49.35 396.85 47.95 M381.35 53.9 L383.35 54.45 384.3 54.1 383.35 54.45 381.35 53.9 M374.3 55.4 L370.4 56.9 374.3 55.4" fill="#666666" fill-rule="evenodd" stroke="none"/>
    <path d="M381.5 33.3 Q383.6 32.65 386.25 32.4 389.05 32.15 391.9 32.45 L390.7 33.5 Q389.5 34.65 388.75 35.8 L388.65 35.85 386.8 35.75 385.4 35.8 Q383.85 33.85 381.5 33.3 M386.5 75.45 L385.6 75.2 Q381.35 73.6 377.6 71.15 374.0 68.6 371.1 65.0 368.5 61.75 367.5 58.0 L367.35 57.4 Q366.75 54.8 366.85 52.1 L368.0 54.1 Q368.6 53.5 369.75 52.95 369.8 55.0 370.4 56.9 L367.5 58.0 370.4 56.9 Q371.55 60.8 374.7 63.75 L377.2 65.75 Q378.6 67.6 381.05 68.9 383.05 70.05 385.1 70.5 385.5 72.95 386.25 74.85 L386.5 75.45 M402.1 35.2 L403.0 35.6 Q409.6 42.5 409.6 52.25 409.6 62.0 403.0 68.85 L402.0 69.95 Q398.7 72.95 394.7 74.45 L394.95 73.1 395.5 69.35 Q397.65 68.4 399.45 66.85 L401.75 64.35 Q405.95 58.9 405.85 53.7 405.75 48.4 404.8 46.1 L404.0 44.6 402.2 42.15 403.7 42.25 Q404.0 38.9 402.1 35.2 M407.1 44.15 L404.0 44.6 407.1 44.15" fill="#ffcc33" fill-rule="evenodd" stroke="none"/>
    <path d="M394.45 50.1 L395.25 54.6 Q395.8 58.6 395.8 61.1 L395.8 64.1 394.85 63.95 Q394.55 62.95 393.35 62.1 392.1 61.15 390.25 61.15 388.85 61.15 387.35 62.35 385.55 63.55 385.25 65.25 L384.45 65.35 Q384.2 62.95 384.2 60.1 L384.3 54.1 387.6 52.0 Q391.3 49.95 394.35 49.5 L394.45 50.1" fill="#51321e" fill-rule="evenodd" stroke="none"/>
    <path d="M386.55 75.75 L386.5 75.45 386.25 74.85 Q385.5 72.95 385.1 70.5 L384.75 68.4 384.45 65.35 385.25 65.25 Q385.55 63.55 387.35 62.35 388.85 61.15 390.25 61.15 392.1 61.15 393.35 62.1 394.55 62.95 394.85 63.95 L395.8 64.1 395.7 66.2 395.5 69.35 394.95 73.1 394.7 74.45 Q393.6 80.2 391.45 80.2 388.5 80.2 386.55 75.75" fill="#fe8181" fill-rule="evenodd" stroke="none"/>
    <path d="M387.3 28.75 L387.0 26.25 Q386.4 22.7 383.95 22.7 382.95 22.7 381.85 23.75 381.05 24.55 380.75 25.25 M366.85 52.1 L366.6 51.65 Q366.3 50.9 366.3 49.6 366.3 44.75 369.6 39.5 373.7 33.1 379.7 33.1 L381.5 33.3 Q383.85 33.85 385.4 35.8 L385.75 36.25 Q386.95 37.9 387.45 40.1 L387.6 43.05 387.35 45.5 Q385.45 46.0 383.1 47.15 L378.45 49.4 372.85 51.5 Q370.95 52.2 369.75 52.95 368.6 53.5 368.0 54.1 L366.85 52.1 M391.9 32.45 Q394.1 30.7 395.95 30.7 L396.25 30.7 Q399.3 30.85 401.4 34.1 L402.1 35.2 Q404.0 38.9 403.7 42.25 L402.2 42.15 400.3 42.2 395.2 43.0 Q391.1 43.85 387.35 45.5 M388.0 28.8 L387.25 30.15 387.3 28.75 M386.55 75.75 L386.5 75.45 386.25 74.85 Q385.5 72.95 385.1 70.5 L384.75 68.4 384.45 65.35 Q384.2 62.95 384.2 60.1 L384.3 54.1 383.35 54.45 381.35 53.9 M404.0 44.6 L407.1 44.15 M388.0 28.8 L388.75 27.75 Q390.25 25.65 391.3 25.65 392.2 25.65 392.5 27.5 M388.75 35.85 L388.75 35.8 Q389.5 34.65 390.7 33.5 L391.9 32.45 M393.45 38.7 L394.25 38.7 394.35 38.75 394.6 38.7 394.6 39.85 393.95 40.0 393.45 39.85 393.45 39.3 393.45 38.9 393.45 38.7 M393.45 39.3 L393.7 39.65 394.4 39.65 394.35 38.75 Q394.2 38.75 394.2 38.85 L393.45 38.9 M388.75 35.85 Q387.6 37.65 387.6 39.55 L387.45 40.1 M394.35 49.5 L394.45 49.5 395.7 49.4 396.6 49.35 396.85 47.95 M395.5 69.35 L394.95 73.1 394.7 74.45 Q393.6 80.2 391.45 80.2 388.5 80.2 386.55 75.75 M402.1 44.95 L403.6 44.65 404.0 44.6 M400.3 45.3 L402.1 44.95 M395.8 64.1 L395.8 61.1 Q395.8 58.6 395.25 54.6 L394.45 50.1 M394.35 49.5 Q391.3 49.95 387.6 52.0 L384.3 54.1 M395.8 64.1 L395.7 66.2 395.5 69.35 M370.4 56.9 L374.3 55.4 M367.5 58.0 L370.4 56.9" fill="none" stroke="#000000" stroke-linecap="butt" stroke-linejoin="miter-clip" stroke-miterlimit="3.0" stroke-width="1.0"/>
    <path d="M396.25 30.7 Q392.45 28.95 388.0 28.8 L387.3 28.75 386.95 28.75 Q378.5 28.75 372.35 34.2 L370.85 35.6 Q364.2 42.5 364.2 52.25 364.2 62.0 370.85 68.85 377.35 75.6 386.55 75.75 M403.0 35.6 L401.4 34.1 M394.7 74.45 Q398.7 72.95 402.0 69.95 L403.0 68.85 Q409.6 62.0 409.6 52.25 409.6 42.5 403.0 35.6" fill="none" stroke="#5e2f00" stroke-linecap="butt" stroke-linejoin="miter-clip" stroke-miterlimit="3.0" stroke-width="1.5"/>
    <path d="M388.65 35.85 L388.75 35.85 M388.65 35.85 L386.8 35.75 385.4 35.8 M402.1 44.95 L400.3 42.2 M395.7 66.2 L397.75 64.8 398.85 63.75 Q403.7 59.05 403.7 52.2 403.7 48.2 402.1 44.95 M384.75 68.4 Q380.55 68.0 377.2 65.75 L374.7 63.75 Q371.55 60.8 370.4 56.9 369.8 55.0 369.75 52.95" fill="none" stroke="#aa5500" stroke-linecap="butt" stroke-linejoin="miter-clip" stroke-miterlimit="3.0" stroke-width="0.5"/>
    <path d="M385.25 65.25 Q385.55 63.55 387.35 62.35 388.85 61.15 390.25 61.15 392.1 61.15 393.35 62.1 394.55 62.95 394.85 63.95" fill="none" stroke="#ff3333" stroke-linecap="butt" stroke-linejoin="miter-clip" stroke-miterlimit="3.0" stroke-width="1.0"/>
    <path d="M376.0 44.65 L376.0 44.25 376.0 43.75 376.2 43.6 376.0 43.6 375.85 44.5 376.0 44.65 376.3 44.75 376.45 44.75 376.95 44.15 376.95 43.75 Q376.25 43.85 376.0 44.25 M376.0 44.65 L376.0 44.75 376.35 45.0 376.45 44.75 376.95 44.25 376.95 44.15 M376.2 43.6 L376.95 43.75" fill="none" stroke="#000000" stroke-linecap="round" stroke-linejoin="miter-clip" stroke-miterlimit="3.0" stroke-width="1.0"/>
    <path d="M532.55 37.15 L546.8 37.15 545.4 45.1 539.45 45.1 540.0 42.05 517.05 42.05 516.6 44.4 519.65 44.4 518.15 52.75 533.75 52.75 Q534.55 52.75 534.7 51.85 L535.8 45.9 541.6 45.9 540.0 54.7 Q539.45 57.65 536.1 57.65 L517.25 57.65 516.25 63.2 Q516.1 64.1 517.2 64.1 L540.7 64.1 539.8 69.1 512.8 69.1 Q509.4 69.1 509.9 66.2 L513.75 45.1 510.55 45.1 511.95 37.15 526.2 37.15 526.8 33.95 533.15 33.95 532.55 37.15 M555.25 37.85 L562.0 37.85 560.95 43.6 557.0 56.05 553.65 56.05 554.2 43.7 555.25 37.85 M486.85 49.4 L489.6 34.3 507.6 34.3 505.45 46.05 Q504.85 49.4 501.2 49.4 L497.95 49.4 497.2 53.55 504.1 53.55 503.25 58.3 496.35 58.3 495.1 65.15 503.6 65.15 502.75 69.9 489.35 69.9 Q487.45 69.9 486.15 68.35 483.75 69.9 480.1 69.9 L480.95 65.25 Q482.85 64.75 482.95 63.95 L485.35 50.9 490.25 50.9 488.15 62.55 Q488.0 63.3 489.05 64.35 L490.0 64.9 492.8 49.4 486.85 49.4 M486.75 42.95 L483.4 42.95 483.05 44.9 486.25 44.9 485.4 49.8 482.2 49.8 479.4 65.15 Q479.05 67.05 477.6 68.35 476.35 69.4 474.5 69.4 L467.95 69.4 468.75 64.8 473.6 64.8 Q474.55 64.8 474.95 62.75 L476.3 55.2 474.0 60.2 Q472.55 63.3 470.4 63.3 L467.65 63.3 468.6 58.1 469.55 58.1 Q470.0 58.1 470.45 57.2 L475.05 47.2 Q476.0 44.9 477.55 44.9 L478.15 44.9 478.5 42.95 471.75 42.95 472.65 38.05 479.4 38.05 480.15 33.85 485.05 33.85 484.3 38.05 487.65 38.05 486.75 42.95 M492.6 44.85 L499.6 44.85 Q500.8 44.85 501.0 43.75 L501.85 38.85 493.65 38.85 492.6 44.85 M556.9 65.9 L550.15 65.9 551.45 58.8 558.2 58.8 556.9 65.9 M464.0 35.05 L468.9 35.05 468.15 39.3 Q467.65 41.9 464.8 41.9 L458.85 41.9 458.45 44.05 466.5 44.05 462.35 67.1 Q461.95 69.4 459.05 69.4 L455.1 69.4 455.8 65.6 456.95 65.6 Q457.6 65.6 457.7 65.0 L458.0 63.2 455.0 63.2 453.9 69.3 449.0 69.3 450.1 63.2 447.05 63.2 445.95 69.4 440.85 69.4 445.4 44.05 453.55 44.05 453.95 41.9 445.5 41.9 446.3 37.5 454.75 37.5 455.35 34.3 460.25 34.3 459.65 37.5 463.0 37.5 Q463.55 37.5 463.7 36.7 L464.0 35.05 M449.75 48.3 L449.2 51.4 452.25 51.4 452.8 48.3 449.75 48.3 M457.7 48.3 L457.15 51.4 460.15 51.4 460.7 48.3 457.7 48.3 M438.3 34.4 L443.3 34.4 442.85 37.05 445.6 37.05 444.75 41.6 442.0 41.6 441.5 44.4 443.85 44.4 443.0 49.1 440.65 49.1 437.8 64.8 Q437.45 66.85 435.95 68.15 434.8 69.3 432.9 69.3 L428.8 69.3 429.6 65.0 431.9 65.0 Q432.8 65.0 433.15 63.0 L433.95 58.6 433.05 60.4 Q432.0 62.4 431.1 62.4 L428.5 62.4 429.35 57.65 Q430.35 57.65 431.15 56.0 L435.95 46.2 436.3 45.65 437.0 41.6 432.7 41.6 433.55 37.05 437.85 37.05 438.3 34.4 M456.35 55.7 L455.8 58.75 458.8 58.75 459.35 55.7 456.35 55.7 M450.9 58.75 L451.45 55.7 448.4 55.7 447.85 58.75 450.9 58.75" fill="url(#gradient0)" fill-rule="evenodd" stroke="none"/>
    <path d="M532.55 37.15 L546.8 37.15 545.4 45.1 539.45 45.1 540.0 42.05 517.05 42.05 516.6 44.4 519.65 44.4 518.15 52.75 533.75 52.75 Q534.55 52.75 534.7 51.85 L535.8 45.9 541.6 45.9 540.0 54.7 Q539.45 57.65 536.1 57.65 L517.25 57.65 516.25 63.2 Q516.1 64.1 517.2 64.1 L540.7 64.1 539.8 69.1 512.8 69.1 Q509.4 69.1 509.9 66.2 L513.75 45.1 510.55 45.1 511.95 37.15 526.2 37.15 526.8 33.95 533.15 33.95 532.55 37.15 M555.25 37.85 L554.2 43.7 553.65 56.05 557.0 56.05 560.95 43.6 562.0 37.85 555.25 37.85 M486.85 49.4 L489.6 34.3 507.6 34.3 505.45 46.05 Q504.85 49.4 501.2 49.4 L497.95 49.4 497.2 53.55 504.1 53.55 503.25 58.3 496.35 58.3 495.1 65.15 503.6 65.15 502.75 69.9 489.35 69.9 Q487.45 69.9 486.15 68.35 483.75 69.9 480.1 69.9 L480.95 65.25 Q482.85 64.75 482.95 63.95 L485.35 50.9 490.25 50.9 488.15 62.55 Q488.0 63.3 489.05 64.35 L490.0 64.9 492.8 49.4 486.85 49.4 M486.75 42.95 L483.4 42.95 483.05 44.9 486.25 44.9 485.4 49.8 482.2 49.8 479.4 65.15 Q479.05 67.05 477.6 68.35 476.35 69.4 474.5 69.4 L467.95 69.4 468.75 64.8 473.6 64.8 Q474.55 64.8 474.95 62.75 L476.3 55.2 474.0 60.2 Q472.55 63.3 470.4 63.3 L467.65 63.3 468.6 58.1 469.55 58.1 Q470.0 58.1 470.45 57.2 L475.05 47.2 Q476.0 44.9 477.55 44.9 L478.15 44.9 478.5 42.95 471.75 42.95 472.65 38.05 479.4 38.05 480.15 33.85 485.05 33.85 484.3 38.05 487.65 38.05 486.75 42.95 M492.6 44.85 L499.6 44.85 Q500.8 44.85 501.0 43.75 L501.85 38.85 493.65 38.85 492.6 44.85 M556.9 65.9 L558.2 58.8 551.45 58.8 550.15 65.9 556.9 65.9 M464.0 35.05 L468.9 35.05 468.15 39.3 Q467.65 41.9 464.8 41.9 L458.85 41.9 458.45 44.05 466.5 44.05 462.35 67.1 Q461.95 69.4 459.05 69.4 L455.1 69.4 455.8 65.6 456.95 65.6 Q457.6 65.6 457.7 65.0 L458.0 63.2 455.0 63.2 453.9 69.3 449.0 69.3 450.1 63.2 447.05 63.2 445.95 69.4 440.85 69.4 445.4 44.05 453.55 44.05 453.95 41.9 445.5 41.9 446.3 37.5 454.75 37.5 455.35 34.3 460.25 34.3 459.65 37.5 463.0 37.5 Q463.55 37.5 463.7 36.7 L464.0 35.05 M449.75 48.3 L449.2 51.4 452.25 51.4 452.8 48.3 449.75 48.3 M457.7 48.3 L457.15 51.4 460.15 51.4 460.7 48.3 457.7 48.3 M438.3 34.4 L443.3 34.4 442.85 37.05 445.6 37.05 444.75 41.6 442.0 41.6 441.5 44.4 443.85 44.4 443.0 49.1 440.65 49.1 437.8 64.8 Q437.45 66.85 435.95 68.15 434.8 69.3 432.9 69.3 L428.8 69.3 429.6 65.0 431.9 65.0 Q432.8 65.0 433.15 63.0 L433.95 58.6 433.05 60.4 Q432.0 62.4 431.1 62.4 L428.5 62.4 429.35 57.65 Q430.35 57.65 431.15 56.0 L435.95 46.2 436.3 45.65 437.0 41.6 432.7 41.6 433.55 37.05 437.85 37.05 438.3 34.4 M456.35 55.7 L455.8 58.75 458.8 58.75 459.35 55.7 456.35 55.7 M450.9 58.75 L451.45 55.7 448.4 55.7 447.85 58.75 450.9 58.75 Z" fill="none" stroke="#000000" stroke-linecap="butt" stroke-linejoin="miter-clip" stroke-miterlimit="3.0" stroke-width="4.0"/>
    <path d="M532.55 37.15 L546.8 37.15 545.4 45.1 539.45 45.1 540.0 42.05 517.05 42.05 516.6 44.4 519.65 44.4 518.15 52.75 533.75 52.75 Q534.55 52.75 534.7 51.85 L535.8 45.9 541.6 45.9 540.0 54.7 Q539.45 57.65 536.1 57.65 L517.25 57.65 516.25 63.2 Q516.1 64.1 517.2 64.1 L540.7 64.1 539.8 69.1 512.8 69.1 Q509.4 69.1 509.9 66.2 L513.75 45.1 510.55 45.1 511.95 37.15 526.2 37.15 526.8 33.95 533.15 33.95 532.55 37.15 M555.25 37.85 L562.0 37.85 560.95 43.6 557.0 56.05 553.65 56.05 554.2 43.7 555.25 37.85 M486.85 49.4 L489.6 34.3 507.6 34.3 505.45 46.05 Q504.85 49.4 501.2 49.4 L497.95 49.4 497.2 53.55 504.1 53.55 503.25 58.3 496.35 58.3 495.1 65.15 503.6 65.15 502.75 69.9 489.35 69.9 Q487.45 69.9 486.15 68.35 483.75 69.9 480.1 69.9 L480.95 65.25 Q482.85 64.75 482.95 63.95 L485.35 50.9 490.25 50.9 488.15 62.55 Q488.0 63.3 489.05 64.35 L490.0 64.9 492.8 49.4 486.85 49.4 M486.75 42.95 L483.4 42.95 483.05 44.9 486.25 44.9 485.4 49.8 482.2 49.8 479.4 65.15 Q479.05 67.05 477.6 68.35 476.35 69.4 474.5 69.4 L467.95 69.4 468.75 64.8 473.6 64.8 Q474.55 64.8 474.95 62.75 L476.3 55.2 474.0 60.2 Q472.55 63.3 470.4 63.3 L467.65 63.3 468.6 58.1 469.55 58.1 Q470.0 58.1 470.45 57.2 L475.05 47.2 Q476.0 44.9 477.55 44.9 L478.15 44.9 478.5 42.95 471.75 42.95 472.65 38.05 479.4 38.05 480.15 33.85 485.05 33.85 484.3 38.05 487.65 38.05 486.75 42.95 M492.6 44.85 L499.6 44.85 Q500.8 44.85 501.0 43.75 L501.85 38.85 493.65 38.85 492.6 44.85 M550.15 65.9 L551.45 58.8 558.2 58.8 556.9 65.9 550.15 65.9 M464.0 35.05 L468.9 35.05 468.15 39.3 Q467.65 41.9 464.8 41.9 L458.85 41.9 458.45 44.05 466.5 44.05 462.35 67.1 Q461.95 69.4 459.05 69.4 L455.1 69.4 455.8 65.6 456.95 65.6 Q457.6 65.6 457.7 65.0 L458.0 63.2 455.0 63.2 453.9 69.3 449.0 69.3 450.1 63.2 447.05 63.2 445.95 69.4 440.85 69.4 445.4 44.05 453.55 44.05 453.95 41.9 445.5 41.9 446.3 37.5 454.75 37.5 455.35 34.3 460.25 34.3 459.65 37.5 463.0 37.5 Q463.55 37.5 463.7 36.7 L464.0 35.05 M449.75 48.3 L449.2 51.4 452.25 51.4 452.8 48.3 449.75 48.3 M457.7 48.3 L457.15 51.4 460.15 51.4 460.7 48.3 457.7 48.3 M438.3 34.4 L443.3 34.4 442.85 37.05 445.6 37.05 444.75 41.6 442.0 41.6 441.5 44.4 443.85 44.4 443.0 49.1 440.65 49.1 437.8 64.8 Q437.45 66.85 435.95 68.15 434.8 69.3 432.9 69.3 L428.8 69.3 429.6 65.0 431.9 65.0 Q432.8 65.0 433.15 63.0 L433.95 58.6 433.05 60.4 Q432.0 62.4 431.1 62.4 L428.5 62.4 429.35 57.65 Q430.35 57.65 431.15 56.0 L435.95 46.2 436.3 45.65 437.0 41.6 432.7 41.6 433.55 37.05 437.85 37.05 438.3 34.4 M456.35 55.7 L455.8 58.75 458.8 58.75 459.35 55.7 456.35 55.7 M450.9 58.75 L451.45 55.7 448.4 55.7 447.85 58.75 450.9 58.75" fill="url(#gradient1)" fill-rule="evenodd" stroke="none"/>
  </g>
  <defs>
    <linearGradient gradientTransform="matrix(-0.004, 0.022, -0.0788, 0.0, 494.95, 51.85)" gradientUnits="userSpaceOnUse" id="gradient0" spreadMethod="pad" x1="-819.2" x2="819.2">
      <stop offset="0.0" stop-color="#ffcc00"/>
      <stop offset="1.0" stop-color="#ffff99"/>
    </linearGradient>
    <linearGradient gradientTransform="matrix(-0.004, 0.022, -0.0788, 0.0, 494.95, 51.85)" gradientUnits="userSpaceOnUse" id="gradient1" spreadMethod="pad" x1="-819.2" x2="819.2">
      <stop offset="0.0" stop-color="#ffcc00"/>
      <stop offset="1.0" stop-color="#ffff99"/>
    </linearGradient>
  </defs>
</svg>
