<?xml version="1.0" encoding="UTF-8" standalone="no"?>
<svg xmlns:xlink="http://www.w3.org/1999/xlink" height="74.7px" width="130.25px" xmlns="http://www.w3.org/2000/svg">
  <g transform="matrix(1.0, 0.0, 0.0, 1.0, -25.05, -25.25)">
    <path d="M147.1 25.25 L147.1 45.0 147.1 47.55 82.5 47.55 60.3 25.35 64.35 25.35 147.1 25.25" fill="url(#gradient0)" fill-rule="evenodd" stroke="none"/>
    <path d="M147.1 45.0 L147.1 47.55 82.5 47.55 60.3 25.35 64.35 25.35 84.0 45.0 147.1 45.0" fill="url(#gradient1)" fill-rule="evenodd" stroke="none"/>
    <path d="M146.05 97.45 L152.8 90.15 152.8 57.55 146.1 50.65 82.05 50.65 Q80.95 50.65 80.3 49.9 L59.2 28.45 34.55 28.45 27.8 35.3 27.55 90.1 34.8 97.45 146.05 97.45 M155.3 91.1 L147.1 99.95 33.75 99.95 25.05 91.1 25.3 34.25 33.5 25.95 60.2 25.95 82.05 48.15 147.1 48.15 155.3 56.5 155.3 91.1" fill="#0e1c52" fill-rule="evenodd" stroke="none"/>
  </g>
  <defs>
    <linearGradient gradientTransform="matrix(0.0447, 0.0, 0.0, 0.0156, 115.55, -18.0)" gradientUnits="userSpaceOnUse" id="gradient0" spreadMethod="pad" x1="-819.2" x2="819.2">
      <stop offset="0.00392156862745098" stop-color="#6ac4e2"/>
      <stop offset="0.3803921568627451" stop-color="#6aa3e2"/>
      <stop offset="0.9411764705882353" stop-color="#6aa3e2" stop-opacity="0.0"/>
    </linearGradient>
    <linearGradient gradientTransform="matrix(0.053, 0.0, 0.0, 0.0135, 103.7, 36.45)" gradientUnits="userSpaceOnUse" id="gradient1" spreadMethod="pad" x1="-819.2" x2="819.2">
      <stop offset="0.00392156862745098" stop-color="#1f7e9e"/>
      <stop offset="0.3803921568627451" stop-color="#2877ce"/>
      <stop offset="0.9411764705882353" stop-color="#6aa3e2" stop-opacity="0.0"/>
    </linearGradient>
  </defs>
</svg>
