<?xml version="1.0" encoding="UTF-8" standalone="no"?>
<svg xmlns:xlink="http://www.w3.org/1999/xlink" height="86.3px" width="144.7px" xmlns="http://www.w3.org/2000/svg">
  <g transform="matrix(1.0, 0.0, 0.0, 1.0, 11.0, 5.05)">
    <path d="M133.1 -4.45 L133.1 80.65 M-10.4 80.65 L-10.4 -4.45" fill="none" stroke="url(#gradient0)" stroke-linecap="round" stroke-linejoin="round" stroke-width="1.2000000000000002"/>
    <path d="M130.25 30.55 L130.25 65.15 122.05 74.0 8.7 74.0 0.0 65.15 0.25 8.3 8.45 0.0 35.15 0.0 57.0 22.2 122.05 22.2 130.25 30.55" fill="url(#gradient1)" fill-rule="evenodd" stroke="none"/>
    <path d="M130.25 30.55 L130.25 65.15 122.05 74.0 8.7 74.0 0.0 65.15 0.25 8.3 8.45 0.0 35.15 0.0 57.0 22.2 122.05 22.2 130.25 30.55 M125.75 32.45 L120.2 26.7 57.0 26.7 Q55.0 26.7 53.9 25.4 L53.9 25.45 33.35 4.5 10.35 4.5 4.75 10.2 4.5 63.35 10.6 69.5 120.15 69.5 125.75 63.4 125.75 32.45" fill="url(#gradient2)" fill-rule="evenodd" stroke="none"/>
    <path d="M125.75 32.45 L125.75 63.4 120.15 69.5 10.6 69.5 4.5 63.35 4.75 10.2 10.35 4.5 33.35 4.5 53.9 25.45 53.9 25.4 Q55.0 26.7 57.0 26.7 L120.2 26.7 125.75 32.45 Z" fill="none" stroke="url(#gradient3)" stroke-linecap="round" stroke-linejoin="round" stroke-width="1.2000000000000002"/>
    <path d="M130.25 30.55 L130.25 65.15 122.05 74.0 8.7 74.0 0.0 65.15 0.25 8.3 8.45 0.0 35.15 0.0 57.0 22.2 122.05 22.2 130.25 30.55 M128.75 31.2 L121.45 23.7 57.0 23.7 Q56.4 23.7 56.0 23.3 L34.55 1.5 9.05 1.5 1.75 8.9 1.5 64.55 9.3 72.5 121.45 72.5 128.75 64.6 128.75 31.2" fill="#285080" fill-rule="evenodd" stroke="none"/>
  </g>
  <defs>
    <linearGradient gradientTransform="matrix(0.0883, 0.0, 0.0, 0.0527, 61.35, 38.1)" gradientUnits="userSpaceOnUse" id="gradient0" spreadMethod="pad" x1="-819.2" x2="819.2">
      <stop offset="0.0" stop-color="#194885" stop-opacity="0.078431375"/>
      <stop offset="0.5254901960784314" stop-color="#66ffff"/>
      <stop offset="1.0" stop-color="#1a4986" stop-opacity="0.0"/>
    </linearGradient>
    <linearGradient gradientTransform="matrix(0.0, 0.043, -0.0452, 0.0, 65.1, 37.0)" gradientUnits="userSpaceOnUse" id="gradient1" spreadMethod="pad" x1="-819.2" x2="819.2">
      <stop offset="0.0" stop-color="#ffcc00"/>
      <stop offset="1.0" stop-color="#ffff00"/>
    </linearGradient>
    <linearGradient gradientTransform="matrix(0.0, -0.0433, 0.0427, 0.0, 65.1, 37.0)" gradientUnits="userSpaceOnUse" id="gradient2" spreadMethod="pad" x1="-819.2" x2="819.2">
      <stop offset="0.0" stop-color="#ff9900"/>
      <stop offset="1.0" stop-color="#ffff00"/>
    </linearGradient>
    <linearGradient gradientTransform="matrix(0.0747, 0.0, 0.0, 0.0404, 65.1, 37.0)" gradientUnits="userSpaceOnUse" id="gradient3" spreadMethod="pad" x1="-819.2" x2="819.2">
      <stop offset="0.0" stop-color="#ffe980" stop-opacity="0.078431375"/>
      <stop offset="0.5254901960784314" stop-color="#ffffb3"/>
      <stop offset="1.0" stop-color="#fffb80" stop-opacity="0.0"/>
    </linearGradient>
  </defs>
</svg>
