<?xml version="1.0" encoding="UTF-8" standalone="no"?>
<svg xmlns:xlink="http://www.w3.org/1999/xlink" height="39.7px" width="69.2px" xmlns="http://www.w3.org/2000/svg">
  <g transform="matrix(1.0, 0.0, 0.0, 1.0, -74.7, -31.7)">
    <path d="M138.9 31.7 Q143.9 31.7 143.9 36.7 L143.9 43.9 Q143.9 48.9 138.9 48.9 L79.7 48.9 Q74.7 48.9 74.7 43.9 L74.7 36.7 Q74.7 31.7 79.7 31.7 L138.9 31.7" fill="url(#gradient0)" fill-rule="evenodd" stroke="none"/>
    <path d="M138.9 54.2 Q143.9 54.2 143.9 59.2 L143.9 66.4 Q143.9 71.4 138.9 71.4 L79.7 71.4 Q74.7 71.4 74.7 66.4 L74.7 59.2 Q74.7 54.2 79.7 54.2 L138.9 54.2" fill="url(#gradient1)" fill-rule="evenodd" stroke="none"/>
    <path d="M79.25 49.45 L138.1 49.45" fill="none" stroke="url(#gradient2)" stroke-linecap="round" stroke-linejoin="round" stroke-width="1.2000000000000002"/>
  </g>
  <defs>
    <linearGradient gradientTransform="matrix(0.0, -0.0095, 0.0105, 0.0, 112.8, 40.3)" gradientUnits="userSpaceOnUse" id="gradient0" spreadMethod="pad" x1="-819.2" x2="819.2">
      <stop offset="0.011764705882352941" stop-color="#ff9900" stop-opacity="0.6"/>
      <stop offset="1.0" stop-color="#ffff00" stop-opacity="0.0"/>
    </linearGradient>
    <linearGradient gradientTransform="matrix(0.0, -0.0095, 0.0105, 0.0, 112.8, 62.8)" gradientUnits="userSpaceOnUse" id="gradient1" spreadMethod="pad" x1="-819.2" x2="819.2">
      <stop offset="0.011764705882352941" stop-color="#ff9900" stop-opacity="0.6"/>
      <stop offset="1.0" stop-color="#ffff00" stop-opacity="0.0"/>
    </linearGradient>
    <linearGradient gradientTransform="matrix(0.0367, 0.0, 0.0, 7.0E-4, 108.65, 49.45)" gradientUnits="userSpaceOnUse" id="gradient2" spreadMethod="pad" x1="-819.2" x2="819.2">
      <stop offset="0.0" stop-color="#ffe980" stop-opacity="0.078431375"/>
      <stop offset="0.5254901960784314" stop-color="#ffffb3"/>
      <stop offset="1.0" stop-color="#fffb80" stop-opacity="0.0"/>
    </linearGradient>
  </defs>
</svg>
