<?xml version="1.0" encoding="UTF-8" standalone="no"?>
<svg xmlns:xlink="http://www.w3.org/1999/xlink" height="26.55px" width="27.3px" xmlns="http://www.w3.org/2000/svg">
  <g transform="matrix(1.0, 0.0, 0.0, 1.0, 5.45, 3.9)">
    <path d="M12.4 0.15 L12.4 4.0 9.75 4.0 9.75 0.2 12.4 0.15" fill="#8a7a2e" fill-rule="evenodd" stroke="none"/>
    <path d="M16.45 0.6 L15.55 0.2 14.55 0.1 9.25 0.2 8.05 0.5 Q7.55 0.65 7.0 0.95 L5.85 2.05 4.85 3.7 3.75 7.0 7.0 7.0 7.1 6.6 7.55 5.45 8.15 4.45 8.75 4.1 9.6 4.0 13.6 4.0 14.1 4.4 13.75 6.05 13.45 6.7 12.95 7.55 12.25 8.0 6.7 8.65 5.45 9.0 4.45 9.5 3.45 10.4 2.55 11.55 1.5 13.9 0.0 18.65 13.1 18.65 14.4 14.65 5.15 14.65 5.0 14.6 4.85 14.5 4.85 14.1 5.0 13.7 5.2 13.3 5.55 12.85 6.05 12.35 7.15 12.15 12.25 11.65 13.35 11.25 14.4 10.7 15.15 9.9 16.4 8.05 17.1 6.25 17.4 5.05 17.7 4.1 17.85 3.1 17.75 2.4 17.5 1.65 17.1 1.1 Q16.75 0.65 16.45 0.6 Z" fill="none" stroke="#722c01" stroke-linecap="butt" stroke-linejoin="miter-clip" stroke-miterlimit="3.0" stroke-width="8.0"/>
    <path d="M16.45 0.6 L15.55 0.2 14.55 0.1 9.25 0.2 8.05 0.5 Q7.55 0.65 7.0 0.95 L5.85 2.0 4.85 3.65 3.75 6.95 6.95 6.95 7.1 6.55 7.55 5.45 8.15 4.45 8.75 4.1 9.55 4.0 13.6 4.0 14.1 4.4 13.75 6.0 13.45 6.7 12.95 7.55 12.25 7.95 6.7 8.65 5.45 9.0 4.45 9.5 3.4 10.4 2.55 11.55 1.5 13.85 0.0 18.65 13.1 18.65 14.4 14.65 5.15 14.65 5.0 14.55 4.85 14.5 4.85 14.1 5.0 13.7 5.2 13.3 5.55 12.85 6.05 12.35 7.15 12.15 12.25 11.65 13.35 11.25 14.4 10.7 15.15 9.9 16.4 8.05 17.1 6.25 17.35 5.05 17.7 4.1 17.85 3.1 17.75 2.4 17.5 1.65 17.1 1.05 Q16.75 0.65 16.45 0.6 Z" fill="none" stroke="#ff7000" stroke-linecap="butt" stroke-linejoin="miter-clip" stroke-miterlimit="3.0" stroke-width="3.0"/>
    <path d="M4.0 9.9 L4.45 9.5 5.45 9.0 6.7 8.65 12.25 8.0 12.95 7.55 13.45 6.7 13.75 6.05 14.1 4.4 13.6 4.0 9.6 4.0 8.75 4.1 8.15 4.45 7.55 5.45 7.1 6.6 7.0 7.0 3.75 7.0 4.85 3.7 5.85 2.05 7.0 0.95 Q7.55 0.65 8.05 0.5 L9.25 0.2 14.55 0.1 15.55 0.2 16.45 0.6 Q16.75 0.65 17.1 1.1 L17.5 1.65 17.75 2.4 17.85 3.1 17.7 4.1 17.4 5.05 17.1 6.25 16.4 8.05 15.15 9.9 4.0 9.9" fill="url(#gradient0)" fill-rule="evenodd" stroke="none"/>
    <path d="M4.0 9.9 L15.15 9.9 14.4 10.7 13.35 11.25 12.25 11.65 7.15 12.15 6.05 12.35 5.55 12.85 5.2 13.3 5.0 13.7 4.85 14.1 4.85 14.5 5.0 14.6 5.15 14.65 14.4 14.65 13.1 18.65 0.0 18.65 1.5 13.9 2.55 11.55 3.45 10.4 4.0 9.9" fill="url(#gradient1)" fill-rule="evenodd" stroke="none"/>
  </g>
  <defs>
    <linearGradient gradientTransform="matrix(0.0, 0.0039, -0.0035, 0.0, 100.45, 5.9)" gradientUnits="userSpaceOnUse" id="gradient0" spreadMethod="pad" x1="-819.2" x2="819.2">
      <stop offset="0.37254901960784315" stop-color="#fff7d2"/>
      <stop offset="1.0" stop-color="#ffe000"/>
    </linearGradient>
    <linearGradient gradientTransform="matrix(0.0, 0.0047, -0.0035, 0.0, 69.0, 13.0)" gradientUnits="userSpaceOnUse" id="gradient1" spreadMethod="pad" x1="-819.2" x2="819.2">
      <stop offset="0.00392156862745098" stop-color="#ff7e00"/>
      <stop offset="0.011764705882352941" stop-color="#ff8c00"/>
      <stop offset="1.0" stop-color="#f3ff00"/>
    </linearGradient>
  </defs>
</svg>
