<?xml version="1.0" encoding="UTF-8" standalone="no"?>
<svg xmlns:xlink="http://www.w3.org/1999/xlink" height="26.7px" width="25.05px" xmlns="http://www.w3.org/2000/svg">
  <g transform="matrix(1.0, 0.0, 0.0, 1.0, 3.6, 3.95)">
    <path d="M13.45 4.25 L13.3 4.0 12.45 3.8 9.35 3.8 8.85 3.85 8.85 0.15 9.5 0.05 13.45 0.05 13.45 4.25 M13.4 5.65 L13.45 5.3 13.45 8.8 8.85 8.8 8.85 7.45 11.0 7.45 11.85 7.35 12.5 7.05 12.9 6.65 13.4 5.65" fill="#8a7a2e" fill-rule="evenodd" stroke="none"/>
    <path d="M15.9 0.2 L14.75 0.05 9.5 0.05 8.3 0.2 7.45 0.4 6.65 0.85 5.7 1.65 4.9 2.75 4.3 4.0 3.55 6.25 6.95 6.25 7.4 5.05 7.7 4.5 8.15 4.1 Q8.8 3.8 9.35 3.8 L12.45 3.8 13.3 4.0 13.65 4.5 13.4 5.65 12.9 6.7 12.5 7.1 11.85 7.4 11.0 7.45 6.55 7.45 5.3 11.2 10.6 11.2 Q10.9 11.2 11.15 11.5 L11.3 12.25 10.9 13.6 10.4 14.3 8.85 14.7 5.45 14.7 4.8 14.6 4.45 14.4 4.3 13.8 4.55 12.7 1.15 12.7 0.6 14.4 0.5 15.05 0.4 16.65 0.5 17.15 0.75 17.6 1.15 18.15 Q1.55 18.5 2.0 18.55 L3.3 18.75 8.25 18.75 9.35 18.65 10.5 18.35 Q11.1 18.1 11.5 17.7 L12.55 16.85 13.4 15.7 14.5 13.1 14.95 11.55 15.05 10.55 14.9 9.8 14.45 8.95 15.35 8.15 16.1 7.1 17.3 3.9 17.45 2.5 17.3 1.5 16.75 0.75 15.9 0.2 Z" fill="none" stroke="#722c01" stroke-linecap="butt" stroke-linejoin="miter-clip" stroke-miterlimit="3.0" stroke-width="8.0"/>
    <path d="M15.85 0.2 L14.75 0.05 9.5 0.05 8.3 0.2 7.45 0.4 6.65 0.85 5.7 1.65 4.9 2.75 4.25 4.0 3.55 6.2 6.95 6.2 7.4 5.05 7.7 4.5 8.15 4.1 Q8.8 3.75 9.35 3.75 L12.45 3.75 13.3 4.0 13.65 4.5 13.4 5.65 12.9 6.65 12.5 7.05 11.85 7.35 11.0 7.45 6.55 7.45 5.3 11.15 10.6 11.15 Q10.9 11.15 11.15 11.5 L11.3 12.25 10.9 13.6 10.4 14.25 8.85 14.65 5.45 14.65 4.75 14.6 4.45 14.4 4.25 13.8 4.55 12.7 1.15 12.7 0.6 14.4 0.5 15.05 0.4 16.6 0.5 17.1 0.75 17.55 1.15 18.15 Q1.55 18.45 2.0 18.55 L3.3 18.75 8.25 18.75 9.35 18.65 10.5 18.35 Q11.1 18.1 11.5 17.7 L12.55 16.8 13.4 15.7 14.5 13.1 14.9 11.55 15.05 10.55 14.9 9.8 14.45 8.95 15.35 8.15 16.1 7.05 17.3 3.9 17.45 2.5 17.3 1.45 16.75 0.75 15.85 0.2 Z" fill="none" stroke="#ff7000" stroke-linecap="butt" stroke-linejoin="miter-clip" stroke-miterlimit="3.0" stroke-width="3.0"/>
    <path d="M5.7 10.0 L6.55 7.45 11.0 7.45 11.85 7.4 12.5 7.1 12.9 6.7 13.4 5.65 13.65 4.5 13.3 4.0 12.45 3.8 9.35 3.8 Q8.8 3.8 8.15 4.1 L7.7 4.5 7.4 5.05 6.95 6.25 3.55 6.25 4.3 4.0 4.9 2.75 5.7 1.65 6.65 0.85 7.45 0.4 8.3 0.2 9.5 0.05 14.75 0.05 15.9 0.2 16.75 0.75 17.3 1.5 17.45 2.5 17.3 3.9 16.1 7.1 15.35 8.15 14.45 8.95 14.9 9.8 14.95 10.0 5.7 10.0" fill="url(#gradient0)" fill-rule="evenodd" stroke="none"/>
    <path d="M5.7 10.0 L14.95 10.0 15.05 10.55 14.95 11.55 14.5 13.1 13.4 15.7 12.55 16.85 11.5 17.7 Q11.1 18.1 10.5 18.35 L9.35 18.65 8.25 18.75 3.3 18.75 2.0 18.55 Q1.55 18.5 1.15 18.15 L0.75 17.6 0.5 17.15 0.4 16.65 0.5 15.05 0.6 14.4 1.15 12.7 4.55 12.7 4.3 13.8 4.45 14.4 4.8 14.6 5.45 14.7 8.85 14.7 10.4 14.3 10.9 13.6 11.3 12.25 11.15 11.5 Q10.9 11.2 10.6 11.2 L5.3 11.2 5.7 10.0" fill="url(#gradient1)" fill-rule="evenodd" stroke="none"/>
  </g>
  <defs>
    <linearGradient gradientTransform="matrix(0.0, 0.0039, -0.0035, 0.0, 84.25, 6.0)" gradientUnits="userSpaceOnUse" id="gradient0" spreadMethod="pad" x1="-819.2" x2="819.2">
      <stop offset="0.37254901960784315" stop-color="#fff7d2"/>
      <stop offset="1.0" stop-color="#ffe000"/>
    </linearGradient>
    <linearGradient gradientTransform="matrix(0.0, 0.0047, -0.0035, 0.0, 52.8, 13.1)" gradientUnits="userSpaceOnUse" id="gradient1" spreadMethod="pad" x1="-819.2" x2="819.2">
      <stop offset="0.00392156862745098" stop-color="#ff7e00"/>
      <stop offset="0.011764705882352941" stop-color="#ff8c00"/>
      <stop offset="1.0" stop-color="#f3ff00"/>
    </linearGradient>
  </defs>
</svg>
