<?xml version="1.0" encoding="UTF-8" standalone="no"?>
<svg xmlns:xlink="http://www.w3.org/1999/xlink" height="42.4px" width="23.3px" xmlns="http://www.w3.org/2000/svg">
  <g transform="matrix(1.0, 0.0, 0.0, 1.0, 1.5, 1.5)">
    <path d="M20.3 2.7 L20.15 4.85 19.35 9.5 18.6 13.85 17.6 19.4 17.2 22.0 16.9 23.2 16.7 23.9 16.15 24.6 Q15.8 24.7 15.55 24.15 L15.35 23.65 15.3 22.4 14.85 19.5 14.15 13.5 13.3 7.35 12.9 4.05 12.9 2.85 Q13.05 1.5 13.95 0.7 14.65 0.15 15.6 0.05 L16.5 0.0 Q17.95 0.0 18.9 0.55 L19.2 0.75 Q20.05 1.45 20.25 2.25 L20.3 2.7 M19.0 30.25 Q19.5 31.0 19.5 32.0 19.4 32.85 18.9 33.7 L17.5 34.95 15.6 35.4 13.7 34.85 12.5 33.5 Q11.95 32.7 12.0 31.8 12.05 30.8 12.6 30.05 13.05 29.15 14.0 28.8 14.85 28.3 15.8 28.35 L16.5 28.4 17.6 28.9 Q18.5 29.3 19.0 30.25" fill="#d6530c" fill-rule="evenodd" stroke="none"/>
    <path d="M20.3 2.7 L20.15 4.85 19.35 9.5 18.6 13.85 17.6 19.4 17.2 22.0 16.9 23.2 16.7 23.9 16.15 24.6 Q15.8 24.7 15.55 24.15 L15.35 23.65 15.3 22.4 14.85 19.5 14.15 13.5 13.3 7.35 12.9 4.05 12.9 2.85 Q13.05 1.5 13.95 0.7 14.65 0.15 15.6 0.05 L16.5 0.0 Q17.95 0.0 18.9 0.55 L19.2 0.75 Q20.05 1.45 20.25 2.25 L20.3 2.7 M19.0 30.25 Q19.5 31.0 19.5 32.0 19.4 32.85 18.9 33.7 L17.5 34.95 15.6 35.4 13.7 34.85 12.5 33.5 Q11.95 32.7 12.0 31.8 12.05 30.8 12.6 30.05 13.05 29.15 14.0 28.8 14.85 28.3 15.8 28.35 L16.5 28.4 17.6 28.9 Q18.5 29.3 19.0 30.25 Z" fill="none" stroke="#371b0a" stroke-linecap="butt" stroke-linejoin="miter-clip" stroke-miterlimit="3.0" stroke-width="3.0"/>
    <path d="M20.25 2.25 L20.3 2.7 20.15 4.85 19.35 9.5 18.6 13.85 17.6 19.4 17.2 22.0 16.9 23.2 16.4 22.8 16.25 22.4 16.2 21.25 15.8 18.65 15.25 13.2 14.45 7.7 14.05 4.7 14.05 3.65 Q14.2 2.4 15.0 1.7 15.9 1.0 17.3 1.1 18.8 1.1 19.75 1.75 L20.25 2.25 M16.5 28.4 L17.6 28.9 Q18.5 29.3 19.0 30.25 19.5 31.0 19.5 32.0 L19.1 32.9 17.9 33.95 16.35 34.3 14.7 33.85 13.7 32.75 Q13.3 32.1 13.3 31.35 13.3 30.5 13.8 29.9 14.2 29.1 15.0 28.8 L16.5 28.4" fill="#ffff00" fill-rule="evenodd" stroke="none"/>
    <path d="M16.9 23.2 L16.7 23.9 16.15 24.6 Q15.8 24.7 15.55 24.15 L15.35 23.65 15.3 22.4 14.85 19.5 14.15 13.5 13.3 7.35 12.9 4.05 12.9 2.85 Q13.05 1.5 13.95 0.7 14.9 -0.05 16.5 0.0 18.2 0.05 19.2 0.75 20.05 1.45 20.25 2.25 L19.75 1.75 Q18.8 1.1 17.3 1.1 15.9 1.0 15.0 1.7 14.2 2.4 14.05 3.65 L14.05 4.7 14.45 7.7 15.25 13.2 15.8 18.65 16.2 21.25 16.25 22.4 16.4 22.8 16.9 23.2 M16.5 28.4 L15.0 28.8 Q14.2 29.1 13.8 29.9 13.3 30.5 13.3 31.35 13.3 32.1 13.7 32.75 L14.7 33.85 16.35 34.3 17.9 33.95 19.1 32.9 19.5 32.0 Q19.4 32.85 18.9 33.7 L17.5 34.95 15.6 35.4 13.7 34.85 12.5 33.5 Q11.95 32.7 12.0 31.8 12.05 30.8 12.6 30.05 13.05 29.15 14.0 28.8 14.85 28.3 15.8 28.35 L16.5 28.4" fill="#eb9a05" fill-rule="evenodd" stroke="none"/>
    <path d="M7.2 4.75 Q8.05 5.45 8.25 6.25 L8.3 6.7 8.15 8.85 7.35 13.5 6.6 17.85 5.6 23.4 5.2 26.0 4.9 27.2 4.7 27.9 4.15 28.6 Q3.8 28.7 3.55 28.15 L3.35 27.65 3.3 26.4 2.85 23.5 2.15 17.5 1.3 11.35 0.9 8.05 0.9 6.85 Q1.05 5.5 1.95 4.7 2.65 4.15 3.6 4.05 L4.5 4.0 Q5.95 4.0 6.9 4.55 L7.2 4.75 M0.6 34.05 Q1.05 33.15 2.0 32.8 2.85 32.3 3.8 32.35 L4.5 32.4 5.6 32.9 Q6.5 33.3 7.0 34.25 7.5 35.0 7.5 36.0 7.4 36.85 6.9 37.7 L5.5 38.95 Q4.55 39.45 3.6 39.4 2.5 39.35 1.7 38.85 L0.5 37.5 Q-0.05 36.7 0.0 35.8 0.05 34.8 0.6 34.05" fill="#d6530c" fill-rule="evenodd" stroke="none"/>
    <path d="M7.2 4.75 Q8.05 5.45 8.25 6.25 L8.3 6.7 8.15 8.85 7.35 13.5 6.6 17.85 5.6 23.4 5.2 26.0 4.9 27.2 4.7 27.9 4.15 28.6 Q3.8 28.7 3.55 28.15 L3.35 27.65 3.3 26.4 2.85 23.5 2.15 17.5 1.3 11.35 0.9 8.05 0.9 6.85 Q1.05 5.5 1.95 4.7 2.65 4.15 3.6 4.05 L4.5 4.0 Q5.95 4.0 6.9 4.55 L7.2 4.75 M0.6 34.05 Q1.05 33.15 2.0 32.8 2.85 32.3 3.8 32.35 L4.5 32.4 5.6 32.9 Q6.5 33.3 7.0 34.25 7.5 35.0 7.5 36.0 7.4 36.85 6.9 37.7 L5.5 38.95 Q4.55 39.45 3.6 39.4 2.5 39.35 1.7 38.85 L0.5 37.5 Q-0.05 36.7 0.0 35.8 0.05 34.8 0.6 34.05 Z" fill="none" stroke="#371b0a" stroke-linecap="butt" stroke-linejoin="miter-clip" stroke-miterlimit="3.0" stroke-width="3.0"/>
    <path d="M8.25 6.25 L7.75 5.75 Q6.8 5.1 5.3 5.1 3.9 5.0 3.0 5.7 2.2 6.4 2.05 7.65 L2.05 8.7 2.45 11.7 3.25 17.2 3.8 22.65 4.2 25.25 4.25 26.4 4.4 26.8 4.9 27.2 4.7 27.9 4.15 28.6 Q3.8 28.7 3.55 28.15 L3.35 27.65 3.3 26.4 2.85 23.5 2.15 17.5 1.3 11.35 0.9 8.05 0.9 6.85 Q1.05 5.5 1.95 4.7 2.9 3.95 4.5 4.0 6.2 4.05 7.2 4.75 8.05 5.45 8.25 6.25 M4.5 32.4 L3.0 32.8 Q2.2 33.1 1.8 33.9 1.3 34.5 1.3 35.35 1.3 36.1 1.7 36.75 L2.7 37.85 Q3.4 38.3 4.35 38.3 L5.9 37.95 7.1 36.9 7.5 36.0 Q7.4 36.85 6.9 37.7 L5.5 38.95 Q4.55 39.45 3.6 39.4 2.5 39.35 1.7 38.85 L0.5 37.5 Q-0.05 36.7 0.0 35.8 0.05 34.8 0.6 34.05 1.05 33.15 2.0 32.8 2.85 32.3 3.8 32.35 L4.5 32.4" fill="#eb9a05" fill-rule="evenodd" stroke="none"/>
    <path d="M4.9 27.2 L4.4 26.8 4.25 26.4 4.2 25.25 3.8 22.65 3.25 17.2 2.45 11.7 2.05 8.7 2.05 7.65 Q2.2 6.4 3.0 5.7 3.9 5.0 5.3 5.1 6.8 5.1 7.75 5.75 L8.25 6.25 8.3 6.7 8.15 8.85 7.35 13.5 6.6 17.85 5.6 23.4 5.2 26.0 4.9 27.2 M7.5 36.0 L7.1 36.9 5.9 37.95 4.35 38.3 Q3.4 38.3 2.7 37.85 L1.7 36.75 Q1.3 36.1 1.3 35.35 1.3 34.5 1.8 33.9 2.2 33.1 3.0 32.8 L4.5 32.4 5.6 32.9 Q6.5 33.3 7.0 34.25 7.5 35.0 7.5 36.0" fill="#ffff00" fill-rule="evenodd" stroke="none"/>
  </g>
</svg>
