<?xml version="1.0" encoding="UTF-8" standalone="no"?>
<svg xmlns:xlink="http://www.w3.org/1999/xlink" height="26.75px" width="25.0px" xmlns="http://www.w3.org/2000/svg">
  <g transform="matrix(1.0, 0.0, 0.0, 1.0, 3.65, 4.0)">
    <path d="M11.2 11.7 L11.05 11.35 10.1 11.1 10.1 7.15 12.1 7.15 13.1 7.3 13.9 7.55 14.55 7.95 15.0 8.45 15.2 9.3 15.2 9.35 14.95 11.6 14.95 11.7 11.2 11.7 M15.5 0.1 L16.4 0.55 17.1 1.25 17.35 1.95 17.35 3.25 17.35 4.0 17.3 4.3 16.55 6.5 13.2 6.5 13.25 6.1 13.25 6.0 13.4 5.25 13.3 4.4 12.55 4.0 10.1 4.0 10.1 0.0 14.4 0.0 15.5 0.1" fill="#8a7a2e" fill-rule="evenodd" stroke="none"/>
    <path d="M15.5 0.15 L14.4 0.0 9.95 0.0 8.45 0.15 7.15 0.7 Q6.65 0.85 6.05 1.3 L5.25 2.05 4.05 4.3 3.55 5.35 0.45 15.95 0.6 16.95 0.85 17.6 1.3 18.05 1.95 18.45 3.1 18.75 9.15 18.75 10.2 18.45 11.1 18.05 11.95 17.5 12.65 16.75 13.45 15.65 13.8 14.8 14.25 13.6 14.95 11.6 15.2 9.35 15.0 8.45 14.55 7.95 13.9 7.55 13.1 7.3 8.4 7.2 7.5 7.3 6.95 7.5 6.5 7.7 6.45 7.55 6.45 7.2 7.0 5.55 7.7 4.45 Q8.35 4.1 9.15 4.0 L12.55 4.0 13.3 4.4 13.4 5.25 13.25 6.05 13.2 6.5 16.55 6.5 17.3 4.3 17.35 3.25 17.35 1.95 17.1 1.3 16.4 0.6 15.5 0.15 M11.2 12.05 L10.95 13.1 10.35 14.3 9.65 14.8 5.6 14.95 4.7 14.8 4.3 14.3 4.6 12.95 5.05 11.85 5.7 11.35 6.95 11.05 9.95 11.05 11.05 11.35 11.2 12.05 Z" fill="none" stroke="#722c01" stroke-linecap="butt" stroke-linejoin="miter-clip" stroke-miterlimit="3.0" stroke-width="8.0"/>
    <path d="M15.5 0.1 L14.4 0.0 9.95 0.0 8.45 0.15 7.15 0.7 6.05 1.25 5.25 2.05 4.05 4.3 3.55 5.3 0.45 15.95 0.6 16.9 0.85 17.6 1.3 18.05 1.9 18.45 3.1 18.75 9.15 18.75 10.2 18.45 11.1 18.05 11.95 17.5 12.65 16.7 13.45 15.65 13.8 14.75 14.25 13.6 14.95 11.6 15.2 9.3 14.95 8.45 14.55 7.95 13.9 7.55 13.1 7.3 12.1 7.15 8.4 7.15 7.5 7.3 6.95 7.45 6.5 7.7 6.45 7.55 6.45 7.15 7.0 5.55 7.7 4.45 Q8.35 4.1 9.15 4.0 L12.55 4.0 13.3 4.35 13.4 5.25 13.25 6.0 13.2 6.5 16.55 6.5 17.3 4.3 17.35 3.2 17.35 1.95 17.1 1.25 16.4 0.55 15.5 0.1 M11.2 12.05 L10.9 13.1 10.35 14.3 9.65 14.75 5.6 14.95 4.7 14.75 4.3 14.3 4.6 12.9 Q4.75 12.35 5.05 11.85 L5.7 11.35 6.95 11.05 9.95 11.05 11.05 11.35 11.2 12.05 Z" fill="none" stroke="#ff7000" stroke-linecap="butt" stroke-linejoin="miter-clip" stroke-miterlimit="3.0" stroke-width="3.0"/>
    <path d="M2.0 10.1 L3.55 5.35 4.05 4.3 5.25 2.05 6.05 1.3 Q6.65 0.85 7.15 0.7 L8.45 0.15 9.95 0.0 14.4 0.0 15.5 0.15 16.4 0.6 17.1 1.3 17.35 1.95 17.35 3.25 17.3 4.3 16.55 6.5 13.2 6.5 13.25 6.05 13.4 5.25 13.3 4.4 12.55 4.0 9.15 4.0 Q8.35 4.1 7.7 4.45 L7.0 5.55 6.45 7.2 6.45 7.55 6.5 7.7 6.95 7.5 7.5 7.3 8.4 7.2 13.1 7.3 13.9 7.55 14.55 7.95 15.0 8.45 15.2 9.35 15.1 10.1 2.0 10.1" fill="url(#gradient0)" fill-rule="evenodd" stroke="none"/>
    <path d="M2.0 10.1 L15.1 10.1 14.95 11.6 14.25 13.6 13.8 14.8 13.45 15.65 12.65 16.75 11.95 17.5 11.1 18.05 10.2 18.45 9.15 18.75 3.1 18.75 1.95 18.45 1.3 18.05 0.85 17.6 0.6 16.95 0.45 15.95 2.0 10.1 M11.2 12.05 L11.05 11.35 9.95 11.05 6.95 11.05 5.7 11.35 5.05 11.85 4.6 12.95 4.3 14.3 4.7 14.8 5.6 14.95 9.65 14.8 10.35 14.3 10.95 13.1 11.2 12.05" fill="url(#gradient1)" fill-rule="evenodd" stroke="none"/>
  </g>
  <defs>
    <linearGradient gradientTransform="matrix(0.0, 0.0039, -0.0035, 0.0, 37.65, 6.1)" gradientUnits="userSpaceOnUse" id="gradient0" spreadMethod="pad" x1="-819.2" x2="819.2">
      <stop offset="0.37254901960784315" stop-color="#fff7d2"/>
      <stop offset="1.0" stop-color="#ffe000"/>
    </linearGradient>
    <linearGradient gradientTransform="matrix(0.0, 0.0047, -0.0035, 0.0, 6.2, 13.2)" gradientUnits="userSpaceOnUse" id="gradient1" spreadMethod="pad" x1="-819.2" x2="819.2">
      <stop offset="0.00392156862745098" stop-color="#ff7e00"/>
      <stop offset="0.011764705882352941" stop-color="#ff8c00"/>
      <stop offset="1.0" stop-color="#f3ff00"/>
    </linearGradient>
  </defs>
</svg>
