<?xml version="1.0" encoding="UTF-8" standalone="no"?>
<svg xmlns:xlink="http://www.w3.org/1999/xlink" height="26.2px" width="24.4px" xmlns="http://www.w3.org/2000/svg">
  <g transform="matrix(1.0, 0.0, 0.0, 1.0, 3.65, 2.75)">
    <path d="M2.6 11.2 L3.2 10.65 3.7 10.1 3.65 9.75 3.6 8.9 3.55 8.2 3.9 7.05 Q4.15 6.15 4.55 5.4 L4.8 4.8 5.2 3.9 6.05 2.8 7.1 2.0 7.9 1.55 8.6 1.35 9.25 1.25 14.2 1.25 15.45 1.35 15.85 1.65 16.35 2.0 16.7 2.6 16.75 3.7 16.4 5.3 15.9 6.75 15.3 8.0 14.45 9.2 13.85 9.8 13.8 10.0 13.95 10.45 14.0 11.2 2.6 11.2 M11.55 4.8 L9.75 4.8 Q9.05 4.8 8.55 5.25 8.05 5.7 7.75 6.6 L7.5 7.5 7.65 8.0 Q7.6 8.2 8.25 8.2 L10.5 8.2 11.0 8.1 11.45 7.85 12.1 6.6 Q12.5 5.5 12.3 5.15 12.1 4.8 11.55 4.8" fill="url(#gradient0)" fill-rule="evenodd" stroke="none"/>
    <path d="M14.0 11.2 L14.0 11.25 13.95 12.0 13.5 13.6 12.8 15.4 12.15 16.65 11.55 17.65 10.6 18.45 9.4 19.25 8.4 19.45 3.15 19.45 1.75 19.35 1.05 19.0 Q0.7 18.75 0.5 18.3 0.35 17.85 0.35 17.3 L0.6 15.85 Q0.75 14.95 1.65 13.05 L2.35 11.45 2.6 11.2 14.0 11.2 M8.95 11.9 L7.45 11.9 6.5 12.0 5.95 12.35 Q5.65 12.6 5.5 12.95 L4.95 14.25 Q4.6 15.2 4.85 15.6 5.05 15.95 5.75 15.95 L7.2 15.95 8.05 15.85 8.6 15.6 8.95 15.2 9.3 14.5 9.5 14.05 Q10.05 12.6 9.8 12.25 9.6 11.9 8.95 11.9" fill="url(#gradient1)" fill-rule="evenodd" stroke="none"/>
    <path d="M11.55 4.8 L9.75 4.8 Q9.05 4.8 8.55 5.25 8.05 5.7 7.75 6.6 L7.5 7.5 7.65 8.0 Q7.6 8.2 8.25 8.2 L10.5 8.2 11.0 8.1 11.45 7.85 12.1 6.6 Q12.5 5.5 12.3 5.15 12.1 4.8 11.55 4.8 M8.95 11.9 L7.45 11.9 6.5 12.0 5.95 12.35 Q5.65 12.6 5.5 12.95 L4.95 14.25 Q4.6 15.2 4.85 15.6 5.05 15.95 5.75 15.95 L7.2 15.95 8.05 15.85 8.6 15.6 8.95 15.2 9.3 14.5 9.5 14.05 Q10.05 12.6 9.8 12.25 9.6 11.9 8.95 11.9" fill="none" stroke="#722c01" stroke-linecap="butt" stroke-linejoin="miter-clip" stroke-miterlimit="3.0" stroke-width="8.0"/>
    <path d="M2.6 11.2 L3.2 10.65 3.7 10.1 3.65 9.75 3.6 8.9 3.55 8.2 3.9 7.05 Q4.15 6.15 4.55 5.4 L4.8 4.8 5.2 3.9 6.05 2.8 7.1 2.0 7.9 1.55 8.6 1.35 9.25 1.25 14.2 1.25 15.45 1.35 15.85 1.65 16.35 2.0 16.7 2.6 16.75 3.7 16.4 5.3 15.9 6.75 15.3 8.0 14.45 9.2 13.85 9.8 13.8 10.0 13.95 10.45 14.0 11.2 14.0 11.25 13.95 12.0 13.5 13.6 12.8 15.4 12.15 16.65 11.55 17.65 10.6 18.45 9.4 19.25 8.4 19.45 3.15 19.45 1.75 19.35 1.05 19.0 Q0.7 18.75 0.5 18.3 0.35 17.85 0.35 17.3 L0.6 15.85 Q0.75 14.95 1.65 13.05 L2.35 11.45 2.6 11.2 14.0 11.2" fill="none" stroke="#722c01" stroke-linecap="round" stroke-linejoin="miter-clip" stroke-miterlimit="3.0" stroke-width="8.0"/>
    <path d="M2.6 11.2 L3.2 10.65 3.7 10.1 3.65 9.75 3.6 8.9 3.55 8.2 3.9 7.05 Q4.15 6.15 4.55 5.4 L4.8 4.8 5.2 3.9 6.05 2.8 7.1 2.0 7.9 1.55 8.6 1.35 9.25 1.25 14.2 1.25 15.45 1.35 15.85 1.65 16.35 2.0 16.7 2.6 16.75 3.7 16.4 5.3 15.9 6.75 15.3 8.0 14.45 9.2 13.85 9.8 13.8 10.0 13.95 10.45 14.0 11.2 2.6 11.2 M11.55 4.8 L9.75 4.8 Q9.05 4.8 8.55 5.25 8.05 5.7 7.75 6.6 L7.5 7.5 7.65 8.0 Q7.6 8.2 8.25 8.2 L10.5 8.2 11.0 8.1 11.45 7.85 12.1 6.6 Q12.5 5.5 12.3 5.15 12.1 4.8 11.55 4.8" fill="url(#gradient2)" fill-rule="evenodd" stroke="none"/>
    <path d="M14.0 11.2 L14.0 11.25 13.95 12.0 13.5 13.6 12.8 15.4 12.15 16.65 11.55 17.65 10.6 18.45 9.4 19.25 8.4 19.45 3.15 19.45 1.75 19.35 1.05 19.0 Q0.7 18.75 0.5 18.3 0.35 17.85 0.35 17.3 L0.6 15.85 Q0.75 14.95 1.65 13.05 L2.35 11.45 2.6 11.2 14.0 11.2 M5.95 12.35 Q5.65 12.6 5.5 12.95 L4.95 14.25 Q4.6 15.2 4.85 15.6 5.05 15.95 5.75 15.95 L7.2 15.95 8.05 15.85 8.6 15.6 8.95 15.2 9.3 14.5 9.5 14.05 Q10.05 12.6 9.8 12.25 9.6 11.9 8.95 11.9 L7.45 11.9 6.5 12.0 5.95 12.35" fill="url(#gradient3)" fill-rule="evenodd" stroke="none"/>
    <path d="M11.55 4.8 L9.75 4.8 Q9.05 4.8 8.55 5.25 8.05 5.7 7.75 6.6 L7.5 7.5 7.65 8.0 Q7.6 8.2 8.25 8.2 L10.5 8.2 11.0 8.1 11.45 7.85 12.1 6.6 Q12.5 5.5 12.3 5.15 12.1 4.8 11.55 4.8 M5.95 12.35 Q5.65 12.6 5.5 12.95 L4.95 14.25 Q4.6 15.2 4.85 15.6 5.05 15.95 5.75 15.95 L7.2 15.95 8.05 15.85 8.6 15.6 8.95 15.2 9.3 14.5 9.5 14.05 Q10.05 12.6 9.8 12.25 9.6 11.9 8.95 11.9 L7.45 11.9 6.5 12.0 5.95 12.35" fill="none" stroke="#ff7000" stroke-linecap="butt" stroke-linejoin="miter-clip" stroke-miterlimit="3.0" stroke-width="3.0"/>
    <path d="M2.6 11.2 L3.2 10.65 3.7 10.1 3.65 9.75 3.6 8.9 3.55 8.2 3.9 7.05 Q4.15 6.15 4.55 5.4 L4.8 4.8 5.2 3.9 6.05 2.8 7.1 2.0 7.9 1.55 8.6 1.35 9.25 1.25 14.2 1.25 15.45 1.35 15.85 1.65 16.35 2.0 16.7 2.6 16.75 3.7 16.4 5.3 15.9 6.75 15.3 8.0 14.45 9.2 13.85 9.8 13.8 10.0 13.95 10.45 14.0 11.2 14.0 11.25 13.95 12.0 13.5 13.6 12.8 15.4 12.15 16.65 11.55 17.65 10.6 18.45 9.4 19.25 8.4 19.45 3.15 19.45 1.75 19.35 1.05 19.0 Q0.7 18.75 0.5 18.3 0.35 17.85 0.35 17.3 L0.6 15.85 Q0.75 14.95 1.65 13.05 L2.35 11.45 2.6 11.2 14.0 11.2" fill="none" stroke="#ff7000" stroke-linecap="round" stroke-linejoin="miter-clip" stroke-miterlimit="3.0" stroke-width="3.0"/>
    <path d="M2.6 11.2 L3.2 10.65 3.7 10.1 3.65 9.75 3.6 8.9 3.55 8.2 3.9 7.05 Q4.15 6.15 4.55 5.4 L4.8 4.8 5.2 3.9 6.05 2.8 7.1 2.0 7.9 1.55 8.6 1.35 9.25 1.25 14.2 1.25 15.45 1.35 15.85 1.65 16.35 2.0 16.7 2.6 16.75 3.7 16.4 5.3 15.9 6.75 15.3 8.0 14.45 9.2 13.85 9.8 13.8 10.0 13.95 10.45 14.0 11.2 2.6 11.2 M11.55 4.8 L9.75 4.8 Q9.05 4.8 8.55 5.25 8.05 5.7 7.75 6.6 L7.5 7.5 7.65 8.0 Q7.6 8.2 8.25 8.2 L10.5 8.2 11.0 8.1 11.45 7.85 12.1 6.6 Q12.5 5.5 12.3 5.15 12.1 4.8 11.55 4.8" fill="url(#gradient4)" fill-rule="evenodd" stroke="none"/>
    <path d="M14.0 11.2 L14.0 11.25 13.95 12.0 13.5 13.6 12.8 15.4 12.15 16.65 11.55 17.65 10.6 18.45 9.4 19.25 8.4 19.45 3.15 19.45 1.75 19.35 1.05 19.0 Q0.7 18.75 0.5 18.3 0.35 17.85 0.35 17.3 L0.6 15.85 Q0.75 14.95 1.65 13.05 L2.35 11.45 2.6 11.2 14.0 11.2 M5.95 12.35 Q5.65 12.6 5.5 12.95 L4.95 14.25 Q4.6 15.2 4.85 15.6 5.05 15.95 5.75 15.95 L7.2 15.95 8.05 15.85 8.6 15.6 8.95 15.2 9.3 14.5 9.5 14.05 Q10.05 12.6 9.8 12.25 9.6 11.9 8.95 11.9 L7.45 11.9 6.5 12.0 5.95 12.35" fill="url(#gradient5)" fill-rule="evenodd" stroke="none"/>
  </g>
  <defs>
    <linearGradient gradientTransform="matrix(0.0, 0.0057, -0.057, 0.0, 24.0, 6.2)" gradientUnits="userSpaceOnUse" id="gradient0" spreadMethod="pad" x1="-819.2" x2="819.2">
      <stop offset="0.37254901960784315" stop-color="#fff7d2"/>
      <stop offset="1.0" stop-color="#ffe000"/>
    </linearGradient>
    <linearGradient gradientTransform="matrix(0.0, 0.0051, -0.0588, 0.0, 20.4, 15.35)" gradientUnits="userSpaceOnUse" id="gradient1" spreadMethod="pad" x1="-819.2" x2="819.2">
      <stop offset="0.00392156862745098" stop-color="#ff7e00"/>
      <stop offset="0.011764705882352941" stop-color="#ff8c00"/>
      <stop offset="1.0" stop-color="#f3ff00"/>
    </linearGradient>
    <linearGradient gradientTransform="matrix(0.0, 0.0057, -0.057, 0.0, 24.0, 6.2)" gradientUnits="userSpaceOnUse" id="gradient2" spreadMethod="pad" x1="-819.2" x2="819.2">
      <stop offset="0.37254901960784315" stop-color="#fff7d2"/>
      <stop offset="1.0" stop-color="#ffe000"/>
    </linearGradient>
    <linearGradient gradientTransform="matrix(0.0, 0.0051, -0.0588, 0.0, 20.4, 15.35)" gradientUnits="userSpaceOnUse" id="gradient3" spreadMethod="pad" x1="-819.2" x2="819.2">
      <stop offset="0.00392156862745098" stop-color="#ff7e00"/>
      <stop offset="0.011764705882352941" stop-color="#ff8c00"/>
      <stop offset="1.0" stop-color="#f3ff00"/>
    </linearGradient>
    <linearGradient gradientTransform="matrix(0.0, 0.0057, -0.057, 0.0, 24.0, 6.2)" gradientUnits="userSpaceOnUse" id="gradient4" spreadMethod="pad" x1="-819.2" x2="819.2">
      <stop offset="0.37254901960784315" stop-color="#fff7d2"/>
      <stop offset="1.0" stop-color="#ffe000"/>
    </linearGradient>
    <linearGradient gradientTransform="matrix(0.0, 0.0051, -0.0588, 0.0, 20.4, 15.35)" gradientUnits="userSpaceOnUse" id="gradient5" spreadMethod="pad" x1="-819.2" x2="819.2">
      <stop offset="0.00392156862745098" stop-color="#ff7e00"/>
      <stop offset="0.011764705882352941" stop-color="#ff8c00"/>
      <stop offset="1.0" stop-color="#f3ff00"/>
    </linearGradient>
  </defs>
</svg>
