<?xml version="1.0" encoding="UTF-8" standalone="no"?>
<svg xmlns:xlink="http://www.w3.org/1999/xlink" height="59.25px" width="59.2px" xmlns="http://www.w3.org/2000/svg">
  <g transform="matrix(1.0, 0.0, 0.0, 1.0, -2.8, -2.75)">
    <path d="M61.4 32.35 Q61.4 44.35 52.9 52.85 44.4 61.4 32.4 61.4 20.4 61.4 11.85 52.85 3.4 44.35 3.4 32.35 3.4 20.35 11.85 11.8 20.4 3.35 32.4 3.35 44.4 3.35 52.9 11.8 61.4 20.35 61.4 32.35 M58.5 32.75 Q58.5 21.95 50.85 14.25 43.2 6.65 32.4 6.65 21.6 6.65 13.9 14.25 6.3 21.95 6.3 32.75 6.3 43.55 13.9 51.2 21.6 58.85 32.4 58.85 43.2 58.85 50.85 51.2 58.5 43.55 58.5 32.75" fill="#0e1e34" fill-opacity="0.7019608" fill-rule="evenodd" stroke="none"/>
    <path d="M61.4 32.35 Q61.4 44.35 52.9 52.85 44.4 61.4 32.4 61.4 20.4 61.4 11.85 52.85 3.4 44.35 3.4 32.35 3.4 20.35 11.85 11.8 20.4 3.35 32.4 3.35 44.4 3.35 52.9 11.8 61.4 20.35 61.4 32.35 Z" fill="none" stroke="#244d87" stroke-linecap="round" stroke-linejoin="round" stroke-width="1.2000000000000002"/>
    <path d="M27.9 29.95 L26.1 29.95 24.7 34.05 26.45 34.05 27.9 29.95 M30.5 34.05 L31.95 29.95 30.3 29.95 28.85 34.05 30.5 34.05 M28.4 23.45 L30.65 23.45 30.0 24.3 36.4 24.3 35.7 26.25 33.9 27.95 34.95 27.95 32.95 34.05 33.35 34.05 32.65 36.15 28.3 36.15 28.95 38.5 Q29.15 38.95 29.75 39.2 L30.95 39.35 31.55 39.35 30.85 41.25 28.9 41.25 27.6 41.1 26.85 40.25 26.2 38.35 23.9 40.8 22.8 41.2 19.6 41.25 20.2 39.35 21.65 39.35 22.5 39.2 23.1 38.95 23.7 38.35 25.45 36.15 21.2 36.15 21.9 34.05 22.4 34.05 24.4 27.95 31.15 27.95 33.05 26.25 28.4 26.25 27.25 27.0 25.9 27.35 24.55 27.35 25.15 25.55 25.8 25.55 26.45 25.25 28.4 23.45 M22.1 23.45 L24.4 23.45 24.0 25.0 24.85 25.0 24.25 27.15 23.25 27.15 22.75 28.8 23.55 28.8 22.8 30.8 22.0 30.8 19.15 39.2 Q18.85 40.35 18.15 40.8 L16.5 41.25 14.1 41.25 14.85 39.2 15.7 39.2 16.65 39.2 16.85 38.95 18.15 35.45 17.55 36.3 Q16.7 37.5 15.55 37.5 L14.8 37.5 15.4 35.45 15.65 35.45 16.5 34.8 20.3 29.0 20.95 27.15 18.2 27.15 18.95 25.0 21.6 25.0 22.1 23.45 M48.3 33.0 L50.4 33.0 47.05 39.65 46.35 40.7 Q45.8 41.3 44.45 41.3 L43.35 41.3 44.0 39.1 44.6 39.1 45.0 38.95 45.45 38.35 48.3 33.0 M44.6 33.0 L46.95 33.0 43.55 39.65 43.0 40.35 42.3 40.9 Q41.85 41.25 40.8 41.25 L40.0 41.25 40.8 39.1 41.05 39.1 Q41.55 39.1 41.85 38.5 L44.6 33.0 M46.0 23.75 L56.65 23.75 56.05 25.65 51.7 29.5 54.7 29.5 51.45 39.1 50.95 40.05 50.4 40.7 49.55 41.2 48.6 41.3 47.2 41.3 48.05 39.0 48.5 39.0 48.85 38.95 49.35 38.35 51.65 31.65 43.35 31.65 44.1 29.5 48.95 29.5 52.75 25.95 45.25 25.95 46.0 23.75 M41.15 23.45 L43.75 23.45 43.0 25.7 44.85 25.7 44.1 27.9 42.3 27.9 38.5 38.95 40.3 38.95 39.5 41.2 33.1 41.2 33.85 38.95 35.9 38.95 39.65 27.9 37.65 27.9 38.4 25.7 40.5 25.7 41.15 23.45" fill="url(#gradient0)" fill-rule="evenodd" stroke="none"/>
    <path d="M41.15 23.45 L40.5 25.7 38.4 25.7 37.65 27.9 39.65 27.9 35.9 38.95 33.85 38.95 33.1 41.2 39.5 41.2 40.3 38.95 38.5 38.95 42.3 27.9 44.1 27.9 44.85 25.7 43.0 25.7 43.75 23.45 41.15 23.45 M46.0 23.75 L45.25 25.95 52.75 25.95 48.95 29.5 44.1 29.5 43.35 31.65 51.65 31.65 49.35 38.35 48.85 38.95 48.5 39.0 48.05 39.0 47.2 41.3 48.6 41.3 49.55 41.2 50.4 40.7 50.95 40.05 51.45 39.1 54.7 29.5 51.7 29.5 56.05 25.65 56.65 23.75 46.0 23.75 M44.6 33.0 L41.85 38.5 Q41.55 39.1 41.05 39.1 L40.8 39.1 40.0 41.25 40.8 41.25 Q41.85 41.25 42.3 40.9 L43.0 40.35 43.55 39.65 46.95 33.0 44.6 33.0 M48.3 33.0 L45.45 38.35 45.0 38.95 44.6 39.1 44.0 39.1 43.35 41.3 44.45 41.3 Q45.8 41.3 46.35 40.7 L47.05 39.65 50.4 33.0 48.3 33.0 M22.1 23.45 L21.6 25.0 18.95 25.0 18.2 27.15 20.95 27.15 20.3 29.0 16.5 34.8 15.65 35.45 15.4 35.45 14.8 37.5 15.55 37.5 Q16.7 37.5 17.55 36.3 L18.15 35.45 16.85 38.95 16.65 39.2 15.7 39.2 14.85 39.2 14.1 41.25 16.5 41.25 18.15 40.8 Q18.85 40.35 19.15 39.2 L22.0 30.8 22.8 30.8 23.55 28.8 22.75 28.8 23.25 27.15 24.25 27.15 24.85 25.0 24.0 25.0 24.4 23.45 22.1 23.45 M28.4 23.45 L26.45 25.25 25.8 25.55 25.15 25.55 24.55 27.35 25.9 27.35 27.25 27.0 28.4 26.25 33.05 26.25 31.15 27.95 24.4 27.95 22.4 34.05 21.9 34.05 21.2 36.15 25.45 36.15 23.7 38.35 23.1 38.95 22.5 39.2 21.65 39.35 20.2 39.35 19.6 41.25 22.8 41.2 23.9 40.8 26.2 38.35 26.85 40.25 27.6 41.1 28.9 41.25 30.85 41.25 31.55 39.35 30.95 39.35 29.75 39.2 Q29.15 38.95 28.95 38.5 L28.3 36.15 32.65 36.15 33.35 34.05 32.95 34.05 34.95 27.95 33.9 27.95 35.7 26.25 36.4 24.3 30.0 24.3 30.65 23.45 28.4 23.45 M30.5 34.05 L28.85 34.05 30.3 29.95 31.95 29.95 30.5 34.05 M27.9 29.95 L26.45 34.05 24.7 34.05 26.1 29.95 27.9 29.95 Z" fill="none" stroke="#000033" stroke-linecap="round" stroke-linejoin="round" stroke-width="4.0"/>
    <path d="M27.9 29.95 L26.1 29.95 24.7 34.05 26.45 34.05 27.9 29.95 M30.5 34.05 L31.95 29.95 30.3 29.95 28.85 34.05 30.5 34.05 M28.4 23.45 L30.65 23.45 30.0 24.3 36.4 24.3 35.7 26.25 33.9 27.95 34.95 27.95 32.95 34.05 33.35 34.05 32.65 36.15 28.3 36.15 28.95 38.5 Q29.15 38.95 29.75 39.2 L30.95 39.35 31.55 39.35 30.85 41.25 28.9 41.25 27.6 41.1 26.85 40.25 26.2 38.35 23.9 40.8 22.8 41.2 19.6 41.25 20.2 39.35 21.65 39.35 22.5 39.2 23.1 38.95 23.7 38.35 25.45 36.15 21.2 36.15 21.9 34.05 22.4 34.05 24.4 27.95 31.15 27.95 33.05 26.25 28.4 26.25 27.25 27.0 25.9 27.35 24.55 27.35 25.15 25.55 25.8 25.55 26.45 25.25 28.4 23.45 M22.1 23.45 L24.4 23.45 24.0 25.0 24.85 25.0 24.25 27.15 23.25 27.15 22.75 28.8 23.55 28.8 22.8 30.8 22.0 30.8 19.15 39.2 Q18.85 40.35 18.15 40.8 L16.5 41.25 14.1 41.25 14.85 39.2 15.7 39.2 16.65 39.2 16.85 38.95 18.15 35.45 17.55 36.3 Q16.7 37.5 15.55 37.5 L14.8 37.5 15.4 35.45 15.65 35.45 16.5 34.8 20.3 29.0 20.95 27.15 18.2 27.15 18.95 25.0 21.6 25.0 22.1 23.45 M48.3 33.0 L50.4 33.0 47.05 39.65 46.35 40.7 Q45.8 41.3 44.45 41.3 L43.35 41.3 44.0 39.1 44.6 39.1 45.0 38.95 45.45 38.35 48.3 33.0 M44.6 33.0 L46.95 33.0 43.55 39.65 43.0 40.35 42.3 40.9 Q41.85 41.25 40.8 41.25 L40.0 41.25 40.8 39.1 41.05 39.1 Q41.55 39.1 41.85 38.5 L44.6 33.0 M46.0 23.75 L56.65 23.75 56.05 25.65 51.7 29.5 54.7 29.5 51.45 39.1 50.95 40.05 50.4 40.7 49.55 41.2 48.6 41.3 47.2 41.3 48.05 39.0 48.5 39.0 48.85 38.95 49.35 38.35 51.65 31.65 43.35 31.65 44.1 29.5 48.95 29.5 52.75 25.95 45.25 25.95 46.0 23.75 M41.15 23.45 L43.75 23.45 43.0 25.7 44.85 25.7 44.1 27.9 42.3 27.9 38.5 38.95 40.3 38.95 39.5 41.2 33.1 41.2 33.85 38.95 35.9 38.95 39.65 27.9 37.65 27.9 38.4 25.7 40.5 25.7 41.15 23.45" fill="url(#gradient1)" fill-rule="evenodd" stroke="none"/>
    <path d="M41.15 23.45 L40.5 25.7 38.4 25.7 37.65 27.9 39.65 27.9 35.9 38.95 33.85 38.95 33.1 41.2 39.5 41.2 40.3 38.95 38.5 38.95 42.3 27.9 44.1 27.9 44.85 25.7 43.0 25.7 43.75 23.45 41.15 23.45 M46.0 23.75 L45.25 25.95 52.75 25.95 48.95 29.5 44.1 29.5 43.35 31.65 51.65 31.65 49.35 38.35 48.85 38.95 48.5 39.0 48.05 39.0 47.2 41.3 48.6 41.3 49.55 41.2 50.4 40.7 50.95 40.05 51.45 39.1 54.7 29.5 51.7 29.5 56.05 25.65 56.65 23.75 46.0 23.75 M44.6 33.0 L41.85 38.5 Q41.55 39.1 41.05 39.1 L40.8 39.1 40.0 41.25 40.8 41.25 Q41.85 41.25 42.3 40.9 L43.0 40.35 43.55 39.65 46.95 33.0 44.6 33.0 M48.3 33.0 L45.45 38.35 45.0 38.95 44.6 39.1 44.0 39.1 43.35 41.3 44.45 41.3 Q45.8 41.3 46.35 40.7 L47.05 39.65 50.4 33.0 48.3 33.0 M22.1 23.45 L21.6 25.0 18.95 25.0 18.2 27.15 20.95 27.15 20.3 29.0 16.5 34.8 15.65 35.45 15.4 35.45 14.8 37.5 15.55 37.5 Q16.7 37.5 17.55 36.3 L18.15 35.45 16.85 38.95 16.65 39.2 15.7 39.2 14.85 39.2 14.1 41.25 16.5 41.25 18.15 40.8 Q18.85 40.35 19.15 39.2 L22.0 30.8 22.8 30.8 23.55 28.8 22.75 28.8 23.25 27.15 24.25 27.15 24.85 25.0 24.0 25.0 24.4 23.45 22.1 23.45 M28.4 23.45 L26.45 25.25 25.8 25.55 25.15 25.55 24.55 27.35 25.9 27.35 27.25 27.0 28.4 26.25 33.05 26.25 31.15 27.95 24.4 27.95 22.4 34.05 21.9 34.05 21.2 36.15 25.45 36.15 23.7 38.35 23.1 38.95 22.5 39.2 21.65 39.35 20.2 39.35 19.6 41.25 22.8 41.2 23.9 40.8 26.2 38.35 26.85 40.25 27.6 41.1 28.9 41.25 30.85 41.25 31.55 39.35 30.95 39.35 29.75 39.2 Q29.15 38.95 28.95 38.5 L28.3 36.15 32.65 36.15 33.35 34.05 32.95 34.05 34.95 27.95 33.9 27.95 35.7 26.25 36.4 24.3 30.0 24.3 30.65 23.45 28.4 23.45 M30.5 34.05 L28.85 34.05 30.3 29.95 31.95 29.95 30.5 34.05 M27.9 29.95 L26.45 34.05 24.7 34.05 26.1 29.95 27.9 29.95 Z" fill="none" stroke="#006699" stroke-linecap="round" stroke-linejoin="round" stroke-width="2.0"/>
    <path d="M27.9 29.95 L26.1 29.95 24.7 34.05 26.45 34.05 27.9 29.95 M30.5 34.05 L31.95 29.95 30.3 29.95 28.85 34.05 30.5 34.05 M28.4 23.45 L30.65 23.45 30.0 24.3 36.4 24.3 35.7 26.25 33.9 27.95 34.95 27.95 32.95 34.05 33.35 34.05 32.65 36.15 28.3 36.15 28.95 38.5 Q29.15 38.95 29.75 39.2 L30.95 39.35 31.55 39.35 30.85 41.25 28.9 41.25 27.6 41.1 26.85 40.25 26.2 38.35 23.9 40.8 22.8 41.2 19.6 41.25 20.2 39.35 21.65 39.35 22.5 39.2 23.1 38.95 23.7 38.35 25.45 36.15 21.2 36.15 21.9 34.05 22.4 34.05 24.4 27.95 31.15 27.95 33.05 26.25 28.4 26.25 27.25 27.0 25.9 27.35 24.55 27.35 25.15 25.55 25.8 25.55 26.45 25.25 28.4 23.45 M22.1 23.45 L24.4 23.45 24.0 25.0 24.85 25.0 24.25 27.15 23.25 27.15 22.75 28.8 23.55 28.8 22.8 30.8 22.0 30.8 19.15 39.2 Q18.85 40.35 18.15 40.8 L16.5 41.25 14.1 41.25 14.85 39.2 15.7 39.2 16.65 39.2 16.85 38.95 18.15 35.45 17.55 36.3 Q16.7 37.5 15.55 37.5 L14.8 37.5 15.4 35.45 15.65 35.45 16.5 34.8 20.3 29.0 20.95 27.15 18.2 27.15 18.95 25.0 21.6 25.0 22.1 23.45 M48.3 33.0 L50.4 33.0 47.05 39.65 46.35 40.7 Q45.8 41.3 44.45 41.3 L43.35 41.3 44.0 39.1 44.6 39.1 45.0 38.95 45.45 38.35 48.3 33.0 M44.6 33.0 L46.95 33.0 43.55 39.65 43.0 40.35 42.3 40.9 Q41.85 41.25 40.8 41.25 L40.0 41.25 40.8 39.1 41.05 39.1 Q41.55 39.1 41.85 38.5 L44.6 33.0 M46.0 23.75 L56.65 23.75 56.05 25.65 51.7 29.5 54.7 29.5 51.45 39.1 50.95 40.05 50.4 40.7 49.55 41.2 48.6 41.3 47.2 41.3 48.05 39.0 48.5 39.0 48.85 38.95 49.35 38.35 51.65 31.65 43.35 31.65 44.1 29.5 48.95 29.5 52.75 25.95 45.25 25.95 46.0 23.75 M41.15 23.45 L43.75 23.45 43.0 25.7 44.85 25.7 44.1 27.9 42.3 27.9 38.5 38.95 40.3 38.95 39.5 41.2 33.1 41.2 33.85 38.95 35.9 38.95 39.65 27.9 37.65 27.9 38.4 25.7 40.5 25.7 41.15 23.45" fill="url(#gradient2)" fill-rule="evenodd" stroke="none"/>
  </g>
  <defs>
    <linearGradient gradientTransform="matrix(0.0, -0.0099, 0.0108, 0.0, 38.8, 32.5)" gradientUnits="userSpaceOnUse" id="gradient0" spreadMethod="pad" x1="-819.2" x2="819.2">
      <stop offset="0.0" stop-color="#009900"/>
      <stop offset="1.0" stop-color="#00ff00"/>
    </linearGradient>
    <linearGradient gradientTransform="matrix(0.0, -0.0099, 0.0108, 0.0, 38.8, 32.5)" gradientUnits="userSpaceOnUse" id="gradient1" spreadMethod="pad" x1="-819.2" x2="819.2">
      <stop offset="0.0" stop-color="#009900"/>
      <stop offset="1.0" stop-color="#00ff00"/>
    </linearGradient>
    <linearGradient gradientTransform="matrix(0.0, -0.0099, 0.0108, 0.0, 38.8, 32.5)" gradientUnits="userSpaceOnUse" id="gradient2" spreadMethod="pad" x1="-819.2" x2="819.2">
      <stop offset="0.0" stop-color="#66ccff"/>
      <stop offset="1.0" stop-color="#66ffff"/>
    </linearGradient>
  </defs>
</svg>
