<?xml version="1.0" encoding="UTF-8" standalone="no"?>
<svg xmlns:xlink="http://www.w3.org/1999/xlink" height="26.2px" width="24.5px" xmlns="http://www.w3.org/2000/svg">
  <g transform="matrix(1.0, 0.0, 0.0, 1.0, 3.65, 2.7)">
    <path d="M3.0 11.25 L2.95 11.2 Q2.75 10.75 2.85 10.05 L3.0 8.8 3.6 7.15 4.25 5.35 5.25 3.65 Q5.65 3.05 6.15 2.6 6.7 2.05 7.3 1.75 7.8 1.5 8.3 1.4 L9.35 1.3 13.6 1.3 15.05 1.4 Q15.45 1.4 15.85 1.7 L16.55 2.3 16.85 3.2 16.85 4.1 16.55 5.8 15.85 7.9 14.65 11.25 3.0 11.25 M12.6 5.3 Q12.5 5.0 11.9 5.0 L9.9 5.0 8.7 5.1 Q8.5 5.1 8.3 5.35 L7.85 5.9 7.45 6.7 7.25 7.55 7.2 8.35 8.35 8.6 10.6 8.6 11.45 8.35 Q11.95 8.0 12.25 7.15 L12.65 6.1 12.6 5.3" fill="url(#gradient0)" fill-rule="evenodd" stroke="none"/>
    <path d="M14.65 11.25 L13.75 13.65 12.85 15.65 11.8 17.25 10.45 18.5 Q9.7 19.05 9.0 19.25 L7.75 19.5 6.95 19.5 3.0 19.5 2.05 19.4 1.35 19.15 1.05 18.85 0.8 18.5 0.5 18.05 0.5 17.5 0.35 16.55 Q0.3 15.9 1.0 14.3 L1.35 13.3 4.95 13.3 4.6 14.3 Q4.4 14.8 4.5 15.1 L4.95 15.55 5.9 15.7 7.25 15.7 8.4 15.45 9.15 14.9 9.65 14.3 9.95 13.4 10.6 11.65 9.6 12.2 8.45 12.3 6.1 12.3 4.25 12.3 3.55 11.95 3.0 11.25 14.65 11.25" fill="url(#gradient1)" fill-rule="evenodd" stroke="none"/>
    <path d="M12.6 5.3 Q12.5 5.0 11.9 5.0 L9.9 5.0 8.7 5.1 Q8.5 5.1 8.3 5.35 L7.85 5.9 7.45 6.7 7.25 7.55 7.2 8.35 8.35 8.6 10.6 8.6 11.45 8.35 Q11.95 8.0 12.25 7.15 L12.65 6.1 12.6 5.3" fill="none" stroke="#722c01" stroke-linecap="butt" stroke-linejoin="miter-clip" stroke-miterlimit="3.0" stroke-width="8.0"/>
    <path d="M3.0 11.25 L2.95 11.2 Q2.75 10.75 2.85 10.05 L3.0 8.8 3.6 7.15 4.25 5.35 5.25 3.65 Q5.65 3.05 6.15 2.6 6.7 2.05 7.3 1.75 7.8 1.5 8.3 1.4 L9.35 1.3 13.6 1.3 15.05 1.4 Q15.45 1.4 15.85 1.7 L16.55 2.3 16.85 3.2 16.85 4.1 16.55 5.8 15.85 7.9 14.65 11.25 13.75 13.65 12.85 15.65 11.8 17.25 10.45 18.5 Q9.7 19.05 9.0 19.25 L7.75 19.5 6.95 19.5 3.0 19.5 2.05 19.4 1.35 19.15 1.05 18.85 0.8 18.5 0.5 18.05 0.5 17.5 0.35 16.55 Q0.3 15.9 1.0 14.3 L1.35 13.3 4.95 13.3 4.6 14.3 Q4.4 14.8 4.5 15.1 L4.95 15.55 5.9 15.7 7.25 15.7 8.4 15.45 9.15 14.9 9.65 14.3 9.95 13.4 10.6 11.65 9.6 12.2 8.45 12.3 6.1 12.3 4.25 12.3 3.55 11.95 3.0 11.25 14.65 11.25" fill="none" stroke="#722c01" stroke-linecap="round" stroke-linejoin="miter-clip" stroke-miterlimit="3.0" stroke-width="8.0"/>
    <path d="M3.0 11.25 L2.95 11.2 Q2.75 10.75 2.85 10.05 L3.0 8.8 3.6 7.15 4.25 5.35 5.25 3.65 Q5.65 3.05 6.15 2.6 6.7 2.05 7.3 1.75 7.8 1.5 8.3 1.4 L9.35 1.3 13.6 1.3 15.05 1.4 Q15.45 1.4 15.85 1.7 L16.55 2.3 16.85 3.2 16.85 4.1 16.55 5.8 15.85 7.9 14.65 11.25 3.0 11.25 M12.6 5.3 Q12.5 5.0 11.9 5.0 L9.9 5.0 8.7 5.1 Q8.5 5.1 8.3 5.35 L7.85 5.9 7.45 6.7 7.25 7.55 7.2 8.35 8.35 8.6 10.6 8.6 11.45 8.35 Q11.95 8.0 12.25 7.15 L12.65 6.1 12.6 5.3" fill="url(#gradient2)" fill-rule="evenodd" stroke="none"/>
    <path d="M14.65 11.25 L13.75 13.65 12.85 15.65 11.8 17.25 10.45 18.5 Q9.7 19.05 9.0 19.25 L7.75 19.5 6.95 19.5 3.0 19.5 2.05 19.4 1.35 19.15 1.05 18.85 0.8 18.5 0.5 18.05 0.5 17.5 0.35 16.55 Q0.3 15.9 1.0 14.3 L1.35 13.3 4.95 13.3 4.6 14.3 Q4.4 14.8 4.5 15.1 L4.95 15.55 5.9 15.7 7.25 15.7 8.4 15.45 9.15 14.9 9.65 14.3 9.95 13.4 10.6 11.65 9.6 12.2 8.45 12.3 6.1 12.3 4.25 12.3 3.55 11.95 3.0 11.25 14.65 11.25" fill="url(#gradient3)" fill-rule="evenodd" stroke="none"/>
    <path d="M12.6 5.3 Q12.5 5.0 11.9 5.0 L9.9 5.0 8.7 5.1 Q8.5 5.1 8.3 5.35 L7.85 5.9 7.45 6.7 7.25 7.55 7.2 8.35 8.35 8.6 10.6 8.6 11.45 8.35 Q11.95 8.0 12.25 7.15 L12.65 6.1 12.6 5.3" fill="none" stroke="#ff7000" stroke-linecap="butt" stroke-linejoin="miter-clip" stroke-miterlimit="3.0" stroke-width="3.0"/>
    <path d="M3.0 11.25 L2.95 11.2 Q2.75 10.75 2.85 10.05 L3.0 8.8 3.6 7.15 4.25 5.35 5.25 3.65 Q5.65 3.05 6.15 2.6 6.7 2.05 7.3 1.75 7.8 1.5 8.3 1.4 L9.35 1.3 13.6 1.3 15.05 1.4 Q15.45 1.4 15.85 1.7 L16.55 2.3 16.85 3.2 16.85 4.1 16.55 5.8 15.85 7.9 14.65 11.25 13.75 13.65 12.85 15.65 11.8 17.25 10.45 18.5 Q9.7 19.05 9.0 19.25 L7.75 19.5 6.95 19.5 3.0 19.5 2.05 19.4 1.35 19.15 1.05 18.85 0.8 18.5 0.5 18.05 0.5 17.5 0.35 16.55 Q0.3 15.9 1.0 14.3 L1.35 13.3 4.95 13.3 4.6 14.3 Q4.4 14.8 4.5 15.1 L4.95 15.55 5.9 15.7 7.25 15.7 8.4 15.45 9.15 14.9 9.65 14.3 9.95 13.4 10.6 11.65 9.6 12.2 8.45 12.3 6.1 12.3 4.25 12.3 3.55 11.95 3.0 11.25 14.65 11.25" fill="none" stroke="#ff7000" stroke-linecap="round" stroke-linejoin="miter-clip" stroke-miterlimit="3.0" stroke-width="3.0"/>
    <path d="M3.0 11.25 L2.95 11.2 Q2.75 10.75 2.85 10.05 L3.0 8.8 3.6 7.15 4.25 5.35 5.25 3.65 Q5.65 3.05 6.15 2.6 6.7 2.05 7.3 1.75 7.8 1.5 8.3 1.4 L9.35 1.3 13.6 1.3 15.05 1.4 Q15.45 1.4 15.85 1.7 L16.55 2.3 16.85 3.2 16.85 4.1 16.55 5.8 15.85 7.9 14.65 11.25 3.0 11.25 M12.6 5.3 Q12.5 5.0 11.9 5.0 L9.9 5.0 8.7 5.1 Q8.5 5.1 8.3 5.35 L7.85 5.9 7.45 6.7 7.25 7.55 7.2 8.35 8.35 8.6 10.6 8.6 11.45 8.35 Q11.95 8.0 12.25 7.15 L12.65 6.1 12.6 5.3" fill="url(#gradient4)" fill-rule="evenodd" stroke="none"/>
    <path d="M14.65 11.25 L13.75 13.65 12.85 15.65 11.8 17.25 10.45 18.5 Q9.7 19.05 9.0 19.25 L7.75 19.5 6.95 19.5 3.0 19.5 2.05 19.4 1.35 19.15 1.05 18.85 0.8 18.5 0.5 18.05 0.5 17.5 0.35 16.55 Q0.3 15.9 1.0 14.3 L1.35 13.3 4.95 13.3 4.6 14.3 Q4.4 14.8 4.5 15.1 L4.95 15.55 5.9 15.7 7.25 15.7 8.4 15.45 9.15 14.9 9.65 14.3 9.95 13.4 10.6 11.65 9.6 12.2 8.45 12.3 6.1 12.3 4.25 12.3 3.55 11.95 3.0 11.25 14.65 11.25" fill="url(#gradient5)" fill-rule="evenodd" stroke="none"/>
  </g>
  <defs>
    <linearGradient gradientTransform="matrix(0.0, 0.0057, -0.057, 0.0, -3.0, 6.25)" gradientUnits="userSpaceOnUse" id="gradient0" spreadMethod="pad" x1="-819.2" x2="819.2">
      <stop offset="0.37254901960784315" stop-color="#fff7d2"/>
      <stop offset="1.0" stop-color="#ffe000"/>
    </linearGradient>
    <linearGradient gradientTransform="matrix(0.0, 0.0051, -0.0588, 0.0, -6.6, 15.4)" gradientUnits="userSpaceOnUse" id="gradient1" spreadMethod="pad" x1="-819.2" x2="819.2">
      <stop offset="0.00392156862745098" stop-color="#ff7e00"/>
      <stop offset="0.011764705882352941" stop-color="#ff8c00"/>
      <stop offset="1.0" stop-color="#f3ff00"/>
    </linearGradient>
    <linearGradient gradientTransform="matrix(0.0, 0.0057, -0.057, 0.0, -3.0, 6.25)" gradientUnits="userSpaceOnUse" id="gradient2" spreadMethod="pad" x1="-819.2" x2="819.2">
      <stop offset="0.37254901960784315" stop-color="#fff7d2"/>
      <stop offset="1.0" stop-color="#ffe000"/>
    </linearGradient>
    <linearGradient gradientTransform="matrix(0.0, 0.0051, -0.0588, 0.0, -6.6, 15.4)" gradientUnits="userSpaceOnUse" id="gradient3" spreadMethod="pad" x1="-819.2" x2="819.2">
      <stop offset="0.00392156862745098" stop-color="#ff7e00"/>
      <stop offset="0.011764705882352941" stop-color="#ff8c00"/>
      <stop offset="1.0" stop-color="#f3ff00"/>
    </linearGradient>
    <linearGradient gradientTransform="matrix(0.0, 0.0057, -0.057, 0.0, -3.0, 6.25)" gradientUnits="userSpaceOnUse" id="gradient4" spreadMethod="pad" x1="-819.2" x2="819.2">
      <stop offset="0.37254901960784315" stop-color="#fff7d2"/>
      <stop offset="1.0" stop-color="#ffe000"/>
    </linearGradient>
    <linearGradient gradientTransform="matrix(0.0, 0.0051, -0.0588, 0.0, -6.6, 15.4)" gradientUnits="userSpaceOnUse" id="gradient5" spreadMethod="pad" x1="-819.2" x2="819.2">
      <stop offset="0.00392156862745098" stop-color="#ff7e00"/>
      <stop offset="0.011764705882352941" stop-color="#ff8c00"/>
      <stop offset="1.0" stop-color="#f3ff00"/>
    </linearGradient>
  </defs>
</svg>
