<?xml version="1.0" encoding="UTF-8" standalone="no"?>
<svg xmlns:xlink="http://www.w3.org/1999/xlink" height="655.5px" width="568.75px" xmlns="http://www.w3.org/2000/svg">
  <g transform="matrix(1.0, 0.0, 0.0, 1.0, -336.3, -3.85)">
    <path d="M717.65 355.6 L717.65 357.1 Q715.4 394.85 685.55 420.3 656.3 444.9 617.05 443.65 L615.7 443.45 614.45 443.45 Q575.3 441.15 548.75 413.6 524.95 388.6 523.8 355.95 L523.8 355.6 523.95 347.7 Q526.2 309.9 555.75 284.7 581.55 262.9 614.45 261.3 619.85 261.0 625.45 261.3 L625.75 261.3 Q665.75 263.15 692.8 291.3 718.4 318.15 717.65 353.95 717.4 354.65 717.65 355.6 M614.45 559.8 Q702.6 562.45 768.1 506.6 836.0 449.15 840.35 363.1 L840.9 355.6 841.05 352.75 Q841.6 273.25 784.15 213.5 723.05 149.55 632.1 145.3 L631.1 145.3 Q622.65 145.0 614.45 145.1 534.4 146.5 473.2 198.35 405.6 255.8 400.7 341.85 400.3 348.65 400.55 355.6 L400.55 357.4 Q401.9 433.5 457.15 491.5 518.3 555.2 609.15 559.65 L611.55 559.65 614.45 559.8 M862.35 355.6 L862.35 352.45 Q862.85 265.55 799.95 200.0 746.85 144.6 673.25 130.05 653.8 126.25 633.1 125.25 L631.95 125.3 Q623.2 124.9 614.45 125.1 590.05 125.45 567.25 130.05 507.45 142.15 458.7 183.4 384.5 246.6 379.3 340.8 378.75 348.2 379.05 355.6 L379.05 357.3 Q380.45 441.25 441.15 504.95 508.2 574.9 608.15 579.75 L610.55 579.75 614.45 579.85 Q710.5 582.6 782.45 521.45 856.8 458.4 861.9 364.3 L862.35 355.6 M904.95 355.6 L904.95 352.1 Q905.7 250.2 831.85 172.95 807.9 147.95 780.4 130.05 717.15 88.9 635.35 84.9 L634.0 84.9 Q624.1 84.5 614.45 84.65 578.6 84.95 545.5 93.35 500.9 104.5 461.7 130.05 445.55 140.6 430.3 153.55 378.05 197.85 354.85 255.3 339.15 293.95 336.65 338.55 336.2 347.15 336.4 355.6 L336.4 357.7 Q337.65 456.8 409.45 531.95 488.35 614.25 605.8 620.05 L608.85 620.05 614.45 620.3 Q726.85 623.0 811.05 551.4 898.4 477.25 904.45 366.4 L904.95 355.6" fill="none" stroke="#52e5f9" stroke-linecap="round" stroke-linejoin="round" stroke-opacity="0.40784314" stroke-width="0.1"/>
    <path d="M614.45 443.45 L614.45 559.8 614.45 579.85 614.45 620.3 614.45 659.25 M840.9 355.6 L717.65 355.6 614.45 355.6 614.45 443.45 M614.45 261.3 L614.45 355.6 523.8 355.6 400.55 355.6 379.05 355.6 336.4 355.6 M840.9 355.6 L862.35 355.6 904.95 355.6 M614.45 125.1 L614.45 145.1 614.45 261.3 M614.45 84.65 L614.45 125.1 M614.45 3.95 L614.45 84.65" fill="none" stroke="#52e5f9" stroke-linecap="round" stroke-linejoin="round" stroke-opacity="0.4" stroke-width="0.2"/>
    <path d="M676.25 165.8 L682.1 167.35 M664.55 163.2 L670.4 164.4 M652.7 161.25 L658.6 162.15 M721.1 183.0 Q723.75 184.4 726.35 185.9 M710.3 177.65 L715.75 180.25 M699.15 173.0 L704.8 175.25 M687.85 169.05 L693.5 170.95 M731.5 188.95 L736.55 192.15 M785.05 236.4 L788.75 241.1 M777.25 227.3 L781.2 231.8 M760.4 210.6 L764.85 214.7 M751.15 202.8 L755.8 206.6 M805.05 266.3 L807.85 271.65 M799.05 255.9 L802.15 261.05 M792.35 245.9 L795.75 250.85 M769.2 218.85 L773.15 222.9 M815.05 288.3 L817.05 294.0 M810.45 277.1 L812.85 282.65 M825.25 335.2 L825.65 341.25 M823.9 323.2 L824.7 329.2 M821.8 311.4 L822.95 317.3 M818.85 299.75 L820.4 305.55 M825.85 347.3 L825.85 352.65 M822.35 389.05 L821.15 394.9 M824.2 377.15 L823.35 383.1 M825.35 365.25 L824.85 371.2 M825.85 353.0 L825.85 355.6 825.65 359.15 M741.5 195.55 L746.4 199.1 M816.35 412.25 L814.35 417.9 M819.75 400.75 L818.15 406.5 M807.15 434.55 L804.4 439.9 M780.35 474.3 L776.35 478.75 M788.05 465.0 L784.25 469.7 M795.1 455.35 L791.65 460.25 M772.15 483.1 L767.85 487.35 M801.5 445.15 L798.4 450.3 M703.4 530.05 L697.85 532.25 M714.25 525.05 L708.85 527.65 M724.85 519.45 L719.6 522.35 M657.4 543.05 L651.45 543.9 M669.2 540.85 L663.3 542.05 M680.8 537.9 L675.05 539.45 M692.25 534.3 L686.55 536.2 M735.1 513.25 L730.0 516.45 M744.95 506.45 L740.05 509.95 M754.4 499.1 L749.7 502.85 M763.4 491.45 L758.7 495.55 M812.15 423.55 L809.75 429.1 M513.55 187.2 Q516.15 185.65 518.75 184.2 M503.4 193.6 L508.4 190.35 M557.45 168.0 L563.25 166.35 M546.0 171.8 Q548.85 170.75 551.7 169.8 M534.85 176.25 L540.4 173.95 M524.05 181.4 Q526.7 180.05 529.4 178.75 M592.9 160.6 L598.9 160.0 M580.9 162.4 L586.85 161.4 M569.1 164.85 L574.95 163.55 M640.8 159.9 L646.75 160.5 M628.7 159.1 L630.4 159.15 631.4 159.25 634.8 159.45 M616.65 159.05 L622.65 159.0 M604.95 159.55 L611.05 159.2 M474.65 216.55 L479.05 212.5 M466.15 224.95 L470.35 220.7 M458.1 233.9 L462.05 229.35 M450.65 243.3 L454.3 238.55 M437.7 263.55 L440.7 258.3 M432.3 274.15 L434.9 268.8 M427.7 285.15 L429.9 279.6 M423.85 296.4 L425.7 290.75 M443.85 253.2 L447.15 248.2 M420.7 307.9 L422.2 302.15 M418.3 319.6 L419.4 313.75 M416.7 331.4 L417.4 325.45 M415.7 343.35 L415.8 342.4 416.15 337.35 M415.35 355.5 L415.45 349.45 M415.95 367.35 L415.65 361.35 M417.1 379.35 L416.4 373.35 M419.05 391.15 L417.95 385.3 M493.65 200.55 L498.5 197.0 M484.3 208.0 L488.95 204.2 M539.6 530.75 L534.1 528.45 M550.8 534.85 L545.15 532.85 M562.2 538.25 L556.45 536.65 M497.85 507.85 L493.1 504.25 M507.8 514.5 L502.8 511.25 M518.0 520.55 L512.85 517.6 M528.65 525.95 L523.3 523.35 M573.85 541.0 L568.0 539.7 M585.55 543.05 L579.7 542.1 M621.5 545.8 L615.45 545.75 M633.45 545.5 L627.5 545.75 M645.45 544.6 L639.45 545.15 M597.4 544.5 L591.5 543.85 M609.3 545.35 L603.35 545.0 M421.85 402.75 L420.35 397.0 M425.45 414.1 L423.55 408.45 M429.85 425.25 L427.55 419.7 M435.05 436.05 L432.35 430.7 M454.4 466.0 L450.8 461.25 M462.05 475.2 L458.15 470.65 M470.55 484.25 L468.35 482.0 466.05 479.6 M479.3 492.7 L474.9 488.6 M440.85 446.4 L437.85 441.25 M447.3 456.4 L444.0 451.45 M488.4 500.55 L483.8 496.7" fill="none" stroke="#52e5f9" stroke-linecap="round" stroke-linejoin="round" stroke-opacity="0.40784314" stroke-width="0.1"/>
  </g>
</svg>
