<?xml version="1.0" encoding="UTF-8" standalone="no"?>
<svg xmlns:xlink="http://www.w3.org/1999/xlink" height="38.35px" width="160.25px" xmlns="http://www.w3.org/2000/svg">
  <g transform="matrix(1.0, 0.0, 0.0, 1.0, 0.95, 0.5)">
    <path d="M98.6 18.55 Q98.6 26.25 93.15 31.7 87.75 37.15 80.0 37.15 72.35 37.15 66.9 31.7 61.5 26.25 61.5 18.55 61.5 10.9 66.9 5.45 72.35 0.05 80.0 0.05 87.75 0.05 93.15 5.45 98.6 10.9 98.6 18.55 M91.8 30.65 Q96.7 25.75 96.7 18.85 96.7 11.95 91.8 7.0 86.95 2.15 80.0 2.15 73.15 2.15 68.2 7.0 63.35 11.95 63.35 18.85 63.35 25.75 68.2 30.65 73.15 35.55 80.0 35.55 86.95 35.55 91.8 30.65" fill="#0e1e34" fill-opacity="0.7019608" fill-rule="evenodd" stroke="none"/>
    <path d="M98.7 18.7 Q98.7 26.35 93.25 31.8 87.85 37.25 80.2 37.25 72.45 37.25 67.0 31.8 61.6 26.35 61.6 18.7 61.6 11.0 67.0 5.55 72.45 0.15 80.2 0.15 87.85 0.15 93.25 5.55 98.7 11.0 98.7 18.7 Z" fill="none" stroke="#cc6600" stroke-linecap="butt" stroke-linejoin="miter-clip" stroke-miterlimit="3.0" stroke-width="1.2000000000000002"/>
    <path d="M32.1 13.0 L35.9 13.4 40.15 13.5 37.95 13.65 37.8 13.65 37.65 13.65 Q18.45 14.2 3.15 0.0 L6.85 0.0 Q17.15 10.8 32.1 13.0" fill="#333333" fill-rule="evenodd" stroke="none"/>
    <path d="M35.9 13.4 L32.1 13.0 Q19.25 10.75 12.75 2.6 22.85 11.4 35.9 13.4" fill="#ffffff" fill-rule="evenodd" stroke="none"/>
    <path d="M3.15 0.0 Q18.45 14.2 37.65 13.65 L37.8 13.65 37.95 13.65 40.15 13.5 Q12.65 17.55 0.0 0.0 L3.15 0.0" fill="#666666" fill-rule="evenodd" stroke="none"/>
    <path d="M32.1 13.0 Q17.15 10.8 6.85 0.0 L13.7 0.0 Q20.0 10.9 40.15 13.5 L35.9 13.4 Q22.85 11.4 12.75 2.6 19.25 10.75 32.1 13.0" fill="#cccccc" fill-rule="evenodd" stroke="none"/>
    <path d="M6.85 0.0 L3.15 0.0 0.0 0.0 Q12.65 17.55 40.15 13.5 20.0 10.9 13.7 0.0 L6.85 0.0 Z" fill="none" stroke="#4c4b36" stroke-linecap="butt" stroke-linejoin="miter-clip" stroke-miterlimit="3.0" stroke-width="1.0"/>
    <path d="M122.45 13.4 Q135.5 11.4 145.6 2.6 139.1 10.75 126.25 13.0 L122.45 13.4" fill="#ffffff" fill-rule="evenodd" stroke="none"/>
    <path d="M118.2 13.5 Q138.35 10.9 144.65 0.0 L151.5 0.0 Q141.2 10.8 126.25 13.0 139.1 10.75 145.6 2.6 135.5 11.4 122.45 13.4 L118.2 13.5" fill="#cccccc" fill-rule="evenodd" stroke="none"/>
    <path d="M151.5 0.0 L155.2 0.0 Q139.9 14.2 120.7 13.65 L120.55 13.65 120.4 13.65 118.2 13.5 122.45 13.4 126.25 13.0 Q141.2 10.8 151.5 0.0" fill="#333333" fill-rule="evenodd" stroke="none"/>
    <path d="M155.2 0.0 L158.35 0.0 Q145.7 17.55 118.2 13.5 L120.4 13.65 120.55 13.65 120.7 13.65 Q139.9 14.2 155.2 0.0" fill="#666666" fill-rule="evenodd" stroke="none"/>
    <path d="M155.2 0.0 L158.35 0.0 Q145.7 17.55 118.2 13.5 138.35 10.9 144.65 0.0 L151.5 0.0 155.2 0.0 Z" fill="none" stroke="#4c4b36" stroke-linecap="butt" stroke-linejoin="miter-clip" stroke-miterlimit="3.0" stroke-width="1.0"/>
    <path d="M123.8 19.5 L122.35 18.6 122.15 19.35 114.15 19.35 114.35 18.55 112.35 19.6 111.5 17.95 Q116.45 15.75 118.85 13.2 L121.45 13.2 120.9 13.75 Q122.15 16.2 125.5 17.9 L123.8 19.5 M119.2 15.2 Q117.9 16.35 116.0 17.55 L121.15 17.55 Q120.0 16.55 119.2 15.2 M113.5 24.6 L120.15 24.6 120.7 22.4 114.05 22.4 113.5 24.6 M110.95 27.05 L112.6 20.5 123.05 20.5 121.4 27.05 119.55 27.05 119.65 26.45 113.0 26.45 112.85 27.05 110.95 27.05 M43.6 21.35 L44.25 18.7 41.8 18.7 41.15 21.35 43.6 21.35 M48.15 15.5 L39.5 15.5 37.25 24.55 45.9 24.55 48.15 15.5 M45.1 23.0 L38.75 23.0 40.3 17.0 46.7 17.0 45.1 23.0 M45.3 26.85 L45.45 26.3 36.85 26.3 36.65 26.85 34.65 26.85 38.0 13.75 50.6 13.75 47.25 26.85 45.3 26.85" fill="#660000" fill-rule="evenodd" stroke="none"/>
    <path d="M123.8 19.5 L122.35 18.6 122.15 19.35 114.15 19.35 114.35 18.55 112.35 19.6 111.5 17.95 Q116.45 15.75 118.85 13.2 L121.45 13.2 120.9 13.75 Q122.15 16.2 125.5 17.9 L123.8 19.5 M119.2 15.2 Q117.9 16.35 116.0 17.55 L121.15 17.55 Q120.0 16.55 119.2 15.2 M113.5 24.6 L120.15 24.6 120.7 22.4 114.05 22.4 113.5 24.6 M110.95 27.05 L112.6 20.5 123.05 20.5 121.4 27.05 119.55 27.05 119.65 26.45 113.0 26.45 112.85 27.05 110.95 27.05 M43.6 21.35 L44.25 18.7 41.8 18.7 41.15 21.35 43.6 21.35 M48.15 15.5 L39.5 15.5 37.25 24.55 45.9 24.55 48.15 15.5 M45.1 23.0 L38.75 23.0 40.3 17.0 46.7 17.0 45.1 23.0 M45.3 26.85 L45.45 26.3 36.85 26.3 36.65 26.85 34.65 26.85 38.0 13.75 50.6 13.75 47.25 26.85 45.3 26.85 Z" fill="none" stroke="#660000" stroke-linecap="butt" stroke-linejoin="miter-clip" stroke-miterlimit="3.0" stroke-width="5.5"/>
    <path d="M122.15 19.4 L114.15 19.4 114.35 18.55 112.35 19.65 111.5 17.95 Q116.45 15.75 118.85 13.2 L121.45 13.2 120.9 13.8 Q122.15 16.25 125.5 17.9 L123.8 19.5 122.35 18.6 122.15 19.4 M119.2 15.2 L116.0 17.6 121.15 17.6 Q120.0 16.55 119.2 15.2 M113.5 24.6 L120.15 24.6 120.7 22.4 114.05 22.4 113.5 24.6 M110.95 27.1 L112.6 20.55 123.05 20.55 121.4 27.1 119.55 27.1 119.65 26.45 113.0 26.45 112.85 27.1 110.95 27.1 M48.15 15.55 L39.5 15.55 37.25 24.55 45.9 24.55 48.15 15.55 M45.1 23.0 L38.75 23.0 40.3 17.0 46.7 17.0 45.1 23.0 M43.6 21.4 L44.25 18.7 41.8 18.7 41.15 21.4 43.6 21.4 M45.3 26.9 L45.45 26.3 36.85 26.3 36.65 26.9 34.65 26.9 38.0 13.8 50.6 13.8 47.25 26.9 45.3 26.9" fill="#cc6600" fill-rule="evenodd" stroke="none"/>
    <path d="M122.15 19.4 L114.15 19.4 114.35 18.55 112.35 19.65 111.5 17.95 Q116.45 15.75 118.85 13.2 L121.45 13.2 120.9 13.8 Q122.15 16.25 125.5 17.9 L123.8 19.5 122.35 18.6 122.15 19.4 M119.2 15.2 L116.0 17.6 121.15 17.6 Q120.0 16.55 119.2 15.2 M113.5 24.6 L120.15 24.6 120.7 22.4 114.05 22.4 113.5 24.6 M110.95 27.1 L112.6 20.55 123.05 20.55 121.4 27.1 119.55 27.1 119.65 26.45 113.0 26.45 112.85 27.1 110.95 27.1 M48.15 15.55 L39.5 15.55 37.25 24.55 45.9 24.55 48.15 15.55 M45.1 23.0 L38.75 23.0 40.3 17.0 46.7 17.0 45.1 23.0 M43.6 21.4 L44.25 18.7 41.8 18.7 41.15 21.4 43.6 21.4 M45.3 26.9 L45.45 26.3 36.85 26.3 36.65 26.9 34.65 26.9 38.0 13.8 50.6 13.8 47.25 26.9 45.3 26.9 Z" fill="none" stroke="#cc6600" stroke-linecap="butt" stroke-linejoin="miter-clip" stroke-miterlimit="3.0" stroke-width="3.0"/>
    <path d="M122.35 18.4 L122.1 19.15 114.15 19.15 114.35 18.35 112.35 19.4 111.5 17.75 Q116.45 15.5 118.85 12.95 L121.45 12.95 120.85 13.55 Q122.1 16.05 125.45 17.65 L123.75 19.3 122.35 18.4 M119.2 15.05 Q117.9 16.15 116.0 17.35 L121.15 17.35 120.6 16.85 119.2 15.05 M113.5 24.4 L120.15 24.4 120.7 22.2 114.0 22.2 113.5 24.4 M110.9 26.85 L112.6 20.3 123.05 20.3 121.4 26.85 119.5 26.85 119.65 26.2 113.0 26.2 112.85 26.85 110.9 26.85" fill="url(#gradient0)" fill-rule="evenodd" stroke="none"/>
    <path d="M49.15 15.3 L40.5 15.3 38.2 24.35 46.85 24.35 49.15 15.3 M45.25 18.45 L42.8 18.45 42.1 21.15 44.6 21.15 45.25 18.45 M46.1 22.75 L39.75 22.75 41.25 16.8 47.65 16.8 46.1 22.75 M46.3 26.65 L46.4 26.1 37.8 26.1 37.65 26.65 35.6 26.65 39.0 13.55 51.6 13.55 48.25 26.65 46.3 26.65" fill="url(#gradient1)" fill-rule="evenodd" stroke="none"/>
  </g>
  <defs>
    <linearGradient gradientTransform="matrix(0.0, -0.0055, 0.008, 0.0, 84.15, 20.8)" gradientUnits="userSpaceOnUse" id="gradient0" spreadMethod="pad" x1="-819.2" x2="819.2">
      <stop offset="0.0" stop-color="#ffcc00"/>
      <stop offset="1.0" stop-color="#ffff00"/>
    </linearGradient>
    <linearGradient gradientTransform="matrix(0.0, -0.0055, 0.008, 0.0, 42.2, 20.8)" gradientUnits="userSpaceOnUse" id="gradient1" spreadMethod="pad" x1="-819.2" x2="819.2">
      <stop offset="0.0" stop-color="#ffcc00"/>
      <stop offset="1.0" stop-color="#ffff00"/>
    </linearGradient>
  </defs>
</svg>
