<?xml version="1.0" encoding="UTF-8" standalone="no"?>
<svg xmlns:xlink="http://www.w3.org/1999/xlink" height="28.75px" width="29.0px" xmlns="http://www.w3.org/2000/svg">
  <g transform="matrix(1.0, 0.0, 0.0, 1.0, 0.5, -1.65)">
    <path d="M26.2 13.5 Q24.35 17.35 20.5 20.0 20.45 20.0 20.15 20.15 L19.45 20.3 19.35 20.35 18.35 20.0 Q14.45 17.35 12.65 13.55 11.95 9.1 12.5 4.35 15.9 3.35 19.35 3.4 L19.45 3.4 Q22.9 3.3 26.7 4.35 26.9 9.1 26.2 13.5 Z" fill="none" stroke="#ffffff" stroke-linecap="butt" stroke-linejoin="miter-clip" stroke-miterlimit="3.0" stroke-width="3.5"/>
    <path d="M11.85 3.8 L11.85 13.5 14.85 13.5 Q12.7 17.2 9.0 19.9 L7.9 19.05 Q4.9 16.5 3.15 13.5 L6.1 13.5 6.1 3.8 11.85 3.8 Z" fill="none" stroke="#ffffff" stroke-linecap="butt" stroke-linejoin="miter-clip" stroke-miterlimit="3.0" stroke-width="3.5"/>
    <path d="M9.0 19.9 L7.9 19.05 Q6.8 17.85 9.0 19.9 L7.35 17.75 7.9 17.95 8.15 17.65 7.3 16.25 Q6.35 15.1 6.35 16.2 L6.65 16.75 Q5.5 15.15 5.4 14.4 L7.35 14.4 7.35 3.8 10.55 3.8 10.6 12.15 10.6 14.5 12.45 14.5 10.85 17.15 9.0 19.9" fill="#cb2c1b" fill-rule="evenodd" stroke="none"/>
    <path d="M10.55 3.8 L11.85 3.8 11.85 13.5 14.85 13.5 Q12.7 17.2 9.0 19.9 L10.85 17.15 12.45 14.5 10.6 14.5 10.6 12.15 10.55 3.8" fill="#a01e16" fill-rule="evenodd" stroke="none"/>
    <path d="M7.9 19.05 Q4.9 16.5 3.15 13.5 L6.1 13.5 6.1 3.8 7.35 3.8 7.35 14.4 5.4 14.4 Q5.5 15.15 6.65 16.75 L6.8 17.1 7.35 17.75 9.0 19.9 Q6.8 17.85 7.9 19.05" fill="#ee6c6c" fill-rule="evenodd" stroke="none"/>
    <path d="M6.65 16.75 L6.35 16.2 Q6.35 15.1 7.3 16.25 L8.15 17.65 7.9 17.95 7.35 17.75 6.8 17.1 6.65 16.75" fill="#ffffff" fill-rule="evenodd" stroke="none"/>
    <path d="M10.55 3.8 L11.85 3.8 11.85 13.5 14.85 13.5 Q12.7 17.2 9.0 19.9 L7.9 19.05 Q4.9 16.5 3.15 13.5 L6.1 13.5 6.1 3.8 7.35 3.8 10.55 3.8 Z" fill="none" stroke="#6d0101" stroke-linecap="butt" stroke-linejoin="miter-clip" stroke-miterlimit="3.0" stroke-width="1.0"/>
    <path d="M19.9 5.15 L24.8 5.75 Q25.25 9.15 24.8 12.3 23.45 15.0 20.75 16.8 L20.4 17.0 20.35 16.9 20.0 17.05 19.9 17.05 19.9 5.2 19.9 5.15" fill="#00ccff" fill-rule="evenodd" stroke="none"/>
    <path d="M19.9 3.9 L22.6 4.0 24.65 4.35 Q25.75 4.55 25.9 4.7 L26.2 4.95 26.35 8.25 26.35 8.55 26.35 9.15 26.2 11.6 25.9 13.05 25.75 13.45 Q24.4 15.6 22.7 17.2 L19.9 19.5 19.9 19.4 19.9 17.1 20.0 17.05 20.4 17.0 20.75 16.8 Q23.45 15.0 24.8 12.3 25.25 9.15 24.8 5.75 L19.9 5.15 19.9 3.9" fill="#0033ff" fill-rule="evenodd" stroke="none"/>
    <path d="M19.9 19.5 L22.7 17.2 Q24.4 15.6 25.75 13.45 L25.9 13.05 26.2 11.6 26.35 9.15 26.35 8.55 26.35 8.25 26.2 4.95 25.9 4.7 Q25.75 4.55 24.65 4.35 L22.6 4.0 19.9 3.9 19.9 3.15 Q23.4 3.05 27.05 4.1 27.35 8.85 26.7 13.25 24.8 17.1 21.0 19.75 L20.75 19.9 20.75 19.8 19.9 20.05 19.9 19.5" fill="#0000ff" fill-rule="evenodd" stroke="none"/>
    <path d="M20.4 17.0 L20.0 17.05 20.35 16.9 20.4 17.0" fill="#f0a028" fill-rule="evenodd" stroke="none"/>
    <path d="M19.9 19.5 L19.9 20.05 19.85 20.1 Q19.25 20.1 18.8 19.75 14.9 17.1 13.1 13.3 12.4 8.85 13.0 4.1 16.4 3.1 19.85 3.15 L19.9 3.15 19.9 3.9 17.0 4.1 Q14.7 4.35 13.9 4.8 L13.7 4.8 Q13.35 9.7 13.85 13.45 L14.15 13.7 Q16.8 17.7 19.9 19.4 L19.9 19.5" fill="#0099ff" fill-rule="evenodd" stroke="none"/>
    <path d="M19.9 3.9 L19.9 5.15 19.9 5.2 19.85 5.2 Q17.35 5.1 14.9 5.8 14.5 9.15 14.95 12.35 16.3 15.0 18.95 16.85 L19.85 17.1 19.9 17.1 19.9 19.4 Q16.8 17.7 14.15 13.7 L13.85 13.45 Q13.35 9.7 13.7 4.8 L13.9 4.8 Q14.7 4.35 17.0 4.1 L19.9 3.9" fill="#0066ff" fill-rule="evenodd" stroke="none"/>
    <path d="M19.9 17.05 L19.9 17.1 19.85 17.1 18.95 16.85 Q16.3 15.0 14.95 12.35 14.5 9.15 14.9 5.8 17.35 5.1 19.85 5.2 L19.9 5.2 19.9 17.05" fill="#4ab7ff" fill-rule="evenodd" stroke="none"/>
    <path d="M20.0 17.05 L19.9 17.1 19.9 17.05 20.0 17.05" fill="#9cfce8" fill-rule="evenodd" stroke="none"/>
    <path d="M19.9 5.15 L24.8 5.75 Q25.25 9.15 24.8 12.3 23.45 15.0 20.75 16.8 L20.4 17.0 20.0 17.05 19.9 17.1 19.85 17.1 18.95 16.85 Q16.3 15.0 14.95 12.35 14.5 9.15 14.9 5.8 17.35 5.1 19.85 5.2 L19.9 5.2 M20.0 17.05 L19.9 17.05" fill="none" stroke="#0000ff" stroke-linecap="butt" stroke-linejoin="miter-clip" stroke-miterlimit="3.0" stroke-width="0.8"/>
    <path d="M20.75 19.9 L21.0 19.75 Q24.8 17.1 26.7 13.25 27.35 8.85 27.05 4.1 23.4 3.05 19.9 3.15 L19.85 3.15 Q16.4 3.1 13.0 4.1 12.4 8.85 13.1 13.3 14.9 17.1 18.8 19.75 19.25 20.1 19.85 20.1 L19.9 20.05 20.75 19.9 Z" fill="none" stroke="#000033" stroke-linecap="butt" stroke-linejoin="miter-clip" stroke-miterlimit="3.0" stroke-width="0.8"/>
    <path d="M20.65 20.55 L17.75 20.55 17.75 21.35 21.05 21.35 21.05 26.6 19.8 27.9 18.6 27.9 18.6 26.75 19.6 26.75 19.6 22.45 17.75 22.45 17.75 27.5 16.3 28.1 16.3 20.55 15.9 20.55 15.9 19.4 17.6 19.4 17.75 19.15 18.0 18.95 18.5 18.85 19.05 18.95 19.35 19.25 19.45 19.4 21.15 19.4 20.65 20.55 M4.05 18.9 L5.55 18.9 5.55 19.9 6.1 19.9 6.1 19.65 7.9 19.65 7.9 18.9 9.4 18.9 9.4 19.65 11.35 19.65 10.85 20.7 9.4 20.7 9.4 22.0 11.4 22.0 10.9 23.0 5.95 23.0 6.0 22.45 5.55 23.15 5.55 27.3 4.05 28.05 4.05 25.5 3.85 25.85 2.3 25.85 4.05 23.1 4.05 21.05 3.7 21.05 3.6 22.3 2.25 22.3 2.6 19.2 3.9 19.2 3.85 19.9 4.05 19.9 4.05 18.9 M5.55 21.05 L5.55 22.05 6.0 22.05 6.0 22.0 7.9 22.0 7.9 20.7 6.1 20.7 6.1 20.25 5.75 21.05 5.55 21.05 M8.95 23.2 L10.4 23.2 10.4 23.7 11.35 23.7 10.85 24.75 10.4 24.75 10.4 26.8 9.4 27.95 8.25 27.95 8.25 26.9 8.95 26.9 8.95 24.75 6.05 24.75 6.05 23.7 8.95 23.7 8.95 23.2 M13.9 20.25 L13.9 22.25 14.2 22.25 14.2 20.25 13.9 20.25 M13.9 23.4 L13.9 25.8 14.2 25.8 14.2 23.4 13.9 23.4 M15.8 22.25 L15.05 22.9 15.8 23.4 15.8 25.8 14.45 26.95 13.9 26.95 13.9 27.55 12.35 28.15 12.35 19.1 15.8 19.1 15.8 22.25 M7.75 26.7 L7.4 27.0 6.95 27.15 6.5 27.0 6.15 26.7 6.05 26.25 6.15 25.8 6.5 25.45 6.95 25.35 7.35 25.45 7.75 25.8 7.85 26.25 7.75 26.7" fill="#ffff00" fill-rule="evenodd" stroke="none"/>
    <path d="M20.65 20.55 L17.75 20.55 17.75 21.35 21.05 21.35 21.05 26.6 19.8 27.9 18.6 27.9 18.6 26.75 19.6 26.75 19.6 22.45 17.75 22.45 17.75 27.5 16.3 28.1 16.3 20.55 15.9 20.55 15.9 19.4 17.6 19.4 17.75 19.15 18.0 18.95 18.5 18.85 19.05 18.95 19.35 19.25 19.45 19.4 21.15 19.4 20.65 20.55 M4.05 18.9 L5.55 18.9 5.55 19.9 6.1 19.9 6.1 19.65 7.9 19.65 7.9 18.9 9.4 18.9 9.4 19.65 11.35 19.65 10.85 20.7 9.4 20.7 9.4 22.0 11.4 22.0 10.9 23.0 5.95 23.0 6.0 22.45 5.55 23.15 5.55 27.3 4.05 28.05 4.05 25.5 3.85 25.85 2.3 25.85 4.05 23.1 4.05 21.05 3.7 21.05 3.6 22.3 2.25 22.3 2.6 19.2 3.9 19.2 3.85 19.9 4.05 19.9 4.05 18.9 M5.55 21.05 L5.55 22.05 6.0 22.05 6.0 22.0 7.9 22.0 7.9 20.7 6.1 20.7 6.1 20.25 5.75 21.05 5.55 21.05 M8.95 23.2 L10.4 23.2 10.4 23.7 11.35 23.7 10.85 24.75 10.4 24.75 10.4 26.8 9.4 27.95 8.25 27.95 8.25 26.9 8.95 26.9 8.95 24.75 6.05 24.75 6.05 23.7 8.95 23.7 8.95 23.2 M13.9 20.25 L13.9 22.25 14.2 22.25 14.2 20.25 13.9 20.25 M13.9 23.4 L13.9 25.8 14.2 25.8 14.2 23.4 13.9 23.4 M15.8 22.25 L15.05 22.9 15.8 23.4 15.8 25.8 14.45 26.95 13.9 26.95 13.9 27.55 12.35 28.15 12.35 19.1 15.8 19.1 15.8 22.25 M7.75 26.7 L7.4 27.0 6.95 27.15 6.5 27.0 6.15 26.7 6.05 26.25 6.15 25.8 6.5 25.45 6.95 25.35 7.35 25.45 7.75 25.8 7.85 26.25 7.75 26.7 Z" fill="none" stroke="#660000" stroke-linecap="butt" stroke-linejoin="miter-clip" stroke-miterlimit="3.0" stroke-width="3.0"/>
    <path d="M20.7 20.55 L17.75 20.55 17.75 21.35 21.05 21.35 21.05 26.6 19.8 27.9 18.6 27.9 18.6 26.75 19.6 26.75 19.6 22.45 17.75 22.45 17.75 27.45 16.3 28.1 16.3 20.55 15.95 20.55 15.95 19.4 17.6 19.4 17.75 19.15 18.05 18.95 18.55 18.85 19.05 18.95 19.35 19.25 19.45 19.4 21.2 19.4 20.7 20.55 M4.05 18.85 L5.55 18.85 5.55 19.9 6.15 19.9 6.15 19.65 7.9 19.65 7.9 18.9 9.45 18.9 9.45 19.65 11.35 19.65 10.85 20.7 9.45 20.7 9.45 21.95 11.4 21.95 10.9 23.0 5.95 23.0 6.0 22.45 5.55 23.15 5.55 27.3 4.05 28.05 4.05 25.5 3.85 25.85 2.3 25.85 4.05 23.1 4.05 21.0 3.75 21.0 3.6 22.3 2.3 22.3 2.6 19.2 3.9 19.2 3.85 19.9 4.05 19.9 4.05 18.85 M6.15 20.25 L5.75 21.0 5.55 21.0 5.55 22.05 6.0 22.05 6.0 21.95 7.9 21.95 7.9 20.7 6.15 20.7 6.15 20.25 M8.95 23.15 L10.45 23.15 10.45 23.7 11.35 23.7 10.9 24.75 10.45 24.75 10.45 26.8 9.45 27.95 8.3 27.95 8.3 26.9 8.95 26.9 8.95 24.75 6.05 24.75 6.05 23.7 8.95 23.7 8.95 23.15 M13.9 20.25 L13.9 22.25 14.25 22.25 14.25 20.25 13.9 20.25 M13.9 23.4 L13.9 25.8 14.25 25.8 14.25 23.4 13.9 23.4 M15.8 22.25 L15.05 22.9 15.8 23.4 15.8 25.8 14.5 26.95 13.9 26.95 13.9 27.55 12.35 28.15 12.35 19.1 15.8 19.1 15.8 22.25 M7.75 26.7 L7.4 27.0 6.95 27.15 6.5 27.0 6.15 26.7 6.05 26.25 6.15 25.8 6.5 25.45 6.95 25.3 Q7.15 25.3 7.35 25.45 L7.75 25.8 7.85 26.25 7.75 26.7" fill="#ffff00" fill-rule="evenodd" stroke="none"/>
  </g>
</svg>
