<?xml version="1.0" encoding="UTF-8" standalone="no"?>
<svg xmlns:xlink="http://www.w3.org/1999/xlink" height="18.15px" width="34.4px" xmlns="http://www.w3.org/2000/svg">
  <g transform="matrix(1.0, 0.0, 0.0, 1.0, 1.5, 1.5)">
    <path d="M25.55 3.55 L22.6 3.55 22.6 5.05 26.0 5.05 26.0 7.15 22.6 7.15 22.6 8.05 25.75 8.05 25.75 13.0 Q25.75 14.7 23.9 14.7 L22.95 14.7 22.95 12.8 23.2 12.8 Q23.65 12.8 23.65 12.4 L23.65 10.05 22.6 10.05 22.6 15.15 20.45 15.15 20.45 10.05 19.45 10.05 19.45 14.55 17.3 14.55 17.3 8.05 20.45 8.05 20.45 7.15 16.95 7.15 16.95 5.05 20.45 5.05 20.45 3.55 19.25 3.55 19.2 3.7 Q18.85 4.8 17.95 4.8 L16.85 4.8 16.85 2.7 17.1 2.7 Q17.45 2.7 17.6 2.15 L18.1 0.4 20.3 0.4 19.95 1.5 20.45 1.5 20.45 0.0 22.6 0.0 22.6 1.5 25.55 1.5 25.55 3.55 M28.65 1.25 L28.65 11.8 26.55 11.8 26.55 1.25 28.65 1.25 M29.15 0.05 L31.4 0.05 31.4 13.2 Q31.4 14.05 30.85 14.65 30.4 15.15 29.55 15.15 L27.4 15.15 27.4 13.2 28.8 13.2 Q29.15 13.2 29.15 12.25 L29.15 0.05 M14.9 3.0 L8.7 3.0 8.7 4.15 14.4 4.15 14.4 8.75 Q14.4 10.1 12.65 10.1 L11.0 10.1 11.0 13.0 Q11.0 13.4 11.6 13.4 L15.0 13.4 15.0 15.15 11.0 15.15 Q8.55 15.15 8.55 13.4 L8.55 10.1 0.5 10.1 0.5 4.15 6.15 4.15 6.15 3.0 0.0 3.0 0.0 1.15 6.15 1.15 6.15 0.0 8.7 0.0 8.7 1.15 14.9 1.15 14.9 3.0 M12.05 7.75 L12.05 6.0 2.8 6.0 2.8 8.2 11.45 8.2 Q12.05 8.2 12.05 7.75 M6.45 10.7 L5.5 13.95 Q5.15 15.1 3.7 15.1 L0.0 15.1 0.0 13.2 2.85 13.2 3.35 12.75 3.95 10.7 6.45 10.7" fill="url(#gradient0)" fill-rule="evenodd" stroke="none"/>
    <path d="M25.55 3.55 L22.6 3.55 22.6 5.05 26.0 5.05 26.0 7.15 22.6 7.15 22.6 8.05 25.75 8.05 25.75 13.0 Q25.75 14.7 23.9 14.7 L22.95 14.7 22.95 12.8 23.2 12.8 Q23.65 12.8 23.65 12.4 L23.65 10.05 22.6 10.05 22.6 15.15 20.45 15.15 20.45 10.05 19.45 10.05 19.45 14.55 17.3 14.55 17.3 8.05 20.45 8.05 20.45 7.15 16.95 7.15 16.95 5.05 20.45 5.05 20.45 3.55 19.25 3.55 19.2 3.7 Q18.85 4.8 17.95 4.8 L16.85 4.8 16.85 2.7 17.1 2.7 Q17.45 2.7 17.6 2.15 L18.1 0.4 20.3 0.4 19.95 1.5 20.45 1.5 20.45 0.0 22.6 0.0 22.6 1.5 25.55 1.5 25.55 3.55 M28.65 1.25 L28.65 11.8 26.55 11.8 26.55 1.25 28.65 1.25 M29.15 0.05 L31.4 0.05 31.4 13.2 Q31.4 14.05 30.85 14.65 30.4 15.15 29.55 15.15 L27.4 15.15 27.4 13.2 28.8 13.2 Q29.15 13.2 29.15 12.25 L29.15 0.05 M14.9 3.0 L8.7 3.0 8.7 4.15 14.4 4.15 14.4 8.75 Q14.4 10.1 12.65 10.1 L11.0 10.1 11.0 13.0 Q11.0 13.4 11.6 13.4 L15.0 13.4 15.0 15.15 11.0 15.15 Q8.55 15.15 8.55 13.4 L8.55 10.1 0.5 10.1 0.5 4.15 6.15 4.15 6.15 3.0 0.0 3.0 0.0 1.15 6.15 1.15 6.15 0.0 8.7 0.0 8.7 1.15 14.9 1.15 14.9 3.0 M12.05 7.75 L12.05 6.0 2.8 6.0 2.8 8.2 11.45 8.2 Q12.05 8.2 12.05 7.75 M6.45 10.7 L5.5 13.95 Q5.15 15.1 3.7 15.1 L0.0 15.1 0.0 13.2 2.85 13.2 3.35 12.75 3.95 10.7 6.45 10.7 Z" fill="none" stroke="#330000" stroke-linecap="butt" stroke-linejoin="miter-clip" stroke-miterlimit="3.0" stroke-width="3.0"/>
    <path d="M30.85 3.7 L31.1 3.6 31.15 2.8 Q31.3 0.3 30.1 0.3 L30.05 0.6 Q30.05 2.75 30.85 3.7 M31.05 5.6 L31.05 4.5 31.0 4.3 Q30.7 4.15 30.5 4.3 L30.3 4.5 30.3 5.65 30.65 5.7 31.05 5.6 M28.65 1.25 L28.65 11.8 26.55 11.8 26.55 1.25 28.65 1.25 M25.55 3.55 L22.6 3.55 22.6 5.05 26.0 5.05 26.0 7.15 22.6 7.15 22.6 8.05 25.75 8.05 25.75 13.0 Q25.75 14.7 23.9 14.7 L22.95 14.7 22.95 12.8 23.2 12.8 Q23.65 12.8 23.65 12.4 L23.65 10.05 22.6 10.05 22.6 15.15 20.45 15.15 20.45 10.05 19.45 10.05 19.45 14.55 17.3 14.55 17.3 8.05 20.45 8.05 20.45 7.15 16.95 7.15 16.95 5.05 20.45 5.05 20.45 3.55 19.25 3.55 19.2 3.7 Q18.85 4.8 17.95 4.8 L16.85 4.8 16.85 2.7 17.1 2.7 Q17.45 2.7 17.6 2.15 L18.1 0.4 20.3 0.4 19.95 1.5 20.45 1.5 20.45 0.0 22.6 0.0 22.6 1.5 25.55 1.5 25.55 3.55 M29.15 0.05 L31.4 0.05 31.4 13.2 Q31.4 14.05 30.85 14.65 30.4 15.15 29.55 15.15 L27.4 15.15 27.4 13.2 28.8 13.2 Q29.15 13.2 29.15 12.25 L29.15 0.05 M14.9 3.0 L8.7 3.0 8.7 4.15 14.4 4.15 14.4 8.75 Q14.4 10.1 12.65 10.1 L11.0 10.1 11.0 13.0 Q11.0 13.4 11.6 13.4 L15.0 13.4 15.0 15.15 11.0 15.15 Q8.55 15.15 8.55 13.4 L8.55 10.1 0.5 10.1 0.5 4.15 6.15 4.15 6.15 3.0 0.0 3.0 0.0 1.15 6.15 1.15 6.15 0.0 8.7 0.0 8.7 1.15 14.9 1.15 14.9 3.0 M13.9 8.3 L13.85 7.8 13.35 7.8 13.3 8.4 Q13.3 8.85 13.6 8.95 L13.85 8.85 13.9 8.3 M13.8 5.65 L13.55 4.75 Q13.35 4.25 12.55 4.75 L12.95 6.0 13.2 7.05 13.55 7.1 13.8 7.0 13.8 5.65 M14.0 2.15 Q14.1 2.35 14.45 2.35 L14.75 2.3 14.8 2.05 Q14.8 1.65 14.45 1.35 14.05 1.0 13.55 1.7 L14.0 2.15 M12.05 7.75 L12.05 6.0 2.8 6.0 2.8 8.2 11.45 8.2 Q12.05 8.2 12.05 7.75 M6.45 10.7 L5.5 13.95 Q5.15 15.1 3.7 15.1 L0.0 15.1 0.0 13.2 2.85 13.2 3.35 12.75 3.95 10.7 6.45 10.7" fill="url(#gradient1)" fill-rule="evenodd" stroke="none"/>
    <path d="M31.05 5.6 L30.65 5.7 30.3 5.65 30.3 4.5 30.5 4.3 Q30.7 4.15 31.0 4.3 L31.05 4.5 31.05 5.6 M30.85 3.7 Q30.05 2.75 30.05 0.6 L30.1 0.3 Q31.3 0.3 31.15 2.8 L31.1 3.6 30.85 3.7 M14.0 2.15 L13.55 1.7 Q14.05 1.0 14.45 1.35 14.8 1.65 14.8 2.05 L14.75 2.3 14.45 2.35 Q14.1 2.35 14.0 2.15 M13.8 5.65 L13.8 7.0 13.55 7.1 13.2 7.05 12.95 6.0 12.55 4.75 Q13.35 4.25 13.55 4.75 L13.8 5.65 M13.9 8.3 L13.85 8.85 13.6 8.95 Q13.3 8.85 13.3 8.4 L13.35 7.8 13.85 7.8 13.9 8.3" fill="#ffffff" fill-rule="evenodd" stroke="none"/>
  </g>
  <defs>
    <linearGradient gradientTransform="matrix(0.0, -0.0065, 0.0092, 0.0, 21.1, 7.95)" gradientUnits="userSpaceOnUse" id="gradient0" spreadMethod="pad" x1="-819.2" x2="819.2">
      <stop offset="0.0" stop-color="#ff0033"/>
      <stop offset="1.0" stop-color="#ffcc66"/>
    </linearGradient>
    <linearGradient gradientTransform="matrix(0.0, -0.0065, 0.0092, 0.0, 21.1, 7.95)" gradientUnits="userSpaceOnUse" id="gradient1" spreadMethod="pad" x1="-819.2" x2="819.2">
      <stop offset="0.0" stop-color="#ff0033"/>
      <stop offset="1.0" stop-color="#ffcc66"/>
    </linearGradient>
  </defs>
</svg>
