<?xml version="1.0" encoding="UTF-8" standalone="no"?>
<svg xmlns:xlink="http://www.w3.org/1999/xlink" height="69.2px" width="69.25px" xmlns="http://www.w3.org/2000/svg">
  <g transform="matrix(1.0, 0.0, 0.0, 1.0, 2.25, 2.25)">
    <path d="M64.75 32.35 Q64.75 45.75 55.2 55.2 45.75 64.7 32.4 64.7 18.95 64.7 9.45 55.2 0.0 45.75 0.0 32.35 0.0 18.95 9.45 9.45 18.95 0.0 32.4 0.0 45.75 0.0 55.2 9.45 64.75 18.95 64.75 32.35 Z" fill="none" stroke="url(#gradient0)" stroke-linecap="butt" stroke-linejoin="miter-clip" stroke-miterlimit="3.0" stroke-width="4.5"/>
    <path d="M64.75 32.35 Q64.75 45.75 55.2 55.2 45.75 64.7 32.4 64.7 18.95 64.7 9.45 55.2 0.0 45.75 0.0 32.35 0.0 18.95 9.45 9.45 18.95 0.0 32.4 0.0 45.75 0.0 55.2 9.45 64.75 18.95 64.75 32.35 Z" fill="none" stroke="#0c354f" stroke-linecap="butt" stroke-linejoin="miter-clip" stroke-miterlimit="3.0" stroke-width="2.0"/>
    <path d="M61.4 32.35 Q61.4 20.35 52.9 11.8 44.4 3.35 32.4 3.35 20.4 3.35 11.85 11.8 3.4 20.35 3.4 32.35 3.4 44.35 11.85 52.85 20.4 61.4 32.4 61.4 44.4 61.4 52.9 52.85 61.4 44.35 61.4 32.35 M64.75 32.35 Q64.75 45.75 55.2 55.2 45.75 64.7 32.4 64.7 18.95 64.7 9.45 55.2 0.0 45.75 0.0 32.35 0.0 18.95 9.45 9.45 18.95 0.0 32.4 0.0 45.75 0.0 55.2 9.45 64.75 18.95 64.75 32.35" fill="url(#gradient1)" fill-rule="evenodd" stroke="none"/>
    <path d="M58.5 32.75 Q58.5 43.55 50.85 51.2 43.2 58.85 32.4 58.85 21.6 58.85 13.9 51.2 6.3 43.55 6.3 32.75 6.3 21.95 13.9 14.25 21.6 6.65 32.4 6.65 43.2 6.65 50.85 14.25 58.5 21.95 58.5 32.75" fill="url(#gradient2)" fill-rule="evenodd" stroke="none"/>
    <path d="M61.0 32.4 Q60.9 44.25 52.55 52.55 44.15 60.85 32.3 60.8 20.4 60.75 12.05 52.35 3.75 43.95 3.85 32.1 3.9 20.25 12.25 11.95 L12.3 11.9 13.1 11.2 Q21.3 3.6 32.55 3.65 44.45 3.7 52.75 12.1 L54.85 14.45 Q61.05 22.15 61.0 32.4" fill="url(#gradient3)" fill-rule="evenodd" stroke="none"/>
  </g>
  <defs>
    <linearGradient gradientTransform="matrix(-0.0182, 0.0364, -0.0364, -0.0182, 32.35, 32.35)" gradientUnits="userSpaceOnUse" id="gradient0" spreadMethod="pad" x1="-819.2" x2="819.2">
      <stop offset="0.0" stop-color="#adbdc5" stop-opacity="0.0"/>
      <stop offset="0.49411764705882355" stop-color="#ffffff"/>
      <stop offset="1.0" stop-color="#b1c1c8" stop-opacity="0.0"/>
    </linearGradient>
    <linearGradient gradientTransform="matrix(0.0316, -0.0235, 0.0235, 0.0316, 32.35, 32.35)" gradientUnits="userSpaceOnUse" id="gradient1" spreadMethod="pad" x1="-819.2" x2="819.2">
      <stop offset="0.0" stop-color="#adbdc5"/>
      <stop offset="0.49411764705882355" stop-color="#ffffff"/>
      <stop offset="1.0" stop-color="#b1c1c8"/>
    </linearGradient>
    <linearGradient gradientTransform="matrix(0.0319, 0.0, 0.0, 0.0319, 32.4, 32.75)" gradientUnits="userSpaceOnUse" id="gradient2" spreadMethod="pad" x1="-819.2" x2="819.2">
      <stop offset="0.0" stop-color="#adbdc5"/>
      <stop offset="0.49411764705882355" stop-color="#ffffff"/>
      <stop offset="1.0" stop-color="#b1c1c8"/>
    </linearGradient>
    <radialGradient cx="0" cy="0" gradientTransform="matrix(0.035, 2.0E-4, -2.0E-4, 0.031, 32.4, 27.25)" gradientUnits="userSpaceOnUse" id="gradient3" r="819.2" spreadMethod="pad">
      <stop offset="0.11764705882352941" stop-color="#43d9ff"/>
      <stop offset="0.6705882352941176" stop-color="#1e7ed2"/>
      <stop offset="1.0" stop-color="#4135d9"/>
    </radialGradient>
  </defs>
</svg>
