<?xml version="1.0" encoding="UTF-8" standalone="no"?>
<svg xmlns:xlink="http://www.w3.org/1999/xlink" height="37.8px" width="37.55px" xmlns="http://www.w3.org/2000/svg">
  <g transform="matrix(1.0, 0.0, 0.0, 1.0, 37.3, 37.55)">
    <path d="M-19.1 -25.05 L-18.5 -25.2 Q-15.65 -23.85 -12.65 -22.7 L-10.9 -22.65 Q-8.8 -23.45 -8.35 -25.7 -7.8 -28.7 -5.15 -28.25 -2.9 -25.7 -4.2 -22.25 -6.1 -17.0 -11.45 -16.2 L-13.15 -16.3 Q-19.55 -16.9 -20.2 -23.05 L-19.1 -25.05" fill="#7edde7" fill-rule="evenodd" stroke="none"/>
    <path d="M-22.35 -26.25 Q-21.85 -29.95 -19.4 -32.45 L-18.85 -33.05 Q-16.0 -35.65 -12.1 -35.9 -7.6 -35.85 -4.4 -32.85 L-3.65 -32.1 Q-2.0 -30.05 -1.35 -27.8 -0.35 -22.9 -3.25 -18.95 L-4.2 -17.7 Q-7.3 -14.45 -11.8 -14.55 -13.9 -14.6 -15.65 -15.35 -22.55 -18.55 -22.35 -26.25 M-17.15 -27.45 Q-16.7 -26.35 -15.9 -25.45 -14.7 -24.25 -13.05 -24.4 -11.85 -22.5 -10.15 -23.8 -8.1 -25.5 -9.3 -27.5 L-10.25 -27.3 -10.3 -31.2 -9.45 -33.1 -10.55 -34.7 Q-16.9 -34.35 -18.8 -28.55 L-18.85 -28.1 -17.15 -27.45 M-19.1 -25.05 L-20.2 -23.05 Q-19.55 -16.9 -13.15 -16.3 L-11.45 -16.2 Q-6.1 -17.0 -4.2 -22.25 -2.9 -25.7 -5.15 -28.25 -7.8 -28.7 -8.35 -25.7 -8.8 -23.45 -10.9 -22.65 L-12.65 -22.7 Q-15.65 -23.85 -18.5 -25.2 L-19.1 -25.05 M-2.7 -23.05 L-2.9 -22.9 Q-3.5 -22.35 -3.65 -21.55 -4.65 -19.35 -6.15 -17.5 L-5.95 -17.35 Q-2.8 -19.55 -2.7 -23.05" fill="#3797bf" fill-rule="evenodd" stroke="none"/>
    <path d="M-17.15 -27.45 L-16.9 -27.45 Q-13.05 -28.2 -10.3 -31.2 L-10.25 -27.3 Q-12.0 -26.45 -12.95 -24.8 L-13.05 -24.4 Q-14.7 -24.25 -15.9 -25.45 -16.7 -26.35 -17.15 -27.45" fill="#2c7898" fill-rule="evenodd" stroke="none"/>
    <path d="M-10.3 -31.2 Q-13.05 -28.2 -16.9 -27.45 L-17.15 -27.45 -18.85 -28.1 -18.8 -28.55 Q-16.9 -34.35 -10.55 -34.7 L-9.45 -33.1 -10.3 -31.2 M-13.05 -24.4 L-12.95 -24.8 Q-12.0 -26.45 -10.25 -27.3 L-9.3 -27.5 Q-8.1 -25.5 -10.15 -23.8 -11.85 -22.5 -13.05 -24.4 M-2.7 -23.05 Q-2.8 -19.55 -5.95 -17.35 L-6.15 -17.5 Q-4.65 -19.35 -3.65 -21.55 -3.5 -22.35 -2.9 -22.9 L-2.7 -23.05" fill="#ffffff" fill-rule="evenodd" stroke="none"/>
    <path d="M-24.15 -30.25 L-26.4 -33.3 -24.35 -35.9 -21.1 -32.5 Q-25.35 -25.2 -20.9 -18.2 L-19.7 -16.5 -21.4 -14.65 Q-25.8 -18.65 -26.25 -24.6 -26.3 -25.35 -25.95 -26.1 L-24.35 -29.75 Q-25.2 -27.65 -25.4 -25.55 -25.65 -23.0 -23.9 -21.85 -23.15 -22.35 -23.6 -23.4 -24.5 -25.5 -23.45 -27.5 -22.15 -30.05 -22.9 -32.6 -23.5 -34.55 -24.95 -34.4 L-24.95 -34.15 Q-24.65 -32.6 -23.8 -31.3 L-24.15 -30.25" fill="#bbbbbb" fill-rule="evenodd" stroke="none"/>
    <path d="M-24.15 -30.25 L-23.8 -31.3 Q-24.65 -32.6 -24.95 -34.15 L-24.95 -34.4 Q-23.5 -34.55 -22.9 -32.6 -22.15 -30.05 -23.45 -27.5 -24.5 -25.5 -23.6 -23.4 -23.15 -22.35 -23.9 -21.85 -25.65 -23.0 -25.4 -25.55 -25.2 -27.65 -24.35 -29.75 L-24.25 -30.0 -24.15 -30.25" fill="#f7f7f7" fill-rule="evenodd" stroke="none"/>
    <path d="M-22.35 -26.25 Q-22.55 -18.55 -15.65 -15.35 -13.9 -14.6 -11.8 -14.55 -7.3 -14.45 -4.2 -17.7 L-4.1 -17.6 -2.35 -15.9 -1.35 -14.9 Q-3.35 -12.7 -5.55 -11.35 L-6.45 -12.25 -12.85 -9.5 Q-21.7 -11.6 -25.85 -19.55 -27.1 -21.9 -27.55 -24.5 L-25.05 -30.45 -27.85 -33.2 -24.35 -37.1 -19.6 -32.5 Q-21.7 -30.2 -22.3 -26.85 L-22.35 -26.25 M0.0 -13.65 L-3.95 -9.85 -4.4 -10.35 -0.55 -14.15 0.0 -13.65 M-24.35 -29.75 L-25.95 -26.1 Q-26.3 -25.35 -26.25 -24.6 -25.8 -18.65 -21.4 -14.65 L-19.7 -16.5 -20.9 -18.2 Q-25.35 -25.2 -21.1 -32.5 L-24.35 -35.9 -26.4 -33.3 -24.15 -30.25 -24.25 -30.0 -24.35 -29.75" fill="#737373" fill-rule="evenodd" stroke="none"/>
    <path d="M-26.65 -30.25 L-27.8 -27.45 Q-29.85 -22.75 -27.05 -18.2 -24.7 -14.45 -21.15 -11.75 -24.35 -8.8 -28.2 -6.35 -29.65 -5.4 -31.35 -5.45 -36.1 -5.5 -35.75 -10.65 -34.95 -22.1 -27.8 -31.6 L-26.65 -30.25 M-31.95 -20.65 Q-33.2 -19.5 -33.85 -17.7 -35.65 -12.95 -34.15 -8.25 -33.55 -6.3 -31.35 -6.35 -26.2 -7.05 -24.7 -11.45 -25.65 -12.35 -26.25 -13.4 -28.6 -17.4 -31.4 -21.15 L-31.95 -20.65" fill="#9aa9a8" fill-rule="evenodd" stroke="none"/>
    <path d="M-3.95 -9.85 Q-13.2 -1.35 -25.6 0.0 -31.25 0.25 -34.5 -4.15 -37.9 -8.7 -36.75 -14.5 -34.7 -24.95 -27.85 -33.2 L-25.05 -30.45 -27.55 -24.5 Q-27.1 -21.9 -25.85 -19.55 -21.7 -11.6 -12.85 -9.5 L-6.45 -12.25 -5.55 -11.35 -4.4 -10.35 -3.95 -9.85 M-26.65 -30.25 L-27.8 -31.6 Q-34.95 -22.1 -35.75 -10.65 -36.1 -5.5 -31.35 -5.45 -29.65 -5.4 -28.2 -6.35 -24.35 -8.8 -21.15 -11.75 -24.7 -14.45 -27.05 -18.2 -29.85 -22.75 -27.8 -27.45 L-26.65 -30.25 M-20.8 -2.5 L-26.25 -1.15 -23.8 -1.35 Q-14.0 -2.8 -6.05 -9.35 L-6.9 -10.15 -8.2 -9.3 Q-14.0 -4.95 -20.8 -2.5" fill="#607b7d" fill-rule="evenodd" stroke="none"/>
    <path d="M-31.95 -20.65 L-31.4 -21.15 Q-28.6 -17.4 -26.25 -13.4 -25.65 -12.35 -24.7 -11.45 -26.2 -7.05 -31.35 -6.35 -33.55 -6.3 -34.15 -8.25 -35.65 -12.95 -33.85 -17.7 -33.2 -19.5 -31.95 -20.65" fill="#d7dbda" fill-rule="evenodd" stroke="none"/>
    <path d="M-5.55 -11.35 Q-3.35 -12.7 -1.35 -14.9 L-0.55 -14.15 -4.4 -10.35 -5.55 -11.35 M-20.8 -2.5 Q-14.0 -4.95 -8.2 -9.3 L-6.9 -10.15 -6.05 -9.35 Q-14.0 -2.8 -23.8 -1.35 L-26.25 -1.15 -20.8 -2.5" fill="#e1e1e1" fill-rule="evenodd" stroke="none"/>
    <path d="M-4.2 -17.7 L-3.25 -18.95 Q-0.35 -22.9 -1.35 -27.8 -2.0 -30.05 -3.65 -32.1 L-4.4 -32.85 Q-7.6 -35.85 -12.1 -35.9 -16.0 -35.65 -18.85 -33.05 L-19.4 -32.45 Q-21.85 -29.95 -22.35 -26.25 -22.55 -18.55 -15.65 -15.35 -13.9 -14.6 -11.8 -14.55 -7.3 -14.45 -4.2 -17.7 M0.0 -13.65 L-3.95 -9.85 -4.4 -10.35 -5.55 -11.35 -6.45 -12.25 -12.85 -9.5 Q-21.7 -11.6 -25.85 -19.55 -27.1 -21.9 -27.55 -24.5 L-25.05 -30.45 -27.85 -33.2 -24.35 -37.1" fill="none" stroke="#151515" stroke-linecap="butt" stroke-linejoin="miter-clip" stroke-miterlimit="3.0" stroke-width="0.5"/>
    <path d="M-3.95 -9.85 Q-13.2 -1.35 -25.6 0.0 -31.25 0.25 -34.5 -4.15 -37.9 -8.7 -36.75 -14.5 -34.7 -24.95 -27.85 -33.2" fill="none" stroke="#1a3866" stroke-linecap="butt" stroke-linejoin="miter-clip" stroke-miterlimit="3.0" stroke-width="0.5"/>
    <path d="M-4.1 -17.6 L-2.35 -15.9 0.0 -13.65 M-19.6 -32.5 L-24.2 -37.3" fill="none" stroke="#151515" stroke-linecap="butt" stroke-linejoin="miter-clip" stroke-miterlimit="3.0" stroke-width="0.5"/>
  </g>
</svg>
