<?xml version="1.0" encoding="UTF-8" standalone="no"?>
<svg xmlns:xlink="http://www.w3.org/1999/xlink" height="242.65px" width="68.55px" xmlns="http://www.w3.org/2000/svg">
  <g transform="matrix(1.0, 0.0, 0.0, 1.0, 36.4, 259.45)">
    <path d="M-2.8 -258.3 Q-3.55 -249.1 -4.6 -239.65 L-6.15 -226.4 -4.8 -227.6 -3.65 -228.8 -5.1 -220.0 -4.15 -216.4 -2.2 -210.0 -0.6 -206.0 0.75 -202.4 -2.9 -164.4 Q-2.9 -163.55 0.75 -158.2 4.35 -152.85 4.35 -152.2 L0.0 -137.2 Q0.0 -132.1 4.4 -131.05 L10.55 -131.2 10.9 -131.2 9.35 -126.85 8.35 -123.6 Q8.35 -121.3 11.8 -118.75 14.45 -116.8 16.0 -116.4 L14.35 -114.45 12.7 -112.4 16.55 -108.85 19.6 -106.0 19.95 -106.0 14.8 -105.15 Q10.55 -104.0 10.55 -102.2 10.55 -100.6 13.2 -98.25 L16.7 -95.2 14.55 -95.6 12.7 -96.0 Q9.2 -96.0 7.5 -93.5 6.05 -91.35 5.4 -86.4 4.65 -74.5 3.3 -65.3 L3.45 -60.45 Q3.8 -55.15 5.1 -51.2 L8.95 -40.9 Q10.15 -37.75 10.15 -34.2 10.15 -31.0 9.1 -27.2 7.8 -22.4 5.45 -21.75 L-0.4 -21.2 Q-3.9 -21.3 -7.65 -27.6 L-8.0 -31.4 Q-8.0 -34.3 -7.05 -38.7 -6.15 -43.15 -6.15 -44.0 -6.15 -44.5 -6.5 -45.4 L-6.9 -46.8 Q-6.9 -54.25 -5.8 -62.8 -5.0 -68.95 -4.5 -75.5 -5.0 -84.15 -7.3 -87.45 -9.05 -90.0 -13.1 -90.0 -14.15 -90.0 -15.85 -89.15 L-17.8 -88.0 Q-16.05 -91.55 -15.8 -92.8 -15.65 -93.6 -15.65 -97.6 -15.65 -102.25 -16.35 -104.0 -17.65 -107.2 -21.85 -107.2 L-23.35 -106.95 -23.65 -106.85 -24.0 -106.4 -24.35 -106.4 -23.65 -106.85 Q-23.25 -107.5 -23.25 -108.4 L-25.8 -108.8 -23.65 -112.4 Q-22.55 -114.0 -22.55 -115.6 -22.55 -117.9 -24.05 -120.05 L-26.15 -123.2 -25.8 -123.2 -23.1 -122.0 Q-21.4 -121.2 -20.0 -121.2 -17.05 -121.2 -15.65 -123.6 -14.55 -125.5 -14.55 -128.6 -14.55 -129.2 -14.9 -130.75 L-15.65 -133.2 -13.45 -132.6 -12.2 -132.0 -11.25 -132.0 -13.15 -145.15 Q-14.2 -152.85 -14.2 -159.6 -14.2 -165.6 -10.9 -170.35 L-8.65 -173.3 Q-7.65 -174.6 -7.65 -175.4 -7.65 -177.6 -11.1 -185.15 L-14.55 -192.4 -14.3 -195.15 -13.8 -198.4 -13.6 -198.05 -13.45 -198.0 -12.0 -194.8 -11.15 -226.4 Q-10.65 -244.65 -9.35 -258.75 L-2.8 -258.3" fill="#f7fdff" fill-rule="evenodd" stroke="none"/>
    <path d="M-2.8 -258.3 L-1.9 -258.25 -0.45 -258.15 -0.75 -257.15 1.2 -255.8 4.3 -253.85 Q3.3 -249.25 2.7 -241.55 L2.25 -235.5 -2.25 -227.0 -2.25 -224.8 Q-2.25 -218.65 1.6 -211.05 5.4 -203.5 5.4 -201.25 L2.95 -184.6 1.75 -176.05 5.15 -170.7 8.0 -165.8 Q8.0 -163.5 6.65 -156.0 L6.6 -155.9 6.6 -155.75 Q8.55 -153.45 8.55 -153.05 7.2 -148.45 6.0 -143.4 L5.05 -139.25 Q6.3 -131.6 17.6 -141.05 17.65 -140.55 15.15 -135.35 12.6 -130.2 12.95 -124.25 13.25 -118.35 15.35 -119.5 L15.8 -119.5 Q22.05 -120.5 25.5 -122.35 14.2 -115.9 19.1 -108.85 24.0 -101.8 32.15 -100.5 L30.0 -100.0 Q24.45 -99.75 14.65 -100.0 L21.7 -92.0 21.1 -91.75 20.8 -91.5 Q12.8 -92.65 10.65 -90.15 9.45 -88.8 10.0 -85.6 6.85 -77.8 6.2 -68.55 L6.15 -68.4 Q6.25 -64.8 7.2 -58.55 L7.85 -54.85 8.0 -54.8 11.6 -44.15 Q13.05 -38.4 13.05 -30.6 13.05 -26.15 10.5 -22.0 7.3 -16.8 1.95 -16.8 -3.05 -16.8 -6.9 -20.8 -9.85 -23.85 -10.8 -28.15 L-11.2 -30.95 -11.25 -32.4 -11.2 -32.5 -11.15 -34.35 Q-10.85 -44.0 -9.3 -50.4 L-8.55 -53.45 -8.5 -53.6 -7.4 -61.5 -6.6 -67.1 -6.65 -67.7 Q-7.75 -74.55 -9.9 -78.3 L-11.5 -84.45 -15.4 -81.85 -18.3 -79.95 -19.6 -79.1 -18.3 -86.25 Q-17.15 -93.45 -17.5 -96.75 -16.05 -98.6 -18.3 -99.45 L-21.65 -100.05 Q-28.05 -100.55 -33.55 -97.0 -33.55 -97.85 -31.75 -102.15 -29.95 -106.4 -29.95 -108.05 -29.95 -109.35 -31.05 -110.7 L-32.65 -112.5 Q-24.65 -111.5 -25.85 -119.0 -26.5 -119.4 -31.35 -123.3 L-36.4 -127.35 -18.3 -126.5 -17.7 -126.5 -17.45 -126.5 -17.45 -127.0 Q-17.45 -130.35 -18.3 -133.25 L-18.95 -135.15 -22.15 -141.2 -22.15 -141.6 Q-21.05 -139.75 -19.05 -138.45 L-18.3 -138.0 Q-16.1 -136.8 -13.45 -136.8 L-13.15 -136.8 Q-13.55 -139.2 -14.65 -143.75 -16.55 -151.55 -17.9 -156.0 L-18.3 -157.25 -18.6 -158.25 -18.3 -159.95 Q-17.55 -162.75 -14.95 -168.55 -11.3 -176.75 -11.3 -177.5 -11.3 -178.1 -14.5 -182.7 -17.7 -187.3 -17.7 -188.55 -17.7 -189.9 -16.45 -195.65 L-16.05 -197.4 -18.3 -202.9 -19.65 -206.15 Q-22.15 -212.85 -22.15 -219.2 L-21.55 -239.6 -20.85 -259.15 -19.5 -259.3 -18.3 -259.4 -17.0 -259.45 -18.3 -243.15 -18.35 -242.55 -20.35 -217.8 Q-20.35 -216.75 -18.3 -211.4 L-16.15 -206.0 -14.95 -203.2 -14.5 -206.55 -13.95 -213.2 -13.95 -213.65 -12.9 -233.5 -11.5 -258.9 -9.35 -258.75 Q-10.65 -244.65 -11.15 -226.4 L-12.0 -194.8 -13.45 -198.0 -13.6 -198.05 -13.8 -198.4 -14.3 -195.15 -14.55 -192.4 -11.1 -185.15 Q-7.65 -177.6 -7.65 -175.4 -7.65 -174.6 -8.65 -173.3 L-10.9 -170.35 Q-14.2 -165.6 -14.2 -159.6 -14.2 -152.85 -13.15 -145.15 L-11.25 -132.0 -12.2 -132.0 -13.45 -132.6 -15.65 -133.2 -14.9 -130.75 Q-14.55 -129.2 -14.55 -128.6 -14.55 -125.5 -15.65 -123.6 -17.05 -121.2 -20.0 -121.2 -21.4 -121.2 -23.1 -122.0 L-25.8 -123.2 -26.15 -123.2 -24.05 -120.05 Q-22.55 -117.9 -22.55 -115.6 -22.55 -114.0 -23.65 -112.4 L-25.8 -108.8 -23.25 -108.4 Q-23.25 -107.5 -23.65 -106.85 L-24.35 -106.4 -24.0 -106.4 -23.65 -106.85 -23.35 -106.95 -21.85 -107.2 Q-17.65 -107.2 -16.35 -104.0 -15.65 -102.25 -15.65 -97.6 -15.65 -93.6 -15.8 -92.8 -16.05 -91.55 -17.8 -88.0 L-15.85 -89.15 Q-14.15 -90.0 -13.1 -90.0 -9.05 -90.0 -7.3 -87.45 -5.0 -84.15 -4.5 -75.5 -5.0 -68.95 -5.8 -62.8 -6.9 -54.25 -6.9 -46.8 L-6.5 -45.4 Q-6.15 -44.5 -6.15 -44.0 -6.15 -43.15 -7.05 -38.7 -8.0 -34.3 -8.0 -31.4 L-7.65 -27.6 Q-3.9 -21.3 -0.4 -21.2 L5.45 -21.75 Q7.8 -22.4 9.1 -27.2 10.15 -31.0 10.15 -34.2 10.15 -37.75 8.95 -40.9 L5.1 -51.2 Q3.8 -55.15 3.45 -60.45 L3.3 -65.3 Q4.65 -74.5 5.4 -86.4 6.05 -91.35 7.5 -93.5 9.2 -96.0 12.7 -96.0 L14.55 -95.6 16.7 -95.2 13.2 -98.25 Q10.55 -100.6 10.55 -102.2 10.55 -104.0 14.8 -105.15 L19.95 -106.0 19.6 -106.0 16.55 -108.85 12.7 -112.4 14.35 -114.45 16.0 -116.4 Q14.45 -116.8 11.8 -118.75 8.35 -121.3 8.35 -123.6 L9.35 -126.85 10.9 -131.2 10.55 -131.2 4.4 -131.05 Q0.0 -132.1 0.0 -137.2 L4.35 -152.2 Q4.35 -152.85 0.75 -158.2 -2.9 -163.55 -2.9 -164.4 L0.75 -202.4 -0.6 -206.0 -2.2 -210.0 -4.15 -216.4 -5.1 -220.0 -3.65 -228.8 -4.8 -227.6 -6.15 -226.4 -4.6 -239.65 Q-3.55 -249.1 -2.8 -258.3 M0.45 -165.75 Q0.45 -163.05 3.55 -159.2 L4.75 -166.0 Q4.75 -166.65 3.2 -169.5 L1.3 -173.1 Q0.45 -166.9 0.45 -165.75 M1.8 -138.25 L0.95 -138.0 2.75 -138.35 1.8 -138.25 M-1.75 -235.15 Q1.7 -241.15 2.55 -253.4 L-1.15 -255.45 Q-2.0 -250.55 -2.25 -239.45 L-2.25 -234.35 -1.75 -235.15" fill="#c0edfc" fill-rule="evenodd" stroke="none"/>
  </g>
</svg>
