<?xml version="1.0" encoding="UTF-8" standalone="no"?>
<svg xmlns:xlink="http://www.w3.org/1999/xlink" height="259.0px" width="45.15px" xmlns="http://www.w3.org/2000/svg">
  <g transform="matrix(1.0, 0.0, 0.0, 1.0, 25.95, 260.0)">
    <path d="M-10.7 -260.0 L-3.2 -260.0 -6.0 -233.55 -8.6 -206.8 Q-8.6 -202.6 -7.1 -196.5 -5.6 -190.35 -5.6 -186.2 -5.6 -180.4 -6.7 -173.15 -7.85 -165.85 -7.85 -161.45 -7.85 -159.3 -7.05 -157.8 L-5.2 -155.15 Q-2.6 -151.35 -2.6 -143.95 L-2.2 -133.75 Q-1.85 -126.9 -1.85 -124.15 L0.0 -124.0 1.9 -124.15 Q1.9 -122.5 1.5 -122.05 L1.5 -118.35 Q2.35 -118.35 4.55 -119.95 L7.15 -122.05 7.9 -122.05 7.9 -118.75 6.8 -116.75 Q6.0 -115.2 6.0 -114.05 6.0 -113.05 10.5 -109.65 15.0 -106.3 15.0 -105.8 15.0 -104.2 10.5 -104.35 6.0 -104.45 6.0 -102.9 6.0 -102.45 7.15 -99.3 L8.25 -95.7 Q7.65 -95.9 5.3 -97.85 3.1 -99.7 1.9 -99.8 1.6 -98.95 1.4 -97.05 L1.15 -94.45 1.35 -84.45 1.5 -64.95 1.85 -47.05 Q4.8 -50.3 6.95 -50.3 10.1 -50.3 10.1 -44.3 10.1 -41.05 7.7 -33.75 L4.9 -24.75 Q5.6 -19.45 5.7 -15.35 5.85 -7.4 2.8 -7.4 -2.85 -7.4 -7.85 -9.05 -15.35 -11.6 -15.35 -16.9 -15.35 -18.95 -14.25 -19.3 L-11.8 -19.15 Q-8.25 -18.8 -8.25 -24.75 -8.25 -28.1 -10.45 -39.55 L-12.7 -51.15 -12.5 -52.15 -12.35 -52.75 Q-11.45 -52.1 -10.3 -49.45 -9.25 -47.05 -7.5 -46.15 -7.25 -48.6 -6.95 -54.3 L-6.75 -60.4 Q-6.75 -66.55 -7.5 -78.25 L-8.75 -97.95 -13.25 -99.05 Q-17.35 -99.9 -19.1 -101.45 -18.2 -102.7 -16.2 -103.9 L-13.1 -105.55 Q-13.45 -106.6 -15.3 -108.2 L-18.35 -110.95 -14.4 -112.65 -10.5 -113.0 Q-10.5 -114.2 -11.2 -115.3 -11.55 -115.9 -12.7 -120.0 L-12.35 -119.6 -8.6 -119.2 -8.6 -120.85 -12.9 -133.5 -12.7 -133.45 Q-8.15 -132.3 -7.85 -131.95 L-9.25 -140.2 Q-9.75 -144.45 -9.75 -151.6 L-9.0 -175.9 Q-9.0 -181.15 -11.05 -189.4 -13.1 -197.6 -13.1 -200.85 -13.1 -202.6 -12.15 -207.25 -11.25 -211.85 -11.25 -213.65 -11.25 -217.85 -12.35 -222.55 -13.5 -227.3 -13.5 -233.65 -13.5 -236.6 -12.7 -243.95 L-10.7 -260.0 M-11.6 -135.7 L-12.8 -135.45 -12.75 -135.7 -11.6 -135.7" fill="#f7fdff" fill-rule="evenodd" stroke="none"/>
    <path d="M-3.2 -260.0 L0.9 -260.0 -1.8 -214.75 Q-1.8 -211.7 -1.25 -210.55 0.15 -207.75 1.35 -203.5 L4.95 -190.25 Q3.7 -185.85 2.5 -178.8 0.2 -165.95 0.05 -153.6 L0.0 -151.25 Q0.0 -148.4 1.15 -139.8 2.25 -131.2 2.25 -127.45 8.15 -136.15 3.45 -122.55 11.25 -130.3 14.85 -130.85 L14.15 -128.65 11.85 -123.55 Q10.3 -120.25 9.2 -116.75 9.5 -115.2 15.0 -107.9 L18.1 -103.5 Q19.85 -100.7 18.85 -100.8 L10.7 -101.35 10.55 -101.05 Q9.8 -99.1 9.8 -95.5 9.8 -92.3 10.35 -89.55 8.7 -92.4 7.25 -93.85 5.55 -95.6 3.8 -95.75 L3.95 -90.85 Q4.3 -85.45 4.2 -68.3 L4.05 -50.45 5.4 -53.25 Q6.1 -55.1 7.5 -57.35 13.95 -67.5 14.1 -63.8 L14.55 -53.3 Q14.9 -46.5 11.8 -36.0 8.65 -25.5 9.05 -24.45 L9.95 -21.5 Q10.85 -18.05 10.3 -10.1 9.7 -2.2 3.45 -1.4 -2.85 -0.6 -5.0 -1.45 -7.65 -1.5 -11.25 -6.0 L-21.75 -19.95 Q-16.2 -20.7 -14.75 -21.6 -12.65 -22.95 -12.65 -29.45 -12.65 -34.55 -14.7 -45.75 L-16.75 -56.95 Q-18.9 -74.55 -14.25 -63.1 -9.8 -46.95 -10.1 -66.6 -10.45 -86.25 -10.4 -97.0 -11.15 -99.15 -13.0 -98.5 -14.9 -97.9 -20.0 -95.15 -27.35 -91.75 -23.45 -97.7 L-21.5 -100.95 -19.85 -103.5 -16.3 -108.45 -21.75 -108.95 -25.95 -109.35 Q-12.8 -116.15 -14.05 -118.2 L-15.4 -121.0 Q-16.75 -123.8 -16.75 -124.45 L-9.75 -120.9 -12.55 -127.5 Q-14.2 -131.9 -15.95 -138.1 -17.7 -144.35 -15.3 -142.1 L-12.05 -138.75 Q-11.15 -137.65 -13.2 -147.2 L-16.3 -160.95 Q-18.3 -169.75 -19.0 -171.7 -19.75 -173.65 -19.75 -176.0 -19.75 -178.4 -18.8 -181.1 -17.9 -183.8 -16.3 -193.5 -14.5 -204.55 -13.55 -218.0 -13.55 -220.55 -15.6 -226.65 L-17.65 -232.5 -16.6 -245.75 Q-15.65 -256.55 -15.1 -260.0 L-10.7 -260.0 -12.7 -243.95 Q-13.5 -236.6 -13.5 -233.65 -13.5 -227.3 -12.35 -222.55 -11.25 -217.85 -11.25 -213.65 -11.25 -211.85 -12.15 -207.25 -13.1 -202.6 -13.1 -200.85 -13.1 -197.6 -11.05 -189.4 -9.0 -181.15 -9.0 -175.9 L-9.75 -151.6 Q-9.75 -144.45 -9.25 -140.2 L-7.85 -131.95 Q-8.15 -132.3 -12.7 -133.45 L-12.9 -133.5 -8.6 -120.85 -8.6 -119.2 -12.35 -119.6 -12.7 -120.0 Q-11.55 -115.9 -11.2 -115.3 -10.5 -114.2 -10.5 -113.0 L-14.4 -112.65 -18.35 -110.95 -15.3 -108.2 Q-13.45 -106.6 -13.1 -105.55 L-16.2 -103.9 Q-18.2 -102.7 -19.1 -101.45 -17.35 -99.9 -13.25 -99.05 L-8.75 -97.95 -7.5 -78.25 Q-6.75 -66.55 -6.75 -60.4 L-6.95 -54.3 Q-7.25 -48.6 -7.5 -46.15 -9.25 -47.05 -10.3 -49.45 -11.45 -52.1 -12.35 -52.75 L-12.5 -52.15 -12.7 -51.15 -10.45 -39.55 Q-8.25 -28.1 -8.25 -24.75 -8.25 -18.8 -11.8 -19.15 L-14.25 -19.3 Q-15.35 -18.95 -15.35 -16.9 -15.35 -11.6 -7.85 -9.05 -2.85 -7.4 2.8 -7.4 5.85 -7.4 5.7 -15.35 5.6 -19.45 4.9 -24.75 L7.7 -33.75 Q10.1 -41.05 10.1 -44.3 10.1 -50.3 6.95 -50.3 4.8 -50.3 1.85 -47.05 L1.5 -64.95 1.35 -84.45 1.15 -94.45 1.4 -97.05 Q1.6 -98.95 1.9 -99.8 3.1 -99.7 5.3 -97.85 7.65 -95.9 8.25 -95.7 L7.15 -99.3 Q6.0 -102.45 6.0 -102.9 6.0 -104.45 10.5 -104.35 15.0 -104.2 15.0 -105.8 15.0 -106.3 10.5 -109.65 6.0 -113.05 6.0 -114.05 6.0 -115.2 6.8 -116.75 L7.9 -118.75 7.9 -122.05 7.15 -122.05 4.55 -119.95 Q2.35 -118.35 1.5 -118.35 L1.5 -122.05 Q1.9 -122.5 1.9 -124.15 L0.0 -124.0 -1.85 -124.15 Q-1.85 -126.9 -2.2 -133.75 L-2.6 -143.95 Q-2.6 -151.35 -5.2 -155.15 L-7.05 -157.8 Q-7.85 -159.3 -7.85 -161.45 -7.85 -165.85 -6.7 -173.15 -5.6 -180.4 -5.6 -186.2 -5.6 -190.35 -7.1 -196.5 -8.6 -202.6 -8.6 -206.8 L-6.0 -233.55 -3.2 -260.0 M-4.35 -198.75 L-2.55 -195.2 Q-2.55 -181.45 -4.55 -172.75 -6.55 -166.65 -6.55 -165.8 L-5.6 -162.75 Q-4.7 -160.0 -4.7 -158.4 -3.7 -164.3 -2.25 -168.8 -1.45 -171.25 -1.45 -175.8 -1.45 -180.5 -1.75 -187.35 -1.15 -192.7 1.1 -194.0 0.35 -202.35 -1.55 -204.95 -3.5 -207.6 -4.2 -210.1 -5.0 -212.6 -5.85 -213.95 L-6.15 -203.2 Q-6.15 -202.0 -4.35 -198.75 M-12.75 -191.15 L-15.6 -179.6 Q-15.6 -178.0 -14.6 -172.65 -13.7 -167.55 -13.8 -166.0 -14.2 -160.55 -13.65 -158.75 -12.85 -156.25 -12.35 -153.6 L-12.0 -151.2 Q-11.6 -151.2 -11.6 -150.5 L-11.55 -153.6 -11.25 -164.6 Q-11.25 -169.35 -11.95 -179.4 L-12.75 -191.15 M-11.6 -150.5 L-11.6 -150.45 -11.6 -150.5 M-11.6 -135.7 L-12.75 -135.7 -12.8 -135.45 -11.6 -135.7" fill="#c0edfc" fill-rule="evenodd" stroke="none"/>
  </g>
</svg>
