<?xml version="1.0" encoding="UTF-8" standalone="no"?>
<svg xmlns:xlink="http://www.w3.org/1999/xlink" height="35.55px" width="23.15px" xmlns="http://www.w3.org/2000/svg">
  <g transform="matrix(1.0, 0.0, 0.0, 1.0, 23.15, 35.55)">
    <path d="M-18.0 -2.05 Q-17.95 -5.15 -15.95 -7.65 -10.85 -7.85 -5.8 -5.95 -6.15 -2.95 -8.0 0.0 -13.55 -0.05 -18.0 -2.05 M-8.45 -27.45 Q-9.7 -28.75 -11.85 -28.7 -14.0 -28.65 -15.45 -26.95 -16.95 -25.25 -16.75 -23.2 -16.6 -21.2 -14.7 -19.0 L-19.7 -15.95 Q-24.9 -22.65 -22.25 -29.25 -17.7 -37.1 -8.7 -35.2 0.3 -33.4 0.0 -24.65 -0.25 -15.95 -9.55 -10.85 L-13.55 -15.75 Q-10.25 -17.4 -9.05 -19.15 -7.85 -20.95 -7.5 -23.5 -7.25 -26.1 -8.45 -27.45" fill="#66e9f7" fill-opacity="0.49803922" fill-rule="evenodd" stroke="none"/>
  </g>
</svg>
