<?xml version="1.0" encoding="UTF-8" standalone="no"?>
<svg xmlns:xlink="http://www.w3.org/1999/xlink" height="344.25px" width="85.35px" xmlns="http://www.w3.org/2000/svg">
  <g transform="matrix(1.0, 0.0, 0.0, 1.0, 43.05, 263.0)">
    <path d="M-15.6 -257.8 L-8.9 -259.5 1.6 -262.3 0.0 -224.8 Q0.0 -217.05 1.9 -215.55 3.75 -214.05 3.75 -206.05 L2.45 -188.95 Q1.15 -173.1 1.15 -163.55 L1.2 -158.9 1.2 -158.8 Q0.75 -147.35 2.15 -141.0 3.2 -136.15 4.65 -136.15 5.45 -136.15 7.25 -138.8 9.25 -141.7 9.7 -141.9 6.7 -126.65 6.7 -106.65 6.7 -97.7 8.2 -64.75 L10.35 -15.0 10.45 -15.4 Q11.35 -19.35 12.7 -19.4 14.35 -16.25 16.1 -3.85 17.85 8.8 18.7 10.7 L24.2 3.75 Q28.1 -1.25 29.15 -1.25 L29.95 -1.05 30.3 -0.85 30.3 1.25 25.15 15.5 Q20.6 27.75 20.6 29.7 20.6 34.5 27.55 36.75 31.2 38.0 32.3 38.7 34.45 40.05 34.45 42.45 34.45 45.05 32.75 46.1 31.8 46.65 29.0 47.2 26.35 47.65 25.25 48.5 23.55 49.8 23.55 52.8 23.55 54.5 24.15 56.9 24.7 59.25 24.7 61.85 L24.5 63.7 24.3 66.0 23.2 66.0 Q22.0 65.35 19.6 62.45 17.75 60.2 15.5 60.2 11.65 60.2 6.9 67.05 2.15 73.85 -1.15 73.85 -4.6 73.85 -5.5 68.3 -5.95 65.4 -6.4 64.45 -7.25 62.7 -9.2 62.7 -11.7 62.7 -13.2 66.1 -15.15 70.35 -18.75 72.2 L-19.45 64.6 Q-20.0 58.95 -21.75 58.15 -23.05 57.55 -28.25 55.7 -32.9 53.55 -33.7 50.3 L-33.7 48.65 -32.25 48.45 -30.9 48.25 -29.15 48.7 -27.4 49.1 Q-23.9 49.1 -21.35 45.85 -18.5 42.15 -18.35 35.75 -20.45 28.4 -22.15 24.8 L-23.6 21.85 Q-24.0 20.75 -24.0 17.9 -24.0 16.3 -22.75 15.6 L-20.05 14.65 Q-16.1 13.25 -16.1 7.6 -16.1 6.5 -16.85 1.05 L-17.6 -5.4 -17.4 -6.7 -17.25 -7.85 -15.45 -5.35 Q-13.95 -3.3 -13.3 -3.3 -10.05 -3.3 -9.0 -7.85 -8.25 -11.15 -8.25 -20.05 -8.25 -34.25 -8.8 -54.65 -8.9 -70.5 -7.75 -92.9 L-7.95 -94.85 -10.45 -115.9 Q-10.85 -114.6 -13.4 -114.6 -17.85 -114.35 -17.2 -124.15 L-13.95 -119.35 Q-13.5 -122.4 -11.95 -122.1 -10.45 -121.85 -12.35 -132.0 L-11.95 -132.0 Q-11.05 -131.45 -10.55 -130.15 -10.15 -129.05 -10.1 -128.0 L-10.1 -134.85 -10.45 -143.95 -10.95 -149.2 -11.2 -153.85 Q-11.05 -158.85 -11.6 -164.3 L-12.35 -172.0 -13.9 -188.95 Q-15.15 -201.5 -14.95 -212.0 -15.95 -212.4 -17.0 -210.8 -18.25 -208.9 -19.1 -208.7 L-16.6 -225.85 Q-14.95 -238.1 -14.95 -246.9 L-15.35 -253.95 -15.6 -257.8" fill="#f7fdff" fill-rule="evenodd" stroke="none"/>
    <path d="M1.6 -262.3 L4.0 -263.0 6.25 -262.55 6.65 -247.0 Q7.05 -237.0 7.2 -237.0 7.9 -209.55 7.85 -175.6 7.75 -141.65 15.35 -160.0 10.2 -100.85 12.3 -61.75 14.4 -22.6 18.15 -24.15 21.9 -25.75 22.65 3.15 L26.85 -2.45 Q35.55 -14.85 38.55 -14.85 40.8 -14.85 41.2 -13.6 L41.2 -10.95 Q41.2 -5.35 35.05 7.1 28.85 19.5 28.85 24.35 28.85 28.2 35.6 32.2 42.3 36.2 42.3 39.8 42.3 43.5 35.85 47.55 29.15 51.75 28.85 54.05 28.5 56.6 28.85 65.85 28.25 73.85 22.8 73.85 21.1 73.85 20.05 72.4 19.0 70.95 17.05 70.95 13.85 70.95 7.05 76.1 0.25 81.25 -1.7 81.25 -4.0 81.25 -5.85 77.75 -7.7 74.25 -9.2 74.25 -10.15 74.25 -12.15 76.2 L-12.55 76.95 -12.65 76.7 -13.45 77.55 Q-16.5 80.85 -17.4 80.85 -19.3 80.85 -21.65 73.0 L-24.35 63.95 Q-25.3 62.6 -34.85 56.7 -43.05 51.65 -43.05 48.25 -43.05 45.75 -41.15 44.55 -39.75 43.7 -37.65 43.7 L-31.9 44.75 -27.7 45.8 Q-26.75 45.8 -26.2 43.3 -25.8 41.4 -25.8 39.2 -25.8 34.25 -27.85 29.0 -29.95 23.8 -29.95 20.0 -29.95 15.7 -29.05 14.0 -28.5 12.95 -27.0 12.4 -23.6 11.1 -22.85 4.55 -23.1 -2.0 -22.6 -9.15 -21.95 -18.95 -20.05 -18.95 -18.55 -18.95 -17.15 -14.0 -16.05 -11.0 -14.2 -16.1 -12.35 -21.2 -16.3 -104.8 -17.1 -103.05 -18.5 -98.1 L-19.95 -92.0 -20.9 -92.0 Q-20.9 -102.0 -25.4 -156.95 -19.05 -120.8 -17.4 -141.85 -15.75 -162.9 -18.05 -198.05 L-18.05 -199.85 Q-18.05 -199.3 -18.65 -199.1 L-25.9 -190.0 Q-21.9 -203.45 -21.0 -217.55 -20.1 -231.7 -19.0 -257.0 L-15.6 -257.8 -15.35 -253.95 -14.95 -246.9 Q-14.95 -238.1 -16.6 -225.85 L-19.1 -208.7 Q-18.25 -208.9 -17.0 -210.8 -15.95 -212.4 -14.95 -212.0 -15.15 -201.5 -13.9 -188.95 L-12.35 -172.0 -11.6 -164.3 Q-11.05 -158.85 -11.2 -153.85 L-10.95 -149.2 -10.45 -143.95 -10.1 -134.85 -10.1 -128.0 Q-10.15 -129.05 -10.55 -130.15 -11.05 -131.45 -11.95 -132.0 L-12.35 -132.0 Q-10.45 -121.85 -11.95 -122.1 -13.5 -122.4 -13.95 -119.35 L-17.2 -124.15 Q-17.85 -114.35 -13.4 -114.6 -10.85 -114.6 -10.45 -115.9 L-7.95 -94.85 -7.75 -92.9 Q-8.9 -70.5 -8.8 -54.65 -8.25 -34.25 -8.25 -20.05 -8.25 -11.15 -9.0 -7.85 -10.05 -3.3 -13.3 -3.3 -13.95 -3.3 -15.45 -5.35 L-17.25 -7.85 -17.4 -6.7 -17.6 -5.4 -16.85 1.05 Q-16.1 6.5 -16.1 7.6 -16.1 13.25 -20.05 14.65 L-22.75 15.6 Q-24.0 16.3 -24.0 17.9 -24.0 20.75 -23.6 21.85 L-22.15 24.8 Q-20.45 28.4 -18.35 35.75 -18.5 42.15 -21.35 45.85 -23.9 49.1 -27.4 49.1 L-29.15 48.7 -30.9 48.25 -32.25 48.45 -33.7 48.65 -33.7 50.3 Q-32.9 53.55 -28.25 55.7 -23.05 57.55 -21.75 58.15 -20.0 58.95 -19.45 64.6 L-18.75 72.2 Q-15.15 70.35 -13.2 66.1 -11.7 62.7 -9.2 62.7 -7.25 62.7 -6.4 64.45 -5.95 65.4 -5.5 68.3 -4.6 73.85 -1.15 73.85 2.15 73.85 6.9 67.05 11.65 60.2 15.5 60.2 17.75 60.2 19.6 62.45 22.0 65.35 23.2 66.0 L24.3 66.0 24.5 63.7 24.7 61.85 Q24.7 59.25 24.15 56.9 23.55 54.5 23.55 52.8 23.55 49.8 25.25 48.5 26.35 47.65 29.0 47.2 31.8 46.65 32.75 46.1 34.45 45.05 34.45 42.45 34.45 40.05 32.3 38.7 31.2 38.0 27.55 36.75 20.6 34.5 20.6 29.7 20.6 27.75 25.15 15.5 L30.3 1.25 30.3 -0.85 29.95 -1.05 29.15 -1.25 Q28.1 -1.25 24.2 3.75 L18.7 10.7 Q17.85 8.8 16.1 -3.85 14.35 -16.25 12.7 -19.4 11.35 -19.35 10.45 -15.4 L10.35 -15.0 8.2 -64.75 Q6.7 -97.7 6.7 -106.65 6.7 -126.65 9.7 -141.9 9.25 -141.7 7.25 -138.8 5.45 -136.15 4.65 -136.15 3.2 -136.15 2.15 -141.0 0.75 -147.35 1.2 -158.8 L1.2 -158.9 1.15 -163.55 Q1.15 -173.1 2.45 -188.95 L3.75 -206.05 Q3.75 -214.05 1.9 -215.55 0.0 -217.05 0.0 -224.8 L1.6 -262.3 M-18.05 -199.85 L-18.05 -199.9 -18.05 -199.85 M-16.25 -104.95 L-16.25 -106.0 -16.3 -104.8 -16.25 -104.95" fill="#c0edfc" fill-rule="evenodd" stroke="none"/>
  </g>
</svg>
