<?xml version="1.0" encoding="UTF-8" standalone="no"?>
<svg xmlns:xlink="http://www.w3.org/1999/xlink" height="352.85px" width="87.6px" xmlns="http://www.w3.org/2000/svg">
  <g transform="matrix(1.0, 0.0, 0.0, 1.0, 47.55, 265.85)">
    <path d="M0.4 -264.1 L1.4 -247.7 2.9 -203.05 Q3.7 -176.65 4.75 -165.75 6.25 -150.1 9.3 -150.1 L12.25 -150.35 14.25 -150.15 Q15.7 -149.2 15.7 -142.3 15.7 -128.7 11.95 -111.7 8.2 -94.65 8.2 -82.5 8.2 -75.85 8.5 -74.35 9.2 -70.85 12.7 -65.2 13.55 -66.55 14.95 -67.2 L17.2 -68.5 Q17.8 -61.95 17.5 -50.2 L17.0 -29.65 Q16.7 -4.4 21.7 4.9 L24.75 0.9 Q27.7 -2.9 28.4 -3.3 29.2 -0.8 29.2 5.3 29.2 16.1 25.05 29.3 20.9 42.5 20.9 45.3 20.9 50.6 23.9 55.3 26.9 60.05 26.9 63.9 26.9 65.05 26.55 65.8 26.2 66.55 26.2 66.8 24.4 66.7 22.1 65.1 19.85 63.5 17.9 63.5 14.45 63.5 11.9 66.2 10.25 68.0 8.15 72.15 5.9 76.7 4.8 78.1 2.7 80.8 0.0 80.8 -1.1 80.8 -4.85 75.45 -8.6 70.1 -9.7 70.1 L-13.45 70.9 -17.2 71.7 Q-18.3 71.7 -19.5 70.95 -20.9 70.0 -20.9 68.8 -20.9 63.65 -25.05 59.7 -29.2 55.8 -29.2 51.9 -29.2 50.75 -28.8 50.25 L-28.4 49.5 -24.7 49.5 Q-21.7 51.1 -19.5 51.1 L-17.15 50.7 -15.7 50.3 -15.7 40.4 Q-16.75 37.95 -17.55 33.25 -18.2 29.55 -19.5 28.0 L-19.5 22.2 -18.0 22.2 Q-17.6 24.7 -16.65 26.0 -15.55 27.5 -13.5 28.0 L-13.5 20.6 Q-20.2 -13.1 -20.2 -21.9 L-19.8 -35.9 Q-19.35 -50.1 -18.7 -60.2 L-17.0 -83.8 Q-15.7 -102.35 -15.7 -106.0 -15.7 -110.85 -17.3 -116.5 -18.5 -120.5 -20.9 -126.2 L-20.9 -134.5 Q-18.0 -134.5 -17.1 -133.25 -16.2 -132.0 -15.4 -132.0 -14.15 -132.0 -14.05 -132.4 L-14.2 -132.8 -14.2 -151.0 Q-16.2 -161.35 -17.95 -168.95 -18.7 -173.1 -18.7 -183.2 -18.7 -184.85 -17.2 -194.0 -15.7 -203.15 -15.7 -209.2 -15.7 -221.25 -17.2 -240.8 -18.25 -254.6 -18.55 -264.95 L-8.75 -264.2 0.4 -264.1" fill="#f7fdff" fill-rule="evenodd" stroke="none"/>
    <path d="M0.4 -264.1 L5.65 -264.1 Q7.0 -245.15 10.0 -210.0 8.25 -155.85 16.15 -162.7 24.05 -169.55 20.65 -137.0 17.2 -104.45 17.2 -97.25 L17.05 -81.45 Q16.95 -72.9 22.65 -85.0 22.65 -85.8 23.5 -86.85 23.4 -77.9 21.7 -52.95 L20.0 -14.8 20.2 -7.85 Q20.35 -0.85 28.1 -28.95 32.8 -38.45 34.1 -14.45 35.35 9.5 35.35 21.95 35.35 26.65 34.1 30.55 L29.35 42.95 Q27.05 48.85 27.35 53.25 27.6 57.15 30.0 59.85 L32.2 60.6 37.6 61.75 Q40.05 62.4 40.05 64.7 40.05 68.2 33.55 69.45 L25.85 70.1 Q22.15 70.3 17.7 73.85 L15.8 75.55 13.65 82.2 Q10.55 90.35 -4.55 84.7 -3.2 85.15 -8.65 81.5 -9.55 80.9 -10.0 80.0 L-10.8 80.8 Q-12.5 82.5 -13.5 82.5 -14.95 82.5 -17.15 80.05 -19.3 77.55 -22.45 77.55 L-27.3 77.95 Q-29.95 77.65 -29.95 74.0 -29.95 72.6 -29.35 69.3 -28.8 66.0 -28.8 64.5 -28.8 61.5 -35.75 53.25 L-38.15 50.5 Q-47.55 40.0 -47.55 36.9 -47.55 35.45 -47.15 34.65 L-44.9 34.65 Q-42.35 36.15 -33.75 42.8 -28.3 47.0 -25.1 47.0 -22.8 47.0 -22.05 45.8 -21.3 44.65 -21.3 41.0 -21.3 39.25 -21.6 36.8 L-22.15 34.75 Q-28.95 10.1 -28.95 8.9 L-28.9 8.1 Q-32.3 -12.45 -25.25 1.75 -18.25 15.95 -18.15 18.9 L-18.15 17.9 Q-20.25 2.45 -23.35 -15.95 -25.4 -29.25 -25.4 -40.45 -25.4 -54.3 -23.25 -86.45 -22.15 -103.55 -22.15 -113.75 L-22.9 -110.65 -25.4 -100.9 -25.4 -104.0 Q-25.4 -114.7 -27.65 -139.3 -28.75 -151.6 -23.35 -148.25 -17.95 -144.9 -26.25 -190.4 -22.65 -220.0 -22.65 -226.55 L-23.55 -239.55 -24.45 -252.55 -24.0 -263.95 -23.9 -265.85 -18.55 -264.95 Q-18.25 -254.6 -17.2 -240.8 -15.7 -221.25 -15.7 -209.2 -15.7 -203.15 -17.2 -194.0 -18.7 -184.85 -18.7 -183.2 -18.7 -173.1 -17.95 -168.95 -16.2 -161.35 -14.2 -151.0 L-14.2 -132.8 -14.05 -132.4 Q-14.15 -132.0 -15.4 -132.0 -16.2 -132.0 -17.1 -133.25 -18.0 -134.5 -20.9 -134.5 L-20.9 -126.2 Q-18.5 -120.5 -17.3 -116.5 -15.7 -110.85 -15.7 -106.0 -15.7 -102.35 -17.0 -83.8 L-18.7 -60.2 Q-19.35 -50.1 -19.8 -35.9 L-20.2 -21.9 Q-20.2 -13.1 -13.5 20.6 L-13.5 28.0 Q-15.55 27.5 -16.65 26.0 -17.6 24.7 -18.0 22.2 L-19.5 22.2 -19.5 28.0 Q-18.2 29.55 -17.55 33.25 -16.75 37.95 -15.7 40.4 L-15.7 50.3 -17.15 50.7 -19.5 51.1 Q-21.7 51.1 -24.7 49.5 L-28.4 49.5 -28.8 50.25 Q-29.2 50.75 -29.2 51.9 -29.2 55.8 -25.05 59.7 -20.9 63.65 -20.9 68.8 -20.9 70.0 -19.5 70.95 -18.3 71.7 -17.2 71.7 L-13.45 70.9 -9.7 70.1 Q-8.6 70.1 -4.85 75.45 -1.1 80.8 0.0 80.8 2.7 80.8 4.8 78.1 5.9 76.7 8.15 72.15 10.25 68.0 11.9 66.2 14.45 63.5 17.9 63.5 19.85 63.5 22.1 65.1 24.4 66.7 26.2 66.8 26.2 66.55 26.55 65.8 26.9 65.05 26.9 63.9 26.9 60.05 23.9 55.3 20.9 50.6 20.9 45.3 20.9 42.5 25.05 29.3 29.2 16.1 29.2 5.3 29.2 -0.8 28.4 -3.3 27.7 -2.9 24.75 0.9 L21.7 4.9 Q16.7 -4.4 17.0 -29.65 L17.5 -50.2 Q17.8 -61.95 17.2 -68.5 L14.95 -67.2 Q13.55 -66.55 12.7 -65.2 9.2 -70.85 8.5 -74.35 8.2 -75.85 8.2 -82.5 8.2 -94.65 11.95 -111.7 15.7 -128.7 15.7 -142.3 15.7 -149.2 14.25 -150.15 L12.25 -150.35 9.3 -150.1 Q6.25 -150.1 4.75 -165.75 3.7 -176.65 2.9 -203.05 L1.4 -247.7 0.4 -264.1" fill="#c0edfc" fill-rule="evenodd" stroke="none"/>
  </g>
</svg>
