<?xml version="1.0" encoding="UTF-8" standalone="no"?>
<svg xmlns:xlink="http://www.w3.org/1999/xlink" height="363.5px" width="99.25px" xmlns="http://www.w3.org/2000/svg">
  <g transform="matrix(1.0, 0.0, 0.0, 1.0, 50.7, 259.4)">
    <path d="M18.9 -259.4 L19.5 -257.15 Q21.7 -248.4 21.7 -243.0 21.7 -229.95 15.7 -197.4 9.7 -164.85 9.7 -155.1 9.7 -147.6 11.4 -138.05 13.4 -126.8 16.4 -122.1 17.6 -120.2 20.65 -117.3 L25.8 -112.15 Q31.85 -105.0 31.4 -94.9 L31.4 -81.7 Q30.7 -82.4 27.65 -87.45 L24.7 -92.4 Q18.2 -90.3 16.1 -71.3 14.9 -60.55 14.9 -35.1 14.9 -15.55 16.05 -2.0 17.5 15.65 20.9 23.1 23.75 21.4 26.5 21.4 30.3 21.4 31.4 23.15 32.2 24.4 32.2 28.4 32.2 34.5 29.85 40.7 L29.65 41.25 Q29.2 45.65 28.05 50.75 L26.2 59.3 Q26.2 60.35 26.55 62.35 L26.9 65.1 28.4 65.1 Q29.85 63.75 31.75 63.05 L35.2 61.8 Q40.4 57.05 35.2 66.0 23.95 80.75 17.35 85.95 8.15 93.2 -3.4 93.2 -14.0 93.2 -22.65 85.5 -26.95 81.65 -30.75 75.9 -41.2 60.05 -41.2 42.0 L-41.2 37.9 Q-40.75 39.6 -37.75 41.65 -35.15 43.4 -33.7 43.7 L-33.7 34.6 Q-34.05 32.9 -34.75 30.8 L-35.9 28.0 Q-37.75 21.15 -35.9 21.4 L-35.2 21.4 -33.35 24.55 -31.4 24.7 Q-29.45 24.7 -28.4 13.2 -27.7 5.1 -27.7 -3.3 -27.7 -13.4 -33.25 -54.4 -38.2 -91.15 -39.7 -98.2 L-43.25 -117.55 Q-39.1 -105.6 -38.2 -105.35 L-38.1 -104.95 -38.1 -105.35 Q-37.9 -100.0 -36.4 -98.15 -34.95 -96.35 -32.9 -103.9 -32.2 -108.1 -32.2 -118.0 -32.2 -120.0 -33.7 -143.1 L-33.2 -148.6 -32.8 -151.4 Q-30.05 -150.1 -28.1 -150.1 -25.8 -150.1 -24.7 -157.65 -23.9 -163.45 -23.9 -172.9 -23.9 -217.9 -34.55 -259.4 L18.9 -259.4 M-40.9 -219.6 Q-40.5 -218.65 -40.9 -219.5 L-40.9 -219.6" fill="#f7fdff" fill-rule="evenodd" stroke="none"/>
    <path d="M18.9 -259.4 L29.65 -259.4 Q30.1 -240.3 25.55 -200.0 16.75 -149.75 22.7 -132.1 28.6 -114.5 32.5 -119.9 39.9 -149.45 38.95 -121.25 L38.95 -99.0 Q38.45 -91.95 38.0 -74.95 L37.15 -47.95 Q25.0 -95.4 22.9 -66.55 20.8 -37.7 20.55 -26.65 20.3 -17.65 21.3 -2.0 L21.8 5.2 20.0 10.0 Q26.05 2.45 30.0 -2.0 34.3 -6.9 36.0 -8.05 L39.9 -10.9 Q41.85 -12.15 42.25 -7.8 42.55 -4.4 42.35 -2.0 L42.15 -0.8 Q41.65 1.85 38.5 28.15 35.35 54.45 35.35 58.9 53.5 38.05 46.7 55.2 43.3 64.65 29.9 84.9 25.15 96.15 18.0 97.9 10.8 99.65 7.65 101.6 L7.05 101.95 Q3.75 103.6 -3.4 104.05 -9.35 104.35 -15.65 101.95 -17.8 101.15 -20.0 100.0 -21.2 99.45 -22.65 98.5 -28.6 94.55 -39.0 84.05 -43.35 79.7 -45.5 75.55 -55.5 61.0 -46.25 64.35 -37.35 72.3 -44.4 54.95 -46.3 49.5 -47.8 38.75 -49.3 28.0 -49.0 25.85 L-49.0 10.9 -48.05 10.9 Q-46.0 13.3 -42.85 22.45 -39.95 30.75 -39.9 32.75 L-39.9 26.95 Q-48.95 -12.25 -42.2 -5.75 -30.65 24.0 -32.95 -13.55 -34.7 -42.0 -44.4 -109.0 L-44.4 -112.9 Q-48.6 -149.25 -38.2 -105.35 -39.1 -105.6 -43.25 -117.55 L-39.7 -98.2 Q-38.2 -91.15 -33.25 -54.4 -27.7 -13.4 -27.7 -3.3 -27.7 5.1 -28.4 13.2 -29.45 24.7 -31.4 24.7 L-33.35 24.55 -35.2 21.4 -35.9 21.4 Q-37.75 21.15 -35.9 28.0 L-34.75 30.8 Q-34.05 32.9 -33.7 34.6 L-33.7 43.7 Q-35.15 43.4 -37.75 41.65 -40.75 39.6 -41.2 37.9 L-41.2 42.0 Q-41.2 60.05 -30.75 75.9 -26.95 81.65 -22.65 85.5 -14.0 93.2 -3.4 93.2 8.15 93.2 17.35 85.95 23.95 80.75 35.2 66.0 40.4 57.05 35.2 61.8 L31.75 63.05 Q29.85 63.75 28.4 65.1 L26.9 65.1 26.55 62.35 Q26.2 60.35 26.2 59.3 L28.05 50.75 Q29.2 45.65 29.65 41.25 L29.85 40.7 Q32.2 34.5 32.2 28.4 32.2 24.4 31.4 23.15 30.3 21.4 26.5 21.4 23.75 21.4 20.9 23.1 17.5 15.65 16.05 -2.0 14.9 -15.55 14.9 -35.1 14.9 -60.55 16.1 -71.3 18.2 -90.3 24.7 -92.4 L27.65 -87.45 Q30.7 -82.4 31.4 -81.7 L31.4 -94.9 Q31.85 -105.0 25.8 -112.15 L20.65 -117.3 Q17.6 -120.2 16.4 -122.1 13.4 -126.8 11.4 -138.05 9.7 -147.6 9.7 -155.1 9.7 -164.85 15.7 -197.4 21.7 -229.95 21.7 -243.0 21.7 -248.4 19.5 -257.15 L18.9 -259.4 M-38.1 -105.35 L-38.1 -110.55 -39.95 -152.9 Q-41.8 -196.7 -41.8 -204.95 L-41.55 -209.1 Q-27.2 -135.6 -29.55 -170.75 -32.3 -211.15 -36.55 -233.9 -39.65 -250.45 -40.85 -259.4 L-34.55 -259.4 Q-23.9 -217.9 -23.9 -172.9 -23.9 -163.45 -24.7 -157.65 -25.8 -150.1 -28.1 -150.1 -30.05 -150.1 -32.8 -151.4 L-33.2 -148.6 -33.7 -143.1 Q-32.2 -120.0 -32.2 -118.0 -32.2 -108.1 -32.9 -103.9 -34.95 -96.35 -36.4 -98.15 -37.9 -100.0 -38.1 -105.35" fill="#c0edfc" fill-rule="evenodd" stroke="none"/>
  </g>
</svg>
