<?xml version="1.0" encoding="UTF-8" standalone="no"?>
<svg xmlns:xlink="http://www.w3.org/1999/xlink" height="387.05px" width="169.5px" xmlns="http://www.w3.org/2000/svg">
  <g transform="matrix(1.0, 0.0, 0.0, 1.0, 82.1, 267.05)">
    <path d="M17.65 -267.05 L9.15 -161.9 Q8.9 -166.55 8.9 -172.1 8.9 -181.6 11.9 -225.45 L14.9 -267.05 17.65 -267.05 M11.6 -144.6 L11.8 -144.95 11.75 -144.1 11.6 -144.6 M5.0 -32.85 L6.25 -35.95 6.6 -30.85 6.85 -25.75 7.0 -22.15 Q5.4 -29.0 5.0 -32.85 M12.65 -7.95 L16.5 -14.4 16.2 -7.85 Q15.25 -7.1 14.65 -7.1 13.6 -7.1 12.65 -7.95" fill="#e0f7f8" fill-rule="evenodd" stroke="none"/>
    <path d="M9.15 -161.9 Q9.7 -150.75 11.6 -144.6 L11.75 -144.1 11.8 -143.95 Q14.65 -138.65 14.65 -136.1 10.6 -108.25 10.6 -104.55 10.6 -101.25 12.2 -94.85 L13.8 -88.25 Q13.8 -85.75 9.35 -62.65 4.85 -39.55 4.85 -35.15 L5.0 -32.85 Q5.4 -29.0 7.0 -22.15 L7.3 -20.75 Q9.75 -10.55 12.65 -7.95 13.6 -7.1 14.65 -7.1 15.25 -7.1 16.2 -7.85 19.45 -10.45 27.2 -21.9 L37.6 -37.8 37.6 -36.0 Q37.6 -33.4 32.4 -17.9 27.35 -2.8 24.5 3.5 L24.5 7.1 25.25 7.1 Q27.35 7.1 29.5 4.9 31.6 2.65 32.6 2.65 33.9 2.65 34.25 3.1 L34.3 3.5 Q33.65 10.25 33.65 17.9 33.65 25.6 34.3 29.75 38.95 29.75 43.75 31.05 52.25 33.35 52.25 38.65 52.25 40.45 44.95 45.75 37.6 51.1 37.6 54.8 L44.2 63.15 Q51.1 72.2 52.25 76.5 L44.2 76.5 Q42.05 74.35 40.0 73.95 L35.05 73.8 Q33.45 73.8 31.85 74.75 30.15 75.75 30.15 76.9 30.15 79.95 31.85 84.1 33.8 88.8 34.3 93.6 33.3 93.6 24.05 90.45 14.85 87.3 13.05 87.3 L10.6 87.3 Q9.75 87.7 9.75 90.5 9.75 91.85 10.25 93.65 L11.35 97.2 10.6 97.2 Q5.6 93.55 -0.7 91.75 L-10.2 89.5 Q-14.9 88.2 -17.05 85.5 -19.8 82.1 -20.4 74.8 -28.7 75.25 -32.45 73.95 -39.2 71.6 -39.2 63.4 -39.2 58.85 -36.3 54.4 -33.45 50.0 -33.45 46.3 -33.45 44.1 -37.55 40.6 -41.65 37.05 -41.65 32.8 -41.65 30.0 -39.2 29.25 -36.75 28.45 -36.75 25.6 -36.75 23.55 -44.5 -1.5 L-52.25 -26.1 Q-52.25 -27.2 -51.5 -27.9 -50.6 -28.75 -49.05 -28.75 -44.4 -28.75 -37.7 -19.95 -30.15 -8.9 -26.1 -4.45 -26.1 -5.3 -25.25 -5.3 -25.9 -9.85 -24.65 -15.0 -23.2 -20.75 -20.4 -20.7 -19.7 -17.1 -18.85 -15.65 -17.8 -13.85 -14.65 -11.65 -10.25 -17.7 -9.25 -29.05 -8.9 -33.1 -8.9 -50.85 -8.9 -72.05 -12.55 -113.75 -14.4 -134.6 -16.25 -151.4 -16.25 -152.5 -15.85 -154.15 -15.5 -155.85 -15.5 -156.7 L-13.8 -156.7 Q-12.8 -152.8 -11.55 -149.95 -9.15 -144.5 -5.7 -144.15 -4.4 -146.8 -4.1 -153.3 L-4.0 -168.05 Q-4.0 -182.15 -6.05 -225.55 L-7.7 -267.05 14.9 -267.05 11.9 -225.45 Q8.9 -181.6 8.9 -172.1 8.9 -166.55 9.15 -161.9" fill="#f7fdff" fill-rule="evenodd" stroke="none"/>
    <path d="M17.65 -267.05 L24.3 -267.05 15.5 -150.1 20.0 -160.0 Q29.85 -183.1 14.55 -92.9 16.9 -100.45 20.15 -108.1 31.3 -137.6 9.15 -26.55 L15.25 -40.25 Q29.8 -77.2 22.3 -35.35 L18.35 -13.3 28.55 -37.95 26.0 -21.05 Q39.15 -45.2 56.5 -74.7 81.45 -117.15 39.75 -13.6 L38.85 -11.45 45.3 -22.8 38.3 -2.9 50.85 -18.95 38.45 5.85 60.9 -10.2 Q85.1 -26.45 42.1 17.35 L60.8 13.0 50.95 21.65 65.35 19.5 51.65 34.05 79.9 25.1 Q103.65 19.0 52.35 48.7 L68.05 47.7 57.55 54.0 69.85 54.45 60.6 57.85 71.0 59.2 60.4 69.7 72.25 76.9 Q85.35 86.7 41.5 84.4 L57.6 97.5 55.1 98.05 52.6 98.35 47.5 98.9 42.5 98.75 40.0 98.6 37.45 98.3 39.9 108.5 26.55 99.05 30.15 106.95 17.5 99.7 19.75 109.15 7.65 101.0 10.5 111.15 Q18.15 133.8 -2.25 98.55 L-4.75 111.4 -8.55 97.0 Q-17.25 126.8 -18.95 110.0 L-20.4 100.0 -25.05 106.1 -25.8 98.0 -32.45 104.0 -30.25 92.1 -49.45 99.9 -42.45 88.45 -56.5 95.2 Q-64.15 98.75 -47.15 73.75 L-48.65 73.3 -63.95 73.85 Q-88.9 74.65 -40.0 60.0 L-72.2 46.45 Q-97.2 34.65 -45.4 45.55 -102.0 9.9 -71.35 21.6 L-47.7 30.15 -64.95 6.5 -46.5 21.7 -54.15 5.05 -41.35 19.35 -62.5 -26.8 Q-97.45 -98.95 -28.65 -19.65 L-30.0 -70.0 Q-28.1 -93.05 -19.0 -22.65 -17.7 -17.6 -13.9 -22.75 -10.15 -27.9 -17.05 -114.65 -23.95 -201.4 -15.25 -181.55 L-9.1 -157.15 Q-10.9 -170.1 -11.25 -194.65 L-11.45 -202.5 Q-12.15 -226.35 -14.9 -267.05 L-7.7 -267.05 -6.05 -225.55 Q-4.0 -182.15 -4.0 -168.05 L-4.1 -153.3 Q-4.4 -146.8 -5.7 -144.15 -9.15 -144.5 -11.55 -149.95 -12.8 -152.8 -13.8 -156.7 L-15.5 -156.7 Q-15.5 -155.85 -15.85 -154.15 -16.25 -152.5 -16.25 -151.4 -14.4 -134.6 -12.55 -113.75 -8.9 -72.05 -8.9 -50.85 -8.9 -33.1 -9.25 -29.05 -10.25 -17.7 -14.65 -11.65 -17.8 -13.85 -18.85 -15.65 -19.7 -17.1 -20.4 -20.7 -23.2 -20.75 -24.65 -15.0 -25.9 -9.85 -25.25 -5.3 -26.1 -5.3 -26.1 -4.45 -30.15 -8.9 -37.7 -19.95 -44.4 -28.75 -49.05 -28.75 -50.6 -28.75 -51.5 -27.9 -52.25 -27.2 -52.25 -26.1 L-44.5 -1.5 Q-36.75 23.55 -36.75 25.6 -36.75 28.45 -39.2 29.25 -41.65 30.0 -41.65 32.8 -41.65 37.05 -37.55 40.6 -33.45 44.1 -33.45 46.3 -33.45 50.0 -36.3 54.4 -39.2 58.85 -39.2 63.4 -39.2 71.6 -32.45 73.95 -28.7 75.25 -20.4 74.8 -19.8 82.1 -17.05 85.5 -14.9 88.2 -10.2 89.5 L-0.7 91.75 Q5.6 93.55 10.6 97.2 L11.35 97.2 10.25 93.65 Q9.75 91.85 9.75 90.5 9.75 87.7 10.6 87.3 L13.05 87.3 Q14.85 87.3 24.05 90.45 33.3 93.6 34.3 93.6 33.8 88.8 31.85 84.1 30.15 79.95 30.15 76.9 30.15 75.75 31.85 74.75 33.45 73.8 35.05 73.8 L40.0 73.95 Q42.05 74.35 44.2 76.5 L52.25 76.5 Q51.1 72.2 44.2 63.15 L37.6 54.8 Q37.6 51.1 44.95 45.75 52.25 40.45 52.25 38.65 52.25 33.35 43.75 31.05 38.95 29.75 34.3 29.75 33.65 25.6 33.65 17.9 33.65 10.25 34.3 3.5 L34.25 3.1 Q33.9 2.65 32.6 2.65 31.6 2.65 29.5 4.9 27.35 7.1 25.25 7.1 L24.5 7.1 24.5 3.5 Q27.35 -2.8 32.4 -17.9 37.6 -33.4 37.6 -36.0 L37.6 -37.8 27.2 -21.9 Q19.45 -10.45 16.2 -7.85 L16.5 -14.4 12.65 -7.95 Q9.75 -10.55 7.3 -20.75 L7.0 -22.15 6.85 -25.75 6.6 -30.85 6.25 -35.95 5.0 -32.85 4.85 -35.15 Q4.85 -39.55 9.35 -62.65 13.8 -85.75 13.8 -88.25 L12.2 -94.85 Q10.6 -101.25 10.6 -104.55 10.6 -108.25 14.65 -136.1 14.65 -138.65 11.8 -143.95 L11.75 -144.1 11.8 -144.95 11.6 -144.6 Q9.7 -150.75 9.15 -161.9 L17.65 -267.05" fill="#c0edfc" fill-rule="evenodd" stroke="none"/>
  </g>
</svg>
