<?xml version="1.0" encoding="UTF-8" standalone="no"?>
<svg xmlns:xlink="http://www.w3.org/1999/xlink" height="36.75px" width="26.0px" xmlns="http://www.w3.org/2000/svg">
  <g transform="matrix(1.0, 0.0, 0.0, 1.0, 0.0, 0.0)">
    <path d="M26.0 0.0 L26.0 36.75 0.0 36.75 0.0 0.0 26.0 0.0" fill="#cccc00" fill-opacity="0.0" fill-rule="evenodd" stroke="none"/>
    <path d="M23.2 11.95 Q23.2 11.55 22.6 10.9 22.0 10.3 21.55 10.3 L18.35 10.3 18.35 7.0 Q18.35 6.5 17.7 5.9 17.0 5.3 16.45 5.3 L4.7 5.3 Q4.1 5.3 3.4 5.9 2.75 6.5 2.75 7.05 L2.75 9.6 3.35 10.65 Q4.0 11.25 4.45 11.25 L17.35 11.25 17.35 15.25 9.3 15.25 Q8.85 15.25 8.25 15.85 7.7 16.55 7.7 16.95 L7.7 19.5 Q7.7 19.95 8.25 20.55 L9.3 21.25 17.35 21.25 17.35 25.15 4.45 25.15 Q4.0 25.15 3.35 25.8 2.75 26.45 2.75 26.9 L2.75 29.45 3.35 30.5 Q4.0 31.1 4.45 31.1 L16.7 31.1 Q17.1 31.1 17.7 30.5 L18.35 29.45 18.35 26.2 21.55 26.2 Q22.0 26.2 22.6 25.55 23.2 24.9 23.2 24.5 L23.2 21.9 Q23.2 21.45 22.6 20.9 22.0 20.25 21.5 20.25 L18.35 20.25 18.35 16.3 21.5 16.3 22.6 15.6 23.2 14.6 23.2 11.95 M17.85 29.45 L17.35 30.15 16.7 30.65 4.45 30.65 Q4.2 30.65 3.75 30.15 3.25 29.7 3.25 29.45 L3.25 26.9 Q3.25 26.6 3.75 26.15 L4.45 25.7 17.85 25.7 17.85 29.45 M8.65 16.25 L9.3 15.75 17.85 15.75 17.85 20.75 9.3 20.75 8.65 20.25 8.1 19.5 8.1 16.95 Q8.1 16.7 8.65 16.25 M17.85 7.0 L17.85 10.8 4.45 10.8 Q4.2 10.8 3.75 10.3 3.25 9.85 3.25 9.6 L3.25 7.05 Q3.25 6.65 3.8 6.25 4.25 5.8 4.7 5.8 L16.45 5.8 Q16.8 5.8 17.3 6.25 17.85 6.65 17.85 7.0 M21.5 20.75 L22.2 21.2 22.75 21.9 22.75 24.5 22.25 25.2 21.55 25.7 17.85 25.7 17.85 20.75 21.5 20.75 M21.55 10.8 Q21.75 10.8 22.2 11.25 L22.75 11.95 22.75 14.6 22.25 15.3 21.5 15.75 17.85 15.75 17.85 10.8 21.55 10.8 M23.05 10.5 Q23.85 11.25 23.85 11.95 L23.85 14.6 Q23.85 15.3 23.05 16.1 22.25 16.85 21.55 16.85 L19.0 16.85 19.0 19.6 21.55 19.6 Q22.25 19.6 23.05 20.4 23.85 21.25 23.85 21.9 L23.85 24.5 Q23.85 25.2 23.05 26.05 22.2 26.85 21.55 26.85 L18.95 26.85 18.95 29.45 Q18.95 30.15 18.2 30.95 17.4 31.75 16.75 31.75 L4.45 31.75 Q3.8 31.75 3.0 30.95 2.15 30.15 2.15 29.45 L2.15 26.9 Q2.15 26.15 3.0 25.4 3.75 24.6 4.45 24.6 L16.75 24.6 16.75 21.85 9.3 21.85 Q8.65 21.85 7.8 21.05 7.0 20.25 7.0 19.5 L7.0 16.95 Q7.0 16.3 7.8 15.5 8.65 14.65 9.3 14.65 L16.75 14.65 16.75 11.9 4.45 11.9 Q3.8 11.9 3.0 11.1 2.15 10.3 2.15 9.6 L2.15 7.05 Q2.15 6.15 3.0 5.45 3.85 4.7 4.7 4.7 L16.45 4.7 Q17.1 4.7 18.0 5.3 18.95 6.05 18.95 7.0 L18.95 9.7 21.55 9.7 Q22.25 9.7 23.05 10.5" fill="#00ffff" fill-rule="evenodd" stroke="none"/>
    <path d="M23.2 11.95 L23.2 14.6 22.6 15.6 21.5 16.3 18.35 16.3 18.35 20.25 21.5 20.25 Q22.0 20.25 22.6 20.9 23.2 21.45 23.2 21.9 L23.2 24.5 Q23.2 24.9 22.6 25.55 22.0 26.2 21.55 26.2 L18.35 26.2 18.35 29.45 17.7 30.5 Q17.1 31.1 16.7 31.1 L4.45 31.1 Q4.0 31.1 3.35 30.5 L2.75 29.45 2.75 26.9 Q2.75 26.45 3.35 25.8 4.0 25.15 4.45 25.15 L17.35 25.15 17.35 21.25 9.3 21.25 8.25 20.55 Q7.7 19.95 7.7 19.5 L7.7 16.95 Q7.7 16.55 8.25 15.85 8.85 15.25 9.3 15.25 L17.35 15.25 17.35 11.25 4.45 11.25 Q4.0 11.25 3.35 10.65 L2.75 9.6 2.75 7.05 Q2.75 6.5 3.4 5.9 4.1 5.3 4.7 5.3 L16.45 5.3 Q17.0 5.3 17.7 5.9 18.35 6.5 18.35 7.0 L18.35 10.3 21.55 10.3 Q22.0 10.3 22.6 10.9 23.2 11.55 23.2 11.95 Z" fill="none" stroke="#003366" stroke-linecap="round" stroke-linejoin="round" stroke-width="5.0"/>
    <path d="M8.65 16.25 L9.3 15.8 17.9 15.8 17.9 20.75 9.3 20.75 8.65 20.25 8.15 19.55 8.15 16.95 8.65 16.25 M17.35 6.25 Q17.9 6.6 17.9 7.0 L17.9 10.75 4.5 10.75 3.75 10.3 Q3.25 9.85 3.25 9.6 L3.25 7.05 Q3.25 6.6 3.8 6.25 4.3 5.8 4.7 5.8 L16.5 5.8 17.35 6.25 M21.55 20.75 L22.25 21.2 22.75 21.9 22.75 24.5 22.3 25.2 21.6 25.7 17.9 25.7 17.9 20.75 21.55 20.75 M22.25 11.25 L22.75 11.95 22.75 14.55 22.3 15.3 21.55 15.8 17.9 15.8 17.9 10.75 21.6 10.75 22.25 11.25 M21.6 9.7 Q22.3 9.7 23.05 10.5 23.85 11.25 23.85 11.95 L23.85 14.55 Q23.85 15.3 23.05 16.1 22.3 16.85 21.6 16.85 L19.0 16.85 19.0 19.6 21.6 19.6 Q22.3 19.6 23.05 20.45 23.85 21.25 23.85 21.9 L23.85 24.5 Q23.85 25.2 23.05 26.05 22.25 26.85 21.6 26.85 L18.95 26.85 18.95 29.45 Q18.95 30.15 18.2 30.95 17.45 31.75 16.75 31.75 L4.5 31.75 Q3.8 31.75 3.0 30.95 2.2 30.15 2.2 29.45 L2.2 26.9 Q2.2 26.15 3.0 25.4 3.75 24.6 4.5 24.6 L16.75 24.6 16.75 21.85 9.3 21.85 Q8.65 21.85 7.85 21.0 7.05 20.25 7.05 19.55 L7.05 16.95 Q7.05 16.3 7.85 15.45 8.65 14.65 9.3 14.65 L16.75 14.65 16.75 11.9 4.5 11.9 Q3.8 11.9 3.0 11.1 2.2 10.3 2.2 9.6 L2.2 7.05 Q2.2 6.15 3.0 5.45 3.85 4.7 4.7 4.7 L16.5 4.7 Q17.1 4.7 18.0 5.3 18.95 6.05 18.95 7.0 L18.95 9.7 21.6 9.7 M23.25 11.95 Q23.25 11.55 22.6 10.9 22.0 10.3 21.6 10.3 L18.4 10.3 18.4 7.0 Q18.4 6.5 17.7 5.9 17.0 5.3 16.5 5.3 L4.7 5.3 Q4.1 5.3 3.45 5.9 2.75 6.5 2.75 7.05 L2.75 9.6 Q2.75 10.05 3.4 10.65 L4.5 11.25 17.4 11.25 17.4 15.25 9.3 15.25 Q8.9 15.25 8.25 15.85 7.7 16.55 7.7 16.95 L7.7 19.55 Q7.7 19.95 8.25 20.55 L9.3 21.25 17.4 21.25 17.4 25.15 4.5 25.15 Q4.05 25.15 3.4 25.8 2.75 26.45 2.75 26.9 L2.75 29.45 Q2.75 29.85 3.4 30.5 4.05 31.15 4.5 31.15 L16.7 31.15 Q17.1 31.15 17.75 30.5 L18.4 29.45 18.4 26.2 21.6 26.2 22.6 25.55 23.25 24.5 23.25 21.9 Q23.25 21.45 22.6 20.9 22.0 20.25 21.55 20.25 L18.4 20.25 18.4 16.3 21.55 16.3 22.6 15.6 23.25 14.55 23.25 11.95 M17.9 25.7 L17.9 29.45 17.4 30.2 16.7 30.65 4.5 30.65 3.75 30.15 Q3.25 29.7 3.25 29.45 L3.25 26.9 Q3.25 26.6 3.75 26.15 4.2 25.7 4.5 25.7 L17.9 25.7" fill="#00ffff" fill-rule="evenodd" stroke="none"/>
  </g>
</svg>
