<?xml version="1.0" encoding="UTF-8" standalone="no"?>
<svg xmlns:xlink="http://www.w3.org/1999/xlink" height="396.65px" width="160.4px" xmlns="http://www.w3.org/2000/svg">
  <g transform="matrix(1.0, 0.0, 0.0, 1.0, 80.2, 275.2)">
    <path d="M9.3 -8.05 L11.3 -7.7 Q9.75 -3.85 9.75 -3.1 L9.3 -8.05" fill="#e0f7f8" fill-rule="evenodd" stroke="none"/>
    <path d="M33.8 100.75 L24.7 99.65 26.9 109.05 Q36.25 133.3 3.75 102.5 -4.05 132.0 -10.0 115.55 L-15.25 101.2 -34.4 104.0 -32.75 102.7 -31.3 101.3 -29.95 99.75 -28.85 98.15 -27.9 96.35 -27.1 94.5 -26.5 92.5 -26.1 90.4 -26.15 90.4 -30.65 93.8 -42.95 88.6 -34.85 83.6 -45.75 78.0 -36.45 74.6 Q-34.4 77.45 -31.95 80.15 -17.9 95.35 2.0 95.35 21.85 95.35 35.95 80.15 48.3 66.75 49.8 48.55 L54.25 44.2 44.55 72.9 49.65 67.7 44.2 85.5 54.5 76.3 52.15 81.35 50.85 84.35 49.75 87.4 49.05 89.25 48.65 90.1 48.2 90.85 47.2 92.1 46.65 92.65 46.05 93.1 44.75 93.9 44.0 94.2 43.2 94.35 41.5 94.55 40.6 94.55 39.6 94.4 38.9 94.35 38.25 94.3 37.8 94.35 37.35 94.45 37.1 94.55 42.85 98.8 33.8 100.75 M-45.45 35.05 L-47.55 30.8 -45.15 33.15 -45.45 35.05 M-44.1 28.35 L-49.6 12.3 -42.25 22.8 -44.1 28.35 M46.45 23.3 L53.0 9.75 48.75 30.95 Q47.85 27.0 46.45 23.3" fill="#e1f7f8" fill-rule="evenodd" stroke="none"/>
    <path d="M-31.1 -19.8 L-29.15 -16.75 -29.3 -19.15 -27.75 -14.85 Q-25.25 -8.1 -25.25 -7.5 -24.35 -7.5 -24.35 -6.35 -22.35 -8.55 -18.45 -34.5 -14.45 -61.45 -13.6 -63.25 L-13.6 -64.3 Q-13.55 -63.05 -10.65 -51.5 -7.75 -39.8 -7.75 -38.6 L-6.75 -38.05 Q-6.25 -37.5 -5.75 -37.5 -5.5 -41.5 -2.7 -62.9 0.0 -83.5 0.0 -84.75 L0.0 -85.85 Q1.25 -77.6 5.55 -41.1 L9.3 -8.05 9.75 -3.1 Q9.75 -3.85 11.3 -7.7 L16.45 -6.3 17.0 -2.65 18.5 7.5 21.1 2.75 Q22.5 -0.15 23.35 -1.0 28.0 3.4 27.95 18.3 27.85 30.75 26.25 34.25 L26.25 35.35 31.15 30.5 36.0 25.75 38.0 25.75 38.0 37.5 Q37.55 38.5 35.3 51.15 L33.1 64.35 Q36.0 64.35 36.0 63.25 L37.0 63.25 Q28.15 83.15 16.5 89.6 9.65 93.35 -3.0 93.35 -8.05 93.35 -11.6 90.45 L-13.8 88.3 Q-22.75 85.15 -30.35 69.25 -39.0 51.25 -39.0 34.25 L-39.0 33.25 -37.5 37.6 Q-36.8 39.1 -35.0 40.75 L-34.1 40.75 Q-34.1 39.05 -35.05 29.95 L-36.0 19.75 -36.45 14.8 Q-36.55 11.75 -35.0 11.75 -33.45 11.75 -33.6 12.45 L-34.1 13.85 Q-33.2 12.5 -32.55 7.35 -32.05 3.15 -31.65 -3.5 -31.15 -12.6 -31.1 -19.8" fill="#ffffff" fill-rule="evenodd" stroke="none"/>
    <path d="M-34.4 104.0 L-40.0 105.25 -34.5 100.0 -48.65 98.0 -43.5 94.7 Q-48.6 93.65 -53.55 91.9 L-59.45 89.55 -52.9 82.15 Q-89.4 58.0 -60.0 65.0 L-44.05 68.45 -55.7 54.6 -44.4 61.9 Q-82.7 13.95 -50.0 40.0 -103.4 -29.7 -62.3 9.55 L-51.2 19.55 Q-80.45 -50.8 -53.25 -14.5 L-55.1 -23.8 -48.5 -15.55 -50.4 -33.05 -45.0 -22.6 Q-64.4 -90.0 -51.2 -64.55 L-36.4 -34.75 -39.25 -51.5 -35.8 -45.4 Q-45.8 -100.15 -37.65 -86.95 L-27.4 -68.6 -30.0 -96.3 -23.95 -84.0 -22.4 -97.15 -20.0 -88.65 Q-17.7 -166.4 -11.1 -118.65 L-10.0 -260.0 Q-6.75 -294.3 -3.45 -251.2 -1.0 -219.0 1.45 -143.6 L4.35 -160.8 Q11.5 -221.25 12.4 -75.3 L20.0 -110.0 Q30.4 -150.4 20.15 -44.65 L30.0 -60.0 Q55.2 -92.0 27.2 -28.45 L49.5 -55.15 44.55 -28.75 48.5 -35.45 46.6 -13.8 56.3 -29.8 48.95 4.3 65.35 -20.8 Q101.15 -72.25 50.6 44.05 L62.4 30.35 Q83.3 8.15 57.2 53.9 L64.2 46.15 52.3 69.95 63.8 61.6 Q86.7 47.9 57.35 85.5 L70.0 75.2 Q61.25 89.4 48.15 99.25 43.65 102.6 37.65 101.55 L33.8 100.75 42.85 98.8 37.1 94.55 37.35 94.45 37.8 94.35 38.25 94.3 38.9 94.35 39.6 94.4 40.6 94.55 41.5 94.55 43.2 94.35 44.0 94.2 44.75 93.9 46.05 93.1 46.65 92.65 47.2 92.1 48.2 90.85 48.65 90.1 49.05 89.25 49.75 87.4 50.85 84.35 52.15 81.35 54.5 76.3 44.2 85.5 49.65 67.7 44.55 72.9 54.25 44.2 49.8 48.55 50.0 43.35 Q50.0 36.85 48.75 30.95 L53.0 9.75 46.45 23.3 Q44.6 18.6 41.85 14.3 L40.0 -7.6 35.0 5.65 34.95 5.6 34.5 -30.8 24.0 -4.5 20.65 -34.55 18.2 -21.75 12.7 -65.2 7.25 -51.25 4.7 -125.6 0.7 -93.6 -4.8 -175.3 -9.1 -86.6 -13.05 -101.2 -16.65 -75.05 -20.65 -86.65 -21.45 -64.4 -25.8 -78.2 -24.15 -47.65 -32.2 -65.75 -29.3 -19.15 -29.15 -16.75 -31.1 -19.8 -40.65 -34.8 -36.3 -2.4 -43.5 -16.35 -40.3 6.0 -45.0 -2.4 -42.15 22.65 -42.25 22.8 -49.6 12.3 -44.1 28.35 -45.15 33.15 -47.55 30.8 -45.45 35.05 Q-46.0 39.05 -46.0 43.35 -46.0 61.05 -36.45 74.6 L-45.75 78.0 -34.85 83.6 -42.95 88.6 -30.65 93.8 -26.15 90.4 -26.1 90.4 -26.5 92.5 -27.1 94.5 -27.9 96.35 -28.85 98.15 -29.95 99.75 -31.3 101.3 -32.75 102.7 -34.4 104.0" fill="#f7fdff" fill-rule="evenodd" stroke="none"/>
    <path d="M-36.45 74.6 Q-46.0 61.05 -46.0 43.35 -46.0 39.05 -45.45 35.05 L-45.15 33.15 -44.1 28.35 -42.25 22.8 -42.15 22.65 -45.0 -2.4 -40.3 6.0 -43.5 -16.35 -36.3 -2.4 -40.65 -34.8 -31.1 -19.8 Q-31.15 -12.6 -31.65 -3.5 -32.05 3.15 -32.55 7.35 -33.2 12.5 -34.1 13.85 L-33.6 12.45 Q-33.45 11.75 -35.0 11.75 -36.55 11.75 -36.45 14.8 L-36.0 19.75 -35.05 29.95 Q-34.1 39.05 -34.1 40.75 L-35.0 40.75 Q-36.8 39.1 -37.5 37.6 L-39.0 33.25 -39.0 34.25 Q-39.0 51.25 -30.35 69.25 -22.75 85.15 -13.8 88.3 L-11.6 90.45 Q-8.05 93.35 -3.0 93.35 9.65 93.35 16.5 89.6 28.15 83.15 37.0 63.25 L36.0 63.25 Q36.0 64.35 33.1 64.35 L35.3 51.15 Q37.55 38.5 38.0 37.5 L38.0 25.75 36.0 25.75 31.15 30.5 26.25 35.35 26.25 34.25 Q27.85 30.75 27.95 18.3 28.0 3.4 23.35 -1.0 22.5 -0.15 21.1 2.75 L18.5 7.5 17.0 -2.65 16.45 -6.3 11.3 -7.7 9.3 -8.05 5.55 -41.1 Q1.25 -77.6 0.0 -85.85 L0.0 -84.75 Q0.0 -83.5 -2.7 -62.9 -5.5 -41.5 -5.75 -37.5 -6.25 -37.5 -6.75 -38.05 L-7.75 -38.6 Q-7.75 -39.8 -10.65 -51.5 -13.55 -63.05 -13.6 -64.3 L-13.6 -63.25 Q-14.45 -61.45 -18.45 -34.5 -22.35 -8.55 -24.35 -6.35 -24.35 -7.5 -25.25 -7.5 -25.25 -8.1 -27.75 -14.85 L-29.3 -19.15 -32.2 -65.75 -24.15 -47.65 -25.8 -78.2 -21.45 -64.4 -20.65 -86.65 -16.65 -75.05 -13.05 -101.2 -9.1 -86.6 -4.8 -175.3 0.7 -93.6 4.7 -125.6 7.25 -51.25 12.7 -65.2 18.2 -21.75 20.65 -34.55 24.0 -4.5 34.5 -30.8 34.95 5.6 35.0 5.65 40.0 -7.6 41.85 14.3 Q44.6 18.6 46.45 23.3 47.85 27.0 48.75 30.95 50.0 36.85 50.0 43.35 L49.8 48.55 Q48.3 66.75 35.95 80.15 21.85 95.35 2.0 95.35 -17.9 95.35 -31.95 80.15 -34.4 77.45 -36.45 74.6" fill="#c0edfc" fill-rule="evenodd" stroke="none"/>
  </g>
</svg>
