<?xml version="1.0" encoding="UTF-8" standalone="no"?>
<svg xmlns:xlink="http://www.w3.org/1999/xlink" height="246.5px" width="145.9px" xmlns="http://www.w3.org/2000/svg">
  <g transform="matrix(1.0, 0.0, 0.0, 1.0, 69.7, 141.05)">
    <path d="M40.6 40.8 L40.05 44.45 34.55 59.7 Q28.25 78.2 28.25 84.75 29.6 84.75 35.7 81.1 L43.75 76.25 Q38.4 86.1 28.3 91.75 19.7 96.6 11.6 96.6 L-3.05 96.05 -16.1 95.5 -21.75 95.6 Q-24.5 95.55 -26.35 94.55 -29.25 93.0 -32.6 87.25 L-35.0 82.6 -32.65 79.9 Q-29.75 76.9 -28.25 76.25 -29.45 74.8 -41.2 44.5 L-39.85 46.1 Q-39.85 42.4 -41.3 34.85 -42.9 26.5 -44.75 22.5 L-44.75 17.1 -41.3 20.35 Q-38.75 22.5 -38.5 22.5 -35.05 22.5 -34.45 17.85 -34.1 10.6 -33.1 5.35 -32.1 5.35 -32.1 4.35 -32.1 6.05 -27.25 12.75 -22.95 18.8 -21.35 20.35 -13.35 15.75 -12.2 -14.85 -11.6 -30.65 -12.6 -50.3 L-9.15 -39.9 Q-5.75 -30.1 -5.75 -25.75 -2.8 -27.4 -0.75 -31.55 0.85 -34.8 0.85 -36.5 L1.85 -36.5 Q1.85 -34.1 5.65 -22.25 9.3 -10.75 10.6 -8.5 12.25 -10.2 16.3 -21.3 20.35 -32.5 20.35 -35.35 L21.35 -35.35 Q21.35 5.35 22.35 22.5 23.4 20.05 26.6 14.75 30.4 8.5 32.1 7.5 L32.1 29.0 Q31.25 30.65 28.9 38.0 26.25 46.2 26.25 48.25 29.85 48.25 34.55 45.15 38.05 42.9 39.85 40.75 L40.35 40.6 40.6 40.8" fill="#ffffff" fill-rule="evenodd" stroke="none"/>
    <path d="M-26.35 -10.5 L-36.15 -104.35 -32.35 -96.8 -30.55 -97.55 -32.15 -141.05 -27.4 -122.45 -27.15 -121.7 -26.75 -121.1 -26.2 -120.55 -25.65 -120.1 -24.0 -127.0 -22.65 -120.15 -21.25 -113.35 -19.8 -106.55 -18.15 -99.8 -17.5 -97.7 -16.9 -96.75 -16.05 -95.6 -13.9 -100.85 -7.95 -70.95 -6.5 -70.15 -6.35 -70.4 -5.45 -71.45 -4.65 -72.5 -4.0 -73.6 -3.5 -74.9 Q-3.1 -76.1 -2.85 -77.4 L-2.7 -78.7 -2.8 -86.55 -3.2 -93.0 -4.4 -105.95 0.65 -87.6 1.65 -88.75 2.55 -89.95 3.35 -91.25 4.05 -92.55 4.7 -93.95 5.25 -95.4 5.7 -96.85 6.05 -98.4 7.4 -106.35 7.85 -110.3 8.3 -118.3 8.3 -122.3 7.9 -130.4 13.8 -95.2 18.1 -109.95 21.25 -61.1 30.8 -90.4 28.4 -59.05 36.1 -76.85 29.75 -45.55 35.45 -53.5 33.5 -35.45 39.9 -46.4 33.35 -13.2 59.85 -67.0 58.8 -56.0 76.2 -96.8 65.0 -45.85 73.35 -60.0 48.05 12.9 56.15 5.2 43.5 37.6 49.3 28.8 42.9 50.35 67.3 21.4 58.8 37.6 66.8 31.2 53.0 68.8 57.3 63.2 49.9 77.8 55.25 51.3 53.5 53.85 56.65 40.4 37.45 62.0 40.05 44.45 40.6 40.8 43.8 18.95 39.95 21.6 54.5 -23.6 50.5 -18.15 55.6 -42.8 29.45 4.4 32.35 -23.15 28.7 -18.0 30.85 -31.4 26.9 -27.6 27.3 -50.85 24.3 -46.8 23.25 -58.05 17.0 -50.85 Q14.25 -52.8 13.45 -56.95 9.65 -76.55 9.85 -96.4 L9.7 -93.15 Q9.4 -86.15 7.15 -79.7 6.6 -78.15 5.1 -77.45 L4.45 -77.1 3.7 -76.95 0.25 -80.8 0.1 -78.85 Q-0.6 -69.75 -4.7 -61.6 -5.75 -59.55 -8.15 -59.15 L-9.45 -59.05 -23.2 -101.55 Q-22.0 -93.75 -20.2 -86.05 -17.65 -75.0 -21.05 -64.55 -21.3 -63.7 -21.7 -62.9 L-24.65 -65.15 -22.6 -57.15 Q-19.7 -45.4 -20.4 -33.15 L-21.85 -32.95 -25.25 -37.9 -23.7 -28.1 Q-21.5 -13.55 -21.85 1.1 L-26.35 -10.5 M-60.15 27.35 L-69.6 0.75 -63.2 7.2 -69.7 -14.4 -59.6 -4.75 -60.3 -12.8 -53.7 -8.8 -59.5 -36.0 -57.6 -31.6 -55.7 -27.35 -53.75 -23.25 Q-51.55 -18.55 -47.9 -15.2 L-47.15 -27.15 -45.5 -25.05 -44.85 -24.3 -44.2 -23.65 Q-42.5 -22.1 -40.4 -21.85 L-39.1 -21.7 -37.0 -23.2 -42.1 -42.4 -26.5 -8.0 -34.9 -17.2 -33.2 -10.55 -41.95 -17.15 -40.35 -5.2 -50.85 -13.6 -48.65 -2.75 -53.7 -5.75 -49.75 6.4 -62.1 -0.8 -55.55 18.8 -62.45 14.0 -60.15 27.35" fill="#f7fdff" fill-rule="evenodd" stroke="none"/>
    <path d="M-26.35 -10.5 L-21.85 1.1 Q-21.5 -13.55 -23.7 -28.1 L-25.25 -37.9 -21.85 -32.95 -20.4 -33.15 Q-19.7 -45.4 -22.6 -57.15 L-24.65 -65.15 -21.7 -62.9 Q-21.3 -63.7 -21.05 -64.55 -17.65 -75.0 -20.2 -86.05 -22.0 -93.75 -23.2 -101.55 L-9.45 -59.05 -8.15 -59.15 Q-5.75 -59.55 -4.7 -61.6 -0.6 -69.75 0.1 -78.85 L0.25 -80.8 3.7 -76.95 4.45 -77.1 5.1 -77.45 Q6.6 -78.15 7.15 -79.7 9.4 -86.15 9.7 -93.15 L9.85 -96.4 Q9.65 -76.55 13.45 -56.95 14.25 -52.8 17.0 -50.85 L23.25 -58.05 24.3 -46.8 27.3 -50.85 26.9 -27.6 30.85 -31.4 28.7 -18.0 32.35 -23.15 29.45 4.4 55.6 -42.8 50.5 -18.15 54.5 -23.6 39.95 21.6 43.8 18.95 40.6 40.8 40.35 40.6 39.85 40.75 Q38.05 42.9 34.55 45.15 29.85 48.25 26.25 48.25 26.25 46.2 28.9 38.0 31.25 30.65 32.1 29.0 L32.1 7.5 Q30.4 8.5 26.6 14.75 23.4 20.05 22.35 22.5 21.35 5.35 21.35 -35.35 L20.35 -35.35 Q20.35 -32.5 16.3 -21.3 12.25 -10.2 10.6 -8.5 9.3 -10.75 5.65 -22.25 1.85 -34.1 1.85 -36.5 L0.85 -36.5 Q0.85 -34.8 -0.75 -31.55 -2.8 -27.4 -5.75 -25.75 -5.75 -30.1 -9.15 -39.9 L-12.6 -50.3 Q-11.6 -30.65 -12.2 -14.85 -13.35 15.75 -21.35 20.35 -22.95 18.8 -27.25 12.75 -32.1 6.05 -32.1 4.35 -32.1 5.35 -33.1 5.35 -34.1 10.6 -34.45 17.85 -35.05 22.5 -38.5 22.5 -38.75 22.5 -41.3 20.35 L-44.75 17.1 -44.75 22.5 Q-42.9 26.5 -41.3 34.85 -39.85 42.4 -39.85 46.1 L-41.2 44.5 Q-29.45 74.8 -28.25 76.25 -29.75 76.9 -32.65 79.9 L-35.0 82.6 -32.6 87.25 Q-29.25 93.0 -26.35 94.55 -24.5 95.55 -21.75 95.6 L-16.1 95.5 -3.05 96.05 11.6 96.6 Q19.7 96.6 28.3 91.75 38.4 86.1 43.75 76.25 L35.7 81.1 Q29.6 84.75 28.25 84.75 28.25 78.2 34.55 59.7 L40.05 44.45 37.45 62.0 56.65 40.4 53.5 53.85 55.25 51.3 49.9 77.8 61.9 66.55 46.5 92.75 49.3 91.85 52.05 91.55 58.55 91.9 Q31.5 106.15 1.05 105.4 -35.4 103.95 -59.5 76.8 L-43.55 78.15 -52.3 58.4 -45.0 65.6 -60.15 27.35 -62.45 14.0 -55.55 18.8 -62.1 -0.8 -49.75 6.4 -53.7 -5.75 -48.65 -2.75 -50.85 -13.6 -40.35 -5.2 -41.95 -17.15 -33.2 -10.55 -34.9 -17.2 -26.5 -8.0 -26.35 -10.5 M-32.1 4.35 L-32.1 4.3 -32.1 4.35" fill="#c0edfc" fill-rule="evenodd" stroke="none"/>
  </g>
</svg>
