<?xml version="1.0" encoding="UTF-8" standalone="no"?>
<svg xmlns:xlink="http://www.w3.org/1999/xlink" height="190.85px" width="159.45px" xmlns="http://www.w3.org/2000/svg">
  <g transform="matrix(1.0, 0.0, 0.0, 1.0, 80.25, 89.7)">
    <path d="M-5.75 39.85 Q-5.75 41.15 -3.1 47.1 0.05 54.2 0.85 56.85 L1.85 56.85 Q1.85 55.65 6.25 43.5 10.6 31.4 10.6 30.0 L11.6 30.0 Q12.25 34.95 12.5 46.35 L12.6 67.6 12.6 68.75 Q13.6 67.65 19.1 57.25 24.55 46.9 26.25 45.0 L28.25 45.0 28.25 51.5 Q26.35 55.45 24.2 65.6 22.35 74.35 22.35 76.25 23.25 76.25 25.75 75.15 28.3 74.0 29.6 74.0 31.15 74.0 32.8 75.65 34.45 77.25 35.0 77.25 35.0 78.0 31.35 83.25 27.7 88.5 25.25 91.25 L25.45 91.25 Q18.5 92.7 6.2 93.85 L-17.55 95.5 Q-19.05 94.85 -22.8 91.7 L-27.15 87.9 -30.25 84.75 -30.25 80.5 Q-29.5 80.5 -28.25 81.15 -27.0 81.8 -26.25 82.6 L-25.25 82.6 -25.25 75.1 Q-26.2 71.4 -28.25 65.75 L-30.25 60.1 Q-24.8 64.5 -21.8 66.35 -17.95 68.75 -15.6 68.75 -12.45 68.75 -11.35 67.55 -10.45 66.5 -10.15 63.25 -8.85 48.7 -6.75 40.75 -5.75 40.75 -5.75 39.85" fill="#ffffff" fill-rule="evenodd" stroke="none"/>
    <path d="M-3.55 18.8 L-1.1 -26.8 0.0 15.15 Q2.9 -101.15 12.1 -88.45 16.95 -51.15 17.8 -35.25 L23.7 -67.95 20.0 -19.0 32.2 -62.55 23.5 -6.75 33.55 -34.85 22.65 19.15 35.9 -13.6 29.9 23.95 44.85 -8.9 Q60.0 -35.25 60.0 -34.15 76.75 -49.65 32.95 63.8 L40.45 55.5 35.0 68.15 58.75 45.8 41.9 68.6 42.35 67.65 32.35 75.05 33.75 67.55 30.9 69.9 44.3 7.05 28.7 30.55 28.25 24.65 17.05 47.75 19.45 1.1 16.55 12.05 16.55 -25.55 1.2 33.7 -1.9 11.25 -3.55 18.8 M41.85 68.7 L79.2 34.0 58.35 60.65 75.4 48.45 55.2 71.85 69.75 60.0 50.6 80.95 64.25 78.4 Q76.25 74.95 53.35 90.8 L73.35 90.4 69.0 92.2 64.95 93.5 56.75 95.95 Q46.4 98.9 35.75 99.8 L47.35 91.4 43.35 90.75 49.6 84.4 36.65 86.7 52.55 64.9 38.5 75.95 41.85 68.7 M-22.3 101.15 L-56.65 98.8 -43.75 94.8 -60.0 90.0 Q-72.2 87.75 -75.1 82.1 -78.05 76.45 -49.35 81.2 L-59.0 77.9 -43.9 77.25 -61.7 64.8 -40.55 73.95 -51.0 57.85 -40.85 65.85 Q-89.7 -15.85 -78.0 -16.95 -59.8 -0.25 -48.1 16.75 L-66.4 -38.65 -29.4 46.4 -31.45 36.2 -23.25 45.2 -30.85 24.65 -22.55 34.8 -33.6 -0.4 -20.7 21.2 -27.55 -20.2 -26.85 -20.2 -17.8 9.6 -20.25 -20.2 Q-20.6 -29.7 -20.0 -20.0 -20.8 -40.2 -19.7 -57.65 -18.6 -75.1 -4.65 24.55 L-7.15 37.85 -15.05 -12.5 -13.6 35.4 -19.35 26.3 -16.0 46.65 -22.15 37.2 -15.5 58.5 -27.15 44.95 -22.85 60.3 -40.35 32.25 -36.35 44.6 -46.75 30.55 -39.2 46.0 -54.6 30.55 -33.8 70.4 -42.35 67.65 -36.55 75.5 -46.25 79.95 -40.8 82.05 -49.2 87.75 -18.15 99.85 -22.3 101.15 M15.85 -24.5 L15.65 -24.8 15.6 -23.2 15.85 -24.5" fill="#f7fdff" fill-rule="evenodd" stroke="none"/>
    <path d="M41.9 68.6 L41.85 68.7 38.5 75.95 52.55 64.9 36.65 86.7 49.6 84.4 43.35 90.75 47.35 91.4 35.75 99.8 -22.3 101.15 -18.15 99.85 -49.2 87.75 -40.8 82.05 -46.25 79.95 -36.55 75.5 -42.35 67.65 -33.8 70.4 -54.6 30.55 -39.2 46.0 -46.75 30.55 -36.35 44.6 -40.35 32.25 -22.85 60.3 -27.15 44.95 -15.5 58.5 -22.15 37.2 -16.0 46.65 -19.35 26.3 -13.6 35.4 -15.05 -12.5 -7.15 37.85 -4.65 24.55 -4.3 27.35 -3.55 18.8 -1.9 11.25 1.2 33.7 16.55 -25.55 16.55 12.05 19.45 1.1 17.05 47.75 28.25 24.65 28.7 30.55 44.3 7.05 30.9 69.9 33.75 67.55 32.35 75.05 42.35 67.65 41.9 68.6 M-5.75 39.85 Q-5.75 40.75 -6.75 40.75 -8.85 48.7 -10.15 63.25 -10.45 66.5 -11.35 67.55 -12.45 68.75 -15.6 68.75 -17.95 68.75 -21.8 66.35 -24.8 64.5 -30.25 60.1 L-28.25 65.75 Q-26.2 71.4 -25.25 75.1 L-25.25 82.6 -26.25 82.6 Q-27.0 81.8 -28.25 81.15 -29.5 80.5 -30.25 80.5 L-30.25 84.75 -27.15 87.9 -22.8 91.7 Q-19.05 94.85 -17.55 95.5 L6.2 93.85 Q18.5 92.7 25.45 91.25 L25.25 91.25 Q27.7 88.5 31.35 83.25 35.0 78.0 35.0 77.25 34.45 77.25 32.8 75.65 31.15 74.0 29.6 74.0 28.3 74.0 25.75 75.15 23.25 76.25 22.35 76.25 22.35 74.35 24.2 65.6 26.35 55.45 28.25 51.5 L28.25 45.0 26.25 45.0 Q24.55 46.9 19.1 57.25 13.6 67.65 12.6 68.75 L12.6 67.6 12.5 46.35 Q12.25 34.95 11.6 30.0 L10.6 30.0 Q10.6 31.4 6.25 43.5 1.85 55.65 1.85 56.85 L0.85 56.85 Q0.05 54.2 -3.1 47.1 -5.75 41.15 -5.75 39.85 L-5.75 39.8 -5.75 39.85" fill="#c0edfc" fill-rule="evenodd" stroke="none"/>
  </g>
</svg>
