<?xml version="1.0" encoding="UTF-8" standalone="no"?>
<svg xmlns:xlink="http://www.w3.org/1999/xlink" height="36.75px" width="26.05px" xmlns="http://www.w3.org/2000/svg">
  <g transform="matrix(1.0, 0.0, 0.0, 1.0, 0.0, 0.0)">
    <path d="M0.0 0.0 L26.0 0.0 26.0 36.75 0.0 36.75 0.0 0.0" fill="#cccc00" fill-opacity="0.0" fill-rule="evenodd" stroke="none"/>
    <path d="M23.3 20.15 Q24.05 20.95 24.05 21.65 L24.05 24.25 Q24.05 24.95 23.3 25.8 22.45 26.6 21.8 26.6 L19.2 26.6 19.2 29.2 Q19.2 29.9 18.4 30.7 17.65 31.5 17.0 31.5 L4.75 31.5 Q4.05 31.5 3.25 30.7 2.45 29.9 2.45 29.2 L2.45 26.65 Q2.45 25.9 3.25 25.15 4.0 24.35 4.75 24.35 L17.0 24.35 17.0 21.6 4.75 21.6 Q4.05 21.6 3.25 20.8 2.45 20.0 2.45 19.3 L2.45 6.85 Q2.45 6.0 3.25 5.25 4.1 4.5 4.95 4.5 L16.7 4.5 Q17.5 4.5 18.4 5.25 19.2 6.0 19.2 6.8 L19.2 9.45 Q19.2 10.1 18.4 10.95 17.65 11.7 17.0 11.7 L9.55 11.7 9.55 14.45 17.0 14.45 Q17.65 14.45 18.4 15.2 19.2 16.05 19.2 16.75 L19.2 19.4 21.8 19.4 Q22.5 19.4 23.3 20.15 M16.7 5.6 Q17.05 5.6 17.55 6.05 18.1 6.45 18.1 6.8 L18.1 9.45 17.65 10.1 16.95 10.55 8.45 10.55 8.45 15.55 16.95 15.55 17.6 16.0 18.1 16.75 18.1 20.5 4.75 20.5 4.0 20.0 3.55 19.3 3.55 6.85 Q3.55 6.45 4.05 6.05 4.55 5.6 4.95 5.6 L16.7 5.6 M21.8 20.5 L22.45 20.95 22.95 21.65 22.95 24.25 22.5 24.95 21.8 25.45 18.1 25.45 18.1 20.5 21.8 20.5 M23.45 21.65 L22.85 20.65 Q22.2 20.0 21.8 20.0 L18.6 20.0 18.6 16.75 17.95 15.65 Q17.35 15.05 16.95 15.05 L8.95 15.05 8.95 11.05 16.95 11.05 Q17.4 11.05 17.95 10.5 L18.6 9.45 18.6 6.8 Q18.6 6.3 17.95 5.7 17.25 5.15 16.7 5.15 L4.95 5.15 Q4.4 5.15 3.7 5.7 3.05 6.3 3.05 6.85 L3.05 19.3 Q3.05 19.75 3.65 20.4 4.3 21.0 4.75 21.0 L17.6 21.0 17.6 24.95 4.75 24.95 Q4.3 24.95 3.65 25.55 3.05 26.2 3.05 26.65 L3.05 29.2 Q3.05 29.6 3.65 30.25 4.3 30.85 4.75 30.85 L16.95 30.85 Q17.35 30.85 17.95 30.25 L18.6 29.2 18.6 25.95 21.8 25.95 Q22.2 25.95 22.85 25.3 23.45 24.65 23.45 24.25 L23.45 21.65 M18.1 25.45 L18.1 29.2 17.6 29.9 16.95 30.35 4.75 30.35 4.0 29.9 3.55 29.2 3.55 26.65 Q3.55 26.35 4.0 25.9 L4.75 25.45 18.1 25.45" fill="#00ffff" fill-rule="evenodd" stroke="none"/>
    <path d="M23.3 20.15 Q22.5 19.4 21.8 19.4 L19.2 19.4 19.2 16.75 Q19.2 16.05 18.4 15.2 17.65 14.45 17.0 14.45 L9.55 14.45 9.55 11.7 17.0 11.7 Q17.65 11.7 18.4 10.95 19.2 10.1 19.2 9.45 L19.2 6.8 Q19.2 6.0 18.4 5.25 17.5 4.5 16.7 4.5 L4.95 4.5 Q4.1 4.5 3.25 5.25 2.45 6.0 2.45 6.85 L2.45 19.3 Q2.45 20.0 3.25 20.8 4.05 21.6 4.75 21.6 L17.0 21.6 17.0 24.35 4.75 24.35 Q4.0 24.35 3.25 25.15 2.45 25.9 2.45 26.65 L2.45 29.2 Q2.45 29.9 3.25 30.7 4.05 31.5 4.75 31.5 L17.0 31.5 Q17.65 31.5 18.4 30.7 19.2 29.9 19.2 29.2 L19.2 26.6 21.8 26.6 Q22.45 26.6 23.3 25.8 24.05 24.95 24.05 24.25 L24.05 21.65 Q24.05 20.95 23.3 20.15 Z" fill="none" stroke="#003366" stroke-linecap="round" stroke-linejoin="round" stroke-width="4.0"/>
    <path d="M16.7 5.6 Q17.05 5.6 17.55 6.05 18.1 6.45 18.1 6.8 L18.1 9.45 17.65 10.1 16.95 10.55 8.45 10.55 8.45 15.55 16.95 15.55 17.6 16.0 18.1 16.75 18.1 20.5 4.75 20.5 4.0 20.0 3.55 19.3 3.55 6.85 Q3.55 6.45 4.05 6.05 4.55 5.6 4.95 5.6 L16.7 5.6 M21.8 20.5 L22.45 20.95 22.95 21.65 22.95 24.25 22.5 24.95 21.8 25.45 18.1 25.45 18.1 20.5 21.8 20.5 M23.3 20.15 Q24.05 20.95 24.05 21.65 L24.05 24.25 Q24.05 24.95 23.3 25.8 22.45 26.6 21.8 26.6 L19.2 26.6 19.2 29.2 Q19.2 29.9 18.4 30.7 17.65 31.5 17.0 31.5 L4.75 31.5 Q4.05 31.5 3.25 30.7 2.45 29.9 2.45 29.2 L2.45 26.65 Q2.45 25.9 3.25 25.15 4.0 24.35 4.75 24.35 L17.0 24.35 17.0 21.6 4.75 21.6 Q4.05 21.6 3.25 20.8 2.45 20.0 2.45 19.3 L2.45 6.85 Q2.45 6.0 3.25 5.25 4.1 4.5 4.95 4.5 L16.7 4.5 Q17.5 4.5 18.4 5.25 19.2 6.0 19.2 6.8 L19.2 9.45 Q19.2 10.1 18.4 10.95 17.65 11.7 17.0 11.7 L9.55 11.7 9.55 14.45 17.0 14.45 Q17.65 14.45 18.4 15.2 19.2 16.05 19.2 16.75 L19.2 19.4 21.8 19.4 Q22.5 19.4 23.3 20.15 M23.45 21.65 L22.85 20.65 Q22.2 20.0 21.8 20.0 L18.6 20.0 18.6 16.75 17.95 15.65 Q17.35 15.05 16.95 15.05 L8.95 15.05 8.95 11.05 16.95 11.05 Q17.4 11.05 17.95 10.5 L18.6 9.45 18.6 6.8 Q18.6 6.3 17.95 5.7 17.25 5.15 16.7 5.15 L4.95 5.15 Q4.4 5.15 3.7 5.7 3.05 6.3 3.05 6.85 L3.05 19.3 Q3.05 19.75 3.65 20.4 4.3 21.0 4.75 21.0 L17.6 21.0 17.6 24.95 4.75 24.95 Q4.3 24.95 3.65 25.55 3.05 26.2 3.05 26.65 L3.05 29.2 Q3.05 29.6 3.65 30.25 4.3 30.85 4.75 30.85 L16.95 30.85 Q17.35 30.85 17.95 30.25 L18.6 29.2 18.6 25.95 21.8 25.95 Q22.2 25.95 22.85 25.3 23.45 24.65 23.45 24.25 L23.45 21.65 M18.1 25.45 L18.1 29.2 17.6 29.9 16.95 30.35 4.75 30.35 4.0 29.9 3.55 29.2 3.55 26.65 Q3.55 26.35 4.0 25.9 L4.75 25.45 18.1 25.45" fill="#00ffff" fill-rule="evenodd" stroke="none"/>
  </g>
</svg>
