<?xml version="1.0" encoding="UTF-8" standalone="no"?>
<svg xmlns:xlink="http://www.w3.org/1999/xlink" height="148.55px" width="148.5px" xmlns="http://www.w3.org/2000/svg">
  <g transform="matrix(1.0, 0.0, 0.0, 1.0, 0.0, -0.05)">
    <path d="M145.2 62.9 L145.25 62.6 Q144.0 51.05 139.05 38.95 L136.45 33.5 Q141.55 41.25 144.55 50.25 145.8 54.15 146.7 58.25 L147.1 60.35 147.15 60.45 147.2 60.9 147.3 61.5 147.6 63.3 147.6 63.4 147.45 63.6 145.25 62.95 145.2 62.9 M136.2 107.6 L136.25 107.5 136.95 106.15 Q139.0 102.2 140.5 98.15 L143.25 90.45 144.75 83.65 141.6 80.2 141.75 79.4 141.75 79.2 Q142.1 76.75 142.0 73.05 L141.95 72.15 141.7 68.05 143.4 68.45 143.4 68.5 Q144.4 73.2 143.75 77.95 L143.65 78.95 143.55 79.65 144.8 81.85 145.5 83.15 145.6 83.25 145.6 83.3 145.4 84.25 145.65 84.65 145.45 84.4 145.1 85.6 142.85 93.3 142.1 95.6 141.3 97.85 140.55 99.9 139.7 101.8 138.65 104.05 138.0 105.35 136.35 108.4 136.2 107.6" fill="url(#gradient0)" fill-rule="evenodd" stroke="none"/>
    <path d="M136.45 33.5 L139.05 38.95 Q144.0 51.05 145.25 62.6 L145.2 62.9 145.2 62.95 144.2 64.35 141.65 67.55 141.65 67.7 141.7 68.05 141.95 72.15 142.0 73.05 Q142.1 76.75 141.75 79.2 L141.75 79.4 141.6 80.2 144.75 83.65 143.25 90.45 140.5 98.15 Q139.0 102.2 136.95 106.15 L136.25 107.5 136.2 107.6 136.15 107.3 135.75 105.65 135.7 105.55 135.4 104.5 Q136.65 102.15 137.5 99.65 L138.0 98.05 139.7 92.55 Q140.65 89.45 141.2 86.45 L141.25 86.3 141.35 85.85 138.75 82.6 Q139.2 75.85 138.85 69.75 L138.45 65.55 141.05 61.65 141.05 61.6 Q136.35 35.95 115.25 20.0 L111.7 17.45 108.1 15.25 Q98.35 9.55 87.65 7.5 76.75 5.25 64.85 6.95 L60.7 7.65 Q35.6 12.5 19.9 33.25 3.0 55.75 6.9 83.65 7.75 89.95 9.65 95.7 11.35 101.1 13.9 106.1 17.25 112.6 22.05 118.25 26.9 123.8 33.15 128.55 46.05 138.25 60.7 141.15 71.65 143.3 83.6 141.65 111.45 137.75 128.5 115.3 132.0 110.7 134.6 105.85 L134.65 105.85 135.6 108.6 135.6 108.65 135.8 109.2 135.8 109.25 135.85 109.3 135.9 109.5 136.05 110.05 137.1 113.75 137.05 113.8 135.65 115.85 133.4 119.05 Q114.85 143.55 84.45 147.8 72.1 149.5 60.7 147.5 44.05 144.5 29.45 133.5 L26.65 131.3 Q4.8 113.25 0.8 84.5 -3.45 54.05 15.0 29.5 30.65 8.95 54.8 2.65 L56.05 2.35 60.7 1.4 64.0 0.9 72.05 0.1 73.45 0.05 Q98.25 -0.45 118.95 15.05 L120.2 16.1 Q130.0 23.8 136.45 33.5 M148.1 67.45 L148.15 67.6 148.25 69.0 148.3 69.55 146.75 71.1 145.95 71.6 145.3 71.4 Q145.05 71.15 145.15 70.75 145.2 70.3 145.6 69.95 L148.1 67.45 M148.45 71.85 L148.5 74.1 147.0 75.55 146.2 76.05 145.55 75.85 Q145.3 75.6 145.4 75.2 145.45 74.75 145.85 74.4 L148.45 71.85 M148.45 76.85 L148.4 78.5 148.25 80.9 146.5 80.0 146.8 78.15 148.45 76.85" fill="#002e58" fill-rule="evenodd" stroke="none"/>
    <path d="M147.45 63.6 L147.6 63.4 147.65 63.65 147.7 64.05 148.05 66.9 148.1 67.45 145.6 69.95 Q145.2 70.3 145.15 70.75 145.05 71.15 145.3 71.4 L145.95 71.6 146.75 71.1 148.3 69.55 148.45 71.85 145.85 74.4 Q145.45 74.75 145.4 75.2 145.3 75.6 145.55 75.85 L146.2 76.05 147.0 75.55 148.5 74.1 148.5 74.35 148.45 76.85 146.8 78.15 146.5 80.0 148.25 80.9 147.6 86.4 147.55 86.55 Q145.5 99.75 138.5 111.5 L137.15 113.65 137.1 113.75 136.05 110.05 136.35 110.95 136.55 111.5 136.65 111.95 136.75 112.05 136.85 112.45 136.95 113.05 136.9 112.55 136.85 112.05 136.8 111.95 136.75 111.2 136.75 111.05 136.4 108.7 136.35 108.5 136.35 108.4 138.0 105.35 138.65 104.05 139.7 101.8 140.55 99.9 141.3 97.85 142.1 95.6 142.85 93.3 145.1 85.6 145.45 84.4 145.65 84.65 145.4 84.25 145.6 83.3 145.6 83.25 145.5 83.15 144.8 81.85 143.55 79.65 143.65 78.95 143.75 77.95 Q144.4 73.2 143.4 68.5 L143.4 68.45 147.45 63.6" fill="url(#gradient1)" fill-rule="evenodd" stroke="none"/>
    <path d="M145.2 62.9 L145.25 62.95 147.45 63.6 143.4 68.45 141.7 68.05 141.65 67.7 144.2 64.35 145.2 62.95 145.2 62.9" fill="#80dff5" fill-rule="evenodd" stroke="none"/>
    <path d="M138.45 65.55 L138.85 69.75 Q139.2 75.85 138.75 82.6 L137.7 81.3 Q138.05 76.65 137.9 71.65 L137.55 67.0 138.45 65.55" fill="#dde5ea" fill-rule="evenodd" stroke="none"/>
    <path d="M141.65 67.7 L141.65 67.55 144.2 64.35 141.65 67.7" fill="url(#gradient2)" fill-rule="evenodd" stroke="none"/>
    <path d="M136.05 110.05 L135.9 109.5 135.85 109.3 135.8 109.25 135.8 109.2 135.6 108.65 135.6 108.6 134.65 105.85 134.4 105.15 134.6 104.85 134.75 104.5 135.15 103.7 Q137.55 98.8 139.35 91.15 L140.5 85.65 138.75 83.85 137.5 82.65 137.55 82.6 137.35 82.45 136.75 81.85 Q137.45 74.9 136.9 68.65 L136.5 66.2 139.35 63.3 141.05 61.65 138.45 65.55 137.55 67.0 137.9 71.65 Q138.05 76.65 137.7 81.3 L138.75 82.6 141.35 85.85 141.25 86.3 141.2 86.45 Q140.65 89.45 139.7 92.55 L138.0 98.05 137.5 99.65 Q136.65 102.15 135.4 104.5 L135.7 105.55 135.75 105.65 136.15 107.3 136.2 107.6 136.35 108.4 136.35 108.5 136.4 108.7 136.75 111.05 136.75 111.2 136.8 111.95 136.85 112.05 136.9 112.55 136.95 113.05 136.85 112.45 136.75 112.05 136.65 111.95 136.55 111.5 136.35 110.95 136.05 110.05" fill="url(#gradient3)" fill-rule="evenodd" stroke="none"/>
    <path d="M11.4 34.85 L11.45 34.8 12.85 32.75 15.1 29.55 Q19.05 24.35 23.5 20.1 L23.5 29.05 20.0 33.3 Q16.5 37.9 13.9 42.75 L13.85 42.75 12.9 40.0 12.9 39.95 12.7 39.4 12.7 39.35 12.65 39.3 12.45 38.55 11.4 34.85 M7.45 86.95 L7.45 87.0 Q10.95 106.05 23.5 119.8 L23.5 128.45 Q16.85 122.3 12.05 115.1 L9.45 109.65 Q4.5 97.55 3.25 86.0 L3.3 85.7 3.3 85.65 4.3 84.25 6.85 81.05 6.85 80.9 6.8 80.55 6.55 76.45 6.5 75.55 Q6.4 71.85 6.75 69.4 L6.75 69.2 6.9 68.4 3.75 64.95 5.25 58.15 Q6.4 54.35 8.0 50.45 9.5 46.4 11.55 42.45 L12.25 41.1 12.3 41.0 12.35 41.3 12.75 42.95 12.8 43.05 13.1 44.1 Q11.85 46.45 11.0 48.95 L10.5 50.55 8.8 56.05 Q7.85 59.15 7.3 62.15 L7.25 62.3 7.15 62.75 9.75 66.0 Q9.3 72.75 9.65 78.85 L10.05 83.05 7.45 86.95 M0.4 81.15 L0.35 81.0 0.25 79.6 0.2 79.05 1.75 77.5 Q2.1 77.1 2.55 77.0 L3.2 77.2 Q3.45 77.45 3.35 77.85 L2.9 78.65 0.4 81.15 M0.05 76.75 L0.0 74.5 1.5 73.05 Q1.85 72.65 2.3 72.55 2.7 72.5 2.95 72.75 3.2 73.0 3.1 73.4 L2.65 74.2 0.05 76.75 M0.05 71.75 L0.1 70.1 0.25 67.7 2.0 68.6 1.7 70.45 0.05 71.75" fill="#002e58" fill-rule="evenodd" stroke="none"/>
    <path d="M0.9 85.2 L0.85 84.95 0.8 84.55 0.45 81.7 0.4 81.15 2.9 78.65 3.35 77.85 Q3.45 77.45 3.2 77.2 L2.55 77.0 Q2.1 77.1 1.75 77.5 L0.2 79.05 0.05 76.75 2.65 74.2 3.1 73.4 Q3.2 73.0 2.95 72.75 2.7 72.5 2.3 72.55 1.85 72.65 1.5 73.05 L0.0 74.5 0.0 74.25 0.05 71.75 1.7 70.45 2.0 68.6 0.25 67.7 Q0.45 64.9 0.9 62.2 L0.95 62.05 Q3.0 48.85 10.0 37.1 L11.35 34.95 11.4 34.85 12.45 38.55 12.15 37.65 11.95 37.1 11.85 36.65 11.75 36.55 11.65 36.15 11.55 35.55 11.6 36.05 11.65 36.55 11.7 36.65 11.75 37.4 11.75 37.55 12.1 39.9 12.15 40.1 12.15 40.2 10.5 43.25 9.85 44.55 8.8 46.8 7.95 48.7 7.2 50.75 6.4 53.0 5.65 55.3 3.4 63.0 3.05 64.2 2.85 63.95 3.1 64.35 2.9 65.3 2.9 65.35 3.0 65.45 3.7 66.75 4.95 68.95 4.85 69.65 4.75 70.65 Q4.1 75.4 5.1 80.1 L5.1 80.15 1.05 85.0 0.9 85.2" fill="url(#gradient4)" fill-rule="evenodd" stroke="none"/>
    <path d="M13.85 42.75 L14.1 43.45 13.9 43.75 13.75 44.1 13.35 44.9 Q10.95 49.8 9.15 57.45 L8.0 62.95 9.75 64.75 11.0 65.95 10.95 66.0 11.15 66.15 11.75 66.75 Q11.05 73.7 11.6 79.95 L12.0 82.4 9.15 85.3 7.45 86.95 10.05 83.05 10.95 81.6 10.6 76.95 Q10.45 71.95 10.8 67.3 L9.75 66.0 7.15 62.75 7.25 62.3 7.3 62.15 Q7.85 59.15 8.8 56.05 L10.5 50.55 11.0 48.95 Q11.85 46.45 13.1 44.1 L12.8 43.05 12.75 42.95 12.35 41.3 12.3 41.0 12.15 40.2 12.15 40.1 12.1 39.9 11.75 37.55 11.75 37.4 11.7 36.65 11.65 36.55 11.6 36.05 11.55 35.55 11.65 36.15 11.75 36.55 11.85 36.65 11.95 37.1 12.15 37.65 12.45 38.55 12.65 39.3 12.7 39.35 12.7 39.4 12.9 39.95 12.9 40.0 13.85 42.75" fill="url(#gradient5)" fill-rule="evenodd" stroke="none"/>
    <path d="M12.05 115.1 Q6.95 107.35 3.95 98.35 2.7 94.45 1.8 90.35 L1.4 88.25 1.35 88.15 1.3 87.7 1.2 87.1 0.9 85.3 0.9 85.2 1.05 85.0 3.25 85.65 3.3 85.7 3.25 86.0 Q4.5 97.55 9.45 109.65 L12.05 115.1 M5.1 80.15 L5.1 80.1 Q4.1 75.4 4.75 70.65 L4.85 69.65 4.95 68.95 3.7 66.75 3.0 65.45 2.9 65.35 2.9 65.3 3.1 64.35 2.85 63.95 3.05 64.2 3.4 63.0 5.65 55.3 6.4 53.0 7.2 50.75 7.95 48.7 8.8 46.8 9.85 44.55 10.5 43.25 12.15 40.2 12.3 41.0 12.25 41.1 11.55 42.45 Q9.5 46.4 8.0 50.45 6.4 54.35 5.25 58.15 L3.75 64.95 6.9 68.4 6.75 69.2 6.75 69.4 Q6.4 71.85 6.5 75.55 L6.55 76.45 6.8 80.55 5.1 80.15" fill="url(#gradient6)" fill-rule="evenodd" stroke="none"/>
    <path d="M9.75 66.0 L10.8 67.3 Q10.45 71.95 10.6 76.95 L10.95 81.6 10.05 83.05 9.65 78.85 Q9.3 72.75 9.75 66.0" fill="#dde5ea" fill-rule="evenodd" stroke="none"/>
    <path d="M5.1 80.15 L6.8 80.55 6.85 80.9 4.3 84.25 3.3 85.65 3.3 85.7 3.25 85.65 1.05 85.0 5.1 80.15" fill="#80dff5" fill-rule="evenodd" stroke="none"/>
    <path d="M4.3 84.25 L6.85 80.9 6.85 81.05 4.3 84.25" fill="url(#gradient7)" fill-rule="evenodd" stroke="none"/>
    <path d="M110.0 12.55 L110.9 12.25 111.45 12.05 111.9 11.95 112.0 11.85 112.4 11.75 113.0 11.65 112.5 11.7 112.0 11.75 111.9 11.8 111.15 11.85 111.0 11.85 108.65 12.2 108.45 12.25 108.35 12.25 105.3 10.6 104.0 9.95 101.75 8.9 99.85 8.05 97.8 7.3 95.55 6.5 93.25 5.75 85.55 3.5 84.35 3.15 84.6 2.95 84.2 3.2 83.25 3.0 83.2 3.0 83.1 3.1 81.8 3.8 Q80.4 4.55 79.6 5.05 L78.9 4.95 77.9 4.85 68.45 5.2 68.4 5.2 63.55 1.15 63.35 1.0 63.6 0.95 64.0 0.9 66.85 0.55 67.4 0.5 69.9 3.0 Q70.25 3.4 70.7 3.45 L71.35 3.3 71.55 2.65 71.05 1.85 69.5 0.3 71.8 0.15 74.35 2.75 Q74.7 3.15 75.15 3.2 L75.8 3.05 76.0 2.4 75.5 1.6 74.05 0.1 74.3 0.1 76.8 0.15 78.1 1.8 79.95 2.1 80.85 0.35 86.35 1.0 86.5 1.05 Q99.7 3.1 111.45 10.1 L113.6 11.45 113.7 11.5 110.0 12.55" fill="url(#gradient8)" fill-rule="evenodd" stroke="none"/>
    <path d="M108.35 12.25 L108.45 12.25 108.65 12.2 111.0 11.85 111.15 11.85 111.9 11.8 112.0 11.75 112.5 11.7 113.0 11.65 112.4 11.75 112.0 11.85 111.9 11.95 111.45 12.05 110.9 12.25 110.0 12.55 109.25 12.75 109.2 12.8 109.15 12.8 108.6 13.0 108.55 13.0 105.8 13.95 105.1 14.2 104.8 14.0 104.45 13.85 103.65 13.45 Q98.75 11.05 91.1 9.25 L85.6 8.1 83.8 9.85 82.6 11.1 82.55 11.05 82.4 11.25 81.8 11.85 Q74.85 11.15 68.6 11.7 L66.15 12.1 63.25 9.25 61.6 7.55 65.5 10.15 66.95 11.05 71.6 10.7 Q76.6 10.55 81.25 10.9 L82.55 9.85 85.8 7.25 86.25 7.35 86.4 7.4 92.5 8.9 98.0 10.6 99.6 11.1 Q102.1 11.95 104.45 13.2 L105.5 12.9 105.6 12.85 107.25 12.45 107.55 12.4 108.35 12.25" fill="url(#gradient9)" fill-rule="evenodd" stroke="none"/>
    <path d="M110.0 12.55 L113.7 11.5 113.75 11.55 115.8 12.95 119.0 15.2 Q125.1 19.85 130.0 25.2 L121.3 25.2 115.25 20.1 Q110.65 16.6 105.8 14.0 L105.8 13.95 108.55 13.0 108.6 13.0 109.15 12.8 109.2 12.8 109.25 12.75 110.0 12.55 M80.85 0.35 L79.95 2.1 78.1 1.8 76.8 0.15 78.45 0.2 80.85 0.35 M74.05 0.1 L75.5 1.6 76.0 2.4 75.8 3.05 75.15 3.2 Q74.7 3.15 74.35 2.75 L71.8 0.15 74.05 0.1 M69.5 0.3 L71.05 1.85 71.55 2.65 71.35 3.3 70.7 3.45 Q70.25 3.4 69.9 3.0 L67.4 0.5 67.55 0.45 68.95 0.35 69.5 0.3 M107.55 12.4 L107.25 12.45 105.6 12.85 105.5 12.9 104.45 13.2 Q102.1 11.95 99.6 11.1 L98.0 10.6 92.5 8.9 86.4 7.4 86.25 7.35 85.8 7.25 82.55 9.85 Q75.8 9.4 69.7 9.75 L65.5 10.15 61.6 7.55 61.55 7.55 Q41.3 11.25 27.1 25.2 L18.7 25.2 Q25.4 17.5 33.45 12.15 L38.9 9.55 Q51.0 4.6 62.55 3.35 L62.85 3.4 62.9 3.4 64.3 4.4 67.5 6.95 67.65 6.95 68.0 6.9 72.1 6.65 73.0 6.6 79.15 6.85 79.35 6.85 80.15 7.0 83.6 3.85 90.4 5.35 Q94.2 6.5 98.1 8.1 102.15 9.6 106.1 11.65 L107.45 12.35 107.55 12.4" fill="#002e58" fill-rule="evenodd" stroke="none"/>
    <path d="M63.35 1.0 L63.55 1.15 62.9 3.35 62.85 3.4 62.55 3.35 Q51.0 4.6 38.9 9.55 L33.45 12.15 Q41.2 7.05 50.2 4.05 54.1 2.8 58.2 1.9 L60.3 1.5 60.4 1.45 60.85 1.4 61.45 1.3 63.25 1.0 63.35 1.0 M68.4 5.2 L68.45 5.2 77.9 4.85 78.9 4.95 79.6 5.05 Q80.4 4.55 81.8 3.8 L83.1 3.1 83.2 3.0 83.25 3.0 84.2 3.2 84.6 2.95 84.35 3.15 85.55 3.5 93.25 5.75 95.55 6.5 97.8 7.3 99.85 8.05 101.75 8.9 104.0 9.95 105.3 10.6 108.35 12.25 107.55 12.4 107.45 12.35 106.1 11.65 Q102.15 9.6 98.1 8.1 94.2 6.5 90.4 5.35 L83.6 3.85 80.15 7.0 79.35 6.85 79.15 6.85 73.0 6.6 72.1 6.65 68.0 6.9 68.4 5.2" fill="url(#gradient10)" fill-rule="evenodd" stroke="none"/>
    <path d="M82.55 9.85 L81.25 10.9 Q76.6 10.55 71.6 10.7 L66.95 11.05 65.5 10.15 69.7 9.75 Q75.8 9.4 82.55 9.85" fill="#dde5ea" fill-rule="evenodd" stroke="none"/>
    <path d="M63.55 1.15 L68.4 5.2 68.0 6.9 67.65 6.95 64.3 4.4 62.9 3.4 62.85 3.4 62.9 3.35 63.55 1.15" fill="#80dff5" fill-rule="evenodd" stroke="none"/>
    <path d="M67.65 6.95 L67.5 6.95 64.3 4.4 67.65 6.95" fill="url(#gradient11)" fill-rule="evenodd" stroke="none"/>
    <path d="M35.0 137.2 L34.95 137.15 32.9 135.75 29.7 133.5 Q23.6 128.85 18.7 123.5 L27.4 123.5 Q30.25 126.15 33.45 128.6 38.05 132.1 42.9 134.7 L42.9 134.75 40.15 135.7 40.1 135.7 39.55 135.9 39.5 135.9 39.45 135.95 38.7 136.15 35.0 137.2 M87.1 141.15 L87.15 141.15 Q107.4 137.45 121.6 123.5 L130.0 123.5 Q123.3 131.2 115.25 136.55 L109.8 139.15 Q97.7 144.1 86.15 145.35 L85.85 145.3 85.8 145.3 84.4 144.3 81.2 141.75 81.05 141.75 80.7 141.8 76.6 142.05 75.7 142.1 69.55 141.85 69.35 141.85 68.55 141.7 65.1 144.85 58.3 143.35 50.6 140.6 Q46.55 139.1 42.6 137.05 L41.25 136.35 41.15 136.3 41.45 136.25 43.1 135.85 43.2 135.8 44.25 135.5 Q46.6 136.75 49.1 137.6 L50.7 138.1 56.2 139.8 62.3 141.3 62.45 141.35 62.9 141.45 66.15 138.85 Q72.9 139.3 79.0 138.95 L83.2 138.55 87.1 141.15 M81.3 148.2 L81.15 148.25 79.75 148.35 79.2 148.4 77.65 146.85 77.15 146.05 Q77.1 145.65 77.35 145.4 77.6 145.15 78.0 145.25 78.45 145.3 78.8 145.7 L81.3 148.2 M76.9 148.55 L74.65 148.6 73.2 147.1 72.7 146.3 Q72.65 145.9 72.9 145.65 73.15 145.4 73.55 145.5 L74.35 145.95 76.9 148.55 M71.9 148.55 L70.25 148.5 67.85 148.35 68.75 146.6 70.6 146.9 71.9 148.55" fill="#002e58" fill-rule="evenodd" stroke="none"/>
    <path d="M42.9 134.75 L43.6 134.5 43.9 134.7 44.25 134.85 45.05 135.25 Q49.95 137.65 57.6 139.45 L63.1 140.6 64.9 138.85 66.1 137.6 66.15 137.65 66.3 137.45 66.9 136.85 Q73.85 137.55 80.1 137.0 L82.55 136.6 85.45 139.45 87.1 141.15 83.2 138.55 81.75 137.65 77.1 138.0 Q72.1 138.15 67.45 137.8 L66.15 138.85 62.9 141.45 62.45 141.35 62.3 141.3 56.2 139.8 50.7 138.1 49.1 137.6 Q46.6 136.75 44.25 135.5 L43.2 135.8 43.1 135.85 41.45 136.25 41.15 136.3 40.35 136.45 40.25 136.45 40.05 136.5 37.7 136.85 37.55 136.85 36.8 136.9 36.7 136.95 36.2 137.0 35.7 137.05 36.3 136.95 36.7 136.85 36.8 136.75 37.25 136.65 37.8 136.45 38.7 136.15 39.45 135.95 39.5 135.9 39.55 135.9 40.1 135.7 40.15 135.7 42.9 134.75" fill="url(#gradient12)" fill-rule="evenodd" stroke="none"/>
    <path d="M85.35 147.7 L85.1 147.75 84.7 147.8 81.85 148.15 81.3 148.2 78.8 145.7 Q78.45 145.3 78.0 145.25 77.6 145.15 77.35 145.4 77.1 145.65 77.15 146.05 L77.65 146.85 79.2 148.4 76.9 148.55 74.35 145.95 73.55 145.5 Q73.15 145.4 72.9 145.65 72.65 145.9 72.7 146.3 L73.2 147.1 74.65 148.6 74.4 148.6 71.9 148.55 70.6 146.9 68.75 146.6 67.85 148.35 62.35 147.7 62.2 147.65 Q49.0 145.6 37.25 138.6 L35.1 137.25 35.0 137.2 38.7 136.15 37.8 136.45 37.25 136.65 36.8 136.75 36.7 136.85 36.3 136.95 35.7 137.05 36.2 137.0 36.7 136.95 36.8 136.9 37.55 136.85 37.7 136.85 40.05 136.5 40.25 136.45 40.35 136.45 43.4 138.1 44.7 138.75 46.95 139.8 48.85 140.65 50.9 141.4 53.15 142.2 55.45 142.95 63.15 145.2 64.35 145.55 64.1 145.75 64.5 145.5 65.45 145.7 65.5 145.7 65.6 145.6 66.9 144.9 69.1 143.65 69.8 143.75 70.8 143.85 80.25 143.5 80.3 143.5 85.15 147.55 85.35 147.7" fill="url(#gradient13)" fill-rule="evenodd" stroke="none"/>
    <path d="M115.25 136.55 Q107.5 141.65 98.5 144.65 94.6 145.9 90.5 146.8 L88.4 147.2 88.3 147.25 87.85 147.3 87.25 147.4 85.45 147.7 85.35 147.7 85.15 147.55 85.8 145.35 85.85 145.3 86.15 145.35 Q97.7 144.1 109.8 139.15 L115.25 136.55 M41.15 136.3 L41.25 136.35 42.6 137.05 Q46.55 139.1 50.6 140.6 L58.3 143.35 65.1 144.85 68.55 141.7 69.35 141.85 69.55 141.85 75.7 142.1 76.6 142.05 80.7 141.8 80.3 143.5 80.25 143.5 70.8 143.85 69.8 143.75 69.1 143.65 66.9 144.9 65.6 145.6 65.5 145.7 65.45 145.7 64.5 145.5 64.1 145.75 64.35 145.55 63.15 145.2 55.45 142.95 53.15 142.2 50.9 141.4 48.85 140.65 46.95 139.8 44.7 138.75 43.4 138.1 40.35 136.45 41.15 136.3" fill="url(#gradient14)" fill-rule="evenodd" stroke="none"/>
    <path d="M66.15 138.85 L67.45 137.8 Q72.1 138.15 77.1 138.0 L81.75 137.65 83.2 138.55 79.0 138.95 Q72.9 139.3 66.15 138.85" fill="#dde5ea" fill-rule="evenodd" stroke="none"/>
    <path d="M80.7 141.8 L81.05 141.75 84.4 144.3 85.8 145.3 85.85 145.3 85.8 145.35 85.15 147.55 80.3 143.5 80.7 141.8" fill="#80dff5" fill-rule="evenodd" stroke="none"/>
    <path d="M81.05 141.75 L81.2 141.75 84.4 144.3 81.05 141.75" fill="url(#gradient15)" fill-rule="evenodd" stroke="none"/>
    <path d="M122.75 18.15 L124.4 19.65 124.45 19.65 117.55 21.8 115.8 20.45 115.55 20.2 115.25 20.0 114.95 19.8 122.05 17.6 122.5 17.95 122.75 18.15" fill="#31edff" fill-opacity="0.8" fill-rule="evenodd" stroke="none"/>
    <path d="M127.35 22.4 L127.7 22.75 128.75 23.8 128.8 23.9 122.2 25.95 121.1 24.9 120.75 24.6 119.95 23.85 126.7 21.75 127.35 22.4" fill="#31edff" fill-opacity="0.6" fill-rule="evenodd" stroke="none"/>
    <path d="M136.0 32.85 L129.8 34.75 129.2 33.9 128.9 33.5 128.15 32.5 134.4 30.6 135.05 31.45 136.0 32.85" fill="#31edff" fill-opacity="0.2" fill-rule="evenodd" stroke="none"/>
    <path d="M126.3 30.3 L124.3 28.1 130.8 26.1 132.65 28.3 126.3 30.3" fill="#31edff" fill-opacity="0.4" fill-rule="evenodd" stroke="none"/>
    <path d="M110.85 16.85 L109.3 15.95 116.9 13.6 118.15 14.45 118.2 14.5 118.85 15.0 118.95 15.05 119.3 15.35 119.55 15.5 112.3 17.85 112.25 17.8 112.1 17.7 111.7 17.45 111.6 17.35 110.9 16.9 110.85 16.85" fill="#31edff" fill-rule="evenodd" stroke="none"/>
    <path d="M131.7 110.95 L132.6 109.4 134.95 117.0 134.1 118.25 134.05 118.3 133.55 118.95 133.5 119.05 133.2 119.4 133.05 119.65 130.7 112.4 130.75 112.35 130.85 112.2 131.1 111.8 131.2 111.7 131.65 111.0 131.7 110.95" fill="#31edff" fill-rule="evenodd" stroke="none"/>
    <path d="M128.1 115.9 L128.35 115.65 128.55 115.35 128.75 115.05 130.95 122.15 130.6 122.6 130.4 122.85 128.9 124.5 128.9 124.55 126.75 117.65 128.1 115.9" fill="#31edff" fill-opacity="0.8" fill-rule="evenodd" stroke="none"/>
    <path d="M123.65 121.2 L123.95 120.85 124.7 120.05 126.8 126.8 126.15 127.45 125.8 127.8 124.75 128.85 124.65 128.9 122.6 122.3 123.65 121.2" fill="#31edff" fill-opacity="0.6" fill-rule="evenodd" stroke="none"/>
    <path d="M118.25 126.4 L120.45 124.4 122.45 130.9 120.25 132.75 118.25 126.4" fill="#31edff" fill-opacity="0.4" fill-rule="evenodd" stroke="none"/>
    <path d="M115.05 129.0 L116.05 128.25 117.95 134.5 117.1 135.15 115.7 136.1 113.8 129.9 114.65 129.3 115.05 129.0" fill="#31edff" fill-opacity="0.2" fill-rule="evenodd" stroke="none"/>
    <path d="M22.2 118.35 L24.2 120.55 17.7 122.55 15.85 120.35 22.2 118.35" fill="#31edff" fill-opacity="0.4" fill-rule="evenodd" stroke="none"/>
    <path d="M18.7 113.9 L19.3 114.75 19.6 115.15 20.35 116.15 14.1 118.05 13.45 117.2 12.5 115.8 18.7 113.9" fill="#31edff" fill-opacity="0.2" fill-rule="evenodd" stroke="none"/>
    <path d="M19.7 124.75 L26.3 122.7 27.4 123.75 27.75 124.05 28.55 124.8 21.8 126.9 21.15 126.25 20.8 125.9 19.75 124.85 19.7 124.75" fill="#31edff" fill-opacity="0.6" fill-rule="evenodd" stroke="none"/>
    <path d="M30.95 126.85 L32.7 128.2 32.95 128.45 33.25 128.65 33.55 128.85 26.45 131.05 26.0 130.7 25.75 130.5 24.1 129.0 24.05 129.0 30.95 126.85" fill="#31edff" fill-opacity="0.8" fill-rule="evenodd" stroke="none"/>
    <path d="M37.65 131.8 L39.2 132.7 31.6 135.05 30.35 134.2 30.3 134.15 29.65 133.65 29.55 133.6 29.2 133.3 28.95 133.15 36.2 130.8 36.25 130.85 36.4 130.95 36.8 131.2 36.9 131.3 37.6 131.75 37.65 131.8" fill="#31edff" fill-rule="evenodd" stroke="none"/>
    <path d="M21.65 21.9 L22.3 21.25 22.65 20.9 23.7 19.85 23.8 19.8 25.85 26.4 24.8 27.5 24.5 27.85 23.75 28.65 21.65 21.9" fill="#31edff" fill-opacity="0.6" fill-rule="evenodd" stroke="none"/>
    <path d="M30.2 22.3 L28.0 24.3 26.0 17.8 28.2 15.95 30.2 22.3" fill="#31edff" fill-opacity="0.4" fill-rule="evenodd" stroke="none"/>
    <path d="M33.4 19.7 L32.4 20.45 30.5 14.2 31.35 13.55 32.75 12.6 34.65 18.8 33.8 19.4 33.4 19.7" fill="#31edff" fill-opacity="0.2" fill-rule="evenodd" stroke="none"/>
    <path d="M19.55 24.2 L19.55 24.15 21.7 31.05 20.35 32.8 20.1 33.05 19.9 33.35 19.7 33.65 17.5 26.55 17.85 26.1 18.05 25.85 19.55 24.2" fill="#31edff" fill-opacity="0.8" fill-rule="evenodd" stroke="none"/>
    <path d="M15.25 29.3 L15.4 29.05 17.75 36.3 17.7 36.35 17.6 36.5 17.35 36.9 17.25 37.0 16.8 37.7 16.75 37.75 15.85 39.3 13.5 31.7 14.35 30.45 14.4 30.4 14.9 29.75 14.95 29.65 15.25 29.3" fill="#31edff" fill-rule="evenodd" stroke="none"/>
  </g>
  <defs>
    <linearGradient gradientTransform="matrix(0.0058, -0.0281, 0.0884, 0.0177, 81.9, 75.4)" gradientUnits="userSpaceOnUse" id="gradient0" spreadMethod="pad" x1="-819.2" x2="819.2">
      <stop offset="0.0" stop-color="#8eebe7"/>
      <stop offset="0.3411764705882353" stop-color="#62dfff"/>
      <stop offset="0.9137254901960784" stop-color="#269bb8"/>
    </linearGradient>
    <linearGradient gradientTransform="matrix(0.0045, 0.0, 4.0E-4, 0.0904, 144.1, 4.85)" gradientUnits="userSpaceOnUse" id="gradient1" spreadMethod="pad" x1="-819.2" x2="819.2">
      <stop offset="0.0" stop-color="#4fcade"/>
      <stop offset="0.9568627450980393" stop-color="#0c557e"/>
    </linearGradient>
    <linearGradient gradientTransform="matrix(0.0038, 0.0091, -0.0831, 0.0353, 207.4, 46.7)" gradientUnits="userSpaceOnUse" id="gradient2" spreadMethod="pad" x1="-819.2" x2="819.2">
      <stop offset="0.0" stop-color="#62dfff"/>
      <stop offset="0.9137254901960784" stop-color="#269bb8"/>
    </linearGradient>
    <linearGradient gradientTransform="matrix(2.0E-4, -0.0154, 0.0307, 3.0E-4, 136.8, 97.85)" gradientUnits="userSpaceOnUse" id="gradient3" spreadMethod="pad" x1="-819.2" x2="819.2">
      <stop offset="0.0" stop-color="#82e9e5"/>
      <stop offset="0.9686274509803922" stop-color="#ffffff"/>
    </linearGradient>
    <linearGradient gradientTransform="matrix(-0.0045, 0.0, -4.0E-4, -0.0904, 4.4, 143.75)" gradientUnits="userSpaceOnUse" id="gradient4" spreadMethod="pad" x1="-819.2" x2="819.2">
      <stop offset="0.0" stop-color="#4fcade"/>
      <stop offset="0.9568627450980393" stop-color="#0c557e"/>
    </linearGradient>
    <linearGradient gradientTransform="matrix(-2.0E-4, 0.0154, -0.0307, -3.0E-4, 11.7, 50.75)" gradientUnits="userSpaceOnUse" id="gradient5" spreadMethod="pad" x1="-819.2" x2="819.2">
      <stop offset="0.0" stop-color="#82e9e5"/>
      <stop offset="0.9686274509803922" stop-color="#ffffff"/>
    </linearGradient>
    <linearGradient gradientTransform="matrix(-0.0058, 0.0281, -0.0884, -0.0177, 66.6, 73.2)" gradientUnits="userSpaceOnUse" id="gradient6" spreadMethod="pad" x1="-819.2" x2="819.2">
      <stop offset="0.0" stop-color="#8eebe7"/>
      <stop offset="0.3411764705882353" stop-color="#62dfff"/>
      <stop offset="0.9137254901960784" stop-color="#269bb8"/>
    </linearGradient>
    <linearGradient gradientTransform="matrix(-0.0038, -0.0091, 0.0831, -0.0353, -58.9, 101.9)" gradientUnits="userSpaceOnUse" id="gradient7" spreadMethod="pad" x1="-819.2" x2="819.2">
      <stop offset="0.0" stop-color="#62dfff"/>
      <stop offset="0.9137254901960784" stop-color="#269bb8"/>
    </linearGradient>
    <linearGradient gradientTransform="matrix(0.0, -0.0045, 0.0904, -4.0E-4, 4.8, 4.5)" gradientUnits="userSpaceOnUse" id="gradient8" spreadMethod="pad" x1="-819.2" x2="819.2">
      <stop offset="0.0" stop-color="#4fcade"/>
      <stop offset="0.9568627450980393" stop-color="#0c557e"/>
    </linearGradient>
    <linearGradient gradientTransform="matrix(-0.0154, -2.0E-4, 3.0E-4, -0.0307, 97.8, 11.8)" gradientUnits="userSpaceOnUse" id="gradient9" spreadMethod="pad" x1="-819.2" x2="819.2">
      <stop offset="0.0" stop-color="#82e9e5"/>
      <stop offset="0.9686274509803922" stop-color="#ffffff"/>
    </linearGradient>
    <linearGradient gradientTransform="matrix(-0.0281, -0.0058, 0.0177, -0.0884, 75.35, 66.7)" gradientUnits="userSpaceOnUse" id="gradient10" spreadMethod="pad" x1="-819.2" x2="819.2">
      <stop offset="0.0" stop-color="#8eebe7"/>
      <stop offset="0.3411764705882353" stop-color="#62dfff"/>
      <stop offset="0.9137254901960784" stop-color="#269bb8"/>
    </linearGradient>
    <linearGradient gradientTransform="matrix(0.0091, -0.0038, 0.0353, 0.0831, 46.65, -58.8)" gradientUnits="userSpaceOnUse" id="gradient11" spreadMethod="pad" x1="-819.2" x2="819.2">
      <stop offset="0.0" stop-color="#62dfff"/>
      <stop offset="0.9137254901960784" stop-color="#269bb8"/>
    </linearGradient>
    <linearGradient gradientTransform="matrix(0.0154, 2.0E-4, -3.0E-4, 0.0307, 50.9, 136.9)" gradientUnits="userSpaceOnUse" id="gradient12" spreadMethod="pad" x1="-819.2" x2="819.2">
      <stop offset="0.0" stop-color="#82e9e5"/>
      <stop offset="0.9686274509803922" stop-color="#ffffff"/>
    </linearGradient>
    <linearGradient gradientTransform="matrix(0.0, 0.0045, -0.0904, 4.0E-4, 143.9, 144.2)" gradientUnits="userSpaceOnUse" id="gradient13" spreadMethod="pad" x1="-819.2" x2="819.2">
      <stop offset="0.0" stop-color="#4fcade"/>
      <stop offset="0.9568627450980393" stop-color="#0c557e"/>
    </linearGradient>
    <linearGradient gradientTransform="matrix(0.0281, 0.0058, -0.0177, 0.0884, 73.35, 82.0)" gradientUnits="userSpaceOnUse" id="gradient14" spreadMethod="pad" x1="-819.2" x2="819.2">
      <stop offset="0.0" stop-color="#8eebe7"/>
      <stop offset="0.3411764705882353" stop-color="#62dfff"/>
      <stop offset="0.9137254901960784" stop-color="#269bb8"/>
    </linearGradient>
    <linearGradient gradientTransform="matrix(-0.0091, 0.0038, -0.0353, -0.0831, 102.05, 207.5)" gradientUnits="userSpaceOnUse" id="gradient15" spreadMethod="pad" x1="-819.2" x2="819.2">
      <stop offset="0.0" stop-color="#62dfff"/>
      <stop offset="0.9137254901960784" stop-color="#269bb8"/>
    </linearGradient>
  </defs>
</svg>
