<?xml version="1.0" encoding="UTF-8" standalone="no"?>
<svg xmlns:xlink="http://www.w3.org/1999/xlink" height="36.75px" width="26.0px" xmlns="http://www.w3.org/2000/svg">
  <g transform="matrix(1.0, 0.0, 0.0, 1.0, 0.0, 0.0)">
    <path d="M26.0 36.75 L0.0 36.75 0.0 0.0 26.0 0.0 26.0 36.75" fill="#cccc00" fill-opacity="0.0" fill-rule="evenodd" stroke="none"/>
    <path d="M22.6 10.5 Q21.95 9.85 21.55 9.85 L18.35 9.85 18.35 6.6 Q18.35 6.05 17.7 5.45 17.0 4.9 16.45 4.9 L9.55 4.9 Q9.0 4.9 8.3 5.45 7.7 6.05 7.7 6.6 L7.7 9.85 4.5 9.85 Q4.1 9.85 3.45 10.5 2.8 11.15 2.8 11.55 L2.8 14.1 Q2.8 14.55 3.4 15.2 L4.5 15.8 7.7 15.8 7.7 19.05 Q7.7 19.45 8.25 20.1 8.9 20.75 9.3 20.75 L17.35 20.75 17.35 24.7 9.3 24.7 Q8.85 24.7 8.25 25.3 7.7 25.95 7.7 26.4 L7.7 28.95 Q7.7 29.35 8.25 30.0 8.9 30.6 9.3 30.6 L16.75 30.6 Q17.15 30.6 17.7 30.0 L18.35 28.95 18.35 25.7 21.55 25.7 Q21.95 25.7 22.6 25.05 23.2 24.4 23.2 24.0 L23.2 11.55 Q23.2 11.15 22.6 10.5 M22.2 10.8 L22.7 11.55 22.7 24.0 22.25 24.7 21.55 25.2 17.85 25.2 17.85 20.2 9.3 20.2 8.65 19.75 8.15 19.05 8.15 15.25 4.5 15.25 3.75 14.8 Q3.3 14.35 3.3 14.1 L3.3 11.55 3.8 10.85 4.5 10.35 8.15 10.35 8.15 6.6 Q8.15 6.25 8.7 5.8 9.15 5.35 9.55 5.35 L16.45 5.35 Q16.8 5.35 17.3 5.8 17.85 6.25 17.85 6.6 L17.85 10.35 21.55 10.35 Q21.75 10.35 22.2 10.8 M21.55 9.25 Q22.25 9.25 23.05 10.05 23.8 10.8 23.8 11.5 L23.8 24.0 Q23.8 24.7 23.05 25.55 22.2 26.35 21.55 26.35 L18.95 26.35 18.95 28.95 Q18.95 29.65 18.15 30.45 17.4 31.25 16.75 31.25 L9.3 31.25 Q8.65 31.25 7.8 30.45 7.05 29.65 7.05 28.95 L7.05 26.4 Q7.05 25.7 7.8 24.9 8.65 24.1 9.3 24.1 L16.75 24.1 16.75 21.35 9.3 21.35 Q8.65 21.35 7.8 20.55 7.05 19.75 7.05 19.05 L7.05 16.4 4.5 16.4 Q3.75 16.4 2.95 15.65 2.2 14.85 2.2 14.1 L2.2 11.55 Q2.2 10.85 3.0 10.05 3.8 9.25 4.5 9.25 L7.05 9.25 7.05 6.6 Q7.05 5.75 7.9 5.0 8.7 4.25 9.55 4.25 L16.45 4.25 Q17.25 4.25 18.15 5.0 18.95 5.75 18.95 6.55 L18.95 9.25 21.55 9.25 M17.35 10.85 L8.65 10.85 8.65 14.8 17.35 14.8 17.35 10.85 M17.85 25.2 L17.85 28.95 17.4 29.65 16.75 30.1 9.3 30.1 8.65 29.65 8.15 28.95 8.15 26.4 Q8.15 26.1 8.6 25.65 9.05 25.2 9.3 25.2 L17.85 25.2" fill="#00ffff" fill-rule="evenodd" stroke="none"/>
    <path d="M21.55 9.25 L18.95 9.25 18.95 6.55 Q18.95 5.75 18.15 5.0 17.25 4.25 16.45 4.25 L9.55 4.25 Q8.7 4.25 7.9 5.0 7.05 5.75 7.05 6.6 L7.05 9.25 4.5 9.25 Q3.8 9.25 3.0 10.05 2.2 10.85 2.2 11.55 L2.2 14.1 Q2.2 14.85 2.95 15.65 3.75 16.4 4.5 16.4 L7.05 16.4 7.05 19.05 Q7.05 19.75 7.8 20.55 8.65 21.35 9.3 21.35 L16.75 21.35 16.75 24.1 9.3 24.1 Q8.65 24.1 7.8 24.9 7.05 25.7 7.05 26.4 L7.05 28.95 Q7.05 29.65 7.8 30.45 8.65 31.25 9.3 31.25 L16.75 31.25 Q17.4 31.25 18.15 30.45 18.95 29.65 18.95 28.95 L18.95 26.35 21.55 26.35 Q22.2 26.35 23.05 25.55 23.8 24.7 23.8 24.0 L23.8 11.5 Q23.8 10.8 23.05 10.05 22.25 9.25 21.55 9.25 M17.35 10.85 L8.65 10.85 8.65 14.8 17.35 14.8 17.35 10.85 Z" fill="none" stroke="#003366" stroke-linecap="round" stroke-linejoin="round" stroke-width="4.0"/>
    <path d="M21.55 9.25 Q22.25 9.25 23.05 10.05 23.8 10.8 23.8 11.5 L23.8 24.0 Q23.8 24.7 23.05 25.55 22.2 26.35 21.55 26.35 L18.95 26.35 18.95 28.95 Q18.95 29.65 18.15 30.45 17.4 31.25 16.75 31.25 L9.3 31.25 Q8.65 31.25 7.8 30.45 7.05 29.65 7.05 28.95 L7.05 26.4 Q7.05 25.7 7.8 24.9 8.65 24.1 9.3 24.1 L16.75 24.1 16.75 21.35 9.3 21.35 Q8.65 21.35 7.8 20.55 7.05 19.75 7.05 19.05 L7.05 16.4 4.5 16.4 Q3.75 16.4 2.95 15.65 2.2 14.85 2.2 14.1 L2.2 11.55 Q2.2 10.85 3.0 10.05 3.8 9.25 4.5 9.25 L7.05 9.25 7.05 6.6 Q7.05 5.75 7.9 5.0 8.7 4.25 9.55 4.25 L16.45 4.25 Q17.25 4.25 18.15 5.0 18.95 5.75 18.95 6.55 L18.95 9.25 21.55 9.25 M21.55 10.35 Q21.75 10.35 22.2 10.8 L22.7 11.55 22.7 24.0 22.25 24.7 21.55 25.2 17.85 25.2 17.85 20.2 9.3 20.2 8.65 19.75 8.15 19.05 8.15 15.25 4.5 15.25 3.75 14.8 Q3.3 14.35 3.3 14.1 L3.3 11.55 3.8 10.85 4.5 10.35 8.15 10.35 8.15 6.6 Q8.15 6.25 8.7 5.8 9.15 5.35 9.55 5.35 L16.45 5.35 Q16.8 5.35 17.3 5.8 17.85 6.25 17.85 6.6 L17.85 10.35 21.55 10.35 M23.2 11.55 Q23.2 11.15 22.6 10.5 21.95 9.85 21.55 9.85 L18.35 9.85 18.35 6.6 Q18.35 6.05 17.7 5.45 17.0 4.9 16.45 4.9 L9.55 4.9 Q9.0 4.9 8.3 5.45 7.7 6.05 7.7 6.6 L7.7 9.85 4.5 9.85 Q4.1 9.85 3.45 10.5 2.8 11.15 2.8 11.55 L2.8 14.1 Q2.8 14.55 3.4 15.2 L4.5 15.8 7.7 15.8 7.7 19.05 Q7.7 19.45 8.25 20.1 8.9 20.75 9.3 20.75 L17.35 20.75 17.35 24.7 9.3 24.7 Q8.85 24.7 8.25 25.3 7.7 25.95 7.7 26.4 L7.7 28.95 Q7.7 29.35 8.25 30.0 8.9 30.6 9.3 30.6 L16.75 30.6 Q17.15 30.6 17.7 30.0 L18.35 28.95 18.35 25.7 21.55 25.7 Q21.95 25.7 22.6 25.05 23.2 24.4 23.2 24.0 L23.2 11.55 M17.35 14.8 L17.35 10.85 8.65 10.85 8.65 14.8 17.35 14.8 M17.85 25.2 L17.85 28.95 17.4 29.65 16.75 30.1 9.3 30.1 8.65 29.65 8.15 28.95 8.15 26.4 Q8.15 26.1 8.6 25.65 9.05 25.2 9.3 25.2 L17.85 25.2" fill="#00ffff" fill-rule="evenodd" stroke="none"/>
  </g>
</svg>
