<?xml version="1.0" encoding="UTF-8" standalone="no"?>
<svg xmlns:xlink="http://www.w3.org/1999/xlink" height="10.1px" width="23.1px" xmlns="http://www.w3.org/2000/svg">
  <g transform="matrix(1.0, 0.0, 0.0, 1.0, 0.25, -26.4)">
    <path d="M10.95 36.1 L9.35 26.4 12.55 26.4 13.55 32.6 17.95 26.4 21.0 26.4 14.15 36.1 10.95 36.1 M19.85 33.85 L20.55 33.65 21.2 33.85 21.55 34.4 21.55 35.1 21.15 35.8 20.55 36.35 19.8 36.5 19.15 36.35 18.75 35.8 18.75 35.1 19.15 34.4 Q19.5 34.05 19.85 33.85 M20.05 30.6 L20.45 29.85 Q20.75 29.55 21.1 29.4 L21.85 29.2 22.45 29.35 22.85 29.85 22.85 30.6 22.45 31.3 21.75 31.8 21.05 32.0 Q20.7 32.0 20.4 31.8 L20.05 31.3 20.05 30.6 M5.05 26.4 L2.95 33.8 8.35 33.8 6.95 36.05 -0.25 36.05 2.4 26.4 5.05 26.4" fill="#52e5f9" fill-rule="evenodd" stroke="none"/>
  </g>
</svg>
