<?xml version="1.0" encoding="UTF-8" standalone="no"?>
<svg xmlns:xlink="http://www.w3.org/1999/xlink" height="19.85px" width="31.45px" xmlns="http://www.w3.org/2000/svg">
  <g transform="matrix(1.0, 0.0, 0.0, 1.0, -10.1, -16.05)">
    <path d="M26.4 19.85 L31.8 19.85 31.8 21.65 26.4 21.65 26.4 19.85 M22.0 22.3 L14.65 22.3 14.65 23.7 22.0 23.7 22.0 22.3 M35.4 21.2 L39.05 21.2 38.95 29.1 38.75 31.15 38.4 31.85 37.6 32.3 35.1 32.45 34.6 30.35 36.1 30.4 36.8 30.25 37.0 29.75 37.15 27.6 37.2 23.05 35.35 23.05 35.1 27.55 Q34.9 28.85 34.3 30.25 33.7 31.7 32.8 32.7 L31.1 31.55 31.8 30.65 27.9 31.0 26.6 31.3 25.75 29.6 Q26.45 29.0 27.55 25.2 L25.75 25.2 25.75 23.4 32.3 23.4 32.3 25.2 29.6 25.2 28.2 29.1 30.5 29.0 29.5 26.4 31.1 25.85 32.6 29.4 Q33.55 27.65 33.5 23.05 L32.05 23.05 32.05 21.2 33.55 21.2 33.55 18.8 35.4 18.8 35.4 21.2 M18.65 20.5 L24.05 20.5 24.05 32.65 22.0 32.65 22.0 31.8 14.65 31.8 14.65 32.65 12.6 32.65 12.6 20.5 16.5 20.5 16.9 18.8 19.25 19.1 18.65 20.5 M14.65 29.95 L22.0 29.95 22.0 28.55 14.65 28.55 14.65 29.95 M14.65 26.8 L22.0 26.8 22.0 25.45 14.65 25.45 14.65 26.8" fill="url(#gradient0)" fill-rule="evenodd" stroke="none"/>
    <path d="M26.4 19.85 L31.8 19.85 31.8 21.65 26.4 21.65 26.4 19.85 M22.0 22.3 L14.65 22.3 14.65 23.7 22.0 23.7 22.0 22.3 M35.4 21.2 L39.05 21.2 38.95 29.1 38.75 31.15 38.4 31.85 37.6 32.3 35.1 32.45 34.6 30.35 36.1 30.4 36.8 30.25 37.0 29.75 37.15 27.6 37.2 23.05 35.35 23.05 35.1 27.55 Q34.9 28.85 34.3 30.25 33.7 31.7 32.8 32.7 L31.1 31.55 31.8 30.65 27.9 31.0 26.6 31.3 25.75 29.6 Q26.45 29.0 27.55 25.2 L25.75 25.2 25.75 23.4 32.3 23.4 32.3 25.2 29.6 25.2 28.2 29.1 30.5 29.0 29.5 26.4 31.1 25.85 32.6 29.4 Q33.55 27.65 33.5 23.05 L32.05 23.05 32.05 21.2 33.55 21.2 33.55 18.8 35.4 18.8 35.4 21.2 M18.65 20.5 L24.05 20.5 24.05 32.65 22.0 32.65 22.0 31.8 14.65 31.8 14.65 32.65 12.6 32.65 12.6 20.5 16.5 20.5 16.9 18.8 19.25 19.1 18.65 20.5 M14.65 29.95 L22.0 29.95 22.0 28.55 14.65 28.55 14.65 29.95 M14.65 26.8 L22.0 26.8 22.0 25.45 14.65 25.45 14.65 26.8 Z" fill="none" stroke="#000033" stroke-linecap="butt" stroke-linejoin="miter-clip" stroke-miterlimit="3.0" stroke-width="5.0"/>
    <path d="M22.0 22.3 L14.65 22.3 14.65 23.7 22.0 23.7 22.0 22.3 M26.4 19.85 L31.8 19.85 31.8 21.65 26.4 21.65 26.4 19.85 M32.05 23.05 L32.05 21.2 33.55 21.2 33.55 18.8 35.4 18.8 35.4 21.2 39.05 21.2 38.95 29.1 38.75 31.15 38.4 31.85 37.6 32.3 35.1 32.45 34.6 30.35 36.1 30.4 36.8 30.25 37.0 29.75 37.15 27.6 37.2 23.05 35.35 23.05 35.1 27.55 Q34.9 28.85 34.3 30.25 33.7 31.7 32.8 32.7 L31.1 31.55 31.8 30.65 27.9 31.0 26.6 31.3 25.75 29.6 Q26.45 29.0 27.55 25.2 L25.75 25.2 25.75 23.4 32.3 23.4 32.3 25.2 29.6 25.2 28.2 29.1 30.5 29.0 29.5 26.4 31.1 25.85 32.6 29.4 Q33.55 27.65 33.5 23.05 L32.05 23.05 M16.9 18.8 L19.25 19.1 18.65 20.5 24.05 20.5 24.05 32.65 22.0 32.65 22.0 31.8 14.65 31.8 14.65 32.65 12.6 32.65 12.6 20.5 16.5 20.5 16.9 18.8 M14.65 26.8 L22.0 26.8 22.0 25.45 14.65 25.45 14.65 26.8 M14.65 29.95 L22.0 29.95 22.0 28.55 14.65 28.55 14.65 29.95" fill="url(#gradient1)" fill-rule="evenodd" stroke="none"/>
    <path d="M22.0 22.3 L14.65 22.3 14.65 23.7 22.0 23.7 22.0 22.3 M26.4 19.85 L31.8 19.85 31.8 21.65 26.4 21.65 26.4 19.85 M32.05 23.05 L32.05 21.2 33.55 21.2 33.55 18.8 35.4 18.8 35.4 21.2 39.05 21.2 38.95 29.1 38.75 31.15 38.4 31.85 37.6 32.3 35.1 32.45 34.6 30.35 36.1 30.4 36.8 30.25 37.0 29.75 37.15 27.6 37.2 23.05 35.35 23.05 35.1 27.55 Q34.9 28.85 34.3 30.25 33.7 31.7 32.8 32.7 L31.1 31.55 31.8 30.65 27.9 31.0 26.6 31.3 25.75 29.6 Q26.45 29.0 27.55 25.2 L25.75 25.2 25.75 23.4 32.3 23.4 32.3 25.2 29.6 25.2 28.2 29.1 30.5 29.0 29.5 26.4 31.1 25.85 32.6 29.4 Q33.55 27.65 33.5 23.05 L32.05 23.05 M16.9 18.8 L19.25 19.1 18.65 20.5 24.05 20.5 24.05 32.65 22.0 32.65 22.0 31.8 14.65 31.8 14.65 32.65 12.6 32.65 12.6 20.5 16.5 20.5 16.9 18.8 M14.65 26.8 L22.0 26.8 22.0 25.45 14.65 25.45 14.65 26.8 M14.65 29.95 L22.0 29.95 22.0 28.55 14.65 28.55 14.65 29.95 Z" fill="none" stroke="#006699" stroke-linecap="butt" stroke-linejoin="miter-clip" stroke-miterlimit="3.0" stroke-width="3.0"/>
    <path d="M26.4 19.85 L31.8 19.85 31.8 21.65 26.4 21.65 26.4 19.85 M23.7 24.5 L23.55 22.0 Q23.4 20.65 21.9 21.3 23.0 21.75 22.95 23.0 22.9 24.35 23.4 24.75 L23.7 24.5 M22.0 22.3 L14.65 22.3 14.65 23.7 22.0 23.7 22.0 22.3 M37.1 32.4 L35.1 32.45 34.6 30.35 36.1 30.4 36.8 30.25 37.0 29.75 37.15 27.6 37.2 23.05 35.35 23.05 35.1 27.55 Q34.9 28.85 34.3 30.25 33.7 31.7 32.8 32.7 L31.1 31.55 31.8 30.65 27.9 31.0 26.6 31.3 25.75 29.6 Q26.45 29.0 27.55 25.2 L25.75 25.2 25.75 23.4 32.3 23.4 32.3 25.2 29.6 25.2 28.2 29.1 30.5 29.0 29.5 26.4 31.1 25.85 32.6 29.4 Q33.55 27.65 33.5 23.05 L32.05 23.05 32.05 21.2 33.55 21.2 33.55 18.8 35.4 18.8 35.4 21.2 39.05 21.2 38.95 29.1 38.75 31.15 38.4 31.85 37.7 32.3 38.05 31.85 38.55 31.15 38.45 30.9 38.25 30.8 37.6 31.45 Q37.05 32.0 37.05 32.25 L37.1 32.4 M37.9 21.6 Q37.4 21.2 37.05 22.1 37.9 22.6 38.05 23.5 38.15 24.65 38.4 24.95 L38.7 24.8 38.7 22.85 Q38.3 21.95 37.9 21.6 M16.9 18.8 L19.25 19.1 18.65 20.5 24.05 20.5 24.05 32.65 22.0 32.65 22.0 31.8 14.65 31.8 14.65 32.65 12.6 32.65 12.6 20.5 16.5 20.5 16.9 18.8 M13.65 30.9 Q13.5 30.65 13.5 30.05 13.55 29.5 13.2 29.3 12.95 29.55 12.9 30.2 L12.95 30.95 13.35 31.7 13.65 31.5 13.65 30.9 M14.65 29.95 L22.0 29.95 22.0 28.55 14.65 28.55 14.65 29.95 M14.65 26.8 L22.0 26.8 22.0 25.45 14.65 25.45 14.65 26.8 M23.25 25.05 Q22.95 25.1 22.95 25.5 22.95 25.85 23.25 25.95 L23.55 25.8 23.25 25.05 M26.7 29.1 L27.05 29.55 27.5 28.7 27.9 27.75 27.6 27.45 27.05 28.2 26.7 29.1 M38.55 25.95 L38.85 25.7 38.55 25.05 Q38.15 25.15 38.15 25.5 L38.25 25.85 38.55 25.95" fill="url(#gradient2)" fill-rule="evenodd" stroke="none"/>
    <path d="M23.7 24.5 L23.4 24.75 Q22.9 24.35 22.95 23.0 23.0 21.75 21.9 21.3 23.4 20.65 23.55 22.0 L23.7 24.5 M37.7 32.3 L37.35 32.55 37.15 32.5 37.1 32.4 37.05 32.25 Q37.05 32.0 37.6 31.45 L38.25 30.8 38.45 30.9 38.55 31.15 38.05 31.85 37.7 32.3 M37.9 21.6 Q38.3 21.95 38.7 22.85 L38.7 24.8 38.4 24.95 Q38.15 24.65 38.05 23.5 37.9 22.6 37.05 22.1 37.4 21.2 37.9 21.6 M13.65 30.9 L13.65 31.5 13.35 31.7 12.95 30.95 12.9 30.2 Q12.95 29.55 13.2 29.3 13.55 29.5 13.5 30.05 13.5 30.65 13.65 30.9 M38.55 25.95 L38.25 25.85 38.15 25.5 Q38.15 25.15 38.55 25.05 L38.85 25.7 38.55 25.95 M26.7 29.1 L27.05 28.2 27.6 27.45 27.9 27.75 27.5 28.7 27.05 29.55 26.7 29.1 M23.25 25.05 L23.55 25.8 23.25 25.95 Q22.95 25.85 22.95 25.5 22.95 25.1 23.25 25.05" fill="#ffffff" fill-rule="evenodd" stroke="none"/>
  </g>
  <defs>
    <linearGradient gradientTransform="matrix(0.0, -0.0063, 0.0085, 0.0, 32.4, 25.75)" gradientUnits="userSpaceOnUse" id="gradient0" spreadMethod="pad" x1="-819.2" x2="819.2">
      <stop offset="0.0" stop-color="#66ccff"/>
      <stop offset="1.0" stop-color="#66ffff"/>
    </linearGradient>
    <linearGradient gradientTransform="matrix(0.0, -0.0063, 0.0085, 0.0, 32.4, 25.75)" gradientUnits="userSpaceOnUse" id="gradient1" spreadMethod="pad" x1="-819.2" x2="819.2">
      <stop offset="0.0" stop-color="#66ccff"/>
      <stop offset="1.0" stop-color="#66ffff"/>
    </linearGradient>
    <linearGradient gradientTransform="matrix(0.0, -0.0063, 0.0085, 0.0, 32.4, 25.75)" gradientUnits="userSpaceOnUse" id="gradient2" spreadMethod="pad" x1="-819.2" x2="819.2">
      <stop offset="0.0" stop-color="#66ccff"/>
      <stop offset="1.0" stop-color="#66ffff"/>
    </linearGradient>
  </defs>
</svg>
