<?xml version="1.0" encoding="UTF-8" standalone="no"?>
<svg xmlns:xlink="http://www.w3.org/1999/xlink" height="30.95px" width="69.85px" xmlns="http://www.w3.org/2000/svg">
  <g transform="matrix(1.0, 0.0, 0.0, 1.0, 1.5, 0.6)">
    <path d="M5.8 -0.6 L19.85 -0.6 48.2 -0.6 61.0 -0.6 Q68.35 -0.6 68.35 6.55 L68.35 9.6 68.35 15.8 68.35 18.15 Q68.35 25.15 61.0 25.15 L48.2 25.15 19.85 25.15 14.15 25.15 8.65 30.0 7.6 30.35 Q7.0 30.35 6.65 30.0 6.1 29.55 6.1 28.9 L6.1 25.15 5.8 25.15 Q-1.5 25.15 -1.5 18.15 L-1.5 15.8 -1.5 9.6 -1.5 6.55 Q-1.5 -0.6 5.8 -0.6 M7.65 28.85 L13.35 23.85 13.85 23.65 19.85 23.65 48.2 23.65 61.0 23.65 Q66.85 23.65 66.85 18.15 L66.85 15.8 66.85 9.6 66.85 6.55 Q66.85 0.9 61.0 0.9 L48.2 0.9 19.85 0.9 5.8 0.9 Q0.0 0.9 0.0 6.55 L0.0 9.6 0.0 15.8 0.0 18.15 Q0.0 23.65 5.8 23.65 L6.85 23.65 Q7.15 23.65 7.4 23.9 L7.6 24.4 7.6 28.85 7.65 28.85 7.7 28.85 7.65 28.85" fill="#10161b" fill-rule="evenodd" stroke="none"/>
    <path d="M7.65 28.85 L7.6 28.85 7.6 24.4 7.4 23.9 Q7.15 23.65 6.85 23.65 L5.8 23.65 Q0.0 23.65 0.0 18.15 L0.0 15.8 0.0 9.6 0.0 6.55 Q0.0 0.9 5.8 0.9 L19.85 0.9 48.2 0.9 61.0 0.9 Q66.85 0.9 66.85 6.55 L66.85 9.6 66.85 15.8 66.85 18.15 Q66.85 23.65 61.0 23.65 L48.2 23.65 19.85 23.65 13.85 23.65 13.35 23.85 7.65 28.85 M66.1 9.6 L66.1 6.55 Q66.1 1.55 61.0 1.55 L48.2 1.55 19.85 1.55 5.8 1.55 Q0.75 1.55 0.75 6.55 L0.75 9.6 0.75 15.8 0.75 18.15 Q0.75 23.05 5.8 23.05 L7.6 23.05 Q7.9 23.05 8.15 23.3 L8.35 23.75 8.35 27.3 13.0 23.25 13.5 23.05 19.85 23.05 48.2 23.05 61.0 23.05 Q66.1 23.05 66.1 18.15 L66.1 15.8 66.1 9.6" fill="#52e5f9" fill-rule="evenodd" stroke="none"/>
    <path d="M66.1 9.6 L66.1 15.8 66.1 18.15 Q66.1 23.05 61.0 23.05 L48.2 23.05 19.85 23.05 13.5 23.05 13.0 23.25 8.35 27.3 8.35 23.75 8.15 23.3 Q7.9 23.05 7.6 23.05 L5.8 23.05 Q0.75 23.05 0.75 18.15 L0.75 15.8 0.75 9.6 0.75 6.55 Q0.75 1.55 5.8 1.55 L19.85 1.55 48.2 1.55 61.0 1.55 Q66.1 1.55 66.1 6.55 L66.1 9.6" fill="#10161b" fill-opacity="0.8" fill-rule="evenodd" stroke="none"/>
  </g>
</svg>
