<?xml version="1.0" encoding="UTF-8" standalone="no"?>
<svg xmlns:xlink="http://www.w3.org/1999/xlink" height="59.15px" width="59.5px" xmlns="http://www.w3.org/2000/svg">
  <g transform="matrix(1.0, 0.0, 0.0, 1.0, 0.65, 0.0)">
    <path d="M52.1 0.05 L53.45 0.8 Q55.9 2.1 57.1 3.5 L57.3 3.9 57.65 4.35 Q58.1 5.85 58.8 7.15 L58.85 7.3 58.85 51.85 57.95 54.4 Q56.2 57.85 52.15 58.95 L51.35 59.15 6.95 59.15 5.8 58.85 5.6 58.7 5.75 58.75 6.3 58.95 6.6 58.95 6.9 58.95 6.8 58.9 6.75 58.9 6.35 58.9 6.15 58.85 5.6 58.65 5.4 58.5 5.4 58.6 4.65 58.05 2.05 56.15 1.85 55.85 0.2 53.2 0.05 52.9 -0.55 51.3 -0.65 51.1 -0.55 7.4 -0.45 7.15 -0.45 7.1 0.1 5.4 Q0.65 4.25 2.15 2.45 L3.2 1.55 3.75 1.3 Q5.6 0.5 6.1 0.5 L8.5 0.0 52.0 0.0 52.1 0.05" fill="#070a1b" fill-opacity="0.4" fill-rule="evenodd" stroke="none"/>
    <path d="M52.1 0.05 L52.0 0.0 52.05 0.0 52.1 0.05 M5.4 58.6 L5.4 58.5 5.6 58.65 6.15 58.85 6.35 58.9 6.75 58.9 6.8 58.9 6.9 58.95 6.6 58.95 6.3 58.95 5.75 58.75 5.6 58.7 5.4 58.6 M51.35 59.15 L52.15 58.95 Q56.2 57.85 57.95 54.4 L58.85 51.85 58.85 53.5 58.0 54.75 56.7 56.3 53.15 59.15 51.35 59.15" fill="#070a1b" fill-opacity="0.6" fill-rule="evenodd" stroke="none"/>
  </g>
</svg>
