<?xml version="1.0" encoding="UTF-8" standalone="no"?>
<svg xmlns:xlink="http://www.w3.org/1999/xlink" height="38.1px" width="52.2px" xmlns="http://www.w3.org/2000/svg">
  <g transform="matrix(1.0, 0.0, 0.0, 1.0, 1.0, 1.0)">
    <path d="M26.75 34.75 L23.25 34.15 Q21.25 33.85 18.0 34.05 L15.1 34.25 14.2 34.35 Q9.45 34.65 5.95 33.3 2.05 31.8 0.85 28.15 -1.3 21.5 1.9 15.8 5.1 10.05 9.45 6.4 13.75 2.8 15.5 1.7 L17.85 0.0 Q18.8 0.05 18.1 1.3 17.15 2.85 17.4 4.6 17.55 5.6 18.85 5.65 21.1 5.3 22.65 3.7 24.5 1.85 27.45 1.9 24.25 4.55 23.45 8.45 23.2 9.65 24.5 9.65 30.15 9.55 33.3 5.0 34.1 3.75 35.3 2.85 38.65 0.1 43.25 0.0 38.3 4.4 39.25 10.3 43.1 7.15 48.0 5.7 L46.5 8.0 Q43.9 12.7 47.8 17.05 48.95 18.25 49.5 19.85 51.45 24.95 48.0 29.55 46.15 32.0 41.3 34.45 36.45 36.9 31.3 35.7 L26.9 34.8 26.75 34.75" fill="url(#gradient0)" fill-rule="evenodd" stroke="none"/>
    <path d="M26.75 34.75 L23.25 34.15 Q21.25 33.85 18.0 34.05 L15.1 34.25 14.2 34.35 Q9.45 34.65 5.95 33.3 2.05 31.8 0.85 28.15 -1.3 21.5 1.9 15.8 5.1 10.05 9.45 6.4 13.75 2.8 15.5 1.7 L17.85 0.0 Q18.8 0.05 18.1 1.3 17.15 2.85 17.4 4.6 17.55 5.6 18.85 5.65 21.1 5.3 22.65 3.7 24.5 1.85 27.45 1.9 24.25 4.55 23.45 8.45 23.2 9.65 24.5 9.65 30.15 9.55 33.3 5.0 34.1 3.75 35.3 2.85 38.65 0.1 43.25 0.0 38.3 4.4 39.25 10.3 43.1 7.15 48.0 5.7 L46.5 8.0 Q43.9 12.7 47.8 17.05 48.95 18.25 49.5 19.85 51.45 24.95 48.0 29.55 46.15 32.0 41.3 34.45 36.45 36.9 31.3 35.7 L26.9 34.8" fill="none" stroke="#d86802" stroke-linecap="butt" stroke-linejoin="miter-clip" stroke-miterlimit="3.0" stroke-width="2.0"/>
    <path d="M42.7 17.65 L39.75 17.65 39.4 22.75 41.1 18.25 44.3 18.25 41.75 25.0 Q41.0 27.0 39.25 27.0 L39.15 27.0 39.2 27.05 39.5 27.1 42.4 27.1 41.8 29.9 37.25 29.9 Q35.5 29.9 35.75 27.8 L35.85 27.0 32.9 27.0 33.5 24.15 36.1 24.15 36.5 17.65 34.4 17.65 34.55 16.95 32.05 16.95 31.5 19.3 34.45 19.3 32.55 28.15 Q32.15 30.05 30.1 30.05 L23.45 30.05 25.75 19.3 28.55 19.3 30.25 11.4 33.25 11.4 32.65 14.05 35.95 14.05 35.8 14.7 36.8 14.7 37.1 11.4 40.2 11.4 39.95 14.7 42.0 14.7 42.15 14.4 42.65 12.35 45.45 12.35 44.6 16.0 Q44.3 17.65 42.7 17.65 M21.85 18.4 Q21.3 21.0 18.1 21.0 L14.35 21.0 13.0 27.0 16.65 27.0 Q17.0 27.0 17.05 26.8 L18.1 22.0 21.6 22.0 20.45 27.25 Q19.85 29.9 16.6 29.9 L1.7 29.9 3.4 22.0 6.9 22.0 5.8 27.0 9.6 27.0 10.95 21.0 4.1 21.0 5.9 12.4 9.3 12.4 8.05 18.25 11.5 18.25 12.95 11.5 16.35 11.5 14.9 18.25 18.1 18.25 18.45 18.0 19.65 12.4 23.1 12.4 21.85 18.4 M28.2 22.25 L27.15 27.1 29.35 27.1 29.7 26.85 30.7 22.25 28.2 22.25 Z" fill="none" stroke="#760101" stroke-linecap="butt" stroke-linejoin="miter-clip" stroke-miterlimit="3.0" stroke-width="3.5"/>
    <path d="M44.25 18.3 L41.7 25.0 Q41.0 27.0 39.2 27.0 L39.1 27.0 39.15 27.1 39.45 27.15 42.4 27.15 41.75 29.9 37.25 29.9 Q35.45 29.9 35.7 27.8 L35.8 27.0 32.85 27.0 33.45 24.15 36.05 24.15 36.5 17.7 34.35 17.7 34.5 17.0 32.05 17.0 31.55 19.35 34.4 19.35 32.5 28.15 Q32.15 30.05 30.1 30.05 L23.45 30.05 25.75 19.35 28.55 19.35 30.3 11.4 33.2 11.4 32.65 14.1 35.9 14.1 35.75 14.75 36.75 14.75 37.05 11.4 40.2 11.4 39.95 14.75 42.0 14.75 42.15 14.45 42.65 12.35 45.4 12.35 44.6 16.05 Q44.25 17.7 42.7 17.7 L39.75 17.7 39.35 22.75 41.1 18.3 44.25 18.3 M32.2 14.4 Q32.2 12.9 31.1 13.3 29.95 13.6 29.95 15.2 29.9 16.25 30.9 16.25 31.6 16.25 31.95 15.5 L32.2 14.4 M28.2 22.3 L27.15 27.15 29.35 27.15 Q29.65 27.15 29.7 26.85 L30.7 22.3 28.2 22.3" fill="url(#gradient1)" fill-rule="evenodd" stroke="none"/>
    <path d="M21.8 18.45 Q21.3 21.05 18.05 21.05 L14.3 21.05 12.95 27.05 16.6 27.05 17.0 26.8 18.05 22.05 21.55 22.05 20.4 27.3 Q19.85 29.9 16.55 29.9 L1.65 29.9 3.4 22.05 6.9 22.05 5.8 27.05 9.6 27.05 10.95 21.05 4.05 21.05 5.9 12.4 9.3 12.4 8.05 18.3 11.5 18.3 12.9 11.5 16.35 11.5 14.9 18.3 18.05 18.3 18.45 18.05 19.65 12.4 23.1 12.4 21.8 18.45 M8.1 14.75 Q8.1 13.65 6.95 13.55 5.8 13.45 5.8 15.2 5.85 16.25 6.9 16.25 7.55 16.25 7.85 15.6 L8.1 14.75" fill="url(#gradient2)" fill-rule="evenodd" stroke="none"/>
    <path d="M32.2 14.4 L31.95 15.5 Q31.6 16.25 30.9 16.25 29.9 16.25 29.95 15.2 29.95 13.6 31.1 13.3 32.2 12.9 32.2 14.4 M8.1 14.75 L7.85 15.6 Q7.55 16.25 6.9 16.25 5.85 16.25 5.8 15.2 5.8 13.45 6.95 13.55 8.1 13.65 8.1 14.75" fill="#fef8fa" fill-rule="evenodd" stroke="none"/>
  </g>
  <defs>
    <linearGradient gradientTransform="matrix(0.0, 0.0113, -0.0306, 0.0, 25.1, 22.1)" gradientUnits="userSpaceOnUse" id="gradient0" spreadMethod="pad" x1="-819.2" x2="819.2">
      <stop offset="0.0" stop-color="#ffff00"/>
      <stop offset="1.0" stop-color="#ff0000"/>
    </linearGradient>
    <linearGradient gradientTransform="matrix(0.0014, -0.0107, 0.0117, 0.0016, 34.4, 21.35)" gradientUnits="userSpaceOnUse" id="gradient1" spreadMethod="pad" x1="-819.2" x2="819.2">
      <stop offset="0.0" stop-color="#f9e706"/>
      <stop offset="1.0" stop-color="#f39700"/>
    </linearGradient>
    <linearGradient gradientTransform="matrix(0.0017, -0.0104, 0.011, 0.0018, 12.45, 20.6)" gradientUnits="userSpaceOnUse" id="gradient2" spreadMethod="pad" x1="-819.2" x2="819.2">
      <stop offset="0.0" stop-color="#f9e706"/>
      <stop offset="1.0" stop-color="#f39700"/>
    </linearGradient>
  </defs>
</svg>
