<?xml version="1.0" encoding="UTF-8" standalone="no"?>
<svg xmlns:xlink="http://www.w3.org/1999/xlink" height="53.7px" width="49.8px" xmlns="http://www.w3.org/2000/svg">
  <g transform="matrix(1.0, 0.0, 0.0, 1.0, 6.0, 5.0)">
    <path d="M31.55 14.25 L22.1 14.25 22.1 23.35 31.55 23.35 31.55 14.25 M22.1 8.45 L37.8 8.45 37.8 32.05 31.55 32.05 31.55 29.15 22.1 29.15 22.1 42.7 15.7 42.7 15.7 29.15 6.25 29.15 6.25 32.2 0.0 32.2 0.0 8.45 15.7 8.45 15.7 1.0 22.1 1.0 22.1 8.45 M15.7 23.35 L15.7 14.25 6.25 14.25 6.25 23.35 15.7 23.35 Z" fill="none" stroke="#330000" stroke-linecap="butt" stroke-linejoin="miter-clip" stroke-miterlimit="3.0" stroke-width="12.0"/>
    <path d="M31.55 23.35 L31.55 14.25 22.1 14.25 22.1 23.35 31.55 23.35 M22.1 8.45 L37.8 8.45 37.8 32.05 31.55 32.05 31.55 29.15 22.1 29.15 22.1 42.7 15.7 42.7 15.7 29.15 6.25 29.15 6.25 32.2 0.0 32.2 0.0 8.45 15.7 8.45 15.7 1.0 22.1 1.0 22.1 8.45 M15.7 23.35 L15.7 14.25 6.25 14.25 6.25 23.35 15.7 23.35" fill="url(#gradient0)" fill-rule="evenodd" stroke="none"/>
    <path d="M31.55 23.35 L31.55 14.25 22.1 14.25 22.1 23.35 31.55 23.35 M22.1 8.45 L37.8 8.45 37.8 32.05 31.55 32.05 31.55 29.15 22.1 29.15 22.1 42.7 15.7 42.7 15.7 29.15 6.25 29.15 6.25 32.2 0.0 32.2 0.0 8.45 15.7 8.45 15.7 1.0 22.1 1.0 22.1 8.45 M15.7 23.35 L15.7 14.25 6.25 14.25 6.25 23.35 15.7 23.35 Z" fill="none" stroke="#660000" stroke-linecap="butt" stroke-linejoin="miter-clip" stroke-miterlimit="3.0" stroke-width="4.0"/>
    <path d="M37.8 7.45 L37.8 23.55 0.0 23.55 0.0 7.45 15.7 7.45 15.7 0.0 22.1 0.0 22.1 7.45 37.8 7.45 M31.55 22.35 L31.55 13.25 22.1 13.25 22.1 22.35 31.55 22.35 M15.7 13.25 L6.25 13.25 6.25 22.35 15.7 22.35 15.7 13.25" fill="url(#gradient1)" fill-rule="evenodd" stroke="none"/>
    <path d="M6.25 31.2 L0.0 31.2 0.0 23.55 37.8 23.55 37.8 31.05 31.55 31.05 31.55 28.15 22.1 28.15 22.1 41.7 15.7 41.7 15.7 28.15 6.25 28.15 6.25 31.2" fill="url(#gradient2)" fill-rule="evenodd" stroke="none"/>
  </g>
  <defs>
    <linearGradient gradientTransform="matrix(0.0, -0.0163, 0.0255, 0.0, 18.85, 21.9)" gradientUnits="userSpaceOnUse" id="gradient0" spreadMethod="pad" x1="-819.2" x2="819.2">
      <stop offset="0.0" stop-color="#ff0066"/>
      <stop offset="1.0" stop-color="#ffff00"/>
    </linearGradient>
    <linearGradient gradientTransform="matrix(0.0, -0.0085, 0.0255, 0.0, 20.6, 13.0)" gradientUnits="userSpaceOnUse" id="gradient1" spreadMethod="pad" x1="-819.2" x2="819.2">
      <stop offset="0.0" stop-color="#ffffcc"/>
      <stop offset="1.0" stop-color="#ffff00"/>
    </linearGradient>
    <linearGradient gradientTransform="matrix(0.0, -0.0124, 0.0255, 0.0, 18.9, 28.5)" gradientUnits="userSpaceOnUse" id="gradient2" spreadMethod="pad" x1="-819.2" x2="819.2">
      <stop offset="0.0" stop-color="#ff0066"/>
      <stop offset="1.0" stop-color="#ffff00"/>
    </linearGradient>
  </defs>
</svg>
