<?xml version="1.0" encoding="UTF-8" standalone="no"?>
<svg xmlns:xlink="http://www.w3.org/1999/xlink" height="54.9px" width="54.2px" xmlns="http://www.w3.org/2000/svg">
  <g transform="matrix(1.0, 0.0, 0.0, 1.0, 6.0, 6.25)">
    <path d="M31.65 1.4 L37.95 6.6 34.25 10.25 Q31.6 7.4 28.35 4.75 L31.65 1.4 M27.5 1.0 L27.8 11.65 39.1 10.1 39.55 15.0 28.1 16.7 29.0 24.55 Q31.85 21.35 34.9 16.7 L39.6 19.85 Q35.15 25.8 30.3 30.35 31.25 33.6 32.6 35.6 33.05 36.15 33.45 36.15 33.95 36.15 34.25 35.35 34.95 32.45 35.1 28.25 L40.5 30.45 Q39.15 39.0 37.7 40.85 36.25 42.65 33.6 42.65 28.45 42.65 25.55 34.3 22.8 36.45 19.9 38.1 L17.9 35.5 17.9 41.05 12.5 41.05 12.5 38.95 5.35 38.95 5.35 41.45 0.0 41.45 0.0 20.2 5.15 20.2 5.15 1.05 10.9 1.05 10.9 7.6 18.85 7.6 18.85 12.45 10.9 12.45 10.9 20.2 17.9 20.2 17.9 32.75 Q21.25 30.95 23.9 28.85 23.0 24.5 22.4 17.5 L17.25 18.3 16.5 13.25 22.05 12.45 21.55 1.0 27.5 1.0 M12.5 25.0 L5.35 25.0 5.35 34.15 12.5 34.15 12.5 25.0" fill="url(#gradient0)" fill-rule="evenodd" stroke="none"/>
    <path d="M31.65 1.4 L37.95 6.6 34.25 10.25 Q31.6 7.4 28.35 4.75" fill="none" stroke="#330000" stroke-linecap="butt" stroke-linejoin="miter-clip" stroke-miterlimit="3.0" stroke-width="12.0"/>
    <path d="M27.8 11.65 L39.1 10.1 39.55 15.0 28.1 16.7 29.0 24.55 Q31.85 21.35 34.9 16.7 L39.6 19.85 Q35.15 25.8 30.3 30.35 31.25 33.6 32.6 35.6 33.05 36.15 33.45 36.15 33.95 36.15 34.25 35.35 34.95 32.45 35.1 28.25 L40.5 30.45 Q39.15 39.0 37.7 40.85 36.25 42.65 33.6 42.65 28.45 42.65 25.55 34.3 22.8 36.45 19.9 38.1 L17.9 35.5 17.9 41.05 12.5 41.05 12.5 38.95 5.35 38.95 5.35 41.45 0.0 41.45 0.0 20.2 5.15 20.2 5.15 1.05 10.9 1.05 10.9 7.6 18.85 7.6 18.85 12.45 10.9 12.45 10.9 20.2 17.9 20.2 17.9 32.75 Q21.25 30.95 23.9 28.85 23.0 24.5 22.4 17.5 L17.25 18.3 16.5 13.25 22.05 12.45 21.55 1.0 27.5 1.0 27.8 11.65 M28.35 4.75 L31.65 1.4 M12.5 25.0 L5.35 25.0 5.35 34.15 12.5 34.15 12.5 25.0 Z" fill="none" stroke="#330000" stroke-linecap="butt" stroke-linejoin="miter-clip" stroke-miterlimit="3.0" stroke-width="12.0"/>
    <path d="M27.5 1.0 L27.8 11.65 39.1 10.1 39.55 15.0 28.1 16.7 29.0 24.55 Q31.85 21.35 34.9 16.7 L39.6 19.85 Q35.15 25.8 30.3 30.35 31.25 33.6 32.6 35.6 33.05 36.15 33.45 36.15 33.95 36.15 34.25 35.35 34.95 32.45 35.1 28.25 L40.5 30.45 Q39.15 39.0 37.7 40.85 36.25 42.65 33.6 42.65 28.45 42.65 25.55 34.3 22.8 36.45 19.9 38.1 L17.9 35.5 17.9 41.05 12.5 41.05 12.5 38.95 5.35 38.95 5.35 41.45 0.0 41.45 0.0 20.2 5.15 20.2 5.15 1.05 10.9 1.05 10.9 7.6 18.85 7.6 18.85 12.45 10.9 12.45 10.9 20.2 17.9 20.2 17.9 32.75 Q21.25 30.95 23.9 28.85 23.0 24.5 22.4 17.5 L17.25 18.3 16.5 13.25 22.05 12.45 21.55 1.0 27.5 1.0 M12.5 25.0 L5.35 25.0 5.35 34.15 12.5 34.15 12.5 25.0" fill="url(#gradient1)" fill-rule="evenodd" stroke="none"/>
    <path d="M37.95 6.6 L34.25 10.25 Q31.6 7.4 28.35 4.75 L31.65 1.4 37.95 6.6 M27.5 1.0 L27.8 11.65 39.1 10.1 39.55 15.0 28.1 16.7 29.0 24.55 Q31.85 21.35 34.9 16.7 L39.6 19.85 Q35.15 25.8 30.3 30.35 31.25 33.6 32.6 35.6 33.05 36.15 33.45 36.15 33.95 36.15 34.25 35.35 34.95 32.45 35.1 28.25 L40.5 30.45 Q39.15 39.0 37.7 40.85 36.25 42.65 33.6 42.65 28.45 42.65 25.55 34.3 22.8 36.45 19.9 38.1 L17.9 35.5 17.9 41.05 12.5 41.05 12.5 38.95 5.35 38.95 5.35 41.45 0.0 41.45 0.0 20.2 5.15 20.2 5.15 1.05 10.9 1.05 10.9 7.6 18.85 7.6 18.85 12.45 10.9 12.45 10.9 20.2 17.9 20.2 17.9 32.75 Q21.25 30.95 23.9 28.85 23.0 24.5 22.4 17.5 L17.25 18.3 16.5 13.25 22.05 12.45 21.55 1.0 27.5 1.0 M12.5 25.0 L5.35 25.0 5.35 34.15 12.5 34.15 12.5 25.0 Z" fill="none" stroke="#660000" stroke-linecap="butt" stroke-linejoin="miter-clip" stroke-miterlimit="3.0" stroke-width="4.0"/>
    <path d="M37.95 5.6 L34.25 9.25 Q31.6 6.4 28.35 3.75 L31.65 0.4 37.95 5.6 M21.55 0.0 L27.5 0.0 27.8 10.65 39.1 9.1 39.55 14.0 28.1 15.7 29.0 23.45 23.15 23.45 22.4 16.5 17.25 17.3 16.5 12.25 22.05 11.45 21.55 0.0 M39.6 18.85 L35.95 23.45 29.1 23.45 Q31.9 20.3 34.9 15.7 L39.6 18.85 M18.85 11.45 L10.9 11.45 10.9 19.2 17.9 19.2 17.9 23.45 0.0 23.45 0.0 19.2 5.15 19.2 5.15 0.05 10.9 0.05 10.9 6.6 18.85 6.6 18.85 11.45" fill="url(#gradient2)" fill-rule="evenodd" stroke="none"/>
    <path d="M29.1 23.45 L35.95 23.45 30.3 29.35 Q31.25 32.6 32.6 34.6 33.05 35.15 33.45 35.15 33.95 35.15 34.25 34.35 34.95 31.45 35.1 27.25 L40.5 29.45 Q39.15 38.0 37.7 39.85 36.25 41.65 33.6 41.65 28.45 41.65 25.55 33.3 22.8 35.45 19.9 37.1 L17.9 34.5 17.9 40.05 12.5 40.05 12.5 37.95 5.35 37.95 5.35 40.45 0.0 40.45 0.0 23.45 17.9 23.45 17.9 31.75 Q21.25 29.95 23.9 27.85 L23.15 23.45 29.0 23.45 29.0 23.55 29.1 23.45 M5.35 24.0 L5.35 33.15 12.5 33.15 12.5 24.0 5.35 24.0" fill="url(#gradient3)" fill-rule="evenodd" stroke="none"/>
  </g>
  <defs>
    <linearGradient gradientTransform="matrix(0.0, -0.0163, 0.0255, 0.0, 62.3, 21.8)" gradientUnits="userSpaceOnUse" id="gradient0" spreadMethod="pad" x1="-819.2" x2="819.2">
      <stop offset="0.0" stop-color="#ff0066"/>
      <stop offset="1.0" stop-color="#ffff00"/>
    </linearGradient>
    <linearGradient gradientTransform="matrix(0.0, -0.0163, 0.0255, 0.0, 62.3, 21.8)" gradientUnits="userSpaceOnUse" id="gradient1" spreadMethod="pad" x1="-819.2" x2="819.2">
      <stop offset="0.0" stop-color="#ff0066"/>
      <stop offset="1.0" stop-color="#ffff00"/>
    </linearGradient>
    <linearGradient gradientTransform="matrix(0.0, -0.0085, 0.0255, 0.0, 64.05, 12.9)" gradientUnits="userSpaceOnUse" id="gradient2" spreadMethod="pad" x1="-819.2" x2="819.2">
      <stop offset="0.0" stop-color="#ffffcc"/>
      <stop offset="1.0" stop-color="#ffff00"/>
    </linearGradient>
    <linearGradient gradientTransform="matrix(0.0, -0.0124, 0.0255, 0.0, 62.35, 28.4)" gradientUnits="userSpaceOnUse" id="gradient3" spreadMethod="pad" x1="-819.2" x2="819.2">
      <stop offset="0.0" stop-color="#ff0066"/>
      <stop offset="1.0" stop-color="#ffff00"/>
    </linearGradient>
  </defs>
</svg>
