<?xml version="1.0" encoding="UTF-8" standalone="no"?>
<svg xmlns:xlink="http://www.w3.org/1999/xlink" height="37.45px" width="37.55px" xmlns="http://www.w3.org/2000/svg">
  <g transform="matrix(1.0, 0.0, 0.0, 1.0, 37.3, 37.2)">
    <path d="M-19.3 -30.55 L-18.85 -29.7 -16.6 -30.05 Q-16.25 -30.6 -16.6 -31.0 -18.25 -33.1 -19.3 -30.55 M-10.3 -33.15 L-10.65 -33.45 Q-14.25 -34.85 -15.85 -31.8 L-15.45 -31.25 -10.55 -32.15 -10.3 -33.15 M-7.8 -31.95 Q-8.45 -29.1 -10.1 -26.45 L-11.35 -24.6 -13.1 -24.95 Q-16.75 -28.15 -21.5 -29.6 L-23.25 -30.1 Q-17.45 -35.2 -9.75 -34.75 -7.25 -34.35 -7.8 -31.95" fill="#d7dbda" fill-rule="evenodd" stroke="none"/>
    <path d="M-10.3 -33.15 L-10.55 -32.15 -15.45 -31.25 -15.85 -31.8 Q-14.25 -34.85 -10.65 -33.45 L-10.3 -33.15 M-19.3 -30.55 Q-18.25 -33.1 -16.6 -31.0 -16.25 -30.6 -16.6 -30.05 L-18.85 -29.7 -19.3 -30.55" fill="#ffffff" fill-rule="evenodd" stroke="none"/>
    <path d="M-9.0 -24.8 L-6.0 -29.65 Q-4.2 -32.95 -6.85 -35.25 -8.25 -35.95 -9.95 -36.1 -22.4 -35.3 -31.5 -26.55 L-29.45 -26.45 Q-27.0 -27.85 -24.3 -28.2 -16.35 -27.4 -11.65 -21.0 L-9.0 -24.8 M-33.15 -27.2 Q-22.9 -36.95 -9.05 -36.95 -3.75 -36.3 -1.45 -31.6 0.4 -27.9 -0.1 -23.75 -0.6 -19.2 -2.4 -14.9 -4.9 -9.0 -8.95 -4.15 L-9.7 -4.9 -10.5 -5.65 -11.5 -6.6 -9.0 -13.15 Q-10.45 -17.75 -13.55 -21.4 -17.85 -26.5 -24.55 -27.35 L-30.4 -24.45 -33.15 -27.2 M-8.35 -6.6 Q-2.35 -14.35 -1.05 -24.55 -0.85 -25.95 -0.95 -27.35 -2.45 -16.65 -8.95 -7.95 L-9.15 -7.55 -8.35 -6.6" fill="#607b7d" fill-rule="evenodd" stroke="none"/>
    <path d="M-9.0 -24.8 L-11.65 -21.0 Q-16.35 -27.4 -24.3 -28.2 -27.0 -27.85 -29.45 -26.45 L-31.5 -26.55 Q-22.4 -35.3 -9.95 -36.1 -8.25 -35.95 -6.85 -35.25 -4.2 -32.95 -6.0 -29.65 L-9.0 -24.8 M-7.8 -31.95 Q-7.25 -34.35 -9.75 -34.75 -17.45 -35.2 -23.25 -30.1 L-21.5 -29.6 Q-16.75 -28.15 -13.1 -24.95 L-11.35 -24.6 -10.1 -26.45 Q-8.45 -29.1 -7.8 -31.95" fill="#9aa9a8" fill-rule="evenodd" stroke="none"/>
    <path d="M-23.2 -23.15 L-22.8 -23.85 Q-23.1 -24.75 -24.15 -24.85 -27.8 -24.5 -31.3 -23.25 L-33.15 -24.65 -33.9 -24.0 Q-33.55 -22.65 -32.3 -22.2 L-31.0 -22.3 Q-27.1 -23.7 -23.2 -23.15 M-32.4 -20.6 L-32.7 -20.8 -34.25 -22.2 -35.5 -23.75 -33.7 -25.9 -31.05 -23.5 -29.0 -24.1 -26.25 -25.05 Q-19.85 -26.35 -14.8 -21.55 L-16.6 -19.6 Q-18.0 -20.65 -19.6 -21.25 -26.25 -24.25 -32.4 -20.6" fill="#bbbbbb" fill-rule="evenodd" stroke="none"/>
    <path d="M-23.2 -23.15 Q-27.1 -23.7 -31.0 -22.3 L-32.3 -22.2 Q-33.55 -22.65 -33.9 -24.0 L-33.15 -24.65 -31.3 -23.25 Q-27.8 -24.5 -24.15 -24.85 -23.1 -24.75 -22.8 -23.85 L-23.2 -23.15" fill="#f7f7f7" fill-rule="evenodd" stroke="none"/>
    <path d="M-8.95 -4.15 L-12.7 0.0 -13.25 -0.5 -9.7 -4.9 -8.95 -4.15 M-14.05 -1.25 L-16.9 -4.05 -15.95 -5.3 Q-13.05 -9.25 -14.05 -14.15 -14.75 -16.5 -16.35 -18.45 L-17.1 -19.2 Q-20.3 -22.2 -24.8 -22.25 -28.85 -22.1 -31.8 -19.35 L-32.3 -18.85 -37.05 -23.45 -33.15 -27.2 -30.4 -24.45 -24.55 -27.35 Q-17.85 -26.5 -13.55 -21.4 -10.45 -17.75 -9.0 -13.15 L-11.5 -6.6 -10.5 -5.65 Q-12.4 -2.95 -14.05 -1.25 M-32.4 -20.6 Q-26.25 -24.25 -19.6 -21.25 -18.0 -20.65 -16.6 -19.6 L-14.8 -21.55 Q-19.85 -26.35 -26.25 -25.05 L-29.0 -24.1 -31.05 -23.5 -33.7 -25.9 -35.5 -23.75 -34.25 -22.2 -32.7 -20.8 -32.4 -20.6" fill="#737373" fill-rule="evenodd" stroke="none"/>
    <path d="M-13.25 -0.5 L-14.05 -1.25 Q-12.4 -2.95 -10.5 -5.65 L-9.7 -4.9 -13.25 -0.5 M-8.35 -6.6 L-9.15 -7.55 -8.95 -7.95 Q-2.45 -16.65 -0.95 -27.35 -0.85 -25.95 -1.05 -24.55 -2.35 -14.35 -8.35 -6.6" fill="#e1e1e1" fill-rule="evenodd" stroke="none"/>
    <path d="M-33.15 -27.2 Q-22.9 -36.95 -9.05 -36.95 -3.75 -36.3 -1.45 -31.6 0.4 -27.9 -0.1 -23.75 -0.6 -19.2 -2.4 -14.9 -4.9 -9.0 -8.95 -4.15 L-12.7 0.0" fill="none" stroke="#1a3866" stroke-linecap="round" stroke-linejoin="round" stroke-width="0.5"/>
    <path d="M-12.7 0.0 L-13.25 -0.5 -14.05 -1.25 -16.9 -4.05 M-32.3 -18.85 L-37.05 -23.45 -33.15 -27.2 -30.4 -24.45 -24.55 -27.35 Q-17.85 -26.5 -13.55 -21.4 -10.45 -17.75 -9.0 -13.15 L-11.5 -6.6 -10.5 -5.65 -9.7 -4.9 -8.95 -4.15" fill="none" stroke="#151515" stroke-linecap="round" stroke-linejoin="round" stroke-width="0.5"/>
    <path d="M-16.9 -4.05 L-15.95 -5.3 Q-13.05 -9.25 -14.05 -14.15 -14.75 -16.5 -16.35 -18.45 L-17.1 -19.2 Q-20.3 -22.2 -24.8 -22.25 -28.85 -22.1 -31.8 -19.35 L-32.3 -18.85" fill="none" stroke="#151515" stroke-linecap="round" stroke-linejoin="round" stroke-width="0.5"/>
  </g>
</svg>
