<?xml version="1.0" encoding="UTF-8" standalone="no"?>
<svg xmlns:xlink="http://www.w3.org/1999/xlink" height="56.0px" width="53.65px" xmlns="http://www.w3.org/2000/svg">
  <g transform="matrix(1.0, 0.0, 0.0, 1.0, 7.55, 5.0)">
    <path d="M28.95 8.15 L40.0 8.15 39.5 31.9 Q39.4 36.7 39.1 37.9 38.8 39.1 37.95 40.05 37.05 40.95 35.6 41.4 L28.1 41.9 26.55 35.55 31.15 35.75 Q32.4 35.75 33.05 35.25 33.7 34.75 33.8 33.85 L34.1 27.4 34.3 13.7 28.85 13.7 Q28.65 23.05 28.1 27.15 27.55 31.15 25.75 35.3 24.0 39.45 21.2 42.7 18.8 40.8 16.05 39.15 L18.3 36.5 6.6 37.5 Q4.0 37.8 2.6 38.4 L0.0 33.3 Q2.2 31.5 5.4 20.1 L0.15 20.1 0.15 14.7 19.6 14.7 19.6 20.1 11.5 20.1 7.35 31.8 14.25 31.55 11.3 23.75 15.95 22.2 20.45 32.8 Q23.35 27.55 23.25 13.7 L19.0 13.7 19.0 8.15 23.4 8.15 23.45 1.0 29.05 1.0 28.95 8.15 M18.1 9.5 L1.95 9.5 1.95 4.1 18.1 4.1 18.1 9.5 Z" fill="none" stroke="#330000" stroke-linecap="butt" stroke-linejoin="miter-clip" stroke-miterlimit="3.0" stroke-width="12.0"/>
    <path d="M23.45 1.0 L29.05 1.0 28.95 8.15 40.0 8.15 39.5 31.9 Q39.4 36.7 39.1 37.9 38.8 39.1 37.95 40.05 37.05 40.95 35.6 41.4 L28.1 41.9 26.55 35.55 31.15 35.75 Q32.4 35.75 33.05 35.25 33.7 34.75 33.8 33.85 L34.1 27.4 34.3 13.7 28.85 13.7 Q28.65 23.05 28.1 27.15 27.55 31.15 25.75 35.3 24.0 39.45 21.2 42.7 18.8 40.8 16.05 39.15 L18.3 36.5 6.6 37.5 Q4.0 37.8 2.6 38.4 L0.0 33.3 Q2.2 31.5 5.4 20.1 L0.15 20.1 0.15 14.7 19.6 14.7 19.6 20.1 11.5 20.1 7.35 31.8 14.25 31.55 11.3 23.75 15.95 22.2 20.45 32.8 Q23.35 27.55 23.25 13.7 L19.0 13.7 19.0 8.15 23.4 8.15 23.45 1.0 M18.1 9.5 L1.95 9.5 1.95 4.1 18.1 4.1 18.1 9.5" fill="url(#gradient0)" fill-rule="evenodd" stroke="none"/>
    <path d="M23.45 1.0 L29.05 1.0 28.95 8.15 40.0 8.15 39.5 31.9 Q39.4 36.7 39.1 37.9 38.8 39.1 37.95 40.05 37.05 40.95 35.6 41.4 L28.1 41.9 26.55 35.55 31.15 35.75 Q32.4 35.75 33.05 35.25 33.7 34.75 33.8 33.85 L34.1 27.4 34.3 13.7 28.85 13.7 Q28.65 23.05 28.1 27.15 27.55 31.15 25.75 35.3 24.0 39.45 21.2 42.7 18.8 40.8 16.05 39.15 L18.3 36.5 6.6 37.5 Q4.0 37.8 2.6 38.4 L0.0 33.3 Q2.2 31.5 5.4 20.1 L0.15 20.1 0.15 14.7 19.6 14.7 19.6 20.1 11.5 20.1 7.35 31.8 14.25 31.55 11.3 23.75 15.95 22.2 20.45 32.8 Q23.35 27.55 23.25 13.7 L19.0 13.7 19.0 8.15 23.4 8.15 23.45 1.0 M18.1 9.5 L1.95 9.5 1.95 4.1 18.1 4.1 18.1 9.5 Z" fill="none" stroke="#660000" stroke-linecap="butt" stroke-linejoin="miter-clip" stroke-miterlimit="3.0" stroke-width="4.0"/>
    <path d="M28.95 7.15 L40.0 7.15 39.65 23.45 34.2 23.45 34.3 12.7 28.85 12.7 28.4 23.45 22.75 23.45 Q23.3 18.95 23.25 12.7 L19.0 12.7 19.0 7.15 23.4 7.15 23.45 0.0 29.05 0.0 28.95 7.15 M18.1 8.5 L1.95 8.5 1.95 3.1 18.1 3.1 18.1 8.5 M4.1 23.45 L5.4 19.1 0.15 19.1 0.15 13.7 19.6 13.7 19.6 19.1 11.5 19.1 10.05 23.45 4.1 23.45 M15.95 21.2 L16.9 23.45 11.6 23.45 11.3 22.75 15.95 21.2" fill="url(#gradient1)" fill-rule="evenodd" stroke="none"/>
    <path d="M22.75 23.45 L28.4 23.45 28.1 26.15 Q27.55 30.15 25.75 34.3 24.0 38.45 21.2 41.7 18.8 39.8 16.05 38.15 L18.3 35.5 6.6 36.5 Q4.0 36.8 2.6 37.4 L0.0 32.3 Q1.75 30.9 4.1 23.45 L10.05 23.45 7.35 30.8 14.25 30.55 11.6 23.45 16.9 23.45 20.45 31.8 Q22.05 28.9 22.75 23.45 M34.2 23.45 L39.65 23.45 39.5 30.9 Q39.4 35.7 39.1 36.9 38.8 38.1 37.95 39.05 37.05 39.95 35.6 40.4 L28.1 40.9 26.55 34.55 31.15 34.75 Q32.4 34.75 33.05 34.25 33.7 33.75 33.8 32.85 L34.1 26.4 34.2 23.45" fill="url(#gradient2)" fill-rule="evenodd" stroke="none"/>
  </g>
  <defs>
    <linearGradient gradientTransform="matrix(0.0, -0.0163, 0.0255, 0.0, 150.0, 21.8)" gradientUnits="userSpaceOnUse" id="gradient0" spreadMethod="pad" x1="-819.2" x2="819.2">
      <stop offset="0.0" stop-color="#ff0066"/>
      <stop offset="1.0" stop-color="#ffff00"/>
    </linearGradient>
    <linearGradient gradientTransform="matrix(0.0, -0.0085, 0.0255, 0.0, 151.75, 12.9)" gradientUnits="userSpaceOnUse" id="gradient1" spreadMethod="pad" x1="-819.2" x2="819.2">
      <stop offset="0.0" stop-color="#ffffcc"/>
      <stop offset="1.0" stop-color="#ffff00"/>
    </linearGradient>
    <linearGradient gradientTransform="matrix(0.0, -0.0124, 0.0255, 0.0, 150.05, 28.4)" gradientUnits="userSpaceOnUse" id="gradient2" spreadMethod="pad" x1="-819.2" x2="819.2">
      <stop offset="0.0" stop-color="#ff0066"/>
      <stop offset="1.0" stop-color="#ffff00"/>
    </linearGradient>
  </defs>
</svg>
