<?xml version="1.0" encoding="UTF-8" standalone="no"?>
<svg xmlns:xlink="http://www.w3.org/1999/xlink" height="73.25px" width="120.0px" xmlns="http://www.w3.org/2000/svg">
  <g transform="matrix(1.0, 0.0, 0.0, 1.0, 20.0, 40.0)">
    <path d="M55.5 31.6 Q40.75 34.65 24.8 32.0 L11.9 27.8 3.65 20.0 17.2 25.05 3.3 6.35 26.8 22.15 26.7 15.75 32.8 22.05 38.4 16.85 40.7 24.35 46.95 17.15 48.9 24.65 54.55 18.55 55.1 24.45 61.75 19.5 Q59.3 27.4 55.5 31.6" fill="#ffffff" fill-rule="evenodd" stroke="none"/>
    <path d="M24.8 32.0 Q14.95 30.75 10.0 28.25 L-10.0 10.0 10.0 20.0 -20.0 -20.0 20.25 15.6 21.2 4.15 26.3 11.9 28.0 3.65 34.4 17.25 35.2 2.45 40.8 14.7 47.75 4.3 50.4 16.3 70.0 -30.0 57.1 17.2 70.0 0.0 64.55 17.7 100.0 -40.0 62.45 28.0 Q59.8 30.4 55.5 31.6 59.3 27.4 61.75 19.5 L55.1 24.45 54.55 18.55 48.9 24.65 46.95 17.15 40.7 24.35 38.4 16.85 32.8 22.05 26.7 15.75 26.8 22.15 3.3 6.35 17.2 25.05 3.65 20.0 11.9 27.8 24.8 32.0" fill="#d0fff8" fill-rule="evenodd" stroke="none"/>
  </g>
</svg>
