<?xml version="1.0" encoding="UTF-8" standalone="no"?>
<svg xmlns:xlink="http://www.w3.org/1999/xlink" height="23.0px" width="23.0px" xmlns="http://www.w3.org/2000/svg">
  <g transform="matrix(1.0, 0.0, 0.0, 1.0, 6.0, 5.0)">
    <path d="M5.5 12.0 Q3.2 12.0 1.6 10.4 0.0 8.8 0.0 6.5 0.0 4.2 1.6 2.6 3.2 1.0 5.5 1.0 7.8 1.0 9.4 2.6 11.0 4.2 11.0 6.5 11.0 8.8 9.4 10.4 7.8 12.0 5.5 12.0 Z" fill="none" stroke="#330000" stroke-linecap="butt" stroke-linejoin="miter-clip" stroke-miterlimit="3.0" stroke-width="12.0"/>
    <path d="M9.4 10.4 Q7.8 12.0 5.5 12.0 3.2 12.0 1.6 10.4 0.0 8.8 0.0 6.5 0.0 4.2 1.6 2.6 3.2 1.0 5.5 1.0 7.8 1.0 9.4 2.6 11.0 4.2 11.0 6.5 11.0 8.8 9.4 10.4" fill="url(#gradient0)" fill-rule="evenodd" stroke="none"/>
    <path d="M9.4 10.4 Q7.8 12.0 5.5 12.0 3.2 12.0 1.6 10.4 0.0 8.8 0.0 6.5 0.0 4.2 1.6 2.6 3.2 1.0 5.5 1.0 7.8 1.0 9.4 2.6 11.0 4.2 11.0 6.5 11.0 8.8 9.4 10.4 Z" fill="none" stroke="#660000" stroke-linecap="butt" stroke-linejoin="miter-clip" stroke-miterlimit="3.0" stroke-width="4.0"/>
    <path d="M5.5 0.0 Q7.8 0.0 9.4 1.6 L10.65 3.5 0.35 3.5 Q0.75 2.45 1.6 1.6 3.2 0.0 5.5 0.0" fill="url(#gradient1)" fill-rule="evenodd" stroke="none"/>
    <path d="M9.4 9.4 Q7.8 11.0 5.5 11.0 3.2 11.0 1.6 9.4 0.0 7.8 0.0 5.5 0.0 4.4 0.35 3.5 L10.65 3.5 Q11.0 4.4 11.0 5.5 11.0 7.8 9.4 9.4" fill="url(#gradient2)" fill-rule="evenodd" stroke="none"/>
  </g>
  <defs>
    <linearGradient gradientTransform="matrix(0.0, -0.0163, 0.0255, 0.0, -77.0, 1.85)" gradientUnits="userSpaceOnUse" id="gradient0" spreadMethod="pad" x1="-819.2" x2="819.2">
      <stop offset="0.0" stop-color="#ff0066"/>
      <stop offset="1.0" stop-color="#ffff00"/>
    </linearGradient>
    <linearGradient gradientTransform="matrix(0.0, -0.0085, 0.0255, 0.0, -75.25, -7.05)" gradientUnits="userSpaceOnUse" id="gradient1" spreadMethod="pad" x1="-819.2" x2="819.2">
      <stop offset="0.0" stop-color="#ffffcc"/>
      <stop offset="1.0" stop-color="#ffff00"/>
    </linearGradient>
    <linearGradient gradientTransform="matrix(0.0, -0.0124, 0.0255, 0.0, -76.95, 8.45)" gradientUnits="userSpaceOnUse" id="gradient2" spreadMethod="pad" x1="-819.2" x2="819.2">
      <stop offset="0.0" stop-color="#ff0066"/>
      <stop offset="1.0" stop-color="#ffff00"/>
    </linearGradient>
  </defs>
</svg>
