<?xml version="1.0" encoding="UTF-8" standalone="no"?>
<svg xmlns:xlink="http://www.w3.org/1999/xlink" height="48.75px" width="45.8px" xmlns="http://www.w3.org/2000/svg">
  <g transform="matrix(1.0, 0.0, 0.0, 1.0, 27.5, 22.1)">
    <path d="M14.1 -16.9 Q15.0 -16.0 14.55 -14.5 15.6 -13.75 15.65 -12.0 15.6 -10.3 13.15 -9.85 12.75 -7.65 11.2 -7.55 9.55 -7.5 8.85 -9.05 7.1 -8.8 5.95 -9.95 4.75 -11.15 6.2 -13.2 4.95 -15.4 6.55 -16.95 8.15 -18.5 10.5 -17.15 12.55 -18.5 14.1 -16.9 M15.75 -1.65 Q17.5 -0.6 16.35 2.0 18.45 3.8 17.5 5.4 16.45 7.0 14.3 6.65 13.45 8.45 11.45 8.85 9.4 9.25 8.2 6.65 5.1 6.4 4.55 3.95 3.95 1.45 6.9 0.05 6.9 -2.75 9.55 -3.25 11.15 -3.55 12.45 -2.15 13.9 -2.75 15.75 -1.65 M4.5 12.3 Q5.15 11.55 6.45 11.3 8.05 11.0 9.3 12.4 10.8 11.8 12.6 12.9 14.35 13.95 13.25 16.55 15.3 18.35 14.35 19.95 13.35 21.55 11.15 21.2 10.3 23.0 8.3 23.45 6.25 23.8 5.1 21.2 L3.9 21.0 Q3.9 23.65 1.5 25.25 -1.85 27.45 -5.55 24.2 -9.75 25.85 -11.9 22.55 -13.25 20.55 -11.85 18.0 -13.5 16.3 -12.85 13.25 -12.2 10.15 -7.65 10.2 -6.2 6.3 -3.3 6.75 -0.5 7.2 0.15 10.35 2.85 10.4 4.5 12.3 3.75 13.1 3.8 14.6 3.75 13.1 4.5 12.3 M-20.9 -21.55 Q-19.3 -21.9 -18.0 -20.45 -16.55 -21.05 -14.75 -20.0 -13.35 -19.15 -13.75 -17.35 L-13.05 -17.55 Q-12.9 -20.0 -10.9 -21.2 -8.9 -22.45 -6.55 -19.85 -3.15 -20.8 -1.55 -18.2 0.05 -15.6 -2.5 -12.8 -1.35 -9.6 -3.95 -8.0 L-7.45 -8.15 Q-8.8 -6.95 -11.15 -7.5 -13.5 -8.05 -13.35 -11.5 L-14.15 -11.85 -16.15 -11.7 Q-17.0 -9.85 -19.05 -9.45 -21.1 -9.05 -22.25 -11.7 -25.4 -11.9 -25.95 -14.35 -26.55 -16.85 -23.55 -18.25 -23.55 -21.1 -20.9 -21.55 M-23.15 -2.7 Q-22.45 -3.0 -21.6 -2.45 -20.8 -1.9 -21.3 -0.55 -20.35 0.35 -20.8 1.2 -21.25 2.0 -22.3 1.85 -22.7 2.75 -23.65 3.0 -24.6 3.15 -25.2 1.85 -26.7 1.7 -26.95 0.45 -27.25 -0.85 -25.8 -1.55 -25.85 -3.0 -24.55 -3.25 -23.8 -3.4 -23.15 -2.7 M-14.1 -16.3 L-13.75 -17.35 -14.1 -16.3 M-21.0 7.45 Q-19.95 7.3 -18.65 8.05 -16.65 6.75 -15.1 8.3 -14.2 9.2 -14.65 10.7 -13.55 11.45 -13.55 13.2 -13.6 14.9 -16.05 15.4 -16.45 17.6 -18.0 17.65 -19.65 17.75 -20.3 16.15 -22.05 16.4 -23.25 15.25 -24.45 14.05 -23.0 12.0 L-23.4 11.05 Q-22.45 10.85 -22.05 9.9 -21.0 10.1 -20.55 9.3 -20.1 8.45 -21.05 7.55 L-21.0 7.45 -21.05 7.55 Q-20.1 8.45 -20.55 9.3 -21.0 10.1 -22.05 9.9 -22.45 10.85 -23.4 11.05 -24.35 11.25 -24.95 9.9 -26.45 9.8 -26.7 8.55 -27.0 7.25 -25.55 6.5 -25.6 5.05 -24.3 4.85 -23.55 4.65 -22.9 5.4 -22.2 5.1 -21.35 5.65 -20.55 6.15 -21.0 7.45" fill="#ffffff" fill-rule="evenodd" stroke="none"/>
    <path d="M14.1 -16.9 Q15.0 -16.0 14.55 -14.5 15.6 -13.75 15.65 -12.0 15.6 -10.3 13.15 -9.85 12.75 -7.65 11.2 -7.55 9.55 -7.5 8.85 -9.05 7.1 -8.8 5.95 -9.95 4.75 -11.15 6.2 -13.2 4.95 -15.4 6.55 -16.95 8.15 -18.5 10.5 -17.15 12.55 -18.5 14.1 -16.9 M15.75 -1.65 Q17.5 -0.6 16.35 2.0 18.45 3.8 17.5 5.4 16.45 7.0 14.3 6.65 13.45 8.45 11.45 8.85 9.4 9.25 8.2 6.65 5.1 6.4 4.55 3.95 3.95 1.45 6.9 0.05 6.9 -2.75 9.55 -3.25 11.15 -3.55 12.45 -2.15 13.9 -2.75 15.75 -1.65 M4.5 12.3 Q5.15 11.55 6.45 11.3 8.05 11.0 9.3 12.4 10.8 11.8 12.6 12.9 14.35 13.95 13.25 16.55 15.3 18.35 14.35 19.95 13.35 21.55 11.15 21.2 10.3 23.0 8.3 23.45 6.25 23.8 5.1 21.2 L3.9 21.0 Q3.9 23.65 1.5 25.25 -1.85 27.45 -5.55 24.2 -9.75 25.85 -11.9 22.55 -13.25 20.55 -11.85 18.0 -13.5 16.3 -12.85 13.25 -12.2 10.15 -7.65 10.2 -6.2 6.3 -3.3 6.75 -0.5 7.2 0.15 10.35 2.85 10.4 4.5 12.3 3.75 13.1 3.8 14.6 M-20.9 -21.55 Q-19.3 -21.9 -18.0 -20.45 -16.55 -21.05 -14.75 -20.0 -13.35 -19.15 -13.75 -17.35 L-13.05 -17.55 Q-12.9 -20.0 -10.9 -21.2 -8.9 -22.45 -6.55 -19.85 -3.15 -20.8 -1.55 -18.2 0.05 -15.6 -2.5 -12.8 -1.35 -9.6 -3.95 -8.0 L-7.45 -8.15 Q-8.8 -6.95 -11.15 -7.5 -13.5 -8.05 -13.35 -11.5 L-14.15 -11.85 -16.15 -11.7 Q-17.0 -9.85 -19.05 -9.45 -21.1 -9.05 -22.25 -11.7 -25.4 -11.9 -25.95 -14.35 -26.55 -16.85 -23.55 -18.25 -23.55 -21.1 -20.9 -21.55 M-23.15 -2.7 Q-22.45 -3.0 -21.6 -2.45 -20.8 -1.9 -21.3 -0.55 -20.35 0.35 -20.8 1.2 -21.25 2.0 -22.3 1.85 -22.7 2.75 -23.65 3.0 -24.6 3.15 -25.2 1.85 -26.7 1.7 -26.95 0.45 -27.25 -0.85 -25.8 -1.55 -25.85 -3.0 -24.55 -3.25 -23.8 -3.4 -23.15 -2.7 M-13.75 -17.35 L-14.1 -16.3 M-23.4 11.05 L-23.0 12.0 Q-24.45 14.05 -23.25 15.25 -22.05 16.4 -20.3 16.15 -19.65 17.75 -18.0 17.65 -16.45 17.6 -16.05 15.4 -13.6 14.9 -13.55 13.2 -13.55 11.45 -14.65 10.7 -14.2 9.2 -15.1 8.3 -16.65 6.75 -18.65 8.05 -19.95 7.3 -21.0 7.45 L-21.05 7.55 Q-20.1 8.45 -20.55 9.3 -21.0 10.1 -22.05 9.9 -22.45 10.85 -23.4 11.05 -24.35 11.25 -24.95 9.9 -26.45 9.8 -26.7 8.55 -27.0 7.25 -25.55 6.5 -25.6 5.05 -24.3 4.85 -23.55 4.65 -22.9 5.4 -22.2 5.1 -21.35 5.65 -20.55 6.15 -21.0 7.45" fill="none" stroke="#cccccc" stroke-linecap="round" stroke-linejoin="round" stroke-width="1.0"/>
  </g>
</svg>
