<?xml version="1.0" encoding="UTF-8" standalone="no"?>
<svg xmlns:xlink="http://www.w3.org/1999/xlink" height="70.65px" width="69.2px" xmlns="http://www.w3.org/2000/svg">
  <g transform="matrix(1.0, 0.0, 0.0, 1.0, 42.3, 28.05)">
    <path d="M12.95 -22.05 Q12.75 -26.05 15.85 -27.1 18.85 -28.2 21.85 -26.5 23.45 -25.55 23.8 -22.95 25.5 -22.9 26.05 -21.3 27.2 -17.85 24.8 -15.85 24.65 -12.85 22.7 -12.4 L22.85 -11.1 Q24.8 -10.1 24.6 -8.45 24.4 -7.15 23.3 -6.75 L22.75 -6.6 Q22.7 -4.85 21.4 -4.0 20.05 -3.2 18.45 -5.15 16.2 -4.55 15.1 -6.55 14.0 -8.35 15.35 -10.15 L15.6 -10.5 15.4 -11.15 Q13.6 -12.3 13.6 -15.55 11.75 -15.1 10.75 -18.0 9.75 -20.95 12.95 -22.05 M7.25 -19.35 Q8.5 -19.0 8.5 -16.95 10.1 -16.15 9.95 -14.8 9.75 -13.55 8.45 -13.35 8.4 -11.95 7.35 -11.25 6.3 -10.6 5.05 -12.2 3.2 -11.75 2.35 -13.3 1.4 -14.9 2.7 -16.45 2.0 -18.4 3.4 -19.25 4.25 -19.8 5.35 -19.05 6.0 -19.75 7.25 -19.35 M17.6 17.55 Q18.3 19.2 19.5 18.95 20.7 18.7 21.25 17.55 L21.65 17.55 21.25 17.55 Q20.7 18.7 19.5 18.95 18.3 19.2 17.6 17.55 M21.65 17.55 L21.8 18.15 Q22.45 21.75 18.2 23.75 18.1 27.9 14.35 28.55 12.1 28.9 10.45 26.8 8.3 27.55 5.9 25.9 3.45 24.25 5.15 20.4 2.35 17.7 3.85 15.45 5.25 13.15 8.25 13.8 9.55 11.1 12.45 10.6 15.05 10.15 16.55 13.45 16.65 13.35 16.8 13.3 16.8 11.5 18.4 11.15 19.35 10.95 20.1 11.85 21.0 11.5 22.05 12.2 23.1 12.85 22.45 14.55 23.7 15.7 23.1 16.75 22.6 17.55 21.65 17.55 M2.2 34.5 Q2.0 33.75 3.0 33.3 3.0 32.45 3.95 32.3 4.5 32.2 4.95 32.65 L6.05 32.8 Q6.65 33.1 6.3 33.9 7.0 34.4 6.65 34.9 6.3 35.35 5.6 35.25 5.3 35.8 4.6 35.95 3.9 36.05 3.5 35.25 2.4 35.2 2.2 34.5 M-12.75 -25.0 Q-12.05 -25.3 -11.2 -24.75 -10.35 -24.2 -10.9 -22.85 -9.9 -21.95 -10.35 -21.1 -10.85 -20.3 -11.85 -20.45 -12.3 -19.55 -13.25 -19.3 -14.2 -19.15 -14.75 -20.45 -16.25 -20.6 -16.5 -21.85 -16.8 -23.15 -15.4 -23.85 -15.4 -25.3 -14.15 -25.55 -13.35 -25.7 -12.75 -25.0 M-21.8 -20.05 Q-18.0 -20.8 -16.45 -17.8 -14.95 -14.8 -18.05 -11.95 -17.0 -8.35 -20.0 -6.8 -21.85 -5.9 -23.85 -7.3 L-24.45 -6.9 Q-23.65 -6.45 -23.65 -5.45 -23.65 -2.9 -26.0 -2.1 -27.3 0.75 -30.05 -0.85 -32.45 0.75 -34.25 -1.05 -35.45 -2.25 -34.55 -4.5 -36.1 -4.65 -36.1 -6.8 -36.1 -8.95 -33.35 -8.95 -32.55 -11.4 -30.4 -11.65 -33.1 -13.25 -32.5 -15.45 -31.85 -17.8 -29.15 -18.0 -28.8 -20.7 -26.45 -21.85 -24.15 -23.05 -21.8 -20.05 M-38.0 -0.45 Q-37.3 -0.75 -36.45 -0.2 -35.6 0.3 -36.15 1.7 -35.15 2.6 -35.6 3.45 -36.1 4.25 -37.1 4.05 -37.55 5.0 -38.5 5.2 -39.45 5.4 -40.0 4.05 -41.5 3.95 -41.75 2.7 -42.05 1.4 -40.65 0.65 -40.65 -0.8 -39.4 -1.0 -38.6 -1.2 -38.0 -0.45 M-24.9 -7.05 L-24.45 -6.9 -24.9 -7.05 M-10.4 28.6 L-10.75 28.75 Q-10.9 33.2 -14.85 33.9 -17.2 34.3 -18.95 32.05 -21.15 32.85 -23.7 31.05 -26.3 29.25 -24.5 25.15 -27.45 22.3 -25.9 19.85 -24.4 17.4 -21.25 18.1 -19.9 15.2 -16.85 14.65 -13.9 14.1 -12.25 18.3 -8.75 18.65 -7.55 21.05 -6.9 20.55 -6.0 20.45 L-5.45 20.45 Q-2.85 20.45 -1.05 22.25 -0.05 23.25 -0.5 25.05 L-0.05 25.25 Q0.75 25.7 0.8 26.65 0.8 29.25 -1.6 30.0 -2.85 32.9 -5.65 31.3 -8.05 32.9 -9.85 31.05 -10.75 30.15 -10.4 28.6 L-10.15 27.65 -10.4 28.6 M-8.95 23.15 Q-8.45 21.7 -7.55 21.05 -8.45 21.7 -8.95 23.15 M-33.95 21.4 Q-33.15 21.2 -32.55 21.95 -31.85 21.65 -31.0 22.2 -30.15 22.7 -30.65 24.1 -29.7 25.0 -30.15 25.85 -30.65 26.65 -31.65 26.45 -32.05 27.4 -33.0 27.6 -34.0 27.8 -34.55 26.45 -36.05 26.35 -36.3 25.1 -36.6 23.8 -35.2 23.05 -35.2 21.6 -33.95 21.4 M-1.4 36.65 Q-0.55 37.15 -1.1 38.5 -0.1 39.4 -0.55 40.25 -1.05 41.05 -2.05 40.9 -2.5 41.85 -3.45 42.05 -4.4 42.25 -5.0 40.9 -6.5 40.8 -6.75 39.55 -7.05 38.25 -5.6 37.5 -5.65 36.05 -4.35 35.8 -3.55 35.65 -2.95 36.4 -2.25 36.1 -1.4 36.65" fill="#ffffff" fill-rule="evenodd" stroke="none"/>
    <path d="M12.95 -22.05 Q12.75 -26.05 15.85 -27.1 18.85 -28.2 21.85 -26.5 23.45 -25.55 23.8 -22.95 25.5 -22.9 26.05 -21.3 27.2 -17.85 24.8 -15.85 24.65 -12.85 22.7 -12.4 L22.85 -11.1 Q24.8 -10.1 24.6 -8.45 24.4 -7.15 23.3 -6.75 L22.75 -6.6 Q22.7 -4.85 21.4 -4.0 20.05 -3.2 18.45 -5.15 16.2 -4.55 15.1 -6.55 14.0 -8.35 15.35 -10.15 L15.6 -10.5 15.4 -11.15 Q13.6 -12.3 13.6 -15.55 11.75 -15.1 10.75 -18.0 9.75 -20.95 12.95 -22.05 M7.25 -19.35 Q8.5 -19.0 8.5 -16.95 10.1 -16.15 9.95 -14.8 9.75 -13.55 8.45 -13.35 8.4 -11.95 7.35 -11.25 6.3 -10.6 5.05 -12.2 3.2 -11.75 2.35 -13.3 1.4 -14.9 2.7 -16.45 2.0 -18.4 3.4 -19.25 4.25 -19.8 5.35 -19.05 6.0 -19.75 7.25 -19.35 M21.65 17.55 L21.25 17.55 Q20.7 18.7 19.5 18.95 18.3 19.2 17.6 17.55 M21.65 17.55 L21.8 18.15 Q22.45 21.75 18.2 23.75 18.1 27.9 14.35 28.55 12.1 28.9 10.45 26.8 8.3 27.55 5.9 25.9 3.45 24.25 5.15 20.4 2.35 17.7 3.85 15.45 5.25 13.15 8.25 13.8 9.55 11.1 12.45 10.6 15.05 10.15 16.55 13.45 16.65 13.35 16.8 13.3 16.8 11.5 18.4 11.15 19.35 10.95 20.1 11.85 21.0 11.5 22.05 12.2 23.1 12.85 22.45 14.55 23.7 15.7 23.1 16.75 22.6 17.55 21.65 17.55 M2.2 34.5 Q2.0 33.75 3.0 33.3 3.0 32.45 3.95 32.3 4.5 32.2 4.95 32.65 L6.05 32.8 Q6.65 33.1 6.3 33.9 7.0 34.4 6.65 34.9 6.3 35.35 5.6 35.25 5.3 35.8 4.6 35.95 3.9 36.05 3.5 35.25 2.4 35.2 2.2 34.5 M-12.75 -25.0 Q-12.05 -25.3 -11.2 -24.75 -10.35 -24.2 -10.9 -22.85 -9.9 -21.95 -10.35 -21.1 -10.85 -20.3 -11.85 -20.45 -12.3 -19.55 -13.25 -19.3 -14.2 -19.15 -14.75 -20.45 -16.25 -20.6 -16.5 -21.85 -16.8 -23.15 -15.4 -23.85 -15.4 -25.3 -14.15 -25.55 -13.35 -25.7 -12.75 -25.0 M-21.8 -20.05 Q-18.0 -20.8 -16.45 -17.8 -14.95 -14.8 -18.05 -11.95 -17.0 -8.35 -20.0 -6.8 -21.85 -5.9 -23.85 -7.3 L-24.45 -6.9 Q-23.65 -6.45 -23.65 -5.45 -23.65 -2.9 -26.0 -2.1 -27.3 0.75 -30.05 -0.85 -32.45 0.75 -34.25 -1.05 -35.45 -2.25 -34.55 -4.5 -36.1 -4.65 -36.1 -6.8 -36.1 -8.95 -33.35 -8.95 -32.55 -11.4 -30.4 -11.65 -33.1 -13.25 -32.5 -15.45 -31.85 -17.8 -29.15 -18.0 -28.8 -20.7 -26.45 -21.85 -24.15 -23.05 -21.8 -20.05 M-38.0 -0.45 Q-37.3 -0.75 -36.45 -0.2 -35.6 0.3 -36.15 1.7 -35.15 2.6 -35.6 3.45 -36.1 4.25 -37.1 4.05 -37.55 5.0 -38.5 5.2 -39.45 5.4 -40.0 4.05 -41.5 3.95 -41.75 2.7 -42.05 1.4 -40.65 0.65 -40.65 -0.8 -39.4 -1.0 -38.6 -1.2 -38.0 -0.45 M-24.45 -6.9 L-24.9 -7.05 M-7.55 21.05 Q-8.75 18.65 -12.25 18.3 -13.9 14.1 -16.85 14.65 -19.9 15.2 -21.25 18.1 -24.4 17.4 -25.9 19.85 -27.45 22.3 -24.5 25.15 -26.3 29.25 -23.7 31.05 -21.15 32.85 -18.95 32.05 -17.2 34.3 -14.85 33.9 -10.9 33.2 -10.75 28.75 L-10.4 28.6 M-33.95 21.4 Q-33.15 21.2 -32.55 21.95 -31.85 21.65 -31.0 22.2 -30.15 22.7 -30.65 24.1 -29.7 25.0 -30.15 25.85 -30.65 26.65 -31.65 26.45 -32.05 27.4 -33.0 27.6 -34.0 27.8 -34.55 26.45 -36.05 26.35 -36.3 25.1 -36.6 23.8 -35.2 23.05 -35.2 21.6 -33.95 21.4 M-1.4 36.65 Q-0.55 37.15 -1.1 38.5 -0.1 39.4 -0.55 40.25 -1.05 41.05 -2.05 40.9 -2.5 41.85 -3.45 42.05 -4.4 42.25 -5.0 40.9 -6.5 40.8 -6.75 39.55 -7.05 38.25 -5.6 37.5 -5.65 36.05 -4.35 35.8 -3.55 35.65 -2.95 36.4 -2.25 36.1 -1.4 36.65" fill="none" stroke="#cccccc" stroke-linecap="round" stroke-linejoin="round" stroke-width="1.0"/>
    <path d="M-10.4 28.6 L-10.15 27.65 M-10.4 28.6 Q-10.75 30.15 -9.85 31.05 -8.05 32.9 -5.65 31.3 -2.85 32.9 -1.6 30.0 0.8 29.25 0.8 26.65 0.75 25.7 -0.05 25.25 L-0.5 25.05 Q-0.05 23.25 -1.05 22.25 -2.85 20.45 -5.45 20.45 L-6.0 20.45 Q-6.9 20.55 -7.55 21.05 -8.45 21.7 -8.95 23.15" fill="none" stroke="#cccccc" stroke-linecap="round" stroke-linejoin="round" stroke-width="1.0"/>
  </g>
</svg>
