<?xml version="1.0" encoding="UTF-8" standalone="no"?>
<svg xmlns:xlink="http://www.w3.org/1999/xlink" height="54.45px" width="184.95px" xmlns="http://www.w3.org/2000/svg">
  <g transform="matrix(1.0, 0.0, 0.0, 1.0, -72.7, 0.7)">
    <path d="M250.05 4.3 L250.2 4.3 250.2 4.35 250.05 4.3" fill="#06131c" fill-opacity="0.8509804" fill-rule="evenodd" stroke="none"/>
    <path d="M250.2 4.3 L250.25 4.3 Q253.4 5.1 251.8 8.6 L230.95 45.65 231.0 45.7 Q229.5 48.0 226.9 47.9 L226.9 47.95 73.45 47.95 73.45 4.3 250.05 4.3 250.2 4.35 250.2 4.3 M210.4 31.45 L114.75 31.55 114.75 44.4 226.8 44.4 233.85 31.3 210.4 31.35 210.4 31.45 M247.3 7.95 L114.7 7.95 114.7 27.7 235.9 27.7 247.3 7.95" fill="#0e1525" fill-rule="evenodd" stroke="none"/>
    <path d="M73.45 2.55 L250.2 2.55 Q254.8 3.1 254.35 7.8 L232.05 47.05 Q230.0 49.7 227.1 49.8 L73.45 49.8 73.45 47.95 226.9 47.95 226.9 47.9 Q229.5 48.0 231.0 45.7 L230.95 45.65 251.8 8.6 Q253.4 5.1 250.25 4.3 L250.2 4.3 250.05 4.3 73.45 4.3 73.45 2.55" fill="#47515f" fill-rule="evenodd" stroke="none"/>
    <path d="M73.45 2.55 L73.45 0.05 249.3 0.05 Q253.75 0.05 255.65 2.35 257.5 4.65 256.6 8.85 L234.35 47.8 234.25 47.85 Q232.2 51.85 226.9 52.2 L226.7 52.3 73.45 52.3 73.45 49.8 227.1 49.8 Q230.0 49.7 232.05 47.05 L254.35 7.8 Q254.8 3.1 250.2 2.55 L73.45 2.55" fill="#d2d9df" fill-rule="evenodd" stroke="none"/>
    <path d="M226.7 52.3 L226.9 52.2 226.9 52.3 226.7 52.3 M234.25 47.85 L234.35 47.8 234.25 47.95 234.25 47.85" fill="#ffffff" fill-rule="evenodd" stroke="none"/>
    <path d="M250.2 4.3 L250.25 4.3 Q253.4 5.1 251.8 8.6 L230.95 45.65 231.0 45.7 Q229.5 48.0 226.9 47.9 L226.9 47.95 73.45 47.95 M73.45 4.3 L250.05 4.3" fill="none" stroke="#1e1e1e" stroke-linecap="round" stroke-linejoin="round" stroke-width="1.0"/>
    <path d="M234.35 47.8 L256.6 8.85 Q257.5 4.65 255.65 2.35 253.75 0.05 249.3 0.05 L73.45 0.05 73.45 2.55 73.45 4.3 73.45 47.95 73.45 49.8 73.45 52.3 226.7 52.3 226.9 52.2 Q232.2 51.85 234.25 47.85 L234.35 47.8 234.25 47.95 M226.9 52.3 L226.7 52.3 M73.45 52.3 L73.45 53.0" fill="none" stroke="#1e1e1e" stroke-linecap="round" stroke-linejoin="round" stroke-width="1.5"/>
  </g>
</svg>
