<?xml version="1.0" encoding="UTF-8" standalone="no"?>
<svg xmlns:xlink="http://www.w3.org/1999/xlink" height="70.5px" width="30.0px" xmlns="http://www.w3.org/2000/svg">
  <g transform="matrix(1.0, 0.0, 0.0, 1.0, 1.2, 11.7)">
    <path d="M22.75 8.4 L18.1 8.4 18.1 3.75 Q18.1 1.35 15.7 1.35 L10.85 1.35 Q8.4 1.35 8.4 3.75 L8.4 8.4 3.8 8.4 Q1.35 8.4 1.35 10.8 L1.35 15.7 Q1.35 18.1 3.8 18.1 L8.4 18.1 8.4 22.75 Q8.4 25.15 10.85 25.15 L15.7 25.15 Q18.1 25.15 18.1 22.75 L18.1 18.1 22.75 18.1 Q25.15 18.1 25.15 15.7 L25.15 10.8 Q25.15 8.4 22.75 8.4 M23.8 7.85 Q26.5 7.85 26.5 10.55 L26.5 15.95 Q26.5 18.7 23.8 18.7 L18.65 18.7 18.65 23.8 Q18.65 26.5 15.95 26.5 L10.55 26.5 Q7.85 26.5 7.85 23.8 L7.85 18.7 2.7 18.7 Q0.0 18.7 0.0 15.95 L0.0 10.55 Q0.0 7.85 2.7 7.85 L7.85 7.85 7.85 2.7 Q7.85 0.0 10.55 0.0 L15.95 0.0 Q18.65 0.0 18.65 2.7 L18.65 7.85 23.8 7.85" fill="#89fe9f" fill-rule="evenodd" stroke="none"/>
    <path d="M21.2 9.15 Q23.25 9.15 23.25 11.2 L23.25 15.3 Q23.25 17.35 21.2 17.35 L17.35 17.35 17.35 21.25 Q17.35 23.25 15.3 23.25 L11.2 23.25 Q9.2 23.25 9.2 21.25 L9.2 17.35 5.3 17.35 Q3.25 17.35 3.25 15.3 L3.25 11.2 Q3.25 9.15 5.3 9.15 L9.2 9.15 9.2 5.3 Q9.2 3.25 11.2 3.25 L15.3 3.25 Q17.35 3.25 17.35 5.3 L17.35 9.15 21.2 9.15 M20.25 9.65 L16.85 9.65 16.85 6.3 Q16.85 4.5 15.05 4.5 L11.45 4.5 Q9.65 4.5 9.65 6.3 L9.65 9.65 6.25 9.65 Q4.45 9.65 4.45 11.45 L4.45 15.05 Q4.45 16.85 6.25 16.85 L9.65 16.85 9.65 20.25 Q9.65 22.05 11.45 22.05 L15.05 22.05 Q16.85 22.05 16.85 20.25 L16.85 16.85 20.25 16.85 Q22.05 16.85 22.05 15.05 L22.05 11.45 Q22.05 9.65 20.25 9.65" fill="#b7ff6f" fill-rule="evenodd" stroke="none"/>
    <path d="M13.8 -11.7 Q20.0 -11.7 24.4 -1.4 28.8 8.95 28.8 23.55 28.8 38.15 24.4 48.45 20.0 58.8 13.8 58.8 7.6 58.8 3.2 48.45 -1.2 38.15 -1.2 23.55 -1.2 8.95 3.2 -1.4 7.6 -11.7 13.8 -11.7" fill="url(#gradient0)" fill-rule="evenodd" stroke="none"/>
  </g>
  <defs>
    <radialGradient cx="0" cy="0" gradientTransform="matrix(0.0161, 0.0, 0.0, 0.0443, 13.8, 16.25)" gradientUnits="userSpaceOnUse" id="gradient0" r="819.2" spreadMethod="pad">
      <stop offset="0.0" stop-color="#ffffff" stop-opacity="0.5137255"/>
      <stop offset="1.0" stop-color="#00ff00" stop-opacity="0.0"/>
    </radialGradient>
  </defs>
</svg>
