<?xml version="1.0" encoding="UTF-8" standalone="no"?>
<svg xmlns:xlink="http://www.w3.org/1999/xlink" height="37.95px" width="135.2px" xmlns="http://www.w3.org/2000/svg">
  <g transform="matrix(1.0, 0.0, 0.0, 1.0, 272.85, 37.2)">
    <path d="M-242.15 -13.05 L-176.2 -13.05 -175.1 -13.05 -151.85 -13.1 -158.9 0.0 -272.05 0.0 -272.05 -12.85 -242.15 -12.85 -242.15 -13.05 M-272.1 -16.7 L-272.1 -36.45 -138.4 -36.45 -149.8 -16.7 -272.1 -16.7 M-176.2 -13.05 L-175.1 -13.05 -176.2 -13.05 M-148.5 -31.9 L-266.55 -31.9 -148.5 -31.9 M-267.45 -8.7 L-160.7 -8.7 -267.45 -8.7" fill="#474747" fill-rule="evenodd" stroke="none"/>
    <path d="M-272.05 -12.85 L-272.05 -13.1 -242.15 -13.05 -176.2 -13.05 -175.1 -13.05 -151.85 -13.1 -158.9 0.0 -272.05 0.0 -272.05 -12.85 M-272.1 -16.7 L-149.8 -16.7 -138.4 -36.45 -272.1 -36.45 -272.1 -16.7 M-175.1 -13.05 L-176.2 -13.05" fill="none" stroke="#1e1e1e" stroke-linecap="round" stroke-linejoin="round" stroke-width="1.5"/>
    <path d="M-160.7 -8.7 L-267.45 -8.7 M-266.55 -31.9 L-148.5 -31.9" fill="none" stroke="#515151" stroke-linecap="round" stroke-linejoin="round" stroke-width="1.5"/>
  </g>
</svg>
