<?xml version="1.0" encoding="UTF-8" standalone="no"?>
<svg xmlns:xlink="http://www.w3.org/1999/xlink" height="34.95px" width="59.35px" xmlns="http://www.w3.org/2000/svg">
  <g transform="matrix(1.0, 0.0, 0.0, 1.0, 5.0, 3.25)">
    <path d="M42.65 8.2 L42.65 9.65 43.9 9.65 42.85 12.1 39.55 12.1 39.55 8.2 42.65 8.2 M36.7 8.2 L36.7 11.35 33.55 12.55 33.55 8.2 36.7 8.2 M34.8 17.9 L33.7 16.6 37.5 16.6 38.15 17.5 39.85 15.45 33.2 15.45 33.2 13.0 43.5 13.0 43.5 15.55 41.7 17.9 34.8 17.9 M32.6 8.2 L32.6 17.9 29.35 17.9 29.35 14.8 25.65 14.8 25.65 17.9 22.45 17.9 22.45 14.8 21.6 14.8 21.6 12.1 22.45 12.1 22.45 8.2 25.65 8.2 25.65 12.1 29.35 12.1 29.35 8.2 32.6 8.2 M26.05 8.2 L28.95 8.2 29.15 10.85 26.25 10.85 26.05 8.2 M26.1 17.9 L25.8 15.6 28.65 15.6 28.95 17.9 26.1 17.9 M0.0 15.35 L0.0 12.65 19.7 12.65 18.4 15.35 0.0 15.35" fill="#66ffff" fill-rule="evenodd" stroke="none"/>
    <path d="M33.55 8.2 L33.55 2.05 42.65 2.05 42.65 8.2 39.55 8.2 39.55 4.5 36.7 4.5 36.7 8.2 33.55 8.2 M41.7 17.9 L40.15 19.85 43.7 24.05 39.85 24.05 38.25 22.15 36.85 24.05 32.9 24.05 36.35 19.75 34.8 17.9 41.7 17.9 M22.45 8.2 L22.45 2.8 24.5 2.8 24.95 1.75 28.8 1.75 28.4 2.8 32.6 2.8 32.6 8.2 29.35 8.2 29.35 5.4 25.65 5.4 25.65 8.2 22.45 8.2 M32.6 17.9 L32.6 20.9 29.35 23.95 27.4 24.0 27.4 21.3 29.35 21.3 29.35 17.9 32.6 17.9 M25.65 17.9 L25.65 22.95 22.45 24.25 22.45 17.9 25.65 17.9 M26.05 8.2 L25.8 6.35 28.7 6.35 28.95 8.2 26.05 8.2 M28.95 17.9 L29.2 20.1 26.3 20.1 26.1 17.9 28.95 17.9" fill="#00ccff" fill-rule="evenodd" stroke="none"/>
    <path d="M0.0 15.35 L0.0 12.65 19.7 12.65 18.4 15.35 0.0 15.35" fill="none" stroke="#ffffff" stroke-linecap="butt" stroke-linejoin="miter-clip" stroke-miterlimit="3.0" stroke-width="10.0"/>
    <path d="M33.55 8.2 L33.55 2.05 42.65 2.05 42.65 8.2 42.65 9.65 43.9 9.65 42.85 12.1 39.55 12.1 39.55 8.2 39.55 4.5 36.7 4.5 36.7 8.2 36.7 11.35 33.55 12.55 33.55 8.2 36.7 8.2 M34.8 17.9 L33.7 16.6 37.5 16.6 38.15 17.5 39.85 15.45 33.2 15.45 33.2 13.0 43.5 13.0 43.5 15.55 41.7 17.9 40.15 19.85 43.7 24.05 39.85 24.05 38.25 22.15 36.85 24.05 32.9 24.05 36.35 19.75 34.8 17.9 41.7 17.9 M22.45 8.2 L22.45 2.8 24.5 2.8 24.95 1.75 28.8 1.75 28.4 2.8 32.6 2.8 32.6 8.2 32.6 17.9 32.6 20.9 29.35 23.95 27.4 24.0 27.4 21.3 29.35 21.3 29.35 17.9 29.35 14.8 25.65 14.8 25.65 17.9 25.65 22.95 22.45 24.25 22.45 17.9 22.45 14.8 21.6 14.8 21.6 12.1 22.45 12.1 22.45 8.2 25.65 8.2 25.65 5.4 29.35 5.4 29.35 8.2 32.6 8.2 M28.95 8.2 L28.7 6.35 25.8 6.35 26.05 8.2 28.95 8.2 29.15 10.85 26.25 10.85 26.05 8.2 M25.65 8.2 L25.65 12.1 29.35 12.1 29.35 8.2 M26.1 17.9 L25.8 15.6 28.65 15.6 28.95 17.9 29.2 20.1 26.3 20.1 26.1 17.9 28.95 17.9 M25.65 17.9 L22.45 17.9 M32.6 17.9 L29.35 17.9 M39.55 8.2 L42.65 8.2" fill="none" stroke="#ffffff" stroke-linecap="round" stroke-linejoin="miter-clip" stroke-miterlimit="3.0" stroke-width="10.0"/>
    <path d="M34.8 17.9 L33.7 16.6 37.5 16.6 38.15 17.5 39.85 15.45 33.2 15.45 33.2 13.0 43.5 13.0 43.5 15.55 41.7 17.9 34.8 17.9 M42.65 8.2 L42.65 9.65 43.9 9.65 42.85 12.1 39.55 12.1 39.55 8.2 42.65 8.2 M36.7 8.2 L36.7 11.35 33.55 12.55 33.55 8.2 36.7 8.2 M32.6 8.2 L32.6 17.9 29.35 17.9 29.35 14.8 25.65 14.8 25.65 17.9 22.45 17.9 22.45 14.8 21.6 14.8 21.6 12.1 22.45 12.1 22.45 8.2 25.65 8.2 25.65 12.1 29.35 12.1 29.35 8.2 32.6 8.2 M26.05 8.2 L28.95 8.2 29.15 10.85 26.25 10.85 26.05 8.2 M26.1 17.9 L25.8 15.6 28.65 15.6 28.95 17.9 26.1 17.9 M0.0 15.35 L0.0 12.65 19.7 12.65 18.4 15.35 0.0 15.35" fill="#66ffff" fill-rule="evenodd" stroke="none"/>
    <path d="M41.7 17.9 L40.15 19.85 43.7 24.05 39.85 24.05 38.25 22.15 36.85 24.05 32.9 24.05 36.35 19.75 34.8 17.9 41.7 17.9 M39.55 8.2 L39.55 4.5 36.7 4.5 36.7 8.2 33.55 8.2 33.55 2.05 42.65 2.05 42.65 8.2 39.55 8.2 M22.45 8.2 L22.45 2.8 24.5 2.8 24.95 1.75 28.8 1.75 28.4 2.8 32.6 2.8 32.6 8.2 29.35 8.2 29.35 5.4 25.65 5.4 25.65 8.2 22.45 8.2 M32.6 17.9 L32.6 20.9 29.35 23.95 27.4 24.0 27.4 21.3 29.35 21.3 29.35 17.9 32.6 17.9 M25.65 17.9 L25.65 22.95 22.45 24.25 22.45 17.9 25.65 17.9 M26.05 8.2 L25.8 6.35 28.7 6.35 28.95 8.2 26.05 8.2 M28.95 17.9 L29.2 20.1 26.3 20.1 26.1 17.9 28.95 17.9" fill="#00ccff" fill-rule="evenodd" stroke="none"/>
    <path d="M0.0 15.35 L0.0 12.65 19.7 12.65 18.4 15.35 0.0 15.35" fill="none" stroke="#000000" stroke-linecap="butt" stroke-linejoin="miter-clip" stroke-miterlimit="3.0" stroke-width="7.0"/>
    <path d="M34.8 17.9 L33.7 16.6 37.5 16.6 38.15 17.5 39.85 15.45 33.2 15.45 33.2 13.0 43.5 13.0 43.5 15.55 41.7 17.9 40.15 19.85 43.7 24.05 39.85 24.05 38.25 22.15 36.85 24.05 32.9 24.05 36.35 19.75 34.8 17.9 41.7 17.9 M42.65 8.2 L42.65 9.65 43.9 9.65 42.85 12.1 39.55 12.1 39.55 8.2 39.55 4.5 36.7 4.5 36.7 8.2 36.7 11.35 33.55 12.55 33.55 8.2 33.55 2.05 42.65 2.05 42.65 8.2 39.55 8.2 M22.45 8.2 L22.45 2.8 24.5 2.8 24.95 1.75 28.8 1.75 28.4 2.8 32.6 2.8 32.6 8.2 32.6 17.9 32.6 20.9 29.35 23.95 27.4 24.0 27.4 21.3 29.35 21.3 29.35 17.9 29.35 14.8 25.65 14.8 25.65 17.9 25.65 22.95 22.45 24.25 22.45 17.9 22.45 14.8 21.6 14.8 21.6 12.1 22.45 12.1 22.45 8.2 25.65 8.2 25.65 5.4 29.35 5.4 29.35 8.2 32.6 8.2 M33.55 8.2 L36.7 8.2 M28.95 8.2 L28.7 6.35 25.8 6.35 26.05 8.2 28.95 8.2 29.15 10.85 26.25 10.85 26.05 8.2 M25.65 8.2 L25.65 12.1 29.35 12.1 29.35 8.2 M26.1 17.9 L25.8 15.6 28.65 15.6 28.95 17.9 29.2 20.1 26.3 20.1 26.1 17.9 28.95 17.9 M25.65 17.9 L22.45 17.9 M32.6 17.9 L29.35 17.9" fill="none" stroke="#000000" stroke-linecap="round" stroke-linejoin="miter-clip" stroke-miterlimit="3.0" stroke-width="7.0"/>
    <path d="M42.65 6.45 L42.65 7.9 43.9 7.9 42.85 10.35 39.55 10.35 39.55 6.45 42.65 6.45 M36.7 6.45 L36.7 9.6 33.55 10.8 33.55 6.45 36.7 6.45 M34.8 16.15 L33.7 14.85 37.5 14.85 38.15 15.75 39.85 13.7 33.2 13.7 33.2 11.25 43.5 11.25 43.5 13.8 41.7 16.15 34.8 16.15 M32.6 6.45 L32.6 16.15 29.35 16.15 29.35 13.05 25.65 13.05 25.65 16.15 22.45 16.15 22.45 13.05 21.6 13.05 21.6 10.35 22.45 10.35 22.45 6.45 25.65 6.45 25.65 10.35 29.35 10.35 29.35 6.45 32.6 6.45 M26.05 6.45 L28.95 6.45 29.15 9.1 26.25 9.1 26.05 6.45 M26.1 16.15 L25.8 13.85 28.65 13.85 28.95 16.15 26.1 16.15 M0.0 13.6 L0.0 10.9 19.7 10.9 18.4 13.6 0.0 13.6" fill="#66ffff" fill-rule="evenodd" stroke="none"/>
    <path d="M33.55 6.45 L33.55 0.3 42.65 0.3 42.65 6.45 39.55 6.45 39.55 2.75 36.7 2.75 36.7 6.45 33.55 6.45 M41.7 16.15 L40.15 18.1 43.7 22.3 39.85 22.3 38.25 20.4 36.85 22.3 32.9 22.3 36.35 18.0 34.8 16.15 41.7 16.15 M22.45 6.45 L22.45 1.05 24.5 1.05 24.95 0.0 28.8 0.0 28.4 1.05 32.6 1.05 32.6 6.45 29.35 6.45 29.35 3.65 25.65 3.65 25.65 6.45 22.45 6.45 M32.6 16.15 L32.6 19.15 29.35 22.2 27.4 22.25 27.4 19.55 29.35 19.55 29.35 16.15 32.6 16.15 M25.65 16.15 L25.65 21.2 22.45 22.5 22.45 16.15 25.65 16.15 M26.05 6.45 L25.8 4.6 28.7 4.6 28.95 6.45 26.05 6.45 M28.95 16.15 L29.2 18.35 26.3 18.35 26.1 16.15 28.95 16.15" fill="#00ccff" fill-rule="evenodd" stroke="none"/>
    <path d="M0.0 13.6 L0.0 10.9 19.7 10.9 18.4 13.6 0.0 13.6" fill="none" stroke="#0033ff" stroke-linecap="butt" stroke-linejoin="miter-clip" stroke-miterlimit="3.0" stroke-width="4.0"/>
    <path d="M33.55 6.45 L33.55 0.3 42.65 0.3 42.65 6.45 42.65 7.9 43.9 7.9 42.85 10.35 39.55 10.35 39.55 6.45 39.55 2.75 36.7 2.75 36.7 6.45 36.7 9.6 33.55 10.8 33.55 6.45 36.7 6.45 M34.8 16.15 L33.7 14.85 37.5 14.85 38.15 15.75 39.85 13.7 33.2 13.7 33.2 11.25 43.5 11.25 43.5 13.8 41.7 16.15 40.15 18.1 43.7 22.3 39.85 22.3 38.25 20.4 36.85 22.3 32.9 22.3 36.35 18.0 34.8 16.15 41.7 16.15 M22.45 6.45 L22.45 1.05 24.5 1.05 24.95 0.0 28.8 0.0 28.4 1.05 32.6 1.05 32.6 6.45 32.6 16.15 32.6 19.15 29.35 22.2 27.4 22.25 27.4 19.55 29.35 19.55 29.35 16.15 29.35 13.05 25.65 13.05 25.65 16.15 25.65 21.2 22.45 22.5 22.45 16.15 22.45 13.05 21.6 13.05 21.6 10.35 22.45 10.35 22.45 6.45 25.65 6.45 25.65 3.65 29.35 3.65 29.35 6.45 32.6 6.45 M28.95 6.45 L28.7 4.6 25.8 4.6 26.05 6.45 28.95 6.45 29.15 9.1 26.25 9.1 26.05 6.45 M25.65 6.45 L25.65 10.35 29.35 10.35 29.35 6.45 M28.95 16.15 L29.2 18.35 26.3 18.35 26.1 16.15 25.8 13.85 28.65 13.85 28.95 16.15 26.1 16.15 M25.65 16.15 L22.45 16.15 M32.6 16.15 L29.35 16.15 M39.55 6.45 L42.65 6.45" fill="none" stroke="#0033ff" stroke-linecap="round" stroke-linejoin="miter-clip" stroke-miterlimit="3.0" stroke-width="4.0"/>
    <path d="M42.65 6.45 L42.65 7.9 43.9 7.9 42.85 10.35 39.55 10.35 39.55 6.45 42.65 6.45 M36.7 6.45 L36.7 9.6 33.55 10.8 33.55 6.45 36.7 6.45 M34.8 16.15 L33.7 14.85 37.5 14.85 38.15 15.75 39.85 13.7 33.2 13.7 33.2 11.25 43.5 11.25 43.5 13.8 41.7 16.15 34.8 16.15 M32.6 6.45 L32.6 16.15 29.35 16.15 29.35 13.05 25.65 13.05 25.65 16.15 22.45 16.15 22.45 13.05 21.6 13.05 21.6 10.35 22.45 10.35 22.45 6.45 25.65 6.45 25.65 10.35 29.35 10.35 29.35 6.45 32.6 6.45 M26.05 6.45 L28.95 6.45 29.15 9.1 26.25 9.1 26.05 6.45 M26.1 16.15 L25.8 13.85 28.65 13.85 28.95 16.15 26.1 16.15 M19.7 10.9 L18.4 13.6 0.0 13.6 0.0 10.9 19.7 10.9" fill="#66ffff" fill-rule="evenodd" stroke="none"/>
    <path d="M39.55 6.45 L39.55 2.75 36.7 2.75 36.7 6.45 33.55 6.45 33.55 0.3 42.65 0.3 42.65 6.45 39.55 6.45 M41.7 16.15 L40.15 18.1 43.7 22.3 39.85 22.3 38.25 20.4 36.85 22.3 32.9 22.3 36.35 18.0 34.8 16.15 41.7 16.15 M22.45 6.45 L22.45 1.05 24.5 1.05 24.95 0.0 28.8 0.0 28.4 1.05 32.6 1.05 32.6 6.45 29.35 6.45 29.35 3.65 25.65 3.65 25.65 6.45 22.45 6.45 M32.6 16.15 L32.6 19.15 29.35 22.2 27.4 22.25 27.4 19.55 29.35 19.55 29.35 16.15 32.6 16.15 M25.65 16.15 L25.65 21.2 22.45 22.5 22.45 16.15 25.65 16.15 M26.05 6.45 L25.8 4.6 28.7 4.6 28.95 6.45 26.05 6.45 M28.95 16.15 L29.2 18.35 26.3 18.35 26.1 16.15 28.95 16.15" fill="#00ccff" fill-rule="evenodd" stroke="none"/>
  </g>
</svg>
