<?xml version="1.0" encoding="UTF-8" standalone="no"?>
<svg xmlns:xlink="http://www.w3.org/1999/xlink" height="33.15px" width="54.3px" xmlns="http://www.w3.org/2000/svg">
  <g transform="matrix(1.0, 0.0, 0.0, 1.0, 8.1, 2.7)">
    <path d="M42.2 21.95 L40.05 24.1 36.95 24.1 36.95 21.95 39.35 21.95 39.35 6.45 42.2 6.45 42.2 21.95 M38.6 7.75 L38.6 19.7 35.9 21.05 35.9 7.75 38.6 7.75 M35.7 12.05 L34.8 14.1 31.65 14.1 31.65 15.95 35.25 15.95 35.3 21.45 33.5 23.35 32.15 23.35 32.15 21.25 32.75 21.25 32.75 17.95 31.65 17.95 31.65 23.1 Q30.35 23.75 29.0 24.35 L29.0 17.95 27.9 17.95 27.9 22.45 25.35 23.4 25.35 15.95 29.0 15.95 29.0 14.1 25.1 14.1 25.1 12.05 29.0 12.05 29.0 10.25 27.5 10.25 27.05 11.15 24.5 11.15 26.15 6.95 28.8 6.95 28.3 8.2 29.0 8.2 29.0 6.55 31.65 6.55 31.65 8.2 35.35 8.2 34.45 10.25 31.65 10.25 31.65 12.05 35.7 12.05 M21.25 5.45 L13.25 5.45 13.25 7.5 22.15 7.5 22.15 14.6 18.2 17.4 16.4 17.4 16.4 21.4 22.35 21.4 21.15 23.95 12.3 23.95 12.3 17.4 9.65 17.4 4.9 24.05 0.0 24.05 5.1 17.4 0.25 17.4 0.25 7.5 8.95 7.5 8.95 5.45 0.25 5.45 0.25 2.8 8.95 2.8 8.95 1.3 13.25 1.3 13.25 2.8 22.4 2.8 21.25 5.45 M4.35 14.85 L18.05 14.85 18.05 10.1 4.35 10.1 4.35 14.85" fill="#ff0000" fill-rule="evenodd" stroke="none"/>
    <path d="M42.2 21.95 L40.05 24.1 36.95 24.1 36.95 21.95 39.35 21.95 39.35 6.45 42.2 6.45 42.2 21.95 M38.6 7.75 L38.6 19.7 35.9 21.05 35.9 7.75 38.6 7.75 M35.7 12.05 L34.8 14.1 31.65 14.1 31.65 15.95 35.25 15.95 35.3 21.45 33.5 23.35 32.15 23.35 32.15 21.25 32.75 21.25 32.75 17.95 31.65 17.95 31.65 23.1 Q30.35 23.75 29.0 24.35 L29.0 17.95 27.9 17.95 27.9 22.45 25.35 23.4 25.35 15.95 29.0 15.95 29.0 14.1 25.1 14.1 25.1 12.05 29.0 12.05 29.0 10.25 27.5 10.25 27.05 11.15 24.5 11.15 26.15 6.95 28.8 6.95 28.3 8.2 29.0 8.2 29.0 6.55 31.65 6.55 31.65 8.2 35.35 8.2 34.45 10.25 31.65 10.25 31.65 12.05 35.7 12.05 M21.25 5.45 L13.25 5.45 13.25 7.5 22.15 7.5 22.15 14.6 18.2 17.4 16.4 17.4 16.4 21.4 22.35 21.4 21.15 23.95 12.3 23.95 12.3 17.4 9.65 17.4 4.9 24.05 0.0 24.05 5.1 17.4 0.25 17.4 0.25 7.5 8.95 7.5 8.95 5.45 0.25 5.45 0.25 2.8 8.95 2.8 8.95 1.3 13.25 1.3 13.25 2.8 22.4 2.8 21.25 5.45 M4.35 14.85 L18.05 14.85 18.05 10.1 4.35 10.1 4.35 14.85 Z" fill="none" stroke="#ffffff" stroke-linecap="butt" stroke-linejoin="miter-clip" stroke-miterlimit="3.0" stroke-width="8.0"/>
    <path d="M42.2 21.95 L40.05 24.1 36.95 24.1 36.95 21.95 39.35 21.95 39.35 6.45 42.2 6.45 42.2 21.95 M38.6 7.75 L38.6 19.7 35.9 21.05 35.9 7.75 38.6 7.75 M35.7 12.05 L34.8 14.1 31.65 14.1 31.65 15.95 35.25 15.95 35.3 21.45 33.5 23.35 32.15 23.35 32.15 21.25 32.75 21.25 32.75 17.95 31.65 17.95 31.65 23.1 Q30.35 23.75 29.0 24.35 L29.0 17.95 27.9 17.95 27.9 22.45 25.35 23.4 25.35 15.95 29.0 15.95 29.0 14.1 25.1 14.1 25.1 12.05 29.0 12.05 29.0 10.25 27.5 10.25 27.05 11.15 24.5 11.15 26.15 6.95 28.8 6.95 28.3 8.2 29.0 8.2 29.0 6.55 31.65 6.55 31.65 8.2 35.35 8.2 34.45 10.25 31.65 10.25 31.65 12.05 35.7 12.05 M21.25 5.45 L13.25 5.45 13.25 7.5 22.15 7.5 22.15 14.6 18.2 17.4 16.4 17.4 16.4 21.4 22.35 21.4 21.15 23.95 12.3 23.95 12.3 17.4 9.65 17.4 4.9 24.05 0.0 24.05 5.1 17.4 0.25 17.4 0.25 7.5 8.95 7.5 8.95 5.45 0.25 5.45 0.25 2.8 8.95 2.8 8.95 1.3 13.25 1.3 13.25 2.8 22.4 2.8 21.25 5.45 M18.05 14.85 L18.05 10.1 4.35 10.1 4.35 14.85 18.05 14.85" fill="#ff0000" fill-rule="evenodd" stroke="none"/>
    <path d="M42.2 21.95 L40.05 24.1 36.95 24.1 36.95 21.95 39.35 21.95 39.35 6.45 42.2 6.45 42.2 21.95 M38.6 7.75 L38.6 19.7 35.9 21.05 35.9 7.75 38.6 7.75 M35.7 12.05 L34.8 14.1 31.65 14.1 31.65 15.95 35.25 15.95 35.3 21.45 33.5 23.35 32.15 23.35 32.15 21.25 32.75 21.25 32.75 17.95 31.65 17.95 31.65 23.1 Q30.35 23.75 29.0 24.35 L29.0 17.95 27.9 17.95 27.9 22.45 25.35 23.4 25.35 15.95 29.0 15.95 29.0 14.1 25.1 14.1 25.1 12.05 29.0 12.05 29.0 10.25 27.5 10.25 27.05 11.15 24.5 11.15 26.15 6.95 28.8 6.95 28.3 8.2 29.0 8.2 29.0 6.55 31.65 6.55 31.65 8.2 35.35 8.2 34.45 10.25 31.65 10.25 31.65 12.05 35.7 12.05 M21.25 5.45 L13.25 5.45 13.25 7.5 22.15 7.5 22.15 14.6 18.2 17.4 16.4 17.4 16.4 21.4 22.35 21.4 21.15 23.95 12.3 23.95 12.3 17.4 9.65 17.4 4.9 24.05 0.0 24.05 5.1 17.4 0.25 17.4 0.25 7.5 8.95 7.5 8.95 5.45 0.25 5.45 0.25 2.8 8.95 2.8 8.95 1.3 13.25 1.3 13.25 2.8 22.4 2.8 21.25 5.45 M18.05 14.85 L18.05 10.1 4.35 10.1 4.35 14.85 18.05 14.85 Z" fill="none" stroke="#000000" stroke-linecap="butt" stroke-linejoin="miter-clip" stroke-miterlimit="3.0" stroke-width="5.0"/>
    <path d="M42.2 20.65 L40.05 22.8 36.95 22.8 36.95 20.65 39.35 20.65 39.35 5.15 42.2 5.15 42.2 20.65 M38.6 6.45 L38.6 18.4 35.9 19.75 35.9 6.45 38.6 6.45 M35.7 10.75 L34.8 12.8 31.65 12.8 31.65 14.65 35.25 14.65 35.3 20.15 33.5 22.05 32.15 22.05 32.15 19.95 32.75 19.95 32.75 16.65 31.65 16.65 31.65 21.8 Q30.35 22.45 29.0 23.05 L29.0 16.65 27.9 16.65 27.9 21.15 25.35 22.1 25.35 14.65 29.0 14.65 29.0 12.8 25.1 12.8 25.1 10.75 29.0 10.75 29.0 8.95 27.5 8.95 27.05 9.85 24.5 9.85 26.15 5.65 28.8 5.65 28.3 6.9 29.0 6.9 29.0 5.25 31.65 5.25 31.65 6.9 35.35 6.9 34.45 8.95 31.65 8.95 31.65 10.75 35.7 10.75 M21.25 4.15 L13.25 4.15 13.25 6.2 22.15 6.2 22.15 13.3 18.2 16.1 16.4 16.1 16.4 20.1 22.35 20.1 21.15 22.65 12.3 22.65 12.3 16.1 9.65 16.1 4.9 22.75 0.0 22.75 5.1 16.1 0.25 16.1 0.25 6.2 8.95 6.2 8.95 4.15 0.25 4.15 0.25 1.5 8.95 1.5 8.95 0.0 13.25 0.0 13.25 1.5 22.4 1.5 21.25 4.15 M4.35 13.55 L18.05 13.55 18.05 8.8 4.35 8.8 4.35 13.55" fill="#ff0000" fill-rule="evenodd" stroke="none"/>
    <path d="M42.2 20.65 L40.05 22.8 36.95 22.8 36.95 20.65 39.35 20.65 39.35 5.15 42.2 5.15 42.2 20.65 M38.6 6.45 L38.6 18.4 35.9 19.75 35.9 6.45 38.6 6.45 M35.7 10.75 L34.8 12.8 31.65 12.8 31.65 14.65 35.25 14.65 35.3 20.15 33.5 22.05 32.15 22.05 32.15 19.95 32.75 19.95 32.75 16.65 31.65 16.65 31.65 21.8 Q30.35 22.45 29.0 23.05 L29.0 16.65 27.9 16.65 27.9 21.15 25.35 22.1 25.35 14.65 29.0 14.65 29.0 12.8 25.1 12.8 25.1 10.75 29.0 10.75 29.0 8.95 27.5 8.95 27.05 9.85 24.5 9.85 26.15 5.65 28.8 5.65 28.3 6.9 29.0 6.9 29.0 5.25 31.65 5.25 31.65 6.9 35.35 6.9 34.45 8.95 31.65 8.95 31.65 10.75 35.7 10.75 M21.25 4.15 L13.25 4.15 13.25 6.2 22.15 6.2 22.15 13.3 18.2 16.1 16.4 16.1 16.4 20.1 22.35 20.1 21.15 22.65 12.3 22.65 12.3 16.1 9.65 16.1 4.9 22.75 0.0 22.75 5.1 16.1 0.25 16.1 0.25 6.2 8.95 6.2 8.95 4.15 0.25 4.15 0.25 1.5 8.95 1.5 8.95 0.0 13.25 0.0 13.25 1.5 22.4 1.5 21.25 4.15 M4.35 13.55 L18.05 13.55 18.05 8.8 4.35 8.8 4.35 13.55 Z" fill="none" stroke="#660000" stroke-linecap="butt" stroke-linejoin="miter-clip" stroke-miterlimit="3.0" stroke-width="3.0"/>
    <path d="M42.2 16.3 L42.2 20.65 40.05 22.8 36.95 22.8 36.95 20.65 39.35 20.65 39.35 16.3 42.2 16.3 M39.35 8.15 L39.35 5.15 42.2 5.15 42.2 8.15 39.35 8.15 M35.3 16.3 L35.3 20.15 33.5 22.05 32.15 22.05 32.15 19.95 32.75 19.95 32.75 16.65 31.65 16.65 31.65 21.8 Q30.35 22.45 29.0 23.05 L29.0 16.65 27.9 16.65 27.9 21.15 25.35 22.1 25.35 16.3 35.3 16.3 M25.2 8.15 L26.15 5.65 28.8 5.65 28.3 6.9 29.0 6.9 29.0 5.25 31.65 5.25 31.65 6.9 35.35 6.9 34.8 8.15 25.2 8.15 M38.6 8.15 L35.9 8.15 35.9 6.45 38.6 6.45 38.6 8.15 M35.9 16.3 L38.6 16.3 38.6 18.4 35.9 19.75 35.9 16.3 M0.25 8.15 L0.25 6.2 8.95 6.2 8.95 4.15 0.25 4.15 0.25 1.5 8.95 1.5 8.95 0.0 13.25 0.0 13.25 1.5 22.4 1.5 21.25 4.15 13.25 4.15 13.25 6.2 22.15 6.2 22.15 8.15 0.25 8.15 M16.4 16.3 L16.4 20.1 22.35 20.1 21.15 22.65 12.3 22.65 12.3 16.3 16.4 16.3 M9.5 16.3 L4.9 22.75 0.0 22.75 4.95 16.3 9.5 16.3" fill="#ff4a8c" fill-rule="evenodd" stroke="none"/>
    <path d="M39.35 16.3 L39.35 8.15 42.2 8.15 42.2 16.3 39.35 16.3 M34.8 8.15 L34.45 8.95 31.65 8.95 31.65 10.75 35.7 10.75 34.8 12.8 31.65 12.8 31.65 14.65 35.25 14.65 35.3 16.3 25.35 16.3 25.35 14.65 29.0 14.65 29.0 12.8 25.1 12.8 25.1 10.75 29.0 10.75 29.0 8.95 27.5 8.95 27.05 9.85 24.5 9.85 25.2 8.15 34.8 8.15 M35.9 8.15 L38.6 8.15 38.6 16.3 35.9 16.3 35.9 8.15 M22.15 8.15 L22.15 13.3 18.2 16.1 16.4 16.1 16.4 16.3 12.3 16.3 12.3 16.1 9.65 16.1 9.5 16.3 4.95 16.3 5.1 16.1 0.25 16.1 0.25 8.15 22.15 8.15 M4.35 8.8 L4.35 13.55 18.05 13.55 18.05 8.8 4.35 8.8" fill="#ffa6c8" fill-rule="evenodd" stroke="none"/>
  </g>
</svg>
