<?xml version="1.0" encoding="UTF-8" standalone="no"?>
<svg xmlns:xlink="http://www.w3.org/1999/xlink" height="114.4px" width="84.45px" xmlns="http://www.w3.org/2000/svg">
  <g transform="matrix(1.0, 0.0, 0.0, 1.0, 0.75, 0.75)">
    <path d="M82.25 9.05 L82.35 9.35 82.5 10.0 82.95 11.85 82.95 73.3 82.65 74.95 Q82.1 77.2 80.95 79.1 L80.9 79.25 80.3 80.1 Q78.85 82.15 76.65 83.7 76.1 84.25 73.85 85.0 L9.1 85.0 Q6.85 84.2 6.3 83.65 4.15 82.1 2.65 80.05 L2.05 79.2 2.0 79.0 Q0.85 77.15 0.3 74.9 L0.0 73.25 0.0 11.9 0.45 10.0 Q0.75 8.6 1.3 7.45 2.9 3.35 6.55 1.4 L6.65 1.35 Q8.25 0.5 10.35 0.0 L72.6 0.0 74.5 0.6 Q75.5 0.85 76.35 1.35 L76.4 1.4 Q80.05 3.35 81.65 7.45 L82.25 9.05 M71.6 2.7 L10.35 2.7 Q3.4 4.35 2.25 12.05 L2.25 72.0 Q2.55 79.6 9.9 82.6 L73.3 82.55 Q78.45 81.15 80.7 73.7 L80.85 14.75 Q80.7 11.85 79.95 9.6 79.15 7.35 78.1 6.15 76.0 3.25 71.6 2.7" fill="#d2d9df" fill-rule="evenodd" stroke="none"/>
    <path d="M74.5 5.55 L73.5 5.05 72.35 4.7 71.15 4.45 69.6 4.25 68.5 4.2 14.45 4.2 11.8 4.45 10.6 4.7 9.45 5.05 Q7.75 5.7 6.55 6.85 L6.05 7.45 Q4.6 9.2 4.1 11.9 L4.0 12.55 3.9 13.05 3.8 14.1 3.75 14.9 3.75 15.25 3.75 69.75 3.85 71.55 4.0 72.85 4.15 73.6 Q5.05 77.5 8.05 79.25 L9.0 79.8 10.25 80.25 14.05 80.7 14.45 80.7 68.5 80.8 68.9 80.8 71.3 80.6 72.7 80.3 73.95 79.85 74.9 79.3 Q77.9 77.55 78.85 73.65 L78.95 72.9 79.1 71.6 79.2 69.8 79.2 15.25 79.2 14.9 79.2 14.65 79.15 14.1 79.15 13.9 79.05 13.05 78.95 12.55 78.9 11.9 78.1 9.35 76.9 7.45 76.4 6.85 Q75.55 6.05 74.5 5.55 M71.6 2.7 Q76.0 3.25 78.1 6.15 79.15 7.35 79.95 9.6 80.7 11.85 80.85 14.75 L80.7 73.7 Q78.45 81.15 73.3 82.55 L9.9 82.6 Q2.55 79.6 2.25 72.0 L2.25 12.05 Q3.4 4.35 10.35 2.7 L71.6 2.7" fill="#47515f" fill-rule="evenodd" stroke="none"/>
    <path d="M82.25 9.05 L82.35 9.35 82.5 10.0 82.95 11.85 82.95 73.3 82.65 74.95 Q82.1 77.2 80.95 79.1 L80.9 79.25 80.3 80.1 Q78.85 82.15 76.65 83.7 76.1 84.25 73.85 85.0 L9.1 85.0 Q6.85 84.2 6.3 83.65 4.15 82.1 2.65 80.05 L2.05 79.2 2.0 79.0 Q0.85 77.15 0.3 74.9 L0.0 73.25 0.0 11.9 0.45 10.0 Q0.75 8.6 1.3 7.45 2.9 3.35 6.55 1.4 L6.65 1.35 Q8.25 0.5 10.35 0.0 L72.6 0.0 74.5 0.6 Q75.5 0.85 76.35 1.35 L76.4 1.4 Q80.05 3.35 81.65 7.45 L82.25 9.05" fill="none" stroke="#1e1e1e" stroke-linecap="round" stroke-linejoin="round" stroke-width="1.5"/>
    <path d="M74.5 5.55 Q75.55 6.05 76.4 6.85 L76.9 7.45 78.1 9.35 78.9 11.9 78.95 12.55 79.05 13.05 79.15 13.9 79.15 14.1 79.2 14.65 79.2 14.9 79.2 15.25 79.2 69.8 79.1 71.6 78.95 72.9 78.85 73.65 Q77.9 77.55 74.9 79.3 L73.95 79.85 72.7 80.3 71.3 80.6 68.9 80.8 68.5 80.8 14.45 80.7 14.05 80.7 10.25 80.25 9.0 79.8 8.05 79.25 Q5.05 77.5 4.15 73.6 L4.0 72.85 3.85 71.55 3.75 69.75 3.75 15.25 3.75 14.9 3.8 14.1 3.9 13.05 4.0 12.55 4.1 11.9 Q4.6 9.2 6.05 7.45 L6.55 6.85 Q7.75 5.7 9.45 5.05 L10.6 4.7 11.8 4.45 14.45 4.2 68.5 4.2 69.6 4.25 71.15 4.45 72.35 4.7 73.5 5.05 74.5 5.55 Z" fill="none" stroke="#1e1e1e" stroke-linecap="round" stroke-linejoin="round" stroke-width="1.0"/>
    <path d="M14.05 4.1 L71.3 4.1 Q15.75 24.15 9.15 79.15 3.7 79.15 3.7 73.85 L3.7 14.55 Q3.7 4.65 14.05 4.1" fill="url(#gradient0)" fill-rule="evenodd" stroke="none"/>
    <path d="M82.7 97.75 L82.7 101.2 82.4 102.85 Q81.85 105.1 80.7 107.0 L80.65 107.15 80.05 108.0 Q78.6 110.05 76.4 111.6 75.85 112.15 73.6 112.9 L12.45 112.9 Q10.2 112.15 9.65 111.6 7.45 110.05 6.0 108.0 L5.4 107.15 5.35 107.0 Q4.2 105.1 3.65 102.85 L3.35 101.2 3.35 97.75 3.65 96.1 Q4.2 93.85 5.35 91.95 L5.4 91.8 6.0 90.95 Q7.45 88.9 9.65 87.35 10.2 86.8 12.45 86.05 L73.6 86.05 Q75.85 86.8 76.4 87.35 78.6 88.9 80.05 90.95 L80.65 91.8 80.7 91.95 Q81.85 93.85 82.4 96.1 L82.7 97.75 M5.6 98.3 L5.55 98.3 5.6 101.6 Q7.85 109.05 13.0 110.45 L73.05 110.45 Q78.2 109.05 80.45 101.6 L80.5 98.3 80.45 98.3 80.45 97.35 Q78.2 89.9 73.05 88.5 L13.0 88.5 Q7.85 89.9 5.6 97.35 L5.6 98.3" fill="#d2d9df" fill-rule="evenodd" stroke="none"/>
    <path d="M5.6 98.3 L5.6 97.35 Q7.85 89.9 13.0 88.5 L73.05 88.5 Q78.2 89.9 80.45 97.35 L80.45 98.3 80.5 98.3 80.45 101.6 Q78.2 109.05 73.05 110.45 L13.0 110.45 Q7.85 109.05 5.6 101.6 L5.55 98.3 5.6 98.3 M7.45 97.4 L7.35 98.15 7.3 98.3 7.2 99.45 7.2 99.5 7.3 100.65 7.35 100.8 7.45 101.55 Q8.4 105.45 11.4 107.2 L12.35 107.75 13.6 108.2 15.0 108.5 16.2 108.6 16.2 108.65 16.3 108.65 17.65 108.65 20.5 108.7 20.75 108.7 33.7 108.7 50.8 108.7 57.5 108.7 57.9 108.7 59.75 108.7 59.95 108.7 60.4 108.7 60.9 108.7 66.4 108.7 66.75 108.7 67.4 108.7 69.95 108.65 70.75 108.6 70.75 108.55 71.05 108.5 72.45 108.2 73.7 107.75 74.65 107.2 Q77.65 105.45 78.6 101.55 L78.7 100.8 78.75 100.65 78.85 99.5 78.85 99.45 78.7 98.15 78.6 97.4 Q77.65 93.5 74.65 91.75 L73.7 91.2 72.45 90.75 71.05 90.45 70.75 90.45 70.75 90.35 69.95 90.35 67.4 90.25 66.75 90.25 66.4 90.25 60.4 90.25 59.75 90.25 57.9 90.25 57.5 90.25 50.8 90.25 33.7 90.25 33.7 90.3 20.75 90.3 20.5 90.3 17.65 90.35 16.3 90.35 16.2 90.35 15.0 90.45 13.6 90.75 12.35 91.2 11.4 91.75 Q8.4 93.5 7.45 97.4" fill="#47515f" fill-rule="evenodd" stroke="none"/>
    <path d="M7.45 97.4 Q8.4 93.5 11.4 91.75 L12.35 91.2 13.6 90.75 15.0 90.45 16.2 90.35 16.3 90.35 17.65 90.35 20.5 90.3 20.75 90.3 33.7 90.3 33.7 90.25 50.8 90.25 57.5 90.25 57.9 90.25 59.75 90.25 60.4 90.25 66.4 90.25 66.75 90.25 67.4 90.25 69.95 90.35 70.75 90.35 70.75 90.45 71.05 90.45 72.45 90.75 73.7 91.2 74.65 91.75 Q77.65 93.5 78.6 97.4 L78.7 98.15 78.85 99.45 78.85 99.5 78.75 100.65 78.7 100.8 78.6 101.55 Q77.65 105.45 74.65 107.2 L73.7 107.75 72.45 108.2 71.05 108.5 70.75 108.55 70.75 108.6 69.95 108.65 67.4 108.7 66.75 108.7 66.4 108.7 60.9 108.7 60.4 108.7 59.95 108.7 59.75 108.7 57.9 108.7 57.5 108.7 50.8 108.7 33.7 108.7 20.75 108.7 20.5 108.7 17.65 108.65 16.3 108.65 16.2 108.65 16.2 108.6 15.0 108.5 13.6 108.2 12.35 107.75 11.4 107.2 Q8.4 105.45 7.45 101.55 L7.35 100.8 7.3 100.65 7.2 99.5 7.2 99.45 7.3 98.3 7.35 98.15 7.45 97.4" fill="#0e1525" fill-rule="evenodd" stroke="none"/>
    <path d="M82.7 97.75 L82.7 101.2 82.4 102.85 Q81.85 105.1 80.7 107.0 L80.65 107.15 80.05 108.0 Q78.6 110.05 76.4 111.6 75.85 112.15 73.6 112.9 L12.45 112.9 Q10.2 112.15 9.65 111.6 7.45 110.05 6.0 108.0 L5.4 107.15 5.35 107.0 Q4.2 105.1 3.65 102.85 L3.35 101.2 3.35 97.75 3.65 96.1 Q4.2 93.85 5.35 91.95 L5.4 91.8 6.0 90.95 Q7.45 88.9 9.65 87.35 10.2 86.8 12.45 86.05 L73.6 86.05 Q75.85 86.8 76.4 87.35 78.6 88.9 80.05 90.95 L80.65 91.8 80.7 91.95 Q81.85 93.85 82.4 96.1 L82.7 97.75 Z" fill="none" stroke="#1e1e1e" stroke-linecap="round" stroke-linejoin="round" stroke-width="1.5"/>
  </g>
  <defs>
    <linearGradient gradientTransform="matrix(0.0353, 0.0356, 0.0433, -0.0435, 24.8, 5.6)" gradientUnits="userSpaceOnUse" id="gradient0" spreadMethod="pad" x1="-819.2" x2="819.2">
      <stop offset="0.0" stop-color="#ccffff" stop-opacity="0.29803923"/>
      <stop offset="1.0" stop-color="#d6d6d6" stop-opacity="0.0"/>
    </linearGradient>
  </defs>
</svg>
