<?xml version="1.0" encoding="UTF-8" standalone="no"?>
<svg xmlns:xlink="http://www.w3.org/1999/xlink" height="30.45px" width="59.95px" xmlns="http://www.w3.org/2000/svg">
  <g transform="matrix(1.0, 0.0, 0.0, 1.0, 11.7, 2.25)">
    <path d="M42.4 21.6 L39.5 23.95 25.7 23.95 25.7 15.95 28.7 15.95 28.7 21.7 32.35 21.7 32.35 14.8 25.55 14.8 25.55 12.55 32.35 12.55 32.35 9.7 25.55 9.7 25.55 7.4 32.3 7.4 32.3 6.55 35.35 6.55 35.35 7.4 42.4 7.4 41.55 9.7 35.35 9.7 35.35 12.55 42.45 12.55 41.55 14.8 35.35 14.8 35.35 21.7 39.4 21.7 39.4 16.0 42.4 16.0 42.4 21.6 M22.0 7.5 L19.15 9.35 19.15 10.3 22.85 10.3 22.0 12.05 19.15 12.05 19.15 13.0 22.85 13.0 22.0 14.75 19.25 14.8 23.05 17.6 17.85 17.6 14.15 14.8 9.5 14.8 5.25 17.6 0.0 17.6 4.35 14.8 0.75 14.8 0.75 13.0 4.2 13.0 4.2 12.05 0.85 12.05 0.85 10.3 4.2 10.3 4.2 9.35 1.25 9.35 1.25 1.75 22.0 1.75 22.0 7.5 M15.15 9.35 L8.15 9.35 8.15 10.3 15.15 10.3 15.15 9.35 M16.5 6.35 L5.3 6.35 5.3 7.55 17.95 7.55 17.95 3.55 5.3 3.55 5.3 4.65 17.35 4.65 16.5 6.35 M4.85 17.8 L8.55 20.65 4.15 20.65 0.5 17.8 4.85 17.8 M3.85 21.05 L8.25 21.05 4.8 24.0 0.4 24.0 3.85 21.05 M8.15 24.2 L8.15 21.85 9.4 21.85 9.4 16.6 13.4 16.6 13.45 21.95 9.85 24.2 8.15 24.2 M18.4 17.9 L22.8 17.9 19.1 20.65 14.7 20.65 18.4 17.9 M14.5 21.05 L18.85 21.05 22.7 24.0 18.3 24.0 14.5 21.05 M15.15 12.05 L8.15 12.05 8.15 13.0 15.15 13.0 15.15 12.05" fill="#ffff00" fill-rule="evenodd" stroke="none"/>
    <path d="M42.4 21.6 L39.5 23.95 25.7 23.95 25.7 15.95 28.7 15.95 28.7 21.7 32.35 21.7 32.35 14.8 25.55 14.8 25.55 12.55 32.35 12.55 32.35 9.7 25.55 9.7 25.55 7.4 32.3 7.4 32.3 6.55 35.35 6.55 35.35 7.4 42.4 7.4 41.55 9.7 35.35 9.7 35.35 12.55 42.45 12.55 41.55 14.8 35.35 14.8 35.35 21.7 39.4 21.7 39.4 16.0 42.4 16.0 42.4 21.6 M22.0 7.5 L19.15 9.35 19.15 10.3 22.85 10.3 22.0 12.05 19.15 12.05 19.15 13.0 22.85 13.0 22.0 14.75 19.25 14.8 23.05 17.6 17.85 17.6 14.15 14.8 9.5 14.8 5.25 17.6 0.0 17.6 4.35 14.8 0.75 14.8 0.75 13.0 4.2 13.0 4.2 12.05 0.85 12.05 0.85 10.3 4.2 10.3 4.2 9.35 1.25 9.35 1.25 1.75 22.0 1.75 22.0 7.5 M15.15 9.35 L8.15 9.35 8.15 10.3 15.15 10.3 15.15 9.35 M16.5 6.35 L5.3 6.35 5.3 7.55 17.95 7.55 17.95 3.55 5.3 3.55 5.3 4.65 17.35 4.65 16.5 6.35 M4.85 17.8 L8.55 20.65 4.15 20.65 0.5 17.8 4.85 17.8 M3.85 21.05 L8.25 21.05 4.8 24.0 0.4 24.0 3.85 21.05 M8.15 24.2 L8.15 21.85 9.4 21.85 9.4 16.6 13.4 16.6 13.45 21.95 9.85 24.2 8.15 24.2 M18.4 17.9 L22.8 17.9 19.1 20.65 14.7 20.65 18.4 17.9 M14.5 21.05 L18.85 21.05 22.7 24.0 18.3 24.0 14.5 21.05 M15.15 12.05 L8.15 12.05 8.15 13.0 15.15 13.0 15.15 12.05 Z" fill="none" stroke="#ffffff" stroke-linecap="butt" stroke-linejoin="miter-clip" stroke-miterlimit="3.0" stroke-width="8.0"/>
    <path d="M42.4 21.6 L39.5 23.95 25.7 23.95 25.7 15.95 28.7 15.95 28.7 21.7 32.35 21.7 32.35 14.8 25.55 14.8 25.55 12.55 32.35 12.55 32.35 9.7 25.55 9.7 25.55 7.4 32.3 7.4 32.3 6.55 35.35 6.55 35.35 7.4 42.4 7.4 41.55 9.7 35.35 9.7 35.35 12.55 42.45 12.55 41.55 14.8 35.35 14.8 35.35 21.7 39.4 21.7 39.4 16.0 42.4 16.0 42.4 21.6 M22.0 7.5 L19.15 9.35 19.15 10.3 22.85 10.3 22.0 12.05 19.15 12.05 19.15 13.0 22.85 13.0 22.0 14.75 19.25 14.8 23.05 17.6 17.85 17.6 14.15 14.8 9.5 14.8 5.25 17.6 0.0 17.6 4.35 14.8 0.75 14.8 0.75 13.0 4.2 13.0 4.2 12.05 0.85 12.05 0.85 10.3 4.2 10.3 4.2 9.35 1.25 9.35 1.25 1.75 22.0 1.75 22.0 7.5 M16.5 6.35 L5.3 6.35 5.3 7.55 17.95 7.55 17.95 3.55 5.3 3.55 5.3 4.65 17.35 4.65 16.5 6.35 M15.15 9.35 L8.15 9.35 8.15 10.3 15.15 10.3 15.15 9.35 M4.85 17.8 L8.55 20.65 4.15 20.65 0.5 17.8 4.85 17.8 M3.85 21.05 L8.25 21.05 4.8 24.0 0.4 24.0 3.85 21.05 M8.15 24.2 L8.15 21.85 9.4 21.85 9.4 16.6 13.4 16.6 13.45 21.95 9.85 24.2 8.15 24.2 M14.5 21.05 L18.85 21.05 22.7 24.0 18.3 24.0 14.5 21.05 M18.4 17.9 L22.8 17.9 19.1 20.65 14.7 20.65 18.4 17.9 M15.15 12.05 L8.15 12.05 8.15 13.0 15.15 13.0 15.15 12.05" fill="#ffff00" fill-rule="evenodd" stroke="none"/>
    <path d="M42.4 21.6 L39.5 23.95 25.7 23.95 25.7 15.95 28.7 15.95 28.7 21.7 32.35 21.7 32.35 14.8 25.55 14.8 25.55 12.55 32.35 12.55 32.35 9.7 25.55 9.7 25.55 7.4 32.3 7.4 32.3 6.55 35.35 6.55 35.35 7.4 42.4 7.4 41.55 9.7 35.35 9.7 35.35 12.55 42.45 12.55 41.55 14.8 35.35 14.8 35.35 21.7 39.4 21.7 39.4 16.0 42.4 16.0 42.4 21.6 M22.0 7.5 L19.15 9.35 19.15 10.3 22.85 10.3 22.0 12.05 19.15 12.05 19.15 13.0 22.85 13.0 22.0 14.75 19.25 14.8 23.05 17.6 17.85 17.6 14.15 14.8 9.5 14.8 5.25 17.6 0.0 17.6 4.35 14.8 0.75 14.8 0.75 13.0 4.2 13.0 4.2 12.05 0.85 12.05 0.85 10.3 4.2 10.3 4.2 9.35 1.25 9.35 1.25 1.75 22.0 1.75 22.0 7.5 M16.5 6.35 L5.3 6.35 5.3 7.55 17.95 7.55 17.95 3.55 5.3 3.55 5.3 4.65 17.35 4.65 16.5 6.35 M15.15 9.35 L8.15 9.35 8.15 10.3 15.15 10.3 15.15 9.35 M4.85 17.8 L8.55 20.65 4.15 20.65 0.5 17.8 4.85 17.8 M3.85 21.05 L8.25 21.05 4.8 24.0 0.4 24.0 3.85 21.05 M8.15 24.2 L8.15 21.85 9.4 21.85 9.4 16.6 13.4 16.6 13.45 21.95 9.85 24.2 8.15 24.2 M14.5 21.05 L18.85 21.05 22.7 24.0 18.3 24.0 14.5 21.05 M18.4 17.9 L22.8 17.9 19.1 20.65 14.7 20.65 18.4 17.9 M15.15 12.05 L8.15 12.05 8.15 13.0 15.15 13.0 15.15 12.05 Z" fill="none" stroke="#000000" stroke-linecap="butt" stroke-linejoin="miter-clip" stroke-miterlimit="3.0" stroke-width="5.0"/>
    <path d="M42.4 19.85 L39.5 22.2 25.7 22.2 25.7 14.2 28.7 14.2 28.7 19.95 32.35 19.95 32.35 13.05 25.55 13.05 25.55 10.8 32.35 10.8 32.35 7.95 25.55 7.95 25.55 5.65 32.3 5.65 32.3 4.8 35.35 4.8 35.35 5.65 42.4 5.65 41.55 7.95 35.35 7.95 35.35 10.8 42.45 10.8 41.55 13.05 35.35 13.05 35.35 19.95 39.4 19.95 39.4 14.25 42.4 14.25 42.4 19.85 M22.0 5.75 L19.15 7.6 19.15 8.55 22.85 8.55 22.0 10.3 19.15 10.3 19.15 11.25 22.85 11.25 22.0 13.0 19.25 13.05 23.05 15.85 17.85 15.85 14.15 13.05 9.5 13.05 5.25 15.85 0.0 15.85 4.35 13.05 0.75 13.05 0.75 11.25 4.2 11.25 4.2 10.3 0.85 10.3 0.85 8.55 4.2 8.55 4.2 7.6 1.25 7.6 1.25 0.0 22.0 0.0 22.0 5.75 M15.15 7.6 L8.15 7.6 8.15 8.55 15.15 8.55 15.15 7.6 M15.15 10.3 L8.15 10.3 8.15 11.25 15.15 11.25 15.15 10.3 M16.5 4.6 L5.3 4.6 5.3 5.8 17.95 5.8 17.95 1.8 5.3 1.8 5.3 2.9 17.35 2.9 16.5 4.6 M4.85 16.05 L8.55 18.9 4.15 18.9 0.5 16.05 4.85 16.05 M3.85 19.3 L8.25 19.3 4.8 22.25 0.4 22.25 3.85 19.3 M8.15 22.45 L8.15 20.1 9.4 20.1 9.4 14.85 13.4 14.85 13.45 20.2 9.85 22.45 8.15 22.45 M18.4 16.15 L22.8 16.15 19.1 18.9 14.7 18.9 18.4 16.15 M14.5 19.3 L18.85 19.3 22.7 22.25 18.3 22.25 14.5 19.3" fill="#ffff00" fill-rule="evenodd" stroke="none"/>
    <path d="M42.4 19.85 L39.5 22.2 25.7 22.2 25.7 14.2 28.7 14.2 28.7 19.95 32.35 19.95 32.35 13.05 25.55 13.05 25.55 10.8 32.35 10.8 32.35 7.95 25.55 7.95 25.55 5.65 32.3 5.65 32.3 4.8 35.35 4.8 35.35 5.65 42.4 5.65 41.55 7.95 35.35 7.95 35.35 10.8 42.45 10.8 41.55 13.05 35.35 13.05 35.35 19.95 39.4 19.95 39.4 14.25 42.4 14.25 42.4 19.85 M22.0 5.75 L19.15 7.6 19.15 8.55 22.85 8.55 22.0 10.3 19.15 10.3 19.15 11.25 22.85 11.25 22.0 13.0 19.25 13.05 23.05 15.85 17.85 15.85 14.15 13.05 9.5 13.05 5.25 15.85 0.0 15.85 4.35 13.05 0.75 13.05 0.75 11.25 4.2 11.25 4.2 10.3 0.85 10.3 0.85 8.55 4.2 8.55 4.2 7.6 1.25 7.6 1.25 0.0 22.0 0.0 22.0 5.75 M15.15 7.6 L8.15 7.6 8.15 8.55 15.15 8.55 15.15 7.6 M15.15 10.3 L8.15 10.3 8.15 11.25 15.15 11.25 15.15 10.3 M16.5 4.6 L5.3 4.6 5.3 5.8 17.95 5.8 17.95 1.8 5.3 1.8 5.3 2.9 17.35 2.9 16.5 4.6 M4.85 16.05 L8.55 18.9 4.15 18.9 0.5 16.05 4.85 16.05 M3.85 19.3 L8.25 19.3 4.8 22.25 0.4 22.25 3.85 19.3 M8.15 22.45 L8.15 20.1 9.4 20.1 9.4 14.85 13.4 14.85 13.45 20.2 9.85 22.45 8.15 22.45 M18.4 16.15 L22.8 16.15 19.1 18.9 14.7 18.9 18.4 16.15 M14.5 19.3 L18.85 19.3 22.7 22.25 18.3 22.25 14.5 19.3 Z" fill="none" stroke="#663300" stroke-linecap="butt" stroke-linejoin="miter-clip" stroke-miterlimit="3.0" stroke-width="3.0"/>
    <path d="M39.4 16.4 L39.4 14.25 42.4 14.25 42.4 16.4 39.4 16.4 M25.7 16.4 L25.7 14.2 28.7 14.2 28.7 16.4 25.7 16.4 M32.35 16.4 L32.35 13.05 25.55 13.05 25.55 10.8 32.35 10.8 32.35 7.95 25.55 7.95 25.55 7.9 41.6 7.9 41.55 7.95 35.35 7.95 35.35 10.8 42.45 10.8 41.55 13.05 35.35 13.05 35.35 16.4 32.35 16.4 M19.15 7.9 L19.15 8.55 22.85 8.55 22.0 10.3 19.15 10.3 19.15 11.25 22.85 11.25 22.0 13.0 19.25 13.05 23.05 15.85 17.85 15.85 14.15 13.05 9.5 13.05 5.25 15.85 0.0 15.85 4.35 13.05 0.75 13.05 0.75 11.25 4.2 11.25 4.2 10.3 0.85 10.3 0.85 8.55 4.2 8.55 4.2 7.9 8.15 7.9 8.15 8.55 15.15 8.55 15.15 7.9 19.15 7.9 M18.1 16.4 L18.4 16.15 22.8 16.15 22.5 16.4 18.1 16.4 M15.15 10.3 L8.15 10.3 8.15 11.25 15.15 11.25 15.15 10.3 M9.4 16.4 L9.4 14.85 13.4 14.85 13.45 16.4 9.4 16.4 M0.95 16.4 L0.5 16.05 4.85 16.05 5.3 16.4 0.95 16.4" fill="#ffff99" fill-rule="evenodd" stroke="none"/>
    <path d="M42.4 16.4 L42.4 19.85 39.5 22.2 25.7 22.2 25.7 16.4 28.7 16.4 28.7 19.95 32.35 19.95 32.35 16.4 35.35 16.4 35.35 19.95 39.4 19.95 39.4 16.4 42.4 16.4 M25.55 7.9 L25.55 5.65 32.3 5.65 32.3 4.8 35.35 4.8 35.35 5.65 42.4 5.65 41.6 7.9 25.55 7.9 M4.2 7.9 L4.2 7.6 1.25 7.6 1.25 0.0 22.0 0.0 22.0 5.75 19.15 7.6 19.15 7.9 15.15 7.9 15.15 7.6 8.15 7.6 8.15 7.9 4.2 7.9 M22.5 16.4 L19.1 18.9 14.7 18.9 18.1 16.4 22.5 16.4 M16.5 4.6 L5.3 4.6 5.3 5.8 17.95 5.8 17.95 1.8 5.3 1.8 5.3 2.9 17.35 2.9 16.5 4.6 M13.45 16.4 L13.45 20.2 9.85 22.45 8.15 22.45 8.15 20.1 9.4 20.1 9.4 16.4 13.45 16.4 M5.3 16.4 L8.55 18.9 4.15 18.9 0.95 16.4 5.3 16.4 M0.4 22.25 L3.85 19.3 8.25 19.3 4.8 22.25 0.4 22.25 M14.5 19.3 L18.85 19.3 22.7 22.25 18.3 22.25 14.5 19.3" fill="#ffff00" fill-rule="evenodd" stroke="none"/>
  </g>
</svg>
