<?xml version="1.0" encoding="UTF-8" standalone="no"?>
<svg xmlns:xlink="http://www.w3.org/1999/xlink" height="27.8px" width="29.45px" xmlns="http://www.w3.org/2000/svg">
  <g transform="matrix(1.0, 0.0, 0.0, 1.0, 0.35, -2.55)">
    <path d="M10.55 21.15 L13.05 19.35 13.8 19.45 10.85 21.55 10.55 21.15 9.65 20.35 11.9 17.65 10.4 16.0 10.85 14.1 12.15 15.45 19.55 4.6 26.4 4.6 27.35 4.6 27.35 11.75 16.15 19.4 17.3 20.55 15.2 20.9 14.8 20.45 16.05 20.15 15.15 19.15 26.4 11.1 26.4 4.6" fill="none" stroke="#ffffff" stroke-linecap="round" stroke-linejoin="miter-clip" stroke-miterlimit="3.0" stroke-width="3.5"/>
    <path d="M26.4 4.65 L26.4 5.7 20.35 5.7 12.8 16.4 12.4 17.1 10.65 15.05 10.85 14.2 12.15 15.5 19.55 4.65 26.4 4.65" fill="#380037" fill-rule="evenodd" stroke="none"/>
    <path d="M10.65 15.05 L12.4 17.1 12.8 16.4 20.35 5.7 26.4 5.7 26.4 11.2 15.15 19.2 16.05 20.2 14.8 20.55 13.8 19.55 13.05 19.4 10.55 21.25 9.65 20.4 11.9 17.75 10.4 16.1 10.65 15.05" fill="#510066" fill-rule="evenodd" stroke="none"/>
    <path d="M26.4 5.7 L26.4 4.65 27.35 4.65 27.35 11.85 16.15 19.5 17.3 20.6 15.2 20.95 14.8 20.55 16.05 20.2 15.15 19.2 26.4 11.2 26.4 5.7 M13.8 19.55 L10.85 21.6 10.55 21.25 13.05 19.4 13.8 19.55" fill="#1c0037" fill-rule="evenodd" stroke="none"/>
    <path d="M5.6 4.3 L11.35 4.3 11.35 14.0 14.35 14.0 Q12.2 17.7 8.5 20.4 L7.4 19.55 Q4.4 17.0 2.65 14.0 L5.6 14.0 5.6 4.3 Z" fill="none" stroke="#ffffff" stroke-linecap="butt" stroke-linejoin="miter-clip" stroke-miterlimit="3.0" stroke-width="3.5"/>
    <path d="M7.4 19.55 Q4.4 17.0 2.65 14.0 L5.6 14.0 5.6 4.3 6.85 4.3 6.85 14.9 4.9 14.9 Q5.0 15.65 6.15 17.25 L6.3 17.6 6.85 18.25 8.5 20.4 Q6.3 18.35 7.4 19.55" fill="#ee6c6c" fill-rule="evenodd" stroke="none"/>
    <path d="M6.85 4.3 L10.05 4.3 10.1 12.65 10.1 15.0 11.95 15.0 10.35 17.65 8.5 20.4 7.4 19.55 Q6.3 18.35 8.5 20.4 L6.85 18.25 Q7.05 18.45 7.4 18.45 L7.65 18.15 6.8 16.75 Q5.85 15.6 5.85 16.7 L6.15 17.25 Q5.0 15.65 4.9 14.9 L6.85 14.9 6.85 4.3" fill="#cb2c1b" fill-rule="evenodd" stroke="none"/>
    <path d="M6.15 17.25 L5.85 16.7 Q5.85 15.6 6.8 16.75 L7.65 18.15 7.4 18.45 Q7.05 18.45 6.85 18.25 L6.3 17.6 6.15 17.25" fill="#ffffff" fill-rule="evenodd" stroke="none"/>
    <path d="M10.05 4.3 L11.35 4.3 11.35 14.0 14.35 14.0 Q12.2 17.7 8.5 20.4 L10.35 17.65 11.95 15.0 10.1 15.0 10.1 12.65 10.05 4.3" fill="#a01e16" fill-rule="evenodd" stroke="none"/>
    <path d="M6.85 4.3 L10.05 4.3 11.35 4.3 11.35 14.0 14.35 14.0 Q12.2 17.7 8.5 20.4 L7.4 19.55 Q4.4 17.0 2.65 14.0 L5.6 14.0 5.6 4.3 6.85 4.3 Z" fill="none" stroke="#6d0101" stroke-linecap="butt" stroke-linejoin="miter-clip" stroke-miterlimit="3.0" stroke-width="1.0"/>
    <path d="M20.8 20.45 L17.85 20.45 17.6 21.25 16.05 21.25 16.75 18.95 18.35 18.95 18.25 19.3 21.35 19.3 20.8 20.45 M3.95 19.85 L4.15 19.85 4.15 18.85 5.65 18.85 5.65 19.85 6.25 19.85 6.25 19.6 8.0 19.6 8.0 18.85 9.55 18.85 9.55 19.6 11.45 19.6 10.95 20.65 9.55 20.65 9.55 21.95 11.55 21.95 11.05 22.95 6.1 22.95 6.1 22.4 5.65 23.1 5.65 27.25 4.15 28.0 4.15 25.45 3.95 25.8 2.45 25.8 4.15 23.05 4.15 21.0 3.85 21.0 3.7 22.25 2.4 22.25 2.75 19.15 4.0 19.15 3.95 19.85 M5.85 21.0 L5.65 21.0 5.65 22.0 6.1 22.0 6.1 21.95 8.0 21.95 8.0 20.65 6.25 20.65 6.25 20.2 5.85 21.0 M6.15 23.65 L9.05 23.65 9.05 23.15 10.55 23.15 10.55 23.65 11.45 23.65 11.0 24.7 10.55 24.7 10.55 26.75 9.55 27.9 8.4 27.9 8.4 26.85 9.05 26.85 9.05 24.7 6.15 24.7 6.15 23.65 M12.5 19.1 L16.2 19.1 15.6 20.3 15.1 20.3 15.1 26.7 16.2 26.7 15.65 27.85 12.5 27.85 12.5 26.7 13.5 26.7 13.5 20.3 12.5 20.3 12.5 19.1 M18.65 23.0 L19.5 21.1 21.15 21.1 19.5 24.6 21.25 27.85 19.55 27.85 18.75 26.3 18.05 27.85 16.4 27.85 17.85 24.7 16.3 21.75 17.95 21.75 18.65 23.0 M8.0 26.2 L7.85 26.65 7.5 27.0 7.05 27.1 6.6 27.0 6.3 26.65 6.15 26.2 Q6.1 25.95 6.3 25.75 L6.6 25.4 7.05 25.3 7.5 25.4 7.85 25.75 8.0 26.2" fill="#ffff00" fill-rule="evenodd" stroke="none"/>
    <path d="M20.8 20.45 L17.85 20.45 17.6 21.25 16.05 21.25 16.75 18.95 18.35 18.95 18.25 19.3 21.35 19.3 20.8 20.45 M3.95 19.85 L4.15 19.85 4.15 18.85 5.65 18.85 5.65 19.85 6.25 19.85 6.25 19.6 8.0 19.6 8.0 18.85 9.55 18.85 9.55 19.6 11.45 19.6 10.95 20.65 9.55 20.65 9.55 21.95 11.55 21.95 11.05 22.95 6.1 22.95 6.1 22.4 5.65 23.1 5.65 27.25 4.15 28.0 4.15 25.45 3.95 25.8 2.45 25.8 4.15 23.05 4.15 21.0 3.85 21.0 3.7 22.25 2.4 22.25 2.75 19.15 4.0 19.15 3.95 19.85 M5.85 21.0 L5.65 21.0 5.65 22.0 6.1 22.0 6.1 21.95 8.0 21.95 8.0 20.65 6.25 20.65 6.25 20.2 5.85 21.0 M6.15 23.65 L9.05 23.65 9.05 23.15 10.55 23.15 10.55 23.65 11.45 23.65 11.0 24.7 10.55 24.7 10.55 26.75 9.55 27.9 8.4 27.9 8.4 26.85 9.05 26.85 9.05 24.7 6.15 24.7 6.15 23.65 M12.5 19.1 L16.2 19.1 15.6 20.3 15.1 20.3 15.1 26.7 16.2 26.7 15.65 27.85 12.5 27.85 12.5 26.7 13.5 26.7 13.5 20.3 12.5 20.3 12.5 19.1 M18.65 23.0 L19.5 21.1 21.15 21.1 19.5 24.6 21.25 27.85 19.55 27.85 18.75 26.3 18.05 27.85 16.4 27.85 17.85 24.7 16.3 21.75 17.95 21.75 18.65 23.0 M8.0 26.2 L7.85 26.65 7.5 27.0 7.05 27.1 6.6 27.0 6.3 26.65 6.15 26.2 Q6.1 25.95 6.3 25.75 L6.6 25.4 7.05 25.3 7.5 25.4 7.85 25.75 8.0 26.2 Z" fill="none" stroke="#660000" stroke-linecap="butt" stroke-linejoin="miter-clip" stroke-miterlimit="3.0" stroke-width="3.0"/>
    <path d="M20.8 20.45 L17.85 20.45 17.6 21.25 16.05 21.25 16.75 18.95 18.35 18.95 18.2 19.3 21.35 19.3 20.8 20.45 M4.15 18.85 L5.65 18.85 5.65 19.85 6.25 19.85 6.25 19.6 8.0 19.6 8.0 18.85 9.55 18.85 9.55 19.6 11.45 19.6 10.95 20.65 9.55 20.65 9.55 21.95 11.5 21.95 11.05 22.95 6.05 22.95 6.1 22.4 5.65 23.1 5.65 27.25 4.15 28.0 4.15 25.45 3.95 25.8 2.45 25.8 4.15 23.05 4.15 21.0 3.85 21.0 3.7 22.25 2.4 22.25 2.7 19.15 4.0 19.15 3.95 19.85 4.15 19.85 4.15 18.85 M6.25 20.2 L5.85 21.0 5.65 21.0 5.65 22.0 6.1 22.0 6.1 21.95 8.0 21.95 8.0 20.65 6.25 20.65 6.25 20.2 M6.15 23.65 L9.05 23.65 9.05 23.15 10.55 23.15 10.55 23.65 11.45 23.65 11.0 24.7 10.55 24.7 10.55 26.75 9.55 27.9 8.4 27.9 8.4 26.85 9.05 26.85 9.05 24.7 6.15 24.7 6.15 23.65 M12.5 19.1 L16.2 19.1 15.6 20.3 15.1 20.3 15.1 26.7 16.2 26.7 15.65 27.85 12.5 27.85 12.5 26.7 13.45 26.7 13.45 20.3 12.5 20.3 12.5 19.1 M18.65 23.0 L19.5 21.1 21.1 21.1 19.5 24.6 21.25 27.85 19.55 27.85 18.7 26.3 18.0 27.85 16.4 27.85 17.85 24.7 16.3 21.7 17.95 21.7 18.65 23.0 M7.95 26.2 L7.85 26.65 7.5 27.0 7.05 27.1 6.6 27.0 6.25 26.65 6.15 26.2 6.25 25.75 6.6 25.4 7.05 25.3 7.45 25.4 7.85 25.75 7.95 26.2" fill="#ffff00" fill-rule="evenodd" stroke="none"/>
  </g>
</svg>
