<?xml version="1.0" encoding="UTF-8" standalone="no"?>
<svg xmlns:xlink="http://www.w3.org/1999/xlink" height="21.85px" width="21.75px" xmlns="http://www.w3.org/2000/svg">
  <g transform="matrix(1.0, 0.0, 0.0, 1.0, 10.85, 10.9)">
    <path d="M-5.4 -2.2 L-5.15 -2.2 Q-1.3 -2.95 1.45 -5.95 L1.5 -2.05 Q-0.25 -1.2 -1.2 0.45 L-1.3 0.85 Q-2.95 1.0 -4.15 -0.2 L-5.4 -2.2" fill="#2c7898" fill-rule="evenodd" stroke="none"/>
    <path d="M1.45 -5.95 L2.3 -7.85 1.2 -9.45 Q-5.15 -9.1 -7.05 -3.3 L-7.1 -2.85 -5.4 -2.2 -4.15 -0.2 Q-2.95 1.0 -1.3 0.85 -0.1 2.75 1.6 1.45 3.65 -0.25 2.45 -2.25 L1.5 -2.05 1.45 -5.95 M3.4 -0.45 Q2.95 1.8 0.85 2.6 L-0.9 2.55 -6.75 0.05 -7.35 0.2 -8.45 2.2 Q-7.8 8.35 -1.4 8.95 L0.3 9.05 Q5.65 8.25 7.55 3.0 8.85 -0.45 6.6 -3.0 3.95 -3.45 3.4 -0.45 M8.1 -6.85 Q9.75 -4.8 10.4 -2.55 11.4 2.35 8.5 6.3 L7.55 7.55 Q4.45 10.8 -0.05 10.7 -2.15 10.65 -3.9 9.9 -10.8 6.7 -10.6 -1.0 -10.1 -4.7 -7.65 -7.2 L-7.1 -7.8 Q-4.25 -10.4 -0.35 -10.65 4.15 -10.6 7.35 -7.6 L8.1 -6.85 M8.85 2.35 Q8.25 2.9 8.1 3.7 7.1 5.9 5.6 7.75 L5.8 7.9 Q8.95 5.7 9.05 2.2 8.9 2.25 8.85 2.35" fill="#3797bf" fill-rule="evenodd" stroke="none"/>
    <path d="M3.4 -0.45 Q3.95 -3.45 6.6 -3.0 8.85 -0.45 7.55 3.0 5.65 8.25 0.3 9.05 L-1.4 8.95 Q-7.8 8.35 -8.45 2.2 L-7.35 0.2 -6.75 0.05 -0.9 2.55 0.85 2.6 Q2.95 1.8 3.4 -0.45" fill="#7edde7" fill-rule="evenodd" stroke="none"/>
    <path d="M-5.4 -2.2 L-7.1 -2.85 -7.05 -3.3 Q-5.15 -9.1 1.2 -9.45 L2.3 -7.85 1.45 -5.95 Q-1.3 -2.95 -5.15 -2.2 L-5.4 -2.2 M1.5 -2.05 L2.45 -2.25 Q3.65 -0.25 1.6 1.45 -0.1 2.75 -1.3 0.85 L-1.2 0.45 Q-0.25 -1.2 1.5 -2.05 M8.85 2.35 Q8.9 2.25 9.05 2.2 8.95 5.7 5.8 7.9 L5.6 7.75 Q7.1 5.9 8.1 3.7 8.25 2.9 8.85 2.35" fill="#ffffff" fill-rule="evenodd" stroke="none"/>
    <path d="M8.1 -6.85 L7.35 -7.6 Q4.15 -10.6 -0.35 -10.65 -4.25 -10.4 -7.1 -7.8 L-7.65 -7.2 Q-10.1 -4.7 -10.6 -1.0 -10.8 6.7 -3.9 9.9 -2.15 10.65 -0.05 10.7 4.45 10.8 7.55 7.55 L8.5 6.3 Q11.4 2.35 10.4 -2.55 9.75 -4.8 8.1 -6.85 Z" fill="none" stroke="#151515" stroke-linecap="round" stroke-linejoin="round" stroke-width="0.5"/>
  </g>
</svg>
