<?xml version="1.0" encoding="UTF-8" standalone="no"?>
<svg xmlns:xlink="http://www.w3.org/1999/xlink" height="23.8px" width="23.8px" xmlns="http://www.w3.org/2000/svg">
  <g transform="matrix(1.0, 0.0, 0.0, 1.0, 0.0, 0.0)">
    <path d="M20.7 10.1 Q20.7 8.3 18.9 8.3 L15.5 8.3 15.5 4.95 Q15.5 3.15 13.7 3.15 L10.1 3.15 Q8.3 3.15 8.3 4.95 L8.3 8.3 4.9 8.3 Q3.1 8.3 3.1 10.1 L3.1 13.7 Q3.1 15.5 4.9 15.5 L8.3 15.5 8.3 18.9 Q8.3 20.7 10.1 20.7 L13.7 20.7 Q15.5 20.7 15.5 18.9 L15.5 15.5 18.9 15.5 Q20.7 15.5 20.7 13.7 L20.7 10.1 M21.9 9.85 L21.9 13.95 Q21.9 16.0 19.85 16.0 L16.0 16.0 16.0 19.9 Q16.0 21.9 13.95 21.9 L9.85 21.9 Q7.85 21.9 7.85 19.9 L7.85 16.0 3.95 16.0 Q1.9 16.0 1.9 13.95 L1.9 9.85 Q1.9 7.8 3.95 7.8 L7.85 7.8 7.85 3.95 Q7.85 1.9 9.85 1.9 L13.95 1.9 Q16.0 1.9 16.0 3.95 L16.0 7.8 19.85 7.8 Q21.9 7.8 21.9 9.85" fill="#b7ff6f" fill-rule="evenodd" stroke="none"/>
    <path d="M23.8 14.35 Q23.8 16.75 21.4 16.75 L16.75 16.75 16.75 21.4 Q16.75 23.8 14.35 23.8 L9.5 23.8 Q7.05 23.8 7.05 21.4 L7.05 16.75 2.45 16.75 Q0.0 16.75 0.0 14.35 L0.0 9.45 Q0.0 7.05 2.45 7.05 L7.05 7.05 7.05 2.4 Q7.05 0.0 9.5 0.0 L14.35 0.0 Q16.75 0.0 16.75 2.4 L16.75 7.05 21.4 7.05 Q23.8 7.05 23.8 9.45 L23.8 14.35 M21.9 9.85 Q21.9 7.8 19.85 7.8 L16.0 7.8 16.0 3.95 Q16.0 1.9 13.95 1.9 L9.85 1.9 Q7.85 1.9 7.85 3.95 L7.85 7.8 3.95 7.8 Q1.9 7.8 1.9 9.85 L1.9 13.95 Q1.9 16.0 3.95 16.0 L7.85 16.0 7.85 19.9 Q7.85 21.9 9.85 21.9 L13.95 21.9 Q16.0 21.9 16.0 19.9 L16.0 16.0 19.85 16.0 Q21.9 16.0 21.9 13.95 L21.9 9.85" fill="#00ff00" fill-rule="evenodd" stroke="none"/>
  </g>
</svg>
