<?xml version="1.0" encoding="UTF-8" standalone="no"?>
<svg xmlns:xlink="http://www.w3.org/1999/xlink" height="11.0px" width="9.0px" xmlns="http://www.w3.org/2000/svg">
  <g transform="matrix(1.0, 0.0, 0.0, 1.0, 0.5, 0.5)">
    <path d="M0.05 1.1 L0.25 0.45 Q0.6 0.0 1.35 0.0 L6.65 0.0 Q7.9 0.0 8.0 1.1 L8.0 1.3 8.0 4.85 6.75 6.45 Q5.95 7.3 4.0 7.35 2.05 7.4 1.2 6.4 L0.0 4.75 0.0 1.3 0.05 1.1 M4.3 0.9 L2.95 0.6 Q1.7 0.6 1.45 1.4 L1.35 2.65 Q1.3 2.9 1.4 3.15 1.6 3.65 2.2 3.65 2.75 3.65 2.8 3.2 L3.0 2.35 Q3.1 1.95 3.8 1.8 4.45 1.7 4.45 1.45 L4.3 0.9" fill="#5de6f5" fill-rule="evenodd" stroke="none"/>
    <path d="M4.3 0.9 L4.45 1.45 Q4.45 1.7 3.8 1.8 3.1 1.95 3.0 2.35 L2.8 3.2 Q2.75 3.65 2.2 3.65 1.6 3.65 1.4 3.15 1.3 2.9 1.35 2.65 L1.45 1.4 Q1.7 0.6 2.95 0.6 L4.3 0.9" fill="#e8fcfd" fill-rule="evenodd" stroke="none"/>
    <path d="M0.05 1.1 L0.0 1.3 0.0 1.1 0.05 1.1" fill="#52e5f9" fill-rule="evenodd" stroke="none"/>
    <path d="M0.0 4.75 L1.2 6.4 Q2.05 7.4 4.0 7.35 5.95 7.3 6.75 6.45 L8.0 4.85 8.0 8.6 Q8.0 10.0 6.65 10.0 L1.35 10.0 Q0.6 10.0 0.25 9.55 L0.0 8.6 0.0 4.75" fill="#0b7a86" fill-rule="evenodd" stroke="none"/>
    <path d="M8.0 4.85 L8.0 1.3 8.0 1.1 Q7.9 0.0 6.65 0.0 L1.35 0.0 Q0.6 0.0 0.25 0.45 L0.05 1.1 0.0 1.3 0.0 4.75 0.0 8.6 0.25 9.55 Q0.6 10.0 1.35 10.0 L6.65 10.0 Q8.0 10.0 8.0 8.6 L8.0 4.85 M0.0 1.3 L0.0 1.1" fill="none" stroke="#52e5f9" stroke-linecap="round" stroke-linejoin="round" stroke-width="1.0"/>
  </g>
</svg>
