<?xml version="1.0" encoding="UTF-8" standalone="no"?>
<svg xmlns:xlink="http://www.w3.org/1999/xlink" height="14.0px" width="10.0px" xmlns="http://www.w3.org/2000/svg">
  <g transform="matrix(1.0, 0.0, 0.0, 1.0, 1.5, 1.5)">
    <path d="M-0.95 0.45 L-0.75 -0.4 Q-0.35 -1.0 0.5 -1.0 L6.45 -1.0 Q7.85 -1.0 8.0 0.45 L8.0 0.7 8.0 10.2 Q8.0 12.0 6.45 12.0 L0.5 12.0 Q-0.35 12.0 -0.75 11.4 L-1.0 10.2 -1.0 0.7 -0.95 0.45" fill="#000033" fill-rule="evenodd" stroke="none"/>
    <path d="M-0.95 0.45 L-1.0 0.7 -1.0 0.45 -0.95 0.45" fill="#52e5f9" fill-rule="evenodd" stroke="none"/>
    <path d="M-1.0 0.7 L-1.0 10.2 -0.75 11.4 Q-0.35 12.0 0.5 12.0 L6.45 12.0 Q8.0 12.0 8.0 10.2 L8.0 0.7 8.0 0.45 Q7.85 -1.0 6.45 -1.0 L0.5 -1.0 Q-0.35 -1.0 -0.75 -0.4 L-0.95 0.45 -1.0 0.7 -1.0 0.45" fill="none" stroke="#0bb8ca" stroke-linecap="round" stroke-linejoin="round" stroke-width="1.0"/>
  </g>
</svg>
