<?xml version="1.0" encoding="UTF-8" standalone="no"?>
<svg xmlns:xlink="http://www.w3.org/1999/xlink" height="29.65px" width="70.5px" xmlns="http://www.w3.org/2000/svg">
  <g transform="matrix(1.0, 0.0, 0.0, 1.0, -2.85, -2.35)">
    <path d="M24.95 32.0 L16.8 20.05 27.6 24.7 31.75 12.15 36.95 24.15 48.4 14.85 48.4 26.2 58.55 19.25 58.55 26.7 66.4 26.7 60.65 32.0 24.95 32.0" fill="#ffffff" fill-rule="evenodd" stroke="none"/>
    <path d="M24.95 32.0 L20.8 32.0 2.85 14.05 11.9 16.95 11.9 9.35 17.35 15.7 17.35 4.75 24.5 14.6 34.45 2.35 39.5 16.85 49.75 3.85 53.05 19.9 61.3 8.65 61.3 22.15 68.1 15.95 64.3 23.9 73.35 20.25 66.4 26.7 58.55 26.7 58.55 19.25 48.4 26.2 48.4 14.85 36.95 24.15 31.75 12.15 27.6 24.7 16.8 20.05 24.95 32.0" fill="#d0fff8" fill-rule="evenodd" stroke="none"/>
  </g>
</svg>
