<?xml version="1.0" encoding="UTF-8" standalone="no"?>
<svg xmlns:xlink="http://www.w3.org/1999/xlink" height="59.4px" width="115.45px" xmlns="http://www.w3.org/2000/svg">
  <g transform="matrix(1.0, 0.0, 0.0, 1.0, 1.5, 1.5)">
    <path d="M103.2 12.2 L102.0 12.85 102.5 13.05 Q101.3 13.3 99.6 14.5 L100.2 15.0 99.5 15.1 Q99.35 15.25 99.5 15.5 L98.9 15.75 Q98.75 15.6 98.65 16.2 L98.9 16.45 98.05 16.95 98.4 17.2 Q97.8 17.05 97.45 17.4 L98.3 17.8 99.15 18.65 Q98.65 18.5 98.3 18.9 L98.75 19.1 99.0 19.6 Q97.95 19.6 96.95 20.8 97.35 20.8 98.05 22.0 L96.5 22.0 Q94.35 21.3 93.35 23.35 L93.35 23.95 93.75 25.55 Q91.7 26.15 89.9 28.2 90.0 28.2 90.5 28.55 L90.15 29.05 90.35 29.3 Q90.0 28.9 90.15 29.5 L90.25 29.75 Q89.55 29.9 87.75 30.6 86.9 30.85 85.35 31.45 L83.9 32.05 Q83.75 32.05 82.95 32.45 82.45 31.95 82.55 31.6 L82.2 31.1 Q81.6 32.3 81.35 33.9 L81.6 34.1 81.15 34.1 78.75 35.1 79.1 35.35 Q78.5 35.7 78.75 35.8 L78.15 36.65 78.25 36.9 Q77.9 36.9 77.75 37.15 L78.35 37.65 Q77.9 37.75 77.55 38.1 L76.75 38.6 77.4 39.3 Q76.95 39.1 76.65 39.45 L76.8 39.7 Q76.35 39.45 76.2 39.8 L76.45 40.05 Q76.2 39.95 76.35 40.3 L76.7 40.9 Q76.2 40.8 75.95 41.15 L76.35 41.25 Q75.35 41.5 74.3 42.0 74.15 41.75 72.6 42.95 L72.75 43.2 72.15 43.45 71.65 43.9 72.5 44.4 Q69.15 45.85 64.2 49.25 L63.5 47.8 61.7 43.7 Q59.4 41.25 60.25 41.5 62.65 38.85 63.75 33.4 L64.35 22.75 64.55 11.25 64.8 3.85 72.85 4.5 71.75 25.65 Q71.4 28.45 71.3 31.6 70.95 33.25 71.3 36.55 71.4 36.3 72.5 35.95 72.6 35.7 73.2 35.35 L73.55 29.9 73.8 28.2 75.25 2.2 84.5 2.9 84.15 7.6 Q82.8 16.35 83.15 20.7 87.0 15.1 89.4 10.15 L89.65 9.3 Q90.75 4.25 91.95 3.15 L92.65 3.25 98.05 4.85 99.35 4.95 Q100.1 4.95 100.55 5.45 L100.7 5.8 Q100.45 6.3 100.55 6.65 99.6 8.85 98.9 11.25 L103.8 11.75 103.45 11.85 103.7 12.2 103.2 12.2 M109.2 12.1 L112.45 12.2 110.75 22.65 109.8 22.5 Q108.25 22.0 107.9 23.25 107.55 23.85 107.05 27.0 L106.2 30.75 104.75 34.1 103.1 38.0 Q102.35 38.95 101.4 41.6 L102.75 43.2 105.0 45.5 107.15 48.15 105.0 50.6 102.95 53.0 100.7 55.65 97.35 52.15 94.7 49.6 94.2 50.1 90.85 53.25 Q88.2 54.95 87.15 55.9 L85.1 52.75 Q83.75 51.4 82.7 49.85 82.35 50.6 82.1 52.75 L81.85 55.65 74.4 55.65 74.75 47.65 Q74.9 44.4 74.4 43.7 75.5 42.1 78.75 41.25 L78.5 41.15 78.85 40.9 79.1 40.55 Q78.85 40.3 78.75 40.4 78.75 40.05 78.95 40.15 L78.75 39.95 Q79.35 39.1 79.95 39.1 L79.35 38.35 80.15 37.85 80.75 37.75 80.3 37.25 Q80.4 37.0 80.65 37.0 L80.55 36.2 81.0 35.95 Q81.25 35.55 81.75 35.45 L81.35 35.35 Q81.35 34.95 81.75 35.1 82.55 34.25 84.0 34.35 L83.55 38.0 Q82.45 44.55 82.7 47.9 L84.95 46.45 Q86.15 45.85 87.25 44.75 90.15 42.35 90.5 40.65 L90.0 39.3 Q89.55 38.5 89.05 36.2 L88.2 32.9 Q87.25 33.5 86.4 34.6 L86.05 34.25 85.35 32.8 Q85.7 32.05 88.8 31.35 L92.55 29.75 92.4 29.5 Q92.4 29.3 92.65 29.3 L92.55 28.9 92.75 28.7 92.3 28.2 Q93.75 26.5 96.25 25.9 96.0 28.45 97.2 31.6 L99.5 24.95 Q99.35 24.1 99.5 23.45 99.5 22.25 99.85 22.25 L100.55 22.15 99.75 20.7 Q99.95 19.95 101.4 19.6 101.05 19.25 101.15 19.1 L100.8 18.9 101.65 18.75 100.1 17.55 Q100.35 17.05 100.95 17.3 100.7 16.8 100.55 17.05 100.7 16.7 101.3 16.7 L101.15 16.2 102.15 15.75 101.9 15.35 Q102.25 15.0 102.75 15.1 L102.25 14.65 Q102.75 13.9 103.45 14.05 L105.15 13.3 104.75 13.05 105.35 12.45 106.2 12.45 106.2 12.1 Q106.95 11.85 109.2 12.1 M52.35 4.95 Q51.05 4.6 50.6 5.3 50.7 5.15 51.15 5.55 47.3 6.9 44.9 8.95 L45.35 9.7 Q43.1 10.55 41.75 11.6 L42.25 11.85 Q41.55 11.75 41.65 12.1 L42.0 13.05 Q41.4 12.95 41.4 13.55 L42.0 14.05 Q41.05 13.9 40.8 14.3 L41.4 14.5 42.15 15.1 41.55 15.35 40.7 15.95 40.95 16.2 40.55 16.7 40.95 17.05 Q40.2 16.95 40.1 17.55 L40.1 16.95 40.2 15.95 40.95 13.05 Q39.35 12.45 36.85 12.35 36.5 13.2 36.75 15.35 36.6 16.8 36.95 18.9 36.85 19.85 37.1 21.05 L35.3 22.0 34.2 22.4 34.8 22.75 Q34.45 22.65 34.45 22.85 L34.8 23.25 Q33.85 23.1 33.6 23.7 33.35 23.7 33.95 24.2 33.25 24.2 32.9 24.45 L31.8 25.9 30.35 26.75 Q29.4 26.4 28.95 27.2 L29.55 27.7 Q28.95 27.35 28.8 27.95 L29.05 28.2 28.2 28.7 28.45 28.9 Q28.1 28.8 28.2 29.05 L28.45 29.4 Q27.85 29.4 27.85 29.9 27.35 29.4 27.6 29.05 L27.75 24.8 27.75 20.95 27.0 12.2 Q25.7 11.6 23.15 11.75 23.05 15.6 23.55 17.65 23.9 22.15 24.6 26.75 24.85 31.35 23.65 34.1 L23.9 34.35 Q22.55 34.75 22.35 35.2 L22.55 35.55 Q21.6 35.95 21.0 36.55 L21.75 37.0 20.9 37.5 21.15 37.75 20.3 38.0 Q19.8 38.0 19.45 38.5 L19.8 38.7 Q19.35 38.6 18.95 38.95 19.2 38.85 19.55 39.2 17.9 38.95 16.2 40.3 L16.35 40.55 15.0 41.15 14.05 42.0 14.15 42.25 Q13.95 42.1 13.8 42.45 L14.05 42.7 Q12.35 42.6 11.75 44.55 L12.0 45.0 Q11.05 44.9 11.05 45.35 L11.3 46.2 Q9.75 46.35 8.65 47.55 L8.75 47.8 Q7.2 47.9 7.1 48.9 4.8 34.6 2.55 18.65 L0.75 7.4 Q0.35 5.3 0.25 3.15 -0.1 2.4 0.0 1.7 L14.9 2.55 15.95 2.65 20.15 2.9 20.15 1.45 19.95 0.0 53.15 2.2 52.55 3.5 Q51.95 3.85 51.85 4.5 51.9 4.4 52.35 4.95 M54.95 5.3 Q52.35 13.2 51.75 19.5 52.95 19.35 53.65 19.85 L56.05 19.95 55.8 30.25 Q54.15 33.65 53.65 39.45 L52.7 41.85 Q51.85 43.45 51.6 44.65 L52.35 45.35 Q55.1 47.45 56.05 48.5 57.85 50.1 58.1 52.05 55.55 53.85 50.9 56.4 L46.35 52.25 Q42.95 54.95 39.75 56.4 L36.35 53.85 33.25 51.8 32.75 52.15 29.65 55.9 27.6 54.35 21.95 49.95 Q22.35 48.65 23.55 48.15 L20.65 47.9 17.9 47.9 Q17.65 48.65 18.15 50.95 L9.95 50.95 9.95 50.35 Q9.75 49.95 10.2 50.1 9.6 49.25 9.75 49.1 9.95 48.05 11.75 47.8 L11.55 47.55 Q11.9 47.2 12.15 47.2 L14.05 45.75 13.8 45.35 14.3 45.15 Q14.65 44.75 15.0 44.75 14.65 44.4 14.4 44.55 15.15 43.2 16.8 42.85 L16.45 42.6 Q16.55 42.25 16.95 42.35 L16.7 42.1 Q16.95 41.75 17.55 41.85 L18.35 41.6 18.15 41.4 Q18.0 41.0 18.75 41.15 L19.35 40.65 19.1 40.4 22.45 39.2 21.85 38.95 Q21.85 38.6 22.55 38.7 L22.35 38.5 Q22.35 38.25 22.8 38.25 23.4 37.65 24.0 37.85 L23.9 37.65 Q23.75 37.4 24.35 37.4 L24.25 37.0 Q24.0 36.9 24.35 36.8 L24.0 36.55 Q24.5 35.8 25.2 35.55 L24.95 35.35 Q25.7 34.85 26.55 34.85 L27.15 34.6 Q26.65 34.1 26.55 34.25 26.75 33.05 27.6 32.65 L27.95 36.4 Q27.95 38.7 28.35 40.15 L29.55 35.45 29.9 33.05 30.15 30.85 Q29.9 29.9 30.5 30.0 L31.45 29.5 31.2 29.3 Q30.95 28.8 31.35 29.05 L31.2 28.8 Q31.7 27.85 32.4 27.7 L32.05 27.2 Q34.55 26.0 37.55 23.35 37.35 23.1 37.2 23.1 37.2 22.75 37.55 22.85 L37.25 22.65 Q38.3 21.65 39.85 21.55 L39.85 22.0 Q39.5 22.4 39.75 23.7 L41.05 24.45 41.75 20.1 Q42.5 17.8 43.7 17.2 L43.2 16.7 Q43.45 16.45 43.95 16.45 L43.8 16.2 Q44.4 15.35 45.25 15.25 L44.4 14.65 43.8 14.4 44.65 14.05 44.4 13.8 44.9 13.2 Q44.75 12.85 45.15 12.6 L44.65 12.2 Q44.55 11.85 45.15 12.0 L44.9 11.75 45.6 11.35 48.5 9.8 47.75 9.2 Q51.0 7.25 52.7 6.8 53.4 5.8 53.9 5.8 L53.65 5.45 54.95 5.3 M42.35 29.5 Q42.0 29.65 42.25 30.15 42.6 31.35 43.1 32.05 L45.5 36.55 Q45.6 35.45 46.35 33.15 L46.95 31.6 Q46.7 30.75 47.3 30.0 L44.9 29.75 42.35 29.5 M11.75 23.1 L12.95 32.55 13.95 38.25 14.3 38.5 15.6 38.5 17.05 38.35 16.95 35.45 Q16.45 34.1 16.2 32.55 L14.15 14.15 11.05 13.8 Q10.95 16.6 11.75 23.1 M37.8 47.2 L39.0 45.75 40.55 44.65 Q40.1 43.7 39.6 43.7 L37.95 40.15 37.7 40.55 Q36.35 43.05 36.35 44.9 L34.55 48.75 34.95 49.0 35.55 48.3 Q36.75 47.45 37.8 47.2" fill="url(#gradient0)" fill-rule="evenodd" stroke="none"/>
    <path d="M103.2 12.2 L102.0 12.85 102.5 13.05 Q101.3 13.3 99.6 14.5 L100.2 15.0 99.5 15.1 Q99.35 15.25 99.5 15.5 L98.9 15.75 Q98.75 15.6 98.65 16.2 L98.9 16.45 98.05 16.95 98.4 17.2 Q97.8 17.05 97.45 17.4 L98.3 17.8 99.15 18.65 Q98.65 18.5 98.3 18.9 L98.75 19.1 99.0 19.6 Q97.95 19.6 96.95 20.8 97.35 20.8 98.05 22.0 L96.5 22.0 Q94.35 21.3 93.35 23.35 L93.35 23.95 93.75 25.55 Q91.7 26.15 89.9 28.2 90.0 28.2 90.5 28.55 L90.15 29.05 90.35 29.3 Q90.0 28.9 90.15 29.5 L90.25 29.75 Q89.55 29.9 87.75 30.6 86.9 30.85 85.35 31.45 L83.9 32.05 Q83.75 32.05 82.95 32.45 82.45 31.95 82.55 31.6 L82.2 31.1 Q81.6 32.3 81.35 33.9 L81.6 34.1 81.15 34.1 78.75 35.1 79.1 35.35 Q78.5 35.7 78.75 35.8 L78.15 36.65 78.25 36.9 Q77.9 36.9 77.75 37.15 L78.35 37.65 Q77.9 37.75 77.55 38.1 L76.75 38.6 77.4 39.3 Q76.95 39.1 76.65 39.45 L76.8 39.7 Q76.35 39.45 76.2 39.8 L76.45 40.05 Q76.2 39.95 76.35 40.3 L76.7 40.9 Q76.2 40.8 75.95 41.15 L76.35 41.25 Q75.35 41.5 74.3 42.0 74.15 41.75 72.6 42.95 L72.75 43.2 72.15 43.45 71.65 43.9 72.5 44.4 Q69.15 45.85 64.2 49.25 L63.5 47.8 61.7 43.7 Q59.4 41.25 60.25 41.5 62.65 38.85 63.75 33.4 L64.35 22.75 64.55 11.25 64.8 3.85 72.85 4.5 71.75 25.65 Q71.4 28.45 71.3 31.6 70.95 33.25 71.3 36.55 71.4 36.3 72.5 35.95 72.6 35.7 73.2 35.35 L73.55 29.9 73.8 28.2 75.25 2.2 84.5 2.9 84.15 7.6 Q82.8 16.35 83.15 20.7 87.0 15.1 89.4 10.15 L89.65 9.3 Q90.75 4.25 91.95 3.15 L92.65 3.25 98.05 4.85 99.35 4.95 Q100.1 4.95 100.55 5.45 L100.7 5.8 Q100.45 6.3 100.55 6.65 99.6 8.85 98.9 11.25 L103.8 11.75 103.45 11.85 103.7 12.2 103.2 12.2 M109.2 12.1 L112.45 12.2 110.75 22.65 109.8 22.5 Q108.25 22.0 107.9 23.25 107.55 23.85 107.05 27.0 L106.2 30.75 104.75 34.1 103.1 38.0 Q102.35 38.95 101.4 41.6 L102.75 43.2 105.0 45.5 107.15 48.15 105.0 50.6 102.95 53.0 100.7 55.65 97.35 52.15 94.7 49.6 94.2 50.1 90.85 53.25 Q88.2 54.95 87.15 55.9 L85.1 52.75 Q83.75 51.4 82.7 49.85 82.35 50.6 82.1 52.75 L81.85 55.65 74.4 55.65 74.75 47.65 Q74.9 44.4 74.4 43.7 75.5 42.1 78.75 41.25 L78.5 41.15 78.85 40.9 79.1 40.55 Q78.85 40.3 78.75 40.4 78.75 40.05 78.95 40.15 L78.75 39.95 Q79.35 39.1 79.95 39.1 L79.35 38.35 80.15 37.85 80.75 37.75 80.3 37.25 Q80.4 37.0 80.65 37.0 L80.55 36.2 81.0 35.95 Q81.25 35.55 81.75 35.45 L81.35 35.35 Q81.35 34.95 81.75 35.1 82.55 34.25 84.0 34.35 L83.55 38.0 Q82.45 44.55 82.7 47.9 L84.95 46.45 Q86.15 45.85 87.25 44.75 90.15 42.35 90.5 40.65 L90.0 39.3 Q89.55 38.5 89.05 36.2 L88.2 32.9 Q87.25 33.5 86.4 34.6 L86.05 34.25 85.35 32.8 Q85.7 32.05 88.8 31.35 L92.55 29.75 92.4 29.5 Q92.4 29.3 92.65 29.3 L92.55 28.9 92.75 28.7 92.3 28.2 Q93.75 26.5 96.25 25.9 96.0 28.45 97.2 31.6 L99.5 24.95 Q99.35 24.1 99.5 23.45 99.5 22.25 99.85 22.25 L100.55 22.15 99.75 20.7 Q99.95 19.95 101.4 19.6 101.05 19.25 101.15 19.1 L100.8 18.9 101.65 18.75 100.1 17.55 Q100.35 17.05 100.95 17.3 100.7 16.8 100.55 17.05 100.7 16.7 101.3 16.7 L101.15 16.2 102.15 15.75 101.9 15.35 Q102.25 15.0 102.75 15.1 L102.25 14.65 Q102.75 13.9 103.45 14.05 L105.15 13.3 104.75 13.05 105.35 12.45 106.2 12.45 106.2 12.1 Q106.95 11.85 109.2 12.1 M52.35 4.95 Q51.05 4.6 50.6 5.3 50.7 5.15 51.15 5.55 47.3 6.9 44.9 8.95 L45.35 9.7 Q43.1 10.55 41.75 11.6 L42.25 11.85 Q41.55 11.75 41.65 12.1 L42.0 13.05 Q41.4 12.95 41.4 13.55 L42.0 14.05 Q41.05 13.9 40.8 14.3 L41.4 14.5 42.15 15.1 41.55 15.35 40.7 15.95 40.95 16.2 40.55 16.7 40.95 17.05 Q40.2 16.95 40.1 17.55 L40.1 16.95 40.2 15.95 40.95 13.05 Q39.35 12.45 36.85 12.35 36.5 13.2 36.75 15.35 36.6 16.8 36.95 18.9 36.85 19.85 37.1 21.05 L35.3 22.0 34.2 22.4 34.8 22.75 Q34.45 22.65 34.45 22.85 L34.8 23.25 Q33.85 23.1 33.6 23.7 33.35 23.7 33.95 24.2 33.25 24.2 32.9 24.45 L31.8 25.9 30.35 26.75 Q29.4 26.4 28.95 27.2 L29.55 27.7 Q28.95 27.35 28.8 27.95 L29.05 28.2 28.2 28.7 28.45 28.9 Q28.1 28.8 28.2 29.05 L28.45 29.4 Q27.85 29.4 27.85 29.9 27.35 29.4 27.6 29.05 L27.75 24.8 27.75 20.95 27.0 12.2 Q25.7 11.6 23.15 11.75 23.05 15.6 23.55 17.65 23.9 22.15 24.6 26.75 24.85 31.35 23.65 34.1 L23.9 34.35 Q22.55 34.75 22.35 35.2 L22.55 35.55 Q21.6 35.95 21.0 36.55 L21.75 37.0 20.9 37.5 21.15 37.75 20.3 38.0 Q19.8 38.0 19.45 38.5 L19.8 38.7 Q19.35 38.6 18.95 38.95 19.2 38.85 19.55 39.2 17.9 38.95 16.2 40.3 L16.35 40.55 15.0 41.15 14.05 42.0 14.15 42.25 Q13.95 42.1 13.8 42.45 L14.05 42.7 Q12.35 42.6 11.75 44.55 L12.0 45.0 Q11.05 44.9 11.05 45.35 L11.3 46.2 Q9.75 46.35 8.65 47.55 L8.75 47.8 Q7.2 47.9 7.1 48.9 4.8 34.6 2.55 18.65 L0.75 7.4 Q0.35 5.3 0.25 3.15 -0.1 2.4 0.0 1.7 L14.9 2.55 15.95 2.65 20.15 2.9 20.15 1.45 19.95 0.0 53.15 2.2 52.55 3.5 Q51.95 3.85 51.85 4.5 51.9 4.4 52.35 4.95 M54.95 5.3 Q52.35 13.2 51.75 19.5 52.95 19.35 53.65 19.85 L56.05 19.95 55.8 30.25 Q54.15 33.65 53.65 39.45 L52.7 41.85 Q51.85 43.45 51.6 44.65 L52.35 45.35 Q55.1 47.45 56.05 48.5 57.85 50.1 58.1 52.05 55.55 53.85 50.9 56.4 L46.35 52.25 Q42.95 54.95 39.75 56.4 L36.35 53.85 33.25 51.8 32.75 52.15 29.65 55.9 27.6 54.35 21.95 49.95 Q22.35 48.65 23.55 48.15 L20.65 47.9 17.9 47.9 Q17.65 48.65 18.15 50.95 L9.95 50.95 9.95 50.35 Q9.75 49.95 10.2 50.1 9.6 49.25 9.75 49.1 9.95 48.05 11.75 47.8 L11.55 47.55 Q11.9 47.2 12.15 47.2 L14.05 45.75 13.8 45.35 14.3 45.15 Q14.65 44.75 15.0 44.75 14.65 44.4 14.4 44.55 15.15 43.2 16.8 42.85 L16.45 42.6 Q16.55 42.25 16.95 42.35 L16.7 42.1 Q16.95 41.75 17.55 41.85 L18.35 41.6 18.15 41.4 Q18.0 41.0 18.75 41.15 L19.35 40.65 19.1 40.4 22.45 39.2 21.85 38.95 Q21.85 38.6 22.55 38.7 L22.35 38.5 Q22.35 38.25 22.8 38.25 23.4 37.65 24.0 37.85 L23.9 37.65 Q23.75 37.4 24.35 37.4 L24.25 37.0 Q24.0 36.9 24.35 36.8 L24.0 36.55 Q24.5 35.8 25.2 35.55 L24.95 35.35 Q25.7 34.85 26.55 34.85 L27.15 34.6 Q26.65 34.1 26.55 34.25 26.75 33.05 27.6 32.65 L27.95 36.4 Q27.95 38.7 28.35 40.15 L29.55 35.45 29.9 33.05 30.15 30.85 Q29.9 29.9 30.5 30.0 L31.45 29.5 31.2 29.3 Q30.95 28.8 31.35 29.05 L31.2 28.8 Q31.7 27.85 32.4 27.7 L32.05 27.2 Q34.55 26.0 37.55 23.35 37.35 23.1 37.2 23.1 37.2 22.75 37.55 22.85 L37.25 22.65 Q38.3 21.65 39.85 21.55 L39.85 22.0 Q39.5 22.4 39.75 23.7 L41.05 24.45 41.75 20.1 Q42.5 17.8 43.7 17.2 L43.2 16.7 Q43.45 16.45 43.95 16.45 L43.8 16.2 Q44.4 15.35 45.25 15.25 L44.4 14.65 43.8 14.4 44.65 14.05 44.4 13.8 44.9 13.2 Q44.75 12.85 45.15 12.6 L44.65 12.2 Q44.55 11.85 45.15 12.0 L44.9 11.75 45.6 11.35 48.5 9.8 47.75 9.2 Q51.0 7.25 52.7 6.8 53.4 5.8 53.9 5.8 L53.65 5.45 54.95 5.3 M42.35 29.5 Q42.0 29.65 42.25 30.15 42.6 31.35 43.1 32.05 L45.5 36.55 Q45.6 35.45 46.35 33.15 L46.95 31.6 Q46.7 30.75 47.3 30.0 L44.9 29.75 42.35 29.5 M11.75 23.1 L12.95 32.55 13.95 38.25 14.3 38.5 15.6 38.5 17.05 38.35 16.95 35.45 Q16.45 34.1 16.2 32.55 L14.15 14.15 11.05 13.8 Q10.95 16.6 11.75 23.1 M37.8 47.2 L39.0 45.75 40.55 44.65 Q40.1 43.7 39.6 43.7 L37.95 40.15 37.7 40.55 Q36.35 43.05 36.35 44.9 L34.55 48.75 34.95 49.0 35.55 48.3 Q36.75 47.45 37.8 47.2 Z" fill="none" stroke="#330000" stroke-linecap="round" stroke-linejoin="round" stroke-width="3.0"/>
    <path d="M103.2 12.2 L102.0 12.85 102.5 13.05 Q101.3 13.3 99.6 14.5 L100.2 15.0 99.5 15.1 Q99.35 15.25 99.5 15.5 L98.9 15.75 Q98.75 15.6 98.65 16.2 L98.9 16.45 98.05 16.95 98.4 17.2 Q97.8 17.05 97.45 17.4 L98.3 17.8 99.15 18.65 Q98.65 18.5 98.3 18.9 L98.75 19.1 99.0 19.6 Q97.95 19.6 96.95 20.8 97.35 20.8 98.05 22.0 L96.5 22.0 Q94.35 21.3 93.35 23.35 L93.35 23.95 93.75 25.55 Q91.7 26.15 89.9 28.2 90.0 28.2 90.5 28.55 L90.15 29.05 90.35 29.3 Q90.0 28.9 90.15 29.5 L90.25 29.75 Q89.55 29.9 87.75 30.6 86.9 30.85 85.35 31.45 L83.9 32.05 Q83.75 32.05 82.95 32.45 82.45 31.95 82.55 31.6 L82.2 31.1 Q81.6 32.3 81.35 33.9 L81.6 34.1 81.15 34.1 78.75 35.1 79.1 35.35 Q78.5 35.7 78.75 35.8 L78.15 36.65 78.25 36.9 Q77.9 36.9 77.75 37.15 L78.35 37.65 Q77.9 37.75 77.55 38.1 L76.75 38.6 77.4 39.3 Q76.95 39.1 76.65 39.45 L76.8 39.7 Q76.35 39.45 76.2 39.8 L76.45 40.05 Q76.2 39.95 76.35 40.3 L76.7 40.9 Q76.2 40.8 75.95 41.15 L76.35 41.25 Q75.35 41.5 74.3 42.0 74.15 41.75 72.6 42.95 L72.75 43.2 72.15 43.45 71.65 43.9 72.5 44.4 Q69.15 45.85 64.2 49.25 L63.5 47.8 61.7 43.7 Q59.4 41.25 60.25 41.5 62.65 38.85 63.75 33.4 L64.35 22.75 64.55 11.25 64.8 3.85 72.85 4.5 71.75 25.65 Q71.4 28.45 71.3 31.6 70.95 33.25 71.3 36.55 71.4 36.3 72.5 35.95 72.6 35.7 73.2 35.35 L73.55 29.9 73.8 28.2 75.25 2.2 84.5 2.9 84.15 7.6 Q82.8 16.35 83.15 20.7 87.0 15.1 89.4 10.15 L89.65 9.3 Q90.75 4.25 91.95 3.15 L92.65 3.25 98.05 4.85 99.35 4.95 Q100.1 4.95 100.55 5.45 L100.7 5.8 Q100.45 6.3 100.55 6.65 99.6 8.85 98.9 11.25 L103.8 11.75 103.45 11.85 103.7 12.2 103.2 12.2 M109.2 12.1 L112.45 12.2 110.75 22.65 109.8 22.5 Q108.25 22.0 107.9 23.25 107.55 23.85 107.05 27.0 L106.2 30.75 104.75 34.1 103.1 38.0 Q102.35 38.95 101.4 41.6 L102.75 43.2 105.0 45.5 107.15 48.15 105.0 50.6 102.95 53.0 100.7 55.65 97.35 52.15 94.7 49.6 94.2 50.1 90.85 53.25 Q88.2 54.95 87.15 55.9 L85.1 52.75 Q83.75 51.4 82.7 49.85 82.35 50.6 82.1 52.75 L81.85 55.65 74.4 55.65 74.75 47.65 Q74.9 44.4 74.4 43.7 75.5 42.1 78.75 41.25 L78.5 41.15 78.85 40.9 79.1 40.55 Q78.85 40.3 78.75 40.4 78.75 40.05 78.95 40.15 L78.75 39.95 Q79.35 39.1 79.95 39.1 L79.35 38.35 80.15 37.85 80.75 37.75 80.3 37.25 Q80.4 37.0 80.65 37.0 L80.55 36.2 81.0 35.95 Q81.25 35.55 81.75 35.45 L81.35 35.35 Q81.35 34.95 81.75 35.1 82.55 34.25 84.0 34.35 L83.55 38.0 Q82.45 44.55 82.7 47.9 L84.95 46.45 Q86.15 45.85 87.25 44.75 90.15 42.35 90.5 40.65 L90.0 39.3 Q89.55 38.5 89.05 36.2 L88.2 32.9 Q87.25 33.5 86.4 34.6 L86.05 34.25 85.35 32.8 Q85.7 32.05 88.8 31.35 L92.55 29.75 92.4 29.5 Q92.4 29.3 92.65 29.3 L92.55 28.9 92.75 28.7 92.3 28.2 Q93.75 26.5 96.25 25.9 96.0 28.45 97.2 31.6 L99.5 24.95 Q99.35 24.1 99.5 23.45 99.5 22.25 99.85 22.25 L100.55 22.15 99.75 20.7 Q99.95 19.95 101.4 19.6 101.05 19.25 101.15 19.1 L100.8 18.9 101.65 18.75 100.1 17.55 Q100.35 17.05 100.95 17.3 100.7 16.8 100.55 17.05 100.7 16.7 101.3 16.7 L101.15 16.2 102.15 15.75 101.9 15.35 Q102.25 15.0 102.75 15.1 L102.25 14.65 Q102.75 13.9 103.45 14.05 L105.15 13.3 104.75 13.05 105.35 12.45 106.2 12.45 106.2 12.1 Q106.95 11.85 109.2 12.1 M52.35 4.95 Q51.05 4.6 50.6 5.3 50.7 5.15 51.15 5.55 47.3 6.9 44.9 8.95 L45.35 9.7 Q43.1 10.55 41.75 11.6 L42.25 11.85 Q41.55 11.75 41.65 12.1 L42.0 13.05 Q41.4 12.95 41.4 13.55 L42.0 14.05 Q41.05 13.9 40.8 14.3 L41.4 14.5 42.15 15.1 41.55 15.35 40.7 15.95 40.95 16.2 40.55 16.7 40.95 17.05 Q40.2 16.95 40.1 17.55 L40.1 16.95 40.2 15.95 40.95 13.05 Q39.35 12.45 36.85 12.35 36.5 13.2 36.75 15.35 36.6 16.8 36.95 18.9 36.85 19.85 37.1 21.05 L35.3 22.0 34.2 22.4 34.8 22.75 Q34.45 22.65 34.45 22.85 L34.8 23.25 Q33.85 23.1 33.6 23.7 33.35 23.7 33.95 24.2 33.25 24.2 32.9 24.45 L31.8 25.9 30.35 26.75 Q29.4 26.4 28.95 27.2 L29.55 27.7 Q28.95 27.35 28.8 27.95 L29.05 28.2 28.2 28.7 28.45 28.9 Q28.1 28.8 28.2 29.05 L28.45 29.4 Q27.85 29.4 27.85 29.9 27.35 29.4 27.6 29.05 L27.75 24.8 27.75 20.95 27.0 12.2 Q25.7 11.6 23.15 11.75 23.05 15.6 23.55 17.65 23.9 22.15 24.6 26.75 24.85 31.35 23.65 34.1 L23.9 34.35 Q22.55 34.75 22.35 35.2 L22.55 35.55 Q21.6 35.95 21.0 36.55 L21.75 37.0 20.9 37.5 21.15 37.75 20.3 38.0 Q19.8 38.0 19.45 38.5 L19.8 38.7 Q19.35 38.6 18.95 38.95 19.2 38.85 19.55 39.2 17.9 38.95 16.2 40.3 L16.35 40.55 15.0 41.15 14.05 42.0 14.15 42.25 Q13.95 42.1 13.8 42.45 L14.05 42.7 Q12.35 42.6 11.75 44.55 L12.0 45.0 Q11.05 44.9 11.05 45.35 L11.3 46.2 Q9.75 46.35 8.65 47.55 L8.75 47.8 Q7.2 47.9 7.1 48.9 4.8 34.6 2.55 18.65 L0.75 7.4 Q0.35 5.3 0.25 3.15 -0.1 2.4 0.0 1.7 L14.9 2.55 15.95 2.65 20.15 2.9 20.15 1.45 19.95 0.0 53.15 2.2 52.55 3.5 Q51.95 3.85 51.85 4.5 51.9 4.4 52.35 4.95 M54.95 5.3 Q52.35 13.2 51.75 19.5 52.95 19.35 53.65 19.85 L56.05 19.95 55.8 30.25 Q54.15 33.65 53.65 39.45 L52.7 41.85 Q51.85 43.45 51.6 44.65 L52.35 45.35 Q55.1 47.45 56.05 48.5 57.85 50.1 58.1 52.05 55.55 53.85 50.9 56.4 L46.35 52.25 Q42.95 54.95 39.75 56.4 L36.35 53.85 33.25 51.8 32.75 52.15 29.65 55.9 27.6 54.35 21.95 49.95 Q22.35 48.65 23.55 48.15 L20.65 47.9 17.9 47.9 Q17.65 48.65 18.15 50.95 L9.95 50.95 9.95 50.35 Q9.75 49.95 10.2 50.1 9.6 49.25 9.75 49.1 9.95 48.05 11.75 47.8 L11.55 47.55 Q11.9 47.2 12.15 47.2 L14.05 45.75 13.8 45.35 14.3 45.15 Q14.65 44.75 15.0 44.75 14.65 44.4 14.4 44.55 15.15 43.2 16.8 42.85 L16.45 42.6 Q16.55 42.25 16.95 42.35 L16.7 42.1 Q16.95 41.75 17.55 41.85 L18.35 41.6 18.15 41.4 Q18.0 41.0 18.75 41.15 L19.35 40.65 19.1 40.4 22.45 39.2 21.85 38.95 Q21.85 38.6 22.55 38.7 L22.35 38.5 Q22.35 38.25 22.8 38.25 23.4 37.65 24.0 37.85 L23.9 37.65 Q23.75 37.4 24.35 37.4 L24.25 37.0 Q24.0 36.9 24.35 36.8 L24.0 36.55 Q24.5 35.8 25.2 35.55 L24.95 35.35 Q25.7 34.85 26.55 34.85 L27.15 34.6 Q26.65 34.1 26.55 34.25 26.75 33.05 27.6 32.65 L27.95 36.4 Q27.95 38.7 28.35 40.15 L29.55 35.45 29.9 33.05 30.15 30.85 Q29.9 29.9 30.5 30.0 L31.45 29.5 31.2 29.3 Q30.95 28.8 31.35 29.05 L31.2 28.8 Q31.7 27.85 32.4 27.7 L32.05 27.2 Q34.55 26.0 37.55 23.35 37.35 23.1 37.2 23.1 37.2 22.75 37.55 22.85 L37.25 22.65 Q38.3 21.65 39.85 21.55 L39.85 22.0 Q39.5 22.4 39.75 23.7 L41.05 24.45 41.75 20.1 Q42.5 17.8 43.7 17.2 L43.2 16.7 Q43.45 16.45 43.95 16.45 L43.8 16.2 Q44.4 15.35 45.25 15.25 L44.4 14.65 43.8 14.4 44.65 14.05 44.4 13.8 44.9 13.2 Q44.75 12.85 45.15 12.6 L44.65 12.2 Q44.55 11.85 45.15 12.0 L44.9 11.75 45.6 11.35 48.5 9.8 47.75 9.2 Q51.0 7.25 52.7 6.8 53.4 5.8 53.9 5.8 L53.65 5.45 54.95 5.3 M42.35 29.5 Q42.0 29.65 42.25 30.15 42.6 31.35 43.1 32.05 L45.5 36.55 Q45.6 35.45 46.35 33.15 L46.95 31.6 Q46.7 30.75 47.3 30.0 L44.9 29.75 42.35 29.5 M11.75 23.1 L12.95 32.55 13.95 38.25 14.3 38.5 15.6 38.5 17.05 38.35 16.95 35.45 Q16.45 34.1 16.2 32.55 L14.15 14.15 11.05 13.8 Q10.95 16.6 11.75 23.1 M37.8 47.2 L39.0 45.75 40.55 44.65 Q40.1 43.7 39.6 43.7 L37.95 40.15 37.7 40.55 Q36.35 43.05 36.35 44.9 L34.55 48.75 34.95 49.0 35.55 48.3 Q36.75 47.45 37.8 47.2" fill="url(#gradient1)" fill-rule="evenodd" stroke="none"/>
  </g>
  <defs>
    <linearGradient gradientTransform="matrix(0.0, 0.0318, -0.0338, 0.0, -279.35, 27.0)" gradientUnits="userSpaceOnUse" id="gradient0" spreadMethod="pad" x1="-819.2" x2="819.2">
      <stop offset="0.0" stop-color="#ffff33"/>
      <stop offset="0.9882352941176471" stop-color="#eca007"/>
    </linearGradient>
    <linearGradient gradientTransform="matrix(0.0, 0.0318, -0.0338, 0.0, -279.35, 27.0)" gradientUnits="userSpaceOnUse" id="gradient1" spreadMethod="pad" x1="-819.2" x2="819.2">
      <stop offset="0.0" stop-color="#ffff33"/>
      <stop offset="0.9882352941176471" stop-color="#eca007"/>
    </linearGradient>
  </defs>
</svg>
