<?xml version="1.0" encoding="UTF-8" standalone="no"?>
<svg xmlns:xlink="http://www.w3.org/1999/xlink" height="59.25px" width="59.2px" xmlns="http://www.w3.org/2000/svg">
  <g transform="matrix(1.0, 0.0, 0.0, 1.0, -2.8, -2.75)">
    <path d="M58.5 32.75 Q58.5 21.95 50.85 14.25 43.2 6.65 32.4 6.65 21.6 6.65 13.9 14.25 6.3 21.95 6.3 32.75 6.3 43.55 13.9 51.2 21.6 58.85 32.4 58.85 43.2 58.85 50.85 51.2 58.5 43.55 58.5 32.75 M61.4 32.35 Q61.4 44.35 52.9 52.85 44.4 61.4 32.4 61.4 20.4 61.4 11.85 52.85 3.4 44.35 3.4 32.35 3.4 20.35 11.85 11.8 20.4 3.35 32.4 3.35 44.4 3.35 52.9 11.8 61.4 20.35 61.4 32.35" fill="#0e1e34" fill-opacity="0.7019608" fill-rule="evenodd" stroke="none"/>
    <path d="M61.4 32.35 Q61.4 44.35 52.9 52.85 44.4 61.4 32.4 61.4 20.4 61.4 11.85 52.85 3.4 44.35 3.4 32.35 3.4 20.35 11.85 11.8 20.4 3.35 32.4 3.35 44.4 3.35 52.9 11.8 61.4 20.35 61.4 32.35 Z" fill="none" stroke="#244d87" stroke-linecap="butt" stroke-linejoin="miter-clip" stroke-miterlimit="3.0" stroke-width="1.2000000000000002"/>
  </g>
</svg>
