<?xml version="1.0" encoding="UTF-8" standalone="no"?>
<svg xmlns:xlink="http://www.w3.org/1999/xlink" height="29.55px" width="61.5px" xmlns="http://www.w3.org/2000/svg">
  <g transform="matrix(1.0, 0.0, 0.0, 1.0, -9.1, -2.45)">
    <path d="M58.65 32.0 L24.8 32.0 17.1 19.35 26.8 22.15 26.7 15.75 32.8 22.05 38.4 16.85 40.7 24.35 46.95 17.15 48.9 24.65 54.55 18.55 55.1 24.45 61.75 19.5 58.65 32.0" fill="#ffffff" fill-rule="evenodd" stroke="none"/>
    <path d="M24.8 32.0 L20.8 32.0 9.1 11.25 20.25 15.6 21.2 4.15 26.3 11.9 28.0 3.65 34.4 17.25 35.2 2.45 40.8 14.7 47.75 4.3 50.4 16.3 57.1 3.75 57.1 17.2 64.55 9.5 64.55 17.7 70.6 15.55 60.65 32.0 58.65 32.0 61.75 19.5 55.1 24.45 54.55 18.55 48.9 24.65 46.95 17.15 40.7 24.35 38.4 16.85 32.8 22.05 26.7 15.75 26.8 22.15 17.1 19.35 24.8 32.0" fill="#d0fff8" fill-rule="evenodd" stroke="none"/>
  </g>
</svg>
