<?xml version="1.0" encoding="UTF-8" standalone="no"?>
<svg xmlns:xlink="http://www.w3.org/1999/xlink" height="41.65px" width="18.0px" xmlns="http://www.w3.org/2000/svg">
  <g transform="matrix(1.0, 0.0, 0.0, 1.0, -21.8, -23.95)">
    <path d="M33.3 46.6 Q33.75 47.9 33.15 49.2 32.1 51.2 32.8 53.15 33.35 54.8 35.15 55.25 L35.75 55.05 35.85 54.85 Q36.05 54.15 35.65 53.35 L34.65 52.25 Q35.85 52.35 36.7 53.15 37.8 54.25 38.0 55.8 38.55 58.55 37.15 61.1 36.05 63.2 33.65 64.1 30.0 65.4 27.2 63.25 L26.6 62.8 Q23.5 60.1 24.35 56.05 24.85 53.35 27.2 51.55 26.6 52.2 26.6 53.05 L26.6 53.25 Q26.6 53.6 26.75 53.95 L26.8 54.15 Q27.15 54.8 28.0 55.25 27.7 51.75 30.8 49.5 32.5 48.3 33.3 46.6" fill="#00cc33" fill-rule="evenodd" stroke="none"/>
    <path d="M33.3 46.6 Q32.5 48.3 30.8 49.5 27.7 51.75 28.0 55.25 27.15 54.8 26.8 54.15 L26.75 53.95 Q26.6 53.6 26.6 53.25 L26.6 53.05 Q26.6 52.2 27.2 51.55 24.85 53.35 24.35 56.05 23.5 60.1 26.6 62.8 L27.2 63.25 Q30.0 65.4 33.65 64.1 36.05 63.2 37.15 61.1 38.55 58.55 38.0 55.8 37.8 54.25 36.7 53.15 35.85 52.35 34.65 52.25 L35.65 53.35 Q36.05 54.15 35.85 54.85 L35.75 55.05 35.15 55.25 Q33.35 54.8 32.8 53.15 32.1 51.2 33.15 49.2 33.75 47.9 33.3 46.6 Z" fill="none" stroke="#002962" stroke-linecap="round" stroke-linejoin="round" stroke-width="2.0"/>
    <path d="M27.2 63.25 L26.55 62.8 Q23.55 60.1 24.35 56.05 24.9 53.35 27.25 51.55 26.55 52.15 26.55 53.05 L26.55 53.25 26.8 53.95 26.8 54.05 Q27.1 54.8 28.0 55.25 27.7 51.75 30.8 49.5 32.5 48.3 33.25 46.6 33.8 47.9 33.1 49.2 32.15 51.2 32.75 53.15 33.4 54.8 35.15 55.25 L35.75 55.05 35.85 54.85 Q36.05 54.05 35.7 53.35 L34.65 52.25 Q35.85 52.35 36.65 53.1 37.85 54.25 38.05 55.8 L36.6 54.5 Q36.8 55.35 36.4 56.05 L36.0 56.5 36.1 56.4 36.05 56.3 Q33.75 56.25 33.05 55.3 L32.7 54.5 32.35 54.2 Q31.8 52.7 31.8 50.9 L31.9 49.7 Q30.65 50.1 29.5 52.55 28.3 55.1 28.65 57.05 L27.25 56.4 Q26.35 55.6 26.1 54.85 L25.8 55.8 25.7 57.6 Q25.7 59.55 26.15 61.0 26.5 62.0 27.2 63.25 M35.85 56.7 L35.15 56.85 34.45 56.7 35.05 56.75 35.85 56.7" fill="#ffe848" fill-rule="evenodd" stroke="none"/>
    <path d="M27.2 63.25 Q26.5 62.0 26.15 61.0 25.7 59.55 25.7 57.6 L25.8 55.8 26.1 54.85 Q26.35 55.6 27.25 56.4 L28.65 57.05 Q28.3 55.1 29.5 52.55 30.65 50.1 31.9 49.7 L31.8 50.9 Q31.8 52.7 32.35 54.2 32.2 54.05 32.05 54.0 L32.9 55.8 Q33.45 56.5 34.45 56.7 L35.15 56.85 35.85 56.7 35.85 56.65 35.95 56.5 36.0 56.5 36.4 56.05 Q36.8 55.35 36.6 54.5 L38.05 55.8 Q38.55 58.55 37.15 61.1 36.05 63.2 33.65 64.1 30.05 65.4 27.2 63.25 M31.15 51.8 Q30.2 53.6 29.9 55.6 29.65 57.2 30.2 58.75 28.6 58.3 27.25 57.1 L26.1 55.75 Q25.5 58.3 26.5 60.9 L26.55 61.0 Q26.55 61.55 27.1 62.1 L28.3 63.2 29.65 63.65 31.15 63.85 Q32.2 63.85 33.2 63.25 L33.4 63.05 35.05 62.05 Q37.35 59.8 36.6 56.7 36.4 57.5 35.6 57.6 32.35 58.2 31.45 55.1 30.9 53.45 31.15 51.8" fill="#ffa800" fill-rule="evenodd" stroke="none"/>
    <path d="M32.35 54.2 L32.7 54.5 33.05 55.3 Q33.75 56.25 36.05 56.3 L36.1 56.4 36.0 56.5 35.95 56.5 35.85 56.65 35.85 56.7 35.05 56.75 34.45 56.7 Q33.45 56.5 32.9 55.8 L32.05 54.0 Q32.2 54.05 32.35 54.2 M26.15 58.55 L26.15 58.3 26.15 58.05 26.4 57.85 26.55 58.3 26.4 58.75 26.15 58.55 M27.45 60.45 L28.5 61.2 30.2 62.0 Q30.75 62.3 30.75 62.75 L30.65 62.95 29.95 63.05 Q28.8 63.05 27.7 62.1 26.55 61.2 26.55 60.55 L26.55 60.5 26.55 60.25 Q26.55 60.0 26.8 60.1 L26.9 60.1 Q27.1 60.1 27.45 60.45" fill="#ffffff" fill-rule="evenodd" stroke="none"/>
    <path d="M31.15 51.8 Q30.9 53.45 31.45 55.1 32.35 58.2 35.6 57.6 36.4 57.5 36.6 56.7 37.35 59.8 35.05 62.05 L33.4 63.05 33.2 63.25 Q32.2 63.85 31.15 63.85 L29.65 63.65 28.3 63.2 27.1 62.1 Q26.55 61.55 26.55 61.0 L26.5 60.9 Q25.5 58.3 26.1 55.75 L27.25 57.1 Q28.6 58.3 30.2 58.75 29.65 57.2 29.9 55.6 30.2 53.6 31.15 51.8 M27.45 60.45 Q27.1 60.1 26.9 60.1 L26.8 60.1 Q26.55 60.0 26.55 60.25 L26.55 60.5 26.55 60.55 Q26.55 61.2 27.7 62.1 28.8 63.05 29.95 63.05 L30.65 62.95 30.75 62.75 Q30.75 62.3 30.2 62.0 L28.5 61.2 27.45 60.45 M26.15 58.55 L26.4 58.75 26.55 58.3 26.4 57.85 26.15 58.05 26.15 58.3 26.15 58.55" fill="#ff5400" fill-rule="evenodd" stroke="none"/>
    <path d="M38.8 24.95 L37.9 30.7 30.3 35.9 33.3 40.95 29.0 36.6 26.25 39.35 26.05 39.55 25.2 40.4 23.1 38.35 26.95 34.55 22.8 30.4 27.7 33.35 32.95 25.8 38.8 24.95" fill="#00cccc" fill-rule="evenodd" stroke="none"/>
    <path d="M38.8 24.95 L37.9 30.7 30.3 35.9 33.3 40.95 29.0 36.6 26.25 39.35 26.05 39.55 25.2 40.4 23.1 38.35 26.95 34.55 22.8 30.4 27.7 33.35 32.95 25.8 38.8 24.95 Z" fill="none" stroke="#002962" stroke-linecap="round" stroke-linejoin="round" stroke-width="2.0"/>
    <path d="M29.9 35.25 L37.2 30.15 37.3 26.35 33.45 26.45 29.2 32.35 28.3 33.65 27.7 33.35 32.95 25.8 38.8 24.95 37.9 30.7 30.3 35.9 29.9 35.25" fill="#ffffff" fill-rule="evenodd" stroke="none"/>
    <path d="M29.2 32.35 L33.45 26.45 37.3 26.35 29.7 33.8 29.5 33.3 29.2 32.35" fill="#d1e0f5" fill-rule="evenodd" stroke="none"/>
    <path d="M37.3 26.35 L37.2 30.15 29.9 35.25 29.4 34.3 28.3 33.65 29.2 32.35 29.5 33.3 29.7 33.8 37.3 26.35" fill="#879cb8" fill-rule="evenodd" stroke="none"/>
    <path d="M26.95 34.55 L22.8 30.4 23.0 30.55 28.7 35.0 33.15 40.8 29.0 36.6 29.05 36.55 26.95 34.55" fill="#914700" fill-rule="evenodd" stroke="none"/>
    <path d="M26.65 39.0 Q28.4 37.05 27.55 36.25 L27.35 36.15 Q26.95 35.95 26.25 36.15 25.4 36.55 24.45 37.5 L23.95 38.1 24.7 38.8 24.65 38.85 24.85 38.95 25.75 39.8 25.2 40.4 23.1 38.35 26.95 34.55 29.05 36.55 29.0 36.6 26.65 39.0" fill="#c66303" fill-rule="evenodd" stroke="none"/>
    <path d="M29.9 35.25 L30.3 35.9 33.3 40.95 33.15 40.8 28.7 35.0 23.0 30.55 27.7 33.35 28.3 33.65 29.4 34.3 29.9 35.25 M25.75 39.8 L24.85 38.95 24.65 38.85 24.7 38.8 23.95 38.1 24.45 37.5 Q25.4 36.55 26.25 36.15 26.95 35.95 27.35 36.15 L27.55 36.25 Q28.4 37.05 26.65 39.0 L26.25 39.35 26.05 39.55 25.75 39.8" fill="#ffb600" fill-rule="evenodd" stroke="none"/>
  </g>
</svg>
