<?xml version="1.0" encoding="UTF-8" standalone="no"?>
<svg xmlns:xlink="http://www.w3.org/1999/xlink" height="120.25px" width="152.95px" xmlns="http://www.w3.org/2000/svg">
  <g transform="matrix(1.0, 0.0, 0.0, 1.0, 6.0, -50.4)">
    <path d="M72.85 52.95 L116.8 77.4 116.8 126.3 72.85 150.05 30.05 126.9 30.05 76.75 72.85 52.95 M40.4 145.2 L46.4 142.2 0.65 116.55 40.4 145.2 M72.55 168.4 L72.65 168.35 98.7 149.55 91.95 146.2 72.7 156.95 53.95 146.45 46.95 149.95 72.55 168.4" fill="none" stroke="#333333" stroke-linecap="butt" stroke-linejoin="miter-clip" stroke-miterlimit="3.0" stroke-width="4.5"/>
    <path d="M144.7 116.5 L143.4 117.3" fill="none" stroke="#333333" stroke-linecap="butt" stroke-linejoin="miter-clip" stroke-miterlimit="3.0" stroke-width="4.5"/>
    <path d="M143.4 117.3 L105.25 144.85 99.5 141.95 143.4 117.3" fill="none" stroke="#333333" stroke-linecap="round" stroke-linejoin="miter-clip" stroke-miterlimit="3.0" stroke-width="4.5"/>
    <path d="M72.95 59.9 L110.6 80.85 110.6 122.75 72.95 143.1 36.25 123.25 36.25 80.3 72.95 59.9" fill="#000000" fill-opacity="0.49803922" fill-rule="evenodd" stroke="none"/>
  </g>
</svg>
