<?xml version="1.0" encoding="UTF-8" standalone="no"?>
<svg xmlns:xlink="http://www.w3.org/1999/xlink" height="83.5px" width="71.05px" xmlns="http://www.w3.org/2000/svg">
  <g transform="matrix(1.0, 0.0, 0.0, 1.0, 0.75, 0.75)">
    <path d="M64.65 6.55 L64.75 7.0 65.1 8.35 65.1 51.7 64.8 52.9 63.65 55.85 63.55 55.9 63.15 56.55 60.5 59.1 Q60.15 59.5 58.5 60.0 L11.7 60.0 Q10.05 59.45 9.6 59.05 L7.0 56.5 6.55 55.9 6.55 55.8 Q5.75 54.5 5.3 52.85 L5.1 51.7 5.1 8.4 5.45 7.0 Q5.6 6.05 6.05 5.25 7.2 2.35 9.8 1.0 L9.85 0.95 Q11.05 0.3 12.55 0.0 L57.55 0.0 Q58.3 0.1 58.95 0.45 59.7 0.55 60.3 0.95 L60.3 1.0 Q62.95 2.35 64.15 5.25 L64.55 6.4 64.65 6.55 M62.25 9.2 L62.2 8.85 62.15 8.4 61.55 6.55 60.7 5.25 60.3 4.8 58.95 3.9 58.25 3.55 57.35 3.3 56.55 3.1 55.45 3.0 54.6 2.95 15.5 2.95 13.65 3.1 12.75 3.3 Q12.3 3.35 11.95 3.55 10.7 4.0 9.8 4.8 L9.5 5.25 Q8.45 6.45 8.05 8.4 L8.0 8.85 7.95 9.2 7.85 9.95 7.8 10.5 7.8 10.75 7.8 49.2 7.85 50.55 8.0 51.4 8.1 51.95 Q8.75 54.75 10.95 55.9 L11.65 56.35 12.5 56.7 15.25 57.0 15.5 57.0 54.6 57.05 54.9 57.05 56.6 56.95 57.7 56.7 58.55 56.35 59.25 56.0 Q61.4 54.75 62.05 51.95 L62.2 51.45 62.25 50.55 62.3 49.3 62.3 10.75 62.3 10.5 62.3 10.35 62.3 9.95 62.3 9.75 62.25 9.2" fill="#d2d9df" fill-rule="evenodd" stroke="none"/>
    <path d="M62.25 9.2 L62.3 9.75 62.3 9.95 62.3 10.35 62.3 10.5 62.3 10.75 62.3 49.3 62.25 50.55 62.2 51.45 62.05 51.95 Q61.4 54.75 59.25 56.0 L58.55 56.35 57.7 56.7 56.6 56.95 54.9 57.05 54.6 57.05 15.5 57.0 15.25 57.0 12.5 56.7 11.65 56.35 10.95 55.9 Q8.75 54.75 8.1 51.95 L8.0 51.4 7.85 50.55 7.8 49.2 7.8 10.75 7.8 10.5 7.85 9.95 7.95 9.2 8.0 8.85 8.05 8.4 Q8.45 6.45 9.5 5.25 L9.8 4.8 Q10.7 4.0 11.95 3.55 12.3 3.35 12.75 3.3 L13.65 3.1 15.5 2.95 54.6 2.95 55.45 3.0 56.55 3.1 57.35 3.3 58.25 3.55 58.95 3.9 60.3 4.8 60.7 5.25 61.55 6.55 62.15 8.4 62.2 8.85 62.25 9.2" fill="#0e1525" fill-rule="evenodd" stroke="none"/>
    <path d="M64.65 6.55 L64.75 7.0 65.1 8.35 65.1 51.7 64.8 52.9 63.65 55.85 63.55 55.9 63.15 56.55 60.5 59.1 Q60.15 59.5 58.5 60.0 L11.7 60.0 Q10.05 59.45 9.6 59.05 L7.0 56.5 6.55 55.9 6.55 55.8 Q5.75 54.5 5.3 52.85 L5.1 51.7 5.1 8.4 5.45 7.0 Q5.6 6.05 6.05 5.25 7.2 2.35 9.8 1.0 L9.85 0.95 Q11.05 0.3 12.55 0.0 L57.55 0.0 Q58.3 0.1 58.95 0.45 59.7 0.55 60.3 0.95 L60.3 1.0 Q62.95 2.35 64.15 5.25 L64.55 6.4 64.65 6.55 M62.25 9.2 L62.3 9.75 62.3 9.95 62.3 10.35 62.3 10.5 62.3 10.75 62.3 49.3 62.25 50.55 62.2 51.45 62.05 51.95 Q61.4 54.75 59.25 56.0 L58.55 56.35 57.7 56.7 56.6 56.95 54.9 57.05 54.6 57.05 15.5 57.0 15.25 57.0 12.5 56.7 11.65 56.35 10.95 55.9 Q8.75 54.75 8.1 51.95 L8.0 51.4 7.85 50.55 7.8 49.2 7.8 10.75 7.8 10.5 7.85 9.95 7.95 9.2 8.0 8.85 8.05 8.4 Q8.45 6.45 9.5 5.25 L9.8 4.8 Q10.7 4.0 11.95 3.55 12.3 3.35 12.75 3.3 L13.65 3.1 15.5 2.95 54.6 2.95 55.45 3.0 56.55 3.1 57.35 3.3 58.25 3.55 58.95 3.9 60.3 4.8 60.7 5.25 61.55 6.55 62.15 8.4 62.2 8.85 62.25 9.2 Z" fill="none" stroke="#1e1e1e" stroke-linecap="round" stroke-linejoin="round" stroke-width="1.5"/>
    <path d="M16.25 3.85 L57.6 3.85 Q17.45 17.9 12.7 56.1 8.75 56.1 8.75 52.5 L8.75 11.2 Q8.75 4.25 16.25 3.85" fill="url(#gradient0)" fill-rule="evenodd" stroke="none"/>
    <path d="M28.15 61.8 L28.15 61.85 15.2 61.85 14.95 61.85 12.1 61.9 10.75 61.9 10.65 61.9 9.45 62.0 8.05 62.3 6.8 62.75 Q6.25 63.05 5.85 63.3 2.85 65.05 1.9 68.95 L1.8 69.7 1.75 69.85 1.65 71.0 1.65 71.05 1.75 72.2 1.8 72.35 1.9 73.1 Q2.85 77.0 5.85 78.75 L6.8 79.3 8.05 79.75 9.45 80.05 10.65 80.15 10.65 80.2 10.75 80.2 12.1 80.2 14.95 80.25 15.2 80.25 28.15 80.25 39.85 80.25 42.7 80.25 46.55 80.25 46.95 80.25 48.8 80.25 49.0 80.25 49.45 80.25 49.95 80.25 55.45 80.25 55.8 80.25 56.45 80.25 59.0 80.2 59.8 80.15 59.8 80.1 60.1 80.05 61.5 79.75 62.75 79.3 63.7 78.75 Q66.7 77.0 67.65 73.1 L67.75 72.35 67.8 72.2 67.9 71.05 67.9 71.0 67.75 69.7 67.65 68.95 Q66.7 65.05 63.7 63.3 L62.75 62.75 61.5 62.3 60.1 62.0 59.8 62.0 59.8 61.9 59.0 61.9 56.45 61.8 55.8 61.8 55.45 61.8 49.45 61.8 48.8 61.8 46.95 61.8 46.55 61.8 42.7 61.8 39.85 61.8 28.15 61.8 M0.05 69.85 L0.05 68.9 0.7 67.05 Q3.0 61.25 7.45 60.05 L62.1 60.05 Q67.25 61.45 69.5 68.9 L69.5 69.85 69.55 69.85 69.5 73.15 Q67.25 80.6 62.1 82.0 L7.45 82.0 Q3.0 80.8 0.7 75.05 L0.05 73.15 0.0 69.85 0.05 69.85" fill="#d2d9df" fill-rule="evenodd" stroke="none"/>
    <path d="M28.15 61.8 L39.85 61.8 42.7 61.8 46.55 61.8 46.95 61.8 48.8 61.8 49.45 61.8 55.45 61.8 55.8 61.8 56.45 61.8 59.0 61.9 59.8 61.9 59.8 62.0 60.1 62.0 61.5 62.3 62.75 62.75 63.7 63.3 Q66.7 65.05 67.65 68.95 L67.75 69.7 67.9 71.0 67.9 71.05 67.8 72.2 67.75 72.35 67.65 73.1 Q66.7 77.0 63.7 78.75 L62.75 79.3 61.5 79.75 60.1 80.05 59.8 80.1 59.8 80.15 59.0 80.2 56.45 80.25 55.8 80.25 55.45 80.25 49.95 80.25 49.45 80.25 49.0 80.25 48.8 80.25 46.95 80.25 46.55 80.25 42.7 80.25 39.85 80.25 28.15 80.25 15.2 80.25 14.95 80.25 12.1 80.2 10.75 80.2 10.65 80.2 10.65 80.15 9.45 80.05 8.05 79.75 6.8 79.3 5.85 78.75 Q2.85 77.0 1.9 73.1 L1.8 72.35 1.75 72.2 1.65 71.05 1.65 71.0 1.75 69.85 1.8 69.7 1.9 68.95 Q2.85 65.05 5.85 63.3 6.25 63.05 6.8 62.75 L8.05 62.3 9.45 62.0 10.65 61.9 10.75 61.9 12.1 61.9 14.95 61.85 15.2 61.85 28.15 61.85 28.15 61.8" fill="#0e1525" fill-rule="evenodd" stroke="none"/>
    <path d="M0.05 69.85 L0.0 69.85 0.05 73.15 0.7 75.05 Q3.0 80.8 7.45 82.0 L62.1 82.0 Q67.25 80.6 69.5 73.15 L69.55 69.85 69.5 69.85 69.5 68.9 Q67.25 61.45 62.1 60.05 L7.45 60.05 Q3.0 61.25 0.7 67.05 L0.05 68.9 0.05 69.85 Z" fill="none" stroke="#1e1e1e" stroke-linecap="round" stroke-linejoin="round" stroke-width="1.5"/>
  </g>
  <defs>
    <linearGradient gradientTransform="matrix(0.0255, 0.0248, 0.0313, -0.0303, 24.0, 4.9)" gradientUnits="userSpaceOnUse" id="gradient0" spreadMethod="pad" x1="-819.2" x2="819.2">
      <stop offset="0.0" stop-color="#ccffff" stop-opacity="0.29803923"/>
      <stop offset="1.0" stop-color="#d6d6d6" stop-opacity="0.0"/>
    </linearGradient>
  </defs>
</svg>
