<?xml version="1.0" encoding="UTF-8" standalone="no"?>
<svg xmlns:xlink="http://www.w3.org/1999/xlink" height="36.75px" width="26.0px" xmlns="http://www.w3.org/2000/svg">
  <g transform="matrix(1.0, 0.0, 0.0, 1.0, 0.0, 0.0)">
    <path d="M26.0 0.0 L26.0 36.75 0.0 36.75 0.0 0.0 26.0 0.0" fill="#cccc00" fill-opacity="0.0" fill-rule="evenodd" stroke="none"/>
    <path d="M17.95 4.35 Q18.75 5.25 18.75 6.05 L18.75 30.95 Q18.75 31.7 18.0 32.6 17.2 33.5 16.5 33.5 L13.95 33.5 Q13.2 33.5 12.45 32.6 11.65 31.7 11.65 30.95 L11.65 17.0 9.05 17.0 Q8.25 17.0 7.5 16.15 6.75 15.25 6.75 14.45 L6.75 11.6 Q6.75 10.85 7.55 9.95 8.35 9.05 9.05 9.05 L11.65 9.05 11.65 6.1 Q11.65 5.2 12.5 4.35 13.3 3.5 14.2 3.5 L16.25 3.5 Q17.1 3.5 17.95 4.35 M17.1 5.25 Q17.65 5.7 17.65 6.05 L17.65 30.95 17.2 31.75 16.5 32.25 13.95 32.25 Q13.7 32.25 13.25 31.7 L12.75 30.95 12.75 15.8 9.05 15.8 Q8.75 15.8 8.35 15.25 7.9 14.75 7.9 14.45 L7.9 11.6 Q7.9 11.35 8.35 10.8 L9.05 10.25 12.75 10.25 12.75 6.1 Q12.75 5.65 13.25 5.25 L14.2 4.75 16.25 4.75 17.1 5.25 M18.15 6.05 Q18.15 5.5 17.5 4.85 16.8 4.2 16.25 4.2 L14.2 4.2 Q13.6 4.2 12.95 4.85 12.3 5.5 12.3 6.1 L12.3 9.75 9.05 9.75 Q8.65 9.75 8.0 10.45 7.35 11.15 7.35 11.6 L7.35 14.45 Q7.35 14.95 8.0 15.65 8.6 16.35 9.05 16.35 L12.3 16.35 12.3 30.95 Q12.3 31.4 12.9 32.1 L13.95 32.8 16.5 32.8 17.55 32.1 Q18.15 31.4 18.15 30.95 L18.15 6.05" fill="#333333" fill-rule="evenodd" stroke="none"/>
    <path d="M18.15 6.05 L18.15 30.95 Q18.15 31.4 17.55 32.1 L16.5 32.8 13.95 32.8 12.9 32.1 Q12.3 31.4 12.3 30.95 L12.3 16.35 9.05 16.35 Q8.6 16.35 8.0 15.65 7.35 14.95 7.35 14.45 L7.35 11.6 Q7.35 11.15 8.0 10.45 8.65 9.75 9.05 9.75 L12.3 9.75 12.3 6.1 Q12.3 5.5 12.95 4.85 13.6 4.2 14.2 4.2 L16.25 4.2 Q16.8 4.2 17.5 4.85 18.15 5.5 18.15 6.05 Z" fill="none" stroke="#333333" stroke-linecap="butt" stroke-linejoin="miter-clip" stroke-miterlimit="3.0" stroke-width="5.0"/>
    <path d="M18.15 6.05 Q18.15 5.5 17.5 4.85 16.8 4.2 16.25 4.2 L14.2 4.2 Q13.6 4.2 12.95 4.85 12.3 5.5 12.3 6.1 L12.3 9.75 9.05 9.75 Q8.65 9.75 8.0 10.45 7.35 11.15 7.35 11.6 L7.35 14.45 Q7.35 14.95 8.0 15.65 8.6 16.35 9.05 16.35 L12.3 16.35 12.3 30.95 Q12.3 31.4 12.9 32.1 L13.95 32.8 16.5 32.8 17.55 32.1 Q18.15 31.4 18.15 30.95 L18.15 6.05 M17.95 4.35 Q18.75 5.25 18.75 6.05 L18.75 30.95 Q18.75 31.7 18.0 32.6 17.2 33.5 16.5 33.5 L13.95 33.5 Q13.2 33.5 12.45 32.6 11.65 31.7 11.65 30.95 L11.65 17.0 9.05 17.0 Q8.25 17.0 7.5 16.15 6.75 15.25 6.75 14.45 L6.75 11.6 Q6.75 10.85 7.55 9.95 8.35 9.05 9.05 9.05 L11.65 9.05 11.65 6.1 Q11.65 5.2 12.5 4.35 13.3 3.5 14.2 3.5 L16.25 3.5 Q17.1 3.5 17.95 4.35 M17.1 5.25 Q17.65 5.7 17.65 6.05 L17.65 30.95 17.2 31.75 16.5 32.25 13.95 32.25 Q13.7 32.25 13.25 31.7 L12.75 30.95 12.75 15.8 9.05 15.8 Q8.75 15.8 8.35 15.25 7.9 14.75 7.9 14.45 L7.9 11.6 Q7.9 11.35 8.35 10.8 L9.05 10.25 12.75 10.25 12.75 6.1 Q12.75 5.65 13.25 5.25 L14.2 4.75 16.25 4.75 17.1 5.25" fill="url(#gradient0)" fill-rule="evenodd" stroke="none"/>
  </g>
  <defs>
    <linearGradient gradientTransform="matrix(0.0, 0.0168, -0.0183, 0.0, 12.75, 18.5)" gradientUnits="userSpaceOnUse" id="gradient0" spreadMethod="pad" x1="-819.2" x2="819.2">
      <stop offset="0.0" stop-color="#ffffff"/>
      <stop offset="1.0" stop-color="#8d949a"/>
    </linearGradient>
  </defs>
</svg>
