<?xml version="1.0" encoding="UTF-8" standalone="no"?>
<svg xmlns:xlink="http://www.w3.org/1999/xlink" height="659.8px" width="1197.9px" xmlns="http://www.w3.org/2000/svg">
  <g transform="matrix(1.0, 0.0, 0.0, 1.0, 0.0, 0.0)">
    <path d="M751.7 653.75 L415.85 653.75 415.85 655.8 209.95 655.8 209.95 560.0 79.6 560.0 79.55 447.95 0.0 447.95 0.0 0.0 1197.9 0.0 1197.9 655.8 1089.75 655.8 1089.75 657.6 1068.8 657.6 1068.8 655.8 1041.6 655.8 1041.6 659.8 751.7 659.8 751.7 653.75 M1050.15 560.25 Q1041.65 568.75 1041.65 580.75 1041.65 592.75 1050.15 601.25 1058.65 609.75 1070.65 609.75 1082.65 609.75 1091.15 601.25 1099.65 592.75 1099.65 580.75 1099.65 568.75 1091.15 560.25 1082.65 551.75 1070.65 551.75 1058.65 551.75 1050.15 560.25" fill="#173c4f" fill-opacity="0.0" fill-rule="evenodd" stroke="none"/>
  </g>
</svg>
