<?xml version="1.0" encoding="UTF-8" standalone="no"?>
<svg xmlns:xlink="http://www.w3.org/1999/xlink" height="36.75px" width="26.0px" xmlns="http://www.w3.org/2000/svg">
  <g transform="matrix(1.0, 0.0, 0.0, 1.0, 0.0, 0.0)">
    <path d="M26.0 0.0 L26.0 36.75 0.0 36.75 0.0 0.0 26.0 0.0" fill="#cccc00" fill-opacity="0.0" fill-rule="evenodd" stroke="none"/>
    <path d="M19.7 4.9 L19.65 4.9 Q20.6 5.65 20.6 6.55 L20.6 28.95 Q20.6 29.65 19.85 30.45 19.1 31.25 18.45 31.25 L16.0 31.25 Q15.35 31.25 14.55 30.45 13.8 29.65 13.8 28.95 L13.8 11.45 6.6 11.45 Q5.9 11.45 5.15 10.7 4.4 9.85 4.4 9.15 L4.4 6.6 Q4.4 5.75 5.2 5.0 6.0 4.25 6.85 4.25 L18.15 4.25 Q18.85 4.25 19.7 4.9 M18.15 5.35 Q18.55 5.35 19.05 5.8 L19.55 6.55 19.55 28.95 19.1 29.65 18.45 30.1 16.0 30.1 15.35 29.65 14.9 28.95 14.9 10.3 6.6 10.3 5.95 9.9 5.5 9.15 5.5 6.6 Q5.5 6.2 5.95 5.8 6.4 5.35 6.85 5.35 L18.15 5.35 M20.0 6.55 Q20.0 6.0 19.4 5.45 18.7 4.9 18.15 4.9 L6.85 4.9 6.3 5.0 Q5.0 5.7 5.0 6.6 L5.0 9.15 Q5.0 9.65 5.55 10.25 6.1 10.8 6.6 10.8 L14.4 10.8 14.4 28.95 Q14.4 29.35 14.95 30.0 L16.0 30.6 18.45 30.6 Q18.85 30.6 19.45 30.0 L20.0 28.95 20.0 6.55" fill="#00ffff" fill-rule="evenodd" stroke="none"/>
    <path d="M19.7 4.9 Q18.85 4.25 18.15 4.25 L6.85 4.25 Q6.0 4.25 5.2 5.0 4.4 5.75 4.4 6.6 L4.4 9.15 Q4.4 9.85 5.15 10.7 5.9 11.45 6.6 11.45 L13.8 11.45 13.8 28.95 Q13.8 29.65 14.55 30.45 15.35 31.25 16.0 31.25 L18.45 31.25 Q19.1 31.25 19.85 30.45 20.6 29.65 20.6 28.95 L20.6 6.55 Q20.6 5.65 19.65 4.9 L19.7 4.9 Z" fill="none" stroke="#333333" stroke-linecap="butt" stroke-linejoin="miter-clip" stroke-miterlimit="3.0" stroke-width="4.0"/>
    <path d="M18.15 5.35 Q18.55 5.35 19.05 5.8 L19.55 6.55 19.55 28.95 19.1 29.65 18.45 30.1 16.0 30.1 15.35 29.65 14.9 28.95 14.9 10.3 6.6 10.3 5.95 9.9 5.5 9.15 5.5 6.6 Q5.5 6.2 5.95 5.8 6.4 5.35 6.85 5.35 L18.15 5.35 M20.0 6.55 Q20.0 6.0 19.4 5.45 18.7 4.9 18.15 4.9 L6.85 4.9 6.3 5.0 Q5.0 5.7 5.0 6.6 L5.0 9.15 Q5.0 9.65 5.55 10.25 6.1 10.8 6.6 10.8 L14.4 10.8 14.4 28.95 Q14.4 29.35 14.95 30.0 L16.0 30.6 18.45 30.6 Q18.85 30.6 19.45 30.0 L20.0 28.95 20.0 6.55 M19.7 4.9 L19.65 4.9 Q20.6 5.65 20.6 6.55 L20.6 28.95 Q20.6 29.65 19.85 30.45 19.1 31.25 18.45 31.25 L16.0 31.25 Q15.35 31.25 14.55 30.45 13.8 29.65 13.8 28.95 L13.8 11.45 6.6 11.45 Q5.9 11.45 5.15 10.7 4.4 9.85 4.4 9.15 L4.4 6.6 Q4.4 5.75 5.2 5.0 6.0 4.25 6.85 4.25 L18.15 4.25 Q18.85 4.25 19.7 4.9" fill="url(#gradient0)" fill-rule="evenodd" stroke="none"/>
  </g>
  <defs>
    <linearGradient gradientTransform="matrix(0.0, 0.0178, -0.0165, 0.0, 12.5, 17.75)" gradientUnits="userSpaceOnUse" id="gradient0" spreadMethod="pad" x1="-819.2" x2="819.2">
      <stop offset="0.0" stop-color="#ffffff"/>
      <stop offset="1.0" stop-color="#8d949a"/>
    </linearGradient>
  </defs>
</svg>
