<?xml version="1.0" encoding="UTF-8" standalone="no"?>
<svg xmlns:xlink="http://www.w3.org/1999/xlink" height="36.75px" width="26.0px" xmlns="http://www.w3.org/2000/svg">
  <g transform="matrix(1.0, 0.0, 0.0, 1.0, 0.0, 0.0)">
    <path d="M26.0 0.0 L26.0 36.75 0.0 36.75 0.0 0.0 26.0 0.0" fill="#cccc00" fill-opacity="0.0" fill-rule="evenodd" stroke="none"/>
    <path d="M21.55 14.95 Q22.2 14.95 23.05 15.7 23.8 16.55 23.8 17.25 L23.8 19.85 Q23.8 20.5 23.05 21.35 22.25 22.1 21.55 22.1 L18.95 22.1 18.95 29.7 Q18.95 30.4 18.15 31.2 17.4 32.0 16.75 32.0 L14.15 32.0 Q13.5 32.0 12.7 31.2 11.95 30.4 11.95 29.7 L11.95 22.1 4.5 22.1 Q3.75 22.1 2.95 21.35 2.2 20.5 2.2 19.8 L2.2 7.35 Q2.2 6.5 3.05 5.75 3.85 5.0 4.7 5.0 L6.75 5.0 Q7.55 5.0 8.4 5.75 9.25 6.5 9.25 7.3 L9.25 14.9 11.95 14.9 11.95 7.35 Q11.95 6.6 12.75 5.8 13.5 5.0 14.15 5.0 L16.75 5.0 Q17.4 5.0 18.15 5.8 18.95 6.6 18.95 7.3 L18.95 14.95 21.55 14.95 M23.2 17.25 Q23.2 16.85 22.6 16.15 21.95 15.55 21.55 15.55 L18.35 15.55 18.35 7.3 17.7 6.25 Q17.15 5.65 16.75 5.65 L14.15 5.65 13.15 6.25 Q12.5 6.95 12.5 7.35 L12.5 15.55 8.65 15.55 8.65 7.3 Q8.65 6.8 7.95 6.2 7.3 5.65 6.75 5.65 L4.7 5.65 Q4.2 5.65 3.45 6.2 2.8 6.8 2.8 7.35 L2.8 19.8 Q2.8 20.25 3.4 20.9 L4.5 21.5 12.5 21.5 12.5 29.7 Q12.5 30.1 13.15 30.75 13.7 31.35 14.15 31.35 L16.75 31.35 Q17.15 31.35 17.7 30.75 L18.35 29.7 18.35 21.5 21.55 21.5 Q21.95 21.5 22.6 20.9 23.2 20.25 23.2 19.85 L23.2 17.25 M22.25 16.5 L22.7 17.25 22.7 19.85 22.25 20.5 21.55 21.0 17.85 21.0 17.85 29.7 17.4 30.4 16.75 30.85 14.15 30.85 Q13.95 30.85 13.5 30.4 L13.0 29.7 13.0 21.0 4.5 21.0 3.75 20.5 Q3.3 20.05 3.3 19.8 L3.3 7.35 Q3.3 6.95 3.8 6.55 4.3 6.1 4.7 6.1 L6.75 6.1 Q7.1 6.1 7.65 6.55 L8.15 7.3 8.15 16.05 13.0 16.05 13.0 7.35 Q13.0 7.1 13.5 6.6 L14.15 6.1 16.75 6.1 17.4 6.6 17.85 7.3 17.85 16.05 21.55 16.05 22.25 16.5" fill="#00ffff" fill-rule="evenodd" stroke="none"/>
    <path d="M21.55 14.95 L18.95 14.95 18.95 7.3 Q18.95 6.6 18.15 5.8 17.4 5.0 16.75 5.0 L14.15 5.0 Q13.5 5.0 12.75 5.8 11.95 6.6 11.95 7.35 L11.95 14.9 9.25 14.9 9.25 7.3 Q9.25 6.5 8.4 5.75 7.55 5.0 6.75 5.0 L4.7 5.0 Q3.85 5.0 3.05 5.75 2.2 6.5 2.2 7.35 L2.2 19.8 Q2.2 20.5 2.95 21.35 3.75 22.1 4.5 22.1 L11.95 22.1 11.95 29.7 Q11.95 30.4 12.7 31.2 13.5 32.0 14.15 32.0 L16.75 32.0 Q17.4 32.0 18.15 31.2 18.95 30.4 18.95 29.7 L18.95 22.1 21.55 22.1 Q22.25 22.1 23.05 21.35 23.8 20.5 23.8 19.85 L23.8 17.25 Q23.8 16.55 23.05 15.7 22.2 14.95 21.55 14.95 Z" fill="none" stroke="#333333" stroke-linecap="butt" stroke-linejoin="miter-clip" stroke-miterlimit="3.0" stroke-width="4.0"/>
    <path d="M21.55 14.95 Q22.2 14.95 23.05 15.7 23.8 16.55 23.8 17.25 L23.8 19.85 Q23.8 20.5 23.05 21.35 22.25 22.1 21.55 22.1 L18.95 22.1 18.95 29.7 Q18.95 30.4 18.15 31.2 17.4 32.0 16.75 32.0 L14.15 32.0 Q13.5 32.0 12.7 31.2 11.95 30.4 11.95 29.7 L11.95 22.1 4.5 22.1 Q3.75 22.1 2.95 21.35 2.2 20.5 2.2 19.8 L2.2 7.35 Q2.2 6.5 3.05 5.75 3.85 5.0 4.7 5.0 L6.75 5.0 Q7.55 5.0 8.4 5.75 9.25 6.5 9.25 7.3 L9.25 14.9 11.95 14.9 11.95 7.35 Q11.95 6.6 12.75 5.8 13.5 5.0 14.15 5.0 L16.75 5.0 Q17.4 5.0 18.15 5.8 18.95 6.6 18.95 7.3 L18.95 14.95 21.55 14.95 M22.25 16.5 L22.7 17.25 22.7 19.85 22.25 20.5 21.55 21.0 17.85 21.0 17.85 29.7 17.4 30.4 16.75 30.85 14.15 30.85 Q13.95 30.85 13.5 30.4 L13.0 29.7 13.0 21.0 4.5 21.0 3.75 20.5 Q3.3 20.05 3.3 19.8 L3.3 7.35 Q3.3 6.95 3.8 6.55 4.3 6.1 4.7 6.1 L6.75 6.1 Q7.1 6.1 7.65 6.55 L8.15 7.3 8.15 16.05 13.0 16.05 13.0 7.35 Q13.0 7.1 13.5 6.6 L14.15 6.1 16.75 6.1 17.4 6.6 17.85 7.3 17.85 16.05 21.55 16.05 22.25 16.5 M23.2 17.25 Q23.2 16.85 22.6 16.15 21.95 15.55 21.55 15.55 L18.35 15.55 18.35 7.3 17.7 6.25 Q17.15 5.65 16.75 5.65 L14.15 5.65 13.15 6.25 Q12.5 6.95 12.5 7.35 L12.5 15.55 8.65 15.55 8.65 7.3 Q8.65 6.8 7.95 6.2 7.3 5.65 6.75 5.65 L4.7 5.65 Q4.2 5.65 3.45 6.2 2.8 6.8 2.8 7.35 L2.8 19.8 Q2.8 20.25 3.4 20.9 L4.5 21.5 12.5 21.5 12.5 29.7 Q12.5 30.1 13.15 30.75 13.7 31.35 14.15 31.35 L16.75 31.35 Q17.15 31.35 17.7 30.75 L18.35 29.7 18.35 21.5 21.55 21.5 Q21.95 21.5 22.6 20.9 23.2 20.25 23.2 19.85 L23.2 17.25" fill="url(#gradient0)" fill-rule="evenodd" stroke="none"/>
  </g>
  <defs>
    <linearGradient gradientTransform="matrix(0.0, 0.0132, -0.0165, 0.0, 13.0, 18.5)" gradientUnits="userSpaceOnUse" id="gradient0" spreadMethod="pad" x1="-819.2" x2="819.2">
      <stop offset="0.0" stop-color="#ffffff"/>
      <stop offset="1.0" stop-color="#8d949a"/>
    </linearGradient>
  </defs>
</svg>
