<?xml version="1.0" encoding="UTF-8" standalone="no"?>
<svg xmlns:xlink="http://www.w3.org/1999/xlink" height="659.8px" width="1197.9px" xmlns="http://www.w3.org/2000/svg">
  <g transform="matrix(1.0, 0.0, 0.0, 1.0, 0.0, 0.0)">
    <path d="M751.7 653.75 L251.65 653.75 251.65 575.75 240.55 575.75 240.55 560.0 79.6 560.0 79.55 447.95 0.0 447.95 0.0 0.0 1197.9 0.0 1197.9 655.8 1089.75 655.8 1089.75 657.6 1068.8 657.6 1068.8 655.8 1041.6 655.8 1041.6 659.8 751.7 659.8 751.7 653.75 M1054.65 642.8 Q1060.65 636.8 1060.65 628.3 1060.65 619.8 1054.65 613.8 1048.65 607.8 1040.15 607.8 1031.65 607.8 1025.65 613.8 1019.65 619.8 1019.65 628.3 1019.65 636.8 1025.65 642.8 1031.65 648.8 1040.15 648.8 1048.65 648.8 1054.65 642.8" fill="#173c4f" fill-opacity="0.0" fill-rule="evenodd" stroke="none"/>
  </g>
</svg>
