<?xml version="1.0" encoding="UTF-8" standalone="no"?>
<svg xmlns:xlink="http://www.w3.org/1999/xlink" height="27.65px" width="27.25px" xmlns="http://www.w3.org/2000/svg">
  <g transform="matrix(1.0, 0.0, 0.0, 1.0, -1.3, -2.5)">
    <path d="M26.45 16.5 L16.55 22.85 Q10.95 20.4 9.85 16.0 L12.75 13.8 13.4 8.35 16.85 5.9 Q17.85 5.6 18.7 6.25 20.55 3.25 22.95 5.25 L23.45 5.75 Q28.25 9.95 27.05 13.3 27.3 15.35 26.45 16.5 Z" fill="none" stroke="#ffffff" stroke-linecap="round" stroke-linejoin="round" stroke-width="2.5"/>
    <path d="M7.7 5.05 Q4.75 7.55 3.05 10.5 L5.9 10.5 5.9 19.95 11.5 19.95 11.5 10.5 14.45 10.5 Q12.3 6.85 8.75 4.25 L7.7 5.05 Z" fill="none" stroke="#ffffff" stroke-linecap="round" stroke-linejoin="round" stroke-width="3.5"/>
    <path d="M10.25 19.95 L10.3 11.8 10.3 9.55 12.1 9.55 10.55 6.95 8.75 4.25 Q12.3 6.85 14.45 10.5 L11.5 10.5 11.5 19.95 10.25 19.95" fill="#3b861d" fill-rule="evenodd" stroke="none"/>
    <path d="M8.75 4.25 L10.55 6.95 12.1 9.55 10.3 9.55 10.3 11.8 10.25 19.95 7.1 19.95 7.1 9.6 5.2 9.6 Q5.35 8.9 6.4 7.35 L6.15 7.85 Q6.15 8.9 7.05 7.8 L7.9 6.4 7.65 6.15 7.15 6.35 8.75 4.25" fill="#74c84e" fill-rule="evenodd" stroke="none"/>
    <path d="M8.75 4.25 Q6.6 6.25 7.7 5.05 L8.75 4.25" fill="#cb2c1b" fill-rule="evenodd" stroke="none"/>
    <path d="M8.75 4.25 L7.15 6.35 6.6 7.0 6.4 7.35 Q5.35 8.9 5.2 9.6 L7.1 9.6 7.1 19.95 5.9 19.95 5.9 10.5 3.05 10.5 Q4.75 7.55 7.7 5.05 6.6 6.25 8.75 4.25" fill="#c7f36c" fill-rule="evenodd" stroke="none"/>
    <path d="M7.15 6.35 L7.65 6.15 7.9 6.4 7.05 7.8 Q6.15 8.9 6.15 7.85 L6.4 7.35 6.6 7.0 7.15 6.35" fill="#ffffff" fill-rule="evenodd" stroke="none"/>
    <path d="M10.25 19.95 L11.5 19.95 11.5 10.5 14.45 10.5 Q12.3 6.85 8.75 4.25 L7.7 5.05 Q4.75 7.55 3.05 10.5 L5.9 10.5 5.9 19.95 7.1 19.95 10.25 19.95 Z" fill="none" stroke="#005909" stroke-linecap="round" stroke-linejoin="round" stroke-width="1.0"/>
    <path d="M23.55 5.65 Q28.3 9.85 27.15 13.2 27.4 15.25 26.55 16.4 L16.6 22.75 Q11.05 20.3 9.9 15.85 L12.8 13.75 13.5 8.3 16.95 5.8 Q17.95 5.45 18.75 6.1 20.6 3.15 23.0 5.15 L23.55 5.65 M21.8 6.55 L21.15 7.8 21.95 8.8 23.75 7.7 Q23.9 8.15 22.1 9.25 22.15 9.85 21.35 10.3 20.3 12.45 23.15 11.55 24.05 10.9 25.65 10.55 L25.4 11.1 Q21.75 12.55 23.4 14.05 L23.05 14.55 Q21.35 13.8 22.6 12.0 19.95 13.05 20.7 10.55 L20.4 10.65 17.9 9.05 Q18.9 12.35 16.8 14.05 18.25 11.95 16.95 9.55 16.85 8.3 17.85 8.15 L20.45 9.3 Q22.75 9.1 17.3 6.5 L14.05 8.65 13.55 14.1 10.7 16.3 Q12.4 20.55 16.65 21.9 L25.7 15.9 Q26.95 15.05 26.5 12.35 26.85 10.35 24.55 7.6 23.6 5.7 21.75 5.0 20.65 4.4 19.3 6.4 L20.85 7.5 21.8 6.55 M24.55 13.4 L25.15 13.1 Q25.8 14.2 25.05 15.5 23.75 16.45 23.75 16.05 25.45 14.8 24.55 13.4 M17.0 16.3 L16.6 15.45 Q19.4 13.8 21.15 15.75 18.65 14.75 17.0 16.3" fill="#001c00" fill-rule="evenodd" stroke="none"/>
    <path d="M24.55 13.4 Q25.45 14.8 23.75 16.05 23.75 16.45 25.05 15.5 25.8 14.2 25.15 13.1 L24.55 13.4 M21.8 6.55 L20.85 7.5 19.3 6.4 Q20.65 4.4 21.75 5.0 23.6 5.7 24.55 7.6 26.85 10.35 26.5 12.35 26.95 15.05 25.7 15.9 L16.65 21.9 Q12.4 20.55 10.7 16.3 L13.55 14.1 14.05 8.65 17.3 6.5 Q22.75 9.1 20.45 9.3 L17.85 8.15 Q16.85 8.3 16.95 9.55 18.25 11.95 16.8 14.05 18.9 12.35 17.9 9.05 L20.4 10.65 20.7 10.55 Q19.95 13.05 22.6 12.0 21.35 13.8 23.05 14.55 L23.4 14.05 Q21.75 12.55 25.4 11.1 L25.65 10.55 Q24.05 10.9 23.15 11.55 20.3 12.45 21.35 10.3 22.15 9.85 22.1 9.25 23.9 8.15 23.75 7.7 L21.95 8.8 21.15 7.8 21.8 6.55 M17.0 16.3 Q18.65 14.75 21.15 15.75 19.4 13.8 16.6 15.45 L17.0 16.3" fill="#004d00" fill-rule="evenodd" stroke="none"/>
    <path d="M12.25 19.9 L12.25 27.25 11.0 28.5 10.15 28.5 10.15 27.35 10.85 27.35 10.85 20.95 8.55 20.95 8.3 21.85 6.9 21.85 7.5 19.45 8.9 19.45 8.85 19.9 12.25 19.9 M10.75 22.25 L9.6 28.05 8.2 28.05 9.4 22.25 10.75 22.25 M13.4 20.95 L13.4 19.7 17.1 19.7 16.5 20.95 16.0 20.95 16.0 27.3 17.1 27.3 16.55 28.5 13.4 28.5 13.4 27.3 14.4 27.3 14.4 20.95 13.4 20.95 M6.3 19.55 L6.3 20.6 7.05 20.6 6.55 21.7 6.3 21.7 6.3 22.75 7.0 22.75 6.3 24.0 6.3 28.1 4.95 28.65 4.95 26.15 4.75 26.55 3.3 26.55 4.95 23.75 4.95 21.7 4.6 21.7 4.55 23.0 3.2 23.0 3.55 19.9 4.85 19.9 4.75 20.6 4.95 20.6 4.95 19.55 6.3 19.55 M6.5 28.05 L7.8 22.25 9.1 22.25 7.85 28.05 6.5 28.05 M19.15 19.9 L22.25 19.9 21.7 21.1 18.75 21.1 18.5 21.85 16.95 21.85 17.65 19.6 19.25 19.6 19.15 19.9 M17.2 22.35 L18.85 22.35 19.55 23.65 20.4 21.75 22.0 21.75 20.4 25.25 22.15 28.5 20.45 28.5 19.65 26.95 18.9 28.5 17.3 28.5 18.75 25.35 17.2 22.35" fill="#ffff00" fill-rule="evenodd" stroke="none"/>
    <path d="M12.25 19.9 L12.25 27.25 11.0 28.5 10.15 28.5 10.15 27.35 10.85 27.35 10.85 20.95 8.55 20.95 8.3 21.85 6.9 21.85 7.5 19.45 8.9 19.45 8.85 19.9 12.25 19.9 M10.75 22.25 L9.6 28.05 8.2 28.05 9.4 22.25 10.75 22.25 M13.4 20.95 L13.4 19.7 17.1 19.7 16.5 20.95 16.0 20.95 16.0 27.3 17.1 27.3 16.55 28.5 13.4 28.5 13.4 27.3 14.4 27.3 14.4 20.95 13.4 20.95 M6.3 19.55 L6.3 20.6 7.05 20.6 6.55 21.7 6.3 21.7 6.3 22.75 7.0 22.75 6.3 24.0 6.3 28.1 4.95 28.65 4.95 26.15 4.75 26.55 3.3 26.55 4.95 23.75 4.95 21.7 4.6 21.7 4.55 23.0 3.2 23.0 3.55 19.9 4.85 19.9 4.75 20.6 4.95 20.6 4.95 19.55 6.3 19.55 M6.5 28.05 L7.8 22.25 9.1 22.25 7.85 28.05 6.5 28.05 M19.15 19.9 L22.25 19.9 21.7 21.1 18.75 21.1 18.5 21.85 16.95 21.85 17.65 19.6 19.25 19.6 19.15 19.9 M17.2 22.35 L18.85 22.35 19.55 23.65 20.4 21.75 22.0 21.75 20.4 25.25 22.15 28.5 20.45 28.5 19.65 26.95 18.9 28.5 17.3 28.5 18.75 25.35 17.2 22.35 Z" fill="none" stroke="#660000" stroke-linecap="round" stroke-linejoin="round" stroke-width="3.0"/>
    <path d="M21.6 20.45 L18.7 20.45 18.45 21.25 16.85 21.25 17.55 18.95 19.2 18.95 19.05 19.3 22.2 19.3 21.6 20.45 M20.35 24.6 L22.05 27.85 20.4 27.85 19.55 26.3 18.85 27.85 17.25 27.85 18.7 24.7 17.1 21.75 18.75 21.75 19.45 23.0 20.35 21.1 21.95 21.1 20.35 24.6 M4.75 19.25 L4.65 19.95 4.85 19.95 4.85 18.9 6.25 18.9 6.25 19.95 7.0 19.95 6.5 21.05 6.25 21.05 6.25 22.1 6.95 22.1 6.25 23.35 6.25 27.45 4.85 28.0 4.85 25.55 4.65 25.9 3.2 25.9 4.85 23.15 4.85 21.05 4.55 21.05 4.45 22.35 3.15 22.35 3.45 19.25 4.75 19.25 M8.75 19.25 L12.15 19.25 12.15 26.6 10.9 27.85 10.1 27.85 10.1 26.75 10.8 26.75 10.8 20.3 8.45 20.3 8.2 21.25 6.8 21.25 7.45 18.85 8.85 18.85 8.75 19.25 M9.0 21.6 L7.75 27.4 6.45 27.4 7.75 21.6 9.0 21.6 M13.3 20.3 L13.3 19.1 17.05 19.1 16.4 20.3 15.9 20.3 15.9 26.7 17.05 26.7 16.5 27.85 13.3 27.85 13.3 26.7 14.3 26.7 14.3 20.3 13.3 20.3 M10.65 21.6 L9.5 27.4 8.15 27.4 9.35 21.6 10.65 21.6" fill="#ffff00" fill-rule="evenodd" stroke="none"/>
  </g>
</svg>
