<?xml version="1.0" encoding="UTF-8" standalone="no"?>
<svg xmlns:xlink="http://www.w3.org/1999/xlink" height="34.55px" width="162.1px" xmlns="http://www.w3.org/2000/svg">
  <g transform="matrix(1.0, 0.0, 0.0, 1.0, 79.0, 15.0)">
    <path d="M-76.0 -10.6 L-64.9 -10.6 -64.9 -12.0 -60.65 -12.0 -60.65 -10.6 -49.3 -10.6 -49.3 -6.05 -53.4 -6.05 -53.4 -7.45 -71.9 -7.45 -71.9 -6.05 -76.0 -6.05 -76.0 -10.6 M-64.9 1.7 L-74.95 1.7 -74.95 -1.35 -64.9 -1.35 -64.9 -2.3 -75.3 -2.3 -75.3 -5.45 -64.9 -5.45 -64.9 -6.85 -60.65 -6.85 -60.65 -5.45 -50.25 -5.45 -50.25 -2.3 -60.65 -2.3 -60.65 -1.35 -50.7 -1.35 -50.7 1.7 -60.65 1.7 -64.9 1.7 M-46.0 1.7 L-46.0 -10.75 -42.25 -10.75 -42.25 -7.6 -41.2 -7.6 -41.2 -12.0 -37.3 -12.0 -37.3 -7.6 -35.9 -7.6 -35.9 -4.05 -37.3 -4.05 -37.3 1.7 -41.2 1.7 -41.2 -4.05 -42.25 -4.05 -42.25 1.7 -46.0 1.7 M-35.0 1.7 L-35.0 -9.45 -30.7 -9.45 -29.8 -11.75 -25.25 -11.75 -26.15 -9.45 -20.0 -9.45 -20.0 1.7 -35.0 1.7 M-31.0 -5.95 L-31.0 0.75 -24.1 0.75 -24.1 -5.95 -31.0 -5.95 M-16.75 1.7 L-16.75 0.0 -10.3 0.0 -9.1 -4.95 -15.9 -4.95 -15.9 -7.95 4.6 -7.95 4.6 -4.95 -5.55 -4.95 -6.8 0.0 5.45 0.0 5.45 1.7 -16.75 1.7 M8.6 -7.3 L12.1 -7.3 12.7 -5.25 Q12.9 -4.5 13.5 -4.5 L14.85 -4.5 14.85 -1.55 11.85 -1.55 Q10.2 -1.55 9.8 -3.2 L8.6 -7.3 M15.7 1.7 L15.7 1.6 21.3 1.6 21.3 -2.55 16.15 -2.55 16.15 -5.65 21.3 -5.65 21.3 -8.2 24.95 -8.2 24.95 -5.65 30.1 -5.65 30.1 -2.55 24.95 -2.55 24.95 1.6 30.6 1.6 30.6 1.7 15.7 1.7 M9.35 1.7 L8.7 -0.4 12.2 -0.4 12.8 1.65 12.85 1.7 9.35 1.7 M33.0 1.7 L33.0 1.5 34.3 1.5 Q35.1 1.5 35.5 0.5 L36.35 -1.65 35.85 -1.6 33.25 -1.6 33.25 -4.75 34.4 -4.75 Q35.05 -4.75 35.35 -5.6 L36.35 -8.35 40.25 -8.35 38.1 -3.3 37.8 -2.7 40.65 -2.7 38.75 1.7 33.0 1.7 M50.2 1.7 L50.2 0.5 41.25 0.5 41.25 -2.45 55.35 -2.45 55.35 0.5 53.9 0.5 53.9 1.7 50.2 1.7 M41.65 -5.05 L41.65 -7.85 55.2 -7.85 55.2 -5.05 41.65 -5.05 M58.6 -7.1 L68.1 -7.1 68.1 -3.85 58.6 -3.85 58.6 -7.1 M71.0 1.7 L71.3 -3.4 69.15 -3.4 69.15 -6.4 71.45 -6.4 71.6 -8.3 75.05 -8.3 74.9 -6.4 80.1 -6.4 80.1 1.7 76.75 1.7 76.75 -3.4 74.65 -3.4 74.3 1.7 71.0 1.7 M58.1 1.7 L58.1 -0.95 68.6 -0.95 68.6 1.7 58.1 1.7" fill="#ffff66" fill-rule="evenodd" stroke="none"/>
    <path d="M-60.65 1.7 L-60.65 2.65 -49.75 2.65 -49.75 5.8 -60.65 5.8 -60.65 6.4 -64.9 6.4 -64.9 5.8 -75.75 5.8 -75.75 2.65 -64.9 2.65 -64.9 1.7 -60.65 1.7 M-37.3 1.7 L-37.3 14.9 -41.2 14.9 -41.2 1.7 -37.3 1.7 M-42.25 1.7 L-42.25 13.05 -46.0 13.05 -46.0 1.7 -42.25 1.7 M-20.0 1.7 L-20.0 12.15 Q-20.0 14.7 -23.05 14.7 L-35.0 14.7 -35.0 1.7 -20.0 1.7 M5.45 1.7 L5.45 3.15 -7.6 3.15 -9.8 11.85 Q-10.3 14.1 -11.6 14.1 L-16.75 14.1 -16.75 11.15 -13.45 11.15 Q-13.1 11.15 -12.9 10.4 L-11.05 3.15 -16.75 3.15 -16.75 1.7 5.45 1.7 M30.6 1.7 L30.6 4.7 24.05 4.7 20.5 10.9 26.0 10.9 Q26.6 10.9 26.6 10.4 L26.6 7.25 30.0 7.25 30.0 11.45 Q30.0 13.8 27.45 13.8 L16.25 13.8 16.25 11.15 19.8 4.7 15.7 4.7 15.7 1.7 30.6 1.7 M12.85 1.7 Q13.0 2.5 13.6 2.5 L15.15 2.5 15.15 5.4 11.95 5.4 Q10.3 5.4 9.9 3.7 L9.35 1.7 12.85 1.7 M38.75 1.7 L38.2 3.0 38.2 14.0 34.65 14.0 34.65 4.65 33.0 4.65 33.0 1.7 38.75 1.7 M50.2 1.7 L53.9 1.7 53.9 11.15 Q53.9 14.0 50.4 14.0 L43.85 14.0 43.85 10.95 49.55 10.95 Q50.2 10.95 50.2 10.4 L50.2 1.7 M80.1 1.7 L80.1 11.35 Q80.1 13.9 77.15 13.9 L74.55 13.9 74.55 11.05 76.1 11.05 Q76.75 11.05 76.75 10.45 L76.75 1.7 80.1 1.7 M74.3 1.7 L73.7 10.4 Q73.45 14.1 72.15 14.1 L68.95 14.1 68.95 11.35 69.9 11.35 Q70.45 11.35 70.5 8.75 L71.0 1.7 74.3 1.7 M68.6 1.7 L68.6 2.25 63.7 2.25 61.7 10.95 64.35 10.95 Q64.95 10.95 64.95 10.45 L64.95 7.65 68.1 7.65 68.1 11.65 Q68.1 12.35 67.4 13.05 66.6 13.9 65.45 13.9 L58.35 13.9 58.35 11.75 58.55 10.2 60.3 2.25 58.1 2.25 58.1 1.7 68.6 1.7 M11.45 6.7 L14.95 6.7 13.7 12.1 Q13.2 14.0 11.35 14.0 L8.7 14.0 8.7 11.05 10.15 11.05 Q10.5 11.05 10.7 10.35 L11.45 6.7 M5.6 14.15 L-2.35 14.15 Q-4.5 14.15 -4.5 12.45 L-4.5 4.55 -0.9 4.55 -0.9 10.8 Q-0.9 11.25 -0.15 11.25 L5.6 11.25 5.6 14.15 M-24.1 4.25 L-31.0 4.25 -31.0 11.15 -25.05 11.15 Q-24.1 11.15 -24.1 10.35 L-24.1 4.25 M-54.65 10.15 L-70.95 10.15 -70.95 11.65 -55.75 11.65 Q-54.65 11.65 -54.65 10.95 L-54.65 10.15 M-50.5 12.45 Q-50.5 14.85 -53.65 14.85 L-75.05 14.85 -75.05 7.0 -50.5 7.0 -50.5 12.45" fill="#ffcc33" fill-rule="evenodd" stroke="none"/>
    <path d="M-76.0 -10.6 L-64.9 -10.6 -64.9 -12.0 -60.65 -12.0 -60.65 -10.6 -49.3 -10.6 -49.3 -6.05 -53.4 -6.05 -53.4 -7.45 -71.9 -7.45 -71.9 -6.05 -76.0 -6.05 -76.0 -10.6 M-31.0 -5.95 L-31.0 0.75 -24.1 0.75 -24.1 -5.95 -31.0 -5.95 M8.6 -7.3 L12.1 -7.3 12.7 -5.25 Q12.9 -4.5 13.5 -4.5 L14.85 -4.5 14.85 -1.55 11.85 -1.55 Q10.2 -1.55 9.8 -3.2 L8.6 -7.3 M41.65 -5.05 L41.65 -7.85 55.2 -7.85 55.2 -5.05 41.65 -5.05 M58.6 -7.1 L68.1 -7.1 68.1 -3.85 58.6 -3.85 58.6 -7.1 M11.45 6.7 L14.95 6.7 13.7 12.1 Q13.2 14.0 11.35 14.0 L8.7 14.0 8.7 11.05 10.15 11.05 Q10.5 11.05 10.7 10.35 L11.45 6.7 M5.6 14.15 L-2.35 14.15 Q-4.5 14.15 -4.5 12.45 L-4.5 4.55 -0.9 4.55 -0.9 10.8 Q-0.9 11.25 -0.15 11.25 L5.6 11.25 5.6 14.15 M-24.1 4.25 L-31.0 4.25 -31.0 11.15 -25.05 11.15 Q-24.1 11.15 -24.1 10.35 L-24.1 4.25 M-54.65 10.15 L-70.95 10.15 -70.95 11.65 -55.75 11.65 Q-54.65 11.65 -54.65 10.95 L-54.65 10.15 M-50.5 12.45 Q-50.5 14.85 -53.65 14.85 L-75.05 14.85 -75.05 7.0 -50.5 7.0 -50.5 12.45" fill="none" stroke="#ffffff" stroke-linecap="butt" stroke-linejoin="miter-clip" stroke-miterlimit="3.0" stroke-width="6.0"/>
    <path d="M-64.9 1.7 L-74.95 1.7 -74.95 -1.35 -64.9 -1.35 -64.9 -2.3 -75.3 -2.3 -75.3 -5.45 -64.9 -5.45 -64.9 -6.85 -60.65 -6.85 -60.65 -5.45 -50.25 -5.45 -50.25 -2.3 -60.65 -2.3 -60.65 -1.35 -50.7 -1.35 -50.7 1.7 -60.65 1.7 -60.65 2.65 -49.75 2.65 -49.75 5.8 -60.65 5.8 -60.65 6.4 -64.9 6.4 -64.9 5.8 -75.75 5.8 -75.75 2.65 -64.9 2.65 -64.9 1.7 -60.65 1.7 M-46.0 1.7 L-46.0 -10.75 -42.25 -10.75 -42.25 -7.6 -41.2 -7.6 -41.2 -12.0 -37.3 -12.0 -37.3 -7.6 -35.9 -7.6 -35.9 -4.05 -37.3 -4.05 -37.3 1.7 -37.3 14.9 -41.2 14.9 -41.2 1.7 -41.2 -4.05 -42.25 -4.05 -42.25 1.7 -42.25 13.05 -46.0 13.05 -46.0 1.7 -42.25 1.7 M-35.0 1.7 L-35.0 -9.45 -30.7 -9.45 -29.8 -11.75 -25.25 -11.75 -26.15 -9.45 -20.0 -9.45 -20.0 1.7 -20.0 12.15 Q-20.0 14.7 -23.05 14.7 L-35.0 14.7 -35.0 1.7 -20.0 1.7 M-16.75 1.7 L-16.75 0.0 -10.3 0.0 -9.1 -4.95 -15.9 -4.95 -15.9 -7.95 4.6 -7.95 4.6 -4.95 -5.55 -4.95 -6.8 0.0 5.45 0.0 5.45 1.7 5.45 3.15 -7.6 3.15 -9.8 11.85 Q-10.3 14.1 -11.6 14.1 L-16.75 14.1 -16.75 11.15 -13.45 11.15 Q-13.1 11.15 -12.9 10.4 L-11.05 3.15 -16.75 3.15 -16.75 1.7 5.45 1.7 M15.7 1.7 L15.7 1.6 21.3 1.6 21.3 -2.55 16.15 -2.55 16.15 -5.65 21.3 -5.65 21.3 -8.2 24.95 -8.2 24.95 -5.65 30.1 -5.65 30.1 -2.55 24.95 -2.55 24.95 1.6 30.6 1.6 30.6 1.7 30.6 4.7 24.05 4.7 20.5 10.9 26.0 10.9 Q26.6 10.9 26.6 10.4 L26.6 7.25 30.0 7.25 30.0 11.45 Q30.0 13.8 27.45 13.8 L16.25 13.8 16.25 11.15 19.8 4.7 15.7 4.7 15.7 1.7 30.6 1.7 M9.35 1.7 L8.7 -0.4 12.2 -0.4 12.8 1.65 12.85 1.7 Q13.0 2.5 13.6 2.5 L15.15 2.5 15.15 5.4 11.95 5.4 Q10.3 5.4 9.9 3.7 L9.35 1.7 12.85 1.7 M33.0 1.7 L33.0 1.5 34.3 1.5 Q35.1 1.5 35.5 0.5 L36.35 -1.65 35.85 -1.6 33.25 -1.6 33.25 -4.75 34.4 -4.75 Q35.05 -4.75 35.35 -5.6 L36.35 -8.35 40.25 -8.35 38.1 -3.3 37.8 -2.7 40.65 -2.7 38.75 1.7 38.2 3.0 38.2 14.0 34.65 14.0 34.65 4.65 33.0 4.65 33.0 1.7 38.75 1.7 M53.9 1.7 L53.9 0.5 55.35 0.5 55.35 -2.45 41.25 -2.45 41.25 0.5 50.2 0.5 50.2 1.7 53.9 1.7 53.9 11.15 Q53.9 14.0 50.4 14.0 L43.85 14.0 43.85 10.95 49.55 10.95 Q50.2 10.95 50.2 10.4 L50.2 1.7 M71.0 1.7 L71.3 -3.4 69.15 -3.4 69.15 -6.4 71.45 -6.4 71.6 -8.3 75.05 -8.3 74.9 -6.4 80.1 -6.4 80.1 1.7 80.1 11.35 Q80.1 13.9 77.15 13.9 L74.55 13.9 74.55 11.05 76.1 11.05 Q76.75 11.05 76.75 10.45 L76.75 1.7 76.75 -3.4 74.65 -3.4 74.3 1.7 73.7 10.4 Q73.45 14.1 72.15 14.1 L68.95 14.1 68.95 11.35 69.9 11.35 Q70.45 11.35 70.5 8.75 L71.0 1.7 74.3 1.7 M58.1 1.7 L58.1 -0.95 68.6 -0.95 68.6 1.7 68.6 2.25 63.7 2.25 61.7 10.95 64.35 10.95 Q64.95 10.95 64.95 10.45 L64.95 7.65 68.1 7.65 68.1 11.65 Q68.1 12.35 67.4 13.05 66.6 13.9 65.45 13.9 L58.35 13.9 58.35 11.75 58.55 10.2 60.3 2.25 58.1 2.25 58.1 1.7 68.6 1.7 M80.1 1.7 L76.75 1.7 M-37.3 1.7 L-41.2 1.7" fill="none" stroke="#ffffff" stroke-linecap="round" stroke-linejoin="miter-clip" stroke-miterlimit="3.0" stroke-width="6.0"/>
    <path d="M-71.9 -6.05 L-76.0 -6.05 -76.0 -10.6 -64.9 -10.6 -64.9 -12.0 -60.65 -12.0 -60.65 -10.6 -49.3 -10.6 -49.3 -6.05 -53.4 -6.05 -53.4 -7.45 -71.9 -7.45 -71.9 -6.05 M-64.9 1.7 L-74.95 1.7 -74.95 -1.35 -64.9 -1.35 -64.9 -2.3 -75.3 -2.3 -75.3 -5.45 -64.9 -5.45 -64.9 -6.85 -60.65 -6.85 -60.65 -5.45 -50.25 -5.45 -50.25 -2.3 -60.65 -2.3 -60.65 -1.35 -50.7 -1.35 -50.7 1.7 -60.65 1.7 -64.9 1.7 M-46.0 1.7 L-46.0 -10.75 -42.25 -10.75 -42.25 -7.6 -41.2 -7.6 -41.2 -12.0 -37.3 -12.0 -37.3 -7.6 -35.9 -7.6 -35.9 -4.05 -37.3 -4.05 -37.3 1.7 -41.2 1.7 -41.2 -4.05 -42.25 -4.05 -42.25 1.7 -46.0 1.7 M-35.0 1.7 L-35.0 -9.45 -30.7 -9.45 -29.8 -11.75 -25.25 -11.75 -26.15 -9.45 -20.0 -9.45 -20.0 1.7 -35.0 1.7 M-31.0 -5.95 L-31.0 0.75 -24.1 0.75 -24.1 -5.95 -31.0 -5.95 M-16.75 1.7 L-16.75 0.0 -10.3 0.0 -9.1 -4.95 -15.9 -4.95 -15.9 -7.95 4.6 -7.95 4.6 -4.95 -5.55 -4.95 -6.8 0.0 5.45 0.0 5.45 1.7 -16.75 1.7 M8.6 -7.3 L12.1 -7.3 12.7 -5.25 Q12.9 -4.5 13.5 -4.5 L14.85 -4.5 14.85 -1.55 11.85 -1.55 Q10.2 -1.55 9.8 -3.2 L8.6 -7.3 M15.7 1.7 L15.7 1.6 21.3 1.6 21.3 -2.55 16.15 -2.55 16.15 -5.65 21.3 -5.65 21.3 -8.2 24.95 -8.2 24.95 -5.65 30.1 -5.65 30.1 -2.55 24.95 -2.55 24.95 1.6 30.6 1.6 30.6 1.7 15.7 1.7 M9.35 1.7 L8.7 -0.4 12.2 -0.4 12.8 1.65 12.85 1.7 9.35 1.7 M33.0 1.7 L33.0 1.5 34.3 1.5 Q35.1 1.5 35.5 0.5 L36.35 -1.65 35.85 -1.6 33.25 -1.6 33.25 -4.75 34.4 -4.75 Q35.05 -4.75 35.35 -5.6 L36.35 -8.35 40.25 -8.35 38.1 -3.3 37.8 -2.7 40.65 -2.7 38.75 1.7 33.0 1.7 M50.2 1.7 L50.2 0.5 41.25 0.5 41.25 -2.45 55.35 -2.45 55.35 0.5 53.9 0.5 53.9 1.7 50.2 1.7 M41.65 -5.05 L41.65 -7.85 55.2 -7.85 55.2 -5.05 41.65 -5.05 M58.6 -7.1 L68.1 -7.1 68.1 -3.85 58.6 -3.85 58.6 -7.1 M71.0 1.7 L71.3 -3.4 69.15 -3.4 69.15 -6.4 71.45 -6.4 71.6 -8.3 75.05 -8.3 74.9 -6.4 80.1 -6.4 80.1 1.7 76.75 1.7 76.75 -3.4 74.65 -3.4 74.3 1.7 71.0 1.7 M58.1 1.7 L58.1 -0.95 68.6 -0.95 68.6 1.7 58.1 1.7" fill="#ffff66" fill-rule="evenodd" stroke="none"/>
    <path d="M-60.65 1.7 L-60.65 2.65 -49.75 2.65 -49.75 5.8 -60.65 5.8 -60.65 6.4 -64.9 6.4 -64.9 5.8 -75.75 5.8 -75.75 2.65 -64.9 2.65 -64.9 1.7 -60.65 1.7 M-37.3 1.7 L-37.3 14.9 -41.2 14.9 -41.2 1.7 -37.3 1.7 M-42.25 1.7 L-42.25 13.05 -46.0 13.05 -46.0 1.7 -42.25 1.7 M-20.0 1.7 L-20.0 12.15 Q-20.0 14.7 -23.05 14.7 L-35.0 14.7 -35.0 1.7 -20.0 1.7 M5.45 1.7 L5.45 3.15 -7.6 3.15 -9.8 11.85 Q-10.3 14.1 -11.6 14.1 L-16.75 14.1 -16.75 11.15 -13.45 11.15 Q-13.1 11.15 -12.9 10.4 L-11.05 3.15 -16.75 3.15 -16.75 1.7 5.45 1.7 M30.6 1.7 L30.6 4.7 24.05 4.7 20.5 10.9 26.0 10.9 Q26.6 10.9 26.6 10.4 L26.6 7.25 30.0 7.25 30.0 11.45 Q30.0 13.8 27.45 13.8 L16.25 13.8 16.25 11.15 19.8 4.7 15.7 4.7 15.7 1.7 30.6 1.7 M12.85 1.7 Q13.0 2.5 13.6 2.5 L15.15 2.5 15.15 5.4 11.95 5.4 Q10.3 5.4 9.9 3.7 L9.35 1.7 12.85 1.7 M38.75 1.7 L38.2 3.0 38.2 14.0 34.65 14.0 34.65 4.65 33.0 4.65 33.0 1.7 38.75 1.7 M53.9 1.7 L53.9 11.15 Q53.9 14.0 50.4 14.0 L43.85 14.0 43.85 10.95 49.55 10.95 Q50.2 10.95 50.2 10.4 L50.2 1.7 53.9 1.7 M80.1 1.7 L80.1 11.35 Q80.1 13.9 77.15 13.9 L74.55 13.9 74.55 11.05 76.1 11.05 Q76.75 11.05 76.75 10.45 L76.75 1.7 80.1 1.7 M74.3 1.7 L73.7 10.4 Q73.45 14.1 72.15 14.1 L68.95 14.1 68.95 11.35 69.9 11.35 Q70.45 11.35 70.5 8.75 L71.0 1.7 74.3 1.7 M68.6 1.7 L68.6 2.25 63.7 2.25 61.7 10.95 64.35 10.95 Q64.95 10.95 64.95 10.45 L64.95 7.65 68.1 7.65 68.1 11.65 Q68.1 12.35 67.4 13.05 66.6 13.9 65.45 13.9 L58.35 13.9 58.35 11.75 58.55 10.2 60.3 2.25 58.1 2.25 58.1 1.7 68.6 1.7 M11.45 6.7 L14.95 6.7 13.7 12.1 Q13.2 14.0 11.35 14.0 L8.7 14.0 8.7 11.05 10.15 11.05 Q10.5 11.05 10.7 10.35 L11.45 6.7 M5.6 14.15 L-2.35 14.15 Q-4.5 14.15 -4.5 12.45 L-4.5 4.55 -0.9 4.55 -0.9 10.8 Q-0.9 11.25 -0.15 11.25 L5.6 11.25 5.6 14.15 M-24.1 4.25 L-31.0 4.25 -31.0 11.15 -25.05 11.15 Q-24.1 11.15 -24.1 10.35 L-24.1 4.25 M-54.65 10.15 L-70.95 10.15 -70.95 11.65 -55.75 11.65 Q-54.65 11.65 -54.65 10.95 L-54.65 10.15 M-50.5 12.45 Q-50.5 14.85 -53.65 14.85 L-75.05 14.85 -75.05 7.0 -50.5 7.0 -50.5 12.45" fill="#ffcc33" fill-rule="evenodd" stroke="none"/>
    <path d="M-71.9 -6.05 L-76.0 -6.05 -76.0 -10.6 -64.9 -10.6 -64.9 -12.0 -60.65 -12.0 -60.65 -10.6 -49.3 -10.6 -49.3 -6.05 -53.4 -6.05 -53.4 -7.45 -71.9 -7.45 -71.9 -6.05 M-31.0 -5.95 L-31.0 0.75 -24.1 0.75 -24.1 -5.95 -31.0 -5.95 M8.6 -7.3 L12.1 -7.3 12.7 -5.25 Q12.9 -4.5 13.5 -4.5 L14.85 -4.5 14.85 -1.55 11.85 -1.55 Q10.2 -1.55 9.8 -3.2 L8.6 -7.3 M41.65 -5.05 L41.65 -7.85 55.2 -7.85 55.2 -5.05 41.65 -5.05 M58.6 -7.1 L68.1 -7.1 68.1 -3.85 58.6 -3.85 58.6 -7.1 M11.45 6.7 L14.95 6.7 13.7 12.1 Q13.2 14.0 11.35 14.0 L8.7 14.0 8.7 11.05 10.15 11.05 Q10.5 11.05 10.7 10.35 L11.45 6.7 M5.6 14.15 L-2.35 14.15 Q-4.5 14.15 -4.5 12.45 L-4.5 4.55 -0.9 4.55 -0.9 10.8 Q-0.9 11.25 -0.15 11.25 L5.6 11.25 5.6 14.15 M-24.1 4.25 L-31.0 4.25 -31.0 11.15 -25.05 11.15 Q-24.1 11.15 -24.1 10.35 L-24.1 4.25 M-54.65 10.15 L-70.95 10.15 -70.95 11.65 -55.75 11.65 Q-54.65 11.65 -54.65 10.95 L-54.65 10.15 M-50.5 12.45 Q-50.5 14.85 -53.65 14.85 L-75.05 14.85 -75.05 7.0 -50.5 7.0 -50.5 12.45" fill="none" stroke="#663300" stroke-linecap="butt" stroke-linejoin="miter-clip" stroke-miterlimit="3.0" stroke-width="3.0"/>
    <path d="M-64.9 1.7 L-74.95 1.7 -74.95 -1.35 -64.9 -1.35 -64.9 -2.3 -75.3 -2.3 -75.3 -5.45 -64.9 -5.45 -64.9 -6.85 -60.65 -6.85 -60.65 -5.45 -50.25 -5.45 -50.25 -2.3 -60.65 -2.3 -60.65 -1.35 -50.7 -1.35 -50.7 1.7 -60.65 1.7 -60.65 2.65 -49.75 2.65 -49.75 5.8 -60.65 5.8 -60.65 6.4 -64.9 6.4 -64.9 5.8 -75.75 5.8 -75.75 2.65 -64.9 2.65 -64.9 1.7 -60.65 1.7 M-46.0 1.7 L-46.0 -10.75 -42.25 -10.75 -42.25 -7.6 -41.2 -7.6 -41.2 -12.0 -37.3 -12.0 -37.3 -7.6 -35.9 -7.6 -35.9 -4.05 -37.3 -4.05 -37.3 1.7 -37.3 14.9 -41.2 14.9 -41.2 1.7 -41.2 -4.05 -42.25 -4.05 -42.25 1.7 -42.25 13.05 -46.0 13.05 -46.0 1.7 -42.25 1.7 M-35.0 1.7 L-35.0 -9.45 -30.7 -9.45 -29.8 -11.75 -25.25 -11.75 -26.15 -9.45 -20.0 -9.45 -20.0 1.7 -20.0 12.15 Q-20.0 14.7 -23.05 14.7 L-35.0 14.7 -35.0 1.7 -20.0 1.7 M-16.75 1.7 L-16.75 0.0 -10.3 0.0 -9.1 -4.95 -15.9 -4.95 -15.9 -7.95 4.6 -7.95 4.6 -4.95 -5.55 -4.95 -6.8 0.0 5.45 0.0 5.45 1.7 5.45 3.15 -7.6 3.15 -9.8 11.85 Q-10.3 14.1 -11.6 14.1 L-16.75 14.1 -16.75 11.15 -13.45 11.15 Q-13.1 11.15 -12.9 10.4 L-11.05 3.15 -16.75 3.15 -16.75 1.7 5.45 1.7 M15.7 1.7 L15.7 1.6 21.3 1.6 21.3 -2.55 16.15 -2.55 16.15 -5.65 21.3 -5.65 21.3 -8.2 24.95 -8.2 24.95 -5.65 30.1 -5.65 30.1 -2.55 24.95 -2.55 24.95 1.6 30.6 1.6 30.6 1.7 30.6 4.7 24.05 4.7 20.5 10.9 26.0 10.9 Q26.6 10.9 26.6 10.4 L26.6 7.25 30.0 7.25 30.0 11.45 Q30.0 13.8 27.45 13.8 L16.25 13.8 16.25 11.15 19.8 4.7 15.7 4.7 15.7 1.7 30.6 1.7 M9.35 1.7 L8.7 -0.4 12.2 -0.4 12.8 1.65 12.85 1.7 Q13.0 2.5 13.6 2.5 L15.15 2.5 15.15 5.4 11.95 5.4 Q10.3 5.4 9.9 3.7 L9.35 1.7 12.85 1.7 M33.0 1.7 L33.0 1.5 34.3 1.5 Q35.1 1.5 35.5 0.5 L36.35 -1.65 35.85 -1.6 33.25 -1.6 33.25 -4.75 34.4 -4.75 Q35.05 -4.75 35.35 -5.6 L36.35 -8.35 40.25 -8.35 38.1 -3.3 37.8 -2.7 40.65 -2.7 38.75 1.7 38.2 3.0 38.2 14.0 34.65 14.0 34.65 4.65 33.0 4.65 33.0 1.7 38.75 1.7 M50.2 1.7 L50.2 0.5 41.25 0.5 41.25 -2.45 55.35 -2.45 55.35 0.5 53.9 0.5 53.9 1.7 53.9 11.15 Q53.9 14.0 50.4 14.0 L43.85 14.0 43.85 10.95 49.55 10.95 Q50.2 10.95 50.2 10.4 L50.2 1.7 53.9 1.7 M71.0 1.7 L71.3 -3.4 69.15 -3.4 69.15 -6.4 71.45 -6.4 71.6 -8.3 75.05 -8.3 74.9 -6.4 80.1 -6.4 80.1 1.7 80.1 11.35 Q80.1 13.9 77.15 13.9 L74.55 13.9 74.55 11.05 76.1 11.05 Q76.75 11.05 76.75 10.45 L76.75 1.7 76.75 -3.4 74.65 -3.4 74.3 1.7 73.7 10.4 Q73.45 14.1 72.15 14.1 L68.95 14.1 68.95 11.35 69.9 11.35 Q70.45 11.35 70.5 8.75 L71.0 1.7 74.3 1.7 M58.1 1.7 L58.1 -0.95 68.6 -0.95 68.6 1.7 68.6 2.25 63.7 2.25 61.7 10.95 64.35 10.95 Q64.95 10.95 64.95 10.45 L64.95 7.65 68.1 7.65 68.1 11.65 Q68.1 12.35 67.4 13.05 66.6 13.9 65.45 13.9 L58.35 13.9 58.35 11.75 58.55 10.2 60.3 2.25 58.1 2.25 58.1 1.7 68.6 1.7 M80.1 1.7 L76.75 1.7 M-37.3 1.7 L-41.2 1.7" fill="none" stroke="#663300" stroke-linecap="round" stroke-linejoin="miter-clip" stroke-miterlimit="3.0" stroke-width="3.0"/>
    <path d="M8.6 -7.3 L12.1 -7.3 12.7 -5.25 Q12.9 -4.5 13.5 -4.5 L14.85 -4.5 14.85 -1.55 11.85 -1.55 Q10.2 -1.55 9.8 -3.2 L8.6 -7.3 M-16.75 1.7 L-16.75 0.0 -10.3 0.0 -9.1 -4.95 -15.9 -4.95 -15.9 -7.95 4.6 -7.95 4.6 -4.95 -5.55 -4.95 -6.8 0.0 5.45 0.0 5.45 1.7 -16.75 1.7 M15.7 1.7 L15.7 1.6 21.3 1.6 21.3 -2.55 16.15 -2.55 16.15 -5.65 21.3 -5.65 21.3 -8.2 24.95 -8.2 24.95 -5.65 30.1 -5.65 30.1 -2.55 24.95 -2.55 24.95 1.6 30.6 1.6 30.6 1.7 15.7 1.7 M9.35 1.7 L8.7 -0.4 12.2 -0.4 12.8 1.65 12.85 1.7 9.35 1.7 M33.0 1.7 L33.0 1.5 34.3 1.5 Q35.1 1.5 35.5 0.5 L36.35 -1.65 35.85 -1.6 33.25 -1.6 33.25 -4.75 34.4 -4.75 Q35.05 -4.75 35.35 -5.6 L36.35 -8.35 40.25 -8.35 38.1 -3.3 37.8 -2.7 40.65 -2.7 38.75 1.7 33.0 1.7 M55.2 -7.85 L55.2 -5.05 41.65 -5.05 41.65 -7.85 55.2 -7.85 M50.2 1.7 L50.2 0.5 41.25 0.5 41.25 -2.45 55.35 -2.45 55.35 0.5 53.9 0.5 53.9 1.7 50.2 1.7 M58.6 -7.1 L68.1 -7.1 68.1 -3.85 58.6 -3.85 58.6 -7.1 M71.0 1.7 L71.3 -3.4 69.15 -3.4 69.15 -6.4 71.45 -6.4 71.6 -8.3 75.05 -8.3 74.9 -6.4 80.1 -6.4 80.1 1.7 76.75 1.7 76.75 -3.4 74.65 -3.4 74.3 1.7 71.0 1.7 M58.1 1.7 L58.1 -0.95 68.6 -0.95 68.6 1.7 58.1 1.7 M-76.0 -10.6 L-64.9 -10.6 -64.9 -12.0 -60.65 -12.0 -60.65 -10.6 -49.3 -10.6 -49.3 -6.05 -53.4 -6.05 -53.4 -7.45 -71.9 -7.45 -71.9 -6.05 -76.0 -6.05 -76.0 -10.6 M-64.9 1.7 L-74.95 1.7 -74.95 -1.35 -64.9 -1.35 -64.9 -2.3 -75.3 -2.3 -75.3 -5.45 -64.9 -5.45 -64.9 -6.85 -60.65 -6.85 -60.65 -5.45 -50.25 -5.45 -50.25 -2.3 -60.65 -2.3 -60.65 -1.35 -50.7 -1.35 -50.7 1.7 -60.65 1.7 -64.9 1.7 M-46.0 1.7 L-46.0 -10.75 -42.25 -10.75 -42.25 -7.6 -41.2 -7.6 -41.2 -12.0 -37.3 -12.0 -37.3 -7.6 -35.9 -7.6 -35.9 -4.05 -37.3 -4.05 -37.3 1.7 -41.2 1.7 -41.2 -4.05 -42.25 -4.05 -42.25 1.7 -46.0 1.7 M-35.0 1.7 L-35.0 -9.45 -30.7 -9.45 -29.8 -11.75 -25.25 -11.75 -26.15 -9.45 -20.0 -9.45 -20.0 1.7 -35.0 1.7 M-31.0 -5.95 L-31.0 0.75 -24.1 0.75 -24.1 -5.95 -31.0 -5.95" fill="#ffff66" fill-rule="evenodd" stroke="none"/>
    <path d="M5.45 1.7 L5.45 3.15 -7.6 3.15 -9.8 11.85 Q-10.3 14.1 -11.6 14.1 L-16.75 14.1 -16.75 11.15 -13.45 11.15 Q-13.1 11.15 -12.9 10.4 L-11.05 3.15 -16.75 3.15 -16.75 1.7 5.45 1.7 M30.6 1.7 L30.6 4.7 24.05 4.7 20.5 10.9 26.0 10.9 Q26.6 10.9 26.6 10.4 L26.6 7.25 30.0 7.25 30.0 11.45 Q30.0 13.8 27.45 13.8 L16.25 13.8 16.25 11.15 19.8 4.7 15.7 4.7 15.7 1.7 30.6 1.7 M12.85 1.7 Q13.0 2.5 13.6 2.5 L15.15 2.5 15.15 5.4 11.95 5.4 Q10.3 5.4 9.9 3.7 L9.35 1.7 12.85 1.7 M38.75 1.7 L38.2 3.0 38.2 14.0 34.65 14.0 34.65 4.65 33.0 4.65 33.0 1.7 38.75 1.7 M53.9 1.7 L53.9 11.15 Q53.9 14.0 50.4 14.0 L43.85 14.0 43.85 10.95 49.55 10.95 Q50.2 10.95 50.2 10.4 L50.2 1.7 53.9 1.7 M80.1 1.7 L80.1 11.35 Q80.1 13.9 77.15 13.9 L74.55 13.9 74.55 11.05 76.1 11.05 Q76.75 11.05 76.75 10.45 L76.75 1.7 80.1 1.7 M74.3 1.7 L73.7 10.4 Q73.45 14.1 72.15 14.1 L68.95 14.1 68.95 11.35 69.9 11.35 Q70.45 11.35 70.5 8.75 L71.0 1.7 74.3 1.7 M68.6 1.7 L68.6 2.25 63.7 2.25 61.7 10.95 64.35 10.95 Q64.95 10.95 64.95 10.45 L64.95 7.65 68.1 7.65 68.1 11.65 Q68.1 12.35 67.4 13.05 66.6 13.9 65.45 13.9 L58.35 13.9 58.35 11.75 58.55 10.2 60.3 2.25 58.1 2.25 58.1 1.7 68.6 1.7 M-60.65 1.7 L-60.65 2.65 -49.75 2.65 -49.75 5.8 -60.65 5.8 -60.65 6.4 -64.9 6.4 -64.9 5.8 -75.75 5.8 -75.75 2.65 -64.9 2.65 -64.9 1.7 -60.65 1.7 M-37.3 1.7 L-37.3 14.9 -41.2 14.9 -41.2 1.7 -37.3 1.7 M-42.25 1.7 L-42.25 13.05 -46.0 13.05 -46.0 1.7 -42.25 1.7 M-20.0 1.7 L-20.0 12.15 Q-20.0 14.7 -23.05 14.7 L-35.0 14.7 -35.0 1.7 -20.0 1.7 M-0.15 11.25 L5.6 11.25 5.6 14.15 -2.35 14.15 Q-4.5 14.15 -4.5 12.45 L-4.5 4.55 -0.9 4.55 -0.9 10.8 Q-0.9 11.25 -0.15 11.25 M-24.1 10.35 L-24.1 4.25 -31.0 4.25 -31.0 11.15 -25.05 11.15 Q-24.1 11.15 -24.1 10.35 M-54.65 10.95 L-54.65 10.15 -70.95 10.15 -70.95 11.65 -55.75 11.65 Q-54.65 11.65 -54.65 10.95 M-53.65 14.85 L-75.05 14.85 -75.05 7.0 -50.5 7.0 -50.5 12.45 Q-50.5 14.85 -53.65 14.85 M10.7 10.35 L11.45 6.7 14.95 6.7 13.7 12.1 Q13.2 14.0 11.35 14.0 L8.7 14.0 8.7 11.05 10.15 11.05 Q10.5 11.05 10.7 10.35" fill="#ffcc33" fill-rule="evenodd" stroke="none"/>
  </g>
</svg>
