<?xml version="1.0" encoding="UTF-8" standalone="no"?>
<svg xmlns:xlink="http://www.w3.org/1999/xlink" height="198.2px" width="20.25px" xmlns="http://www.w3.org/2000/svg">
  <g transform="matrix(1.0, 0.0, 0.0, 1.0, 0.55, 30.5)">
    <path d="M10.5 -26.1 Q14.9 -21.0 14.9 -20.35 14.9 -19.4 10.65 -12.8 L6.35 -6.25 13.3 11.25 Q13.3 12.2 9.3 19.4 L5.45 26.6 6.6 31.4 9.55 43.8 Q10.05 46.05 11.55 48.0 13.05 50.0 12.2 52.9 11.45 55.5 7.15 65.35 9.05 72.7 12.2 83.0 L10.1 86.65 Q7.95 90.15 7.95 91.0 7.95 93.1 13.85 99.25 19.7 105.5 19.7 106.65 L15.2 119.9 Q10.65 133.75 10.65 137.3 10.65 142.8 13.6 153.9 15.85 162.35 15.6 167.7 15.05 165.5 10.2 152.4 5.8 140.5 5.8 136.9 L13.3 106.15 7.45 99.4 1.55 92.5 Q1.55 90.95 4.25 85.25 L5.8 81.8 Q4.95 78.85 2.9 74.9 L-0.55 68.9 Q-0.55 66.4 3.45 57.6 7.4 48.8 7.4 46.5 L1.5 27.65 Q2.25 25.4 4.55 19.8 L7.95 11.5 1.55 -3.45 Q1.55 -4.0 2.95 -6.3 4.65 -9.15 5.25 -10.8 6.4 -13.55 8.65 -17.65 L10.65 -21.15 6.6 -30.5 10.5 -26.1" fill="#ffffff" fill-rule="evenodd" stroke="none"/>
  </g>
</svg>
