<?xml version="1.0" encoding="UTF-8" standalone="no"?>
<svg xmlns:xlink="http://www.w3.org/1999/xlink" height="10.55px" width="10.25px" xmlns="http://www.w3.org/2000/svg">
  <g transform="matrix(1.0, 0.0, 0.0, 1.0, 5.1, 5.25)">
    <path d="M0.05 -2.65 L0.6 -1.0 Q0.6 -0.55 2.55 -0.1 L0.65 0.3 Q0.4 0.5 0.15 2.7 -0.25 1.7 -0.25 0.3 L-2.05 -0.25 -1.3 -0.35 -0.2 -0.7 0.05 -2.65" fill="#ffffff" fill-rule="evenodd" stroke="none"/>
    <path d="M0.05 -2.65 L-0.2 -0.7 -1.3 -0.35 -2.05 -0.25 -0.25 0.3 Q-0.25 1.7 0.15 2.7 0.4 0.5 0.65 0.3 L2.55 -0.1 Q0.6 -0.55 0.6 -1.0 L0.05 -2.65 M1.45 -0.85 L5.15 -0.05 1.25 0.65 2.3 2.35 0.95 1.35 0.0 5.3 -0.6 1.15 -2.15 2.2 -0.95 0.65 -5.1 -0.15 -1.05 -0.75 -2.05 -2.15 -0.6 -1.25 0.05 -5.25 1.05 -1.25 2.3 -2.0 1.45 -0.85" fill="#66ffff" fill-rule="evenodd" stroke="none"/>
  </g>
</svg>
