<?xml version="1.0" encoding="UTF-8" standalone="no"?>
<svg xmlns:xlink="http://www.w3.org/1999/xlink" height="35.55px" width="163.35px" xmlns="http://www.w3.org/2000/svg">
  <g transform="matrix(1.0, 0.0, 0.0, 1.0, 77.0, 19.0)">
    <path d="M-13.5 0.1 L-13.5 -3.0 -7.05 -3.0 -5.85 -7.95 -12.65 -7.95 -12.65 -10.95 7.85 -10.95 7.85 -7.95 -2.3 -7.95 -3.55 -3.0 8.7 -3.0 8.7 0.1 -13.5 0.1 M15.95 -8.25 Q16.15 -7.5 16.75 -7.5 L18.1 -7.5 18.1 -4.55 15.1 -4.55 Q13.45 -4.55 13.05 -6.2 L11.85 -10.3 15.35 -10.3 15.95 -8.25 M13.0 0.1 L11.95 -3.4 15.45 -3.4 16.05 -1.35 Q16.25 -0.5 16.85 -0.5 L18.4 -0.5 18.4 0.1 13.0 0.1 M18.95 0.1 L18.95 -1.4 24.55 -1.4 24.55 -5.55 19.4 -5.55 19.4 -8.65 24.55 -8.65 24.55 -11.2 28.2 -11.2 28.2 -8.65 33.35 -8.65 33.35 -5.55 28.2 -5.55 28.2 -1.4 33.85 -1.4 33.85 0.1 18.95 0.1 M36.25 0.1 L36.25 -1.5 37.55 -1.5 Q38.35 -1.5 38.75 -2.5 L39.6 -4.65 39.1 -4.6 36.5 -4.6 36.5 -7.75 37.65 -7.75 Q38.3 -7.75 38.6 -8.6 L39.6 -11.35 43.5 -11.35 41.35 -6.3 41.05 -5.7 43.9 -5.7 41.45 0.0 41.45 0.1 36.25 0.1 M53.45 0.1 L53.45 -2.5 44.5 -2.5 44.5 -5.45 58.6 -5.45 58.6 -2.5 57.15 -2.5 57.15 0.1 53.45 0.1 M44.9 -10.85 L58.45 -10.85 58.45 -8.05 44.9 -8.05 44.9 -10.85 M61.85 -10.1 L71.35 -10.1 71.35 -6.85 61.85 -6.85 61.85 -10.1 M63.4 0.1 L63.55 -0.75 61.35 -0.75 61.35 -3.95 71.85 -3.95 71.85 -0.75 66.95 -0.75 66.75 0.1 63.4 0.1 M74.15 0.1 L74.55 -6.4 72.4 -6.4 72.4 -9.4 74.7 -9.4 74.85 -11.3 78.3 -11.3 78.15 -9.4 83.35 -9.4 83.35 0.1 80.0 0.1 80.0 -6.4 77.9 -6.4 77.45 0.1 74.15 0.1 M-74.0 0.1 L-74.0 -0.65 -72.55 -1.0 -72.55 -6.15 -74.0 -6.75 -74.0 -11.15 -72.55 -10.6 -72.55 -14.45 -61.45 -14.45 -61.45 -16.0 -57.0 -16.0 -57.0 -14.45 -46.65 -14.45 -46.65 -10.95 -68.8 -10.95 -68.8 0.1 -74.0 0.1 M-66.0 0.1 L-67.75 -5.1 -64.6 -5.1 -63.9 -3.05 -62.85 -6.35 -67.9 -6.35 -67.9 -9.65 -59.45 -9.65 -59.45 -6.15 -61.35 0.1 -66.0 0.1 M-58.75 0.1 L-58.75 -1.2 -59.65 -1.2 -59.65 -4.4 -59.45 -4.4 Q-59.0 -4.4 -58.75 -5.35 L-57.3 -10.1 -53.7 -10.1 -54.45 -7.9 -52.55 -7.9 -53.0 -10.1 -49.6 -10.1 -49.15 -7.9 -46.8 -7.9 -46.8 -5.1 -49.25 -5.1 -49.25 -2.5 -47.0 -2.5 -47.0 0.1 -58.75 0.1 M-55.25 -5.1 L-55.25 -2.5 -52.65 -2.5 -52.65 -5.1 -55.25 -5.1 M-43.65 0.1 L-43.65 -1.1 -42.1 -1.7 -42.1 -4.4 -43.65 -4.85 -43.65 -9.1 -42.1 -8.65 -42.1 -14.7 -31.45 -14.7 -31.45 -15.65 -26.9 -15.65 -26.9 -14.7 -16.65 -14.7 -16.65 -11.4 -38.45 -11.4 -38.45 0.1 -43.65 0.1 M-36.5 0.1 L-36.5 -4.75 -37.65 -4.75 -37.65 -7.75 -36.75 -7.75 Q-36.05 -7.75 -35.75 -8.55 L-34.7 -11.1 -30.75 -11.1 -31.2 -10.0 -19.6 -10.0 -19.6 -8.0 -21.0 -4.75 -18.1 -4.75 -18.1 0.1 -21.95 0.1 -21.95 -1.45 -25.6 -1.45 -25.6 0.1 -29.45 0.1 -29.45 -1.45 -32.85 -1.45 -32.85 0.1 -36.5 0.1 M-32.85 -6.3 Q-33.55 -4.8 -35.1 -4.75 L-25.25 -4.75 -24.3 -6.95 -32.6 -6.95 -32.85 -6.3" fill="#dbdbdb" fill-rule="evenodd" stroke="none"/>
    <path d="M8.7 0.1 L8.7 0.15 -4.35 0.15 -6.55 8.85 Q-7.05 11.1 -8.35 11.1 L-13.5 11.1 -13.5 8.15 -10.2 8.15 Q-9.85 8.15 -9.65 7.4 L-7.8 0.15 -13.5 0.15 -13.5 0.1 8.7 0.1 M18.4 0.1 L18.4 2.4 15.2 2.4 Q13.55 2.4 13.15 0.7 L13.0 0.1 18.4 0.1 M33.85 0.1 L33.85 1.7 27.3 1.7 23.75 7.9 29.25 7.9 Q29.85 7.9 29.85 7.4 L29.85 4.25 33.25 4.25 33.25 8.45 Q33.25 10.8 30.7 10.8 L19.5 10.8 19.5 8.15 23.05 1.7 18.95 1.7 18.95 0.1 33.85 0.1 M41.45 0.1 L41.45 11.0 37.9 11.0 37.9 1.65 36.25 1.65 36.25 0.1 41.45 0.1 M57.15 0.1 L57.15 8.15 Q57.15 11.0 53.65 11.0 L47.1 11.0 47.1 7.95 52.8 7.95 Q53.45 7.95 53.45 7.4 L53.45 0.1 57.15 0.1 M66.75 0.1 L64.95 7.95 67.6 7.95 Q68.2 7.95 68.2 7.45 L68.2 4.65 71.35 4.65 71.35 8.65 Q71.35 9.35 70.65 10.05 69.85 10.9 68.7 10.9 L61.6 10.9 61.6 8.75 61.8 7.2 63.4 0.1 66.75 0.1 M83.35 0.1 L83.35 8.35 Q83.35 10.9 80.4 10.9 L77.8 10.9 77.8 8.05 79.35 8.05 Q80.0 8.05 80.0 7.45 L80.0 0.1 83.35 0.1 M77.45 0.1 L76.95 7.4 Q76.7 11.1 75.4 11.1 L72.2 11.1 72.2 8.35 73.15 8.35 Q73.7 8.35 73.75 5.75 L74.15 0.1 77.45 0.1 M-68.8 0.1 L-68.8 8.75 Q-68.9 11.5 -71.5 11.55 L-73.65 11.55 -73.65 8.25 -72.8 8.25 Q-72.55 8.25 -72.55 7.65 L-72.55 3.2 -74.0 3.6 -74.0 0.1 -68.8 0.1 M-61.35 0.1 L-62.05 2.35 -60.25 7.45 Q-60.1 8.25 -59.45 8.25 L-59.25 8.25 -59.25 11.4 -61.05 11.4 Q-62.45 11.4 -62.85 9.65 L-63.6 7.4 -64.4 9.95 Q-64.85 11.55 -66.75 11.55 L-68.25 11.55 -68.25 8.4 -68.15 8.4 Q-67.4 8.4 -67.3 7.85 L-65.4 1.9 -66.0 0.1 -61.35 0.1 M-47.0 0.1 L-47.0 0.4 -49.25 0.4 -49.25 2.9 -47.0 2.9 -47.0 5.8 -49.25 5.8 -49.25 8.25 -46.8 8.25 -46.8 11.2 -55.25 11.2 -55.25 11.4 -58.75 11.4 -58.75 0.1 -47.0 0.1 M-38.45 0.1 L-38.45 9.1 Q-38.45 11.55 -40.9 11.55 L-43.4 11.55 -43.4 8.15 -42.8 8.15 Q-42.1 8.15 -42.1 7.45 L-42.1 2.5 -43.65 3.1 -43.65 0.1 -38.45 0.1 M-18.1 0.1 L-18.1 2.4 -16.8 2.4 -16.8 5.7 -24.55 5.7 -22.15 7.7 -20.65 8.05 -16.65 8.05 -16.65 11.35 -22.05 11.35 Q-24.25 11.35 -25.2 10.5 L-27.55 8.4 -30.25 10.55 Q-31.15 11.35 -33.0 11.35 L-37.9 11.35 -37.9 8.05 -34.5 8.05 -33.0 7.7 -30.5 5.7 -37.75 5.7 -37.75 2.4 -36.5 2.4 -36.5 0.1 -32.85 0.1 -32.85 2.4 -29.45 2.4 -29.45 0.1 -25.6 0.1 -25.6 2.4 -21.95 2.4 -21.95 0.1 -18.1 0.1 M-1.25 1.55 L2.35 1.55 2.35 7.8 Q2.35 8.25 3.1 8.25 L8.85 8.25 8.85 11.15 0.9 11.15 Q-1.25 11.15 -1.25 9.45 L-1.25 1.55 M-55.25 0.4 L-55.25 2.9 -52.65 2.9 -52.65 0.4 -55.25 0.4 M-55.25 5.8 L-55.25 8.25 -52.65 8.25 -52.65 5.8 -55.25 5.8 M13.95 7.35 L14.7 3.7 18.2 3.7 16.95 9.1 Q16.45 11.0 14.6 11.0 L11.95 11.0 11.95 8.05 13.4 8.05 Q13.75 8.05 13.95 7.35" fill="#999999" fill-rule="evenodd" stroke="none"/>
    <path d="M15.95 -8.25 Q16.15 -7.5 16.75 -7.5 L18.1 -7.5 18.1 -4.55 15.1 -4.55 Q13.45 -4.55 13.05 -6.2 L11.85 -10.3 15.35 -10.3 15.95 -8.25 M44.9 -10.85 L58.45 -10.85 58.45 -8.05 44.9 -8.05 44.9 -10.85 M61.85 -10.1 L71.35 -10.1 71.35 -6.85 61.85 -6.85 61.85 -10.1 M-55.25 -5.1 L-55.25 -2.5 -52.65 -2.5 -52.65 -5.1 -55.25 -5.1 M-32.85 -6.3 Q-33.55 -4.8 -35.1 -4.75 L-25.25 -4.75 -24.3 -6.95 -32.6 -6.95 -32.85 -6.3 M-1.25 1.55 L2.35 1.55 2.35 7.8 Q2.35 8.25 3.1 8.25 L8.85 8.25 8.85 11.15 0.9 11.15 Q-1.25 11.15 -1.25 9.45 L-1.25 1.55 M-55.25 0.4 L-55.25 2.9 -52.65 2.9 -52.65 0.4 -55.25 0.4 M-55.25 5.8 L-55.25 8.25 -52.65 8.25 -52.65 5.8 -55.25 5.8 M13.95 7.35 L14.7 3.7 18.2 3.7 16.95 9.1 Q16.45 11.0 14.6 11.0 L11.95 11.0 11.95 8.05 13.4 8.05 Q13.75 8.05 13.95 7.35" fill="none" stroke="#ffffff" stroke-linecap="butt" stroke-linejoin="miter-clip" stroke-miterlimit="3.0" stroke-width="6.0"/>
    <path d="M-13.5 0.1 L-13.5 -3.0 -7.05 -3.0 -5.85 -7.95 -12.65 -7.95 -12.65 -10.95 7.85 -10.95 7.85 -7.95 -2.3 -7.95 -3.55 -3.0 8.7 -3.0 8.7 0.1 8.7 0.15 -4.35 0.15 -6.55 8.85 Q-7.05 11.1 -8.35 11.1 L-13.5 11.1 -13.5 8.15 -10.2 8.15 Q-9.85 8.15 -9.65 7.4 L-7.8 0.15 -13.5 0.15 -13.5 0.1 8.7 0.1 M13.0 0.1 L11.95 -3.4 15.45 -3.4 16.05 -1.35 Q16.25 -0.5 16.85 -0.5 L18.4 -0.5 18.4 0.1 18.4 2.4 15.2 2.4 Q13.55 2.4 13.15 0.7 L13.0 0.1 18.4 0.1 M18.95 0.1 L18.95 -1.4 24.55 -1.4 24.55 -5.55 19.4 -5.55 19.4 -8.65 24.55 -8.65 24.55 -11.2 28.2 -11.2 28.2 -8.65 33.35 -8.65 33.35 -5.55 28.2 -5.55 28.2 -1.4 33.85 -1.4 33.85 0.1 33.85 1.7 27.3 1.7 23.75 7.9 29.25 7.9 Q29.85 7.9 29.85 7.4 L29.85 4.25 33.25 4.25 33.25 8.45 Q33.25 10.8 30.7 10.8 L19.5 10.8 19.5 8.15 23.05 1.7 18.95 1.7 18.95 0.1 33.85 0.1 M36.25 0.1 L36.25 -1.5 37.55 -1.5 Q38.35 -1.5 38.75 -2.5 L39.6 -4.65 39.1 -4.6 36.5 -4.6 36.5 -7.75 37.65 -7.75 Q38.3 -7.75 38.6 -8.6 L39.6 -11.35 43.5 -11.35 41.35 -6.3 41.05 -5.7 43.9 -5.7 41.45 0.0 41.45 0.1 41.45 11.0 37.9 11.0 37.9 1.65 36.25 1.65 36.25 0.1 41.45 0.1 M53.45 0.1 L53.45 -2.5 44.5 -2.5 44.5 -5.45 58.6 -5.45 58.6 -2.5 57.15 -2.5 57.15 0.1 57.15 8.15 Q57.15 11.0 53.65 11.0 L47.1 11.0 47.1 7.95 52.8 7.95 Q53.45 7.95 53.45 7.4 L53.45 0.1 57.15 0.1 M63.4 0.1 L63.55 -0.75 61.35 -0.75 61.35 -3.95 71.85 -3.95 71.85 -0.75 66.95 -0.75 66.75 0.1 64.95 7.95 67.6 7.95 Q68.2 7.95 68.2 7.45 L68.2 4.65 71.35 4.65 71.35 8.65 Q71.35 9.35 70.65 10.05 69.85 10.9 68.7 10.9 L61.6 10.9 61.6 8.75 61.8 7.2 63.4 0.1 66.75 0.1 M74.15 0.1 L74.55 -6.4 72.4 -6.4 72.4 -9.4 74.7 -9.4 74.85 -11.3 78.3 -11.3 78.15 -9.4 83.35 -9.4 83.35 0.1 83.35 8.35 Q83.35 10.9 80.4 10.9 L77.8 10.9 77.8 8.05 79.35 8.05 Q80.0 8.05 80.0 7.45 L80.0 0.1 80.0 -6.4 77.9 -6.4 77.45 0.1 76.95 7.4 Q76.7 11.1 75.4 11.1 L72.2 11.1 72.2 8.35 73.15 8.35 Q73.7 8.35 73.75 5.75 L74.15 0.1 77.45 0.1 M-74.0 0.1 L-74.0 -0.65 -72.55 -1.0 -72.55 -6.15 -74.0 -6.75 -74.0 -11.15 -72.55 -10.6 -72.55 -14.45 -61.45 -14.45 -61.45 -16.0 -57.0 -16.0 -57.0 -14.45 -46.65 -14.45 -46.65 -10.95 -68.8 -10.95 -68.8 0.1 -68.8 8.75 Q-68.9 11.5 -71.5 11.55 L-73.65 11.55 -73.65 8.25 -72.8 8.25 Q-72.55 8.25 -72.55 7.65 L-72.55 3.2 -74.0 3.6 -74.0 0.1 -68.8 0.1 M-66.0 0.1 L-67.75 -5.1 -64.6 -5.1 -63.9 -3.05 -62.85 -6.35 -67.9 -6.35 -67.9 -9.65 -59.45 -9.65 -59.45 -6.15 -61.35 0.1 -62.05 2.35 -60.25 7.45 Q-60.1 8.25 -59.45 8.25 L-59.25 8.25 -59.25 11.4 -61.05 11.4 Q-62.45 11.4 -62.85 9.65 L-63.6 7.4 -64.4 9.95 Q-64.85 11.55 -66.75 11.55 L-68.25 11.55 -68.25 8.4 -68.15 8.4 Q-67.4 8.4 -67.3 7.85 L-65.4 1.9 -66.0 0.1 -61.35 0.1 M-58.75 0.1 L-58.75 -1.2 -59.65 -1.2 -59.65 -4.4 -59.45 -4.4 Q-59.0 -4.4 -58.75 -5.35 L-57.3 -10.1 -53.7 -10.1 -54.45 -7.9 -52.55 -7.9 -53.0 -10.1 -49.6 -10.1 -49.15 -7.9 -46.8 -7.9 -46.8 -5.1 -49.25 -5.1 -49.25 -2.5 -47.0 -2.5 -47.0 0.1 -47.0 0.4 -49.25 0.4 -49.25 2.9 -47.0 2.9 -47.0 5.8 -49.25 5.8 -49.25 8.25 -46.8 8.25 -46.8 11.2 -55.25 11.2 -55.25 11.4 -58.75 11.4 -58.75 0.1 -47.0 0.1 M-43.65 0.1 L-43.65 -1.1 -42.1 -1.7 -42.1 -4.4 -43.65 -4.85 -43.65 -9.1 -42.1 -8.65 -42.1 -14.7 -31.45 -14.7 -31.45 -15.65 -26.9 -15.65 -26.9 -14.7 -16.65 -14.7 -16.65 -11.4 -38.45 -11.4 -38.45 0.1 -38.45 9.1 Q-38.45 11.55 -40.9 11.55 L-43.4 11.55 -43.4 8.15 -42.8 8.15 Q-42.1 8.15 -42.1 7.45 L-42.1 2.5 -43.65 3.1 -43.65 0.1 -38.45 0.1 M-36.5 0.1 L-36.5 -4.75 -37.65 -4.75 -37.65 -7.75 -36.75 -7.75 Q-36.05 -7.75 -35.75 -8.55 L-34.7 -11.1 -30.75 -11.1 -31.2 -10.0 -19.6 -10.0 -19.6 -8.0 -21.0 -4.75 -18.1 -4.75 -18.1 0.1 -18.1 2.4 -16.8 2.4 -16.8 5.7 -24.55 5.7 -22.15 7.7 -20.65 8.05 -16.65 8.05 -16.65 11.35 -22.05 11.35 Q-24.25 11.35 -25.2 10.5 L-27.55 8.4 -30.25 10.55 Q-31.15 11.35 -33.0 11.35 L-37.9 11.35 -37.9 8.05 -34.5 8.05 -33.0 7.7 -30.5 5.7 -37.75 5.7 -37.75 2.4 -36.5 2.4 -36.5 0.1 -32.85 0.1 -32.85 -1.45 -29.45 -1.45 -29.45 0.1 -25.6 0.1 -25.6 -1.45 -21.95 -1.45 -21.95 0.1 -18.1 0.1 M-25.6 0.1 L-25.6 2.4 -21.95 2.4 -21.95 0.1 M-32.85 0.1 L-32.85 2.4 -29.45 2.4 -29.45 0.1 M83.35 0.1 L80.0 0.1" fill="none" stroke="#ffffff" stroke-linecap="round" stroke-linejoin="miter-clip" stroke-miterlimit="3.0" stroke-width="6.0"/>
    <path d="M-13.5 0.1 L-13.5 -3.0 -7.05 -3.0 -5.85 -7.95 -12.65 -7.95 -12.65 -10.95 7.85 -10.95 7.85 -7.95 -2.3 -7.95 -3.55 -3.0 8.7 -3.0 8.7 0.1 -13.5 0.1 M15.95 -8.25 Q16.15 -7.5 16.75 -7.5 L18.1 -7.5 18.1 -4.55 15.1 -4.55 Q13.45 -4.55 13.05 -6.2 L11.85 -10.3 15.35 -10.3 15.95 -8.25 M13.0 0.1 L11.95 -3.4 15.45 -3.4 16.05 -1.35 Q16.25 -0.5 16.85 -0.5 L18.4 -0.5 18.4 0.1 13.0 0.1 M18.95 0.1 L18.95 -1.4 24.55 -1.4 24.55 -5.55 19.4 -5.55 19.4 -8.65 24.55 -8.65 24.55 -11.2 28.2 -11.2 28.2 -8.65 33.35 -8.65 33.35 -5.55 28.2 -5.55 28.2 -1.4 33.85 -1.4 33.85 0.1 18.95 0.1 M36.25 0.1 L36.25 -1.5 37.55 -1.5 Q38.35 -1.5 38.75 -2.5 L39.6 -4.65 39.1 -4.6 36.5 -4.6 36.5 -7.75 37.65 -7.75 Q38.3 -7.75 38.6 -8.6 L39.6 -11.35 43.5 -11.35 41.35 -6.3 41.05 -5.7 43.9 -5.7 41.45 0.0 41.45 0.1 36.25 0.1 M53.45 0.1 L53.45 -2.5 44.5 -2.5 44.5 -5.45 58.6 -5.45 58.6 -2.5 57.15 -2.5 57.15 0.1 53.45 0.1 M44.9 -10.85 L58.45 -10.85 58.45 -8.05 44.9 -8.05 44.9 -10.85 M61.85 -10.1 L71.35 -10.1 71.35 -6.85 61.85 -6.85 61.85 -10.1 M63.4 0.1 L63.55 -0.75 61.35 -0.75 61.35 -3.95 71.85 -3.95 71.85 -0.75 66.95 -0.75 66.75 0.1 63.4 0.1 M74.15 0.1 L74.55 -6.4 72.4 -6.4 72.4 -9.4 74.7 -9.4 74.85 -11.3 78.3 -11.3 78.15 -9.4 83.35 -9.4 83.35 0.1 80.0 0.1 80.0 -6.4 77.9 -6.4 77.45 0.1 74.15 0.1 M-74.0 0.1 L-74.0 -0.65 -72.55 -1.0 -72.55 -6.15 -74.0 -6.75 -74.0 -11.15 -72.55 -10.6 -72.55 -14.45 -61.45 -14.45 -61.45 -16.0 -57.0 -16.0 -57.0 -14.45 -46.65 -14.45 -46.65 -10.95 -68.8 -10.95 -68.8 0.1 -74.0 0.1 M-66.0 0.1 L-67.75 -5.1 -64.6 -5.1 -63.9 -3.05 -62.85 -6.35 -67.9 -6.35 -67.9 -9.65 -59.45 -9.65 -59.45 -6.15 -61.35 0.1 -66.0 0.1 M-58.75 0.1 L-58.75 -1.2 -59.65 -1.2 -59.65 -4.4 -59.45 -4.4 Q-59.0 -4.4 -58.75 -5.35 L-57.3 -10.1 -53.7 -10.1 -54.45 -7.9 -52.55 -7.9 -53.0 -10.1 -49.6 -10.1 -49.15 -7.9 -46.8 -7.9 -46.8 -5.1 -49.25 -5.1 -49.25 -2.5 -47.0 -2.5 -47.0 0.1 -58.75 0.1 M-55.25 -2.5 L-52.65 -2.5 -52.65 -5.1 -55.25 -5.1 -55.25 -2.5 M-43.65 0.1 L-43.65 -1.1 -42.1 -1.7 -42.1 -4.4 -43.65 -4.85 -43.65 -9.1 -42.1 -8.65 -42.1 -14.7 -31.45 -14.7 -31.45 -15.65 -26.9 -15.65 -26.9 -14.7 -16.65 -14.7 -16.65 -11.4 -38.45 -11.4 -38.45 0.1 -43.65 0.1 M-36.5 0.1 L-36.5 -4.75 -37.65 -4.75 -37.65 -7.75 -36.75 -7.75 Q-36.05 -7.75 -35.75 -8.55 L-34.7 -11.1 -30.75 -11.1 -31.2 -10.0 -19.6 -10.0 -19.6 -8.0 -21.0 -4.75 -18.1 -4.75 -18.1 0.1 -21.95 0.1 -21.95 -1.45 -25.6 -1.45 -25.6 0.1 -29.45 0.1 -29.45 -1.45 -32.85 -1.45 -32.85 0.1 -36.5 0.1 M-32.85 -6.3 Q-33.55 -4.8 -35.1 -4.75 L-25.25 -4.75 -24.3 -6.95 -32.6 -6.95 -32.85 -6.3" fill="#dbdbdb" fill-rule="evenodd" stroke="none"/>
    <path d="M8.7 0.1 L8.7 0.15 -4.35 0.15 -6.55 8.85 Q-7.05 11.1 -8.35 11.1 L-13.5 11.1 -13.5 8.15 -10.2 8.15 Q-9.85 8.15 -9.65 7.4 L-7.8 0.15 -13.5 0.15 -13.5 0.1 8.7 0.1 M18.4 0.1 L18.4 2.4 15.2 2.4 Q13.55 2.4 13.15 0.7 L13.0 0.1 18.4 0.1 M33.85 0.1 L33.85 1.7 27.3 1.7 23.75 7.9 29.25 7.9 Q29.85 7.9 29.85 7.4 L29.85 4.25 33.25 4.25 33.25 8.45 Q33.25 10.8 30.7 10.8 L19.5 10.8 19.5 8.15 23.05 1.7 18.95 1.7 18.95 0.1 33.85 0.1 M41.45 0.1 L41.45 11.0 37.9 11.0 37.9 1.65 36.25 1.65 36.25 0.1 41.45 0.1 M57.15 0.1 L57.15 8.15 Q57.15 11.0 53.65 11.0 L47.1 11.0 47.1 7.95 52.8 7.95 Q53.45 7.95 53.45 7.4 L53.45 0.1 57.15 0.1 M66.75 0.1 L64.95 7.95 67.6 7.95 Q68.2 7.95 68.2 7.45 L68.2 4.65 71.35 4.65 71.35 8.65 Q71.35 9.35 70.65 10.05 69.85 10.9 68.7 10.9 L61.6 10.9 61.6 8.75 61.8 7.2 63.4 0.1 66.75 0.1 M83.35 0.1 L83.35 8.35 Q83.35 10.9 80.4 10.9 L77.8 10.9 77.8 8.05 79.35 8.05 Q80.0 8.05 80.0 7.45 L80.0 0.1 83.35 0.1 M77.45 0.1 L76.95 7.4 Q76.7 11.1 75.4 11.1 L72.2 11.1 72.2 8.35 73.15 8.35 Q73.7 8.35 73.75 5.75 L74.15 0.1 77.45 0.1 M-68.8 0.1 L-68.8 8.75 Q-68.9 11.5 -71.5 11.55 L-73.65 11.55 -73.65 8.25 -72.8 8.25 Q-72.55 8.25 -72.55 7.65 L-72.55 3.2 -74.0 3.6 -74.0 0.1 -68.8 0.1 M-61.35 0.1 L-62.05 2.35 -60.25 7.45 Q-60.1 8.25 -59.45 8.25 L-59.25 8.25 -59.25 11.4 -61.05 11.4 Q-62.45 11.4 -62.85 9.65 L-63.6 7.4 -64.4 9.95 Q-64.85 11.55 -66.75 11.55 L-68.25 11.55 -68.25 8.4 -68.15 8.4 Q-67.4 8.4 -67.3 7.85 L-65.4 1.9 -66.0 0.1 -61.35 0.1 M-47.0 0.1 L-47.0 0.4 -49.25 0.4 -49.25 2.9 -47.0 2.9 -47.0 5.8 -49.25 5.8 -49.25 8.25 -46.8 8.25 -46.8 11.2 -55.25 11.2 -55.25 11.4 -58.75 11.4 -58.75 0.1 -47.0 0.1 M-38.45 0.1 L-38.45 9.1 Q-38.45 11.55 -40.9 11.55 L-43.4 11.55 -43.4 8.15 -42.8 8.15 Q-42.1 8.15 -42.1 7.45 L-42.1 2.5 -43.65 3.1 -43.65 0.1 -38.45 0.1 M-18.1 0.1 L-18.1 2.4 -16.8 2.4 -16.8 5.7 -24.55 5.7 -22.15 7.7 -20.65 8.05 -16.65 8.05 -16.65 11.35 -22.05 11.35 Q-24.25 11.35 -25.2 10.5 L-27.55 8.4 -30.25 10.55 Q-31.15 11.35 -33.0 11.35 L-37.9 11.35 -37.9 8.05 -34.5 8.05 -33.0 7.7 -30.5 5.7 -37.75 5.7 -37.75 2.4 -36.5 2.4 -36.5 0.1 -32.85 0.1 -32.85 2.4 -29.45 2.4 -29.45 0.1 -25.6 0.1 -25.6 2.4 -21.95 2.4 -21.95 0.1 -18.1 0.1 M-1.25 1.55 L2.35 1.55 2.35 7.8 Q2.35 8.25 3.1 8.25 L8.85 8.25 8.85 11.15 0.9 11.15 Q-1.25 11.15 -1.25 9.45 L-1.25 1.55 M-55.25 0.4 L-55.25 2.9 -52.65 2.9 -52.65 0.4 -55.25 0.4 M-55.25 5.8 L-55.25 8.25 -52.65 8.25 -52.65 5.8 -55.25 5.8 M13.95 7.35 L14.7 3.7 18.2 3.7 16.95 9.1 Q16.45 11.0 14.6 11.0 L11.95 11.0 11.95 8.05 13.4 8.05 Q13.75 8.05 13.95 7.35" fill="#999999" fill-rule="evenodd" stroke="none"/>
    <path d="M15.95 -8.25 Q16.15 -7.5 16.75 -7.5 L18.1 -7.5 18.1 -4.55 15.1 -4.55 Q13.45 -4.55 13.05 -6.2 L11.85 -10.3 15.35 -10.3 15.95 -8.25 M44.9 -10.85 L58.45 -10.85 58.45 -8.05 44.9 -8.05 44.9 -10.85 M61.85 -10.1 L71.35 -10.1 71.35 -6.85 61.85 -6.85 61.85 -10.1 M-55.25 -2.5 L-52.65 -2.5 -52.65 -5.1 -55.25 -5.1 -55.25 -2.5 M-32.85 -6.3 Q-33.55 -4.8 -35.1 -4.75 L-25.25 -4.75 -24.3 -6.95 -32.6 -6.95 -32.85 -6.3 M-1.25 1.55 L2.35 1.55 2.35 7.8 Q2.35 8.25 3.1 8.25 L8.85 8.25 8.85 11.15 0.9 11.15 Q-1.25 11.15 -1.25 9.45 L-1.25 1.55 M-55.25 0.4 L-55.25 2.9 -52.65 2.9 -52.65 0.4 -55.25 0.4 M-55.25 5.8 L-55.25 8.25 -52.65 8.25 -52.65 5.8 -55.25 5.8 M13.95 7.35 L14.7 3.7 18.2 3.7 16.95 9.1 Q16.45 11.0 14.6 11.0 L11.95 11.0 11.95 8.05 13.4 8.05 Q13.75 8.05 13.95 7.35" fill="none" stroke="#000000" stroke-linecap="butt" stroke-linejoin="miter-clip" stroke-miterlimit="3.0" stroke-width="3.0"/>
    <path d="M-13.5 0.1 L-13.5 -3.0 -7.05 -3.0 -5.85 -7.95 -12.65 -7.95 -12.65 -10.95 7.85 -10.95 7.85 -7.95 -2.3 -7.95 -3.55 -3.0 8.7 -3.0 8.7 0.1 8.7 0.15 -4.35 0.15 -6.55 8.85 Q-7.05 11.1 -8.35 11.1 L-13.5 11.1 -13.5 8.15 -10.2 8.15 Q-9.85 8.15 -9.65 7.4 L-7.8 0.15 -13.5 0.15 -13.5 0.1 8.7 0.1 M13.0 0.1 L11.95 -3.4 15.45 -3.4 16.05 -1.35 Q16.25 -0.5 16.85 -0.5 L18.4 -0.5 18.4 0.1 18.4 2.4 15.2 2.4 Q13.55 2.4 13.15 0.7 L13.0 0.1 18.4 0.1 M18.95 0.1 L18.95 -1.4 24.55 -1.4 24.55 -5.55 19.4 -5.55 19.4 -8.65 24.55 -8.65 24.55 -11.2 28.2 -11.2 28.2 -8.65 33.35 -8.65 33.35 -5.55 28.2 -5.55 28.2 -1.4 33.85 -1.4 33.85 0.1 33.85 1.7 27.3 1.7 23.75 7.9 29.25 7.9 Q29.85 7.9 29.85 7.4 L29.85 4.25 33.25 4.25 33.25 8.45 Q33.25 10.8 30.7 10.8 L19.5 10.8 19.5 8.15 23.05 1.7 18.95 1.7 18.95 0.1 33.85 0.1 M36.25 0.1 L36.25 -1.5 37.55 -1.5 Q38.35 -1.5 38.75 -2.5 L39.6 -4.65 39.1 -4.6 36.5 -4.6 36.5 -7.75 37.65 -7.75 Q38.3 -7.75 38.6 -8.6 L39.6 -11.35 43.5 -11.35 41.35 -6.3 41.05 -5.7 43.9 -5.7 41.45 0.0 41.45 0.1 41.45 11.0 37.9 11.0 37.9 1.65 36.25 1.65 36.25 0.1 41.45 0.1 M53.45 0.1 L53.45 -2.5 44.5 -2.5 44.5 -5.45 58.6 -5.45 58.6 -2.5 57.15 -2.5 57.15 0.1 57.15 8.15 Q57.15 11.0 53.65 11.0 L47.1 11.0 47.1 7.95 52.8 7.95 Q53.45 7.95 53.45 7.4 L53.45 0.1 57.15 0.1 M63.4 0.1 L63.55 -0.75 61.35 -0.75 61.35 -3.95 71.85 -3.95 71.85 -0.75 66.95 -0.75 66.75 0.1 64.95 7.95 67.6 7.95 Q68.2 7.95 68.2 7.45 L68.2 4.65 71.35 4.65 71.35 8.65 Q71.35 9.35 70.65 10.05 69.85 10.9 68.7 10.9 L61.6 10.9 61.6 8.75 61.8 7.2 63.4 0.1 66.75 0.1 M74.15 0.1 L74.55 -6.4 72.4 -6.4 72.4 -9.4 74.7 -9.4 74.85 -11.3 78.3 -11.3 78.15 -9.4 83.35 -9.4 83.35 0.1 83.35 8.35 Q83.35 10.9 80.4 10.9 L77.8 10.9 77.8 8.05 79.35 8.05 Q80.0 8.05 80.0 7.45 L80.0 0.1 80.0 -6.4 77.9 -6.4 77.45 0.1 76.95 7.4 Q76.7 11.1 75.4 11.1 L72.2 11.1 72.2 8.35 73.15 8.35 Q73.7 8.35 73.75 5.75 L74.15 0.1 77.45 0.1 M-74.0 0.1 L-74.0 -0.65 -72.55 -1.0 -72.55 -6.15 -74.0 -6.75 -74.0 -11.15 -72.55 -10.6 -72.55 -14.45 -61.45 -14.45 -61.45 -16.0 -57.0 -16.0 -57.0 -14.45 -46.65 -14.45 -46.65 -10.95 -68.8 -10.95 -68.8 0.1 -68.8 8.75 Q-68.9 11.5 -71.5 11.55 L-73.65 11.55 -73.65 8.25 -72.8 8.25 Q-72.55 8.25 -72.55 7.65 L-72.55 3.2 -74.0 3.6 -74.0 0.1 -68.8 0.1 M-66.0 0.1 L-67.75 -5.1 -64.6 -5.1 -63.9 -3.05 -62.85 -6.35 -67.9 -6.35 -67.9 -9.65 -59.45 -9.65 -59.45 -6.15 -61.35 0.1 -62.05 2.35 -60.25 7.45 Q-60.1 8.25 -59.45 8.25 L-59.25 8.25 -59.25 11.4 -61.05 11.4 Q-62.45 11.4 -62.85 9.65 L-63.6 7.4 -64.4 9.95 Q-64.85 11.55 -66.75 11.55 L-68.25 11.55 -68.25 8.4 -68.15 8.4 Q-67.4 8.4 -67.3 7.85 L-65.4 1.9 -66.0 0.1 -61.35 0.1 M-58.75 0.1 L-58.75 -1.2 -59.65 -1.2 -59.65 -4.4 -59.45 -4.4 Q-59.0 -4.4 -58.75 -5.35 L-57.3 -10.1 -53.7 -10.1 -54.45 -7.9 -52.55 -7.9 -53.0 -10.1 -49.6 -10.1 -49.15 -7.9 -46.8 -7.9 -46.8 -5.1 -49.25 -5.1 -49.25 -2.5 -47.0 -2.5 -47.0 0.1 -47.0 0.4 -49.25 0.4 -49.25 2.9 -47.0 2.9 -47.0 5.8 -49.25 5.8 -49.25 8.25 -46.8 8.25 -46.8 11.2 -55.25 11.2 -55.25 11.4 -58.75 11.4 -58.75 0.1 -47.0 0.1 M-43.65 0.1 L-43.65 -1.1 -42.1 -1.7 -42.1 -4.4 -43.65 -4.85 -43.65 -9.1 -42.1 -8.65 -42.1 -14.7 -31.45 -14.7 -31.45 -15.65 -26.9 -15.65 -26.9 -14.7 -16.65 -14.7 -16.65 -11.4 -38.45 -11.4 -38.45 0.1 -38.45 9.1 Q-38.45 11.55 -40.9 11.55 L-43.4 11.55 -43.4 8.15 -42.8 8.15 Q-42.1 8.15 -42.1 7.45 L-42.1 2.5 -43.65 3.1 -43.65 0.1 -38.45 0.1 M-36.5 0.1 L-36.5 -4.75 -37.65 -4.75 -37.65 -7.75 -36.75 -7.75 Q-36.05 -7.75 -35.75 -8.55 L-34.7 -11.1 -30.75 -11.1 -31.2 -10.0 -19.6 -10.0 -19.6 -8.0 -21.0 -4.75 -18.1 -4.75 -18.1 0.1 -18.1 2.4 -16.8 2.4 -16.8 5.7 -24.55 5.7 -22.15 7.7 -20.65 8.05 -16.65 8.05 -16.65 11.35 -22.05 11.35 Q-24.25 11.35 -25.2 10.5 L-27.55 8.4 -30.25 10.55 Q-31.15 11.35 -33.0 11.35 L-37.9 11.35 -37.9 8.05 -34.5 8.05 -33.0 7.7 -30.5 5.7 -37.75 5.7 -37.75 2.4 -36.5 2.4 -36.5 0.1 -32.85 0.1 -32.85 -1.45 -29.45 -1.45 -29.45 0.1 -25.6 0.1 -25.6 -1.45 -21.95 -1.45 -21.95 0.1 -18.1 0.1 M-25.6 0.1 L-25.6 2.4 -21.95 2.4 -21.95 0.1 M-32.85 0.1 L-32.85 2.4 -29.45 2.4 -29.45 0.1 M83.35 0.1 L80.0 0.1" fill="none" stroke="#000000" stroke-linecap="round" stroke-linejoin="miter-clip" stroke-miterlimit="3.0" stroke-width="3.0"/>
    <path d="M-13.5 0.1 L-13.5 -3.0 -7.05 -3.0 -5.85 -7.95 -12.65 -7.95 -12.65 -10.95 7.85 -10.95 7.85 -7.95 -2.3 -7.95 -3.55 -3.0 8.7 -3.0 8.7 0.1 -13.5 0.1 M15.95 -8.25 Q16.15 -7.5 16.75 -7.5 L18.1 -7.5 18.1 -4.55 15.1 -4.55 Q13.45 -4.55 13.05 -6.2 L11.85 -10.3 15.35 -10.3 15.95 -8.25 M13.0 0.1 L11.95 -3.4 15.45 -3.4 16.05 -1.35 Q16.25 -0.5 16.85 -0.5 L18.4 -0.5 18.4 0.1 13.0 0.1 M18.95 0.1 L18.95 -1.4 24.55 -1.4 24.55 -5.55 19.4 -5.55 19.4 -8.65 24.55 -8.65 24.55 -11.2 28.2 -11.2 28.2 -8.65 33.35 -8.65 33.35 -5.55 28.2 -5.55 28.2 -1.4 33.85 -1.4 33.85 0.1 18.95 0.1 M36.25 0.1 L36.25 -1.5 37.55 -1.5 Q38.35 -1.5 38.75 -2.5 L39.6 -4.65 39.1 -4.6 36.5 -4.6 36.5 -7.75 37.65 -7.75 Q38.3 -7.75 38.6 -8.6 L39.6 -11.35 43.5 -11.35 41.35 -6.3 41.05 -5.7 43.9 -5.7 41.45 0.0 41.45 0.1 36.25 0.1 M53.45 0.1 L53.45 -2.5 44.5 -2.5 44.5 -5.45 58.6 -5.45 58.6 -2.5 57.15 -2.5 57.15 0.1 53.45 0.1 M44.9 -10.85 L58.45 -10.85 58.45 -8.05 44.9 -8.05 44.9 -10.85 M63.4 0.1 L63.55 -0.75 61.35 -0.75 61.35 -3.95 71.85 -3.95 71.85 -0.75 66.95 -0.75 66.75 0.1 63.4 0.1 M61.85 -10.1 L71.35 -10.1 71.35 -6.85 61.85 -6.85 61.85 -10.1 M74.15 0.1 L74.55 -6.4 72.4 -6.4 72.4 -9.4 74.7 -9.4 74.85 -11.3 78.3 -11.3 78.15 -9.4 83.35 -9.4 83.35 0.1 80.0 0.1 80.0 -6.4 77.9 -6.4 77.45 0.1 74.15 0.1 M-74.0 0.1 L-74.0 -0.65 -72.55 -1.0 -72.55 -6.15 -74.0 -6.75 -74.0 -11.15 -72.55 -10.6 -72.55 -14.45 -61.45 -14.45 -61.45 -16.0 -57.0 -16.0 -57.0 -14.45 -46.65 -14.45 -46.65 -10.95 -68.8 -10.95 -68.8 0.1 -74.0 0.1 M-66.0 0.1 L-67.75 -5.1 -64.6 -5.1 -63.9 -3.05 -62.85 -6.35 -67.9 -6.35 -67.9 -9.65 -59.45 -9.65 -59.45 -6.15 -61.35 0.1 -66.0 0.1 M-58.75 0.1 L-58.75 -1.2 -59.65 -1.2 -59.65 -4.4 -59.45 -4.4 Q-59.0 -4.4 -58.75 -5.35 L-57.3 -10.1 -53.7 -10.1 -54.45 -7.9 -52.55 -7.9 -53.0 -10.1 -49.6 -10.1 -49.15 -7.9 -46.8 -7.9 -46.8 -5.1 -49.25 -5.1 -49.25 -2.5 -47.0 -2.5 -47.0 0.1 -58.75 0.1 M-52.65 -2.5 L-52.65 -5.1 -55.25 -5.1 -55.25 -2.5 -52.65 -2.5 M-43.65 0.1 L-43.65 -1.1 -42.1 -1.7 -42.1 -4.4 -43.65 -4.85 -43.65 -9.1 -42.1 -8.65 -42.1 -14.7 -31.45 -14.7 -31.45 -15.65 -26.9 -15.65 -26.9 -14.7 -16.65 -14.7 -16.65 -11.4 -38.45 -11.4 -38.45 0.1 -43.65 0.1 M-36.5 0.1 L-36.5 -4.75 -37.65 -4.75 -37.65 -7.75 -36.75 -7.75 Q-36.05 -7.75 -35.75 -8.55 L-34.7 -11.1 -30.75 -11.1 -31.2 -10.0 -19.6 -10.0 -19.6 -8.0 -21.0 -4.75 -18.1 -4.75 -18.1 0.1 -21.95 0.1 -21.95 -1.45 -25.6 -1.45 -25.6 0.1 -29.45 0.1 -29.45 -1.45 -32.85 -1.45 -32.85 0.1 -36.5 0.1 M-32.85 -6.3 Q-33.55 -4.8 -35.1 -4.75 L-25.25 -4.75 -24.3 -6.95 -32.6 -6.95 -32.85 -6.3" fill="#dbdbdb" fill-rule="evenodd" stroke="none"/>
    <path d="M8.7 0.1 L8.7 0.15 -4.35 0.15 -6.55 8.85 Q-7.05 11.1 -8.35 11.1 L-13.5 11.1 -13.5 8.15 -10.2 8.15 Q-9.85 8.15 -9.65 7.4 L-7.8 0.15 -13.5 0.15 -13.5 0.1 8.7 0.1 M18.4 0.1 L18.4 2.4 15.2 2.4 Q13.55 2.4 13.15 0.7 L13.0 0.1 18.4 0.1 M33.85 0.1 L33.85 1.7 27.3 1.7 23.75 7.9 29.25 7.9 Q29.85 7.9 29.85 7.4 L29.85 4.25 33.25 4.25 33.25 8.45 Q33.25 10.8 30.7 10.8 L19.5 10.8 19.5 8.15 23.05 1.7 18.95 1.7 18.95 0.1 33.85 0.1 M41.45 0.1 L41.45 11.0 37.9 11.0 37.9 1.65 36.25 1.65 36.25 0.1 41.45 0.1 M57.15 0.1 L57.15 8.15 Q57.15 11.0 53.65 11.0 L47.1 11.0 47.1 7.95 52.8 7.95 Q53.45 7.95 53.45 7.4 L53.45 0.1 57.15 0.1 M66.75 0.1 L64.95 7.95 67.6 7.95 Q68.2 7.95 68.2 7.45 L68.2 4.65 71.35 4.65 71.35 8.65 Q71.35 9.35 70.65 10.05 69.85 10.9 68.7 10.9 L61.6 10.9 61.6 8.75 61.8 7.2 63.4 0.1 66.75 0.1 M83.35 0.1 L83.35 8.35 Q83.35 10.9 80.4 10.9 L77.8 10.9 77.8 8.05 79.35 8.05 Q80.0 8.05 80.0 7.45 L80.0 0.1 83.35 0.1 M77.45 0.1 L76.95 7.4 Q76.7 11.1 75.4 11.1 L72.2 11.1 72.2 8.35 73.15 8.35 Q73.7 8.35 73.75 5.75 L74.15 0.1 77.45 0.1 M-68.8 0.1 L-68.8 8.75 Q-68.9 11.5 -71.5 11.55 L-73.65 11.55 -73.65 8.25 -72.8 8.25 Q-72.55 8.25 -72.55 7.65 L-72.55 3.2 -74.0 3.6 -74.0 0.1 -68.8 0.1 M-61.35 0.1 L-62.05 2.35 -60.25 7.45 Q-60.1 8.25 -59.45 8.25 L-59.25 8.25 -59.25 11.4 -61.05 11.4 Q-62.45 11.4 -62.85 9.65 L-63.6 7.4 -64.4 9.95 Q-64.85 11.55 -66.75 11.55 L-68.25 11.55 -68.25 8.4 -68.15 8.4 Q-67.4 8.4 -67.3 7.85 L-65.4 1.9 -66.0 0.1 -61.35 0.1 M-47.0 0.1 L-47.0 0.4 -49.25 0.4 -49.25 2.9 -47.0 2.9 -47.0 5.8 -49.25 5.8 -49.25 8.25 -46.8 8.25 -46.8 11.2 -55.25 11.2 -55.25 11.4 -58.75 11.4 -58.75 0.1 -47.0 0.1 M-38.45 0.1 L-38.45 9.1 Q-38.45 11.55 -40.9 11.55 L-43.4 11.55 -43.4 8.15 -42.8 8.15 Q-42.1 8.15 -42.1 7.45 L-42.1 2.5 -43.65 3.1 -43.65 0.1 -38.45 0.1 M-18.1 0.1 L-18.1 2.4 -16.8 2.4 -16.8 5.7 -24.55 5.7 -22.15 7.7 -20.65 8.05 -16.65 8.05 -16.65 11.35 -22.05 11.35 Q-24.25 11.35 -25.2 10.5 L-27.55 8.4 -30.25 10.55 Q-31.15 11.35 -33.0 11.35 L-37.9 11.35 -37.9 8.05 -34.5 8.05 -33.0 7.7 -30.5 5.7 -37.75 5.7 -37.75 2.4 -36.5 2.4 -36.5 0.1 -32.85 0.1 -32.85 2.4 -29.45 2.4 -29.45 0.1 -25.6 0.1 -25.6 2.4 -21.95 2.4 -21.95 0.1 -18.1 0.1 M-1.25 1.55 L2.35 1.55 2.35 7.8 Q2.35 8.25 3.1 8.25 L8.85 8.25 8.85 11.15 0.9 11.15 Q-1.25 11.15 -1.25 9.45 L-1.25 1.55 M-52.65 0.4 L-55.25 0.4 -55.25 2.9 -52.65 2.9 -52.65 0.4 M-55.25 5.8 L-55.25 8.25 -52.65 8.25 -52.65 5.8 -55.25 5.8 M11.95 11.0 L11.95 8.05 13.4 8.05 Q13.75 8.05 13.95 7.35 L14.7 3.7 18.2 3.7 16.95 9.1 Q16.45 11.0 14.6 11.0 L11.95 11.0" fill="#999999" fill-rule="evenodd" stroke="none"/>
  </g>
</svg>
