<?xml version="1.0" encoding="UTF-8" standalone="no"?>
<svg xmlns:xlink="http://www.w3.org/1999/xlink" height="33.6px" width="79.65px" xmlns="http://www.w3.org/2000/svg">
  <g transform="matrix(1.0, 0.0, 0.0, 1.0, -30.05, 0.05)">
    <path d="M90.45 15.65 L50.35 15.65" fill="none" stroke="#52e5f9" stroke-linecap="round" stroke-linejoin="round" stroke-opacity="0.4" stroke-width="0.2"/>
    <path d="M106.8 33.5 Q109.15 26.2 109.55 18.0 L109.65 15.65 109.65 14.9 Q109.7 7.1 107.95 0.0 M83.75 0.0 L85.3 1.55 Q90.6 7.45 90.45 15.3 L90.45 15.65 90.45 16.0 Q90.0 24.25 83.8 29.85 81.15 32.25 78.1 33.5 M95.95 33.5 Q98.8 26.1 99.25 17.55 L99.35 15.65 99.35 14.95 Q99.4 7.05 97.2 0.0 M91.65 33.5 Q94.9 26.05 95.3 17.3 L95.45 15.65 95.45 15.05 Q95.5 7.1 93.05 0.0 M47.25 0.0 Q45.25 5.95 44.9 12.65 L44.9 15.65 44.9 16.05 Q45.05 25.4 48.7 33.5 M62.75 33.5 Q58.7 31.85 55.5 28.35 50.6 22.9 50.35 15.7 L50.35 15.65 50.4 13.9 Q50.85 5.6 56.95 0.1 M44.35 33.5 Q41.1 25.35 40.95 16.0 L40.95 15.65 Q40.9 14.05 41.0 12.4 41.35 5.85 43.1 0.0 M32.95 33.5 Q30.25 25.25 30.1 16.1 L30.1 15.65 30.15 11.9 Q30.5 5.7 31.95 0.0" fill="none" stroke="#52e5f9" stroke-linecap="round" stroke-linejoin="round" stroke-opacity="0.40784314" stroke-width="0.1"/>
  </g>
</svg>
