<?xml version="1.0" encoding="UTF-8" standalone="no"?>
<svg xmlns:xlink="http://www.w3.org/1999/xlink" height="34.85px" width="162.65px" xmlns="http://www.w3.org/2000/svg">
  <g transform="matrix(1.0, 0.0, 0.0, 1.0, 79.75, 18.0)">
    <path d="M8.4 -10.0 L11.9 -10.0 12.5 -7.95 Q12.7 -7.2 13.3 -7.2 L14.65 -7.2 14.65 -4.25 11.65 -4.25 Q10.0 -4.25 9.6 -5.9 L8.4 -10.0 M-16.95 -0.9 L-16.95 -2.7 -10.5 -2.7 -9.3 -7.65 -16.1 -7.65 -16.1 -10.65 4.4 -10.65 4.4 -7.65 -5.75 -7.65 -7.0 -2.7 5.25 -2.7 5.25 -0.9 -16.95 -0.9 M9.15 -0.9 L8.5 -3.1 12.0 -3.1 12.6 -1.05 12.65 -0.9 9.15 -0.9 M15.5 -0.9 L15.5 -1.1 21.1 -1.1 21.1 -5.25 15.95 -5.25 15.95 -8.35 21.1 -8.35 21.1 -10.9 24.75 -10.9 24.75 -8.35 29.9 -8.35 29.9 -5.25 24.75 -5.25 24.75 -1.1 30.4 -1.1 30.4 -0.9 15.5 -0.9 M32.8 -0.9 L32.8 -1.2 34.1 -1.2 Q34.9 -1.2 35.3 -2.2 L36.15 -4.35 35.65 -4.3 33.05 -4.3 33.05 -7.45 34.2 -7.45 Q34.85 -7.45 35.15 -8.3 L36.15 -11.05 40.05 -11.05 37.9 -6.0 37.6 -5.4 40.45 -5.4 38.55 -0.9 32.8 -0.9 M41.45 -10.55 L55.0 -10.55 55.0 -7.75 41.45 -7.75 41.45 -10.55 M50.0 -0.9 L50.0 -2.2 41.05 -2.2 41.05 -5.15 55.15 -5.15 55.15 -2.2 53.7 -2.2 53.7 -0.9 50.0 -0.9 M68.4 -0.9 L57.9 -0.9 57.9 -3.65 68.4 -3.65 68.4 -0.9 M58.4 -9.8 L67.9 -9.8 67.9 -6.55 58.4 -6.55 58.4 -9.8 M70.75 -0.9 L71.1 -6.1 68.95 -6.1 68.95 -9.1 71.25 -9.1 71.4 -11.0 74.85 -11.0 74.7 -9.1 79.9 -9.1 79.9 -0.9 76.55 -0.9 76.55 -6.1 74.45 -6.1 74.1 -0.9 70.75 -0.9 M-67.3 -0.9 L-65.95 -8.8 -68.75 -8.8 -68.75 -12.9 -62.3 -12.9 -62.3 -15.0 -57.7 -15.0 -57.7 -0.9 -62.3 -0.9 -62.3 -6.25 -63.45 -0.9 -67.3 -0.9 M-71.55 -13.95 L-70.75 -9.75 Q-70.55 -8.8 -69.8 -8.8 L-68.85 -8.8 -68.85 -5.2 -71.9 -5.2 Q-73.95 -5.2 -74.5 -7.15 L-76.0 -13.95 -71.55 -13.95 M-73.75 -0.9 L-73.55 -2.7 -69.2 -2.7 -69.4 -0.9 -73.75 -0.9 M-42.35 -14.65 L-41.35 -9.75 Q-41.1 -8.8 -40.35 -8.8 L-38.95 -8.8 -38.95 -5.2 -42.5 -5.2 Q-44.4 -5.2 -44.95 -7.15 L-46.7 -14.65 -42.35 -14.65 M-53.85 -13.95 L-49.65 -13.95 -50.95 -10.15 Q-51.45 -8.8 -53.5 -8.8 L-56.65 -8.8 -56.65 -12.1 -54.95 -12.1 -54.45 -12.4 -53.85 -13.95 M-56.25 -0.9 L-56.9 -6.7 -52.7 -6.7 -52.0 -0.9 -56.25 -0.9 M-43.75 -0.9 L-43.55 -2.7 -39.35 -2.7 -39.55 -0.9 -43.75 -0.9 M-38.15 -0.9 L-38.15 -4.0 -36.4 -9.3 -38.6 -9.3 -38.6 -12.8 -35.25 -12.8 -34.5 -15.0 -30.4 -15.0 -31.15 -12.8 -20.0 -12.8 -20.0 -9.3 -32.3 -9.3 -34.05 -4.0 -31.0 -4.0 -31.0 -7.75 -26.9 -7.75 -26.9 -4.0 -19.75 -4.0 -19.75 -0.9 -38.15 -0.9" fill="#66ffff" fill-rule="evenodd" stroke="none"/>
    <path d="M5.25 -0.9 L5.25 0.45 -7.8 0.45 -10.0 9.15 Q-10.5 11.4 -11.8 11.4 L-16.95 11.4 -16.95 8.45 -13.65 8.45 Q-13.3 8.45 -13.1 7.7 L-11.25 0.45 -16.95 0.45 -16.95 -0.9 5.25 -0.9 M9.15 -0.9 L12.65 -0.9 Q12.85 -0.2 13.4 -0.2 L14.95 -0.2 14.95 2.7 11.75 2.7 Q10.1 2.7 9.7 1.0 L9.15 -0.9 M30.4 -0.9 L30.4 2.0 23.85 2.0 20.3 8.2 25.8 8.2 Q26.4 8.2 26.4 7.7 L26.4 4.55 29.8 4.55 29.8 8.75 Q29.8 11.1 27.25 11.1 L16.05 11.1 16.05 8.45 19.6 2.0 15.5 2.0 15.5 -0.9 30.4 -0.9 M38.55 -0.9 L38.0 0.3 38.0 11.3 34.45 11.3 34.45 1.95 32.8 1.95 32.8 -0.9 38.55 -0.9 M50.0 -0.9 L53.7 -0.9 53.7 8.45 Q53.7 11.3 50.2 11.3 L43.65 11.3 43.65 8.25 49.35 8.25 Q50.0 8.25 50.0 7.7 L50.0 -0.9 M68.4 -0.9 L68.4 -0.45 63.5 -0.45 61.5 8.25 64.15 8.25 Q64.75 8.25 64.75 7.75 L64.75 4.95 67.9 4.95 67.9 8.95 Q67.9 9.65 67.2 10.35 66.4 11.2 65.25 11.2 L58.15 11.2 58.15 9.05 58.35 7.5 60.1 -0.45 57.9 -0.45 57.9 -0.9 68.4 -0.9 M79.9 -0.9 L79.9 8.65 Q79.9 11.2 76.95 11.2 L74.35 11.2 74.35 8.35 75.9 8.35 Q76.55 8.35 76.55 7.75 L76.55 -0.9 79.9 -0.9 M74.1 -0.9 L73.5 7.7 Q73.25 11.4 71.95 11.4 L68.75 11.4 68.75 8.65 69.7 8.65 Q70.25 8.65 70.3 6.05 L70.75 -0.9 74.1 -0.9 M11.25 4.0 L14.75 4.0 13.5 9.4 Q13.0 11.3 11.15 11.3 L8.5 11.3 8.5 8.35 9.95 8.35 Q10.3 8.35 10.5 7.65 L11.25 4.0 M5.4 11.45 L-2.55 11.45 Q-4.7 11.45 -4.7 9.75 L-4.7 1.85 -1.1 1.85 -1.1 8.1 Q-1.1 8.55 -0.35 8.55 L5.4 8.55 5.4 11.45 M-57.7 -0.9 L-57.7 9.7 Q-57.7 11.85 -60.4 11.85 L-64.05 11.85 -64.05 8.15 -62.85 8.15 Q-62.3 8.15 -62.3 7.5 L-62.3 -0.9 -57.7 -0.9 M-63.45 -0.9 L-65.6 9.25 Q-65.95 11.0 -67.35 11.0 L-69.55 11.0 -69.55 7.25 -69.1 7.25 Q-68.65 7.25 -68.6 6.6 L-67.3 -0.9 -63.45 -0.9 M-69.4 -0.9 L-70.75 9.45 Q-71.05 11.85 -72.5 11.85 L-76.0 11.85 -76.0 8.15 -75.4 8.15 Q-74.85 8.15 -74.75 6.75 L-73.75 -0.9 -69.4 -0.9 M-52.0 -0.9 L-51.05 7.15 -50.7 7.6 -49.85 7.6 -49.85 11.0 -52.35 11.0 Q-55.05 11.0 -55.25 8.55 L-56.25 -0.9 -52.0 -0.9 M-39.55 -0.9 L-40.65 9.45 Q-40.95 11.85 -42.25 11.85 L-46.85 11.85 -46.85 8.15 -45.2 8.15 Q-44.65 8.15 -44.6 6.75 L-43.75 -0.9 -39.55 -0.9 M-19.75 -0.9 L-19.75 -0.5 -26.9 -0.5 -26.9 10.05 Q-26.9 11.9 -29.35 11.9 L-32.85 11.9 -32.85 8.65 -31.6 8.65 Q-31.0 8.65 -31.0 8.1 L-31.0 -0.5 -38.15 -0.5 -38.15 -0.9 -19.75 -0.9 M-19.65 7.6 L-19.65 11.25 -21.85 11.25 Q-23.8 11.25 -24.35 9.25 L-25.85 1.25 -21.6 1.25 -20.8 6.65 Q-20.6 7.6 -19.85 7.6 L-19.65 7.6 M-38.0 7.6 Q-37.65 7.6 -37.4 6.55 L-36.5 1.25 -32.45 1.25 -33.85 8.65 Q-34.45 11.25 -36.6 11.25 L-39.35 11.25 -39.35 7.6 -38.0 7.6" fill="#00ffff" fill-rule="evenodd" stroke="none"/>
    <path d="M8.4 -10.0 L11.9 -10.0 12.5 -7.95 Q12.7 -7.2 13.3 -7.2 L14.65 -7.2 14.65 -4.25 11.65 -4.25 Q10.0 -4.25 9.6 -5.9 L8.4 -10.0 M41.45 -10.55 L55.0 -10.55 55.0 -7.75 41.45 -7.75 41.45 -10.55 M58.4 -9.8 L67.9 -9.8 67.9 -6.55 58.4 -6.55 58.4 -9.8 M11.25 4.0 L14.75 4.0 13.5 9.4 Q13.0 11.3 11.15 11.3 L8.5 11.3 8.5 8.35 9.95 8.35 Q10.3 8.35 10.5 7.65 L11.25 4.0 M5.4 11.45 L-2.55 11.45 Q-4.7 11.45 -4.7 9.75 L-4.7 1.85 -1.1 1.85 -1.1 8.1 Q-1.1 8.55 -0.35 8.55 L5.4 8.55 5.4 11.45 M-71.55 -13.95 L-70.75 -9.75 Q-70.55 -8.8 -69.8 -8.8 L-68.85 -8.8 -68.85 -5.2 -71.9 -5.2 Q-73.95 -5.2 -74.5 -7.15 L-76.0 -13.95 -71.55 -13.95 M-42.35 -14.65 L-41.35 -9.75 Q-41.1 -8.8 -40.35 -8.8 L-38.95 -8.8 -38.95 -5.2 -42.5 -5.2 Q-44.4 -5.2 -44.95 -7.15 L-46.7 -14.65 -42.35 -14.65 M-53.85 -13.95 L-49.65 -13.95 -50.95 -10.15 Q-51.45 -8.8 -53.5 -8.8 L-56.65 -8.8 -56.65 -12.1 -54.95 -12.1 -54.45 -12.4 -53.85 -13.95 M-19.65 7.6 L-19.65 11.25 -21.85 11.25 Q-23.8 11.25 -24.35 9.25 L-25.85 1.25 -21.6 1.25 -20.8 6.65 Q-20.6 7.6 -19.85 7.6 L-19.65 7.6 M-38.0 7.6 Q-37.65 7.6 -37.4 6.55 L-36.5 1.25 -32.45 1.25 -33.85 8.65 Q-34.45 11.25 -36.6 11.25 L-39.35 11.25 -39.35 7.6 -38.0 7.6" fill="none" stroke="#ffffff" stroke-linecap="butt" stroke-linejoin="miter-clip" stroke-miterlimit="3.0" stroke-width="6.0"/>
    <path d="M-16.95 -0.9 L-16.95 -2.7 -10.5 -2.7 -9.3 -7.65 -16.1 -7.65 -16.1 -10.65 4.4 -10.65 4.4 -7.65 -5.75 -7.65 -7.0 -2.7 5.25 -2.7 5.25 -0.9 5.25 0.45 -7.8 0.45 -10.0 9.15 Q-10.5 11.4 -11.8 11.4 L-16.95 11.4 -16.95 8.45 -13.65 8.45 Q-13.3 8.45 -13.1 7.7 L-11.25 0.45 -16.95 0.45 -16.95 -0.9 5.25 -0.9 M12.65 -0.9 L12.6 -1.05 12.0 -3.1 8.5 -3.1 9.15 -0.9 12.65 -0.9 Q12.85 -0.2 13.4 -0.2 L14.95 -0.2 14.95 2.7 11.75 2.7 Q10.1 2.7 9.7 1.0 L9.15 -0.9 M15.5 -0.9 L15.5 -1.1 21.1 -1.1 21.1 -5.25 15.95 -5.25 15.95 -8.35 21.1 -8.35 21.1 -10.9 24.75 -10.9 24.75 -8.35 29.9 -8.35 29.9 -5.25 24.75 -5.25 24.75 -1.1 30.4 -1.1 30.4 -0.9 30.4 2.0 23.85 2.0 20.3 8.2 25.8 8.2 Q26.4 8.2 26.4 7.7 L26.4 4.55 29.8 4.55 29.8 8.75 Q29.8 11.1 27.25 11.1 L16.05 11.1 16.05 8.45 19.6 2.0 15.5 2.0 15.5 -0.9 30.4 -0.9 M32.8 -0.9 L32.8 -1.2 34.1 -1.2 Q34.9 -1.2 35.3 -2.2 L36.15 -4.35 35.65 -4.3 33.05 -4.3 33.05 -7.45 34.2 -7.45 Q34.85 -7.45 35.15 -8.3 L36.15 -11.05 40.05 -11.05 37.9 -6.0 37.6 -5.4 40.45 -5.4 38.55 -0.9 38.0 0.3 38.0 11.3 34.45 11.3 34.45 1.95 32.8 1.95 32.8 -0.9 38.55 -0.9 M53.7 -0.9 L53.7 -2.2 55.15 -2.2 55.15 -5.15 41.05 -5.15 41.05 -2.2 50.0 -2.2 50.0 -0.9 53.7 -0.9 53.7 8.45 Q53.7 11.3 50.2 11.3 L43.65 11.3 43.65 8.25 49.35 8.25 Q50.0 8.25 50.0 7.7 L50.0 -0.9 M57.9 -0.9 L57.9 -0.45 60.1 -0.45 58.35 7.5 58.15 9.05 58.15 11.2 65.25 11.2 Q66.4 11.2 67.2 10.35 67.9 9.65 67.9 8.95 L67.9 4.95 64.75 4.95 64.75 7.75 Q64.75 8.25 64.15 8.25 L61.5 8.25 63.5 -0.45 68.4 -0.45 68.4 -0.9 57.9 -0.9 57.9 -3.65 68.4 -3.65 68.4 -0.9 M70.75 -0.9 L71.1 -6.1 68.95 -6.1 68.95 -9.1 71.25 -9.1 71.4 -11.0 74.85 -11.0 74.7 -9.1 79.9 -9.1 79.9 -0.9 79.9 8.65 Q79.9 11.2 76.95 11.2 L74.35 11.2 74.35 8.35 75.9 8.35 Q76.55 8.35 76.55 7.75 L76.55 -0.9 76.55 -6.1 74.45 -6.1 74.1 -0.9 73.5 7.7 Q73.25 11.4 71.95 11.4 L68.75 11.4 68.75 8.65 69.7 8.65 Q70.25 8.65 70.3 6.05 L70.75 -0.9 74.1 -0.9 M79.9 -0.9 L76.55 -0.9 M-67.3 -0.9 L-65.95 -8.8 -68.75 -8.8 -68.75 -12.9 -62.3 -12.9 -62.3 -15.0 -57.7 -15.0 -57.7 -0.9 -57.7 9.7 Q-57.7 11.85 -60.4 11.85 L-64.05 11.85 -64.05 8.15 -62.85 8.15 Q-62.3 8.15 -62.3 7.5 L-62.3 -0.9 -62.3 -6.25 -63.45 -0.9 -65.6 9.25 Q-65.95 11.0 -67.35 11.0 L-69.55 11.0 -69.55 7.25 -69.1 7.25 Q-68.65 7.25 -68.6 6.6 L-67.3 -0.9 -63.45 -0.9 M-73.75 -0.9 L-73.55 -2.7 -69.2 -2.7 -69.4 -0.9 -70.75 9.45 Q-71.05 11.85 -72.5 11.85 L-76.0 11.85 -76.0 8.15 -75.4 8.15 Q-74.85 8.15 -74.75 6.75 L-73.75 -0.9 -69.4 -0.9 M-56.25 -0.9 L-56.9 -6.7 -52.7 -6.7 -52.0 -0.9 -51.05 7.15 -50.7 7.6 -49.85 7.6 -49.85 11.0 -52.35 11.0 Q-55.05 11.0 -55.25 8.55 L-56.25 -0.9 -52.0 -0.9 M-43.75 -0.9 L-43.55 -2.7 -39.35 -2.7 -39.55 -0.9 -40.65 9.45 Q-40.95 11.85 -42.25 11.85 L-46.85 11.85 -46.85 8.15 -45.2 8.15 Q-44.65 8.15 -44.6 6.75 L-43.75 -0.9 -39.55 -0.9 M-57.7 -0.9 L-62.3 -0.9 M-38.15 -0.9 L-38.15 -4.0 -36.4 -9.3 -38.6 -9.3 -38.6 -12.8 -35.25 -12.8 -34.5 -15.0 -30.4 -15.0 -31.15 -12.8 -20.0 -12.8 -20.0 -9.3 -32.3 -9.3 -34.05 -4.0 -31.0 -4.0 -31.0 -7.75 -26.9 -7.75 -26.9 -4.0 -19.75 -4.0 -19.75 -0.9 -19.75 -0.5 -26.9 -0.5 -26.9 10.05 Q-26.9 11.9 -29.35 11.9 L-32.85 11.9 -32.85 8.65 -31.6 8.65 Q-31.0 8.65 -31.0 8.1 L-31.0 -0.5 -38.15 -0.5 -38.15 -0.9 -19.75 -0.9" fill="none" stroke="#ffffff" stroke-linecap="round" stroke-linejoin="miter-clip" stroke-miterlimit="3.0" stroke-width="6.0"/>
    <path d="M8.4 -10.0 L11.9 -10.0 12.5 -7.95 Q12.7 -7.2 13.3 -7.2 L14.65 -7.2 14.65 -4.25 11.65 -4.25 Q10.0 -4.25 9.6 -5.9 L8.4 -10.0 M-16.95 -0.9 L-16.95 -2.7 -10.5 -2.7 -9.3 -7.65 -16.1 -7.65 -16.1 -10.65 4.4 -10.65 4.4 -7.65 -5.75 -7.65 -7.0 -2.7 5.25 -2.7 5.25 -0.9 -16.95 -0.9 M9.15 -0.9 L8.5 -3.1 12.0 -3.1 12.6 -1.05 12.65 -0.9 9.15 -0.9 M15.5 -0.9 L15.5 -1.1 21.1 -1.1 21.1 -5.25 15.95 -5.25 15.95 -8.35 21.1 -8.35 21.1 -10.9 24.75 -10.9 24.75 -8.35 29.9 -8.35 29.9 -5.25 24.75 -5.25 24.75 -1.1 30.4 -1.1 30.4 -0.9 15.5 -0.9 M32.8 -0.9 L32.8 -1.2 34.1 -1.2 Q34.9 -1.2 35.3 -2.2 L36.15 -4.35 35.65 -4.3 33.05 -4.3 33.05 -7.45 34.2 -7.45 Q34.85 -7.45 35.15 -8.3 L36.15 -11.05 40.05 -11.05 37.9 -6.0 37.6 -5.4 40.45 -5.4 38.55 -0.9 32.8 -0.9 M41.45 -10.55 L55.0 -10.55 55.0 -7.75 41.45 -7.75 41.45 -10.55 M50.0 -0.9 L50.0 -2.2 41.05 -2.2 41.05 -5.15 55.15 -5.15 55.15 -2.2 53.7 -2.2 53.7 -0.9 50.0 -0.9 M68.4 -0.9 L57.9 -0.9 57.9 -3.65 68.4 -3.65 68.4 -0.9 M58.4 -9.8 L67.9 -9.8 67.9 -6.55 58.4 -6.55 58.4 -9.8 M70.75 -0.9 L71.1 -6.1 68.95 -6.1 68.95 -9.1 71.25 -9.1 71.4 -11.0 74.85 -11.0 74.7 -9.1 79.9 -9.1 79.9 -0.9 76.55 -0.9 76.55 -6.1 74.45 -6.1 74.1 -0.9 70.75 -0.9 M-67.3 -0.9 L-65.95 -8.8 -68.75 -8.8 -68.75 -12.9 -62.3 -12.9 -62.3 -15.0 -57.7 -15.0 -57.7 -0.9 -62.3 -0.9 -62.3 -6.25 -63.45 -0.9 -67.3 -0.9 M-71.55 -13.95 L-70.75 -9.75 Q-70.55 -8.8 -69.8 -8.8 L-68.85 -8.8 -68.85 -5.2 -71.9 -5.2 Q-73.95 -5.2 -74.5 -7.15 L-76.0 -13.95 -71.55 -13.95 M-73.75 -0.9 L-73.55 -2.7 -69.2 -2.7 -69.4 -0.9 -73.75 -0.9 M-42.35 -14.65 L-41.35 -9.75 Q-41.1 -8.8 -40.35 -8.8 L-38.95 -8.8 -38.95 -5.2 -42.5 -5.2 Q-44.4 -5.2 -44.95 -7.15 L-46.7 -14.65 -42.35 -14.65 M-53.85 -13.95 L-49.65 -13.95 -50.95 -10.15 Q-51.45 -8.8 -53.5 -8.8 L-56.65 -8.8 -56.65 -12.1 -54.95 -12.1 -54.45 -12.4 -53.85 -13.95 M-56.25 -0.9 L-56.9 -6.7 -52.7 -6.7 -52.0 -0.9 -56.25 -0.9 M-43.75 -0.9 L-43.55 -2.7 -39.35 -2.7 -39.55 -0.9 -43.75 -0.9 M-38.15 -0.9 L-38.15 -4.0 -36.4 -9.3 -38.6 -9.3 -38.6 -12.8 -35.25 -12.8 -34.5 -15.0 -30.4 -15.0 -31.15 -12.8 -20.0 -12.8 -20.0 -9.3 -32.3 -9.3 -34.05 -4.0 -31.0 -4.0 -31.0 -7.75 -26.9 -7.75 -26.9 -4.0 -19.75 -4.0 -19.75 -0.9 -38.15 -0.9" fill="#66ffff" fill-rule="evenodd" stroke="none"/>
    <path d="M5.25 -0.9 L5.25 0.45 -7.8 0.45 -10.0 9.15 Q-10.5 11.4 -11.8 11.4 L-16.95 11.4 -16.95 8.45 -13.65 8.45 Q-13.3 8.45 -13.1 7.7 L-11.25 0.45 -16.95 0.45 -16.95 -0.9 5.25 -0.9 M12.65 -0.9 Q12.85 -0.2 13.4 -0.2 L14.95 -0.2 14.95 2.7 11.75 2.7 Q10.1 2.7 9.7 1.0 L9.15 -0.9 12.65 -0.9 M30.4 -0.9 L30.4 2.0 23.85 2.0 20.3 8.2 25.8 8.2 Q26.4 8.2 26.4 7.7 L26.4 4.55 29.8 4.55 29.8 8.75 Q29.8 11.1 27.25 11.1 L16.05 11.1 16.05 8.45 19.6 2.0 15.5 2.0 15.5 -0.9 30.4 -0.9 M38.55 -0.9 L38.0 0.3 38.0 11.3 34.45 11.3 34.45 1.95 32.8 1.95 32.8 -0.9 38.55 -0.9 M53.7 -0.9 L53.7 8.45 Q53.7 11.3 50.2 11.3 L43.65 11.3 43.65 8.25 49.35 8.25 Q50.0 8.25 50.0 7.7 L50.0 -0.9 53.7 -0.9 M68.4 -0.9 L68.4 -0.45 63.5 -0.45 61.5 8.25 64.15 8.25 Q64.75 8.25 64.75 7.75 L64.75 4.95 67.9 4.95 67.9 8.95 Q67.9 9.65 67.2 10.35 66.4 11.2 65.25 11.2 L58.15 11.2 58.15 9.05 58.35 7.5 60.1 -0.45 57.9 -0.45 57.9 -0.9 68.4 -0.9 M79.9 -0.9 L79.9 8.65 Q79.9 11.2 76.95 11.2 L74.35 11.2 74.35 8.35 75.9 8.35 Q76.55 8.35 76.55 7.75 L76.55 -0.9 79.9 -0.9 M74.1 -0.9 L73.5 7.7 Q73.25 11.4 71.95 11.4 L68.75 11.4 68.75 8.65 69.7 8.65 Q70.25 8.65 70.3 6.05 L70.75 -0.9 74.1 -0.9 M11.25 4.0 L14.75 4.0 13.5 9.4 Q13.0 11.3 11.15 11.3 L8.5 11.3 8.5 8.35 9.95 8.35 Q10.3 8.35 10.5 7.65 L11.25 4.0 M5.4 11.45 L-2.55 11.45 Q-4.7 11.45 -4.7 9.75 L-4.7 1.85 -1.1 1.85 -1.1 8.1 Q-1.1 8.55 -0.35 8.55 L5.4 8.55 5.4 11.45 M-57.7 -0.9 L-57.7 9.7 Q-57.7 11.85 -60.4 11.85 L-64.05 11.85 -64.05 8.15 -62.85 8.15 Q-62.3 8.15 -62.3 7.5 L-62.3 -0.9 -57.7 -0.9 M-63.45 -0.9 L-65.6 9.25 Q-65.95 11.0 -67.35 11.0 L-69.55 11.0 -69.55 7.25 -69.1 7.25 Q-68.65 7.25 -68.6 6.6 L-67.3 -0.9 -63.45 -0.9 M-69.4 -0.9 L-70.75 9.45 Q-71.05 11.85 -72.5 11.85 L-76.0 11.85 -76.0 8.15 -75.4 8.15 Q-74.85 8.15 -74.75 6.75 L-73.75 -0.9 -69.4 -0.9 M-52.0 -0.9 L-51.05 7.15 -50.7 7.6 -49.85 7.6 -49.85 11.0 -52.35 11.0 Q-55.05 11.0 -55.25 8.55 L-56.25 -0.9 -52.0 -0.9 M-39.55 -0.9 L-40.65 9.45 Q-40.95 11.85 -42.25 11.85 L-46.85 11.85 -46.85 8.15 -45.2 8.15 Q-44.65 8.15 -44.6 6.75 L-43.75 -0.9 -39.55 -0.9 M-19.75 -0.9 L-19.75 -0.5 -26.9 -0.5 -26.9 10.05 Q-26.9 11.9 -29.35 11.9 L-32.85 11.9 -32.85 8.65 -31.6 8.65 Q-31.0 8.65 -31.0 8.1 L-31.0 -0.5 -38.15 -0.5 -38.15 -0.9 -19.75 -0.9 M-19.65 7.6 L-19.65 11.25 -21.85 11.25 Q-23.8 11.25 -24.35 9.25 L-25.85 1.25 -21.6 1.25 -20.8 6.65 Q-20.6 7.6 -19.85 7.6 L-19.65 7.6 M-38.0 7.6 Q-37.65 7.6 -37.4 6.55 L-36.5 1.25 -32.45 1.25 -33.85 8.65 Q-34.45 11.25 -36.6 11.25 L-39.35 11.25 -39.35 7.6 -38.0 7.6" fill="#00ffff" fill-rule="evenodd" stroke="none"/>
    <path d="M8.4 -10.0 L11.9 -10.0 12.5 -7.95 Q12.7 -7.2 13.3 -7.2 L14.65 -7.2 14.65 -4.25 11.65 -4.25 Q10.0 -4.25 9.6 -5.9 L8.4 -10.0 M41.45 -10.55 L55.0 -10.55 55.0 -7.75 41.45 -7.75 41.45 -10.55 M58.4 -9.8 L67.9 -9.8 67.9 -6.55 58.4 -6.55 58.4 -9.8 M11.25 4.0 L14.75 4.0 13.5 9.4 Q13.0 11.3 11.15 11.3 L8.5 11.3 8.5 8.35 9.95 8.35 Q10.3 8.35 10.5 7.65 L11.25 4.0 M5.4 11.45 L-2.55 11.45 Q-4.7 11.45 -4.7 9.75 L-4.7 1.85 -1.1 1.85 -1.1 8.1 Q-1.1 8.55 -0.35 8.55 L5.4 8.55 5.4 11.45 M-71.55 -13.95 L-70.75 -9.75 Q-70.55 -8.8 -69.8 -8.8 L-68.85 -8.8 -68.85 -5.2 -71.9 -5.2 Q-73.95 -5.2 -74.5 -7.15 L-76.0 -13.95 -71.55 -13.95 M-42.35 -14.65 L-41.35 -9.75 Q-41.1 -8.8 -40.35 -8.8 L-38.95 -8.8 -38.95 -5.2 -42.5 -5.2 Q-44.4 -5.2 -44.95 -7.15 L-46.7 -14.65 -42.35 -14.65 M-53.85 -13.95 L-49.65 -13.95 -50.95 -10.15 Q-51.45 -8.8 -53.5 -8.8 L-56.65 -8.8 -56.65 -12.1 -54.95 -12.1 -54.45 -12.4 -53.85 -13.95 M-19.65 7.6 L-19.65 11.25 -21.85 11.25 Q-23.8 11.25 -24.35 9.25 L-25.85 1.25 -21.6 1.25 -20.8 6.65 Q-20.6 7.6 -19.85 7.6 L-19.65 7.6 M-38.0 7.6 Q-37.65 7.6 -37.4 6.55 L-36.5 1.25 -32.45 1.25 -33.85 8.65 Q-34.45 11.25 -36.6 11.25 L-39.35 11.25 -39.35 7.6 -38.0 7.6" fill="none" stroke="#000066" stroke-linecap="butt" stroke-linejoin="miter-clip" stroke-miterlimit="3.0" stroke-width="3.0"/>
    <path d="M-16.95 -0.9 L-16.95 -2.7 -10.5 -2.7 -9.3 -7.65 -16.1 -7.65 -16.1 -10.65 4.4 -10.65 4.4 -7.65 -5.75 -7.65 -7.0 -2.7 5.25 -2.7 5.25 -0.9 5.25 0.45 -7.8 0.45 -10.0 9.15 Q-10.5 11.4 -11.8 11.4 L-16.95 11.4 -16.95 8.45 -13.65 8.45 Q-13.3 8.45 -13.1 7.7 L-11.25 0.45 -16.95 0.45 -16.95 -0.9 5.25 -0.9 M9.15 -0.9 L8.5 -3.1 12.0 -3.1 12.6 -1.05 12.65 -0.9 Q12.85 -0.2 13.4 -0.2 L14.95 -0.2 14.95 2.7 11.75 2.7 Q10.1 2.7 9.7 1.0 L9.15 -0.9 12.65 -0.9 M15.5 -0.9 L15.5 -1.1 21.1 -1.1 21.1 -5.25 15.95 -5.25 15.95 -8.35 21.1 -8.35 21.1 -10.9 24.75 -10.9 24.75 -8.35 29.9 -8.35 29.9 -5.25 24.75 -5.25 24.75 -1.1 30.4 -1.1 30.4 -0.9 30.4 2.0 23.85 2.0 20.3 8.2 25.8 8.2 Q26.4 8.2 26.4 7.7 L26.4 4.55 29.8 4.55 29.8 8.75 Q29.8 11.1 27.25 11.1 L16.05 11.1 16.05 8.45 19.6 2.0 15.5 2.0 15.5 -0.9 30.4 -0.9 M32.8 -0.9 L32.8 -1.2 34.1 -1.2 Q34.9 -1.2 35.3 -2.2 L36.15 -4.35 35.65 -4.3 33.05 -4.3 33.05 -7.45 34.2 -7.45 Q34.85 -7.45 35.15 -8.3 L36.15 -11.05 40.05 -11.05 37.9 -6.0 37.6 -5.4 40.45 -5.4 38.55 -0.9 38.0 0.3 38.0 11.3 34.45 11.3 34.45 1.95 32.8 1.95 32.8 -0.9 38.55 -0.9 M50.0 -0.9 L50.0 -2.2 41.05 -2.2 41.05 -5.15 55.15 -5.15 55.15 -2.2 53.7 -2.2 53.7 -0.9 53.7 8.45 Q53.7 11.3 50.2 11.3 L43.65 11.3 43.65 8.25 49.35 8.25 Q50.0 8.25 50.0 7.7 L50.0 -0.9 53.7 -0.9 M57.9 -0.9 L57.9 -0.45 60.1 -0.45 58.35 7.5 58.15 9.05 58.15 11.2 65.25 11.2 Q66.4 11.2 67.2 10.35 67.9 9.65 67.9 8.95 L67.9 4.95 64.75 4.95 64.75 7.75 Q64.75 8.25 64.15 8.25 L61.5 8.25 63.5 -0.45 68.4 -0.45 68.4 -0.9 57.9 -0.9 57.9 -3.65 68.4 -3.65 68.4 -0.9 M70.75 -0.9 L71.1 -6.1 68.95 -6.1 68.95 -9.1 71.25 -9.1 71.4 -11.0 74.85 -11.0 74.7 -9.1 79.9 -9.1 79.9 -0.9 79.9 8.65 Q79.9 11.2 76.95 11.2 L74.35 11.2 74.35 8.35 75.9 8.35 Q76.55 8.35 76.55 7.75 L76.55 -0.9 76.55 -6.1 74.45 -6.1 74.1 -0.9 73.5 7.7 Q73.25 11.4 71.95 11.4 L68.75 11.4 68.75 8.65 69.7 8.65 Q70.25 8.65 70.3 6.05 L70.75 -0.9 74.1 -0.9 M79.9 -0.9 L76.55 -0.9 M-67.3 -0.9 L-65.95 -8.8 -68.75 -8.8 -68.75 -12.9 -62.3 -12.9 -62.3 -15.0 -57.7 -15.0 -57.7 -0.9 -57.7 9.7 Q-57.7 11.85 -60.4 11.85 L-64.05 11.85 -64.05 8.15 -62.85 8.15 Q-62.3 8.15 -62.3 7.5 L-62.3 -0.9 -62.3 -6.25 -63.45 -0.9 -65.6 9.25 Q-65.95 11.0 -67.35 11.0 L-69.55 11.0 -69.55 7.25 -69.1 7.25 Q-68.65 7.25 -68.6 6.6 L-67.3 -0.9 -63.45 -0.9 M-73.75 -0.9 L-73.55 -2.7 -69.2 -2.7 -69.4 -0.9 -70.75 9.45 Q-71.05 11.85 -72.5 11.85 L-76.0 11.85 -76.0 8.15 -75.4 8.15 Q-74.85 8.15 -74.75 6.75 L-73.75 -0.9 -69.4 -0.9 M-56.25 -0.9 L-56.9 -6.7 -52.7 -6.7 -52.0 -0.9 -51.05 7.15 -50.7 7.6 -49.85 7.6 -49.85 11.0 -52.35 11.0 Q-55.05 11.0 -55.25 8.55 L-56.25 -0.9 -52.0 -0.9 M-43.75 -0.9 L-43.55 -2.7 -39.35 -2.7 -39.55 -0.9 -40.65 9.45 Q-40.95 11.85 -42.25 11.85 L-46.85 11.85 -46.85 8.15 -45.2 8.15 Q-44.65 8.15 -44.6 6.75 L-43.75 -0.9 -39.55 -0.9 M-57.7 -0.9 L-62.3 -0.9 M-38.15 -0.9 L-38.15 -4.0 -36.4 -9.3 -38.6 -9.3 -38.6 -12.8 -35.25 -12.8 -34.5 -15.0 -30.4 -15.0 -31.15 -12.8 -20.0 -12.8 -20.0 -9.3 -32.3 -9.3 -34.05 -4.0 -31.0 -4.0 -31.0 -7.75 -26.9 -7.75 -26.9 -4.0 -19.75 -4.0 -19.75 -0.9 -19.75 -0.5 -26.9 -0.5 -26.9 10.05 Q-26.9 11.9 -29.35 11.9 L-32.85 11.9 -32.85 8.65 -31.6 8.65 Q-31.0 8.65 -31.0 8.1 L-31.0 -0.5 -38.15 -0.5 -38.15 -0.9 -19.75 -0.9" fill="none" stroke="#000066" stroke-linecap="round" stroke-linejoin="miter-clip" stroke-miterlimit="3.0" stroke-width="3.0"/>
    <path d="M-16.95 -0.9 L-16.95 -2.7 -10.5 -2.7 -9.3 -7.65 -16.1 -7.65 -16.1 -10.65 4.4 -10.65 4.4 -7.65 -5.75 -7.65 -7.0 -2.7 5.25 -2.7 5.25 -0.9 -16.95 -0.9 M9.15 -0.9 L8.5 -3.1 12.0 -3.1 12.6 -1.05 12.65 -0.9 9.15 -0.9 M8.4 -10.0 L11.9 -10.0 12.5 -7.95 Q12.7 -7.2 13.3 -7.2 L14.65 -7.2 14.65 -4.25 11.65 -4.25 Q10.0 -4.25 9.6 -5.9 L8.4 -10.0 M15.5 -0.9 L15.5 -1.1 21.1 -1.1 21.1 -5.25 15.95 -5.25 15.95 -8.35 21.1 -8.35 21.1 -10.9 24.75 -10.9 24.75 -8.35 29.9 -8.35 29.9 -5.25 24.75 -5.25 24.75 -1.1 30.4 -1.1 30.4 -0.9 15.5 -0.9 M32.8 -0.9 L32.8 -1.2 34.1 -1.2 Q34.9 -1.2 35.3 -2.2 L36.15 -4.35 35.65 -4.3 33.05 -4.3 33.05 -7.45 34.2 -7.45 Q34.85 -7.45 35.15 -8.3 L36.15 -11.05 40.05 -11.05 37.9 -6.0 37.6 -5.4 40.45 -5.4 38.55 -0.9 32.8 -0.9 M50.0 -0.9 L50.0 -2.2 41.05 -2.2 41.05 -5.15 55.15 -5.15 55.15 -2.2 53.7 -2.2 53.7 -0.9 50.0 -0.9 M41.45 -10.55 L55.0 -10.55 55.0 -7.75 41.45 -7.75 41.45 -10.55 M57.9 -0.9 L57.9 -3.65 68.4 -3.65 68.4 -0.9 57.9 -0.9 M58.4 -9.8 L67.9 -9.8 67.9 -6.55 58.4 -6.55 58.4 -9.8 M70.75 -0.9 L71.1 -6.1 68.95 -6.1 68.95 -9.1 71.25 -9.1 71.4 -11.0 74.85 -11.0 74.7 -9.1 79.9 -9.1 79.9 -0.9 76.55 -0.9 76.55 -6.1 74.45 -6.1 74.1 -0.9 70.75 -0.9 M-67.3 -0.9 L-65.95 -8.8 -68.75 -8.8 -68.75 -12.9 -62.3 -12.9 -62.3 -15.0 -57.7 -15.0 -57.7 -0.9 -62.3 -0.9 -62.3 -6.25 -63.45 -0.9 -67.3 -0.9 M-71.55 -13.95 L-70.75 -9.75 Q-70.55 -8.8 -69.8 -8.8 L-68.85 -8.8 -68.85 -5.2 -71.9 -5.2 Q-73.95 -5.2 -74.5 -7.15 L-76.0 -13.95 -71.55 -13.95 M-73.75 -0.9 L-73.55 -2.7 -69.2 -2.7 -69.4 -0.9 -73.75 -0.9 M-42.35 -14.65 L-41.35 -9.75 Q-41.1 -8.8 -40.35 -8.8 L-38.95 -8.8 -38.95 -5.2 -42.5 -5.2 Q-44.4 -5.2 -44.95 -7.15 L-46.7 -14.65 -42.35 -14.65 M-53.85 -13.95 L-49.65 -13.95 -50.95 -10.15 Q-51.45 -8.8 -53.5 -8.8 L-56.65 -8.8 -56.65 -12.1 -54.95 -12.1 -54.45 -12.4 -53.85 -13.95 M-56.25 -0.9 L-56.9 -6.7 -52.7 -6.7 -52.0 -0.9 -56.25 -0.9 M-43.75 -0.9 L-43.55 -2.7 -39.35 -2.7 -39.55 -0.9 -43.75 -0.9 M-38.15 -0.9 L-38.15 -4.0 -36.4 -9.3 -38.6 -9.3 -38.6 -12.8 -35.25 -12.8 -34.5 -15.0 -30.4 -15.0 -31.15 -12.8 -20.0 -12.8 -20.0 -9.3 -32.3 -9.3 -34.05 -4.0 -31.0 -4.0 -31.0 -7.75 -26.9 -7.75 -26.9 -4.0 -19.75 -4.0 -19.75 -0.9 -38.15 -0.9" fill="#66ffff" fill-rule="evenodd" stroke="none"/>
    <path d="M5.25 -0.9 L5.25 0.45 -7.8 0.45 -10.0 9.15 Q-10.5 11.4 -11.8 11.4 L-16.95 11.4 -16.95 8.45 -13.65 8.45 Q-13.3 8.45 -13.1 7.7 L-11.25 0.45 -16.95 0.45 -16.95 -0.9 5.25 -0.9 M12.65 -0.9 Q12.85 -0.2 13.4 -0.2 L14.95 -0.2 14.95 2.7 11.75 2.7 Q10.1 2.7 9.7 1.0 L9.15 -0.9 12.65 -0.9 M30.4 -0.9 L30.4 2.0 23.85 2.0 20.3 8.2 25.8 8.2 Q26.4 8.2 26.4 7.7 L26.4 4.55 29.8 4.55 29.8 8.75 Q29.8 11.1 27.25 11.1 L16.05 11.1 16.05 8.45 19.6 2.0 15.5 2.0 15.5 -0.9 30.4 -0.9 M38.55 -0.9 L38.0 0.3 38.0 11.3 34.45 11.3 34.45 1.95 32.8 1.95 32.8 -0.9 38.55 -0.9 M53.7 -0.9 L53.7 8.45 Q53.7 11.3 50.2 11.3 L43.65 11.3 43.65 8.25 49.35 8.25 Q50.0 8.25 50.0 7.7 L50.0 -0.9 53.7 -0.9 M68.4 -0.9 L68.4 -0.45 63.5 -0.45 61.5 8.25 64.15 8.25 Q64.75 8.25 64.75 7.75 L64.75 4.95 67.9 4.95 67.9 8.95 Q67.9 9.65 67.2 10.35 66.4 11.2 65.25 11.2 L58.15 11.2 58.15 9.05 58.35 7.5 60.1 -0.45 57.9 -0.45 57.9 -0.9 68.4 -0.9 M79.9 -0.9 L79.9 8.65 Q79.9 11.2 76.95 11.2 L74.35 11.2 74.35 8.35 75.9 8.35 Q76.55 8.35 76.55 7.75 L76.55 -0.9 79.9 -0.9 M74.1 -0.9 L73.5 7.7 Q73.25 11.4 71.95 11.4 L68.75 11.4 68.75 8.65 69.7 8.65 Q70.25 8.65 70.3 6.05 L70.75 -0.9 74.1 -0.9 M13.5 9.4 Q13.0 11.3 11.15 11.3 L8.5 11.3 8.5 8.35 9.95 8.35 Q10.3 8.35 10.5 7.65 L11.25 4.0 14.75 4.0 13.5 9.4 M5.4 11.45 L-2.55 11.45 Q-4.7 11.45 -4.7 9.75 L-4.7 1.85 -1.1 1.85 -1.1 8.1 Q-1.1 8.55 -0.35 8.55 L5.4 8.55 5.4 11.45 M-57.7 -0.9 L-57.7 9.7 Q-57.7 11.85 -60.4 11.85 L-64.05 11.85 -64.05 8.15 -62.85 8.15 Q-62.3 8.15 -62.3 7.5 L-62.3 -0.9 -57.7 -0.9 M-63.45 -0.9 L-65.6 9.25 Q-65.95 11.0 -67.35 11.0 L-69.55 11.0 -69.55 7.25 -69.1 7.25 Q-68.65 7.25 -68.6 6.6 L-67.3 -0.9 -63.45 -0.9 M-69.4 -0.9 L-70.75 9.45 Q-71.05 11.85 -72.5 11.85 L-76.0 11.85 -76.0 8.15 -75.4 8.15 Q-74.85 8.15 -74.75 6.75 L-73.75 -0.9 -69.4 -0.9 M-52.0 -0.9 L-51.05 7.15 -50.7 7.6 -49.85 7.6 -49.85 11.0 -52.35 11.0 Q-55.05 11.0 -55.25 8.55 L-56.25 -0.9 -52.0 -0.9 M-39.55 -0.9 L-40.65 9.45 Q-40.95 11.85 -42.25 11.85 L-46.85 11.85 -46.85 8.15 -45.2 8.15 Q-44.65 8.15 -44.6 6.75 L-43.75 -0.9 -39.55 -0.9 M-19.75 -0.9 L-19.75 -0.5 -26.9 -0.5 -26.9 10.05 Q-26.9 11.9 -29.35 11.9 L-32.85 11.9 -32.85 8.65 -31.6 8.65 Q-31.0 8.65 -31.0 8.1 L-31.0 -0.5 -38.15 -0.5 -38.15 -0.9 -19.75 -0.9 M-19.65 7.6 L-19.65 11.25 -21.85 11.25 Q-23.8 11.25 -24.35 9.25 L-25.85 1.25 -21.6 1.25 -20.8 6.65 Q-20.6 7.6 -19.85 7.6 L-19.65 7.6 M-37.4 6.55 L-36.5 1.25 -32.45 1.25 -33.85 8.65 Q-34.45 11.25 -36.6 11.25 L-39.35 11.25 -39.35 7.6 -38.0 7.6 Q-37.65 7.6 -37.4 6.55" fill="#00ffff" fill-rule="evenodd" stroke="none"/>
  </g>
</svg>
