<?xml version="1.0" encoding="UTF-8" standalone="no"?>
<svg xmlns:xlink="http://www.w3.org/1999/xlink" height="33.6px" width="142.75px" xmlns="http://www.w3.org/2000/svg">
  <g transform="matrix(1.0, 0.0, 0.0, 1.0, 0.1, 0.05)">
    <path d="M129.15 15.65 L120.35 15.65 115.95 15.65 90.45 15.65 50.35 15.65 24.9 15.65 20.45 15.65 11.6 15.65 0.0 15.65 M129.15 15.65 L142.55 15.65" fill="none" stroke="#52e5f9" stroke-linecap="round" stroke-linejoin="round" stroke-opacity="0.4" stroke-width="0.2"/>
    <path d="M129.15 15.65 L129.15 14.9 Q129.2 7.1 127.45 0.0 M126.3 33.5 Q128.65 26.2 129.05 18.0 L129.15 15.65 M120.35 15.65 L120.25 17.55 Q119.8 26.1 116.95 33.5 M120.35 15.65 L120.35 14.95 Q120.4 7.05 118.2 0.0 M112.15 33.5 Q115.4 26.05 115.8 17.3 L115.95 15.65 115.95 15.05 Q116.0 7.1 113.55 0.0 M90.45 15.65 L90.45 16.0 Q90.0 24.25 83.8 29.85 81.15 32.25 78.1 33.5 M83.75 0.0 L85.3 1.55 Q90.6 7.45 90.45 15.3 L90.45 15.65 M50.35 15.65 L50.35 15.7 Q50.6 22.9 55.5 28.35 58.7 31.85 62.75 33.5 M50.35 15.65 L50.4 13.9 Q50.85 5.6 56.95 0.1 M20.45 15.65 Q20.4 14.05 20.5 12.4 20.85 5.85 22.6 0.0 M20.45 15.65 L20.45 16.0 Q20.6 25.35 23.85 33.5 M28.7 33.5 Q25.05 25.4 24.9 16.05 L24.9 15.65 24.9 12.65 Q25.25 5.95 27.25 0.0 M11.6 15.65 L11.6 16.1 Q11.75 25.25 14.45 33.5 M11.6 15.65 L11.65 11.9 Q12.0 5.7 13.45 0.0" fill="none" stroke="#52e5f9" stroke-linecap="round" stroke-linejoin="round" stroke-opacity="0.40784314" stroke-width="0.1"/>
  </g>
</svg>
