<?xml version="1.0" encoding="UTF-8" standalone="no"?>
<svg xmlns:xlink="http://www.w3.org/1999/xlink" height="34.9px" width="162.35px" xmlns="http://www.w3.org/2000/svg">
  <g transform="matrix(1.0, 0.0, 0.0, 1.0, 77.0, 17.0)">
    <path d="M-14.5 0.4 L-14.5 -1.7 -8.05 -1.7 -6.85 -6.65 -13.65 -6.65 -13.65 -9.65 6.85 -9.65 6.85 -6.65 -3.3 -6.65 -4.55 -1.7 7.7 -1.7 7.7 0.4 -14.5 0.4 M17.1 -6.2 L17.1 -3.25 14.1 -3.25 Q12.45 -3.25 12.05 -4.9 L10.85 -9.0 14.35 -9.0 14.95 -6.95 Q15.15 -6.2 15.75 -6.2 L17.1 -6.2 M11.7 0.4 L10.95 -2.1 14.45 -2.1 15.05 -0.05 15.25 0.4 11.7 0.4 M17.95 0.4 L17.95 -0.1 23.55 -0.1 23.55 -4.25 18.4 -4.25 18.4 -7.35 23.55 -7.35 23.55 -9.9 27.2 -9.9 27.2 -7.35 32.35 -7.35 32.35 -4.25 27.2 -4.25 27.2 -0.1 32.85 -0.1 32.85 0.4 17.95 0.4 M35.25 0.4 L35.25 -0.2 36.55 -0.2 Q37.35 -0.2 37.75 -1.2 L38.6 -3.35 38.1 -3.3 35.5 -3.3 35.5 -6.45 36.65 -6.45 Q37.3 -6.45 37.6 -7.3 L38.6 -10.05 42.5 -10.05 40.35 -5.0 40.05 -4.4 42.9 -4.4 40.85 0.4 35.25 0.4 M43.9 -9.55 L57.45 -9.55 57.45 -6.75 43.9 -6.75 43.9 -9.55 M52.45 0.4 L52.45 -1.2 43.5 -1.2 43.5 -4.15 57.6 -4.15 57.6 -1.2 56.15 -1.2 56.15 0.4 52.45 0.4 M60.85 -5.55 L60.85 -8.8 70.35 -8.8 70.35 -5.55 60.85 -5.55 M73.2 0.4 L73.55 -5.1 71.4 -5.1 71.4 -8.1 73.7 -8.1 73.85 -10.0 77.3 -10.0 77.15 -8.1 82.35 -8.1 82.35 0.4 79.0 0.4 79.0 -5.1 76.9 -5.1 76.55 0.4 73.2 0.4 M60.35 0.4 L60.35 -2.65 70.85 -2.65 70.85 0.4 60.35 0.4 M-70.4 -9.6 L-70.4 -5.85 -68.05 -5.85 -68.05 -9.6 -70.4 -9.6 M-68.05 0.4 L-68.05 -2.4 -70.4 -2.4 -70.4 0.4 -74.0 0.4 -74.0 -13.2 -64.4 -13.2 -64.4 0.4 -68.05 0.4 M-64.05 0.4 L-64.05 -1.85 -62.55 -1.85 -62.55 -4.85 -63.85 -4.85 -63.85 -8.05 -57.5 -8.05 -57.5 -9.8 -63.0 -9.8 -63.0 -12.95 -52.1 -12.95 Q-51.4 -12.95 -51.4 -13.55 L-51.4 -14.0 -47.4 -14.0 -47.4 -12.85 Q-47.4 -9.8 -51.15 -9.8 L-53.75 -9.8 -53.75 -8.05 -47.65 -8.05 -47.65 -4.85 -48.75 -4.85 -48.75 -1.85 -47.3 -1.85 -47.3 0.4 -64.05 0.4 M-57.5 -1.85 L-57.5 -4.85 -59.0 -4.85 -59.0 -1.85 -57.5 -1.85 M-52.25 -4.85 L-53.75 -4.85 -53.75 -1.85 -52.25 -1.85 -52.25 -4.85 M-40.05 -6.25 L-37.5 -6.25 -37.5 -10.4 -40.05 -10.4 -40.05 -6.25 M-37.5 0.4 L-37.5 -2.75 -40.05 -2.75 -40.05 0.4 -43.9 0.4 -43.9 -13.75 -33.75 -13.75 -33.75 0.4 -37.5 0.4 M-28.55 -10.5 L-28.55 -6.15 -22.5 -6.15 Q-21.75 -6.15 -21.75 -6.75 L-21.75 -10.5 -28.55 -10.5 M-25.8 0.4 L-26.45 -2.65 -28.55 -2.65 -28.55 0.4 -32.4 0.4 -32.4 -14.0 -17.75 -14.0 -17.75 -5.1 Q-17.75 -2.65 -20.35 -2.65 L-22.25 -2.65 -21.65 0.4 -25.8 0.4" fill="#99ff99" fill-rule="evenodd" stroke="none"/>
    <path d="M7.7 0.4 L7.7 1.45 -5.35 1.45 -7.55 10.15 Q-8.05 12.4 -9.35 12.4 L-14.5 12.4 -14.5 9.45 -11.2 9.45 Q-10.85 9.45 -10.65 8.7 L-8.8 1.45 -14.5 1.45 -14.5 0.4 7.7 0.4 M15.25 0.4 L15.45 0.65 15.85 0.8 17.4 0.8 17.4 3.7 14.2 3.7 Q12.55 3.7 12.15 2.0 L11.7 0.4 15.25 0.4 M32.85 0.4 L32.85 3.0 26.3 3.0 22.75 9.2 28.25 9.2 Q28.85 9.2 28.85 8.7 L28.85 5.55 32.25 5.55 32.25 9.75 Q32.25 12.1 29.7 12.1 L18.5 12.1 18.5 9.45 22.05 3.0 17.95 3.0 17.95 0.4 32.85 0.4 M40.85 0.4 L40.45 1.3 40.45 12.3 36.9 12.3 36.9 2.95 35.25 2.95 35.25 0.4 40.85 0.4 M56.15 0.4 L56.15 9.45 Q56.15 12.3 52.65 12.3 L46.1 12.3 46.1 9.25 51.8 9.25 Q52.45 9.25 52.45 8.7 L52.45 0.4 56.15 0.4 M82.35 0.4 L82.35 9.65 Q82.35 12.2 79.4 12.2 L76.8 12.2 76.8 9.35 78.35 9.35 Q79.0 9.35 79.0 8.75 L79.0 0.4 82.35 0.4 M76.55 0.4 L75.95 8.7 Q75.7 12.4 74.4 12.4 L71.2 12.4 71.2 9.65 72.15 9.65 Q72.7 9.65 72.75 7.05 L73.2 0.4 76.55 0.4 M70.85 0.4 L70.85 0.55 65.95 0.55 63.95 9.25 66.6 9.25 Q67.2 9.25 67.2 8.75 L67.2 5.95 70.35 5.95 70.35 9.95 Q70.35 10.65 69.65 11.35 68.85 12.2 67.7 12.2 L60.6 12.2 60.6 10.05 60.8 8.5 62.55 0.55 60.35 0.55 60.35 0.4 70.85 0.4 M-68.05 0.4 L-64.4 0.4 -64.4 9.4 Q-64.4 12.5 -67.0 12.5 L-74.0 12.5 -74.0 0.4 -70.4 0.4 -70.4 1.35 -68.05 1.35 -68.05 0.4 M-47.3 0.4 L-47.3 1.35 -48.75 1.35 -48.75 4.6 -47.65 4.6 -47.65 7.8 -53.75 7.8 -53.75 9.65 -48.15 9.65 -48.15 12.9 -63.35 12.9 -63.35 9.65 -57.5 9.65 -57.5 7.8 -63.85 7.8 -63.85 4.6 -62.55 4.6 -62.55 1.35 -64.05 1.35 -64.05 0.4 -47.3 0.4 M-37.5 0.4 L-33.75 0.4 -33.75 10.0 Q-33.75 12.6 -36.5 12.6 L-43.9 12.6 -43.9 0.4 -40.05 0.4 -40.05 1.35 -37.5 1.35 -37.5 0.4 M-25.8 0.4 L-21.65 0.4 -21.5 1.1 -18.0 1.1 -18.0 4.75 -20.8 4.75 -20.15 8.25 Q-19.9 9.3 -19.15 9.3 L-17.65 9.3 -17.65 13.05 -21.15 13.05 Q-23.1 13.05 -23.65 10.95 L-24.9 4.75 -28.55 4.75 -28.55 8.75 Q-28.55 9.4 -27.85 9.4 L-25.65 9.4 -25.65 13.05 -29.85 13.05 Q-32.4 13.05 -32.4 10.35 L-32.4 0.4 -28.55 0.4 -28.55 1.1 -25.65 1.1 -25.8 0.4 M-2.25 2.85 L1.35 2.85 1.35 9.1 Q1.35 9.55 2.1 9.55 L7.85 9.55 7.85 12.45 -0.1 12.45 Q-2.25 12.45 -2.25 10.75 L-2.25 2.85 M-40.05 4.85 L-40.05 9.1 -38.4 9.1 Q-37.5 9.1 -37.5 8.25 L-37.5 4.85 -40.05 4.85 M-52.25 1.35 L-53.75 1.35 -53.75 4.6 -52.25 4.6 -52.25 1.35 M-57.5 1.35 L-59.0 1.35 -59.0 4.6 -57.5 4.6 -57.5 1.35 M-70.4 4.75 L-70.4 8.85 -68.75 8.85 Q-68.05 8.85 -68.05 7.65 L-68.05 4.75 -70.4 4.75 M12.95 8.65 L13.7 5.0 17.2 5.0 15.95 10.4 Q15.45 12.3 13.6 12.3 L10.95 12.3 10.95 9.35 12.4 9.35 12.95 8.65" fill="#59ff59" fill-rule="evenodd" stroke="none"/>
    <path d="M17.1 -6.2 L17.1 -3.25 14.1 -3.25 Q12.45 -3.25 12.05 -4.9 L10.85 -9.0 14.35 -9.0 14.95 -6.95 Q15.15 -6.2 15.75 -6.2 L17.1 -6.2 M43.9 -9.55 L57.45 -9.55 57.45 -6.75 43.9 -6.75 43.9 -9.55 M60.85 -5.55 L60.85 -8.8 70.35 -8.8 70.35 -5.55 60.85 -5.55 M-70.4 -9.6 L-70.4 -5.85 -68.05 -5.85 -68.05 -9.6 -70.4 -9.6 M-57.5 -1.85 L-57.5 -4.85 -59.0 -4.85 -59.0 -1.85 -57.5 -1.85 M-52.25 -4.85 L-53.75 -4.85 -53.75 -1.85 -52.25 -1.85 -52.25 -4.85 M-40.05 -6.25 L-37.5 -6.25 -37.5 -10.4 -40.05 -10.4 -40.05 -6.25 M-28.55 -10.5 L-28.55 -6.15 -22.5 -6.15 Q-21.75 -6.15 -21.75 -6.75 L-21.75 -10.5 -28.55 -10.5 M-2.25 2.85 L1.35 2.85 1.35 9.1 Q1.35 9.55 2.1 9.55 L7.85 9.55 7.85 12.45 -0.1 12.45 Q-2.25 12.45 -2.25 10.75 L-2.25 2.85 M-40.05 4.85 L-40.05 9.1 -38.4 9.1 Q-37.5 9.1 -37.5 8.25 L-37.5 4.85 -40.05 4.85 M-52.25 1.35 L-53.75 1.35 -53.75 4.6 -52.25 4.6 -52.25 1.35 M-57.5 1.35 L-59.0 1.35 -59.0 4.6 -57.5 4.6 -57.5 1.35 M-70.4 4.75 L-70.4 8.85 -68.75 8.85 Q-68.05 8.85 -68.05 7.65 L-68.05 4.75 -70.4 4.75 M12.95 8.65 L13.7 5.0 17.2 5.0 15.95 10.4 Q15.45 12.3 13.6 12.3 L10.95 12.3 10.95 9.35 12.4 9.35 12.95 8.65" fill="none" stroke="#ffffff" stroke-linecap="butt" stroke-linejoin="miter-clip" stroke-miterlimit="3.0" stroke-width="6.0"/>
    <path d="M-14.5 0.4 L-14.5 -1.7 -8.05 -1.7 -6.85 -6.65 -13.65 -6.65 -13.65 -9.65 6.85 -9.65 6.85 -6.65 -3.3 -6.65 -4.55 -1.7 7.7 -1.7 7.7 0.4 7.7 1.45 -5.35 1.45 -7.55 10.15 Q-8.05 12.4 -9.35 12.4 L-14.5 12.4 -14.5 9.45 -11.2 9.45 Q-10.85 9.45 -10.65 8.7 L-8.8 1.45 -14.5 1.45 -14.5 0.4 7.7 0.4 M11.7 0.4 L10.95 -2.1 14.45 -2.1 15.05 -0.05 15.25 0.4 15.45 0.65 15.85 0.8 17.4 0.8 17.4 3.7 14.2 3.7 Q12.55 3.7 12.15 2.0 L11.7 0.4 15.25 0.4 M17.95 0.4 L17.95 -0.1 23.55 -0.1 23.55 -4.25 18.4 -4.25 18.4 -7.35 23.55 -7.35 23.55 -9.9 27.2 -9.9 27.2 -7.35 32.35 -7.35 32.35 -4.25 27.2 -4.25 27.2 -0.1 32.85 -0.1 32.85 0.4 32.85 3.0 26.3 3.0 22.75 9.2 28.25 9.2 Q28.85 9.2 28.85 8.7 L28.85 5.55 32.25 5.55 32.25 9.75 Q32.25 12.1 29.7 12.1 L18.5 12.1 18.5 9.45 22.05 3.0 17.95 3.0 17.95 0.4 32.85 0.4 M35.25 0.4 L35.25 -0.2 36.55 -0.2 Q37.35 -0.2 37.75 -1.2 L38.6 -3.35 38.1 -3.3 35.5 -3.3 35.5 -6.45 36.65 -6.45 Q37.3 -6.45 37.6 -7.3 L38.6 -10.05 42.5 -10.05 40.35 -5.0 40.05 -4.4 42.9 -4.4 40.85 0.4 40.45 1.3 40.45 12.3 36.9 12.3 36.9 2.95 35.25 2.95 35.25 0.4 40.85 0.4 M52.45 0.4 L52.45 -1.2 43.5 -1.2 43.5 -4.15 57.6 -4.15 57.6 -1.2 56.15 -1.2 56.15 0.4 56.15 9.45 Q56.15 12.3 52.65 12.3 L46.1 12.3 46.1 9.25 51.8 9.25 Q52.45 9.25 52.45 8.7 L52.45 0.4 56.15 0.4 M73.2 0.4 L73.55 -5.1 71.4 -5.1 71.4 -8.1 73.7 -8.1 73.85 -10.0 77.3 -10.0 77.15 -8.1 82.35 -8.1 82.35 0.4 82.35 9.65 Q82.35 12.2 79.4 12.2 L76.8 12.2 76.8 9.35 78.35 9.35 Q79.0 9.35 79.0 8.75 L79.0 0.4 79.0 -5.1 76.9 -5.1 76.55 0.4 75.95 8.7 Q75.7 12.4 74.4 12.4 L71.2 12.4 71.2 9.65 72.15 9.65 Q72.7 9.65 72.75 7.05 L73.2 0.4 76.55 0.4 M60.35 0.4 L60.35 -2.65 70.85 -2.65 70.85 0.4 70.85 0.55 65.95 0.55 63.95 9.25 66.6 9.25 Q67.2 9.25 67.2 8.75 L67.2 5.95 70.35 5.95 70.35 9.95 Q70.35 10.65 69.65 11.35 68.85 12.2 67.7 12.2 L60.6 12.2 60.6 10.05 60.8 8.5 62.55 0.55 60.35 0.55 60.35 0.4 70.85 0.4 M-70.4 0.4 L-70.4 -2.4 -68.05 -2.4 -68.05 0.4 -64.4 0.4 -64.4 -13.2 -74.0 -13.2 -74.0 0.4 -70.4 0.4 -70.4 1.35 -68.05 1.35 -68.05 0.4 M-64.05 0.4 L-64.05 -1.85 -62.55 -1.85 -62.55 -4.85 -63.85 -4.85 -63.85 -8.05 -57.5 -8.05 -57.5 -9.8 -63.0 -9.8 -63.0 -12.95 -52.1 -12.95 Q-51.4 -12.95 -51.4 -13.55 L-51.4 -14.0 -47.4 -14.0 -47.4 -12.85 Q-47.4 -9.8 -51.15 -9.8 L-53.75 -9.8 -53.75 -8.05 -47.65 -8.05 -47.65 -4.85 -48.75 -4.85 -48.75 -1.85 -47.3 -1.85 -47.3 0.4 -47.3 1.35 -48.75 1.35 -48.75 4.6 -47.65 4.6 -47.65 7.8 -53.75 7.8 -53.75 9.65 -48.15 9.65 -48.15 12.9 -63.35 12.9 -63.35 9.65 -57.5 9.65 -57.5 7.8 -63.85 7.8 -63.85 4.6 -62.55 4.6 -62.55 1.35 -64.05 1.35 -64.05 0.4 -47.3 0.4 M-40.05 0.4 L-40.05 -2.75 -37.5 -2.75 -37.5 0.4 -33.75 0.4 -33.75 -13.75 -43.9 -13.75 -43.9 0.4 -40.05 0.4 -40.05 1.35 -37.5 1.35 -37.5 0.4 M-28.55 0.4 L-28.55 -2.65 -26.45 -2.65 -25.8 0.4 -21.65 0.4 -22.25 -2.65 -20.35 -2.65 Q-17.75 -2.65 -17.75 -5.1 L-17.75 -14.0 -32.4 -14.0 -32.4 0.4 -28.55 0.4 -28.55 1.1 -25.65 1.1 -25.8 0.4 M-21.65 0.4 L-21.5 1.1 -18.0 1.1 -18.0 4.75 -20.8 4.75 -20.15 8.25 Q-19.9 9.3 -19.15 9.3 L-17.65 9.3 -17.65 13.05 -21.15 13.05 Q-23.1 13.05 -23.65 10.95 L-24.9 4.75 -28.55 4.75 -28.55 8.75 Q-28.55 9.4 -27.85 9.4 L-25.65 9.4 -25.65 13.05 -29.85 13.05 Q-32.4 13.05 -32.4 10.35 L-32.4 0.4 M-33.75 0.4 L-33.75 10.0 Q-33.75 12.6 -36.5 12.6 L-43.9 12.6 -43.9 0.4 M-64.4 0.4 L-64.4 9.4 Q-64.4 12.5 -67.0 12.5 L-74.0 12.5 -74.0 0.4 M82.35 0.4 L79.0 0.4" fill="none" stroke="#ffffff" stroke-linecap="round" stroke-linejoin="miter-clip" stroke-miterlimit="3.0" stroke-width="6.0"/>
    <path d="M-14.5 0.4 L-14.5 -1.7 -8.05 -1.7 -6.85 -6.65 -13.65 -6.65 -13.65 -9.65 6.85 -9.65 6.85 -6.65 -3.3 -6.65 -4.55 -1.7 7.7 -1.7 7.7 0.4 -14.5 0.4 M17.1 -6.2 L17.1 -3.25 14.1 -3.25 Q12.45 -3.25 12.05 -4.9 L10.85 -9.0 14.35 -9.0 14.95 -6.95 Q15.15 -6.2 15.75 -6.2 L17.1 -6.2 M11.7 0.4 L10.95 -2.1 14.45 -2.1 15.05 -0.05 15.25 0.4 11.7 0.4 M17.95 0.4 L17.95 -0.1 23.55 -0.1 23.55 -4.25 18.4 -4.25 18.4 -7.35 23.55 -7.35 23.55 -9.9 27.2 -9.9 27.2 -7.35 32.35 -7.35 32.35 -4.25 27.2 -4.25 27.2 -0.1 32.85 -0.1 32.85 0.4 17.95 0.4 M35.25 0.4 L35.25 -0.2 36.55 -0.2 Q37.35 -0.2 37.75 -1.2 L38.6 -3.35 38.1 -3.3 35.5 -3.3 35.5 -6.45 36.65 -6.45 Q37.3 -6.45 37.6 -7.3 L38.6 -10.05 42.5 -10.05 40.35 -5.0 40.05 -4.4 42.9 -4.4 40.85 0.4 35.25 0.4 M43.9 -9.55 L57.45 -9.55 57.45 -6.75 43.9 -6.75 43.9 -9.55 M52.45 0.4 L52.45 -1.2 43.5 -1.2 43.5 -4.15 57.6 -4.15 57.6 -1.2 56.15 -1.2 56.15 0.4 52.45 0.4 M60.85 -5.55 L60.85 -8.8 70.35 -8.8 70.35 -5.55 60.85 -5.55 M73.2 0.4 L73.55 -5.1 71.4 -5.1 71.4 -8.1 73.7 -8.1 73.85 -10.0 77.3 -10.0 77.15 -8.1 82.35 -8.1 82.35 0.4 79.0 0.4 79.0 -5.1 76.9 -5.1 76.55 0.4 73.2 0.4 M60.35 0.4 L60.35 -2.65 70.85 -2.65 70.85 0.4 60.35 0.4 M-70.4 -9.6 L-70.4 -5.85 -68.05 -5.85 -68.05 -9.6 -70.4 -9.6 M-68.05 0.4 L-68.05 -2.4 -70.4 -2.4 -70.4 0.4 -74.0 0.4 -74.0 -13.2 -64.4 -13.2 -64.4 0.4 -68.05 0.4 M-64.05 0.4 L-64.05 -1.85 -62.55 -1.85 -62.55 -4.85 -63.85 -4.85 -63.85 -8.05 -57.5 -8.05 -57.5 -9.8 -63.0 -9.8 -63.0 -12.95 -52.1 -12.95 Q-51.4 -12.95 -51.4 -13.55 L-51.4 -14.0 -47.4 -14.0 -47.4 -12.85 Q-47.4 -9.8 -51.15 -9.8 L-53.75 -9.8 -53.75 -8.05 -47.65 -8.05 -47.65 -4.85 -48.75 -4.85 -48.75 -1.85 -47.3 -1.85 -47.3 0.4 -64.05 0.4 M-57.5 -1.85 L-57.5 -4.85 -59.0 -4.85 -59.0 -1.85 -57.5 -1.85 M-52.25 -4.85 L-53.75 -4.85 -53.75 -1.85 -52.25 -1.85 -52.25 -4.85 M-40.05 -6.25 L-37.5 -6.25 -37.5 -10.4 -40.05 -10.4 -40.05 -6.25 M-37.5 0.4 L-37.5 -2.75 -40.05 -2.75 -40.05 0.4 -43.9 0.4 -43.9 -13.75 -33.75 -13.75 -33.75 0.4 -37.5 0.4 M-28.55 -10.5 L-28.55 -6.15 -22.5 -6.15 Q-21.75 -6.15 -21.75 -6.75 L-21.75 -10.5 -28.55 -10.5 M-25.8 0.4 L-26.45 -2.65 -28.55 -2.65 -28.55 0.4 -32.4 0.4 -32.4 -14.0 -17.75 -14.0 -17.75 -5.1 Q-17.75 -2.65 -20.35 -2.65 L-22.25 -2.65 -21.65 0.4 -25.8 0.4" fill="#99ff99" fill-rule="evenodd" stroke="none"/>
    <path d="M7.7 0.4 L7.7 1.45 -5.35 1.45 -7.55 10.15 Q-8.05 12.4 -9.35 12.4 L-14.5 12.4 -14.5 9.45 -11.2 9.45 Q-10.85 9.45 -10.65 8.7 L-8.8 1.45 -14.5 1.45 -14.5 0.4 7.7 0.4 M15.25 0.4 L15.45 0.65 15.85 0.8 17.4 0.8 17.4 3.7 14.2 3.7 Q12.55 3.7 12.15 2.0 L11.7 0.4 15.25 0.4 M32.85 0.4 L32.85 3.0 26.3 3.0 22.75 9.2 28.25 9.2 Q28.85 9.2 28.85 8.7 L28.85 5.55 32.25 5.55 32.25 9.75 Q32.25 12.1 29.7 12.1 L18.5 12.1 18.5 9.45 22.05 3.0 17.95 3.0 17.95 0.4 32.85 0.4 M40.85 0.4 L40.45 1.3 40.45 12.3 36.9 12.3 36.9 2.95 35.25 2.95 35.25 0.4 40.85 0.4 M56.15 0.4 L56.15 9.45 Q56.15 12.3 52.65 12.3 L46.1 12.3 46.1 9.25 51.8 9.25 Q52.45 9.25 52.45 8.7 L52.45 0.4 56.15 0.4 M82.35 0.4 L82.35 9.65 Q82.35 12.2 79.4 12.2 L76.8 12.2 76.8 9.35 78.35 9.35 Q79.0 9.35 79.0 8.75 L79.0 0.4 82.35 0.4 M76.55 0.4 L75.95 8.7 Q75.7 12.4 74.4 12.4 L71.2 12.4 71.2 9.65 72.15 9.65 Q72.7 9.65 72.75 7.05 L73.2 0.4 76.55 0.4 M70.85 0.4 L70.85 0.55 65.95 0.55 63.95 9.25 66.6 9.25 Q67.2 9.25 67.2 8.75 L67.2 5.95 70.35 5.95 70.35 9.95 Q70.35 10.65 69.65 11.35 68.85 12.2 67.7 12.2 L60.6 12.2 60.6 10.05 60.8 8.5 62.55 0.55 60.35 0.55 60.35 0.4 70.85 0.4 M-68.05 0.4 L-64.4 0.4 -64.4 9.4 Q-64.4 12.5 -67.0 12.5 L-74.0 12.5 -74.0 0.4 -70.4 0.4 -70.4 1.35 -68.05 1.35 -68.05 0.4 M-47.3 0.4 L-47.3 1.35 -48.75 1.35 -48.75 4.6 -47.65 4.6 -47.65 7.8 -53.75 7.8 -53.75 9.65 -48.15 9.65 -48.15 12.9 -63.35 12.9 -63.35 9.65 -57.5 9.65 -57.5 7.8 -63.85 7.8 -63.85 4.6 -62.55 4.6 -62.55 1.35 -64.05 1.35 -64.05 0.4 -47.3 0.4 M-37.5 0.4 L-33.75 0.4 -33.75 10.0 Q-33.75 12.6 -36.5 12.6 L-43.9 12.6 -43.9 0.4 -40.05 0.4 -40.05 1.35 -37.5 1.35 -37.5 0.4 M-25.8 0.4 L-21.65 0.4 -21.5 1.1 -18.0 1.1 -18.0 4.75 -20.8 4.75 -20.15 8.25 Q-19.9 9.3 -19.15 9.3 L-17.65 9.3 -17.65 13.05 -21.15 13.05 Q-23.1 13.05 -23.65 10.95 L-24.9 4.75 -28.55 4.75 -28.55 8.75 Q-28.55 9.4 -27.85 9.4 L-25.65 9.4 -25.65 13.05 -29.85 13.05 Q-32.4 13.05 -32.4 10.35 L-32.4 0.4 -28.55 0.4 -28.55 1.1 -25.65 1.1 -25.8 0.4 M-2.25 2.85 L1.35 2.85 1.35 9.1 Q1.35 9.55 2.1 9.55 L7.85 9.55 7.85 12.45 -0.1 12.45 Q-2.25 12.45 -2.25 10.75 L-2.25 2.85 M-40.05 4.85 L-40.05 9.1 -38.4 9.1 Q-37.5 9.1 -37.5 8.25 L-37.5 4.85 -40.05 4.85 M-52.25 1.35 L-53.75 1.35 -53.75 4.6 -52.25 4.6 -52.25 1.35 M-57.5 1.35 L-59.0 1.35 -59.0 4.6 -57.5 4.6 -57.5 1.35 M-70.4 4.75 L-70.4 8.85 -68.75 8.85 Q-68.05 8.85 -68.05 7.65 L-68.05 4.75 -70.4 4.75 M12.95 8.65 L13.7 5.0 17.2 5.0 15.95 10.4 Q15.45 12.3 13.6 12.3 L10.95 12.3 10.95 9.35 12.4 9.35 12.95 8.65" fill="#59ff59" fill-rule="evenodd" stroke="none"/>
    <path d="M17.1 -6.2 L17.1 -3.25 14.1 -3.25 Q12.45 -3.25 12.05 -4.9 L10.85 -9.0 14.35 -9.0 14.95 -6.95 Q15.15 -6.2 15.75 -6.2 L17.1 -6.2 M43.9 -9.55 L57.45 -9.55 57.45 -6.75 43.9 -6.75 43.9 -9.55 M60.85 -5.55 L60.85 -8.8 70.35 -8.8 70.35 -5.55 60.85 -5.55 M-70.4 -9.6 L-70.4 -5.85 -68.05 -5.85 -68.05 -9.6 -70.4 -9.6 M-57.5 -1.85 L-57.5 -4.85 -59.0 -4.85 -59.0 -1.85 -57.5 -1.85 M-52.25 -4.85 L-53.75 -4.85 -53.75 -1.85 -52.25 -1.85 -52.25 -4.85 M-40.05 -6.25 L-37.5 -6.25 -37.5 -10.4 -40.05 -10.4 -40.05 -6.25 M-28.55 -10.5 L-28.55 -6.15 -22.5 -6.15 Q-21.75 -6.15 -21.75 -6.75 L-21.75 -10.5 -28.55 -10.5 M-2.25 2.85 L1.35 2.85 1.35 9.1 Q1.35 9.55 2.1 9.55 L7.85 9.55 7.85 12.45 -0.1 12.45 Q-2.25 12.45 -2.25 10.75 L-2.25 2.85 M-40.05 4.85 L-40.05 9.1 -38.4 9.1 Q-37.5 9.1 -37.5 8.25 L-37.5 4.85 -40.05 4.85 M-52.25 1.35 L-53.75 1.35 -53.75 4.6 -52.25 4.6 -52.25 1.35 M-57.5 1.35 L-59.0 1.35 -59.0 4.6 -57.5 4.6 -57.5 1.35 M-70.4 4.75 L-70.4 8.85 -68.75 8.85 Q-68.05 8.85 -68.05 7.65 L-68.05 4.75 -70.4 4.75 M12.95 8.65 L13.7 5.0 17.2 5.0 15.95 10.4 Q15.45 12.3 13.6 12.3 L10.95 12.3 10.95 9.35 12.4 9.35 12.95 8.65" fill="none" stroke="#336600" stroke-linecap="butt" stroke-linejoin="miter-clip" stroke-miterlimit="3.0" stroke-width="3.0"/>
    <path d="M-14.5 0.4 L-14.5 -1.7 -8.05 -1.7 -6.85 -6.65 -13.65 -6.65 -13.65 -9.65 6.85 -9.65 6.85 -6.65 -3.3 -6.65 -4.55 -1.7 7.7 -1.7 7.7 0.4 7.7 1.45 -5.35 1.45 -7.55 10.15 Q-8.05 12.4 -9.35 12.4 L-14.5 12.4 -14.5 9.45 -11.2 9.45 Q-10.85 9.45 -10.65 8.7 L-8.8 1.45 -14.5 1.45 -14.5 0.4 7.7 0.4 M11.7 0.4 L10.95 -2.1 14.45 -2.1 15.05 -0.05 15.25 0.4 15.45 0.65 15.85 0.8 17.4 0.8 17.4 3.7 14.2 3.7 Q12.55 3.7 12.15 2.0 L11.7 0.4 15.25 0.4 M17.95 0.4 L17.95 -0.1 23.55 -0.1 23.55 -4.25 18.4 -4.25 18.4 -7.35 23.55 -7.35 23.55 -9.9 27.2 -9.9 27.2 -7.35 32.35 -7.35 32.35 -4.25 27.2 -4.25 27.2 -0.1 32.85 -0.1 32.85 0.4 32.85 3.0 26.3 3.0 22.75 9.2 28.25 9.2 Q28.85 9.2 28.85 8.7 L28.85 5.55 32.25 5.55 32.25 9.75 Q32.25 12.1 29.7 12.1 L18.5 12.1 18.5 9.45 22.05 3.0 17.95 3.0 17.95 0.4 32.85 0.4 M35.25 0.4 L35.25 -0.2 36.55 -0.2 Q37.35 -0.2 37.75 -1.2 L38.6 -3.35 38.1 -3.3 35.5 -3.3 35.5 -6.45 36.65 -6.45 Q37.3 -6.45 37.6 -7.3 L38.6 -10.05 42.5 -10.05 40.35 -5.0 40.05 -4.4 42.9 -4.4 40.85 0.4 40.45 1.3 40.45 12.3 36.9 12.3 36.9 2.95 35.25 2.95 35.25 0.4 40.85 0.4 M52.45 0.4 L52.45 -1.2 43.5 -1.2 43.5 -4.15 57.6 -4.15 57.6 -1.2 56.15 -1.2 56.15 0.4 56.15 9.45 Q56.15 12.3 52.65 12.3 L46.1 12.3 46.1 9.25 51.8 9.25 Q52.45 9.25 52.45 8.7 L52.45 0.4 56.15 0.4 M73.2 0.4 L73.55 -5.1 71.4 -5.1 71.4 -8.1 73.7 -8.1 73.85 -10.0 77.3 -10.0 77.15 -8.1 82.35 -8.1 82.35 0.4 82.35 9.65 Q82.35 12.2 79.4 12.2 L76.8 12.2 76.8 9.35 78.35 9.35 Q79.0 9.35 79.0 8.75 L79.0 0.4 79.0 -5.1 76.9 -5.1 76.55 0.4 75.95 8.7 Q75.7 12.4 74.4 12.4 L71.2 12.4 71.2 9.65 72.15 9.65 Q72.7 9.65 72.75 7.05 L73.2 0.4 76.55 0.4 M60.35 0.4 L60.35 -2.65 70.85 -2.65 70.85 0.4 70.85 0.55 65.95 0.55 63.95 9.25 66.6 9.25 Q67.2 9.25 67.2 8.75 L67.2 5.95 70.35 5.95 70.35 9.95 Q70.35 10.65 69.65 11.35 68.85 12.2 67.7 12.2 L60.6 12.2 60.6 10.05 60.8 8.5 62.55 0.55 60.35 0.55 60.35 0.4 70.85 0.4 M-70.4 0.4 L-70.4 -2.4 -68.05 -2.4 -68.05 0.4 -64.4 0.4 -64.4 -13.2 -74.0 -13.2 -74.0 0.4 -70.4 0.4 -70.4 1.35 -68.05 1.35 -68.05 0.4 M-64.05 0.4 L-64.05 -1.85 -62.55 -1.85 -62.55 -4.85 -63.85 -4.85 -63.85 -8.05 -57.5 -8.05 -57.5 -9.8 -63.0 -9.8 -63.0 -12.95 -52.1 -12.95 Q-51.4 -12.95 -51.4 -13.55 L-51.4 -14.0 -47.4 -14.0 -47.4 -12.85 Q-47.4 -9.8 -51.15 -9.8 L-53.75 -9.8 -53.75 -8.05 -47.65 -8.05 -47.65 -4.85 -48.75 -4.85 -48.75 -1.85 -47.3 -1.85 -47.3 0.4 -47.3 1.35 -48.75 1.35 -48.75 4.6 -47.65 4.6 -47.65 7.8 -53.75 7.8 -53.75 9.65 -48.15 9.65 -48.15 12.9 -63.35 12.9 -63.35 9.65 -57.5 9.65 -57.5 7.8 -63.85 7.8 -63.85 4.6 -62.55 4.6 -62.55 1.35 -64.05 1.35 -64.05 0.4 -47.3 0.4 M-40.05 0.4 L-40.05 -2.75 -37.5 -2.75 -37.5 0.4 -33.75 0.4 -33.75 -13.75 -43.9 -13.75 -43.9 0.4 -40.05 0.4 -40.05 1.35 -37.5 1.35 -37.5 0.4 M-28.55 0.4 L-28.55 -2.65 -26.45 -2.65 -25.8 0.4 -21.65 0.4 -22.25 -2.65 -20.35 -2.65 Q-17.75 -2.65 -17.75 -5.1 L-17.75 -14.0 -32.4 -14.0 -32.4 0.4 -28.55 0.4 -28.55 1.1 -25.65 1.1 -25.8 0.4 M-21.65 0.4 L-21.5 1.1 -18.0 1.1 -18.0 4.75 -20.8 4.75 -20.15 8.25 Q-19.9 9.3 -19.15 9.3 L-17.65 9.3 -17.65 13.05 -21.15 13.05 Q-23.1 13.05 -23.65 10.95 L-24.9 4.75 -28.55 4.75 -28.55 8.75 Q-28.55 9.4 -27.85 9.4 L-25.65 9.4 -25.65 13.05 -29.85 13.05 Q-32.4 13.05 -32.4 10.35 L-32.4 0.4 M-33.75 0.4 L-33.75 10.0 Q-33.75 12.6 -36.5 12.6 L-43.9 12.6 -43.9 0.4 M-64.4 0.4 L-64.4 9.4 Q-64.4 12.5 -67.0 12.5 L-74.0 12.5 -74.0 0.4 M82.35 0.4 L79.0 0.4" fill="none" stroke="#336600" stroke-linecap="round" stroke-linejoin="miter-clip" stroke-miterlimit="3.0" stroke-width="3.0"/>
    <path d="M-14.5 0.4 L-14.5 -1.7 -8.05 -1.7 -6.85 -6.65 -13.65 -6.65 -13.65 -9.65 6.85 -9.65 6.85 -6.65 -3.3 -6.65 -4.55 -1.7 7.7 -1.7 7.7 0.4 -14.5 0.4 M17.1 -6.2 L17.1 -3.25 14.1 -3.25 Q12.45 -3.25 12.05 -4.9 L10.85 -9.0 14.35 -9.0 14.95 -6.95 Q15.15 -6.2 15.75 -6.2 L17.1 -6.2 M11.7 0.4 L10.95 -2.1 14.45 -2.1 15.05 -0.05 15.25 0.4 11.7 0.4 M17.95 0.4 L17.95 -0.1 23.55 -0.1 23.55 -4.25 18.4 -4.25 18.4 -7.35 23.55 -7.35 23.55 -9.9 27.2 -9.9 27.2 -7.35 32.35 -7.35 32.35 -4.25 27.2 -4.25 27.2 -0.1 32.85 -0.1 32.85 0.4 17.95 0.4 M35.25 0.4 L35.25 -0.2 36.55 -0.2 Q37.35 -0.2 37.75 -1.2 L38.6 -3.35 38.1 -3.3 35.5 -3.3 35.5 -6.45 36.65 -6.45 Q37.3 -6.45 37.6 -7.3 L38.6 -10.05 42.5 -10.05 40.35 -5.0 40.05 -4.4 42.9 -4.4 40.85 0.4 35.25 0.4 M52.45 0.4 L52.45 -1.2 43.5 -1.2 43.5 -4.15 57.6 -4.15 57.6 -1.2 56.15 -1.2 56.15 0.4 52.45 0.4 M43.9 -9.55 L57.45 -9.55 57.45 -6.75 43.9 -6.75 43.9 -9.55 M60.85 -8.8 L70.35 -8.8 70.35 -5.55 60.85 -5.55 60.85 -8.8 M73.2 0.4 L73.55 -5.1 71.4 -5.1 71.4 -8.1 73.7 -8.1 73.85 -10.0 77.3 -10.0 77.15 -8.1 82.35 -8.1 82.35 0.4 79.0 0.4 79.0 -5.1 76.9 -5.1 76.55 0.4 73.2 0.4 M60.35 0.4 L60.35 -2.65 70.85 -2.65 70.85 0.4 60.35 0.4 M-70.4 -9.6 L-70.4 -5.85 -68.05 -5.85 -68.05 -9.6 -70.4 -9.6 M-68.05 0.4 L-68.05 -2.4 -70.4 -2.4 -70.4 0.4 -74.0 0.4 -74.0 -13.2 -64.4 -13.2 -64.4 0.4 -68.05 0.4 M-64.05 0.4 L-64.05 -1.85 -62.55 -1.85 -62.55 -4.85 -63.85 -4.85 -63.85 -8.05 -57.5 -8.05 -57.5 -9.8 -63.0 -9.8 -63.0 -12.95 -52.1 -12.95 Q-51.4 -12.95 -51.4 -13.55 L-51.4 -14.0 -47.4 -14.0 -47.4 -12.85 Q-47.4 -9.8 -51.15 -9.8 L-53.75 -9.8 -53.75 -8.05 -47.65 -8.05 -47.65 -4.85 -48.75 -4.85 -48.75 -1.85 -47.3 -1.85 -47.3 0.4 -64.05 0.4 M-57.5 -1.85 L-57.5 -4.85 -59.0 -4.85 -59.0 -1.85 -57.5 -1.85 M-52.25 -1.85 L-52.25 -4.85 -53.75 -4.85 -53.75 -1.85 -52.25 -1.85 M-40.05 -6.25 L-37.5 -6.25 -37.5 -10.4 -40.05 -10.4 -40.05 -6.25 M-37.5 0.4 L-37.5 -2.75 -40.05 -2.75 -40.05 0.4 -43.9 0.4 -43.9 -13.75 -33.75 -13.75 -33.75 0.4 -37.5 0.4 M-32.4 0.4 L-32.4 -14.0 -17.75 -14.0 -17.75 -5.1 Q-17.75 -2.65 -20.35 -2.65 L-22.25 -2.65 -21.65 0.4 -25.8 0.4 -26.45 -2.65 -28.55 -2.65 -28.55 0.4 -32.4 0.4 M-28.55 -6.15 L-22.5 -6.15 Q-21.75 -6.15 -21.75 -6.75 L-21.75 -10.5 -28.55 -10.5 -28.55 -6.15" fill="#99ff99" fill-rule="evenodd" stroke="none"/>
    <path d="M7.7 0.4 L7.7 1.45 -5.35 1.45 -7.55 10.15 Q-8.05 12.4 -9.35 12.4 L-14.5 12.4 -14.5 9.45 -11.2 9.45 Q-10.85 9.45 -10.65 8.7 L-8.8 1.45 -14.5 1.45 -14.5 0.4 7.7 0.4 M15.25 0.4 L15.45 0.65 15.85 0.8 17.4 0.8 17.4 3.7 14.2 3.7 Q12.55 3.7 12.15 2.0 L11.7 0.4 15.25 0.4 M32.85 0.4 L32.85 3.0 26.3 3.0 22.75 9.2 28.25 9.2 Q28.85 9.2 28.85 8.7 L28.85 5.55 32.25 5.55 32.25 9.75 Q32.25 12.1 29.7 12.1 L18.5 12.1 18.5 9.45 22.05 3.0 17.95 3.0 17.95 0.4 32.85 0.4 M40.85 0.4 L40.45 1.3 40.45 12.3 36.9 12.3 36.9 2.95 35.25 2.95 35.25 0.4 40.85 0.4 M52.45 0.4 L56.15 0.4 56.15 9.45 Q56.15 12.3 52.65 12.3 L46.1 12.3 46.1 9.25 51.8 9.25 Q52.45 9.25 52.45 8.7 L52.45 0.4 M82.35 0.4 L82.35 9.65 Q82.35 12.2 79.4 12.2 L76.8 12.2 76.8 9.35 78.35 9.35 Q79.0 9.35 79.0 8.75 L79.0 0.4 82.35 0.4 M76.55 0.4 L75.95 8.7 Q75.7 12.4 74.4 12.4 L71.2 12.4 71.2 9.65 72.15 9.65 Q72.7 9.65 72.75 7.05 L73.2 0.4 76.55 0.4 M70.85 0.4 L70.85 0.55 65.95 0.55 63.95 9.25 66.6 9.25 Q67.2 9.25 67.2 8.75 L67.2 5.95 70.35 5.95 70.35 9.95 Q70.35 10.65 69.65 11.35 68.85 12.2 67.7 12.2 L60.6 12.2 60.6 10.05 60.8 8.5 62.55 0.55 60.35 0.55 60.35 0.4 70.85 0.4 M-70.4 0.4 L-70.4 1.35 -68.05 1.35 -68.05 0.4 -64.4 0.4 -64.4 9.4 Q-64.4 12.5 -67.0 12.5 L-74.0 12.5 -74.0 0.4 -70.4 0.4 M-47.3 0.4 L-47.3 1.35 -48.75 1.35 -48.75 4.6 -47.65 4.6 -47.65 7.8 -53.75 7.8 -53.75 9.65 -48.15 9.65 -48.15 12.9 -63.35 12.9 -63.35 9.65 -57.5 9.65 -57.5 7.8 -63.85 7.8 -63.85 4.6 -62.55 4.6 -62.55 1.35 -64.05 1.35 -64.05 0.4 -47.3 0.4 M-40.05 0.4 L-40.05 1.35 -37.5 1.35 -37.5 0.4 -33.75 0.4 -33.75 10.0 Q-33.75 12.6 -36.5 12.6 L-43.9 12.6 -43.9 0.4 -40.05 0.4 M-21.65 0.4 L-21.5 1.1 -18.0 1.1 -18.0 4.75 -20.8 4.75 -20.15 8.25 Q-19.9 9.3 -19.15 9.3 L-17.65 9.3 -17.65 13.05 -21.15 13.05 Q-23.1 13.05 -23.65 10.95 L-24.9 4.75 -28.55 4.75 -28.55 8.75 Q-28.55 9.4 -27.85 9.4 L-25.65 9.4 -25.65 13.05 -29.85 13.05 Q-32.4 13.05 -32.4 10.35 L-32.4 0.4 -28.55 0.4 -28.55 1.1 -25.65 1.1 -25.8 0.4 -21.65 0.4 M-2.25 2.85 L1.35 2.85 1.35 9.1 Q1.35 9.55 2.1 9.55 L7.85 9.55 7.85 12.45 -0.1 12.45 Q-2.25 12.45 -2.25 10.75 L-2.25 2.85 M-40.05 4.85 L-40.05 9.1 -38.4 9.1 Q-37.5 9.1 -37.5 8.25 L-37.5 4.85 -40.05 4.85 M-52.25 4.6 L-52.25 1.35 -53.75 1.35 -53.75 4.6 -52.25 4.6 M-57.5 4.6 L-57.5 1.35 -59.0 1.35 -59.0 4.6 -57.5 4.6 M-70.4 4.75 L-70.4 8.85 -68.75 8.85 Q-68.05 8.85 -68.05 7.65 L-68.05 4.75 -70.4 4.75 M10.95 9.35 L12.4 9.35 12.95 8.65 13.7 5.0 17.2 5.0 15.95 10.4 Q15.45 12.3 13.6 12.3 L10.95 12.3 10.95 9.35" fill="#59ff59" fill-rule="evenodd" stroke="none"/>
  </g>
</svg>
