<?xml version="1.0" encoding="UTF-8" standalone="no"?>
<svg xmlns:xlink="http://www.w3.org/1999/xlink" height="33.0px" width="163.2px" xmlns="http://www.w3.org/2000/svg">
  <g transform="matrix(1.0, 0.0, 0.0, 1.0, 78.1, 17.0)">
    <path d="M-75.0 2.55 L-75.0 -0.15 -74.05 -0.15 Q-72.25 -0.15 -71.15 -2.0 L-66.65 -9.5 -74.65 -9.5 -74.65 -13.4 -47.8 -13.4 -47.8 -9.5 -61.3 -9.5 -64.4 -4.5 -49.55 -4.5 -49.55 2.55 -54.0 2.55 -54.0 -0.85 -66.6 -0.85 -67.15 -0.05 -67.15 2.55 -75.0 2.55 M-41.7 2.55 L-41.7 -3.1 -44.65 -3.1 -44.65 -6.95 -42.3 -6.95 Q-41.65 -6.95 -41.25 -8.1 L-39.25 -14.0 -34.8 -14.0 -37.6 -6.6 -37.6 2.55 -41.7 2.55 M-35.6 2.55 L-35.6 -0.15 -32.65 -0.15 -32.65 -13.5 -28.45 -13.5 -28.45 -0.15 -24.15 -0.15 Q-23.3 -0.15 -23.3 -1.95 L-23.3 -11.4 -19.1 -11.4 -19.1 -0.3 Q-19.1 1.4 -20.15 2.5 L-20.2 2.55 -35.6 2.55 M-9.3 2.55 L-9.05 1.6 -14.75 1.6 -14.75 -1.55 -8.3 -1.55 -7.1 -6.5 -13.9 -6.5 -13.9 -9.5 6.6 -9.5 6.6 -6.5 -3.55 -6.5 -4.8 -1.55 7.45 -1.55 7.45 1.6 -5.6 1.6 -5.85 2.55 -9.3 2.55 M14.1 -8.85 L14.7 -6.8 Q14.9 -6.05 15.5 -6.05 L16.85 -6.05 16.85 -3.1 13.85 -3.1 Q12.2 -3.1 11.8 -4.75 L10.6 -8.85 14.1 -8.85 M12.05 2.55 L11.9 2.15 10.7 -1.95 14.2 -1.95 14.8 0.1 Q15.0 0.95 15.6 0.95 L17.15 0.95 17.15 2.55 12.05 2.55 M17.7 2.55 L17.7 0.05 23.3 0.05 23.3 -4.1 18.15 -4.1 18.15 -7.2 23.3 -7.2 23.3 -9.75 26.95 -9.75 26.95 -7.2 32.1 -7.2 32.1 -4.1 26.95 -4.1 26.95 0.05 32.6 0.05 32.6 2.55 17.7 2.55 M35.0 2.55 L35.0 -0.05 36.3 -0.05 Q37.1 -0.05 37.5 -1.05 L38.35 -3.2 37.85 -3.15 35.25 -3.15 35.25 -6.3 36.4 -6.3 Q37.05 -6.3 37.35 -7.15 L38.35 -9.9 42.25 -9.9 40.1 -4.85 39.8 -4.25 42.65 -4.25 40.2 1.45 40.2 2.55 35.0 2.55 M52.2 2.55 L52.2 -1.05 43.25 -1.05 43.25 -4.0 57.35 -4.0 57.35 -1.05 55.9 -1.05 55.9 2.55 52.2 2.55 M43.65 -9.4 L57.2 -9.4 57.2 -6.6 43.65 -6.6 43.65 -9.4 M60.6 -8.65 L70.1 -8.65 70.1 -5.4 60.6 -5.4 60.6 -8.65 M78.75 2.55 L78.75 -4.95 76.65 -4.95 76.15 2.55 72.8 2.55 73.3 -4.95 71.15 -4.95 71.15 -7.95 73.45 -7.95 73.6 -9.85 77.05 -9.85 76.9 -7.95 82.1 -7.95 82.1 2.55 78.75 2.55 M61.9 2.55 L62.3 0.7 60.1 0.7 60.1 -2.5 70.6 -2.5 70.6 0.7 65.7 0.7 65.3 2.55 61.9 2.55" fill="#f3aa58" fill-rule="evenodd" stroke="none"/>
    <path d="M-49.55 2.55 L-49.55 9.3 Q-49.55 12.85 -53.05 12.85 L-71.6 12.85 -71.6 3.7 -75.0 3.7 -75.0 2.55 -67.15 2.55 -67.15 9.25 -54.8 9.25 Q-54.0 9.25 -54.0 8.5 L-54.0 2.55 -49.55 2.55 M-37.6 2.55 L-37.6 13.0 -41.7 13.0 -41.7 2.55 -37.6 2.55 M-20.2 2.55 Q-21.05 3.45 -22.6 3.45 L-28.45 3.45 -28.45 8.5 Q-28.45 9.25 -27.65 9.25 L-17.8 9.25 -17.8 13.0 -30.25 13.0 Q-32.65 13.0 -32.65 10.75 L-32.65 3.45 -35.6 3.45 -35.6 2.55 -20.2 2.55 M-5.85 2.55 L-7.8 10.3 Q-8.3 12.55 -9.6 12.55 L-14.75 12.55 -14.75 9.6 -11.45 9.6 Q-11.1 9.6 -10.9 8.85 L-9.3 2.55 -5.85 2.55 M17.15 2.55 L17.15 3.85 13.95 3.85 Q12.5 3.85 12.05 2.55 L17.15 2.55 M32.6 2.55 L32.6 3.15 26.05 3.15 22.5 9.35 28.0 9.35 Q28.6 9.35 28.6 8.85 L28.6 5.7 32.0 5.7 32.0 9.9 Q32.0 12.25 29.45 12.25 L18.25 12.25 18.25 9.6 21.8 3.15 17.7 3.15 17.7 2.55 32.6 2.55 M40.2 2.55 L40.2 12.45 36.65 12.45 36.65 3.1 35.0 3.1 35.0 2.55 40.2 2.55 M52.2 2.55 L55.9 2.55 55.9 9.6 Q55.9 12.45 52.4 12.45 L45.85 12.45 45.85 9.4 51.55 9.4 Q52.2 9.4 52.2 8.85 L52.2 2.55 M76.15 2.55 L75.7 8.85 Q75.45 12.55 74.15 12.55 L70.95 12.55 70.95 9.8 71.9 9.8 Q72.45 9.8 72.5 7.2 L72.8 2.55 76.15 2.55 M82.1 2.55 L82.1 9.8 Q82.1 12.35 79.15 12.35 L76.55 12.35 76.55 9.5 78.1 9.5 Q78.75 9.5 78.75 8.9 L78.75 2.55 82.1 2.55 M65.3 2.55 L63.7 9.4 66.35 9.4 Q66.95 9.4 66.95 8.9 L66.95 6.1 70.1 6.1 70.1 10.1 Q70.1 10.8 69.4 11.5 68.6 12.35 67.45 12.35 L60.35 12.35 60.35 10.2 60.55 8.65 61.9 2.55 65.3 2.55 M12.15 9.5 Q12.5 9.5 12.7 8.8 L13.45 5.15 16.95 5.15 15.7 10.55 Q15.2 12.45 13.35 12.45 L10.7 12.45 10.7 9.5 12.15 9.5 M7.6 9.7 L7.6 12.6 -0.35 12.6 Q-2.5 12.6 -2.5 10.9 L-2.5 3.0 1.1 3.0 1.1 9.25 Q1.1 9.7 1.85 9.7 L7.6 9.7" fill="#ee8817" fill-rule="evenodd" stroke="none"/>
    <path d="M14.1 -8.85 L14.7 -6.8 Q14.9 -6.05 15.5 -6.05 L16.85 -6.05 16.85 -3.1 13.85 -3.1 Q12.2 -3.1 11.8 -4.75 L10.6 -8.85 14.1 -8.85 M43.65 -9.4 L57.2 -9.4 57.2 -6.6 43.65 -6.6 43.65 -9.4 M60.6 -8.65 L70.1 -8.65 70.1 -5.4 60.6 -5.4 60.6 -8.65 M12.15 9.5 Q12.5 9.5 12.7 8.8 L13.45 5.15 16.95 5.15 15.7 10.55 Q15.2 12.45 13.35 12.45 L10.7 12.45 10.7 9.5 12.15 9.5 M7.6 9.7 L7.6 12.6 -0.35 12.6 Q-2.5 12.6 -2.5 10.9 L-2.5 3.0 1.1 3.0 1.1 9.25 Q1.1 9.7 1.85 9.7 L7.6 9.7" fill="none" stroke="#ffffff" stroke-linecap="butt" stroke-linejoin="miter-clip" stroke-miterlimit="3.0" stroke-width="6.0"/>
    <path d="M-75.0 2.55 L-75.0 -0.15 -74.05 -0.15 Q-72.25 -0.15 -71.15 -2.0 L-66.65 -9.5 -74.65 -9.5 -74.65 -13.4 -47.8 -13.4 -47.8 -9.5 -61.3 -9.5 -64.4 -4.5 -49.55 -4.5 -49.55 2.55 -49.55 9.3 Q-49.55 12.85 -53.05 12.85 L-71.6 12.85 -71.6 3.7 -75.0 3.7 -75.0 2.55 -67.15 2.55 -67.15 -0.05 -66.6 -0.85 -54.0 -0.85 -54.0 2.55 -49.55 2.55 M-41.7 2.55 L-41.7 -3.1 -44.65 -3.1 -44.65 -6.95 -42.3 -6.95 Q-41.65 -6.95 -41.25 -8.1 L-39.25 -14.0 -34.8 -14.0 -37.6 -6.6 -37.6 2.55 -37.6 13.0 -41.7 13.0 -41.7 2.55 -37.6 2.55 M-35.6 2.55 L-35.6 -0.15 -32.65 -0.15 -32.65 -13.5 -28.45 -13.5 -28.45 -0.15 -24.15 -0.15 Q-23.3 -0.15 -23.3 -1.95 L-23.3 -11.4 -19.1 -11.4 -19.1 -0.3 Q-19.1 1.4 -20.15 2.5 L-20.2 2.55 Q-21.05 3.45 -22.6 3.45 L-28.45 3.45 -28.45 8.5 Q-28.45 9.25 -27.65 9.25 L-17.8 9.25 -17.8 13.0 -30.25 13.0 Q-32.65 13.0 -32.65 10.75 L-32.65 3.45 -35.6 3.45 -35.6 2.55 -20.2 2.55 M-9.3 2.55 L-9.05 1.6 -14.75 1.6 -14.75 -1.55 -8.3 -1.55 -7.1 -6.5 -13.9 -6.5 -13.9 -9.5 6.6 -9.5 6.6 -6.5 -3.55 -6.5 -4.8 -1.55 7.45 -1.55 7.45 1.6 -5.6 1.6 -5.85 2.55 -7.8 10.3 Q-8.3 12.55 -9.6 12.55 L-14.75 12.55 -14.75 9.6 -11.45 9.6 Q-11.1 9.6 -10.9 8.85 L-9.3 2.55 -5.85 2.55 M12.05 2.55 L11.9 2.15 10.7 -1.95 14.2 -1.95 14.8 0.1 Q15.0 0.95 15.6 0.95 L17.15 0.95 17.15 2.55 17.15 3.85 13.95 3.85 Q12.5 3.85 12.05 2.55 L17.15 2.55 M17.7 2.55 L17.7 0.05 23.3 0.05 23.3 -4.1 18.15 -4.1 18.15 -7.2 23.3 -7.2 23.3 -9.75 26.95 -9.75 26.95 -7.2 32.1 -7.2 32.1 -4.1 26.95 -4.1 26.95 0.05 32.6 0.05 32.6 2.55 32.6 3.15 26.05 3.15 22.5 9.35 28.0 9.35 Q28.6 9.35 28.6 8.85 L28.6 5.7 32.0 5.7 32.0 9.9 Q32.0 12.25 29.45 12.25 L18.25 12.25 18.25 9.6 21.8 3.15 17.7 3.15 17.7 2.55 32.6 2.55 M35.0 2.55 L35.0 -0.05 36.3 -0.05 Q37.1 -0.05 37.5 -1.05 L38.35 -3.2 37.85 -3.15 35.25 -3.15 35.25 -6.3 36.4 -6.3 Q37.05 -6.3 37.35 -7.15 L38.35 -9.9 42.25 -9.9 40.1 -4.85 39.8 -4.25 42.65 -4.25 40.2 1.45 40.2 2.55 40.2 12.45 36.65 12.45 36.65 3.1 35.0 3.1 35.0 2.55 40.2 2.55 M55.9 2.55 L55.9 -1.05 57.35 -1.05 57.35 -4.0 43.25 -4.0 43.25 -1.05 52.2 -1.05 52.2 2.55 55.9 2.55 55.9 9.6 Q55.9 12.45 52.4 12.45 L45.85 12.45 45.85 9.4 51.55 9.4 Q52.2 9.4 52.2 8.85 L52.2 2.55 M78.75 2.55 L78.75 -4.95 76.65 -4.95 76.15 2.55 75.7 8.85 Q75.45 12.55 74.15 12.55 L70.95 12.55 70.95 9.8 71.9 9.8 Q72.45 9.8 72.5 7.2 L72.8 2.55 73.3 -4.95 71.15 -4.95 71.15 -7.95 73.45 -7.95 73.6 -9.85 77.05 -9.85 76.9 -7.95 82.1 -7.95 82.1 2.55 82.1 9.8 Q82.1 12.35 79.15 12.35 L76.55 12.35 76.55 9.5 78.1 9.5 Q78.75 9.5 78.75 8.9 L78.75 2.55 82.1 2.55 M61.9 2.55 L62.3 0.7 60.1 0.7 60.1 -2.5 70.6 -2.5 70.6 0.7 65.7 0.7 65.3 2.55 63.7 9.4 66.35 9.4 Q66.95 9.4 66.95 8.9 L66.95 6.1 70.1 6.1 70.1 10.1 Q70.1 10.8 69.4 11.5 68.6 12.35 67.45 12.35 L60.35 12.35 60.35 10.2 60.55 8.65 61.9 2.55 65.3 2.55 M76.15 2.55 L72.8 2.55 M-54.0 2.55 L-54.0 8.5 Q-54.0 9.25 -54.8 9.25 L-67.15 9.25 -67.15 2.55" fill="none" stroke="#ffffff" stroke-linecap="round" stroke-linejoin="miter-clip" stroke-miterlimit="3.0" stroke-width="6.0"/>
    <path d="M-75.0 2.55 L-75.0 -0.15 -74.05 -0.15 Q-72.25 -0.15 -71.15 -2.0 L-66.65 -9.5 -74.65 -9.5 -74.65 -13.4 -47.8 -13.4 -47.8 -9.5 -61.3 -9.5 -64.4 -4.5 -49.55 -4.5 -49.55 2.55 -54.0 2.55 -54.0 -0.85 -66.6 -0.85 -67.15 -0.05 -67.15 2.55 -75.0 2.55 M-41.7 2.55 L-41.7 -3.1 -44.65 -3.1 -44.65 -6.95 -42.3 -6.95 Q-41.65 -6.95 -41.25 -8.1 L-39.25 -14.0 -34.8 -14.0 -37.6 -6.6 -37.6 2.55 -41.7 2.55 M-35.6 2.55 L-35.6 -0.15 -32.65 -0.15 -32.65 -13.5 -28.45 -13.5 -28.45 -0.15 -24.15 -0.15 Q-23.3 -0.15 -23.3 -1.95 L-23.3 -11.4 -19.1 -11.4 -19.1 -0.3 Q-19.1 1.4 -20.15 2.5 L-20.2 2.55 -35.6 2.55 M-9.3 2.55 L-9.05 1.6 -14.75 1.6 -14.75 -1.55 -8.3 -1.55 -7.1 -6.5 -13.9 -6.5 -13.9 -9.5 6.6 -9.5 6.6 -6.5 -3.55 -6.5 -4.8 -1.55 7.45 -1.55 7.45 1.6 -5.6 1.6 -5.85 2.55 -9.3 2.55 M14.1 -8.85 L14.7 -6.8 Q14.9 -6.05 15.5 -6.05 L16.85 -6.05 16.85 -3.1 13.85 -3.1 Q12.2 -3.1 11.8 -4.75 L10.6 -8.85 14.1 -8.85 M12.05 2.55 L11.9 2.15 10.7 -1.95 14.2 -1.95 14.8 0.1 Q15.0 0.95 15.6 0.95 L17.15 0.95 17.15 2.55 12.05 2.55 M17.7 2.55 L17.7 0.05 23.3 0.05 23.3 -4.1 18.15 -4.1 18.15 -7.2 23.3 -7.2 23.3 -9.75 26.95 -9.75 26.95 -7.2 32.1 -7.2 32.1 -4.1 26.95 -4.1 26.95 0.05 32.6 0.05 32.6 2.55 17.7 2.55 M35.0 2.55 L35.0 -0.05 36.3 -0.05 Q37.1 -0.05 37.5 -1.05 L38.35 -3.2 37.85 -3.15 35.25 -3.15 35.25 -6.3 36.4 -6.3 Q37.05 -6.3 37.35 -7.15 L38.35 -9.9 42.25 -9.9 40.1 -4.85 39.8 -4.25 42.65 -4.25 40.2 1.45 40.2 2.55 35.0 2.55 M52.2 2.55 L52.2 -1.05 43.25 -1.05 43.25 -4.0 57.35 -4.0 57.35 -1.05 55.9 -1.05 55.9 2.55 52.2 2.55 M43.65 -9.4 L57.2 -9.4 57.2 -6.6 43.65 -6.6 43.65 -9.4 M60.6 -8.65 L70.1 -8.65 70.1 -5.4 60.6 -5.4 60.6 -8.65 M72.8 2.55 L73.3 -4.95 71.15 -4.95 71.15 -7.95 73.45 -7.95 73.6 -9.85 77.05 -9.85 76.9 -7.95 82.1 -7.95 82.1 2.55 78.75 2.55 78.75 -4.95 76.65 -4.95 76.15 2.55 72.8 2.55 M61.9 2.55 L62.3 0.7 60.1 0.7 60.1 -2.5 70.6 -2.5 70.6 0.7 65.7 0.7 65.3 2.55 61.9 2.55" fill="#f3aa58" fill-rule="evenodd" stroke="none"/>
    <path d="M-49.55 2.55 L-49.55 9.3 Q-49.55 12.85 -53.05 12.85 L-71.6 12.85 -71.6 3.7 -75.0 3.7 -75.0 2.55 -67.15 2.55 -67.15 9.25 -54.8 9.25 Q-54.0 9.25 -54.0 8.5 L-54.0 2.55 -49.55 2.55 M-37.6 2.55 L-37.6 13.0 -41.7 13.0 -41.7 2.55 -37.6 2.55 M-20.2 2.55 Q-21.05 3.45 -22.6 3.45 L-28.45 3.45 -28.45 8.5 Q-28.45 9.25 -27.65 9.25 L-17.8 9.25 -17.8 13.0 -30.25 13.0 Q-32.65 13.0 -32.65 10.75 L-32.65 3.45 -35.6 3.45 -35.6 2.55 -20.2 2.55 M-5.85 2.55 L-7.8 10.3 Q-8.3 12.55 -9.6 12.55 L-14.75 12.55 -14.75 9.6 -11.45 9.6 Q-11.1 9.6 -10.9 8.85 L-9.3 2.55 -5.85 2.55 M17.15 2.55 L17.15 3.85 13.95 3.85 Q12.5 3.85 12.05 2.55 L17.15 2.55 M32.6 2.55 L32.6 3.15 26.05 3.15 22.5 9.35 28.0 9.35 Q28.6 9.35 28.6 8.85 L28.6 5.7 32.0 5.7 32.0 9.9 Q32.0 12.25 29.45 12.25 L18.25 12.25 18.25 9.6 21.8 3.15 17.7 3.15 17.7 2.55 32.6 2.55 M40.2 2.55 L40.2 12.45 36.65 12.45 36.65 3.1 35.0 3.1 35.0 2.55 40.2 2.55 M55.9 2.55 L55.9 9.6 Q55.9 12.45 52.4 12.45 L45.85 12.45 45.85 9.4 51.55 9.4 Q52.2 9.4 52.2 8.85 L52.2 2.55 55.9 2.55 M82.1 2.55 L82.1 9.8 Q82.1 12.35 79.15 12.35 L76.55 12.35 76.55 9.5 78.1 9.5 Q78.75 9.5 78.75 8.9 L78.75 2.55 82.1 2.55 M76.15 2.55 L75.7 8.85 Q75.45 12.55 74.15 12.55 L70.95 12.55 70.95 9.8 71.9 9.8 Q72.45 9.8 72.5 7.2 L72.8 2.55 76.15 2.55 M65.3 2.55 L63.7 9.4 66.35 9.4 Q66.95 9.4 66.95 8.9 L66.95 6.1 70.1 6.1 70.1 10.1 Q70.1 10.8 69.4 11.5 68.6 12.35 67.45 12.35 L60.35 12.35 60.35 10.2 60.55 8.65 61.9 2.55 65.3 2.55 M12.15 9.5 Q12.5 9.5 12.7 8.8 L13.45 5.15 16.95 5.15 15.7 10.55 Q15.2 12.45 13.35 12.45 L10.7 12.45 10.7 9.5 12.15 9.5 M7.6 9.7 L7.6 12.6 -0.35 12.6 Q-2.5 12.6 -2.5 10.9 L-2.5 3.0 1.1 3.0 1.1 9.25 Q1.1 9.7 1.85 9.7 L7.6 9.7" fill="#ee8817" fill-rule="evenodd" stroke="none"/>
    <path d="M14.1 -8.85 L14.7 -6.8 Q14.9 -6.05 15.5 -6.05 L16.85 -6.05 16.85 -3.1 13.85 -3.1 Q12.2 -3.1 11.8 -4.75 L10.6 -8.85 14.1 -8.85 M43.65 -9.4 L57.2 -9.4 57.2 -6.6 43.65 -6.6 43.65 -9.4 M60.6 -8.65 L70.1 -8.65 70.1 -5.4 60.6 -5.4 60.6 -8.65 M12.15 9.5 Q12.5 9.5 12.7 8.8 L13.45 5.15 16.95 5.15 15.7 10.55 Q15.2 12.45 13.35 12.45 L10.7 12.45 10.7 9.5 12.15 9.5 M7.6 9.7 L7.6 12.6 -0.35 12.6 Q-2.5 12.6 -2.5 10.9 L-2.5 3.0 1.1 3.0 1.1 9.25 Q1.1 9.7 1.85 9.7 L7.6 9.7" fill="none" stroke="#660000" stroke-linecap="butt" stroke-linejoin="miter-clip" stroke-miterlimit="3.0" stroke-width="3.0"/>
    <path d="M-75.0 2.55 L-75.0 -0.15 -74.05 -0.15 Q-72.25 -0.15 -71.15 -2.0 L-66.65 -9.5 -74.65 -9.5 -74.65 -13.4 -47.8 -13.4 -47.8 -9.5 -61.3 -9.5 -64.4 -4.5 -49.55 -4.5 -49.55 2.55 -49.55 9.3 Q-49.55 12.85 -53.05 12.85 L-71.6 12.85 -71.6 3.7 -75.0 3.7 -75.0 2.55 -67.15 2.55 -67.15 -0.05 -66.6 -0.85 -54.0 -0.85 -54.0 2.55 -49.55 2.55 M-41.7 2.55 L-41.7 -3.1 -44.65 -3.1 -44.65 -6.95 -42.3 -6.95 Q-41.65 -6.95 -41.25 -8.1 L-39.25 -14.0 -34.8 -14.0 -37.6 -6.6 -37.6 2.55 -37.6 13.0 -41.7 13.0 -41.7 2.55 -37.6 2.55 M-35.6 2.55 L-35.6 -0.15 -32.65 -0.15 -32.65 -13.5 -28.45 -13.5 -28.45 -0.15 -24.15 -0.15 Q-23.3 -0.15 -23.3 -1.95 L-23.3 -11.4 -19.1 -11.4 -19.1 -0.3 Q-19.1 1.4 -20.15 2.5 L-20.2 2.55 Q-21.05 3.45 -22.6 3.45 L-28.45 3.45 -28.45 8.5 Q-28.45 9.25 -27.65 9.25 L-17.8 9.25 -17.8 13.0 -30.25 13.0 Q-32.65 13.0 -32.65 10.75 L-32.65 3.45 -35.6 3.45 -35.6 2.55 -20.2 2.55 M-9.3 2.55 L-9.05 1.6 -14.75 1.6 -14.75 -1.55 -8.3 -1.55 -7.1 -6.5 -13.9 -6.5 -13.9 -9.5 6.6 -9.5 6.6 -6.5 -3.55 -6.5 -4.8 -1.55 7.45 -1.55 7.45 1.6 -5.6 1.6 -5.85 2.55 -7.8 10.3 Q-8.3 12.55 -9.6 12.55 L-14.75 12.55 -14.75 9.6 -11.45 9.6 Q-11.1 9.6 -10.9 8.85 L-9.3 2.55 -5.85 2.55 M12.05 2.55 L11.9 2.15 10.7 -1.95 14.2 -1.95 14.8 0.1 Q15.0 0.95 15.6 0.95 L17.15 0.95 17.15 2.55 17.15 3.85 13.95 3.85 Q12.5 3.85 12.05 2.55 L17.15 2.55 M17.7 2.55 L17.7 0.05 23.3 0.05 23.3 -4.1 18.15 -4.1 18.15 -7.2 23.3 -7.2 23.3 -9.75 26.95 -9.75 26.95 -7.2 32.1 -7.2 32.1 -4.1 26.95 -4.1 26.95 0.05 32.6 0.05 32.6 2.55 32.6 3.15 26.05 3.15 22.5 9.35 28.0 9.35 Q28.6 9.35 28.6 8.85 L28.6 5.7 32.0 5.7 32.0 9.9 Q32.0 12.25 29.45 12.25 L18.25 12.25 18.25 9.6 21.8 3.15 17.7 3.15 17.7 2.55 32.6 2.55 M35.0 2.55 L35.0 -0.05 36.3 -0.05 Q37.1 -0.05 37.5 -1.05 L38.35 -3.2 37.85 -3.15 35.25 -3.15 35.25 -6.3 36.4 -6.3 Q37.05 -6.3 37.35 -7.15 L38.35 -9.9 42.25 -9.9 40.1 -4.85 39.8 -4.25 42.65 -4.25 40.2 1.45 40.2 2.55 40.2 12.45 36.65 12.45 36.65 3.1 35.0 3.1 35.0 2.55 40.2 2.55 M52.2 2.55 L52.2 -1.05 43.25 -1.05 43.25 -4.0 57.35 -4.0 57.35 -1.05 55.9 -1.05 55.9 2.55 55.9 9.6 Q55.9 12.45 52.4 12.45 L45.85 12.45 45.85 9.4 51.55 9.4 Q52.2 9.4 52.2 8.85 L52.2 2.55 55.9 2.55 M72.8 2.55 L73.3 -4.95 71.15 -4.95 71.15 -7.95 73.45 -7.95 73.6 -9.85 77.05 -9.85 76.9 -7.95 82.1 -7.95 82.1 2.55 82.1 9.8 Q82.1 12.35 79.15 12.35 L76.55 12.35 76.55 9.5 78.1 9.5 Q78.75 9.5 78.75 8.9 L78.75 2.55 78.75 -4.95 76.65 -4.95 76.15 2.55 75.7 8.85 Q75.45 12.55 74.15 12.55 L70.95 12.55 70.95 9.8 71.9 9.8 Q72.45 9.8 72.5 7.2 L72.8 2.55 76.15 2.55 M61.9 2.55 L62.3 0.7 60.1 0.7 60.1 -2.5 70.6 -2.5 70.6 0.7 65.7 0.7 65.3 2.55 63.7 9.4 66.35 9.4 Q66.95 9.4 66.95 8.9 L66.95 6.1 70.1 6.1 70.1 10.1 Q70.1 10.8 69.4 11.5 68.6 12.35 67.45 12.35 L60.35 12.35 60.35 10.2 60.55 8.65 61.9 2.55 65.3 2.55 M82.1 2.55 L78.75 2.55 M-54.0 2.55 L-54.0 8.5 Q-54.0 9.25 -54.8 9.25 L-67.15 9.25 -67.15 2.55" fill="none" stroke="#660000" stroke-linecap="round" stroke-linejoin="miter-clip" stroke-miterlimit="3.0" stroke-width="3.0"/>
    <path d="M-9.3 2.55 L-9.05 1.6 -14.75 1.6 -14.75 -1.55 -8.3 -1.55 -7.1 -6.5 -13.9 -6.5 -13.9 -9.5 6.6 -9.5 6.6 -6.5 -3.55 -6.5 -4.8 -1.55 7.45 -1.55 7.45 1.6 -5.6 1.6 -5.85 2.55 -9.3 2.55 M14.1 -8.85 L14.7 -6.8 Q14.9 -6.05 15.5 -6.05 L16.85 -6.05 16.85 -3.1 13.85 -3.1 Q12.2 -3.1 11.8 -4.75 L10.6 -8.85 14.1 -8.85 M12.05 2.55 L11.9 2.15 10.7 -1.95 14.2 -1.95 14.8 0.1 Q15.0 0.95 15.6 0.95 L17.15 0.95 17.15 2.55 12.05 2.55 M17.7 2.55 L17.7 0.05 23.3 0.05 23.3 -4.1 18.15 -4.1 18.15 -7.2 23.3 -7.2 23.3 -9.75 26.95 -9.75 26.95 -7.2 32.1 -7.2 32.1 -4.1 26.95 -4.1 26.95 0.05 32.6 0.05 32.6 2.55 17.7 2.55 M35.0 2.55 L35.0 -0.05 36.3 -0.05 Q37.1 -0.05 37.5 -1.05 L38.35 -3.2 37.85 -3.15 35.25 -3.15 35.25 -6.3 36.4 -6.3 Q37.05 -6.3 37.35 -7.15 L38.35 -9.9 42.25 -9.9 40.1 -4.85 39.8 -4.25 42.65 -4.25 40.2 1.45 40.2 2.55 35.0 2.55 M52.2 2.55 L52.2 -1.05 43.25 -1.05 43.25 -4.0 57.35 -4.0 57.35 -1.05 55.9 -1.05 55.9 2.55 52.2 2.55 M43.65 -9.4 L57.2 -9.4 57.2 -6.6 43.65 -6.6 43.65 -9.4 M60.6 -8.65 L70.1 -8.65 70.1 -5.4 60.6 -5.4 60.6 -8.65 M72.8 2.55 L73.3 -4.95 71.15 -4.95 71.15 -7.95 73.45 -7.95 73.6 -9.85 77.05 -9.85 76.9 -7.95 82.1 -7.95 82.1 2.55 78.75 2.55 78.75 -4.95 76.65 -4.95 76.15 2.55 72.8 2.55 M61.9 2.55 L62.3 0.7 60.1 0.7 60.1 -2.5 70.6 -2.5 70.6 0.7 65.7 0.7 65.3 2.55 61.9 2.55 M-75.0 2.55 L-75.0 -0.15 -74.05 -0.15 Q-72.25 -0.15 -71.15 -2.0 L-66.65 -9.5 -74.65 -9.5 -74.65 -13.4 -47.8 -13.4 -47.8 -9.5 -61.3 -9.5 -64.4 -4.5 -49.55 -4.5 -49.55 2.55 -54.0 2.55 -54.0 -0.85 -66.6 -0.85 -67.15 -0.05 -67.15 2.55 -75.0 2.55 M-41.7 2.55 L-41.7 -3.1 -44.65 -3.1 -44.65 -6.95 -42.3 -6.95 Q-41.65 -6.95 -41.25 -8.1 L-39.25 -14.0 -34.8 -14.0 -37.6 -6.6 -37.6 2.55 -41.7 2.55 M-35.6 2.55 L-35.6 -0.15 -32.65 -0.15 -32.65 -13.5 -28.45 -13.5 -28.45 -0.15 -24.15 -0.15 Q-23.3 -0.15 -23.3 -1.95 L-23.3 -11.4 -19.1 -11.4 -19.1 -0.3 Q-19.1 1.4 -20.15 2.5 L-20.2 2.55 -35.6 2.55" fill="#f3aa58" fill-rule="evenodd" stroke="none"/>
    <path d="M-5.85 2.55 L-7.8 10.3 Q-8.3 12.55 -9.6 12.55 L-14.75 12.55 -14.75 9.6 -11.45 9.6 Q-11.1 9.6 -10.9 8.85 L-9.3 2.55 -5.85 2.55 M17.15 2.55 L17.15 3.85 13.95 3.85 Q12.5 3.85 12.05 2.55 L17.15 2.55 M32.6 2.55 L32.6 3.15 26.05 3.15 22.5 9.35 28.0 9.35 Q28.6 9.35 28.6 8.85 L28.6 5.7 32.0 5.7 32.0 9.9 Q32.0 12.25 29.45 12.25 L18.25 12.25 18.25 9.6 21.8 3.15 17.7 3.15 17.7 2.55 32.6 2.55 M40.2 2.55 L40.2 12.45 36.65 12.45 36.65 3.1 35.0 3.1 35.0 2.55 40.2 2.55 M55.9 2.55 L55.9 9.6 Q55.9 12.45 52.4 12.45 L45.85 12.45 45.85 9.4 51.55 9.4 Q52.2 9.4 52.2 8.85 L52.2 2.55 55.9 2.55 M82.1 2.55 L82.1 9.8 Q82.1 12.35 79.15 12.35 L76.55 12.35 76.55 9.5 78.1 9.5 Q78.75 9.5 78.75 8.9 L78.75 2.55 82.1 2.55 M76.15 2.55 L75.7 8.85 Q75.45 12.55 74.15 12.55 L70.95 12.55 70.95 9.8 71.9 9.8 Q72.45 9.8 72.5 7.2 L72.8 2.55 76.15 2.55 M65.3 2.55 L63.7 9.4 66.35 9.4 Q66.95 9.4 66.95 8.9 L66.95 6.1 70.1 6.1 70.1 10.1 Q70.1 10.8 69.4 11.5 68.6 12.35 67.45 12.35 L60.35 12.35 60.35 10.2 60.55 8.65 61.9 2.55 65.3 2.55 M-49.55 2.55 L-49.55 9.3 Q-49.55 12.85 -53.05 12.85 L-71.6 12.85 -71.6 3.7 -75.0 3.7 -75.0 2.55 -67.15 2.55 -67.15 9.25 -54.8 9.25 Q-54.0 9.25 -54.0 8.5 L-54.0 2.55 -49.55 2.55 M-37.6 2.55 L-37.6 13.0 -41.7 13.0 -41.7 2.55 -37.6 2.55 M-20.2 2.55 Q-21.05 3.45 -22.6 3.45 L-28.45 3.45 -28.45 8.5 Q-28.45 9.25 -27.65 9.25 L-17.8 9.25 -17.8 13.0 -30.25 13.0 Q-32.65 13.0 -32.65 10.75 L-32.65 3.45 -35.6 3.45 -35.6 2.55 -20.2 2.55 M-2.5 3.0 L1.1 3.0 1.1 9.25 Q1.1 9.7 1.85 9.7 L7.6 9.7 7.6 12.6 -0.35 12.6 Q-2.5 12.6 -2.5 10.9 L-2.5 3.0 M12.15 9.5 Q12.5 9.5 12.7 8.8 L13.45 5.15 16.95 5.15 15.7 10.55 Q15.2 12.45 13.35 12.45 L10.7 12.45 10.7 9.5 12.15 9.5" fill="#ee8817" fill-rule="evenodd" stroke="none"/>
  </g>
</svg>
