<?xml version="1.0" encoding="UTF-8" standalone="no"?>
<svg xmlns:xlink="http://www.w3.org/1999/xlink" height="29.7px" width="29.75px" xmlns="http://www.w3.org/2000/svg">
  <g transform="matrix(1.0, 0.0, 0.0, 1.0, 0.65, -0.6)">
    <path d="M11.75 20.3 Q12.1 20.65 12.75 20.75 L26.1 20.9 26.45 20.75 Q27.2 20.45 27.2 19.5 L27.35 12.85 Q25.45 12.25 25.85 6.2 L25.9 5.8 23.1 5.65 23.1 6.25 Q23.0 9.1 20.95 9.5 L18.75 9.45 Q16.05 9.45 15.9 6.2 L16.0 5.5 13.05 5.55 Q13.1 11.2 11.35 12.45 L11.15 18.8 11.55 20.1" fill="none" stroke="#ffffff" stroke-linecap="butt" stroke-linejoin="miter-clip" stroke-miterlimit="3.0" stroke-width="3.5"/>
    <path d="M8.0 4.75 Q7.4 5.1 6.95 5.55 4.0 8.05 2.3 11.0 L5.15 11.0 5.15 20.45 10.75 20.45 10.75 11.0 13.7 11.0 Q11.55 7.35 8.0 4.75 Z" fill="none" stroke="#ffffff" stroke-linecap="butt" stroke-linejoin="miter-clip" stroke-miterlimit="3.0" stroke-width="3.5"/>
    <path d="M8.0 4.75 Q11.55 7.35 13.7 11.0 L10.75 11.0 10.75 20.45 9.5 20.45 9.55 12.3 9.55 10.05 11.35 10.05 9.8 7.45 8.0 4.75" fill="#3b861d" fill-rule="evenodd" stroke="none"/>
    <path d="M6.95 5.55 L8.0 4.75 Q5.85 6.75 6.95 5.55" fill="#cb2c1b" fill-rule="evenodd" stroke="none"/>
    <path d="M6.35 20.45 L5.15 20.45 5.15 11.0 2.3 11.0 Q4.0 8.05 6.95 5.55 5.85 6.75 8.0 4.75 L6.4 6.85 5.85 7.5 5.65 7.85 Q4.6 9.4 4.45 10.1 L6.35 10.1 6.35 20.45" fill="#c7f36c" fill-rule="evenodd" stroke="none"/>
    <path d="M6.4 6.85 L6.9 6.65 7.15 6.9 6.3 8.3 Q5.4 9.4 5.4 8.35 L5.65 7.85 5.85 7.5 6.4 6.85" fill="#ffffff" fill-rule="evenodd" stroke="none"/>
    <path d="M8.0 4.75 L9.8 7.45 11.35 10.05 9.55 10.05 9.55 12.3 9.5 20.45 6.35 20.45 6.35 10.1 4.45 10.1 Q4.6 9.4 5.65 7.85 L5.4 8.35 Q5.4 9.4 6.3 8.3 L7.15 6.9 6.9 6.65 6.4 6.85 8.0 4.75" fill="#74c84e" fill-rule="evenodd" stroke="none"/>
    <path d="M9.5 20.45 L10.75 20.45 10.75 11.0 13.7 11.0 Q11.55 7.35 8.0 4.75 L6.95 5.55 Q4.0 8.05 2.3 11.0 L5.15 11.0 5.15 20.45 6.35 20.45 9.5 20.45 Z" fill="none" stroke="#005909" stroke-linecap="butt" stroke-linejoin="miter-clip" stroke-miterlimit="3.0" stroke-width="1.0"/>
    <path d="M21.55 10.05 Q22.45 9.95 22.95 9.15 L23.0 9.15 23.6 6.75 25.1 6.8 Q24.75 8.9 25.05 11.1 L25.05 11.45 Q25.25 12.5 26.2 13.35 L26.15 19.3 Q26.1 19.95 25.45 19.95 L12.95 19.85 Q12.35 19.75 12.2 18.9 L12.35 13.0 Q13.55 11.9 13.9 9.4 L13.9 6.65 15.6 6.65 Q15.75 8.3 16.4 9.25 L17.25 10.05 Q19.5 10.5 21.55 10.05 M22.5 16.1 L22.7 11.85 19.4 11.4 19.35 11.4 16.25 11.8 Q15.9 14.0 16.15 15.95 17.1 17.75 18.8 19.0 L19.25 19.15 19.35 19.2 19.7 19.05 19.75 19.1 19.8 19.0 Q21.65 17.85 22.5 16.1" fill="#553300" fill-rule="evenodd" stroke="none"/>
    <path d="M21.55 10.05 Q19.5 10.5 17.25 10.05 L16.4 9.25 Q15.75 8.3 15.6 6.65 L13.9 6.65 13.9 9.4 Q13.55 11.9 12.35 13.0 L12.2 18.9 Q12.35 19.75 12.95 19.85 L25.45 19.95 Q26.1 19.95 26.15 19.3 L26.2 13.35 Q25.25 12.5 25.05 11.45 L25.05 11.1 Q24.75 8.9 25.1 6.8 L23.6 6.75 23.0 9.15 22.95 9.15 Q22.45 9.95 21.55 10.05 M11.55 20.2 L11.15 18.9 11.35 12.55 Q13.1 11.25 13.05 5.65 L16.0 5.55 15.9 6.3 Q16.05 9.5 18.75 9.55 L20.95 9.55 Q23.0 9.15 23.1 6.35 L23.1 5.75 25.9 5.85 25.85 6.3 Q25.45 12.3 27.35 12.95 L27.2 19.55 Q27.2 20.5 26.45 20.85 L26.1 21.0 12.75 20.85 Q12.1 20.7 11.75 20.35 L11.8 20.15 11.55 20.2" fill="#221500" fill-rule="evenodd" stroke="none"/>
    <path d="M22.5 16.1 Q21.65 17.85 19.8 19.0 L19.75 19.1 19.7 19.05 19.35 19.2 19.25 19.15 18.8 19.0 Q17.1 17.75 16.15 15.95 15.9 14.0 16.25 11.8 L19.35 11.4 19.4 11.4 22.7 11.85 22.5 16.1" fill="#6c4100" fill-rule="evenodd" stroke="none"/>
    <path d="M11.55 20.2 L11.8 20.15 11.75 20.35 11.55 20.2" fill="#9f6000" fill-rule="evenodd" stroke="none"/>
    <path d="M21.0 20.55 L18.1 20.55 18.1 21.4 21.4 21.4 21.4 26.65 20.15 27.9 18.95 27.9 18.95 26.8 19.95 26.8 19.95 22.5 18.1 22.5 18.1 27.5 16.65 28.1 16.65 20.55 16.25 20.55 16.25 19.45 17.95 19.45 18.1 19.2 18.35 19.0 18.85 18.85 19.4 19.0 19.7 19.25 19.8 19.45 21.5 19.45 21.0 20.55 M4.25 19.0 L5.65 19.0 5.65 20.0 6.4 20.0 5.9 21.15 5.65 21.15 5.65 22.15 6.35 22.15 5.65 23.4 5.65 27.55 4.25 28.1 4.25 25.6 4.05 25.95 2.6 25.95 4.25 23.2 4.25 21.15 3.95 21.15 3.85 22.4 2.55 22.4 2.85 19.3 4.15 19.3 4.05 20.0 4.25 20.0 4.25 19.0 M7.6 21.3 L6.2 21.3 6.85 18.9 8.25 18.9 8.15 19.3 11.55 19.3 11.55 26.7 10.3 27.9 9.5 27.9 9.5 26.8 10.2 26.8 10.2 20.4 7.85 20.4 7.6 21.3 M10.05 21.65 L8.9 27.45 7.55 27.45 8.75 21.65 10.05 21.65 M8.4 21.65 L7.15 27.45 5.85 27.45 7.15 21.65 8.4 21.65 M14.25 20.25 L14.25 22.3 14.55 22.3 14.55 20.25 14.25 20.25 M14.25 23.45 L14.25 25.85 14.55 25.85 14.55 23.45 14.25 23.45 M16.15 23.45 L16.15 25.85 14.8 26.95 14.25 26.95 14.25 27.6 12.7 28.15 12.7 19.1 16.15 19.1 16.15 22.3 15.4 22.9 16.15 23.45" fill="#ffff00" fill-rule="evenodd" stroke="none"/>
    <path d="M21.0 20.55 L18.1 20.55 18.1 21.4 21.4 21.4 21.4 26.65 20.15 27.9 18.95 27.9 18.95 26.8 19.95 26.8 19.95 22.5 18.1 22.5 18.1 27.5 16.65 28.1 16.65 20.55 16.25 20.55 16.25 19.45 17.95 19.45 18.1 19.2 18.35 19.0 18.85 18.85 19.4 19.0 19.7 19.25 19.8 19.45 21.5 19.45 21.0 20.55 M4.25 19.0 L5.65 19.0 5.65 20.0 6.4 20.0 5.9 21.15 5.65 21.15 5.65 22.15 6.35 22.15 5.65 23.4 5.65 27.55 4.25 28.1 4.25 25.6 4.05 25.95 2.6 25.95 4.25 23.2 4.25 21.15 3.95 21.15 3.85 22.4 2.55 22.4 2.85 19.3 4.15 19.3 4.05 20.0 4.25 20.0 4.25 19.0 M7.6 21.3 L6.2 21.3 6.85 18.9 8.25 18.9 8.15 19.3 11.55 19.3 11.55 26.7 10.3 27.9 9.5 27.9 9.5 26.8 10.2 26.8 10.2 20.4 7.85 20.4 7.6 21.3 M10.05 21.65 L8.9 27.45 7.55 27.45 8.75 21.65 10.05 21.65 M8.4 21.65 L7.15 27.45 5.85 27.45 7.15 21.65 8.4 21.65 M14.25 20.25 L14.25 22.3 14.55 22.3 14.55 20.25 14.25 20.25 M14.25 23.45 L14.25 25.85 14.55 25.85 14.55 23.45 14.25 23.45 M16.15 23.45 L16.15 25.85 14.8 26.95 14.25 26.95 14.25 27.6 12.7 28.15 12.7 19.1 16.15 19.1 16.15 22.3 15.4 22.9 16.15 23.45 Z" fill="none" stroke="#660000" stroke-linecap="butt" stroke-linejoin="miter-clip" stroke-miterlimit="3.0" stroke-width="3.0"/>
    <path d="M21.05 20.55 L18.1 20.55 18.1 21.4 21.4 21.4 21.4 26.65 20.15 27.9 18.95 27.9 18.95 26.8 19.95 26.8 19.95 22.5 18.1 22.5 18.1 27.5 16.65 28.1 16.65 20.55 16.25 20.55 16.25 19.45 17.95 19.45 18.1 19.2 18.4 19.0 18.9 18.85 19.4 19.0 19.7 19.25 19.8 19.45 21.5 19.45 21.05 20.55 M4.3 19.0 L5.65 19.0 5.65 20.0 6.4 20.0 5.9 21.15 5.65 21.15 5.65 22.15 6.35 22.15 5.65 23.4 5.65 27.55 4.3 28.1 4.3 25.6 4.05 25.95 2.65 25.95 4.3 23.2 4.3 21.15 3.95 21.15 3.85 22.4 2.55 22.4 2.9 19.3 4.15 19.3 4.05 20.0 4.3 20.0 4.3 19.0 M10.05 21.65 L8.9 27.45 7.55 27.45 8.75 21.65 10.05 21.65 M7.65 21.3 L6.2 21.3 6.85 18.9 8.25 18.9 8.15 19.3 11.55 19.3 11.55 26.7 10.3 27.9 9.5 27.9 9.5 26.8 10.2 26.8 10.2 20.4 7.9 20.4 7.65 21.3 M8.4 21.65 L7.2 27.45 5.85 27.45 7.15 21.65 8.4 21.65 M14.25 23.45 L14.25 25.85 14.6 25.85 14.6 23.45 14.25 23.45 M14.25 20.25 L14.25 22.3 14.6 22.3 14.6 20.25 14.25 20.25 M16.15 23.45 L16.15 25.85 14.85 26.95 14.25 26.95 14.25 27.6 12.7 28.15 12.7 19.1 16.15 19.1 16.15 22.3 15.4 22.9 16.15 23.45" fill="#ffff00" fill-rule="evenodd" stroke="none"/>
  </g>
</svg>
