<?xml version="1.0" encoding="UTF-8" standalone="no"?>
<svg xmlns:xlink="http://www.w3.org/1999/xlink" height="32.35px" width="111.75px" xmlns="http://www.w3.org/2000/svg">
  <g transform="matrix(1.0, 0.0, 0.0, 1.0, 6.0, 5.5)">
    <path d="M96.4 7.7 L78.75 7.7 79.5 5.4 98.3 5.4 96.4 7.7 M97.85 3.8 L83.6 3.8 82.75 5.05 79.05 5.05 82.3 0.5 85.9 0.5 85.25 1.45 99.75 1.45 97.85 3.8 M95.25 17.75 L93.2 20.35 89.05 20.35 92.0 11.45 77.35 11.45 78.1 9.15 96.3 9.15 93.5 17.75 95.25 17.75 M77.2 3.65 L73.25 7.6 75.1 11.5 71.5 11.5 70.8 9.95 69.2 11.5 65.6 11.5 69.65 7.55 68.2 4.4 71.7 4.45 72.1 5.2 73.9 3.45 68.45 3.45 69.2 1.1 78.05 1.1 77.2 3.65 M74.15 12.15 L71.8 19.3 68.1 20.75 70.9 12.15 74.15 12.15 M67.5 1.9 L68.85 1.9 66.95 4.3 66.7 4.3 65.75 7.15 63.25 8.9 65.2 11.5 61.3 11.5 60.7 10.65 59.55 11.5 55.65 11.5 59.35 8.9 57.95 7.15 58.9 4.3 58.3 4.3 59.1 1.9 59.7 1.9 60.05 0.85 63.05 0.85 62.7 1.9 64.45 1.9 64.8 0.85 67.85 0.85 67.5 1.9 M61.9 4.3 L61.2 6.35 61.85 7.15 62.95 6.35 63.65 4.3 61.9 4.3 M67.8 15.4 L66.75 16.15 65.65 16.4 64.6 16.15 64.1 15.4 Q64.0 14.9 64.2 14.4 64.35 13.85 64.85 13.35 65.25 12.85 65.9 12.6 66.45 12.35 67.0 12.35 L67.95 12.6 68.55 13.35 68.45 14.35 67.8 15.4 M68.05 18.1 L66.2 20.4 58.0 20.35 60.65 12.35 64.0 12.35 62.05 18.1 68.05 18.1 M59.3 12.2 L56.95 19.4 53.25 20.85 56.1 12.2 59.3 12.2" fill="#ffffff" fill-rule="evenodd" stroke="none"/>
    <path d="M96.4 7.7 L78.75 7.7 79.5 5.4 98.3 5.4 96.4 7.7 M97.85 3.8 L83.6 3.8 82.75 5.05 79.05 5.05 82.3 0.5 85.9 0.5 85.25 1.45 99.75 1.45 97.85 3.8 M95.25 17.75 L93.2 20.35 89.05 20.35 92.0 11.45 77.35 11.45 78.1 9.15 96.3 9.15 93.5 17.75 95.25 17.75 M77.2 3.65 L73.25 7.6 75.1 11.5 71.5 11.5 70.8 9.95 69.2 11.5 65.6 11.5 69.65 7.55 68.2 4.4 71.7 4.45 72.1 5.2 73.9 3.45 68.45 3.45 69.2 1.1 78.05 1.1 77.2 3.65 M74.15 12.15 L71.8 19.3 68.1 20.75 70.9 12.15 74.15 12.15 M67.5 1.9 L68.85 1.9 66.95 4.3 66.7 4.3 65.75 7.15 63.25 8.9 65.2 11.5 61.3 11.5 60.7 10.65 59.55 11.5 55.65 11.5 59.35 8.9 57.95 7.15 58.9 4.3 58.3 4.3 59.1 1.9 59.7 1.9 60.05 0.85 63.05 0.85 62.7 1.9 64.45 1.9 64.8 0.85 67.85 0.85 67.5 1.9 M61.9 4.3 L61.2 6.35 61.85 7.15 62.95 6.35 63.65 4.3 61.9 4.3 M67.8 15.4 L66.75 16.15 65.65 16.4 64.6 16.15 64.1 15.4 Q64.0 14.9 64.2 14.4 64.35 13.85 64.85 13.35 65.25 12.85 65.9 12.6 66.45 12.35 67.0 12.35 L67.95 12.6 68.55 13.35 68.45 14.35 67.8 15.4 M68.05 18.1 L66.2 20.4 58.0 20.35 60.65 12.35 64.0 12.35 62.05 18.1 68.05 18.1 M59.3 12.2 L56.95 19.4 53.25 20.85 56.1 12.2 59.3 12.2 M12.95 11.6 L7.35 11.6 5.5 17.2 3.65 17.2 5.5 11.6 0.0 11.6 0.6 9.8 6.1 9.8 7.95 4.2 9.8 4.2 7.95 9.8 13.55 9.8 12.95 11.6 Z" fill="none" stroke="#ffffff" stroke-linecap="square" stroke-linejoin="bevel" stroke-width="9.0"/>
    <path d="M96.4 7.7 L78.75 7.7 79.5 5.4 98.3 5.4 96.4 7.7 M97.85 3.8 L83.6 3.8 82.75 5.05 79.05 5.05 82.3 0.5 85.9 0.5 85.25 1.45 99.75 1.45 97.85 3.8 M95.25 17.75 L93.2 20.35 89.05 20.35 92.0 11.45 77.35 11.45 78.1 9.15 96.3 9.15 93.5 17.75 95.25 17.75 M77.2 3.65 L73.25 7.6 75.1 11.5 71.5 11.5 70.8 9.95 69.2 11.5 65.6 11.5 69.65 7.55 68.2 4.4 71.7 4.45 72.1 5.2 73.9 3.45 68.45 3.45 69.2 1.1 78.05 1.1 77.2 3.65 M74.15 12.15 L71.8 19.3 68.1 20.75 70.9 12.15 74.15 12.15 M67.5 1.9 L68.85 1.9 66.95 4.3 66.7 4.3 65.75 7.15 63.25 8.9 65.2 11.5 61.3 11.5 60.7 10.65 59.55 11.5 55.65 11.5 59.35 8.9 57.95 7.15 58.9 4.3 58.3 4.3 59.1 1.9 59.7 1.9 60.05 0.85 63.05 0.85 62.7 1.9 64.45 1.9 64.8 0.85 67.85 0.85 67.5 1.9 M61.9 4.3 L61.2 6.35 61.85 7.15 62.95 6.35 63.65 4.3 61.9 4.3 M67.8 15.4 L66.75 16.15 65.65 16.4 64.6 16.15 64.1 15.4 Q64.0 14.9 64.2 14.4 64.35 13.85 64.85 13.35 65.25 12.85 65.9 12.6 66.45 12.35 67.0 12.35 L67.95 12.6 68.55 13.35 68.45 14.35 67.8 15.4 M68.05 18.1 L66.2 20.4 58.0 20.35 60.65 12.35 64.0 12.35 62.05 18.1 68.05 18.1 M59.3 12.2 L56.95 19.4 53.25 20.85 56.1 12.2 59.3 12.2" fill="#2d0000" fill-rule="evenodd" stroke="none"/>
    <path d="M96.4 7.7 L78.75 7.7 79.5 5.4 98.3 5.4 96.4 7.7 M97.85 3.8 L83.6 3.8 82.75 5.05 79.05 5.05 82.3 0.5 85.9 0.5 85.25 1.45 99.75 1.45 97.85 3.8 M95.25 17.75 L93.2 20.35 89.05 20.35 92.0 11.45 77.35 11.45 78.1 9.15 96.3 9.15 93.5 17.75 95.25 17.75 M77.2 3.65 L73.25 7.6 75.1 11.5 71.5 11.5 70.8 9.95 69.2 11.5 65.6 11.5 69.65 7.55 68.2 4.4 71.7 4.45 72.1 5.2 73.9 3.45 68.45 3.45 69.2 1.1 78.05 1.1 77.2 3.65 M74.15 12.15 L71.8 19.3 68.1 20.75 70.9 12.15 74.15 12.15 M67.5 1.9 L68.85 1.9 66.95 4.3 66.7 4.3 65.75 7.15 63.25 8.9 65.2 11.5 61.3 11.5 60.7 10.65 59.55 11.5 55.65 11.5 59.35 8.9 57.95 7.15 58.9 4.3 58.3 4.3 59.1 1.9 59.7 1.9 60.05 0.85 63.05 0.85 62.7 1.9 64.45 1.9 64.8 0.85 67.85 0.85 67.5 1.9 M61.9 4.3 L61.2 6.35 61.85 7.15 62.95 6.35 63.65 4.3 61.9 4.3 M67.8 15.4 L66.75 16.15 65.65 16.4 64.6 16.15 64.1 15.4 Q64.0 14.9 64.2 14.4 64.35 13.85 64.85 13.35 65.25 12.85 65.9 12.6 66.45 12.35 67.0 12.35 L67.95 12.6 68.55 13.35 68.45 14.35 67.8 15.4 M68.05 18.1 L66.2 20.4 58.0 20.35 60.65 12.35 64.0 12.35 62.05 18.1 68.05 18.1 M59.3 12.2 L56.95 19.4 53.25 20.85 56.1 12.2 59.3 12.2 M12.95 11.6 L7.35 11.6 5.5 17.2 3.65 17.2 5.5 11.6 0.0 11.6 0.6 9.8 6.1 9.8 7.95 4.2 9.8 4.2 7.95 9.8 13.55 9.8 12.95 11.6 Z" fill="none" stroke="#2d0000" stroke-linecap="square" stroke-linejoin="bevel" stroke-width="6.0"/>
    <path d="M96.45 7.2 L78.8 7.2 79.55 4.9 98.35 4.9 96.45 7.2 M97.9 3.3 L83.65 3.3 82.8 4.55 79.1 4.55 82.35 0.0 85.95 0.0 85.3 0.95 99.8 0.95 97.9 3.3 M95.3 17.25 L93.25 19.85 89.1 19.85 92.05 10.95 77.4 10.95 78.15 8.65 96.35 8.65 93.55 17.25 95.3 17.25 M77.25 3.15 L73.3 7.1 75.15 11.0 71.55 11.0 70.85 9.45 69.25 11.0 65.65 11.0 69.7 7.05 68.25 3.9 71.75 3.95 72.15 4.7 73.95 2.95 68.5 2.95 69.25 0.6 78.1 0.6 77.25 3.15 M74.2 11.65 L71.85 18.8 68.15 20.25 70.95 11.65 74.2 11.65 M67.55 1.4 L68.9 1.4 67.0 3.8 66.75 3.8 65.8 6.65 63.3 8.4 65.25 11.0 61.35 11.0 60.75 10.15 59.6 11.0 55.7 11.0 59.4 8.4 58.0 6.65 58.95 3.8 58.35 3.8 59.15 1.4 59.75 1.4 60.1 0.35 63.1 0.35 62.75 1.4 64.5 1.4 64.85 0.35 67.9 0.35 67.55 1.4 M61.25 5.85 L61.9 6.65 63.0 5.85 63.7 3.8 61.95 3.8 61.25 5.85 M67.05 11.85 L68.0 12.1 68.6 12.85 68.5 13.85 67.85 14.9 66.8 15.65 65.7 15.9 64.65 15.65 64.15 14.9 Q64.05 14.4 64.25 13.9 64.4 13.35 64.9 12.85 L65.95 12.1 67.05 11.85 M66.25 19.9 L58.05 19.85 60.7 11.85 64.05 11.85 62.1 17.6 68.1 17.6 66.25 19.9 M59.35 11.7 L57.0 18.9 53.3 20.35 56.15 11.7 59.35 11.7" fill="#de801e" fill-rule="evenodd" stroke="none"/>
    <path d="M96.45 7.2 L78.8 7.2 79.55 4.9 98.35 4.9 96.45 7.2 M97.9 3.3 L83.65 3.3 82.8 4.55 79.1 4.55 82.35 0.0 85.95 0.0 85.3 0.95 99.8 0.95 97.9 3.3 M95.3 17.25 L93.25 19.85 89.1 19.85 92.05 10.95 77.4 10.95 78.15 8.65 96.35 8.65 93.55 17.25 95.3 17.25 M77.25 3.15 L73.3 7.1 75.15 11.0 71.55 11.0 70.85 9.45 69.25 11.0 65.65 11.0 69.7 7.05 68.25 3.9 71.75 3.95 72.15 4.7 73.95 2.95 68.5 2.95 69.25 0.6 78.1 0.6 77.25 3.15 M74.2 11.65 L71.85 18.8 68.15 20.25 70.95 11.65 74.2 11.65 M67.55 1.4 L68.9 1.4 67.0 3.8 66.75 3.8 65.8 6.65 63.3 8.4 65.25 11.0 61.35 11.0 60.75 10.15 59.6 11.0 55.7 11.0 59.4 8.4 58.0 6.65 58.95 3.8 58.35 3.8 59.15 1.4 59.75 1.4 60.1 0.35 63.1 0.35 62.75 1.4 64.5 1.4 64.85 0.35 67.9 0.35 67.55 1.4 M61.25 5.85 L61.9 6.65 63.0 5.85 63.7 3.8 61.95 3.8 61.25 5.85 M67.05 11.85 L68.0 12.1 68.6 12.85 68.5 13.85 67.85 14.9 66.8 15.65 65.7 15.9 64.65 15.65 64.15 14.9 Q64.05 14.4 64.25 13.9 64.4 13.35 64.9 12.85 L65.95 12.1 67.05 11.85 M66.25 19.9 L58.05 19.85 60.7 11.85 64.05 11.85 62.1 17.6 68.1 17.6 66.25 19.9 M59.35 11.7 L57.0 18.9 53.3 20.35 56.15 11.7 59.35 11.7 M13.0 11.1 L7.4 11.1 5.55 16.7 3.7 16.7 5.55 11.1 0.05 11.1 0.65 9.3 6.15 9.3 8.0 3.7 9.85 3.7 8.0 9.3 13.6 9.3 13.0 11.1 Z" fill="none" stroke="#de801e" stroke-linecap="square" stroke-linejoin="bevel" stroke-width="3.0"/>
    <path d="M96.45 7.2 L78.8 7.2 79.55 4.9 98.35 4.9 96.45 7.2 M97.9 3.3 L83.65 3.3 82.8 4.55 79.1 4.55 82.35 0.0 85.95 0.0 85.3 0.95 99.8 0.95 97.9 3.3 M95.3 17.25 L93.25 19.85 89.1 19.85 92.05 10.95 77.4 10.95 78.15 8.65 96.35 8.65 93.55 17.25 95.3 17.25 M77.25 3.15 L73.3 7.1 75.15 11.0 71.55 11.0 70.85 9.45 69.25 11.0 65.65 11.0 69.7 7.05 68.25 3.9 71.75 3.95 72.15 4.7 73.95 2.95 68.5 2.95 69.25 0.6 78.1 0.6 77.25 3.15 M74.2 11.65 L71.85 18.8 68.15 20.25 70.95 11.65 74.2 11.65 M67.55 1.4 L68.9 1.4 67.0 3.8 66.75 3.8 65.8 6.65 63.3 8.4 65.25 11.0 61.35 11.0 60.75 10.15 59.6 11.0 55.7 11.0 59.4 8.4 58.0 6.65 58.95 3.8 58.35 3.8 59.15 1.4 59.75 1.4 60.1 0.35 63.1 0.35 62.75 1.4 64.5 1.4 64.85 0.35 67.9 0.35 67.55 1.4 M61.25 5.85 L61.9 6.65 63.0 5.85 63.7 3.8 61.95 3.8 61.25 5.85 M67.05 11.85 L68.0 12.1 68.6 12.85 68.5 13.85 67.85 14.9 66.8 15.65 65.7 15.9 64.65 15.65 64.15 14.9 Q64.05 14.4 64.25 13.9 64.4 13.35 64.9 12.85 L65.95 12.1 67.05 11.85 M66.25 19.9 L58.05 19.85 60.7 11.85 64.05 11.85 62.1 17.6 68.1 17.6 66.25 19.9 M59.35 11.7 L57.0 18.9 53.3 20.35 56.15 11.7 59.35 11.7" fill="url(#gradient0)" fill-rule="evenodd" stroke="none"/>
    <path d="M13.0 11.1 L7.4 11.1 5.55 16.7 3.7 16.7 5.55 11.1 0.05 11.1 0.65 9.3 6.15 9.3 8.0 3.7 9.85 3.7 8.0 9.3 13.6 9.3 13.0 11.1" fill="url(#gradient1)" fill-rule="evenodd" stroke="none"/>
  </g>
  <defs>
    <linearGradient gradientTransform="matrix(5.0E-4, -0.0092, 0.0124, 0.0, 60.9, 10.15)" gradientUnits="userSpaceOnUse" id="gradient0" spreadMethod="pad" x1="-819.2" x2="819.2">
      <stop offset="0.0" stop-color="#ff9900"/>
      <stop offset="1.0" stop-color="#ffff00"/>
    </linearGradient>
    <linearGradient gradientTransform="matrix(5.0E-4, -0.0092, 0.0124, 0.0, 38.4, 10.15)" gradientUnits="userSpaceOnUse" id="gradient1" spreadMethod="pad" x1="-819.2" x2="819.2">
      <stop offset="0.0" stop-color="#ff9900"/>
      <stop offset="1.0" stop-color="#ffff00"/>
    </linearGradient>
  </defs>
</svg>
