<?xml version="1.0" encoding="UTF-8" standalone="no"?>
<svg xmlns:xlink="http://www.w3.org/1999/xlink" height="23.65px" width="18.9px" xmlns="http://www.w3.org/2000/svg">
  <g transform="matrix(1.0, 0.0, 0.0, 1.0, 4.3, -108.85)">
    <path d="M8.45 114.05 L9.1 114.7 9.65 115.4 9.9 116.15 10.0 116.75 10.1 117.55 10.1 123.25 10.0 124.4 9.8 125.4 9.35 126.4 8.9 126.95 8.35 127.3 7.65 127.65 6.95 127.85 5.95 127.9 5.15 128.0 4.05 127.9 3.05 127.75 2.35 127.45 1.6 127.0 1.0 126.3 0.45 125.3 0.25 124.25 0.2 123.25 0.2 117.5 0.35 116.3 0.65 115.5 1.1 114.85 1.6 114.25 2.45 113.8 3.4 113.45 4.75 113.35 5.6 113.35 6.85 113.45 7.75 113.6 8.45 114.05 M6.05 116.5 L5.2 116.3 4.75 116.3 4.25 116.4 Q3.85 116.6 3.8 116.75 L3.4 117.2 Q3.25 117.5 3.35 118.4 L3.35 122.15 3.35 123.25 Q3.4 123.8 3.7 124.05 L4.3 124.6 5.3 124.75 5.5 124.75 6.3 124.6 6.75 124.05 6.95 123.05 7.0 122.15 7.0 118.65 6.85 117.55 6.55 116.75 6.05 116.5" fill="#ffffff" fill-rule="evenodd" stroke="none"/>
    <path d="M8.45 114.05 L9.1 114.7 9.65 115.4 9.9 116.15 10.0 116.75 10.1 117.55 10.1 123.25 10.0 124.4 9.8 125.4 9.35 126.4 8.9 126.95 8.35 127.3 7.65 127.65 6.95 127.85 5.95 127.9 5.15 128.0 4.05 127.9 3.05 127.75 2.35 127.45 1.6 127.0 1.0 126.3 0.45 125.3 0.25 124.25 0.2 123.25 0.2 117.5 0.35 116.3 0.65 115.5 1.1 114.85 1.6 114.25 2.45 113.8 3.4 113.45 4.75 113.35 5.6 113.35 6.85 113.45 7.75 113.6 8.45 114.05 M6.05 116.5 L5.2 116.3 4.75 116.3 4.25 116.4 Q3.85 116.6 3.8 116.75 L3.4 117.2 Q3.25 117.5 3.35 118.4 L3.35 122.15 3.35 123.25 Q3.4 123.8 3.7 124.05 L4.3 124.6 5.3 124.75 5.5 124.75 6.3 124.6 6.75 124.05 6.95 123.05 7.0 122.15 7.0 118.65 6.85 117.55 6.55 116.75 6.05 116.5 Z" fill="none" stroke="#ffffff" stroke-linecap="round" stroke-linejoin="bevel" stroke-width="9.0"/>
    <path d="M8.45 114.05 L9.1 114.7 9.65 115.4 9.9 116.15 10.0 116.75 10.1 117.55 10.1 123.25 10.0 124.4 9.8 125.4 9.35 126.4 8.9 126.95 8.35 127.3 7.65 127.65 6.95 127.85 5.95 127.9 5.15 128.0 4.05 127.9 3.05 127.75 2.35 127.45 1.6 127.0 1.0 126.3 0.45 125.3 0.25 124.25 0.2 123.25 0.2 117.5 0.35 116.3 0.65 115.5 1.1 114.85 1.6 114.25 2.45 113.8 3.4 113.45 4.75 113.35 5.6 113.35 6.85 113.45 7.75 113.6 8.45 114.05 M6.55 116.75 L6.05 116.5 5.2 116.3 4.75 116.3 4.25 116.4 Q3.85 116.6 3.8 116.75 L3.4 117.2 Q3.25 117.5 3.35 118.4 L3.35 122.15 3.35 123.25 Q3.4 123.8 3.7 124.05 L4.3 124.6 5.3 124.75 5.5 124.75 6.3 124.6 6.75 124.05 6.95 123.05 7.0 122.15 7.0 118.65 6.85 117.55 6.55 116.75" fill="url(#gradient0)" fill-rule="evenodd" stroke="none"/>
    <path d="M8.45 114.05 L9.1 114.7 9.65 115.4 9.9 116.15 10.0 116.75 10.1 117.55 10.1 123.25 10.0 124.4 9.8 125.4 9.35 126.4 8.9 126.95 8.35 127.3 7.65 127.65 6.95 127.85 5.95 127.9 5.15 128.0 4.05 127.9 3.05 127.75 2.35 127.45 1.6 127.0 1.0 126.3 0.45 125.3 0.25 124.25 0.2 123.25 0.2 117.5 0.35 116.3 0.65 115.5 1.1 114.85 1.6 114.25 2.45 113.8 3.4 113.45 4.75 113.35 5.6 113.35 6.85 113.45 7.75 113.6 8.45 114.05 M6.55 116.75 L6.05 116.5 5.2 116.3 4.75 116.3 4.25 116.4 Q3.85 116.6 3.8 116.75 L3.4 117.2 Q3.25 117.5 3.35 118.4 L3.35 122.15 3.35 123.25 Q3.4 123.8 3.7 124.05 L4.3 124.6 5.3 124.75 5.5 124.75 6.3 124.6 6.75 124.05 6.95 123.05 7.0 122.15 7.0 118.65 6.85 117.55 6.55 116.75 Z" fill="none" stroke="#2d0000" stroke-linecap="round" stroke-linejoin="bevel" stroke-width="6.0"/>
    <path d="M8.45 114.05 L9.1 114.7 9.65 115.4 9.9 116.15 10.0 116.75 10.1 117.55 10.1 123.25 10.0 124.4 9.8 125.4 9.35 126.4 8.9 126.95 8.35 127.3 7.65 127.65 6.95 127.85 5.95 127.9 5.15 128.0 4.05 127.9 3.05 127.75 2.35 127.45 1.6 127.0 1.0 126.3 0.45 125.3 0.25 124.25 0.2 123.25 0.2 117.5 0.35 116.3 0.65 115.5 1.1 114.85 1.6 114.25 2.45 113.8 3.4 113.45 4.75 113.35 5.6 113.35 6.85 113.45 7.75 113.6 8.45 114.05 M6.55 116.75 L6.05 116.5 5.2 116.3 4.75 116.3 4.25 116.4 Q3.85 116.6 3.8 116.75 L3.4 117.2 Q3.25 117.5 3.35 118.4 L3.35 122.15 3.35 123.25 Q3.4 123.8 3.7 124.05 L4.3 124.6 5.3 124.75 5.5 124.75 6.3 124.6 6.75 124.05 6.95 123.05 7.0 122.15 7.0 118.65 6.85 117.55 6.55 116.75" fill="url(#gradient1)" fill-rule="evenodd" stroke="none"/>
    <path d="M8.45 114.05 L9.1 114.7 9.65 115.4 9.9 116.15 10.0 116.75 10.1 117.55 10.1 123.25 10.0 124.4 9.8 125.4 9.35 126.4 8.9 126.95 8.35 127.3 7.65 127.65 6.95 127.85 5.95 127.9 5.15 128.0 4.05 127.9 3.05 127.75 2.35 127.45 1.6 127.0 1.0 126.3 0.45 125.3 0.25 124.25 0.2 123.25 0.2 117.5 0.35 116.3 0.65 115.5 1.1 114.85 1.6 114.25 2.45 113.8 3.4 113.45 4.75 113.35 5.6 113.35 6.85 113.45 7.75 113.6 8.45 114.05 M6.55 116.75 L6.05 116.5 5.2 116.3 4.75 116.3 4.25 116.4 Q3.85 116.6 3.8 116.75 L3.4 117.2 Q3.25 117.5 3.35 118.4 L3.35 122.15 3.35 123.25 Q3.4 123.8 3.7 124.05 L4.3 124.6 5.3 124.75 5.5 124.75 6.3 124.6 6.75 124.05 6.95 123.05 7.0 122.15 7.0 118.65 6.85 117.55 6.55 116.75 Z" fill="none" stroke="#de801e" stroke-linecap="butt" stroke-linejoin="miter-clip" stroke-miterlimit="3.0" stroke-width="3.0"/>
    <path d="M8.45 114.05 L9.1 114.7 9.65 115.4 9.9 116.15 10.0 116.75 10.1 117.55 10.1 123.25 10.0 124.4 9.8 125.4 9.35 126.4 8.9 126.95 8.35 127.3 7.65 127.65 6.95 127.85 5.95 127.9 5.15 128.0 4.05 127.9 3.05 127.75 2.35 127.45 1.6 127.0 1.0 126.3 0.45 125.3 0.25 124.25 0.2 123.25 0.2 117.5 0.35 116.3 0.65 115.5 1.1 114.85 1.6 114.25 2.45 113.8 3.4 113.45 4.75 113.35 5.6 113.35 6.85 113.45 7.75 113.6 8.45 114.05 M6.55 116.75 L6.05 116.5 5.2 116.3 4.75 116.3 4.25 116.4 Q3.85 116.6 3.8 116.75 L3.4 117.2 Q3.25 117.5 3.35 118.4 L3.35 122.15 3.35 123.25 Q3.4 123.8 3.7 124.05 L4.3 124.6 5.3 124.75 5.5 124.75 6.3 124.6 6.75 124.05 6.95 123.05 7.0 122.15 7.0 118.65 6.85 117.55 6.55 116.75" fill="url(#gradient2)" fill-rule="evenodd" stroke="none"/>
  </g>
  <defs>
    <linearGradient gradientTransform="matrix(0.0, -0.009, 0.0062, 0.0, 5.1, 120.65)" gradientUnits="userSpaceOnUse" id="gradient0" spreadMethod="pad" x1="-819.2" x2="819.2">
      <stop offset="0.0" stop-color="#ff9900"/>
      <stop offset="1.0" stop-color="#ffff00"/>
    </linearGradient>
    <linearGradient gradientTransform="matrix(0.0, -0.009, 0.0062, 0.0, 5.1, 120.65)" gradientUnits="userSpaceOnUse" id="gradient1" spreadMethod="pad" x1="-819.2" x2="819.2">
      <stop offset="0.0" stop-color="#ff9900"/>
      <stop offset="1.0" stop-color="#ffff00"/>
    </linearGradient>
    <linearGradient gradientTransform="matrix(0.0, -0.009, 0.0062, 0.0, 5.1, 120.65)" gradientUnits="userSpaceOnUse" id="gradient2" spreadMethod="pad" x1="-819.2" x2="819.2">
      <stop offset="0.0" stop-color="#ff9900"/>
      <stop offset="1.0" stop-color="#ffff00"/>
    </linearGradient>
  </defs>
</svg>
