<?xml version="1.0" encoding="UTF-8" standalone="no"?>
<svg xmlns:xlink="http://www.w3.org/1999/xlink" height="26.55px" width="21.95px" xmlns="http://www.w3.org/2000/svg">
  <g transform="matrix(1.0, 0.0, 0.0, 1.0, 5.8, -107.4)">
    <path d="M6.4 116.45 L5.75 116.35 4.15 116.35 3.35 116.55 3.05 116.8 3.05 117.45 3.05 118.15 0.2 118.15 0.2 117.8 0.2 117.25 0.2 116.35 Q0.25 115.35 0.55 114.85 L1.15 114.0 1.9 113.55 3.15 113.4 7.2 113.4 8.0 113.55 9.0 114.0 9.7 115.0 10.0 116.2 10.0 117.35 9.9 118.8 9.65 119.5 9.1 120.25 9.65 120.85 9.9 121.4 10.1 122.1 10.15 123.85 10.1 124.9 9.9 125.8 9.55 126.55 9.0 127.25 8.45 127.6 7.65 127.9 6.85 127.95 3.15 127.95 2.15 127.9 1.25 127.45 0.55 126.35 Q0.2 125.7 0.2 125.1 L0.2 124.0 0.2 123.4 3.15 123.4 3.15 124.2 3.25 124.75 3.6 124.9 4.15 124.9 5.65 124.9 6.55 124.75 6.95 123.9 6.85 122.75 6.65 122.1 Q6.5 121.95 6.1 121.95 L2.25 121.95 2.25 119.15 5.6 119.15 6.1 119.05 6.55 118.9 6.75 118.5 6.85 117.7 6.75 116.9 6.4 116.45" fill="url(#gradient0)" fill-rule="evenodd" stroke="none"/>
    <path d="M6.4 116.45 L5.75 116.35 4.15 116.35 3.35 116.55 3.05 116.8 3.05 117.45 3.05 118.15 0.2 118.15 0.2 117.8 0.2 117.25 0.2 116.35 Q0.25 115.35 0.55 114.85 L1.15 114.0 1.9 113.55 3.15 113.4 7.2 113.4 8.0 113.55 9.0 114.0 9.7 115.0 10.0 116.2 10.0 117.35 9.9 118.8 9.65 119.5 9.1 120.25 9.65 120.85 9.9 121.4 10.1 122.1 10.15 123.85 10.1 124.9 9.9 125.8 9.55 126.55 9.0 127.25 8.45 127.6 7.65 127.9 6.85 127.95 3.15 127.95 2.15 127.9 1.25 127.45 0.55 126.35 Q0.2 125.7 0.2 125.1 L0.2 124.0 0.2 123.4 3.15 123.4 3.15 124.2 3.25 124.75 3.6 124.9 4.15 124.9 5.65 124.9 6.55 124.75 6.95 123.9 6.85 122.75 6.65 122.1 Q6.5 121.95 6.1 121.95 L2.25 121.95 2.25 119.15 5.6 119.15 6.1 119.05 6.55 118.9 6.75 118.5 6.85 117.7 6.75 116.9 6.4 116.45 Z" fill="none" stroke="#ffffff" stroke-linecap="square" stroke-linejoin="bevel" stroke-width="9.0"/>
    <path d="M6.4 116.45 L5.75 116.35 4.15 116.35 3.35 116.55 3.05 116.8 3.05 117.45 3.05 118.15 0.2 118.15 0.2 117.8 0.2 117.25 0.2 116.35 Q0.25 115.35 0.55 114.85 L1.15 114.0 1.9 113.55 3.15 113.4 7.2 113.4 8.0 113.55 9.0 114.0 9.7 115.0 10.0 116.2 10.0 117.35 9.9 118.8 9.65 119.5 9.1 120.25 9.65 120.85 9.9 121.4 10.1 122.1 10.15 123.85 10.1 124.9 9.9 125.8 9.55 126.55 9.0 127.25 8.45 127.6 7.65 127.9 6.85 127.95 3.15 127.95 2.15 127.9 1.25 127.45 0.55 126.35 Q0.2 125.7 0.2 125.1 L0.2 124.0 0.2 123.4 3.15 123.4 3.15 124.2 3.25 124.75 3.6 124.9 4.15 124.9 5.65 124.9 6.55 124.75 6.95 123.9 6.85 122.75 6.65 122.1 Q6.5 121.95 6.1 121.95 L2.25 121.95 2.25 119.15 5.6 119.15 6.1 119.05 6.55 118.9 6.75 118.5 6.85 117.7 6.75 116.9 6.4 116.45" fill="url(#gradient1)" fill-rule="evenodd" stroke="none"/>
    <path d="M6.4 116.45 L5.75 116.35 4.15 116.35 3.35 116.55 3.05 116.8 3.05 117.45 3.05 118.15 0.2 118.15 0.2 117.8 0.2 117.25 0.2 116.35 Q0.25 115.35 0.55 114.85 L1.15 114.0 1.9 113.55 3.15 113.4 7.2 113.4 8.0 113.55 9.0 114.0 9.7 115.0 10.0 116.2 10.0 117.35 9.9 118.8 9.65 119.5 9.1 120.25 9.65 120.85 9.9 121.4 10.1 122.1 10.15 123.85 10.1 124.9 9.9 125.8 9.55 126.55 9.0 127.25 8.45 127.6 7.65 127.9 6.85 127.95 3.15 127.95 2.15 127.9 1.25 127.45 0.55 126.35 Q0.2 125.7 0.2 125.1 L0.2 124.0 0.2 123.4 3.15 123.4 3.15 124.2 3.25 124.75 3.6 124.9 4.15 124.9 5.65 124.9 6.55 124.75 6.95 123.9 6.85 122.75 6.65 122.1 Q6.5 121.95 6.1 121.95 L2.25 121.95 2.25 119.15 5.6 119.15 6.1 119.05 6.55 118.9 6.75 118.5 6.85 117.7 6.75 116.9 6.4 116.45 Z" fill="none" stroke="#2d0000" stroke-linecap="square" stroke-linejoin="bevel" stroke-width="6.0"/>
    <path d="M6.4 116.45 L5.75 116.35 4.15 116.35 3.35 116.55 3.05 116.8 3.05 117.45 3.05 118.15 0.2 118.15 0.2 117.8 0.2 117.25 0.2 116.35 Q0.25 115.35 0.55 114.85 L1.15 114.0 1.9 113.55 3.15 113.4 7.2 113.4 8.0 113.55 9.0 114.0 9.7 115.0 10.0 116.2 10.0 117.35 9.9 118.8 9.65 119.5 9.1 120.25 9.65 120.85 9.9 121.4 10.1 122.1 10.15 123.85 10.1 124.9 9.9 125.8 9.55 126.55 9.0 127.25 8.45 127.6 7.65 127.9 6.85 127.95 3.15 127.95 2.15 127.9 1.25 127.45 0.55 126.35 Q0.2 125.7 0.2 125.1 L0.2 124.0 0.2 123.4 3.15 123.4 3.15 124.2 3.25 124.75 3.6 124.9 4.15 124.9 5.65 124.9 6.55 124.75 6.95 123.9 6.85 122.75 6.65 122.1 Q6.5 121.95 6.1 121.95 L2.25 121.95 2.25 119.15 5.6 119.15 6.1 119.05 6.55 118.9 6.75 118.5 6.85 117.7 6.75 116.9 6.4 116.45" fill="url(#gradient2)" fill-rule="evenodd" stroke="none"/>
    <path d="M6.4 116.45 L5.75 116.35 4.15 116.35 3.35 116.55 3.05 116.8 3.05 117.45 3.05 118.15 0.2 118.15 0.2 117.8 0.2 117.25 0.2 116.35 Q0.25 115.35 0.55 114.85 L1.15 114.0 1.9 113.55 3.15 113.4 7.2 113.4 8.0 113.55 9.0 114.0 9.7 115.0 10.0 116.2 10.0 117.35 9.9 118.8 9.65 119.5 9.1 120.25 9.65 120.85 9.9 121.4 10.1 122.1 10.15 123.85 10.1 124.9 9.9 125.8 9.55 126.55 9.0 127.25 8.45 127.6 7.65 127.9 6.85 127.95 3.15 127.95 2.15 127.9 1.25 127.45 0.55 126.35 Q0.2 125.7 0.2 125.1 L0.2 124.0 0.2 123.4 3.15 123.4 3.15 124.2 3.25 124.75 3.6 124.9 4.15 124.9 5.65 124.9 6.55 124.75 6.95 123.9 6.85 122.75 6.65 122.1 Q6.5 121.95 6.1 121.95 L2.25 121.95 2.25 119.15 5.6 119.15 6.1 119.05 6.55 118.9 6.75 118.5 6.85 117.7 6.75 116.9 6.4 116.45 Z" fill="none" stroke="#de801e" stroke-linecap="square" stroke-linejoin="bevel" stroke-width="3.0"/>
    <path d="M6.4 116.45 L5.75 116.35 4.15 116.35 3.35 116.55 3.05 116.8 3.05 117.45 3.05 118.15 0.2 118.15 0.2 117.8 0.2 117.25 0.2 116.35 Q0.25 115.35 0.55 114.85 L1.15 114.0 1.9 113.55 3.15 113.4 7.2 113.4 8.0 113.55 9.0 114.0 9.7 115.0 10.0 116.2 10.0 117.35 9.9 118.8 9.65 119.5 9.1 120.25 9.65 120.85 9.9 121.4 10.1 122.1 10.15 123.85 10.1 124.9 9.9 125.8 9.55 126.55 9.0 127.25 8.45 127.6 7.65 127.9 6.85 127.95 3.15 127.95 2.15 127.9 1.25 127.45 0.55 126.35 Q0.2 125.7 0.2 125.1 L0.2 124.0 0.2 123.4 3.15 123.4 3.15 124.2 3.25 124.75 3.6 124.9 4.15 124.9 5.65 124.9 6.55 124.75 6.95 123.9 6.85 122.75 6.65 122.1 Q6.5 121.95 6.1 121.95 L2.25 121.95 2.25 119.15 5.6 119.15 6.1 119.05 6.55 118.9 6.75 118.5 6.85 117.7 6.75 116.9 6.4 116.45" fill="url(#gradient3)" fill-rule="evenodd" stroke="none"/>
  </g>
  <defs>
    <linearGradient gradientTransform="matrix(0.0, -0.0095, 0.0089, 0.0, 5.15, 120.65)" gradientUnits="userSpaceOnUse" id="gradient0" spreadMethod="pad" x1="-819.2" x2="819.2">
      <stop offset="0.0" stop-color="#ff9900"/>
      <stop offset="1.0" stop-color="#ffff00"/>
    </linearGradient>
    <linearGradient gradientTransform="matrix(0.0, -0.0095, 0.0089, 0.0, 5.15, 120.65)" gradientUnits="userSpaceOnUse" id="gradient1" spreadMethod="pad" x1="-819.2" x2="819.2">
      <stop offset="0.0" stop-color="#ff9900"/>
      <stop offset="1.0" stop-color="#ffff00"/>
    </linearGradient>
    <linearGradient gradientTransform="matrix(0.0, -0.0095, 0.0089, 0.0, 5.15, 120.65)" gradientUnits="userSpaceOnUse" id="gradient2" spreadMethod="pad" x1="-819.2" x2="819.2">
      <stop offset="0.0" stop-color="#ff9900"/>
      <stop offset="1.0" stop-color="#ffff00"/>
    </linearGradient>
    <linearGradient gradientTransform="matrix(0.0, -0.0095, 0.0089, 0.0, 5.15, 120.65)" gradientUnits="userSpaceOnUse" id="gradient3" spreadMethod="pad" x1="-819.2" x2="819.2">
      <stop offset="0.0" stop-color="#ff9900"/>
      <stop offset="1.0" stop-color="#ffff00"/>
    </linearGradient>
  </defs>
</svg>
