<?xml version="1.0" encoding="UTF-8" standalone="no"?>
<svg xmlns:xlink="http://www.w3.org/1999/xlink" height="32.2px" width="73.0px" xmlns="http://www.w3.org/2000/svg">
  <g transform="matrix(1.0, 0.0, 0.0, 1.0, 0.0, 0.0)">
    <path d="M72.25 15.65 Q71.3 19.7 69.05 22.85 63.3 31.05 52.75 25.5 L52.85 25.35 Q67.3 27.85 71.95 14.6 72.3 13.7 73.0 13.0 L72.25 15.65 M51.75 1.5 L55.25 1.95 Q56.7 2.35 57.25 2.9 57.35 3.7 56.25 4.3 55.3 4.8 54.3 4.8 52.4 4.8 50.75 2.9 L49.95 1.65 51.75 1.5 M5.25 13.9 Q3.6 17.0 1.5 17.0 0.0 17.0 0.0 15.55 0.0 12.6 3.2 10.9 6.4 9.15 6.4 11.05 L5.25 13.9 M41.7 28.4 L41.5 30.55 Q29.4 20.95 21.7 6.05 20.15 3.05 17.95 0.4 20.0 -0.55 20.85 0.7 30.5 14.7 41.7 28.4 M8.85 28.15 L6.2 26.1 5.45 25.45 9.8 26.7 Q11.85 27.2 14.0 28.1 16.3 28.95 18.4 30.15 L20.4 31.25 Q18.8 32.55 16.75 32.05 L13.0 30.7 Q10.75 29.65 8.85 28.15" fill="#ffffff" fill-rule="evenodd" stroke="none"/>
  </g>
</svg>
