<?xml version="1.0" encoding="UTF-8" standalone="no"?>
<svg xmlns:xlink="http://www.w3.org/1999/xlink" height="26.75px" width="22.35px" xmlns="http://www.w3.org/2000/svg">
  <g transform="matrix(1.0, 0.0, 0.0, 1.0, 6.0, -107.3)">
    <path d="M9.0 113.3 L9.0 122.4 10.35 122.4 9.45 125.35 9.0 125.35 9.0 126.95 5.85 128.05 5.85 125.35 0.0 125.35 0.0 121.55 6.1 113.3 9.0 113.3 M5.85 122.4 L5.85 118.7 2.95 122.4 5.85 122.4" fill="url(#gradient0)" fill-rule="evenodd" stroke="none"/>
    <path d="M9.0 113.3 L9.0 122.4 10.35 122.4 9.45 125.35 9.0 125.35 9.0 126.95 5.85 128.05 5.85 125.35 0.0 125.35 0.0 121.55 6.1 113.3 9.0 113.3 M5.85 122.4 L5.85 118.7 2.95 122.4 5.85 122.4 Z" fill="none" stroke="#ffffff" stroke-linecap="square" stroke-linejoin="bevel" stroke-width="9.0"/>
    <path d="M2.95 122.4 L5.85 122.4 5.85 118.7 2.95 122.4 M9.0 113.3 L9.0 122.4 10.35 122.4 9.45 125.35 9.0 125.35 9.0 126.95 5.85 128.05 5.85 125.35 0.0 125.35 0.0 121.55 6.1 113.3 9.0 113.3" fill="url(#gradient1)" fill-rule="evenodd" stroke="none"/>
    <path d="M2.95 122.4 L5.85 122.4 5.85 118.7 2.95 122.4 M9.0 113.3 L9.0 122.4 10.35 122.4 9.45 125.35 9.0 125.35 9.0 126.95 5.85 128.05 5.85 125.35 0.0 125.35 0.0 121.55 6.1 113.3 9.0 113.3 Z" fill="none" stroke="#2d0000" stroke-linecap="square" stroke-linejoin="bevel" stroke-width="6.0"/>
    <path d="M2.95 122.4 L5.85 122.4 5.85 118.7 2.95 122.4 M9.0 113.3 L9.0 122.4 10.35 122.4 9.45 125.35 9.0 125.35 9.0 126.95 5.85 128.05 5.85 125.35 0.0 125.35 0.0 121.55 6.1 113.3 9.0 113.3" fill="url(#gradient2)" fill-rule="evenodd" stroke="none"/>
    <path d="M2.95 122.4 L5.85 122.4 5.85 118.7 2.95 122.4 M9.0 113.3 L9.0 122.4 10.35 122.4 9.45 125.35 9.0 125.35 9.0 126.95 5.85 128.05 5.85 125.35 0.0 125.35 0.0 121.55 6.1 113.3 9.0 113.3 Z" fill="none" stroke="#de801e" stroke-linecap="square" stroke-linejoin="bevel" stroke-width="3.0"/>
    <path d="M5.85 118.7 L2.95 122.4 5.85 122.4 5.85 118.7 M9.0 113.3 L9.0 122.4 10.35 122.4 9.45 125.35 9.0 125.35 9.0 126.95 5.85 128.05 5.85 125.35 0.0 125.35 0.0 121.55 6.1 113.3 9.0 113.3" fill="url(#gradient3)" fill-rule="evenodd" stroke="none"/>
  </g>
  <defs>
    <linearGradient gradientTransform="matrix(0.0, -0.0092, 0.009, 0.0, 5.15, 120.65)" gradientUnits="userSpaceOnUse" id="gradient0" spreadMethod="pad" x1="-819.2" x2="819.2">
      <stop offset="0.0" stop-color="#ff9900"/>
      <stop offset="1.0" stop-color="#ffff00"/>
    </linearGradient>
    <linearGradient gradientTransform="matrix(0.0, -0.0092, 0.009, 0.0, 5.15, 120.65)" gradientUnits="userSpaceOnUse" id="gradient1" spreadMethod="pad" x1="-819.2" x2="819.2">
      <stop offset="0.0" stop-color="#ff9900"/>
      <stop offset="1.0" stop-color="#ffff00"/>
    </linearGradient>
    <linearGradient gradientTransform="matrix(0.0, -0.0092, 0.009, 0.0, 5.15, 120.65)" gradientUnits="userSpaceOnUse" id="gradient2" spreadMethod="pad" x1="-819.2" x2="819.2">
      <stop offset="0.0" stop-color="#ff9900"/>
      <stop offset="1.0" stop-color="#ffff00"/>
    </linearGradient>
    <linearGradient gradientTransform="matrix(0.0, -0.0092, 0.009, 0.0, 5.15, 120.65)" gradientUnits="userSpaceOnUse" id="gradient3" spreadMethod="pad" x1="-819.2" x2="819.2">
      <stop offset="0.0" stop-color="#ff9900"/>
      <stop offset="1.0" stop-color="#ffff00"/>
    </linearGradient>
  </defs>
</svg>
