<?xml version="1.0" encoding="UTF-8" standalone="no"?>
<svg xmlns:xlink="http://www.w3.org/1999/xlink" height="26.5px" width="21.7px" xmlns="http://www.w3.org/2000/svg">
  <g transform="matrix(1.0, 0.0, 0.0, 1.0, 5.7, -107.4)">
    <path d="M10.0 113.4 L10.0 116.65 4.25 127.9 0.35 127.9 6.3 116.55 0.3 116.55 0.3 113.4 10.0 113.4" fill="url(#gradient0)" fill-rule="evenodd" stroke="none"/>
    <path d="M10.0 113.4 L10.0 116.65 4.25 127.9 0.35 127.9 6.3 116.55 0.3 116.55 0.3 113.4 10.0 113.4 Z" fill="none" stroke="#ffffff" stroke-linecap="square" stroke-linejoin="bevel" stroke-width="9.0"/>
    <path d="M0.3 113.4 L10.0 113.4 10.0 116.65 4.25 127.9 0.35 127.9 6.3 116.55 0.3 116.55 0.3 113.4" fill="url(#gradient1)" fill-rule="evenodd" stroke="none"/>
    <path d="M0.3 113.4 L10.0 113.4 10.0 116.65 4.25 127.9 0.35 127.9 6.3 116.55 0.3 116.55 0.3 113.4 Z" fill="none" stroke="#2d0000" stroke-linecap="square" stroke-linejoin="bevel" stroke-width="6.0"/>
    <path d="M0.3 113.4 L10.0 113.4 10.0 116.65 4.25 127.9 0.35 127.9 6.3 116.55 0.3 116.55 0.3 113.4" fill="url(#gradient2)" fill-rule="evenodd" stroke="none"/>
    <path d="M0.3 113.4 L10.0 113.4 10.0 116.65 4.25 127.9 0.35 127.9 6.3 116.55 0.3 116.55 0.3 113.4 Z" fill="none" stroke="#de801e" stroke-linecap="square" stroke-linejoin="bevel" stroke-width="3.0"/>
    <path d="M0.3 113.4 L10.0 113.4 10.0 116.65 4.25 127.9 0.35 127.9 6.3 116.55 0.3 116.55 0.3 113.4" fill="url(#gradient3)" fill-rule="evenodd" stroke="none"/>
  </g>
  <defs>
    <linearGradient gradientTransform="matrix(0.0, -0.0092, 0.0089, 0.0, 5.15, 120.65)" gradientUnits="userSpaceOnUse" id="gradient0" spreadMethod="pad" x1="-819.2" x2="819.2">
      <stop offset="0.0" stop-color="#ff9900"/>
      <stop offset="1.0" stop-color="#ffff00"/>
    </linearGradient>
    <linearGradient gradientTransform="matrix(0.0, -0.0092, 0.0089, 0.0, 5.15, 120.65)" gradientUnits="userSpaceOnUse" id="gradient1" spreadMethod="pad" x1="-819.2" x2="819.2">
      <stop offset="0.0" stop-color="#ff9900"/>
      <stop offset="1.0" stop-color="#ffff00"/>
    </linearGradient>
    <linearGradient gradientTransform="matrix(0.0, -0.0092, 0.0089, 0.0, 5.15, 120.65)" gradientUnits="userSpaceOnUse" id="gradient2" spreadMethod="pad" x1="-819.2" x2="819.2">
      <stop offset="0.0" stop-color="#ff9900"/>
      <stop offset="1.0" stop-color="#ffff00"/>
    </linearGradient>
    <linearGradient gradientTransform="matrix(0.0, -0.0092, 0.0089, 0.0, 5.15, 120.65)" gradientUnits="userSpaceOnUse" id="gradient3" spreadMethod="pad" x1="-819.2" x2="819.2">
      <stop offset="0.0" stop-color="#ff9900"/>
      <stop offset="1.0" stop-color="#ffff00"/>
    </linearGradient>
  </defs>
</svg>
