<?xml version="1.0" encoding="UTF-8" standalone="no"?>
<svg xmlns:xlink="http://www.w3.org/1999/xlink" height="8.75px" width="76.95px" xmlns="http://www.w3.org/2000/svg">
  <g transform="matrix(1.0, 0.0, 0.0, 1.0, 0.0, 0.0)">
    <path d="M56.75 0.0 L76.95 0.0 73.75 4.35 56.75 4.35 56.75 0.0" fill="url(#gradient0)" fill-rule="evenodd" stroke="none"/>
    <path d="M56.75 4.35 L73.75 4.35 70.55 8.75 0.0 8.75 0.0 4.35 13.6 4.35 27.3 4.35 42.5 4.35 48.55 4.35 56.75 4.35" fill="#77e20c" fill-rule="evenodd" stroke="none"/>
    <path d="M42.5 0.0 L48.55 0.0 48.55 4.35 42.5 4.35 42.5 0.0" fill="url(#gradient1)" fill-rule="evenodd" stroke="none"/>
    <path d="M27.3 0.0 L42.5 0.0 42.5 4.35 27.3 4.35 27.3 0.0" fill="url(#gradient2)" fill-rule="evenodd" stroke="none"/>
    <path d="M56.75 0.0 L56.75 4.35 48.55 4.35 48.55 0.0 56.75 0.0" fill="url(#gradient3)" fill-rule="evenodd" stroke="none"/>
    <path d="M0.0 4.35 L0.0 0.0 13.6 0.0 13.6 4.35 0.0 4.35" fill="url(#gradient4)" fill-rule="evenodd" stroke="none"/>
    <path d="M13.6 0.0 L27.3 0.0 27.3 4.35 13.6 4.35 13.6 0.0" fill="url(#gradient5)" fill-rule="evenodd" stroke="none"/>
  </g>
  <defs>
    <linearGradient gradientTransform="matrix(0.0, -0.0019, 0.1449, 0.0, -41.75, 2.4)" gradientUnits="userSpaceOnUse" id="gradient0" spreadMethod="pad" x1="-819.2" x2="819.2">
      <stop offset="0.0" stop-color="#77e20c"/>
      <stop offset="1.0" stop-color="#c2fe9a"/>
    </linearGradient>
    <linearGradient gradientTransform="matrix(0.0, -0.0019, 0.5298, 0.0, -303.05, 2.4)" gradientUnits="userSpaceOnUse" id="gradient1" spreadMethod="pad" x1="-819.2" x2="819.2">
      <stop offset="0.0" stop-color="#77e20c"/>
      <stop offset="1.0" stop-color="#c2fe9a"/>
    </linearGradient>
    <linearGradient gradientTransform="matrix(0.0, -0.0019, 0.5298, 0.0, -302.15, 2.4)" gradientUnits="userSpaceOnUse" id="gradient2" spreadMethod="pad" x1="-819.2" x2="819.2">
      <stop offset="0.0" stop-color="#77e20c"/>
      <stop offset="1.0" stop-color="#c2fe9a"/>
    </linearGradient>
    <linearGradient gradientTransform="matrix(0.0, -0.0019, 0.5298, 0.0, -303.4, 2.4)" gradientUnits="userSpaceOnUse" id="gradient3" spreadMethod="pad" x1="-819.2" x2="819.2">
      <stop offset="0.0" stop-color="#77e20c"/>
      <stop offset="1.0" stop-color="#c2fe9a"/>
    </linearGradient>
    <linearGradient gradientTransform="matrix(0.0, -0.0019, 0.1449, 0.0, 118.7, 2.4)" gradientUnits="userSpaceOnUse" id="gradient4" spreadMethod="pad" x1="-819.2" x2="819.2">
      <stop offset="0.0" stop-color="#77e20c"/>
      <stop offset="1.0" stop-color="#c2fe9a"/>
    </linearGradient>
    <linearGradient gradientTransform="matrix(0.0, -0.0019, 0.1449, 0.0, -60.15, 2.4)" gradientUnits="userSpaceOnUse" id="gradient5" spreadMethod="pad" x1="-819.2" x2="819.2">
      <stop offset="0.0" stop-color="#77e20c"/>
      <stop offset="1.0" stop-color="#c2fe9a"/>
    </linearGradient>
  </defs>
</svg>
