<?xml version="1.0" encoding="UTF-8" standalone="no"?>
<svg xmlns:xlink="http://www.w3.org/1999/xlink" height="37.45px" width="68.75px" xmlns="http://www.w3.org/2000/svg">
  <g transform="matrix(1.0, 0.0, 0.0, 1.0, -5.5, -3.05)">
    <path d="M67.8 24.65 L67.75 24.5 67.75 22.6 70.0 20.75 71.15 16.15 Q71.3 14.75 71.75 13.7 72.15 12.6 74.25 12.1 L73.3 14.0 72.3 16.3 72.55 17.45 72.8 18.55 Q72.4 20.15 71.6 21.65 70.05 24.75 68.25 24.75 L67.8 24.65 M61.8 5.4 Q62.5 6.45 65.65 8.7 68.0 10.4 68.0 12.35 68.0 12.75 67.3 13.35 66.5 14.0 65.5 14.0 64.75 14.0 62.15 10.15 59.0 5.45 57.05 3.75 60.75 3.75 61.8 5.4 M56.75 28.85 Q43.15 24.25 34.95 18.05 28.45 12.1 25.9 10.3 L46.1 21.9 Q55.7 27.55 56.8 28.6 L56.75 28.85 M71.35 29.55 Q71.5 31.3 70.65 32.85 69.6 34.8 67.55 34.8 64.3 35.0 62.3 33.85 64.8 32.85 66.3 32.85 67.8 32.85 68.5 32.1 69.15 31.3 71.35 29.55 M8.55 3.05 Q8.75 4.3 8.55 5.0 L8.3 5.95 Q8.3 6.6 9.55 7.55 10.75 8.5 10.75 10.25 10.75 11.95 9.2 13.35 7.6 14.75 7.6 15.95 7.6 17.15 8.3 18.6 9.0 20.0 9.0 21.25 L8.75 23.1 Q8.25 24.8 6.75 24.8 L5.95 24.55 5.5 24.0 6.15 19.8 5.85 18.45 5.5 17.85 Q5.5 15.15 6.15 14.05 8.75 10.15 8.75 9.75 L7.6 8.6 Q6.4 7.65 6.4 7.15 6.4 5.6 7.35 4.3 7.9 3.45 8.55 3.05 M19.8 33.85 Q22.45 34.5 24.9 36.15 27.1 37.6 27.65 37.65 L29.55 37.4 Q30.9 37.4 31.25 39.1 31.1 40.3 29.7 40.5 28.05 40.5 25.5 38.85 20.75 35.85 17.0 33.85 L19.8 33.85" fill="#ffffff" fill-rule="evenodd" stroke="none"/>
  </g>
</svg>
