<?xml version="1.0" encoding="UTF-8" standalone="no"?>
<svg xmlns:xlink="http://www.w3.org/1999/xlink" height="30.7px" width="22.3px" xmlns="http://www.w3.org/2000/svg">
  <g transform="matrix(1.0, 0.0, 0.0, 1.0, -2.75, 0.45)">
    <path d="M8.15 15.55 L8.15 14.95 Q9.65 11.25 10.6 9.9 L12.2 7.3 12.8 6.55 Q13.0 6.35 13.15 6.75 L13.15 7.55 12.35 10.9 11.6 13.55 11.05 15.15 10.5 15.95 9.75 16.45 9.65 16.45 Q8.65 16.45 8.15 15.8 L8.15 15.55 M7.5 17.75 Q7.95 17.3 8.6 17.3 9.55 17.3 10.0 18.0 10.55 18.55 10.55 19.3 10.55 20.1 10.0 20.75 9.55 21.35 8.6 21.35 L7.65 21.05 7.2 20.75 Q6.65 20.1 6.65 19.3 6.65 18.55 7.2 18.0 L7.5 17.75" fill="#ffffff" fill-rule="evenodd" stroke="none"/>
    <path d="M5.85 26.8 Q3.05 24.15 3.0 21.05 2.85 17.8 4.2 15.25 5.4 12.9 7.65 9.6 L8.05 9.0 13.95 0.0 14.05 0.05 14.1 0.2 14.15 0.25 14.1 0.25 14.05 0.4 13.55 3.15 12.8 6.55 12.2 7.3 10.6 9.9 Q9.65 11.25 8.15 14.95 L8.15 15.55 Q7.7 16.7 7.5 17.75 L7.2 18.0 Q6.65 18.55 6.65 19.3 6.65 20.1 7.2 20.75 L7.65 21.05 7.65 21.15 Q8.65 24.2 12.6 24.4 15.95 24.5 17.7 23.05 L18.8 21.95 19.5 20.5 Q19.15 22.5 17.65 24.15 15.85 26.2 13.0 26.85 L10.9 27.25 5.85 26.8 M17.15 11.3 L17.35 11.8 17.75 12.95 17.15 11.3" fill="#58cefc" fill-rule="evenodd" stroke="none"/>
    <path d="M14.6 0.9 L18.95 7.55 19.8 9.0 20.25 9.6 Q22.5 12.9 23.65 15.25 24.95 17.8 24.8 21.05 24.75 24.4 21.75 27.2 19.15 29.45 15.85 29.95 L14.25 30.0 Q18.05 29.25 20.65 26.65 23.15 24.0 23.25 20.65 23.25 17.3 21.25 14.0 L18.4 9.0 16.3 4.9 14.6 0.9 M12.8 6.55 L13.55 3.15 14.05 0.4 14.1 0.25 14.15 0.25 Q13.9 0.5 14.65 3.15 L15.45 6.15 16.15 8.4 16.95 10.75 17.15 11.3 17.75 12.95 18.85 16.35 19.3 17.6 19.4 18.2 19.55 20.1 19.5 20.5 18.8 21.95 17.7 23.05 Q15.95 24.5 12.6 24.4 8.65 24.2 7.65 21.15 L7.65 21.05 8.6 21.35 Q9.55 21.35 10.0 20.75 10.55 20.1 10.55 19.3 10.55 18.55 10.0 18.0 9.55 17.3 8.6 17.3 7.95 17.3 7.5 17.75 7.7 16.7 8.15 15.55 L8.15 15.8 Q8.65 16.45 9.65 16.45 L9.75 16.45 10.5 15.95 11.05 15.15 11.6 13.55 12.35 10.9 13.15 7.55 13.15 6.75 Q13.0 6.35 12.8 6.55" fill="#66ffff" fill-rule="evenodd" stroke="none"/>
    <path d="M14.6 0.9 L16.3 4.9 18.4 9.0 21.25 14.0 Q23.25 17.3 23.25 20.65 23.15 24.0 20.65 26.65 18.05 29.25 14.25 30.0 L13.85 30.0 13.7 30.0 Q9.25 30.0 6.25 27.2 L5.85 26.8 10.9 27.25 13.0 26.85 Q15.85 26.2 17.65 24.15 19.15 22.5 19.5 20.5 L19.55 20.1 19.4 18.2 19.3 17.6 18.85 16.35 17.75 12.95 17.35 11.8 17.15 11.3 16.95 10.75 16.15 8.4 15.45 6.15 14.65 3.15 Q13.9 0.5 14.15 0.25 L14.6 0.9" fill="#1b84e9" fill-rule="evenodd" stroke="none"/>
    <path d="M14.25 30.0 L15.85 29.95 Q19.15 29.45 21.75 27.2 24.75 24.4 24.8 21.05 24.95 17.8 23.65 15.25 22.5 12.9 20.25 9.6 L19.8 9.0 18.95 7.55 14.6 0.9 14.15 0.25 14.1 0.2 14.05 0.05 13.95 0.0 8.05 9.0 7.65 9.6 Q5.4 12.9 4.2 15.25 2.85 17.8 3.0 21.05 3.05 24.15 5.85 26.8 L6.25 27.2 Q9.25 30.0 13.7 30.0 L13.85 30.0 14.25 30.0 Z" fill="none" stroke="#004f80" stroke-linecap="butt" stroke-linejoin="miter-clip" stroke-miterlimit="3.0" stroke-width="0.5"/>
  </g>
</svg>
