<?xml version="1.0" encoding="UTF-8" standalone="no"?>
<svg xmlns:xlink="http://www.w3.org/1999/xlink" height="38.0px" width="35.8px" xmlns="http://www.w3.org/2000/svg">
  <g transform="matrix(1.0, 0.0, 0.0, 1.0, 0.0, 0.0)">
    <path d="M35.8 38.0 L0.0 38.0 0.0 0.0 35.8 0.0 35.8 38.0" fill="#cccccc" fill-opacity="0.0" fill-rule="evenodd" stroke="none"/>
    <path d="M22.1 20.4 L21.8 28.0 Q21.6 28.0 21.7 28.2 L21.8 28.3 Q21.4 28.4 21.3 28.7 L21.3 28.9 Q20.5 29.0 20.0 29.4 19.4 29.6 18.8 30.1 L19.0 30.2 Q18.7 30.1 18.7 30.3 18.4 30.2 18.4 30.4 L18.7 30.6 18.4 30.6 18.7 31.0 Q18.6 30.9 18.5 31.1 L18.7 31.1 18.9 31.1 18.7 31.3 19.0 31.5 18.6 31.7 Q18.0 31.6 16.9 32.3 L15.9 14.3 Q15.8 14.1 15.2 14.0 L14.7 14.0 11.5 14.0 11.1 14.0 10.9 12.8 10.4 9.0 10.3 7.3 9.8 3.6 15.2 3.6 23.1 3.6 Q22.4 12.9 22.2 20.3 L22.1 20.4 M19.9 30.0 Q20.0 29.8 20.3 30.0 L21.8 29.4 Q22.0 29.0 22.5 28.9 L22.5 28.7 22.8 28.6 Q22.7 28.5 23.0 28.5 L22.6 35.0 18.1 35.0 Q17.8 34.3 18.0 33.8 L17.9 32.3 18.1 32.3 18.7 32.1 20.1 31.5 19.8 31.3 20.0 31.1 19.7 31.1 Q19.6 30.9 19.8 30.9 L19.7 30.6 19.9 30.6 19.7 30.4 20.1 30.2 19.9 30.0" fill="#290701" fill-rule="evenodd" stroke="none"/>
    <path d="M22.1 20.4 L21.8 28.0 Q21.6 28.0 21.7 28.2 L21.8 28.3 Q21.4 28.4 21.3 28.7 L21.3 28.9 Q20.5 29.0 20.0 29.4 19.4 29.6 18.8 30.1 L19.0 30.2 Q18.7 30.1 18.7 30.3 18.4 30.2 18.4 30.4 L18.7 30.6 18.4 30.6 18.7 31.0 Q18.6 30.9 18.5 31.1 L18.7 31.1 18.9 31.1 18.7 31.3 19.0 31.5 18.6 31.7 Q18.0 31.6 16.9 32.3 L15.9 14.3 Q15.8 14.1 15.2 14.0 L14.7 14.0 11.5 14.0 11.1 14.0 10.9 12.8 10.4 9.0 10.3 7.3 9.8 3.6 15.2 3.6 23.1 3.6 Q22.4 12.9 22.2 20.3 L22.1 20.4 M19.9 30.0 Q20.0 29.8 20.3 30.0 L21.8 29.4 Q22.0 29.0 22.5 28.9 L22.5 28.7 22.8 28.6 Q22.7 28.5 23.0 28.5 L22.6 35.0 18.1 35.0 Q17.8 34.3 18.0 33.8 L17.9 32.3 18.1 32.3 18.7 32.1 20.1 31.5 19.8 31.3 20.0 31.1 19.7 31.1 Q19.6 30.9 19.8 30.9 L19.7 30.6 19.9 30.6 19.7 30.4 20.1 30.2 19.9 30.0 Z" fill="none" stroke="#290701" stroke-linecap="butt" stroke-linejoin="miter-clip" stroke-miterlimit="3.0" stroke-width="3.0"/>
    <path d="M22.1 20.4 L21.8 28.0 Q21.6 28.0 21.7 28.2 L21.8 28.3 Q21.4 28.4 21.3 28.7 L21.3 28.9 Q20.5 29.0 20.0 29.4 L19.7 29.55 Q19.25 29.75 18.8 30.1 L19.0 30.2 Q18.7 30.1 18.7 30.3 18.4 30.2 18.4 30.4 L18.7 30.6 18.4 30.6 18.7 31.0 Q18.6 30.9 18.5 31.1 L18.7 31.1 18.9 31.1 18.7 31.3 19.0 31.5 18.6 31.7 Q18.0 31.6 16.9 32.3 L15.9 14.3 Q15.8 14.1 15.2 14.0 L14.7 14.0 11.5 14.0 11.1 14.0 10.9 12.8 10.4 9.0 10.3 7.3 9.8 3.6 15.2 3.6 23.1 3.6 Q22.4 12.9 22.2 20.3 L22.1 20.4 M20.55 8.35 Q21.05 7.8 21.05 7.05 21.05 5.35 19.0 5.35 16.95 5.35 16.95 6.95 16.95 7.35 17.45 8.05 18.15 9.0 19.15 9.0 19.95 9.0 20.55 8.35 M19.7 30.4 L20.1 30.2 19.9 30.0 Q20.0 29.8 20.3 30.0 L21.8 29.4 Q22.0 29.0 22.5 28.9 L22.5 28.7 22.8 28.6 Q22.7 28.5 23.0 28.5 L22.6 35.0 18.1 35.0 Q17.8 34.3 18.0 33.8 L17.9 32.3 18.1 32.3 18.7 32.1 18.8 32.05 20.1 31.5 19.8 31.3 20.0 31.1 19.7 31.1 Q19.6 30.9 19.8 30.9 L19.7 30.6 19.9 30.6 19.7 30.4" fill="url(#gradient0)" fill-rule="evenodd" stroke="none"/>
    <path d="M20.55 8.35 Q19.95 9.0 19.15 9.0 18.15 9.0 17.45 8.05 16.95 7.35 16.95 6.95 16.95 5.35 19.0 5.35 21.05 5.35 21.05 7.05 21.05 7.8 20.55 8.35" fill="#ffcc33" fill-rule="evenodd" stroke="none"/>
  </g>
  <defs>
    <linearGradient gradientTransform="matrix(0.0, 0.0171, -0.0081, 0.0, 16.45, 20.25)" gradientUnits="userSpaceOnUse" id="gradient0" spreadMethod="pad" x1="-819.2" x2="819.2">
      <stop offset="0.0" stop-color="#ff3300"/>
      <stop offset="1.0" stop-color="#f3c935"/>
    </linearGradient>
  </defs>
</svg>
