<?xml version="1.0" encoding="UTF-8" standalone="no"?>
<svg xmlns:xlink="http://www.w3.org/1999/xlink" height="38.15px" width="35.9px" xmlns="http://www.w3.org/2000/svg">
  <g transform="matrix(1.0, 0.0, 0.0, 1.0, 0.0, 0.0)">
    <path d="M0.0 38.0 L0.0 0.0 35.8 0.0 35.8 38.0 0.0 38.0" fill="#cccccc" fill-opacity="0.0" fill-rule="evenodd" stroke="none"/>
    <path d="M31.2 12.1 L31.2 12.0 31.8 11.7 31.6 11.9 31.6 12.3 31.6 12.7 30.2 17.5 28.6 22.8 27.1 27.0 25.9 30.7 25.3 31.8 24.9 32.5 24.4 32.9 Q24.2 32.9 24.2 33.0 L22.4 33.8 Q22.1 33.7 22.1 34.0 L18.6 34.3 16.0 34.5 Q15.3 34.3 15.0 34.5 L12.6 34.7 Q12.6 34.3 12.9 34.2 12.8 34.0 12.7 34.1 12.8 33.9 13.2 33.9 L13.5 33.8 13.3 33.6 13.4 33.5 Q13.3 33.2 13.8 33.2 L13.5 33.1 13.5 33.0 Q13.3 32.9 13.5 32.8 L13.6 32.8 13.5 32.7 13.9 32.4 14.4 32.2 14.4 32.1 Q14.6 31.7 15.4 31.6 L15.3 31.5 15.6 31.3 Q15.5 31.2 15.9 31.0 L15.5 31.0 Q15.5 30.9 15.7 30.9 L15.7 30.8 Q15.6 30.5 16.1 30.4 L15.9 30.4 Q16.0 30.2 16.5 30.1 16.7 29.5 17.3 29.7 17.6 29.3 18.8 29.4 L19.7 29.6 20.2 29.5 21.2 29.5 Q21.9 29.2 22.7 27.7 L23.1 26.1 Q23.3 24.1 24.1 23.4 L24.1 22.9 Q24.2 22.6 24.4 22.6 L24.1 22.3 24.6 22.0 25.2 21.7 25.1 21.6 25.3 21.6 Q25.3 21.3 25.5 21.5 25.4 21.1 25.8 21.2 L25.7 20.8 25.6 20.4 Q25.6 20.2 26.0 20.2 L25.6 19.8 Q25.7 19.3 26.0 19.7 L25.9 19.4 Q25.8 19.2 26.2 19.0 L26.7 18.9 26.5 18.5 Q26.6 18.3 26.9 18.3 L26.8 18.0 Q26.8 17.7 27.3 17.7 L27.2 17.3 Q27.3 16.7 28.4 16.1 L28.1 15.9 Q28.4 15.6 29.0 15.4 28.9 15.2 29.6 15.0 L29.6 14.7 Q29.5 14.4 29.8 14.5 29.9 14.2 30.1 14.5 L30.1 14.4 29.8 14.0 29.7 13.7 Q29.8 13.5 30.0 13.7 L30.1 13.6 30.6 13.3 30.3 12.9 Q30.5 12.5 30.8 12.8 L30.9 12.6 31.0 12.3 31.2 12.1 M30.0 11.8 L29.4 12.4 29.4 12.6 Q29.2 12.5 29.1 12.7 29.0 12.6 29.0 13.3 28.9 12.8 28.8 13.4 L28.8 13.5 28.6 13.6 28.7 14.1 28.2 14.6 28.3 14.9 Q27.7 15.2 27.8 15.4 27.2 15.4 26.8 15.9 L26.9 16.4 Q26.6 16.0 26.3 16.6 L26.5 17.0 26.1 17.0 25.9 17.4 25.9 17.7 Q25.6 17.7 25.5 18.2 25.6 18.0 25.8 18.3 25.5 18.3 25.4 18.7 L25.5 18.8 25.0 19.0 24.7 19.4 24.6 19.6 Q24.6 19.3 24.5 19.7 L24.6 20.2 Q24.4 20.0 24.3 20.5 L24.5 20.7 24.7 21.1 Q24.3 21.0 23.9 21.6 L23.9 21.7 23.5 21.8 23.1 22.1 23.5 19.9 Q23.6 18.5 24.0 17.6 24.2 14.8 23.1 14.6 21.5 13.9 20.5 14.1 L17.2 13.9 15.4 14.0 Q13.5 14.6 13.5 16.7 13.3 17.2 13.3 18.9 13.2 19.2 13.4 20.8 L13.0 28.0 Q13.2 29.5 15.0 29.8 L16.1 29.7 Q15.1 29.9 14.8 30.4 L14.9 30.5 Q14.4 30.5 14.5 30.9 L14.5 31.0 Q14.3 31.0 14.4 31.1 L14.6 31.1 14.5 31.3 14.1 31.6 14.3 31.7 Q13.4 31.7 13.3 32.2 12.7 32.2 12.2 32.8 L12.4 33.0 12.4 33.2 12.5 33.3 12.3 33.6 Q12.2 33.5 12.1 33.7 L12.2 33.9 Q11.8 33.8 11.8 34.2 L11.9 34.3 10.5 34.6 9.3 34.1 Q7.8 33.1 7.7 31.7 7.5 31.3 7.7 31.5 L7.2 27.5 7.2 22.4 Q7.0 21.1 7.1 18.7 L6.8 16.7 Q6.5 14.6 6.6 13.6 6.4 12.4 6.5 12.0 6.4 10.5 6.8 10.0 7.7 3.1 10.9 3.1 L14.1 3.3 14.6 3.2 Q15.0 3.2 15.5 3.7 L16.2 3.6 Q16.6 3.4 17.3 3.9 L29.3 5.9 Q31.0 7.4 30.8 11.2 30.2 11.1 30.0 11.7 L30.0 11.8 M23.0 22.4 L23.1 22.6 Q22.9 22.5 22.9 22.8 22.8 22.6 23.0 22.4 M23.0 23.3 L22.7 23.6 22.8 22.9 23.0 23.3" fill="#290701" fill-rule="evenodd" stroke="none"/>
    <path d="M31.2 12.1 L31.2 12.0 31.8 11.7 31.6 11.9 31.6 12.3 31.6 12.7 30.2 17.5 28.6 22.8 27.1 27.0 25.9 30.7 25.3 31.8 24.9 32.5 24.4 32.9 Q24.2 32.9 24.2 33.0 L22.4 33.8 Q22.1 33.7 22.1 34.0 L18.6 34.3 16.0 34.5 Q15.3 34.3 15.0 34.5 L12.6 34.7 Q12.6 34.3 12.9 34.2 12.8 34.0 12.7 34.1 12.8 33.9 13.2 33.9 L13.5 33.8 13.3 33.6 13.4 33.5 Q13.3 33.2 13.8 33.2 L13.5 33.1 13.5 33.0 Q13.3 32.9 13.5 32.8 L13.6 32.8 13.5 32.7 13.9 32.4 14.4 32.2 14.4 32.1 Q14.6 31.7 15.4 31.6 L15.3 31.5 15.6 31.3 Q15.5 31.2 15.9 31.0 L15.5 31.0 Q15.5 30.9 15.7 30.9 L15.7 30.8 Q15.6 30.5 16.1 30.4 L15.9 30.4 Q16.0 30.2 16.5 30.1 16.7 29.5 17.3 29.7 17.6 29.3 18.8 29.4 L19.7 29.6 20.2 29.5 21.2 29.5 Q21.9 29.2 22.7 27.7 L23.1 26.1 Q23.3 24.1 24.1 23.4 L24.1 22.9 Q24.2 22.6 24.4 22.6 L24.1 22.3 24.6 22.0 25.2 21.7 25.1 21.6 25.3 21.6 Q25.3 21.3 25.5 21.5 25.4 21.1 25.8 21.2 L25.7 20.8 25.6 20.4 Q25.6 20.2 26.0 20.2 L25.6 19.8 Q25.7 19.3 26.0 19.7 L25.9 19.4 Q25.8 19.2 26.2 19.0 L26.7 18.9 26.5 18.5 Q26.6 18.3 26.9 18.3 L26.8 18.0 Q26.8 17.7 27.3 17.7 L27.2 17.3 Q27.3 16.7 28.4 16.1 L28.1 15.9 Q28.4 15.6 29.0 15.4 28.9 15.2 29.6 15.0 L29.6 14.7 Q29.5 14.4 29.8 14.5 29.9 14.2 30.1 14.5 L30.1 14.4 29.8 14.0 29.7 13.7 Q29.8 13.5 30.0 13.7 L30.1 13.6 30.6 13.3 30.3 12.9 Q30.5 12.5 30.8 12.8 L30.9 12.6 31.0 12.3 31.2 12.1 M30.0 11.8 L29.4 12.4 29.4 12.6 Q29.2 12.5 29.1 12.7 29.0 12.6 29.0 13.3 28.9 12.8 28.8 13.4 L28.8 13.5 28.6 13.6 28.7 14.1 28.2 14.6 28.3 14.9 Q27.7 15.2 27.8 15.4 27.2 15.4 26.8 15.9 L26.9 16.4 Q26.6 16.0 26.3 16.6 L26.5 17.0 26.1 17.0 25.9 17.4 25.9 17.7 Q25.6 17.7 25.5 18.2 25.6 18.0 25.8 18.3 25.5 18.3 25.4 18.7 L25.5 18.8 25.0 19.0 24.7 19.4 24.6 19.6 Q24.6 19.3 24.5 19.7 L24.6 20.2 Q24.4 20.0 24.3 20.5 L24.5 20.7 24.7 21.1 Q24.3 21.0 23.9 21.6 L23.9 21.7 23.5 21.8 23.1 22.1 23.5 19.9 Q23.6 18.5 24.0 17.6 24.2 14.8 23.1 14.6 21.5 13.9 20.5 14.1 L17.2 13.9 15.4 14.0 Q13.5 14.6 13.5 16.7 13.3 17.2 13.3 18.9 13.2 19.2 13.4 20.8 L13.0 28.0 Q13.2 29.5 15.0 29.8 L16.1 29.7 Q15.1 29.9 14.8 30.4 L14.9 30.5 Q14.4 30.5 14.5 30.9 L14.5 31.0 Q14.3 31.0 14.4 31.1 L14.6 31.1 14.5 31.3 14.1 31.6 14.3 31.7 Q13.4 31.7 13.3 32.2 12.7 32.2 12.2 32.8 L12.4 33.0 12.4 33.2 12.5 33.3 12.3 33.6 Q12.2 33.5 12.1 33.7 L12.2 33.9 Q11.8 33.8 11.8 34.2 L11.9 34.3 10.5 34.6 9.3 34.1 Q7.8 33.1 7.7 31.7 7.5 31.3 7.7 31.5 L7.2 27.5 7.2 22.4 Q7.0 21.1 7.1 18.7 L6.8 16.7 Q6.5 14.6 6.6 13.6 6.4 12.4 6.5 12.0 6.4 10.5 6.8 10.0 7.7 3.1 10.9 3.1 L14.1 3.3 14.6 3.2 Q15.0 3.2 15.5 3.7 L16.2 3.6 Q16.6 3.4 17.3 3.9 L29.3 5.9 Q31.0 7.4 30.8 11.2 30.2 11.1 30.0 11.7 L30.0 11.8 Z" fill="none" stroke="#290701" stroke-linecap="butt" stroke-linejoin="miter-clip" stroke-miterlimit="3.0" stroke-width="3.0"/>
    <path d="M31.6 11.9 L31.6 12.3 31.6 12.7 31.55 12.85 30.2 17.5 28.6 22.8 27.1 27.0 25.9 30.7 25.3 31.8 24.9 32.5 24.4 32.9 Q24.2 32.9 24.2 33.0 L22.4 33.8 Q22.1 33.7 22.1 34.0 L18.6 34.3 16.0 34.5 Q15.3 34.3 15.0 34.5 L12.6 34.7 Q12.6 34.3 12.9 34.2 12.8 34.0 12.7 34.1 12.8 33.9 13.2 33.9 L13.5 33.8 13.3 33.6 13.4 33.5 Q13.3 33.2 13.8 33.2 L13.5 33.1 13.5 33.0 Q13.3 32.9 13.5 32.8 L13.6 32.8 13.5 32.7 13.9 32.4 14.4 32.2 14.4 32.1 14.5 31.95 Q14.75 31.7 15.4 31.6 L15.3 31.5 15.6 31.3 Q15.5 31.2 15.9 31.0 L15.5 31.0 Q15.5 30.9 15.7 30.9 L15.7 30.8 Q15.6 30.5 16.1 30.4 L15.9 30.4 Q16.0 30.2 16.5 30.1 16.7 29.5 17.3 29.7 17.6 29.3 18.8 29.4 L19.7 29.6 20.2 29.5 21.2 29.5 Q21.9 29.2 22.7 27.7 L23.1 26.1 Q23.25 24.5 23.8 23.75 L24.1 23.4 24.1 22.9 Q24.2 22.6 24.4 22.6 L24.1 22.3 24.3 22.2 24.6 22.0 25.2 21.7 25.1 21.6 25.3 21.6 Q25.3 21.3 25.5 21.5 25.4 21.1 25.8 21.2 L25.7 20.8 25.6 20.4 Q25.6 20.2 26.0 20.2 L25.6 19.8 Q25.7 19.3 26.0 19.7 L25.9 19.4 25.95 19.2 26.2 19.0 26.7 18.9 26.5 18.5 Q26.6 18.3 26.9 18.3 L26.8 18.0 Q26.8 17.7 27.3 17.7 L27.2 17.3 Q27.3 16.7 28.4 16.1 L28.1 15.9 Q28.4 15.6 29.0 15.4 28.9 15.2 29.6 15.0 L29.6 14.7 Q29.5 14.4 29.8 14.5 29.9 14.2 30.1 14.5 L30.1 14.4 29.8 14.0 29.7 13.7 Q29.8 13.5 30.0 13.7 L30.1 13.6 30.6 13.3 30.3 12.9 Q30.5 12.5 30.8 12.8 L30.9 12.6 31.0 12.3 31.2 12.1 31.2 12.0 31.8 11.7 31.6 11.9 M27.85 10.85 Q28.35 10.3 28.35 9.55 28.35 7.85 26.3 7.85 24.25 7.85 24.25 9.45 24.25 9.85 24.75 10.55 25.45 11.5 26.45 11.5 27.25 11.5 27.85 10.85 M30.0 11.8 L29.4 12.4 29.4 12.6 Q29.2 12.5 29.1 12.7 29.0 12.6 29.0 13.3 28.9 12.8 28.8 13.4 L28.8 13.5 28.6 13.6 28.7 14.1 28.2 14.6 28.3 14.9 Q27.7 15.2 27.8 15.4 27.2 15.4 26.8 15.9 L26.9 16.4 Q26.6 16.0 26.3 16.6 L26.5 17.0 26.1 17.0 25.9 17.4 25.9 17.7 Q25.6 17.7 25.5 18.2 25.6 18.0 25.8 18.3 25.5 18.3 25.4 18.7 L25.5 18.8 25.0 19.0 24.7 19.4 24.6 19.6 Q24.6 19.3 24.5 19.7 L24.6 20.2 Q24.4 20.0 24.3 20.5 L24.5 20.7 24.7 21.1 Q24.3 21.0 23.9 21.6 L23.9 21.7 23.5 21.8 23.1 22.1 23.5 19.9 23.55 19.45 Q23.65 18.35 24.0 17.6 24.2 14.8 23.1 14.6 21.5 13.9 20.5 14.1 L17.2 13.9 15.4 14.0 Q13.5 14.6 13.5 16.7 13.3 17.2 13.3 18.9 13.2 19.2 13.4 20.8 L13.0 28.0 Q13.2 29.5 15.0 29.8 L16.1 29.7 15.2 30.05 14.8 30.4 14.9 30.5 Q14.4 30.5 14.5 30.9 L14.5 31.0 Q14.3 31.0 14.4 31.1 L14.6 31.1 14.5 31.3 14.1 31.6 14.3 31.7 Q13.4 31.7 13.3 32.2 12.7 32.2 12.2 32.8 L12.4 33.0 12.4 33.2 12.5 33.3 12.3 33.6 Q12.2 33.5 12.1 33.7 L12.2 33.9 Q11.8 33.8 11.8 34.2 L11.9 34.3 10.5 34.6 9.3 34.1 Q7.8 33.1 7.7 31.7 7.5 31.3 7.7 31.5 L7.2 27.5 7.2 22.4 Q7.0 21.1 7.1 18.7 L6.8 16.7 Q6.5 14.6 6.6 13.6 6.4 12.4 6.5 12.0 6.4 10.5 6.8 10.0 7.7 3.1 10.9 3.1 L14.1 3.3 14.6 3.2 Q15.0 3.2 15.5 3.7 L16.2 3.6 Q16.6 3.4 17.3 3.9 L29.3 5.9 Q31.0 7.4 30.8 11.2 30.2 11.1 30.0 11.7 L30.0 11.8 M22.9 22.8 L22.9 22.7 22.95 22.65 23.0 22.45 23.0 22.4 23.1 22.6 22.95 22.65 22.9 22.8 M23.0 23.3 L22.7 23.6 22.8 22.9 23.0 23.3" fill="url(#gradient0)" fill-rule="evenodd" stroke="none"/>
    <path d="M27.85 10.85 Q27.25 11.5 26.45 11.5 25.45 11.5 24.75 10.55 24.25 9.85 24.25 9.45 24.25 7.85 26.3 7.85 28.35 7.85 28.35 9.55 28.35 10.3 27.85 10.85" fill="#ffcc33" fill-rule="evenodd" stroke="none"/>
  </g>
  <defs>
    <linearGradient gradientTransform="matrix(0.0, 0.0159, -0.0155, 0.0, 19.15, 19.5)" gradientUnits="userSpaceOnUse" id="gradient0" spreadMethod="pad" x1="-819.2" x2="819.2">
      <stop offset="0.0" stop-color="#ff3300"/>
      <stop offset="1.0" stop-color="#f3c935"/>
    </linearGradient>
  </defs>
</svg>
