<?xml version="1.0" encoding="UTF-8" standalone="no"?>
<svg xmlns:xlink="http://www.w3.org/1999/xlink" height="30.0px" width="30.0px" xmlns="http://www.w3.org/2000/svg">
  <g transform="matrix(1.0, 0.0, 0.0, 1.0, 0.0, 0.0)">
    <path d="M26.7 30.0 L3.3 30.0 Q0.0 30.0 0.0 26.7 L0.0 3.3 Q0.0 0.0 3.3 0.0 L26.7 0.0 Q30.0 0.0 30.0 3.3 L30.0 26.7 Q30.0 30.0 26.7 30.0" fill="#70cb4e" fill-rule="evenodd" stroke="none"/>
    <path d="M10.85 26.5 L19.05 26.5 19.05 12.65 23.35 12.65 Q20.25 7.35 15.0 3.5 L13.45 4.7 Q9.15 8.35 6.65 12.65 L10.85 12.65 10.85 26.5 Z" fill="none" stroke="#ffffff" stroke-linecap="round" stroke-linejoin="round" stroke-width="3.5"/>
    <path d="M15.0 3.5 Q11.85 6.45 13.45 4.7 L15.0 3.5" fill="#cb2c1b" fill-rule="evenodd" stroke="none"/>
    <path d="M13.45 4.7 Q11.85 6.45 15.0 3.5 L12.65 6.6 11.85 7.55 11.6 8.05 Q10.0 10.3 9.85 11.35 L12.6 11.35 12.6 26.5 10.85 26.5 10.85 12.65 6.65 12.65 Q9.15 8.35 13.45 4.7" fill="#c7f36c" fill-rule="evenodd" stroke="none"/>
    <path d="M11.6 8.05 L11.85 7.55 12.65 6.6 Q12.95 6.3 13.4 6.3 13.8 6.3 13.8 6.7 L12.55 8.7 Q11.2 10.35 11.2 8.8 L11.6 8.05" fill="#ffffff" fill-rule="evenodd" stroke="none"/>
    <path d="M12.6 26.5 L12.6 11.35 9.85 11.35 Q10.0 10.3 11.6 8.05 L11.2 8.8 Q11.2 10.35 12.55 8.7 L13.8 6.7 Q13.8 6.3 13.4 6.3 12.95 6.3 12.65 6.6 L15.0 3.5 17.65 7.45 19.9 11.25 17.3 11.25 17.3 14.55 17.2 26.5 12.6 26.5" fill="#74c84e" fill-rule="evenodd" stroke="none"/>
    <path d="M15.0 3.5 Q20.25 7.35 23.35 12.65 L19.05 12.65 19.05 26.5 17.2 26.5 17.3 14.55 17.3 11.25 19.9 11.25 17.65 7.45 15.0 3.5" fill="#3b861d" fill-rule="evenodd" stroke="none"/>
    <path d="M15.0 3.5 L13.45 4.7 Q9.15 8.35 6.65 12.65 L10.85 12.65 10.85 26.5 12.6 26.5 17.2 26.5 19.05 26.5 19.05 12.65 23.35 12.65 Q20.25 7.35 15.0 3.5 Z" fill="none" stroke="#005909" stroke-linecap="round" stroke-linejoin="round" stroke-width="1.0"/>
  </g>
</svg>
