<?xml version="1.0" encoding="UTF-8" standalone="no"?>
<svg xmlns:xlink="http://www.w3.org/1999/xlink" height="38.0px" width="35.8px" xmlns="http://www.w3.org/2000/svg">
  <g transform="matrix(1.0, 0.0, 0.0, 1.0, 0.0, -0.2)">
    <path d="M0.0 0.2 L35.8 0.2 35.8 38.2 0.0 38.2 0.0 0.2" fill="#cccccc" fill-opacity="0.0" fill-rule="evenodd" stroke="none"/>
    <path d="M19.1 4.3 L25.7 5.1 26.3 5.2 Q26.6 4.9 27.1 4.8 L27.8 4.8 29.2 5.3 Q31.3 6.8 32.1 10.3 31.9 11.5 31.9 15.1 31.3 15.5 31.2 17.9 L31.2 19.1 Q31.0 18.8 31.0 20.0 30.8 19.9 30.8 20.9 29.8 21.6 29.1 23.1 28.7 23.5 28.6 23.8 L28.6 24.0 28.8 24.1 29.6 25.2 30.3 28.1 Q30.0 29.0 30.2 30.5 29.8 31.3 29.8 32.6 L29.7 33.6 29.6 33.7 28.0 35.6 26.7 34.9 26.7 34.8 26.3 34.6 25.8 34.4 26.0 34.2 25.8 34.1 Q25.7 34.0 25.9 34.0 L25.6 33.4 25.8 33.2 25.5 32.8 25.6 32.7 25.4 32.4 25.8 32.2 24.1 31.3 23.8 31.1 23.5 30.8 24.3 30.8 25.1 29.1 25.2 28.1 25.2 27.8 Q24.7 27.3 24.6 27.4 L23.7 27.1 23.1 26.9 22.6 26.8 21.9 26.8 21.8 26.8 20.6 26.5 Q20.6 25.9 21.0 26.0 L20.4 25.9 20.6 25.7 20.3 25.6 20.5 25.3 20.7 25.3 20.0 24.8 19.3 24.4 Q19.3 24.2 19.6 24.2 L19.3 24.1 19.2 24.1 19.2 23.5 19.0 23.4 18.7 23.4 18.9 23.2 18.8 23.1 Q18.7 22.9 19.0 22.8 18.9 22.7 19.1 22.7 L19.0 22.5 18.7 22.3 17.8 21.6 17.2 21.2 Q17.2 21.0 17.4 21.1 16.4 20.4 16.2 20.5 L16.2 20.4 15.8 20.2 15.4 19.9 18.2 20.1 19.7 20.3 22.1 20.4 23.9 20.5 Q24.6 19.7 25.1 16.9 L25.1 16.2 Q23.5 14.7 22.1 15.2 L20.9 15.1 19.7 15.1 17.0 15.0 14.5 14.8 Q14.0 14.4 13.9 15.0 L13.9 16.4 13.6 16.3 Q13.2 15.4 13.3 16.0 13.0 15.05 13.5 15.4 L13.0 15.0 13.0 14.8 Q12.5 13.6 12.5 14.3 L12.1 13.8 12.5 13.5 Q11.5 12.3 11.0 12.5 L11.0 12.3 Q10.7 11.9 10.6 12.1 L10.5 12.1 9.9 11.7 10.1 11.5 9.5 11.0 Q9.4 10.4 9.8 10.8 L9.5 10.1 Q9.3 8.9 10.1 9.0 L9.7 8.4 Q9.2 8.0 9.9 8.2 L9.4 7.8 Q8.9 7.3 9.5 7.3 L9.1 7.0 8.9 6.6 Q8.2 7.2 7.3 7.3 L7.5 7.7 8.2 8.2 Q7.9 8.1 8.0 8.6 8.1 8.4 8.3 8.8 8.1 8.6 8.0 9.5 7.7 9.3 7.9 10.1 L8.1 10.6 Q7.9 10.4 7.9 10.9 L8.0 11.1 Q8.0 10.7 8.4 11.3 L8.2 11.6 Q9.2 11.8 10.2 12.7 10.4 12.5 11.0 13.3 L10.6 13.7 11.2 14.4 11.6 15.1 11.9 15.2 Q11.5 15.1 11.6 16.0 12.0 15.8 12.7 17.4 L6.8 17.0 4.9 11.4 4.4 11.5 Q3.1 11.6 2.2 10.9 1.2 10.1 1.0 8.9 L0.9 7.3 Q0.6 5.8 0.7 4.8 0.9 3.6 1.5 2.5 2.1 1.3 2.8 1.1 L5.25 0.7 7.4 0.75 8.6 0.9 10.9 1.15 13.9 1.3 16.25 1.55 17.7 1.75 Q18.3 1.7 19.3 2.2 20.2 2.7 20.5 3.9 20.6 4.4 19.1 4.3 M14.4 19.9 L14.6 20.2 Q14.4 20.2 14.6 20.4 L15.3 20.6 15.9 20.9 15.8 21.1 Q16.2 21.1 16.6 21.5 L17.8 22.6 Q17.5 22.7 17.5 23.0 L17.7 23.1 Q17.5 23.1 17.6 23.3 L18.1 23.6 17.9 24.0 18.3 24.2 Q18.1 24.1 18.1 24.3 L19.3 25.2 Q19.1 25.2 19.2 25.3 L19.1 25.6 19.4 25.6 19.7 26.0 Q19.3 25.9 19.2 26.5 L19.8 26.7 16.6 26.5 16.2 26.5 14.5 26.4 12.9 19.8 14.4 19.9 M16.3 30.3 L18.2 30.5 19.4 30.5 19.9 30.6 20.7 30.5 22.3 30.7 23.1 31.2 23.1 31.3 23.7 31.9 24.0 32.0 24.4 32.2 Q23.9 32.1 24.0 32.4 L24.2 32.6 Q24.0 32.6 24.1 32.7 L24.3 32.7 24.2 32.8 24.4 33.1 Q24.2 33.1 24.3 33.3 L24.7 33.9 Q24.5 33.9 24.5 34.0 L25.0 34.2 24.8 34.4 Q24.8 34.5 25.3 34.7 25.4 34.6 26.9 35.5 L24.5 35.7 23.7 35.8 23.5 35.7 23.2 35.7 22.2 35.7 15.1 35.1 Q12.5 34.3 11.7 33.4 L10.9 32.2 10.0 29.0 Q9.6 28.1 9.5 27.2 L14.7 27.6 14.9 28.7 15.2 29.4 Q15.2 29.8 16.3 30.3" fill="#333333" fill-rule="evenodd" stroke="none"/>
    <path d="M19.1 4.3 L25.7 5.1 26.3 5.2 Q26.6 4.9 27.1 4.8 L27.8 4.8 29.2 5.3 Q31.3 6.8 32.1 10.3 31.9 11.5 31.9 15.1 31.3 15.5 31.2 17.9 L31.2 19.1 Q31.0 18.8 31.0 20.0 30.8 19.9 30.8 20.9 29.8 21.6 29.1 23.1 28.7 23.5 28.6 23.8 L28.6 24.0 28.8 24.1 29.6 25.2 30.3 28.1 Q30.0 29.0 30.2 30.5 29.8 31.3 29.8 32.6 L29.7 33.6 29.6 33.7 28.0 35.6 26.7 34.9 26.7 34.8 26.3 34.6 25.8 34.4 26.0 34.2 25.8 34.1 Q25.7 34.0 25.9 34.0 L25.6 33.4 25.8 33.2 25.5 32.8 25.6 32.7 25.4 32.4 25.8 32.2 24.1 31.3 23.8 31.1 23.5 30.8 24.3 30.8 25.1 29.1 25.2 28.1 25.2 27.8 Q24.7 27.3 24.6 27.4 L23.7 27.1 23.1 26.9 22.6 26.8 21.9 26.8 21.8 26.8 20.6 26.5 Q20.6 25.9 21.0 26.0 L20.4 25.9 20.6 25.7 20.3 25.6 20.5 25.3 20.7 25.3 20.0 24.8 19.3 24.4 Q19.3 24.2 19.6 24.2 L19.3 24.1 19.2 24.1 19.2 23.5 19.0 23.4 18.7 23.4 18.9 23.2 18.8 23.1 Q18.7 22.9 19.0 22.8 18.9 22.7 19.1 22.7 L19.0 22.5 18.7 22.3 17.8 21.6 17.2 21.2 Q17.2 21.0 17.4 21.1 16.4 20.4 16.2 20.5 L16.2 20.4 15.8 20.2 15.4 19.9 18.2 20.1 19.7 20.3 22.1 20.4 23.9 20.5 Q24.6 19.7 25.1 16.9 L25.1 16.2 Q23.5 14.7 22.1 15.2 L20.9 15.1 19.7 15.1 17.0 15.0 14.5 14.8 Q14.0 14.4 13.9 15.0 L13.9 16.4 13.6 16.3 Q13.2 15.4 13.3 16.0 13.0 15.05 13.5 15.4 L13.0 15.0 13.0 14.8 Q12.5 13.6 12.5 14.3 L12.1 13.8 12.5 13.5 Q11.5 12.3 11.0 12.5 L11.0 12.3 Q10.7 11.9 10.6 12.1 L10.5 12.1 9.9 11.7 10.1 11.5 9.5 11.0 Q9.4 10.4 9.8 10.8 L9.5 10.1 Q9.3 8.9 10.1 9.0 L9.7 8.4 Q9.2 8.0 9.9 8.2 L9.4 7.8 Q8.9 7.3 9.5 7.3 L9.1 7.0 M7.3 7.3 L7.5 7.7 8.2 8.2 Q7.9 8.1 8.0 8.6 8.1 8.4 8.3 8.8 8.1 8.6 8.0 9.5 7.7 9.3 7.9 10.1 L8.1 10.6 Q7.9 10.4 7.9 10.9 L8.0 11.1 Q8.0 10.7 8.4 11.3 L8.2 11.6 Q9.2 11.8 10.2 12.7 10.4 12.5 11.0 13.3 L10.6 13.7 11.2 14.4 11.6 15.1 11.9 15.2 Q11.5 15.1 11.6 16.0 12.0 15.8 12.7 17.4 L6.8 17.0 4.9 11.4 M14.4 19.9 L14.6 20.2 Q14.4 20.2 14.6 20.4 L15.3 20.6 15.9 20.9 15.8 21.1 Q16.2 21.1 16.6 21.5 L17.8 22.6 Q17.5 22.7 17.5 23.0 L17.7 23.1 Q17.5 23.1 17.6 23.3 L18.1 23.6 17.9 24.0 18.3 24.2 Q18.1 24.1 18.1 24.3 L19.3 25.2 Q19.1 25.2 19.2 25.3 L19.1 25.6 19.4 25.6 19.7 26.0 Q19.3 25.9 19.2 26.5 L19.8 26.7 16.6 26.5 16.2 26.5 14.5 26.4 12.9 19.8 14.4 19.9 M16.3 30.3 L18.2 30.5 19.4 30.5 19.9 30.6 20.7 30.5 22.3 30.7 23.1 31.2 23.1 31.3 23.7 31.9 24.0 32.0 24.4 32.2 Q23.9 32.1 24.0 32.4 L24.2 32.6 Q24.0 32.6 24.1 32.7 L24.3 32.7 24.2 32.8 24.4 33.1 Q24.2 33.1 24.3 33.3 L24.7 33.9 Q24.5 33.9 24.5 34.0 L25.0 34.2 24.8 34.4 Q24.8 34.5 25.3 34.7 25.4 34.6 26.9 35.5 L24.5 35.7 23.7 35.8 23.5 35.7 23.2 35.7 22.2 35.7 15.1 35.1 Q12.5 34.3 11.7 33.4 L10.9 32.2 10.0 29.0 Q9.6 28.1 9.5 27.2 L14.7 27.6 14.9 28.7 15.2 29.4 Q15.2 29.8 16.3 30.3 Z" fill="none" stroke="#333333" stroke-linecap="butt" stroke-linejoin="miter-clip" stroke-miterlimit="3.0" stroke-width="3.0"/>
    <path d="M10.6 12.1 L10.5 12.1 9.9 11.7 10.1 11.5 9.5 11.0 Q9.4 10.4 9.8 10.8 L9.5 10.1 Q9.3 8.9 10.1 9.0 L9.7 8.4 Q9.2 8.0 9.9 8.2 L9.4 7.8 Q8.9 7.3 9.5 7.3 L9.1 7.0 8.9 6.5 Q8.4 6.1 8.8 6.6 L7.1 5.2 7.5 4.9 6.9 4.3 Q6.8 2.8 8.6 3.7 8.4 2.7 9.3 3.8 8.8 2.7 9.5 3.7 9.2 2.7 10.3 4.0 9.9 2.7 11.1 3.9 11.0 2.8 12.7 4.2 13.2 3.4 14.6 4.4 L15.4 4.4 Q15.8 3.5 17.6 4.6 L25.7 5.1 26.3 5.2 29.2 5.3 Q31.3 6.8 32.1 10.3 31.9 11.5 31.9 15.1 31.3 15.5 31.2 17.9 L31.2 19.1 Q31.0 18.8 31.0 20.0 30.8 19.9 30.8 20.9 29.8 21.6 29.1 23.1 28.7 23.5 28.6 23.8 L28.6 24.0 28.8 24.1 29.6 25.2 30.3 28.1 Q30.0 29.0 30.2 30.5 29.8 31.3 29.8 32.6 L29.7 33.6 29.6 33.7 28.0 35.6 26.7 34.9 26.7 34.8 26.3 34.6 25.8 34.4 26.0 34.2 25.8 34.1 Q25.7 34.0 25.9 34.0 L25.6 33.4 25.8 33.2 25.5 32.8 25.6 32.7 25.4 32.4 25.8 32.2 24.1 31.3 23.8 31.1 Q23.8 30.9 24.1 30.9 24.1 30.8 24.3 30.8 L25.4 29.7 25.2 28.1 25.2 27.8 Q24.7 27.3 24.6 27.4 L23.7 27.1 23.1 26.9 22.6 26.8 21.9 26.8 21.8 26.8 20.6 26.5 Q20.6 25.9 21.0 26.0 L20.4 25.9 20.6 25.7 20.3 25.6 20.5 25.3 20.7 25.3 20.0 24.8 19.3 24.4 Q19.3 24.2 19.6 24.2 L19.3 24.1 19.2 24.1 19.2 23.5 19.0 23.4 18.7 23.4 18.9 23.2 18.8 23.1 Q18.7 22.9 19.0 22.8 18.9 22.7 19.1 22.7 L19.0 22.5 18.7 22.3 17.8 21.6 18.8 21.6 21.4 22.0 24.7 22.1 24.8 22.1 25.8 22.0 26.4 20.6 Q26.3 18.8 26.8 17.8 26.6 16.5 26.7 15.4 26.5 14.3 26.7 14.5 26.0 11.7 25.6 11.5 L25.3 11.3 22.3 11.2 19.0 10.9 16.5 10.7 13.3 10.6 Q12.2 10.3 11.7 11.2 10.8 11.2 10.6 12.1 M10.4 17.3 L6.8 17.0 4.7 11.0 4.3 10.3 3.7 8.6 Q3.7 8.2 4.0 8.5 L3.9 7.0 Q3.2 4.3 5.0 4.3 4.2 3.2 5.6 4.7 L5.3 5.0 6.4 5.8 7.1 6.5 7.4 7.1 Q7.1 7.2 7.5 7.7 L8.2 8.2 Q7.9 8.1 8.0 8.6 8.1 8.4 8.3 8.8 8.1 8.6 8.0 9.5 7.7 9.3 7.9 10.1 L8.1 10.6 Q7.9 10.4 7.9 10.9 L8.0 11.1 Q8.0 10.7 8.4 11.3 L8.2 11.6 Q9.2 11.8 10.2 12.7 9.2 14.0 10.4 17.3 M16.6 21.5 L17.8 22.6 Q17.5 22.7 17.5 23.0 L17.7 23.1 Q17.5 23.1 17.6 23.3 L18.1 23.6 17.9 24.0 18.3 24.2 Q18.1 24.1 18.1 24.3 L19.3 25.2 Q19.1 25.2 19.2 25.3 L19.1 25.6 19.4 25.6 19.7 26.0 Q19.3 25.9 19.2 26.5 L19.8 26.7 16.6 26.5 16.2 26.5 14.5 26.4 13.3 21.5 16.6 21.5 M23.1 31.2 L23.1 31.3 23.7 31.9 24.0 32.0 24.4 32.2 Q23.9 32.1 24.0 32.4 L24.2 32.6 Q24.0 32.6 24.1 32.7 L24.3 32.7 24.2 32.8 24.4 33.1 Q24.2 33.1 24.3 33.3 L24.7 33.9 Q24.5 33.9 24.5 34.0 L25.0 34.2 24.8 34.4 Q24.8 34.5 25.3 34.7 25.4 34.6 26.9 35.5 L24.5 35.7 23.7 35.8 23.5 35.7 23.2 35.7 22.2 35.7 15.1 35.1 Q12.5 34.3 11.7 33.4 L10.9 32.2 10.0 29.0 Q9.6 28.1 9.5 27.2 L13.3 27.5 Q13.3 28.3 13.7 29.2 13.8 30.1 14.8 30.9 L17.8 31.4 20.0 31.5 21.0 31.6 23.1 31.2" fill="#ffffff" fill-rule="evenodd" stroke="none"/>
    <path d="M10.6 12.1 Q10.8 11.2 11.7 11.2 12.2 10.3 13.3 10.6 L16.5 10.7 19.0 10.9 22.3 11.2 25.3 11.3 25.6 11.5 Q26.0 11.7 26.7 14.5 26.5 14.3 26.7 15.4 26.6 16.5 26.8 17.8 26.3 18.8 26.4 20.6 L25.8 22.0 24.8 22.1 24.7 22.1 21.4 22.0 18.8 21.6 17.8 21.6 17.2 21.2 Q17.2 21.0 17.4 21.1 16.4 20.4 16.2 20.5 L16.2 20.4 15.8 20.2 15.4 19.9 18.2 20.1 19.7 20.3 22.1 20.4 23.9 20.5 Q24.6 19.7 25.1 16.9 L25.1 16.2 Q23.5 14.7 22.1 15.2 L20.9 15.1 19.7 15.1 17.0 15.0 14.5 14.8 Q14.0 14.4 13.9 15.0 L13.9 16.4 13.6 16.3 Q13.2 15.4 13.3 16.0 13.0 15.05 13.5 15.4 L13.0 15.0 13.0 14.8 Q12.5 13.6 12.5 14.3 L12.1 13.8 12.5 13.5 Q11.5 12.3 11.0 12.5 L11.0 12.3 Q10.7 11.9 10.6 12.1 M25.2 28.1 L25.4 29.7 24.3 30.8 Q24.1 30.8 24.1 30.9 23.8 30.9 23.8 31.1 L23.5 30.8 24.3 30.8 25.1 29.1 25.2 28.1 M10.2 12.7 Q10.4 12.5 11.0 13.3 L10.6 13.7 11.2 14.4 11.6 15.1 11.9 15.2 Q11.5 15.1 11.6 16.0 12.0 15.8 12.7 17.4 L10.4 17.3 Q9.2 14.0 10.2 12.7 M13.3 21.5 L12.9 19.8 14.4 19.9 14.6 20.2 Q14.4 20.2 14.6 20.4 L15.3 20.6 15.9 20.9 15.8 21.1 Q16.2 21.1 16.6 21.5 L13.3 21.5 M13.3 27.5 L14.7 27.6 14.9 28.7 15.2 29.4 Q15.2 29.8 16.3 30.3 L18.2 30.5 19.4 30.5 19.9 30.6 20.7 30.5 22.3 30.7 23.1 31.2 21.0 31.6 20.0 31.5 17.8 31.4 14.8 30.9 Q13.8 30.1 13.7 29.2 13.3 28.3 13.3 27.5" fill="#999999" fill-rule="evenodd" stroke="none"/>
  </g>
</svg>
