<?xml version="1.0" encoding="UTF-8" standalone="no"?>
<svg xmlns:xlink="http://www.w3.org/1999/xlink" height="38.0px" width="35.8px" xmlns="http://www.w3.org/2000/svg">
  <g transform="matrix(1.0, 0.0, 0.0, 1.0, 0.0, 0.0)">
    <path d="M35.8 0.0 L35.8 38.0 0.0 38.0 0.0 0.0 35.8 0.0" fill="#cccccc" fill-opacity="0.0" fill-rule="evenodd" stroke="none"/>
    <path d="M30.0 3.4 Q32.9 4.6 32.8 7.8 L32.8 7.9 32.0 12.5 31.0 16.6 30.7 17.0 30.7 17.1 30.4 17.9 30.1 19.1 Q28.6 21.6 26.5 23.0 25.0 23.6 23.5 24.3 L22.7 24.2 Q22.6 24.1 22.9 24.1 L22.2 23.7 21.2 23.3 21.5 23.2 20.2 22.4 20.3 22.3 20.2 22.2 19.9 21.8 20.1 21.6 19.3 21.3 19.8 21.0 19.0 20.5 18.5 20.2 18.0 19.8 Q18.0 19.4 18.4 19.3 L17.7 18.8 19.9 18.2 22.4 17.3 Q24.5 15.9 24.8 13.5 24.1 12.5 22.6 12.5 21.5 12.1 20.2 12.5 L18.7 12.5 15.6 12.6 14.2 12.6 13.9 12.2 Q13.8 11.9 13.6 12.1 L13.7 11.9 12.0 10.9 11.8 10.7 11.6 10.7 10.5 10.0 Q10.5 9.6 10.8 9.7 L10.5 9.4 11.0 8.9 Q10.7 8.7 10.5 8.1 L10.0 8.0 Q9.9 7.8 10.1 7.8 L8.8 7.5 8.9 7.1 8.3 6.6 7.7 6.0 Q7.7 5.8 7.9 5.9 L7.4 5.6 Q7.4 5.4 7.7 5.4 L7.6 5.3 7.4 5.2 7.5 5.1 Q7.5 4.9 7.8 4.8 L7.4 4.5 Q7.3 4.3 7.6 4.3 L7.2 4.1 Q8.5 3.2 10.9 3.3 L13.1 3.4 13.6 3.4 13.8 3.4 15.1 3.4 23.3 3.4 25.9 3.4 30.0 3.4 M5.7 5.5 L5.6 5.6 6.0 5.9 Q5.9 5.8 5.9 6.0 L6.4 6.6 Q7.3 7.6 8.1 7.8 L7.9 8.0 Q8.8 8.2 9.3 8.9 L9.3 9.7 Q9.2 10.1 9.4 10.3 L9.6 10.5 9.8 10.7 11.8 11.7 11.9 11.8 12.0 12.1 12.5 12.6 Q12.1 12.6 11.9 13.0 10.9 13.7 11.1 16.1 L11.1 17.6 4.5 17.6 6.5 17.3 5.8 11.5 5.7 11.1 5.5 10.1 5.5 9.9 Q5.3 9.0 5.6 7.9 5.6 7.5 5.9 7.4 L5.5 5.4 Q5.6 5.3 5.7 5.5 M22.1 24.5 L20.6 24.8 18.8 25.2 18.2 25.3 16.6 25.7 15.4 26.1 Q14.9 26.1 14.3 26.4 12.1 27.3 11.4 29.4 L14.2 29.5 17.1 29.5 18.8 29.5 21.8 29.5 26.7 29.5 27.3 29.5 26.8 31.9 26.3 34.8 21.6 34.8 19.1 34.8 8.3 34.8 6.4 34.8 6.2 33.3 5.8 30.4 Q5.6 29.1 5.7 28.4 5.5 28.0 5.6 27.8 5.4 25.5 6.2 24.2 7.2 21.7 10.8 20.2 12.4 19.6 16.1 19.0 16.3 18.9 16.8 19.4 16.5 19.5 16.4 19.9 L17.2 20.4 17.5 20.5 18.3 21.0 18.0 21.3 18.3 21.6 18.2 21.9 18.8 22.3 18.6 22.4 18.8 22.6 19.1 22.7 19.5 22.9 19.9 23.2 19.7 23.3 21.1 24.1 22.1 24.4 22.2 24.5 22.1 24.5 M7.6 5.3 L8.6 5.4 7.5 5.1 8.6 5.4 7.6 5.3" fill="#d5c2a0" fill-opacity="0.48235294" fill-rule="evenodd" stroke="none"/>
    <path d="M4.5 17.6 L2.5 17.9 1.8 12.1 1.7 11.7 1.5 10.6 Q1.2 8.9 1.7 7.0 2.4 3.9 5.1 3.5 L5.5 5.4 5.9 7.4 Q5.6 7.5 5.6 7.9 5.3 9.0 5.5 9.9 L5.5 10.1 5.7 11.1 5.8 11.5 6.5 17.3 4.5 17.6" fill="#371b0a" fill-rule="evenodd" stroke="none"/>
    <path d="M30.0 3.4 Q32.9 4.6 32.8 7.8 L32.8 7.9 32.0 12.5 31.0 16.6 30.7 17.0 30.7 17.1 30.4 17.9 30.1 19.1 Q28.6 21.6 26.5 23.0 25.0 23.6 23.5 24.3 L22.7 24.2 Q22.6 24.1 22.9 24.1 L22.2 23.7 21.2 23.3 21.5 23.2 20.2 22.4 20.3 22.3 20.2 22.2 19.9 21.8 20.1 21.6 19.3 21.3 19.8 21.0 19.0 20.5 18.5 20.2 18.0 19.8 Q18.0 19.4 18.4 19.3 L17.7 18.8 19.9 18.2 22.4 17.3 Q24.5 15.9 24.8 13.5 24.1 12.5 22.6 12.5 21.5 12.1 20.2 12.5 L18.7 12.5 15.6 12.6 14.2 12.6 13.9 12.2 Q13.8 11.9 13.6 12.1 L13.7 11.9 12.0 10.9 11.8 10.7 11.6 10.7 10.5 10.0 Q10.5 9.6 10.8 9.7 L10.5 9.4 11.0 8.9 Q10.7 8.7 10.5 8.1 L10.0 8.0 Q9.9 7.8 10.1 7.8 L8.8 7.5 8.9 7.1 8.3 6.6 7.7 6.0 Q7.7 5.8 7.9 5.9 L7.4 5.6 6.3 5.5 5.9 5.4 6.9 6.4 M5.7 5.5 L5.6 5.6 6.0 5.9 Q5.9 5.8 5.9 6.0 L6.4 6.6 Q7.3 7.6 8.1 7.8 L7.9 8.0 Q8.8 8.2 9.3 8.9 L9.3 9.7 Q9.2 10.1 9.4 10.3 L9.6 10.5 9.8 10.7 11.8 11.7 11.9 11.8 12.0 12.1 12.5 12.6 Q12.1 12.6 11.9 13.0 10.9 13.7 11.1 16.1 L11.1 17.6 4.5 17.6 M22.1 24.5 L20.6 24.8 18.8 25.2 18.2 25.3 16.6 25.7 15.4 26.1 Q14.9 26.1 14.3 26.4 12.1 27.3 11.4 29.4 L14.2 29.5 17.1 29.5 18.8 29.5 21.8 29.5 26.7 29.5 27.3 29.5 26.8 31.9 26.3 34.8 21.6 34.8 19.1 34.8 8.3 34.8 6.4 34.8 6.2 33.3 5.8 30.4 Q5.6 29.1 5.7 28.4 5.5 28.0 5.6 27.8 5.4 25.5 6.2 24.2 7.2 21.7 10.8 20.2 12.4 19.6 16.1 19.0 16.3 18.9 16.8 19.4 16.5 19.5 16.4 19.9 L17.2 20.4 17.5 20.5 18.3 21.0 18.0 21.3 18.3 21.6 18.2 21.9 18.8 22.3 18.6 22.4 18.8 22.6 19.1 22.7 19.5 22.9 19.9 23.2 19.7 23.3 21.1 24.1 22.1 24.4 22.2 24.5 22.1 24.5 M7.5 5.1 Q7.5 4.9 7.8 4.8 L7.4 4.5 Q7.3 4.3 7.6 4.3 M7.6 5.3 L7.4 5.2 7.5 5.1 M7.6 5.3 L7.7 5.4 Q7.4 5.4 7.4 5.6 L6.8 5.4 6.6 5.3 6.25 5.2" fill="none" stroke="#371b0a" stroke-linecap="butt" stroke-linejoin="miter-clip" stroke-miterlimit="3.0" stroke-width="3.0"/>
    <path d="M7.6 4.3 L7.2 4.1 Q8.5 3.2 10.9 3.3 L13.1 3.4 13.6 3.4 13.8 3.4 15.1 3.4 23.3 3.4 25.9 3.4 30.0 3.4" fill="none" stroke="#371b0a" stroke-linecap="butt" stroke-linejoin="bevel" stroke-width="3.0"/>
    <path d="M6.3 5.5 L6.9 6.4 5.7 5.5 M6.3 5.5 L6.2 5.2 6.25 5.2 6.7 5.2 6.7 5.1 Q6.5 4.8 7.3 5.0 L7.5 5.1 8.6 5.4 7.6 5.3 7.0 5.3 7.1 5.2 7.3 5.0 M7.1 5.2 L6.7 5.2 6.8 5.4 7.0 5.3 M7.1 5.2 L7.6 5.3" fill="none" stroke="#371b0a" stroke-linecap="round" stroke-linejoin="round" stroke-width="3.0"/>
    <path d="M18.5 20.2 L26.3 17.7 26.6 17.7 27.3 12.4 Q26.8 10.1 26.1 9.4 25.2 8.6 24.1 8.9 L11.0 8.9 Q10.7 8.7 10.5 8.1 L10.0 8.0 Q9.9 7.8 10.1 7.8 L8.8 7.5 8.9 7.1 8.3 6.6 7.7 6.0 Q7.7 5.8 7.9 5.9 L7.4 5.6 Q7.4 5.4 7.7 5.4 L7.4 5.2 7.8 4.8 7.4 4.5 Q7.3 4.3 7.6 4.3 L7.2 4.1 Q8.5 3.2 10.9 3.3 L13.1 3.4 13.6 3.4 15.1 3.4 23.3 3.4 25.9 3.4 30.0 3.4 Q32.9 4.6 32.8 7.8 L32.0 12.5 31.0 16.6 30.7 17.0 30.7 17.1 30.4 17.9 30.1 19.1 Q28.6 21.6 26.5 23.0 25.0 23.6 23.5 24.3 L22.7 24.2 Q22.6 24.1 22.9 24.1 L22.2 23.7 21.2 23.3 21.5 23.2 20.2 22.4 20.3 22.3 20.2 22.2 19.9 21.8 20.1 21.6 19.3 21.3 19.8 21.0 19.0 20.5 18.5 20.2 M17.5 20.5 L18.3 21.0 18.0 21.3 18.3 21.6 18.2 21.9 18.8 22.3 18.6 22.4 18.8 22.6 19.1 22.7 19.5 22.9 19.9 23.2 19.7 23.3 21.1 24.1 22.1 24.4 22.2 24.5 22.1 24.5 20.6 24.8 18.8 25.2 18.2 25.3 16.6 25.7 15.4 26.1 Q14.9 26.1 14.3 26.4 12.1 27.3 11.4 29.4 L14.2 29.5 17.1 29.5 18.8 29.5 21.8 29.5 26.7 29.5 27.3 29.5 26.8 31.9 26.3 34.8 21.6 34.8 19.1 34.8 8.3 34.8 Q6.7 30.7 7.4 27.3 7.8 25.0 9.2 23.3 L17.4 20.5 17.5 20.5 M7.8 17.6 L4.5 17.6 3.8 11.7 3.5 10.3 Q3.2 9.0 3.5 8.9 3.6 5.5 5.4 4.1 5.4 3.8 5.7 4.3 L5.5 4.5 Q5.7 4.5 6.0 4.8 5.7 4.8 5.6 5.2 L5.9 5.4 Q5.7 5.4 5.6 5.6 L6.0 5.9 Q5.9 5.8 5.9 6.0 L6.4 6.6 Q7.3 7.6 8.1 7.8 L7.9 8.0 Q8.8 8.2 9.3 8.9 8.5 9.0 8.2 9.7 7.3 10.4 7.3 12.0 L7.8 17.6" fill="#ffff00" fill-rule="evenodd" stroke="none"/>
    <path d="M11.0 8.9 L24.1 8.9 Q25.2 8.6 26.1 9.4 26.8 10.1 27.3 12.4 L26.6 17.7 26.3 17.7 18.5 20.2 18.0 19.8 Q18.0 19.4 18.4 19.3 L17.7 18.8 19.9 18.2 22.4 17.3 Q24.5 15.9 24.8 13.5 24.1 12.5 22.6 12.5 21.5 12.1 20.2 12.5 L18.7 12.5 15.6 12.6 14.2 12.6 13.9 12.2 Q13.8 11.9 13.6 12.1 L13.7 11.9 12.0 10.9 11.8 10.7 11.6 10.7 10.5 10.0 Q10.5 9.6 10.8 9.7 L10.5 9.4 11.0 8.9 M8.3 34.8 L6.4 34.8 6.2 33.3 5.8 30.4 Q5.6 29.1 5.7 28.4 5.5 28.0 5.6 27.8 5.4 25.5 6.2 24.2 7.2 21.7 10.8 20.2 12.4 19.6 16.1 19.0 16.3 18.9 16.8 19.4 16.5 19.5 16.4 19.9 L17.2 20.4 17.5 20.5 17.4 20.5 9.2 23.3 Q7.8 25.0 7.4 27.3 6.7 30.7 8.3 34.8 M9.3 8.9 L9.3 9.7 Q9.2 10.1 9.4 10.3 L9.6 10.5 9.8 10.7 11.8 11.7 11.9 11.8 12.0 12.1 12.5 12.6 Q12.1 12.6 11.9 13.0 10.9 13.7 11.1 16.1 L11.1 17.6 7.8 17.6 7.3 12.0 Q7.3 10.4 8.2 9.7 8.5 9.0 9.3 8.9" fill="#eb9a05" fill-rule="evenodd" stroke="none"/>
  </g>
</svg>
