<?xml version="1.0" encoding="UTF-8" standalone="no"?>
<svg xmlns:xlink="http://www.w3.org/1999/xlink" height="38.0px" width="35.8px" xmlns="http://www.w3.org/2000/svg">
  <g transform="matrix(1.0, 0.0, 0.0, 1.0, 0.0, 0.0)">
    <path d="M0.0 0.0 L35.8 0.0 35.8 38.0 0.0 38.0 0.0 0.0" fill="#cccccc" fill-opacity="0.0" fill-rule="evenodd" stroke="none"/>
    <path d="M30.4 12.3 L30.2 12.5 Q29.7 12.6 29.4 13.2 28.5 13.5 28.0 14.1 L28.0 14.2 27.7 14.5 Q27.5 14.3 27.3 14.8 L27.5 15.3 27.3 15.6 27.4 15.7 Q27.3 15.6 27.1 15.8 L27.5 15.9 Q27.3 15.9 27.2 16.2 L27.4 16.3 27.2 16.4 Q27.0 16.6 27.2 17.0 26.5 17.1 26.1 17.5 L26.2 17.7 25.9 18.1 26.0 18.4 26.0 18.7 Q25.8 18.5 25.6 18.8 L25.7 19.2 Q24.3 19.3 23.8 20.0 L23.8 20.3 Q23.7 20.1 23.7 20.4 23.6 20.2 23.3 20.6 L23.0 21.0 23.0 21.3 Q22.9 21.2 22.8 21.4 L23.0 21.5 22.5 21.9 22.4 22.1 Q22.4 21.9 22.3 22.1 L22.2 22.2 22.0 22.4 22.0 22.5 Q21.3 22.8 20.7 23.4 L20.9 23.6 20.5 24.0 20.7 24.1 Q20.4 24.1 20.4 24.3 L20.5 24.4 Q20.3 24.4 20.2 24.6 L20.4 24.8 Q19.9 24.8 19.9 25.1 L20.0 25.3 20.1 25.7 19.9 25.9 Q19.8 26.0 20.0 26.3 19.6 26.3 19.5 26.6 18.9 26.8 18.8 27.3 L19.1 27.6 18.7 27.7 18.5 28.0 18.6 28.1 18.9 28.2 Q18.7 28.2 18.9 28.6 18.8 28.5 18.7 28.7 L18.7 28.8 Q18.5 28.7 18.5 28.9 18.4 28.8 18.3 29.0 18.2 28.9 18.0 29.1 L18.2 29.4 Q17.2 30.1 16.2 31.8 15.5 32.5 15.1 33.4 L14.1 34.7 13.9 35.1 12.7 35.2 12.5 35.2 8.5 35.7 Q9.9 33.4 11.8 31.1 L13.0 29.4 Q14.0 27.5 14.2 27.5 L16.8 23.6 17.3 22.7 18.8 20.6 19.0 20.3 19.2 20.2 19.9 19.0 Q19.9 18.8 20.3 18.7 20.4 18.3 20.8 18.0 20.9 17.2 21.6 16.6 L23.4 14.2 Q22.2 13.6 20.8 13.7 20.0 13.6 19.4 14.0 19.3 13.7 19.3 14.0 L19.0 14.1 18.3 14.0 17.9 14.0 7.0 13.8 7.0 11.7 6.8 9.1 6.9 8.1 6.9 6.7 6.8 2.8 33.0 4.6 30.9 11.6 Q30.6 11.4 30.6 11.6 L30.6 11.8 30.4 12.3 M31.9 12.0 L31.2 14.3 27.6 18.3 27.5 18.5 Q26.9 19.1 26.4 20.0 25.1 21.5 24.3 22.9 22.6 24.9 21.0 27.3 20.5 27.5 20.1 28.2 L19.9 27.9 19.9 27.8 Q20.0 27.6 20.2 27.7 L20.1 27.3 20.0 27.2 20.2 26.8 Q20.6 26.3 21.3 26.2 L21.0 25.7 21.4 25.3 21.0 25.1 Q21.1 24.9 21.4 24.9 L21.7 24.5 21.6 24.5 Q21.4 24.4 21.6 24.3 L21.7 24.2 Q21.7 23.9 21.8 24.2 L21.9 23.9 Q21.8 23.7 22.0 23.7 L22.0 23.4 Q22.5 22.8 23.5 22.3 L23.4 22.1 23.8 21.8 24.2 21.5 24.2 21.4 Q24.1 21.2 24.3 21.3 L24.3 20.9 25.2 20.0 25.1 19.9 26.9 19.1 26.8 18.9 27.2 18.5 27.4 18.2 27.3 18.0 27.6 17.7 27.5 17.5 Q27.6 17.1 27.6 17.4 L28.6 16.8 28.5 16.6 Q28.4 16.3 28.7 16.3 L28.5 16.1 28.6 16.1 28.5 15.9 Q28.5 15.6 28.7 15.7 L28.5 15.5 Q28.6 15.2 28.8 15.4 L28.4 14.9 Q28.6 14.6 29.0 14.5 L29.5 14.2 29.4 14.1 Q29.6 13.7 29.9 13.6 L30.2 13.7 Q30.6 12.9 31.1 12.8 L31.2 12.8 31.1 12.6 31.2 12.7 31.3 12.7 Q31.3 12.5 31.6 12.6 L31.7 12.1 Q31.8 11.8 31.9 12.0 L31.9 11.8 32.0 11.8 31.9 12.0 M19.2 29.1 Q19.1 29.0 19.3 29.0 19.3 28.9 19.6 28.9 L19.5 28.8 19.8 28.8 19.5 29.1 19.2 29.2 19.2 29.1 M19.9 28.7 L19.8 28.7 Q19.8 28.4 19.9 28.5 L19.9 28.7" fill="#333333" fill-rule="evenodd" stroke="none"/>
    <path d="M30.4 12.3 L30.2 12.5 Q29.7 12.6 29.4 13.2 28.5 13.5 28.0 14.1 L28.0 14.2 27.7 14.5 Q27.5 14.3 27.3 14.8 L27.5 15.3 27.3 15.6 27.4 15.7 Q27.3 15.6 27.1 15.8 L27.5 15.9 Q27.3 15.9 27.2 16.2 L27.4 16.3 27.2 16.4 Q27.0 16.6 27.2 17.0 26.5 17.1 26.1 17.5 L26.2 17.7 25.9 18.1 26.0 18.4 26.0 18.7 Q25.8 18.5 25.6 18.8 L25.7 19.2 Q24.3 19.3 23.8 20.0 L23.8 20.3 Q23.7 20.1 23.7 20.4 23.6 20.2 23.3 20.6 L23.0 21.0 23.0 21.3 Q22.9 21.2 22.8 21.4 L23.0 21.5 22.5 21.9 22.4 22.1 Q22.4 21.9 22.3 22.1 L22.2 22.2 22.0 22.4 22.0 22.5 Q21.3 22.8 20.7 23.4 L20.9 23.6 20.5 24.0 20.7 24.1 Q20.4 24.1 20.4 24.3 L20.5 24.4 Q20.3 24.4 20.2 24.6 L20.4 24.8 Q19.9 24.8 19.9 25.1 L20.0 25.3 20.1 25.7 19.9 25.9 Q19.8 26.0 20.0 26.3 19.6 26.3 19.5 26.6 18.9 26.8 18.8 27.3 L19.1 27.6 18.7 27.7 18.5 28.0 18.6 28.1 18.9 28.2 Q18.7 28.2 18.9 28.6 18.8 28.5 18.7 28.7 L18.7 28.8 Q18.5 28.7 18.5 28.9 18.4 28.8 18.3 29.0 18.2 28.9 18.0 29.1 L18.2 29.4 Q17.2 30.1 16.2 31.8 15.5 32.5 15.1 33.4 L14.1 34.7 13.9 35.1 12.7 35.2 12.5 35.2 8.5 35.7 Q9.9 33.4 11.8 31.1 L13.0 29.4 Q14.0 27.5 14.2 27.5 L16.8 23.6 17.3 22.7 18.8 20.6 19.0 20.3 19.2 20.2 19.9 19.0 Q19.9 18.8 20.3 18.7 20.4 18.3 20.8 18.0 20.9 17.2 21.6 16.6 L23.4 14.2 Q22.2 13.6 20.8 13.7 20.0 13.6 19.4 14.0 19.3 13.7 19.3 14.0 L19.0 14.1 18.3 14.0 17.9 14.0 7.0 13.8 7.0 11.7 6.8 9.1 6.9 8.1 6.9 6.7 6.8 2.8 33.0 4.6 30.9 11.6 Q30.6 11.4 30.6 11.6 L30.6 11.8 30.4 12.3 M31.9 12.0 L31.2 14.3 27.6 18.3 27.5 18.5 Q26.9 19.1 26.4 20.0 25.1 21.5 24.3 22.9 22.6 24.9 21.0 27.3 20.5 27.5 20.1 28.2 L19.9 27.9 19.9 27.8 Q20.0 27.6 20.2 27.7 L20.1 27.3 20.0 27.2 20.2 26.8 Q20.6 26.3 21.3 26.2 L21.0 25.7 21.4 25.3 21.0 25.1 Q21.1 24.9 21.4 24.9 L21.7 24.5 21.6 24.5 Q21.4 24.4 21.6 24.3 L21.7 24.2 Q21.7 23.9 21.8 24.2 L21.9 23.9 Q21.8 23.7 22.0 23.7 L22.0 23.4 Q22.5 22.8 23.5 22.3 L23.4 22.1 23.8 21.8 24.2 21.5 24.2 21.4 Q24.1 21.2 24.3 21.3 L24.3 20.9 25.2 20.0 25.1 19.9 26.9 19.1 26.8 18.9 27.2 18.5 27.4 18.2 27.3 18.0 27.6 17.7 27.5 17.5 Q27.6 17.1 27.6 17.4 L28.6 16.8 28.5 16.6 Q28.4 16.3 28.7 16.3 L28.5 16.1 28.6 16.1 28.5 15.9 Q28.5 15.6 28.7 15.7 L28.5 15.5 Q28.6 15.2 28.8 15.4 L28.4 14.9 Q28.6 14.6 29.0 14.5 L29.5 14.2 29.4 14.1 Q29.6 13.7 29.9 13.6 L30.2 13.7 Q30.6 12.9 31.1 12.8 L31.2 12.8 31.1 12.6 31.2 12.7 31.3 12.7 Q31.3 12.5 31.6 12.6 L31.7 12.1 Q31.8 11.8 31.9 12.0 Z" fill="none" stroke="#333333" stroke-linecap="butt" stroke-linejoin="miter-clip" stroke-miterlimit="3.0" stroke-width="3.0"/>
    <path d="M7.0 11.7 L6.8 9.1 6.9 8.1 6.9 6.7 6.8 2.8 33.0 4.6 30.9 11.6 Q30.6 11.4 30.6 11.6 L30.6 11.8 30.4 12.3 30.2 12.5 Q29.7 12.6 29.4 13.2 28.5 13.5 28.0 14.1 L28.0 14.2 27.7 14.5 Q27.5 14.3 27.3 14.8 L27.5 15.3 27.3 15.6 27.4 15.7 Q27.3 15.6 27.1 15.8 L27.5 15.9 Q27.3 15.9 27.2 16.2 L27.4 16.3 27.2 16.4 Q27.0 16.6 27.2 17.0 26.5 17.1 26.1 17.5 L26.2 17.7 25.9 18.1 26.0 18.4 26.0 18.7 Q25.8 18.5 25.6 18.8 L25.7 19.2 Q24.3 19.3 23.8 20.0 L23.8 20.3 Q23.7 20.1 23.7 20.4 23.6 20.2 23.3 20.6 L23.0 21.0 23.0 21.3 Q22.9 21.2 22.8 21.4 L23.0 21.5 22.5 21.9 22.4 22.1 Q22.4 21.9 22.3 22.1 L22.2 22.2 22.0 22.4 22.0 22.5 Q21.3 22.8 20.7 23.4 L20.9 23.6 20.5 24.0 20.7 24.1 Q20.4 24.1 20.4 24.3 L20.5 24.4 Q20.3 24.4 20.2 24.6 L20.4 24.8 Q19.9 24.8 19.9 25.1 L20.0 25.3 20.1 25.6 20.1 25.7 19.9 25.9 Q19.8 26.0 20.0 26.3 19.6 26.3 19.5 26.6 18.9 26.8 18.8 27.3 L19.1 27.6 18.7 27.7 18.5 28.0 18.6 28.1 18.9 28.2 Q18.7 28.2 18.9 28.6 18.8 28.5 18.7 28.7 L18.7 28.8 Q18.5 28.7 18.5 28.9 18.4 28.8 18.3 29.0 18.2 28.9 18.0 29.1 L18.2 29.4 17.2 30.35 16.2 31.8 Q15.5 32.5 15.1 33.4 L14.1 34.7 13.9 35.1 12.7 35.2 12.5 35.2 9.6 35.6 24.9 14.6 25.5 12.3 7.0 11.7 M31.9 12.0 L31.2 14.3 27.6 18.3 27.5 18.5 Q26.9 19.1 26.4 20.0 25.1 21.5 24.3 22.9 22.6 24.9 21.0 27.3 L20.7 27.5 20.1 28.2 19.9 27.9 19.9 27.8 Q20.0 27.6 20.2 27.7 L20.1 27.3 20.0 27.2 20.2 26.8 20.7 26.4 21.3 26.2 21.0 25.7 21.4 25.3 21.0 25.1 Q21.1 24.9 21.4 24.9 L21.7 24.5 21.6 24.5 Q21.4 24.4 21.6 24.3 L21.7 24.2 Q21.7 23.9 21.8 24.2 L21.9 23.9 Q21.8 23.7 22.0 23.7 L22.0 23.4 Q22.5 22.8 23.5 22.3 L23.4 22.1 23.8 21.8 24.2 21.5 24.2 21.4 Q24.1 21.2 24.3 21.3 L24.3 20.9 25.2 20.0 25.1 19.9 26.9 19.1 26.8 18.9 27.2 18.5 27.4 18.2 27.3 18.0 27.6 17.7 27.5 17.5 Q27.6 17.1 27.6 17.4 L28.6 16.8 28.5 16.6 Q28.4 16.3 28.7 16.3 L28.5 16.1 28.6 16.1 28.5 15.9 Q28.5 15.6 28.7 15.7 L28.5 15.5 Q28.6 15.2 28.8 15.4 L28.4 14.9 Q28.6 14.6 29.0 14.5 L29.5 14.2 29.4 14.1 Q29.6 13.7 29.9 13.6 L30.2 13.7 Q30.6 12.9 31.1 12.8 L31.2 12.8 31.1 12.6 31.2 12.7 31.3 12.7 Q31.3 12.5 31.6 12.6 L31.7 12.1 Q31.8 11.8 31.9 12.0 M19.6 28.9 L19.5 28.8 19.8 28.8 19.5 29.1 19.2 29.2 19.2 29.1 Q19.1 29.0 19.3 29.0 19.3 28.9 19.6 28.9 M19.9 28.7 L19.8 28.7 Q19.8 28.4 19.9 28.5 L19.9 28.7" fill="#ffffff" fill-rule="evenodd" stroke="none"/>
    <path d="M31.9 12.0 L31.9 11.8 32.0 11.8 31.9 12.0" fill="#ffff00" fill-rule="evenodd" stroke="none"/>
    <path d="M9.6 35.6 L8.5 35.7 Q9.9 33.4 11.8 31.1 L13.0 29.4 Q14.0 27.5 14.2 27.5 L16.8 23.6 17.3 22.7 18.8 20.6 19.0 20.3 19.2 20.2 19.9 19.0 Q19.9 18.8 20.3 18.7 20.4 18.3 20.8 18.0 20.9 17.2 21.6 16.6 L23.4 14.2 Q22.2 13.6 20.8 13.7 20.0 13.6 19.4 14.0 19.3 13.7 19.3 14.0 L19.0 14.1 18.3 14.0 17.9 14.0 7.0 13.8 7.0 11.7 25.5 12.3 24.9 14.6 9.6 35.6" fill="#999999" fill-rule="evenodd" stroke="none"/>
  </g>
</svg>
