<?xml version="1.0" encoding="UTF-8" standalone="no"?>
<svg xmlns:xlink="http://www.w3.org/1999/xlink" height="18.8px" width="22.0px" xmlns="http://www.w3.org/2000/svg">
  <g transform="matrix(1.0, 0.0, 0.0, 1.0, 3.0, 3.0)">
    <path d="M0.15 12.8 L0.0 12.6 8.0 0.0 16.0 12.6 15.9 12.75 15.85 12.8 0.15 12.8" fill="#00cc33" fill-rule="evenodd" stroke="none"/>
    <path d="M0.15 12.8 L15.85 12.8 15.9 12.75 16.0 12.6 8.0 0.0 0.0 12.6 0.15 12.8 Z" fill="none" stroke="url(#gradient0)" stroke-linecap="butt" stroke-linejoin="round" stroke-width="6.0"/>
    <path d="M0.15 12.85 L0.0 12.6 8.0 0.05 16.0 12.6 15.95 12.75 15.85 12.85 0.15 12.85" fill="#00cc33" fill-rule="evenodd" stroke="none"/>
    <path d="M0.15 12.85 L15.85 12.85 15.95 12.75 16.0 12.6 8.0 0.05 0.0 12.6 0.15 12.85 Z" fill="none" stroke="#6cfbff" stroke-linecap="butt" stroke-linejoin="round" stroke-width="2.5"/>
    <path d="M0.15 12.85 L0.0 12.6 0.15 12.75 0.15 12.85" fill="#009999" fill-rule="evenodd" stroke="none"/>
    <path d="M15.95 12.75 L15.85 12.85 0.15 12.85 0.15 12.75 8.0 2.6 15.95 12.75" fill="url(#gradient1)" fill-rule="evenodd" stroke="none"/>
    <path d="M0.0 12.6 L8.0 0.05 16.0 12.6 15.95 12.75 8.0 2.6 0.15 12.75 0.0 12.6" fill="#e5f4ff" fill-rule="evenodd" stroke="none"/>
  </g>
  <defs>
    <linearGradient gradientTransform="matrix(0.0, 0.0088, -0.0088, 0.0, 43.3, 6.2)" gradientUnits="userSpaceOnUse" id="gradient0" spreadMethod="pad" x1="-819.2" x2="819.2">
      <stop offset="0.17254901960784313" stop-color="#064554"/>
      <stop offset="1.0" stop-color="#38a2b0"/>
    </linearGradient>
    <linearGradient gradientTransform="matrix(0.0, 0.0064, -0.0035, 0.0, 0.25, 6.9)" gradientUnits="userSpaceOnUse" id="gradient1" spreadMethod="pad" x1="-819.2" x2="819.2">
      <stop offset="0.17254901960784313" stop-color="#007087"/>
      <stop offset="1.0" stop-color="#0093af"/>
    </linearGradient>
  </defs>
</svg>
