<?xml version="1.0" encoding="UTF-8" standalone="no"?>
<svg xmlns:xlink="http://www.w3.org/1999/xlink" height="36.8px" width="86.8px" xmlns="http://www.w3.org/2000/svg">
  <g transform="matrix(1.0, 0.0, 0.0, 1.0, 8.45, -2.35)">
    <path d="M78.0 10.75 L77.4 10.85 Q74.5 10.85 73.35 8.3 72.0 5.35 71.15 5.0 L68.45 4.25 64.5 3.15 65.8 3.15 Q76.8 3.2 78.35 10.6 78.25 10.6 78.0 10.75 M41.25 4.75 Q28.55 6.6 18.2 6.6 L11.25 6.0 Q6.9 5.3 5.8 3.65 7.25 4.75 9.8 4.75 L21.0 4.5 29.8 3.45 38.6 2.35 40.55 2.5 41.25 4.75 M41.0 25.8 L34.95 26.05 Q33.15 26.35 32.5 27.55 32.05 28.3 31.3 31.5 30.3 35.6 29.0 39.15 28.75 38.9 28.5 37.0 L28.25 34.75 Q28.25 28.0 29.6 26.1 31.05 24.0 36.2 24.0 46.7 24.0 52.25 25.3 59.4 26.95 59.4 30.9 59.4 31.7 57.4 32.5 56.35 32.5 53.55 30.25 50.05 27.4 48.5 26.6 L44.55 26.0 41.0 25.8 M24.55 21.8 L16.0 24.25 Q13.4 25.45 12.6 26.25 11.15 27.7 10.35 31.15 10.15 32.2 10.4 35.2 10.2 37.1 8.65 38.05 L8.25 34.25 8.0 29.8 Q8.0 25.05 10.35 23.45 11.7 22.55 18.35 21.0 22.2 20.15 25.7 18.35 28.4 17.0 30.3 17.0 L31.4 17.25 Q29.35 20.55 24.55 21.8 M1.55 20.05 Q2.55 15.65 3.65 14.35 L3.65 16.5 Q2.9 21.0 0.75 25.4 -2.0 30.85 -4.9 30.85 L-8.45 30.2 -8.45 30.1 -8.35 30.05 -5.55 29.0 Q-4.25 28.7 -2.95 27.25 L-1.05 25.25 Q0.7 24.05 1.55 20.05" fill="#ffffff" fill-rule="evenodd" stroke="none"/>
  </g>
</svg>
