<?xml version="1.0" encoding="UTF-8" standalone="no"?>
<svg xmlns:xlink="http://www.w3.org/1999/xlink" height="118.4px" width="1190.55px" xmlns="http://www.w3.org/2000/svg">
  <g transform="matrix(1.0, 0.0, 0.0, 1.0, 248.25, 29.2)">
    <path d="M703.45 2.55 L754.85 2.55 765.1 12.8 Q765.8 13.5 766.85 13.5 L796.15 13.5 Q818.05 94.25 898.5 77.6 L923.05 85.55 -244.6 85.55 -244.6 14.8 -232.35 2.55 -232.1 2.55 -232.1 -14.2 -211.3 -28.05 -155.3 -28.05 -149.75 -24.7 -73.1 -24.7 -67.55 -28.05 -20.95 -28.05 -0.2 -14.2 -0.2 2.55 528.6 2.55 528.6 10.8 730.25 10.8 730.25 10.6 703.45 10.6 703.45 2.55" fill="url(#gradient0)" fill-rule="evenodd" stroke="none"/>
    <path d="M528.6 2.55 L698.15 2.55 703.45 2.55 703.45 10.6 730.25 10.6 730.25 10.8 528.6 10.8 528.6 2.55" fill="url(#gradient1)" fill-rule="evenodd" stroke="none"/>
    <path d="M703.7 2.55 L754.85 2.55 765.1 12.8 Q765.8 13.5 766.85 13.5 L796.15 13.5 Q798.45 22.0 801.4 29.45 L-1.75 29.45 -1.75 2.55 536.65 2.55 536.65 9.7 703.7 9.7 703.7 2.55" fill="url(#gradient2)" fill-rule="evenodd" stroke="none"/>
    <path d="M536.65 2.55 L700.35 2.55 703.7 2.55 703.7 9.7 536.65 9.7 536.65 2.55" fill="url(#gradient3)" fill-rule="evenodd" stroke="none"/>
    <path d="M718.25 2.45 L718.25 2.3 Q718.25 1.8 718.65 1.45 719.0 1.05 719.5 1.05 L754.95 1.05 Q755.45 1.05 755.85 1.45 L766.15 11.75 766.85 12.0 796.35 12.0 797.1 12.25 797.55 12.95 Q819.0 92.5 898.2 76.15 L898.85 76.15 925.0 84.6 925.7 85.15 925.85 86.0 925.45 86.75 924.6 87.05 -244.85 87.05 Q-245.35 87.05 -245.7 86.7 -246.1 86.3 -246.1 85.8 L-246.1 14.7 Q-246.1 14.25 -245.7 13.85 L-232.65 0.8 -232.4 0.05 -232.4 -13.0 -232.25 -13.6 -231.85 -14.05 -212.45 -26.85 -211.75 -27.05 -155.9 -27.05 -155.25 -26.85 -150.25 -23.8 -149.75 -23.7 -73.1 -23.7 Q-72.8 -23.7 -72.55 -23.85 L-72.55 -23.8 -67.5 -26.85 -66.9 -27.05 -21.65 -27.05 -20.95 -26.85 -1.75 -14.05 -1.35 -13.6 -1.2 -13.0 -1.2 0.15 -0.9 0.9 -0.45 1.15 Q0.05 1.2 0.35 1.6 0.65 2.0 0.6 2.45 L0.6 2.55 0.1 3.35 -0.35 3.55 -0.85 3.6 Q-1.9 3.4 -2.65 2.65 -3.7 1.6 -3.7 0.15 L-3.7 -12.3 -22.05 -24.55 -66.55 -24.55 -71.3 -21.65 -71.35 -21.65 Q-72.2 -21.2 -73.1 -21.2 L-149.75 -21.2 Q-150.75 -21.2 -151.55 -21.65 L-151.55 -21.7 -156.2 -24.55 -211.35 -24.55 -229.9 -12.3 -229.9 0.05 Q-229.9 1.45 -230.9 2.55 L-243.6 15.2 -243.6 84.55 916.65 84.55 898.4 78.65 Q817.6 95.2 795.4 14.5 L766.85 14.5 Q765.4 14.5 764.4 13.5 L754.45 3.55 725.75 3.55 719.5 3.55 Q719.0 3.55 718.65 3.2 L718.25 2.45" fill="url(#gradient4)" fill-rule="evenodd" stroke="none"/>
    <path d="M718.25 2.45 L718.65 3.2 Q719.0 3.55 719.5 3.55 L725.75 3.55 725.75 3.65 707.5 3.65 542.85 3.65 542.85 2.45 707.5 2.45 718.25 2.45" fill="url(#gradient5)" fill-rule="evenodd" stroke="none"/>
    <path d="M-0.35 3.55 L0.1 3.35 0.6 2.55 0.6 2.45 542.85 2.45 542.85 3.65 -0.35 3.65 -0.35 3.55" fill="url(#gradient6)" fill-rule="evenodd" stroke="none"/>
    <path d="M755.9 -0.2 L756.1 -0.1 766.95 10.75 798.05 10.75 798.2 10.8 798.3 10.95 Q819.2 91.5 898.55 74.75 L898.7 74.75 938.95 87.8 939.1 87.95 939.1 88.1 939.0 88.25 938.85 88.3 -247.1 88.3 -247.25 88.25 -247.35 88.05 -247.35 13.75 -247.25 13.6 -233.65 -0.05 -233.65 -14.2 -233.6 -14.3 -233.5 -14.4 -212.5 -28.25 -212.4 -28.3 -155.3 -28.3 -155.15 -28.25 -149.65 -24.95 -73.15 -24.95 -67.65 -28.25 -67.55 -28.3 -20.95 -28.3 -20.8 -28.25 -0.05 -14.4 0.05 -14.3 0.05 -14.2 0.05 -0.15 0.2 -0.2 755.9 -0.2 M719.5 2.3 L539.75 2.3 0.5 2.3 -0.2 2.4 -0.65 2.35 Q-1.3 2.25 -1.8 1.75 -2.45 1.1 -2.45 0.15 L-2.45 -13.0 -21.65 -25.8 -66.9 -25.8 -71.95 -22.75 -73.1 -22.45 -149.75 -22.45 Q-150.4 -22.45 -150.9 -22.75 L-155.9 -25.8 -211.75 -25.8 -231.15 -13.0 -231.15 0.05 Q-231.15 1.0 -231.8 1.65 L-244.85 14.7 -244.85 85.8 924.6 85.8 898.45 77.35 Q818.1 94.0 796.35 13.25 L766.85 13.25 Q765.9 13.25 765.25 12.6 L754.95 2.3 719.5 2.3" fill="url(#gradient7)" fill-rule="evenodd" stroke="none"/>
    <path d="M539.75 2.45 L539.75 2.3 719.5 2.3 719.5 2.45 700.6 2.45 539.75 2.45" fill="url(#gradient8)" fill-rule="evenodd" stroke="none"/>
    <path d="M539.75 2.3 L539.75 2.45 -0.65 2.45 -0.65 2.35 -0.2 2.4 0.5 2.3 539.75 2.3" fill="url(#gradient9)" fill-rule="evenodd" stroke="none"/>
    <path d="M0.2 0.05 L755.9 0.05 766.85 11.0 798.05 11.0 Q819.0 91.8 898.6 75.0 L938.85 88.05 -247.1 88.05 -247.1 13.75 -233.4 0.05 -233.4 -14.2 -212.4 -28.05 -155.3 -28.05 -149.75 -24.7 -73.1 -24.7 -67.55 -28.05 -20.95 -28.05 -0.2 -14.2 -0.2 0.15" fill="none" stroke="url(#gradient10)" stroke-linecap="butt" stroke-linejoin="miter-clip" stroke-miterlimit="3.0" stroke-width="2.3000000000000003"/>
    <path d="M733.65 0.05 L755.9 0.05 766.85 11.0" fill="none" stroke="url(#gradient11)" stroke-linecap="butt" stroke-linejoin="miter-clip" stroke-miterlimit="3.0" stroke-width="2.3000000000000003"/>
  </g>
  <defs>
    <linearGradient gradientTransform="matrix(0.0, -0.054, 0.5429, -3.0E-4, 494.0, 44.05)" gradientUnits="userSpaceOnUse" id="gradient0" spreadMethod="pad" x1="-819.2" x2="819.2">
      <stop offset="0.0" stop-color="#0d4483" stop-opacity="0.7019608"/>
      <stop offset="1.0" stop-color="#050366" stop-opacity="0.7019608"/>
    </linearGradient>
    <linearGradient gradientTransform="matrix(-2.0E-4, -0.054, 4.3445, -3.0E-4, 251.75, 44.05)" gradientUnits="userSpaceOnUse" id="gradient1" spreadMethod="pad" x1="-819.2" x2="819.2">
      <stop offset="0.0" stop-color="#0d4483" stop-opacity="0.7019608"/>
      <stop offset="1.0" stop-color="#050366" stop-opacity="0.7019608"/>
    </linearGradient>
    <linearGradient gradientTransform="matrix(0.0, 0.0133, -0.5429, 1.0E-4, 359.55, 14.15)" gradientUnits="userSpaceOnUse" id="gradient2" spreadMethod="pad" x1="-819.2" x2="819.2">
      <stop offset="0.0" stop-color="#398eec" stop-opacity="0.5019608"/>
      <stop offset="1.0" stop-color="#050366" stop-opacity="0.0"/>
    </linearGradient>
    <linearGradient gradientTransform="matrix(2.0E-4, 0.0133, -6.4781, 1.0E-4, -1576.55, 14.15)" gradientUnits="userSpaceOnUse" id="gradient3" spreadMethod="pad" x1="-819.2" x2="819.2">
      <stop offset="0.0" stop-color="#398eec" stop-opacity="0.5019608"/>
      <stop offset="1.0" stop-color="#050366" stop-opacity="0.0"/>
    </linearGradient>
    <linearGradient gradientTransform="matrix(0.0, 0.0696, -0.7092, 0.0, 344.9, 30.0)" gradientUnits="userSpaceOnUse" id="gradient4" spreadMethod="pad" x1="-819.2" x2="819.2">
      <stop offset="0.0" stop-color="#215cb4"/>
      <stop offset="1.0" stop-color="#160b4e"/>
    </linearGradient>
    <linearGradient gradientTransform="matrix(0.0, 0.044, -0.9061, 0.0, -469.75, 44.05)" gradientUnits="userSpaceOnUse" id="gradient5" spreadMethod="pad" x1="-819.2" x2="819.2">
      <stop offset="0.0" stop-color="#215cb4"/>
      <stop offset="1.0" stop-color="#160b4e"/>
    </linearGradient>
    <linearGradient gradientTransform="matrix(0.0, 0.044, -0.0508, 0.0, 486.1, 44.05)" gradientUnits="userSpaceOnUse" id="gradient6" spreadMethod="pad" x1="-819.2" x2="819.2">
      <stop offset="0.0" stop-color="#215cb4"/>
      <stop offset="1.0" stop-color="#160b4e"/>
    </linearGradient>
    <linearGradient gradientTransform="matrix(0.0, -0.0712, 0.718, 0.0, 350.85, 30.0)" gradientUnits="userSpaceOnUse" id="gradient7" spreadMethod="pad" x1="-819.2" x2="819.2">
      <stop offset="0.0" stop-color="#215cb4"/>
      <stop offset="1.0" stop-color="#160b4e"/>
    </linearGradient>
    <linearGradient gradientTransform="matrix(0.0, -0.049, 0.8368, 0.0, -154.85, 44.05)" gradientUnits="userSpaceOnUse" id="gradient8" spreadMethod="pad" x1="-819.2" x2="819.2">
      <stop offset="0.0" stop-color="#215cb4"/>
      <stop offset="1.0" stop-color="#160b4e"/>
    </linearGradient>
    <linearGradient gradientTransform="matrix(0.0, -0.049, 0.0549, 0.0, 494.15, 44.05)" gradientUnits="userSpaceOnUse" id="gradient9" spreadMethod="pad" x1="-819.2" x2="819.2">
      <stop offset="0.0" stop-color="#215cb4"/>
      <stop offset="1.0" stop-color="#160b4e"/>
    </linearGradient>
    <linearGradient gradientTransform="matrix(0.0, 0.049, -0.0549, 0.0, 494.05, 44.05)" gradientUnits="userSpaceOnUse" id="gradient10" spreadMethod="pad" x1="-819.2" x2="819.2">
      <stop offset="0.0" stop-color="#215cb4"/>
      <stop offset="1.0" stop-color="#160b4e"/>
    </linearGradient>
    <linearGradient gradientTransform="matrix(0.0133, 0.0036, -0.0021, 0.0078, 752.95, 8.35)" gradientUnits="userSpaceOnUse" id="gradient11" spreadMethod="pad" x1="-819.2" x2="819.2">
      <stop offset="0.0" stop-color="#215cb4" stop-opacity="0.02745098"/>
      <stop offset="0.49411764705882355" stop-color="#66ccff"/>
      <stop offset="1.0" stop-color="#1d4192" stop-opacity="0.0"/>
    </linearGradient>
  </defs>
</svg>
