<?xml version="1.0" encoding="UTF-8" standalone="no"?>
<svg xmlns:xlink="http://www.w3.org/1999/xlink" height="49.75px" width="292.0px" xmlns="http://www.w3.org/2000/svg">
  <g transform="matrix(1.0, 0.0, 0.0, 1.0, 147.15, 23.4)">
    <path d="M-11.75 1.4 L-8.3 -10.3 -19.45 -10.3 -17.7 -16.35 -6.55 -16.35 -5.9 -18.65 0.75 -18.65 0.05 -16.35 1.35 -16.35 -0.4 -10.3 -1.7 -10.3 -5.1 1.4 -11.75 1.4 M23.95 1.4 L24.6 -0.7 1.55 -0.7 3.15 -6.15 26.2 -6.15 27.8 -11.65 5.1 -11.65 6.8 -17.45 39.2 -17.45 Q40.2 -17.65 40.5 -18.2 L40.7 -18.85 47.35 -18.85 46.05 -14.4 Q45.25 -11.65 41.1 -11.65 L34.85 -11.65 33.25 -6.15 43.3 -6.15 41.7 -0.7 31.65 -0.7 31.05 1.4 23.95 1.4 M48.65 1.4 L54.15 -17.45 60.95 -17.45 56.45 -2.0 65.65 -2.0 70.7 -19.4 77.35 -19.4 72.25 -2.0 80.0 -2.0 Q81.9 -1.8 82.45 -3.95 L86.35 -17.45 93.15 -17.45 88.75 -2.2 Q87.8 0.05 86.25 1.4 L48.65 1.4 M97.75 1.4 L103.1 -5.95 104.35 -10.3 96.6 -10.3 98.1 -15.45 105.85 -15.45 106.8 -18.65 112.8 -18.65 111.75 -15.25 113.7 -15.25 112.3 -10.3 110.35 -10.3 109.45 -7.35 111.05 -7.35 109.55 -2.2 107.8 -2.2 106.75 1.4 97.75 1.4 M-121.95 -13.7 L-124.0 -13.7 -126.35 -8.8 Q-127.25 -6.5 -130.55 -6.7 L-134.7 -6.7 -133.1 -12.2 -131.8 -12.2 Q-130.3 -12.2 -129.85 -13.9 L-127.75 -19.05 -110.35 -19.05 -111.9 -13.9 -114.2 -13.9 -114.05 -12.4 Q-114.2 -11.65 -113.3 -11.65 L-112.2 -11.65 Q-111.3 -11.5 -110.75 -12.75 L-107.95 -18.85 -89.75 -18.85 -91.25 -13.7 -93.95 -13.7 -93.8 -12.4 Q-93.85 -11.65 -93.2 -11.85 L-91.75 -11.85 -93.25 -6.8 -99.6 -6.8 Q-101.7 -6.7 -101.5 -8.8 L-101.7 -13.7 -103.45 -13.7 -105.85 -9.35 Q-107.1 -6.8 -109.75 -6.95 L-119.0 -6.95 Q-121.5 -6.8 -121.35 -8.65 L-121.95 -13.7 M113.9 -12.75 L115.45 -18.0 139.55 -18.0 135.35 -3.55 Q134.4 0.95 129.95 0.75 L121.65 0.75 123.1 -4.3 128.65 -4.3 Q129.6 -4.3 130.05 -5.95 L132.05 -12.75 123.3 -12.75 119.55 -3.0 Q117.8 0.95 113.45 0.95 L109.5 0.95 111.05 -4.3 112.55 -4.3 Q113.6 -4.3 113.85 -5.2 L116.75 -12.75 113.9 -12.75 M-119.95 1.4 L-119.55 0.05 -135.75 0.05 -134.4 -4.65 -118.0 -4.65 -117.6 -5.95 -110.6 -5.95 -111.0 -4.65 -94.6 -4.65 -96.0 0.05 -112.35 0.05 -112.75 1.4 -119.95 1.4 M-86.15 -13.9 L-85.05 -13.9 Q-83.3 -13.7 -82.35 -15.05 L-79.25 -18.85 -73.15 -18.85 -78.95 -11.3 Q-80.2 -9.55 -80.95 -9.15 -82.0 -8.65 -83.85 -8.65 L-87.65 -8.65 -86.15 -13.9 M-88.0 1.4 L-90.75 1.4 -89.3 -3.55 -87.85 -3.55 Q-85.75 -3.4 -85.25 -4.5 L-82.5 -8.25 -76.25 -8.25 -81.7 -0.55 -82.3 1.4 -88.0 1.4 M-62.95 -15.65 L-61.95 -19.05 -55.95 -19.05 -57.0 -15.65 -45.85 -15.65 -47.3 -10.55 -58.45 -10.55 -60.0 -5.2 -48.1 -5.2 -49.55 -0.35 -78.95 -0.35 -77.5 -5.2 -65.95 -5.2 -64.4 -10.55 -75.0 -10.55 -73.55 -15.65 -62.95 -15.65 M-40.0 1.4 L-40.4 -9.0 -33.95 -9.0 -33.6 -2.0 -26.7 -12.2 -40.05 -12.2 -38.3 -18.0 -18.9 -18.0 -21.0 -10.75 -29.25 1.4 -40.0 1.4 M-20.35 1.4 L-16.45 -6.15 -10.5 -6.15 -14.15 1.4 -20.35 1.4" fill="url(#gradient0)" fill-rule="evenodd" stroke="none"/>
    <path d="M-11.75 1.4 L-5.1 1.4 -10.0 18.15 Q-10.95 22.65 -14.2 22.15 L-23.4 22.15 -22.05 17.4 -17.0 17.4 Q-16.4 17.4 -16.25 16.9 L-11.75 1.4 M23.95 1.4 L31.05 1.4 30.25 4.2 40.3 4.2 38.75 9.3 28.75 9.3 26.5 16.9 Q24.75 21.2 20.05 21.75 L-3.85 21.75 -2.4 16.7 18.3 16.7 Q19.65 16.9 19.85 15.5 L21.65 9.3 -1.95 9.3 -0.4 4.2 23.15 4.2 23.95 1.4 M48.65 1.4 L86.25 1.4 Q84.3 3.05 81.45 3.45 L70.7 3.45 66.85 16.5 74.6 16.5 Q76.7 16.7 77.0 14.75 L79.55 5.95 86.15 5.95 82.75 17.6 Q81.35 21.75 75.7 21.95 L42.45 21.95 47.15 5.95 54.15 5.95 51.05 16.5 60.25 16.5 64.05 3.45 48.05 3.45 48.65 1.4 M97.75 1.4 L106.75 1.4 101.95 17.8 Q100.9 21.95 96.1 21.75 L88.55 21.75 89.9 17.05 95.15 17.05 Q96.55 17.05 96.8 15.65 L99.35 6.85 96.2 11.7 Q94.75 14.05 92.65 14.05 L89.3 14.05 91.0 8.3 92.1 8.3 Q92.8 8.5 93.55 7.2 L97.75 1.4 M-119.95 1.4 L-112.75 1.4 -112.9 1.95 -95.8 1.95 -97.25 7.05 -138.3 7.05 -136.85 1.95 -120.1 1.95 -119.95 1.4 M-88.0 1.4 L-82.3 1.4 -88.2 21.75 -93.95 21.75 -88.0 1.4 M-40.0 1.4 L-29.25 1.4 -32.65 6.45 -32.1 16.9 Q-32.1 17.6 -31.2 17.6 L-28.9 17.6 -30.2 22.15 -35.45 22.15 Q-38.55 22.3 -38.35 20.3 L-38.55 13.85 -43.35 20.0 Q-44.65 21.75 -46.65 21.55 L-51.2 21.55 -49.9 17.25 -48.4 17.25 Q-47.7 17.25 -47.35 16.7 L-39.85 6.45 -40.0 1.4 M-20.35 1.4 L-14.15 1.4 -18.8 10.8 Q-20.05 13.1 -22.35 13.1 L-27.8 13.1 -26.25 7.75 -24.3 7.75 Q-23.55 7.75 -23.4 7.2 L-20.35 1.4 M-53.45 1.4 L-54.0 3.25 -50.75 3.25 -52.3 8.5 -55.5 8.5 -57.9 16.7 Q-59.3 22.15 -65.1 21.95 L-71.35 21.95 -69.95 17.25 -65.95 17.25 Q-64.35 17.6 -64.15 15.65 L-62.05 8.5 -81.5 8.5 -79.95 3.25 -60.55 3.25 -60.0 1.4 -53.45 1.4 M123.65 16.05 L126.05 7.75 113.6 7.75 110.9 17.25 122.1 17.25 Q123.3 17.25 123.65 16.05 M129.0 17.6 Q127.9 22.65 122.75 22.3 L103.1 22.3 108.85 2.5 133.35 2.5 129.0 17.6 M-130.35 22.3 L-141.85 22.3 -140.45 17.4 -132.55 17.4 Q-131.45 17.4 -130.9 16.9 L-129.7 15.65 -121.4 15.65 -124.7 19.65 Q-127.05 22.65 -130.35 22.3 M-98.0 9.5 L-99.5 14.75 -103.1 14.75 -104.2 18.55 Q-105.3 22.3 -108.9 22.3 L-122.4 22.3 -121.0 17.4 -112.0 17.4 Q-110.8 17.4 -110.45 16.3 L-110.0 14.75 -140.55 14.75 -139.05 9.5 -108.3 9.5 -107.85 7.95 -100.9 7.95 -101.4 9.5 -98.0 9.5 M-73.8 18.7 Q-75.6 21.75 -79.95 21.75 L-85.55 21.75 -84.2 17.05 -80.75 17.05 Q-79.3 17.25 -78.35 15.65 L-74.55 10.05 -68.05 10.05 -73.8 18.7" fill="url(#gradient1)" fill-rule="evenodd" stroke="none"/>
    <path d="M-53.45 1.4 L-60.0 1.4 -59.9 1.05 -53.35 1.05 -53.45 1.4" fill="#b89898" fill-rule="evenodd" stroke="none"/>
    <path d="M113.9 -12.75 L116.75 -12.75 113.85 -5.2 Q113.6 -4.3 112.55 -4.3 L111.05 -4.3 109.5 0.95 113.45 0.95 Q117.8 0.95 119.55 -3.0 L123.3 -12.75 132.05 -12.75 130.05 -5.95 Q129.6 -4.3 128.65 -4.3 L123.1 -4.3 121.65 0.75 129.95 0.75 Q134.4 0.95 135.35 -3.55 L139.55 -18.0 115.45 -18.0 113.9 -12.75 M-121.95 -13.7 L-121.35 -8.65 Q-121.5 -6.8 -119.0 -6.95 L-109.75 -6.95 Q-107.1 -6.8 -105.85 -9.35 L-103.45 -13.7 -101.7 -13.7 -101.5 -8.8 Q-101.7 -6.7 -99.6 -6.8 L-93.25 -6.8 -91.75 -11.85 -93.2 -11.85 Q-93.85 -11.65 -93.8 -12.4 L-93.95 -13.7 -91.25 -13.7 -89.75 -18.85 -107.95 -18.85 -110.75 -12.75 Q-111.3 -11.5 -112.2 -11.65 L-113.3 -11.65 Q-114.2 -11.65 -114.05 -12.4 L-114.2 -13.9 -111.9 -13.9 -110.35 -19.05 -127.75 -19.05 -129.85 -13.9 Q-130.3 -12.2 -131.8 -12.2 L-133.1 -12.2 -134.7 -6.7 -130.55 -6.7 Q-127.25 -6.5 -126.35 -8.8 L-124.0 -13.7 -121.95 -13.7 M-86.15 -13.9 L-87.65 -8.65 -83.85 -8.65 Q-82.0 -8.65 -80.95 -9.15 -80.2 -9.55 -78.95 -11.3 L-73.15 -18.85 -79.25 -18.85 -82.35 -15.05 Q-83.3 -13.7 -85.05 -13.9 L-86.15 -13.9 M-62.95 -15.65 L-73.55 -15.65 -75.0 -10.55 -64.4 -10.55 -65.95 -5.2 -77.5 -5.2 -78.95 -0.35 -49.55 -0.35 -48.1 -5.2 -60.0 -5.2 -58.45 -10.55 -47.3 -10.55 -45.85 -15.65 -57.0 -15.65 -55.95 -19.05 -61.95 -19.05 -62.95 -15.65 M-73.8 18.7 L-68.05 10.05 -74.55 10.05 -78.35 15.65 Q-79.3 17.25 -80.75 17.05 L-84.2 17.05 -85.55 21.75 -79.95 21.75 Q-75.6 21.75 -73.8 18.7 M-98.0 9.5 L-101.4 9.5 -100.9 7.95 -107.85 7.95 -108.3 9.5 -139.05 9.5 -140.55 14.75 -110.0 14.75 -110.45 16.3 Q-110.8 17.4 -112.0 17.4 L-121.0 17.4 -122.4 22.3 -108.9 22.3 Q-105.3 22.3 -104.2 18.55 L-103.1 14.75 -99.5 14.75 -98.0 9.5 M-130.35 22.3 Q-127.05 22.65 -124.7 19.65 L-121.4 15.65 -129.7 15.65 -130.9 16.9 Q-131.45 17.4 -132.55 17.4 L-140.45 17.4 -141.85 22.3 -130.35 22.3 M129.0 17.6 L133.35 2.5 108.85 2.5 103.1 22.3 122.75 22.3 Q127.9 22.65 129.0 17.6 M123.65 16.05 Q123.3 17.25 122.1 17.25 L110.9 17.25 113.6 7.75 126.05 7.75 123.65 16.05" fill="none" stroke="#43484e" stroke-linecap="butt" stroke-linejoin="miter-clip" stroke-miterlimit="3.0" stroke-width="8.0"/>
    <path d="M-5.1 1.4 L-1.7 -10.3 -0.4 -10.3 1.35 -16.35 0.05 -16.35 0.75 -18.65 -5.9 -18.65 -6.55 -16.35 -17.7 -16.35 -19.45 -10.3 -8.3 -10.3 -11.75 1.4 -5.1 1.4 -10.0 18.15 Q-10.95 22.65 -14.2 22.15 L-23.4 22.15 -22.05 17.4 -17.0 17.4 Q-16.4 17.4 -16.25 16.9 L-11.75 1.4 M31.05 1.4 L31.65 -0.7 41.7 -0.7 43.3 -6.15 33.25 -6.15 34.85 -11.65 41.1 -11.65 Q45.25 -11.65 46.05 -14.4 L47.35 -18.85 40.7 -18.85 40.5 -18.2 Q40.2 -17.65 39.2 -17.45 L6.8 -17.45 5.1 -11.65 27.8 -11.65 26.2 -6.15 3.15 -6.15 1.55 -0.7 24.6 -0.7 23.95 1.4 31.05 1.4 30.25 4.2 40.3 4.2 38.75 9.3 28.75 9.3 26.5 16.9 Q24.75 21.2 20.05 21.75 L-3.85 21.75 -2.4 16.7 18.3 16.7 Q19.65 16.9 19.85 15.5 L21.65 9.3 -1.95 9.3 -0.4 4.2 23.15 4.2 23.95 1.4 M86.25 1.4 Q87.8 0.05 88.75 -2.2 L93.15 -17.45 86.35 -17.45 82.45 -3.95 Q81.9 -1.8 80.0 -2.0 L72.25 -2.0 77.35 -19.4 70.7 -19.4 65.65 -2.0 56.45 -2.0 60.95 -17.45 54.15 -17.45 48.65 1.4 86.25 1.4 Q84.3 3.05 81.45 3.45 L70.7 3.45 66.85 16.5 74.6 16.5 Q76.7 16.7 77.0 14.75 L79.55 5.95 86.15 5.95 82.75 17.6 Q81.35 21.75 75.7 21.95 L42.45 21.95 47.15 5.95 54.15 5.95 51.05 16.5 60.25 16.5 64.05 3.45 48.05 3.45 48.65 1.4 M106.75 1.4 L107.8 -2.2 109.55 -2.2 111.05 -7.35 109.45 -7.35 110.35 -10.3 112.3 -10.3 113.7 -15.25 111.75 -15.25 112.8 -18.65 106.8 -18.65 105.85 -15.45 98.1 -15.45 96.6 -10.3 104.35 -10.3 103.1 -5.95 97.75 1.4 106.75 1.4 101.95 17.8 Q100.9 21.95 96.1 21.75 L88.55 21.75 89.9 17.05 95.15 17.05 Q96.55 17.05 96.8 15.65 L99.35 6.85 96.2 11.7 Q94.75 14.05 92.65 14.05 L89.3 14.05 91.0 8.3 92.1 8.3 Q92.8 8.5 93.55 7.2 L97.75 1.4 M-112.75 1.4 L-112.35 0.05 -96.0 0.05 -94.6 -4.65 -111.0 -4.65 -110.6 -5.95 -117.6 -5.95 -118.0 -4.65 -134.4 -4.65 -135.75 0.05 -119.55 0.05 -119.95 1.4 -112.75 1.4 -112.9 1.95 -95.8 1.95 -97.25 7.05 -138.3 7.05 -136.85 1.95 -120.1 1.95 -119.95 1.4 M-82.3 1.4 L-81.7 -0.55 -76.25 -8.25 -82.5 -8.25 -85.25 -4.5 Q-85.75 -3.4 -87.85 -3.55 L-89.3 -3.55 -90.75 1.4 -88.0 1.4 -82.3 1.4 -88.2 21.75 -93.95 21.75 -88.0 1.4 M-29.25 1.4 L-21.0 -10.75 -18.9 -18.0 -38.3 -18.0 -40.05 -12.2 -26.7 -12.2 -33.6 -2.0 -33.95 -9.0 -40.4 -9.0 -40.0 1.4 -29.25 1.4 -32.65 6.45 -32.1 16.9 Q-32.1 17.6 -31.2 17.6 L-28.9 17.6 -30.2 22.15 -35.45 22.15 Q-38.55 22.3 -38.35 20.3 L-38.55 13.85 -43.35 20.0 Q-44.65 21.75 -46.65 21.55 L-51.2 21.55 -49.9 17.25 -48.4 17.25 Q-47.7 17.25 -47.35 16.7 L-39.85 6.45 -40.0 1.4 M-14.15 1.4 L-10.5 -6.15 -16.45 -6.15 -20.35 1.4 -14.15 1.4 -18.8 10.8 Q-20.05 13.1 -22.35 13.1 L-27.8 13.1 -26.25 7.75 -24.3 7.75 Q-23.55 7.75 -23.4 7.2 L-20.35 1.4 M-60.0 1.4 L-60.55 3.25 -79.95 3.25 -81.5 8.5 -62.05 8.5 -64.15 15.65 Q-64.35 17.6 -65.95 17.25 L-69.95 17.25 -71.35 21.95 -65.1 21.95 Q-59.3 22.15 -57.9 16.7 L-55.5 8.5 -52.3 8.5 -50.75 3.25 -54.0 3.25 -53.45 1.4 -60.0 1.4 -59.9 1.05 -53.35 1.05 -53.45 1.4" fill="none" stroke="#43484e" stroke-linecap="round" stroke-linejoin="miter-clip" stroke-miterlimit="3.0" stroke-width="8.0"/>
    <path d="M-11.45 1.4 L-8.05 -10.3 -19.2 -10.3 -17.45 -16.35 -6.3 -16.35 -5.6 -18.65 1.0 -18.65 0.3 -16.35 1.6 -16.35 -0.15 -10.3 -1.45 -10.3 -4.85 1.4 -11.45 1.4 M24.25 1.4 L24.85 -0.7 1.85 -0.7 3.45 -6.15 26.45 -6.15 28.05 -11.65 5.4 -11.65 7.05 -17.45 39.45 -17.45 Q40.5 -17.65 40.8 -18.2 L40.95 -18.85 47.65 -18.85 46.35 -14.4 Q45.55 -11.65 41.4 -11.65 L35.1 -11.65 33.5 -6.15 43.55 -6.15 41.95 -0.7 31.9 -0.7 31.3 1.4 24.25 1.4 M48.9 1.4 L54.4 -17.45 61.2 -17.45 56.7 -2.0 65.9 -2.0 71.0 -19.4 77.6 -19.4 72.55 -2.0 80.25 -2.0 Q82.15 -1.8 82.7 -3.95 L86.6 -17.45 93.4 -17.45 89.0 -2.2 Q88.05 0.05 86.5 1.4 L48.9 1.4 M98.0 1.4 L103.35 -5.95 104.65 -10.3 96.9 -10.3 98.35 -15.45 106.1 -15.45 107.05 -18.65 113.05 -18.65 112.0 -15.25 113.95 -15.25 112.55 -10.3 110.6 -10.3 109.75 -7.35 111.3 -7.35 109.8 -2.2 108.05 -2.2 107.0 1.4 98.0 1.4 M-121.7 -13.7 L-123.75 -13.7 -126.1 -8.8 Q-126.95 -6.5 -130.3 -6.7 L-134.45 -6.7 -132.85 -12.2 -131.55 -12.2 Q-130.05 -12.2 -129.55 -13.9 L-127.5 -19.05 -110.1 -19.05 -111.6 -13.9 -113.95 -13.9 -113.8 -12.4 Q-113.95 -11.65 -113.0 -11.65 L-111.9 -11.65 Q-111.05 -11.5 -110.45 -12.75 L-107.7 -18.85 -89.45 -18.85 -90.95 -13.7 -93.7 -13.7 -93.55 -12.4 Q-93.6 -11.65 -92.95 -11.85 L-91.5 -11.85 -92.95 -6.8 -99.3 -6.8 Q-101.45 -6.7 -101.25 -8.8 L-101.45 -13.7 -103.2 -13.7 -105.6 -9.35 Q-106.85 -6.8 -109.5 -6.95 L-118.7 -6.95 Q-121.25 -6.8 -121.1 -8.65 L-121.7 -13.7 M114.2 -12.75 L115.7 -18.0 139.8 -18.0 135.6 -3.55 Q134.65 0.95 130.2 0.75 L121.9 0.75 123.4 -4.3 128.95 -4.3 Q129.85 -4.3 130.3 -5.95 L132.35 -12.75 123.6 -12.75 119.8 -3.0 Q118.05 0.95 113.75 0.95 L109.75 0.95 111.35 -4.3 112.8 -4.3 Q113.85 -4.3 114.1 -5.2 L117.05 -12.75 114.2 -12.75 M-119.65 1.4 L-119.3 0.05 -135.5 0.05 -134.1 -4.65 -117.75 -4.65 -117.35 -5.95 -110.35 -5.95 -110.75 -4.65 -94.35 -4.65 -95.7 0.05 -112.1 0.05 -112.5 1.4 -119.65 1.4 M-84.75 -13.9 Q-83.05 -13.7 -82.1 -15.05 L-79.0 -18.85 -72.9 -18.85 -78.65 -11.3 Q-79.95 -9.55 -80.7 -9.15 -81.75 -8.65 -83.6 -8.65 L-87.4 -8.65 -85.85 -13.9 -84.75 -13.9 M-87.75 1.4 L-90.45 1.4 -89.0 -3.55 -87.55 -3.55 Q-85.5 -3.4 -85.0 -4.5 L-82.25 -8.25 -75.95 -8.25 -81.45 -0.55 -82.0 1.4 -87.75 1.4 M-62.7 -15.65 L-61.65 -19.05 -55.7 -19.05 -56.75 -15.65 -45.6 -15.65 -47.05 -10.55 -58.15 -10.55 -59.75 -5.2 -47.85 -5.2 -49.25 -0.35 -78.65 -0.35 -77.25 -5.2 -65.7 -5.2 -64.15 -10.55 -74.7 -10.55 -73.25 -15.65 -62.7 -15.65 M-39.75 1.4 L-40.1 -9.0 -33.7 -9.0 -33.35 -2.0 -26.4 -12.2 -39.75 -12.2 -38.05 -18.0 -18.6 -18.0 -20.75 -10.75 -28.95 1.4 -39.75 1.4 M-20.1 1.4 L-16.2 -6.15 -10.2 -6.15 -13.9 1.4 -20.1 1.4" fill="url(#gradient2)" fill-rule="evenodd" stroke="none"/>
    <path d="M-11.45 1.4 L-4.85 1.4 -9.7 18.15 Q-10.65 22.65 -13.95 22.15 L-23.15 22.15 -21.8 17.4 -16.7 17.4 Q-16.15 17.4 -16.0 16.9 L-11.45 1.4 M24.25 1.4 L31.3 1.4 30.5 4.2 40.55 4.2 39.05 9.3 29.0 9.3 26.8 16.9 Q25.0 21.2 20.3 21.75 L-3.6 21.75 -2.1 16.7 18.55 16.7 Q19.9 16.9 20.15 15.5 L21.9 9.3 -1.65 9.3 -0.15 4.2 23.45 4.2 24.25 1.4 M48.9 1.4 L86.5 1.4 Q84.55 3.05 81.7 3.45 L70.95 3.45 67.15 16.5 74.85 16.5 Q76.95 16.7 77.25 14.75 L79.8 5.95 86.4 5.95 83.05 17.6 Q81.65 21.75 75.95 21.95 L42.7 21.95 47.4 5.95 54.4 5.95 51.3 16.5 60.5 16.5 64.35 3.45 48.3 3.45 48.9 1.4 M98.0 1.4 L107.0 1.4 102.2 17.8 Q101.2 21.95 96.4 21.75 L88.8 21.75 90.2 17.05 95.45 17.05 Q96.8 17.05 97.05 15.65 L99.6 6.85 96.45 11.7 Q95.0 14.05 92.95 14.05 L89.6 14.05 91.25 8.3 92.35 8.3 Q93.1 8.5 93.8 7.2 L98.0 1.4 M-119.65 1.4 L-112.5 1.4 -112.65 1.95 -95.5 1.95 -97.0 7.05 -138.05 7.05 -136.55 1.95 -119.8 1.95 -119.65 1.4 M-87.75 1.4 L-82.0 1.4 -87.95 21.75 -93.65 21.75 -87.75 1.4 M-39.75 1.4 L-28.95 1.4 -32.4 6.45 -31.85 16.9 Q-31.85 17.6 -30.95 17.6 L-28.6 17.6 -29.95 22.15 -35.2 22.15 Q-38.3 22.3 -38.1 20.3 L-38.3 13.85 -43.1 20.0 Q-44.4 21.75 -46.4 21.55 L-50.9 21.55 -49.6 17.25 -48.15 17.25 Q-47.4 17.25 -47.05 16.7 L-39.6 6.45 -39.75 1.4 M-20.1 1.4 L-13.9 1.4 -18.55 10.8 Q-19.8 13.1 -22.1 13.1 L-27.5 13.1 -25.95 7.75 -24.0 7.75 Q-23.3 7.75 -23.1 7.2 L-20.1 1.4 M-53.2 1.4 L-53.7 3.25 -50.5 3.25 -52.0 8.5 -55.25 8.5 -57.65 16.7 Q-59.05 22.15 -64.85 21.95 L-71.05 21.95 -69.65 17.25 -65.7 17.25 Q-64.05 17.6 -63.9 15.65 L-61.8 8.5 -81.2 8.5 -79.7 3.25 -60.25 3.25 -59.75 1.4 -53.2 1.4 M123.9 16.05 L126.3 7.75 113.9 7.75 111.15 17.25 122.35 17.25 Q123.6 17.25 123.9 16.05 M129.25 17.6 Q128.15 22.65 123.0 22.3 L103.4 22.3 109.15 2.5 133.6 2.5 129.25 17.6 M-130.1 22.3 L-141.6 22.3 -140.15 17.4 -132.25 17.4 Q-131.15 17.4 -130.6 16.9 L-129.45 15.65 -121.15 15.65 -124.45 19.65 Q-126.8 22.65 -130.1 22.3 M-100.65 7.95 L-101.1 9.5 -97.75 9.5 -99.25 14.75 -102.8 14.75 -103.95 18.55 Q-105.05 22.3 -108.65 22.3 L-122.15 22.3 -120.75 17.4 -111.7 17.4 Q-110.55 17.4 -110.2 16.3 L-109.75 14.75 -140.3 14.75 -138.75 9.5 -108.05 9.5 -107.6 7.95 -100.65 7.95 M-73.55 18.7 Q-75.35 21.75 -79.65 21.75 L-85.3 21.75 -83.9 17.05 -80.5 17.05 Q-79.05 17.25 -78.05 15.65 L-74.3 10.05 -67.75 10.05 -73.55 18.7" fill="url(#gradient3)" fill-rule="evenodd" stroke="none"/>
    <path d="M-53.2 1.4 L-59.75 1.4 -59.6 1.05 -53.1 1.05 -53.2 1.4" fill="#b89898" fill-rule="evenodd" stroke="none"/>
    <path d="M114.2 -12.75 L117.05 -12.75 114.1 -5.2 Q113.85 -4.3 112.8 -4.3 L111.35 -4.3 109.75 0.95 113.75 0.95 Q118.05 0.95 119.8 -3.0 L123.6 -12.75 132.35 -12.75 130.3 -5.95 Q129.85 -4.3 128.95 -4.3 L123.4 -4.3 121.9 0.75 130.2 0.75 Q134.65 0.95 135.6 -3.55 L139.8 -18.0 115.7 -18.0 114.2 -12.75 M-121.7 -13.7 L-121.1 -8.65 Q-121.25 -6.8 -118.7 -6.95 L-109.5 -6.95 Q-106.85 -6.8 -105.6 -9.35 L-103.2 -13.7 -101.45 -13.7 -101.25 -8.8 Q-101.45 -6.7 -99.3 -6.8 L-92.95 -6.8 -91.5 -11.85 -92.95 -11.85 Q-93.6 -11.65 -93.55 -12.4 L-93.7 -13.7 -90.95 -13.7 -89.45 -18.85 -107.7 -18.85 -110.45 -12.75 Q-111.05 -11.5 -111.9 -11.65 L-113.0 -11.65 Q-113.95 -11.65 -113.8 -12.4 L-113.95 -13.9 -111.6 -13.9 -110.1 -19.05 -127.5 -19.05 -129.55 -13.9 Q-130.05 -12.2 -131.55 -12.2 L-132.85 -12.2 -134.45 -6.7 -130.3 -6.7 Q-126.95 -6.5 -126.1 -8.8 L-123.75 -13.7 -121.7 -13.7 M-84.75 -13.9 L-85.85 -13.9 -87.4 -8.65 -83.6 -8.65 Q-81.75 -8.65 -80.7 -9.15 -79.95 -9.55 -78.65 -11.3 L-72.9 -18.85 -79.0 -18.85 -82.1 -15.05 Q-83.05 -13.7 -84.75 -13.9 M-62.7 -15.65 L-73.25 -15.65 -74.7 -10.55 -64.15 -10.55 -65.7 -5.2 -77.25 -5.2 -78.65 -0.35 -49.25 -0.35 -47.85 -5.2 -59.75 -5.2 -58.15 -10.55 -47.05 -10.55 -45.6 -15.65 -56.75 -15.65 -55.7 -19.05 -61.65 -19.05 -62.7 -15.65 M-73.55 18.7 L-67.75 10.05 -74.3 10.05 -78.05 15.65 Q-79.05 17.25 -80.5 17.05 L-83.9 17.05 -85.3 21.75 -79.65 21.75 Q-75.35 21.75 -73.55 18.7 M-100.65 7.95 L-107.6 7.95 -108.05 9.5 -138.75 9.5 -140.3 14.75 -109.75 14.75 -110.2 16.3 Q-110.55 17.4 -111.7 17.4 L-120.75 17.4 -122.15 22.3 -108.65 22.3 Q-105.05 22.3 -103.95 18.55 L-102.8 14.75 -99.25 14.75 -97.75 9.5 -101.1 9.5 -100.65 7.95 M-130.1 22.3 Q-126.8 22.65 -124.45 19.65 L-121.15 15.65 -129.45 15.65 -130.6 16.9 Q-131.15 17.4 -132.25 17.4 L-140.15 17.4 -141.6 22.3 -130.1 22.3 M129.25 17.6 L133.6 2.5 109.15 2.5 103.4 22.3 123.0 22.3 Q128.15 22.65 129.25 17.6 M123.9 16.05 Q123.6 17.25 122.35 17.25 L111.15 17.25 113.9 7.75 126.3 7.75 123.9 16.05" fill="none" stroke="#003366" stroke-linecap="butt" stroke-linejoin="miter-clip" stroke-miterlimit="3.0" stroke-width="6.0"/>
    <path d="M-4.85 1.4 L-1.45 -10.3 -0.15 -10.3 1.6 -16.35 0.3 -16.35 1.0 -18.65 -5.6 -18.65 -6.3 -16.35 -17.45 -16.35 -19.2 -10.3 -8.05 -10.3 -11.45 1.4 -4.85 1.4 -9.7 18.15 Q-10.65 22.65 -13.95 22.15 L-23.15 22.15 -21.8 17.4 -16.7 17.4 Q-16.15 17.4 -16.0 16.9 L-11.45 1.4 M31.3 1.4 L31.9 -0.7 41.95 -0.7 43.55 -6.15 33.5 -6.15 35.1 -11.65 41.4 -11.65 Q45.55 -11.65 46.35 -14.4 L47.65 -18.85 40.95 -18.85 40.8 -18.2 Q40.5 -17.65 39.45 -17.45 L7.05 -17.45 5.4 -11.65 28.05 -11.65 26.45 -6.15 3.45 -6.15 1.85 -0.7 24.85 -0.7 24.25 1.4 31.3 1.4 30.5 4.2 40.55 4.2 39.05 9.3 29.0 9.3 26.8 16.9 Q25.0 21.2 20.3 21.75 L-3.6 21.75 -2.1 16.7 18.55 16.7 Q19.9 16.9 20.15 15.5 L21.9 9.3 -1.65 9.3 -0.15 4.2 23.45 4.2 24.25 1.4 M86.5 1.4 Q88.05 0.05 89.0 -2.2 L93.4 -17.45 86.6 -17.45 82.7 -3.95 Q82.15 -1.8 80.25 -2.0 L72.55 -2.0 77.6 -19.4 71.0 -19.4 65.9 -2.0 56.7 -2.0 61.2 -17.45 54.4 -17.45 48.9 1.4 86.5 1.4 Q84.55 3.05 81.7 3.45 L70.95 3.45 67.15 16.5 74.85 16.5 Q76.95 16.7 77.25 14.75 L79.8 5.95 86.4 5.95 83.05 17.6 Q81.65 21.75 75.95 21.95 L42.7 21.95 47.4 5.95 54.4 5.95 51.3 16.5 60.5 16.5 64.35 3.45 48.3 3.45 48.9 1.4 M107.0 1.4 L108.05 -2.2 109.8 -2.2 111.3 -7.35 109.75 -7.35 110.6 -10.3 112.55 -10.3 113.95 -15.25 112.0 -15.25 113.05 -18.65 107.05 -18.65 106.1 -15.45 98.35 -15.45 96.9 -10.3 104.65 -10.3 103.35 -5.95 98.0 1.4 107.0 1.4 102.2 17.8 Q101.2 21.95 96.4 21.75 L88.8 21.75 90.2 17.05 95.45 17.05 Q96.8 17.05 97.05 15.65 L99.6 6.85 96.45 11.7 Q95.0 14.05 92.95 14.05 L89.6 14.05 91.25 8.3 92.35 8.3 Q93.1 8.5 93.8 7.2 L98.0 1.4 M-112.5 1.4 L-112.1 0.05 -95.7 0.05 -94.35 -4.65 -110.75 -4.65 -110.35 -5.95 -117.35 -5.95 -117.75 -4.65 -134.1 -4.65 -135.5 0.05 -119.3 0.05 -119.65 1.4 -112.5 1.4 -112.65 1.95 -95.5 1.95 -97.0 7.05 -138.05 7.05 -136.55 1.95 -119.8 1.95 -119.65 1.4 M-82.0 1.4 L-81.45 -0.55 -75.95 -8.25 -82.25 -8.25 -85.0 -4.5 Q-85.5 -3.4 -87.55 -3.55 L-89.0 -3.55 -90.45 1.4 -87.75 1.4 -82.0 1.4 -87.95 21.75 -93.65 21.75 -87.75 1.4 M-28.95 1.4 L-20.75 -10.75 -18.6 -18.0 -38.05 -18.0 -39.75 -12.2 -26.4 -12.2 -33.35 -2.0 -33.7 -9.0 -40.1 -9.0 -39.75 1.4 -28.95 1.4 -32.4 6.45 -31.85 16.9 Q-31.85 17.6 -30.95 17.6 L-28.6 17.6 -29.95 22.15 -35.2 22.15 Q-38.3 22.3 -38.1 20.3 L-38.3 13.85 -43.1 20.0 Q-44.4 21.75 -46.4 21.55 L-50.9 21.55 -49.6 17.25 -48.15 17.25 Q-47.4 17.25 -47.05 16.7 L-39.6 6.45 -39.75 1.4 M-13.9 1.4 L-10.2 -6.15 -16.2 -6.15 -20.1 1.4 -13.9 1.4 -18.55 10.8 Q-19.8 13.1 -22.1 13.1 L-27.5 13.1 -25.95 7.75 -24.0 7.75 Q-23.3 7.75 -23.1 7.2 L-20.1 1.4 M-59.75 1.4 L-60.25 3.25 -79.7 3.25 -81.2 8.5 -61.8 8.5 -63.9 15.65 Q-64.05 17.6 -65.7 17.25 L-69.65 17.25 -71.05 21.95 -64.85 21.95 Q-59.05 22.15 -57.65 16.7 L-55.25 8.5 -52.0 8.5 -50.5 3.25 -53.7 3.25 -53.2 1.4 -59.75 1.4 -59.6 1.05 -53.1 1.05 -53.2 1.4" fill="none" stroke="#003366" stroke-linecap="round" stroke-linejoin="miter-clip" stroke-miterlimit="3.0" stroke-width="6.0"/>
    <path d="M-11.45 1.4 L-8.05 -10.3 -19.2 -10.3 -17.45 -16.35 -6.3 -16.35 -5.6 -18.65 1.0 -18.65 0.3 -16.35 1.6 -16.35 -0.15 -10.3 -1.45 -10.3 -4.85 1.4 -11.45 1.4 M24.25 1.4 L24.85 -0.7 1.85 -0.7 3.45 -6.15 26.45 -6.15 28.05 -11.65 5.4 -11.65 7.05 -17.45 39.45 -17.45 Q40.5 -17.65 40.8 -18.2 L40.95 -18.85 47.65 -18.85 46.35 -14.4 Q45.55 -11.65 41.4 -11.65 L35.1 -11.65 33.5 -6.15 43.55 -6.15 41.95 -0.7 31.9 -0.7 31.3 1.4 24.25 1.4 M48.9 1.4 L54.4 -17.45 61.2 -17.45 56.7 -2.0 65.9 -2.0 71.0 -19.4 77.6 -19.4 72.55 -2.0 80.25 -2.0 Q82.15 -1.8 82.7 -3.95 L86.6 -17.45 93.4 -17.45 89.0 -2.2 Q88.05 0.05 86.5 1.4 L48.9 1.4 M98.0 1.4 L103.35 -5.95 104.65 -10.3 96.9 -10.3 98.35 -15.45 106.1 -15.45 107.05 -18.65 113.05 -18.65 112.0 -15.25 113.95 -15.25 112.55 -10.3 110.6 -10.3 109.75 -7.35 111.3 -7.35 109.8 -2.2 108.05 -2.2 107.0 1.4 98.0 1.4 M-121.7 -13.7 L-123.75 -13.7 -126.1 -8.8 Q-126.95 -6.5 -130.3 -6.7 L-134.45 -6.7 -132.85 -12.2 -131.55 -12.2 Q-130.05 -12.2 -129.55 -13.9 L-127.5 -19.05 -110.1 -19.05 -111.6 -13.9 -113.95 -13.9 -113.8 -12.4 Q-113.95 -11.65 -113.0 -11.65 L-111.9 -11.65 Q-111.05 -11.5 -110.45 -12.75 L-107.7 -18.85 -89.45 -18.85 -90.95 -13.7 -93.7 -13.7 -93.55 -12.4 Q-93.6 -11.65 -92.95 -11.85 L-91.5 -11.85 -92.95 -6.8 -99.3 -6.8 Q-101.45 -6.7 -101.25 -8.8 L-101.45 -13.7 -103.2 -13.7 -105.6 -9.35 Q-106.85 -6.8 -109.5 -6.95 L-118.7 -6.95 Q-121.25 -6.8 -121.1 -8.65 L-121.7 -13.7 M114.2 -12.75 L115.7 -18.0 139.8 -18.0 135.6 -3.55 Q134.65 0.95 130.2 0.75 L121.9 0.75 123.4 -4.3 128.95 -4.3 Q129.85 -4.3 130.3 -5.95 L132.35 -12.75 123.6 -12.75 119.8 -3.0 Q118.05 0.95 113.75 0.95 L109.75 0.95 111.35 -4.3 112.8 -4.3 Q113.85 -4.3 114.1 -5.2 L117.05 -12.75 114.2 -12.75 M-119.65 1.4 L-119.3 0.05 -135.5 0.05 -134.1 -4.65 -117.75 -4.65 -117.35 -5.95 -110.35 -5.95 -110.75 -4.65 -94.35 -4.65 -95.7 0.05 -112.1 0.05 -112.5 1.4 -119.65 1.4 M-84.75 -13.9 Q-83.05 -13.7 -82.1 -15.05 L-79.0 -18.85 -72.9 -18.85 -78.65 -11.3 Q-79.95 -9.55 -80.7 -9.15 -81.75 -8.65 -83.6 -8.65 L-87.4 -8.65 -85.85 -13.9 -84.75 -13.9 M-87.75 1.4 L-90.45 1.4 -89.0 -3.55 -87.55 -3.55 Q-85.5 -3.4 -85.0 -4.5 L-82.25 -8.25 -75.95 -8.25 -81.45 -0.55 -82.0 1.4 -87.75 1.4 M-62.7 -15.65 L-61.65 -19.05 -55.7 -19.05 -56.75 -15.65 -45.6 -15.65 -47.05 -10.55 -58.15 -10.55 -59.75 -5.2 -47.85 -5.2 -49.25 -0.35 -78.65 -0.35 -77.25 -5.2 -65.7 -5.2 -64.15 -10.55 -74.7 -10.55 -73.25 -15.65 -62.7 -15.65 M-39.75 1.4 L-40.1 -9.0 -33.7 -9.0 -33.35 -2.0 -26.4 -12.2 -39.75 -12.2 -38.05 -18.0 -18.6 -18.0 -20.75 -10.75 -28.95 1.4 -39.75 1.4 M-20.1 1.4 L-16.2 -6.15 -10.2 -6.15 -13.9 1.4 -20.1 1.4" fill="url(#gradient4)" fill-rule="evenodd" stroke="none"/>
    <path d="M-11.45 1.4 L-4.85 1.4 -9.7 18.15 Q-10.65 22.65 -13.95 22.15 L-23.15 22.15 -21.8 17.4 -16.7 17.4 Q-16.15 17.4 -16.0 16.9 L-11.45 1.4 M24.25 1.4 L31.3 1.4 30.5 4.2 40.55 4.2 39.05 9.3 29.0 9.3 26.8 16.9 Q25.0 21.2 20.3 21.75 L-3.6 21.75 -2.1 16.7 18.55 16.7 Q19.9 16.9 20.15 15.5 L21.9 9.3 -1.65 9.3 -0.15 4.2 23.45 4.2 24.25 1.4 M48.9 1.4 L86.5 1.4 Q84.55 3.05 81.7 3.45 L70.95 3.45 67.15 16.5 74.85 16.5 Q76.95 16.7 77.25 14.75 L79.8 5.95 86.4 5.95 83.05 17.6 Q81.65 21.75 75.95 21.95 L42.7 21.95 47.4 5.95 54.4 5.95 51.3 16.5 60.5 16.5 64.35 3.45 48.3 3.45 48.9 1.4 M98.0 1.4 L107.0 1.4 102.2 17.8 Q101.2 21.95 96.4 21.75 L88.8 21.75 90.2 17.05 95.45 17.05 Q96.8 17.05 97.05 15.65 L99.6 6.85 96.45 11.7 Q95.0 14.05 92.95 14.05 L89.6 14.05 91.25 8.3 92.35 8.3 Q93.1 8.5 93.8 7.2 L98.0 1.4 M-119.65 1.4 L-112.5 1.4 -112.65 1.95 -95.5 1.95 -97.0 7.05 -138.05 7.05 -136.55 1.95 -119.8 1.95 -119.65 1.4 M-87.75 1.4 L-82.0 1.4 -87.95 21.75 -93.65 21.75 -87.75 1.4 M-39.75 1.4 L-28.95 1.4 -32.4 6.45 -31.85 16.9 Q-31.85 17.6 -30.95 17.6 L-28.6 17.6 -29.95 22.15 -35.2 22.15 Q-38.3 22.3 -38.1 20.3 L-38.3 13.85 -43.1 20.0 Q-44.4 21.75 -46.4 21.55 L-50.9 21.55 -49.6 17.25 -48.15 17.25 Q-47.4 17.25 -47.05 16.7 L-39.6 6.45 -39.75 1.4 M-20.1 1.4 L-13.9 1.4 -18.55 10.8 Q-19.8 13.1 -22.1 13.1 L-27.5 13.1 -25.95 7.75 -24.0 7.75 Q-23.3 7.75 -23.1 7.2 L-20.1 1.4 M-53.2 1.4 L-53.7 3.25 -50.5 3.25 -52.0 8.5 -55.25 8.5 -57.65 16.7 Q-59.05 22.15 -64.85 21.95 L-71.05 21.95 -69.65 17.25 -65.7 17.25 Q-64.05 17.6 -63.9 15.65 L-61.8 8.5 -81.2 8.5 -79.7 3.25 -60.25 3.25 -59.75 1.4 -53.2 1.4 M123.9 16.05 L126.3 7.75 113.9 7.75 111.15 17.25 122.35 17.25 Q123.6 17.25 123.9 16.05 M129.25 17.6 Q128.15 22.65 123.0 22.3 L103.4 22.3 109.15 2.5 133.6 2.5 129.25 17.6 M-130.1 22.3 L-141.6 22.3 -140.15 17.4 -132.25 17.4 Q-131.15 17.4 -130.6 16.9 L-129.45 15.65 -121.15 15.65 -124.45 19.65 Q-126.8 22.65 -130.1 22.3 M-100.65 7.95 L-101.1 9.5 -97.75 9.5 -99.25 14.75 -102.8 14.75 -103.95 18.55 Q-105.05 22.3 -108.65 22.3 L-122.15 22.3 -120.75 17.4 -111.7 17.4 Q-110.55 17.4 -110.2 16.3 L-109.75 14.75 -140.3 14.75 -138.75 9.5 -108.05 9.5 -107.6 7.95 -100.65 7.95 M-73.55 18.7 Q-75.35 21.75 -79.65 21.75 L-85.3 21.75 -83.9 17.05 -80.5 17.05 Q-79.05 17.25 -78.05 15.65 L-74.3 10.05 -67.75 10.05 -73.55 18.7" fill="url(#gradient5)" fill-rule="evenodd" stroke="none"/>
    <path d="M-53.2 1.4 L-59.75 1.4 -59.6 1.05 -53.1 1.05 -53.2 1.4" fill="#b89898" fill-rule="evenodd" stroke="none"/>
    <path d="M114.2 -12.75 L117.05 -12.75 114.1 -5.2 Q113.85 -4.3 112.8 -4.3 L111.35 -4.3 109.75 0.95 113.75 0.95 Q118.05 0.95 119.8 -3.0 L123.6 -12.75 132.35 -12.75 130.3 -5.95 Q129.85 -4.3 128.95 -4.3 L123.4 -4.3 121.9 0.75 130.2 0.75 Q134.65 0.95 135.6 -3.55 L139.8 -18.0 115.7 -18.0 114.2 -12.75 M-121.7 -13.7 L-121.1 -8.65 Q-121.25 -6.8 -118.7 -6.95 L-109.5 -6.95 Q-106.85 -6.8 -105.6 -9.35 L-103.2 -13.7 -101.45 -13.7 -101.25 -8.8 Q-101.45 -6.7 -99.3 -6.8 L-92.95 -6.8 -91.5 -11.85 -92.95 -11.85 Q-93.6 -11.65 -93.55 -12.4 L-93.7 -13.7 -90.95 -13.7 -89.45 -18.85 -107.7 -18.85 -110.45 -12.75 Q-111.05 -11.5 -111.9 -11.65 L-113.0 -11.65 Q-113.95 -11.65 -113.8 -12.4 L-113.95 -13.9 -111.6 -13.9 -110.1 -19.05 -127.5 -19.05 -129.55 -13.9 Q-130.05 -12.2 -131.55 -12.2 L-132.85 -12.2 -134.45 -6.7 -130.3 -6.7 Q-126.95 -6.5 -126.1 -8.8 L-123.75 -13.7 -121.7 -13.7 M-84.75 -13.9 L-85.85 -13.9 -87.4 -8.65 -83.6 -8.65 Q-81.75 -8.65 -80.7 -9.15 -79.95 -9.55 -78.65 -11.3 L-72.9 -18.85 -79.0 -18.85 -82.1 -15.05 Q-83.05 -13.7 -84.75 -13.9 M-62.7 -15.65 L-73.25 -15.65 -74.7 -10.55 -64.15 -10.55 -65.7 -5.2 -77.25 -5.2 -78.65 -0.35 -49.25 -0.35 -47.85 -5.2 -59.75 -5.2 -58.15 -10.55 -47.05 -10.55 -45.6 -15.65 -56.75 -15.65 -55.7 -19.05 -61.65 -19.05 -62.7 -15.65 M-73.55 18.7 L-67.75 10.05 -74.3 10.05 -78.05 15.65 Q-79.05 17.25 -80.5 17.05 L-83.9 17.05 -85.3 21.75 -79.65 21.75 Q-75.35 21.75 -73.55 18.7 M-100.65 7.95 L-107.6 7.95 -108.05 9.5 -138.75 9.5 -140.3 14.75 -109.75 14.75 -110.2 16.3 Q-110.55 17.4 -111.7 17.4 L-120.75 17.4 -122.15 22.3 -108.65 22.3 Q-105.05 22.3 -103.95 18.55 L-102.8 14.75 -99.25 14.75 -97.75 9.5 -101.1 9.5 -100.65 7.95 M-130.1 22.3 Q-126.8 22.65 -124.45 19.65 L-121.15 15.65 -129.45 15.65 -130.6 16.9 Q-131.15 17.4 -132.25 17.4 L-140.15 17.4 -141.6 22.3 -130.1 22.3 M129.25 17.6 L133.6 2.5 109.15 2.5 103.4 22.3 123.0 22.3 Q128.15 22.65 129.25 17.6 M123.9 16.05 Q123.6 17.25 122.35 17.25 L111.15 17.25 113.9 7.75 126.3 7.75 123.9 16.05" fill="none" stroke="#3399cc" stroke-linecap="butt" stroke-linejoin="miter-clip" stroke-miterlimit="3.0" stroke-width="4.0"/>
    <path d="M-4.85 1.4 L-1.45 -10.3 -0.15 -10.3 1.6 -16.35 0.3 -16.35 1.0 -18.65 -5.6 -18.65 -6.3 -16.35 -17.45 -16.35 -19.2 -10.3 -8.05 -10.3 -11.45 1.4 -4.85 1.4 -9.7 18.15 Q-10.65 22.65 -13.95 22.15 L-23.15 22.15 -21.8 17.4 -16.7 17.4 Q-16.15 17.4 -16.0 16.9 L-11.45 1.4 M31.3 1.4 L31.9 -0.7 41.95 -0.7 43.55 -6.15 33.5 -6.15 35.1 -11.65 41.4 -11.65 Q45.55 -11.65 46.35 -14.4 L47.65 -18.85 40.95 -18.85 40.8 -18.2 Q40.5 -17.65 39.45 -17.45 L7.05 -17.45 5.4 -11.65 28.05 -11.65 26.45 -6.15 3.45 -6.15 1.85 -0.7 24.85 -0.7 24.25 1.4 31.3 1.4 30.5 4.2 40.55 4.2 39.05 9.3 29.0 9.3 26.8 16.9 Q25.0 21.2 20.3 21.75 L-3.6 21.75 -2.1 16.7 18.55 16.7 Q19.9 16.9 20.15 15.5 L21.9 9.3 -1.65 9.3 -0.15 4.2 23.45 4.2 24.25 1.4 M86.5 1.4 Q88.05 0.05 89.0 -2.2 L93.4 -17.45 86.6 -17.45 82.7 -3.95 Q82.15 -1.8 80.25 -2.0 L72.55 -2.0 77.6 -19.4 71.0 -19.4 65.9 -2.0 56.7 -2.0 61.2 -17.45 54.4 -17.45 48.9 1.4 86.5 1.4 Q84.55 3.05 81.7 3.45 L70.95 3.45 67.15 16.5 74.85 16.5 Q76.95 16.7 77.25 14.75 L79.8 5.95 86.4 5.95 83.05 17.6 Q81.65 21.75 75.95 21.95 L42.7 21.95 47.4 5.95 54.4 5.95 51.3 16.5 60.5 16.5 64.35 3.45 48.3 3.45 48.9 1.4 M107.0 1.4 L108.05 -2.2 109.8 -2.2 111.3 -7.35 109.75 -7.35 110.6 -10.3 112.55 -10.3 113.95 -15.25 112.0 -15.25 113.05 -18.65 107.05 -18.65 106.1 -15.45 98.35 -15.45 96.9 -10.3 104.65 -10.3 103.35 -5.95 98.0 1.4 107.0 1.4 102.2 17.8 Q101.2 21.95 96.4 21.75 L88.8 21.75 90.2 17.05 95.45 17.05 Q96.8 17.05 97.05 15.65 L99.6 6.85 96.45 11.7 Q95.0 14.05 92.95 14.05 L89.6 14.05 91.25 8.3 92.35 8.3 Q93.1 8.5 93.8 7.2 L98.0 1.4 M-112.5 1.4 L-112.1 0.05 -95.7 0.05 -94.35 -4.65 -110.75 -4.65 -110.35 -5.95 -117.35 -5.95 -117.75 -4.65 -134.1 -4.65 -135.5 0.05 -119.3 0.05 -119.65 1.4 -112.5 1.4 -112.65 1.95 -95.5 1.95 -97.0 7.05 -138.05 7.05 -136.55 1.95 -119.8 1.95 -119.65 1.4 M-82.0 1.4 L-81.45 -0.55 -75.95 -8.25 -82.25 -8.25 -85.0 -4.5 Q-85.5 -3.4 -87.55 -3.55 L-89.0 -3.55 -90.45 1.4 -87.75 1.4 -82.0 1.4 -87.95 21.75 -93.65 21.75 -87.75 1.4 M-28.95 1.4 L-20.75 -10.75 -18.6 -18.0 -38.05 -18.0 -39.75 -12.2 -26.4 -12.2 -33.35 -2.0 -33.7 -9.0 -40.1 -9.0 -39.75 1.4 -28.95 1.4 -32.4 6.45 -31.85 16.9 Q-31.85 17.6 -30.95 17.6 L-28.6 17.6 -29.95 22.15 -35.2 22.15 Q-38.3 22.3 -38.1 20.3 L-38.3 13.85 -43.1 20.0 Q-44.4 21.75 -46.4 21.55 L-50.9 21.55 -49.6 17.25 -48.15 17.25 Q-47.4 17.25 -47.05 16.7 L-39.6 6.45 -39.75 1.4 M-13.9 1.4 L-10.2 -6.15 -16.2 -6.15 -20.1 1.4 -13.9 1.4 -18.55 10.8 Q-19.8 13.1 -22.1 13.1 L-27.5 13.1 -25.95 7.75 -24.0 7.75 Q-23.3 7.75 -23.1 7.2 L-20.1 1.4 M-59.75 1.4 L-60.25 3.25 -79.7 3.25 -81.2 8.5 -61.8 8.5 -63.9 15.65 Q-64.05 17.6 -65.7 17.25 L-69.65 17.25 -71.05 21.95 -64.85 21.95 Q-59.05 22.15 -57.65 16.7 L-55.25 8.5 -52.0 8.5 -50.5 3.25 -53.7 3.25 -53.2 1.4 -59.75 1.4 -59.6 1.05 -53.1 1.05 -53.2 1.4" fill="none" stroke="#3399cc" stroke-linecap="round" stroke-linejoin="miter-clip" stroke-miterlimit="3.0" stroke-width="4.0"/>
    <path d="M48.9 1.4 L54.4 -17.45 61.2 -17.45 56.7 -2.0 65.9 -2.0 71.0 -19.4 77.6 -19.4 72.55 -2.0 80.25 -2.0 Q82.15 -1.8 82.7 -3.95 L86.6 -17.45 93.4 -17.45 89.0 -2.2 Q88.05 0.05 86.5 1.4 84.55 3.05 81.7 3.45 L70.95 3.45 67.15 16.5 74.85 16.5 Q76.95 16.7 77.25 14.75 L79.8 5.95 86.4 5.95 83.05 17.6 Q81.65 21.75 75.95 21.95 L42.7 21.95 47.4 5.95 54.4 5.95 51.3 16.5 60.5 16.5 64.35 3.45 48.9 3.45 48.9 1.4 M1.85 -0.7 L3.45 -6.15 26.45 -6.15 28.05 -11.65 5.4 -11.65 7.05 -17.45 39.45 -17.45 Q40.5 -17.65 40.8 -18.2 L40.95 -18.85 47.65 -18.85 46.35 -14.4 Q45.55 -11.65 41.4 -11.65 L35.1 -11.65 33.5 -6.15 43.55 -6.15 41.95 -0.7 31.9 -0.7 30.5 4.2 40.55 4.2 39.05 9.3 29.0 9.3 26.8 16.9 Q25.0 21.2 20.3 21.75 L-3.6 21.75 -2.1 16.7 18.55 16.7 Q19.9 16.9 20.15 15.5 L21.9 9.3 -1.65 9.3 -0.15 4.2 23.45 4.2 24.85 -0.7 1.85 -0.7 M0.3 -16.35 L1.6 -16.35 -0.15 -10.3 -1.45 -10.3 -9.7 18.15 Q-10.65 22.65 -13.95 22.15 L-23.15 22.15 -21.8 17.4 -16.7 17.4 Q-16.15 17.4 -16.0 16.9 L-8.05 -10.3 -19.2 -10.3 -17.45 -16.35 -6.3 -16.35 -5.6 -18.65 1.0 -18.65 0.3 -16.35 M-53.2 1.4 L-53.7 3.25 -50.5 3.25 -52.0 8.5 -55.25 8.5 -57.65 16.7 Q-59.05 22.15 -64.85 21.95 L-71.05 21.95 -69.65 17.25 -65.7 17.25 Q-64.05 17.6 -63.9 15.65 L-61.8 8.5 -81.2 8.5 -79.7 3.25 -60.25 3.25 -59.75 1.4 -53.2 1.4 M-16.2 -6.15 L-10.2 -6.15 -18.55 10.8 Q-19.8 13.1 -22.1 13.1 L-27.5 13.1 -25.95 7.75 -24.0 7.75 Q-23.3 7.75 -23.1 7.2 L-16.2 -6.15 M-40.1 -9.0 L-33.7 -9.0 -33.35 -2.0 -26.4 -12.2 -39.75 -12.2 -38.05 -18.0 -18.6 -18.0 -20.75 -10.75 -32.4 6.45 -31.85 16.9 Q-31.85 17.6 -30.95 17.6 L-28.6 17.6 -29.95 22.15 -35.2 22.15 Q-38.3 22.3 -38.1 20.3 L-38.3 13.85 -43.1 20.0 Q-44.4 21.75 -46.4 21.55 L-50.9 21.55 -49.6 17.25 -48.15 17.25 Q-47.4 17.25 -47.05 16.7 L-39.6 6.45 -40.1 -9.0 M-62.7 -15.65 L-61.65 -19.05 -55.7 -19.05 -56.75 -15.65 -45.6 -15.65 -47.05 -10.55 -58.15 -10.55 -59.75 -5.2 -47.85 -5.2 -49.25 -0.35 -78.65 -0.35 -77.25 -5.2 -65.7 -5.2 -64.15 -10.55 -74.7 -10.55 -73.25 -15.65 -62.7 -15.65 M-87.55 -3.55 Q-85.5 -3.4 -85.0 -4.5 L-82.25 -8.25 -75.95 -8.25 -81.45 -0.55 -87.95 21.75 -93.65 21.75 -87.75 1.4 -90.45 1.4 -89.0 -3.55 -87.55 -3.55 M-84.75 -13.9 Q-83.05 -13.7 -82.1 -15.05 L-79.0 -18.85 -72.9 -18.85 -78.65 -11.3 Q-79.95 -9.55 -80.7 -9.15 -81.75 -8.65 -83.6 -8.65 L-87.4 -8.65 -85.85 -13.9 -84.75 -13.9 M-117.75 -4.65 L-117.35 -5.95 -110.35 -5.95 -110.75 -4.65 -94.35 -4.65 -95.7 0.05 -112.1 0.05 -112.65 1.95 -95.5 1.95 -97.0 7.05 -138.05 7.05 -136.55 1.95 -119.8 1.95 -119.3 0.05 -135.5 0.05 -134.1 -4.65 -117.75 -4.65 M-121.7 -13.7 L-123.75 -13.7 -126.1 -8.8 Q-126.95 -6.5 -130.3 -6.7 L-134.45 -6.7 -132.85 -12.2 -131.55 -12.2 Q-130.05 -12.2 -129.55 -13.9 L-127.5 -19.05 -110.1 -19.05 -111.6 -13.9 -113.95 -13.9 -113.8 -12.4 Q-113.95 -11.65 -113.0 -11.65 L-111.9 -11.65 Q-111.05 -11.5 -110.45 -12.75 L-107.7 -18.85 -89.45 -18.85 -90.95 -13.7 -93.7 -13.7 -93.55 -12.4 Q-93.6 -11.65 -92.95 -11.85 L-91.5 -11.85 -92.95 -6.8 -99.3 -6.8 Q-101.45 -6.7 -101.25 -8.8 L-101.45 -13.7 -103.2 -13.7 -105.6 -9.35 Q-106.85 -6.8 -109.5 -6.95 L-118.7 -6.95 Q-121.25 -6.8 -121.1 -8.65 L-121.7 -13.7 M123.9 16.05 L126.3 7.75 113.9 7.75 111.15 17.25 122.35 17.25 Q123.6 17.25 123.9 16.05 M129.25 17.6 Q128.15 22.65 123.0 22.3 L103.4 22.3 109.15 2.5 133.6 2.5 129.25 17.6 M114.2 -12.75 L115.7 -18.0 139.8 -18.0 135.6 -3.55 Q134.65 0.95 130.2 0.75 L121.9 0.75 123.4 -4.3 128.95 -4.3 Q129.85 -4.3 130.3 -5.95 L132.35 -12.75 123.6 -12.75 119.8 -3.0 Q118.05 0.95 113.75 0.95 L109.75 0.95 111.35 -4.3 112.8 -4.3 Q113.85 -4.3 114.1 -5.2 L117.05 -12.75 114.2 -12.75 M96.9 -10.3 L98.35 -15.45 106.1 -15.45 107.05 -18.65 113.05 -18.65 112.0 -15.25 113.95 -15.25 112.55 -10.3 110.6 -10.3 109.75 -7.35 111.3 -7.35 109.8 -2.2 108.05 -2.2 102.2 17.8 Q101.2 21.95 96.4 21.75 L88.8 21.75 90.2 17.05 95.45 17.05 Q96.8 17.05 97.05 15.65 L99.6 6.85 96.45 11.7 Q95.0 14.05 92.95 14.05 L89.6 14.05 91.25 8.3 92.35 8.3 Q93.1 8.5 93.8 7.2 L103.35 -5.95 104.65 -10.3 96.9 -10.3 M-130.1 22.3 L-141.6 22.3 -140.15 17.4 -132.25 17.4 Q-131.15 17.4 -130.6 16.9 L-129.45 15.65 -121.15 15.65 -124.45 19.65 Q-126.8 22.65 -130.1 22.3 M-100.65 7.95 L-101.1 9.5 -97.75 9.5 -99.25 14.75 -102.8 14.75 -103.95 18.55 Q-105.05 22.3 -108.65 22.3 L-122.15 22.3 -120.75 17.4 -111.7 17.4 Q-110.55 17.4 -110.2 16.3 L-109.75 14.75 -140.3 14.75 -138.75 9.5 -108.05 9.5 -107.6 7.95 -100.65 7.95 M-73.55 18.7 Q-75.35 21.75 -79.65 21.75 L-85.3 21.75 -83.9 17.05 -80.5 17.05 Q-79.05 17.25 -78.05 15.65 L-74.3 10.05 -67.75 10.05 -73.55 18.7" fill="url(#gradient6)" fill-rule="evenodd" stroke="none"/>
    <path d="M48.9 1.4 L48.9 3.45 48.3 3.45 48.9 1.4" fill="url(#gradient7)" fill-rule="evenodd" stroke="none"/>
    <path d="M-53.2 1.4 L-59.75 1.4 -59.6 1.05 -53.1 1.05 -53.2 1.4" fill="#b89898" fill-rule="evenodd" stroke="none"/>
  </g>
  <defs>
    <linearGradient gradientTransform="matrix(-0.0048, 0.0166, -0.0263, 0.0, 29.25, -16.1)" gradientUnits="userSpaceOnUse" id="gradient0" spreadMethod="pad" x1="-819.2" x2="819.2">
      <stop offset="0.0" stop-color="#ff9900"/>
      <stop offset="1.0" stop-color="#ffff66"/>
    </linearGradient>
    <linearGradient gradientTransform="matrix(-0.0038, 0.013, -0.0334, 0.0, 25.7, 12.05)" gradientUnits="userSpaceOnUse" id="gradient1" spreadMethod="pad" x1="-819.2" x2="819.2">
      <stop offset="0.0" stop-color="#ff9900"/>
      <stop offset="1.0" stop-color="#ffff66"/>
    </linearGradient>
    <linearGradient gradientTransform="matrix(-0.0048, 0.0166, -0.0263, 0.0, 29.55, -16.1)" gradientUnits="userSpaceOnUse" id="gradient2" spreadMethod="pad" x1="-819.2" x2="819.2">
      <stop offset="0.0" stop-color="#ff9900"/>
      <stop offset="1.0" stop-color="#ffff66"/>
    </linearGradient>
    <linearGradient gradientTransform="matrix(-0.0038, 0.013, -0.0334, 0.0, 26.0, 12.05)" gradientUnits="userSpaceOnUse" id="gradient3" spreadMethod="pad" x1="-819.2" x2="819.2">
      <stop offset="0.0" stop-color="#ff9900"/>
      <stop offset="1.0" stop-color="#ffff66"/>
    </linearGradient>
    <linearGradient gradientTransform="matrix(-0.0048, 0.0166, -0.0263, 0.0, 29.55, -16.1)" gradientUnits="userSpaceOnUse" id="gradient4" spreadMethod="pad" x1="-819.2" x2="819.2">
      <stop offset="0.0" stop-color="#ff9900"/>
      <stop offset="1.0" stop-color="#ffff66"/>
    </linearGradient>
    <linearGradient gradientTransform="matrix(-0.0038, 0.013, -0.0334, 0.0, 26.0, 12.05)" gradientUnits="userSpaceOnUse" id="gradient5" spreadMethod="pad" x1="-819.2" x2="819.2">
      <stop offset="0.0" stop-color="#ff9900"/>
      <stop offset="1.0" stop-color="#ffff66"/>
    </linearGradient>
    <linearGradient gradientTransform="matrix(0.0, -0.0295, 0.7603, -3.0E-4, -127.0, 1.25)" gradientUnits="userSpaceOnUse" id="gradient6" spreadMethod="pad" x1="-819.2" x2="819.2">
      <stop offset="0.00784313725490196" stop-color="#5097d7"/>
      <stop offset="0.3803921568627451" stop-color="#78e6e2"/>
      <stop offset="1.0" stop-color="#bcffff"/>
    </linearGradient>
    <linearGradient gradientTransform="matrix(-0.0038, 0.013, -0.0334, 0.0, 26.0, 12.05)" gradientUnits="userSpaceOnUse" id="gradient7" spreadMethod="pad" x1="-819.2" x2="819.2">
      <stop offset="0.0" stop-color="#ff9900"/>
      <stop offset="1.0" stop-color="#ffff66"/>
    </linearGradient>
  </defs>
</svg>
