<?xml version="1.0" encoding="UTF-8" standalone="no"?>
<svg xmlns:xlink="http://www.w3.org/1999/xlink" height="38.0px" width="35.8px" xmlns="http://www.w3.org/2000/svg">
  <g transform="matrix(1.0, 0.0, 0.0, 1.0, 0.0, 0.0)">
    <path d="M0.0 38.0 L0.0 0.0 35.8 0.0 35.8 38.0 0.0 38.0" fill="#cccccc" fill-opacity="0.0" fill-rule="evenodd" stroke="none"/>
    <path d="M22.8 3.2 Q22.7 2.8 21.3 2.4 19.8 2.0 21.1 0.8 22.4 -0.4 30.2 0.2 32.5 0.4 34.4 3.0 L34.9 4.3 Q35.2 5.3 34.8 9.7 34.4 13.9 34.0 12.7 33.5 11.4 32.3 11.4 L31.6 11.3 30.2 10.5 Q29.3 9.6 29.3 8.4 L29.2 6.1 28.0 5.6 27.3 5.9 25.9 5.8 25.3 5.8 Q24.1 5.6 23.3 4.6 22.8 3.9 22.8 3.2" fill="#371b0a" fill-rule="evenodd" stroke="none"/>
    <path d="M22.8 3.2 Q22.8 3.9 23.3 4.6 24.1 5.6 25.3 5.8 L25.9 5.8 27.3 5.9 28.0 5.6 29.2 6.1 29.3 8.4 Q29.3 9.6 30.2 10.5 L31.6 11.3 31.3 13.4 Q30.7 14.9 30.1 18.0 L27.1 31.9 Q26.9 32.1 27.0 32.3 L26.3 33.2 26.2 33.5 23.9 34.1 23.6 34.1 22.7 34.3 22.7 34.4 22.5 34.4 Q22.5 34.2 22.7 34.3 22.5 34.1 22.8 34.2 L22.5 34.0 22.2 34.0 Q22.3 33.85 22.45 33.9 L22.0 33.7 22.2 33.5 22.0 33.5 Q22.0 33.3 22.1 33.4 22.3 32.8 22.8 32.9 22.1 32.4 22.0 32.6 22.1 32.4 22.3 32.4 L22.8 32.2 Q22.4 31.7 22.2 31.8 L22.3 31.7 22.6 31.3 Q22.4 31.1 22.5 30.9 L22.8 30.7 22.5 30.5 22.6 30.45 22.4 30.3 22.1 30.2 22.9 29.7 22.6 29.7 Q22.5 29.4 23.2 29.4 L22.7 29.2 Q22.6 29.0 22.9 29.1 L22.8 28.9 22.6 28.4 22.8 28.4 22.6 28.3 Q22.6 28.0 23.2 27.8 L22.8 27.8 Q22.6 27.7 22.9 27.6 L22.8 27.5 Q22.8 27.3 23.1 27.3 23.2 27.1 23.4 27.2 L23.3 27.1 23.6 27.1 Q23.4 26.9 23.8 26.9 L23.7 26.7 24.0 26.5 24.3 26.4 Q23.7 26.0 23.6 25.6 23.5 25.5 23.7 25.5 L23.5 25.4 23.9 25.1 24.2 25.0 Q23.9 24.7 24.1 24.6 L24.3 24.3 Q23.8 23.8 23.7 24.0 23.6 23.8 24.0 23.7 L23.55 23.5 23.9 23.2 23.5 23.0 Q23.4 22.9 23.7 22.9 L23.3 22.7 Q23.3 22.5 23.8 22.4 L23.3 22.1 Q23.3 22.0 23.6 21.9 L22.7 21.3 23.3 20.8 Q22.9 20.1 22.4 20.2 22.5 20.0 22.7 20.0 22.2 19.5 22.0 19.8 L22.5 19.5 22.2 19.2 23.0 19.0 Q23.6 18.1 23.9 18.2 L24.3 16.5 Q24.1 15.7 24.3 14.8 L23.6 14.1 Q22.8 13.4 22.4 13.2 L22.5 13.1 22.9 12.9 22.6 12.7 Q22.1 12.4 22.1 12.6 21.6 12.2 21.6 12.4 21.5 11.9 21.8 11.9 L21.6 11.6 Q21.5 11.3 21.8 11.4 L21.3 11.0 20.6 10.0 Q20.7 9.5 21.3 9.5 L21.4 9.5 21.3 9.4 21.0 9.3 21.4 9.1 Q21.6 8.4 21.9 8.7 L21.8 8.2 Q21.4 7.8 21.3 7.9 L21.6 7.3 21.6 7.1 Q21.4 6.7 21.9 7.0 L21.5 6.3 21.1 6.2 Q21.2 5.9 21.6 5.7 L21.1 5.5 Q21.1 5.2 21.3 5.4 21.2 4.7 20.9 5.1 20.8 4.6 20.5 4.6 20.5 4.0 20.7 3.9 L20.3 3.4 21.5 3.3 22.7 3.2 22.8 3.2 M20.6 13.3 L20.6 13.9 19.1 13.6 Q18.6 13.2 18.5 13.3 18.2 13.1 18.1 13.4 13.7 13.2 12.2 14.1 10.4 14.0 11.0 17.2 10.9 17.8 11.2 18.7 11.9 19.2 14.2 19.4 L16.0 19.4 16.2 19.4 16.3 19.4 Q17.4 18.9 18.7 19.1 L20.1 19.2 Q20.3 18.9 21.1 19.6 L20.6 19.8 20.9 20.0 Q20.9 19.7 21.2 20.0 L21.0 20.2 21.3 20.5 21.8 21.0 21.45 21.3 21.7 21.6 21.9 21.9 21.8 22.1 22.3 22.5 Q22.0 22.5 21.9 22.7 L22.2 22.9 Q21.9 22.9 22.0 23.0 L22.4 23.2 21.8 23.5 22.0 23.6 22.4 23.9 22.3 24.1 Q22.5 23.9 22.9 24.6 L22.7 24.8 22.8 25.0 Q22.3 25.0 22.1 25.5 L22.3 25.6 Q22.0 25.5 22.2 25.7 L23.0 26.4 22.7 26.5 22.5 26.8 22.6 26.9 22.4 27.1 Q21.8 27.0 21.5 27.4 L21.5 26.3 Q21.4 25.8 21.7 25.3 L19.5 25.8 17.5 26.2 17.2 26.2 13.9 26.2 13.1 26.1 12.3 26.0 10.4 25.9 9.0 25.8 7.8 25.3 Q6.1 24.4 5.9 23.3 L5.3 21.5 5.1 20.1 4.7 16.6 4.5 14.3 4.2 13.0 Q3.6 11.1 3.6 10.1 3.4 9.6 3.6 9.5 3.5 4.7 6.8 4.3 L9.5 4.0 12.6 3.9 18.8 3.9 Q18.7 3.9 18.7 4.4 18.6 4.2 18.5 4.7 18.8 4.5 19.0 5.1 19.3 4.8 19.6 5.4 L19.5 5.5 19.9 5.8 Q19.5 5.9 19.6 6.3 L19.8 6.4 20.2 7.1 Q19.8 6.8 19.8 7.2 19.6 7.3 19.8 7.7 L19.7 7.9 19.9 8.1 20.2 8.7 Q19.7 8.3 19.7 8.8 19.3 8.4 19.3 9.3 L19.5 9.4 19.6 9.5 Q18.8 9.3 18.6 10.0 L19.1 10.4 20.0 11.4 Q19.7 11.2 19.8 11.7 L20.0 11.8 20.2 12.0 Q19.8 11.9 20.0 12.4 20.1 12.3 21.1 13.1 20.7 13.0 20.6 13.3 M21.5 32.9 Q21.2 32.9 21.3 33.0 L20.9 33.3 21.0 33.5 Q20.8 33.4 20.9 33.7 L20.9 33.9 Q21.1 33.7 21.3 33.9 21.0 33.7 21.0 34.0 21.3 33.9 21.6 34.2 L17.7 34.7 16.7 34.7 14.1 34.5 13.7 34.5 11.4 34.4 11.3 34.4 Q8.5 33.7 7.8 32.9 L7.6 32.8 7.3 32.0 6.9 29.9 6.5 27.5 6.7 27.5 7.4 27.4 11.5 27.4 11.7 27.4 11.9 28.9 Q11.9 29.3 12.8 29.6 L13.0 29.6 15.3 29.6 16.0 29.6 18.3 29.6 20.2 29.6 Q20.9 28.9 21.3 29.1 L21.5 29.1 21.4 29.3 21.6 29.5 Q21.2 29.4 21.2 29.7 L21.5 29.8 Q21.0 29.9 20.8 30.4 L21.3 30.5 21.2 30.6 21.3 30.8 21.1 31.3 21.4 31.5 21.2 31.6 Q20.9 31.6 21.0 31.8 L21.1 31.9 21.3 32.2 Q20.9 32.0 20.8 32.6 L21.3 32.9 21.5 32.9 M21.4 27.9 L21.8 27.9 21.4 28.3 21.4 27.9" fill="#c1c1c1" fill-opacity="0.48235294" fill-rule="evenodd" stroke="none"/>
    <path d="M31.6 11.3 L31.3 13.4 Q30.7 14.9 30.1 18.0 L27.1 31.9 Q26.9 32.1 27.0 32.3 L26.3 33.2 26.2 33.5 23.9 34.1 23.6 34.1 22.7 34.3 Q22.5 34.1 22.8 34.2 L22.5 34.0 22.2 34.0 Q22.3 33.85 22.45 33.9 L22.0 33.7 22.2 33.5 22.0 33.5 Q22.0 33.3 22.1 33.4 22.3 32.8 22.8 32.9 22.1 32.4 22.0 32.6 22.1 32.4 22.3 32.4 L22.8 32.2 Q22.4 31.7 22.2 31.8 L22.3 31.7 22.6 31.3 Q22.4 31.1 22.5 30.9 L22.8 30.7 22.5 30.5 22.6 30.45 22.4 30.3 22.1 30.2 22.9 29.7 22.6 29.7 Q22.5 29.4 23.2 29.4 L22.7 29.2 Q22.6 29.0 22.9 29.1 L22.8 28.9 22.6 28.4 22.8 28.4 22.6 28.3 Q22.6 28.0 23.2 27.8 L22.8 27.8 Q22.6 27.7 22.9 27.6 L22.8 27.5 Q22.8 27.3 23.1 27.3 23.2 27.1 23.4 27.2 L23.3 27.1 23.6 27.1 Q23.4 26.9 23.8 26.9 L23.7 26.7 24.0 26.5 24.3 26.4 Q23.7 26.0 23.6 25.6 23.5 25.5 23.7 25.5 L23.5 25.4 23.9 25.1 24.2 25.0 Q23.9 24.7 24.1 24.6 L24.3 24.3 Q23.8 23.8 23.7 24.0 23.6 23.8 24.0 23.7 L23.55 23.5 23.9 23.2 23.5 23.0 Q23.4 22.9 23.7 22.9 L23.3 22.7 Q23.3 22.5 23.8 22.4 L23.3 22.1 Q23.3 22.0 23.6 21.9 L22.7 21.3 23.3 20.8 Q22.9 20.1 22.4 20.2 22.5 20.0 22.7 20.0 22.2 19.5 22.0 19.8 L22.5 19.5 22.2 19.2 23.0 19.0 Q23.6 18.1 23.9 18.2 L24.3 16.5 Q24.1 15.7 24.3 14.8 L23.6 14.1 Q22.8 13.4 22.4 13.2 L22.5 13.1 22.9 12.9 22.6 12.7 Q22.1 12.4 22.1 12.6 21.6 12.2 21.6 12.4 21.5 11.9 21.8 11.9 L21.6 11.6 Q21.5 11.3 21.8 11.4 L21.3 11.0 20.6 10.0 Q20.7 9.5 21.3 9.5 L21.4 9.5 21.3 9.4 21.0 9.3 21.4 9.1 Q21.6 8.4 21.9 8.7 L21.8 8.2 Q21.4 7.8 21.3 7.9 L21.6 7.3 21.6 7.1 Q21.4 6.7 21.9 7.0 L21.5 6.3 21.1 6.2 Q21.2 5.9 21.6 5.7 L21.1 5.5 Q21.1 5.2 21.3 5.4 21.2 4.7 20.9 5.1 20.8 4.6 20.5 4.6 20.5 4.0 20.7 3.9 L20.3 3.4 21.5 3.3 22.7 3.2 M20.6 13.3 L20.6 13.9 19.1 13.6 Q18.6 13.2 18.5 13.3 18.2 13.1 18.1 13.4 13.7 13.2 12.2 14.1 10.4 14.0 11.0 17.2 10.9 17.8 11.2 18.7 11.9 19.2 14.2 19.4 L16.0 19.4 16.2 19.4 16.3 19.4 Q17.4 18.9 18.7 19.1 L20.1 19.2 Q20.3 18.9 21.1 19.6 L20.6 19.8 20.9 20.0 Q20.9 19.7 21.2 20.0 L21.0 20.2 21.3 20.5 21.8 21.0 21.45 21.3 21.7 21.6 21.9 21.9 21.8 22.1 22.3 22.5 Q22.0 22.5 21.9 22.7 L22.2 22.9 Q21.9 22.9 22.0 23.0 L22.4 23.2 21.8 23.5 22.0 23.6 22.4 23.9 22.3 24.1 Q22.5 23.9 22.9 24.6 L22.7 24.8 22.8 25.0 Q22.3 25.0 22.1 25.5 L22.3 25.6 Q22.0 25.5 22.2 25.7 L23.0 26.4 22.7 26.5 22.5 26.8 22.6 26.9 22.4 27.1 Q21.8 27.0 21.5 27.4 L21.5 26.3 Q21.4 25.8 21.7 25.3 L19.5 25.8 17.5 26.2 17.2 26.2 13.9 26.2 13.1 26.1 12.3 26.0 10.4 25.9 9.0 25.8 7.8 25.3 Q6.1 24.4 5.9 23.3 L5.3 21.5 5.1 20.1 4.7 16.6 4.5 14.3 4.2 13.0 Q3.6 11.1 3.6 10.1 3.4 9.6 3.6 9.5 3.5 4.7 6.8 4.3 L9.5 4.0 12.6 3.9 18.8 3.9 Q18.7 3.9 18.7 4.4 18.6 4.2 18.5 4.7 18.8 4.5 19.0 5.1 19.3 4.8 19.6 5.4 L19.5 5.5 19.9 5.8 Q19.5 5.9 19.6 6.3 L19.8 6.4 20.2 7.1 Q19.8 6.8 19.8 7.2 19.6 7.3 19.8 7.7 L19.7 7.9 19.9 8.1 20.2 8.7 Q19.7 8.3 19.7 8.8 19.3 8.4 19.3 9.3 L19.5 9.4 19.6 9.5 Q18.8 9.3 18.6 10.0 L19.1 10.4 20.0 11.4 Q19.7 11.2 19.8 11.7 L20.0 11.8 20.2 12.0 Q19.8 11.9 20.0 12.4 20.1 12.3 21.1 13.1 20.7 13.0 20.6 13.3 M21.5 32.9 Q21.2 32.9 21.3 33.0 L20.9 33.3 21.0 33.5 Q20.8 33.4 20.9 33.7 L20.9 33.9 Q21.1 33.7 21.3 33.9 21.0 33.7 21.0 34.0 21.3 33.9 21.6 34.2 L17.7 34.7 16.7 34.7 14.1 34.5 13.7 34.5 11.4 34.4 11.3 34.4 Q8.5 33.7 7.8 32.9 L7.6 32.8 7.3 32.0 6.9 29.9 6.5 27.5 6.7 27.5 7.4 27.4 11.5 27.4 11.7 27.4 11.9 28.9 Q11.9 29.3 12.8 29.6 L13.0 29.6 15.3 29.6 16.0 29.6 18.3 29.6 20.2 29.6 Q20.9 28.9 21.3 29.1 L21.5 29.1 21.4 29.3 21.6 29.5 Q21.2 29.4 21.2 29.7 L21.5 29.8 Q21.0 29.9 20.8 30.4 L21.3 30.5 21.2 30.6 21.3 30.8 21.1 31.3 21.4 31.5 21.2 31.6 Q20.9 31.6 21.0 31.8 L21.1 31.9 21.3 32.2 Q20.9 32.0 20.8 32.6 L21.3 32.9 21.5 32.9 Z" fill="none" stroke="#371b0a" stroke-linecap="butt" stroke-linejoin="miter-clip" stroke-miterlimit="3.0" stroke-width="3.0"/>
    <path d="M22.1 33.4 Q22.3 32.8 22.8 32.9 22.1 32.4 22.0 32.6 22.1 32.4 22.3 32.4 L22.8 32.2 Q22.4 31.7 22.2 31.8 L22.3 31.7 22.6 31.3 Q22.4 31.1 22.5 30.9 L22.8 30.7 22.5 30.5 22.6 30.45 22.4 30.3 22.1 30.2 22.9 29.7 22.6 29.7 Q22.5 29.4 23.2 29.4 L22.7 29.2 Q22.6 29.0 22.9 29.1 L22.8 28.9 22.6 28.4 22.8 28.4 22.6 28.3 Q22.6 28.0 23.2 27.8 L22.8 27.8 Q22.6 27.7 22.9 27.6 L22.8 27.5 Q22.8 27.3 23.1 27.3 23.2 27.1 23.4 27.2 L23.3 27.1 23.6 27.1 Q23.4 26.9 23.8 26.9 L23.7 26.7 24.0 26.5 24.3 26.4 Q23.7 26.0 23.6 25.6 23.5 25.5 23.7 25.5 L23.5 25.4 23.9 25.1 24.2 25.0 Q23.9 24.7 24.1 24.6 L24.3 24.3 Q23.8 23.8 23.7 24.0 23.6 23.8 24.0 23.7 L23.55 23.5 23.9 23.2 23.5 23.0 Q23.4 22.9 23.7 22.9 L23.3 22.7 Q23.3 22.5 23.8 22.4 L23.3 22.1 Q23.3 22.0 23.6 21.9 L22.7 21.3 23.3 20.8 Q22.9 20.1 22.4 20.2 22.5 20.0 22.7 20.0 22.2 19.5 22.0 19.8 L22.5 19.5 22.2 19.2 23.0 19.0 Q23.6 18.1 23.9 18.2 L24.3 16.5 Q24.1 15.7 24.3 14.8 L23.6 14.1 Q22.8 13.4 22.4 13.2 L22.5 13.1 22.9 12.9 22.6 12.7 Q22.1 12.4 22.1 12.6 21.6 12.2 21.6 12.4 21.5 11.9 21.8 11.9 L21.6 11.6 Q21.5 11.3 21.8 11.4 L21.3 11.0 20.6 10.0 Q20.7 9.5 21.3 9.5 L21.4 9.5 21.3 9.4 21.0 9.3 21.4 9.1 Q21.6 8.4 21.9 8.7 L21.8 8.2 Q21.4 7.8 21.3 7.9 L21.6 7.3 21.6 7.1 Q21.4 6.7 21.9 7.0 L21.5 6.3 21.1 6.2 Q21.2 5.9 21.6 5.7 L21.1 5.5 Q21.1 5.2 21.3 5.4 21.2 4.7 20.9 5.1 20.8 4.6 20.5 4.6 20.5 4.0 20.7 3.9 L20.3 3.4 21.5 3.3 22.7 3.2 Q23.2 2.5 24.2 3.0 24.8 2.5 25.7 2.8 L26.7 2.9 Q26.7 2.5 27.0 2.8 27.0 2.5 27.3 2.9 L29.6 3.1 Q30.9 3.2 31.9 4.7 32.3 5.8 32.3 8.4 31.8 9.7 31.3 13.4 30.7 14.9 30.1 18.0 L27.1 31.9 Q26.9 32.1 27.0 32.3 L26.3 33.2 26.2 33.5 22.1 33.4 M22.7 34.3 L22.7 34.4 22.5 34.4 Q22.5 34.2 22.7 34.3 M5.3 21.5 L5.1 20.1 4.7 16.6 4.5 14.3 4.2 13.0 Q3.6 11.1 3.6 10.1 3.4 9.6 3.6 9.5 3.5 4.7 6.8 4.3 L9.5 4.0 12.6 3.9 18.8 3.9 Q18.7 3.9 18.7 4.4 18.6 4.2 18.5 4.7 18.8 4.5 19.0 5.1 19.3 4.8 19.6 5.4 L19.5 5.5 19.9 5.8 Q19.5 5.9 19.6 6.3 L19.8 6.4 20.2 7.1 Q19.8 6.8 19.8 7.2 19.6 7.3 19.8 7.7 L19.7 7.9 19.9 8.1 20.2 8.7 Q19.7 8.3 19.7 8.8 19.3 8.4 19.3 9.3 L19.5 9.4 19.6 9.5 Q18.8 9.3 18.6 10.0 L19.1 10.4 20.0 11.4 Q19.7 11.2 19.8 11.7 L20.0 11.8 20.2 12.0 Q19.8 11.9 20.0 12.4 20.1 12.3 21.1 13.1 20.7 13.0 20.6 13.3 L20.6 13.9 19.1 13.6 Q18.6 13.2 18.5 13.3 18.2 13.1 18.1 13.4 13.7 13.2 12.2 14.1 10.4 14.0 11.0 17.2 10.9 17.8 11.2 18.7 11.9 19.2 14.2 19.4 L16.0 19.4 16.2 19.4 16.3 19.4 Q17.4 18.9 18.7 19.1 L20.1 19.2 Q20.3 18.9 21.1 19.6 L20.6 19.8 20.9 20.0 Q20.9 19.7 21.2 20.0 L21.0 20.2 21.3 20.5 21.8 21.0 21.45 21.3 21.7 21.6 21.9 21.9 21.8 22.1 22.3 22.5 Q22.0 22.5 21.9 22.7 L22.2 22.9 Q21.9 22.9 22.0 23.0 L22.4 23.2 21.8 23.5 22.0 23.6 11.2 24.6 9.0 24.3 Q6.6 23.6 5.3 21.5 M7.4 27.4 L11.5 27.4 11.7 27.4 11.9 28.9 Q11.9 29.3 12.8 29.6 L13.0 29.6 15.3 29.6 16.0 29.6 18.3 29.6 20.2 29.6 Q20.9 28.9 21.3 29.1 L21.5 29.1 21.4 29.3 21.6 29.5 Q21.2 29.4 21.2 29.7 L21.5 29.8 Q21.0 29.9 20.8 30.4 L21.3 30.5 21.2 30.6 21.3 30.8 21.1 31.3 21.4 31.5 21.2 31.6 Q20.9 31.6 21.0 31.8 L21.1 31.9 21.3 32.2 Q20.9 32.0 20.8 32.6 L21.3 32.9 21.5 32.9 Q21.2 32.9 21.3 33.0 L20.9 33.3 10.0 33.1 Q9.1 33.0 8.7 31.8 7.8 30.4 7.4 27.4 M21.4 27.9 L21.8 27.9 21.4 28.3 21.4 27.9" fill="#ffff00" fill-rule="evenodd" stroke="none"/>
    <path d="M26.2 33.5 L23.9 34.1 23.6 34.1 22.7 34.3 Q22.5 34.1 22.8 34.2 L22.5 34.0 22.2 34.0 Q22.3 33.85 22.45 33.9 L22.0 33.7 22.2 33.5 22.0 33.5 Q22.0 33.3 22.1 33.4 L26.2 33.5 M22.0 23.6 L22.4 23.9 22.3 24.1 Q22.5 23.9 22.9 24.6 L22.7 24.8 22.8 25.0 Q22.3 25.0 22.1 25.5 L22.3 25.6 Q22.0 25.5 22.2 25.7 L23.0 26.4 22.7 26.5 22.5 26.8 22.6 26.9 22.4 27.1 Q21.8 27.0 21.5 27.4 L21.5 26.3 Q21.4 25.8 21.7 25.3 L19.5 25.8 17.5 26.2 17.2 26.2 13.9 26.2 13.1 26.1 12.3 26.0 10.4 25.9 9.0 25.8 7.8 25.3 Q6.1 24.4 5.9 23.3 L5.3 21.5 Q6.6 23.6 9.0 24.3 L11.2 24.6 22.0 23.6 M20.9 33.3 L21.0 33.5 Q20.8 33.4 20.9 33.7 L20.9 33.9 Q21.1 33.7 21.3 33.9 21.0 33.7 21.0 34.0 21.3 33.9 21.6 34.2 L17.7 34.7 16.7 34.7 14.1 34.5 13.7 34.5 11.4 34.4 11.3 34.4 Q8.5 33.7 7.8 32.9 L7.6 32.8 7.3 32.0 6.9 29.9 6.5 27.5 6.7 27.5 7.4 27.4 Q7.8 30.4 8.7 31.8 9.1 33.0 10.0 33.1 L20.9 33.3" fill="#eb9a05" fill-rule="evenodd" stroke="none"/>
  </g>
</svg>
