<?xml version="1.0" encoding="UTF-8" standalone="no"?>
<svg xmlns:xlink="http://www.w3.org/1999/xlink" height="31.95px" width="83.6px" xmlns="http://www.w3.org/2000/svg">
  <g transform="matrix(1.0, 0.0, 0.0, 1.0, 1.0, 1.0)">
    <path d="M2.75 -0.75 L4.95 -1.0 76.6 -1.0 Q82.7 -1.0 82.6 3.75 L82.6 26.2 Q82.55 29.05 80.3 30.2 L80.35 30.2 Q78.95 30.95 76.6 30.95 L4.95 30.95 Q-1.1 30.95 -1.0 26.2 L-1.0 3.75 Q-1.0 2.45 -0.55 1.55 L-0.55 1.5 Q0.3 -0.25 2.75 -0.75 M80.6 26.2 L80.6 3.75 Q80.5 1.0 76.6 1.0 L4.95 1.0 3.2 1.2 3.15 1.2 Q1.8 1.45 1.25 2.4 1.0 2.95 1.0 3.75 L1.0 26.2 Q1.1 28.95 4.95 28.95 L76.6 28.95 79.4 28.45 79.4 28.4 Q80.65 27.75 80.6 26.2" fill="#00ffff" fill-rule="evenodd" stroke="none"/>
    <path d="M80.6 26.2 Q80.65 27.75 79.4 28.4 L79.4 28.45 76.6 28.95 4.95 28.95 Q1.1 28.95 1.0 26.2 L1.0 3.75 Q1.0 2.95 1.25 2.4 1.8 1.45 3.15 1.2 L3.2 1.2 4.95 1.0 76.6 1.0 Q80.5 1.0 80.6 3.75 L80.6 26.2" fill="#070a1b" fill-rule="evenodd" stroke="none"/>
    <path d="M80.6 25.85 Q80.6 27.7 79.5 28.5 78.8 29.0 77.6 29.05 L77.45 29.05 3.6 29.0 3.5 29.0 Q1.35 28.65 0.85 26.3 L0.85 25.85 0.85 4.1 0.9 3.6 Q1.3 1.55 3.0 1.05 L3.5 0.95 3.6 0.95 77.45 0.95 77.95 0.95 Q80.6 1.2 80.6 4.1 L80.6 25.85" fill="url(#gradient0)" fill-rule="evenodd" stroke="none"/>
    <path d="M61.15 23.75 L56.7 23.75 Q54.85 23.75 54.05 23.0 L52.0 21.1 49.8 23.0 Q49.05 23.75 47.55 23.75 L43.35 23.75 43.35 21.4 46.55 21.4 47.75 21.1 50.4 18.9 50.6 18.6 50.6 15.85 53.5 15.85 53.5 18.6 53.65 18.9 56.4 21.1 57.65 21.4 61.15 21.4 61.15 23.75 M57.7 8.4 L43.8 8.4 43.8 6.1 60.55 6.1 60.55 12.8 Q60.55 14.8 58.05 14.8 L43.8 14.8 43.8 12.5 57.1 12.5 Q57.7 12.5 57.7 11.95 L57.7 11.45 44.15 11.45 44.15 9.3 57.7 9.3 57.7 8.4 M47.4 17.25 L48.75 17.25 48.75 19.5 46.05 19.5 Q44.8 19.5 44.45 18.25 L43.65 15.5 46.45 15.5 46.8 16.6 Q46.9 17.25 47.4 17.25 M57.95 15.5 L60.75 15.5 59.9 18.55 Q59.55 19.6 58.25 19.6 L55.35 19.6 55.35 17.25 57.35 17.25 57.6 16.95 57.95 15.5 M33.5 5.6 L33.5 6.55 37.15 6.55 37.15 8.6 33.5 8.6 33.5 9.2 37.0 9.2 37.0 11.25 33.5 11.25 33.5 11.95 37.55 11.95 37.55 14.1 27.15 14.1 27.15 13.65 24.5 13.65 24.5 14.1 26.7 14.1 26.95 21.0 Q27.05 21.55 27.45 21.55 L27.45 23.5 26.35 23.5 Q25.4 23.5 25.15 22.4 L24.5 14.1 24.5 24.2 22.15 24.2 22.15 14.1 21.65 21.45 Q21.45 23.5 20.65 23.5 L19.05 23.5 19.05 21.55 19.35 21.55 19.65 20.5 19.95 14.1 22.15 14.1 22.15 13.65 19.05 13.65 19.05 11.3 22.15 11.3 22.15 5.7 24.5 5.7 24.5 11.3 27.4 11.3 27.4 11.95 30.9 11.95 30.9 11.25 27.55 11.25 27.55 9.2 30.9 9.2 30.9 8.6 27.4 8.6 27.4 7.2 26.8 9.6 Q26.55 10.7 25.9 10.7 L24.75 10.7 24.75 8.5 25.15 8.5 25.25 8.0 25.45 6.25 27.65 6.25 27.55 6.55 30.9 6.55 30.9 5.6 33.5 5.6 M21.95 10.7 L20.5 10.7 Q20.1 10.7 19.8 9.6 L19.05 6.25 21.2 6.25 21.4 8.0 Q21.45 8.5 21.6 8.5 L21.95 8.5 21.95 10.7 M30.15 17.5 L34.8 17.5 34.8 16.8 30.15 16.8 30.15 17.5 M30.15 24.2 L27.65 24.2 27.65 14.75 37.3 14.75 37.3 22.5 Q37.3 24.2 34.95 24.2 L32.15 24.2 32.15 22.4 34.35 22.4 34.8 22.1 34.8 21.7 30.15 21.7 30.15 24.2 M30.15 19.9 L34.8 19.9 34.8 19.3 30.15 19.3 30.15 19.9" fill="#52e5f9" fill-rule="evenodd" stroke="none"/>
  </g>
  <defs>
    <linearGradient gradientTransform="matrix(0.0, -0.0172, 0.0487, 0.0, 40.7, 15.0)" gradientUnits="userSpaceOnUse" id="gradient0" spreadMethod="pad" x1="-819.2" x2="819.2">
      <stop offset="0.0" stop-color="#52e5f9" stop-opacity="0.4"/>
      <stop offset="1.0" stop-color="#52e5f9" stop-opacity="0.0"/>
    </linearGradient>
  </defs>
</svg>
