<?xml version="1.0" encoding="UTF-8" standalone="no"?>
<svg xmlns:xlink="http://www.w3.org/1999/xlink" height="41.65px" width="42.8px" xmlns="http://www.w3.org/2000/svg">
  <g transform="matrix(1.0, 0.0, 0.0, 1.0, 0.0, 0.0)">
    <path d="M40.25 17.8 Q39.3 7.6 29.3 3.45 L26.85 2.8 Q16.45 0.8 8.75 7.8 0.5 15.4 3.25 26.05 5.8 36.1 15.55 38.85 25.3 41.6 33.25 34.8 41.2 27.9 40.25 17.8 M38.85 8.0 Q43.9 14.85 42.5 23.2 41.05 31.65 34.15 36.8 27.1 42.0 18.4 41.6 8.8 40.8 3.55 33.15 -1.8 25.4 0.95 16.35 3.45 8.1 10.95 3.6 17.4 -0.3 25.1 0.05 33.65 1.05 38.85 8.0" fill="url(#gradient0)" fill-rule="evenodd" stroke="none"/>
  </g>
  <defs>
    <radialGradient cx="0" cy="0" fx="-284.8" fy="0" gradientTransform="matrix(-0.0151, 0.0254, 0.0257, 0.0132, 21.15, 20.7)" gradientUnits="userSpaceOnUse" id="gradient0" r="819.2" spreadMethod="pad">
      <stop offset="0.5725490196078431" stop-color="#f9effc" stop-opacity="0.2"/>
      <stop offset="0.7294117647058823" stop-color="#ff99ff" stop-opacity="0.4"/>
      <stop offset="0.9215686274509803" stop-color="#99ccff" stop-opacity="0.6"/>
      <stop offset="1.0" stop-color="#ccffff"/>
    </radialGradient>
  </defs>
</svg>
