<?xml version="1.0" encoding="UTF-8" standalone="no"?>
<svg xmlns:xlink="http://www.w3.org/1999/xlink" height="38.0px" width="35.8px" xmlns="http://www.w3.org/2000/svg">
  <g transform="matrix(1.0, 0.0, 0.0, 1.0, 0.0, 0.0)">
    <path d="M35.8 38.0 L0.0 38.0 0.0 0.0 35.8 0.0 35.8 38.0" fill="#cccccc" fill-opacity="0.0" fill-rule="evenodd" stroke="none"/>
    <path d="M29.7 27.8 L29.4 27.7 Q29.3 27.5 29.5 27.6 L28.6 27.0 28.0 26.8 27.6 26.3 27.7 26.1 27.4 26.1 27.6 25.9 Q27.1 25.5 26.7 25.6 L25.6 25.1 25.6 24.9 Q25.4 24.8 25.8 24.8 25.55 24.55 25.45 24.6 L25.8 24.3 Q24.9 23.7 25.1 24.0 L24.4 23.7 24.3 23.6 23.6 23.3 24.0 23.0 23.8 22.7 24.0 22.5 23.7 22.2 23.5 22.1 23.4 22.1 Q23.2 21.9 23.5 21.9 23.0 21.5 22.5 21.5 L21.3 21.1 Q21.1 20.9 21.5 20.8 21.1 20.6 21.0 20.8 L20.8 20.6 21.2 20.2 20.1 19.9 18.9 19.5 Q18.8 19.4 19.1 19.4 18.5 19.3 18.4 19.0 L17.8 18.7 20.3 18.3 23.0 18.1 Q24.1 17.6 24.6 14.4 L24.7 13.8 Q23.5 12.4 20.9 12.8 L16.7 13.5 15.2 13.4 14.5 13.3 15.2 12.7 15.1 12.5 15.2 12.3 13.6 11.8 13.8 11.6 Q13.1 11.3 12.5 10.5 12.3 10.2 12.2 10.4 11.3 9.7 11.1 9.7 11.1 9.4 11.4 9.5 L10.7 8.8 10.1 8.4 Q10.0 7.8 10.2 7.7 8.8 6.5 6.9 6.2 6.7 5.9 7.3 5.8 7.0 5.5 7.0 5.8 L6.8 5.4 Q6.7 5.2 7.2 5.3 8.3 4.7 11.0 4.7 12.0 4.2 13.4 4.3 14.3 3.9 15.2 4.0 L15.4 4.0 29.3 2.4 Q31.2 2.8 32.1 4.6 32.6 5.3 32.7 7.0 L31.4 14.7 31.0 17.0 30.4 19.2 29.8 21.4 30.0 25.2 29.7 27.8 29.7 27.9 29.5 27.9 Q29.3 27.8 29.7 27.8 M22.3 22.6 Q22.1 22.7 22.3 22.9 L22.4 23.1 Q22.0 23.2 21.9 23.6 L23.2 23.9 23.9 24.1 24.1 24.3 23.6 24.6 23.9 24.8 24.0 24.8 24.2 24.9 24.2 25.0 24.3 25.1 24.2 25.3 24.6 25.4 26.1 26.0 Q25.9 26.0 26.1 26.2 L26.2 26.3 Q26.0 26.3 26.1 26.5 L26.6 26.6 Q26.3 26.6 26.5 26.8 L26.5 26.9 Q26.2 26.7 26.2 27.0 L27.9 27.6 27.8 27.7 28.0 27.8 28.1 27.9 Q28.0 27.8 27.9 28.0 L28.0 29.9 27.6 31.9 26.4 33.5 Q25.2 34.2 23.3 34.8 22.8 34.7 23.0 34.9 L21.2 35.0 20.4 35.1 Q19.5 34.9 18.5 35.1 L14.1 35.3 Q13.3 35.1 12.9 35.3 L11.4 35.4 11.3 35.4 9.9 35.2 8.6 34.9 Q7.2 34.0 7.1 33.2 6.4 31.7 6.3 30.2 5.9 28.4 6.0 26.8 5.6 24.8 6.2 22.7 5.0 19.8 4.6 16.9 L3.4 10.0 Q3.2 6.4 5.0 5.7 L5.6 6.1 Q5.1 6.1 5.1 6.5 L5.7 6.7 6.5 6.9 6.8 7.2 8.4 8.0 8.2 8.5 Q8.3 8.3 9.0 8.9 8.8 9.0 8.9 9.4 9.0 9.2 9.5 9.6 L9.5 9.9 9.8 10.1 12.1 11.6 12.3 11.7 Q12.1 11.6 12.0 11.9 L12.7 12.2 Q12.5 11.9 13.3 12.5 L13.3 12.6 13.5 12.8 Q13.2 12.9 13.2 13.3 L12.8 13.8 Q12.2 13.8 11.8 14.1 L11.7 14.2 Q11.0 14.0 11.0 15.0 10.7 14.9 10.9 16.5 L11.0 16.9 11.2 18.2 Q11.8 18.8 14.7 18.8 L15.7 18.7 Q15.7 18.5 16.2 18.6 L15.9 19.0 16.3 19.1 17.5 19.6 17.5 19.7 Q17.5 19.9 17.9 19.9 L18.6 20.1 19.6 20.4 19.2 20.7 19.5 20.9 Q19.4 20.7 19.8 20.9 L19.8 21.1 Q21.3 21.5 22.1 22.1 21.8 22.0 21.9 22.3 L22.2 22.4 Q22.0 22.5 22.3 22.6 M19.4 29.7 L21.3 29.6 Q22.3 28.8 22.6 26.7 L22.6 26.2 Q22.4 25.9 22.3 26.0 21.6 25.2 20.3 25.4 L19.4 25.5 12.7 26.0 Q11.3 26.3 11.9 28.4 L11.9 29.5 12.1 29.5 12.7 29.7 15.7 29.9 19.4 29.7" fill="#c3c3c3" fill-opacity="0.48235294" fill-rule="evenodd" stroke="none"/>
    <path d="M29.7 27.8 L29.4 27.7 Q29.3 27.5 29.5 27.6 L28.6 27.0 28.0 26.8 27.6 26.3 27.7 26.1 27.4 26.1 27.6 25.9 Q27.1 25.5 26.7 25.6 L25.6 25.1 25.6 24.9 Q25.4 24.8 25.8 24.8 25.55 24.55 25.45 24.6 L25.8 24.3 Q24.9 23.7 25.1 24.0 L24.4 23.7 24.3 23.6 23.6 23.3 24.0 23.0 23.8 22.7 24.0 22.5 23.7 22.2 23.5 22.1 23.4 22.1 Q23.2 21.9 23.5 21.9 23.0 21.5 22.5 21.5 L21.3 21.1 Q21.1 20.9 21.5 20.8 21.1 20.6 21.0 20.8 L20.8 20.6 21.2 20.2 20.1 19.9 18.9 19.5 Q18.8 19.4 19.1 19.4 18.5 19.3 18.4 19.0 L17.8 18.7 20.3 18.3 23.0 18.1 Q24.1 17.6 24.6 14.4 L24.7 13.8 Q23.5 12.4 20.9 12.8 L16.7 13.5 15.2 13.4 14.5 13.3 15.2 12.7 15.1 12.5 15.2 12.3 13.6 11.8 13.8 11.6 Q13.1 11.3 12.5 10.5 12.3 10.2 12.2 10.4 11.3 9.7 11.1 9.7 11.1 9.4 11.4 9.5 L10.7 8.8 10.1 8.4 Q10.0 7.8 10.2 7.7 8.8 6.5 6.9 6.2 6.7 5.9 7.3 5.8 7.0 5.5 7.0 5.8 L6.8 5.4 Q6.7 5.2 7.2 5.3 8.3 4.7 11.0 4.7 12.0 4.2 13.4 4.3 14.3 3.9 15.2 4.0 L15.4 4.0 29.3 2.4 Q31.2 2.8 32.1 4.6 32.6 5.3 32.7 7.0 L31.4 14.7 31.0 17.0 30.4 19.2 29.8 21.4 30.0 25.2 29.7 27.8 M22.3 22.6 Q22.1 22.7 22.3 22.9 L22.4 23.1 Q22.0 23.2 21.9 23.6 L23.2 23.9 23.9 24.1 24.1 24.3 23.6 24.6 23.9 24.8 24.0 24.8 24.2 24.9 24.2 25.0 24.3 25.1 24.2 25.3 24.6 25.4 26.1 26.0 Q25.9 26.0 26.1 26.2 L26.2 26.3 Q26.0 26.3 26.1 26.5 L26.6 26.6 Q26.3 26.6 26.5 26.8 L26.5 26.9 Q26.2 26.7 26.2 27.0 L27.9 27.6 27.8 27.7 28.0 27.8 28.1 27.9 Q28.0 27.8 27.9 28.0 L28.0 29.9 27.6 31.9 26.4 33.5 Q25.2 34.2 23.3 34.8 22.8 34.7 23.0 34.9 L21.2 35.0 20.4 35.1 Q19.5 34.9 18.5 35.1 L14.1 35.3 Q13.3 35.1 12.9 35.3 L11.4 35.4 11.3 35.4 9.9 35.2 8.6 34.9 Q7.2 34.0 7.1 33.2 6.4 31.7 6.3 30.2 5.9 28.4 6.0 26.8 5.6 24.8 6.2 22.7 5.0 19.8 4.6 16.9 L3.4 10.0 Q3.2 6.4 5.0 5.7 L5.6 6.1 Q5.1 6.1 5.1 6.5 L5.7 6.7 6.5 6.9 6.8 7.2 8.4 8.0 8.2 8.5 Q8.3 8.3 9.0 8.9 8.8 9.0 8.9 9.4 9.0 9.2 9.5 9.6 L9.5 9.9 9.8 10.1 12.1 11.6 12.3 11.7 Q12.1 11.6 12.0 11.9 L12.7 12.2 Q12.5 11.9 13.3 12.5 L13.3 12.6 13.5 12.8 Q13.2 12.9 13.2 13.3 L12.8 13.8 Q12.2 13.8 11.8 14.1 L11.7 14.2 Q11.0 14.0 11.0 15.0 10.7 14.9 10.9 16.5 L11.0 16.9 11.2 18.2 Q11.8 18.8 14.7 18.8 L15.7 18.7 Q15.7 18.5 16.2 18.6 L15.9 19.0 16.3 19.1 17.5 19.6 17.5 19.7 Q17.5 19.9 17.9 19.9 L18.6 20.1 19.6 20.4 19.2 20.7 19.5 20.9 Q19.4 20.7 19.8 20.9 L19.8 21.1 Q21.3 21.5 22.1 22.1 21.8 22.0 21.9 22.3 L22.2 22.4 Q22.0 22.5 22.3 22.6 M19.4 29.7 L21.3 29.6 Q22.3 28.8 22.6 26.7 L22.6 26.2 Q22.4 25.9 22.3 26.0 21.6 25.2 20.3 25.4 L19.4 25.5 12.7 26.0 Q11.3 26.3 11.9 28.4 L11.9 29.5 12.1 29.5 12.7 29.7 15.7 29.9 19.4 29.7 Z" fill="none" stroke="#371b0a" stroke-linecap="butt" stroke-linejoin="miter-clip" stroke-miterlimit="3.0" stroke-width="3.0"/>
    <path d="M32.7 7.0 L31.4 14.7 31.0 17.0 30.4 19.2 29.8 21.4 30.0 25.2 29.7 27.8 29.7 27.9 29.5 27.9 Q29.3 27.8 29.7 27.8 L29.4 27.7 Q29.3 27.5 29.5 27.6 L28.6 27.0 28.0 26.8 27.6 26.3 27.7 26.1 27.4 26.1 27.6 25.9 Q27.1 25.5 26.7 25.6 L25.6 25.1 25.6 24.9 Q25.4 24.8 25.8 24.8 25.55 24.55 25.45 24.6 L25.8 24.3 Q24.9 23.7 25.1 24.0 L24.4 23.7 24.3 23.6 23.6 23.3 24.0 23.0 23.8 22.7 24.0 22.5 23.7 22.2 23.5 22.1 23.4 22.1 Q23.2 21.9 23.5 21.9 23.0 21.5 22.5 21.5 L21.3 21.1 Q21.1 20.9 21.5 20.8 21.1 20.6 21.0 20.8 L20.8 20.6 21.2 20.2 20.1 19.9 18.9 19.5 Q18.8 19.4 19.1 19.4 18.5 19.3 18.4 19.0 L17.8 18.7 20.3 18.3 23.0 18.1 Q24.1 17.6 24.6 14.4 L24.7 13.8 Q23.5 12.4 20.9 12.8 L16.7 13.5 15.2 13.4 14.5 13.3 15.2 12.7 15.1 12.5 15.2 12.3 13.6 11.8 13.8 11.6 Q13.1 11.3 12.5 10.5 12.3 10.2 12.2 10.4 11.3 9.7 11.1 9.7 11.1 9.4 11.4 9.5 L10.7 8.8 10.1 8.4 Q10.0 7.8 10.2 7.7 8.8 6.5 6.9 6.2 6.7 5.9 7.3 5.8 7.0 5.5 7.0 5.8 L6.8 5.4 Q6.7 5.2 7.2 5.3 8.3 4.7 11.0 4.7 12.0 4.2 13.4 4.3 14.3 3.9 15.2 4.0 L15.4 4.0 29.3 2.4 Q31.2 2.8 32.1 4.6 32.6 5.3 32.7 7.0 M5.7 6.7 L6.5 6.9 6.8 7.2 8.4 8.0 8.2 8.5 Q8.3 8.3 9.0 8.9 8.8 9.0 8.9 9.4 9.0 9.2 9.5 9.6 L9.5 9.9 9.8 10.1 12.1 11.6 12.3 11.7 Q12.1 11.6 12.0 11.9 L12.7 12.2 Q12.5 11.9 13.3 12.5 L13.3 12.6 13.5 12.8 Q13.2 12.9 13.2 13.3 L12.8 13.8 Q12.2 13.8 11.8 14.1 L11.7 14.2 Q11.0 14.0 11.0 15.0 10.7 14.9 10.9 16.5 L11.0 16.9 11.2 18.2 Q11.8 18.8 14.7 18.8 L15.7 18.7 Q15.7 18.5 16.2 18.6 L15.9 19.0 16.3 19.1 17.5 19.6 17.5 19.7 Q17.5 19.9 17.9 19.9 L18.6 20.1 19.6 20.4 19.2 20.7 19.5 20.9 Q19.4 20.7 19.8 20.9 L19.8 21.1 Q21.3 21.5 22.1 22.1 21.8 22.0 21.9 22.3 L22.2 22.4 Q22.0 22.5 22.3 22.6 22.1 22.7 22.3 22.9 L22.4 23.1 Q22.0 23.2 21.9 23.6 L23.2 23.9 23.9 24.1 24.1 24.3 23.6 24.6 23.9 24.8 24.0 24.8 24.2 24.9 24.2 25.0 24.3 25.1 24.2 25.3 24.6 25.4 26.1 26.0 Q25.9 26.0 26.1 26.2 L26.2 26.3 Q26.0 26.3 26.1 26.5 L26.6 26.6 Q26.3 26.6 26.5 26.8 L26.5 26.9 Q26.2 26.7 26.2 27.0 L27.9 27.6 27.8 27.7 28.0 27.8 28.1 27.9 Q28.0 27.8 27.9 28.0 L28.0 29.9 27.6 31.9 26.4 33.5 9.2 33.9 8.8 32.9 Q6.9 28.9 7.8 22.3 5.4 17.2 5.5 10.4 5.3 8.3 5.7 6.7 M19.4 29.7 L21.3 29.6 Q22.3 28.8 22.6 26.7 L22.6 26.2 Q22.4 25.9 22.3 26.0 21.6 25.2 20.3 25.4 L19.4 25.5 12.7 26.0 Q11.3 26.3 11.9 28.4 L11.9 29.5 12.1 29.5 12.7 29.7 15.7 29.9 19.4 29.7" fill="#ffff00" fill-rule="evenodd" stroke="none"/>
    <path d="M26.4 33.5 Q25.2 34.2 23.3 34.8 22.8 34.7 23.0 34.9 L21.2 35.0 20.4 35.1 Q19.5 34.9 18.5 35.1 L14.1 35.3 Q13.3 35.1 12.9 35.3 L11.4 35.4 11.3 35.4 9.9 35.2 8.6 34.9 Q7.2 34.0 7.1 33.2 6.4 31.7 6.3 30.2 5.9 28.4 6.0 26.8 5.6 24.8 6.2 22.7 5.0 19.8 4.6 16.9 L3.4 10.0 Q3.2 6.4 5.0 5.7 L5.6 6.1 Q5.1 6.1 5.1 6.5 L5.7 6.7 Q5.3 8.3 5.5 10.4 5.4 17.2 7.8 22.3 6.9 28.9 8.8 32.9 L9.2 33.9 26.4 33.5" fill="#eb9a05" fill-rule="evenodd" stroke="none"/>
  </g>
</svg>
