<?xml version="1.0" encoding="UTF-8" standalone="no"?>
<svg xmlns:xlink="http://www.w3.org/1999/xlink" height="41.65px" width="42.8px" xmlns="http://www.w3.org/2000/svg">
  <g transform="matrix(1.0, 0.0, 0.0, 1.0, 22.45, 20.55)">
    <path d="M6.85 -17.1 L4.4 -17.75 Q-6.0 -19.75 -13.7 -12.75 -21.95 -5.15 -19.2 5.5 -16.65 15.55 -6.9 18.3 2.85 21.05 10.8 14.25 18.75 7.35 17.8 -2.75 16.85 -12.95 6.85 -17.1 M16.4 -12.55 Q21.45 -5.7 20.05 2.65 18.6 11.1 11.7 16.25 4.65 21.45 -4.05 21.05 -13.65 20.25 -18.9 12.6 -24.25 4.85 -21.5 -4.2 -19.0 -12.45 -11.5 -16.95 -5.05 -20.85 2.65 -20.5 11.2 -19.5 16.4 -12.55" fill="url(#gradient0)" fill-rule="evenodd" stroke="none"/>
  </g>
  <defs>
    <radialGradient cx="0" cy="0" fx="-278.40000000000003" fy="0" gradientTransform="matrix(-0.0151, 0.0254, 0.0257, 0.0132, -1.3, 0.15)" gradientUnits="userSpaceOnUse" id="gradient0" r="819.2" spreadMethod="pad">
      <stop offset="0.5725490196078431" stop-color="#f9effc" stop-opacity="0.2"/>
      <stop offset="0.7294117647058823" stop-color="#ff99ff" stop-opacity="0.4"/>
      <stop offset="0.8549019607843137" stop-color="#99ccff" stop-opacity="0.6"/>
      <stop offset="0.9450980392156862" stop-color="#ccffff"/>
    </radialGradient>
  </defs>
</svg>
