<?xml version="1.0" encoding="UTF-8" standalone="no"?>
<svg xmlns:xlink="http://www.w3.org/1999/xlink" height="40.65px" width="35.25px" xmlns="http://www.w3.org/2000/svg">
  <g transform="matrix(1.0, 0.0, 0.0, 1.0, 9.6, 0.0)">
    <path d="M25.2 7.95 Q26.0 10.25 25.45 12.25 21.25 14.7 16.05 14.7 7.4 14.7 1.95 6.7 0.8 5.05 0.0 3.4 2.9 0.9 7.8 0.25 13.45 -0.65 18.65 1.85 23.85 4.0 25.2 7.95" fill="url(#gradient0)" fill-rule="evenodd" stroke="none"/>
    <path d="M9.1 40.55 Q5.25 40.95 1.75 39.85 -2.35 38.65 -5.6 35.7 -8.7 32.75 -9.6 28.7 L-4.9 32.4 Q-0.05 35.6 5.45 36.9 11.15 38.15 17.05 37.8 13.5 40.3 9.1 40.55" fill="url(#gradient1)" fill-rule="evenodd" stroke="none"/>
  </g>
  <defs>
    <radialGradient cx="0" cy="0" fx="-230.4" fy="0" gradientTransform="matrix(-0.0409, 0.0184, 0.023, 0.0383, 4.6, 27.4)" gradientUnits="userSpaceOnUse" id="gradient0" r="819.2" spreadMethod="pad">
      <stop offset="0.5058823529411764" stop-color="#fafdfe" stop-opacity="0.02745098"/>
      <stop offset="0.8274509803921568" stop-color="#f9f9f9" stop-opacity="0.9019608"/>
    </radialGradient>
    <radialGradient cx="0" cy="0" fx="-227.20000000000002" fy="0" gradientTransform="matrix(0.0409, -0.0184, -0.023, -0.0383, 12.85, 15.55)" gradientUnits="userSpaceOnUse" id="gradient1" r="819.2" spreadMethod="pad">
      <stop offset="0.5058823529411764" stop-color="#fafdfe" stop-opacity="0.02745098"/>
      <stop offset="0.8274509803921568" stop-color="#f9f9f9" stop-opacity="0.9019608"/>
    </radialGradient>
  </defs>
</svg>
