<?xml version="1.0" encoding="UTF-8" standalone="no"?>
<svg xmlns:xlink="http://www.w3.org/1999/xlink" height="28.6px" width="29.55px" xmlns="http://www.w3.org/2000/svg">
  <g transform="matrix(1.0, 0.0, 0.0, 1.0, 0.3, -1.8)">
    <path d="M7.3 4.65 Q4.35 7.15 2.65 10.1 L5.5 10.1 5.5 19.55 11.1 19.55 11.1 10.1 14.05 10.1 Q11.9 6.45 8.35 3.85 7.75 4.2 7.3 4.65 Z" fill="none" stroke="#ffffff" stroke-linecap="butt" stroke-linejoin="miter-clip" stroke-miterlimit="3.0" stroke-width="3.5"/>
    <path d="M10.7 21.65 L13.2 19.85 13.95 19.95 11.0 22.05 10.7 21.65 9.8 20.85 12.05 18.15 10.55 16.5 11.0 14.6 12.3 15.95 19.7 5.1 26.55 5.1 27.5 5.1 27.5 12.25 16.3 19.9 17.45 21.05 15.35 21.4 14.95 20.95 16.2 20.65 15.3 19.65 26.55 11.6 26.55 5.1" fill="none" stroke="#ffffff" stroke-linecap="round" stroke-linejoin="miter-clip" stroke-miterlimit="3.0" stroke-width="3.5"/>
    <path d="M26.55 5.15 L27.5 5.15 27.5 12.35 16.3 20.0 17.45 21.1 15.35 21.45 14.95 21.05 16.2 20.7 15.3 19.7 26.55 11.7 26.55 6.2 26.55 5.15 M13.95 20.05 L11.0 22.1 10.7 21.75 13.2 19.9 13.95 20.05" fill="#1c0037" fill-rule="evenodd" stroke="none"/>
    <path d="M26.55 6.2 L26.55 11.7 15.3 19.7 16.2 20.7 14.95 21.05 13.95 20.05 13.2 19.9 10.7 21.75 9.8 20.9 12.05 18.25 10.55 16.6 10.8 15.55 12.55 17.6 12.95 16.9 20.5 6.2 26.55 6.2" fill="#510066" fill-rule="evenodd" stroke="none"/>
    <path d="M26.55 5.15 L26.55 6.2 20.5 6.2 12.95 16.9 12.55 17.6 10.8 15.55 11.0 14.7 12.3 16.0 19.7 5.15 26.55 5.15" fill="#380037" fill-rule="evenodd" stroke="none"/>
    <path d="M9.85 19.55 L9.9 11.4 9.9 9.15 11.7 9.15 10.15 6.55 8.35 3.85 Q11.9 6.45 14.05 10.1 L11.1 10.1 11.1 19.55 9.85 19.55" fill="#3b861d" fill-rule="evenodd" stroke="none"/>
    <path d="M8.35 3.85 L10.15 6.55 11.7 9.15 9.9 9.15 9.9 11.4 9.85 19.55 6.7 19.55 6.7 9.2 4.8 9.2 Q4.95 8.5 6.0 6.95 L5.75 7.45 Q5.75 8.5 6.65 7.4 L7.5 6.0 7.25 5.75 6.75 5.95 8.35 3.85" fill="#74c84e" fill-rule="evenodd" stroke="none"/>
    <path d="M6.75 5.95 L7.25 5.75 7.5 6.0 6.65 7.4 Q5.75 8.5 5.75 7.45 L6.0 6.95 6.2 6.6 6.75 5.95" fill="#ffffff" fill-rule="evenodd" stroke="none"/>
    <path d="M7.3 4.65 L8.35 3.85 Q6.2 5.85 7.3 4.65" fill="#cb2c1b" fill-rule="evenodd" stroke="none"/>
    <path d="M8.35 3.85 L6.75 5.95 6.2 6.6 6.0 6.95 Q4.95 8.5 4.8 9.2 L6.7 9.2 6.7 19.55 5.5 19.55 5.5 10.1 2.65 10.1 Q4.35 7.15 7.3 4.65 6.2 5.85 8.35 3.85" fill="#c7f36c" fill-rule="evenodd" stroke="none"/>
    <path d="M9.85 19.55 L11.1 19.55 11.1 10.1 14.05 10.1 Q11.9 6.45 8.35 3.85 L7.3 4.65 Q4.35 7.15 2.65 10.1 L5.5 10.1 5.5 19.55 6.7 19.55 9.85 19.55 Z" fill="none" stroke="#005909" stroke-linecap="butt" stroke-linejoin="miter-clip" stroke-miterlimit="3.0" stroke-width="1.0"/>
    <path d="M21.0 20.5 L18.05 20.5 17.8 21.3 16.25 21.3 16.95 19.0 18.55 19.0 18.45 19.35 21.55 19.35 21.0 20.5 M4.15 19.9 L4.35 19.9 4.35 18.9 5.85 18.9 5.85 19.9 6.45 19.9 6.45 19.65 8.2 19.65 8.2 18.9 9.75 18.9 9.75 19.65 11.65 19.65 11.15 20.7 9.75 20.7 9.75 22.0 11.75 22.0 11.25 23.0 6.3 23.0 6.3 22.45 5.85 23.15 5.85 27.3 4.35 28.05 4.35 25.5 4.15 25.85 2.65 25.85 4.35 23.1 4.35 21.05 4.05 21.05 3.9 22.3 2.6 22.3 2.95 19.2 4.2 19.2 4.15 19.9 M6.45 20.25 L6.05 21.05 5.85 21.05 5.85 22.05 6.3 22.05 6.3 22.0 8.2 22.0 8.2 20.7 6.45 20.7 6.45 20.25 M9.25 23.2 L10.75 23.2 10.75 23.7 11.65 23.7 11.2 24.75 10.75 24.75 10.75 26.8 9.75 27.95 8.6 27.95 8.6 26.9 9.25 26.9 9.25 24.75 6.35 24.75 6.35 23.7 9.25 23.7 9.25 23.2 M12.7 20.35 L12.7 19.15 16.4 19.15 15.8 20.35 15.3 20.35 15.3 26.75 16.4 26.75 15.85 27.9 12.7 27.9 12.7 26.75 13.7 26.75 13.7 20.35 12.7 20.35 M18.85 23.05 L19.7 21.15 21.35 21.15 19.7 24.65 21.45 27.9 19.75 27.9 18.95 26.35 18.25 27.9 16.6 27.9 18.05 24.75 16.5 21.8 18.15 21.8 18.85 23.05 M7.7 27.05 L7.25 27.15 6.8 27.05 6.5 26.7 6.35 26.25 6.5 25.8 6.8 25.45 7.25 25.35 7.7 25.45 8.05 25.8 8.2 26.25 8.05 26.7 7.7 27.05" fill="#ffff00" fill-rule="evenodd" stroke="none"/>
    <path d="M21.0 20.5 L18.05 20.5 17.8 21.3 16.25 21.3 16.95 19.0 18.55 19.0 18.45 19.35 21.55 19.35 21.0 20.5 M4.15 19.9 L4.35 19.9 4.35 18.9 5.85 18.9 5.85 19.9 6.45 19.9 6.45 19.65 8.2 19.65 8.2 18.9 9.75 18.9 9.75 19.65 11.65 19.65 11.15 20.7 9.75 20.7 9.75 22.0 11.75 22.0 11.25 23.0 6.3 23.0 6.3 22.45 5.85 23.15 5.85 27.3 4.35 28.05 4.35 25.5 4.15 25.85 2.65 25.85 4.35 23.1 4.35 21.05 4.05 21.05 3.9 22.3 2.6 22.3 2.95 19.2 4.2 19.2 4.15 19.9 M6.45 20.25 L6.05 21.05 5.85 21.05 5.85 22.05 6.3 22.05 6.3 22.0 8.2 22.0 8.2 20.7 6.45 20.7 6.45 20.25 M9.25 23.2 L10.75 23.2 10.75 23.7 11.65 23.7 11.2 24.75 10.75 24.75 10.75 26.8 9.75 27.95 8.6 27.95 8.6 26.9 9.25 26.9 9.25 24.75 6.35 24.75 6.35 23.7 9.25 23.7 9.25 23.2 M12.7 20.35 L12.7 19.15 16.4 19.15 15.8 20.35 15.3 20.35 15.3 26.75 16.4 26.75 15.85 27.9 12.7 27.9 12.7 26.75 13.7 26.75 13.7 20.35 12.7 20.35 M18.85 23.05 L19.7 21.15 21.35 21.15 19.7 24.65 21.45 27.9 19.75 27.9 18.95 26.35 18.25 27.9 16.6 27.9 18.05 24.75 16.5 21.8 18.15 21.8 18.85 23.05 M7.7 27.05 L7.25 27.15 6.8 27.05 6.5 26.7 6.35 26.25 6.5 25.8 6.8 25.45 7.25 25.35 7.7 25.45 8.05 25.8 8.2 26.25 8.05 26.7 7.7 27.05 Z" fill="none" stroke="#660000" stroke-linecap="butt" stroke-linejoin="miter-clip" stroke-miterlimit="3.0" stroke-width="3.0"/>
    <path d="M21.0 20.45 L18.05 20.45 17.8 21.25 16.25 21.25 16.95 19.0 18.55 19.0 18.4 19.3 21.55 19.3 21.0 20.45 M4.35 18.85 L5.85 18.85 5.85 19.9 6.45 19.9 6.45 19.65 8.2 19.65 8.2 18.9 9.75 18.9 9.75 19.65 11.65 19.65 11.15 20.7 9.75 20.7 9.75 21.95 11.7 21.95 11.25 23.0 6.25 23.0 6.3 22.4 5.85 23.1 5.85 27.3 4.35 28.05 4.35 25.45 4.15 25.85 2.65 25.85 4.35 23.1 4.35 21.0 4.05 21.0 3.9 22.3 2.6 22.3 2.9 19.2 4.2 19.2 4.15 19.9 4.35 19.9 4.35 18.85 M5.85 21.0 L5.85 22.05 6.3 22.05 6.3 21.95 8.2 21.95 8.2 20.7 6.45 20.7 6.45 20.2 6.05 21.0 5.85 21.0 M9.25 23.15 L10.75 23.15 10.75 23.7 11.65 23.7 11.2 24.75 10.75 24.75 10.75 26.8 9.75 27.9 8.6 27.9 8.6 26.9 9.25 26.9 9.25 24.75 6.35 24.75 6.35 23.7 9.25 23.7 9.25 23.15 M12.65 19.1 L16.4 19.1 15.75 20.35 15.3 20.35 15.3 26.7 16.4 26.7 15.85 27.85 12.65 27.85 12.65 26.7 13.65 26.7 13.65 20.35 12.65 20.35 12.65 19.1 M18.85 23.05 L19.7 21.15 21.3 21.15 19.7 24.65 21.45 27.85 19.75 27.85 18.9 26.35 18.2 27.85 16.6 27.85 18.05 24.75 16.5 21.75 18.15 21.75 18.85 23.05 M7.7 27.0 L7.25 27.15 6.8 27.0 6.45 26.65 6.35 26.2 6.45 25.75 6.8 25.45 7.25 25.3 Q7.45 25.3 7.65 25.45 L8.05 25.75 8.15 26.2 8.05 26.65 7.7 27.0" fill="#ffff00" fill-rule="evenodd" stroke="none"/>
  </g>
</svg>
