<?xml version="1.0" encoding="UTF-8" standalone="no"?>
<svg xmlns:xlink="http://www.w3.org/1999/xlink" height="34.85px" width="162.85px" xmlns="http://www.w3.org/2000/svg">
  <g transform="matrix(1.0, 0.0, 0.0, 1.0, 77.0, 18.0)">
    <path d="M-14.0 -1.1 L-14.0 -2.7 -7.55 -2.7 -6.35 -7.65 -13.15 -7.65 -13.15 -10.65 7.35 -10.65 7.35 -7.65 -2.8 -7.65 -4.05 -2.7 8.2 -2.7 8.2 -1.1 -14.0 -1.1 M16.25 -7.2 L17.6 -7.2 17.6 -4.25 14.6 -4.25 Q12.95 -4.25 12.55 -5.9 L11.35 -10.0 14.85 -10.0 15.45 -7.95 Q15.65 -7.2 16.25 -7.2 M12.05 -1.1 L11.45 -3.1 14.95 -3.1 15.55 -1.1 12.05 -1.1 M24.05 -1.1 L24.05 -5.25 18.9 -5.25 18.9 -8.35 24.05 -8.35 24.05 -10.9 27.7 -10.9 27.7 -8.35 32.85 -8.35 32.85 -5.25 27.7 -5.25 27.7 -1.1 24.05 -1.1 M35.75 -1.1 L35.75 -1.2 37.05 -1.2 Q37.85 -1.2 38.25 -2.2 L39.1 -4.35 38.6 -4.3 36.0 -4.3 36.0 -7.45 37.15 -7.45 Q37.8 -7.45 38.1 -8.3 L39.1 -11.05 43.0 -11.05 40.85 -6.0 40.55 -5.4 43.4 -5.4 41.55 -1.1 35.75 -1.1 M44.4 -10.55 L57.95 -10.55 57.95 -7.75 44.4 -7.75 44.4 -10.55 M52.95 -1.1 L52.95 -2.2 44.0 -2.2 44.0 -5.15 58.1 -5.15 58.1 -2.2 56.65 -2.2 56.65 -1.1 52.95 -1.1 M70.85 -6.55 L61.35 -6.55 61.35 -9.8 70.85 -9.8 70.85 -6.55 M60.85 -1.1 L60.85 -3.65 71.35 -3.65 71.35 -1.1 60.85 -1.1 M73.75 -1.1 L74.05 -6.1 71.9 -6.1 71.9 -9.1 74.2 -9.1 74.35 -11.0 77.8 -11.0 77.65 -9.1 82.85 -9.1 82.85 -1.1 79.5 -1.1 79.5 -6.1 77.4 -6.1 77.05 -1.1 73.75 -1.1 M-66.5 -1.1 L-66.3 -1.6 -65.55 -5.3 -62.15 -5.3 -62.15 -6.85 -63.8 -6.85 Q-65.4 -6.85 -65.85 -8.5 L-67.3 -13.85 -63.55 -13.85 -62.85 -10.6 Q-62.7 -10.0 -62.4 -10.0 L-62.15 -10.0 -62.15 -14.9 -58.5 -14.9 -58.5 -1.1 -62.15 -1.1 -62.15 -4.75 -62.95 -1.1 -66.5 -1.1 M-72.55 -1.1 L-72.55 -3.9 -74.0 -3.9 -74.0 -7.4 -68.95 -7.4 -68.95 -1.1 -72.55 -1.1 M-72.95 -15.0 L-68.7 -15.0 -68.7 -9.5 -72.95 -9.5 -72.95 -15.0 M-56.75 -1.1 L-56.75 -14.9 -53.15 -14.9 -53.15 -10.0 -52.8 -10.0 Q-52.4 -10.0 -52.15 -10.65 L-51.25 -13.85 -47.65 -13.85 -49.0 -8.55 Q-49.5 -6.7 -51.6 -6.7 L-53.15 -6.7 -53.15 -5.55 -49.95 -5.55 -49.1 -1.8 Q-48.9 -1.1 -48.55 -1.1 L-52.5 -1.1 -53.15 -3.7 -53.15 -1.1 -56.75 -1.1 M-42.35 -1.1 L-42.35 -5.2 -43.5 -5.2 -43.5 -8.7 -38.8 -8.7 -38.8 -1.1 -42.35 -1.1 M-42.8 -15.0 L-38.7 -15.0 -38.7 -10.2 -42.8 -10.2 -42.8 -15.0 M-24.3 -15.0 L-20.3 -15.0 -20.3 -13.35 -16.9 -13.35 -16.9 -10.35 -27.45 -10.35 -27.45 -13.35 -24.3 -13.35 -24.3 -15.0 M-33.8 -11.5 L-33.8 -7.75 -31.9 -7.75 Q-31.2 -7.75 -31.2 -8.45 L-31.2 -11.5 -33.8 -11.5 M-37.3 -1.1 L-37.3 -14.65 -27.8 -14.65 -27.8 -7.4 Q-27.8 -4.7 -30.9 -4.7 L-33.8 -4.7 -33.8 -3.1 -27.8 -3.1 -27.8 -1.1 -37.3 -1.1 M-24.05 -1.1 L-24.05 -2.35 -27.45 -2.35 -27.45 -5.4 -26.3 -5.4 -27.15 -8.95 -23.5 -8.95 -22.65 -5.4 -21.6 -5.4 -20.8 -8.95 -17.05 -8.95 -17.85 -5.4 -16.9 -5.4 -16.9 -2.35 -20.3 -2.35 -20.3 -1.1 -24.05 -1.1" fill="#ff4a4a" fill-rule="evenodd" stroke="none"/>
    <path d="M8.2 -1.1 L8.2 0.45 -4.85 0.45 -7.05 9.15 Q-7.55 11.4 -8.85 11.4 L-14.0 11.4 -14.0 8.45 -10.7 8.45 Q-10.35 8.45 -10.15 7.7 L-8.3 0.45 -14.0 0.45 -14.0 -1.1 8.2 -1.1 M12.05 -1.1 L15.55 -1.1 15.55 -1.05 Q15.75 -0.2 16.35 -0.2 L17.9 -0.2 17.9 2.7 14.7 2.7 Q13.05 2.7 12.65 1.0 L12.05 -1.1 M27.7 -1.1 L33.35 -1.1 33.35 2.0 26.8 2.0 23.25 8.2 28.75 8.2 Q29.35 8.2 29.35 7.7 L29.35 4.55 32.75 4.55 32.75 8.75 Q32.75 11.1 30.2 11.1 L19.0 11.1 19.0 8.45 22.55 2.0 18.45 2.0 18.45 -1.1 24.05 -1.1 27.7 -1.1 M41.55 -1.1 L40.95 0.3 40.95 11.3 37.4 11.3 37.4 1.95 35.75 1.95 35.75 -1.1 41.55 -1.1 M52.95 -1.1 L56.65 -1.1 56.65 8.45 Q56.65 11.3 53.15 11.3 L46.6 11.3 46.6 8.25 52.3 8.25 Q52.95 8.25 52.95 7.7 L52.95 -1.1 M71.35 -1.1 L71.35 -0.45 66.45 -0.45 64.45 8.25 67.1 8.25 Q67.7 8.25 67.7 7.75 L67.7 4.95 70.85 4.95 70.85 8.95 Q70.85 9.65 70.15 10.35 69.35 11.2 68.2 11.2 L61.1 11.2 61.1 9.05 61.3 7.5 63.05 -0.45 60.85 -0.45 60.85 -1.1 71.35 -1.1 M82.85 -1.1 L82.85 8.65 Q82.85 11.2 79.9 11.2 L77.3 11.2 77.3 8.35 78.85 8.35 Q79.5 8.35 79.5 7.75 L79.5 -1.1 82.85 -1.1 M77.05 -1.1 L76.45 7.7 Q76.2 11.4 74.9 11.4 L71.7 11.4 71.7 8.65 72.65 8.65 Q73.2 8.65 73.25 6.05 L73.75 -1.1 77.05 -1.1 M-58.5 -1.1 L-58.5 4.1 Q-58.5 5.5 -59.45 6.4 -60.2 7.25 -61.55 7.25 L-67.4 7.25 -67.4 3.85 -62.85 3.85 Q-62.15 3.85 -62.15 2.2 L-62.15 -1.1 -58.5 -1.1 M-62.95 -1.1 L-63.3 0.35 Q-63.75 2.3 -65.65 2.3 L-67.65 2.3 -67.65 -0.85 -66.85 -0.85 Q-66.65 -0.85 -66.5 -1.1 L-62.95 -1.1 M-68.95 -1.1 L-68.95 6.9 Q-68.95 8.4 -66.25 8.4 L-47.05 8.4 -47.05 11.85 -66.75 11.85 Q-68.6 11.85 -69.75 10.65 -70.4 11.85 -71.75 11.85 L-73.9 11.85 -73.9 8.4 -73.4 8.4 Q-72.55 8.4 -72.55 7.6 L-72.55 -1.1 -68.95 -1.1 M-48.55 -1.1 L-47.75 -1.1 -47.75 2.3 -49.95 2.3 Q-51.6 2.3 -52.1 0.45 L-52.5 -1.1 -48.55 -1.1 M-53.15 -1.1 L-53.15 3.05 Q-53.15 3.85 -52.3 3.85 L-47.5 3.85 -47.5 7.25 -53.15 7.25 Q-56.75 7.25 -56.75 3.85 L-56.75 -1.1 -53.15 -1.1 M-38.8 -1.1 L-38.8 8.1 Q-38.8 8.9 -36.6 8.9 L-16.9 8.9 -16.9 12.05 -37.0 12.05 Q-38.65 12.05 -39.65 11.35 -40.25 11.9 -41.65 11.9 L-43.9 11.9 -43.9 9.0 -43.15 9.0 Q-42.35 9.0 -42.35 8.3 L-42.35 -1.1 -38.8 -1.1 M-27.8 -1.1 L-27.8 5.25 Q-27.8 7.95 -30.5 7.95 L-36.25 7.95 -36.25 3.95 -38.25 4.2 -38.25 0.9 Q-37.3 0.55 -37.3 0.0 L-37.3 -1.1 -27.8 -1.1 M-20.3 -1.1 L-20.3 0.6 -17.25 0.6 -17.25 3.6 -20.3 3.6 -20.3 7.95 -24.05 7.95 -24.05 3.6 -27.15 3.6 -27.15 0.6 -24.05 0.6 -24.05 -1.1 -20.3 -1.1 M-1.75 1.85 L1.85 1.85 1.85 8.1 Q1.85 8.55 2.6 8.55 L8.35 8.55 8.35 11.45 0.4 11.45 Q-1.75 11.45 -1.75 9.75 L-1.75 1.85 M-32.85 0.0 L-32.85 4.9 -31.8 4.9 Q-31.2 4.9 -31.2 4.35 L-31.2 0.0 -32.85 0.0 M12.9 8.35 Q13.25 8.35 13.45 7.65 L14.2 4.0 17.7 4.0 16.45 9.4 Q15.95 11.3 14.1 11.3 L11.45 11.3 11.45 8.35 12.9 8.35" fill="#ff0000" fill-rule="evenodd" stroke="none"/>
    <path d="M16.25 -7.2 L17.6 -7.2 17.6 -4.25 14.6 -4.25 Q12.95 -4.25 12.55 -5.9 L11.35 -10.0 14.85 -10.0 15.45 -7.95 Q15.65 -7.2 16.25 -7.2 M44.4 -10.55 L57.95 -10.55 57.95 -7.75 44.4 -7.75 44.4 -10.55 M70.85 -6.55 L61.35 -6.55 61.35 -9.8 70.85 -9.8 70.85 -6.55 M-72.95 -15.0 L-68.7 -15.0 -68.7 -9.5 -72.95 -9.5 -72.95 -15.0 M-42.8 -15.0 L-38.7 -15.0 -38.7 -10.2 -42.8 -10.2 -42.8 -15.0 M-24.3 -15.0 L-20.3 -15.0 -20.3 -13.35 -16.9 -13.35 -16.9 -10.35 -27.45 -10.35 -27.45 -13.35 -24.3 -13.35 -24.3 -15.0 M-33.8 -11.5 L-33.8 -7.75 -31.9 -7.75 Q-31.2 -7.75 -31.2 -8.45 L-31.2 -11.5 -33.8 -11.5 M-1.75 1.85 L1.85 1.85 1.85 8.1 Q1.85 8.55 2.6 8.55 L8.35 8.55 8.35 11.45 0.4 11.45 Q-1.75 11.45 -1.75 9.75 L-1.75 1.85 M-32.85 0.0 L-32.85 4.9 -31.8 4.9 Q-31.2 4.9 -31.2 4.35 L-31.2 0.0 -32.85 0.0 M12.9 8.35 Q13.25 8.35 13.45 7.65 L14.2 4.0 17.7 4.0 16.45 9.4 Q15.95 11.3 14.1 11.3 L11.45 11.3 11.45 8.35 12.9 8.35" fill="none" stroke="#ffffff" stroke-linecap="butt" stroke-linejoin="miter-clip" stroke-miterlimit="3.0" stroke-width="6.0"/>
    <path d="M-14.0 -1.1 L-14.0 -2.7 -7.55 -2.7 -6.35 -7.65 -13.15 -7.65 -13.15 -10.65 7.35 -10.65 7.35 -7.65 -2.8 -7.65 -4.05 -2.7 8.2 -2.7 8.2 -1.1 8.2 0.45 -4.85 0.45 -7.05 9.15 Q-7.55 11.4 -8.85 11.4 L-14.0 11.4 -14.0 8.45 -10.7 8.45 Q-10.35 8.45 -10.15 7.7 L-8.3 0.45 -14.0 0.45 -14.0 -1.1 8.2 -1.1 M15.55 -1.1 L14.95 -3.1 11.45 -3.1 12.05 -1.1 15.55 -1.1 15.55 -1.05 Q15.75 -0.2 16.35 -0.2 L17.9 -0.2 17.9 2.7 14.7 2.7 Q13.05 2.7 12.65 1.0 L12.05 -1.1 M24.05 -1.1 L24.05 -5.25 18.9 -5.25 18.9 -8.35 24.05 -8.35 24.05 -10.9 27.7 -10.9 27.7 -8.35 32.85 -8.35 32.85 -5.25 27.7 -5.25 27.7 -1.1 33.35 -1.1 33.35 2.0 26.8 2.0 23.25 8.2 28.75 8.2 Q29.35 8.2 29.35 7.7 L29.35 4.55 32.75 4.55 32.75 8.75 Q32.75 11.1 30.2 11.1 L19.0 11.1 19.0 8.45 22.55 2.0 18.45 2.0 18.45 -1.1 24.05 -1.1 27.7 -1.1 M35.75 -1.1 L35.75 -1.2 37.05 -1.2 Q37.85 -1.2 38.25 -2.2 L39.1 -4.35 38.6 -4.3 36.0 -4.3 36.0 -7.45 37.15 -7.45 Q37.8 -7.45 38.1 -8.3 L39.1 -11.05 43.0 -11.05 40.85 -6.0 40.55 -5.4 43.4 -5.4 41.55 -1.1 40.95 0.3 40.95 11.3 37.4 11.3 37.4 1.95 35.75 1.95 35.75 -1.1 41.55 -1.1 M56.65 -1.1 L56.65 -2.2 58.1 -2.2 58.1 -5.15 44.0 -5.15 44.0 -2.2 52.95 -2.2 52.95 -1.1 56.65 -1.1 56.65 8.45 Q56.65 11.3 53.15 11.3 L46.6 11.3 46.6 8.25 52.3 8.25 Q52.95 8.25 52.95 7.7 L52.95 -1.1 M60.85 -1.1 L60.85 -3.65 71.35 -3.65 71.35 -1.1 71.35 -0.45 66.45 -0.45 64.45 8.25 67.1 8.25 Q67.7 8.25 67.7 7.75 L67.7 4.95 70.85 4.95 70.85 8.95 Q70.85 9.65 70.15 10.35 69.35 11.2 68.2 11.2 L61.1 11.2 61.1 9.05 61.3 7.5 63.05 -0.45 60.85 -0.45 60.85 -1.1 71.35 -1.1 M73.75 -1.1 L74.05 -6.1 71.9 -6.1 71.9 -9.1 74.2 -9.1 74.35 -11.0 77.8 -11.0 77.65 -9.1 82.85 -9.1 82.85 -1.1 82.85 8.65 Q82.85 11.2 79.9 11.2 L77.3 11.2 77.3 8.35 78.85 8.35 Q79.5 8.35 79.5 7.75 L79.5 -1.1 79.5 -6.1 77.4 -6.1 77.05 -1.1 76.45 7.7 Q76.2 11.4 74.9 11.4 L71.7 11.4 71.7 8.65 72.65 8.65 Q73.2 8.65 73.25 6.05 L73.75 -1.1 77.05 -1.1 M82.85 -1.1 L79.5 -1.1 M-66.5 -1.1 L-66.3 -1.6 -65.55 -5.3 -62.15 -5.3 -62.15 -6.85 -63.8 -6.85 Q-65.4 -6.85 -65.85 -8.5 L-67.3 -13.85 -63.55 -13.85 -62.85 -10.6 Q-62.7 -10.0 -62.4 -10.0 L-62.15 -10.0 -62.15 -14.9 -58.5 -14.9 -58.5 -1.1 -58.5 4.1 Q-58.5 5.5 -59.45 6.4 -60.2 7.25 -61.55 7.25 L-67.4 7.25 -67.4 3.85 -62.85 3.85 Q-62.15 3.85 -62.15 2.2 L-62.15 -1.1 -62.15 -4.75 -62.95 -1.1 -63.3 0.35 Q-63.75 2.3 -65.65 2.3 L-67.65 2.3 -67.65 -0.85 -66.85 -0.85 Q-66.65 -0.85 -66.5 -1.1 L-62.95 -1.1 M-72.55 -1.1 L-72.55 -3.9 -74.0 -3.9 -74.0 -7.4 -68.95 -7.4 -68.95 -1.1 -68.95 6.9 Q-68.95 8.4 -66.25 8.4 L-47.05 8.4 -47.05 11.85 -66.75 11.85 Q-68.6 11.85 -69.75 10.65 -70.4 11.85 -71.75 11.85 L-73.9 11.85 -73.9 8.4 -73.4 8.4 Q-72.55 8.4 -72.55 7.6 L-72.55 -1.1 -68.95 -1.1 M-56.75 -1.1 L-56.75 -14.9 -53.15 -14.9 -53.15 -10.0 -52.8 -10.0 Q-52.4 -10.0 -52.15 -10.65 L-51.25 -13.85 -47.65 -13.85 -49.0 -8.55 Q-49.5 -6.7 -51.6 -6.7 L-53.15 -6.7 -53.15 -5.55 -49.95 -5.55 -49.1 -1.8 Q-48.9 -1.1 -48.55 -1.1 L-47.75 -1.1 -47.75 2.3 -49.95 2.3 Q-51.6 2.3 -52.1 0.45 L-52.5 -1.1 -53.15 -3.7 -53.15 -1.1 -53.15 3.05 Q-53.15 3.85 -52.3 3.85 L-47.5 3.85 -47.5 7.25 -53.15 7.25 Q-56.75 7.25 -56.75 3.85 L-56.75 -1.1 -53.15 -1.1 M-42.35 -1.1 L-42.35 -5.2 -43.5 -5.2 -43.5 -8.7 -38.8 -8.7 -38.8 -1.1 -38.8 8.1 Q-38.8 8.9 -36.6 8.9 L-16.9 8.9 -16.9 12.05 -37.0 12.05 Q-38.65 12.05 -39.65 11.35 -40.25 11.9 -41.65 11.9 L-43.9 11.9 -43.9 9.0 -43.15 9.0 Q-42.35 9.0 -42.35 8.3 L-42.35 -1.1 -38.8 -1.1 M-58.5 -1.1 L-62.15 -1.1 M-37.3 -1.1 L-37.3 -14.65 -27.8 -14.65 -27.8 -7.4 Q-27.8 -4.7 -30.9 -4.7 L-33.8 -4.7 -33.8 -3.1 -27.8 -3.1 -27.8 -1.1 -27.8 5.25 Q-27.8 7.95 -30.5 7.95 L-36.25 7.95 -36.25 3.95 -38.25 4.2 -38.25 0.9 Q-37.3 0.55 -37.3 0.0 L-37.3 -1.1 -27.8 -1.1 M-24.05 -1.1 L-24.05 -2.35 -27.45 -2.35 -27.45 -5.4 -26.3 -5.4 -27.15 -8.95 -23.5 -8.95 -22.65 -5.4 -21.6 -5.4 -20.8 -8.95 -17.05 -8.95 -17.85 -5.4 -16.9 -5.4 -16.9 -2.35 -20.3 -2.35 -20.3 -1.1 -20.3 0.6 -17.25 0.6 -17.25 3.6 -20.3 3.6 -20.3 7.95 -24.05 7.95 -24.05 3.6 -27.15 3.6 -27.15 0.6 -24.05 0.6 -24.05 -1.1 -20.3 -1.1" fill="none" stroke="#ffffff" stroke-linecap="round" stroke-linejoin="miter-clip" stroke-miterlimit="3.0" stroke-width="6.0"/>
    <path d="M-48.55 -1.1 L-52.5 -1.1" fill="none" stroke="#ffffff" stroke-linecap="butt" stroke-linejoin="miter-clip" stroke-miterlimit="3.0" stroke-width="6.0"/>
    <path d="M-14.0 -1.1 L-14.0 -2.7 -7.55 -2.7 -6.35 -7.65 -13.15 -7.65 -13.15 -10.65 7.35 -10.65 7.35 -7.65 -2.8 -7.65 -4.05 -2.7 8.2 -2.7 8.2 -1.1 -14.0 -1.1 M16.25 -7.2 L17.6 -7.2 17.6 -4.25 14.6 -4.25 Q12.95 -4.25 12.55 -5.9 L11.35 -10.0 14.85 -10.0 15.45 -7.95 Q15.65 -7.2 16.25 -7.2 M12.05 -1.1 L11.45 -3.1 14.95 -3.1 15.55 -1.1 12.05 -1.1 M24.05 -1.1 L24.05 -5.25 18.9 -5.25 18.9 -8.35 24.05 -8.35 24.05 -10.9 27.7 -10.9 27.7 -8.35 32.85 -8.35 32.85 -5.25 27.7 -5.25 27.7 -1.1 24.05 -1.1 M35.75 -1.1 L35.75 -1.2 37.05 -1.2 Q37.85 -1.2 38.25 -2.2 L39.1 -4.35 38.6 -4.3 36.0 -4.3 36.0 -7.45 37.15 -7.45 Q37.8 -7.45 38.1 -8.3 L39.1 -11.05 43.0 -11.05 40.85 -6.0 40.55 -5.4 43.4 -5.4 41.55 -1.1 35.75 -1.1 M52.95 -1.1 L52.95 -2.2 44.0 -2.2 44.0 -5.15 58.1 -5.15 58.1 -2.2 56.65 -2.2 56.65 -1.1 52.95 -1.1 M44.4 -10.55 L57.95 -10.55 57.95 -7.75 44.4 -7.75 44.4 -10.55 M70.85 -6.55 L61.35 -6.55 61.35 -9.8 70.85 -9.8 70.85 -6.55 M60.85 -1.1 L60.85 -3.65 71.35 -3.65 71.35 -1.1 60.85 -1.1 M73.75 -1.1 L74.05 -6.1 71.9 -6.1 71.9 -9.1 74.2 -9.1 74.35 -11.0 77.8 -11.0 77.65 -9.1 82.85 -9.1 82.85 -1.1 79.5 -1.1 79.5 -6.1 77.4 -6.1 77.05 -1.1 73.75 -1.1 M-66.5 -1.1 L-66.3 -1.6 -65.55 -5.3 -62.15 -5.3 -62.15 -6.85 -63.8 -6.85 Q-65.4 -6.85 -65.85 -8.5 L-67.3 -13.85 -63.55 -13.85 -62.85 -10.6 Q-62.7 -10.0 -62.4 -10.0 L-62.15 -10.0 -62.15 -14.9 -58.5 -14.9 -58.5 -1.1 -62.15 -1.1 -62.15 -4.75 -62.95 -1.1 -66.5 -1.1 M-72.55 -1.1 L-72.55 -3.9 -74.0 -3.9 -74.0 -7.4 -68.95 -7.4 -68.95 -1.1 -72.55 -1.1 M-72.95 -15.0 L-68.7 -15.0 -68.7 -9.5 -72.95 -9.5 -72.95 -15.0 M-56.75 -1.1 L-56.75 -14.9 -53.15 -14.9 -53.15 -10.0 -52.8 -10.0 Q-52.4 -10.0 -52.15 -10.65 L-51.25 -13.85 -47.65 -13.85 -49.0 -8.55 Q-49.5 -6.7 -51.6 -6.7 L-53.15 -6.7 -53.15 -5.55 -49.95 -5.55 -49.1 -1.8 Q-48.9 -1.1 -48.55 -1.1 L-52.5 -1.1 -53.15 -3.7 -53.15 -1.1 -56.75 -1.1 M-42.35 -1.1 L-42.35 -5.2 -43.5 -5.2 -43.5 -8.7 -38.8 -8.7 -38.8 -1.1 -42.35 -1.1 M-42.8 -15.0 L-38.7 -15.0 -38.7 -10.2 -42.8 -10.2 -42.8 -15.0 M-24.3 -15.0 L-20.3 -15.0 -20.3 -13.35 -16.9 -13.35 -16.9 -10.35 -27.45 -10.35 -27.45 -13.35 -24.3 -13.35 -24.3 -15.0 M-33.8 -11.5 L-33.8 -7.75 -31.9 -7.75 Q-31.2 -7.75 -31.2 -8.45 L-31.2 -11.5 -33.8 -11.5 M-37.3 -1.1 L-37.3 -14.65 -27.8 -14.65 -27.8 -7.4 Q-27.8 -4.7 -30.9 -4.7 L-33.8 -4.7 -33.8 -3.1 -27.8 -3.1 -27.8 -1.1 -37.3 -1.1 M-24.05 -1.1 L-24.05 -2.35 -27.45 -2.35 -27.45 -5.4 -26.3 -5.4 -27.15 -8.95 -23.5 -8.95 -22.65 -5.4 -21.6 -5.4 -20.8 -8.95 -17.05 -8.95 -17.85 -5.4 -16.9 -5.4 -16.9 -2.35 -20.3 -2.35 -20.3 -1.1 -24.05 -1.1" fill="#ff4a4a" fill-rule="evenodd" stroke="none"/>
    <path d="M8.2 -1.1 L8.2 0.45 -4.85 0.45 -7.05 9.15 Q-7.55 11.4 -8.85 11.4 L-14.0 11.4 -14.0 8.45 -10.7 8.45 Q-10.35 8.45 -10.15 7.7 L-8.3 0.45 -14.0 0.45 -14.0 -1.1 8.2 -1.1 M12.05 -1.1 L15.55 -1.1 15.55 -1.05 Q15.75 -0.2 16.35 -0.2 L17.9 -0.2 17.9 2.7 14.7 2.7 Q13.05 2.7 12.65 1.0 L12.05 -1.1 M27.7 -1.1 L33.35 -1.1 33.35 2.0 26.8 2.0 23.25 8.2 28.75 8.2 Q29.35 8.2 29.35 7.7 L29.35 4.55 32.75 4.55 32.75 8.75 Q32.75 11.1 30.2 11.1 L19.0 11.1 19.0 8.45 22.55 2.0 18.45 2.0 18.45 -1.1 24.05 -1.1 27.7 -1.1 M41.55 -1.1 L40.95 0.3 40.95 11.3 37.4 11.3 37.4 1.95 35.75 1.95 35.75 -1.1 41.55 -1.1 M56.65 -1.1 L56.65 8.45 Q56.65 11.3 53.15 11.3 L46.6 11.3 46.6 8.25 52.3 8.25 Q52.95 8.25 52.95 7.7 L52.95 -1.1 56.65 -1.1 M71.35 -1.1 L71.35 -0.45 66.45 -0.45 64.45 8.25 67.1 8.25 Q67.7 8.25 67.7 7.75 L67.7 4.95 70.85 4.95 70.85 8.95 Q70.85 9.65 70.15 10.35 69.35 11.2 68.2 11.2 L61.1 11.2 61.1 9.05 61.3 7.5 63.05 -0.45 60.85 -0.45 60.85 -1.1 71.35 -1.1 M82.85 -1.1 L82.85 8.65 Q82.85 11.2 79.9 11.2 L77.3 11.2 77.3 8.35 78.85 8.35 Q79.5 8.35 79.5 7.75 L79.5 -1.1 82.85 -1.1 M77.05 -1.1 L76.45 7.7 Q76.2 11.4 74.9 11.4 L71.7 11.4 71.7 8.65 72.65 8.65 Q73.2 8.65 73.25 6.05 L73.75 -1.1 77.05 -1.1 M-58.5 -1.1 L-58.5 4.1 Q-58.5 5.5 -59.45 6.4 -60.2 7.25 -61.55 7.25 L-67.4 7.25 -67.4 3.85 -62.85 3.85 Q-62.15 3.85 -62.15 2.2 L-62.15 -1.1 -58.5 -1.1 M-62.95 -1.1 L-63.3 0.35 Q-63.75 2.3 -65.65 2.3 L-67.65 2.3 -67.65 -0.85 -66.85 -0.85 Q-66.65 -0.85 -66.5 -1.1 L-62.95 -1.1 M-68.95 -1.1 L-68.95 6.9 Q-68.95 8.4 -66.25 8.4 L-47.05 8.4 -47.05 11.85 -66.75 11.85 Q-68.6 11.85 -69.75 10.65 -70.4 11.85 -71.75 11.85 L-73.9 11.85 -73.9 8.4 -73.4 8.4 Q-72.55 8.4 -72.55 7.6 L-72.55 -1.1 -68.95 -1.1 M-48.55 -1.1 L-47.75 -1.1 -47.75 2.3 -49.95 2.3 Q-51.6 2.3 -52.1 0.45 L-52.5 -1.1 -48.55 -1.1 M-53.15 -1.1 L-53.15 3.05 Q-53.15 3.85 -52.3 3.85 L-47.5 3.85 -47.5 7.25 -53.15 7.25 Q-56.75 7.25 -56.75 3.85 L-56.75 -1.1 -53.15 -1.1 M-38.8 -1.1 L-38.8 8.1 Q-38.8 8.9 -36.6 8.9 L-16.9 8.9 -16.9 12.05 -37.0 12.05 Q-38.65 12.05 -39.65 11.35 -40.25 11.9 -41.65 11.9 L-43.9 11.9 -43.9 9.0 -43.15 9.0 Q-42.35 9.0 -42.35 8.3 L-42.35 -1.1 -38.8 -1.1 M-27.8 -1.1 L-27.8 5.25 Q-27.8 7.95 -30.5 7.95 L-36.25 7.95 -36.25 3.95 -38.25 4.2 -38.25 0.9 Q-37.3 0.55 -37.3 0.0 L-37.3 -1.1 -27.8 -1.1 M-20.3 -1.1 L-20.3 0.6 -17.25 0.6 -17.25 3.6 -20.3 3.6 -20.3 7.95 -24.05 7.95 -24.05 3.6 -27.15 3.6 -27.15 0.6 -24.05 0.6 -24.05 -1.1 -20.3 -1.1 M-1.75 1.85 L1.85 1.85 1.85 8.1 Q1.85 8.55 2.6 8.55 L8.35 8.55 8.35 11.45 0.4 11.45 Q-1.75 11.45 -1.75 9.75 L-1.75 1.85 M-32.85 0.0 L-32.85 4.9 -31.8 4.9 Q-31.2 4.9 -31.2 4.35 L-31.2 0.0 -32.85 0.0 M12.9 8.35 Q13.25 8.35 13.45 7.65 L14.2 4.0 17.7 4.0 16.45 9.4 Q15.95 11.3 14.1 11.3 L11.45 11.3 11.45 8.35 12.9 8.35" fill="#ff0000" fill-rule="evenodd" stroke="none"/>
    <path d="M16.25 -7.2 L17.6 -7.2 17.6 -4.25 14.6 -4.25 Q12.95 -4.25 12.55 -5.9 L11.35 -10.0 14.85 -10.0 15.45 -7.95 Q15.65 -7.2 16.25 -7.2 M44.4 -10.55 L57.95 -10.55 57.95 -7.75 44.4 -7.75 44.4 -10.55 M70.85 -6.55 L61.35 -6.55 61.35 -9.8 70.85 -9.8 70.85 -6.55 M-72.95 -15.0 L-68.7 -15.0 -68.7 -9.5 -72.95 -9.5 -72.95 -15.0 M-42.8 -15.0 L-38.7 -15.0 -38.7 -10.2 -42.8 -10.2 -42.8 -15.0 M-24.3 -15.0 L-20.3 -15.0 -20.3 -13.35 -16.9 -13.35 -16.9 -10.35 -27.45 -10.35 -27.45 -13.35 -24.3 -13.35 -24.3 -15.0 M-33.8 -11.5 L-33.8 -7.75 -31.9 -7.75 Q-31.2 -7.75 -31.2 -8.45 L-31.2 -11.5 -33.8 -11.5 M-1.75 1.85 L1.85 1.85 1.85 8.1 Q1.85 8.55 2.6 8.55 L8.35 8.55 8.35 11.45 0.4 11.45 Q-1.75 11.45 -1.75 9.75 L-1.75 1.85 M-32.85 0.0 L-32.85 4.9 -31.8 4.9 Q-31.2 4.9 -31.2 4.35 L-31.2 0.0 -32.85 0.0 M12.9 8.35 Q13.25 8.35 13.45 7.65 L14.2 4.0 17.7 4.0 16.45 9.4 Q15.95 11.3 14.1 11.3 L11.45 11.3 11.45 8.35 12.9 8.35" fill="none" stroke="#330000" stroke-linecap="butt" stroke-linejoin="miter-clip" stroke-miterlimit="3.0" stroke-width="3.0"/>
    <path d="M-14.0 -1.1 L-14.0 -2.7 -7.55 -2.7 -6.35 -7.65 -13.15 -7.65 -13.15 -10.65 7.35 -10.65 7.35 -7.65 -2.8 -7.65 -4.05 -2.7 8.2 -2.7 8.2 -1.1 8.2 0.45 -4.85 0.45 -7.05 9.15 Q-7.55 11.4 -8.85 11.4 L-14.0 11.4 -14.0 8.45 -10.7 8.45 Q-10.35 8.45 -10.15 7.7 L-8.3 0.45 -14.0 0.45 -14.0 -1.1 8.2 -1.1 M15.55 -1.1 L14.95 -3.1 11.45 -3.1 12.05 -1.1 15.55 -1.1 15.55 -1.05 Q15.75 -0.2 16.35 -0.2 L17.9 -0.2 17.9 2.7 14.7 2.7 Q13.05 2.7 12.65 1.0 L12.05 -1.1 M24.05 -1.1 L24.05 -5.25 18.9 -5.25 18.9 -8.35 24.05 -8.35 24.05 -10.9 27.7 -10.9 27.7 -8.35 32.85 -8.35 32.85 -5.25 27.7 -5.25 27.7 -1.1 33.35 -1.1 33.35 2.0 26.8 2.0 23.25 8.2 28.75 8.2 Q29.35 8.2 29.35 7.7 L29.35 4.55 32.75 4.55 32.75 8.75 Q32.75 11.1 30.2 11.1 L19.0 11.1 19.0 8.45 22.55 2.0 18.45 2.0 18.45 -1.1 24.05 -1.1 27.7 -1.1 M35.75 -1.1 L35.75 -1.2 37.05 -1.2 Q37.85 -1.2 38.25 -2.2 L39.1 -4.35 38.6 -4.3 36.0 -4.3 36.0 -7.45 37.15 -7.45 Q37.8 -7.45 38.1 -8.3 L39.1 -11.05 43.0 -11.05 40.85 -6.0 40.55 -5.4 43.4 -5.4 41.55 -1.1 40.95 0.3 40.95 11.3 37.4 11.3 37.4 1.95 35.75 1.95 35.75 -1.1 41.55 -1.1 M52.95 -1.1 L52.95 -2.2 44.0 -2.2 44.0 -5.15 58.1 -5.15 58.1 -2.2 56.65 -2.2 56.65 -1.1 56.65 8.45 Q56.65 11.3 53.15 11.3 L46.6 11.3 46.6 8.25 52.3 8.25 Q52.95 8.25 52.95 7.7 L52.95 -1.1 56.65 -1.1 M60.85 -1.1 L60.85 -3.65 71.35 -3.65 71.35 -1.1 71.35 -0.45 66.45 -0.45 64.45 8.25 67.1 8.25 Q67.7 8.25 67.7 7.75 L67.7 4.95 70.85 4.95 70.85 8.95 Q70.85 9.65 70.15 10.35 69.35 11.2 68.2 11.2 L61.1 11.2 61.1 9.05 61.3 7.5 63.05 -0.45 60.85 -0.45 60.85 -1.1 71.35 -1.1 M73.75 -1.1 L74.05 -6.1 71.9 -6.1 71.9 -9.1 74.2 -9.1 74.35 -11.0 77.8 -11.0 77.65 -9.1 82.85 -9.1 82.85 -1.1 82.85 8.65 Q82.85 11.2 79.9 11.2 L77.3 11.2 77.3 8.35 78.85 8.35 Q79.5 8.35 79.5 7.75 L79.5 -1.1 79.5 -6.1 77.4 -6.1 77.05 -1.1 76.45 7.7 Q76.2 11.4 74.9 11.4 L71.7 11.4 71.7 8.65 72.65 8.65 Q73.2 8.65 73.25 6.05 L73.75 -1.1 77.05 -1.1 M82.85 -1.1 L79.5 -1.1 M-66.5 -1.1 L-66.3 -1.6 -65.55 -5.3 -62.15 -5.3 -62.15 -6.85 -63.8 -6.85 Q-65.4 -6.85 -65.85 -8.5 L-67.3 -13.85 -63.55 -13.85 -62.85 -10.6 Q-62.7 -10.0 -62.4 -10.0 L-62.15 -10.0 -62.15 -14.9 -58.5 -14.9 -58.5 -1.1 -58.5 4.1 Q-58.5 5.5 -59.45 6.4 -60.2 7.25 -61.55 7.25 L-67.4 7.25 -67.4 3.85 -62.85 3.85 Q-62.15 3.85 -62.15 2.2 L-62.15 -1.1 -62.15 -4.75 -62.95 -1.1 -63.3 0.35 Q-63.75 2.3 -65.65 2.3 L-67.65 2.3 -67.65 -0.85 -66.85 -0.85 Q-66.65 -0.85 -66.5 -1.1 L-62.95 -1.1 M-72.55 -1.1 L-72.55 -3.9 -74.0 -3.9 -74.0 -7.4 -68.95 -7.4 -68.95 -1.1 -68.95 6.9 Q-68.95 8.4 -66.25 8.4 L-47.05 8.4 -47.05 11.85 -66.75 11.85 Q-68.6 11.85 -69.75 10.65 -70.4 11.85 -71.75 11.85 L-73.9 11.85 -73.9 8.4 -73.4 8.4 Q-72.55 8.4 -72.55 7.6 L-72.55 -1.1 -68.95 -1.1 M-56.75 -1.1 L-56.75 -14.9 -53.15 -14.9 -53.15 -10.0 -52.8 -10.0 Q-52.4 -10.0 -52.15 -10.65 L-51.25 -13.85 -47.65 -13.85 -49.0 -8.55 Q-49.5 -6.7 -51.6 -6.7 L-53.15 -6.7 -53.15 -5.55 -49.95 -5.55 -49.1 -1.8 Q-48.9 -1.1 -48.55 -1.1 L-47.75 -1.1 -47.75 2.3 -49.95 2.3 Q-51.6 2.3 -52.1 0.45 L-52.5 -1.1 -53.15 -3.7 -53.15 -1.1 -53.15 3.05 Q-53.15 3.85 -52.3 3.85 L-47.5 3.85 -47.5 7.25 -53.15 7.25 Q-56.75 7.25 -56.75 3.85 L-56.75 -1.1 -53.15 -1.1 M-42.35 -1.1 L-42.35 -5.2 -43.5 -5.2 -43.5 -8.7 -38.8 -8.7 -38.8 -1.1 -38.8 8.1 Q-38.8 8.9 -36.6 8.9 L-16.9 8.9 -16.9 12.05 -37.0 12.05 Q-38.65 12.05 -39.65 11.35 -40.25 11.9 -41.65 11.9 L-43.9 11.9 -43.9 9.0 -43.15 9.0 Q-42.35 9.0 -42.35 8.3 L-42.35 -1.1 -38.8 -1.1 M-58.5 -1.1 L-62.15 -1.1 M-37.3 -1.1 L-37.3 -14.65 -27.8 -14.65 -27.8 -7.4 Q-27.8 -4.7 -30.9 -4.7 L-33.8 -4.7 -33.8 -3.1 -27.8 -3.1 -27.8 -1.1 -27.8 5.25 Q-27.8 7.95 -30.5 7.95 L-36.25 7.95 -36.25 3.95 -38.25 4.2 -38.25 0.9 Q-37.3 0.55 -37.3 0.0 L-37.3 -1.1 -27.8 -1.1 M-24.05 -1.1 L-24.05 -2.35 -27.45 -2.35 -27.45 -5.4 -26.3 -5.4 -27.15 -8.95 -23.5 -8.95 -22.65 -5.4 -21.6 -5.4 -20.8 -8.95 -17.05 -8.95 -17.85 -5.4 -16.9 -5.4 -16.9 -2.35 -20.3 -2.35 -20.3 -1.1 -20.3 0.6 -17.25 0.6 -17.25 3.6 -20.3 3.6 -20.3 7.95 -24.05 7.95 -24.05 3.6 -27.15 3.6 -27.15 0.6 -24.05 0.6 -24.05 -1.1 -20.3 -1.1" fill="none" stroke="#330000" stroke-linecap="round" stroke-linejoin="miter-clip" stroke-miterlimit="3.0" stroke-width="3.0"/>
    <path d="M-48.55 -1.1 L-52.5 -1.1" fill="none" stroke="#330000" stroke-linecap="butt" stroke-linejoin="miter-clip" stroke-miterlimit="3.0" stroke-width="3.0"/>
    <path d="M-14.0 -1.1 L-14.0 -2.7 -7.55 -2.7 -6.35 -7.65 -13.15 -7.65 -13.15 -10.65 7.35 -10.65 7.35 -7.65 -2.8 -7.65 -4.05 -2.7 8.2 -2.7 8.2 -1.1 -14.0 -1.1 M16.25 -7.2 L17.6 -7.2 17.6 -4.25 14.6 -4.25 Q12.95 -4.25 12.55 -5.9 L11.35 -10.0 14.85 -10.0 15.45 -7.95 Q15.65 -7.2 16.25 -7.2 M12.05 -1.1 L11.45 -3.1 14.95 -3.1 15.55 -1.1 12.05 -1.1 M24.05 -1.1 L24.05 -5.25 18.9 -5.25 18.9 -8.35 24.05 -8.35 24.05 -10.9 27.7 -10.9 27.7 -8.35 32.85 -8.35 32.85 -5.25 27.7 -5.25 27.7 -1.1 24.05 -1.1 M35.75 -1.1 L35.75 -1.2 37.05 -1.2 Q37.85 -1.2 38.25 -2.2 L39.1 -4.35 38.6 -4.3 36.0 -4.3 36.0 -7.45 37.15 -7.45 Q37.8 -7.45 38.1 -8.3 L39.1 -11.05 43.0 -11.05 40.85 -6.0 40.55 -5.4 43.4 -5.4 41.55 -1.1 35.75 -1.1 M52.95 -1.1 L52.95 -2.2 44.0 -2.2 44.0 -5.15 58.1 -5.15 58.1 -2.2 56.65 -2.2 56.65 -1.1 52.95 -1.1 M44.4 -10.55 L57.95 -10.55 57.95 -7.75 44.4 -7.75 44.4 -10.55 M61.35 -6.55 L61.35 -9.8 70.85 -9.8 70.85 -6.55 61.35 -6.55 M60.85 -1.1 L60.85 -3.65 71.35 -3.65 71.35 -1.1 60.85 -1.1 M73.75 -1.1 L74.05 -6.1 71.9 -6.1 71.9 -9.1 74.2 -9.1 74.35 -11.0 77.8 -11.0 77.65 -9.1 82.85 -9.1 82.85 -1.1 79.5 -1.1 79.5 -6.1 77.4 -6.1 77.05 -1.1 73.75 -1.1 M-66.5 -1.1 L-66.3 -1.6 -65.55 -5.3 -62.15 -5.3 -62.15 -6.85 -63.8 -6.85 Q-65.4 -6.85 -65.85 -8.5 L-67.3 -13.85 -63.55 -13.85 -62.85 -10.6 Q-62.7 -10.0 -62.4 -10.0 L-62.15 -10.0 -62.15 -14.9 -58.5 -14.9 -58.5 -1.1 -62.15 -1.1 -62.15 -4.75 -62.95 -1.1 -66.5 -1.1 M-72.55 -1.1 L-72.55 -3.9 -74.0 -3.9 -74.0 -7.4 -68.95 -7.4 -68.95 -1.1 -72.55 -1.1 M-68.7 -9.5 L-72.95 -9.5 -72.95 -15.0 -68.7 -15.0 -68.7 -9.5 M-56.75 -1.1 L-56.75 -14.9 -53.15 -14.9 -53.15 -10.0 -52.8 -10.0 Q-52.4 -10.0 -52.15 -10.65 L-51.25 -13.85 -47.65 -13.85 -49.0 -8.55 Q-49.5 -6.7 -51.6 -6.7 L-53.15 -6.7 -53.15 -5.55 -49.95 -5.55 -49.1 -1.8 Q-48.9 -1.1 -48.55 -1.1 L-52.5 -1.1 -53.15 -3.7 -53.15 -1.1 -56.75 -1.1 M-42.35 -1.1 L-42.35 -5.2 -43.5 -5.2 -43.5 -8.7 -38.8 -8.7 -38.8 -1.1 -42.35 -1.1 M-42.8 -15.0 L-38.7 -15.0 -38.7 -10.2 -42.8 -10.2 -42.8 -15.0 M-24.3 -13.35 L-24.3 -15.0 -20.3 -15.0 -20.3 -13.35 -16.9 -13.35 -16.9 -10.35 -27.45 -10.35 -27.45 -13.35 -24.3 -13.35 M-33.8 -11.5 L-33.8 -7.75 -31.9 -7.75 Q-31.2 -7.75 -31.2 -8.45 L-31.2 -11.5 -33.8 -11.5 M-37.3 -1.1 L-37.3 -14.65 -27.8 -14.65 -27.8 -7.4 Q-27.8 -4.7 -30.9 -4.7 L-33.8 -4.7 -33.8 -3.1 -27.8 -3.1 -27.8 -1.1 -37.3 -1.1 M-24.05 -1.1 L-24.05 -2.35 -27.45 -2.35 -27.45 -5.4 -26.3 -5.4 -27.15 -8.95 -23.5 -8.95 -22.65 -5.4 -21.6 -5.4 -20.8 -8.95 -17.05 -8.95 -17.85 -5.4 -16.9 -5.4 -16.9 -2.35 -20.3 -2.35 -20.3 -1.1 -24.05 -1.1" fill="#ff4a4a" fill-rule="evenodd" stroke="none"/>
    <path d="M8.2 -1.1 L8.2 0.45 -4.85 0.45 -7.05 9.15 Q-7.55 11.4 -8.85 11.4 L-14.0 11.4 -14.0 8.45 -10.7 8.45 Q-10.35 8.45 -10.15 7.7 L-8.3 0.45 -14.0 0.45 -14.0 -1.1 8.2 -1.1 M15.55 -1.1 L15.55 -1.05 Q15.75 -0.2 16.35 -0.2 L17.9 -0.2 17.9 2.7 14.7 2.7 Q13.05 2.7 12.65 1.0 L12.05 -1.1 15.55 -1.1 M27.7 -1.1 L33.35 -1.1 33.35 2.0 26.8 2.0 23.25 8.2 28.75 8.2 Q29.35 8.2 29.35 7.7 L29.35 4.55 32.75 4.55 32.75 8.75 Q32.75 11.1 30.2 11.1 L19.0 11.1 19.0 8.45 22.55 2.0 18.45 2.0 18.45 -1.1 24.05 -1.1 27.7 -1.1 M41.55 -1.1 L40.95 0.3 40.95 11.3 37.4 11.3 37.4 1.95 35.75 1.95 35.75 -1.1 41.55 -1.1 M56.65 -1.1 L56.65 8.45 Q56.65 11.3 53.15 11.3 L46.6 11.3 46.6 8.25 52.3 8.25 Q52.95 8.25 52.95 7.7 L52.95 -1.1 56.65 -1.1 M71.35 -1.1 L71.35 -0.45 66.45 -0.45 64.45 8.25 67.1 8.25 Q67.7 8.25 67.7 7.75 L67.7 4.95 70.85 4.95 70.85 8.95 Q70.85 9.65 70.15 10.35 69.35 11.2 68.2 11.2 L61.1 11.2 61.1 9.05 61.3 7.5 63.05 -0.45 60.85 -0.45 60.85 -1.1 71.35 -1.1 M82.85 -1.1 L82.85 8.65 Q82.85 11.2 79.9 11.2 L77.3 11.2 77.3 8.35 78.85 8.35 Q79.5 8.35 79.5 7.75 L79.5 -1.1 82.85 -1.1 M77.05 -1.1 L76.45 7.7 Q76.2 11.4 74.9 11.4 L71.7 11.4 71.7 8.65 72.65 8.65 Q73.2 8.65 73.25 6.05 L73.75 -1.1 77.05 -1.1 M-58.5 -1.1 L-58.5 4.1 Q-58.5 5.5 -59.45 6.4 -60.2 7.25 -61.55 7.25 L-67.4 7.25 -67.4 3.85 -62.85 3.85 Q-62.15 3.85 -62.15 2.2 L-62.15 -1.1 -58.5 -1.1 M-62.95 -1.1 L-63.3 0.35 Q-63.75 2.3 -65.65 2.3 L-67.65 2.3 -67.65 -0.85 -66.85 -0.85 Q-66.65 -0.85 -66.5 -1.1 L-62.95 -1.1 M-68.95 -1.1 L-68.95 6.9 Q-68.95 8.4 -66.25 8.4 L-47.05 8.4 -47.05 11.85 -66.75 11.85 Q-68.6 11.85 -69.75 10.65 -70.4 11.85 -71.75 11.85 L-73.9 11.85 -73.9 8.4 -73.4 8.4 Q-72.55 8.4 -72.55 7.6 L-72.55 -1.1 -68.95 -1.1 M-48.55 -1.1 L-47.75 -1.1 -47.75 2.3 -49.95 2.3 Q-51.6 2.3 -52.1 0.45 L-52.5 -1.1 -48.55 -1.1 M-53.15 -1.1 L-53.15 3.05 Q-53.15 3.85 -52.3 3.85 L-47.5 3.85 -47.5 7.25 -53.15 7.25 Q-56.75 7.25 -56.75 3.85 L-56.75 -1.1 -53.15 -1.1 M-38.8 -1.1 L-38.8 8.1 Q-38.8 8.9 -36.6 8.9 L-16.9 8.9 -16.9 12.05 -37.0 12.05 Q-38.65 12.05 -39.65 11.35 -40.25 11.9 -41.65 11.9 L-43.9 11.9 -43.9 9.0 -43.15 9.0 Q-42.35 9.0 -42.35 8.3 L-42.35 -1.1 -38.8 -1.1 M-27.8 -1.1 L-27.8 5.25 Q-27.8 7.95 -30.5 7.95 L-36.25 7.95 -36.25 3.95 -38.25 4.2 -38.25 0.9 Q-37.3 0.55 -37.3 0.0 L-37.3 -1.1 -27.8 -1.1 M-20.3 -1.1 L-20.3 0.6 -17.25 0.6 -17.25 3.6 -20.3 3.6 -20.3 7.95 -24.05 7.95 -24.05 3.6 -27.15 3.6 -27.15 0.6 -24.05 0.6 -24.05 -1.1 -20.3 -1.1 M-1.75 1.85 L1.85 1.85 1.85 8.1 Q1.85 8.55 2.6 8.55 L8.35 8.55 8.35 11.45 0.4 11.45 Q-1.75 11.45 -1.75 9.75 L-1.75 1.85 M-31.8 4.9 Q-31.2 4.9 -31.2 4.35 L-31.2 0.0 -32.85 0.0 -32.85 4.9 -31.8 4.9 M13.45 7.65 L14.2 4.0 17.7 4.0 16.45 9.4 Q15.95 11.3 14.1 11.3 L11.45 11.3 11.45 8.35 12.9 8.35 Q13.25 8.35 13.45 7.65" fill="#ff0000" fill-rule="evenodd" stroke="none"/>
  </g>
</svg>
