<?xml version="1.0" encoding="UTF-8" standalone="no"?>
<svg xmlns:xlink="http://www.w3.org/1999/xlink" height="238.25px" width="246.1px" xmlns="http://www.w3.org/2000/svg">
  <g transform="matrix(1.0, 0.0, 0.0, 1.0, 18.6, 70.1)">
    <path d="M2.25 -10.4 L10.95 -10.4 31.55 10.85 27.1 10.85 38.15 21.75 13.3 1.4 6.2 1.4 0.9 -2.5 2.25 -10.4 M185.65 6.4 L181.3 21.6 150.65 34.7 165.45 26.5 159.25 19.4 149.3 24.5 177.65 6.4 185.65 6.4 M72.35 133.9 L80.0 100.45 71.3 152.1 63.3 159.4 56.75 154.0 67.15 124.3 72.35 133.9" fill="#f8a800" fill-rule="evenodd" stroke="none"/>
    <path d="M10.95 -10.4 L31.55 10.85 27.1 10.85 38.15 21.75 13.3 1.4 6.2 1.4 0.9 -2.5 2.25 -10.4 10.95 -10.4 M181.3 21.6 L150.65 34.7 165.45 26.5 159.25 19.4 149.3 24.5 177.65 6.4 185.65 6.4 181.3 21.6 M80.0 100.45 L71.3 152.1 63.3 159.4 56.75 154.0 67.15 124.3 72.35 133.9 80.0 100.45" fill="#c2c2c2" fill-rule="evenodd" stroke="none"/>
    <path d="M12.15 -11.45 L40.25 16.85 36.0 16.85 58.85 39.15 18.75 8.25 12.4 8.25 -0.55 -1.7 1.5 -11.45 12.15 -11.45 M10.95 -10.4 L2.25 -10.4 0.9 -2.5 6.2 1.4 13.3 1.4 38.15 21.75 27.1 10.85 31.55 10.85 10.95 -10.4 M188.2 4.15 L182.35 22.9 120.1 48.45 154.0 31.15 149.55 25.4 116.0 45.2 179.1 4.15 188.2 4.15 M181.3 21.6 L185.65 6.4 177.65 6.4 149.3 24.5 159.25 19.4 165.45 26.5 150.65 34.7 181.3 21.6 M65.55 125.75 L70.3 113.55 73.75 119.4 81.8 89.95 72.05 153.2 63.4 161.4 55.65 154.35 65.55 125.75 M80.0 100.45 L72.35 133.9 67.15 124.3 56.75 154.0 63.3 159.4 71.3 152.1 80.0 100.45" fill="#e5e5e5" fill-rule="evenodd" stroke="none"/>
    <path d="M86.45 -68.0 L86.95 -68.05 86.95 -41.15 86.45 -41.15 86.45 -68.0 M9.3 -12.45 L0.55 -12.45 22.85 10.35 -15.9 -18.0 -15.9 -24.5 -4.85 -25.5 9.3 -12.45 M20.4 -56.1 L20.4 -58.75 34.55 -32.6 20.4 -56.1 M180.45 -2.55 L147.35 20.2 179.35 -4.25 180.55 -4.05 180.45 -2.55 M214.7 -8.25 L207.65 12.45 165.9 29.8 197.4 13.5 187.65 3.75 156.75 20.05 201.9 -8.4 214.7 -8.25 M185.25 82.2 Q205.25 85.85 225.1 90.0 L223.9 91.05 Q203.9 87.1 184.1 82.0 L185.25 82.2 M171.4 166.0 Q154.05 144.6 138.0 122.35 L175.65 165.2 175.35 166.35 171.55 166.2 171.4 166.0 M65.5 164.95 L60.6 159.0 63.95 141.8 71.8 148.9 78.25 121.8 72.95 163.15 65.5 164.95 M48.65 155.05 L47.6 153.75 61.1 124.65 50.3 153.85 48.65 155.05 M-1.25 86.3 L-2.35 85.95 -2.1 85.15 18.95 80.15 -1.25 86.3" fill="#fff7ee" fill-rule="evenodd" stroke="none"/>
    <path d="M18.65 -56.15 L19.15 -63.1 70.1 30.3 18.65 -56.15 M20.4 -56.1 L34.55 -32.6 20.4 -58.75 20.4 -56.1 M15.85 -10.6 L5.2 -10.65 54.45 36.5 -18.6 -16.95 -18.6 -26.85 -3.65 -27.9 15.85 -10.6 M9.3 -12.45 L-4.85 -25.5 -15.9 -24.5 -15.9 -18.0 22.85 10.35 0.55 -12.45 9.3 -12.45 M86.45 -68.0 L86.45 -41.15 86.95 -41.15 86.95 -68.05 86.45 -68.0 M85.45 -68.75 L86.9 -70.1 87.85 -68.2 86.45 21.0 85.45 -68.75 M146.25 -31.1 L120.0 10.3 144.4 -31.1 146.25 -31.1 M179.5 -5.1 L181.9 -4.65 181.15 -2.55 Q148.75 20.65 113.75 43.8 146.5 19.0 179.3 -4.95 L179.5 -5.1 M180.55 -4.05 L179.35 -4.25 147.35 20.2 180.45 -2.55 180.55 -4.05 M217.65 -11.4 L209.4 14.25 Q173.65 28.8 136.85 42.9 L163.25 29.75 Q160.45 27.4 156.75 22.1 146.4 28.4 129.5 36.0 L203.2 -11.2 217.65 -11.4 M185.25 82.2 L184.1 82.0 Q203.9 87.1 223.9 91.05 L225.1 90.0 Q205.25 85.85 185.25 82.2 M214.7 -8.25 L201.9 -8.4 156.75 20.05 187.65 3.75 197.4 13.5 165.9 29.8 207.65 12.45 214.7 -8.25 M224.85 91.7 Q181.55 83.0 138.25 72.4 183.1 80.3 227.5 89.8 L224.85 91.7 M176.2 168.15 L171.15 167.95 Q142.25 131.25 113.75 92.85 L176.4 164.75 176.2 168.15 M67.4 77.9 L67.55 78.6 31.65 107.2 30.25 107.2 30.25 105.35 67.4 77.9 M171.55 166.2 L175.35 166.35 175.65 165.2 138.0 122.35 Q154.15 144.7 171.55 166.2 M71.2 145.95 L82.7 96.3 74.05 166.1 63.85 168.15 58.15 159.6 62.45 138.0 71.2 145.95 M-16.1 52.85 L-10.35 51.25 57.3 58.9 -16.1 52.85 M-13.05 47.8 Q-10.65 45.55 -8.85 45.75 L47.05 54.5 -13.05 47.8 M47.6 153.75 L48.65 155.05 50.3 153.85 61.1 124.65 47.6 153.75 M47.4 157.55 L45.5 155.15 73.5 95.0 50.45 155.75 47.4 157.55 M65.5 164.95 L72.95 163.15 78.25 121.8 71.8 148.9 63.95 141.8 60.6 159.0 65.5 164.95 M-2.35 85.95 L-1.25 86.3 18.95 80.15 -2.1 85.15 -2.35 85.95 M-1.05 87.25 L-3.8 86.45 -3.3 84.6 57.95 69.8 -1.05 87.25" fill="#d0d0d0" fill-rule="evenodd" stroke="none"/>
  </g>
</svg>
