<?xml version="1.0" encoding="UTF-8" standalone="no"?>
<svg xmlns:xlink="http://www.w3.org/1999/xlink" height="104.0px" width="144.6px" xmlns="http://www.w3.org/2000/svg">
  <g transform="matrix(1.0, 0.0, 0.0, 1.0, 8.6, 1.0)">
    <path d="M34.75 41.4 L34.35 41.05 Q33.8 40.5 34.8 41.4 L22.1 27.95 38.5 39.0 36.0 42.65 34.8 41.4 34.75 41.45 34.75 41.4 M45.9 12.75 L56.25 24.2 Q56.45 24.4 56.8 24.5 L57.4 24.45 57.85 24.05 61.25 18.85 56.5 30.0 45.9 12.75 M65.65 19.0 L68.65 24.05 69.05 24.4 69.6 24.5 70.15 24.3 91.8 6.75 69.5 29.0 65.65 19.0" fill="#ffc199" fill-rule="evenodd" stroke="none"/>
    <path d="M97.9 -0.75 L98.45 -1.0 99.05 -0.85 99.45 -0.35 99.5 0.25 92.9 26.7 109.3 23.05 110.0 23.15 110.45 23.75 110.4 24.45 104.45 35.9 135.3 45.55 135.85 45.95 136.0 46.55 135.8 47.15 135.25 47.5 109.0 54.15 119.95 71.0 98.5 71.0 98.5 81.0 98.35 81.55 97.9 81.95 97.3 82.0 96.8 81.7 90.25 74.75 75.9 102.45 Q75.7 102.8 75.3 102.95 L74.55 102.9 74.05 102.35 65.6 76.95 53.25 90.7 52.75 91.0 52.15 90.95 51.7 90.6 51.5 90.0 51.5 74.6 28.45 85.4 27.8 85.5 27.3 85.2 27.0 84.65 Q26.95 84.3 27.15 84.05 L37.65 64.85 27.15 66.5 26.45 66.35 Q26.1 66.1 26.05 65.7 25.95 65.3 26.2 64.95 L31.3 57.3 -8.6 41.4 29.3 38.65 17.8 26.2 17.5 25.65 Q17.45 25.3 17.65 25.05 L18.05 24.6 18.65 24.5 42.0 27.85 42.0 8.0 42.2 7.45 42.65 7.1 43.25 7.05 43.75 7.35 56.9 21.85 62.65 12.95 Q62.85 12.65 63.2 12.55 L63.85 12.55 64.35 13.0 69.8 22.0 97.9 -0.75 M34.75 41.4 L-3.8 42.1 38.0 53.5 34.0 60.5 44.0 60.5 38.0 74.5 55.5 68.25 55.5 81.5 68.0 68.0 76.0 90.5 86.8 77.0 89.1 72.55 Q89.25 72.25 89.55 72.1 L90.2 72.05 90.75 72.35 96.5 78.5 96.5 76.2 94.5 66.5 109.0 66.5 101.0 52.5 122.0 46.5 112.5 40.5 102.7 37.45 102.25 37.15 102.0 36.6 102.15 36.05 107.65 25.45 91.75 29.0 91.05 28.9 90.6 28.45 90.55 27.75 96.8 2.65 91.8 6.75 70.15 24.3 69.6 24.5 69.05 24.4 68.65 24.05 65.65 19.0 63.5 15.4 61.25 18.85 57.85 24.05 57.4 24.45 56.8 24.5 Q56.45 24.4 56.25 24.2 L45.9 12.75 44.0 10.65 44.0 29.0 43.85 29.55 43.45 29.9 42.85 30.0 21.15 26.9 22.1 27.95 34.8 41.4 Q33.8 40.5 34.35 41.05 L34.75 41.4" fill="#cc5100" fill-rule="evenodd" stroke="none"/>
    <path d="M91.8 6.75 L96.8 2.65 90.55 27.75 90.6 28.45 91.05 28.9 91.75 29.0 107.65 25.45 102.15 36.05 102.0 36.6 102.25 37.15 102.7 37.45 112.5 40.5 122.0 46.5 101.0 52.5 109.0 66.5 94.5 66.5 96.5 76.2 96.5 78.5 90.75 72.35 90.2 72.05 89.55 72.1 Q89.25 72.25 89.1 72.55 L86.8 77.0 76.0 90.5 68.0 68.0 55.5 81.5 55.5 68.25 38.0 74.5 44.0 60.5 34.0 60.5 38.0 53.5 -3.8 42.1 34.75 41.4 34.75 41.45 34.8 41.4 36.0 42.65 38.5 39.0 22.1 27.95 21.15 26.9 42.85 30.0 43.45 29.9 43.85 29.55 44.0 29.0 44.0 10.65 45.9 12.75 56.5 30.0 61.25 18.85 63.5 15.4 65.65 19.0 69.5 29.0 91.8 6.75" fill="#ff7011" fill-rule="evenodd" stroke="none"/>
  </g>
</svg>
