<?xml version="1.0" encoding="UTF-8" standalone="no"?>
<svg xmlns:xlink="http://www.w3.org/1999/xlink" height="249.6px" width="274.85px" xmlns="http://www.w3.org/2000/svg">
  <g transform="matrix(1.0, 0.0, 0.0, 1.0, 40.85, 89.85)">
    <path d="M69.75 -11.95 L73.2 7.4 59.7 -37.4 54.5 -27.85 48.8 -42.7 55.5 -54.8 61.5 -48.25 69.75 -11.95 M167.1 -12.35 Q150.7 3.65 134.4 18.1 L135.4 16.8 165.1 -12.65 166.8 -12.65 167.1 -12.35 M209.1 63.4 L207.4 65.0 168.95 63.3 209.1 63.4 M194.1 128.2 L189.7 128.3 Q172.55 117.3 156.7 105.85 L156.75 105.8 Q168.9 112.45 180.75 117.9 L180.75 112.05 188.15 116.15 194.1 128.2 M-29.8 62.75 Q-3.9 61.8 22.45 61.8 L-10.25 64.45 -5.85 69.15 35.9 68.2 -31.05 78.3 -35.55 73.55 -29.8 62.75" fill="#f8f8f8" fill-rule="evenodd" stroke="none"/>
    <path d="M72.8 -37.35 L70.9 -38.95 76.0 -9.65 72.8 -37.35 M0.9 -14.7 L0.7 -17.05 Q18.7 -0.45 29.8 11.25 16.2 -0.2 0.9 -14.7 M73.3 -37.8 L78.9 8.0 Q74.45 -14.15 70.25 -40.25 L73.3 -37.8 M65.1 -11.7 L62.35 -4.6 48.05 -42.75 55.3 -56.35 62.15 -48.95 81.5 38.5 65.1 -11.7 M48.8 -42.7 L54.5 -27.85 59.7 -37.4 73.2 7.4 69.75 -11.95 61.5 -48.25 55.5 -54.8 48.8 -42.7 M168.95 -13.95 L169.2 -13.4 Q144.25 10.9 118.6 32.9 121.25 29.55 128.3 22.6 L165.25 -14.0 168.95 -13.95 M167.1 -12.35 L166.8 -12.65 165.1 -12.65 135.4 16.8 134.4 18.1 Q150.7 3.65 167.1 -12.35 M182.2 56.05 L147.1 59.0 149.3 58.55 181.85 55.7 182.2 56.05 M208.0 65.9 L138.15 63.2 168.95 63.3 207.4 65.0 209.1 63.4 209.95 63.4 208.1 65.75 208.0 65.9 M188.15 116.15 L180.75 112.05 180.75 117.9 Q168.9 112.45 156.75 105.8 L156.0 105.35 156.7 105.85 Q172.55 117.3 189.7 128.3 L194.1 128.2 188.15 116.15 M195.5 129.3 L190.1 129.5 Q151.7 105.6 114.95 80.6 143.5 95.75 171.15 112.35 L171.2 106.55 187.95 114.65 195.5 129.3 M100.1 8.15 L100.5 8.75 94.75 32.55 100.1 8.15 M33.5 67.2 L58.85 65.65 -31.9 79.4 -36.8 73.7 -30.4 61.9 Q7.75 60.45 44.85 61.0 L29.95 62.5 33.5 67.2 M57.75 80.55 Q29.15 98.05 2.35 113.3 L-1.2 115.3 -2.6 114.7 -2.6 113.2 Q25.2 97.5 57.75 80.55 M87.75 153.7 L86.5 154.95 84.85 154.15 Q85.0 128.4 86.65 104.7 87.7 128.55 87.75 153.7 M98.65 119.8 L103.0 138.95 102.45 139.25 98.65 119.8 M140.8 101.6 L138.85 101.75 123.75 89.65 140.8 101.6 M42.2 115.3 L41.65 115.3 41.65 114.05 65.25 88.45 Q54.85 101.15 42.2 115.3 M-6.3 12.7 L40.55 38.8 -8.05 13.55 -6.3 12.7 M-29.8 62.75 L-35.55 73.55 -31.05 78.3 35.9 68.2 -5.85 69.15 -10.25 64.45 22.45 61.8 Q-3.9 61.8 -29.8 62.75" fill="#dedede" fill-rule="evenodd" stroke="none"/>
    <path d="M63.75 -50.05 Q72.15 -10.4 81.45 32.15 L69.25 -42.55 73.9 -38.25 84.15 38.35 84.25 49.0 80.65 41.05 80.6 40.95 69.35 6.75 67.3 11.4 46.8 -42.2 55.2 -58.25 63.75 -50.05 M0.9 -14.7 Q16.2 -0.2 29.8 11.25 18.7 -0.45 0.7 -17.05 L0.9 -14.7 M73.3 -37.8 L70.25 -40.25 Q74.45 -14.15 78.9 8.0 L73.3 -37.8 M62.35 -4.6 L65.1 -11.7 81.5 38.5 62.15 -48.95 55.3 -56.35 48.05 -42.75 62.35 -4.6 M171.6 -14.55 L100.0 52.15 97.55 53.55 98.65 51.5 165.4 -15.65 171.05 -15.55 171.6 -14.55 M182.2 56.05 L181.85 55.7 149.3 58.55 147.1 59.0 182.2 56.05 M168.95 -13.95 L165.25 -14.0 128.3 22.6 Q121.25 29.55 118.6 32.9 144.25 10.9 169.2 -13.4 L168.95 -13.95 M184.4 56.35 L106.0 62.7 106.0 63.1 138.15 63.2 208.0 65.9 207.7 66.3 100.8 64.45 96.95 63.75 101.45 62.3 183.4 55.15 184.4 56.35 M100.5 8.75 L100.1 8.15 94.75 32.55 100.5 8.75 M189.2 113.6 L197.15 130.3 190.0 130.4 108.95 78.4 142.35 102.05 138.75 102.25 Q107.6 78.55 97.0 70.7 L95.45 68.25 99.5 69.4 156.95 101.1 155.95 97.2 189.2 113.6 M195.5 129.3 L187.95 114.65 171.2 106.55 171.15 112.35 Q143.5 95.75 114.95 80.6 151.7 105.6 190.1 129.5 L195.5 129.3 M101.15 8.45 L92.4 45.7 90.9 49.45 91.1 46.05 100.3 4.95 101.15 8.45 M75.55 57.55 L73.35 57.4 -11.2 13.15 -7.45 11.0 73.5 55.55 75.55 57.55 M78.3 55.15 L75.65 53.6 -0.85 -14.35 -0.85 -20.05 76.7 52.75 78.3 55.15 M74.8 70.0 L77.9 69.15 75.45 71.7 -1.45 116.95 -4.4 115.9 -4.4 113.05 74.8 70.0 M33.5 67.2 L29.95 62.5 44.85 61.0 Q7.75 60.45 -30.4 61.9 L-36.8 73.7 -31.9 79.4 58.85 65.65 33.5 67.2 M90.3 77.4 L91.25 79.6 103.45 139.3 102.15 140.3 90.1 79.75 90.3 77.4 M85.75 79.9 L86.75 76.0 88.05 81.25 88.55 154.05 86.35 156.0 83.8 154.8 85.75 79.9 M76.7 63.95 L74.75 65.05 -34.0 81.8 -40.85 74.9 -32.75 59.95 61.2 60.55 52.95 61.95 56.15 64.1 75.45 63.45 76.7 63.95 M76.85 74.95 L79.05 73.4 77.65 75.8 42.1 116.0 41.05 116.0 41.05 113.9 76.85 74.95 M42.2 115.3 Q54.85 101.15 65.25 88.45 L41.65 114.05 41.65 115.3 42.2 115.3 M140.8 101.6 L123.75 89.65 138.85 101.75 140.8 101.6 M98.65 119.8 L102.45 139.25 103.0 138.95 98.65 119.8 M87.75 153.7 Q87.7 128.55 86.65 104.7 85.0 128.4 84.85 154.15 L86.5 154.95 87.75 153.7 M57.75 80.55 Q25.2 97.5 -2.6 113.2 L-2.6 114.7 -1.2 115.3 2.35 113.3 Q29.15 98.05 57.75 80.55 M-6.3 12.7 L-8.05 13.55 40.55 38.8 -6.3 12.7" fill="#bdbdbd" fill-rule="evenodd" stroke="none"/>
    <path d="M63.95 -72.8 L70.55 -66.45 73.25 -28.45 63.95 -72.8 M66.5 -68.85 L70.7 -47.05 69.6 -65.1 66.5 -68.85 M55.6 -71.4 L63.3 -47.2 56.55 -76.9 53.95 -79.95 56.25 -80.4 58.6 -77.55 69.8 -22.2 56.45 -61.9 45.8 -41.35 36.0 -64.75 42.05 -77.1 44.8 -77.85 39.5 -66.15 44.3 -50.9 55.6 -71.4 M207.1 -50.8 L203.1 -50.8 187.7 -32.8 207.6 -49.7 207.1 -50.8 M113.8 -53.55 L115.8 -57.95 115.45 -53.35 106.35 -19.2 113.8 -53.55 M208.55 -52.75 L209.6 -50.0 175.8 -21.1 190.0 -38.35 202.65 -52.75 208.55 -52.75 M222.75 54.1 L195.5 55.85 220.9 52.9 222.75 54.1 M221.95 136.2 L223.25 142.55 213.3 142.55 186.05 126.9 Q201.2 137.85 217.3 147.5 L231.0 147.5 225.85 135.4 216.65 130.95 221.95 136.2 M208.55 124.85 L227.3 133.45 234.0 150.4 217.9 150.4 207.5 143.7 150.15 104.9 204.25 136.75 219.25 136.75 208.55 124.85 M179.05 131.2 L179.05 129.95 170.95 124.6 178.3 131.2 179.05 131.2 M-13.05 -26.0 L-10.75 -26.75 12.45 -3.8 -13.05 -26.0 M179.8 132.35 L178.8 132.35 159.9 116.4 179.8 129.5 179.8 132.35 M-22.9 6.5 L14.35 24.55 -25.3 7.7 -22.9 6.5" fill="#fff7ee" fill-rule="evenodd" stroke="none"/>
    <path d="M66.5 -68.85 L69.6 -65.1 70.7 -47.05 66.5 -68.85 M42.05 -77.1 L48.3 -89.85 56.25 -80.4 53.95 -79.95 48.6 -86.25 44.8 -77.85 42.05 -77.1 M207.1 -50.8 L207.6 -49.7 187.7 -32.8 203.1 -50.8 207.1 -50.8 M228.85 67.0 L206.4 65.4 229.75 64.55 228.85 67.0 M-8.45 118.85 L-8.45 117.25 22.8 99.8 -8.45 118.85 M5.1 159.75 L5.1 155.9 27.2 130.4 5.1 159.75" fill="#d0d0d0" fill-rule="evenodd" stroke="none"/>
    <path d="M27.1 10.4 Q3.65 32.75 4.0 64.4 4.4 96.1 28.35 118.4 52.3 140.8 85.75 140.8 119.3 140.8 142.7 118.4 166.15 96.1 165.75 64.45 165.35 32.75 141.45 10.4 117.5 -11.95 83.95 -11.95 50.5 -11.95 27.1 10.4 M85.85 149.3 Q48.65 149.3 22.05 124.4 -4.55 99.6 -5.0 64.4 -5.4 29.25 20.65 4.4 46.65 -20.45 83.85 -20.45 121.1 -20.45 147.7 4.4 174.3 29.25 174.7 64.45 175.15 99.6 149.1 124.4 123.1 149.3 85.85 149.3" fill="url(#gradient0)" fill-rule="evenodd" stroke="none"/>
  </g>
  <defs>
    <radialGradient cx="0" cy="0" gradientTransform="matrix(0.1916, 0.0, 0.0, 0.1916, 84.85, 64.4)" gradientUnits="userSpaceOnUse" id="gradient0" r="819.2" spreadMethod="pad">
      <stop offset="0.47058823529411764" stop-color="#ffffff" stop-opacity="0.0"/>
      <stop offset="0.8823529411764706" stop-color="#ffffff"/>
    </radialGradient>
  </defs>
</svg>
