<?xml version="1.0" encoding="UTF-8" standalone="no"?>
<svg xmlns:xlink="http://www.w3.org/1999/xlink" height="123.5px" width="132.7px" xmlns="http://www.w3.org/2000/svg">
  <g transform="matrix(1.0, 0.0, 0.0, 1.0, -38.9, 15.65)">
    <path d="M82.75 59.25 L85.1 59.25 77.3 33.5 79.1 30.85 82.3 34.2 87.05 59.15 89.65 52.65 89.15 60.35 102.5 47.8 89.65 62.05 104.7 62.6 89.95 63.85 113.05 77.1 113.05 80.35 110.1 80.35 88.95 65.7 88.95 72.5 88.05 70.85 87.55 69.2 87.5 69.95 86.5 75.1 85.8 66.8 78.75 73.45 81.2 69.55 82.55 68.05 81.45 68.65 79.65 68.65 83.65 65.95 80.6 64.2 78.7 63.2 78.7 63.15 80.2 62.75 82.55 62.2 79.2 58.1 67.55 46.2 82.75 59.25 M52.35 67.45 L48.15 64.45 51.4 62.35 76.55 62.85 52.35 67.45" fill="#f8f8f8" fill-rule="evenodd" stroke="none"/>
    <path d="M111.45 64.35 L91.55 64.35 115.05 76.75 115.05 81.75 110.55 81.75 89.9 66.8 89.9 75.0 89.35 75.6 88.05 70.85 88.95 72.5 88.95 65.7 110.1 80.35 113.05 80.35 113.05 77.1 89.95 63.85 104.7 62.6 112.7 62.6 111.45 64.35 M89.15 60.35 L89.65 52.65 87.05 59.15 82.3 34.2 79.1 30.85 77.3 33.5 85.1 59.25 82.75 59.25 67.55 46.2 63.65 42.2 83.45 57.75 76.45 33.1 78.7 28.75 83.3 33.45 87.35 56.7 93.65 37.2 89.65 59.45 91.95 57.4 89.15 60.35 M92.05 62.05 L89.65 62.05 93.0 58.0 90.95 60.8 92.05 62.05 M84.7 69.05 L74.15 78.95 73.35 79.1 73.35 78.05 81.2 69.55 78.75 73.45 85.8 66.8 86.5 75.1 87.5 69.95 86.4 85.5 84.7 69.05 M63.15 76.65 L63.2 76.65 81.7 66.3 80.6 64.2 83.65 65.95 79.65 68.65 81.45 68.65 64.1 77.75 63.2 78.0 62.3 77.9 63.15 76.65 M51.4 62.35 L48.15 64.45 52.35 67.45 76.55 62.85 51.4 62.35 M68.9 54.75 L79.2 58.1 82.55 62.2 80.2 62.75 78.7 63.15 78.7 63.2 80.6 64.2 51.1 68.3 46.0 64.7 51.35 60.6 81.2 61.85 68.9 54.75" fill="#dedede" fill-rule="evenodd" stroke="none"/>
    <path d="M171.6 -14.55 L89.1 62.25 89.15 63.35 101.45 62.3 96.95 63.75 100.8 64.45 91.4 64.3 91.35 65.15 99.5 69.4 95.45 68.25 97.0 70.7 Q91.7 66.75 91.55 66.8 91.05 66.9 91.05 67.3 L91.25 68.3 Q91.1 68.5 90.85 68.5 L89.2 67.9 Q89.05 67.9 89.05 68.45 L89.2 69.6 91.25 79.6 90.3 77.4 90.1 79.75 88.65 72.4 88.0 71.5 88.05 81.25 86.75 76.0 85.75 79.9 86.05 68.4 84.2 68.4 77.65 75.8 79.05 73.4 76.85 74.95 83.2 68.0 82.85 67.3 75.45 71.7 77.9 69.15 74.8 70.0 83.2 65.4 82.95 63.75 74.75 65.05 76.7 63.95 75.45 63.45 82.6 63.2 82.45 62.15 73.35 57.4 75.55 57.55 73.5 55.55 81.4 59.9 82.0 59.25 75.65 53.6 78.3 55.15 76.7 52.75 85.35 60.85 86.9 60.85 80.65 41.05 84.25 49.0 84.15 38.35 87.5 59.7 91.1 46.05 90.9 49.45 92.4 45.7 88.85 60.65 89.2 61.0 165.4 -15.65 171.05 -15.55 171.6 -14.55 M168.95 -13.95 L165.25 -14.0 128.3 22.6 Q121.25 29.55 118.6 32.9 144.25 10.9 169.2 -13.4 L168.95 -13.95" fill="#fff7ee" fill-rule="evenodd" stroke="none"/>
    <path d="M113.8 36.8 Q101.55 25.35 84.4 25.35 67.25 25.35 55.3 36.8 43.35 48.25 43.5 64.4 43.7 80.6 55.95 92.05 68.2 103.5 85.3 103.5 102.45 103.5 114.45 92.05 126.45 80.6 126.2 64.45 126.05 48.25 113.8 36.8 M117.0 33.7 Q130.6 46.45 130.8 64.45 131.05 82.4 117.7 95.1 104.4 107.85 85.35 107.85 66.35 107.85 52.7 95.1 39.1 82.4 38.9 64.4 38.7 46.45 52.0 33.7 65.3 21.0 84.35 21.0 103.4 21.0 117.0 33.7" fill="url(#gradient0)" fill-rule="evenodd" stroke="none"/>
  </g>
  <defs>
    <radialGradient cx="0" cy="0" gradientTransform="matrix(0.1099, 0.0, 0.0, 0.1099, 84.85, 64.4)" gradientUnits="userSpaceOnUse" id="gradient0" r="819.2" spreadMethod="pad">
      <stop offset="0.47058823529411764" stop-color="#ffffff" stop-opacity="0.0"/>
      <stop offset="0.6039215686274509" stop-color="#ffffff"/>
    </radialGradient>
  </defs>
</svg>
