<?xml version="1.0" encoding="UTF-8" standalone="no"?>
<svg xmlns:xlink="http://www.w3.org/1999/xlink" height="37.75px" width="39.9px" xmlns="http://www.w3.org/2000/svg">
  <g transform="matrix(1.0, 0.0, 0.0, 1.0, -65.55, -44.35)">
    <path d="M86.05 64.4 Q85.65 64.4 85.35 64.1 85.05 63.8 85.05 63.4 85.05 63.0 85.35 62.7 85.65 62.4 86.05 62.4 86.45 62.4 86.75 62.7 L87.05 63.4 86.75 64.1 86.05 64.4" fill="#f8f8f8" fill-rule="evenodd" stroke="none"/>
    <path d="M85.7 80.2 Q93.15 80.2 98.3 75.2 103.55 70.25 103.45 63.2 103.35 56.15 98.05 51.2 92.75 46.2 85.3 46.2 77.85 46.2 72.65 51.2 67.45 56.15 67.55 63.2 67.65 70.25 72.95 75.2 78.25 80.2 85.7 80.2 M105.45 63.25 Q105.55 71.05 99.75 76.55 94.0 82.1 85.7 82.1 77.45 82.1 71.55 76.55 65.65 71.05 65.55 63.2 65.45 55.4 71.25 49.9 77.0 44.35 85.3 44.35 93.55 44.35 99.45 49.9 105.35 55.4 105.45 63.25" fill="url(#gradient0)" fill-rule="evenodd" stroke="none"/>
  </g>
  <defs>
    <radialGradient cx="0" cy="0" gradientTransform="matrix(0.0436, 0.0, 0.0, 0.0436, 85.5, 63.2)" gradientUnits="userSpaceOnUse" id="gradient0" r="819.2" spreadMethod="pad">
      <stop offset="0.5019607843137255" stop-color="#ffffff" stop-opacity="0.0"/>
      <stop offset="0.9098039215686274" stop-color="#ffffff"/>
    </radialGradient>
  </defs>
</svg>
