<?xml version="1.0" encoding="UTF-8" standalone="no"?>
<svg xmlns:xlink="http://www.w3.org/1999/xlink" height="36.35px" width="73.85px" xmlns="http://www.w3.org/2000/svg">
  <g transform="matrix(1.0, 0.0, 0.0, 1.0, 0.0, -2.3)">
    <path d="M73.85 12.35 Q73.85 13.8 72.8 15.4 71.7 17.0 70.8 17.0 69.3 17.0 69.95 16.2 70.6 15.35 71.0 13.5 71.4 11.6 70.75 10.6 L69.35 8.45 Q68.5 7.15 68.25 6.1 L72.0 9.3 Q73.85 10.95 73.85 12.35 M49.65 33.2 Q43.0 28.2 40.6 24.1 47.15 29.45 54.9 33.3 L63.15 37.05 62.25 38.05 Q61.55 38.65 60.35 38.65 56.8 38.65 49.65 33.2 M29.3 10.9 Q30.35 12.15 31.25 15.15 32.65 17.9 37.05 21.05 33.95 20.0 32.65 19.0 31.4 18.05 29.55 15.5 L25.0 9.25 Q21.1 4.7 17.5 3.75 18.1 2.5 19.9 2.3 L22.35 2.35 Q24.3 2.35 26.95 6.55 L29.3 10.9 M6.1 30.4 Q8.35 31.75 8.5 33.55 7.1 33.2 3.8 29.3 L6.1 30.4 M1.4 10.05 L3.75 7.15 4.0 7.45 3.35 10.45 Q2.85 13.0 1.0 15.5 L0.0 15.15 0.0 13.55 Q0.25 11.8 1.4 10.05" fill="#ffffff" fill-rule="evenodd" stroke="none"/>
  </g>
</svg>
