<?xml version="1.0" encoding="UTF-8" standalone="no"?>
<svg xmlns:xlink="http://www.w3.org/1999/xlink" height="38.1px" width="79.7px" xmlns="http://www.w3.org/2000/svg">
  <g transform="matrix(1.0, 0.0, 0.0, 1.0, 5.8, -1.3)">
    <path d="M70.2 6.95 Q67.0 3.75 61.45 1.3 L62.9 1.3 Q66.35 1.55 70.35 4.8 74.2 7.9 73.85 9.55 L73.45 9.9 72.8 10.1 Q72.1 8.8 70.2 6.95 M45.45 10.7 Q40.65 8.75 34.75 7.8 31.6 7.35 30.7 6.15 32.85 6.9 38.4 7.4 L47.75 8.0 Q52.35 8.35 55.45 9.05 L58.1 9.8 57.65 11.6 Q57.15 12.5 55.15 12.5 50.8 12.5 45.45 10.7 M8.6 19.3 Q9.3 19.65 9.8 20.6 10.35 21.65 10.35 22.75 10.35 24.9 8.65 28.35 6.9 31.85 6.9 33.95 6.9 35.55 7.45 36.8 L8.75 39.4 Q7.65 39.3 6.4 37.8 4.75 35.95 4.75 33.3 4.75 30.1 6.75 27.3 8.75 24.45 8.75 21.3 L8.6 19.3 M1.55 4.5 Q0.55 6.75 -1.6 9.0 -2.85 10.3 -2.85 13.3 -2.85 14.35 -3.65 15.7 -4.45 17.0 -4.9 17.0 L-5.25 16.85 -5.35 16.2 -5.4 16.05 -5.8 13.45 Q-5.8 10.55 -3.4 7.4 -1.15 4.5 0.5 4.5 L1.55 4.5 M18.25 39.4 Q16.7 39.4 16.05 38.9 L15.7 38.45 16.8 38.6 Q21.1 38.6 25.55 33.55 L31.65 26.55 30.9 28.65 29.2 33.45 Q26.25 39.4 18.25 39.4" fill="#ffffff" fill-rule="evenodd" stroke="none"/>
  </g>
</svg>
