<?xml version="1.0" encoding="UTF-8" standalone="no"?>
<svg xmlns:xlink="http://www.w3.org/1999/xlink" height="38.45px" width="95.5px" xmlns="http://www.w3.org/2000/svg">
  <g transform="matrix(1.0, 0.0, 0.0, 1.0, 11.5, -1.0)">
    <path d="M84.0 20.75 Q84.0 24.05 83.4 25.3 82.9 26.35 80.5 28.5 L80.5 27.15 Q81.8 23.35 81.8 20.05 81.8 16.5 79.8 12.45 78.25 9.25 76.25 7.15 79.85 8.6 81.7 11.85 84.0 15.85 84.0 20.75 M67.05 9.0 Q67.65 8.5 67.8 8.5 69.1 8.5 69.85 11.2 70.35 13.15 70.35 15.3 70.35 22.05 67.95 29.0 65.2 36.9 61.45 36.55 65.75 30.0 66.5 27.3 66.85 25.95 66.85 18.9 66.85 13.6 66.35 10.2 66.35 9.65 67.05 9.0 M65.0 1.5 Q66.45 1.85 67.05 2.35 L64.2 4.15 Q63.4 4.75 60.6 4.75 L53.35 4.2 44.9 3.65 Q44.5 3.65 42.9 4.35 L40.9 5.0 37.55 4.35 34.6 3.65 25.95 4.25 23.75 4.4 20.5 4.25 Q18.5 3.85 15.45 5.05 L11.7 6.35 Q10.2 6.35 8.1 4.45 L6.9 3.2 9.4 3.65 16.7 2.4 Q22.5 1.1 23.8 1.4 L29.85 1.65 37.55 1.45 43.8 1.15 50.9 1.4 55.15 1.8 61.4 1.0 65.0 1.5 M20.2 36.5 L31.4 36.75 35.55 37.25 Q38.7 37.9 39.65 38.85 L39.65 39.4 33.0 38.55 Q26.85 37.7 15.65 38.85 4.4 40.0 4.75 38.9 5.1 37.8 4.3 37.8 L4.3 37.75 10.65 37.05 19.65 36.5 20.2 36.5 M-10.35 8.0 L-9.05 19.3 Q-8.2 26.05 -7.25 27.2 -6.35 28.35 -6.9 29.55 -11.5 28.05 -11.5 20.6 -11.5 18.4 -10.35 8.0" fill="#ffffff" fill-rule="evenodd" stroke="none"/>
  </g>
</svg>
