<?xml version="1.0" encoding="UTF-8" standalone="no"?>
<svg xmlns:xlink="http://www.w3.org/1999/xlink" height="47.65px" width="118.9px" xmlns="http://www.w3.org/2000/svg">
  <g transform="matrix(1.0, 0.0, 0.0, 1.0, 19.5, 1.85)">
    <path d="M9.0 -0.8 L8.35 0.35 8.0 0.8 Q6.9 2.05 6.2 2.05 4.8 2.05 1.0 0.5 1.15 0.4 1.35 0.35 6.35 -1.85 7.55 -1.85 8.85 -1.85 9.0 -0.8 M86.3 2.85 Q85.2 2.85 85.1 2.3 L84.9 0.9 Q85.8 1.15 86.25 1.5 L87.15 2.6 86.85 2.75 86.3 2.85 M95.15 20.45 Q95.15 16.65 93.45 13.9 91.05 10.65 89.55 7.65 91.25 8.65 95.55 11.7 99.4 15.5 99.4 21.4 99.4 23.15 98.0 25.95 96.75 28.5 95.65 29.55 L95.4 29.0 94.6 25.4 95.15 20.45 M84.25 42.05 Q84.1 44.1 78.65 45.15 L73.15 45.8 Q71.0 45.8 66.9 44.0 70.15 44.0 73.15 42.6 76.5 41.0 80.05 41.0 L82.4 41.5 84.25 42.05 M75.0 23.4 L69.8 27.15 63.9 29.3 59.4 30.6 57.4 30.35 56.95 30.15 57.0 30.05 Q61.05 30.05 69.2 23.95 77.35 17.8 77.7 17.8 78.25 17.8 78.85 18.6 L79.4 19.55 Q79.4 20.0 75.0 23.4 M21.0 8.0 L15.25 8.65 9.65 9.25 Q4.6 9.25 0.65 11.5 L-0.8 12.45 Q0.65 10.3 1.8 9.55 3.9 8.2 7.6 7.55 L12.75 6.85 21.35 5.55 26.6 5.0 26.6 6.35 Q25.1 7.85 23.8 8.05 L21.0 8.0 M-7.75 4.0 Q-8.15 4.8 -9.9 5.85 -11.65 6.85 -12.5 6.85 L-12.5 5.8 Q-11.45 4.75 -10.5 3.3 L-10.45 3.25 -9.7 3.4 Q-8.1 3.75 -7.75 4.0 M15.6 16.0 Q17.5 16.7 17.8 17.0 L16.1 19.1 Q14.95 20.25 13.8 20.25 L13.15 20.15 12.75 20.0 12.75 19.4 14.6 16.9 15.15 15.85 15.6 16.0 M-18.85 14.45 Q-18.7 19.65 -17.2 24.25 L-13.3 35.15 Q-15.05 33.95 -17.1 29.65 -19.5 24.65 -19.5 20.45 -19.5 18.85 -18.9 14.45 L-18.85 14.45" fill="#ffffff" fill-rule="evenodd" stroke="none"/>
  </g>
</svg>
