<?xml version="1.0" encoding="UTF-8" standalone="no"?>
<svg xmlns:xlink="http://www.w3.org/1999/xlink" height="450.4px" width="450.3px" xmlns="http://www.w3.org/2000/svg">
  <g transform="matrix(1.0, 0.0, 0.0, 1.0, 225.15, 225.2)">
    <path d="M-0.5 -37.7 L21.2 -223.95 27.4 -223.3 Q45.8 -221.05 62.85 -216.35 L-2.2 -8.1 -3.5 -3.95 -3.85 -2.9 -4.15 -1.75 -4.45 -0.75 -4.5 -0.6 -4.65 -0.3 -4.85 0.4 -5.0 0.75 -4.65 0.5 -4.2 0.15 -4.0 0.0 -3.95 0.0 -3.55 -0.25 -3.25 -0.5 -3.1 -0.7 -2.6 -1.1 174.05 -142.5 177.25 -138.6 Q195.15 -115.75 206.35 -91.05 L-2.65 -0.25 -2.95 -0.1 -3.1 -0.05 -3.45 0.05 -3.75 0.25 -3.8 0.25 -4.0 0.3 -4.55 0.6 -5.0 0.75 -4.9 0.35 -4.8 -0.5 -4.8 -0.95 -4.75 -1.15 -4.55 -2.7 -4.3 -5.0 -4.0 -7.65 -0.5 -37.7 M-2.35 -5.6 L83.1 -209.7 Q100.55 -203.0 116.45 -193.35 L-2.45 -3.25 -3.3 -2.05 -3.5 -1.6 -3.85 -0.95 -4.25 -0.4 -4.25 -0.3 -4.45 -0.1 -4.8 0.45 -5.0 0.75 -4.85 0.45 -4.5 -0.15 -4.45 -0.45 -4.35 -0.6 -4.05 -1.4 -3.7 -2.3 -3.35 -3.0 -2.35 -5.6 M-2.5 -1.75 L153.35 -165.0 160.7 -157.75 -2.6 -1.5 -3.1 -1.0 -3.35 -0.8 -3.65 -0.45 -4.05 -0.05 -4.05 -0.15 -3.65 -0.55 -3.3 -0.9 -3.1 -1.15 -2.5 -1.75 M-2.65 0.15 L217.8 -59.05 Q221.4 -45.85 223.25 -32.05 L-2.6 0.4 -2.95 0.5 -3.05 0.45 -3.25 0.5 -3.6 0.55 -3.65 0.6 -3.8 0.6 -4.4 0.65 -5.0 0.75 -4.5 0.65 -3.9 0.4 -3.75 0.45 -3.65 0.45 -3.3 0.3 -3.1 0.2 -2.95 0.25 -2.65 0.15 M-2.7 0.6 L224.8 -16.35 Q226.0 4.95 223.3 27.35 222.55 33.75 221.45 39.95 L-2.7 1.1 -2.8 1.15 -2.9 1.1 -3.05 1.1 -3.25 1.05 -3.25 1.0 -3.4 1.05 -4.1 0.9 -5.0 0.75 -4.4 0.7 -3.75 0.7 -3.6 0.65 -3.5 0.65 -3.2 0.65 -3.0 0.65 -2.9 0.65 -2.7 0.6 M-2.75 1.3 L217.35 58.75 Q215.65 65.5 213.6 71.95 L-2.7 1.5 -2.9 1.45 -3.05 1.4 -3.1 1.4 -3.7 1.2 -5.0 0.75 -3.85 1.1 -3.25 1.15 -3.1 1.2 -3.1 1.3 -2.9 1.25 -2.85 1.3 -2.8 1.3 -2.75 1.3 M-2.75 1.95 L198.9 106.55 194.65 114.25 -2.7 2.05 -2.75 2.05 -2.8 2.0 -2.85 1.95 -2.9 1.95 -3.0 1.9 -3.0 1.85 -3.05 1.9 -3.1 1.8 Q-3.25 1.75 -3.45 1.65 L-3.7 1.5 -5.0 0.75 -3.35 1.6 -3.25 1.65 -2.9 1.85 -2.85 1.85 -2.75 1.95 M-2.8 2.2 L187.9 124.9 Q168.3 154.0 138.5 177.25 131.45 182.8 124.1 187.8 L-2.9 3.7 -3.25 3.3 -3.3 3.2 -3.35 3.05 -3.45 2.9 -3.55 2.8 -3.6 2.75 -3.9 2.3 -3.95 2.25 -4.15 2.0 -4.15 1.95 -4.25 1.8 -4.6 1.3 -4.35 1.8 -4.25 1.95 -4.3 2.0 -4.1 2.25 -4.1 2.3 -4.0 2.35 -3.8 2.85 -3.7 2.95 -3.55 3.15 -3.5 3.35 -3.4 3.35 -3.35 3.55 -2.95 4.2 108.85 197.25 Q96.7 204.15 84.15 209.35 L-3.1 5.15 -3.5 4.1 -3.65 3.85 -3.7 3.75 -3.8 3.5 -3.9 3.2 -3.95 3.05 -4.25 2.45 -4.25 2.35 -4.3 2.3 -4.45 2.1 -4.45 2.0 -4.5 1.8 -4.75 1.3 -4.8 1.1 -5.0 0.75 -4.85 1.1 -4.85 1.25 -4.9 1.1 -5.0 0.75 -4.95 1.05 -4.9 1.2 -4.8 1.85 -4.8 2.0 -4.7 2.15 -4.7 2.4 -4.7 2.5 -4.65 2.65 -4.5 3.6 -4.45 3.85 -4.3 4.35 -4.25 4.9 -4.2 5.2 -4.05 5.7 -3.55 8.9 33.85 222.95 Q8.55 226.6 -18.35 224.3 L-7.55 43.95 -5.45 9.4 -5.35 7.9 -5.3 7.0 -5.25 5.75 -5.2 4.7 -5.2 4.25 -5.1 2.8 -5.05 2.65 -5.05 2.5 -5.0 2.15 -5.05 2.0 -5.05 1.8 -5.0 1.25 -5.0 1.1 -5.0 0.75 -3.95 1.45 -3.7 1.55 -3.35 1.8 -3.25 1.85 -3.2 1.85 -3.15 1.95 -3.1 1.95 -3.1 2.0 -2.95 2.05 -2.9 2.05 -2.85 2.05 -2.85 2.15 -2.8 2.2 M-3.25 6.5 L59.75 217.7 48.15 220.45 -3.35 7.35 -3.9 5.15 -4.0 4.75 -4.1 4.5 -4.15 4.05 -4.3 3.65 -4.3 3.45 -4.55 2.5 -4.55 2.45 -4.55 2.35 -4.65 2.1 -4.7 2.0 -4.75 1.85 -4.85 1.25 -4.65 1.85 -4.65 1.95 -4.6 2.05 -4.5 2.4 -4.45 2.45 -4.45 2.55 -4.2 3.3 -4.15 3.55 -4.05 3.85 -3.9 4.25 -3.85 4.45 -3.8 4.75 -3.25 6.5 M-4.15 -0.05 L-4.1 -0.05 -4.25 0.05 -4.7 0.45 -4.25 0.0 -4.15 -0.05" fill="url(#gradient0)" fill-rule="evenodd" stroke="none"/>
    <path d="M-2.2 -8.1 L-2.35 -5.6 -3.35 -3.0 -3.5 -3.95 -2.2 -8.1 M-2.45 -3.25 L-2.5 -1.75 -3.1 -1.15 -3.3 -2.05 -2.45 -3.25 M-2.6 -1.5 L-2.6 -1.1 -3.1 -0.7 -3.1 -1.0 -2.6 -1.5 M-2.65 -0.25 L-2.65 0.15 -2.95 0.25 -2.95 -0.1 -2.65 -0.25 M-2.6 0.4 L-2.7 0.6 -2.9 0.65 -2.95 0.5 -2.6 0.4 M-2.7 1.1 L-2.75 1.3 -2.8 1.3 -2.8 1.15 -2.7 1.1 M-2.7 1.5 L-2.75 1.8 -2.75 1.95 -2.85 1.85 -2.9 1.85 -3.25 1.65 -2.75 1.8 -3.7 1.2 -3.1 1.4 -2.75 1.8 -2.9 1.45 -2.7 1.5 M-2.7 2.05 L-2.8 2.2 -2.85 2.15 -2.75 2.05 -2.7 2.05 M-2.9 3.7 L-2.95 4.2 -3.35 3.55 -3.25 3.3 -2.9 3.7 M-3.1 5.15 L-3.25 6.5 -3.8 4.75 -3.5 4.1 -3.1 5.15 M-3.35 7.35 L-3.55 8.9 -4.05 5.7 -3.9 5.15 -3.35 7.35 M-7.55 43.95 L-28.0 223.25 Q-54.65 219.9 -78.3 211.45 L-5.45 9.4 -7.55 43.95 M-5.35 7.9 L-91.7 206.1 Q-97.1 203.75 -102.3 201.15 L-5.3 7.0 -5.35 7.9 M-5.25 5.75 L-124.2 188.4 Q-135.4 180.95 -145.6 172.05 L-5.2 4.7 -5.25 5.75 M-5.2 4.25 L-158.45 160.0 Q-168.3 150.05 -177.35 138.55 -196.25 114.35 -207.65 88.1 L-5.1 2.8 -5.2 4.25 M-5.05 2.65 L-212.3 76.75 -215.0 68.75 -5.05 2.5 -5.05 2.65 M-5.0 2.15 L-223.1 33.25 Q-224.05 26.6 -224.6 20.0 L-5.05 2.0 -5.0 2.15 M-5.05 1.8 L-225.15 1.35 Q-225.15 -12.8 -223.4 -27.35 -221.75 -40.5 -218.95 -52.9 L-5.0 1.25 -5.05 1.8 M-5.0 1.1 L-215.05 -67.6 Q-211.1 -80.55 -205.7 -92.7 L-5.0 0.75 -4.8 1.1 -4.85 1.1 -5.0 0.75 -4.9 1.1 -4.95 1.05 -5.0 0.75 -5.0 1.1 M-4.9 0.35 L-190.0 -121.8 Q-174.15 -146.25 -151.3 -166.7 L-4.8 -0.5 -4.9 0.35 M-4.8 -0.95 L-135.9 -179.35 -127.75 -185.25 -4.75 -1.15 -4.8 -0.95 M-4.55 -2.7 L-87.8 -207.75 Q-70.7 -215.2 -52.8 -219.4 L-4.3 -5.0 -4.55 -2.7 M-4.0 -7.65 L-32.05 -223.3 Q-11.4 -226.0 10.3 -224.85 L-0.5 -37.7 -4.0 -7.65 M-3.85 -2.9 L-3.7 -2.3 -4.05 -1.4 -4.15 -1.75 -3.85 -2.9 M-4.35 -0.6 L-4.45 -0.45 -4.5 -0.6 -4.45 -0.75 -4.35 -0.6 M-4.5 -0.15 L-4.85 0.45 -4.85 0.4 -4.65 -0.3 -4.5 -0.15 M-4.8 0.45 L-4.45 -0.1 -4.25 0.0 -4.7 0.45 -4.25 0.05 -4.2 0.15 -4.65 0.5 -4.7 0.45 -4.8 0.45 M-4.25 -0.3 L-4.25 -0.4 -4.05 -0.15 -4.05 -0.05 -3.95 0.0 -4.0 0.0 -4.1 -0.05 -4.15 -0.05 -4.25 -0.3 M-3.85 -0.95 L-3.5 -1.6 -3.3 -0.9 -3.65 -0.55 -3.85 -0.95 M-3.65 -0.45 L-3.35 -0.8 -3.25 -0.5 -3.55 -0.25 -3.65 -0.45 M-3.1 -0.05 L-3.1 0.2 -3.3 0.3 -3.45 0.05 -3.1 -0.05 M-3.05 0.45 L-3.0 0.65 -3.2 0.65 -3.25 0.5 -3.05 0.45 M-3.65 0.45 L-3.75 0.45 -3.8 0.25 -3.75 0.25 -3.65 0.45 M-3.9 0.4 L-4.5 0.65 -4.55 0.6 -4.0 0.3 -3.9 0.4 M-4.4 0.65 L-3.8 0.6 -3.75 0.7 -4.4 0.7 -4.4 0.65 M-3.65 0.6 L-3.6 0.55 -3.5 0.65 -3.6 0.65 -3.65 0.6 M-3.05 1.1 L-2.9 1.1 -2.85 1.3 -2.9 1.25 -3.05 1.1 M-3.4 1.05 L-3.25 1.15 -3.85 1.1 -4.1 0.9 -3.4 1.05 M-4.85 1.25 L-4.75 1.3 -4.5 1.8 -4.65 1.85 -4.85 1.25 -4.75 1.85 -4.8 1.85 -4.9 1.2 -4.85 1.25 M-3.95 1.45 L-5.0 0.75 -2.75 1.8 -3.35 1.6 -5.0 0.75 -3.7 1.5 -3.95 1.45 M-4.25 1.8 L-4.35 1.8 -4.6 1.3 -4.25 1.8 M-4.25 1.95 L-4.15 1.95 -4.15 2.0 -4.3 2.0 -4.25 1.95 M-3.9 2.3 L-3.6 2.75 -3.8 2.85 -4.0 2.35 -3.9 2.3 M-3.55 2.8 L-3.45 2.9 -3.55 3.15 -3.7 2.95 -3.55 2.8 M-3.35 3.05 L-3.3 3.2 -3.4 3.35 -3.5 3.35 -3.35 3.05 M-4.1 2.25 L-3.95 2.25 -4.1 2.3 -4.1 2.25 M-4.65 1.95 L-4.45 2.0 -4.45 2.1 -4.6 2.05 -4.65 1.95 M-4.7 2.0 L-4.65 2.1 -4.7 2.15 -4.8 2.0 -4.7 2.0 M-4.55 2.35 L-4.55 2.45 -4.7 2.5 -4.7 2.4 -4.55 2.35 M-4.55 2.5 L-4.3 3.45 -4.5 3.6 -4.65 2.65 -4.55 2.5 M-4.3 3.65 L-4.15 4.05 -4.3 4.35 -4.45 3.85 -4.3 3.65 M-4.1 4.5 L-4.0 4.75 -4.2 5.2 -4.25 4.9 -4.1 4.5 M-4.45 2.45 L-4.5 2.4 -4.3 2.3 -4.25 2.35 -4.45 2.45 M-4.45 2.55 L-4.25 2.45 -3.95 3.05 -4.2 3.3 -4.45 2.55 M-3.1 1.8 L-3.35 1.8 -3.7 1.55 -3.45 1.65 Q-3.25 1.75 -3.1 1.8 M-3.15 1.95 L-3.05 1.9 -3.0 1.85 -3.0 1.9 -2.9 1.95 -2.95 2.05 -3.1 2.0 -3.0 1.9 -3.1 1.95 -3.15 1.95 M-2.85 1.95 L-2.8 2.0 -2.85 2.05 -2.9 2.05 -2.85 1.95 M-3.7 3.75 L-3.65 3.85 -3.85 4.45 -3.9 4.25 -3.7 3.75 M-4.15 3.55 L-3.9 3.2 -3.8 3.5 -4.05 3.85 -4.15 3.55" fill="url(#gradient1)" fill-rule="evenodd" stroke="none"/>
    <path d="M-8.3 -91.1 Q-47.25 -91.1 -74.8 -62.85 -102.35 -34.5 -102.35 5.6 -102.35 45.65 -74.8 73.95 -47.25 102.2 -8.3 102.2 30.65 102.2 58.2 73.95 85.75 45.65 85.75 5.6 85.75 -34.5 58.2 -62.85 30.65 -91.1 -8.3 -91.1 M-7.55 -105.9 Q36.45 -105.9 67.65 -74.05 98.8 -41.9 98.8 3.45 98.8 48.75 67.65 80.7 36.45 112.7 -7.55 112.7 -51.6 112.7 -82.8 80.7 -113.95 48.75 -113.95 3.45 -113.95 -41.9 -82.8 -74.05 -51.6 -105.9 -7.55 -105.9" fill="url(#gradient2)" fill-rule="evenodd" stroke="none"/>
    <path d="M-8.3 -91.1 Q30.65 -91.1 58.2 -62.85 85.75 -34.5 85.75 5.6 85.75 45.65 58.2 73.95 30.65 102.2 -8.3 102.2 -47.25 102.2 -74.8 73.95 -102.35 45.65 -102.35 5.6 -102.35 -34.5 -74.8 -62.85 -47.25 -91.1 -8.3 -91.1" fill="#ffffff" fill-opacity="0.9882353" fill-rule="evenodd" stroke="none"/>
    <path d="M-7.55 -105.9 Q-51.6 -105.9 -82.8 -74.05 -113.95 -41.9 -113.95 3.45 -113.95 48.75 -82.8 80.7 -51.6 112.7 -7.55 112.7 36.45 112.7 67.65 80.7 98.8 48.75 98.8 3.45 98.8 -41.9 67.65 -74.05 36.45 -105.9 -7.55 -105.9 M-7.45 -111.85 Q38.9 -111.85 71.7 -78.15 104.55 -44.5 104.55 3.3 104.55 51.0 71.7 84.6 38.9 118.35 -7.45 118.35 -53.85 118.35 -86.65 84.6 -119.4 51.0 -119.4 3.3 -119.4 -44.5 -86.65 -78.15 -53.85 -111.85 -7.45 -111.85" fill="url(#gradient3)" fill-rule="evenodd" stroke="none"/>
  </g>
  <defs>
    <radialGradient cx="0" cy="0" gradientTransform="matrix(0.0216, -0.3616, -0.3616, -0.0216, -2.35, -0.9)" gradientUnits="userSpaceOnUse" id="gradient0" r="819.2" spreadMethod="pad">
      <stop offset="0.0" stop-color="#ffffff"/>
      <stop offset="0.7372549019607844" stop-color="#ffffff" stop-opacity="0.0"/>
    </radialGradient>
    <radialGradient cx="0" cy="0" gradientTransform="matrix(0.0411, -0.3599, 0.3599, 0.0411, -5.05, -0.3)" gradientUnits="userSpaceOnUse" id="gradient1" r="819.2" spreadMethod="pad">
      <stop offset="0.0" stop-color="#ffffff"/>
      <stop offset="0.7372549019607844" stop-color="#ffffff" stop-opacity="0.0"/>
    </radialGradient>
    <radialGradient cx="0" cy="0" gradientTransform="matrix(0.1358, 0.0, 0.0, 0.1358, -7.5, 3.4)" gradientUnits="userSpaceOnUse" id="gradient2" r="819.2" spreadMethod="pad">
      <stop offset="0.7843137254901961" stop-color="#ffffff"/>
      <stop offset="1.0" stop-color="#ffffff" stop-opacity="0.49803922"/>
    </radialGradient>
    <radialGradient cx="0" cy="0" gradientTransform="matrix(0.1421, 0.0, 0.0, 0.1421, -7.45, 3.3)" gradientUnits="userSpaceOnUse" id="gradient3" r="819.2" spreadMethod="pad">
      <stop offset="0.8117647058823529" stop-color="#ffffff"/>
      <stop offset="1.0" stop-color="#ffffff" stop-opacity="0.0"/>
    </radialGradient>
  </defs>
</svg>
