<?xml version="1.0" encoding="UTF-8" standalone="no"?>
<svg xmlns:xlink="http://www.w3.org/1999/xlink" height="58.3px" width="16.9px" xmlns="http://www.w3.org/2000/svg">
  <g transform="matrix(1.0, 0.0, 0.0, 1.0, 1.75, 1.45)">
    <path d="M12.35 2.8 L10.85 2.8 11.95 3.6 10.75 4.85 12.8 4.85 12.8 6.2 0.1 6.2 0.1 4.85 2.15 4.85 1.0 3.55 2.1 2.8 0.6 2.8 0.6 1.45 3.35 1.45 2.7 0.6 4.55 0.2 5.3 1.45 7.6 1.45 8.5 0.2 10.35 0.6 9.6 1.45 12.35 1.45 12.35 2.8 M5.85 4.85 L7.05 4.85 7.05 2.8 5.85 2.8 5.85 4.85 M8.8 4.85 L10.15 4.85 9.35 4.2 10.6 2.8 8.8 2.8 8.8 4.85 M2.65 4.85 L4.15 4.85 4.15 2.8 2.2 2.8 3.55 4.2 2.65 4.85 M3.35 11.1 L9.6 11.1 9.6 10.25 3.35 10.25 3.35 11.1 M3.35 9.05 L9.6 9.05 9.6 8.3 3.35 8.3 3.35 9.05 M9.6 12.4 L3.35 12.4 3.35 12.95 1.6 12.95 1.6 6.9 11.35 6.9 11.35 12.95 9.6 12.95 9.6 12.4 M9.85 16.2 L6.05 16.2 7.85 17.25 9.85 16.2 M3.55 16.75 L2.0 17.75 0.35 15.3 1.7 14.4 3.55 16.75 M3.8 14.9 L12.1 14.9 12.1 16.35 9.4 17.85 12.1 17.85 12.1 23.4 11.9 24.35 11.15 24.85 9.25 24.9 8.9 23.55 9.95 23.6 Q10.5 23.6 10.5 23.0 L10.5 22.8 8.75 22.8 8.75 24.8 7.2 24.8 7.2 22.8 5.5 22.8 5.5 24.8 3.9 24.8 3.9 17.85 6.35 17.85 4.95 16.95 5.6 16.2 3.8 16.2 3.8 14.9 M0.1 18.9 L2.85 18.9 2.85 24.15 Q3.65 25.25 5.6 25.25 L8.55 25.25 12.9 25.25 12.2 26.9 5.45 26.85 3.45 26.5 Q2.7 26.15 2.2 25.6 L0.8 27.2 0.05 25.2 1.25 24.15 1.25 20.6 0.1 20.6 0.1 18.9 M8.75 19.75 L10.5 19.75 10.5 19.0 8.75 19.0 8.75 19.75 M5.5 19.0 L5.5 19.75 7.2 19.75 7.2 19.0 5.5 19.0 M5.5 20.95 L5.5 21.7 7.2 21.7 7.2 20.95 5.5 20.95 M8.75 21.7 L10.5 21.7 10.5 20.95 8.75 20.95 8.75 21.7 M11.65 32.05 Q11.25 35.2 9.75 37.35 11.0 38.7 12.9 39.4 L11.8 41.15 Q9.9 40.15 8.6 38.75 7.05 40.3 4.9 41.25 L3.7 39.6 Q6.0 38.7 7.45 37.25 6.5 35.75 6.05 33.9 L5.25 35.1 4.0 33.7 Q5.85 31.1 6.7 28.5 L8.35 28.85 7.85 30.35 12.75 30.35 12.75 32.05 11.65 32.05 M4.95 29.7 L4.95 31.5 3.45 31.5 3.45 37.05 5.25 36.6 5.2 38.6 0.4 39.8 0.0 37.8 1.65 37.5 1.65 31.5 0.15 31.5 0.15 29.7 4.95 29.7 M9.95 32.05 L7.25 32.05 Q7.6 34.25 8.6 35.9 9.65 34.25 9.95 32.05 M7.4 42.65 L7.4 44.45 12.05 44.45 12.05 46.2 7.4 46.2 7.4 47.75 12.75 47.75 12.75 49.5 7.4 49.5 7.4 53.0 9.85 53.0 9.85 50.35 11.65 50.35 11.65 55.35 9.85 55.35 9.85 54.7 1.2 54.7 1.2 50.35 3.1 50.35 3.1 53.0 5.5 53.0 5.5 49.5 0.1 49.5 0.1 47.75 5.5 47.75 5.5 46.2 0.9 46.2 0.9 44.45 5.5 44.45 5.5 42.65 7.4 42.65" fill="#160b4e" fill-rule="evenodd" stroke="none"/>
    <path d="M12.35 2.8 L10.85 2.8 11.95 3.6 10.75 4.85 12.8 4.85 12.8 6.2 0.1 6.2 0.1 4.85 2.15 4.85 1.0 3.55 2.1 2.8 0.6 2.8 0.6 1.45 3.35 1.45 2.7 0.6 4.55 0.2 5.3 1.45 7.6 1.45 8.5 0.2 10.35 0.6 9.6 1.45 12.35 1.45 12.35 2.8 M5.85 4.85 L7.05 4.85 7.05 2.8 5.85 2.8 5.85 4.85 M8.8 4.85 L10.15 4.85 9.35 4.2 10.6 2.8 8.8 2.8 8.8 4.85 M2.65 4.85 L4.15 4.85 4.15 2.8 2.2 2.8 3.55 4.2 2.65 4.85 M3.35 11.1 L9.6 11.1 9.6 10.25 3.35 10.25 3.35 11.1 M3.35 9.05 L9.6 9.05 9.6 8.3 3.35 8.3 3.35 9.05 M9.6 12.4 L3.35 12.4 3.35 12.95 1.6 12.95 1.6 6.9 11.35 6.9 11.35 12.95 9.6 12.95 9.6 12.4 M9.85 16.2 L6.05 16.2 7.85 17.25 9.85 16.2 M3.55 16.75 L2.0 17.75 0.35 15.3 1.7 14.4 3.55 16.75 M3.8 14.9 L12.1 14.9 12.1 16.35 9.4 17.85 12.1 17.85 12.1 23.4 11.9 24.35 11.15 24.85 9.25 24.9 8.9 23.55 9.95 23.6 Q10.5 23.6 10.5 23.0 L10.5 22.8 8.75 22.8 8.75 24.8 7.2 24.8 7.2 22.8 5.5 22.8 5.5 24.8 3.9 24.8 3.9 17.85 6.35 17.85 4.95 16.95 5.6 16.2 3.8 16.2 3.8 14.9 M0.1 18.9 L2.85 18.9 2.85 24.15 Q3.65 25.25 5.6 25.25 L8.55 25.25 12.9 25.25 12.2 26.9 5.45 26.85 3.45 26.5 Q2.7 26.15 2.2 25.6 L0.8 27.2 0.05 25.2 1.25 24.15 1.25 20.6 0.1 20.6 0.1 18.9 M8.75 19.75 L10.5 19.75 10.5 19.0 8.75 19.0 8.75 19.75 M5.5 19.0 L5.5 19.75 7.2 19.75 7.2 19.0 5.5 19.0 M5.5 20.95 L5.5 21.7 7.2 21.7 7.2 20.95 5.5 20.95 M8.75 21.7 L10.5 21.7 10.5 20.95 8.75 20.95 8.75 21.7 M11.65 32.05 Q11.25 35.2 9.75 37.35 11.0 38.7 12.9 39.4 L11.8 41.15 Q9.9 40.15 8.6 38.75 7.05 40.3 4.9 41.25 L3.7 39.6 Q6.0 38.7 7.45 37.25 6.5 35.75 6.05 33.9 L5.25 35.1 4.0 33.7 Q5.85 31.1 6.7 28.5 L8.35 28.85 7.85 30.35 12.75 30.35 12.75 32.05 11.65 32.05 M4.95 29.7 L4.95 31.5 3.45 31.5 3.45 37.05 5.25 36.6 5.2 38.6 0.4 39.8 0.0 37.8 1.65 37.5 1.65 31.5 0.15 31.5 0.15 29.7 4.95 29.7 M9.95 32.05 L7.25 32.05 Q7.6 34.25 8.6 35.9 9.65 34.25 9.95 32.05 M7.4 42.65 L7.4 44.45 12.05 44.45 12.05 46.2 7.4 46.2 7.4 47.75 12.75 47.75 12.75 49.5 7.4 49.5 7.4 53.0 9.85 53.0 9.85 50.35 11.65 50.35 11.65 55.35 9.85 55.35 9.85 54.7 1.2 54.7 1.2 50.35 3.1 50.35 3.1 53.0 5.5 53.0 5.5 49.5 0.1 49.5 0.1 47.75 5.5 47.75 5.5 46.2 0.9 46.2 0.9 44.45 5.5 44.45 5.5 42.65 7.4 42.65 Z" fill="none" stroke="#160b4e" stroke-linecap="butt" stroke-linejoin="miter-clip" stroke-miterlimit="3.0" stroke-width="3.0"/>
    <path d="M12.35 2.6 L10.85 2.6 11.95 3.4 10.75 4.65 12.8 4.65 12.8 6.0 0.1 6.0 0.1 4.65 2.15 4.65 1.0 3.35 2.1 2.6 0.6 2.6 0.6 1.25 3.35 1.25 2.7 0.4 4.55 0.0 5.3 1.25 7.6 1.25 8.5 0.0 10.35 0.4 9.6 1.25 12.35 1.25 12.35 2.6 M5.85 4.65 L7.05 4.65 7.05 2.6 5.85 2.6 5.85 4.65 M8.8 4.65 L10.15 4.65 9.35 4.0 10.6 2.6 8.8 2.6 8.8 4.65 M2.65 4.65 L4.15 4.65 4.15 2.6 2.2 2.6 3.55 4.0 2.65 4.65 M3.35 10.9 L9.6 10.9 9.6 10.05 3.35 10.05 3.35 10.9 M3.35 8.85 L9.6 8.85 9.6 8.1 3.35 8.1 3.35 8.85 M3.35 12.2 L3.35 12.75 1.6 12.75 1.6 6.7 11.35 6.7 11.35 12.75 9.6 12.75 9.6 12.2 3.35 12.2 M9.85 16.0 L6.05 16.0 7.85 17.05 9.85 16.0 M0.35 15.1 L1.7 14.2 3.55 16.55 2.0 17.55 0.35 15.1 M3.8 14.7 L12.1 14.7 12.1 16.15 9.4 17.65 12.1 17.65 12.1 23.2 11.9 24.15 11.15 24.65 9.25 24.7 8.9 23.35 9.95 23.4 Q10.5 23.4 10.5 22.8 L10.5 22.6 8.75 22.6 8.75 24.6 7.2 24.6 7.2 22.6 5.5 22.6 5.5 24.6 3.9 24.6 3.9 17.65 6.35 17.65 4.95 16.75 5.6 16.0 3.8 16.0 3.8 14.7 M0.1 18.7 L2.85 18.7 2.85 23.95 Q3.65 25.05 5.6 25.05 L8.55 25.05 12.9 25.05 12.2 26.7 5.45 26.65 3.45 26.3 Q2.7 25.95 2.2 25.4 L0.8 27.0 0.05 25.0 1.25 23.95 1.25 20.4 0.1 20.4 0.1 18.7 M8.75 21.5 L10.5 21.5 10.5 20.75 8.75 20.75 8.75 21.5 M8.75 19.55 L10.5 19.55 10.5 18.8 8.75 18.8 8.75 19.55 M7.2 21.5 L7.2 20.75 5.5 20.75 5.5 21.5 7.2 21.5 M7.2 18.8 L5.5 18.8 5.5 19.55 7.2 19.55 7.2 18.8 M11.65 31.85 Q11.25 35.0 9.75 37.15 11.0 38.5 12.9 39.2 L11.8 40.95 Q9.9 39.95 8.6 38.55 7.05 40.1 4.9 41.05 L3.7 39.4 Q6.0 38.5 7.45 37.05 6.5 35.55 6.05 33.7 L5.25 34.9 4.0 33.5 Q5.85 30.9 6.7 28.3 L8.35 28.65 7.85 30.15 12.75 30.15 12.75 31.85 11.65 31.85 M4.95 29.5 L4.95 31.3 3.45 31.3 3.45 36.85 5.25 36.4 5.2 38.4 0.4 39.6 0.0 37.6 1.65 37.3 1.65 31.3 0.15 31.3 0.15 29.5 4.95 29.5 M8.6 35.7 Q9.65 34.05 9.95 31.85 L7.25 31.85 Q7.6 34.05 8.6 35.7 M7.4 42.45 L7.4 44.25 12.05 44.25 12.05 46.0 7.4 46.0 7.4 47.55 12.75 47.55 12.75 49.3 7.4 49.3 7.4 52.8 9.85 52.8 9.85 50.15 11.65 50.15 11.65 55.15 9.85 55.15 9.85 54.5 1.2 54.5 1.2 50.15 3.1 50.15 3.1 52.8 5.5 52.8 5.5 49.3 0.1 49.3 0.1 47.55 5.5 47.55 5.5 46.0 0.9 46.0 0.9 44.25 5.5 44.25 5.5 42.45 7.4 42.45" fill="url(#gradient0)" fill-rule="evenodd" stroke="none"/>
  </g>
  <defs>
    <linearGradient gradientTransform="matrix(0.0, -0.0337, 0.0079, 0.0, 6.45, 27.6)" gradientUnits="userSpaceOnUse" id="gradient0" spreadMethod="pad" x1="-819.2" x2="819.2">
      <stop offset="0.0" stop-color="#25bcff"/>
      <stop offset="1.0" stop-color="#31ffd7"/>
    </linearGradient>
  </defs>
</svg>
