<?xml version="1.0" encoding="UTF-8" standalone="no"?>
<svg xmlns:xlink="http://www.w3.org/1999/xlink" height="36.95px" width="177.15px" xmlns="http://www.w3.org/2000/svg">
  <g transform="matrix(1.0, 0.0, 0.0, 1.0, 4.0, 0.0)">
    <path d="M166.0 0.0 Q173.35 0.0 173.15 4.75 L173.15 32.2 Q173.15 35.05 170.4 36.25 168.8 36.95 166.0 36.95 L3.05 36.95 Q-4.2 36.95 -4.0 32.2 L-4.0 4.75 Q-4.0 3.4 -3.4 2.45 -2.4 0.7 0.45 0.25 L3.05 0.0 166.0 0.0 M171.15 4.75 Q171.0 2.0 166.0 2.0 L3.05 2.0 0.8 2.2 Q-1.0 2.5 -1.7 3.5 L-2.0 4.75 -2.0 32.2 Q-1.85 34.95 3.05 34.95 L166.0 34.95 Q168.3 34.95 169.6 34.4 L169.65 34.4 Q171.15 33.75 171.15 32.2 L171.15 4.75" fill="#00ffff" fill-rule="evenodd" stroke="none"/>
    <path d="M171.15 4.75 L171.15 32.2 Q171.15 33.75 169.65 34.4 L169.6 34.4 Q168.3 34.95 166.0 34.95 L3.05 34.95 Q-1.85 34.95 -2.0 32.2 L-2.0 4.75 -1.7 3.5 Q-1.0 2.5 0.8 2.2 L3.05 2.0 166.0 2.0 Q171.0 2.0 171.15 4.75" fill="#070a1b" fill-rule="evenodd" stroke="none"/>
    <path d="M164.55 34.6 L143.15 34.6 Q168.4 31.15 170.2 8.8 L170.2 30.65 Q170.2 34.6 164.55 34.6" fill="url(#gradient0)" fill-rule="evenodd" stroke="none"/>
    <path d="M106.6 2.3 Q19.2 3.65 -1.85 29.15 L-1.85 6.65 Q-2.8 2.1 4.5 2.25 L106.6 2.3" fill="url(#gradient1)" fill-rule="evenodd" stroke="none"/>
  </g>
  <defs>
    <linearGradient gradientTransform="matrix(-0.0168, -0.0079, -0.0286, 0.0224, 158.5, 38.8)" gradientUnits="userSpaceOnUse" id="gradient0" spreadMethod="pad" x1="-819.2" x2="819.2">
      <stop offset="0.0" stop-color="#ccffff" stop-opacity="0.29803923"/>
      <stop offset="1.0" stop-color="#d6d6d6" stop-opacity="0.0"/>
    </linearGradient>
    <linearGradient gradientTransform="matrix(0.027, 0.0641, 0.041, -0.0013, 83.05, -12.4)" gradientUnits="userSpaceOnUse" id="gradient1" spreadMethod="pad" x1="-819.2" x2="819.2">
      <stop offset="0.0" stop-color="#ccffff" stop-opacity="0.29803923"/>
      <stop offset="1.0" stop-color="#d6d6d6" stop-opacity="0.0"/>
    </linearGradient>
  </defs>
</svg>
