<?xml version="1.0" encoding="UTF-8" standalone="no"?>
<svg xmlns:xlink="http://www.w3.org/1999/xlink" height="36.45px" width="176.65px" xmlns="http://www.w3.org/2000/svg">
  <g transform="matrix(1.0, 0.0, 0.0, 1.0, 3.75, -0.25)">
    <path d="M172.15 32.2 Q172.15 34.4 170.0 35.3 L166.0 35.95 3.05 35.95 Q-3.0 35.95 -3.0 32.2 L-3.0 4.75 Q-3.0 3.7 -2.55 2.95 -1.7 1.6 0.6 1.2 L3.05 1.0 166.0 1.0 Q172.15 1.0 172.15 4.75 L172.15 32.2" fill="#070a1b" fill-rule="evenodd" stroke="none"/>
    <path d="M172.15 32.2 L172.15 4.75 Q172.15 1.0 166.0 1.0 L3.05 1.0 0.6 1.2 Q-1.7 1.6 -2.55 2.95 -3.0 3.7 -3.0 4.75 L-3.0 32.2 Q-3.0 35.95 3.05 35.95 L166.0 35.95 170.0 35.3 Q172.15 34.4 172.15 32.2 Z" fill="none" stroke="url(#gradient0)" stroke-linecap="round" stroke-linejoin="round" stroke-width="1.5"/>
    <path d="M164.7 34.6 L143.3 34.6 Q168.55 31.15 170.35 8.8 L170.35 30.65 Q170.35 34.6 164.7 34.6" fill="url(#gradient1)" fill-rule="evenodd" stroke="none"/>
    <path d="M106.8 2.3 Q19.35 3.65 -1.65 29.15 L-1.65 6.65 Q-2.65 2.1 4.7 2.25 L106.8 2.3" fill="url(#gradient2)" fill-rule="evenodd" stroke="none"/>
  </g>
  <defs>
    <linearGradient gradientTransform="matrix(0.0, 0.0215, -0.0272, 0.0, 84.6, 18.5)" gradientUnits="userSpaceOnUse" id="gradient0" spreadMethod="pad" x1="-819.2" x2="819.2">
      <stop offset="0.0" stop-color="#41ffff" stop-opacity="0.8"/>
      <stop offset="1.0" stop-color="#305c69" stop-opacity="0.8"/>
    </linearGradient>
    <linearGradient gradientTransform="matrix(-0.0168, -0.0079, -0.0286, 0.0224, 158.65, 38.8)" gradientUnits="userSpaceOnUse" id="gradient1" spreadMethod="pad" x1="-819.2" x2="819.2">
      <stop offset="0.0" stop-color="#ccffff" stop-opacity="0.29803923"/>
      <stop offset="1.0" stop-color="#d6d6d6" stop-opacity="0.0"/>
    </linearGradient>
    <linearGradient gradientTransform="matrix(0.027, 0.0641, 0.041, -0.0013, 83.25, -12.4)" gradientUnits="userSpaceOnUse" id="gradient2" spreadMethod="pad" x1="-819.2" x2="819.2">
      <stop offset="0.0" stop-color="#ccffff" stop-opacity="0.29803923"/>
      <stop offset="1.0" stop-color="#d6d6d6" stop-opacity="0.0"/>
    </linearGradient>
  </defs>
</svg>
