<?xml version="1.0" encoding="UTF-8" standalone="no"?>
<svg xmlns:xlink="http://www.w3.org/1999/xlink" height="48.4px" width="86.3px" xmlns="http://www.w3.org/2000/svg">
  <g transform="matrix(1.0, 0.0, 0.0, 1.0, 0.0, 0.0)">
    <path d="M85.85 11.0 L74.85 11.0 74.3 11.25 74.1 11.75 74.1 25.2 74.05 25.4 73.9 25.6 54.25 42.8 53.65 42.0 73.1 25.0 73.1 11.75 Q73.1 11.05 73.6 10.55 74.15 10.0 74.85 10.0 L85.7 10.0 85.85 11.0 M84.05 0.95 L83.85 1.0 71.35 1.0 70.95 1.1 71.0 1.1 70.7 1.35 56.5 22.05 56.25 22.25 55.95 22.25 55.7 22.05 55.6 21.75 55.6 5.75 55.35 5.3 55.3 5.25 Q55.15 5.0 54.85 5.0 L35.9 5.0 35.35 5.25 35.15 5.75 35.15 21.75 35.05 22.05 34.8 22.25 34.45 22.25 34.25 22.05 20.0 1.35 19.95 1.3 19.7 1.1 19.4 1.0 5.7 1.0 3.95 0.0 19.4 0.0 Q19.85 0.0 20.2 0.25 L20.15 0.2 20.8 0.8 34.15 20.2 34.15 5.75 Q34.15 5.05 34.65 4.55 35.2 4.0 35.9 4.0 L54.85 4.0 Q55.55 4.0 56.0 4.55 L56.05 4.6 Q56.6 5.05 56.6 5.75 L56.6 20.2 69.9 0.8 69.9 0.75 70.5 0.25 70.5 0.2 71.35 0.0 83.9 0.0 84.05 0.95 M84.2 3.35 L83.85 3.5 72.25 3.5 56.25 26.75 56.25 26.7 55.4 27.45 55.35 27.45 54.3 27.45 53.45 26.8 Q53.1 26.3 53.1 25.75 L53.1 7.5 37.65 7.5 37.65 25.75 37.3 26.8 36.35 27.45 35.35 27.45 35.3 27.45 34.45 26.75 18.5 3.5 10.05 3.5 8.3 2.5 18.75 2.5 18.95 2.55 19.15 2.75 35.25 26.2 35.25 26.15 35.65 26.5 35.6 26.5 36.1 26.5 36.5 26.2 36.65 25.75 36.65 7.0 36.8 6.65 37.15 6.5 53.6 6.5 Q53.8 6.5 53.95 6.65 L54.1 7.0 54.1 25.75 54.25 26.2 54.55 26.5 55.1 26.5 55.05 26.5 55.4 26.2 55.45 26.2 71.6 2.75 71.75 2.55 72.0 2.5 83.85 2.5 84.2 2.65 84.35 3.0 84.2 3.35 M86.1 12.45 L86.3 13.45 85.85 13.5 76.6 13.5 76.6 25.75 76.45 26.45 76.45 26.55 75.95 27.1 55.85 44.75 55.2 44.0 75.3 26.35 75.35 26.3 75.55 26.1 75.6 25.75 75.6 13.0 75.75 12.65 Q75.9 12.5 76.1 12.5 L85.85 12.5 86.1 12.45 M41.35 11.25 L41.35 15.25 49.35 15.25 49.35 11.25 41.35 11.25 M50.35 10.75 L50.35 15.75 50.2 16.1 49.85 16.25 40.85 16.25 40.5 16.1 40.35 15.75 40.35 10.75 Q40.35 10.55 40.5 10.4 40.65 10.25 40.85 10.25 L49.85 10.25 Q50.05 10.25 50.2 10.4 L50.35 10.75 M41.35 23.75 L49.35 23.75 49.35 19.75 41.35 19.75 41.35 23.75 M40.85 18.75 L49.85 18.75 Q50.05 18.75 50.2 18.9 L50.35 19.25 50.35 24.25 50.2 24.6 49.85 24.75 40.85 24.75 40.5 24.6 40.35 24.25 40.35 19.25 Q40.35 19.05 40.5 18.9 40.65 18.75 40.85 18.75 M50.2 30.4 L50.35 30.75 50.35 35.75 50.2 36.1 49.85 36.25 40.85 36.25 40.5 36.1 40.35 35.75 40.35 30.75 Q40.35 30.55 40.5 30.4 40.65 30.25 40.85 30.25 L49.85 30.25 Q50.05 30.25 50.2 30.4 M41.35 35.25 L49.35 35.25 49.35 31.25 41.35 31.25 41.35 35.25 M16.9 15.35 L16.55 15.05 16.0 15.1 Q15.75 15.2 15.65 15.5 L15.65 15.45 1.1 48.25 0.0 48.4 14.75 15.05 15.55 14.2 16.75 14.05 Q17.4 14.2 17.75 14.8 L34.2 37.75 34.25 37.75 Q34.6 38.15 34.6 38.8 L34.15 39.9 33.2 40.5 17.65 43.65 17.9 46.4 16.9 46.5 16.65 43.3 16.75 42.95 17.05 42.75 33.0 39.5 32.95 39.55 33.4 39.25 33.6 38.8 33.45 38.4 33.45 38.35 16.95 15.35 16.9 15.35 M17.0 18.0 L31.1 37.65 31.2 38.0 31.05 38.3 Q30.95 38.4 30.8 38.45 L15.7 41.55 15.65 41.55 15.25 41.8 Q15.1 42.05 15.1 42.3 L15.4 46.65 14.4 46.75 14.1 42.4 Q14.0 41.75 14.45 41.2 14.85 40.65 15.5 40.55 L29.85 37.6 16.7 19.3 4.0 47.95 2.85 48.05 16.15 18.1 16.35 17.85 16.7 17.85 Q16.9 17.85 17.0 18.0" fill="url(#gradient0)" fill-rule="evenodd" stroke="none"/>
  </g>
  <defs>
    <linearGradient gradientTransform="matrix(0.0, 0.0278, 0.0136, 0.0, 30.0, 30.25)" gradientUnits="userSpaceOnUse" id="gradient0" spreadMethod="pad" x1="-819.2" x2="819.2">
      <stop offset="0.00392156862745098" stop-color="#04709f"/>
      <stop offset="0.9254901960784314" stop-color="#00207e"/>
    </linearGradient>
  </defs>
</svg>
