<?xml version="1.0" encoding="UTF-8" standalone="no"?>
<svg xmlns:xlink="http://www.w3.org/1999/xlink" height="18.75px" width="46.6px" xmlns="http://www.w3.org/2000/svg">
  <g transform="matrix(1.0, 0.0, 0.0, 1.0, 0.5, -17.4)">
    <path d="M44.05 18.05 L45.25 18.0 Q45.9 19.2 45.3 20.5 L44.9 20.9 Q41.8 25.2 37.9 28.2 33.05 32.0 27.35 33.85 L24.85 34.65 Q20.75 35.7 16.25 35.45 L12.5 35.35 5.85 34.4 5.35 34.25 5.2 34.2 4.5 34.1 1.95 33.1 1.2 33.05 0.1 32.1 1.5 32.55 1.6 30.9 1.7 29.8 Q2.0 28.5 2.7 27.65 L4.3 26.1 5.55 26.45 7.35 27.0 Q7.95 27.2 7.9 27.3 6.75 27.15 5.5 27.3 4.2 28.0 3.15 30.1 L3.15 30.55 4.05 31.0 Q7.5 32.15 13.4 33.0 13.85 32.9 14.4 33.25 14.75 35.6 16.25 35.45 14.75 35.6 14.4 33.25 L14.55 33.3 23.65 31.75 Q23.85 31.35 23.65 30.55 L24.4 28.25 26.4 27.85 Q26.0 29.35 26.1 31.25 L27.75 30.55 Q31.6 29.25 34.5 27.45 L33.6 26.15 33.35 25.65 Q34.35 25.55 34.95 24.95 L36.7 26.3 Q41.7 23.15 44.05 18.05 M5.2 34.2 Q3.75 33.85 3.55 32.65 3.05 32.0 3.15 30.55 3.05 32.0 3.55 32.65 3.75 33.85 5.2 34.2 M36.7 26.3 L36.95 26.35 Q37.95 27.8 37.9 28.2 37.95 27.8 36.95 26.35 L36.7 26.3 M27.35 33.85 Q26.35 33.85 26.1 31.8 L26.1 31.25 26.1 31.8 Q26.35 33.85 27.35 33.85" fill="#8b96a8" fill-rule="evenodd" stroke="none"/>
    <path d="M34.95 24.95 Q39.1 22.85 42.0 18.85 L42.55 18.45 42.85 18.15 44.05 18.05 Q41.7 23.15 36.7 26.3 L34.95 24.95 M0.1 32.1 Q-0.2 30.95 0.45 29.15 L0.55 28.8 Q1.75 25.85 4.3 26.1 L2.7 27.65 Q2.0 28.5 1.7 29.8 L1.6 30.9 1.5 32.55 0.1 32.1 M7.9 27.3 L8.2 27.3 15.7 28.4 16.15 28.55 24.4 28.25 23.65 30.55 Q23.85 31.35 23.65 31.75 L14.55 33.3 14.4 33.25 14.2 32.6 Q14.55 29.6 16.15 28.55 14.55 29.6 14.2 32.6 L14.4 33.25 Q13.85 32.9 13.4 33.0 7.5 32.15 4.05 31.0 L3.15 30.55 3.15 30.1 Q4.2 28.0 5.5 27.3 6.75 27.15 7.9 27.3 M26.4 27.85 Q30.1 27.25 33.35 25.65 L33.6 26.15 34.5 27.45 Q31.6 29.25 27.75 30.55 L26.1 31.25 Q26.0 29.35 26.4 27.85" fill="#465264" fill-rule="evenodd" stroke="none"/>
    <path d="M34.95 24.95 Q39.1 22.85 42.0 18.85 L42.55 18.45 42.85 18.15 44.05 18.05 45.25 18.0 Q45.9 19.2 45.3 20.5 L44.9 20.9 Q41.8 25.2 37.9 28.2 33.05 32.0 27.35 33.85 L24.85 34.65 Q20.75 35.7 16.25 35.45 L12.5 35.35 5.85 34.4 5.35 34.25 5.2 34.2 4.5 34.1 1.95 33.1 1.2 33.05 0.1 32.1 Q-0.2 30.95 0.45 29.15 L0.55 28.8 Q1.75 25.85 4.3 26.1 L5.55 26.45 7.35 27.0 Q7.95 27.2 7.9 27.3 L8.2 27.3 15.7 28.4 16.15 28.55 24.4 28.25 26.4 27.85 Q30.1 27.25 33.35 25.65 34.35 25.55 34.95 24.95 L36.7 26.3 36.95 26.35 Q37.95 27.8 37.9 28.2 M16.25 35.45 Q14.75 35.6 14.4 33.25 L14.2 32.6 Q14.55 29.6 16.15 28.55 M3.15 30.55 Q3.05 32.0 3.55 32.65 3.75 33.85 5.2 34.2 M3.15 30.55 L3.15 30.1 Q4.2 28.0 5.5 27.3 6.75 27.15 7.9 27.3 M26.1 31.25 L26.1 31.8 Q26.35 33.85 27.35 33.85 M26.4 27.85 Q26.0 29.35 26.1 31.25" fill="none" stroke="#2a2a2a" stroke-linecap="round" stroke-linejoin="round" stroke-width="1.0"/>
  </g>
</svg>
