<?xml version="1.0" encoding="UTF-8" standalone="no"?>
<svg xmlns:xlink="http://www.w3.org/1999/xlink" height="52.0px" width="34.8px" xmlns="http://www.w3.org/2000/svg">
  <g transform="matrix(1.0, 0.0, 0.0, 1.0, -922.1, -44.2)">
    <path d="M940.3 54.1 L941.4 55.3 Q938.25 61.6 930.65 66.3 L930.55 66.35 930.55 66.4 929.45 65.25 Q936.65 60.45 940.3 54.1 M946.0 60.25 L947.25 61.6 Q943.8 67.95 935.8 72.05 L934.55 70.7 Q942.5 66.5 946.0 60.25" fill="#91917d" fill-rule="evenodd" stroke="none"/>
    <path d="M941.4 55.3 L942.2 56.15 Q939.0 62.2 931.6 66.8 L931.5 66.85 931.5 66.9 931.15 67.05 930.55 66.4 930.55 66.35 930.65 66.3 Q938.25 61.6 941.4 55.3 M947.25 61.6 L947.95 62.35 Q944.5 68.65 936.65 72.85 L936.6 72.9 935.9 72.15 935.85 72.1 935.8 72.05 Q943.8 67.95 947.25 61.6" fill="#fafafa" fill-rule="evenodd" stroke="none"/>
    <path d="M929.45 65.25 L922.85 58.1 931.8 44.95 940.3 54.1 Q936.65 60.45 929.45 65.25 M942.2 56.15 L946.0 60.25 Q942.5 66.5 934.55 70.7 L931.15 67.05 931.5 66.9 931.5 66.85 931.6 66.8 Q939.0 62.2 942.2 56.15 M947.95 62.35 L950.5 65.15 Q949.2 68.0 946.8 70.5 943.95 73.55 939.55 76.05 L936.6 72.9 936.65 72.85 Q944.5 68.65 947.95 62.35" fill="url(#gradient0)" fill-rule="evenodd" stroke="none"/>
    <path d="M950.5 65.15 L952.85 62.8 956.15 66.1 956.15 93.45 941.45 78.75 Q944.5 77.0 946.55 74.75 L950.15 78.35 951.55 75.25 948.5 72.2 Q950.3 69.05 950.5 65.15 M952.4 80.6 L953.8 77.5 952.9 76.6 951.5 79.7 952.4 80.6" fill="url(#gradient1)" fill-rule="evenodd" stroke="none"/>
    <path d="M956.15 93.45 L956.15 95.45 952.9 95.45 936.8 78.8 939.55 76.05 Q943.95 73.55 946.8 70.5 949.2 68.0 950.5 65.15 950.3 69.05 948.5 72.2 L951.55 75.25 950.15 78.35 946.55 74.75 Q944.5 77.0 941.45 78.75 L956.15 93.45 M952.4 80.6 L951.5 79.7 952.9 76.6 953.8 77.5 952.4 80.6" fill="url(#gradient2)" fill-rule="evenodd" stroke="none"/>
    <path d="M929.45 65.25 L922.85 58.1 931.8 44.95 940.3 54.1 941.4 55.3 942.2 56.15 946.0 60.25 947.25 61.6 947.95 62.35 950.5 65.15 952.85 62.8 956.15 66.1 956.15 93.45 956.15 95.45 952.9 95.45 936.8 78.8 939.55 76.05 936.6 72.9 935.9 72.15 M935.85 72.1 L935.8 72.05 934.55 70.7 931.15 67.05 930.55 66.4 929.45 65.25 Q936.65 60.45 940.3 54.1 M939.55 76.05 Q943.95 73.55 946.8 70.5 949.2 68.0 950.5 65.15 M934.55 70.7 Q942.5 66.5 946.0 60.25" fill="none" stroke="#2a2a2a" stroke-linecap="round" stroke-linejoin="round" stroke-width="1.5"/>
  </g>
  <defs>
    <linearGradient gradientTransform="matrix(0.0051, -0.0051, 0.0138, 0.0139, 937.25, 61.5)" gradientUnits="userSpaceOnUse" id="gradient0" spreadMethod="pad" x1="-819.2" x2="819.2">
      <stop offset="0.0" stop-color="#b6b6a9"/>
      <stop offset="0.5529411764705883" stop-color="#e9e9e4"/>
      <stop offset="1.0" stop-color="#b6b6a9"/>
    </linearGradient>
    <linearGradient gradientTransform="matrix(0.0092, -0.0092, 0.012, 0.012, 953.3, 79.6)" gradientUnits="userSpaceOnUse" id="gradient1" spreadMethod="pad" x1="-819.2" x2="819.2">
      <stop offset="0.011764705882352941" stop-color="#8f9aa1"/>
      <stop offset="0.5215686274509804" stop-color="#d2d2d2"/>
      <stop offset="1.0" stop-color="#96a0a6"/>
    </linearGradient>
    <linearGradient gradientTransform="matrix(0.0092, -0.0092, 0.012, 0.012, 953.3, 79.6)" gradientUnits="userSpaceOnUse" id="gradient2" spreadMethod="pad" x1="-819.2" x2="819.2">
      <stop offset="0.011764705882352941" stop-color="#738088"/>
      <stop offset="0.5215686274509804" stop-color="#f0f0f0"/>
      <stop offset="1.0" stop-color="#96a0a6"/>
    </linearGradient>
  </defs>
</svg>
