<?xml version="1.0" encoding="UTF-8" standalone="no"?>
<svg xmlns:xlink="http://www.w3.org/1999/xlink" height="86.9px" width="125.45px" xmlns="http://www.w3.org/2000/svg">
  <g transform="matrix(1.0, 0.0, 0.0, 1.0, -18.85, -60.0)">
    <path d="M97.2 68.3 L132.2 64.95 142.8 72.2 140.25 72.65 139.75 72.75 126.95 74.95 118.8 76.35 102.1 79.2 101.4 79.35 95.5 80.35 86.25 81.95 86.15 81.9 79.25 77.05 79.05 77.1 59.95 80.4 52.85 81.6 52.7 81.65 52.25 82.3 46.95 89.75 50.2 108.5 51.3 115.05 51.35 115.35 56.25 118.8 58.35 120.3 58.4 120.45 58.8 122.8 45.95 141.0 20.35 145.4 33.75 122.7 33.5 121.35 33.45 121.1 33.15 119.55 28.4 79.5 38.25 65.5 76.25 61.5 80.2 64.3 80.7 64.2 82.45 65.35 89.05 64.2 88.9 64.15 90.8 63.8 97.2 68.3" fill="#009966" fill-rule="evenodd" stroke="none"/>
    <path d="M97.2 68.3 L132.2 64.95 142.8 72.2 140.25 72.65 139.75 72.75 126.95 74.95 118.8 76.35 102.1 79.2 101.4 79.35 95.5 80.35 86.25 81.95 86.15 81.9 79.25 77.05 79.05 77.1 59.95 80.4 52.85 81.6 52.7 81.65 52.25 82.3 46.95 89.75 50.2 108.5 51.3 115.05 51.35 115.35 56.25 118.8 58.35 120.3 58.4 120.45 58.8 122.8 45.95 141.0 20.35 145.4 33.75 122.7 33.5 121.35 33.45 121.1 33.15 119.55 28.4 79.5 38.25 65.5 76.25 61.5 80.2 64.3 80.7 64.2 82.45 65.35 89.05 64.2 88.9 64.15 90.8 63.8 97.2 68.3 Z" fill="none" stroke="#2a2a2a" stroke-linecap="round" stroke-linejoin="round" stroke-width="3.0"/>
    <path d="M116.8 67.85 L107.95 68.75 99.0 69.6 97.2 68.3 132.2 64.95 132.75 65.35 120.7 67.4 116.8 67.85 M82.45 65.35 L89.05 64.2 93.2 67.15 85.9 68.4 80.0 69.45 51.45 74.35 44.8 75.5 44.05 76.55 38.65 84.15 38.75 84.75 39.55 97.35 39.95 104.2 40.0 104.65 40.2 107.9 40.25 109.2 40.35 110.55 40.45 111.9 40.45 112.1 40.65 115.3 40.95 120.2 33.7 143.1 20.35 145.4 33.75 122.7 33.75 122.8 34.15 124.85 35.0 125.45 34.65 121.2 37.45 116.75 37.25 112.95 39.6 114.6 39.3 108.05 38.75 108.15 35.35 105.75 35.5 108.7 35.75 111.8 36.1 117.15 34.55 119.35 31.85 79.75 38.75 69.95 76.5 63.45 75.15 62.45 38.05 65.75 38.25 65.5 76.25 61.5 80.2 64.3 41.05 70.95 33.85 80.95 35.1 101.25 39.05 104.05 38.7 96.8 36.2 95.0 36.15 93.5 36.15 93.0 35.6 84.25 35.5 81.9 35.45 81.6 42.0 72.3 82.45 65.35" fill="url(#gradient0)" fill-rule="evenodd" stroke="none"/>
    <path d="M107.95 68.75 L116.8 67.85 123.6 72.55 115.45 73.95 107.95 68.75 M88.25 70.05 L82.8 71.0 89.7 75.9 95.15 74.95 98.05 77.0 92.1 78.0 80.0 69.45 85.9 68.4 88.25 70.05 M44.05 76.55 L44.8 75.5 51.45 74.35 56.6 78.05 52.3 78.8 51.85 79.35 51.45 80.0 50.95 80.65 50.85 80.9 50.6 81.2 44.05 76.55 M41.45 126.95 L49.6 132.75 43.5 141.4 42.3 141.6 41.85 133.45 41.5 128.4 41.45 126.95" fill="url(#gradient1)" fill-rule="evenodd" stroke="none"/>
    <path d="M116.8 67.85 L120.7 67.4 130.65 66.45 130.75 66.45 131.0 66.6 138.35 70.05 123.6 72.55 116.8 67.85 M99.0 69.6 L107.95 68.75 115.45 73.95 98.05 77.0 95.15 74.95 88.25 70.05 85.9 68.4 93.2 67.15 96.9 69.8 99.0 69.6 M80.0 69.45 L92.1 78.0 87.2 78.85 86.95 78.9 80.0 74.0 79.6 74.05 56.6 78.05 51.45 74.35 80.0 69.45 M33.7 143.1 L40.95 120.2 40.65 115.3 40.45 112.1 40.45 111.9 40.35 110.55 40.25 109.2 40.2 107.9 40.0 104.65 39.95 104.2 39.55 97.35 38.75 84.75 38.65 84.15 44.05 76.55 50.6 81.2 45.05 89.3 44.65 89.15 49.3 116.15 49.95 116.65 56.7 121.8 56.75 121.85 56.85 122.5 49.6 132.75 41.45 126.95 41.3 124.75 41.7 123.3 35.0 142.85 33.7 143.1 M42.3 141.6 L38.9 142.2 41.85 133.45 42.3 141.6" fill="url(#gradient2)" fill-rule="evenodd" stroke="none"/>
    <path d="M120.7 67.4 L132.75 65.35 142.3 71.85 138.35 70.05 131.0 66.6 130.75 66.45 130.65 66.45 120.7 67.4 M97.2 68.3 L99.0 69.6 96.9 69.8 93.2 67.15 89.05 64.2 88.9 64.15 90.8 63.8 97.2 68.3 M38.9 142.2 L36.8 142.55 41.5 128.4 41.85 133.45 38.9 142.2" fill="#ffffff" fill-rule="evenodd" stroke="none"/>
    <path d="M87.2 78.85 L86.15 81.9 79.25 77.05 79.05 77.1 79.6 74.05 80.0 74.0 86.95 78.9 87.2 78.85 M56.7 121.8 L49.95 116.65 51.3 115.05 51.35 115.35 56.25 118.8 58.35 120.3 58.4 120.45 56.7 121.8 M45.05 89.3 L50.6 81.2 50.85 80.9 50.95 80.65 51.45 80.0 52.85 81.6 52.7 81.65 52.25 82.3 46.95 89.75 45.05 89.3" fill="#7e878c" fill-rule="evenodd" stroke="none"/>
    <path d="M115.45 73.95 L123.6 72.55 138.35 70.05 142.3 71.85 142.8 72.2 140.25 72.65 139.75 72.75 126.95 74.95 118.8 76.35 102.1 79.2 101.4 79.35 95.5 80.35 86.25 81.95 86.15 81.9 87.2 78.85 92.1 78.0 98.05 77.0 115.45 73.95 M49.6 132.75 L56.85 122.5 56.75 121.85 56.7 121.8 58.4 120.45 58.8 122.8 45.95 141.0 43.5 141.4 49.6 132.75 M49.95 116.65 L49.3 116.15 44.65 89.15 45.05 89.3 46.95 89.75 50.2 108.5 51.3 115.05 49.95 116.65 M51.45 80.0 L51.85 79.35 52.3 78.8 56.6 78.05 79.6 74.05 79.05 77.1 59.95 80.4 52.85 81.6 51.45 80.0" fill="#5b6970" fill-rule="evenodd" stroke="none"/>
    <path d="M80.2 64.3 L80.7 64.2 82.45 65.35 42.0 72.3 35.45 81.6 35.5 81.9 35.6 84.25 36.15 93.0 36.15 93.5 36.2 95.0 38.7 96.8 39.05 104.05 35.1 101.25 33.85 80.95 41.05 70.95 80.2 64.3 M33.45 121.1 L34.55 119.35 36.1 117.15 35.75 111.8 35.5 108.7 35.35 105.75 38.75 108.15 39.3 108.05 39.6 114.6 37.25 112.95 37.45 116.75 34.65 121.2 34.7 121.1 33.75 122.7 33.5 121.35 33.45 121.1 M35.0 142.85 L41.7 123.3 41.3 124.75 41.45 126.95 41.5 128.4 36.8 142.55 35.0 142.85" fill="#244d87" fill-rule="evenodd" stroke="none"/>
    <path d="M38.05 65.75 L75.15 62.45 76.5 63.45 38.75 69.95 31.85 79.75 34.55 119.35 33.45 121.1 33.15 119.55 28.4 79.5 38.05 65.75 M34.65 121.2 L35.0 125.45 34.15 124.85 33.75 122.8 33.75 122.7 34.7 121.1 34.65 121.2" fill="url(#gradient3)" fill-rule="evenodd" stroke="none"/>
    <path d="M89.7 75.9 L82.8 71.0 88.25 70.05 95.15 74.95 89.7 75.9" fill="#ffffff" fill-rule="evenodd" stroke="none"/>
    <path d="M89.9 75.05 L83.0 70.15 88.45 69.2 95.35 74.1 89.9 75.05" fill="#244d87" fill-rule="evenodd" stroke="none"/>
    <path d="M38.75 136.65 L44.0 120.95 44.1 120.6 42.4 94.15 42.3 94.0 36.05 89.65 36.0 87.75 43.5 93.15 43.75 93.4 43.85 93.65 45.65 120.6 45.6 120.85 39.0 140.65 38.75 136.65" fill="#ffffff" fill-rule="evenodd" stroke="none"/>
    <path d="M38.75 136.65 L38.55 132.75 42.5 120.9 40.75 94.4 36.2 91.2 36.05 89.65 42.3 94.0 44.0 120.9 44.0 120.95 38.75 136.65" fill="#244d87" fill-rule="evenodd" stroke="none"/>
  </g>
  <defs>
    <linearGradient gradientTransform="matrix(0.0082, -0.0527, 0.0022, 3.0E-4, 46.05, 105.4)" gradientUnits="userSpaceOnUse" id="gradient0" spreadMethod="pad" x1="-819.2" x2="819.2">
      <stop offset="0.08235294117647059" stop-color="#919aa1"/>
      <stop offset="0.4745098039215686" stop-color="#c6ccd0"/>
      <stop offset="1.0" stop-color="#f3fbff"/>
    </linearGradient>
    <linearGradient gradientTransform="matrix(0.0205, 0.1186, 0.0021, -4.0E-4, 161.45, 177.1)" gradientUnits="userSpaceOnUse" id="gradient1" spreadMethod="pad" x1="-819.2" x2="819.2">
      <stop offset="0.0" stop-color="#d4e9f0"/>
      <stop offset="0.5333333333333333" stop-color="#ffffff"/>
      <stop offset="1.0" stop-color="#cee1e7"/>
    </linearGradient>
    <linearGradient gradientTransform="matrix(-0.0121, -0.0716, 0.985, -0.1661, -238.55, 176.85)" gradientUnits="userSpaceOnUse" id="gradient2" spreadMethod="pad" x1="-819.2" x2="819.2">
      <stop offset="0.03529411764705882" stop-color="#c6ccd0"/>
      <stop offset="0.49411764705882355" stop-color="#e1edf3"/>
      <stop offset="0.9529411764705882" stop-color="#a7b7bf"/>
    </linearGradient>
    <linearGradient gradientTransform="matrix(0.0286, -0.0405, 0.0318, 0.0224, 75.2, 87.4)" gradientUnits="userSpaceOnUse" id="gradient3" spreadMethod="pad" x1="-819.2" x2="819.2">
      <stop offset="0.0196078431372549" stop-color="#a7b5bf"/>
      <stop offset="0.2980392156862745" stop-color="#919aa1"/>
      <stop offset="0.9725490196078431" stop-color="#c6ccd0"/>
    </linearGradient>
  </defs>
</svg>
