<?xml version="1.0" encoding="UTF-8" standalone="no"?>
<svg xmlns:xlink="http://www.w3.org/1999/xlink" height="145.8px" width="162.25px" xmlns="http://www.w3.org/2000/svg">
  <g transform="matrix(1.0, 0.0, 0.0, 1.0, -792.5, 56.25)">
    <path d="M828.45 -29.35 L824.05 -35.4 834.6 -42.45 838.85 -36.75 828.45 -29.35" fill="url(#gradient0)" fill-rule="evenodd" stroke="none"/>
    <path d="M838.85 -36.75 L839.75 -35.55 829.3 -28.15 828.45 -29.35 838.85 -36.75" fill="#675e58" fill-rule="evenodd" stroke="none"/>
    <path d="M839.75 -35.55 L840.25 -34.9 829.8 -27.45 829.3 -28.15 839.75 -35.55" fill="#f3f3f3" fill-rule="evenodd" stroke="none"/>
    <path d="M840.25 -34.9 L846.35 -26.8 835.3 -19.85 829.8 -27.45 840.25 -34.9" fill="url(#gradient1)" fill-rule="evenodd" stroke="none"/>
    <path d="M828.45 -29.35 L824.05 -35.4 834.6 -42.45 838.85 -36.75 839.75 -35.55 840.25 -34.9 846.35 -26.8 835.3 -19.85 829.8 -27.45 829.3 -28.15 828.45 -29.35 838.85 -36.75" fill="none" stroke="#0c354f" stroke-linecap="round" stroke-linejoin="round" stroke-width="1.0"/>
    <path d="M934.75 -5.65 Q932.85 -14.95 928.45 -23.2 L928.25 -23.6 931.0 -23.6 Q937.35 -18.05 939.8 -7.4 L934.75 -5.65" fill="url(#gradient2)" fill-rule="evenodd" stroke="none"/>
    <path d="M928.45 -23.2 L920.6 -34.75 925.85 -38.25 928.25 -32.85 935.2 -23.6 935.1 -23.6 931.0 -23.6 928.25 -23.6 928.45 -23.2" fill="url(#gradient3)" fill-rule="evenodd" stroke="none"/>
    <path d="M928.25 -32.85 L930.8 -32.7 937.8 -23.6 937.3 -23.6 935.2 -23.6 937.3 -23.6 Q943.0 -17.1 947.2 -10.0 L945.75 -9.5 947.2 -10.0 954.0 -12.4 954.0 -10.0 935.3 -2.75 934.75 -5.65 939.8 -7.4 945.75 -9.5 940.2 -17.15 936.8 -21.5 935.1 -23.6 935.2 -23.6 928.25 -32.85" fill="#f3f3f3" fill-rule="evenodd" stroke="none"/>
    <path d="M930.8 -32.7 L942.65 -33.35 Q946.15 -34.0 949.15 -35.1 948.9 -31.15 945.8 -28.6 L949.7 -23.6 942.65 -23.6 937.8 -23.6 930.8 -32.7 M942.65 -33.35 L942.65 -23.6 942.65 -33.35" fill="url(#gradient4)" fill-rule="evenodd" stroke="none"/>
    <path d="M949.7 -23.6 L954.0 -23.6 954.0 -12.4 947.2 -10.0 Q943.0 -17.1 937.3 -23.6 L937.8 -23.6 942.65 -23.6 949.7 -23.6 M931.0 -23.6 L935.1 -23.6 936.8 -21.5 940.2 -17.15 945.75 -9.5 939.8 -7.4 Q937.35 -18.05 931.0 -23.6" fill="url(#gradient5)" fill-rule="evenodd" stroke="none"/>
    <path d="M954.0 -10.0 L954.0 -4.5 935.85 1.55 935.3 -2.75 954.0 -10.0" fill="url(#gradient6)" fill-rule="evenodd" stroke="none"/>
    <path d="M928.45 -23.2 L920.6 -34.75 925.85 -38.25 928.25 -32.85 930.8 -32.7 942.65 -33.35 Q946.15 -34.0 949.15 -35.1 948.9 -31.15 945.8 -28.6 L949.7 -23.6 954.0 -23.6 954.0 -12.4 954.0 -10.0 954.0 -4.5 935.85 1.55 935.3 -2.75 934.75 -5.65 Q932.85 -14.95 928.45 -23.2 L928.25 -23.6 931.0 -23.6 935.1 -23.6 935.2 -23.6 928.25 -32.85 M942.65 -23.6 L949.7 -23.6 M935.2 -23.6 L937.3 -23.6 937.8 -23.6 942.65 -23.6 942.65 -33.35 M934.75 -5.65 L939.8 -7.4 945.75 -9.5 947.2 -10.0 Q943.0 -17.1 937.3 -23.6 M947.2 -10.0 L954.0 -12.4 M935.3 -2.75 L954.0 -10.0" fill="none" stroke="#2a2a2a" stroke-linecap="round" stroke-linejoin="round" stroke-width="1.5"/>
    <path d="M865.4 -46.15 Q839.4 -46.15 820.95 -27.8 802.55 -9.35 802.55 16.65 802.55 42.65 820.95 61.05 839.4 79.45 865.4 79.45 891.4 79.45 909.8 61.05 928.2 42.65 928.2 16.65 928.2 -9.35 909.8 -27.8 891.4 -46.15 865.4 -46.15 M865.4 -51.8 Q893.75 -51.8 913.8 -31.8 933.8 -11.75 933.8 16.6 933.8 44.95 913.8 64.95 893.75 85.05 865.4 85.05 837.1 85.05 817.0 64.95 796.95 44.95 796.95 16.6 796.95 -11.75 817.0 -31.8 837.1 -51.8 865.4 -51.8 M865.4 -56.25 Q895.6 -56.25 916.95 -34.95 938.3 -13.55 938.3 16.65 938.3 46.8 916.95 68.15 895.6 89.55 865.4 89.55 835.25 89.55 813.85 68.15 792.5 46.8 792.5 16.65 792.5 -13.55 813.85 -34.95 835.25 -56.25 865.4 -56.25 M865.4 -53.35 Q836.45 -53.35 815.9 -32.9 795.4 -12.35 795.4 16.65 795.4 45.6 815.9 66.1 836.45 86.65 865.4 86.65 894.4 86.65 914.9 66.1 935.4 45.6 935.4 16.65 935.4 -12.35 914.9 -32.9 894.4 -53.35 865.4 -53.35" fill="url(#gradient7)" fill-rule="evenodd" stroke="none"/>
    <path d="M865.4 -51.8 Q837.1 -51.8 817.0 -31.8 796.95 -11.75 796.95 16.6 796.95 44.95 817.0 64.95 837.1 85.05 865.4 85.05 893.75 85.05 913.8 64.95 933.8 44.95 933.8 16.6 933.8 -11.75 913.8 -31.8 893.75 -51.8 865.4 -51.8 M865.4 -53.35 Q894.4 -53.35 914.9 -32.9 935.4 -12.35 935.4 16.65 935.4 45.6 914.9 66.1 894.4 86.65 865.4 86.65 836.45 86.65 815.9 66.1 795.4 45.6 795.4 16.65 795.4 -12.35 815.9 -32.9 836.45 -53.35 865.4 -53.35" fill="#455661" fill-rule="evenodd" stroke="none"/>
    <path d="M865.4 -53.35 Q894.4 -53.35 914.9 -32.9 935.4 -12.35 935.4 16.65 935.4 45.6 914.9 66.1 894.4 86.65 865.4 86.65 836.45 86.65 815.9 66.1 795.4 45.6 795.4 16.65 795.4 -12.35 815.9 -32.9 836.45 -53.35 865.4 -53.35 Z" fill="none" stroke="#0c354f" stroke-linecap="round" stroke-linejoin="round" stroke-width="1.2000000000000002"/>
  </g>
  <defs>
    <linearGradient gradientTransform="matrix(0.0052, -0.0042, 0.005, 0.0062, 831.45, -35.9)" gradientUnits="userSpaceOnUse" id="gradient0" spreadMethod="pad" x1="-819.2" x2="819.2">
      <stop offset="0.0" stop-color="#b6b6a9"/>
      <stop offset="0.5529411764705883" stop-color="#e9e9e4"/>
      <stop offset="1.0" stop-color="#b6b6a9"/>
    </linearGradient>
    <linearGradient gradientTransform="matrix(0.0047, -0.0036, 0.0053, 0.0068, 836.9, -28.6)" gradientUnits="userSpaceOnUse" id="gradient1" spreadMethod="pad" x1="-819.2" x2="819.2">
      <stop offset="0.011764705882352941" stop-color="#8f9aa1"/>
      <stop offset="0.5215686274509804" stop-color="#d2d2d2"/>
      <stop offset="1.0" stop-color="#96a0a6"/>
    </linearGradient>
    <linearGradient gradientTransform="matrix(-0.0019, -0.0071, 0.0151, -0.004, 942.2, -16.9)" gradientUnits="userSpaceOnUse" id="gradient2" spreadMethod="pad" x1="-819.2" x2="819.2">
      <stop offset="0.011764705882352941" stop-color="#495358"/>
      <stop offset="1.0" stop-color="#a8a8a8"/>
    </linearGradient>
    <linearGradient gradientTransform="matrix(-0.0019, -0.0071, 0.0163, -0.0044, 936.0, -30.45)" gradientUnits="userSpaceOnUse" id="gradient3" spreadMethod="pad" x1="-819.2" x2="819.2">
      <stop offset="0.011764705882352941" stop-color="#495358"/>
      <stop offset="1.0" stop-color="#a8a8a8"/>
    </linearGradient>
    <linearGradient gradientTransform="matrix(-0.0019, -0.0071, 0.0163, -0.0044, 936.0, -30.45)" gradientUnits="userSpaceOnUse" id="gradient4" spreadMethod="pad" x1="-819.2" x2="819.2">
      <stop offset="0.011764705882352941" stop-color="#69767e"/>
      <stop offset="1.0" stop-color="#bcbcbc"/>
    </linearGradient>
    <linearGradient gradientTransform="matrix(-0.0019, -0.0071, 0.0151, -0.004, 942.2, -16.9)" gradientUnits="userSpaceOnUse" id="gradient5" spreadMethod="pad" x1="-819.2" x2="819.2">
      <stop offset="0.011764705882352941" stop-color="#69767e"/>
      <stop offset="1.0" stop-color="#bcbcbc"/>
    </linearGradient>
    <linearGradient gradientTransform="matrix(0.0091, -0.0024, 0.0048, 0.018, 907.45, -139.4)" gradientUnits="userSpaceOnUse" id="gradient6" spreadMethod="pad" x1="-819.2" x2="819.2">
      <stop offset="0.011764705882352941" stop-color="#8f9aa1"/>
      <stop offset="0.9411764705882353" stop-color="#d2d2d2"/>
    </linearGradient>
    <linearGradient gradientTransform="matrix(-0.0563, -0.0687, 0.0687, -0.0563, 865.4, 16.65)" gradientUnits="userSpaceOnUse" id="gradient7" spreadMethod="pad" x1="-819.2" x2="819.2">
      <stop offset="0.24313725490196078" stop-color="#98aab6"/>
      <stop offset="0.5333333333333333" stop-color="#56b2c9"/>
      <stop offset="0.7764705882352941" stop-color="#ddedf8"/>
    </linearGradient>
  </defs>
</svg>
