<?xml version="1.0" encoding="UTF-8" standalone="no"?>
<svg xmlns:xlink="http://www.w3.org/1999/xlink" height="147.3px" width="147.3px" xmlns="http://www.w3.org/2000/svg">
  <g transform="matrix(1.0, 0.0, 0.0, 1.0, -791.75, 57.0)">
    <path d="M865.4 -56.25 Q895.6 -56.25 916.95 -34.95 938.3 -13.55 938.3 16.65 938.3 46.8 916.95 68.15 895.6 89.55 865.4 89.55 835.25 89.55 813.85 68.15 792.5 46.8 792.5 16.65 792.5 -13.55 813.85 -34.95 835.25 -56.25 865.4 -56.25 Z" fill="none" stroke="#0c354f" stroke-linecap="round" stroke-linejoin="round" stroke-width="1.5"/>
    <path d="M809.45 -12.3 Q802.55 0.75 802.55 16.65 802.55 42.65 820.95 61.05 839.4 79.45 865.4 79.45 888.7 79.45 905.95 64.65 L908.45 66.65 Q890.2 82.6 865.4 82.6 838.1 82.6 818.7 63.3 799.4 43.95 799.4 16.65 799.4 -0.35 806.9 -14.3 L809.45 -12.3" fill="url(#gradient0)" fill-rule="evenodd" stroke="none"/>
    <path d="M918.3 -26.85 Q933.8 -8.35 933.8 16.6 933.8 38.2 922.2 54.95 L919.8 55.2 Q931.95 38.4 931.95 16.65 931.95 -8.05 916.35 -26.3 L918.3 -26.85" fill="url(#gradient1)" fill-rule="evenodd" stroke="none"/>
    <path d="M865.4 -46.15 Q891.4 -46.15 909.8 -27.8 928.2 -9.35 928.2 16.65 928.2 42.65 909.8 61.05 891.4 79.45 865.4 79.45 839.4 79.45 820.95 61.05 802.55 42.65 802.55 16.65 802.55 -9.35 820.95 -27.8 839.4 -46.15 865.4 -46.15 Z" fill="none" stroke="#0c354f" stroke-linecap="round" stroke-linejoin="round" stroke-width="1.5"/>
  </g>
  <defs>
    <linearGradient gradientTransform="matrix(-0.0665, -0.0459, 0.0504, -0.0731, 868.0, 14.3)" gradientUnits="userSpaceOnUse" id="gradient0" spreadMethod="pad" x1="-819.2" x2="819.2">
      <stop offset="0.0" stop-color="#7fc4d7" stop-opacity="0.0"/>
      <stop offset="0.4745098039215686" stop-color="#ffffff"/>
      <stop offset="1.0" stop-color="#98aab6" stop-opacity="0.0"/>
    </linearGradient>
    <linearGradient gradientTransform="matrix(0.0096, 0.0358, -0.0857, 0.023, 970.3, 3.05)" gradientUnits="userSpaceOnUse" id="gradient1" spreadMethod="pad" x1="-819.2" x2="819.2">
      <stop offset="0.0" stop-color="#57b1c8" stop-opacity="0.007843138"/>
      <stop offset="0.5529411764705883" stop-color="#ecf0f2"/>
      <stop offset="1.0" stop-color="#98aab6" stop-opacity="0.0"/>
    </linearGradient>
  </defs>
</svg>
