<?xml version="1.0" encoding="UTF-8" standalone="no"?>
<svg xmlns:xlink="http://www.w3.org/1999/xlink" height="152.9px" width="142.6px" xmlns="http://www.w3.org/2000/svg">
  <g transform="matrix(1.0, 0.0, 0.0, 1.0, -784.3, 66.75)">
    <path d="M887.2 -65.25 Q903.0 -65.25 914.15 -54.1 925.4 -42.85 925.4 -27.05 925.4 -11.65 914.8 -0.7 911.05 4.1 910.45 9.45 L910.35 10.75 910.3 11.55 Q910.3 17.6 914.0 22.35 924.15 33.0 924.15 47.75 924.15 63.0 913.25 73.8 902.45 84.65 887.2 84.65 871.85 84.65 861.05 73.8 855.85 68.6 853.15 62.35 L853.0 61.95 Q849.5 54.2 843.6 50.6 L842.35 49.9 Q837.05 47.1 829.95 47.35 L829.7 47.4 822.95 47.95 Q807.55 47.95 796.65 37.05 785.8 26.25 785.8 10.85 785.8 -4.5 796.65 -15.4 807.55 -26.25 822.95 -26.25 L827.45 -26.0 830.45 -26.4 Q834.25 -27.1 837.7 -28.5 839.75 -29.35 841.6 -30.4 L842.7 -31.1 Q848.55 -34.9 851.5 -41.1 L852.45 -43.25 852.6 -43.55 Q855.3 -49.25 860.1 -54.1 871.35 -65.25 887.2 -65.25 M841.6 -30.4 L857.8 -4.65 860.7 -1.45 863.2 0.85 Q866.7 3.85 870.65 5.8 877.1 9.0 884.7 9.45 L910.45 9.45 M884.7 9.45 L885.5 9.5 Q881.4 9.7 877.65 10.75 869.2 13.05 862.45 19.4 L861.5 20.3 Q858.75 23.05 856.7 26.15 L842.35 49.9 M857.8 -4.65 Q860.5 1.9 860.5 9.55 860.5 18.6 856.7 26.15" fill="none" stroke="#0c354f" stroke-linecap="round" stroke-linejoin="round" stroke-width="3.0"/>
    <path d="M842.7 -31.1 Q848.55 -34.9 851.5 -41.1 L852.45 -43.25 852.6 -43.55 Q855.3 -49.25 860.1 -54.1 871.35 -65.25 887.2 -65.25 L893.6 -64.75 894.65 -64.6 Q905.7 -62.55 914.15 -54.1 925.4 -42.85 925.4 -27.05 925.4 -11.65 914.8 -0.7 911.05 4.1 910.45 9.45 L884.7 9.45 Q877.1 9.0 870.65 5.8 866.7 3.85 863.2 0.85 L842.7 -31.1" fill="url(#gradient0)" fill-rule="evenodd" stroke="none"/>
    <path d="M910.45 9.45 L910.35 10.75 877.65 10.75 Q881.4 9.7 885.5 9.5 L884.7 9.45 910.45 9.45 M843.6 50.6 L842.35 49.9 856.7 26.15 Q858.75 23.05 861.5 20.3 L862.45 19.4 843.6 50.6 M841.6 -30.4 L842.7 -31.1 863.2 0.85 860.7 -1.45 857.8 -4.65 841.6 -30.4" fill="#ffffff" fill-rule="evenodd" stroke="none"/>
    <path d="M842.35 49.9 Q837.05 47.1 829.95 47.35 L829.7 47.4 822.95 47.95 Q807.55 47.95 796.65 37.05 785.8 26.25 785.8 10.85 785.8 -4.5 796.65 -15.4 807.55 -26.25 822.95 -26.25 L827.45 -26.0 830.45 -26.4 Q834.25 -27.1 837.7 -28.5 839.75 -29.35 841.6 -30.4 L857.8 -4.65 Q860.5 1.9 860.5 9.55 860.5 18.6 856.7 26.15 L842.35 49.9" fill="url(#gradient1)" fill-rule="evenodd" stroke="none"/>
    <path d="M910.35 10.75 L910.3 11.55 Q910.3 17.6 914.0 22.35 924.15 33.0 924.15 47.75 924.15 63.0 913.25 73.8 902.45 84.65 887.2 84.65 871.85 84.65 861.05 73.8 855.85 68.6 853.15 62.35 L853.0 61.95 Q849.5 54.2 843.6 50.6 L862.45 19.4 Q869.2 13.05 877.65 10.75 L910.35 10.75" fill="url(#gradient2)" fill-rule="evenodd" stroke="none"/>
    <path d="M843.65 -25.05 L844.4 -24.45 Q845.5 -23.35 845.5 -21.8 845.5 -20.2 844.4 -19.15 843.3 -18.05 841.85 -18.05 L841.8 -18.05 Q840.25 -18.05 839.1 -19.15 L838.5 -19.95 Q838.0 -20.75 838.0 -21.8 838.0 -23.35 839.1 -24.45 840.25 -25.55 841.8 -25.55 L841.85 -25.55 843.65 -25.05" fill="url(#gradient3)" fill-rule="evenodd" stroke="none"/>
    <path d="M841.8 -25.2 L843.45 -24.75 844.15 -24.2 Q845.15 -23.2 845.15 -21.8 845.15 -20.35 844.15 -19.4 843.15 -18.4 841.8 -18.4 L841.75 -18.4 Q840.35 -18.4 839.3 -19.4 L838.75 -20.1 Q838.3 -20.85 838.3 -21.8 838.3 -23.2 839.3 -24.2 840.35 -25.2 841.75 -25.2 L841.8 -25.2" fill="#0c354f" fill-rule="evenodd" stroke="none"/>
    <path d="M843.9 -23.9 Q844.45 -23.35 844.65 -22.6 L844.75 -21.8 Q844.75 -20.55 843.85 -19.65 843.0 -18.75 841.75 -18.75 840.5 -18.75 839.65 -19.65 L839.6 -19.65 Q838.75 -20.55 838.75 -21.8 L838.85 -22.6 Q839.05 -23.35 839.6 -23.95 840.5 -24.8 841.75 -24.8 843.0 -24.8 843.85 -23.95 L843.9 -23.9 M843.6 -23.65 Q842.8 -24.4 841.75 -24.4 840.65 -24.4 839.9 -23.65 L839.25 -22.65 839.1 -21.8 Q839.1 -20.7 839.9 -19.95 L839.9 -19.9 Q840.7 -19.2 841.75 -19.2 842.8 -19.2 843.6 -19.95 844.35 -20.7 844.35 -21.8 L844.25 -22.65 843.6 -23.6 843.6 -23.65" fill="url(#gradient4)" fill-rule="evenodd" stroke="none"/>
    <path d="M843.6 -23.65 L843.6 -23.6 844.25 -22.65 844.35 -21.8 Q844.35 -20.7 843.6 -19.95 842.8 -19.2 841.75 -19.2 840.7 -19.2 839.9 -19.9 L839.9 -19.95 Q839.1 -20.7 839.1 -21.8 L839.25 -22.65 839.9 -23.65 Q840.65 -24.4 841.75 -24.4 842.8 -24.4 843.6 -23.65 M843.35 -23.1 L843.2 -23.2 843.2 -23.25 Q842.6 -23.85 841.75 -23.85 840.9 -23.85 840.3 -23.25 L839.85 -22.6 839.7 -21.8 Q839.7 -20.95 840.3 -20.35 L840.3 -20.3 840.45 -20.2 Q840.7 -19.95 841.05 -19.85 L841.75 -19.75 Q842.6 -19.7 843.2 -20.3 843.85 -20.95 843.85 -21.8 L843.7 -22.55 843.35 -23.1" fill="url(#gradient5)" fill-rule="evenodd" stroke="none"/>
    <path d="M843.35 -23.1 L843.7 -22.55 843.85 -21.8 Q843.85 -20.95 843.2 -20.3 842.6 -19.7 841.75 -19.75 L841.05 -19.85 Q840.7 -19.95 840.45 -20.2 L840.3 -20.3 840.3 -20.35 Q839.7 -20.95 839.7 -21.8 L839.85 -22.6 840.3 -23.25 Q840.9 -23.85 841.75 -23.85 842.6 -23.85 843.2 -23.25 L843.2 -23.2 843.35 -23.1 M842.3 -20.3 L842.7 -20.5 842.9 -20.65 Q843.35 -21.1 843.35 -21.8 843.35 -22.35 843.0 -22.75 L842.65 -22.4 842.15 -21.9 841.9 -22.1 842.4 -22.6 842.8 -23.0 841.8 -23.35 Q841.15 -23.35 840.65 -22.9 L840.25 -22.15 840.2 -21.75 Q840.2 -21.2 840.6 -20.75 L841.4 -21.6 841.65 -21.4 840.8 -20.55 Q841.25 -20.2 841.8 -20.2 L842.3 -20.3" fill="#0c354f" fill-rule="evenodd" stroke="none"/>
    <path d="M842.65 -22.4 L843.0 -22.75 Q843.35 -22.35 843.35 -21.8 843.35 -21.1 842.9 -20.65 L842.7 -20.5 842.3 -20.3 Q842.55 -20.4 842.7 -20.6 L842.85 -20.75 843.0 -21.4 Q843.0 -22.0 842.65 -22.4 M840.25 -22.15 L840.65 -22.9 Q841.15 -23.35 841.8 -23.35 L842.8 -23.0 842.4 -22.6 Q842.05 -22.9 841.55 -22.9 840.95 -22.9 840.5 -22.45 L840.25 -22.15" fill="#c4ced0" fill-rule="evenodd" stroke="none"/>
    <path d="M842.65 -22.4 Q843.0 -22.0 843.0 -21.4 L842.85 -20.75 842.7 -20.6 Q842.55 -20.4 842.3 -20.3 L841.8 -20.2 Q841.25 -20.2 840.8 -20.55 L841.65 -21.4 841.4 -21.6 840.6 -20.75 Q840.2 -21.2 840.2 -21.75 L840.25 -22.15 840.5 -22.45 Q840.95 -22.9 841.55 -22.9 842.05 -22.9 842.4 -22.6 L841.9 -22.1 842.15 -21.9 842.65 -22.4" fill="url(#gradient6)" fill-rule="evenodd" stroke="none"/>
    <path d="M847.05 -23.5 L846.45 -24.3 Q845.95 -25.1 845.95 -26.15 845.95 -27.7 847.05 -28.8 848.2 -29.9 849.75 -29.9 L849.8 -29.9 Q850.8 -29.9 851.6 -29.4 L852.4 -28.8 Q853.5 -27.7 853.5 -26.15 853.5 -24.55 852.4 -23.5 851.3 -22.4 849.8 -22.4 L849.75 -22.4 Q848.2 -22.4 847.05 -23.5" fill="url(#gradient7)" fill-rule="evenodd" stroke="none"/>
    <path d="M847.3 -23.75 L846.75 -24.45 Q846.3 -25.2 846.3 -26.15 846.3 -27.55 847.3 -28.55 848.35 -29.55 849.75 -29.55 L849.8 -29.55 851.45 -29.1 852.15 -28.55 Q853.15 -27.55 853.15 -26.15 853.15 -24.7 852.15 -23.75 851.15 -22.75 849.8 -22.75 L849.75 -22.75 Q848.35 -22.75 847.3 -23.75" fill="#0c354f" fill-rule="evenodd" stroke="none"/>
    <path d="M847.85 -26.95 L847.7 -26.15 Q847.7 -25.3 848.3 -24.7 L848.3 -24.65 848.45 -24.55 Q848.7 -24.3 849.05 -24.2 L849.75 -24.1 Q850.6 -24.05 851.2 -24.65 851.85 -25.3 851.85 -26.15 L851.7 -26.9 851.35 -27.45 851.2 -27.55 851.2 -27.6 Q850.6 -28.2 849.75 -28.2 848.9 -28.2 848.3 -27.6 L847.85 -26.95 M847.1 -26.15 L847.25 -27.0 847.9 -28.0 Q848.65 -28.75 849.75 -28.75 850.8 -28.75 851.6 -28.0 L851.6 -27.95 852.25 -27.0 852.35 -26.15 Q852.35 -25.05 851.6 -24.3 850.8 -23.55 849.75 -23.55 848.7 -23.55 847.9 -24.25 L847.9 -24.3 Q847.1 -25.05 847.1 -26.15" fill="url(#gradient8)" fill-rule="evenodd" stroke="none"/>
    <path d="M846.85 -26.95 Q847.05 -27.7 847.6 -28.3 848.5 -29.15 849.75 -29.15 851.0 -29.15 851.85 -28.3 L851.9 -28.25 852.65 -26.95 852.75 -26.15 Q852.75 -24.9 851.85 -24.0 851.0 -23.1 849.75 -23.1 848.5 -23.1 847.65 -24.0 L847.6 -24.0 Q846.75 -24.9 846.75 -26.15 L846.85 -26.95 M847.1 -26.15 Q847.1 -25.05 847.9 -24.3 L847.9 -24.25 Q848.7 -23.55 849.75 -23.55 850.8 -23.55 851.6 -24.3 852.35 -25.05 852.35 -26.15 L852.25 -27.0 851.6 -27.95 851.6 -28.0 Q850.8 -28.75 849.75 -28.75 848.65 -28.75 847.9 -28.0 L847.25 -27.0 847.1 -26.15" fill="url(#gradient9)" fill-rule="evenodd" stroke="none"/>
    <path d="M847.85 -26.95 L848.3 -27.6 Q848.9 -28.2 849.75 -28.2 850.6 -28.2 851.2 -27.6 L851.2 -27.55 851.35 -27.45 851.7 -26.9 851.85 -26.15 Q851.85 -25.3 851.2 -24.65 850.6 -24.05 849.75 -24.1 L849.05 -24.2 Q848.7 -24.3 848.45 -24.55 L848.3 -24.65 848.3 -24.7 Q847.7 -25.3 847.7 -26.15 L847.85 -26.95 M850.4 -26.95 L850.8 -27.35 849.8 -27.7 Q849.15 -27.7 848.65 -27.25 L848.25 -26.5 848.2 -26.1 Q848.2 -25.55 848.6 -25.1 L849.4 -25.95 849.65 -25.75 848.8 -24.9 Q849.25 -24.55 849.8 -24.55 L850.3 -24.65 850.7 -24.85 850.9 -25.0 Q851.35 -25.45 851.35 -26.15 851.35 -26.7 851.0 -27.1 L850.65 -26.75 850.15 -26.25 849.9 -26.45 850.4 -26.95" fill="#0c354f" fill-rule="evenodd" stroke="none"/>
    <path d="M850.4 -26.95 L849.55 -27.25 Q848.95 -27.25 848.5 -26.8 L848.25 -26.5 848.65 -27.25 Q849.15 -27.7 849.8 -27.7 L850.8 -27.35 850.4 -26.95 M850.3 -24.65 L850.7 -24.95 850.85 -25.1 851.0 -25.75 Q851.0 -26.35 850.65 -26.75 L851.0 -27.1 Q851.35 -26.7 851.35 -26.15 851.35 -25.45 850.9 -25.0 L850.7 -24.85 850.3 -24.65" fill="#c4ced0" fill-rule="evenodd" stroke="none"/>
    <path d="M848.25 -26.5 L848.5 -26.8 Q848.95 -27.25 849.55 -27.25 L850.4 -26.95 849.9 -26.45 850.15 -26.25 850.65 -26.75 Q851.0 -26.35 851.0 -25.75 L850.85 -25.1 850.7 -24.95 850.3 -24.65 849.8 -24.55 Q849.25 -24.55 848.8 -24.9 L849.65 -25.75 849.4 -25.95 848.6 -25.1 Q848.2 -25.55 848.2 -26.1 L848.25 -26.5" fill="url(#gradient10)" fill-rule="evenodd" stroke="none"/>
    <path d="M908.55 2.3 Q909.65 3.4 909.65 4.9 909.65 6.5 908.55 7.55 907.45 8.65 906.0 8.65 L905.95 8.65 Q904.4 8.65 903.25 7.55 L902.65 6.8 Q902.15 5.95 902.15 4.9 902.15 3.4 903.25 2.3 904.4 1.2 905.95 1.2 L906.0 1.2 Q907.0 1.2 907.8 1.7 L908.55 2.3" fill="url(#gradient11)" fill-rule="evenodd" stroke="none"/>
    <path d="M908.35 2.55 Q909.35 3.55 909.35 4.95 909.35 6.4 908.35 7.35 907.35 8.35 906.0 8.35 L905.95 8.35 Q904.55 8.35 903.5 7.35 L902.95 6.65 Q902.5 5.9 902.5 4.95 902.5 3.55 903.5 2.55 904.55 1.55 905.95 1.55 L906.0 1.55 Q906.9 1.55 907.65 2.0 908.0 2.2 908.35 2.55" fill="#0c354f" fill-rule="evenodd" stroke="none"/>
    <path d="M908.1 2.85 Q908.65 3.4 908.85 4.15 L908.95 4.95 Q908.95 6.2 908.05 7.1 907.2 8.0 905.95 8.0 904.7 8.0 903.85 7.1 L903.8 7.1 Q902.95 6.2 902.95 4.95 L903.05 4.15 Q903.25 3.4 903.8 2.8 904.7 1.95 905.95 1.95 907.2 1.95 908.05 2.8 L908.1 2.85 M907.8 3.1 Q907.0 2.35 905.95 2.35 904.85 2.35 904.1 3.1 903.65 3.55 903.45 4.1 903.3 4.5 903.3 4.95 903.3 6.05 904.1 6.8 L904.1 6.85 Q904.9 7.55 905.95 7.55 907.0 7.55 907.8 6.8 908.55 6.05 908.55 4.95 L908.45 4.1 907.8 3.15 907.8 3.1" fill="url(#gradient12)" fill-rule="evenodd" stroke="none"/>
    <path d="M907.8 3.1 L907.8 3.15 908.45 4.1 908.55 4.95 Q908.55 6.05 907.8 6.8 907.0 7.55 905.95 7.55 904.9 7.55 904.1 6.85 L904.1 6.8 Q903.3 6.05 903.3 4.95 903.3 4.5 903.45 4.1 903.65 3.55 904.1 3.1 904.85 2.35 905.95 2.35 907.0 2.35 907.8 3.1 M907.9 4.2 L907.55 3.65 907.4 3.55 907.4 3.5 Q906.8 2.9 905.95 2.9 905.1 2.9 904.5 3.5 L904.05 4.15 Q903.9 4.5 903.9 4.95 903.9 5.8 904.5 6.4 L904.5 6.45 904.65 6.55 905.25 6.9 905.95 7.0 Q906.8 7.05 907.4 6.45 908.05 5.8 908.05 4.95 L907.9 4.2" fill="url(#gradient13)" fill-rule="evenodd" stroke="none"/>
    <path d="M907.9 4.2 L908.05 4.95 Q908.05 5.8 907.4 6.45 906.8 7.05 905.95 7.0 L905.25 6.9 904.65 6.55 904.5 6.45 904.5 6.4 Q903.9 5.8 903.9 4.95 903.9 4.5 904.05 4.15 L904.5 3.5 Q905.1 2.9 905.95 2.9 906.8 2.9 907.4 3.5 L907.4 3.55 907.55 3.65 907.9 4.2 M906.6 4.15 L907.0 3.75 Q906.55 3.4 906.0 3.4 905.35 3.4 904.85 3.85 L904.45 4.6 904.4 5.0 Q904.4 5.55 904.8 6.0 L905.6 5.15 905.85 5.35 905.0 6.2 Q905.45 6.55 906.0 6.55 L906.5 6.45 906.9 6.25 907.1 6.1 907.55 4.95 Q907.55 4.4 907.2 4.0 L906.85 4.35 906.35 4.85 906.1 4.65 906.6 4.15" fill="#0c354f" fill-rule="evenodd" stroke="none"/>
    <path d="M904.45 4.6 L904.85 3.85 Q905.35 3.4 906.0 3.4 906.55 3.4 907.0 3.75 L906.6 4.15 Q906.25 3.85 905.75 3.85 905.15 3.85 904.7 4.3 L904.45 4.6 M906.85 4.35 L907.2 4.0 Q907.55 4.4 907.55 4.95 L907.1 6.1 906.9 6.25 906.5 6.45 906.9 6.15 907.05 6.0 907.2 5.35 Q907.2 4.75 906.85 4.35" fill="#c4ced0" fill-rule="evenodd" stroke="none"/>
    <path d="M904.45 4.6 L904.7 4.3 Q905.15 3.85 905.75 3.85 906.25 3.85 906.6 4.15 L906.1 4.65 906.35 4.85 906.85 4.35 Q907.2 4.75 907.2 5.35 L907.05 6.0 906.9 6.15 906.5 6.45 906.0 6.55 Q905.45 6.55 905.0 6.2 L905.85 5.35 905.6 5.15 904.8 6.0 Q904.4 5.55 904.4 5.0 L904.45 4.6" fill="url(#gradient14)" fill-rule="evenodd" stroke="none"/>
    <path d="M908.55 12.1 Q909.65 13.2 909.65 14.75 909.65 16.35 908.55 17.35 907.45 18.45 906.0 18.45 L905.95 18.45 Q904.4 18.45 903.25 17.35 L902.65 16.6 Q902.15 15.8 902.15 14.75 902.15 13.2 903.25 12.1 904.4 11.0 905.95 11.0 L906.0 11.0 Q907.0 11.0 907.8 11.5 L908.55 12.1" fill="url(#gradient15)" fill-rule="evenodd" stroke="none"/>
    <path d="M908.35 12.35 Q909.35 13.35 909.35 14.75 909.35 16.2 908.35 17.15 907.35 18.15 906.0 18.15 L905.95 18.15 Q904.55 18.15 903.5 17.15 L902.95 16.45 Q902.5 15.7 902.5 14.75 902.5 13.35 903.5 12.35 904.55 11.35 905.95 11.35 L906.0 11.35 Q906.9 11.35 907.65 11.8 908.0 12.0 908.35 12.35" fill="#0c354f" fill-rule="evenodd" stroke="none"/>
    <path d="M908.95 14.75 Q908.95 16.0 908.05 16.9 907.2 17.8 905.95 17.8 904.7 17.8 903.85 16.9 L903.8 16.9 Q902.95 16.0 902.95 14.75 L903.05 13.95 Q903.25 13.2 903.8 12.6 904.7 11.75 905.95 11.75 907.2 11.75 908.05 12.6 L908.1 12.65 Q908.65 13.2 908.85 13.95 L908.95 14.75 M907.8 12.95 L907.8 12.9 Q907.0 12.15 905.95 12.15 904.85 12.15 904.1 12.9 903.65 13.35 903.45 13.9 903.3 14.3 903.3 14.75 903.3 15.85 904.1 16.6 L904.1 16.65 Q904.9 17.35 905.95 17.35 907.0 17.35 907.8 16.6 908.55 15.85 908.55 14.75 L908.45 13.9 907.8 12.95" fill="url(#gradient16)" fill-rule="evenodd" stroke="none"/>
    <path d="M907.8 12.95 L908.45 13.9 908.55 14.75 Q908.55 15.85 907.8 16.6 907.0 17.35 905.95 17.35 904.9 17.35 904.1 16.65 L904.1 16.6 Q903.3 15.85 903.3 14.75 903.3 14.3 903.45 13.9 903.65 13.35 904.1 12.9 904.85 12.15 905.95 12.15 907.0 12.15 907.8 12.9 L907.8 12.95 M907.4 13.35 L907.4 13.3 Q906.8 12.7 905.95 12.7 905.1 12.7 904.5 13.3 L904.05 13.95 Q903.9 14.3 903.9 14.75 903.9 15.6 904.5 16.2 L904.5 16.25 904.65 16.35 905.25 16.7 905.95 16.8 Q906.8 16.85 907.4 16.25 908.05 15.6 908.05 14.75 L907.9 14.0 907.55 13.45 907.4 13.35" fill="url(#gradient17)" fill-rule="evenodd" stroke="none"/>
    <path d="M907.4 13.35 L907.55 13.45 907.9 14.0 908.05 14.75 Q908.05 15.6 907.4 16.25 906.8 16.85 905.95 16.8 L905.25 16.7 904.65 16.35 904.5 16.25 904.5 16.2 Q903.9 15.6 903.9 14.75 903.9 14.3 904.05 13.95 L904.5 13.3 Q905.1 12.7 905.95 12.7 906.8 12.7 907.4 13.3 L907.4 13.35 M906.85 14.15 L906.35 14.65 906.1 14.45 906.6 13.95 907.0 13.55 Q906.55 13.2 906.0 13.2 905.35 13.2 904.85 13.65 L904.45 14.4 904.4 14.8 Q904.4 15.35 904.8 15.8 L905.6 14.95 905.85 15.15 905.0 16.0 Q905.45 16.35 906.0 16.35 L906.5 16.25 906.9 16.05 907.1 15.9 907.55 14.75 Q907.55 14.2 907.2 13.8 L906.85 14.15" fill="#0c354f" fill-rule="evenodd" stroke="none"/>
    <path d="M906.6 13.95 L906.1 14.45 906.35 14.65 906.85 14.15 Q907.2 14.55 907.2 15.15 L907.05 15.8 906.9 15.95 906.5 16.25 906.0 16.35 Q905.45 16.35 905.0 16.0 L905.85 15.15 905.6 14.95 904.8 15.8 Q904.4 15.35 904.4 14.8 L904.45 14.4 904.7 14.1 Q905.15 13.65 905.75 13.65 906.25 13.65 906.6 13.95" fill="url(#gradient18)" fill-rule="evenodd" stroke="none"/>
    <path d="M906.85 14.15 L907.2 13.8 Q907.55 14.2 907.55 14.75 L907.1 15.9 906.9 16.05 906.5 16.25 906.9 15.95 907.05 15.8 907.2 15.15 Q907.2 14.55 906.85 14.15 M904.45 14.4 L904.85 13.65 Q905.35 13.2 906.0 13.2 906.55 13.2 907.0 13.55 L906.6 13.95 Q906.25 13.65 905.75 13.65 905.15 13.65 904.7 14.1 L904.45 14.4" fill="#c4ced0" fill-rule="evenodd" stroke="none"/>
    <path d="M836.75 43.75 Q836.75 42.2 837.85 41.1 839.0 40.0 840.55 40.0 L840.6 40.0 Q841.6 40.0 842.45 40.5 L843.2 41.1 Q844.3 42.2 844.3 43.75 844.3 45.35 843.2 46.4 842.1 47.5 840.6 47.5 L840.55 47.5 Q839.0 47.5 837.85 46.4 L837.25 45.6 Q836.75 44.8 836.75 43.75" fill="url(#gradient19)" fill-rule="evenodd" stroke="none"/>
    <path d="M837.1 43.75 Q837.1 42.35 838.1 41.35 839.15 40.35 840.55 40.35 L840.6 40.35 Q841.5 40.35 842.25 40.8 L842.95 41.35 Q843.95 42.35 843.95 43.75 843.95 45.2 842.95 46.15 841.95 47.15 840.6 47.15 L840.55 47.15 Q839.15 47.15 838.1 46.15 L837.55 45.45 Q837.1 44.7 837.1 43.75" fill="#0c354f" fill-rule="evenodd" stroke="none"/>
    <path d="M839.1 42.3 L838.65 42.95 Q838.5 43.3 838.5 43.75 838.5 44.6 839.1 45.2 L839.1 45.25 839.25 45.35 839.85 45.7 840.55 45.8 Q841.4 45.85 842.0 45.25 842.65 44.6 842.65 43.75 L842.5 43.0 842.15 42.45 842.0 42.35 842.0 42.3 Q841.4 41.7 840.55 41.7 839.7 41.7 839.1 42.3 M838.05 42.9 L838.7 41.9 Q839.45 41.15 840.55 41.15 841.6 41.15 842.4 41.9 L842.4 41.95 843.05 42.9 843.15 43.75 Q843.15 44.85 842.4 45.6 841.6 46.35 840.55 46.35 839.5 46.35 838.7 45.65 L838.7 45.6 Q837.9 44.85 837.9 43.75 L838.05 42.9" fill="url(#gradient20)" fill-rule="evenodd" stroke="none"/>
    <path d="M839.1 42.3 Q839.7 41.7 840.55 41.7 841.4 41.7 842.0 42.3 L842.0 42.35 842.15 42.45 842.5 43.0 842.65 43.75 Q842.65 44.6 842.0 45.25 841.4 45.85 840.55 45.8 L839.85 45.7 839.25 45.35 839.1 45.25 839.1 45.2 Q838.5 44.6 838.5 43.75 838.5 43.3 838.65 42.95 L839.1 42.3 M841.2 42.95 L841.6 42.55 Q841.15 42.2 840.6 42.2 839.95 42.2 839.45 42.65 L839.05 43.4 839.0 43.8 Q839.0 44.35 839.4 44.8 L840.2 43.95 840.45 44.15 839.6 45.0 Q840.05 45.35 840.6 45.35 L841.1 45.25 841.5 45.05 841.7 44.9 842.15 43.75 Q842.15 43.2 841.8 42.8 L841.45 43.15 840.95 43.65 840.7 43.45 841.2 42.95" fill="#0c354f" fill-rule="evenodd" stroke="none"/>
    <path d="M838.05 42.9 L837.9 43.75 Q837.9 44.85 838.7 45.6 L838.7 45.65 Q839.5 46.35 840.55 46.35 841.6 46.35 842.4 45.6 843.15 44.85 843.15 43.75 L843.05 42.9 842.4 41.95 842.4 41.9 Q841.6 41.15 840.55 41.15 839.45 41.15 838.7 41.9 L838.05 42.9 M838.4 41.6 Q839.3 40.75 840.55 40.75 841.8 40.75 842.65 41.6 L842.7 41.65 843.45 42.95 843.55 43.75 Q843.55 45.0 842.65 45.9 841.8 46.8 840.55 46.8 839.3 46.8 838.45 45.9 L838.4 45.9 Q837.55 45.0 837.55 43.75 L837.65 42.95 Q837.85 42.2 838.4 41.6" fill="url(#gradient21)" fill-rule="evenodd" stroke="none"/>
    <path d="M841.2 42.95 Q840.85 42.65 840.35 42.65 839.75 42.65 839.3 43.1 L839.05 43.4 839.45 42.65 Q839.95 42.2 840.6 42.2 841.15 42.2 841.6 42.55 L841.2 42.95 M841.1 45.25 L841.5 44.95 841.65 44.8 841.8 44.15 Q841.8 43.55 841.45 43.15 L841.8 42.8 Q842.15 43.2 842.15 43.75 L841.7 44.9 841.5 45.05 841.1 45.25" fill="#c4ced0" fill-rule="evenodd" stroke="none"/>
    <path d="M839.05 43.4 L839.3 43.1 Q839.75 42.65 840.35 42.65 840.85 42.65 841.2 42.95 L840.7 43.45 840.95 43.65 841.45 43.15 Q841.8 43.55 841.8 44.15 L841.65 44.8 841.5 44.95 841.1 45.25 840.6 45.35 Q840.05 45.35 839.6 45.0 L840.45 44.15 840.2 43.95 839.4 44.8 Q839.0 44.35 839.0 43.8 L839.05 43.4" fill="url(#gradient22)" fill-rule="evenodd" stroke="none"/>
    <path d="M852.0 45.9 Q853.1 47.0 853.1 48.55 853.1 50.1 852.0 51.15 850.9 52.25 849.4 52.25 L849.35 52.25 Q847.8 52.25 846.65 51.15 L846.05 50.4 Q845.55 49.55 845.55 48.55 845.55 47.0 846.65 45.9 847.8 44.8 849.35 44.8 L849.4 44.8 Q850.4 44.8 851.2 45.3 L852.0 45.9" fill="url(#gradient23)" fill-rule="evenodd" stroke="none"/>
    <path d="M851.75 46.15 Q852.75 47.15 852.75 48.55 852.75 50.0 851.75 50.95 850.75 51.95 849.4 51.95 L849.35 51.95 Q847.95 51.95 846.9 50.95 L846.35 50.25 Q845.9 49.5 845.9 48.55 845.9 47.15 846.9 46.15 847.95 45.15 849.35 45.15 L849.4 45.15 Q850.3 45.15 851.05 45.6 L851.75 46.15" fill="#0c354f" fill-rule="evenodd" stroke="none"/>
    <path d="M851.2 46.7 L851.2 46.75 851.85 47.7 851.95 48.55 Q851.95 49.65 851.2 50.4 850.4 51.15 849.35 51.15 848.3 51.15 847.5 50.45 L847.5 50.4 Q846.7 49.65 846.7 48.55 L846.85 47.7 847.5 46.7 Q848.25 45.95 849.35 45.95 850.4 45.95 851.2 46.7 M850.95 47.25 L850.8 47.15 850.8 47.1 Q850.2 46.5 849.35 46.5 848.5 46.5 847.9 47.1 L847.45 47.75 Q847.3 48.1 847.3 48.55 847.3 49.4 847.9 50.0 L847.9 50.05 848.05 50.15 848.65 50.5 849.35 50.6 Q850.2 50.65 850.8 50.05 851.45 49.4 851.45 48.55 L851.3 47.8 850.95 47.25" fill="url(#gradient24)" fill-rule="evenodd" stroke="none"/>
    <path d="M851.2 46.7 Q850.4 45.95 849.35 45.95 848.25 45.95 847.5 46.7 L846.85 47.7 846.7 48.55 Q846.7 49.65 847.5 50.4 L847.5 50.45 Q848.3 51.15 849.35 51.15 850.4 51.15 851.2 50.4 851.95 49.65 851.95 48.55 L851.85 47.7 851.2 46.75 851.2 46.7 M852.35 48.55 Q852.35 49.8 851.45 50.7 850.6 51.6 849.35 51.6 848.1 51.6 847.25 50.7 L847.2 50.7 Q846.35 49.8 846.35 48.55 L846.45 47.75 Q846.65 47.0 847.2 46.4 848.1 45.55 849.35 45.55 850.6 45.55 851.45 46.4 L851.5 46.45 Q852.05 47.0 852.25 47.75 L852.35 48.55" fill="url(#gradient25)" fill-rule="evenodd" stroke="none"/>
    <path d="M850.95 47.25 L851.3 47.8 851.45 48.55 Q851.45 49.4 850.8 50.05 850.2 50.65 849.35 50.6 L848.65 50.5 848.05 50.15 847.9 50.05 847.9 50.0 Q847.3 49.4 847.3 48.55 847.3 48.1 847.45 47.75 L847.9 47.1 Q848.5 46.5 849.35 46.5 850.2 46.5 850.8 47.1 L850.8 47.15 850.95 47.25 M849.9 50.05 L850.3 49.85 850.5 49.7 850.95 48.55 Q850.95 48.0 850.6 47.6 L850.25 47.95 849.75 48.45 849.5 48.25 850.0 47.75 850.4 47.35 Q849.95 47.0 849.4 47.0 848.75 47.0 848.25 47.45 L847.85 48.2 847.8 48.6 Q847.8 49.15 848.2 49.6 L849.0 48.75 849.25 48.95 848.4 49.8 Q848.85 50.15 849.4 50.15 L849.9 50.05" fill="#0c354f" fill-rule="evenodd" stroke="none"/>
    <path d="M850.25 47.95 L850.6 47.6 Q850.95 48.0 850.95 48.55 L850.5 49.7 850.3 49.85 849.9 50.05 850.3 49.75 850.45 49.6 850.6 48.95 850.25 47.95 M847.85 48.2 L848.25 47.45 Q848.75 47.0 849.4 47.0 849.95 47.0 850.4 47.35 L850.0 47.75 Q849.65 47.45 849.15 47.45 848.55 47.45 848.1 47.9 L847.85 48.2" fill="#c4ced0" fill-rule="evenodd" stroke="none"/>
    <path d="M849.9 50.05 L849.4 50.15 Q848.85 50.15 848.4 49.8 L849.25 48.95 849.0 48.75 848.2 49.6 Q847.8 49.15 847.8 48.6 L847.85 48.2 848.1 47.9 Q848.55 47.45 849.15 47.45 849.65 47.45 850.0 47.75 L849.5 48.25 849.75 48.45 850.25 47.95 850.6 48.95 850.45 49.6 850.3 49.75 849.9 50.05" fill="url(#gradient26)" fill-rule="evenodd" stroke="none"/>
    <path d="M789.8 -1.25 L789.7 -0.95 789.1 1.1 788.15 -2.45 788.75 -3.95 788.9 -4.25 789.8 -1.25 M809.45 -23.85 L809.95 -21.95 808.7 -21.45 808.2 -23.35 809.45 -23.85 M806.25 -20.25 L805.05 -19.55 804.5 -21.5 805.7 -22.15 806.25 -20.25 M803.05 -18.3 L801.85 -17.45 801.35 -19.4 802.5 -20.2 803.05 -18.3 M800.15 -16.05 L799.0 -15.05 798.45 -17.1 799.6 -18.05 800.15 -16.05 M797.45 -13.5 L796.25 -12.2 795.7 -14.4 796.65 -15.4 796.85 -15.55 797.45 -13.5 M794.8 -10.4 L793.75 -8.95 793.1 -11.35 794.15 -12.65 794.8 -10.4 M791.55 -9.1 L792.3 -6.65 791.3 -4.85 790.6 -7.55 791.55 -9.1 M817.9 -23.9 L816.5 -23.7 816.0 -25.65 817.4 -25.85 817.9 -23.9 M814.0 -23.2 L812.5 -22.8 812.0 -24.7 813.5 -25.1 814.0 -23.2 M827.6 -23.85 L826.05 -24.0 825.5 -26.15 827.0 -26.05 827.6 -23.85 M822.35 -26.25 L822.9 -24.2 822.55 -24.2 821.3 -24.15 820.8 -26.2 822.35 -26.25 M788.15 6.25 L788.0 7.7 787.0 7.95 786.25 5.0 Q786.45 3.5 786.8 2.1 L788.15 6.25" fill="#0c354f" fill-rule="evenodd" stroke="none"/>
    <path d="M788.9 -4.25 L789.6 -5.7 790.35 -2.75 789.8 -1.25 788.9 -4.25 M809.95 -21.95 L809.45 -23.85 810.3 -24.15 810.8 -22.25 809.95 -21.95 M805.7 -22.15 L806.55 -22.55 807.05 -20.65 806.25 -20.25 805.7 -22.15 M803.05 -18.3 L802.5 -20.2 803.3 -20.75 803.8 -18.8 803.05 -18.3 M799.6 -18.05 L800.35 -18.65 800.85 -16.65 800.15 -16.05 799.6 -18.05 M796.85 -15.55 L797.5 -16.2 798.05 -14.15 798.0 -14.1 797.45 -13.5 796.85 -15.55 M794.15 -12.65 L794.85 -13.45 795.45 -11.25 794.8 -10.4 794.15 -12.65 M792.3 -6.65 L791.55 -9.1 792.2 -10.1 792.85 -7.65 792.3 -6.65 M817.4 -25.85 L818.2 -25.95 818.75 -24.0 817.9 -23.9 817.4 -25.85 M813.5 -25.1 L814.15 -25.25 814.65 -23.35 814.0 -23.2 813.5 -25.1 M827.0 -26.05 L827.45 -26.0 827.8 -26.05 828.4 -23.7 827.6 -23.85 827.0 -26.05 M822.35 -26.25 L822.95 -26.25 823.1 -26.25 823.65 -24.15 822.9 -24.2 822.35 -26.25 M786.8 2.1 L787.25 0.25 788.4 4.45 788.15 6.25 786.8 2.1" fill="#fefefe" fill-rule="evenodd" stroke="none"/>
    <path d="M858.8 -49.7 L858.3 -49.0 856.9 -50.45 857.35 -51.1 858.8 -49.7 M861.35 -52.75 L860.9 -52.25 859.5 -53.65 859.95 -54.15 861.35 -52.75 M866.3 -59.45 L867.75 -58.05 867.0 -57.55 865.6 -58.95 866.3 -59.45 M871.05 -59.85 L870.2 -59.45 868.75 -60.85 869.6 -61.3 871.05 -59.85 M863.05 -57.05 L864.45 -55.65 863.75 -55.1 862.35 -56.45 863.05 -57.05 M880.3 -64.85 L881.95 -63.15 880.85 -63.05 879.25 -64.6 880.3 -64.85 M886.4 -63.55 L885.3 -63.5 883.45 -65.3 884.7 -65.4 886.4 -63.55 M892.35 -63.0 L890.75 -63.3 888.6 -65.4 890.2 -65.3 892.35 -63.0 M874.4 -61.3 L873.5 -61.0 872.0 -62.4 872.9 -62.8 874.4 -61.3 M876.45 -63.9 L877.95 -62.4 877.15 -62.2 877.1 -62.2 875.55 -63.7 876.45 -63.9 M856.1 -45.5 L855.8 -44.85 854.2 -46.3 854.3 -46.45 854.6 -46.95 856.1 -45.5 M854.1 -41.25 L853.8 -40.45 852.1 -42.15 852.3 -42.45 852.5 -42.8 854.1 -41.25 M896.75 -64.0 L899.7 -60.8 898.05 -61.45 894.95 -64.55 896.75 -64.0" fill="#fefefe" fill-rule="evenodd" stroke="none"/>
    <path d="M857.35 -51.1 L858.25 -52.2 859.65 -50.8 858.8 -49.7 857.35 -51.1 M859.95 -54.15 L861.05 -55.25 862.45 -53.85 861.35 -52.75 859.95 -54.15 M867.75 -58.05 L866.3 -59.45 867.5 -60.2 868.95 -58.75 867.75 -58.05 M869.6 -61.3 L870.85 -61.9 872.3 -60.5 871.05 -59.85 869.6 -61.3 M863.05 -57.05 L864.1 -57.9 865.5 -56.5 864.45 -55.65 863.05 -57.05 M880.3 -64.85 L881.95 -65.15 883.7 -63.35 881.95 -63.15 880.3 -64.85 M884.7 -65.4 L886.5 -65.4 888.5 -63.5 886.4 -63.55 884.7 -65.4 M892.35 -63.0 L890.2 -65.3 890.5 -65.25 892.15 -65.05 894.75 -62.45 892.7 -63.0 892.35 -63.0 M872.9 -62.8 L874.3 -63.3 875.8 -61.8 874.4 -61.3 872.9 -62.8 M877.95 -62.4 L876.45 -63.9 876.7 -64.05 878.0 -64.35 879.65 -62.8 877.95 -62.4 M854.6 -46.95 L855.4 -48.3 856.95 -46.9 856.3 -45.8 856.1 -45.5 854.6 -46.95 M852.5 -42.8 L853.15 -44.2 854.7 -42.65 854.1 -41.25 852.5 -42.8 M896.75 -64.0 L899.55 -63.05 901.75 -60.95 901.05 -60.2 899.7 -60.8 896.75 -64.0" fill="#0c354f" fill-rule="evenodd" stroke="none"/>
    <path d="M905.3 -58.45 L905.3 -60.8 Q910.05 -58.2 914.15 -54.1 925.4 -42.85 925.4 -27.05 925.4 -11.65 914.8 -0.7 912.95 1.65 911.9 4.15 L909.75 4.15 Q910.95 1.0 913.25 -1.9 L913.4 -2.1 Q923.4 -12.45 923.4 -27.05 923.4 -42.0 912.75 -52.65 909.25 -56.15 905.3 -58.45" fill="url(#gradient27)" fill-rule="evenodd" stroke="none"/>
    <path d="M822.95 45.95 L829.25 45.45 829.85 45.35 829.85 47.35 829.7 47.4 822.95 47.95 Q807.55 47.95 796.65 37.05 786.0 26.45 785.8 11.35 L787.8 11.35 Q787.95 25.6 798.05 35.65 L798.1 35.65 Q808.4 45.95 822.95 45.95" fill="url(#gradient28)" fill-rule="evenodd" stroke="none"/>
    <path d="M853.1 62.25 L853.0 61.95 853.0 61.9 853.1 61.9 853.1 62.25" fill="#ffffff" fill-rule="evenodd" stroke="none"/>
    <path d="M921.7 51.55 L923.6 52.65 923.35 54.2 921.45 53.1 921.7 51.55 M922.65 57.2 L922.2 58.7 920.35 57.75 920.7 56.55 920.85 56.2 922.65 57.2 M921.1 61.95 L920.45 63.25 918.75 62.25 919.3 60.95 921.1 61.95 M919.35 65.55 L918.55 66.9 916.85 65.95 917.6 64.55 919.35 65.55 M917.1 69.15 L916.3 70.25 914.6 69.25 915.4 68.15 917.1 69.15 M914.6 72.35 L913.65 73.35 911.85 72.3 912.85 71.35 914.6 72.35 M911.85 75.0 L910.85 75.85 909.05 74.9 910.1 73.95 911.85 75.0 M907.2 76.25 L909.05 77.3 907.85 78.1 906.0 77.05 907.2 76.25 M905.95 79.25 L905.75 79.45 Q905.15 79.85 904.55 80.05 L902.55 79.05 904.1 78.2 905.95 79.25 M902.45 81.15 L900.95 81.9 898.8 80.6 900.45 79.95 902.45 81.15 M893.0 84.15 L892.7 84.2 891.05 84.4 887.85 82.6 890.0 82.55 890.35 82.45 893.0 84.15 M896.25 81.5 L898.35 82.85 896.65 83.3 894.2 82.0 896.25 81.5 M882.7 82.25 L886.35 84.6 883.35 84.4 880.75 82.95 881.25 82.0 882.7 82.25" fill="#0c354f" fill-rule="evenodd" stroke="none"/>
    <path d="M923.6 52.65 L921.7 51.55 921.75 50.75 923.8 51.95 923.7 52.25 923.6 52.65 M920.85 56.2 L920.95 55.5 922.9 56.5 922.85 56.65 922.65 57.2 920.85 56.2 M919.3 60.95 L919.6 60.15 921.3 61.2 921.1 61.95 919.3 60.95 M917.6 64.55 L917.95 64.0 919.65 64.95 919.35 65.55 917.6 64.55 M917.1 69.15 L915.4 68.15 915.9 67.45 917.6 68.4 917.1 69.15 M912.85 71.35 L913.4 70.65 915.1 71.65 914.6 72.35 912.85 71.35 M910.1 73.95 L910.8 73.35 912.6 74.3 911.85 75.0 910.1 73.95 M909.05 77.3 L907.2 76.25 908.05 75.7 909.85 76.65 909.05 77.3 M904.1 78.2 L904.8 77.8 904.85 77.8 906.75 78.8 905.95 79.25 904.1 78.2 M900.45 79.95 L901.45 79.55 903.45 80.65 902.45 81.15 900.45 79.95 M893.0 84.15 L890.35 82.45 891.95 82.35 894.6 83.85 893.0 84.15 M898.35 82.85 L896.25 81.5 897.3 81.15 899.55 82.4 898.35 82.85 M882.7 82.25 L884.4 82.45 888.2 84.65 886.35 84.6 882.7 82.25" fill="#fefefe" fill-rule="evenodd" stroke="none"/>
    <path d="M887.2 -65.25 Q903.0 -65.25 914.15 -54.1 925.4 -42.85 925.4 -27.05 925.4 -11.65 914.8 -0.7 911.05 4.1 910.45 9.45 L910.35 10.75 910.3 11.55 Q910.3 17.6 914.0 22.35 924.15 33.0 924.15 47.75 924.15 63.0 913.25 73.8 902.45 84.65 887.2 84.65 871.85 84.65 861.05 73.8 855.85 68.6 853.15 62.35 L853.0 61.95 Q849.5 54.2 843.6 50.6 L842.35 49.9 Q837.05 47.1 829.95 47.35 L829.7 47.4 822.95 47.95 Q807.55 47.95 796.65 37.05 785.8 26.25 785.8 10.85 785.8 -4.5 796.65 -15.4 807.55 -26.25 822.95 -26.25 L827.45 -26.0 830.45 -26.4 Q834.25 -27.1 837.7 -28.5 839.75 -29.35 841.6 -30.4 L842.7 -31.1 Q848.55 -34.9 851.5 -41.1 L852.45 -43.25 852.6 -43.55 Q855.3 -49.25 860.1 -54.1 871.35 -65.25 887.2 -65.25 M841.6 -30.4 L857.8 -4.65 860.7 -1.45 863.2 0.85 Q866.7 3.85 870.65 5.8 877.1 9.0 884.7 9.45 L910.45 9.45 M884.7 9.45 L885.5 9.5 Q881.4 9.7 877.65 10.75 869.2 13.05 862.45 19.4 L861.5 20.3 Q858.75 23.05 856.7 26.15 L842.35 49.9 M857.8 -4.65 Q860.5 1.9 860.5 9.55 860.5 18.6 856.7 26.15" fill="none" stroke="#0c354f" stroke-linecap="round" stroke-linejoin="round" stroke-width="1.3"/>
  </g>
  <defs>
    <linearGradient gradientTransform="matrix(0.0046, 0.0436, -0.0453, 0.0048, 883.5, -27.9)" gradientUnits="userSpaceOnUse" id="gradient0" spreadMethod="pad" x1="-819.2" x2="819.2">
      <stop offset="0.03529411764705882" stop-color="#c6ccd0"/>
      <stop offset="0.49411764705882355" stop-color="#e1edf3"/>
      <stop offset="0.9529411764705882" stop-color="#a7b7bf"/>
    </linearGradient>
    <linearGradient gradientTransform="matrix(0.035, -0.0174, 0.0218, 0.0438, 821.95, 10.8)" gradientUnits="userSpaceOnUse" id="gradient1" spreadMethod="pad" x1="-819.2" x2="819.2">
      <stop offset="0.03529411764705882" stop-color="#c6ccd0"/>
      <stop offset="0.49411764705882355" stop-color="#e1edf3"/>
      <stop offset="0.9529411764705882" stop-color="#a7b7bf"/>
    </linearGradient>
    <linearGradient gradientTransform="matrix(-0.0026, -0.0343, 0.0458, -0.0034, 883.95, 49.15)" gradientUnits="userSpaceOnUse" id="gradient2" spreadMethod="pad" x1="-819.2" x2="819.2">
      <stop offset="0.03529411764705882" stop-color="#c6ccd0"/>
      <stop offset="0.49411764705882355" stop-color="#e1edf3"/>
      <stop offset="0.9529411764705882" stop-color="#a7b7bf"/>
    </linearGradient>
    <linearGradient gradientTransform="matrix(0.0037, 0.0027, -0.0027, 0.0037, 841.75, -21.8)" gradientUnits="userSpaceOnUse" id="gradient3" spreadMethod="pad" x1="-819.2" x2="819.2">
      <stop offset="0.0" stop-color="#608ea8"/>
      <stop offset="1.0" stop-color="#ffffff"/>
    </linearGradient>
    <linearGradient gradientTransform="matrix(0.0025, -0.0025, 0.0118, 0.0118, 859.7, -3.8)" gradientUnits="userSpaceOnUse" id="gradient4" spreadMethod="pad" x1="-819.2" x2="819.2">
      <stop offset="0.011764705882352941" stop-color="#51606b"/>
      <stop offset="0.5372549019607843" stop-color="#b6c0c6"/>
      <stop offset="0.9764705882352941" stop-color="#979ca1"/>
    </linearGradient>
    <linearGradient gradientTransform="matrix(-0.0022, 0.0022, -0.0102, -0.0102, 859.35, -4.2)" gradientUnits="userSpaceOnUse" id="gradient5" spreadMethod="pad" x1="-819.2" x2="819.2">
      <stop offset="0.07058823529411765" stop-color="#5b6469"/>
      <stop offset="0.9764705882352941" stop-color="#aadbf0"/>
    </linearGradient>
    <linearGradient gradientTransform="matrix(-0.0018, 0.0018, -0.0083, -0.0084, 856.05, -7.3)" gradientUnits="userSpaceOnUse" id="gradient6" spreadMethod="pad" x1="-819.2" x2="819.2">
      <stop offset="0.011764705882352941" stop-color="#b6bbbd"/>
      <stop offset="0.984313725490196" stop-color="#828587"/>
    </linearGradient>
    <linearGradient gradientTransform="matrix(0.0, 0.0046, -0.0046, 0.0, 849.7, -26.15)" gradientUnits="userSpaceOnUse" id="gradient7" spreadMethod="pad" x1="-819.2" x2="819.2">
      <stop offset="0.0" stop-color="#608ea8"/>
      <stop offset="1.0" stop-color="#ffffff"/>
    </linearGradient>
    <linearGradient gradientTransform="matrix(-0.0022, 0.0022, -0.0102, -0.0102, 867.35, -8.55)" gradientUnits="userSpaceOnUse" id="gradient8" spreadMethod="pad" x1="-819.2" x2="819.2">
      <stop offset="0.07058823529411765" stop-color="#5b6469"/>
      <stop offset="0.9764705882352941" stop-color="#aadbf0"/>
    </linearGradient>
    <linearGradient gradientTransform="matrix(0.0025, -0.0025, 0.0118, 0.0118, 867.7, -8.15)" gradientUnits="userSpaceOnUse" id="gradient9" spreadMethod="pad" x1="-819.2" x2="819.2">
      <stop offset="0.011764705882352941" stop-color="#51606b"/>
      <stop offset="0.5372549019607843" stop-color="#b6c0c6"/>
      <stop offset="0.9764705882352941" stop-color="#979ca1"/>
    </linearGradient>
    <linearGradient gradientTransform="matrix(-0.0018, 0.0018, -0.0083, -0.0084, 864.05, -11.65)" gradientUnits="userSpaceOnUse" id="gradient10" spreadMethod="pad" x1="-819.2" x2="819.2">
      <stop offset="0.011764705882352941" stop-color="#b6bbbd"/>
      <stop offset="0.984313725490196" stop-color="#828587"/>
    </linearGradient>
    <linearGradient gradientTransform="matrix(-0.0023, 0.004, -0.004, -0.0023, 905.95, 5.0)" gradientUnits="userSpaceOnUse" id="gradient11" spreadMethod="pad" x1="-819.2" x2="819.2">
      <stop offset="0.0" stop-color="#608ea8"/>
      <stop offset="1.0" stop-color="#ffffff"/>
    </linearGradient>
    <linearGradient gradientTransform="matrix(0.0025, -0.0025, 0.0118, 0.0118, 923.9, 22.95)" gradientUnits="userSpaceOnUse" id="gradient12" spreadMethod="pad" x1="-819.2" x2="819.2">
      <stop offset="0.011764705882352941" stop-color="#51606b"/>
      <stop offset="0.5372549019607843" stop-color="#b6c0c6"/>
      <stop offset="0.9764705882352941" stop-color="#979ca1"/>
    </linearGradient>
    <linearGradient gradientTransform="matrix(-0.0022, 0.0022, -0.0102, -0.0102, 923.55, 22.55)" gradientUnits="userSpaceOnUse" id="gradient13" spreadMethod="pad" x1="-819.2" x2="819.2">
      <stop offset="0.07058823529411765" stop-color="#5b6469"/>
      <stop offset="0.9764705882352941" stop-color="#aadbf0"/>
    </linearGradient>
    <linearGradient gradientTransform="matrix(-0.0018, 0.0018, -0.0083, -0.0084, 920.25, 19.45)" gradientUnits="userSpaceOnUse" id="gradient14" spreadMethod="pad" x1="-819.2" x2="819.2">
      <stop offset="0.011764705882352941" stop-color="#b6bbbd"/>
      <stop offset="0.984313725490196" stop-color="#828587"/>
    </linearGradient>
    <linearGradient gradientTransform="matrix(-0.0029, -0.0036, 0.0036, -0.0029, 905.9, 14.75)" gradientUnits="userSpaceOnUse" id="gradient15" spreadMethod="pad" x1="-819.2" x2="819.2">
      <stop offset="0.0" stop-color="#608ea8"/>
      <stop offset="1.0" stop-color="#ffffff"/>
    </linearGradient>
    <linearGradient gradientTransform="matrix(0.0025, -0.0025, 0.0118, 0.0118, 923.9, 32.75)" gradientUnits="userSpaceOnUse" id="gradient16" spreadMethod="pad" x1="-819.2" x2="819.2">
      <stop offset="0.011764705882352941" stop-color="#51606b"/>
      <stop offset="0.5372549019607843" stop-color="#b6c0c6"/>
      <stop offset="0.9764705882352941" stop-color="#979ca1"/>
    </linearGradient>
    <linearGradient gradientTransform="matrix(-0.0022, 0.0022, -0.0102, -0.0102, 923.55, 32.35)" gradientUnits="userSpaceOnUse" id="gradient17" spreadMethod="pad" x1="-819.2" x2="819.2">
      <stop offset="0.07058823529411765" stop-color="#5b6469"/>
      <stop offset="0.9764705882352941" stop-color="#aadbf0"/>
    </linearGradient>
    <linearGradient gradientTransform="matrix(-0.0018, 0.0018, -0.0083, -0.0084, 920.25, 29.25)" gradientUnits="userSpaceOnUse" id="gradient18" spreadMethod="pad" x1="-819.2" x2="819.2">
      <stop offset="0.011764705882352941" stop-color="#b6bbbd"/>
      <stop offset="0.984313725490196" stop-color="#828587"/>
    </linearGradient>
    <linearGradient gradientTransform="matrix(0.004, 0.0023, -0.0023, 0.004, 840.55, 43.8)" gradientUnits="userSpaceOnUse" id="gradient19" spreadMethod="pad" x1="-819.2" x2="819.2">
      <stop offset="0.0" stop-color="#608ea8"/>
      <stop offset="1.0" stop-color="#ffffff"/>
    </linearGradient>
    <linearGradient gradientTransform="matrix(-0.0022, 0.0022, -0.0102, -0.0102, 858.15, 61.35)" gradientUnits="userSpaceOnUse" id="gradient20" spreadMethod="pad" x1="-819.2" x2="819.2">
      <stop offset="0.07058823529411765" stop-color="#5b6469"/>
      <stop offset="0.9764705882352941" stop-color="#aadbf0"/>
    </linearGradient>
    <linearGradient gradientTransform="matrix(0.0025, -0.0025, 0.0118, 0.0118, 858.5, 61.75)" gradientUnits="userSpaceOnUse" id="gradient21" spreadMethod="pad" x1="-819.2" x2="819.2">
      <stop offset="0.011764705882352941" stop-color="#51606b"/>
      <stop offset="0.5372549019607843" stop-color="#b6c0c6"/>
      <stop offset="0.9764705882352941" stop-color="#979ca1"/>
    </linearGradient>
    <linearGradient gradientTransform="matrix(-0.0018, 0.0018, -0.0083, -0.0084, 854.85, 58.25)" gradientUnits="userSpaceOnUse" id="gradient22" spreadMethod="pad" x1="-819.2" x2="819.2">
      <stop offset="0.011764705882352941" stop-color="#b6bbbd"/>
      <stop offset="0.984313725490196" stop-color="#828587"/>
    </linearGradient>
    <linearGradient gradientTransform="matrix(0.0033, -0.0033, 0.0032, 0.0032, 849.3, 48.55)" gradientUnits="userSpaceOnUse" id="gradient23" spreadMethod="pad" x1="-819.2" x2="819.2">
      <stop offset="0.0" stop-color="#608ea8"/>
      <stop offset="1.0" stop-color="#ffffff"/>
    </linearGradient>
    <linearGradient gradientTransform="matrix(-0.0022, 0.0022, -0.0102, -0.0102, 866.95, 66.15)" gradientUnits="userSpaceOnUse" id="gradient24" spreadMethod="pad" x1="-819.2" x2="819.2">
      <stop offset="0.07058823529411765" stop-color="#5b6469"/>
      <stop offset="0.9764705882352941" stop-color="#aadbf0"/>
    </linearGradient>
    <linearGradient gradientTransform="matrix(0.0025, -0.0025, 0.0118, 0.0118, 867.3, 66.55)" gradientUnits="userSpaceOnUse" id="gradient25" spreadMethod="pad" x1="-819.2" x2="819.2">
      <stop offset="0.011764705882352941" stop-color="#51606b"/>
      <stop offset="0.5372549019607843" stop-color="#b6c0c6"/>
      <stop offset="0.9764705882352941" stop-color="#979ca1"/>
    </linearGradient>
    <linearGradient gradientTransform="matrix(-0.0018, 0.0018, -0.0083, -0.0084, 863.65, 63.05)" gradientUnits="userSpaceOnUse" id="gradient26" spreadMethod="pad" x1="-819.2" x2="819.2">
      <stop offset="0.011764705882352941" stop-color="#b6bbbd"/>
      <stop offset="0.984313725490196" stop-color="#828587"/>
    </linearGradient>
    <linearGradient gradientTransform="matrix(-0.0022, 0.0246, -0.0393, -0.0036, 916.9, -21.9)" gradientUnits="userSpaceOnUse" id="gradient27" spreadMethod="pad" x1="-819.2" x2="819.2">
      <stop offset="0.0" stop-color="#c9cfd4" stop-opacity="0.007843138"/>
      <stop offset="0.5098039215686274" stop-color="#fcffff"/>
      <stop offset="1.0" stop-color="#d1dade" stop-opacity="0.0"/>
    </linearGradient>
    <linearGradient gradientTransform="matrix(0.0233, 0.0134, -0.0112, 0.0193, 807.85, 29.7)" gradientUnits="userSpaceOnUse" id="gradient28" spreadMethod="pad" x1="-819.2" x2="819.2">
      <stop offset="0.0" stop-color="#c9cfd4" stop-opacity="0.007843138"/>
      <stop offset="0.5098039215686274" stop-color="#fcffff"/>
      <stop offset="1.0" stop-color="#d1dade" stop-opacity="0.0"/>
    </linearGradient>
  </defs>
</svg>
