<?xml version="1.0" encoding="UTF-8" standalone="no"?>
<svg xmlns:xlink="http://www.w3.org/1999/xlink" height="30.0px" width="30.0px" xmlns="http://www.w3.org/2000/svg">
  <g transform="matrix(1.0, 0.0, 0.0, 1.0, 3.0, 3.0)">
    <path d="M11.85 13.5 L11.85 10.55 12.15 13.2 12.15 13.5 11.85 13.5" fill="#99ffff" fill-rule="evenodd" stroke="none"/>
    <path d="M24.0 12.0 Q23.95 15.85 21.95 18.7 L20.25 17.0 20.05 16.75 Q21.25 14.7 21.25 12.0 21.25 9.3 20.05 7.25 L20.25 7.0 21.95 5.3 Q23.95 8.15 24.0 12.0 M16.95 4.0 Q14.75 2.65 12.0 2.7 L11.95 2.65 Q9.25 2.7 7.2 3.9 L7.05 3.75 5.35 2.05 Q8.15 0.05 12.0 0.0 15.8 0.05 18.8 2.15 L16.95 4.0 M13.75 4.85 L20.05 4.85 20.05 7.0 15.35 7.0 15.35 12.05 12.8 12.05 12.8 7.0 11.35 7.0 11.35 12.05 8.8 12.05 8.8 7.0 3.95 7.0 3.95 4.85 10.65 4.85 10.65 3.85 13.75 3.85 13.75 4.85 M19.1 9.1 Q19.2 9.65 19.65 9.65 L19.95 9.65 19.95 11.8 18.4 11.8 Q17.2 11.8 16.9 10.6 L16.2 7.55 18.8 7.55 19.1 9.1 M5.05 9.35 L5.5 7.55 8.05 7.55 7.2 10.65 Q6.85 11.75 5.6 11.75 L4.25 11.75 4.25 9.65 4.75 9.65 5.05 9.35 M4.05 7.1 Q2.7 9.3 2.6 11.95 L2.55 12.0 Q2.7 14.7 4.05 16.9 L3.9 17.05 2.1 18.8 Q0.05 15.85 0.0 12.0 0.0 8.2 2.1 5.15 L3.9 6.95 4.05 7.1 M5.15 15.15 L9.4 15.15 11.65 16.2 14.35 14.7 4.45 14.7 4.45 12.5 19.35 12.5 19.35 14.8 14.4 17.45 15.2 17.85 16.2 18.05 19.85 18.05 19.85 20.15 17.1 20.15 18.8 21.9 Q15.75 24.0 12.0 24.0 8.15 23.95 5.35 21.9 L7.05 20.2 7.15 20.15 4.4 20.15 4.4 18.05 7.7 18.05 8.85 17.85 9.3 17.55 5.15 15.15 M7.4 20.15 Q9.35 21.3 11.95 21.35 L12.0 21.3 Q14.6 21.35 16.7 20.15 L14.7 20.15 Q13.75 20.15 13.1 19.75 L11.65 18.95 10.2 19.75 Q9.5 20.15 8.45 20.15 L7.4 20.15 7.15 20.15 M17.1 20.15 L16.7 20.15" fill="none" stroke="#ffffff" stroke-linecap="round" stroke-linejoin="round" stroke-width="6.0"/>
    <path d="M24.0 12.0 Q23.95 15.85 21.95 18.7 L20.25 17.0 20.05 16.75 Q21.25 14.7 21.25 12.0 21.25 9.3 20.05 7.25 L20.25 7.0 21.95 5.3 Q23.95 8.15 24.0 12.0 M16.95 4.0 Q14.75 2.65 12.0 2.7 L11.95 2.65 Q9.25 2.7 7.2 3.9 L7.05 3.75 5.35 2.05 Q8.15 0.05 12.0 0.0 15.8 0.05 18.8 2.15 L16.95 4.0 M13.75 4.85 L20.05 4.85 20.05 7.0 15.35 7.0 15.35 12.05 12.8 12.05 12.8 7.0 11.35 7.0 11.35 12.05 8.8 12.05 8.8 7.0 3.95 7.0 3.95 4.85 10.65 4.85 10.65 3.85 13.75 3.85 13.75 4.85 M19.1 9.1 Q19.2 9.65 19.65 9.65 L19.95 9.65 19.95 11.8 18.4 11.8 Q17.2 11.8 16.9 10.6 L16.2 7.55 18.8 7.55 19.1 9.1 M4.05 7.1 Q2.7 9.3 2.6 11.95 L2.55 12.0 Q2.7 14.7 4.05 16.9 L3.9 17.05 2.1 18.8 Q0.05 15.85 0.0 12.0 0.0 8.2 2.1 5.15 L3.9 6.95 4.05 7.1 M5.05 9.35 L5.5 7.55 8.05 7.55 7.2 10.65 Q6.85 11.75 5.6 11.75 L4.25 11.75 4.25 9.65 4.75 9.65 5.05 9.35 M5.15 15.15 L9.4 15.15 11.65 16.2 14.35 14.7 4.45 14.7 4.45 12.5 19.35 12.5 19.35 14.8 14.4 17.45 15.2 17.85 16.2 18.05 19.85 18.05 19.85 20.15 17.1 20.15 18.8 21.9 Q15.75 24.0 12.0 24.0 8.15 23.95 5.35 21.9 L7.05 20.2 7.15 20.15 4.4 20.15 4.4 18.05 7.7 18.05 8.85 17.85 9.3 17.55 5.15 15.15 M7.4 20.15 Q9.35 21.3 11.95 21.35 L12.0 21.3 Q14.6 21.35 16.7 20.15 L14.7 20.15 Q13.75 20.15 13.1 19.75 L11.65 18.95 10.2 19.75 Q9.5 20.15 8.45 20.15 L7.4 20.15 7.15 20.15 M17.1 20.15 L16.7 20.15" fill="none" stroke="#003366" stroke-linecap="round" stroke-linejoin="round" stroke-width="3.0"/>
    <path d="M24.0 12.0 Q23.95 15.85 21.95 18.7 L20.25 17.0 20.05 16.75 Q21.25 14.7 21.25 12.0 21.25 9.3 20.05 7.25 L20.25 7.0 21.95 5.3 Q23.95 8.15 24.0 12.0 M12.0 2.7 L11.95 2.65 Q9.25 2.7 7.2 3.9 L7.05 3.75 5.35 2.05 Q8.15 0.05 12.0 0.0 15.8 0.05 18.8 2.15 L16.95 4.0 Q14.75 2.65 12.0 2.7 M2.55 12.0 Q2.7 14.7 4.05 16.9 L3.9 17.05 2.1 18.8 Q0.05 15.85 0.0 12.0 0.0 8.2 2.1 5.15 L3.9 6.95 4.05 7.1 Q2.7 9.3 2.6 11.95 L2.55 12.0 M7.2 20.05 Q9.25 21.3 11.95 21.35 L12.0 21.3 Q14.75 21.35 16.95 20.0 L18.8 21.9 Q15.75 24.0 12.0 24.0 8.15 23.95 5.35 21.9 L7.05 20.2 7.2 20.05" fill="#99ffff" fill-rule="evenodd" stroke="none"/>
    <path d="M13.75 4.85 L20.05 4.85 20.05 7.0 15.35 7.0 15.35 12.05 12.8 12.05 12.8 7.0 11.35 7.0 11.35 12.05 8.8 12.05 8.8 7.0 3.95 7.0 3.95 4.85 10.65 4.85 10.65 3.85 13.75 3.85 13.75 4.85 M19.1 9.1 Q19.2 9.65 19.65 9.65 L19.95 9.65 19.95 11.8 18.4 11.8 Q17.2 11.8 16.9 10.6 L16.2 7.55 18.8 7.55 19.1 9.1 M4.75 9.65 L5.05 9.35 5.5 7.55 8.05 7.55 7.2 10.65 Q6.85 11.75 5.6 11.75 L4.25 11.75 4.25 9.65 4.75 9.65 M9.4 15.15 L11.65 16.2 14.35 14.7 4.45 14.7 4.45 12.5 19.35 12.5 19.35 14.8 14.4 17.45 15.2 17.85 16.2 18.05 19.85 18.05 19.85 20.15 14.7 20.15 Q13.75 20.15 13.1 19.75 L11.65 18.95 10.2 19.75 Q9.5 20.15 8.45 20.15 L4.4 20.15 4.4 18.05 7.7 18.05 8.85 17.85 9.3 17.55 5.15 15.15 9.4 15.15" fill="url(#gradient0)" fill-rule="evenodd" stroke="none"/>
    <path d="M13.75 4.85 L20.05 4.85 20.05 7.0 15.35 7.0 15.35 12.05 12.8 12.05 12.8 7.0 11.35 7.0 11.35 12.05 8.8 12.05 8.8 7.0 3.95 7.0 3.95 4.85 10.65 4.85 10.65 3.85 13.75 3.85 13.75 4.85 M19.1 9.1 Q19.2 9.65 19.65 9.65 L19.95 9.65 19.95 11.8 18.4 11.8 Q17.2 11.8 16.9 10.6 L16.2 7.55 18.8 7.55 19.1 9.1 M4.75 9.65 L5.05 9.35 5.5 7.55 8.05 7.55 7.2 10.65 Q6.85 11.75 5.6 11.75 L4.25 11.75 4.25 9.65 4.75 9.65 M9.4 15.15 L11.65 16.2 14.35 14.7 4.45 14.7 4.45 12.5 19.35 12.5 19.35 14.8 14.4 17.45 15.2 17.85 16.2 18.05 19.85 18.05 19.85 20.15 14.7 20.15 Q13.75 20.15 13.1 19.75 L11.65 18.95 10.2 19.75 Q9.5 20.15 8.45 20.15 L4.4 20.15 4.4 18.05 7.7 18.05 8.85 17.85 9.3 17.55 5.15 15.15 9.4 15.15 Z" fill="none" stroke="#990000" stroke-linecap="round" stroke-linejoin="round" stroke-width="2.0"/>
    <path d="M13.75 4.85 L20.05 4.85 20.05 7.0 15.35 7.0 15.35 12.05 12.8 12.05 12.8 7.0 11.35 7.0 11.35 12.05 8.8 12.05 8.8 7.0 3.95 7.0 3.95 4.85 10.65 4.85 10.65 3.85 13.75 3.85 13.75 4.85 M19.1 9.1 Q19.2 9.65 19.65 9.65 L19.95 9.65 19.95 11.8 18.4 11.8 Q17.2 11.8 16.9 10.6 L16.2 7.55 18.8 7.55 19.1 9.1 M4.75 9.65 L5.05 9.35 5.5 7.55 8.05 7.55 7.2 10.65 Q6.85 11.75 5.6 11.75 L4.25 11.75 4.25 9.65 4.75 9.65 M5.15 15.15 L9.4 15.15 11.65 16.2 14.35 14.7 4.45 14.7 4.45 12.5 19.35 12.5 19.35 14.8 14.4 17.45 15.2 17.85 16.2 18.05 19.85 18.05 19.85 20.15 14.7 20.15 Q13.75 20.15 13.1 19.75 L11.65 18.95 10.2 19.75 Q9.5 20.15 8.45 20.15 L4.4 20.15 4.4 18.05 7.7 18.05 8.85 17.85 9.3 17.55 5.15 15.15" fill="url(#gradient1)" fill-rule="evenodd" stroke="none"/>
  </g>
  <defs>
    <linearGradient gradientTransform="matrix(0.0, 0.0099, -0.0098, 0.0, 12.0, 10.3)" gradientUnits="userSpaceOnUse" id="gradient0" spreadMethod="pad" x1="-819.2" x2="819.2">
      <stop offset="0.0" stop-color="#ff9900"/>
      <stop offset="1.0" stop-color="#ffff00"/>
    </linearGradient>
    <linearGradient gradientTransform="matrix(0.0, 0.0099, -0.0098, 0.0, 12.0, 10.3)" gradientUnits="userSpaceOnUse" id="gradient1" spreadMethod="pad" x1="-819.2" x2="819.2">
      <stop offset="0.0" stop-color="#ff9900"/>
      <stop offset="1.0" stop-color="#ffff00"/>
    </linearGradient>
  </defs>
</svg>
