<?xml version="1.0" encoding="UTF-8" standalone="no"?>
<svg xmlns:xlink="http://www.w3.org/1999/xlink" height="43.35px" width="127.25px" xmlns="http://www.w3.org/2000/svg">
  <g transform="matrix(1.0, 0.0, 0.0, 1.0, 1.5, 1.5)">
    <path d="M122.25 28.7 L121.55 32.8 120.95 36.2 120.75 36.8 120.25 38.1 118.05 39.3 115.55 39.8 112.05 39.8 110.95 39.8 110.65 39.6 111.05 39.5 110.45 39.2 111.05 38.7 110.65 38.4 110.85 38.3 110.55 38.1 Q110.55 37.7 110.85 37.7 L110.55 37.2 Q110.45 37.0 110.65 37.1 L110.35 36.9 Q110.45 36.8 110.65 36.8 L109.75 35.7 Q108.95 34.9 108.75 34.9 108.85 34.4 109.55 34.3 L108.65 33.7 108.45 33.6 Q108.35 33.4 108.55 33.3 108.15 32.7 108.05 32.1 L109.45 32.2 113.85 32.2 Q115.25 32.0 115.75 29.0 114.95 26.2 110.95 26.4 L108.85 26.2 109.25 25.9 108.85 25.5 Q109.25 25.4 110.25 24.6 L110.05 24.1 110.35 23.8 109.85 23.3 110.25 22.9 109.75 22.8 Q110.15 22.1 111.65 21.6 L111.35 21.3 111.85 21.0 111.75 20.7 112.25 20.3 112.55 20.1 112.45 20.0 112.55 19.8 Q112.35 19.6 112.25 19.7 L112.65 19.5 Q112.65 19.4 112.95 19.4 L112.95 18.9 119.55 19.0 Q121.55 19.7 121.65 19.9 122.95 20.7 123.05 21.8 L122.25 28.7 M123.95 16.3 L117.15 16.0 Q116.85 13.6 115.95 13.5 L111.55 13.4 110.85 12.6 110.55 12.4 111.25 11.9 112.75 10.5 112.65 10.2 112.85 10.1 112.15 9.7 Q112.25 9.4 112.75 9.2 L113.25 9.1 113.15 8.8 113.25 8.8 113.65 8.3 114.95 7.3 114.75 7.1 Q114.75 6.7 115.05 7.0 L114.85 6.8 Q115.05 6.4 115.25 6.6 115.45 6.1 115.75 6.1 L115.45 5.9 Q115.45 5.6 115.75 5.8 L114.45 4.9 118.15 4.7 121.75 5.1 Q125.15 7.6 123.95 16.3 M112.55 4.8 L113.95 5.7 Q113.75 5.6 113.65 5.8 L114.05 6.0 113.45 6.1 Q113.05 6.2 112.95 6.7 113.05 6.4 113.35 6.9 112.95 6.6 112.85 7.0 L113.15 7.6 Q112.55 7.6 111.45 8.8 L111.55 9.1 Q111.05 8.9 110.45 9.6 L110.95 10.0 110.95 10.3 111.15 10.7 Q110.45 10.9 109.35 11.9 L108.65 12.4 109.25 12.7 109.85 13.3 107.85 13.1 105.75 13.4 Q103.75 14.0 103.65 16.4 L103.75 16.6 Q104.05 18.5 105.85 18.6 L109.15 18.7 Q110.35 18.7 111.25 19.2 110.65 19.2 110.35 19.6 L110.75 19.7 Q110.55 19.7 110.65 19.9 L110.65 20.0 110.45 20.2 110.05 20.8 110.15 20.9 109.55 21.2 110.05 21.4 Q108.95 22.0 107.95 22.7 L108.45 23.0 108.05 23.2 108.05 23.3 108.65 24.0 108.25 24.3 108.55 24.6 107.25 25.6 107.45 26.1 107.05 26.2 Q107.15 26.1 107.35 26.4 L101.35 26.3 100.25 26.1 99.35 25.9 Q96.15 24.9 95.95 22.2 95.75 20.1 96.05 18.7 95.95 17.4 96.25 14.9 L96.75 12.5 96.75 11.4 Q96.55 8.8 96.95 8.2 97.85 4.4 101.05 4.3 L104.05 4.2 106.05 4.3 106.15 4.3 106.35 4.3 107.15 4.3 112.55 4.7 112.55 4.8 M87.25 3.7 Q89.45 5.1 90.35 8.6 91.05 11.3 90.95 15.3 L83.55 15.2 83.35 14.3 Q82.75 12.6 82.05 12.5 L77.25 12.3 76.35 11.5 76.05 11.3 76.65 10.8 78.35 9.4 Q78.15 8.8 78.05 9.2 L78.25 8.9 77.65 8.4 78.05 8.0 78.65 7.9 78.55 7.6 78.65 7.6 79.05 7.0 80.25 6.0 80.05 5.8 Q80.15 5.3 80.35 5.7 80.25 5.3 80.05 5.5 80.15 5.0 80.45 5.3 L80.95 4.7 80.45 4.5 80.85 4.4 79.35 3.5 83.45 3.3 87.25 3.7 M88.95 19.1 Q90.45 19.9 90.65 21.1 90.85 25.5 90.35 32.6 L90.15 36.1 89.95 36.6 89.45 38.0 87.25 39.3 84.85 39.8 80.95 39.8 79.65 39.8 79.45 39.6 79.85 39.5 Q79.35 39.2 79.15 39.2 L79.65 38.7 79.25 38.4 Q79.25 38.2 79.45 38.3 79.25 38.0 79.15 38.1 79.15 37.6 79.35 37.7 L79.05 37.1 Q79.05 36.9 79.25 37.0 L78.95 36.8 Q78.95 36.5 79.25 36.5 L77.95 35.4 Q77.05 34.8 76.75 34.7 76.85 34.2 77.55 34.1 L76.55 33.4 76.25 33.3 76.45 33.1 Q75.85 32.5 75.75 31.9 L77.35 31.9 Q79.55 32.1 82.05 31.9 83.35 31.7 83.55 28.6 82.45 25.6 78.05 26.0 L75.75 25.6 Q75.85 25.5 76.25 25.3 L75.75 25.0 77.15 24.1 76.85 23.4 77.15 23.1 76.65 22.7 77.05 22.2 76.55 22.1 Q76.85 21.4 78.45 20.8 L78.05 20.6 78.55 20.2 Q78.35 20.1 78.45 19.9 L78.85 19.6 79.25 19.4 79.15 19.2 79.15 19.0 78.85 18.8 79.15 18.6 79.65 18.5 79.65 18.0 86.55 18.3 88.95 19.1 M94.75 33.7 L95.05 31.0 95.25 28.5 102.25 28.5 102.05 30.9 Q102.15 31.9 103.15 32.1 L106.35 32.1 106.35 32.9 106.85 33.3 Q106.65 33.3 106.65 33.6 L107.85 34.2 Q107.35 34.2 107.15 34.8 L109.05 36.6 108.75 36.8 109.05 37.0 Q108.75 37.1 108.75 37.3 L109.25 38.0 108.85 38.1 109.05 38.3 109.05 38.4 109.35 38.7 Q108.75 38.7 108.75 39.2 L109.15 39.3 109.45 39.5 Q109.15 39.5 109.15 39.6 L109.35 39.8 104.35 39.8 99.65 39.8 98.85 39.6 97.85 39.5 Q95.55 38.6 94.95 37.2 L94.75 36.2 Q94.55 35.3 94.75 33.7 M77.95 5.7 L78.35 6.2 Q77.55 6.2 76.65 7.6 L76.75 7.8 Q76.15 7.7 75.85 8.3 L76.25 8.8 76.15 9.1 76.45 9.4 74.65 10.8 74.05 11.3 74.65 11.6 75.45 12.3 73.25 12.0 Q70.35 11.9 69.45 13.5 L69.15 14.2 69.05 15.4 Q69.65 17.7 71.85 17.7 L75.35 17.8 Q76.55 17.8 77.65 18.5 76.95 18.4 76.75 18.8 L77.25 18.9 Q76.95 18.9 77.15 19.1 L77.25 19.2 76.95 19.5 76.65 20.1 76.75 20.2 76.15 20.6 76.65 20.8 Q75.35 21.3 74.55 22.0 L75.15 22.4 Q74.85 22.3 74.85 22.7 L74.95 22.8 75.15 23.1 75.45 23.3 75.05 23.6 75.25 24.0 73.95 25.1 74.35 25.5 Q74.05 25.4 74.05 25.6 L74.25 25.9 67.85 25.7 66.65 25.5 65.65 25.3 Q63.15 24.6 62.25 23.3 61.65 22.5 61.55 21.6 61.05 19.4 61.15 17.8 L61.15 17.3 61.05 13.8 61.05 13.6 61.05 11.3 61.05 10.3 Q60.65 7.5 60.95 6.9 61.45 2.8 64.85 2.8 L65.05 2.8 68.05 2.7 71.45 2.8 74.15 2.8 74.45 2.8 77.35 3.3 77.35 3.4 78.95 4.3 78.65 4.4 79.05 4.7 78.45 4.8 Q78.15 4.8 77.95 5.4 78.15 4.9 78.45 5.6 78.15 5.3 77.95 5.7 M55.25 24.6 L55.55 28.3 55.65 29.6 55.65 29.9 55.55 30.0 54.85 30.3 55.35 30.6 55.45 30.7 55.25 30.7 Q55.05 30.7 54.95 30.9 53.65 31.4 53.55 32.0 L53.65 32.2 53.45 32.5 53.95 33.0 52.95 33.8 53.05 33.9 51.75 34.7 Q51.85 34.6 51.95 34.8 L51.15 34.8 Q50.15 34.8 49.35 35.3 L49.05 35.5 49.45 35.7 Q49.15 35.7 49.15 35.9 L49.45 36.0 49.75 36.5 49.25 36.6 49.05 37.0 49.65 37.5 49.05 37.7 49.25 37.9 48.95 37.9 48.55 38.0 48.45 36.9 47.85 30.3 47.65 27.7 46.55 16.3 46.45 15.1 45.65 5.1 Q45.35 3.6 45.35 2.0 L53.85 2.3 54.25 9.3 54.45 13.6 55.25 24.6 M57.35 30.6 L57.45 33.8 57.75 37.5 57.95 39.8 55.15 39.8 52.65 39.8 50.45 39.8 50.25 38.7 Q50.15 38.5 50.35 38.6 50.15 38.3 50.25 38.2 50.35 38.0 50.85 37.9 50.85 37.6 51.55 37.5 L50.75 36.9 Q50.85 36.4 51.45 36.5 L51.05 36.0 50.85 35.9 51.35 35.7 51.05 35.5 51.25 35.4 51.45 35.3 54.25 34.2 Q54.55 34.0 54.95 33.9 L54.75 33.8 Q55.05 33.2 55.65 33.0 L55.25 32.6 55.55 32.2 55.35 31.9 Q55.25 31.8 55.45 31.6 55.35 31.4 55.15 31.4 55.35 31.2 55.65 31.4 55.85 31.0 56.45 30.9 L57.35 30.6 56.95 30.3 Q56.95 30.1 57.25 30.1 L57.35 30.6 M41.05 37.9 L39.85 37.5 37.75 36.8 Q37.85 36.5 38.05 36.5 L37.15 36.0 Q37.15 35.8 37.35 35.9 L37.05 35.7 Q37.15 35.4 37.35 35.4 L36.85 35.1 Q36.65 34.9 37.05 34.9 L36.55 34.8 36.15 34.7 Q36.25 34.4 36.45 34.6 L35.95 34.2 35.25 33.8 Q35.25 33.7 35.55 33.7 L35.35 33.2 Q35.25 33.0 35.45 33.1 L35.25 32.7 35.25 32.5 34.15 31.9 33.45 31.5 33.35 31.2 33.15 30.0 33.15 28.6 Q32.65 26.5 32.45 24.2 L32.35 23.7 31.85 20.5 31.55 24.3 Q31.25 27.2 30.75 27.9 29.85 27.7 28.85 27.0 L29.05 26.8 28.15 26.5 28.75 25.9 27.65 25.2 27.85 24.9 27.15 24.3 26.45 23.9 26.35 23.9 25.65 23.8 Q25.65 23.6 25.95 23.5 L25.65 23.1 26.65 15.5 26.95 11.6 27.35 7.1 27.35 6.5 27.85 3.2 Q27.55 1.4 28.15 1.3 L29.35 1.1 30.75 1.4 37.95 1.7 40.35 23.3 41.35 32.1 42.05 38.0 41.05 37.9 M75.05 34.7 L77.35 36.5 77.15 36.6 77.45 37.0 Q77.25 37.0 77.35 37.3 L77.85 38.0 77.45 38.1 77.65 38.3 77.55 38.4 77.95 38.7 Q77.35 38.7 77.25 39.2 L77.75 39.3 78.15 39.5 77.65 39.6 77.95 39.8 71.35 39.8 67.55 39.8 66.95 39.7 66.65 39.6 65.65 39.5 Q64.15 38.9 63.35 38.3 62.15 37.3 61.95 36.1 61.65 35.1 61.55 33.3 L61.55 30.7 61.55 28.1 68.95 28.2 Q68.85 30.0 69.05 30.6 69.25 31.4 70.05 31.7 L70.45 31.8 74.05 31.9 74.05 32.7 74.45 33.1 74.35 33.3 75.75 34.1 Q75.25 34.0 75.05 34.7 M20.45 19.2 L20.05 18.9 Q20.05 18.8 20.45 18.6 L19.95 18.5 19.45 17.9 19.65 17.5 19.25 17.1 18.55 16.8 Q17.25 16.3 17.35 16.2 L17.55 15.8 17.05 15.4 16.65 15.3 Q17.05 14.5 17.65 14.4 L16.45 14.0 Q16.45 13.7 16.55 13.7 L16.15 13.4 16.75 13.0 Q16.55 12.6 16.35 12.9 16.35 12.2 16.75 12.2 14.85 11.0 13.85 10.9 13.75 10.7 13.95 10.5 L13.45 9.9 13.75 9.6 13.05 9.3 12.55 9.1 Q12.65 8.7 13.15 8.6 12.95 8.2 12.8 8.3 L13.45 8.0 12.65 7.6 Q12.75 6.8 13.15 6.9 12.25 6.1 12.05 6.4 11.15 5.7 10.95 5.8 L11.05 5.6 10.35 5.1 10.85 4.8 9.65 4.0 6.35 1.8 Q6.25 1.0 6.65 1.0 L6.15 0.5 5.95 0.4 10.95 0.6 11.95 0.4 Q12.45 0.0 12.85 0.6 L13.15 1.2 13.55 2.1 Q14.55 5.0 15.65 7.0 17.45 11.7 19.55 16.1 L21.65 20.3 21.45 20.3 21.05 20.2 Q20.75 19.9 20.45 20.0 L20.55 19.7 20.45 19.6 Q20.25 19.5 20.45 19.2 M24.15 23.9 Q25.15 24.2 25.85 24.9 25.75 25.0 25.95 25.5 L26.65 25.9 Q26.25 26.0 26.25 26.5 L26.75 26.8 26.75 27.0 Q28.25 27.7 29.45 28.6 L28.95 28.9 29.45 29.3 Q28.85 32.6 28.65 35.6 L28.65 35.8 28.65 37.6 28.65 39.8 21.75 39.8 16.75 28.1 15.25 24.5 14.75 23.5 14.15 22.0 13.75 20.8 13.85 22.2 14.15 24.5 14.25 25.6 15.15 30.6 16.35 35.4 16.75 37.7 17.05 39.2 17.15 39.8 9.45 39.8 3.55 14.4 Q2.25 9.8 1.35 4.8 L0.55 1.6 0.55 1.2 0.05 0.4 Q-0.05 -0.3 0.25 0.2 3.05 0.1 4.45 0.9 3.95 1.1 4.15 1.8 L5.75 3.5 Q5.95 3.2 6.25 3.8 6.75 4.2 7.55 4.3 8.15 4.6 8.65 4.7 L8.15 5.1 8.95 5.5 Q8.85 5.5 8.85 5.8 10.05 5.9 10.95 6.9 10.45 6.6 10.35 7.5 10.45 7.2 11.15 7.9 L10.55 8.2 10.95 8.6 Q10.55 8.7 10.35 9.0 10.65 8.9 11.45 9.7 L11.25 10.3 11.65 10.4 Q11.45 10.4 11.45 10.9 12.55 10.9 14.55 12.2 14.15 12.5 14.05 13.5 14.1 13.35 14.7 13.75 14.35 13.55 14.45 14.0 L15.25 14.4 Q14.75 14.5 14.65 15.3 L15.45 15.9 15.15 16.0 Q15.35 16.0 15.75 16.4 L16.55 16.5 16.05 16.7 16.55 16.7 Q16.85 17.1 17.55 17.4 L17.45 17.7 17.45 17.9 17.75 18.4 18.45 18.6 Q18.15 18.7 18.05 18.9 L18.55 19.4 Q18.15 19.2 18.35 19.6 L18.55 19.7 Q18.25 19.7 18.35 19.9 L19.15 20.2 19.95 20.9 20.85 22.7 22.15 25.5 22.75 27.0 23.25 28.3 23.35 27.0 23.25 25.2 Q23.05 24.1 23.75 23.9 L24.15 23.9 M33.45 33.8 L33.85 34.2 34.25 34.6 35.35 34.9 34.85 35.2 35.55 35.4 Q35.25 35.4 35.25 35.5 L35.55 35.9 Q35.45 35.8 35.45 36.0 L35.85 36.4 36.25 36.5 Q35.95 36.5 35.95 36.8 L36.85 37.2 36.95 37.2 Q37.35 37.2 37.75 37.5 L38.95 37.9 39.65 37.9 Q40.05 37.9 40.35 38.2 40.25 39.1 40.45 39.8 L37.85 39.8 33.15 39.8 32.05 32.8 31.95 32.7 31.65 32.1 Q31.65 31.8 31.85 31.9 L32.55 32.1 Q33.35 32.5 33.55 33.7 33.35 33.7 33.45 33.8" fill="#eb9a05" fill-rule="evenodd" stroke="none"/>
    <path d="M122.25 28.7 L121.55 32.8 120.95 36.2 120.75 36.8 120.25 38.1 118.05 39.3 115.55 39.8 112.05 39.8 110.95 39.8 110.65 39.6 111.05 39.5 110.45 39.2 111.05 38.7 110.65 38.4 110.85 38.3 110.55 38.1 Q110.55 37.7 110.85 37.7 L110.55 37.2 Q110.45 37.0 110.65 37.1 L110.35 36.9 Q110.45 36.8 110.65 36.8 L109.75 35.7 Q108.95 34.9 108.75 34.9 108.85 34.4 109.55 34.3 L108.65 33.7 108.45 33.6 Q108.35 33.4 108.55 33.3 108.15 32.7 108.05 32.1 L109.45 32.2 113.85 32.2 Q115.25 32.0 115.75 29.0 114.95 26.2 110.95 26.4 L108.85 26.2 109.25 25.9 108.85 25.5 Q109.25 25.4 110.25 24.6 L110.05 24.1 110.35 23.8 109.85 23.3 110.25 22.9 109.75 22.8 Q110.15 22.1 111.65 21.6 L111.35 21.3 111.85 21.0 111.75 20.7 112.25 20.3 112.55 20.1 112.45 20.0 112.55 19.8 Q112.35 19.6 112.25 19.7 L112.65 19.5 Q112.65 19.4 112.95 19.4 L112.95 18.9 119.55 19.0 Q121.55 19.7 121.65 19.9 122.95 20.7 123.05 21.8 L122.25 28.7 M123.95 16.3 L117.15 16.0 Q116.85 13.6 115.95 13.5 L111.55 13.4 110.85 12.6 110.55 12.4 111.25 11.9 112.75 10.5 112.65 10.2 112.85 10.1 112.15 9.7 Q112.25 9.4 112.75 9.2 L113.25 9.1 113.15 8.8 113.25 8.8 113.65 8.3 114.95 7.3 114.75 7.1 Q114.75 6.7 115.05 7.0 L114.85 6.8 Q115.05 6.4 115.25 6.6 115.45 6.1 115.75 6.1 L115.45 5.9 Q115.45 5.6 115.75 5.8 L114.45 4.9 118.15 4.7 121.75 5.1 Q125.15 7.6 123.95 16.3 M112.55 4.8 L113.95 5.7 Q113.75 5.6 113.65 5.8 L114.05 6.0 113.45 6.1 Q113.05 6.2 112.95 6.7 113.05 6.4 113.35 6.9 112.95 6.6 112.85 7.0 L113.15 7.6 Q112.55 7.6 111.45 8.8 L111.55 9.1 Q111.05 8.9 110.45 9.6 L110.95 10.0 110.95 10.3 111.15 10.7 Q110.45 10.9 109.35 11.9 L108.65 12.4 109.25 12.7 109.85 13.3 107.85 13.1 105.75 13.4 Q103.75 14.0 103.65 16.4 L103.75 16.6 Q104.05 18.5 105.85 18.6 L109.15 18.7 Q110.35 18.7 111.25 19.2 110.65 19.2 110.35 19.6 L110.75 19.7 Q110.55 19.7 110.65 19.9 L110.65 20.0 110.45 20.2 110.05 20.8 110.15 20.9 109.55 21.2 110.05 21.4 Q108.95 22.0 107.95 22.7 L108.45 23.0 108.05 23.2 108.05 23.3 108.65 24.0 108.25 24.3 108.55 24.6 107.25 25.6 107.45 26.1 107.05 26.2 Q107.15 26.1 107.35 26.4 L101.35 26.3 100.25 26.1 99.35 25.9 Q96.15 24.9 95.95 22.2 95.75 20.1 96.05 18.7 95.95 17.4 96.25 14.9 L96.75 12.5 96.75 11.4 Q96.55 8.8 96.95 8.2 97.85 4.4 101.05 4.3 L104.05 4.2 106.05 4.3 106.15 4.3 106.35 4.3 107.15 4.3 112.55 4.7 112.55 4.8 M87.25 3.7 Q89.45 5.1 90.35 8.6 91.05 11.3 90.95 15.3 L83.55 15.2 83.35 14.3 Q82.75 12.6 82.05 12.5 L77.25 12.3 76.35 11.5 76.05 11.3 76.65 10.8 78.35 9.4 Q78.15 8.8 78.05 9.2 L78.25 8.9 77.65 8.4 78.05 8.0 78.65 7.9 78.55 7.6 78.65 7.6 79.05 7.0 80.25 6.0 80.05 5.8 Q80.15 5.3 80.35 5.7 80.25 5.3 80.05 5.5 80.15 5.0 80.45 5.3 L80.95 4.7 80.45 4.5 80.85 4.4 79.35 3.5 83.45 3.3 87.25 3.7 M88.95 19.1 Q90.45 19.9 90.65 21.1 90.85 25.5 90.35 32.6 L90.15 36.1 89.95 36.6 89.45 38.0 87.25 39.3 84.85 39.8 80.95 39.8 79.65 39.8 79.45 39.6 79.85 39.5 Q79.35 39.2 79.15 39.2 L79.65 38.7 79.25 38.4 Q79.25 38.2 79.45 38.3 79.25 38.0 79.15 38.1 79.15 37.6 79.35 37.7 L79.05 37.1 Q79.05 36.9 79.25 37.0 L78.95 36.8 Q78.95 36.5 79.25 36.5 L77.95 35.4 Q77.05 34.8 76.75 34.7 76.85 34.2 77.55 34.1 L76.55 33.4 76.25 33.3 76.45 33.1 Q75.85 32.5 75.75 31.9 L77.35 31.9 Q79.55 32.1 82.05 31.9 83.35 31.7 83.55 28.6 82.45 25.6 78.05 26.0 L75.75 25.6 Q75.85 25.5 76.25 25.3 L75.75 25.0 77.15 24.1 76.85 23.4 77.15 23.1 76.65 22.7 77.05 22.2 76.55 22.1 Q76.85 21.4 78.45 20.8 L78.05 20.6 78.55 20.2 Q78.35 20.1 78.45 19.9 L78.85 19.6 79.25 19.4 79.15 19.2 79.15 19.0 78.85 18.8 79.15 18.6 79.65 18.5 79.65 18.0 86.55 18.3 88.95 19.1 M94.75 33.7 L95.05 31.0 95.25 28.5 102.25 28.5 102.05 30.9 Q102.15 31.9 103.15 32.1 L106.35 32.1 106.35 32.9 106.85 33.3 Q106.65 33.3 106.65 33.6 L107.85 34.2 Q107.35 34.2 107.15 34.8 L109.05 36.6 108.75 36.8 109.05 37.0 Q108.75 37.1 108.75 37.3 L109.25 38.0 108.85 38.1 109.05 38.3 109.05 38.4 109.35 38.7 Q108.75 38.7 108.75 39.2 L109.15 39.3 109.45 39.5 Q109.15 39.5 109.15 39.6 L109.35 39.8 104.35 39.8 99.65 39.8 98.85 39.6 97.85 39.5 Q95.55 38.6 94.95 37.2 L94.75 36.2 Q94.55 35.3 94.75 33.7 M77.95 5.7 L78.35 6.2 Q77.55 6.2 76.65 7.6 L76.75 7.8 Q76.15 7.7 75.85 8.3 L76.25 8.8 76.15 9.1 76.45 9.4 74.65 10.8 74.05 11.3 74.65 11.6 75.45 12.3 73.25 12.0 Q70.35 11.9 69.45 13.5 L69.15 14.2 69.05 15.4 Q69.65 17.7 71.85 17.7 L75.35 17.8 Q76.55 17.8 77.65 18.5 76.95 18.4 76.75 18.8 L77.25 18.9 Q76.95 18.9 77.15 19.1 L77.25 19.2 76.95 19.5 76.65 20.1 76.75 20.2 76.15 20.6 76.65 20.8 Q75.35 21.3 74.55 22.0 L75.15 22.4 Q74.85 22.3 74.85 22.7 L74.95 22.8 75.15 23.1 75.45 23.3 75.05 23.6 75.25 24.0 73.95 25.1 74.35 25.5 Q74.05 25.4 74.05 25.6 L74.25 25.9 67.85 25.7 66.65 25.5 65.65 25.3 Q63.15 24.6 62.25 23.3 61.65 22.5 61.55 21.6 61.05 19.4 61.15 17.8 L61.15 17.3 61.05 13.8 61.05 13.6 61.05 11.3 61.05 10.3 Q60.65 7.5 60.95 6.9 61.45 2.8 64.85 2.8 L65.05 2.8 68.05 2.7 71.45 2.8 74.15 2.8 74.45 2.8 77.35 3.3 77.35 3.4 78.95 4.3 78.65 4.4 79.05 4.7 78.45 4.8 Q78.15 4.8 77.95 5.4 78.15 4.9 78.45 5.6 78.15 5.3 77.95 5.7 M55.25 24.6 L55.55 28.3 55.65 29.6 55.65 29.9 55.55 30.0 54.85 30.3 55.35 30.6 55.45 30.7 55.25 30.7 Q55.05 30.7 54.95 30.9 53.65 31.4 53.55 32.0 L53.65 32.2 53.45 32.5 53.95 33.0 52.95 33.8 53.05 33.9 51.75 34.7 Q51.85 34.6 51.95 34.8 L51.15 34.8 Q50.15 34.8 49.35 35.3 L49.05 35.5 49.45 35.7 Q49.15 35.7 49.15 35.9 L49.45 36.0 49.75 36.5 49.25 36.6 49.05 37.0 49.65 37.5 49.05 37.7 49.25 37.9 48.95 37.9 48.55 38.0 48.45 36.9 47.85 30.3 47.65 27.7 46.55 16.3 46.45 15.1 45.65 5.1 Q45.35 3.6 45.35 2.0 L53.85 2.3 54.25 9.3 54.45 13.6 55.25 24.6 M57.35 30.6 L57.45 33.8 57.75 37.5 57.95 39.8 55.15 39.8 52.65 39.8 50.45 39.8 50.25 38.7 Q50.15 38.5 50.35 38.6 50.15 38.3 50.25 38.2 50.35 38.0 50.85 37.9 50.85 37.6 51.55 37.5 L50.75 36.9 Q50.85 36.4 51.45 36.5 L51.05 36.0 50.85 35.9 51.35 35.7 51.05 35.5 51.25 35.4 51.45 35.3 54.25 34.2 Q54.55 34.0 54.95 33.9 L54.75 33.8 Q55.05 33.2 55.65 33.0 L55.25 32.6 55.55 32.2 55.35 31.9 Q55.25 31.8 55.45 31.6 55.35 31.4 55.15 31.4 55.35 31.2 55.65 31.4 55.85 31.0 56.45 30.9 L57.35 30.6 M41.05 37.9 L39.85 37.5 37.75 36.8 Q37.85 36.5 38.05 36.5 L37.15 36.0 Q37.15 35.8 37.35 35.9 L37.05 35.7 Q37.15 35.4 37.35 35.4 L36.85 35.1 Q36.65 34.9 37.05 34.9 L36.55 34.8 36.15 34.7 Q36.25 34.4 36.45 34.6 L35.95 34.2 35.25 33.8 Q35.25 33.7 35.55 33.7 L35.35 33.2 Q35.25 33.0 35.45 33.1 L35.25 32.7 35.25 32.5 34.15 31.9 33.45 31.5 33.35 31.2 33.15 30.0 33.15 28.6 Q32.65 26.5 32.45 24.2 L32.35 23.7 31.85 20.5 31.55 24.3 Q31.25 27.2 30.75 27.9 29.85 27.7 28.85 27.0 L29.05 26.8 28.15 26.5 28.75 25.9 27.65 25.2 27.85 24.9 27.15 24.3 26.45 23.9 26.35 23.9 25.65 23.8 Q25.65 23.6 25.95 23.5 L25.65 23.1 26.65 15.5 26.95 11.6 27.35 7.1 27.35 6.5 27.85 3.2 Q27.55 1.4 28.15 1.3 L29.35 1.1 30.75 1.4 37.95 1.7 40.35 23.3 41.35 32.1 42.05 38.0 41.05 37.9 M75.05 34.7 L77.35 36.5 77.15 36.6 77.45 37.0 Q77.25 37.0 77.35 37.3 L77.85 38.0 77.45 38.1 77.65 38.3 77.55 38.4 77.95 38.7 Q77.35 38.7 77.25 39.2 L77.75 39.3 78.15 39.5 77.65 39.6 77.95 39.8 71.35 39.8 67.55 39.8 66.95 39.7 66.65 39.6 65.65 39.5 Q64.15 38.9 63.35 38.3 62.15 37.3 61.95 36.1 61.65 35.1 61.55 33.3 L61.55 30.7 61.55 28.1 68.95 28.2 Q68.85 30.0 69.05 30.6 69.25 31.4 70.05 31.7 L70.45 31.8 74.05 31.9 74.05 32.7 74.45 33.1 74.35 33.3 75.75 34.1 Q75.25 34.0 75.05 34.7 M20.45 19.2 L20.05 18.9 Q20.05 18.8 20.45 18.6 L19.95 18.5 19.45 17.9 19.65 17.5 19.25 17.1 18.55 16.8 Q17.25 16.3 17.35 16.2 L17.55 15.8 17.05 15.4 16.65 15.3 Q17.05 14.5 17.65 14.4 L16.45 14.0 Q16.45 13.7 16.55 13.7 L16.15 13.4 16.75 13.0 Q16.55 12.6 16.35 12.9 16.35 12.2 16.75 12.2 14.85 11.0 13.85 10.9 13.75 10.7 13.95 10.5 L13.45 9.9 13.75 9.6 13.05 9.3 12.55 9.1 Q12.65 8.7 13.15 8.6 12.95 8.2 12.8 8.3 L13.45 8.0 12.65 7.6 Q12.75 6.8 13.15 6.9 12.25 6.1 12.05 6.4 11.15 5.7 10.95 5.8 L11.05 5.6 10.35 5.1 10.85 4.8 9.65 4.0 6.35 1.8 Q6.25 1.0 6.65 1.0 L6.15 0.5 5.95 0.4 10.95 0.6 11.95 0.4 Q12.45 0.0 12.85 0.6 L13.15 1.2 13.55 2.1 Q14.55 5.0 15.65 7.0 17.45 11.7 19.55 16.1 L21.65 20.3 21.45 20.3 21.05 20.2 Q20.75 19.9 20.45 20.0 L20.55 19.7 20.45 19.6 Q20.25 19.5 20.45 19.2 M24.15 23.9 Q25.15 24.2 25.85 24.9 25.75 25.0 25.95 25.5 L26.65 25.9 Q26.25 26.0 26.25 26.5 L26.75 26.8 26.75 27.0 Q28.25 27.7 29.45 28.6 L28.95 28.9 29.45 29.3 Q28.85 32.6 28.65 35.6 L28.65 35.8 28.65 37.6 28.65 39.8 21.75 39.8 16.75 28.1 15.25 24.5 14.75 23.5 14.15 22.0 13.75 20.8 13.85 22.2 14.15 24.5 14.25 25.6 15.15 30.6 16.35 35.4 16.75 37.7 17.05 39.2 17.15 39.8 9.45 39.8 3.55 14.4 Q2.25 9.8 1.35 4.8 L0.55 1.6 0.55 1.2 0.05 0.4 Q-0.05 -0.3 0.25 0.2 3.05 0.1 4.45 0.9 3.95 1.1 4.15 1.8 L5.75 3.5 Q5.95 3.2 6.25 3.8 6.75 4.2 7.55 4.3 8.15 4.6 8.65 4.7 L8.15 5.1 8.95 5.5 Q8.85 5.5 8.85 5.8 10.05 5.9 10.95 6.9 10.45 6.6 10.35 7.5 10.45 7.2 11.15 7.9 L10.55 8.2 10.95 8.6 Q10.55 8.7 10.35 9.0 10.65 8.9 11.45 9.7 L11.25 10.3 11.65 10.4 Q11.45 10.4 11.45 10.9 12.55 10.9 14.55 12.2 14.15 12.5 14.05 13.5 14.1 13.35 14.7 13.75 14.35 13.55 14.45 14.0 L15.25 14.4 Q14.75 14.5 14.65 15.3 L15.45 15.9 15.15 16.0 Q15.35 16.0 15.75 16.4 L16.55 16.5 16.05 16.7 16.55 16.7 Q16.85 17.1 17.55 17.4 L17.45 17.7 17.45 17.9 17.75 18.4 18.45 18.6 Q18.15 18.7 18.05 18.9 L18.55 19.4 Q18.15 19.2 18.35 19.6 L18.55 19.7 Q18.25 19.7 18.35 19.9 L19.15 20.2 19.95 20.9 20.85 22.7 22.15 25.5 22.75 27.0 23.25 28.3 23.35 27.0 23.25 25.2 Q23.05 24.1 23.75 23.9 L24.15 23.9 M33.45 33.8 L33.85 34.2 34.25 34.6 35.35 34.9 34.85 35.2 35.55 35.4 Q35.25 35.4 35.25 35.5 L35.55 35.9 Q35.45 35.8 35.45 36.0 L35.85 36.4 36.25 36.5 Q35.95 36.5 35.95 36.8 L36.85 37.2 36.95 37.2 Q37.35 37.2 37.75 37.5 L38.95 37.9 39.65 37.9 Q40.05 37.9 40.35 38.2 40.25 39.1 40.45 39.8 L37.85 39.8 33.15 39.8 32.05 32.8 31.95 32.7 31.65 32.1 Q31.65 31.8 31.85 31.9 L32.55 32.1 Q33.35 32.5 33.55 33.7 33.35 33.7 33.45 33.8 Z" fill="none" stroke="#371b0a" stroke-linecap="butt" stroke-linejoin="miter-clip" stroke-miterlimit="3.0" stroke-width="3.0"/>
    <path d="M122.25 28.7 L121.55 32.8 120.95 36.2 120.75 36.8 120.25 38.1 118.05 39.3 115.55 39.8 112.05 39.8 110.95 39.8 110.65 39.6 111.05 39.5 110.45 39.2 111.05 38.7 110.65 38.4 110.85 38.3 110.55 38.1 Q110.55 37.7 110.85 37.7 L110.55 37.2 Q110.45 37.0 110.65 37.1 L110.35 36.9 Q110.45 36.8 110.65 36.8 L109.75 35.7 Q108.95 34.9 108.75 34.9 108.85 34.4 109.55 34.3 L108.65 33.7 108.45 33.6 Q108.35 33.4 108.55 33.3 108.15 32.7 108.05 32.1 L109.45 32.2 113.85 32.2 Q115.25 32.0 115.75 29.0 114.95 26.2 110.95 26.4 L108.85 26.2 109.25 25.9 108.85 25.5 Q109.25 25.4 110.25 24.6 L110.05 24.1 110.35 23.8 109.85 23.3 110.25 22.9 109.75 22.8 Q110.15 22.1 111.65 21.6 L111.35 21.3 111.85 21.0 111.75 20.7 112.25 20.3 112.55 20.1 112.45 20.0 112.55 19.8 Q112.35 19.6 112.25 19.7 L112.65 19.5 Q112.65 19.4 112.95 19.4 L112.95 18.9 119.55 19.0 Q121.55 19.7 121.65 19.9 122.95 20.7 123.05 21.8 L122.25 28.7 M123.95 16.3 L117.15 16.0 Q116.85 13.6 115.95 13.5 L111.55 13.4 110.85 12.6 110.55 12.4 111.25 11.9 112.75 10.5 112.65 10.2 112.85 10.1 112.15 9.7 Q112.25 9.4 112.75 9.2 L113.25 9.1 113.15 8.8 113.25 8.8 113.65 8.3 114.95 7.3 114.75 7.1 Q114.75 6.7 115.05 7.0 L114.85 6.8 Q115.05 6.4 115.25 6.6 115.45 6.1 115.75 6.1 L115.45 5.9 Q115.45 5.6 115.75 5.8 L114.45 4.9 118.15 4.7 121.75 5.1 Q125.15 7.6 123.95 16.3 M105.95 4.3 L106.15 4.3 106.35 4.3 107.15 4.3 112.55 4.7 112.55 4.8 113.95 5.7 Q113.75 5.6 113.65 5.8 L114.05 6.0 113.45 6.1 Q113.05 6.2 112.95 6.7 113.05 6.4 113.35 6.9 112.95 6.6 112.85 7.0 L113.15 7.6 Q112.55 7.6 111.45 8.8 L111.55 9.1 Q111.05 8.9 110.45 9.6 L110.95 10.0 110.95 10.3 111.15 10.7 Q110.45 10.9 109.35 11.9 L108.65 12.4 109.25 12.7 109.85 13.3 107.85 13.1 105.75 13.4 Q103.75 14.0 103.65 16.4 L103.75 16.6 Q104.05 18.5 105.85 18.6 L109.15 18.7 Q110.35 18.7 111.25 19.2 110.65 19.2 110.35 19.6 L110.75 19.7 Q110.55 19.7 110.65 19.9 L110.65 20.0 110.45 20.2 110.05 20.8 110.15 20.9 109.55 21.2 110.05 21.4 Q108.95 22.0 107.95 22.7 L108.45 23.0 108.05 23.2 108.05 23.3 108.65 24.0 108.25 24.3 108.55 24.6 107.25 25.6 107.45 26.1 107.05 26.2 Q107.15 26.1 107.35 26.4 L104.35 26.4 Q101.35 25.8 100.05 24.1 98.75 22.4 99.05 19.6 L99.05 10.0 Q100.35 4.35 105.95 4.3 M87.25 3.7 Q89.45 5.1 90.35 8.6 91.05 11.3 90.95 15.3 L83.55 15.2 83.35 14.3 Q82.75 12.6 82.05 12.5 L77.25 12.3 76.35 11.5 76.05 11.3 76.65 10.8 78.35 9.4 Q78.15 8.8 78.05 9.2 L78.25 8.9 77.65 8.4 78.05 8.0 78.65 7.9 78.55 7.6 78.65 7.6 79.05 7.0 80.25 6.0 80.05 5.8 Q80.15 5.3 80.35 5.7 80.25 5.3 80.05 5.5 80.15 5.0 80.45 5.3 L80.95 4.7 80.45 4.5 80.85 4.4 79.35 3.5 83.45 3.3 87.25 3.7 M88.95 19.1 Q90.45 19.9 90.65 21.1 90.85 25.5 90.35 32.6 L90.15 36.1 89.95 36.6 89.45 38.0 87.25 39.3 84.85 39.8 80.95 39.8 79.65 39.8 79.45 39.6 79.85 39.5 Q79.35 39.2 79.15 39.2 L79.65 38.7 79.25 38.4 Q79.25 38.2 79.45 38.3 79.25 38.0 79.15 38.1 79.15 37.6 79.35 37.7 L79.05 37.1 Q79.05 36.9 79.25 37.0 L78.95 36.8 Q78.95 36.5 79.25 36.5 L77.95 35.4 Q77.05 34.8 76.75 34.7 76.85 34.2 77.55 34.1 L76.55 33.4 76.25 33.3 76.45 33.1 Q75.85 32.5 75.75 31.9 L77.35 31.9 Q79.55 32.1 82.05 31.9 83.35 31.7 83.55 28.6 82.45 25.6 78.05 26.0 L75.75 25.6 Q75.85 25.5 76.25 25.3 L75.75 25.0 77.15 24.1 76.85 23.4 77.15 23.1 76.65 22.7 77.05 22.2 76.55 22.1 Q76.85 21.4 78.45 20.8 L78.05 20.6 78.55 20.2 Q78.35 20.1 78.45 19.9 L78.85 19.6 79.25 19.4 79.15 19.2 79.15 19.0 78.85 18.8 79.15 18.6 79.65 18.5 79.65 18.0 86.55 18.3 88.95 19.1 M104.35 39.8 Q96.95 37.9 97.05 34.4 L97.05 28.5 102.25 28.5 102.05 30.9 Q102.15 31.9 103.15 32.1 L106.35 32.1 106.35 32.9 106.85 33.3 Q106.65 33.3 106.65 33.6 L107.85 34.2 Q107.35 34.2 107.15 34.8 L109.05 36.6 108.75 36.8 109.05 37.0 Q108.75 37.1 108.75 37.3 L109.25 38.0 108.85 38.1 109.05 38.3 109.05 38.4 109.35 38.7 Q108.75 38.7 108.75 39.2 L109.15 39.3 109.45 39.5 Q109.15 39.5 109.15 39.6 L109.35 39.8 104.35 39.8 M65.05 2.8 L68.05 2.7 71.45 2.8 74.15 2.8 74.45 2.8 77.35 3.3 77.35 3.4 78.95 4.3 78.65 4.4 79.05 4.7 78.45 4.8 Q78.15 4.8 77.95 5.4 78.15 4.9 78.45 5.6 78.15 5.3 77.95 5.7 L78.35 6.2 Q77.55 6.2 76.65 7.6 L76.75 7.8 Q76.15 7.7 75.85 8.3 L76.25 8.8 76.15 9.1 76.45 9.4 74.65 10.8 74.05 11.3 74.65 11.6 75.45 12.3 73.25 12.0 Q70.35 11.9 69.45 13.5 L69.15 14.2 69.05 15.4 Q69.65 17.7 71.85 17.7 L75.35 17.8 Q76.55 17.8 77.65 18.5 76.95 18.4 76.75 18.8 L77.25 18.9 Q76.95 18.9 77.15 19.1 L77.25 19.2 76.95 19.5 76.65 20.1 76.75 20.2 76.15 20.6 76.65 20.8 Q75.35 21.3 74.55 22.0 L75.15 22.4 Q74.85 22.3 74.85 22.7 L74.95 22.8 75.15 23.1 75.45 23.3 75.05 23.6 75.25 24.0 73.95 25.1 73.65 25.1 Q68.35 24.9 66.05 24.0 64.25 23.2 64.15 22.0 L62.65 8.4 Q61.55 5.6 65.05 2.8 M45.35 2.0 L53.85 2.3 54.25 9.3 54.45 13.6 55.25 24.6 55.55 28.3 55.65 29.6 55.65 29.9 55.55 30.0 54.85 30.3 55.35 30.6 55.45 30.7 55.25 30.7 Q55.05 30.7 54.95 30.9 53.65 31.4 53.55 32.0 L53.65 32.2 53.45 32.5 53.95 33.0 52.95 33.8 53.05 33.9 51.75 34.7 Q51.85 34.6 51.95 34.8 L51.15 34.8 45.35 2.0 M51.45 36.5 L51.05 36.0 50.85 35.9 51.35 35.7 51.05 35.5 51.25 35.4 51.45 35.3 54.25 34.2 Q54.55 34.0 54.95 33.9 L54.75 33.8 Q55.05 33.2 55.65 33.0 L55.25 32.6 55.55 32.2 55.35 31.9 Q55.25 31.8 55.45 31.6 55.35 31.4 55.15 31.4 55.35 31.2 55.65 31.4 55.85 31.0 56.45 30.9 L57.35 30.6 56.95 30.3 Q56.95 30.1 57.25 30.1 L57.35 30.6 57.45 33.8 57.75 37.5 51.35 36.1 51.45 36.5 M32.45 23.9 L32.35 23.7 31.85 20.5 31.55 24.3 Q31.25 27.2 30.75 27.9 29.85 27.7 28.85 27.0 L29.05 26.8 28.15 26.5 28.75 25.9 27.65 25.2 27.85 24.9 27.15 24.3 26.45 23.9 26.35 23.9 25.65 23.8 Q25.65 23.6 25.95 23.5 L25.65 23.1 26.65 15.5 26.95 11.6 27.35 7.1 27.35 6.5 27.85 3.2 Q27.55 1.4 28.15 1.3 L29.35 1.1 30.75 1.4 37.95 1.7 40.35 23.3 41.35 32.1 42.05 38.0 41.05 37.9 39.85 37.5 37.75 36.8 Q37.85 36.5 38.05 36.5 L37.15 36.0 Q37.15 35.8 37.35 35.9 L37.05 35.7 Q37.15 35.4 37.35 35.4 L36.85 35.1 Q36.65 34.9 37.05 34.9 L36.55 34.8 36.15 34.7 Q36.25 34.4 36.45 34.6 L35.95 34.2 32.45 23.9 M63.45 28.2 L68.95 28.2 Q68.85 30.0 69.05 30.6 69.25 31.4 70.05 31.7 L70.45 31.8 74.05 31.9 74.05 32.7 74.45 33.1 74.35 33.3 75.75 34.1 Q75.25 34.0 75.05 34.7 L77.35 36.5 77.15 36.6 77.45 37.0 Q77.25 37.0 77.35 37.3 L77.85 38.0 77.45 38.1 77.65 38.3 77.55 38.4 77.95 38.7 Q77.35 38.7 77.25 39.2 L77.75 39.3 78.15 39.5 77.65 39.6 77.95 39.8 71.35 39.8 Q69.05 39.3 67.45 38.5 64.65 37.2 63.85 35.0 63.45 34.2 63.45 33.2 L63.45 28.2 M20.45 19.2 L20.05 18.9 Q20.05 18.8 20.45 18.6 L19.95 18.5 19.45 17.9 19.65 17.5 19.25 17.1 18.55 16.8 Q17.25 16.3 17.35 16.2 L17.55 15.8 17.05 15.4 16.65 15.3 Q17.05 14.5 17.65 14.4 L16.45 14.0 Q16.45 13.7 16.55 13.7 L16.15 13.4 16.75 13.0 Q16.55 12.6 16.35 12.9 16.35 12.2 16.75 12.2 14.85 11.0 13.85 10.9 13.75 10.7 13.95 10.5 L13.45 9.9 13.75 9.6 13.05 9.3 12.55 9.1 Q12.65 8.7 13.15 8.6 12.95 8.2 12.8 8.3 L13.45 8.0 12.65 7.6 Q12.75 6.8 13.15 6.9 12.25 6.1 12.05 6.4 11.15 5.7 10.95 5.8 L11.05 5.6 10.35 5.1 10.85 4.8 9.65 4.0 6.35 1.8 Q6.25 1.0 6.65 1.0 L6.15 0.5 5.95 0.4 10.95 0.6 11.95 0.4 Q12.45 0.0 12.85 0.6 L13.15 1.2 13.55 2.1 Q14.55 5.0 15.65 7.0 17.45 11.7 19.55 16.1 L21.65 20.3 21.45 20.3 21.05 20.2 Q20.75 19.9 20.45 20.0 L20.55 19.7 20.45 19.6 Q20.25 19.5 20.45 19.2 M0.55 1.2 L0.05 0.4 Q-0.05 -0.3 0.25 0.2 3.05 0.1 4.45 0.9 3.95 1.1 4.15 1.8 L5.75 3.5 Q5.95 3.2 6.25 3.8 6.75 4.2 7.55 4.3 8.15 4.6 8.65 4.7 L8.15 5.1 8.95 5.5 Q8.85 5.5 8.85 5.8 10.05 5.9 10.95 6.9 10.45 6.6 10.35 7.5 10.45 7.2 11.15 7.9 L10.55 8.2 10.95 8.6 Q10.55 8.7 10.35 9.0 10.65 8.9 11.45 9.7 L11.25 10.3 11.65 10.4 Q11.45 10.4 11.45 10.9 12.55 10.9 14.55 12.2 14.15 12.5 14.05 13.5 14.1 13.35 14.7 13.75 14.35 13.55 14.45 14.0 L15.25 14.4 Q14.75 14.5 14.65 15.3 L15.45 15.9 15.15 16.0 Q15.35 16.0 15.75 16.4 L16.55 16.5 16.05 16.7 16.55 16.7 Q16.85 17.1 17.55 17.4 L17.45 17.7 17.45 17.9 17.75 18.4 18.45 18.6 Q18.15 18.7 18.05 18.9 L18.55 19.4 Q18.15 19.2 18.35 19.6 L18.55 19.7 Q18.25 19.7 18.35 19.9 L19.15 20.2 19.95 20.9 20.85 22.7 22.15 25.5 22.75 27.0 23.25 28.3 23.35 27.0 23.25 25.2 Q23.05 24.1 23.75 23.9 L24.15 23.9 Q25.15 24.2 25.85 24.9 25.75 25.0 25.95 25.5 L26.65 25.9 Q26.25 26.0 26.25 26.5 L26.75 26.8 26.75 27.0 Q28.25 27.7 29.45 28.6 L28.95 28.9 29.45 29.3 Q28.85 32.6 28.65 35.6 L28.65 35.8 28.65 37.6 22.65 37.2 13.75 20.8 13.85 22.2 14.15 24.5 14.25 25.6 15.15 30.6 16.35 35.4 16.75 37.7 11.45 37.6 0.55 1.2" fill="#ffff00" fill-rule="evenodd" stroke="none"/>
    <path d="M104.35 26.4 L101.35 26.3 100.25 26.1 99.35 25.9 Q96.15 24.9 95.95 22.2 95.75 20.1 96.05 18.7 95.95 17.4 96.25 14.9 L96.75 12.5 96.75 11.4 Q96.55 8.8 96.95 8.2 97.85 4.4 101.05 4.3 L104.05 4.2 105.95 4.3 Q100.35 4.35 99.05 10.0 L99.05 19.6 Q98.75 22.4 100.05 24.1 101.35 25.8 104.35 26.4 M97.05 28.5 L97.05 34.4 Q96.95 37.9 104.35 39.8 L99.65 39.8 98.85 39.6 97.85 39.5 Q95.55 38.6 94.95 37.2 L94.75 36.2 Q94.55 35.3 94.75 33.7 L95.05 31.0 95.25 28.5 97.05 28.5 M65.05 2.8 Q61.55 5.6 62.65 8.4 L64.15 22.0 Q64.25 23.2 66.05 24.0 68.35 24.9 73.65 25.1 L73.95 25.1 74.35 25.5 Q74.05 25.4 74.05 25.6 L74.25 25.9 67.85 25.7 66.65 25.5 65.65 25.3 Q63.15 24.6 62.25 23.3 61.65 22.5 61.55 21.6 61.05 19.4 61.15 17.8 L61.15 17.3 61.05 13.8 61.05 13.6 61.05 11.3 61.05 10.3 Q60.65 7.5 60.95 6.9 61.45 2.8 64.85 2.8 L65.05 2.8 M51.15 34.8 Q50.15 34.8 49.35 35.3 L49.05 35.5 49.45 35.7 Q49.15 35.7 49.15 35.9 L49.45 36.0 49.75 36.5 49.25 36.6 49.05 37.0 49.65 37.5 49.05 37.7 49.25 37.9 48.95 37.9 48.55 38.0 48.45 36.9 47.85 30.3 47.65 27.7 46.55 16.3 46.45 15.1 45.65 5.1 Q45.35 3.6 45.35 2.0 L51.15 34.8 M57.75 37.5 L57.95 39.8 55.15 39.8 52.65 39.8 50.45 39.8 50.25 38.7 Q50.15 38.5 50.35 38.6 50.15 38.3 50.25 38.2 50.35 38.0 50.85 37.9 50.85 37.6 51.55 37.5 L50.75 36.9 Q50.85 36.4 51.45 36.5 L51.35 36.1 57.75 37.5 M35.95 34.2 L35.25 33.8 Q35.25 33.7 35.55 33.7 L35.35 33.2 Q35.25 33.0 35.45 33.1 L35.25 32.7 35.25 32.5 34.15 31.9 33.45 31.5 33.35 31.2 33.15 30.0 33.15 28.6 Q32.65 26.5 32.45 24.2 L32.45 23.9 35.95 34.2 M63.45 28.2 L63.45 33.2 Q63.45 34.2 63.85 35.0 64.65 37.2 67.45 38.5 69.05 39.3 71.35 39.8 L67.55 39.8 66.95 39.7 66.65 39.6 65.65 39.5 Q64.15 38.9 63.35 38.3 62.15 37.3 61.95 36.1 61.65 35.1 61.55 33.3 L61.55 30.7 61.55 28.1 63.45 28.2 M28.65 37.6 L28.65 39.8 21.75 39.8 16.75 28.1 15.25 24.5 14.75 23.5 14.15 22.0 13.75 20.8 22.65 37.2 28.65 37.6 M16.75 37.7 L17.05 39.2 17.15 39.8 9.45 39.8 3.55 14.4 Q2.25 9.8 1.35 4.8 L0.55 1.6 0.55 1.2 11.45 37.6 16.75 37.7 M33.45 33.8 L33.85 34.2 34.25 34.6 35.35 34.9 34.85 35.2 35.55 35.4 Q35.25 35.4 35.25 35.5 L35.55 35.9 Q35.45 35.8 35.45 36.0 L35.85 36.4 36.25 36.5 Q35.95 36.5 35.95 36.8 L36.85 37.2 36.95 37.2 Q37.35 37.2 37.75 37.5 L38.95 37.9 39.65 37.9 Q40.05 37.9 40.35 38.2 40.25 39.1 40.45 39.8 L37.85 39.8 33.15 39.8 32.05 32.8 31.95 32.7 31.65 32.1 Q31.65 31.8 31.85 31.9 L32.55 32.1 Q33.35 32.5 33.55 33.7 33.35 33.7 33.45 33.8" fill="#eb9a05" fill-rule="evenodd" stroke="none"/>
  </g>
</svg>
