<?xml version="1.0" encoding="UTF-8" standalone="no"?>
<svg xmlns:xlink="http://www.w3.org/1999/xlink" height="76.9px" width="132.3px" xmlns="http://www.w3.org/2000/svg">
  <g transform="matrix(1.0, 0.0, 0.0, 1.0, -7.8, -23.95)">
    <path d="M139.1 90.1 L130.9 98.95 17.55 98.95 8.85 90.1 9.1 33.25 17.3 24.95 44.0 24.95 65.85 47.15 130.9 47.15 139.1 55.5 139.1 90.1" fill="#122369" fill-rule="evenodd" stroke="none"/>
    <path d="M130.9 24.25 L130.9 44.0 130.9 46.55 66.3 46.55 44.1 24.35 48.15 24.35 130.9 24.25" fill="url(#gradient0)" fill-rule="evenodd" stroke="none"/>
    <path d="M130.9 44.0 L130.9 46.55 66.3 46.55 44.1 24.35 48.15 24.35 67.8 44.0 130.9 44.0" fill="url(#gradient1)" fill-rule="evenodd" stroke="none"/>
    <path d="M135.1 88.8 L135.1 88.6 135.25 88.5 135.1 88.8 M129.25 94.95 L129.45 94.95 129.1 95.15 129.25 94.95 M135.6 57.0 L129.5 50.65 65.85 50.65 Q64.6 50.65 63.75 49.95 L63.4 50.1 63.05 49.95 63.0 49.9 62.85 49.55 Q62.85 49.35 63.0 49.2 L42.6 28.45 18.75 28.45 12.6 34.7 12.35 88.7 19.0 95.45 129.45 95.45 135.6 88.8 135.6 57.0 M129.3 51.15 L129.15 51.0 129.5 51.15 129.3 51.15 M135.1 57.2 L135.1 57.0 135.25 57.35 135.1 57.2 M130.9 98.95 L17.55 98.95 8.85 90.1 9.1 33.25 17.3 24.95 44.0 24.95 65.85 47.15 130.9 47.15 139.1 55.5 139.1 90.1 130.9 98.95 M19.2 94.95 L19.35 95.1 19.0 94.95 19.2 94.95 M12.85 88.5 L12.85 88.7 12.7 88.35 12.85 88.5 M13.1 34.9 L12.95 35.05 13.1 34.7 13.1 34.9 M18.95 28.95 L18.75 28.95 19.1 28.8 18.95 28.95 M42.25 28.8 L42.6 28.95 42.4 28.95 42.25 28.8" fill="#010101" fill-rule="evenodd" stroke="none"/>
    <path d="M139.1 90.1 L130.9 98.95 17.55 98.95 8.85 90.1 9.1 33.25 17.3 24.95 44.0 24.95 65.85 47.15 130.9 47.15 139.1 55.5 139.1 90.1 Z" fill="none" stroke="url(#gradient2)" stroke-linecap="butt" stroke-linejoin="miter-clip" stroke-miterlimit="3.0" stroke-width="2.0"/>
    <path d="M17.3 24.95 L44.0 24.95 65.85 47.15" fill="none" stroke="url(#gradient3)" stroke-linecap="butt" stroke-linejoin="miter-clip" stroke-miterlimit="3.0" stroke-width="2.0"/>
    <path d="M114.35 47.15 L130.9 47.15 139.1 55.5" fill="none" stroke="url(#gradient4)" stroke-linecap="butt" stroke-linejoin="miter-clip" stroke-miterlimit="3.0" stroke-width="2.0"/>
    <path d="M130.9 100.25 L17.55 100.25" fill="none" stroke="url(#gradient5)" stroke-linecap="butt" stroke-linejoin="miter-clip" stroke-miterlimit="3.0" stroke-width="1.2000000000000002"/>
  </g>
  <defs>
    <linearGradient gradientTransform="matrix(0.0447, 0.0, 0.0, 0.0156, 99.35, -19.0)" gradientUnits="userSpaceOnUse" id="gradient0" spreadMethod="pad" x1="-819.2" x2="819.2">
      <stop offset="0.00392156862745098" stop-color="#6ac4e2"/>
      <stop offset="0.3803921568627451" stop-color="#6aa3e2"/>
      <stop offset="0.9411764705882353" stop-color="#6aa3e2" stop-opacity="0.0"/>
    </linearGradient>
    <linearGradient gradientTransform="matrix(0.053, 0.0, 0.0, 0.0135, 87.5, 35.45)" gradientUnits="userSpaceOnUse" id="gradient1" spreadMethod="pad" x1="-819.2" x2="819.2">
      <stop offset="0.00392156862745098" stop-color="#1f7e9e"/>
      <stop offset="0.3803921568627451" stop-color="#2877ce"/>
      <stop offset="0.9411764705882353" stop-color="#6aa3e2" stop-opacity="0.0"/>
    </linearGradient>
    <linearGradient gradientTransform="matrix(0.0, 0.0452, -0.0461, 0.0, 73.95, 61.95)" gradientUnits="userSpaceOnUse" id="gradient2" spreadMethod="pad" x1="-819.2" x2="819.2">
      <stop offset="0.0" stop-color="#407cc2"/>
      <stop offset="1.0" stop-color="#1a4986"/>
    </linearGradient>
    <linearGradient gradientTransform="matrix(0.0219, 0.0098, -0.0059, 0.0132, 39.5, 35.45)" gradientUnits="userSpaceOnUse" id="gradient3" spreadMethod="pad" x1="-819.2" x2="819.2">
      <stop offset="0.0" stop-color="#3f7bc1" stop-opacity="0.0"/>
      <stop offset="0.5019607843137255" stop-color="#d7ffff"/>
      <stop offset="1.0" stop-color="#346cb0" stop-opacity="0.0"/>
    </linearGradient>
    <linearGradient gradientTransform="matrix(0.0085, 0.0023, -0.0016, 0.0058, 129.15, 52.3)" gradientUnits="userSpaceOnUse" id="gradient4" spreadMethod="pad" x1="-819.2" x2="819.2">
      <stop offset="0.0" stop-color="#3f7bc1" stop-opacity="0.0"/>
      <stop offset="0.5019607843137255" stop-color="#d7ffff"/>
      <stop offset="1.0" stop-color="#346cb0" stop-opacity="0.0"/>
    </linearGradient>
    <linearGradient gradientTransform="matrix(0.0706, 0.0, 0.0, 9.0E-4, 72.2, 99.55)" gradientUnits="userSpaceOnUse" id="gradient5" spreadMethod="pad" x1="-819.2" x2="819.2">
      <stop offset="0.0" stop-color="#194885" stop-opacity="0.078431375"/>
      <stop offset="0.5254901960784314" stop-color="#66ffff"/>
      <stop offset="1.0" stop-color="#1a4986" stop-opacity="0.0"/>
    </linearGradient>
  </defs>
</svg>
