<?xml version="1.0" encoding="UTF-8" standalone="no"?>
<svg xmlns:xlink="http://www.w3.org/1999/xlink" height="40.75px" width="69.2px" xmlns="http://www.w3.org/2000/svg">
  <g transform="matrix(1.0, 0.0, 0.0, 1.0, 0.0, 0.0)">
    <path d="M64.2 0.0 Q69.2 0.0 69.2 5.0 L69.2 12.2 Q69.2 17.2 64.2 17.2 L5.0 17.2 Q0.0 17.2 0.0 12.2 L0.0 5.0 Q0.0 0.0 5.0 0.0 L64.2 0.0" fill="url(#gradient0)" fill-rule="evenodd" stroke="none"/>
    <path d="M64.2 22.5 Q69.2 22.5 69.2 27.5 L69.2 34.7 Q69.2 39.7 64.2 39.7 L5.0 39.7 Q0.0 39.7 0.0 34.7 L0.0 27.5 Q0.0 22.5 5.0 22.5 L64.2 22.5" fill="url(#gradient1)" fill-rule="evenodd" stroke="none"/>
    <path d="M4.55 17.75 L63.4 17.75" fill="none" stroke="url(#gradient2)" stroke-linecap="butt" stroke-linejoin="miter-clip" stroke-miterlimit="3.0" stroke-width="1.2000000000000002"/>
    <path d="M4.55 40.15 L63.4 40.15" fill="none" stroke="url(#gradient3)" stroke-linecap="butt" stroke-linejoin="miter-clip" stroke-miterlimit="3.0" stroke-width="1.2000000000000002"/>
  </g>
  <defs>
    <linearGradient gradientTransform="matrix(0.0, -0.0095, 0.0105, 0.0, 38.1, 8.6)" gradientUnits="userSpaceOnUse" id="gradient0" spreadMethod="pad" x1="-819.2" x2="819.2">
      <stop offset="0.0" stop-color="#1b5ad1" stop-opacity="0.6"/>
      <stop offset="1.0" stop-color="#122369" stop-opacity="0.3019608"/>
    </linearGradient>
    <linearGradient gradientTransform="matrix(0.0, -0.0095, 0.0105, 0.0, 38.1, 31.1)" gradientUnits="userSpaceOnUse" id="gradient1" spreadMethod="pad" x1="-819.2" x2="819.2">
      <stop offset="0.0" stop-color="#1b5ad1" stop-opacity="0.6"/>
      <stop offset="1.0" stop-color="#122369" stop-opacity="0.3019608"/>
    </linearGradient>
    <linearGradient gradientTransform="matrix(0.0367, 0.0, 0.0, 7.0E-4, 33.95, 17.75)" gradientUnits="userSpaceOnUse" id="gradient2" spreadMethod="pad" x1="-819.2" x2="819.2">
      <stop offset="0.0" stop-color="#194885" stop-opacity="0.078431375"/>
      <stop offset="0.5254901960784314" stop-color="#66ffff"/>
      <stop offset="1.0" stop-color="#1a4986" stop-opacity="0.0"/>
    </linearGradient>
    <linearGradient gradientTransform="matrix(0.0367, 0.0, 0.0, 7.0E-4, 33.95, 40.15)" gradientUnits="userSpaceOnUse" id="gradient3" spreadMethod="pad" x1="-819.2" x2="819.2">
      <stop offset="0.0" stop-color="#194885" stop-opacity="0.078431375"/>
      <stop offset="0.5254901960784314" stop-color="#66ffff"/>
      <stop offset="1.0" stop-color="#1a4986" stop-opacity="0.0"/>
    </linearGradient>
  </defs>
</svg>
