<?xml version="1.0" encoding="UTF-8" standalone="no"?>
<svg xmlns:xlink="http://www.w3.org/1999/xlink" height="18.0px" width="660.0px" xmlns="http://www.w3.org/2000/svg">
  <g transform="matrix(1.0, 0.0, 0.0, 1.0, 660.0, 0.0)">
    <path d="M0.0 5.85 L0.0 18.0 -650.0 18.0 -656.8 5.85 -622.0 5.85 -576.75 5.85 -462.9 5.85 0.0 5.85" fill="#ca0517" fill-rule="evenodd" stroke="none"/>
    <path d="M-462.9 0.0 L0.0 0.0 0.0 5.85 -462.9 5.85 -462.9 0.0" fill="url(#gradient0)" fill-rule="evenodd" stroke="none"/>
    <path d="M-576.75 0.0 L-462.9 0.0 -462.9 5.85 -576.75 5.85 -576.75 0.0" fill="url(#gradient1)" fill-rule="evenodd" stroke="none"/>
    <path d="M-622.0 0.0 L-576.75 0.0 -576.75 5.85 -622.0 5.85 -622.0 0.0" fill="url(#gradient2)" fill-rule="evenodd" stroke="none"/>
    <path d="M-656.8 5.85 L-660.0 0.0 -622.0 0.0 -622.0 5.85 -656.8 5.85" fill="url(#gradient3)" fill-rule="evenodd" stroke="none"/>
  </g>
  <defs>
    <linearGradient gradientTransform="matrix(0.0, -0.0026, -0.4083, 0.0, -334.5, 3.25)" gradientUnits="userSpaceOnUse" id="gradient0" spreadMethod="pad" x1="-819.2" x2="819.2">
      <stop offset="0.0" stop-color="#ca0517"/>
      <stop offset="1.0" stop-color="#ff5f23"/>
    </linearGradient>
    <linearGradient gradientTransform="matrix(0.0, -0.0026, -0.853, 0.0, -194.75, 3.25)" gradientUnits="userSpaceOnUse" id="gradient1" spreadMethod="pad" x1="-819.2" x2="819.2">
      <stop offset="0.0" stop-color="#ca0517"/>
      <stop offset="1.0" stop-color="#ff5f23"/>
    </linearGradient>
    <linearGradient gradientTransform="matrix(0.0, -0.0026, -0.4083, 0.0, -393.85, 3.25)" gradientUnits="userSpaceOnUse" id="gradient2" spreadMethod="pad" x1="-819.2" x2="819.2">
      <stop offset="0.0" stop-color="#ca0517"/>
      <stop offset="1.0" stop-color="#ff5f23"/>
    </linearGradient>
    <linearGradient gradientTransform="matrix(0.0, -0.0026, -0.1458, 0.0, -540.5, 3.25)" gradientUnits="userSpaceOnUse" id="gradient3" spreadMethod="pad" x1="-819.2" x2="819.2">
      <stop offset="0.0" stop-color="#ca0517"/>
      <stop offset="1.0" stop-color="#ff5f23"/>
    </linearGradient>
  </defs>
</svg>
