<?xml version="1.0" encoding="UTF-8" standalone="no"?>
<svg xmlns:xlink="http://www.w3.org/1999/xlink" height="76.4px" width="52.15px" xmlns="http://www.w3.org/2000/svg">
  <g transform="matrix(1.0, 0.0, 0.0, 1.0, 0.25, 0.25)">
    <path d="M51.1 30.8 L51.15 30.35 50.9 29.95 Q25.2 9.85 1.95 30.0 L1.75 30.4 1.75 30.8 2.05 31.2 2.45 31.3 17.5 31.3 Q17.6 33.8 19.05 35.75 L12.3 41.25 12.15 41.5 12.15 41.85 15.3 51.1 12.3 54.95 5.4 54.3 5.1 54.4 4.85 54.6 0.15 62.15 Q0.0 62.35 0.0 62.6 L0.25 62.95 0.65 63.05 9.55 62.75 9.85 62.65 10.05 62.4 12.9 56.05 16.35 51.55 16.5 51.3 16.45 51.0 13.35 41.85 19.8 36.65 20.0 36.85 Q22.35 39.25 25.6 39.4 L25.6 46.55 21.1 48.15 25.6 51.3 25.6 57.35 20.15 64.85 20.05 65.15 20.15 65.45 25.6 75.6 25.9 75.85 26.3 75.85 26.55 75.6 32.0 65.45 32.05 65.15 32.0 64.9 26.75 57.35 26.75 51.3 31.4 48.15 26.75 46.55 26.75 39.4 Q29.95 39.25 32.25 36.85 L32.65 36.5 39.25 41.85 35.2 51.6 35.2 51.9 35.35 52.15 38.75 55.9 41.65 62.4 41.85 62.65 42.15 62.75 51.05 63.05 51.45 62.95 51.65 62.6 51.55 62.15 46.85 54.6 46.6 54.4 46.3 54.3 39.4 54.95 36.45 51.65 40.5 41.9 40.5 41.55 40.35 41.25 33.35 35.6 Q34.65 33.7 34.8 31.3 L50.4 31.3 50.85 31.15 51.1 30.8 M28.35 4.0 Q27.65 4.75 26.65 4.75 25.7 4.75 25.0 4.0 24.3 3.35 24.3 2.35 24.3 1.35 25.0 0.65 25.7 0.0 26.65 0.0 27.65 0.0 28.35 0.65 29.05 1.35 29.05 2.35 29.05 3.35 28.35 4.0 M29.2 11.3 Q30.3 12.4 30.3 13.95 30.3 15.5 29.2 16.55 28.15 17.65 26.6 17.65 25.05 17.65 23.95 16.55 22.9 15.5 22.9 13.95 22.9 12.4 23.95 11.3 25.05 10.25 26.6 10.25 28.15 10.25 29.2 11.3 M20.0 35.05 L23.2 32.45 23.3 32.35 Q23.0 31.45 23.0 30.5 23.0 29.55 24.1 27.4 25.15 25.2 26.05 25.25 26.9 25.25 28.0 27.35 29.1 29.45 29.15 30.4 L28.9 32.05 29.1 32.15 32.45 34.9 Q33.65 33.05 33.65 30.75 33.65 27.6 31.45 25.45 29.25 23.25 26.1 23.25 23.0 23.25 20.8 25.45 18.6 27.6 18.6 30.75 18.6 33.15 20.0 35.05 M31.45 36.05 Q29.25 38.3 26.15 38.3 L26.1 38.3 Q23.0 38.3 20.8 36.05 L20.65 35.9 23.75 33.45 24.0 33.85 Q24.95 35.65 25.75 36.25 26.55 36.85 27.8 34.5 L28.5 33.15 31.75 35.75 31.45 36.05 Z" fill="none" stroke="#00ffff" stroke-linecap="round" stroke-linejoin="round" stroke-width="0.5"/>
  </g>
</svg>
