<?xml version="1.0" encoding="UTF-8" standalone="no"?>
<svg xmlns:xlink="http://www.w3.org/1999/xlink" height="44.75px" width="44.75px" xmlns="http://www.w3.org/2000/svg">
  <g transform="matrix(1.0, 0.0, 0.0, 1.0, 9.85, 9.4)">
    <path d="M20.25 9.65 L16.85 9.65 16.85 6.3 Q16.85 4.5 15.05 4.5 L11.45 4.5 Q9.65 4.5 9.65 6.3 L9.65 9.65 6.25 9.65 Q4.45 9.65 4.45 11.45 L4.45 15.05 Q4.45 16.85 6.25 16.85 L9.65 16.85 9.65 20.25 Q9.65 22.05 11.45 22.05 L15.05 22.05 Q16.85 22.05 16.85 20.25 L16.85 16.85 20.25 16.85 Q22.05 16.85 22.05 15.05 L22.05 11.45 Q22.05 9.65 20.25 9.65 M21.2 9.15 Q23.25 9.15 23.25 11.2 L23.25 15.3 Q23.25 17.35 21.2 17.35 L17.35 17.35 17.35 21.25 Q17.35 23.25 15.3 23.25 L11.2 23.25 Q9.2 23.25 9.2 21.25 L9.2 17.35 5.3 17.35 Q3.25 17.35 3.25 15.3 L3.25 11.2 Q3.25 9.15 5.3 9.15 L9.2 9.15 9.2 5.3 Q9.2 3.25 11.2 3.25 L15.3 3.25 Q17.35 3.25 17.35 5.3 L17.35 9.15 21.2 9.15" fill="#b7ff6f" fill-rule="evenodd" stroke="none"/>
    <path d="M22.75 8.4 Q25.15 8.4 25.15 10.8 L25.15 15.7 Q25.15 18.1 22.75 18.1 L18.1 18.1 18.1 22.75 Q18.1 25.15 15.7 25.15 L10.85 25.15 Q8.4 25.15 8.4 22.75 L8.4 18.1 3.8 18.1 Q1.35 18.1 1.35 15.7 L1.35 10.8 Q1.35 8.4 3.8 8.4 L8.4 8.4 8.4 3.75 Q8.4 1.35 10.85 1.35 L15.7 1.35 Q18.1 1.35 18.1 3.75 L18.1 8.4 22.75 8.4 M21.2 9.15 L17.35 9.15 17.35 5.3 Q17.35 3.25 15.3 3.25 L11.2 3.25 Q9.2 3.25 9.2 5.3 L9.2 9.15 5.3 9.15 Q3.25 9.15 3.25 11.2 L3.25 15.3 Q3.25 17.35 5.3 17.35 L9.2 17.35 9.2 21.25 Q9.2 23.25 11.2 23.25 L15.3 23.25 Q17.35 23.25 17.35 21.25 L17.35 17.35 21.2 17.35 Q23.25 17.35 23.25 15.3 L23.25 11.2 Q23.25 9.15 21.2 9.15" fill="#00ff00" fill-rule="evenodd" stroke="none"/>
    <path d="M23.8 7.85 Q26.5 7.85 26.5 10.55 L26.5 15.95 Q26.5 18.7 23.8 18.7 L18.65 18.7 18.65 23.8 Q18.65 26.5 15.95 26.5 L10.55 26.5 Q7.85 26.5 7.85 23.8 L7.85 18.7 2.7 18.7 Q0.0 18.7 0.0 15.95 L0.0 10.55 Q0.0 7.85 2.7 7.85 L7.85 7.85 7.85 2.7 Q7.85 0.0 10.55 0.0 L15.95 0.0 Q18.65 0.0 18.65 2.7 L18.65 7.85 23.8 7.85 M22.75 8.4 L18.1 8.4 18.1 3.75 Q18.1 1.35 15.7 1.35 L10.85 1.35 Q8.4 1.35 8.4 3.75 L8.4 8.4 3.8 8.4 Q1.35 8.4 1.35 10.8 L1.35 15.7 Q1.35 18.1 3.8 18.1 L8.4 18.1 8.4 22.75 Q8.4 25.15 10.85 25.15 L15.7 25.15 Q18.1 25.15 18.1 22.75 L18.1 18.1 22.75 18.1 Q25.15 18.1 25.15 15.7 L25.15 10.8 Q25.15 8.4 22.75 8.4" fill="#89fe9f" fill-rule="evenodd" stroke="none"/>
    <path d="M20.25 9.65 Q22.05 9.65 22.05 11.45 L22.05 15.05 Q22.05 16.85 20.25 16.85 L16.85 16.85 16.85 20.25 Q16.85 22.05 15.05 22.05 L11.45 22.05 Q9.65 22.05 9.65 20.25 L9.65 16.85 6.25 16.85 Q4.45 16.85 4.45 15.05 L4.45 11.45 Q4.45 9.65 6.25 9.65 L9.65 9.65 9.65 6.3 Q9.65 4.5 11.45 4.5 L15.05 4.5 Q16.85 4.5 16.85 6.3 L16.85 9.65 20.25 9.65" fill="#8cfd1c" fill-rule="evenodd" stroke="none"/>
    <path d="M28.3 -2.85 Q34.9 3.75 34.9 13.0 34.9 22.25 28.3 28.8 21.75 35.35 12.5 35.35 3.25 35.35 -3.3 28.8 -9.85 22.25 -9.85 13.0 -9.85 3.75 -3.3 -2.85 3.25 -9.4 12.5 -9.4 21.75 -9.4 28.3 -2.85" fill="url(#gradient0)" fill-rule="evenodd" stroke="none"/>
  </g>
  <defs>
    <radialGradient cx="0" cy="0" gradientTransform="matrix(0.0278, 0.0, 0.0, 0.0278, 12.5, 12.95)" gradientUnits="userSpaceOnUse" id="gradient0" r="819.2" spreadMethod="pad">
      <stop offset="0.0" stop-color="#ffffff" stop-opacity="0.5137255"/>
      <stop offset="1.0" stop-color="#00ff00" stop-opacity="0.0"/>
    </radialGradient>
  </defs>
</svg>
