<?xml version="1.0" encoding="UTF-8" standalone="no"?>
<svg xmlns:xlink="http://www.w3.org/1999/xlink" height="74.5px" width="4.1px" xmlns="http://www.w3.org/2000/svg">
  <g transform="matrix(1.0, 0.0, 0.0, 1.0, 0.0, 0.0)">
    <path d="M3.5 2.4 Q4.1 4.85 4.1 8.25 4.1 11.65 3.5 14.1 2.9 16.5 2.05 16.5 1.2 16.5 0.6 14.1 0.0 11.65 0.0 8.25 0.0 4.85 0.6 2.4 1.2 0.0 2.05 0.0 2.9 0.0 3.5 2.4" fill="url(#gradient0)" fill-rule="evenodd" stroke="none"/>
    <path d="M2.05 19.5 Q2.9 19.5 3.5 22.4 3.6 22.95 3.7 22.45 3.85 34.9 3.5 36.6 2.9 39.5 2.05 39.5 1.2 39.5 0.6 36.6 0.0 33.6 0.0 29.5 0.0 25.35 0.6 22.4 1.2 19.5 2.05 19.5" fill="url(#gradient1)" fill-rule="evenodd" stroke="none"/>
    <path d="M2.05 42.5 Q2.9 42.5 3.5 47.15 4.1 51.9 4.1 58.5 4.1 65.1 3.5 69.85 2.9 74.5 2.05 74.5 1.2 74.5 0.6 69.85 0.0 65.1 0.0 58.5 0.0 51.9 0.6 47.15 1.2 42.5 2.05 42.5" fill="url(#gradient2)" fill-rule="evenodd" stroke="none"/>
  </g>
  <defs>
    <radialGradient cx="0" cy="0" gradientTransform="matrix(0.0017, 0.0, 0.0, 0.0101, 2.05, 8.25)" gradientUnits="userSpaceOnUse" id="gradient0" r="819.2" spreadMethod="pad">
      <stop offset="0.0" stop-color="#99ff00"/>
      <stop offset="1.0" stop-color="#00ff00" stop-opacity="0.0"/>
    </radialGradient>
    <radialGradient cx="0" cy="0" gradientTransform="matrix(0.0017, 0.0, 0.0, 0.0122, 2.05, 29.5)" gradientUnits="userSpaceOnUse" id="gradient1" r="819.2" spreadMethod="pad">
      <stop offset="0.0" stop-color="#99ff00"/>
      <stop offset="1.0" stop-color="#00ff00" stop-opacity="0.0"/>
    </radialGradient>
    <radialGradient cx="0" cy="0" gradientTransform="matrix(0.0017, 0.0, 0.0, 0.0195, 2.05, 58.5)" gradientUnits="userSpaceOnUse" id="gradient2" r="819.2" spreadMethod="pad">
      <stop offset="0.0" stop-color="#99ff00"/>
      <stop offset="1.0" stop-color="#00ff00" stop-opacity="0.0"/>
    </radialGradient>
  </defs>
</svg>
