<?xml version="1.0" encoding="UTF-8" standalone="no"?>
<svg xmlns:xlink="http://www.w3.org/1999/xlink" height="15.5px" width="35.55px" xmlns="http://www.w3.org/2000/svg">
  <g transform="matrix(1.0, 0.0, 0.0, 1.0, -7.5, -17.85)">
    <path d="M23.9 20.1 L25.55 20.1 24.15 22.55 Q23.6 23.3 22.7 23.3 L22.05 23.3 21.8 23.85 23.25 23.85 23.1 25.5 Q23.05 25.8 23.25 25.8 L23.6 25.8 23.05 27.35 22.05 27.35 Q21.3 27.35 21.45 26.5 L21.55 24.7 20.5 27.65 Q20.4 28.05 20.8 28.05 L22.95 28.05 22.4 29.55 19.9 29.55 Q18.3 29.55 18.85 28.05 L21.6 19.7 23.25 19.7 22.5 21.85 22.7 21.85 23.05 21.6 23.9 20.1 M29.35 23.85 L30.2 23.85 30.7 23.35 31.4 21.15 30.3 21.15 29.35 23.85 M34.6 19.6 L36.45 19.6 36.2 20.05 40.65 20.05 38.0 27.8 Q37.65 29.1 36.15 29.1 L35.4 29.1 35.85 27.65 36.0 27.65 Q36.3 27.65 36.5 27.3 L38.5 21.55 35.2 21.55 35.2 21.7 Q34.75 22.3 33.9 22.3 L32.85 22.3 33.35 20.9 33.75 20.9 34.05 20.65 34.6 19.6 M34.25 24.05 L33.1 27.35 33.85 27.35 Q34.15 27.35 34.2 27.05 L35.2 24.05 34.25 24.05 M31.95 24.05 Q31.6 25.2 30.7 25.3 L30.2 26.6 31.05 26.6 30.55 28.15 29.7 28.15 29.05 30.1 30.1 30.1 29.55 31.6 25.7 31.6 Q24.9 31.6 25.1 30.75 L26.7 26.15 28.2 26.15 27.0 29.85 Q26.85 30.1 27.1 30.1 L27.4 30.1 29.05 25.3 27.3 25.3 29.25 19.7 33.55 19.7 31.95 24.05 M37.4 22.65 L35.6 27.85 Q35.2 28.9 34.15 28.9 L32.55 28.9 32.3 29.85 32.5 29.95 37.4 29.95 36.85 31.6 31.15 31.6 Q29.95 31.6 30.3 30.45 L33.05 22.65 37.4 22.65 M15.1 23.0 L12.9 29.35 Q12.65 30.1 13.85 30.1 L22.4 30.1 21.9 31.6 13.15 31.6 Q12.3 31.6 11.95 31.05 11.5 31.6 10.85 31.6 L9.95 31.6 10.4 30.1 10.65 30.1 Q11.0 30.1 11.15 29.75 L12.9 24.6 12.3 24.6 12.85 23.0 15.1 23.0 M14.45 19.6 L16.3 19.6 15.5 22.1 13.6 22.1 14.45 19.6 M18.35 21.6 Q18.3 21.85 18.4 21.85 L19.2 19.7 20.9 19.7 18.0 28.15 17.25 29.2 16.15 29.55 13.5 29.55 14.0 28.05 16.1 28.05 16.65 27.3 17.7 24.2 16.4 26.5 Q15.9 27.35 15.1 27.35 L14.1 27.35 14.6 26.0 15.0 26.0 15.3 25.6 16.2 23.9 17.75 23.9 18.0 23.3 17.3 23.3 Q16.65 23.3 16.65 22.55 L16.75 20.1 18.4 20.1 18.35 21.6" fill="url(#gradient0)" fill-rule="evenodd" stroke="none"/>
    <path d="M23.9 20.1 L25.55 20.1 24.15 22.55 Q23.6 23.3 22.7 23.3 L22.05 23.3 21.8 23.85 23.25 23.85 23.1 25.5 Q23.05 25.8 23.25 25.8 L23.6 25.8 23.05 27.35 22.05 27.35 Q21.3 27.35 21.45 26.5 L21.55 24.7 20.5 27.65 Q20.4 28.05 20.8 28.05 L22.95 28.05 22.4 29.55 19.9 29.55 Q18.3 29.55 18.85 28.05 L21.6 19.7 23.25 19.7 22.5 21.85 22.7 21.85 23.05 21.6 23.9 20.1 M29.35 23.85 L30.2 23.85 30.7 23.35 31.4 21.15 30.3 21.15 29.35 23.85 M34.6 19.6 L36.45 19.6 36.2 20.05 40.65 20.05 38.0 27.8 Q37.65 29.1 36.15 29.1 L35.4 29.1 35.85 27.65 36.0 27.65 Q36.3 27.65 36.5 27.3 L38.5 21.55 35.2 21.55 35.2 21.7 Q34.75 22.3 33.9 22.3 L32.85 22.3 33.35 20.9 33.75 20.9 34.05 20.65 34.6 19.6 M34.25 24.05 L33.1 27.35 33.85 27.35 Q34.15 27.35 34.2 27.05 L35.2 24.05 34.25 24.05 M31.95 24.05 Q31.6 25.2 30.7 25.3 L30.2 26.6 31.05 26.6 30.55 28.15 29.7 28.15 29.05 30.1 30.1 30.1 29.55 31.6 25.7 31.6 Q24.9 31.6 25.1 30.75 L26.7 26.15 28.2 26.15 27.0 29.85 Q26.85 30.1 27.1 30.1 L27.4 30.1 29.05 25.3 27.3 25.3 29.25 19.7 33.55 19.7 31.95 24.05 M37.4 22.65 L35.6 27.85 Q35.2 28.9 34.15 28.9 L32.55 28.9 32.3 29.85 32.5 29.95 37.4 29.95 36.85 31.6 31.15 31.6 Q29.95 31.6 30.3 30.45 L33.05 22.65 37.4 22.65 M15.1 23.0 L12.9 29.35 Q12.65 30.1 13.85 30.1 L22.4 30.1 21.9 31.6 13.15 31.6 Q12.3 31.6 11.95 31.05 11.5 31.6 10.85 31.6 L9.95 31.6 10.4 30.1 10.65 30.1 Q11.0 30.1 11.15 29.75 L12.9 24.6 12.3 24.6 12.85 23.0 15.1 23.0 M14.45 19.6 L16.3 19.6 15.5 22.1 13.6 22.1 14.45 19.6 M18.35 21.6 Q18.3 21.85 18.4 21.85 L19.2 19.7 20.9 19.7 18.0 28.15 17.25 29.2 16.15 29.55 13.5 29.55 14.0 28.05 16.1 28.05 16.65 27.3 17.7 24.2 16.4 26.5 Q15.9 27.35 15.1 27.35 L14.1 27.35 14.6 26.0 15.0 26.0 15.3 25.6 16.2 23.9 17.75 23.9 18.0 23.3 17.3 23.3 Q16.65 23.3 16.65 22.55 L16.75 20.1 18.4 20.1 18.35 21.6 Z" fill="none" stroke="#660000" stroke-linecap="butt" stroke-linejoin="miter-clip" stroke-miterlimit="3.0" stroke-width="3.5"/>
    <path d="M23.9 20.1 L25.55 20.1 24.15 22.55 Q23.6 23.3 22.7 23.3 L22.05 23.3 21.8 23.85 23.25 23.85 23.1 25.5 Q23.05 25.8 23.25 25.8 L23.6 25.8 23.05 27.35 22.05 27.35 Q21.3 27.35 21.45 26.5 L21.55 24.7 20.5 27.65 Q20.4 28.05 20.8 28.05 L22.95 28.05 22.4 29.55 19.9 29.55 Q18.3 29.55 18.85 28.05 L21.6 19.7 23.25 19.7 22.5 21.85 22.7 21.85 23.05 21.6 23.9 20.1 M29.35 23.85 L30.2 23.85 30.7 23.35 31.4 21.15 30.3 21.15 29.35 23.85 M34.6 19.6 L36.45 19.6 36.2 20.05 40.65 20.05 38.0 27.8 Q37.65 29.1 36.15 29.1 L35.4 29.1 35.85 27.65 36.0 27.65 Q36.3 27.65 36.5 27.3 L38.5 21.55 35.2 21.55 35.2 21.7 Q34.75 22.3 33.9 22.3 L32.85 22.3 33.35 20.9 33.75 20.9 34.05 20.65 34.6 19.6 M34.25 24.05 L33.1 27.35 33.85 27.35 Q34.15 27.35 34.2 27.05 L35.2 24.05 34.25 24.05 M31.95 24.05 Q31.6 25.2 30.7 25.3 L30.2 26.6 31.05 26.6 30.55 28.15 29.7 28.15 29.05 30.1 30.1 30.1 29.55 31.6 25.7 31.6 Q24.9 31.6 25.1 30.75 L26.7 26.15 28.2 26.15 27.0 29.85 Q26.85 30.1 27.1 30.1 L27.4 30.1 29.05 25.3 27.3 25.3 29.25 19.7 33.55 19.7 31.95 24.05 M37.4 22.65 L35.6 27.85 Q35.2 28.9 34.15 28.9 L32.55 28.9 32.3 29.85 32.5 29.95 37.4 29.95 36.85 31.6 31.15 31.6 Q29.95 31.6 30.3 30.45 L33.05 22.65 37.4 22.65 M15.1 23.0 L12.9 29.35 Q12.65 30.1 13.85 30.1 L22.4 30.1 21.9 31.6 13.15 31.6 Q12.3 31.6 11.95 31.05 11.5 31.6 10.85 31.6 L9.95 31.6 10.4 30.1 10.65 30.1 Q11.0 30.1 11.15 29.75 L12.9 24.6 12.3 24.6 12.85 23.0 15.1 23.0 M14.45 19.6 L16.3 19.6 15.5 22.1 13.6 22.1 14.45 19.6 M18.35 21.6 Q18.3 21.85 18.4 21.85 L19.2 19.7 20.9 19.7 18.0 28.15 17.25 29.2 16.15 29.55 13.5 29.55 14.0 28.05 16.1 28.05 16.65 27.3 17.7 24.2 16.4 26.5 Q15.9 27.35 15.1 27.35 L14.1 27.35 14.6 26.0 15.0 26.0 15.3 25.6 16.2 23.9 17.75 23.9 18.0 23.3 17.3 23.3 Q16.65 23.3 16.65 22.55 L16.75 20.1 18.4 20.1 18.35 21.6" fill="url(#gradient1)" fill-rule="evenodd" stroke="none"/>
    <path d="M23.9 20.1 L25.55 20.1 24.15 22.55 Q23.6 23.3 22.7 23.3 L22.05 23.3 21.8 23.85 23.25 23.85 23.1 25.5 Q23.05 25.8 23.25 25.8 L23.6 25.8 23.05 27.35 22.05 27.35 Q21.3 27.35 21.45 26.5 L21.55 24.7 20.5 27.65 Q20.4 28.05 20.8 28.05 L22.95 28.05 22.4 29.55 19.9 29.55 Q18.3 29.55 18.85 28.05 L21.6 19.7 23.25 19.7 22.5 21.85 22.7 21.85 23.05 21.6 23.9 20.1 M29.35 23.85 L30.2 23.85 30.7 23.35 31.4 21.15 30.3 21.15 29.35 23.85 M34.6 19.6 L36.45 19.6 36.2 20.05 40.65 20.05 38.0 27.8 Q37.65 29.1 36.15 29.1 L35.4 29.1 35.85 27.65 36.0 27.65 Q36.3 27.65 36.5 27.3 L38.5 21.55 35.2 21.55 35.2 21.7 Q34.75 22.3 33.9 22.3 L32.85 22.3 33.35 20.9 33.75 20.9 34.05 20.65 34.6 19.6 M34.25 24.05 L33.1 27.35 33.85 27.35 Q34.15 27.35 34.2 27.05 L35.2 24.05 34.25 24.05 M31.95 24.05 Q31.6 25.2 30.7 25.3 L30.2 26.6 31.05 26.6 30.55 28.15 29.7 28.15 29.05 30.1 30.1 30.1 29.55 31.6 25.7 31.6 Q24.9 31.6 25.1 30.75 L26.7 26.15 28.2 26.15 27.0 29.85 Q26.85 30.1 27.1 30.1 L27.4 30.1 29.05 25.3 27.3 25.3 29.25 19.7 33.55 19.7 31.95 24.05 M37.4 22.65 L35.6 27.85 Q35.2 28.9 34.15 28.9 L32.55 28.9 32.3 29.85 32.5 29.95 37.4 29.95 36.85 31.6 31.15 31.6 Q29.95 31.6 30.3 30.45 L33.05 22.65 37.4 22.65 M15.1 23.0 L12.9 29.35 Q12.65 30.1 13.85 30.1 L22.4 30.1 21.9 31.6 13.15 31.6 Q12.3 31.6 11.95 31.05 11.5 31.6 10.85 31.6 L9.95 31.6 10.4 30.1 10.65 30.1 Q11.0 30.1 11.15 29.75 L12.9 24.6 12.3 24.6 12.85 23.0 15.1 23.0 M14.45 19.6 L16.3 19.6 15.5 22.1 13.6 22.1 14.45 19.6 M18.35 21.6 Q18.3 21.85 18.4 21.85 L19.2 19.7 20.9 19.7 18.0 28.15 17.25 29.2 16.15 29.55 13.5 29.55 14.0 28.05 16.1 28.05 16.65 27.3 17.7 24.2 16.4 26.5 Q15.9 27.35 15.1 27.35 L14.1 27.35 14.6 26.0 15.0 26.0 15.3 25.6 16.2 23.9 17.75 23.9 18.0 23.3 17.3 23.3 Q16.65 23.3 16.65 22.55 L16.75 20.1 18.4 20.1 18.35 21.6 Z" fill="none" stroke="#cc6600" stroke-linecap="butt" stroke-linejoin="miter-clip" stroke-miterlimit="3.0" stroke-width="1.5"/>
    <path d="M23.9 20.1 L25.55 20.1 24.15 22.55 Q23.6 23.3 22.7 23.3 L22.05 23.3 21.8 23.85 23.25 23.85 23.1 25.5 Q23.05 25.8 23.25 25.8 L23.6 25.8 23.05 27.35 22.05 27.35 Q21.3 27.35 21.45 26.5 L21.55 24.7 20.5 27.65 Q20.4 28.05 20.8 28.05 L22.95 28.05 22.4 29.55 19.9 29.55 Q18.3 29.55 18.85 28.05 L21.6 19.7 23.25 19.7 22.5 21.85 22.7 21.85 23.05 21.6 23.9 20.1 M29.35 23.85 L30.2 23.85 30.7 23.35 31.4 21.15 30.3 21.15 29.35 23.85 M34.6 19.6 L36.45 19.6 36.2 20.05 40.65 20.05 38.0 27.8 Q37.65 29.1 36.15 29.1 L35.4 29.1 35.85 27.65 36.0 27.65 Q36.3 27.65 36.5 27.3 L38.5 21.55 35.2 21.55 35.2 21.7 Q34.75 22.3 33.9 22.3 L32.85 22.3 33.35 20.9 33.75 20.9 34.05 20.65 34.6 19.6 M34.25 24.05 L33.1 27.35 33.85 27.35 Q34.15 27.35 34.2 27.05 L35.2 24.05 34.25 24.05 M31.95 24.05 Q31.6 25.2 30.7 25.3 L30.2 26.6 31.05 26.6 30.55 28.15 29.7 28.15 29.05 30.1 30.1 30.1 29.55 31.6 25.7 31.6 Q24.9 31.6 25.1 30.75 L26.7 26.15 28.2 26.15 27.0 29.85 Q26.85 30.1 27.1 30.1 L27.4 30.1 29.05 25.3 27.3 25.3 29.25 19.7 33.55 19.7 31.95 24.05 M37.4 22.65 L35.6 27.85 Q35.2 28.9 34.15 28.9 L32.55 28.9 32.3 29.85 32.5 29.95 37.4 29.95 36.85 31.6 31.15 31.6 Q29.95 31.6 30.3 30.45 L33.05 22.65 37.4 22.65 M15.1 23.0 L12.9 29.35 Q12.65 30.1 13.85 30.1 L22.4 30.1 21.9 31.6 13.15 31.6 Q12.3 31.6 11.95 31.05 11.5 31.6 10.85 31.6 L9.95 31.6 10.4 30.1 10.65 30.1 Q11.0 30.1 11.15 29.75 L12.9 24.6 12.3 24.6 12.85 23.0 15.1 23.0 M14.45 19.6 L16.3 19.6 15.5 22.1 13.6 22.1 14.45 19.6 M18.35 21.6 Q18.3 21.85 18.4 21.85 L19.2 19.7 20.9 19.7 18.0 28.15 17.25 29.2 16.15 29.55 13.5 29.55 14.0 28.05 16.1 28.05 16.65 27.3 17.7 24.2 16.4 26.5 Q15.9 27.35 15.1 27.35 L14.1 27.35 14.6 26.0 15.0 26.0 15.3 25.6 16.2 23.9 17.75 23.9 18.0 23.3 17.3 23.3 Q16.65 23.3 16.65 22.55 L16.75 20.1 18.4 20.1 18.35 21.6" fill="url(#gradient2)" fill-rule="evenodd" stroke="none"/>
  </g>
  <defs>
    <linearGradient gradientTransform="matrix(0.0, -0.0073, 0.0188, 0.0, 25.3, 25.6)" gradientUnits="userSpaceOnUse" id="gradient0" spreadMethod="pad" x1="-819.2" x2="819.2">
      <stop offset="0.0" stop-color="#66ccff"/>
      <stop offset="1.0" stop-color="#66ffff"/>
    </linearGradient>
    <linearGradient gradientTransform="matrix(0.0, -0.0073, 0.0188, 0.0, 25.3, 25.6)" gradientUnits="userSpaceOnUse" id="gradient1" spreadMethod="pad" x1="-819.2" x2="819.2">
      <stop offset="0.0" stop-color="#66ccff"/>
      <stop offset="1.0" stop-color="#66ffff"/>
    </linearGradient>
    <linearGradient gradientTransform="matrix(0.0, -0.0073, 0.0188, 0.0, 25.3, 25.6)" gradientUnits="userSpaceOnUse" id="gradient2" spreadMethod="pad" x1="-819.2" x2="819.2">
      <stop offset="0.0" stop-color="#ff9900"/>
      <stop offset="1.0" stop-color="#ffff00"/>
    </linearGradient>
  </defs>
</svg>
