<?xml version="1.0" encoding="UTF-8" standalone="no"?>
<svg xmlns:xlink="http://www.w3.org/1999/xlink" height="99.3px" width="99.5px" xmlns="http://www.w3.org/2000/svg">
  <g transform="matrix(1.0, 0.0, 0.0, 1.0, -2.0, -1.95)">
    <path d="M94.8 2.45 Q101.0 2.45 101.0 8.55 L101.0 94.75 Q101.0 100.75 94.8 100.75 L8.6 100.75 Q2.5 100.75 2.5 94.75 L2.5 8.55 Q2.5 2.45 8.6 2.45 L94.8 2.45" fill="url(#gradient0)" fill-rule="evenodd" stroke="none"/>
    <path d="M94.8 2.45 L8.6 2.45 Q2.5 2.45 2.5 8.55 L2.5 94.75 Q2.5 100.75 8.6 100.75 L94.8 100.75 Q101.0 100.75 101.0 94.75 L101.0 8.55 Q101.0 2.45 94.8 2.45 Z" fill="none" stroke="url(#gradient1)" stroke-linecap="butt" stroke-linejoin="miter-clip" stroke-miterlimit="3.0" stroke-width="1.0"/>
    <path d="M92.3 98.75 L54.8 98.75 Q93.15 84.45 99.05 29.35 L99.05 92.2 Q99.05 98.75 92.3 98.75" fill="url(#gradient2)" fill-rule="evenodd" stroke="none"/>
    <path d="M11.4 4.3 L89.2 4.3 Q19.65 29.1 11.4 97.35 4.65 97.35 4.65 90.8 L4.65 10.8 Q4.65 4.3 11.4 4.3" fill="url(#gradient3)" fill-rule="evenodd" stroke="none"/>
  </g>
  <defs>
    <linearGradient gradientTransform="matrix(0.0, -0.0601, 0.06, 0.0, 51.75, 51.6)" gradientUnits="userSpaceOnUse" id="gradient0" spreadMethod="pad" x1="-819.2" x2="819.2">
      <stop offset="0.0" stop-color="#41ffff" stop-opacity="0.08627451"/>
      <stop offset="1.0" stop-color="#ffffff" stop-opacity="0.0"/>
    </linearGradient>
    <linearGradient gradientTransform="matrix(0.0, 0.0591, -0.0642, 0.0, 51.65, 51.5)" gradientUnits="userSpaceOnUse" id="gradient1" spreadMethod="pad" x1="-819.2" x2="819.2">
      <stop offset="0.0" stop-color="#41ffff" stop-opacity="0.8"/>
      <stop offset="1.0" stop-color="#305c69" stop-opacity="0.8"/>
    </linearGradient>
    <linearGradient gradientTransform="matrix(-0.0275, -0.0213, -0.0469, 0.0604, 79.95, 110.1)" gradientUnits="userSpaceOnUse" id="gradient2" spreadMethod="pad" x1="-819.2" x2="819.2">
      <stop offset="0.0" stop-color="#ccffff" stop-opacity="0.29803923"/>
      <stop offset="1.0" stop-color="#d6d6d6" stop-opacity="0.0"/>
    </linearGradient>
    <linearGradient gradientTransform="matrix(0.0442, 0.0442, 0.0542, -0.054, 31.05, 6.15)" gradientUnits="userSpaceOnUse" id="gradient3" spreadMethod="pad" x1="-819.2" x2="819.2">
      <stop offset="0.0" stop-color="#ccffff" stop-opacity="0.29803923"/>
      <stop offset="1.0" stop-color="#d6d6d6" stop-opacity="0.0"/>
    </linearGradient>
  </defs>
</svg>
