<?xml version="1.0" encoding="UTF-8" standalone="no"?>
<svg xmlns:xlink="http://www.w3.org/1999/xlink" height="289.9px" width="292.8px" xmlns="http://www.w3.org/2000/svg">
  <g transform="matrix(1.0, 0.0, 0.0, 1.0, 39.95, 105.8)">
    <path d="M213.7 136.75 L212.0 136.75 214.85 131.85 215.9 133.0 213.7 136.75 M114.75 49.25 L114.75 51.95 101.15 55.9 108.5 49.25 114.75 49.25 M82.65 77.8 L82.65 87.6 79.6 92.15 78.55 87.7 82.65 77.8 M83.5 57.3 L85.65 59.6 86.8 53.3 88.9 60.6 90.8 60.6 88.75 63.15 90.35 64.65 92.9 66.35 87.7 65.4 84.15 73.85 85.25 65.55 79.3 66.2 84.3 63.5 76.2 55.5 83.5 60.45 83.5 57.3 M59.6 37.3 L63.8 42.95 65.4 46.6 56.05 41.7 56.05 37.3 59.6 37.3" fill="#f8f8f8" fill-rule="evenodd" stroke="none"/>
    <path d="M83.5 60.45 L76.2 55.5 84.3 63.5 79.3 66.2 85.25 65.55 84.15 73.85 86.2 69.05 83.05 88.25 79.3 94.15 77.65 87.55 84.55 67.1 81.45 68.45 83.15 66.15 75.75 66.95 82.85 62.85 56.05 41.7 65.4 46.6 63.8 42.95 59.6 37.3 82.65 59.15 81.65 54.25 84.85 57.45 86.7 50.7 89.1 58.55 89.8 59.85 92.3 59.85 108.5 49.25 101.15 55.9 114.75 51.95 88.75 63.15 90.8 60.6 88.9 60.6 86.8 53.3 85.65 59.6 83.5 57.3 83.5 60.45 M87.35 66.35 L87.7 65.4 92.9 66.35 90.35 64.65 100.7 67.45 88.7 66.65 95.1 74.0 87.35 66.35 M82.65 77.8 L78.55 87.7 79.6 92.15 82.65 87.6 82.65 77.8" fill="#dedede" fill-rule="evenodd" stroke="none"/>
    <path d="M114.75 49.25 L108.5 49.25 92.3 59.85 89.8 59.85 89.1 58.55 86.7 50.7 84.85 57.45 81.65 54.25 82.65 59.15 59.6 37.3 56.05 37.3 56.05 41.7 82.85 62.85 75.75 66.95 83.15 66.15 81.45 68.45 84.55 67.1 77.65 87.55 79.3 94.15 83.05 88.25 86.2 69.05 87.35 66.35 95.1 74.0 88.7 66.65 100.7 67.45 90.35 64.65 88.75 63.15 114.75 51.95 114.75 49.25 M107.95 48.35 L116.55 48.35 116.55 52.85 90.0 63.65 110.8 69.4 90.4 67.25 107.55 87.35 87.0 67.25 83.45 89.1 79.05 96.45 76.2 87.75 83.95 67.7 74.35 73.7 81.85 67.05 63.85 70.95 81.1 63.1 58.15 61.65 80.55 61.65 55.05 42.35 55.05 36.45 60.5 36.45 81.9 57.9 75.3 41.95 84.35 55.65 85.6 54.05 86.8 42.25 89.35 57.15 97.35 47.85 90.7 59.6 107.95 48.35" fill="#bdbdbd" fill-rule="evenodd" stroke="none"/>
    <path d="M44.3 -50.9 L39.5 -66.15 48.6 -86.25 56.55 -76.9 63.3 -47.2 55.6 -71.4 44.3 -50.9 M221.95 136.2 L216.65 130.95 225.85 135.4 231.0 147.5 217.3 147.5 Q201.2 137.85 186.05 126.9 L213.3 142.55 223.25 142.55 221.95 136.2" fill="#e5e5e5" fill-rule="evenodd" stroke="none"/>
    <path d="M56.75 -105.8 L62.35 -103.55 69.0 -54.9 56.75 -105.8 M53.0 -98.65 L63.2 -49.45 Q55.65 -70.6 51.5 -94.3 L53.0 -98.65 M36.25 -31.4 L85.65 58.55 85.0 -36.8 87.05 -36.8 87.05 59.75 Q87.85 61.05 90.4 61.05 88.9 61.75 90.4 62.8 L193.25 82.7 190.0 84.85 88.9 63.2 Q117.0 95.6 143.8 128.2 L143.8 133.85 Q115.6 99.6 87.75 63.1 L86.9 63.1 72.85 154.95 62.85 164.55 54.15 155.7 73.05 99.85 76.25 104.4 85.8 65.55 85.6 63.3 83.3 65.15 Q61.7 82.7 40.15 99.05 L39.75 98.05 39.7 97.95 82.8 64.25 0.25 86.65 -0.8 85.1 0.6 83.35 82.9 63.3 Q83.45 63.0 84.95 62.6 L82.85 61.75 12.3 55.4 12.0 54.45 56.75 58.0 -19.3 47.15 -19.9 44.3 -17.55 43.05 62.15 57.2 83.5 60.65 Q85.25 61.2 84.7 59.4 60.95 17.65 36.25 -23.6 L36.25 -31.4 M37.5 -24.35 Q45.9 -8.5 55.85 6.7 47.0 -10.55 37.5 -26.7 L37.5 -24.35 M12.15 -11.45 L1.5 -11.45 -0.55 -1.7 12.4 8.25 18.75 8.25 58.85 39.15 36.0 16.85 40.25 16.85 12.15 -11.45 M0.05 -13.95 L12.7 -13.4 47.25 21.2 42.8 21.2 81.85 58.45 21.8 13.5 16.75 13.5 -2.8 -0.1 0.05 -13.95 M135.25 -15.5 L90.15 58.2 88.75 59.15 134.15 -16.35 135.25 -15.5 M121.3 -86.25 L123.5 -84.25 108.85 -36.35 121.3 -86.25 M241.35 -79.0 L190.45 -38.4 226.05 -80.2 238.95 -83.25 241.35 -79.0 M183.3 24.1 Q138.6 42.65 94.0 60.0 102.6 55.2 112.25 51.2 L112.25 48.3 Q107.4 50.6 102.5 52.85 L178.5 2.85 191.15 2.85 183.3 24.1 M182.35 22.9 L188.2 4.15 179.1 4.15 116.0 45.2 149.55 25.4 154.0 31.15 120.1 48.45 182.35 22.9 M163.15 9.3 Q132.95 30.95 99.1 53.3 129.35 30.25 159.9 8.25 L163.15 8.25 163.15 9.3 M215.15 63.6 L245.15 63.1 242.25 65.7 215.15 63.6 M212.1 52.5 L226.85 50.5 228.95 52.1 212.1 52.5 M217.9 128.4 L247.55 143.05 252.85 154.45 230.25 156.65 156.5 106.35 211.95 139.7 227.35 139.7 217.9 128.4 M201.1 142.35 L201.1 146.1 196.5 146.1 167.05 117.55 201.1 142.35 M160.2 8.95 L139.15 24.65 161.95 9.5 161.95 8.95 160.2 8.95 M0.4 84.7 L1.05 85.55 43.25 73.8 1.05 83.85 0.4 84.7 M65.55 125.75 L55.65 154.35 63.4 161.4 72.05 153.2 81.8 89.95 73.75 119.4 70.3 113.55 65.55 125.75 M48.4 153.0 L50.55 152.6 64.45 115.55 Q56.5 131.85 48.2 150.7 L48.4 153.0 M46.6 151.15 L77.95 82.65 50.9 153.95 47.15 154.4 46.6 151.15 M141.9 129.95 L141.9 127.45 Q129.15 111.35 115.55 96.65 128.25 114.05 141.9 129.95 M-18.2 44.7 L-17.95 46.05 Q1.95 49.5 21.45 51.75 2.7 47.6 -17.1 44.1 L-18.2 44.7 M-7.35 169.55 L-7.35 167.4 18.6 137.4 -7.35 169.55" fill="#fff7ee" fill-rule="evenodd" stroke="none"/>
    <path d="M37.5 -24.35 L37.5 -26.7 Q47.0 -10.55 55.85 6.7 45.9 -8.5 37.5 -24.35 M160.2 8.95 L161.95 8.95 161.95 9.5 139.15 24.65 160.2 8.95 M0.4 84.7 L1.05 83.85 43.25 73.8 1.05 85.55 0.4 84.7 M48.4 153.0 L48.2 150.7 Q56.5 131.85 64.45 115.55 L50.55 152.6 48.4 153.0 M141.9 129.95 Q128.25 114.05 115.55 96.65 129.15 111.35 141.9 127.45 L141.9 129.95 M-18.2 44.7 L-17.1 44.1 Q2.7 47.6 21.45 51.75 1.95 49.5 -17.95 46.05 L-18.2 44.7" fill="#d0d0d0" fill-rule="evenodd" stroke="none"/>
    <path d="M83.65 -39.9 Q37.1 -39.9 4.6 -8.85 -27.95 22.25 -27.45 66.2 -26.9 110.15 6.35 141.2 39.6 172.3 86.1 172.3 132.65 172.3 165.2 141.2 L165.75 140.65 Q197.7 109.8 197.2 66.2 L196.95 59.85 Q194.25 19.95 163.45 -8.85 130.2 -39.9 83.65 -39.9 M172.15 -17.15 Q206.4 14.85 209.4 59.15 L209.65 66.25 Q210.25 114.65 174.75 148.95 L174.1 149.55 Q137.95 184.1 86.25 184.1 34.55 184.1 -2.4 149.55 -39.35 115.05 -39.95 66.2 -40.5 17.4 -4.35 -17.15 31.8 -51.65 83.5 -51.65 135.2 -51.65 172.15 -17.15" fill="url(#gradient0)" fill-rule="evenodd" stroke="none"/>
  </g>
  <defs>
    <radialGradient cx="0" cy="0" gradientTransform="matrix(0.2971, 0.0, 0.0, 0.2971, 84.85, 66.2)" gradientUnits="userSpaceOnUse" id="gradient0" r="819.2" spreadMethod="pad">
      <stop offset="0.4588235294117647" stop-color="#ffffff" stop-opacity="0.0"/>
      <stop offset="0.5529411764705883" stop-color="#ffffff"/>
    </radialGradient>
  </defs>
</svg>
