<?xml version="1.0" encoding="UTF-8" standalone="no"?>
<svg xmlns:xlink="http://www.w3.org/1999/xlink" height="36.45px" width="176.65px" xmlns="http://www.w3.org/2000/svg">
  <g transform="matrix(1.0, 0.0, 0.0, 1.0, 16.75, 0.75)">
    <path d="M159.15 31.2 Q159.15 33.4 157.0 34.3 155.55 34.95 153.0 34.95 L-9.95 34.95 Q-16.0 34.95 -16.0 31.2 L-16.0 3.75 Q-16.0 2.7 -15.55 1.95 -14.7 0.6 -12.4 0.2 L-9.95 0.0 153.0 0.0 Q159.15 0.0 159.15 3.75 L159.15 31.2" fill="#070a1b" fill-rule="evenodd" stroke="none"/>
    <path d="M159.15 31.2 L159.15 3.75 Q159.15 0.0 153.0 0.0 L-9.95 0.0 -12.4 0.2 Q-14.7 0.6 -15.55 1.95 -16.0 2.7 -16.0 3.75 L-16.0 31.2 Q-16.0 34.95 -9.95 34.95 L153.0 34.95 Q155.55 34.95 157.0 34.3 159.15 33.4 159.15 31.2 Z" fill="none" stroke="url(#gradient0)" stroke-linecap="butt" stroke-linejoin="miter-clip" stroke-miterlimit="3.0" stroke-width="1.5"/>
    <path d="M157.35 29.65 Q157.35 33.6 151.7 33.6 L130.3 33.6 Q155.55 30.15 157.35 7.8 L157.35 29.65" fill="url(#gradient1)" fill-rule="evenodd" stroke="none"/>
    <path d="M-14.65 5.65 Q-15.65 1.1 -8.3 1.25 L93.8 1.3 Q6.35 2.65 -14.65 28.15 L-14.65 5.65" fill="url(#gradient2)" fill-rule="evenodd" stroke="none"/>
    <path d="M129.65 16.75 L143.05 16.75 M12.1 16.75 L0.5 16.75" fill="none" stroke="#52e5f9" stroke-linecap="round" stroke-linejoin="miter-clip" stroke-miterlimit="3.0" stroke-opacity="0.4" stroke-width="0.2"/>
    <path d="M126.8 34.6 Q129.15 27.3 129.55 19.1 L129.65 16.75 M118.7 1.1 Q120.9 8.15 120.85 16.05 L120.85 16.75 M114.05 1.1 Q116.5 8.2 116.45 16.15 L116.45 16.75 M84.25 1.1 L85.8 2.65 Q91.1 8.55 90.95 16.4 L90.95 16.75 M27.75 1.1 Q25.75 7.05 25.4 13.75 L25.4 16.75" fill="none" stroke="#52e5f9" stroke-linecap="butt" stroke-linejoin="miter-clip" stroke-miterlimit="3.0" stroke-opacity="0.40784314" stroke-width="0.1"/>
    <path d="M129.65 16.75 L120.85 16.75 116.45 16.75 90.95 16.75 50.85 16.75 25.4 16.75 20.95 16.75 12.1 16.75" fill="none" stroke="#52e5f9" stroke-linecap="round" stroke-linejoin="miter-clip" stroke-miterlimit="3.0" stroke-opacity="0.4" stroke-width="0.2"/>
    <path d="M120.85 16.75 L120.75 18.65 Q120.3 27.2 117.45 34.6 M129.65 16.75 L129.65 16.0 Q129.7 8.2 127.95 1.1 M116.45 16.75 L116.3 18.4 Q115.9 27.15 112.65 34.6 M90.95 16.75 L90.95 17.1 Q90.5 25.35 84.3 30.95 81.65 33.35 78.6 34.6 M50.85 16.75 L50.85 16.8 Q51.1 24.0 56.0 29.45 59.2 32.95 63.25 34.6 M50.85 16.75 L50.9 15.0 Q51.35 6.7 57.45 1.2 M20.95 16.75 Q20.9 15.15 21.0 13.5 21.35 6.95 23.1 1.1 M20.95 16.75 L20.95 17.1 Q21.1 26.45 24.35 34.6 M25.4 16.75 L25.4 17.15 Q25.55 26.5 29.2 34.6 M12.1 16.75 L12.1 17.2 Q12.25 26.35 14.95 34.6 M12.1 16.75 L12.15 13.0 Q12.5 6.8 13.95 1.1" fill="none" stroke="#52e5f9" stroke-linecap="round" stroke-linejoin="miter-clip" stroke-miterlimit="3.0" stroke-opacity="0.40784314" stroke-width="0.1"/>
  </g>
  <defs>
    <linearGradient gradientTransform="matrix(0.0, 0.0215, -0.0272, 0.0, 71.6, 17.5)" gradientUnits="userSpaceOnUse" id="gradient0" spreadMethod="pad" x1="-819.2" x2="819.2">
      <stop offset="0.0" stop-color="#41ffff" stop-opacity="0.8"/>
      <stop offset="1.0" stop-color="#305c69" stop-opacity="0.8"/>
    </linearGradient>
    <linearGradient gradientTransform="matrix(-0.0168, -0.0079, -0.0286, 0.0224, 145.65, 37.8)" gradientUnits="userSpaceOnUse" id="gradient1" spreadMethod="pad" x1="-819.2" x2="819.2">
      <stop offset="0.0" stop-color="#ccffff" stop-opacity="0.29803923"/>
      <stop offset="1.0" stop-color="#d6d6d6" stop-opacity="0.0"/>
    </linearGradient>
    <linearGradient gradientTransform="matrix(0.027, 0.0641, 0.041, -0.0013, 70.25, -13.4)" gradientUnits="userSpaceOnUse" id="gradient2" spreadMethod="pad" x1="-819.2" x2="819.2">
      <stop offset="0.0" stop-color="#ccffff" stop-opacity="0.29803923"/>
      <stop offset="1.0" stop-color="#d6d6d6" stop-opacity="0.0"/>
    </linearGradient>
  </defs>
</svg>
