<?xml version="1.0" encoding="UTF-8" standalone="no"?>
<svg xmlns:xlink="http://www.w3.org/1999/xlink" height="90.25px" width="90.25px" xmlns="http://www.w3.org/2000/svg">
  <g transform="matrix(1.0, 0.0, 0.0, 1.0, -0.85, -1.3)">
    <path d="M84.05 19.4 L84.05 74.55 Q84.05 84.8 73.75 84.8 L18.6 84.8 Q8.3 84.8 8.3 74.55 L8.3 19.4 Q8.3 9.1 18.6 9.1 L73.75 9.1 Q84.05 9.1 84.05 19.4 M81.65 20.85 Q81.65 11.2 71.95 11.2 L20.2 11.2 Q10.55 11.2 10.55 20.85 L10.55 72.65 Q10.55 82.3 20.2 82.3 L71.95 82.3 Q81.65 82.3 81.65 72.65 L81.65 20.85" fill="url(#gradient0)" fill-rule="evenodd" stroke="none"/>
    <path d="M84.05 19.4 Q84.05 9.1 73.75 9.1 L18.6 9.1 Q8.3 9.1 8.3 19.4 L8.3 74.55 Q8.3 84.8 18.6 84.8 L73.75 84.8 Q84.05 84.8 84.05 74.55 L84.05 19.4 M90.1 14.3 L90.1 78.55 Q90.1 90.55 78.1 90.55 L13.85 90.55 Q1.85 90.55 1.85 78.55 L1.85 14.3 Q1.85 2.3 13.85 2.3 L78.1 2.3 Q90.1 2.3 90.1 14.3" fill="url(#gradient1)" fill-rule="evenodd" stroke="none"/>
    <path d="M90.1 14.3 Q90.1 2.3 78.1 2.3 L13.85 2.3 Q1.85 2.3 1.85 14.3 L1.85 78.55 Q1.85 90.55 13.85 90.55 L78.1 90.55 Q90.1 90.55 90.1 78.55 L90.1 14.3 M81.65 20.85 Q81.65 11.2 71.95 11.2 L20.2 11.2 Q10.55 11.2 10.55 20.85 L10.55 72.65 Q10.55 82.3 20.2 82.3 L71.95 82.3 Q81.65 82.3 81.65 72.65 L81.65 20.85" fill="none" stroke="#333333" stroke-linecap="round" stroke-linejoin="round" stroke-width="2.0"/>
    <path d="M84.05 19.4 Q84.05 9.1 73.75 9.1 L18.6 9.1 Q8.3 9.1 8.3 19.4 L8.3 74.55 Q8.3 84.8 18.6 84.8 L73.75 84.8 Q84.05 84.8 84.05 74.55 L84.05 19.4 Z" fill="none" stroke="url(#gradient2)" stroke-linecap="round" stroke-linejoin="round" stroke-width="1.0"/>
    <path d="M42.6 88.4 L42.25 89.0 42.2 89.0 Q41.75 88.75 41.7 88.25 41.55 87.8 41.75 87.35 L42.5 86.15 43.35 86.15 42.4 87.75 42.4 88.05 42.4 88.1 42.55 88.35 42.6 88.4 M45.4 89.0 L45.35 89.0 Q44.9 88.75 44.85 88.25 44.7 87.8 44.9 87.35 L45.65 86.15 46.5 86.15 45.55 87.75 45.55 88.05 45.55 88.1 45.7 88.35 45.75 88.4 45.4 89.0 M48.35 89.0 L48.3 89.0 47.8 88.25 Q47.65 87.8 47.85 87.35 L48.6 86.15 49.45 86.15 48.5 87.75 48.5 88.05 48.5 88.1 48.65 88.35 48.7 88.4 48.35 89.0" fill="#363636" fill-rule="evenodd" stroke="none"/>
    <path d="M42.6 88.4 L42.9 88.45 42.95 88.4 43.2 88.15 44.35 86.15 45.2 86.15 43.8 88.55 43.1 89.05 Q42.75 89.25 42.3 89.05 L42.25 89.0 42.6 88.4 M45.4 89.0 L45.75 88.4 46.05 88.45 46.1 88.4 46.35 88.15 47.5 86.15 48.35 86.15 46.95 88.55 46.25 89.05 Q45.9 89.25 45.45 89.05 L45.4 89.0 M48.35 89.0 L48.7 88.4 49.0 88.45 49.05 88.4 49.3 88.15 50.45 86.15 51.3 86.15 49.9 88.55 Q49.65 89.0 49.2 89.05 48.85 89.25 48.4 89.05 L48.35 89.0" fill="#f4f7f9" fill-rule="evenodd" stroke="none"/>
    <path d="M44.6 86.45 L43.4 88.55 42.95 88.9 42.4 88.85 42.4 88.8 42.05 88.4 42.05 88.35 42.15 87.85 42.9 86.45 44.6 86.45 M47.7 86.45 L46.5 88.55 46.05 88.9 45.5 88.85 45.5 88.8 45.15 88.4 45.15 88.35 45.25 87.85 46.0 86.45 47.7 86.45 M48.55 88.85 L48.55 88.8 48.2 88.4 48.2 88.35 48.3 87.85 49.05 86.45 50.75 86.45 49.55 88.55 49.1 88.9 48.55 88.85" fill="#76868d" fill-rule="evenodd" stroke="none"/>
  </g>
  <defs>
    <linearGradient gradientTransform="matrix(0.0226, -0.0456, 0.0456, 0.0226, 12.65, -136.75)" gradientUnits="userSpaceOnUse" id="gradient0" spreadMethod="pad" x1="-819.2" x2="819.2">
      <stop offset="0.0" stop-color="#c9dfed"/>
      <stop offset="1.0" stop-color="#8f9ca2"/>
    </linearGradient>
    <linearGradient gradientTransform="matrix(-5.0E-4, 0.0539, -0.0539, -5.0E-4, 45.95, 46.4)" gradientUnits="userSpaceOnUse" id="gradient1" spreadMethod="pad" x1="-819.2" x2="819.2">
      <stop offset="0.0" stop-color="#dbe9f2"/>
      <stop offset="1.0" stop-color="#708087"/>
    </linearGradient>
    <linearGradient gradientTransform="matrix(0.0468, 0.0, 0.0, 0.0468, 46.15, 46.95)" gradientUnits="userSpaceOnUse" id="gradient2" spreadMethod="pad" x1="-819.2" x2="819.2">
      <stop offset="0.0" stop-color="#b7cad6" stop-opacity="0.0"/>
      <stop offset="0.48627450980392156" stop-color="#ffffff"/>
      <stop offset="1.0" stop-color="#aabcc6" stop-opacity="0.0"/>
    </linearGradient>
  </defs>
</svg>
