<?xml version="1.0" encoding="UTF-8" standalone="no"?>
<svg xmlns:xlink="http://www.w3.org/1999/xlink" height="74.1px" width="74.1px" xmlns="http://www.w3.org/2000/svg">
  <g transform="matrix(1.0, 0.0, 0.0, 1.0, -14.85, -8.2)">
    <path d="M87.45 19.35 L87.45 71.15 Q87.45 80.8 77.75 80.8 L26.0 80.8 Q16.35 80.8 16.35 71.15 L16.35 19.35 Q16.35 9.7 26.0 9.7 L77.75 9.7 Q87.45 9.7 87.45 19.35" fill="url(#gradient0)" fill-rule="evenodd" stroke="none"/>
    <path d="M87.45 19.35 Q87.45 9.7 77.75 9.7 L26.0 9.7 Q16.35 9.7 16.35 19.35 L16.35 71.15 Q16.35 80.8 26.0 80.8 L77.75 80.8 Q87.45 80.8 87.45 71.15 L87.45 19.35 Z" fill="none" stroke="#292d2e" stroke-linecap="round" stroke-linejoin="round" stroke-width="3.0"/>
    <path d="M83.95 11.25 Q87.45 13.55 87.45 19.35 L87.45 71.15 Q87.45 76.95 83.95 79.25 81.6 80.8 77.75 80.8 L26.0 80.8 Q16.35 80.8 16.35 71.15 L16.35 19.35 Q16.35 9.7 26.0 9.7 L77.75 9.7 Q81.6 9.7 83.95 11.25" fill="url(#gradient1)" fill-rule="evenodd" stroke="none"/>
    <path d="M85.55 18.3 L85.55 21.7 Q75.8 21.85 66.35 23.35 57.6 24.75 44.45 28.05 41.7 28.7 34.95 31.5 28.55 34.15 27.1 35.1 L18.15 40.7 17.95 38.75 17.95 18.3 Q17.95 12.3 23.95 12.3 L79.55 12.3 Q85.55 12.3 85.55 18.3" fill="url(#gradient2)" fill-rule="evenodd" stroke="none"/>
  </g>
  <defs>
    <linearGradient gradientTransform="matrix(-5.0E-4, 0.0539, -0.0539, -5.0E-4, 51.75, 44.9)" gradientUnits="userSpaceOnUse" id="gradient0" spreadMethod="pad" x1="-819.2" x2="819.2">
      <stop offset="0.0" stop-color="#197ad9"/>
      <stop offset="1.0" stop-color="#0545b1"/>
    </linearGradient>
    <linearGradient gradientTransform="matrix(-5.0E-4, 0.0539, -0.0539, -5.0E-4, 51.75, 44.9)" gradientUnits="userSpaceOnUse" id="gradient1" spreadMethod="pad" x1="-819.2" x2="819.2">
      <stop offset="0.0" stop-color="#197ad9"/>
      <stop offset="1.0" stop-color="#0545b1"/>
    </linearGradient>
    <linearGradient gradientTransform="matrix(-0.0021, -0.0121, 0.0195, -0.0034, 43.8, 21.25)" gradientUnits="userSpaceOnUse" id="gradient2" spreadMethod="pad" x1="-819.2" x2="819.2">
      <stop offset="0.0" stop-color="#62f3fb" stop-opacity="0.047058824"/>
      <stop offset="1.0" stop-color="#38f2f9" stop-opacity="0.84705883"/>
    </linearGradient>
  </defs>
</svg>
