<?xml version="1.0" encoding="UTF-8" standalone="no"?>
<svg xmlns:xlink="http://www.w3.org/1999/xlink" height="16.15px" width="32.25px" xmlns="http://www.w3.org/2000/svg">
  <g transform="matrix(1.0, 0.0, 0.0, 1.0, -9.05, -18.25)">
    <path d="M23.2 20.25 L25.35 20.25 24.75 21.15 26.1 21.15 25.85 22.55 22.1 22.55 21.95 23.1 25.35 23.1 24.0 28.95 Q23.75 30.2 22.35 30.2 L15.05 30.2 16.75 23.1 19.9 23.1 20.05 22.55 16.55 22.55 16.9 21.15 18.35 21.15 18.2 20.25 20.25 20.25 20.4 21.15 22.65 21.15 23.2 20.25 M29.1 24.5 L36.0 24.5 36.2 23.8 29.25 23.8 29.1 24.5 M29.6 22.35 L36.45 22.35 36.6 21.75 29.65 21.75 29.6 22.35 M38.8 20.4 L36.85 28.6 37.35 28.6 37.15 29.95 25.35 29.95 25.6 28.6 26.2 28.6 28.2 20.4 38.8 20.4 M14.8 20.45 L16.6 20.45 16.1 22.7 14.2 22.7 14.8 20.45 M15.9 23.3 L14.35 30.2 Q14.2 30.65 14.9 30.65 L23.9 30.65 23.55 32.25 14.4 32.25 Q13.95 32.25 13.65 31.75 13.35 32.15 12.65 32.15 L11.75 32.15 12.15 30.8 Q12.65 30.8 12.65 30.4 L13.95 24.8 13.45 24.8 13.85 23.3 15.9 23.3 M17.25 28.75 L21.75 28.75 22.3 28.25 17.45 28.25 17.25 28.75 M17.75 26.8 L22.55 26.8 22.65 26.45 17.85 26.45 17.75 26.8 M36.9 30.9 L36.6 32.25 34.05 32.25 Q33.45 32.25 33.0 31.65 L32.15 30.2 34.5 30.2 34.95 30.8 35.5 30.9 36.9 30.9 M35.65 25.85 L28.7 25.85 28.7 26.45 35.55 26.45 35.65 25.85 M35.2 27.95 L28.25 27.95 28.05 28.6 35.0 28.6 35.2 27.95 M27.0 30.8 L27.65 30.2 29.95 30.2 28.4 31.75 Q28.0 32.25 27.15 32.25 L24.85 32.25 25.15 30.9 26.5 30.9 27.0 30.8 M18.3 24.5 L18.2 25.05 22.95 25.05 23.15 24.5 18.3 24.5" fill="url(#gradient0)" fill-rule="evenodd" stroke="none"/>
    <path d="M23.2 20.25 L25.35 20.25 24.75 21.15 26.1 21.15 25.85 22.55 22.1 22.55 21.95 23.1 25.35 23.1 24.0 28.95 Q23.75 30.2 22.35 30.2 L15.05 30.2 16.75 23.1 19.9 23.1 20.05 22.55 16.55 22.55 16.9 21.15 18.35 21.15 18.2 20.25 20.25 20.25 20.4 21.15 22.65 21.15 23.2 20.25 M29.1 24.5 L36.0 24.5 36.2 23.8 29.25 23.8 29.1 24.5 M29.6 22.35 L36.45 22.35 36.6 21.75 29.65 21.75 29.6 22.35 M38.8 20.4 L36.85 28.6 37.35 28.6 37.15 29.95 25.35 29.95 25.6 28.6 26.2 28.6 28.2 20.4 38.8 20.4 M14.8 20.45 L16.6 20.45 16.1 22.7 14.2 22.7 14.8 20.45 M15.9 23.3 L14.35 30.2 Q14.2 30.65 14.9 30.65 L23.9 30.65 23.55 32.25 14.4 32.25 Q13.95 32.25 13.65 31.75 13.35 32.15 12.65 32.15 L11.75 32.15 12.15 30.8 Q12.65 30.8 12.65 30.4 L13.95 24.8 13.45 24.8 13.85 23.3 15.9 23.3 M17.25 28.75 L21.75 28.75 22.3 28.25 17.45 28.25 17.25 28.75 M17.75 26.8 L22.55 26.8 22.65 26.45 17.85 26.45 17.75 26.8 M36.9 30.9 L36.6 32.25 34.05 32.25 Q33.45 32.25 33.0 31.65 L32.15 30.2 34.5 30.2 34.95 30.8 35.5 30.9 36.9 30.9 M35.65 25.85 L28.7 25.85 28.7 26.45 35.55 26.45 35.65 25.85 M35.2 27.95 L28.25 27.95 28.05 28.6 35.0 28.6 35.2 27.95 M27.0 30.8 L27.65 30.2 29.95 30.2 28.4 31.75 Q28.0 32.25 27.15 32.25 L24.85 32.25 25.15 30.9 26.5 30.9 27.0 30.8 M18.3 24.5 L18.2 25.05 22.95 25.05 23.15 24.5 18.3 24.5 Z" fill="none" stroke="#000033" stroke-linecap="butt" stroke-linejoin="miter-clip" stroke-miterlimit="3.0" stroke-width="4.0"/>
    <path d="M23.2 20.25 L25.35 20.25 24.75 21.15 26.1 21.15 25.85 22.55 22.1 22.55 21.95 23.1 25.35 23.1 24.0 28.95 Q23.75 30.2 22.35 30.2 L15.05 30.2 16.75 23.1 19.9 23.1 20.05 22.55 16.55 22.55 16.9 21.15 18.35 21.15 18.2 20.25 20.25 20.25 20.4 21.15 22.65 21.15 23.2 20.25 M29.1 24.5 L36.0 24.5 36.2 23.8 29.25 23.8 29.1 24.5 M29.6 22.35 L36.45 22.35 36.6 21.75 29.65 21.75 29.6 22.35 M38.8 20.4 L36.85 28.6 37.35 28.6 37.15 29.95 25.35 29.95 25.6 28.6 26.2 28.6 28.2 20.4 38.8 20.4 M14.8 20.45 L16.6 20.45 16.1 22.7 14.2 22.7 14.8 20.45 M15.9 23.3 L14.35 30.2 Q14.2 30.65 14.9 30.65 L23.9 30.65 23.55 32.25 14.4 32.25 Q13.95 32.25 13.65 31.75 13.35 32.15 12.65 32.15 L11.75 32.15 12.15 30.8 Q12.65 30.8 12.65 30.4 L13.95 24.8 13.45 24.8 13.85 23.3 15.9 23.3 M17.25 28.75 L21.75 28.75 22.3 28.25 17.45 28.25 17.25 28.75 M17.75 26.8 L22.55 26.8 22.65 26.45 17.85 26.45 17.75 26.8 M36.9 30.9 L36.6 32.25 34.05 32.25 Q33.45 32.25 33.0 31.65 L32.15 30.2 34.5 30.2 34.95 30.8 35.5 30.9 36.9 30.9 M35.65 25.85 L28.7 25.85 28.7 26.45 35.55 26.45 35.65 25.85 M35.2 27.95 L28.25 27.95 28.05 28.6 35.0 28.6 35.2 27.95 M27.0 30.8 L27.65 30.2 29.95 30.2 28.4 31.75 Q28.0 32.25 27.15 32.25 L24.85 32.25 25.15 30.9 26.5 30.9 27.0 30.8 M18.3 24.5 L18.2 25.05 22.95 25.05 23.15 24.5 18.3 24.5" fill="url(#gradient1)" fill-rule="evenodd" stroke="none"/>
    <path d="M23.2 20.25 L25.35 20.25 24.75 21.15 26.1 21.15 25.85 22.55 22.1 22.55 21.95 23.1 25.35 23.1 24.0 28.95 Q23.75 30.2 22.35 30.2 L15.05 30.2 16.75 23.1 19.9 23.1 20.05 22.55 16.55 22.55 16.9 21.15 18.35 21.15 18.2 20.25 20.25 20.25 20.4 21.15 22.65 21.15 23.2 20.25 M29.1 24.5 L36.0 24.5 36.2 23.8 29.25 23.8 29.1 24.5 M29.6 22.35 L36.45 22.35 36.6 21.75 29.65 21.75 29.6 22.35 M38.8 20.4 L36.85 28.6 37.35 28.6 37.15 29.95 25.35 29.95 25.6 28.6 26.2 28.6 28.2 20.4 38.8 20.4 M14.8 20.45 L16.6 20.45 16.1 22.7 14.2 22.7 14.8 20.45 M15.9 23.3 L14.35 30.2 Q14.2 30.65 14.9 30.65 L23.9 30.65 23.55 32.25 14.4 32.25 Q13.95 32.25 13.65 31.75 13.35 32.15 12.65 32.15 L11.75 32.15 12.15 30.8 Q12.65 30.8 12.65 30.4 L13.95 24.8 13.45 24.8 13.85 23.3 15.9 23.3 M17.25 28.75 L21.75 28.75 22.3 28.25 17.45 28.25 17.25 28.75 M17.75 26.8 L22.55 26.8 22.65 26.45 17.85 26.45 17.75 26.8 M36.9 30.9 L36.6 32.25 34.05 32.25 Q33.45 32.25 33.0 31.65 L32.15 30.2 34.5 30.2 34.95 30.8 35.5 30.9 36.9 30.9 M35.65 25.85 L28.7 25.85 28.7 26.45 35.55 26.45 35.65 25.85 M35.2 27.95 L28.25 27.95 28.05 28.6 35.0 28.6 35.2 27.95 M27.0 30.8 L27.65 30.2 29.95 30.2 28.4 31.75 Q28.0 32.25 27.15 32.25 L24.85 32.25 25.15 30.9 26.5 30.9 27.0 30.8 M18.3 24.5 L18.2 25.05 22.95 25.05 23.15 24.5 18.3 24.5 Z" fill="none" stroke="#006699" stroke-linecap="butt" stroke-linejoin="miter-clip" stroke-miterlimit="3.0" stroke-width="2.0"/>
    <path d="M23.15 20.25 L25.3 20.25 24.75 21.15 26.1 21.15 25.8 22.55 22.1 22.55 21.9 23.1 25.35 23.1 23.9 28.95 Q23.75 30.2 22.35 30.2 L14.95 30.2 16.75 23.1 19.8 23.1 20.0 22.55 16.55 22.55 16.85 21.15 18.3 21.15 18.2 20.25 20.2 20.25 20.4 21.15 22.6 21.15 23.15 20.25 M29.1 24.5 L35.95 24.5 36.15 23.8 29.2 23.8 29.1 24.5 M29.5 22.35 L36.45 22.35 36.6 21.75 29.65 21.75 29.5 22.35 M38.7 20.4 L36.85 28.6 37.35 28.6 37.1 29.95 25.35 29.95 25.6 28.6 26.2 28.6 28.15 20.4 38.7 20.4 M14.7 20.45 L16.55 20.45 16.1 22.7 14.2 22.7 14.7 20.45 M15.9 23.3 L14.35 30.2 Q14.2 30.65 14.9 30.65 L23.85 30.65 23.55 32.25 14.35 32.25 13.6 31.75 Q13.25 32.15 12.55 32.15 L11.7 32.15 12.05 30.8 12.15 30.8 Q12.55 30.8 12.55 30.4 L13.95 24.8 13.45 24.8 13.75 23.3 15.9 23.3 M17.25 28.75 L21.75 28.75 22.15 28.25 17.45 28.25 17.25 28.75 M17.7 26.8 L22.55 26.8 22.65 26.45 17.8 26.45 17.7 26.8 M36.85 30.9 L36.6 32.25 34.05 32.25 Q33.45 32.25 32.9 31.65 L32.15 30.2 34.45 30.2 34.9 30.8 35.5 30.9 36.85 30.9 M35.65 25.85 L28.7 25.85 28.65 26.45 35.55 26.45 35.65 25.85 M35.15 27.95 L28.2 27.95 28.05 28.6 35.0 28.6 35.15 27.95 M26.95 30.8 L27.55 30.2 29.95 30.2 28.4 31.75 Q27.95 32.25 27.15 32.25 L24.8 32.25 25.1 30.9 26.5 30.9 26.95 30.8 M18.3 24.5 L18.1 25.05 22.85 25.05 23.1 24.5 18.3 24.5" fill="url(#gradient2)" fill-rule="evenodd" stroke="none"/>
  </g>
  <defs>
    <linearGradient gradientTransform="matrix(5.0E-4, -0.0073, 0.016, 0.0, 25.3, 26.2)" gradientUnits="userSpaceOnUse" id="gradient0" spreadMethod="pad" x1="-819.2" x2="819.2">
      <stop offset="0.0" stop-color="#009900"/>
      <stop offset="1.0" stop-color="#00ff00"/>
    </linearGradient>
    <linearGradient gradientTransform="matrix(5.0E-4, -0.0073, 0.016, 0.0, 25.3, 26.2)" gradientUnits="userSpaceOnUse" id="gradient1" spreadMethod="pad" x1="-819.2" x2="819.2">
      <stop offset="0.0" stop-color="#009900"/>
      <stop offset="1.0" stop-color="#00ff00"/>
    </linearGradient>
    <linearGradient gradientTransform="matrix(0.0, -0.0073, 0.0165, 0.0, 25.2, 26.25)" gradientUnits="userSpaceOnUse" id="gradient2" spreadMethod="pad" x1="-819.2" x2="819.2">
      <stop offset="0.0" stop-color="#66ccff"/>
      <stop offset="1.0" stop-color="#66ffff"/>
    </linearGradient>
  </defs>
</svg>
