<?xml version="1.0" encoding="UTF-8" standalone="no"?>
<svg xmlns:xlink="http://www.w3.org/1999/xlink" height="50.25px" width="67.5px" xmlns="http://www.w3.org/2000/svg">
  <g transform="matrix(1.0, 0.0, 0.0, 1.0, 44.4, -107.4)">
    <path d="M-43.15 121.2 Q-30.85 120.55 -22.95 129.55 -18.1 135.05 -16.6 137.9 -16.05 131.2 -6.6 122.75 2.85 114.3 4.15 107.9 4.5 110.35 4.4 115.3 L4.15 121.2 Q4.15 123.1 5.4 124.7 6.8 126.4 8.9 126.6 14.5 127.35 21.2 115.4 18.55 123.4 19.0 126.25 19.45 129.0 21.0 133.65 22.6 138.35 22.6 142.1 22.6 145.9 14.8 155.7 16.15 149.85 12.75 145.6 9.8 141.95 4.4 141.95 0.75 141.95 -2.95 146.8 -5.05 149.45 -8.1 154.9 L-8.45 154.95 Q-8.9 155.15 -8.9 155.7 -11.3 149.35 -13.95 150.1 -16.7 150.85 -18.9 157.15 -21.5 151.1 -23.95 150.75 -26.45 150.4 -28.35 152.7 -30.4 154.9 -32.05 154.9 -35.7 154.9 -36.8 152.5 -37.45 151.1 -37.65 146.8 -38.0 138.1 -43.9 134.95 -39.55 135.3 -37.65 136.35 -35.7 137.35 -34.05 139.45 L-32.4 139.45 Q-31.7 137.25 -32.4 133.75 -34.6 130.0 -37.65 126.4 -40.75 122.75 -43.15 121.2 M10.2 132.65 Q5.95 132.65 3.0 128.6 0.25 124.95 1.0 121.1 -0.55 127.05 -6.9 133.95 -13.7 141.2 -17.1 140.3 -20.5 139.25 -21.75 137.6 L-24.4 133.5 Q-25.05 132.5 -27.45 131.85 -26.7 133.65 -26.7 135.95 -26.7 138.45 -28.3 141.2 -30.0 144.3 -32.3 144.3 L-33.95 143.85 Q-33.35 144.7 -33.15 145.95 -32.95 146.8 -32.95 151.3 L-31.3 151.65 -28.1 149.55 Q-25.35 147.45 -24.15 147.45 -22.3 147.45 -21.4 148.9 L-20.1 151.65 -19.75 151.65 Q-19.3 145.9 -13.75 145.9 -11.2 145.9 -9.9 147.45 L-9.2 148.55 Q-9.1 143.95 -3.75 140.9 1.3 138.1 6.4 138.1 10.2 138.1 12.65 140.0 15.35 142.1 17.0 147.0 L17.0 144.7 Q15.7 141.65 15.95 138.7 16.6 135.3 16.6 133.2 16.6 130.75 16.25 129.65 15.9 129.65 15.9 129.15 13.85 132.65 10.2 132.65" fill="#ffcc00" fill-rule="evenodd" stroke="none"/>
    <path d="M10.2 132.65 Q13.85 132.65 15.9 129.15 15.9 129.65 16.25 129.65 16.6 130.75 16.6 133.2 16.6 135.3 15.95 138.7 15.7 141.65 17.0 144.7 L17.0 147.0 Q15.35 142.1 12.65 140.0 10.2 138.1 6.4 138.1 1.3 138.1 -3.75 140.9 -9.1 143.95 -9.2 148.55 L-9.9 147.45 Q-11.2 145.9 -13.75 145.9 -19.3 145.9 -19.75 151.65 L-20.1 151.65 -21.4 148.9 Q-22.3 147.45 -24.15 147.45 -25.35 147.45 -28.1 149.55 L-31.3 151.65 -32.95 151.3 Q-32.95 146.8 -33.15 145.95 -33.35 144.7 -33.95 143.85 L-32.3 144.3 Q-30.0 144.3 -28.3 141.2 -26.7 138.45 -26.7 135.95 -26.7 133.65 -27.45 131.85 -25.05 132.5 -24.4 133.5 L-21.75 137.6 Q-20.5 139.25 -17.1 140.3 -13.7 141.2 -6.9 133.95 -0.55 127.05 1.0 121.1 0.25 124.95 3.0 128.6 5.95 132.65 10.2 132.65" fill="#ffff66" fill-rule="evenodd" stroke="none"/>
    <path d="M-43.15 121.2 Q-30.85 120.55 -22.95 129.55 -18.1 135.05 -16.6 137.9 -16.05 131.2 -6.6 122.75 2.85 114.3 4.15 107.9 4.5 110.35 4.4 115.3 L4.15 121.2 Q4.15 123.1 5.4 124.7 6.8 126.4 8.9 126.6 14.5 127.35 21.2 115.4 18.55 123.4 19.0 126.25 19.45 129.0 21.0 133.65 22.6 138.35 22.6 142.1 22.6 145.9 14.8 155.7 16.15 149.85 12.75 145.6 9.8 141.95 4.4 141.95 0.75 141.95 -2.95 146.8 -5.05 149.45 -8.1 154.9 L-8.45 154.95 Q-8.9 155.15 -8.9 155.7 -11.3 149.35 -13.95 150.1 -16.7 150.85 -18.9 157.15 -21.5 151.1 -23.95 150.75 -26.45 150.4 -28.35 152.7 -30.4 154.9 -32.05 154.9 -35.7 154.9 -36.8 152.5 -37.45 151.1 -37.65 146.8 -38.0 138.1 -43.9 134.95 -39.55 135.3 -37.65 136.35 -35.7 137.35 -34.05 139.45 L-32.4 139.45 Q-31.7 137.25 -32.4 133.75 -34.6 130.0 -37.65 126.4 -40.75 122.75 -43.15 121.2 L-43.8 120.8" fill="none" stroke="#ff6600" stroke-linecap="round" stroke-linejoin="round" stroke-width="1.0"/>
    <path d="M15.75 134.2 L16.2 136.0 Q16.2 137.05 15.75 137.35 L14.2 137.55 11.25 137.05 8.3 136.5 Q-4.8 136.5 -7.55 140.8 -8.3 142.0 -8.55 144.35 -8.8 146.4 -9.45 147.05 -10.05 146.85 -10.25 146.65 L-10.55 145.55 Q-10.55 144.3 -9.65 142.3 L-13.1 143.9 Q-16.4 145.35 -19.85 145.35 -21.4 145.35 -22.9 143.85 -24.25 142.5 -24.45 141.3 L-24.55 141.3 -25.5 144.5 Q-26.6 147.2 -28.9 147.2 -30.3 147.2 -30.4 146.5 -30.6 144.95 -30.75 144.7 L-30.7 144.3 -29.9 144.15 Q-29.3 144.15 -28.9 144.65 L-28.35 145.15 Q-27.05 143.75 -26.35 141.1 L-25.35 136.7 Q-25.7 136.4 -24.55 136.4 -23.8 136.4 -22.35 139.7 -20.9 142.95 -19.9 142.95 -11.6 142.95 -4.95 135.85 0.5 128.45 2.1 127.85 L2.25 128.0 2.35 128.8 1.9 130.25 Q1.45 131.15 1.45 131.7 1.45 132.8 2.1 133.25 3.1 133.9 5.95 133.9 7.25 133.9 9.6 133.15 11.95 132.4 13.6 132.4 15.05 132.4 15.75 134.2 M-1.9 135.0 L0.15 134.75 -0.5 133.9 -1.9 135.0" fill="#ffffcc" fill-rule="evenodd" stroke="none"/>
  </g>
</svg>
