<?xml version="1.0" encoding="UTF-8" standalone="no"?>
<svg xmlns:xlink="http://www.w3.org/1999/xlink" height="127.55px" width="113.0px" xmlns="http://www.w3.org/2000/svg">
  <g transform="matrix(1.0, 0.0, 0.0, 1.0, 70.5, 10.75)">
    <path d="M-21.15 -8.8 Q-18.7 -6.75 -12.0 -2.4 -3.65 3.1 0.85 7.45 5.35 11.75 9.05 19.5 12.7 27.2 12.9 29.05 13.1 30.85 15.25 35.7 17.4 40.5 16.2 25.8 24.65 40.95 25.9 48.55 27.15 56.15 27.2 59.55 L27.0 65.9 27.0 65.65 Q26.85 62.5 23.6 58.35 20.2 54.1 16.75 53.25 L16.75 53.5 Q17.85 56.6 18.95 60.7 20.75 67.6 21.15 73.45 21.55 79.3 18.6 90.7 L18.5 90.7 Q18.55 85.6 16.15 75.05 13.65 64.4 8.5 64.7 3.3 65.0 0.4 71.2 0.45 59.0 1.05 55.1 1.6 51.15 -0.9 45.85 -3.45 40.5 -7.35 37.75 L-18.2 30.95 Q-24.85 26.65 -27.35 23.05 L-25.35 24.15 Q-23.55 25.05 -21.95 25.05 -20.5 25.05 -19.55 24.1 -18.6 23.1 -18.6 21.45 -18.6 16.95 -22.9 10.05 -25.8 5.35 -29.45 2.0 -22.25 5.3 -18.4 8.9 -14.55 12.55 -14.25 13.25 -14.0 13.95 -12.65 14.45 -11.3 14.9 -10.35 14.45 -9.4 14.0 -10.15 10.5 -10.95 7.0 -13.85 1.7 -16.8 -3.65 -21.15 -8.8 M-10.55 2.5 Q-5.7 5.7 -5.7 13.05 -5.7 16.2 -6.3 17.25 -6.9 18.35 -8.8 18.35 -11.0 18.35 -14.05 16.7 L-16.25 15.55 -14.8 17.8 Q-13.7 19.55 -13.7 21.55 -13.7 23.9 -15.0 25.6 -16.25 27.35 -18.1 27.4 -11.3 27.6 -3.55 36.65 1.3 42.25 2.35 45.05 2.95 46.8 2.95 52.05 L2.9 56.65 1.9 62.2 1.9 62.4 Q2.55 61.25 4.2 60.1 6.05 58.8 7.7 58.8 13.1 58.8 15.8 64.9 17.25 68.25 19.05 75.75 18.5 72.8 17.85 67.5 L16.9 60.3 15.4 56.05 Q14.15 52.75 14.15 51.95 14.15 51.1 15.0 50.6 15.7 50.15 16.65 50.15 18.65 50.15 21.35 52.2 L24.05 54.8 24.05 53.55 Q23.0 49.05 21.1 44.65 L18.25 38.4 18.35 40.45 Q18.35 42.6 18.15 43.2 17.8 44.25 16.45 44.25 13.3 44.25 10.1 32.8 6.85 21.35 4.9 18.55 L-0.95 9.8 Q-4.85 3.85 -10.3 2.5 L-10.55 2.5 M-63.3 91.75 Q-63.15 91.85 -63.05 91.9 -61.95 93.9 -61.95 98.55 -61.9 103.5 -61.15 105.55 -60.5 107.3 -58.2 110.85 -56.2 113.95 -55.65 116.3 -56.6 114.6 -59.2 113.65 -62.45 112.45 -64.5 110.55 -66.2 109.0 -67.35 106.8 -68.75 104.1 -68.8 101.25 L-69.15 94.15 Q-69.45 91.25 -70.0 89.7 L-68.9 90.95 Q-67.85 92.25 -67.35 93.6 -67.1 94.25 -66.9 96.45 -66.55 98.35 -65.3 98.35 -64.85 98.35 -64.0 96.35 -62.95 94.0 -63.3 91.75 M-64.95 108.15 L-61.6 110.45 -60.0 111.5 Q-62.15 108.75 -62.9 105.35 -63.45 102.7 -63.25 97.85 L-64.95 102.7 Q-66.35 101.7 -67.05 100.4 -66.8 101.35 -66.65 103.3 -66.45 106.65 -64.95 108.15 M32.25 74.05 L31.9 71.0 Q34.3 74.5 35.45 79.1 36.55 83.7 37.0 88.75 37.1 88.95 42.0 82.15 L42.0 82.4 Q40.8 85.8 39.6 92.0 L39.8 97.1 Q39.75 99.3 38.9 101.5 35.55 110.35 26.25 115.15 31.35 107.8 32.1 105.6 32.85 103.35 32.85 100.6 32.8 97.85 30.85 97.55 28.85 97.25 27.85 98.05 L26.0 99.35 Q27.8 97.7 30.4 92.75 32.95 87.75 32.75 82.2 L32.25 74.05 M36.05 92.8 Q35.15 91.7 34.5 88.2 L34.4 87.55 Q34.1 89.65 33.25 91.35 32.4 93.1 30.6 94.9 L30.6 95.1 Q33.05 94.05 34.4 96.4 35.45 98.25 35.45 101.1 35.45 103.0 34.9 105.05 34.45 106.95 33.65 108.25 37.15 103.95 37.6 98.8 38.25 90.55 38.8 88.8 L37.5 90.5 36.05 92.8" fill="#ffcc00" fill-rule="evenodd" stroke="none"/>
    <path d="M-10.55 2.5 L-10.3 2.5 Q-4.85 3.85 -0.95 9.8 L4.9 18.55 Q6.85 21.35 10.1 32.8 13.3 44.25 16.45 44.25 17.8 44.25 18.15 43.2 18.35 42.6 18.35 40.45 L18.25 38.4 21.1 44.65 Q23.0 49.05 24.05 53.55 L24.05 54.8 21.35 52.2 Q18.65 50.15 16.65 50.15 15.7 50.15 15.0 50.6 14.15 51.1 14.15 51.95 14.15 52.75 15.4 56.05 L16.9 60.3 17.85 67.5 Q18.5 72.8 19.05 75.75 17.25 68.25 15.8 64.9 13.1 58.8 7.7 58.8 6.05 58.8 4.2 60.1 2.55 61.25 1.9 62.4 L1.9 62.2 2.9 56.65 2.95 52.05 Q2.95 46.8 2.35 45.05 1.3 42.25 -3.55 36.65 -11.3 27.6 -18.1 27.4 -16.25 27.35 -15.0 25.6 -13.7 23.9 -13.7 21.55 -13.7 19.55 -14.8 17.8 L-16.25 15.55 -14.05 16.7 Q-11.0 18.35 -8.8 18.35 -6.9 18.35 -6.3 17.25 -5.7 16.2 -5.7 13.05 -5.7 5.7 -10.55 2.5 M-64.95 108.15 Q-66.45 106.65 -66.65 103.3 -66.8 101.35 -67.05 100.4 -66.35 101.7 -64.95 102.7 L-63.25 97.85 Q-63.45 102.7 -62.9 105.35 -62.15 108.75 -60.0 111.5 L-61.6 110.45 -64.95 108.15 M36.05 92.8 L37.5 90.5 38.8 88.8 Q38.25 90.55 37.6 98.8 37.15 103.95 33.65 108.25 34.45 106.95 34.9 105.05 35.45 103.0 35.45 101.1 35.45 98.25 34.4 96.4 33.05 94.05 30.6 95.1 L30.6 94.9 Q32.4 93.1 33.25 91.35 34.1 89.65 34.4 87.55 L34.5 88.2 Q35.15 91.7 36.05 92.8" fill="#ffff66" fill-rule="evenodd" stroke="none"/>
    <path d="M-21.15 -8.8 L-22.4 -10.0 -22.4 -10.25 -21.15 -8.8 Q-18.7 -6.75 -12.0 -2.4 -3.65 3.1 0.85 7.45 5.35 11.75 9.05 19.5 12.7 27.2 12.9 29.05 13.1 30.85 15.25 35.7 17.4 40.5 16.2 25.8 24.65 40.95 25.9 48.55 27.15 56.15 27.2 59.55 L27.0 65.9 27.0 65.65 Q26.85 62.5 23.6 58.35 20.2 54.1 16.75 53.25 L16.75 53.5 Q17.85 56.6 18.95 60.7 20.75 67.6 21.15 73.45 21.55 79.3 18.6 90.7 M18.5 90.7 Q18.55 85.6 16.15 75.05 13.65 64.4 8.5 64.7 3.3 65.0 0.4 71.2 0.45 59.0 1.05 55.1 1.6 51.15 -0.9 45.85 -3.45 40.5 -7.35 37.75 L-18.2 30.95 Q-24.85 26.65 -27.35 23.05 L-27.65 22.9 -27.65 22.65 -27.35 23.05 -25.35 24.15 Q-23.55 25.05 -21.95 25.05 -20.5 25.05 -19.55 24.1 -18.6 23.1 -18.6 21.45 -18.6 16.95 -22.9 10.05 -25.8 5.35 -29.45 2.0 -22.25 5.3 -18.4 8.9 -14.55 12.55 -14.25 13.25 -14.0 13.95 -12.65 14.45 -11.3 14.9 -10.35 14.45 -9.4 14.0 -10.15 10.5 -10.95 7.0 -13.85 1.7 -16.8 -3.65 -21.15 -8.8 M-63.3 91.75 Q-62.95 94.0 -64.0 96.35 -64.85 98.35 -65.3 98.35 -66.55 98.35 -66.9 96.45 -67.1 94.25 -67.35 93.6 -67.85 92.25 -68.9 90.95 L-70.0 89.7 Q-69.45 91.25 -69.15 94.15 L-68.8 101.25 Q-68.75 104.1 -67.35 106.8 -66.2 109.0 -64.5 110.55 -62.45 112.45 -59.2 113.65 -56.6 114.6 -55.65 116.3 -56.2 113.95 -58.2 110.85 -60.5 107.3 -61.15 105.55 -61.9 103.5 -61.95 98.55 -61.95 93.9 -63.05 91.9 -63.15 91.85 -63.3 91.75 M32.25 74.05 L32.75 82.2 Q32.95 87.75 30.4 92.75 27.8 97.7 26.0 99.35 L27.85 98.05 Q28.85 97.25 30.85 97.55 32.8 97.85 32.85 100.6 32.85 103.35 32.1 105.6 31.35 107.8 26.25 115.15 35.55 110.35 38.9 101.5 39.75 99.3 39.8 97.1 L39.6 92.0 Q40.8 85.8 42.0 82.4 L42.0 82.15 Q37.1 88.95 37.0 88.75 36.55 83.7 35.45 79.1 34.3 74.5 31.9 71.0 L32.25 74.05 Z" fill="none" stroke="#ff6600" stroke-linecap="round" stroke-linejoin="round" stroke-width="1.0"/>
    <path d="M8.75 25.8 Q9.85 17.85 10.35 16.0 L10.35 15.8 Q4.35 28.25 -0.9 34.25 -8.0 42.35 -16.2 42.35 -18.65 42.35 -20.25 41.1 -21.7 39.95 -22.0 38.9 -22.35 37.85 -22.15 37.0 L-21.35 34.7 Q-20.75 33.25 -20.65 30.25 -21.6 33.0 -25.95 36.8 -30.35 40.55 -32.0 42.75 -33.7 44.9 -35.6 48.95 L-38.8 56.5 Q-40.0 59.5 -41.95 66.65 -43.8 73.15 -44.7 75.05 -48.0 81.95 -48.25 86.0 -45.75 76.95 -37.8 76.95 -34.8 76.95 -32.8 80.5 -31.2 83.3 -31.0 86.55 L-30.75 83.15 -30.35 79.15 Q-30.35 77.2 -32.0 73.5 -33.7 69.8 -33.7 65.35 -33.7 58.7 -30.15 53.75 -25.95 47.85 -18.5 47.85 -16.8 47.85 -15.8 48.7 -14.95 49.4 -14.95 50.25 -14.95 51.55 -15.4 52.4 L-16.45 53.75 -16.45 53.95 Q-12.4 52.25 -6.2 47.45 -0.05 42.65 3.55 38.15 7.15 33.6 8.75 25.8 M0.8 25.3 Q12.55 12.0 11.9 0.05 12.3 1.05 13.0 6.45 13.8 12.45 13.8 15.85 13.8 27.35 9.35 35.5 5.05 43.3 -4.0 49.25 -7.45 51.5 -17.6 56.2 -21.6 58.4 -23.75 60.85 -27.1 63.9 -22.95 58.4 L-19.1 53.5 -19.1 51.1 -19.55 51.1 Q-23.9 54.1 -27.0 58.0 -30.55 62.45 -30.55 66.05 -30.55 69.55 -29.35 72.4 -28.15 75.25 -28.15 80.6 -28.15 88.25 -29.6 91.85 -31.8 97.2 -33.0 105.35 L-33.4 102.5 Q-32.85 94.55 -33.15 89.6 -33.75 80.25 -38.4 80.05 -43.05 79.85 -46.25 87.9 -49.4 95.85 -49.1 102.6 -49.7 101.45 -50.4 97.5 -51.1 93.55 -51.1 88.25 -51.1 82.95 -47.3 70.5 L-41.55 51.6 Q-39.1 43.55 -26.6 32.25 L-17.65 24.3 Q-14.35 21.25 -12.85 19.3 L-13.5 22.65 Q-14.2 25.65 -17.0 29.35 -19.85 33.0 -19.8 34.95 -19.8 36.9 -19.45 37.45 -19.1 37.95 -16.45 38.5 -13.85 39.05 -8.95 34.95 -4.05 30.8 0.8 25.3" fill="#ffcc00" fill-rule="evenodd" stroke="none"/>
    <path d="M8.75 25.8 Q7.15 33.6 3.55 38.15 -0.05 42.65 -6.2 47.45 -12.4 52.25 -16.45 53.95 L-16.45 53.75 -15.4 52.4 Q-14.95 51.55 -14.95 50.25 -14.95 49.4 -15.8 48.7 -16.8 47.85 -18.5 47.85 -25.95 47.85 -30.15 53.75 -33.7 58.7 -33.7 65.35 -33.7 69.8 -32.0 73.5 -30.35 77.2 -30.35 79.15 L-30.75 83.15 -31.0 86.55 Q-31.2 83.3 -32.8 80.5 -34.8 76.95 -37.8 76.95 -45.75 76.95 -48.25 86.0 -48.0 81.95 -44.7 75.05 -43.8 73.15 -41.95 66.65 -40.0 59.5 -38.8 56.5 L-35.6 48.95 Q-33.7 44.9 -32.0 42.75 -30.35 40.55 -25.95 36.8 -21.6 33.0 -20.65 30.25 -20.75 33.25 -21.35 34.7 L-22.15 37.0 Q-22.35 37.85 -22.0 38.9 -21.7 39.95 -20.25 41.1 -18.65 42.35 -16.2 42.35 -8.0 42.35 -0.9 34.25 4.35 28.25 10.35 15.8 L10.35 16.0 Q9.85 17.85 8.75 25.8" fill="#ffff66" fill-rule="evenodd" stroke="none"/>
    <path d="M0.8 25.3 Q-4.05 30.8 -8.95 34.95 -13.85 39.05 -16.45 38.5 -19.1 37.95 -19.45 37.45 -19.8 36.9 -19.8 34.95 -19.85 33.0 -17.0 29.35 -14.2 25.65 -13.5 22.65 L-12.85 19.3 Q-14.35 21.25 -17.65 24.3 L-26.6 32.25 Q-39.1 43.55 -41.55 51.6 L-47.3 70.5 Q-51.1 82.95 -51.1 88.25 -51.1 93.55 -50.4 97.5 -49.7 101.45 -49.1 102.6 -49.4 95.85 -46.25 87.9 -43.05 79.85 -38.4 80.05 -33.75 80.25 -33.15 89.6 -32.85 94.55 -33.4 102.5 L-33.0 105.35 Q-31.8 97.2 -29.6 91.85 -28.15 88.25 -28.15 80.6 -28.15 75.25 -29.35 72.4 -30.55 69.55 -30.55 66.05 -30.55 62.45 -27.0 58.0 -23.9 54.1 -19.55 51.1 L-19.1 51.1 -19.1 53.5 -22.95 58.4 Q-27.1 63.9 -23.75 60.85 -21.6 58.4 -17.6 56.2 -7.45 51.5 -4.0 49.25 5.05 43.3 9.35 35.5 13.8 27.35 13.8 15.85 13.8 12.45 13.0 6.45 12.3 1.05 11.9 0.05 12.55 12.0 0.8 25.3 Z" fill="none" stroke="#ff6600" stroke-linecap="round" stroke-linejoin="round" stroke-width="1.0"/>
    <path d="M5.95 27.8 L6.05 28.55 Q6.05 30.95 -0.45 38.6 -7.45 46.9 -11.6 46.9 L-14.3 46.35 -17.25 45.65 -20.6 45.1 -22.55 44.8 Q-29.5 44.8 -32.3 55.2 -33.7 60.45 -33.75 65.9 -33.75 68.75 -32.75 72.5 L-31.8 76.5 -31.9 77.65 -32.15 78.15 -32.15 78.35 -33.05 78.5 Q-34.35 78.5 -35.15 76.0 L-36.0 72.8 -38.85 75.3 Q-40.55 77.05 -41.55 77.05 L-42.9 76.8 -43.0 75.55 -40.55 69.25 Q-37.9 62.7 -37.15 56.4 -36.75 52.8 -32.5 46.8 L-25.75 38.0 -25.1 38.15 Q-24.9 38.2 -24.9 39.0 -24.9 39.8 -25.15 40.1 L-25.85 40.8 -25.85 41.05 -22.6 41.4 -15.5 42.0 -15.05 42.5 Q-14.85 42.85 -14.15 42.85 -8.1 42.85 -2.0 35.7 L2.2 30.55 Q4.4 28.05 5.8 27.65 L5.95 27.8 M-26.8 43.6 L-27.0 43.0 -28.4 44.6 -28.65 44.8 Q-28.15 44.75 -27.6 44.35 L-26.8 43.6" fill="#ffffcc" fill-rule="evenodd" stroke="none"/>
    <path d="M-2.25 16.85 L-1.5 16.35 -2.25 15.0 -2.25 16.85 M-2.75 18.55 L-3.3 20.4 -3.75 22.25 -3.75 22.5 -2.95 20.35 Q-2.65 19.15 -2.75 18.4 L-2.75 18.55 M-10.05 23.4 L-8.0 23.15 -7.0 23.3 -6.1 23.2 -6.15 23.05 Q-5.25 17.4 -4.8 9.3 -2.15 10.35 -0.4 13.05 1.25 15.6 1.25 18.25 1.25 20.7 -0.65 23.4 L-4.8 28.4 -5.75 26.85 Q-5.8 26.1 -6.0 25.6 -7.15 25.55 -8.4 24.65 L-10.05 23.4" fill="#ffffcc" fill-rule="evenodd" stroke="none"/>
    <path d="M3.75 46.3 Q5.3 45.6 7.45 42.95 9.55 40.35 11.65 39.6 12.3 39.85 12.5 40.05 12.85 40.45 12.85 41.25 L12.4 43.6 11.9 46.3 17.0 46.4 17.85 46.6 Q18.25 46.75 18.25 47.55 18.25 48.35 17.8 48.65 L17.0 48.85 12.75 49.1 11.85 49.3 Q11.5 49.4 11.5 50.15 L16.25 61.5 16.15 62.25 16.0 62.75 15.05 63.0 Q14.0 63.0 11.9 58.9 9.85 54.8 9.35 54.8 8.0 54.8 6.9 56.1 L5.3 57.6 4.45 57.3 Q4.1 57.05 4.1 56.25 4.1 55.45 4.85 53.55 5.55 51.65 5.55 50.8 L4.65 48.35 3.75 46.3" fill="#ffffcc" fill-rule="evenodd" stroke="none"/>
  </g>
</svg>
