<?xml version="1.0" encoding="UTF-8" standalone="no"?>
<svg xmlns:xlink="http://www.w3.org/1999/xlink" height="150.5px" width="143.95px" xmlns="http://www.w3.org/2000/svg">
  <g transform="matrix(1.0, 0.0, 0.0, 1.0, 83.8, 49.7)">
    <path d="M54.65 -14.05 L54.65 -11.7 Q56.45 -12.35 59.65 -17.1 57.25 -12.5 56.05 -7.35 L54.55 -1.15 Q53.55 2.1 51.8 4.45 49.25 7.9 43.1 12.3 36.25 17.2 32.0 17.85 L31.75 17.85 Q33.95 16.95 35.65 14.3 L37.75 10.2 36.45 10.2 Q30.45 9.85 18.95 18.65 7.45 27.45 1.15 39.6 1.0 37.75 1.9 33.75 2.8 29.5 2.8 28.25 2.8 26.3 2.3 25.55 1.8 24.8 0.45 24.8 -1.1 24.8 -3.45 26.7 L-7.85 30.05 Q-10.0 31.3 -12.95 32.0 L-16.1 32.65 Q-12.9 30.05 -7.3 20.6 -1.75 11.1 3.8 6.8 9.35 2.45 19.75 -1.45 26.65 -4.05 33.9 -5.2 31.0 -4.0 28.35 -1.55 25.25 1.3 25.25 3.4 25.25 5.2 30.3 5.2 37.45 5.2 44.95 -1.75 50.5 -6.9 54.65 -14.05 M46.95 -0.6 Q43.5 3.8 41.1 4.6 L34.7 6.55 Q30.5 7.55 26.75 7.55 20.65 7.55 20.65 4.6 20.65 3.15 23.45 0.4 L26.0 -1.9 Q24.15 -1.9 15.55 2.6 6.3 7.4 3.55 10.5 1.85 12.35 0.0 15.65 L-2.95 20.65 Q-4.15 22.35 -6.8 25.0 L-9.8 28.05 Q-6.45 25.6 -3.45 24.1 0.1 22.35 2.4 22.35 4.5 22.35 5.25 23.15 5.9 23.85 5.9 25.6 5.9 26.85 5.15 28.9 L4.65 30.35 Q12.85 16.5 21.5 11.4 28.35 7.35 39.1 7.35 40.05 7.35 40.25 8.0 L40.25 9.25 Q40.25 10.75 39.75 11.65 L37.5 14.1 37.5 14.3 Q45.8 7.8 48.8 3.9 52.95 -1.4 53.75 -8.85 L46.95 -0.6 M32.95 90.8 L33.2 90.35 34.1 89.55 34.35 91.75 Q34.35 93.3 33.4 95.85 L31.55 99.9 32.0 94.5 Q32.2 92.15 32.95 90.8 M42.3 51.4 L44.0 54.4 Q45.25 56.2 45.1 58.2 46.7 58.45 47.45 56.35 48.05 53.75 48.5 52.95 48.5 55.5 49.35 59.75 50.15 64.0 50.2 67.35 50.2 70.65 48.45 75.05 46.7 79.45 43.8 82.45 L46.3 76.5 Q47.6 72.75 47.3 69.8 47.0 66.8 45.25 66.8 44.55 66.8 43.3 68.15 L40.8 70.85 40.8 67.55 42.3 62.15 Q43.0 59.7 43.0 55.8 L42.95 53.4 42.3 51.4 M44.65 59.9 L44.7 60.2 Q44.7 62.95 42.4 66.85 L42.4 67.05 Q42.75 66.0 43.85 65.4 44.75 64.95 45.65 64.95 47.45 64.95 48.3 66.4 L48.7 67.4 48.75 66.6 Q48.75 64.4 48.25 62.25 L47.65 59.05 Q47.65 60.2 46.85 62.85 45.95 62.65 45.15 60.85 L44.65 59.9 M-54.3 -24.9 Q-56.1 -22.6 -59.1 -22.6 -64.6 -22.6 -68.45 -29.45 -70.35 -32.8 -70.95 -35.85 L-71.05 -33.65 Q-71.05 -25.15 -65.6 -20.0 -63.9 -18.4 -61.75 -17.15 L-59.65 -16.05 -59.9 -17.35 Q-59.9 -19.05 -57.55 -20.5 -55.15 -21.95 -52.3 -21.95 -46.3 -21.95 -42.05 -18.5 -38.15 -15.3 -37.75 -11.05 -37.75 -14.15 -32.65 -14.15 -29.5 -14.15 -26.95 -12.4 -24.3 -10.65 -23.85 -8.05 L-23.85 -7.85 Q-23.6 -8.5 -23.6 -10.15 -23.6 -16.55 -28.05 -19.45 -30.75 -21.2 -36.9 -22.2 -50.25 -24.35 -52.95 -31.25 -52.35 -27.4 -54.3 -24.9 M-54.8 -35.8 Q-54.95 -40.1 -54.25 -42.3 L-54.0 -41.8 Q-54.2 -31.1 -45.0 -26.85 -42.0 -25.45 -36.85 -24.3 L-29.35 -22.45 Q-25.6 -21.2 -23.35 -17.3 -21.4 -13.9 -21.25 -9.8 -21.1 -5.8 -19.45 -1.65 -17.9 2.35 -17.9 6.5 -17.9 9.05 -18.15 10.2 L-18.15 9.95 Q-19.05 3.7 -22.35 -2.15 -26.7 -9.8 -32.4 -9.8 -35.35 -9.8 -37.2 -7.7 -38.7 -6.0 -39.0 -3.3 -38.8 -8.8 -41.0 -13.0 -44.05 -18.85 -50.75 -18.85 -54.35 -18.85 -56.4 -15.95 -58.3 -13.3 -57.55 -10.5 L-60.95 -11.9 Q-64.15 -13.1 -66.35 -14.7 -73.55 -20.1 -73.55 -32.75 -73.55 -37.6 -72.1 -42.05 L-70.25 -47.65 Q-69.65 -42.85 -67.45 -36.85 -63.45 -26.05 -57.5 -26.05 -55.6 -26.05 -55.0 -27.45 -54.5 -28.6 -54.5 -31.9 L-54.8 -35.8 M-29.1 11.4 L-28.9 11.4 Q-24.35 12.65 -21.65 16.5 -19.1 20.15 -19.1 25.0 -19.1 27.8 -20.05 31.05 -19.95 29.3 -21.4 27.65 -22.9 26.0 -25.6 25.0 -28.3 24.0 -28.3 26.05 -28.35 28.1 -29.45 28.1 -30.6 28.1 -31.5 26.25 L-32.95 22.15 Q-34.5 17.85 -37.75 16.4 -34.85 16.5 -32.15 18.1 -29.45 19.65 -28.1 19.85 L-26.4 19.75 Q-26.0 19.4 -26.0 17.6 -26.0 16.0 -26.65 14.9 L-29.1 11.4 M-30.8 22.95 L-30.55 26.35 Q-29.8 23.65 -29.25 23.1 -28.65 22.55 -26.65 22.55 -25.5 22.55 -23.2 23.9 L-20.65 25.7 -20.45 25.7 Q-21.2 21.1 -25.5 15.8 L-25.7 15.8 Q-23.8 18.15 -23.8 20.3 -23.8 21.1 -26.55 21.5 L-29.8 21.7 -31.0 21.5 -30.8 22.95 M-78.25 37.95 Q-76.6 39.55 -76.2 43.35 -75.95 45.5 -76.45 47.7 -76.95 49.85 -75.8 53.1 L-74.15 58.0 Q-75.2 55.8 -77.4 55.8 -79.5 55.8 -79.5 57.75 L-79.25 61.55 Q-79.25 62.45 -78.05 66.25 L-78.05 66.6 Q-78.8 65.95 -80.0 63.45 -81.65 60.15 -81.65 57.35 L-81.2 53.2 Q-80.75 50.85 -80.75 49.5 -80.75 47.45 -81.85 44.25 L-82.45 42.55 -80.35 44.4 Q-78.6 46.4 -78.8 47.95 L-78.55 47.95 Q-78.0 47.35 -77.9 46.5 L-77.85 43.9 Q-77.85 41.6 -78.25 37.95 M-77.7 49.45 Q-78.1 50.8 -78.7 50.8 L-79.7 50.45 Q-79.75 52.25 -80.05 53.75 L-80.95 57.35 -80.95 58.2 -80.75 58.2 Q-81.05 56.7 -80.0 55.1 -79.1 53.75 -78.5 53.75 -77.85 53.75 -77.65 54.15 L-77.15 54.85 Q-77.65 53.65 -77.45 51.25 -77.25 48.4 -77.45 47.25 -77.35 48.35 -77.7 49.45 M-13.75 52.05 L-19.2 57.95 Q-22.55 61.8 -25.75 61.8 -29.15 61.8 -32.2 63.15 -35.7 64.7 -36.5 67.3 -36.65 65.05 -37.05 64.5 -37.5 63.95 -39.15 63.95 -40.6 63.95 -42.4 65.45 L-43.25 66.3 Q-42.9 64.2 -41.4 61.65 -39.3 58.1 -36.75 56.8 L-36.5 56.8 -36.75 57.8 -37.0 58.95 Q-37.0 59.45 -36.5 59.85 L-30.0 52.85 Q-24.85 47.5 -22.4 47.9 -24.2 48.65 -25.45 50.0 -27.0 51.7 -27.0 53.65 -27.0 54.9 -25.75 55.55 L-23.6 56.05 Q-20.9 56.05 -17.3 54.2 -15.25 53.2 -13.75 52.05 M-75.9 72.25 L-73.6 75.4 Q-72.3 77.6 -71.55 80.65 -72.3 79.55 -74.1 77.8 -75.75 76.15 -75.9 72.25 M-28.45 58.2 Q-28.85 57.85 -28.85 56.8 L-28.25 53.7 Q-34.05 61.35 -36.65 61.35 -37.55 61.35 -38.05 60.9 L-38.35 60.55 -40.05 63.05 Q-39.65 62.8 -38.85 62.5 L-37.1 62.0 Q-36.25 62.0 -36.1 62.8 L-35.8 64.3 Q-34.3 61.5 -28.55 60.65 -22.7 59.75 -20.85 56.7 -21.75 57.55 -23.7 58.15 L-26.55 58.6 Q-28.0 58.6 -28.45 58.2" fill="#ffcc00" fill-rule="evenodd" stroke="none"/>
    <path d="M46.95 -0.6 L53.75 -8.85 Q52.95 -1.4 48.8 3.9 45.8 7.8 37.5 14.3 L37.5 14.1 39.75 11.65 Q40.25 10.75 40.25 9.25 L40.25 8.0 Q40.05 7.35 39.1 7.35 28.35 7.35 21.5 11.4 12.85 16.5 4.65 30.35 L5.15 28.9 Q5.9 26.85 5.9 25.6 5.9 23.85 5.25 23.15 4.5 22.35 2.4 22.35 0.1 22.35 -3.45 24.1 -6.45 25.6 -9.8 28.05 L-6.8 25.0 Q-4.15 22.35 -2.95 20.65 L0.0 15.65 Q1.85 12.35 3.55 10.5 6.3 7.4 15.55 2.6 24.15 -1.9 26.0 -1.9 L23.45 0.4 Q20.65 3.15 20.65 4.6 20.65 7.55 26.75 7.55 30.5 7.55 34.7 6.55 L41.1 4.6 Q43.5 3.8 46.95 -0.6 M44.65 59.9 L45.15 60.85 Q45.95 62.65 46.85 62.85 47.65 60.2 47.65 59.05 L48.25 62.25 Q48.75 64.4 48.75 66.6 L48.7 67.4 48.3 66.4 Q47.45 64.95 45.65 64.95 44.75 64.95 43.85 65.4 42.75 66.0 42.4 67.05 L42.4 66.85 Q44.7 62.95 44.7 60.2 L44.65 59.9 M-54.3 -24.9 Q-52.35 -27.4 -52.95 -31.25 -50.25 -24.35 -36.9 -22.2 -30.75 -21.2 -28.05 -19.45 -23.6 -16.55 -23.6 -10.15 -23.6 -8.5 -23.85 -7.85 L-23.85 -8.05 Q-24.3 -10.65 -26.95 -12.4 -29.5 -14.15 -32.65 -14.15 -37.75 -14.15 -37.75 -11.05 -38.15 -15.3 -42.05 -18.5 -46.3 -21.95 -52.3 -21.95 -55.15 -21.95 -57.55 -20.5 -59.9 -19.05 -59.9 -17.35 L-59.65 -16.05 -61.75 -17.15 Q-63.9 -18.4 -65.6 -20.0 -71.05 -25.15 -71.05 -33.65 L-70.95 -35.85 Q-70.35 -32.8 -68.45 -29.45 -64.6 -22.6 -59.1 -22.6 -56.1 -22.6 -54.3 -24.9 M-30.8 22.95 L-31.0 21.5 -29.8 21.7 -26.55 21.5 Q-23.8 21.1 -23.8 20.3 -23.8 18.15 -25.7 15.8 L-25.5 15.8 Q-21.2 21.1 -20.45 25.7 L-20.65 25.7 -23.2 23.9 Q-25.5 22.55 -26.65 22.55 -28.65 22.55 -29.25 23.1 -29.8 23.65 -30.55 26.35 L-30.8 22.95 M-77.7 49.45 Q-77.35 48.35 -77.45 47.25 -77.25 48.4 -77.45 51.25 -77.65 53.65 -77.15 54.85 L-77.65 54.15 Q-77.85 53.75 -78.5 53.75 -79.1 53.75 -80.0 55.1 -81.05 56.7 -80.75 58.2 L-80.95 58.2 -80.95 57.35 -80.05 53.75 Q-79.75 52.25 -79.7 50.45 L-78.7 50.8 Q-78.1 50.8 -77.7 49.45 M-28.45 58.2 Q-28.0 58.6 -26.55 58.6 L-23.7 58.15 Q-21.75 57.55 -20.85 56.7 -22.7 59.75 -28.55 60.65 -34.3 61.5 -35.8 64.3 L-36.1 62.8 Q-36.25 62.0 -37.1 62.0 L-38.85 62.5 Q-39.65 62.8 -40.05 63.05 L-38.35 60.55 -38.05 60.9 Q-37.55 61.35 -36.65 61.35 -34.05 61.35 -28.25 53.7 L-28.85 56.8 Q-28.85 57.85 -28.45 58.2" fill="#ffff66" fill-rule="evenodd" stroke="none"/>
    <path d="M54.65 -14.05 L54.65 -11.7 Q56.45 -12.35 59.65 -17.1 57.25 -12.5 56.05 -7.35 L54.55 -1.15 Q53.55 2.1 51.8 4.45 49.25 7.9 43.1 12.3 36.25 17.2 32.0 17.85 L31.75 17.85 Q33.95 16.95 35.65 14.3 L37.75 10.2 36.45 10.2 Q30.45 9.85 18.95 18.65 7.45 27.45 1.15 39.6 1.0 37.75 1.9 33.75 2.8 29.5 2.8 28.25 2.8 26.3 2.3 25.55 1.8 24.8 0.45 24.8 -1.1 24.8 -3.45 26.7 L-7.85 30.05 Q-10.0 31.3 -12.95 32.0 L-16.1 32.65 Q-12.9 30.05 -7.3 20.6 -1.75 11.1 3.8 6.8 9.35 2.45 19.75 -1.45 26.65 -4.05 33.9 -5.2 L34.8 -5.55 34.8 -5.35 33.9 -5.2 Q31.0 -4.0 28.35 -1.55 25.25 1.3 25.25 3.4 25.25 5.2 30.3 5.2 37.45 5.2 44.95 -1.75 50.5 -6.9 54.65 -14.05 L54.65 -14.3 55.85 -16.45 55.85 -16.25 54.65 -14.05 M33.2 90.35 L33.8 88.6 34.05 87.4 34.1 86.85 M32.95 90.8 Q32.2 92.15 32.0 94.5 L31.55 99.9 33.4 95.85 Q34.35 93.3 34.35 91.75 L34.1 89.55 33.2 90.35 32.95 90.8 M34.1 89.55 L34.05 87.4 M42.3 51.4 L42.95 53.4 43.0 55.8 Q43.0 59.7 42.3 62.15 L40.8 67.55 40.8 70.85 43.3 68.15 Q44.55 66.8 45.25 66.8 47.0 66.8 47.3 69.8 47.6 72.75 46.3 76.5 L43.8 82.45 Q46.7 79.45 48.45 75.05 50.2 70.65 50.2 67.35 50.15 64.0 49.35 59.75 48.5 55.5 48.5 52.95 48.05 53.75 47.45 56.35 46.7 58.45 45.1 58.2 45.25 56.2 44.0 54.4 L42.3 51.4 M43.8 82.45 L43.75 82.8 43.5 83.05 43.8 82.45 M31.55 99.9 L31.5 100.05 31.25 100.3 31.55 99.9 M-54.8 -35.8 L-54.5 -31.9 Q-54.5 -28.6 -55.0 -27.45 -55.6 -26.05 -57.5 -26.05 -63.45 -26.05 -67.45 -36.85 -69.65 -42.85 -70.25 -47.65 L-72.1 -42.05 Q-73.55 -37.6 -73.55 -32.75 -73.55 -20.1 -66.35 -14.7 -64.15 -13.1 -60.95 -11.9 L-57.55 -10.5 Q-58.3 -13.3 -56.4 -15.95 -54.35 -18.85 -50.75 -18.85 -44.05 -18.85 -41.0 -13.0 -38.8 -8.8 -39.0 -3.3 -38.7 -6.0 -37.2 -7.7 -35.35 -9.8 -32.4 -9.8 -26.7 -9.8 -22.35 -2.15 -19.05 3.7 -18.15 9.95 L-18.15 10.2 Q-17.9 9.05 -17.9 6.5 -17.9 2.35 -19.45 -1.65 -21.1 -5.8 -21.25 -9.8 -21.4 -13.9 -23.35 -17.3 -25.6 -21.2 -29.35 -22.45 L-36.85 -24.3 Q-42.0 -25.45 -45.0 -26.85 -54.2 -31.1 -54.0 -41.8 L-54.25 -42.3 Q-54.95 -40.1 -54.8 -35.8 M-69.75 -49.2 L-70.25 -47.65 M-39.0 -3.3 L-39.15 -1.7 M-29.1 11.4 L-26.65 14.9 Q-26.0 16.0 -26.0 17.6 -26.0 19.4 -26.4 19.75 L-28.1 19.85 Q-29.45 19.65 -32.15 18.1 -34.85 16.5 -37.75 16.4 -34.5 17.85 -32.95 22.15 L-31.5 26.25 Q-30.6 28.1 -29.45 28.1 -28.35 28.1 -28.3 26.05 -28.3 24.0 -25.6 25.0 -22.9 26.0 -21.4 27.65 -19.95 29.3 -20.05 31.05 -19.1 27.8 -19.1 25.0 -19.1 20.15 -21.65 16.5 -24.35 12.65 -28.9 11.4 L-29.1 11.4 M-78.25 37.95 L-78.3 37.9 -78.3 37.7 -78.25 37.95 Q-76.6 39.55 -76.2 43.35 -75.95 45.5 -76.45 47.7 -76.95 49.85 -75.8 53.1 L-74.15 58.0 Q-75.2 55.8 -77.4 55.8 -79.5 55.8 -79.5 57.75 L-79.25 61.55 Q-79.25 62.45 -78.05 66.25 L-78.05 66.6 Q-78.8 65.95 -80.0 63.45 -81.65 60.15 -81.65 57.35 L-81.2 53.2 Q-80.75 50.85 -80.75 49.5 -80.75 47.45 -81.85 44.25 L-82.45 42.55 Q-82.9 42.3 -83.3 42.2 M-78.25 37.95 Q-77.85 41.6 -77.85 43.9 L-77.9 46.5 Q-78.0 47.35 -78.55 47.95 L-78.8 47.95 Q-78.6 46.4 -80.35 44.4 L-82.45 42.55 M-13.75 52.05 L-19.2 57.95 Q-22.55 61.8 -25.75 61.8 -29.15 61.8 -32.2 63.15 -35.7 64.7 -36.5 67.3 -36.65 65.05 -37.05 64.5 -37.5 63.95 -39.15 63.95 -40.6 63.95 -42.4 65.45 L-43.25 66.3 Q-42.9 64.2 -41.4 61.65 -39.3 58.1 -36.75 56.8 L-36.5 56.8 -36.75 57.8 -37.0 58.95 Q-37.0 59.45 -36.5 59.85 L-30.0 52.85 Q-24.85 47.5 -22.4 47.9 -24.2 48.65 -25.45 50.0 -27.0 51.7 -27.0 53.65 -27.0 54.9 -25.75 55.55 L-23.6 56.05 Q-20.9 56.05 -17.3 54.2 -15.25 53.2 -13.75 52.05 L-13.1 51.55 M-75.9 71.6 L-75.9 72.25 -73.6 75.4 Q-72.3 77.6 -71.55 80.65 L-71.15 81.4 -71.4 81.4 -71.55 80.65 Q-72.3 79.55 -74.1 77.8 -75.75 76.15 -75.9 72.25 M-68.5 88.1 L-68.75 90.5 Q-68.75 91.55 -68.15 92.9 L-67.3 94.55" fill="none" stroke="#ff6600" stroke-linecap="round" stroke-linejoin="round" stroke-width="1.0"/>
    <path d="M24.6 6.55 Q24.9 6.8 24.9 7.6 L19.85 9.8 Q14.4 12.3 12.6 14.3 11.75 15.25 10.15 18.8 8.7 22.0 7.25 23.05 L6.4 22.55 Q6.05 22.15 6.05 21.3 L7.1 18.15 8.25 15.15 8.1 14.9 Q7.35 15.15 4.0 18.65 L0.75 22.05 -0.55 21.85 -0.65 20.55 Q-0.65 15.45 5.55 10.3 11.0 5.75 19.0 2.85 L19.15 3.0 19.25 3.8 Q19.25 4.9 17.55 6.05 L15.4 7.35 19.65 6.8 23.8 6.25 24.6 6.55 M8.2 11.35 L7.15 12.35 7.25 12.5 9.0 12.1 9.0 10.75 8.2 11.35" fill="#ffffcc" fill-rule="evenodd" stroke="none"/>
    <path d="M45.1 5.2 Q42.7 7.5 42.05 7.5 L41.1 7.4 41.1 7.25 40.7 7.0 40.6 6.1 Q40.6 5.45 43.7 3.25 46.8 1.0 47.9 0.9 47.8 2.6 45.1 5.2" fill="#ffffcc" fill-rule="evenodd" stroke="none"/>
    <path d="M-60.95 -19.65 Q-61.2 -19.3 -62.0 -19.3 -64.3 -19.3 -66.25 -21.6 -67.8 -23.5 -67.8 -24.4 L-67.75 -24.9 Q-65.9 -25.35 -63.85 -23.65 L-60.65 -20.55 -60.95 -19.65" fill="#ffffcc" fill-rule="evenodd" stroke="none"/>
    <path d="M-50.3 -25.5 L-50.25 -26.6 Q-49.6 -26.6 -48.05 -25.65 -45.85 -24.25 -38.75 -22.75 -28.4 -20.05 -28.4 -16.3 L-28.45 -15.3 -28.55 -15.25 -28.95 -15.0 -30.1 -14.8 -32.55 -15.4 -35.05 -16.05 Q-37.0 -16.05 -37.3 -15.3 -37.6 -14.45 -38.4 -14.35 -40.05 -14.85 -39.85 -15.85 L-39.25 -17.5 Q-39.25 -19.3 -44.75 -21.0 -50.3 -22.75 -50.3 -25.5 M-37.55 -19.8 L-36.75 -18.85 -34.5 -18.85 -36.35 -19.5 -37.65 -19.9 -37.55 -19.8" fill="#ffffcc" fill-rule="evenodd" stroke="none"/>
  </g>
</svg>
