<?xml version="1.0" encoding="UTF-8" standalone="no"?>
<svg xmlns:xlink="http://www.w3.org/1999/xlink" height="184.5px" width="173.25px" xmlns="http://www.w3.org/2000/svg">
  <g transform="matrix(1.0, 0.0, 0.0, 1.0, 90.05, 93.9)">
    <path d="M80.15 -57.7 Q78.95 -54.75 77.05 -52.4 L74.25 -49.05 Q73.65 -49.45 72.65 -51.4 L71.65 -52.7 71.7 -51.8 Q71.7 -46.55 67.15 -40.95 63.95 -37.0 61.35 -35.55 L64.0 -36.0 Q65.9 -36.0 66.65 -34.95 67.25 -34.1 67.25 -32.2 67.25 -28.75 64.7 -24.35 62.9 -21.2 60.8 -18.95 65.15 -21.65 68.95 -28.05 72.05 -33.25 76.0 -33.25 L77.1 -32.8 78.0 -32.0 78.25 -32.0 Q79.15 -34.5 79.35 -37.3 79.55 -40.15 78.15 -43.65 76.75 -47.2 78.45 -52.45 L80.15 -57.7 M35.6 -1.8 Q37.95 -5.05 39.95 -6.8 L39.4 -5.95 Q38.9 -4.85 38.9 -2.4 38.9 0.0 39.6 0.75 40.3 1.45 42.55 1.45 43.45 1.45 44.75 0.95 46.05 0.45 47.5 0.45 45.2 1.1 43.05 5.85 41.95 8.3 41.3 10.3 39.05 13.1 36.3 14.0 33.95 14.75 32.25 16.85 L32.6 14.8 32.9 12.5 Q32.9 10.5 32.25 9.8 31.5 9.05 29.3 9.05 26.2 9.05 22.55 13.4 19.4 17.15 19.3 18.85 19.45 14.4 22.35 9.3 25.55 3.7 29.55 2.85 32.7 2.2 35.6 -1.8 M74.15 -54.65 Q77.15 -54.65 79.45 -60.95 81.9 -67.6 81.9 -77.35 82.4 -75.85 82.55 -74.15 L82.7 -69.25 Q82.7 -65.55 81.9 -60.1 L80.7 -51.25 Q80.25 -47.9 80.75 -44.05 L81.25 -39.5 Q81.25 -35.55 80.2 -32.55 79.45 -30.45 77.2 -26.5 L77.4 -28.15 77.15 -30.55 Q76.75 -31.45 75.25 -31.45 73.05 -31.45 70.3 -27.05 66.95 -21.8 65.0 -20.55 53.7 -13.4 50.85 -10.45 L59.25 -20.4 Q64.0 -25.95 64.0 -30.05 64.0 -31.55 63.6 -32.2 63.0 -33.15 61.25 -33.15 58.9 -33.15 56.55 -31.65 54.4 -30.25 52.75 -27.9 L52.75 -28.15 Q53.1 -30.5 55.8 -33.35 L61.45 -38.75 Q69.25 -46.4 69.25 -54.45 L68.85 -59.0 70.35 -57.35 Q72.8 -54.65 74.15 -54.65 M41.1 3.05 L40.05 5.0 39.1 5.15 Q37.95 5.15 37.35 2.85 L36.65 0.5 Q36.2 1.6 35.1 2.7 33.3 4.45 31.65 4.7 30.35 4.9 28.4 6.3 26.5 7.65 25.1 9.35 25.5 8.95 27.45 8.15 29.55 7.25 30.45 7.25 32.65 7.25 33.75 8.5 34.6 9.5 34.6 11.05 34.6 12.65 33.95 13.35 36.35 12.15 38.45 9.15 40.5 6.2 41.1 3.45 L41.1 3.05 M54.0 28.2 L54.0 28.45 Q51.8 31.2 51.2 32.75 50.6 34.2 50.6 36.65 50.6 37.95 50.95 39.55 L51.3 42.15 50.6 45.95 50.15 47.75 Q50.2 45.0 48.5 42.35 45.8 38.15 45.8 36.1 45.8 32.6 48.5 28.65 L48.5 32.95 48.65 33.45 49.15 33.45 51.15 30.4 Q52.65 28.35 54.0 28.2 M48.55 34.9 Q47.4 33.65 47.4 36.05 L47.6 37.65 Q47.95 39.2 48.9 39.2 L49.55 39.1 49.65 38.25 Q49.65 36.15 48.55 34.9 M0.1 36.65 L0.0 37.85 Q0.0 39.4 0.35 40.1 L0.65 41.75 Q0.65 43.2 0.2 44.2 -0.3 45.45 -1.3 45.45 L-2.2 45.1 Q-2.95 44.7 -3.55 44.7 -4.7 44.7 -7.15 47.4 L-9.35 49.8 Q-10.35 45.55 -5.05 41.65 L-1.25 38.6 0.1 36.65 M46.3 61.7 L46.75 65.0 46.55 67.35 46.3 70.5 45.8 68.35 Q45.35 67.05 45.35 66.2 45.35 65.3 45.8 63.65 L46.3 61.7 M-81.15 -69.35 L-81.65 -66.45 -82.2 -62.8 Q-82.2 -60.0 -81.75 -58.75 L-80.15 -55.0 -80.3 -58.05 Q-80.3 -61.0 -78.45 -62.65 -76.85 -64.1 -74.5 -64.1 -71.5 -64.1 -70.6 -60.1 -70.35 -64.45 -74.35 -69.9 -77.05 -73.5 -77.05 -77.0 L-77.7 -72.2 Q-78.45 -68.3 -79.55 -68.3 -80.25 -68.3 -81.05 -69.25 L-81.15 -69.35 M-48.0 -37.75 L-47.5 -41.5 -47.3 -41.5 Q-46.25 -39.85 -45.6 -32.25 -45.35 -29.55 -43.85 -26.8 L-42.1 -24.15 Q-43.45 -25.15 -48.3 -27.6 -53.5 -31.35 -53.5 -37.5 L-53.1 -41.5 -52.6 -40.45 Q-50.4 -35.8 -49.25 -35.8 -48.4 -35.8 -48.0 -37.75 M-82.85 -75.95 L-82.15 -74.75 Q-80.8 -72.45 -79.75 -71.65 L-78.35 -80.3 Q-77.0 -88.85 -74.25 -93.4 L-74.25 -93.15 -75.5 -90.1 Q-75.9 -88.55 -75.9 -84.2 -75.9 -76.95 -72.55 -70.95 -69.25 -64.95 -69.25 -61.5 -69.25 -57.55 -71.15 -53.5 L-71.15 -53.75 Q-70.8 -56.4 -72.0 -58.9 -73.2 -61.35 -74.85 -61.35 -75.9 -61.35 -76.85 -60.15 -78.05 -58.65 -78.05 -56.15 -78.05 -53.9 -77.2 -50.0 L-76.4 -46.3 Q-77.4 -48.8 -80.75 -53.4 -83.55 -58.5 -83.55 -66.65 -83.55 -69.6 -83.2 -72.15 -82.85 -74.7 -82.85 -75.75 L-82.85 -75.95 M-51.05 -34.0 Q-51.0 -31.45 -49.4 -30.1 L-46.15 -27.9 -46.75 -29.9 -47.4 -32.45 -47.35 -33.65 Q-47.25 -34.15 -46.8 -34.35 L-46.8 -35.4 -47.65 -35.4 -48.2 -33.7 Q-48.55 -32.9 -49.3 -32.9 -49.95 -32.9 -50.65 -33.5 L-51.05 -34.0 M-74.75 -26.0 L-74.75 -26.7 -72.4 -23.35 Q-69.95 -19.55 -68.9 -19.55 -67.95 -19.55 -67.6 -21.5 -67.1 -24.2 -66.4 -25.25 -66.6 -21.15 -64.3 -17.0 -63.0 -14.7 -61.55 -13.3 L-62.6 -13.55 -63.75 -13.3 -64.0 -12.25 Q-64.0 -10.8 -62.55 -8.55 L-61.45 -7.0 Q-62.2 -7.7 -63.5 -8.35 L-68.55 -10.45 Q-75.5 -13.55 -75.5 -19.4 L-75.1 -22.9 Q-74.75 -25.3 -74.75 -26.0 M-67.45 -14.4 Q-67.45 -15.0 -66.4 -15.25 L-64.9 -15.4 -64.7 -15.4 -66.25 -16.45 Q-67.2 -17.3 -67.45 -17.9 L-68.3 -17.05 Q-68.6 -16.65 -69.2 -16.65 -70.3 -16.65 -72.15 -18.5 L-73.55 -20.1 -73.55 -20.0 Q-73.55 -16.1 -69.8 -13.65 -66.85 -11.7 -65.35 -12.0 L-66.6 -13.1 Q-67.45 -14.0 -67.45 -14.4 M-1.6 43.1 Q-0.9 42.4 -0.9 41.8 -0.9 39.75 -2.55 41.0 -3.9 42.05 -4.7 43.4 L-4.65 43.7 Q-4.35 44.0 -3.65 44.0 -2.45 44.0 -1.6 43.1 M-50.2 18.35 L-51.15 14.4 -49.25 17.55 -46.8 21.5 Q-45.55 23.5 -42.6 25.5 L-43.25 25.25 -47.5 23.6 Q-49.15 22.8 -50.2 18.35 M-85.95 29.85 L-85.25 28.65 -85.25 30.8 Q-86.25 32.8 -86.25 34.25 -86.25 36.5 -85.15 40.2 L-83.55 46.05 -83.8 46.05 Q-84.8 42.15 -87.5 38.45 -89.55 35.7 -89.55 30.9 -89.55 29.65 -88.95 26.9 L-88.55 24.7 -88.05 27.6 Q-87.65 29.85 -86.9 31.0 -86.4 30.8 -85.95 29.85" fill="#ffcc00" fill-rule="evenodd" stroke="none"/>
    <path d="M80.15 -57.7 L78.45 -52.45 Q76.75 -47.2 78.15 -43.65 79.55 -40.15 79.35 -37.3 79.15 -34.5 78.25 -32.0 L78.0 -32.0 77.1 -32.8 76.0 -33.25 Q72.05 -33.25 68.95 -28.05 65.15 -21.65 60.8 -18.95 62.9 -21.2 64.7 -24.35 67.25 -28.75 67.25 -32.2 67.25 -34.1 66.65 -34.95 65.9 -36.0 64.0 -36.0 L61.35 -35.55 Q63.95 -37.0 67.15 -40.95 71.7 -46.55 71.7 -51.8 L71.65 -52.7 72.65 -51.4 Q73.65 -49.45 74.25 -49.05 L77.05 -52.4 Q78.95 -54.75 80.15 -57.7 M41.1 3.05 L41.1 3.45 Q40.5 6.2 38.45 9.15 36.35 12.15 33.95 13.35 34.6 12.65 34.6 11.05 34.6 9.5 33.75 8.5 32.65 7.25 30.45 7.25 29.55 7.25 27.45 8.15 25.5 8.95 25.1 9.35 26.5 7.65 28.4 6.3 30.35 4.9 31.65 4.7 33.3 4.45 35.1 2.7 36.2 1.6 36.65 0.5 L37.35 2.85 Q37.95 5.15 39.1 5.15 L40.05 5.0 41.1 3.05 M48.55 34.9 Q49.65 36.15 49.65 38.25 L49.55 39.1 48.9 39.2 Q47.95 39.2 47.6 37.65 L47.4 36.05 Q47.4 33.65 48.55 34.9 M-81.15 -69.35 L-81.05 -69.25 Q-80.25 -68.3 -79.55 -68.3 -78.45 -68.3 -77.7 -72.2 L-77.05 -77.0 Q-77.05 -73.5 -74.35 -69.9 -70.35 -64.45 -70.6 -60.1 -71.5 -64.1 -74.5 -64.1 -76.85 -64.1 -78.45 -62.65 -80.3 -61.0 -80.3 -58.05 L-80.15 -55.0 -81.75 -58.75 Q-82.2 -60.0 -82.2 -62.8 L-81.65 -66.45 -81.15 -69.35 M-51.05 -34.0 L-50.65 -33.5 Q-49.95 -32.9 -49.3 -32.9 -48.55 -32.9 -48.2 -33.7 L-47.65 -35.4 -46.8 -35.4 -46.8 -34.35 Q-47.25 -34.15 -47.35 -33.65 L-47.4 -32.45 -46.75 -29.9 -46.15 -27.9 -49.4 -30.1 Q-51.0 -31.45 -51.05 -34.0 M-67.45 -14.4 Q-67.45 -14.0 -66.6 -13.1 L-65.35 -12.0 Q-66.85 -11.7 -69.8 -13.65 -73.55 -16.1 -73.55 -20.0 L-73.55 -20.1 -72.15 -18.5 Q-70.3 -16.65 -69.2 -16.65 -68.6 -16.65 -68.3 -17.05 L-67.45 -17.9 Q-67.2 -17.3 -66.25 -16.45 L-64.7 -15.4 -64.9 -15.4 -66.4 -15.25 Q-67.45 -15.0 -67.45 -14.4 M-1.6 43.1 Q-2.45 44.0 -3.65 44.0 -4.35 44.0 -4.65 43.7 L-4.7 43.4 Q-3.9 42.05 -2.55 41.0 -0.9 39.75 -0.9 41.8 -0.9 42.4 -1.6 43.1" fill="#ffff66" fill-rule="evenodd" stroke="none"/>
    <path d="M74.15 -54.65 Q72.8 -54.65 70.35 -57.35 L68.85 -59.0 69.25 -54.45 Q69.25 -46.4 61.45 -38.75 L55.8 -33.35 Q53.1 -30.5 52.75 -28.15 L52.75 -27.9 Q54.4 -30.25 56.55 -31.65 58.9 -33.15 61.25 -33.15 63.0 -33.15 63.6 -32.2 64.0 -31.55 64.0 -30.05 64.0 -25.95 59.25 -20.4 L50.85 -10.45 Q53.7 -13.4 65.0 -20.55 66.95 -21.8 70.3 -27.05 73.05 -31.45 75.25 -31.45 76.75 -31.45 77.15 -30.55 L77.4 -28.15 77.2 -26.5 Q79.45 -30.45 80.2 -32.55 81.25 -35.55 81.25 -39.5 L80.75 -44.05 Q80.25 -47.9 80.7 -51.25 L81.9 -60.1 Q82.7 -65.55 82.7 -69.25 L82.55 -74.15 Q82.4 -75.85 81.9 -77.35 81.9 -67.6 79.45 -60.95 77.15 -54.65 74.15 -54.65 M35.6 -1.8 Q32.7 2.2 29.55 2.85 25.55 3.7 22.35 9.3 19.45 14.4 19.3 18.85 19.4 17.15 22.55 13.4 26.2 9.05 29.3 9.05 31.5 9.05 32.25 9.8 32.9 10.5 32.9 12.5 L32.6 14.8 32.25 16.85 Q33.95 14.75 36.3 14.0 39.05 13.1 41.3 10.3 41.95 8.3 43.05 5.85 45.2 1.1 47.5 0.45 46.05 0.45 44.75 0.95 43.45 1.45 42.55 1.45 40.3 1.45 39.6 0.75 38.9 0.0 38.9 -2.4 38.9 -4.85 39.4 -5.95 L39.95 -6.8 Q37.95 -5.05 35.6 -1.8 M77.2 -26.5 L77.15 -26.05 76.9 -26.05 77.2 -26.5 M81.9 -77.35 L81.9 -77.6 M54.0 28.2 Q52.65 28.35 51.15 30.4 L49.15 33.45 48.65 33.45 48.5 32.95 48.5 28.65 Q45.8 32.6 45.8 36.1 45.8 38.15 48.5 42.35 50.2 45.0 50.15 47.75 L50.6 45.95 51.3 42.15 50.95 39.55 Q50.6 37.95 50.6 36.65 50.6 34.2 51.2 32.75 51.8 31.2 54.0 28.45 L54.0 28.2 M49.15 27.7 L48.5 28.65 M50.15 47.75 L49.85 49.95 49.85 49.1 50.15 47.75 M32.25 16.85 L32.25 17.2 32.0 17.2 32.25 16.85 M10.25 20.75 L8.3 23.45 M0.1 36.65 L0.0 37.85 Q0.0 39.4 0.35 40.1 L0.65 41.75 Q0.65 43.2 0.2 44.2 -0.3 45.45 -1.3 45.45 L-2.2 45.1 Q-2.95 44.7 -3.55 44.7 -4.7 44.7 -7.15 47.4 L-9.35 49.8 -10.5 50.7 M0.1 36.65 Q0.45 35.7 0.4 34.7 M46.3 61.7 L45.8 63.65 Q45.35 65.3 45.35 66.2 45.35 67.05 45.8 68.35 L46.3 70.5 46.55 67.35 46.75 65.0 46.3 61.7 M44.6 86.05 Q44.35 86.75 44.35 90.1 M-82.85 -75.95 L-82.85 -75.75 Q-82.85 -74.7 -83.2 -72.15 -83.55 -69.6 -83.55 -66.65 -83.55 -58.5 -80.75 -53.4 -77.4 -48.8 -76.4 -46.3 L-77.2 -50.0 Q-78.05 -53.9 -78.05 -56.15 -78.05 -58.65 -76.85 -60.15 -75.9 -61.35 -74.85 -61.35 -73.2 -61.35 -72.0 -58.9 -70.8 -56.4 -71.15 -53.75 L-71.15 -53.5 Q-69.25 -57.55 -69.25 -61.5 -69.25 -64.95 -72.55 -70.95 -75.9 -76.95 -75.9 -84.2 -75.9 -88.55 -75.5 -90.1 L-74.25 -93.15 -74.25 -93.4 Q-77.0 -88.85 -78.35 -80.3 L-79.75 -71.65 Q-80.8 -72.45 -82.15 -74.75 L-82.85 -75.95 M-48.0 -37.75 Q-48.4 -35.8 -49.25 -35.8 -50.4 -35.8 -52.6 -40.45 L-53.1 -41.5 -53.5 -37.5 Q-53.5 -31.35 -48.3 -27.6 -43.45 -25.15 -42.1 -24.15 L-43.85 -26.8 Q-45.35 -29.55 -45.6 -32.25 -46.25 -39.85 -47.3 -41.5 L-47.5 -41.5 -48.0 -37.75 M-74.75 -26.0 Q-74.75 -25.3 -75.1 -22.9 L-75.5 -19.4 Q-75.5 -13.55 -68.55 -10.45 L-63.5 -8.35 Q-62.2 -7.7 -61.45 -7.0 L-62.55 -8.55 Q-64.0 -10.8 -64.0 -12.25 L-63.75 -13.3 -62.6 -13.55 -61.55 -13.3 Q-63.0 -14.7 -64.3 -17.0 -66.6 -21.15 -66.4 -25.25 -67.1 -24.2 -67.6 -21.5 -67.95 -19.55 -68.9 -19.55 -69.95 -19.55 -72.4 -23.35 L-74.75 -26.7 -74.75 -26.0 M-61.55 -13.3 L-60.8 -12.85 -60.0 -12.15 -59.5 -11.9 -59.75 -11.9 -60.0 -12.15 Q-60.8 -12.6 -61.55 -13.3 M-42.1 -24.15 L-41.8 -23.85 -41.8 -23.6 -42.1 -24.15 M-9.35 49.8 Q-10.35 45.55 -5.05 41.65 L-1.25 38.6 0.1 36.65 M-50.2 18.35 Q-49.15 22.8 -47.5 23.6 L-43.25 25.25 -42.6 25.5 Q-45.55 23.5 -46.8 21.5 L-49.25 17.55 -51.15 14.4 -50.2 18.35 M-43.25 16.4 Q-42.8 17.4 -41.1 18.75 -39.4 20.1 -38.4 20.25 M-42.6 25.5 Q-40.8 26.2 -40.1 27.0 M-85.95 29.85 Q-86.4 30.8 -86.9 31.0 -87.65 29.85 -88.05 27.6 L-88.55 24.7 -88.95 26.9 Q-89.55 29.65 -89.55 30.9 -89.55 35.7 -87.5 38.45 -84.8 42.15 -83.8 46.05 L-83.55 46.05 -85.15 40.2 Q-86.25 36.5 -86.25 34.25 -86.25 32.8 -85.25 30.8 L-85.25 28.65 -85.95 29.85 M-83.55 65.25 L-83.3 65.25 -83.2 66.9 -83.3 68.55 -82.9 69.55 -82.35 70.25" fill="none" stroke="#ff6600" stroke-linecap="round" stroke-linejoin="round" stroke-width="1.0"/>
    <path d="M-86.8 34.05 Q-87.05 34.65 -87.4 34.65 -88.5 34.65 -88.25 33.1 -88.25 31.35 -87.4 31.25 -86.6 31.15 -86.6 33.1 L-86.8 34.05" fill="#ffff66" fill-rule="evenodd" stroke="none"/>
    <path d="M73.75 -40.75 L74.6 -41.25 75.15 -42.0 75.15 -42.25 73.8 -41.0 73.75 -40.75 M77.6 -43.4 L73.8 -36.25 69.8 -29.4 68.85 -29.5 68.8 -29.65 68.45 -30.05 68.35 -31.15 Q68.35 -32.1 70.3 -37.0 69.35 -38.2 68.2 -38.55 67.5 -38.75 67.5 -39.55 L72.55 -45.25 Q77.6 -49.6 77.6 -43.4" fill="#ffffcc" fill-rule="evenodd" stroke="none"/>
    <path d="M39.15 4.25 Q39.15 5.8 38.55 7.15 37.65 9.0 36.0 9.0 34.8 9.0 34.2 7.55 33.8 6.6 33.8 5.9 33.8 5.0 35.2 3.9 36.9 2.6 38.9 3.5 39.15 3.0 39.15 4.25" fill="#ffffcc" fill-rule="evenodd" stroke="none"/>
    <path d="M-76.8 -72.6 Q-74.9 -71.75 -74.5 -70.4 L-73.8 -66.5 -74.05 -65.9 Q-74.3 -65.55 -75.1 -65.55 L-76.35 -65.9 -77.05 -66.5 Q-77.65 -66.05 -78.15 -64.45 -78.6 -63.0 -79.25 -62.85 L-80.0 -63.6 -80.1 -64.8 Q-80.1 -67.3 -79.0 -67.9 -77.9 -68.5 -77.9 -70.6 -77.9 -72.4 -76.8 -72.6" fill="#ffffcc" fill-rule="evenodd" stroke="none"/>
  </g>
</svg>
