<?xml version="1.0" encoding="UTF-8" standalone="no"?>
<svg xmlns:xlink="http://www.w3.org/1999/xlink" height="151.8px" width="172.45px" xmlns="http://www.w3.org/2000/svg">
  <g transform="matrix(1.0, 0.0, 0.0, 1.0, 92.9, 118.25)">
    <path d="M75.75 -106.35 Q77.2 -103.4 77.05 -99.6 L76.95 -94.0 Q77.0 -92.2 78.25 -89.4 79.05 -87.45 79.05 -84.65 79.05 -81.85 78.05 -79.3 76.45 -75.25 75.5 -71.05 L75.5 -72.2 76.25 -80.45 Q76.25 -81.95 75.55 -83.65 74.6 -85.8 73.2 -85.8 71.55 -85.8 70.9 -84.75 L69.5 -81.05 69.25 -81.05 69.25 -86.05 70.5 -90.2 Q71.25 -92.7 71.25 -94.35 71.25 -97.25 70.65 -98.95 L69.65 -101.65 71.45 -99.1 Q72.85 -96.6 73.2 -96.6 74.4 -96.6 74.8 -100.5 L75.5 -106.85 75.75 -106.35 M70.9 -49.5 L70.9 -48.3 72.2 -46.15 Q72.9 -44.85 73.55 -44.3 L74.6 -46.6 76.0 -49.8 76.0 -49.55 Q75.4 -46.55 76.2 -43.1 L77.15 -38.3 Q77.15 -33.7 74.05 -29.5 75.45 -32.5 75.65 -33.45 L75.75 -36.15 75.75 -38.05 Q75.5 -39.2 74.15 -39.2 72.85 -39.2 71.9 -37.95 70.45 -35.85 69.25 -34.65 L70.3 -36.9 Q71.4 -39.5 71.4 -41.3 L70.95 -44.6 70.5 -48.05 70.9 -49.5 M40.35 -13.55 Q42.25 -7.65 42.25 -6.55 L42.2 -4.95 41.4 -2.5 41.55 -3.75 41.3 -5.35 Q40.9 -6.05 39.4 -6.05 38.65 -6.05 38.25 -5.7 L36.25 -3.7 36.25 -3.95 Q37.65 -5.35 39.0 -8.35 40.35 -11.35 40.35 -13.05 L40.35 -13.55 M53.75 23.5 Q52.2 26.15 52.2 27.3 L52.4 23.3 Q52.55 21.85 53.6 19.95 54.3 18.65 54.5 17.4 L55.3 20.1 Q55.3 20.75 53.75 23.5 M2.9 17.15 L3.4 18.55 4.25 21.0 Q4.25 22.1 3.45 22.75 L2.55 23.4 Q2.7 23.25 2.35 23.25 L2.15 21.9 1.9 20.65 2.65 18.2 2.9 17.15 M-76.25 -116.95 L-76.25 -117.75 -76.1 -116.65 Q-75.45 -111.0 -75.0 -109.9 -74.55 -110.0 -74.35 -110.2 L-74.05 -110.6 -74.25 -107.45 Q-74.3 -105.4 -73.8 -104.15 -72.95 -102.1 -71.7 -101.15 -70.9 -100.55 -70.9 -99.05 -70.9 -98.2 -73.7 -93.65 L-75.5 -90.1 -75.5 -93.65 Q-75.5 -95.9 -76.65 -99.7 -77.85 -103.5 -77.85 -104.75 -77.85 -106.1 -77.05 -109.65 -76.25 -113.2 -76.25 -116.95 M-53.15 -69.35 L-53.45 -68.0 -53.5 -66.3 Q-53.5 -63.6 -52.5 -61.75 -51.55 -59.9 -51.55 -59.4 -51.55 -58.05 -53.1 -56.1 -54.6 -54.3 -54.25 -49.25 L-55.1 -51.7 -55.4 -54.15 -54.55 -57.65 -53.75 -61.4 -54.25 -65.6 Q-54.25 -67.5 -53.15 -69.35 M-71.15 -32.35 Q-70.3 -29.75 -68.45 -27.6 L-69.15 -23.75 -69.75 -20.05 Q-69.75 -23.0 -71.75 -26.65 -73.8 -30.35 -73.8 -33.3 L-73.2 -37.7 Q-72.75 -40.15 -72.65 -41.3 -72.0 -35.0 -71.15 -32.35 M-91.0 8.6 L-90.25 10.2 Q-89.75 11.45 -89.75 12.35 -89.75 14.1 -90.25 15.45 -90.75 16.8 -90.75 19.4 L-90.5 23.15 -91.35 20.8 Q-92.4 17.75 -92.4 16.65 -92.4 15.15 -91.7 13.3 -91.0 11.5 -91.0 9.5 L-91.0 8.6" fill="#ffcc00" fill-rule="evenodd" stroke="none"/>
    <path d="M75.75 -106.35 L75.5 -106.85 74.8 -100.5 Q74.4 -96.6 73.2 -96.6 72.85 -96.6 71.45 -99.1 L69.65 -101.65 70.65 -98.95 Q71.25 -97.25 71.25 -94.35 71.25 -92.7 70.5 -90.2 L69.25 -86.05 69.25 -81.05 69.5 -81.05 70.9 -84.75 Q71.55 -85.8 73.2 -85.8 74.6 -85.8 75.55 -83.65 76.25 -81.95 76.25 -80.45 L75.5 -72.2 75.5 -71.05 Q76.45 -75.25 78.05 -79.3 79.05 -81.85 79.05 -84.65 79.05 -87.45 78.25 -89.4 77.0 -92.2 76.95 -94.0 L77.05 -99.6 Q77.2 -103.4 75.75 -106.35 M70.9 -49.5 L70.9 -50.2 71.15 -50.2 70.9 -49.5 70.9 -48.3 72.2 -46.15 Q72.9 -44.85 73.55 -44.3 L74.6 -46.6 76.0 -49.8 76.0 -49.55 Q75.4 -46.55 76.2 -43.1 L77.15 -38.3 Q77.15 -33.7 74.05 -29.5 L74.0 -29.45 73.8 -29.2 M39.4 -16.8 Q40.25 -15.5 40.35 -13.55 42.25 -7.65 42.25 -6.55 L42.2 -4.95 41.4 -2.5 41.05 -0.8 40.8 -0.8 41.4 -2.5 41.55 -3.75 41.3 -5.35 Q40.9 -6.05 39.4 -6.05 38.65 -6.05 38.25 -5.7 L36.25 -3.7 36.25 -3.95 Q37.65 -5.35 39.0 -8.35 40.35 -11.35 40.35 -13.05 L40.35 -13.55 39.6 -15.8 M70.9 -49.5 L70.5 -48.05 70.95 -44.6 71.4 -41.3 Q71.4 -39.5 70.3 -36.9 L69.25 -34.65 Q70.45 -35.85 71.9 -37.95 72.85 -39.2 74.15 -39.2 75.5 -39.2 75.75 -38.05 L75.75 -36.15 75.65 -33.45 Q75.45 -32.5 74.05 -29.5 M69.25 -34.65 L69.0 -34.2 68.75 -34.2 69.25 -34.65 M60.4 -14.85 Q60.5 -12.15 59.65 -10.85 L58.25 -9.1 M54.5 17.4 L53.85 15.6 M53.75 23.5 Q55.3 20.75 55.3 20.1 L54.5 17.4 Q54.3 18.65 53.6 19.95 52.55 21.85 52.4 23.3 L52.2 27.3 Q52.2 26.15 53.75 23.5 M2.9 17.15 L3.4 18.55 4.25 21.0 Q4.25 22.1 3.45 22.75 L2.55 23.4 Q2.7 23.25 2.35 23.25 L2.15 21.9 1.9 20.65 2.65 18.2 2.9 17.15 Q3.05 15.8 2.6 14.95 L2.6 14.7 M-76.25 -116.95 Q-76.25 -113.2 -77.05 -109.65 -77.85 -106.1 -77.85 -104.75 -77.85 -103.5 -76.65 -99.7 -75.5 -95.9 -75.5 -93.65 L-75.5 -90.1 -73.7 -93.65 Q-70.9 -98.2 -70.9 -99.05 -70.9 -100.55 -71.7 -101.15 -72.95 -102.1 -73.8 -104.15 -74.3 -105.4 -74.25 -107.45 L-74.05 -110.6 -74.35 -110.2 Q-74.55 -110.0 -75.0 -109.9 -75.45 -111.0 -76.1 -116.65 L-76.25 -117.75 -76.25 -116.95 M-87.65 -70.0 Q-87.9 -66.85 -87.3 -64.95 -86.75 -63.3 -85.5 -62.3 M-75.5 -90.1 L-75.55 -89.95 -76.6 -86.05 -76.65 -85.75 -76.65 -86.0 -76.6 -86.05 Q-76.5 -87.9 -75.5 -90.1 M-53.15 -69.35 L-52.75 -70.0 M-53.15 -69.35 L-53.45 -68.0 -53.5 -66.3 Q-53.5 -63.6 -52.5 -61.75 -51.55 -59.9 -51.55 -59.4 -51.55 -58.05 -53.1 -56.1 -54.6 -54.3 -54.25 -49.25 L-55.1 -51.7 -55.4 -54.15 -54.55 -57.65 -53.75 -61.4 -54.25 -65.6 Q-54.25 -67.5 -53.15 -69.35 M-71.15 -32.35 Q-72.0 -35.0 -72.65 -41.3 -72.75 -40.15 -73.2 -37.7 L-73.8 -33.3 Q-73.8 -30.35 -71.75 -26.65 -69.75 -23.0 -69.75 -20.05 L-69.15 -23.75 -68.45 -27.6 Q-70.3 -29.75 -71.15 -32.35 M-72.65 -41.3 L-73.05 -43.4 M-1.6 30.95 L-2.1 33.05 M-91.0 8.6 L-90.25 10.2 Q-89.75 11.45 -89.75 12.35 -89.75 14.1 -90.25 15.45 -90.75 16.8 -90.75 19.4 L-90.5 23.15 -90.0 24.3 -90.0 24.55 Q-90.35 24.2 -90.5 23.15 L-91.35 20.8 Q-92.4 17.75 -92.4 16.65 -92.4 15.15 -91.7 13.3 -91.0 11.5 -91.0 9.5 L-91.0 8.6 -91.05 8.05 -91.25 6.85" fill="none" stroke="#ff6600" stroke-linecap="round" stroke-linejoin="round" stroke-width="1.0"/>
    <path d="M-74.7 -107.65 L-75.05 -106.45 Q-75.05 -105.25 -73.75 -102.9 -72.45 -100.6 -72.45 -99.35 -72.45 -98.7 -73.1 -97.0 -73.75 -95.2 -74.15 -95.2 L-74.75 -95.3 -74.8 -95.75 -74.45 -97.0 Q-74.15 -97.95 -74.15 -98.45 L-75.2 -101.35 Q-76.25 -104.1 -76.25 -104.9 L-75.9 -106.9 Q-75.55 -108.55 -75.15 -108.8 -74.5 -108.35 -74.7 -107.65" fill="#ffff66" fill-rule="evenodd" stroke="none"/>
    <path d="M-72.3 -31.85 L-72.2 -32.4 -71.9 -32.45 Q-71.35 -31.85 -70.5 -29.8 L-69.7 -27.6 -69.75 -27.1 -69.85 -27.0 -70.3 -26.95 Q-71.15 -26.95 -71.7 -28.95 L-72.3 -31.85" fill="#ffff66" fill-rule="evenodd" stroke="none"/>
    <path d="M73.7 -96.25 L74.05 -95.45 74.1 -95.4 75.6 -98.2 Q76.05 -98.65 76.05 -96.9 L75.65 -92.85 Q75.65 -92.15 76.8 -88.8 77.95 -85.45 77.95 -83.65 L77.9 -81.55 77.4 -81.35 Q76.95 -82.0 76.9 -85.25 76.4 -88.2 73.5 -88.2 72.9 -88.2 72.3 -87.3 71.75 -86.45 71.4 -86.45 L70.85 -86.55 70.8 -87.5 Q70.8 -89.25 71.8 -91.25 72.9 -93.45 73.2 -96.05 L73.7 -96.25" fill="#ffff66" fill-rule="evenodd" stroke="none"/>
    <path d="M72.4 -44.6 L72.5 -44.6 Q73.15 -44.6 73.5 -44.0 73.9 -43.45 74.15 -43.45 L74.7 -43.6 75.05 -43.85 75.6 -43.55 76.2 -40.05 76.15 -39.0 Q76.2 -38.8 75.7 -38.8 75.3 -38.8 74.9 -39.75 L74.45 -40.95 73.85 -40.45 73.4 -40.1 Q73.15 -40.25 72.75 -42.05 72.4 -43.7 72.4 -44.3 L72.4 -44.6" fill="#ffff66" fill-rule="evenodd" stroke="none"/>
    <path d="M40.1 -8.6 L40.6 -9.35 Q41.15 -9.05 41.15 -8.1 L40.8 -6.85 40.4 -6.7 Q39.9 -7.2 39.9 -7.65 L40.1 -8.6" fill="#ffff66" fill-rule="evenodd" stroke="none"/>
  </g>
</svg>
