<?xml version="1.0" encoding="UTF-8" standalone="no"?>
<svg xmlns:xlink="http://www.w3.org/1999/xlink" height="90.85px" width="165.45px" xmlns="http://www.w3.org/2000/svg">
  <g transform="matrix(1.0, 0.0, 0.0, 1.0, 5.45, 6.0)">
    <path d="M42.95 10.05 Q41.0 8.8 41.0 8.5 L42.05 3.0 Q43.15 -2.15 43.15 -6.0 L44.2 -6.0 Q44.5 -3.0 46.25 -0.1 48.1 3.0 50.1 3.0 L51.8 2.75 52.7 2.55 Q52.1 3.15 50.65 6.0 L48.2 5.8 Q45.15 5.25 44.15 3.65 L44.2 5.0 Q44.2 7.05 42.95 10.05 M116.8 2.05 L116.75 1.75 Q116.75 1.35 118.6 -2.15 L120.1 -5.05 119.95 -3.5 123.2 -0.3 Q125.3 1.95 125.3 3.75 L125.3 4.45 Q123.15 0.5 120.75 0.5 119.45 0.5 117.7 1.45 117.2 1.7 116.8 2.05 M123.95 49.75 Q127.35 60.6 122.9 70.55 L122.65 70.7 Q98.75 64.45 76.85 74.65 74.35 53.4 48.4 64.0 40.15 67.35 35.7 75.05 33.85 72.9 33.05 70.2 32.35 67.45 32.75 64.65 19.0 68.05 9.7 57.65 25.8 60.95 28.85 45.95 30.45 38.15 25.75 31.2 38.0 36.8 39.5 25.35 L39.55 24.15 Q41.1 34.0 51.15 36.5 54.85 21.05 67.4 10.55 58.65 31.1 78.1 29.2 80.55 28.85 81.95 26.55 92.4 33.3 98.0 23.55 111.55 24.65 115.7 36.6 118.85 28.65 116.95 20.25 118.95 28.0 125.5 32.95 L134.1 26.15 137.1 26.15 Q123.4 39.0 135.95 41.6 139.5 42.45 143.1 41.0 140.1 56.9 124.15 49.6 L128.85 47.15 126.3 44.4 Q122.4 39.7 122.4 33.6 L120.4 32.2 Q120.7 35.65 119.35 39.0 118.0 42.3 115.3 44.6 113.65 39.45 109.7 35.45 106.55 32.35 102.4 30.6 101.45 32.6 99.9 34.35 97.3 37.25 93.35 37.55 88.55 37.75 84.95 34.6 80.4 41.4 72.25 39.5 61.5 37.3 59.4 27.55 L58.85 31.55 Q57.95 37.4 55.25 42.8 51.55 42.7 48.15 41.1 42.5 38.6 39.55 33.4 L37.85 40.6 33.95 38.85 35.6 40.15 Q38.1 42.1 38.45 45.05 38.7 47.0 37.35 48.4 36.35 49.45 34.85 49.0 L35.4 52.0 Q35.45 55.15 33.35 57.6 30.65 60.85 26.3 62.25 L31.5 61.95 Q35.8 61.0 39.15 58.25 L40.9 59.65 Q41.95 60.55 42.2 62.1 42.4 63.75 41.75 65.4 44.85 61.5 49.25 58.65 71.6 43.9 83.25 65.85 85.3 64.95 87.35 64.25 103.55 59.35 118.45 67.55 L118.2 65.0 Q117.65 56.25 123.95 49.75 M153.55 28.45 Q154.8 27.7 156.8 27.5 L159.45 27.5 Q159.85 27.85 159.95 28.35 L160.0 29.75 Q160.0 31.8 158.55 33.5 155.15 33.45 153.75 29.5 L153.55 28.45 M94.3 15.0 Q92.9 13.35 91.3 12.85 L88.0 12.5 Q87.75 10.95 89.25 8.7 L89.85 7.85 90.5 8.55 Q93.1 11.5 94.3 15.0 M0.65 22.0 L0.15 22.0 Q-0.95 22.0 -3.6 20.85 L-5.45 19.95 -5.45 17.5 -2.8 17.5 Q-2.15 18.1 0.65 22.0 M1.8 69.2 L5.85 72.55 5.75 72.7 Q4.95 74.5 3.6 74.5 2.35 74.5 1.5 74.0 0.4 73.4 0.4 72.25 0.4 70.9 1.05 70.0 L1.8 69.2" fill="#ff6f15" fill-rule="evenodd" stroke="none"/>
    <path d="M42.95 10.05 Q44.2 7.05 44.2 5.0 L44.15 3.65 Q45.15 5.25 48.2 5.8 L50.65 6.0 49.7 7.8 Q47.85 11.6 47.5 13.0 L44.1 10.75 42.95 10.05 M116.8 2.05 Q117.2 1.7 117.7 1.45 119.45 0.5 120.75 0.5 123.15 0.5 125.3 4.45 125.1 5.85 124.3 6.55 122.4 8.35 120.5 12.0 L120.5 11.5 Q120.5 6.45 118.6 4.45 117.05 2.8 116.8 2.05 M124.15 49.6 Q140.1 56.9 143.1 41.0 139.5 42.45 135.95 41.6 123.4 39.0 137.1 26.15 L134.1 26.15 125.5 32.95 Q118.95 28.0 116.95 20.25 118.85 28.65 115.7 36.6 111.55 24.65 98.0 23.55 92.4 33.3 81.95 26.55 80.55 28.85 78.1 29.2 58.65 31.1 67.4 10.55 54.85 21.05 51.15 36.5 41.1 34.0 39.55 24.15 L39.5 25.35 Q38.0 36.8 25.75 31.2 30.45 38.15 28.85 45.95 25.8 60.95 9.7 57.65 19.0 68.05 32.75 64.65 32.35 67.45 33.05 70.2 33.85 72.9 35.7 75.05 40.15 67.35 48.4 64.0 74.35 53.4 76.85 74.65 98.75 64.45 122.65 70.7 L122.9 70.55 Q127.35 60.6 123.95 49.75 L123.95 49.6 124.15 49.6 M113.8 9.5 L126.05 26.55 131.0 25.2 Q140.45 22.4 149.65 25.3 L146.6 26.1 Q141.15 27.45 136.75 30.8 L133.2 33.65 133.7 40.1 142.8 40.7 144.25 37.15 Q150.05 46.95 142.75 55.8 L141.85 56.85 Q136.65 58.6 132.15 55.85 L131.5 55.3 128.05 59.7 Q131.55 80.5 105.5 77.45 87.8 75.5 71.55 82.55 59.4 62.2 36.75 77.7 40.3 83.95 47.55 82.55 27.4 90.8 26.15 69.75 6.95 69.7 0.95 52.6 L2.75 47.8 Q17.45 64.55 21.0 40.45 21.95 34.0 15.1 31.3 11.1 29.75 6.95 28.8 11.95 26.4 16.8 28.95 L18.15 29.75 17.9 28.55 19.85 30.15 19.85 21.35 Q21.45 24.45 24.5 26.4 29.3 29.35 33.7 25.55 L35.2 23.95 38.3 17.35 Q44.25 22.7 47.25 30.6 L49.05 30.6 48.9 28.05 51.0 28.05 51.0 21.1 55.05 15.25 Q61.55 8.6 70.8 6.5 L69.85 7.7 Q65.15 13.4 65.7 20.6 65.85 27.95 73.25 27.15 L74.15 26.95 79.05 26.85 80.7 23.35 84.65 22.3 Q86.85 22.65 88.6 21.7 98.2 20.65 107.5 24.3 110.1 25.3 112.15 27.2 116.8 18.6 113.8 9.5 M158.55 33.5 L156.85 35.0 Q154.7 36.45 152.4 36.85 L151.3 35.65 Q150.9 35.1 150.9 34.0 150.7 32.45 151.3 30.9 151.95 29.3 153.55 28.45 L153.75 29.5 Q155.15 33.45 158.55 33.5 M-5.45 19.95 L-3.6 20.85 Q-0.95 22.0 0.15 22.0 L0.65 22.0 3.1 25.5 1.2 26.9 0.15 27.0 Q-1.45 27.0 -2.45 25.8 -3.25 24.9 -5.45 21.0 L-5.45 19.95 M0.85 40.45 L1.6 39.65 2.1 40.05 0.05 42.4 Q-2.0 44.2 -4.35 44.75 L-4.35 42.25 -2.0 42.5 Q-1.15 42.5 0.85 40.45 M24.6 29.75 L24.55 30.2 25.75 31.2 25.45 29.75 24.6 29.75 M1.8 69.2 L1.95 68.9 3.6 68.5 5.0 68.5 Q6.3 68.9 6.3 70.75 L5.85 72.55 1.8 69.2" fill="#ffe87e" fill-rule="evenodd" stroke="none"/>
    <path d="M144.25 37.15 Q156.3 47.75 143.55 55.9 L141.85 56.85 142.75 55.8 Q150.05 46.95 144.25 37.15 M0.95 52.6 Q1.05 46.6 6.15 43.1 L7.65 42.15 Q5.4 58.65 15.95 48.6 26.8 38.3 12.0 31.8 L6.0 29.35 6.95 28.8 Q11.1 29.75 15.1 31.3 21.95 34.0 21.0 40.45 17.45 64.55 2.75 47.8 L0.95 52.6 M17.9 28.55 Q16.6 20.35 21.15 13.35 L22.55 11.35 Q21.25 17.25 25.15 21.9 28.4 25.75 33.7 25.55 29.3 29.35 24.5 26.4 21.45 24.45 19.85 21.35 L19.85 30.15 17.9 28.55 M35.2 23.95 Q36.45 20.95 35.6 17.7 L35.0 15.85 31.2 14.35 Q43.45 12.85 47.0 23.4 47.75 25.7 47.55 28.05 L48.9 28.05 49.05 30.6 47.25 30.6 Q44.25 22.7 38.3 17.35 L35.2 23.95 M55.05 15.25 Q62.15 7.35 71.5 1.6 L74.1 0.0 Q74.2 6.5 71.3 12.55 69.15 16.9 65.7 20.6 65.15 13.4 69.85 7.7 L70.8 6.5 Q61.55 8.6 55.05 15.25 M74.15 26.95 Q78.5 25.65 79.15 21.35 L79.25 20.05 Q82.25 22.0 84.65 22.3 L80.7 23.35 79.05 26.85 74.15 26.95 M88.6 21.7 Q90.65 20.55 92.1 17.65 105.35 14.4 112.3 24.7 117.15 10.1 101.5 5.6 108.35 5.6 113.8 9.5 116.8 18.6 112.15 27.2 110.1 25.3 107.5 24.3 98.2 20.65 88.6 21.7 M24.6 29.75 L25.45 29.75 25.75 31.2 24.55 30.2 24.6 29.75" fill="#ffffff" fill-rule="evenodd" stroke="none"/>
    <path d="M123.95 49.75 Q117.65 56.25 118.2 65.0 L118.45 67.55 Q103.55 59.35 87.35 64.25 85.3 64.95 83.25 65.85 71.6 43.9 49.25 58.65 44.85 61.5 41.75 65.4 42.4 63.75 42.2 62.1 41.95 60.55 40.9 59.65 L39.15 58.25 Q35.8 61.0 31.5 61.95 L26.3 62.25 Q30.65 60.85 33.35 57.6 35.45 55.15 35.4 52.0 L34.85 49.0 Q36.35 49.45 37.35 48.4 38.7 47.0 38.45 45.05 38.1 42.1 35.6 40.15 L33.95 38.85 37.85 40.6 39.55 33.4 Q42.5 38.6 48.15 41.1 51.55 42.7 55.25 42.8 57.95 37.4 58.85 31.55 L59.4 27.55 Q61.5 37.3 72.25 39.5 80.4 41.4 84.95 34.6 88.55 37.75 93.35 37.55 97.3 37.25 99.9 34.35 101.45 32.6 102.4 30.6 106.55 32.35 109.7 35.45 113.65 39.45 115.3 44.6 118.0 42.3 119.35 39.0 120.7 35.65 120.4 32.2 L122.4 33.6 Q122.4 39.7 126.3 44.4 L128.85 47.15 124.15 49.6 123.95 49.6 123.95 49.75" fill="#ffa215" fill-rule="evenodd" stroke="none"/>
  </g>
</svg>
