<?xml version="1.0" encoding="UTF-8" standalone="no"?>
<svg xmlns:xlink="http://www.w3.org/1999/xlink" height="28.6px" width="29.0px" xmlns="http://www.w3.org/2000/svg">
  <g transform="matrix(1.0, 0.0, 0.0, 1.0, -0.65, -1.15)">
    <path d="M23.45 3.8 L23.95 3.5 Q24.95 2.75 25.6 2.9 L26.3 3.0 26.55 3.05 26.55 3.1 26.55 3.2 26.55 3.7 26.55 4.0 26.25 4.0 25.8 4.0 24.7 3.8 23.45 3.8 M25.75 6.95 L25.7 7.25 Q25.85 8.0 24.1 9.9 22.4 11.75 22.45 12.3 L23.3 12.25 24.3 12.05 24.4 12.05 23.85 12.8 Q23.3 13.6 24.8 14.1 25.15 14.25 25.55 16.15 25.85 18.0 24.1 18.8 22.4 19.65 20.4 19.65 L17.35 19.5 15.6 19.65 13.55 19.75 11.7 19.65 11.35 18.8 Q11.1 18.15 11.7 16.5 L11.85 16.1 12.05 16.1 Q12.8 16.15 13.45 14.8 L13.55 14.75 13.5 14.5 14.05 14.4 16.95 14.55 18.95 16.25 19.25 16.05 19.75 15.3 Q20.2 14.6 19.8 14.3 19.45 14.1 19.9 13.6 20.85 12.15 20.8 11.75 L19.6 10.8 Q18.45 9.9 18.95 9.25 21.0 9.35 23.1 8.5 L25.75 6.95" fill="#7e4d2b" fill-rule="evenodd" stroke="none"/>
    <path d="M27.2 19.55 L26.4 20.6 25.65 21.15 24.1 21.4 19.3 21.4 15.7 21.5 14.55 21.65 13.1 21.55 12.15 21.4 11.55 21.05 Q10.9 20.65 10.95 20.35 L11.8 20.55 13.1 20.6 14.6 20.6 17.25 20.55 20.95 20.55 23.15 20.55 25.15 20.5 26.35 20.05 27.2 19.55 M26.25 4.0 L26.55 4.0 Q26.1 5.15 24.3 6.4 21.65 8.15 18.2 7.85 L17.85 7.85 Q18.5 7.4 19.85 7.0 L21.95 6.4 23.95 5.25 25.65 4.15 26.25 4.0" fill="#452918" fill-rule="evenodd" stroke="none"/>
    <path d="M26.55 3.2 L27.3 5.25 26.95 5.7 25.75 6.95 23.1 8.5 Q21.0 9.35 18.95 9.25 18.45 9.9 19.6 10.8 L20.8 11.75 Q20.85 12.15 19.9 13.6 19.45 14.1 19.8 14.3 20.2 14.6 19.75 15.3 L19.25 16.05 18.95 16.25 16.95 14.55 14.05 14.4 13.5 14.5 Q13.4 14.05 12.7 14.4 11.7 14.9 11.6 15.75 L11.6 15.95 11.85 16.1 11.7 16.5 Q11.1 18.15 11.35 18.8 L11.7 19.65 Q11.95 20.25 11.6 20.4 11.1 20.65 10.35 19.25 L10.25 18.6 Q9.95 17.05 11.05 15.4 12.05 13.75 14.1 13.15 16.15 12.55 17.55 13.6 L18.65 14.5 18.95 13.6 19.3 12.35 Q19.3 11.9 18.8 11.55 18.2 11.25 17.7 10.4 17.3 9.65 17.05 8.65 L16.95 8.65 16.8 7.4 17.35 7.7 17.85 7.85 18.2 7.85 Q21.65 8.15 24.3 6.4 26.1 5.15 26.55 4.0 L26.55 3.7 26.55 3.2 M17.85 8.5 L17.85 8.65 Q18.05 8.85 18.55 8.9 L19.15 8.95 19.25 8.65 Q19.3 8.35 18.6 8.35 L17.85 8.5 M17.05 8.65 Q17.45 9.1 18.8 9.25 L18.95 9.25 18.8 9.25 Q17.45 9.1 17.05 8.65 M18.65 14.5 Q19.05 14.9 19.05 15.25 19.05 14.9 18.65 14.5" fill="#ae7e37" fill-rule="evenodd" stroke="none"/>
    <path d="M10.95 20.35 L10.35 19.25 Q11.1 20.65 11.6 20.4 11.95 20.25 11.7 19.65 L13.55 19.75 15.6 19.65 17.35 19.5 20.4 19.65 Q22.4 19.65 24.1 18.8 25.85 18.0 25.55 16.15 25.15 14.25 24.8 14.1 23.3 13.6 23.85 12.8 L24.4 12.05 24.3 12.05 23.3 12.25 22.45 12.3 Q22.4 11.75 24.1 9.9 25.85 8.0 25.7 7.25 L25.75 6.95 26.95 5.7 27.0 6.5 Q26.95 7.7 26.3 8.75 26.1 9.1 26.05 10.0 L26.1 10.1 26.3 10.5 25.7 10.65 25.35 10.85 25.1 10.75 25.05 10.65 25.2 10.65 26.05 10.0 25.2 10.65 25.05 10.65 25.1 10.75 25.35 10.85 25.7 10.65 26.3 10.5 26.35 11.25 26.3 11.75 25.8 12.2 25.7 12.2 25.85 12.9 Q25.95 13.8 26.2 14.25 L27.1 15.65 Q27.45 16.25 27.35 16.9 L27.35 17.4 26.95 18.9 26.35 20.05 25.15 20.5 23.15 20.55 20.95 20.55 17.25 20.55 14.6 20.6 13.1 20.6 11.8 20.55 10.95 20.35 M16.8 7.4 L17.55 6.65 Q18.1 6.0 18.85 5.8 L20.1 5.5 21.1 5.05 22.05 4.65 22.85 4.4 23.45 3.8 24.7 3.8 25.8 4.0 26.25 4.0 25.65 4.15 23.95 5.25 21.95 6.4 19.85 7.0 Q18.5 7.4 17.85 7.85 L17.35 7.7 16.8 7.4 M25.5 12.9 L25.35 12.4 25.7 12.2 25.35 12.4 25.5 12.9" fill="#653d23" fill-rule="evenodd" stroke="none"/>
    <path d="M27.3 5.25 L27.35 5.4 27.3 7.4 26.7 9.05 26.45 9.5 26.8 10.3 26.9 11.25 26.3 11.9 Q26.25 12.75 26.45 13.35 L27.35 14.85 Q28.1 15.85 27.8 17.65 27.7 18.75 27.2 19.55 L26.35 20.05 26.95 18.9 27.35 17.4 27.35 16.9 Q27.45 16.25 27.1 15.65 L26.2 14.25 Q25.95 13.8 25.85 12.9 L25.7 12.2 25.8 12.2 26.3 11.75 26.35 11.25 26.3 10.5 26.1 10.1 26.05 10.0 Q26.1 9.1 26.3 8.75 26.95 7.7 27.0 6.5 L26.95 5.7 27.3 5.25 M26.3 11.9 L25.8 12.2 26.3 11.9 M26.45 9.5 L26.05 10.0 26.45 9.5" fill="#c6944a" fill-rule="evenodd" stroke="none"/>
    <path d="M13.5 14.5 L13.55 14.75 13.45 14.8 Q12.8 16.15 12.05 16.1 L11.85 16.1 11.6 15.95 11.6 15.75 Q11.7 14.9 12.7 14.4 13.4 14.05 13.5 14.5 M17.85 8.5 L18.6 8.35 Q19.3 8.35 19.25 8.65 L19.15 8.95 18.55 8.9 Q18.05 8.85 17.85 8.65 L17.85 8.5" fill="#d6b37e" fill-rule="evenodd" stroke="none"/>
    <path d="M23.45 3.8 L23.95 3.5 Q24.95 2.75 25.6 2.9 L26.3 3.0 26.55 3.05 26.55 3.1 26.55 3.2 27.3 5.25 27.35 5.4 27.3 7.4 26.7 9.05 26.45 9.5 26.8 10.3 26.9 11.25 26.3 11.9 Q26.25 12.75 26.45 13.35 L27.35 14.85 Q28.1 15.85 27.8 17.65 27.7 18.75 27.2 19.55 L26.4 20.6 25.65 21.15 24.1 21.4 19.3 21.4 15.7 21.5 14.55 21.65 13.1 21.55 12.15 21.4 11.55 21.05 Q10.9 20.65 10.95 20.35 L10.35 19.25 10.25 18.6 Q9.95 17.05 11.05 15.4 12.05 13.75 14.1 13.15 16.15 12.55 17.55 13.6 L18.65 14.5 18.95 13.6 19.3 12.35 Q19.3 11.9 18.8 11.55 18.2 11.25 17.7 10.4 17.3 9.65 17.05 8.65 L16.95 8.65 16.8 7.4 17.55 6.65 Q18.1 6.0 18.85 5.8 L20.1 5.5 21.1 5.05 22.05 4.65 22.85 4.4 23.45 3.8 M26.25 4.0 L26.55 4.0 26.55 3.7 26.55 3.2 M17.85 7.85 Q18.5 7.4 19.85 7.0 L21.95 6.4 23.95 5.25 25.65 4.15 26.25 4.0 M26.95 5.7 L27.3 5.25 M25.75 6.95 L23.1 8.5 Q21.0 9.35 18.95 9.25 L18.8 9.25 Q17.45 9.1 17.05 8.65 M26.05 10.0 L25.2 10.65 25.05 10.65 25.1 10.75 25.35 10.85 25.7 10.65 26.3 10.5 M26.95 5.7 L25.75 6.95 M26.05 10.0 L26.45 9.5 M25.8 12.2 L26.3 11.9 M25.8 12.2 L25.7 12.2 25.35 12.4 25.5 12.9 M26.35 20.05 L27.2 19.55 M17.85 7.85 L18.2 7.85 Q21.65 8.15 24.3 6.4 26.1 5.15 26.55 4.0 M10.95 20.35 L11.8 20.55 13.1 20.6 14.6 20.6 17.25 20.55 20.95 20.55 23.15 20.55 25.15 20.5 26.35 20.05 M16.8 7.4 L17.35 7.7 17.85 7.85 M19.05 15.25 Q19.05 14.9 18.65 14.5" fill="none" stroke="#ffffff" stroke-linecap="round" stroke-linejoin="round" stroke-width="3.5"/>
    <path d="M11.35 13.25 L14.35 13.25 Q12.2 16.95 8.5 19.65 L7.4 18.8 Q4.4 16.25 2.65 13.25 L5.6 13.25 5.6 3.55 11.35 3.55 11.35 13.25 Z" fill="none" stroke="#ffffff" stroke-linecap="round" stroke-linejoin="round" stroke-width="3.5"/>
    <path d="M6.85 3.55 L10.05 3.55 10.1 11.9 10.1 14.25 11.95 14.25 10.35 16.9 8.5 19.65 7.4 18.8 Q6.3 17.6 8.5 19.65 L6.85 17.5 Q7.05 17.7 7.4 17.7 L7.65 17.4 6.8 16.0 Q5.85 14.85 5.85 15.95 L6.15 16.5 Q5.0 14.9 4.9 14.15 L6.85 14.15 6.85 3.55" fill="#cb2c1b" fill-rule="evenodd" stroke="none"/>
    <path d="M10.05 3.55 L11.35 3.55 11.35 13.25 14.35 13.25 Q12.2 16.95 8.5 19.65 L10.35 16.9 11.95 14.25 10.1 14.25 10.1 11.9 10.05 3.55" fill="#a01e16" fill-rule="evenodd" stroke="none"/>
    <path d="M7.4 18.8 Q4.4 16.25 2.65 13.25 L5.6 13.25 5.6 3.55 6.85 3.55 6.85 14.15 4.9 14.15 Q5.0 14.9 6.15 16.5 L6.3 16.85 6.85 17.5 8.5 19.65 Q6.3 17.6 7.4 18.8" fill="#ee6c6c" fill-rule="evenodd" stroke="none"/>
    <path d="M6.15 16.5 L5.85 15.95 Q5.85 14.85 6.8 16.0 L7.65 17.4 7.4 17.7 Q7.05 17.7 6.85 17.5 L6.3 16.85 6.15 16.5" fill="#ffffff" fill-rule="evenodd" stroke="none"/>
    <path d="M6.85 3.55 L10.05 3.55 11.35 3.55 11.35 13.25 14.35 13.25 Q12.2 16.95 8.5 19.65 L7.4 18.8 Q4.4 16.25 2.65 13.25 L5.6 13.25 5.6 3.55 6.85 3.55 Z" fill="none" stroke="#6d0101" stroke-linecap="round" stroke-linejoin="round" stroke-width="1.0"/>
    <path d="M25.0 2.9 L25.6 2.9 26.3 3.0 26.55 3.05 26.55 3.1 26.55 3.2 27.3 5.25 27.35 5.4 27.3 7.4 26.7 9.05 26.45 9.5 26.8 10.3 26.9 11.25 26.3 11.9 Q26.25 12.75 26.45 13.35 L27.35 14.85 Q28.1 15.85 27.8 17.65 27.7 18.75 27.2 19.55 L26.4 20.6 25.65 21.15 24.1 21.4 19.3 21.4 15.7 21.5 14.55 21.65 13.1 21.55 12.15 21.4 11.55 21.05 10.9 20.45 23.55 20.4 Q24.8 20.3 25.0 18.85 27.85 18.6 25.95 13.3 L23.15 12.95 25.75 10.8 24.6 10.8 Q26.4 7.55 25.35 3.9 L25.0 2.9 M25.35 12.4 L25.7 12.2 25.8 12.2 26.3 11.9 25.8 12.2 25.7 12.2 25.35 12.4 M26.05 10.0 L26.45 9.5 26.05 10.0" fill="#2b1a0f" fill-rule="evenodd" stroke="none"/>
    <path d="M10.4 16.8 L11.05 15.4 Q12.05 13.75 14.1 13.15 16.15 12.55 17.55 13.6 L18.65 14.5 18.95 13.6 19.3 12.35 Q19.3 11.9 18.8 11.55 18.2 11.25 17.7 10.4 17.3 9.65 17.05 8.65 L16.95 8.65 16.8 7.4 17.55 6.65 Q17.75 6.4 18.05 6.2 L18.85 5.8 20.1 5.5 21.1 5.05 22.05 4.65 22.85 4.4 23.45 3.8 23.95 3.5 Q24.55 3.05 25.0 2.9 L25.35 3.9 Q22.2 6.4 18.1 7.4 18.4 10.15 20.6 12.4 L19.75 15.3 Q20.85 16.4 20.3 17.55 18.05 14.8 15.7 14.25 12.5 14.35 10.45 17.8 L10.4 16.8 M19.05 15.25 Q19.05 14.9 18.65 14.5 19.05 14.9 19.05 15.25" fill="#663300" fill-rule="evenodd" stroke="none"/>
    <path d="M10.9 20.45 L10.65 20.0 10.35 19.25 10.25 18.6 Q10.1 17.7 10.4 16.8 L10.45 17.8 Q12.5 14.35 15.7 14.25 18.05 14.8 20.3 17.55 20.85 16.4 19.75 15.3 L20.6 12.4 Q18.4 10.15 18.1 7.4 22.2 6.4 25.35 3.9 26.4 7.55 24.6 10.8 L25.75 10.8 23.15 12.95 25.95 13.3 Q27.85 18.6 25.0 18.85 24.8 20.3 23.55 20.4 L10.9 20.45" fill="#653d23" fill-rule="evenodd" stroke="none"/>
    <path d="M25.0 2.9 L25.6 2.9 26.3 3.0 26.55 3.05 26.55 3.1 26.55 3.2 27.3 5.25 27.35 5.4 27.3 7.4 26.7 9.05 26.45 9.5 26.8 10.3 26.9 11.25 26.3 11.9 Q26.25 12.75 26.45 13.35 L27.35 14.85 Q28.1 15.85 27.8 17.65 27.7 18.75 27.2 19.55 L26.4 20.6 25.65 21.15 24.1 21.4 19.3 21.4 15.7 21.5 14.55 21.65 13.1 21.55 12.15 21.4 11.55 21.05 10.9 20.45 10.65 20.0 10.35 19.25 10.25 18.6 Q10.1 17.7 10.4 16.8 L11.05 15.4 Q12.05 13.75 14.1 13.15 16.15 12.55 17.55 13.6 L18.65 14.5 18.95 13.6 19.3 12.35 Q19.3 11.9 18.8 11.55 18.2 11.25 17.7 10.4 17.3 9.65 17.05 8.65 L16.95 8.65 16.8 7.4 17.55 6.65 Q17.75 6.4 18.05 6.2 L18.85 5.8 20.1 5.5 21.1 5.05 22.05 4.65 22.85 4.4 23.45 3.8 23.95 3.5 Q24.55 3.05 25.0 2.9 M26.45 9.5 L26.05 10.0 M26.3 11.9 L25.8 12.2 25.7 12.2 25.35 12.4 M18.65 14.5 Q19.05 14.9 19.05 15.25" fill="none" stroke="#29160a" stroke-linecap="round" stroke-linejoin="round" stroke-width="0.6000000000000001"/>
    <path d="M20.6 20.5 L13.85 20.5 13.85 27.4 12.35 28.1 12.35 19.35 15.9 19.35 16.15 19.1 Q16.3 18.85 16.75 18.85 L17.35 18.9 17.8 19.35 21.1 19.35 20.6 20.5 M18.9 20.7 L20.45 20.7 20.45 21.1 21.1 21.1 20.8 22.15 20.45 22.15 20.45 22.95 19.2 23.95 14.5 23.95 14.5 22.15 14.1 22.15 14.1 21.1 14.5 21.1 14.5 20.7 16.0 20.7 16.0 21.1 18.9 21.1 18.9 20.7 M18.9 22.15 L16.0 22.15 16.0 22.95 18.9 22.95 18.9 22.15 M20.85 25.1 L18.4 26.65 21.05 28.0 18.6 28.0 17.25 27.3 16.0 28.05 13.7 28.05 16.0 26.6 14.1 25.6 16.6 25.6 17.2 25.9 18.15 25.35 14.25 25.35 14.25 24.35 20.85 24.35 20.85 25.1 M4.1 20.5 L3.8 20.8 3.3 20.95 2.85 20.8 2.45 20.5 2.35 20.0 Q2.35 19.75 2.5 19.55 L2.85 19.15 3.3 19.05 3.75 19.15 4.1 19.55 4.25 20.05 4.1 20.5 M7.05 19.1 L8.5 19.1 8.5 19.4 11.2 19.4 10.75 20.5 8.5 20.5 8.5 20.9 11.1 20.9 11.1 22.9 10.05 23.9 8.5 23.9 8.5 26.05 7.05 26.65 7.05 23.9 4.65 23.9 4.65 20.9 7.05 20.9 7.05 20.5 4.55 20.5 4.55 19.4 7.05 19.4 7.05 19.1 M2.15 21.9 L4.2 21.9 4.2 26.15 4.45 26.3 5.45 24.2 6.85 24.2 5.75 26.5 4.85 26.5 5.65 26.9 11.25 26.9 10.75 28.0 4.9 28.0 4.2 27.55 2.75 28.25 2.75 23.0 2.15 23.0 2.15 21.9 M7.05 21.9 L6.05 21.9 6.05 22.85 7.05 22.85 7.05 21.9 M8.5 21.9 L8.5 22.85 9.7 22.85 9.7 21.9 8.5 21.9 M10.25 24.2 L11.35 26.5 9.9 26.5 8.85 24.2 10.25 24.2" fill="#ffff00" fill-rule="evenodd" stroke="none"/>
    <path d="M20.6 20.5 L13.85 20.5 13.85 27.4 12.35 28.1 12.35 19.35 15.9 19.35 16.15 19.1 Q16.3 18.85 16.75 18.85 L17.35 18.9 17.8 19.35 21.1 19.35 20.6 20.5 M18.9 20.7 L20.45 20.7 20.45 21.1 21.1 21.1 20.8 22.15 20.45 22.15 20.45 22.95 19.2 23.95 14.5 23.95 14.5 22.15 14.1 22.15 14.1 21.1 14.5 21.1 14.5 20.7 16.0 20.7 16.0 21.1 18.9 21.1 18.9 20.7 M18.9 22.15 L16.0 22.15 16.0 22.95 18.9 22.95 18.9 22.15 M20.85 25.1 L18.4 26.65 21.05 28.0 18.6 28.0 17.25 27.3 16.0 28.05 13.7 28.05 16.0 26.6 14.1 25.6 16.6 25.6 17.2 25.9 18.15 25.35 14.25 25.35 14.25 24.35 20.85 24.35 20.85 25.1 M4.1 20.5 L3.8 20.8 3.3 20.95 2.85 20.8 2.45 20.5 2.35 20.0 Q2.35 19.75 2.5 19.55 L2.85 19.15 3.3 19.05 3.75 19.15 4.1 19.55 4.25 20.05 4.1 20.5 M7.05 19.1 L8.5 19.1 8.5 19.4 11.2 19.4 10.75 20.5 8.5 20.5 8.5 20.9 11.1 20.9 11.1 22.9 10.05 23.9 8.5 23.9 8.5 26.05 7.05 26.65 7.05 23.9 4.65 23.9 4.65 20.9 7.05 20.9 7.05 20.5 4.55 20.5 4.55 19.4 7.05 19.4 7.05 19.1 M2.15 21.9 L4.2 21.9 4.2 26.15 4.45 26.3 5.45 24.2 6.85 24.2 5.75 26.5 4.85 26.5 5.65 26.9 11.25 26.9 10.75 28.0 4.9 28.0 4.2 27.55 2.75 28.25 2.75 23.0 2.15 23.0 2.15 21.9 M7.05 21.9 L6.05 21.9 6.05 22.85 7.05 22.85 7.05 21.9 M8.5 21.9 L8.5 22.85 9.7 22.85 9.7 21.9 8.5 21.9 M10.25 24.2 L11.35 26.5 9.9 26.5 8.85 24.2 10.25 24.2 Z" fill="none" stroke="#660000" stroke-linecap="round" stroke-linejoin="round" stroke-width="3.0"/>
    <path d="M20.45 23.0 L19.2 24.0 14.5 24.0 14.5 22.15 14.05 22.15 14.05 21.15 14.5 21.15 14.5 20.7 16.0 20.7 16.0 21.15 18.9 21.15 18.9 20.7 20.45 20.7 20.45 21.15 21.1 21.15 20.75 22.15 20.45 22.15 20.45 23.0 M20.6 20.5 L13.85 20.5 13.85 27.4 12.35 28.1 12.35 19.4 15.9 19.4 16.15 19.1 Q16.3 18.85 16.7 18.85 L17.35 18.95 17.8 19.4 21.1 19.4 20.6 20.5 M4.25 20.05 L4.1 20.5 3.75 20.85 3.3 20.95 2.8 20.85 2.45 20.5 2.35 20.0 Q2.35 19.75 2.5 19.55 L2.8 19.2 3.3 19.05 3.75 19.2 4.1 19.55 4.25 20.05 M4.5 19.45 L7.05 19.45 7.05 19.1 8.5 19.1 8.5 19.45 11.15 19.45 10.7 20.5 8.5 20.5 8.5 20.9 11.1 20.9 11.1 22.9 10.05 23.9 8.5 23.9 8.5 26.1 7.05 26.65 7.05 23.9 4.65 23.9 4.65 20.9 7.05 20.9 7.05 20.5 4.5 20.5 4.5 19.45 M2.1 21.9 L4.2 21.9 4.2 26.15 4.45 26.3 5.45 24.25 6.85 24.25 5.75 26.5 4.85 26.5 5.65 26.9 11.2 26.9 10.7 28.0 4.9 28.0 4.2 27.6 2.75 28.3 2.75 23.05 2.1 23.05 2.1 21.9 M6.05 21.9 L6.05 22.85 7.05 22.85 7.05 21.9 6.05 21.9 M8.5 22.85 L9.7 22.85 9.7 21.9 8.5 21.9 8.5 22.85 M16.0 23.0 L18.9 23.0 18.9 22.15 16.0 22.15 16.0 23.0 M10.2 24.25 L11.35 26.5 9.9 26.5 8.85 24.25 10.2 24.25 M18.15 25.35 L14.25 25.35 14.25 24.35 20.85 24.35 20.85 25.15 18.35 26.65 21.05 28.05 18.6 28.05 17.25 27.35 16.0 28.1 13.7 28.1 16.0 26.65 14.1 25.6 16.6 25.6 17.2 25.9 18.15 25.35" fill="#ffff00" fill-rule="evenodd" stroke="none"/>
  </g>
</svg>
